<?xml version="1.0" encoding="UTF-8" standalone="no"?><svg xmlns="http://www.w3.org/2000/svg" xmlns:xlink="http://www.w3.org/1999/xlink" contentStyleType="text/css" height="445px" preserveAspectRatio="none" style="width:406px;height:445px;background:#FFFFFF;" version="1.1" viewBox="0 0 406 445" width="406px" zoomAndPan="magnify"><defs/><g><rect fill="#FFFFFF" height="290.4398" style="stroke:#181818;stroke-width:1.0;" width="10" x="184.625" y="90.4799"/><rect fill="#FFFFFF" height="28" style="stroke:#181818;stroke-width:1.0;" width="10" x="189.625" y="222.1999"/><rect fill="#FFFFFF" height="41.24" style="stroke:#181818;stroke-width:1.0;" width="10" x="374.25" y="131.7199"/><rect fill="#FFFFFF" height="41.24" style="stroke:#181818;stroke-width:1.0;" width="10" x="374.25" y="298.4398"/><line style="stroke:#181818;stroke-width:0.5;stroke-dasharray:5.0,5.0;" x1="189.625" x2="189.625" y1="47.24" y2="398.9198"/><line style="stroke:#181818;stroke-width:0.5;stroke-dasharray:5.0,5.0;" x1="379.25" x2="379.25" y1="47.24" y2="398.9198"/><rect fill="#E2E2F0" height="41.24" rx="2.5" ry="2.5" style="stroke:#181818;stroke-width:0.5;" width="38" x="170.625" y="5"/><text fill="#000000" font-family="sans-serif" font-size="20" lengthAdjust="spacing" textLength="24" x="177.625" y="33.38">BE</text><rect fill="#E2E2F0" height="41.24" rx="2.5" ry="2.5" style="stroke:#181818;stroke-width:0.5;" width="38" x="170.625" y="397.9198"/><text fill="#000000" font-family="sans-serif" font-size="20" lengthAdjust="spacing" textLength="24" x="177.625" y="426.2998">BE</text><rect fill="#E2E2F0" height="41.24" rx="2.5" ry="2.5" style="stroke:#181818;stroke-width:0.5;" width="42" x="358.25" y="5"/><text fill="#000000" font-family="sans-serif" font-size="20" lengthAdjust="spacing" textLength="28" x="365.25" y="33.38">DB</text><rect fill="#E2E2F0" height="41.24" rx="2.5" ry="2.5" style="stroke:#181818;stroke-width:0.5;" width="42" x="358.25" y="397.9198"/><text fill="#000000" font-family="sans-serif" font-size="20" lengthAdjust="spacing" textLength="28" x="365.25" y="426.2998">DB</text><rect fill="#FFFFFF" height="290.4398" style="stroke:#181818;stroke-width:1.0;" width="10" x="184.625" y="90.4799"/><rect fill="#FFFFFF" height="28" style="stroke:#181818;stroke-width:1.0;" width="10" x="189.625" y="222.1999"/><rect fill="#FFFFFF" height="41.24" style="stroke:#181818;stroke-width:1.0;" width="10" x="374.25" y="131.7199"/><rect fill="#FFFFFF" height="41.24" style="stroke:#181818;stroke-width:1.0;" width="10" x="374.25" y="298.4398"/><ellipse cx="4.5" cy="89.7299" fill="none" rx="4" ry="4" style="stroke:#181818;stroke-width:1.5;"/><polygon fill="#181818" points="172.625,86.4799,182.625,90.4799,172.625,94.4799,176.625,90.4799" style="stroke:#181818;stroke-width:1.0;"/><line style="stroke:#181818;stroke-width:1.0;" x1="9" x2="178.625" y1="90.4799" y2="90.4799"/><text fill="#000000" font-family="sans-serif" font-size="20" font-weight="bold" lengthAdjust="spacing" textLength="11.625" x="12" y="82.62">1</text><text fill="#000000" font-family="sans-serif" font-size="20" lengthAdjust="spacing" textLength="142" x="27.625" y="82.62">PUT /buildings/</text><polygon fill="#181818" points="362.25,127.7199,372.25,131.7199,362.25,135.7199,366.25,131.7199" style="stroke:#181818;stroke-width:1.0;"/><line style="stroke:#181818;stroke-width:1.0;" x1="194.625" x2="368.25" y1="131.7199" y2="131.7199"/><text fill="#000000" font-family="sans-serif" font-size="20" font-weight="bold" lengthAdjust="spacing" textLength="11.625" x="201.625" y="123.8599">2</text><text fill="#000000" font-family="sans-serif" font-size="20" lengthAdjust="spacing" textLength="110" x="217.25" y="123.8599">get building</text><polygon fill="#181818" points="205.625,168.9599,195.625,172.9599,205.625,176.9599,201.625,172.9599" style="stroke:#181818;stroke-width:1.0;"/><line style="stroke:#181818;stroke-width:1.0;stroke-dasharray:2.0,2.0;" x1="199.625" x2="378.25" y1="172.9599" y2="172.9599"/><text fill="#000000" font-family="sans-serif" font-size="20" font-weight="bold" lengthAdjust="spacing" textLength="11.625" x="211.625" y="165.0999">3</text><text fill="#000000" font-family="sans-serif" font-size="20" lengthAdjust="spacing" textLength="75" x="227.25" y="165.0999">building</text><line style="stroke:#181818;stroke-width:1.0;" x1="199.625" x2="241.625" y1="214.1999" y2="214.1999"/><line style="stroke:#181818;stroke-width:1.0;" x1="241.625" x2="241.625" y1="214.1999" y2="227.1999"/><line style="stroke:#181818;stroke-width:1.0;" x1="200.625" x2="241.625" y1="227.1999" y2="227.1999"/><polygon fill="#181818" points="210.625,223.1999,200.625,227.1999,210.625,231.1999,206.625,227.1999" style="stroke:#181818;stroke-width:1.0;"/><text fill="#000000" font-family="sans-serif" font-size="20" font-weight="bold" lengthAdjust="spacing" textLength="11.625" x="206.625" y="206.3399">4</text><text fill="#000000" font-family="sans-serif" font-size="20" lengthAdjust="spacing" textLength="115" x="222.25" y="206.3399">edit building</text><polygon fill="#181818" points="362.25,294.4398,372.25,298.4398,362.25,302.4398,366.25,298.4398" style="stroke:#181818;stroke-width:1.0;"/><line style="stroke:#181818;stroke-width:1.0;" x1="194.625" x2="368.25" y1="298.4398" y2="298.4398"/><text fill="#000000" font-family="sans-serif" font-size="20" font-weight="bold" lengthAdjust="spacing" textLength="11.625" x="201.625" y="290.5799">5</text><text fill="#000000" font-family="sans-serif" font-size="20" lengthAdjust="spacing" textLength="145" x="217.25" y="290.5799">update building</text><polygon fill="#181818" points="205.625,335.6798,195.625,339.6798,205.625,343.6798,201.625,339.6798" style="stroke:#181818;stroke-width:1.0;"/><line style="stroke:#181818;stroke-width:1.0;stroke-dasharray:2.0,2.0;" x1="199.625" x2="378.25" y1="339.6798" y2="339.6798"/><text fill="#000000" font-family="sans-serif" font-size="20" font-weight="bold" lengthAdjust="spacing" textLength="11.625" x="211.625" y="331.8198">6</text><text fill="#000000" font-family="sans-serif" font-size="20" lengthAdjust="spacing" textLength="75" x="227.25" y="331.8198">building</text><polygon fill="#181818" points="11,376.9198,1,380.9198,11,384.9198,7,380.9198" style="stroke:#181818;stroke-width:1.0;"/><line style="stroke:#181818;stroke-width:1.0;stroke-dasharray:2.0,2.0;" x1="5" x2="188.625" y1="380.9198" y2="380.9198"/><text fill="#000000" font-family="sans-serif" font-size="20" font-weight="bold" lengthAdjust="spacing" textLength="11.625" x="17" y="373.0598">7</text><text fill="#000000" font-family="sans-serif" font-size="20" lengthAdjust="spacing" textLength="66" x="32.625" y="373.0598">200 OK</text><!--SRC=[dSt13e8m30RW-vwYuKuW78dHP04l7ZHH7s2mIHfW8z1vyEajA8h6ayV-_Tf_gD5sgbTjuyhQQD3cedn3MsVfY3S3IIoK9sTzMvXUi2GiiLEMGEQW1WXa7dp4cPpYJ0P2R5ou7bqAX_C9ei9Zez5MGoHKINXLP7Wh10jsV9X2PGXczaQP5BmDvsSleCsIFFzCn6ZyzOZR5ZSyBQfzfyVmx_PL63v04iUmttqLtG40]--></g></svg>