<?xml version="1.0" encoding="UTF-8" standalone="no"?><svg xmlns="http://www.w3.org/2000/svg" xmlns:xlink="http://www.w3.org/1999/xlink" contentStyleType="text/css" height="409px" preserveAspectRatio="none" style="width:436px;height:409px;background:#FFFFFF;" version="1.1" viewBox="0 0 436 409" width="436px" zoomAndPan="magnify"><defs/><g><rect fill="#FFFFFF" height="266.6875" style="stroke:#181818;stroke-width:1.0;" width="10" x="197" y="82.5625"/><rect fill="#FFFFFF" height="28" style="stroke:#181818;stroke-width:1.0;" width="10" x="202" y="202.4063"/><rect fill="#FFFFFF" height="37.2813" style="stroke:#181818;stroke-width:1.0;" width="10" x="404" y="119.8438"/><rect fill="#FFFFFF" height="37.2813" style="stroke:#181818;stroke-width:1.0;" width="10" x="404" y="274.6875"/><line style="stroke:#181818;stroke-width:0.5;stroke-dasharray:5.0,5.0;" x1="201.5" x2="201.5" y1="43.2813" y2="367.25"/><line style="stroke:#181818;stroke-width:0.5;stroke-dasharray:5.0,5.0;" x1="408.5" x2="408.5" y1="43.2813" y2="367.25"/><rect fill="#E2E2F0" height="37.2813" rx="2.5" ry="2.5" style="stroke:#181818;stroke-width:0.5;" width="41" x="181.5" y="5"/><text fill="#000000" font-family="sans-serif" font-size="20" lengthAdjust="spacing" textLength="27" x="188.5" y="30.5645">BE</text><rect fill="#E2E2F0" height="37.2813" rx="2.5" ry="2.5" style="stroke:#181818;stroke-width:0.5;" width="41" x="181.5" y="366.25"/><text fill="#000000" font-family="sans-serif" font-size="20" lengthAdjust="spacing" textLength="27" x="188.5" y="391.8145">BE</text><rect fill="#E2E2F0" height="37.2813" rx="2.5" ry="2.5" style="stroke:#181818;stroke-width:0.5;" width="43" x="387.5" y="5"/><text fill="#000000" font-family="sans-serif" font-size="20" lengthAdjust="spacing" textLength="29" x="394.5" y="30.5645">DB</text><rect fill="#E2E2F0" height="37.2813" rx="2.5" ry="2.5" style="stroke:#181818;stroke-width:0.5;" width="43" x="387.5" y="366.25"/><text fill="#000000" font-family="sans-serif" font-size="20" lengthAdjust="spacing" textLength="29" x="394.5" y="391.8145">DB</text><rect fill="#FFFFFF" height="266.6875" style="stroke:#181818;stroke-width:1.0;" width="10" x="197" y="82.5625"/><rect fill="#FFFFFF" height="28" style="stroke:#181818;stroke-width:1.0;" width="10" x="202" y="202.4063"/><rect fill="#FFFFFF" height="37.2813" style="stroke:#181818;stroke-width:1.0;" width="10" x="404" y="119.8438"/><rect fill="#FFFFFF" height="37.2813" style="stroke:#181818;stroke-width:1.0;" width="10" x="404" y="274.6875"/><ellipse cx="4.5" cy="81.8125" fill="none" rx="4" ry="4" style="stroke:#181818;stroke-width:1.5;"/><polygon fill="#181818" points="185,78.5625,195,82.5625,185,86.5625,189,82.5625" style="stroke:#181818;stroke-width:1.0;"/><line style="stroke:#181818;stroke-width:1.0;" x1="9" x2="191" y1="82.5625" y2="82.5625"/><text fill="#000000" font-family="sans-serif" font-size="20" font-weight="bold" lengthAdjust="spacing" textLength="14" x="12" y="75.8457">1</text><text fill="#000000" font-family="sans-serif" font-size="20" lengthAdjust="spacing" textLength="152" x="30" y="75.8457">PUT /buildings/</text><polygon fill="#181818" points="392,115.8438,402,119.8438,392,123.8438,396,119.8438" style="stroke:#181818;stroke-width:1.0;"/><line style="stroke:#181818;stroke-width:1.0;" x1="207" x2="398" y1="119.8438" y2="119.8438"/><text fill="#000000" font-family="sans-serif" font-size="20" font-weight="bold" lengthAdjust="spacing" textLength="14" x="214" y="113.127">2</text><text fill="#000000" font-family="sans-serif" font-size="20" lengthAdjust="spacing" textLength="122" x="232" y="113.127">get building</text><polygon fill="#181818" points="218,153.125,208,157.125,218,161.125,214,157.125" style="stroke:#181818;stroke-width:1.0;"/><line style="stroke:#181818;stroke-width:1.0;stroke-dasharray:2.0,2.0;" x1="212" x2="408" y1="157.125" y2="157.125"/><text fill="#000000" font-family="sans-serif" font-size="20" font-weight="bold" lengthAdjust="spacing" textLength="14" x="224" y="150.4082">3</text><text fill="#000000" font-family="sans-serif" font-size="20" lengthAdjust="spacing" textLength="83" x="242" y="150.4082">building</text><line style="stroke:#181818;stroke-width:1.0;" x1="212" x2="254" y1="194.4063" y2="194.4063"/><line style="stroke:#181818;stroke-width:1.0;" x1="254" x2="254" y1="194.4063" y2="207.4063"/><line style="stroke:#181818;stroke-width:1.0;" x1="213" x2="254" y1="207.4063" y2="207.4063"/><polygon fill="#181818" points="223,203.4063,213,207.4063,223,211.4063,219,207.4063" style="stroke:#181818;stroke-width:1.0;"/><text fill="#000000" font-family="sans-serif" font-size="20" font-weight="bold" lengthAdjust="spacing" textLength="14" x="219" y="187.6895">4</text><text fill="#000000" font-family="sans-serif" font-size="20" lengthAdjust="spacing" textLength="128" x="237" y="187.6895">edit building</text><polygon fill="#181818" points="392,270.6875,402,274.6875,392,278.6875,396,274.6875" style="stroke:#181818;stroke-width:1.0;"/><line style="stroke:#181818;stroke-width:1.0;" x1="207" x2="398" y1="274.6875" y2="274.6875"/><text fill="#000000" font-family="sans-serif" font-size="20" font-weight="bold" lengthAdjust="spacing" textLength="14" x="214" y="267.9707">5</text><text fill="#000000" font-family="sans-serif" font-size="20" lengthAdjust="spacing" textLength="160" x="232" y="267.9707">update building</text><polygon fill="#181818" points="218,307.9688,208,311.9688,218,315.9688,214,311.9688" style="stroke:#181818;stroke-width:1.0;"/><line style="stroke:#181818;stroke-width:1.0;stroke-dasharray:2.0,2.0;" x1="212" x2="408" y1="311.9688" y2="311.9688"/><text fill="#000000" font-family="sans-serif" font-size="20" font-weight="bold" lengthAdjust="spacing" textLength="14" x="224" y="305.252">6</text><text fill="#000000" font-family="sans-serif" font-size="20" lengthAdjust="spacing" textLength="83" x="242" y="305.252">building</text><polygon fill="#181818" points="11,345.25,1,349.25,11,353.25,7,349.25" style="stroke:#181818;stroke-width:1.0;"/><line style="stroke:#181818;stroke-width:1.0;stroke-dasharray:2.0,2.0;" x1="5" x2="201" y1="349.25" y2="349.25"/><text fill="#000000" font-family="sans-serif" font-size="20" font-weight="bold" lengthAdjust="spacing" textLength="14" x="17" y="342.5332">7</text><text fill="#000000" font-family="sans-serif" font-size="20" lengthAdjust="spacing" textLength="74" x="35" y="342.5332">200 OK</text><!--SRC=[dSt13e8m30RW-vwYuKuW78dHP04l7ZHH7s2mIHfW8z1vyEajA8h6ayV-_Tf_gD5sgbTjuyhQQD3cedn3MsVfY3S3IIoK9sTzMvXUi2GiiLEMGEQW1WXa7dp4cPpYJ0P2R5ou7bqAX_C9ei9Zez5MGoHKINXLP7Wh10jsV9X2PGXczaQP5BmDvsSleCsIFFzCn6ZyzOZR5ZSyBQfzfyVmx_PL63v04iUmttqLtG40]--></g></svg>