<?xml version="1.0" encoding="UTF-8" standalone="no"?><svg xmlns="http://www.w3.org/2000/svg" xmlns:xlink="http://www.w3.org/1999/xlink" contentStyleType="text/css" height="301px" preserveAspectRatio="none" style="width:385px;height:301px;background:#FFFFFF;" version="1.1" viewBox="0 0 385 301" width="385px" zoomAndPan="magnify"><defs/><g><rect fill="#FFFFFF" height="110.4001" style="stroke:#181818;stroke-width:1.0;" width="10" x="18" y="91.7999"/><rect fill="#FFFFFF" height="29.6" style="stroke:#181818;stroke-width:1.0;" width="10" x="300" y="113.3999"/><rect fill="#FFFFFF" height="29.6" style="stroke:#181818;stroke-width:1.0;" width="10" x="300" y="172.6"/><line style="stroke:#181818;stroke-width:0.5;stroke-dasharray:5.0,5.0;" x1="23" x2="23" y1="81.7999" y2="220.2"/><line style="stroke:#181818;stroke-width:0.5;stroke-dasharray:5.0,5.0;" x1="304.5" x2="304.5" y1="81.7999" y2="220.2"/><text fill="#000000" font-family="sans-serif" font-size="14" lengthAdjust="spacing" textLength="30" x="5" y="78.0059">User</text><ellipse cx="23" cy="13.5" fill="#E2E2F0" rx="8" ry="8" style="stroke:#181818;stroke-width:0.5;"/><path d="M23,21.5 L23,48.5 M10,29.5 L36,29.5 M23,48.5 L10,63.5 M23,48.5 L36,63.5 " fill="none" style="stroke:#181818;stroke-width:0.5;"/><text fill="#000000" font-family="sans-serif" font-size="14" lengthAdjust="spacing" textLength="30" x="5" y="232.2059">User</text><ellipse cx="23" cy="244.4999" fill="#E2E2F0" rx="8" ry="8" style="stroke:#181818;stroke-width:0.5;"/><path d="M23,252.4999 L23,279.4999 M10,260.4999 L36,260.4999 M23,279.4999 L10,294.4999 M23,279.4999 L36,294.4999 " fill="none" style="stroke:#181818;stroke-width:0.5;"/><rect fill="#E2E2F0" height="49.6998" rx="2.5" ry="2.5" style="stroke:#181818;stroke-width:0.5;" width="149" x="230.5" y="31.1001"/><text fill="#000000" font-family="sans-serif" font-size="14" font-style="italic" lengthAdjust="spacing" textLength="93" x="258.5" y="53.5">«system (C4)»</text><text fill="#000000" font-family="sans-serif" font-size="14" lengthAdjust="spacing" textLength="135" x="237.5" y="70.0059">RobDroneGo System</text><rect fill="#E2E2F0" height="49.6998" rx="2.5" ry="2.5" style="stroke:#181818;stroke-width:0.5;" width="149" x="230.5" y="219.2"/><text fill="#000000" font-family="sans-serif" font-size="14" font-style="italic" lengthAdjust="spacing" textLength="93" x="258.5" y="241.5999">«system (C4)»</text><text fill="#000000" font-family="sans-serif" font-size="14" lengthAdjust="spacing" textLength="135" x="237.5" y="258.1058">RobDroneGo System</text><rect fill="#FFFFFF" height="110.4001" style="stroke:#181818;stroke-width:1.0;" width="10" x="18" y="91.7999"/><rect fill="#FFFFFF" height="29.6" style="stroke:#181818;stroke-width:1.0;" width="10" x="300" y="113.3999"/><rect fill="#FFFFFF" height="29.6" style="stroke:#181818;stroke-width:1.0;" width="10" x="300" y="172.6"/><polygon fill="#181818" points="288,109.3999,298,113.3999,288,117.3999,292,113.3999" style="stroke:#181818;stroke-width:1.0;"/><line style="stroke:#181818;stroke-width:1.0;" x1="28" x2="294" y1="113.3999" y2="113.3999"/><text fill="#000000" font-family="sans-serif" font-size="13" font-weight="bold" lengthAdjust="spacing" textLength="7" x="35" y="107.8769">1</text><text fill="#000000" font-family="sans-serif" font-size="13" lengthAdjust="spacing" textLength="242" x="46" y="107.8769">wants to consult the unapproved requests</text><polygon fill="#181818" points="39,139,29,143,39,147,35,143" style="stroke:#181818;stroke-width:1.0;"/><line style="stroke:#181818;stroke-width:1.0;stroke-dasharray:2.0,2.0;" x1="33" x2="304" y1="143" y2="143"/><text fill="#000000" font-family="sans-serif" font-size="13" font-weight="bold" lengthAdjust="spacing" textLength="7" x="45" y="137.477">2</text><text fill="#000000" font-family="sans-serif" font-size="13" lengthAdjust="spacing" textLength="171" x="56" y="137.477">lists the unapproved requests</text><polygon fill="#181818" points="288,168.6,298,172.6,288,176.6,292,172.6" style="stroke:#181818;stroke-width:1.0;"/><line style="stroke:#181818;stroke-width:1.0;" x1="28" x2="294" y1="172.6" y2="172.6"/><text fill="#000000" font-family="sans-serif" font-size="13" font-weight="bold" lengthAdjust="spacing" textLength="7" x="35" y="167.077">3</text><text fill="#000000" font-family="sans-serif" font-size="13" lengthAdjust="spacing" textLength="86" x="46" y="167.077">selects a robot</text><polygon fill="#181818" points="34,198.2,24,202.2,34,206.2,30,202.2" style="stroke:#181818;stroke-width:1.0;"/><line style="stroke:#181818;stroke-width:1.0;stroke-dasharray:2.0,2.0;" x1="28" x2="304" y1="202.2" y2="202.2"/><text fill="#000000" font-family="sans-serif" font-size="13" font-weight="bold" lengthAdjust="spacing" textLength="7" x="40" y="196.677">4</text><text fill="#000000" font-family="sans-serif" font-size="13" lengthAdjust="spacing" textLength="86" x="51" y="196.677">returns sucess</text><!--MD5=[7ac19a5ead283a3217ecbb90454e0568]
@startuml process-view
autonumber

actor U as "User"
participant SYS as "RobDroneGo System" <<system (C4)>>

activate U

U -> SYS : wants to consult the unapproved requests
activate SYS

U <- - SYS : lists the unapproved requests
deactivate SYS

U -> SYS : selects a robot
activate SYS

U <- - SYS : returns sucess
deactivate SYS

deactivate U

@enduml

PlantUML version 1.2022.7(Mon Aug 22 18:01:30 BST 2022)
(GPL source distribution)
Java Runtime: OpenJDK Runtime Environment
JVM: OpenJDK 64-Bit Server VM
Default Encoding: UTF-8
Language: en
Country: GB
--></g></svg>