<?xml version="1.0" encoding="UTF-8" standalone="no"?><svg xmlns="http://www.w3.org/2000/svg" xmlns:xlink="http://www.w3.org/1999/xlink" contentStyleType="text/css" height="529px" preserveAspectRatio="none" style="width:1978px;height:529px;background:#FFFFFF;" version="1.1" viewBox="0 0 1978 529" width="1978px" zoomAndPan="magnify"><defs/><g><rect fill="#FFFFFF" height="386.8125" style="stroke:#181818;stroke-width:1.0;" width="10" x="537" y="82.5625"/><rect fill="#FFFFFF" height="312.25" style="stroke:#181818;stroke-width:1.0;" width="10" x="855" y="119.8438"/><rect fill="#FFFFFF" height="237.6875" style="stroke:#181818;stroke-width:1.0;" width="10" x="1210" y="157.125"/><rect fill="#FFFFFF" height="30" style="stroke:#181818;stroke-width:1.0;" width="10" x="1435" y="194.4063"/><rect fill="#FFFFFF" height="37.2813" style="stroke:#181818;stroke-width:1.0;" width="10" x="1579.5" y="302.25"/><rect fill="none" height="119.125" style="stroke:#000000;stroke-width:1.5;" width="848" x="1124.5" y="239.4063"/><line style="stroke:#181818;stroke-width:0.5;stroke-dasharray:5.0,5.0;" x1="541.5" x2="541.5" y1="43.2813" y2="487.375"/><line style="stroke:#181818;stroke-width:0.5;stroke-dasharray:5.0,5.0;" x1="859.5" x2="859.5" y1="43.2813" y2="487.375"/><line style="stroke:#181818;stroke-width:0.5;stroke-dasharray:5.0,5.0;" x1="1214.5" x2="1214.5" y1="43.2813" y2="487.375"/><line style="stroke:#181818;stroke-width:0.5;stroke-dasharray:5.0,5.0;" x1="1439.5" x2="1439.5" y1="43.2813" y2="487.375"/><line style="stroke:#181818;stroke-width:0.5;stroke-dasharray:5.0,5.0;" x1="1584.5" x2="1584.5" y1="43.2813" y2="487.375"/><line style="stroke:#181818;stroke-width:0.5;stroke-dasharray:5.0,5.0;" x1="1836.5" x2="1836.5" y1="344.3906" y2="487.375"/><rect fill="#E2E2F0" height="37.2813" rx="2.5" ry="2.5" style="stroke:#181818;stroke-width:0.5;" width="147" x="468.5" y="5"/><text fill="#000000" font-family="sans-serif" font-size="20" lengthAdjust="spacing" textLength="133" x="475.5" y="30.5645">:DeviceRoute</text><rect fill="#E2E2F0" height="37.2813" rx="2.5" ry="2.5" style="stroke:#181818;stroke-width:0.5;" width="147" x="468.5" y="486.375"/><text fill="#000000" font-family="sans-serif" font-size="20" lengthAdjust="spacing" textLength="133" x="475.5" y="511.9395">:DeviceRoute</text><rect fill="#E2E2F0" height="37.2813" rx="2.5" ry="2.5" style="stroke:#181818;stroke-width:0.5;" width="187" x="766.5" y="5"/><text fill="#000000" font-family="sans-serif" font-size="20" lengthAdjust="spacing" textLength="173" x="773.5" y="30.5645">:DeviceController</text><rect fill="#E2E2F0" height="37.2813" rx="2.5" ry="2.5" style="stroke:#181818;stroke-width:0.5;" width="187" x="766.5" y="486.375"/><text fill="#000000" font-family="sans-serif" font-size="20" lengthAdjust="spacing" textLength="173" x="773.5" y="511.9395">:DeviceController</text><rect fill="#E2E2F0" height="37.2813" rx="2.5" ry="2.5" style="stroke:#181818;stroke-width:0.5;" width="161" x="1134.5" y="5"/><text fill="#000000" font-family="sans-serif" font-size="20" lengthAdjust="spacing" textLength="147" x="1141.5" y="30.5645">:DeviceService</text><rect fill="#E2E2F0" height="37.2813" rx="2.5" ry="2.5" style="stroke:#181818;stroke-width:0.5;" width="161" x="1134.5" y="486.375"/><text fill="#000000" font-family="sans-serif" font-size="20" lengthAdjust="spacing" textLength="147" x="1141.5" y="511.9395">:DeviceService</text><rect fill="#E2E2F0" height="37.2813" rx="2.5" ry="2.5" style="stroke:#181818;stroke-width:0.5;" width="139" x="1370.5" y="5"/><text fill="#000000" font-family="sans-serif" font-size="20" lengthAdjust="spacing" textLength="125" x="1377.5" y="30.5645">:DeviceRepo</text><rect fill="#E2E2F0" height="37.2813" rx="2.5" ry="2.5" style="stroke:#181818;stroke-width:0.5;" width="139" x="1370.5" y="486.375"/><text fill="#000000" font-family="sans-serif" font-size="20" lengthAdjust="spacing" textLength="125" x="1377.5" y="511.9395">:DeviceRepo</text><rect fill="#E2E2F0" height="37.2813" rx="2.5" ry="2.5" style="stroke:#181818;stroke-width:0.5;" width="130" x="1519.5" y="5"/><text fill="#000000" font-family="sans-serif" font-size="20" lengthAdjust="spacing" textLength="116" x="1526.5" y="30.5645">:DeviceMap</text><rect fill="#E2E2F0" height="37.2813" rx="2.5" ry="2.5" style="stroke:#181818;stroke-width:0.5;" width="130" x="1519.5" y="486.375"/><text fill="#000000" font-family="sans-serif" font-size="20" lengthAdjust="spacing" textLength="116" x="1526.5" y="511.9395">:DeviceMap</text><rect fill="#E2E2F0" height="37.2813" rx="2.5" ry="2.5" style="stroke:#181818;stroke-width:0.5;" width="252" x="1710.5" y="486.375"/><text fill="#000000" font-family="sans-serif" font-size="20" lengthAdjust="spacing" textLength="238" x="1717.5" y="511.9395">:deviceDTO:IDeviceDTO</text><rect fill="#FFFFFF" height="386.8125" style="stroke:#181818;stroke-width:1.0;" width="10" x="537" y="82.5625"/><rect fill="#FFFFFF" height="312.25" style="stroke:#181818;stroke-width:1.0;" width="10" x="855" y="119.8438"/><rect fill="#FFFFFF" height="237.6875" style="stroke:#181818;stroke-width:1.0;" width="10" x="1210" y="157.125"/><rect fill="#FFFFFF" height="30" style="stroke:#181818;stroke-width:1.0;" width="10" x="1435" y="194.4063"/><rect fill="#FFFFFF" height="37.2813" style="stroke:#181818;stroke-width:1.0;" width="10" x="1579.5" y="302.25"/><ellipse cx="4.5" cy="81.8125" fill="none" rx="4" ry="4" style="stroke:#181818;stroke-width:1.5;"/><polygon fill="#181818" points="525,78.5625,535,82.5625,525,86.5625,529,82.5625" style="stroke:#181818;stroke-width:1.0;"/><line style="stroke:#181818;stroke-width:1.0;" x1="9" x2="531" y1="82.5625" y2="82.5625"/><text fill="#000000" font-family="sans-serif" font-size="20" font-weight="bold" lengthAdjust="spacing" textLength="14" x="12" y="75.8457">1</text><text fill="#000000" font-family="sans-serif" font-size="20" lengthAdjust="spacing" textLength="492" x="30" y="75.8457">GET /devices/robots?filter=task&amp;value=taskType</text><polygon fill="#181818" points="843,115.8438,853,119.8438,843,123.8438,847,119.8438" style="stroke:#181818;stroke-width:1.0;"/><line style="stroke:#181818;stroke-width:1.0;" x1="547" x2="849" y1="119.8438" y2="119.8438"/><text fill="#000000" font-family="sans-serif" font-size="20" font-weight="bold" lengthAdjust="spacing" textLength="14" x="554" y="113.127">2</text><text fill="#000000" font-family="sans-serif" font-size="20" lengthAdjust="spacing" textLength="271" x="572" y="113.127">getDevicesRobots(request)</text><polygon fill="#181818" points="1198,153.125,1208,157.125,1198,161.125,1202,157.125" style="stroke:#181818;stroke-width:1.0;"/><line style="stroke:#181818;stroke-width:1.0;" x1="865" x2="1204" y1="157.125" y2="157.125"/><text fill="#000000" font-family="sans-serif" font-size="20" font-weight="bold" lengthAdjust="spacing" textLength="14" x="872" y="150.4082">3</text><text fill="#000000" font-family="sans-serif" font-size="20" lengthAdjust="spacing" textLength="308" x="890" y="150.4082">getDevicesRobots(filter, value)</text><polygon fill="#181818" points="1423,190.4063,1433,194.4063,1423,198.4063,1427,194.4063" style="stroke:#181818;stroke-width:1.0;"/><line style="stroke:#181818;stroke-width:1.0;" x1="1220" x2="1429" y1="194.4063" y2="194.4063"/><text fill="#000000" font-family="sans-serif" font-size="20" font-weight="bold" lengthAdjust="spacing" textLength="14" x="1227" y="187.6895">4</text><text fill="#000000" font-family="sans-serif" font-size="20" lengthAdjust="spacing" textLength="178" x="1245" y="187.6895">findRobots(value)</text><path d="M1124.5,239.4063 L1218.5,239.4063 L1218.5,254.6875 L1208.5,264.6875 L1124.5,264.6875 L1124.5,239.4063 " fill="#EEEEEE" style="stroke:#000000;stroke-width:1.5;"/><rect fill="none" height="119.125" style="stroke:#000000;stroke-width:1.5;" width="848" x="1124.5" y="239.4063"/><text fill="#000000" font-family="sans-serif" font-size="20" font-weight="bold" lengthAdjust="spacing" textLength="49" x="1139.5" y="258.9707">loop</text><text fill="#000000" font-family="sans-serif" font-size="20" font-weight="bold" lengthAdjust="spacing" textLength="186" x="1233.5" y="259.9707">[foreach device]</text><polygon fill="#181818" points="1567.5,298.25,1577.5,302.25,1567.5,306.25,1571.5,302.25" style="stroke:#181818;stroke-width:1.0;"/><line style="stroke:#181818;stroke-width:1.0;" x1="1220" x2="1573.5" y1="302.25" y2="302.25"/><text fill="#000000" font-family="sans-serif" font-size="20" font-weight="bold" lengthAdjust="spacing" textLength="14" x="1227" y="295.5332">5</text><text fill="#000000" font-family="sans-serif" font-size="20" lengthAdjust="spacing" textLength="71" x="1245" y="295.5332">toDto()</text><polygon fill="#181818" points="1698.5,335.5313,1708.5,339.5313,1698.5,343.5313,1702.5,339.5313" style="stroke:#181818;stroke-width:1.0;"/><line style="stroke:#181818;stroke-width:1.0;" x1="1584.5" x2="1704.5" y1="339.5313" y2="339.5313"/><text fill="#000000" font-family="sans-serif" font-size="20" font-weight="bold" lengthAdjust="spacing" textLength="14" x="1591.5" y="332.8145">6</text><text fill="#000000" font-family="sans-serif" font-size="20" lengthAdjust="spacing" textLength="79" x="1609.5" y="332.8145">create()</text><rect fill="#E2E2F0" height="37.2813" rx="2.5" ry="2.5" style="stroke:#181818;stroke-width:0.5;" width="252" x="1710.5" y="310.25"/><text fill="#000000" font-family="sans-serif" font-size="20" lengthAdjust="spacing" textLength="238" x="1717.5" y="335.8145">:deviceDTO:IDeviceDTO</text><polygon fill="#181818" points="876,390.8125,866,394.8125,876,398.8125,872,394.8125" style="stroke:#181818;stroke-width:1.0;"/><line style="stroke:#181818;stroke-width:1.0;stroke-dasharray:2.0,2.0;" x1="870" x2="1214" y1="394.8125" y2="394.8125"/><text fill="#000000" font-family="sans-serif" font-size="20" font-weight="bold" lengthAdjust="spacing" textLength="14" x="882" y="388.0957">7</text><text fill="#000000" font-family="sans-serif" font-size="20" lengthAdjust="spacing" textLength="200" x="900" y="388.0957">sucess(devicesDTO)</text><polygon fill="#181818" points="558,428.0938,548,432.0938,558,436.0938,554,432.0938" style="stroke:#181818;stroke-width:1.0;"/><line style="stroke:#181818;stroke-width:1.0;stroke-dasharray:2.0,2.0;" x1="552" x2="859" y1="432.0938" y2="432.0938"/><text fill="#000000" font-family="sans-serif" font-size="20" font-weight="bold" lengthAdjust="spacing" textLength="14" x="564" y="425.377">8</text><text fill="#000000" font-family="sans-serif" font-size="20" lengthAdjust="spacing" textLength="200" x="582" y="425.377">sucess(devicesDTO)</text><polygon fill="#181818" points="11,465.375,1,469.375,11,473.375,7,469.375" style="stroke:#181818;stroke-width:1.0;"/><line style="stroke:#181818;stroke-width:1.0;stroke-dasharray:2.0,2.0;" x1="5" x2="541" y1="469.375" y2="469.375"/><text fill="#000000" font-family="sans-serif" font-size="20" font-weight="bold" lengthAdjust="spacing" textLength="14" x="17" y="462.6582">9</text><text fill="#000000" font-family="sans-serif" font-size="20" lengthAdjust="spacing" textLength="74" x="35" y="462.6582">200 OK</text><!--SRC=[VP5VJy8m5CNV-obkU310910U5__4C3H62MHCtyjsfmrZdUqTYNvwRzi9cp4-B6jxV-VStbExLrKjZJoKEjjZ3ZaMiYdfNbUqLLy8yvcG3UcgEUpG22P9PQgM5K6oVacN82qCeXYFAiD4DuI37hD8a-Skic1ReyiIJP_R9gzTR8l6_VfCijoiU-smrdrYTRVf0YjPz-jnsXhalixRw37-MGw4kDMJctQi21wMAKm3QAT6xpJPsqALXEQQfDrV76NPe5-cdpKAcP4wIiAW5oBOi9-F888tfD3A9jvhQF2ZGKkZizAHmkCiSudyeGetk0JVlQDbNF3dxkzYYg1GLTvgVhEE43dszm2brZKKsd3X7SBWV0h-9kphmes0T4nwEFA5am6N_853cEGmnsDcCxOYRE5Elu1ZbGjlVSx8DZoe7RQXiyseUqqtOaYdyqh_ItoYLvF92P_FPh1-wWtld-iR]--></g></svg>