<?xml version="1.0" encoding="UTF-8" standalone="no"?><svg xmlns="http://www.w3.org/2000/svg" xmlns:xlink="http://www.w3.org/1999/xlink" contentStyleType="text/css" height="581px" preserveAspectRatio="none" style="width:1822px;height:581px;background:#FFFFFF;" version="1.1" viewBox="0 0 1822 581" width="1822px" zoomAndPan="magnify"><defs/><g><rect fill="#FFFFFF" height="426.3997" style="stroke:#181818;stroke-width:1.0;" width="10" x="488.625" y="90.4799"/><rect fill="#FFFFFF" height="343.9198" style="stroke:#181818;stroke-width:1.0;" width="10" x="783.25" y="131.7199"/><rect fill="#FFFFFF" height="261.4398" style="stroke:#181818;stroke-width:1.0;" width="10" x="1108.875" y="172.9599"/><rect fill="#FFFFFF" height="30" style="stroke:#181818;stroke-width:1.0;" width="10" x="1315.5" y="214.1999"/><rect fill="#FFFFFF" height="41.24" style="stroke:#181818;stroke-width:1.0;" width="10" x="1450.5" y="333.9198"/><rect fill="none" height="134.9599" style="stroke:#000000;stroke-width:1.5;" width="785.75" x="1030.375" y="259.1999"/><line style="stroke:#181818;stroke-width:0.5;stroke-dasharray:5.0,5.0;" x1="493.125" x2="493.125" y1="47.24" y2="534.8797"/><line style="stroke:#181818;stroke-width:0.5;stroke-dasharray:5.0,5.0;" x1="788.25" x2="788.25" y1="47.24" y2="534.8797"/><line style="stroke:#181818;stroke-width:0.5;stroke-dasharray:5.0,5.0;" x1="1113.375" x2="1113.375" y1="47.24" y2="534.8797"/><line style="stroke:#181818;stroke-width:0.5;stroke-dasharray:5.0,5.0;" x1="1320.5" x2="1320.5" y1="47.24" y2="534.8797"/><line style="stroke:#181818;stroke-width:0.5;stroke-dasharray:5.0,5.0;" x1="1455.5" x2="1455.5" y1="47.24" y2="534.8797"/><line style="stroke:#181818;stroke-width:0.5;stroke-dasharray:5.0,5.0;" x1="1688.125" x2="1688.125" y1="378.0398" y2="534.8797"/><rect fill="#E2E2F0" height="41.24" rx="2.5" ry="2.5" style="stroke:#181818;stroke-width:0.5;" width="135" x="426.125" y="5"/><text fill="#000000" font-family="sans-serif" font-size="20" lengthAdjust="spacing" textLength="121" x="433.125" y="33.38">:DeviceRoute</text><rect fill="#E2E2F0" height="41.24" rx="2.5" ry="2.5" style="stroke:#181818;stroke-width:0.5;" width="135" x="426.125" y="533.8797"/><text fill="#000000" font-family="sans-serif" font-size="20" lengthAdjust="spacing" textLength="121" x="433.125" y="562.2597">:DeviceRoute</text><rect fill="#E2E2F0" height="41.24" rx="2.5" ry="2.5" style="stroke:#181818;stroke-width:0.5;" width="174" x="701.25" y="5"/><text fill="#000000" font-family="sans-serif" font-size="20" lengthAdjust="spacing" textLength="160" x="708.25" y="33.38">:DeviceController</text><rect fill="#E2E2F0" height="41.24" rx="2.5" ry="2.5" style="stroke:#181818;stroke-width:0.5;" width="174" x="701.25" y="533.8797"/><text fill="#000000" font-family="sans-serif" font-size="20" lengthAdjust="spacing" textLength="160" x="708.25" y="562.2597">:DeviceController</text><rect fill="#E2E2F0" height="41.24" rx="2.5" ry="2.5" style="stroke:#181818;stroke-width:0.5;" width="147" x="1040.375" y="5"/><text fill="#000000" font-family="sans-serif" font-size="20" lengthAdjust="spacing" textLength="133" x="1047.375" y="33.38">:DeviceService</text><rect fill="#E2E2F0" height="41.24" rx="2.5" ry="2.5" style="stroke:#181818;stroke-width:0.5;" width="147" x="1040.375" y="533.8797"/><text fill="#000000" font-family="sans-serif" font-size="20" lengthAdjust="spacing" textLength="133" x="1047.375" y="562.2597">:DeviceService</text><rect fill="#E2E2F0" height="41.24" rx="2.5" ry="2.5" style="stroke:#181818;stroke-width:0.5;" width="128" x="1256.5" y="5"/><text fill="#000000" font-family="sans-serif" font-size="20" lengthAdjust="spacing" textLength="114" x="1263.5" y="33.38">:DeviceRepo</text><rect fill="#E2E2F0" height="41.24" rx="2.5" ry="2.5" style="stroke:#181818;stroke-width:0.5;" width="128" x="1256.5" y="533.8797"/><text fill="#000000" font-family="sans-serif" font-size="20" lengthAdjust="spacing" textLength="114" x="1263.5" y="562.2597">:DeviceRepo</text><rect fill="#E2E2F0" height="41.24" rx="2.5" ry="2.5" style="stroke:#181818;stroke-width:0.5;" width="122" x="1394.5" y="5"/><text fill="#000000" font-family="sans-serif" font-size="20" lengthAdjust="spacing" textLength="108" x="1401.5" y="33.38">:DeviceMap</text><rect fill="#E2E2F0" height="41.24" rx="2.5" ry="2.5" style="stroke:#181818;stroke-width:0.5;" width="122" x="1394.5" y="533.8797"/><text fill="#000000" font-family="sans-serif" font-size="20" lengthAdjust="spacing" textLength="108" x="1401.5" y="562.2597">:DeviceMap</text><rect fill="#E2E2F0" height="41.24" rx="2.5" ry="2.5" style="stroke:#181818;stroke-width:0.5;" width="236" x="1570.125" y="533.8797"/><text fill="#000000" font-family="sans-serif" font-size="20" lengthAdjust="spacing" textLength="222" x="1577.125" y="562.2597">:deviceDTO:IDeviceDTO</text><rect fill="#FFFFFF" height="426.3997" style="stroke:#181818;stroke-width:1.0;" width="10" x="488.625" y="90.4799"/><rect fill="#FFFFFF" height="343.9198" style="stroke:#181818;stroke-width:1.0;" width="10" x="783.25" y="131.7199"/><rect fill="#FFFFFF" height="261.4398" style="stroke:#181818;stroke-width:1.0;" width="10" x="1108.875" y="172.9599"/><rect fill="#FFFFFF" height="30" style="stroke:#181818;stroke-width:1.0;" width="10" x="1315.5" y="214.1999"/><rect fill="#FFFFFF" height="41.24" style="stroke:#181818;stroke-width:1.0;" width="10" x="1450.5" y="333.9198"/><ellipse cx="4.5" cy="89.7299" fill="none" rx="4" ry="4" style="stroke:#181818;stroke-width:1.5;"/><polygon fill="#181818" points="476.625,86.4799,486.625,90.4799,476.625,94.4799,480.625,90.4799" style="stroke:#181818;stroke-width:1.0;"/><line style="stroke:#181818;stroke-width:1.0;" x1="9" x2="482.625" y1="90.4799" y2="90.4799"/><text fill="#000000" font-family="sans-serif" font-size="20" font-weight="bold" lengthAdjust="spacing" textLength="11.625" x="12" y="82.62">1</text><text fill="#000000" font-family="sans-serif" font-size="20" lengthAdjust="spacing" textLength="446" x="27.625" y="82.62">GET /devices/robots?filter=task&amp;value=taskType</text><polygon fill="#181818" points="771.25,127.7199,781.25,131.7199,771.25,135.7199,775.25,131.7199" style="stroke:#181818;stroke-width:1.0;"/><line style="stroke:#181818;stroke-width:1.0;" x1="498.625" x2="777.25" y1="131.7199" y2="131.7199"/><text fill="#000000" font-family="sans-serif" font-size="20" font-weight="bold" lengthAdjust="spacing" textLength="11.625" x="505.625" y="123.8599">2</text><text fill="#000000" font-family="sans-serif" font-size="20" lengthAdjust="spacing" textLength="250" x="521.25" y="123.8599">getDevicesRobots(request)</text><polygon fill="#181818" points="1096.875,168.9599,1106.875,172.9599,1096.875,176.9599,1100.875,172.9599" style="stroke:#181818;stroke-width:1.0;"/><line style="stroke:#181818;stroke-width:1.0;" x1="793.25" x2="1102.875" y1="172.9599" y2="172.9599"/><text fill="#000000" font-family="sans-serif" font-size="20" font-weight="bold" lengthAdjust="spacing" textLength="11.625" x="800.25" y="165.0999">3</text><text fill="#000000" font-family="sans-serif" font-size="20" lengthAdjust="spacing" textLength="281" x="815.875" y="165.0999">getDevicesRobots(filter, value)</text><polygon fill="#181818" points="1303.5,210.1999,1313.5,214.1999,1303.5,218.1999,1307.5,214.1999" style="stroke:#181818;stroke-width:1.0;"/><line style="stroke:#181818;stroke-width:1.0;" x1="1118.875" x2="1309.5" y1="214.1999" y2="214.1999"/><text fill="#000000" font-family="sans-serif" font-size="20" font-weight="bold" lengthAdjust="spacing" textLength="11.625" x="1125.875" y="206.3399">4</text><text fill="#000000" font-family="sans-serif" font-size="20" lengthAdjust="spacing" textLength="162" x="1141.5" y="206.3399">findRobots(value)</text><path d="M1030.375,259.1999 L1118.875,259.1999 L1118.875,278.4398 L1108.875,288.4398 L1030.375,288.4398 L1030.375,259.1999 " fill="#EEEEEE" style="stroke:#000000;stroke-width:1.5;"/><rect fill="none" height="134.9599" style="stroke:#000000;stroke-width:1.5;" width="785.75" x="1030.375" y="259.1999"/><text fill="#000000" font-family="sans-serif" font-size="20" font-weight="bold" lengthAdjust="spacing" textLength="43.5" x="1045.375" y="281.5799">loop</text><text fill="#000000" font-family="sans-serif" font-size="20" font-weight="bold" lengthAdjust="spacing" textLength="158.375" x="1133.875" y="282.5799">[foreach device]</text><polygon fill="#181818" points="1438.5,329.9198,1448.5,333.9198,1438.5,337.9198,1442.5,333.9198" style="stroke:#181818;stroke-width:1.0;"/><line style="stroke:#181818;stroke-width:1.0;" x1="1118.875" x2="1444.5" y1="333.9198" y2="333.9198"/><text fill="#000000" font-family="sans-serif" font-size="20" font-weight="bold" lengthAdjust="spacing" textLength="11.625" x="1125.875" y="326.0598">5</text><text fill="#000000" font-family="sans-serif" font-size="20" lengthAdjust="spacing" textLength="65" x="1141.5" y="326.0598">toDto()</text><polygon fill="#181818" points="1558.125,371.1598,1568.125,375.1598,1558.125,379.1598,1562.125,375.1598" style="stroke:#181818;stroke-width:1.0;"/><line style="stroke:#181818;stroke-width:1.0;" x1="1455.5" x2="1564.125" y1="375.1598" y2="375.1598"/><text fill="#000000" font-family="sans-serif" font-size="20" font-weight="bold" lengthAdjust="spacing" textLength="11.625" x="1462.5" y="367.2998">6</text><text fill="#000000" font-family="sans-serif" font-size="20" lengthAdjust="spacing" textLength="70" x="1478.125" y="367.2998">create()</text><rect fill="#E2E2F0" height="41.24" rx="2.5" ry="2.5" style="stroke:#181818;stroke-width:0.5;" width="236" x="1570.125" y="341.9198"/><text fill="#000000" font-family="sans-serif" font-size="20" lengthAdjust="spacing" textLength="222" x="1577.125" y="370.2998">:deviceDTO:IDeviceDTO</text><polygon fill="#181818" points="804.25,430.3997,794.25,434.3997,804.25,438.3997,800.25,434.3997" style="stroke:#181818;stroke-width:1.0;"/><line style="stroke:#181818;stroke-width:1.0;stroke-dasharray:2.0,2.0;" x1="798.25" x2="1112.875" y1="434.3997" y2="434.3997"/><text fill="#000000" font-family="sans-serif" font-size="20" font-weight="bold" lengthAdjust="spacing" textLength="11.625" x="810.25" y="426.5398">7</text><text fill="#000000" font-family="sans-serif" font-size="20" lengthAdjust="spacing" textLength="186" x="825.875" y="426.5398">sucess(devicesDTO)</text><polygon fill="#181818" points="509.625,471.6397,499.625,475.6397,509.625,479.6397,505.625,475.6397" style="stroke:#181818;stroke-width:1.0;"/><line style="stroke:#181818;stroke-width:1.0;stroke-dasharray:2.0,2.0;" x1="503.625" x2="787.25" y1="475.6397" y2="475.6397"/><text fill="#000000" font-family="sans-serif" font-size="20" font-weight="bold" lengthAdjust="spacing" textLength="11.625" x="515.625" y="467.7797">8</text><text fill="#000000" font-family="sans-serif" font-size="20" lengthAdjust="spacing" textLength="186" x="531.25" y="467.7797">sucess(devicesDTO)</text><polygon fill="#181818" points="11,512.8797,1,516.8797,11,520.8797,7,516.8797" style="stroke:#181818;stroke-width:1.0;"/><line style="stroke:#181818;stroke-width:1.0;stroke-dasharray:2.0,2.0;" x1="5" x2="492.625" y1="516.8797" y2="516.8797"/><text fill="#000000" font-family="sans-serif" font-size="20" font-weight="bold" lengthAdjust="spacing" textLength="11.625" x="17" y="509.0197">9</text><text fill="#000000" font-family="sans-serif" font-size="20" lengthAdjust="spacing" textLength="66" x="32.625" y="509.0197">200 OK</text><!--SRC=[VP5VJy8m5CNV-obkU310910U5__4C3H62MHCtyjsfmrZdUqTYNvwRzi9cp4-B6jxV-VStbExLrKjZJoKEjjZ3ZaMiYdfNbUqLLy8yvcG3UcgEUpG22P9PQgM5K6oVacN82qCeXYFAiD4DuI37hD8a-Skic1ReyiIJP_R9gzTR8l6_VfCijoiU-smrdrYTRVf0YjPz-jnsXhalixRw37-MGw4kDMJctQi21wMAKm3QAT6xpJPsqALXEQQfDrV76NPe5-cdpKAcP4wIiAW5oBOi9-F888tfD3A9jvhQF2ZGKkZizAHmkCiSudyeGetk0JVlQDbNF3dxkzYYg1GLTvgVhEE43dszm2brZKKsd3X7SBWV0h-9kphmes0T4nwEFA5am6N_853cEGmnsDcCxOYRE5Elu1ZbGjlVSx8DZoe7RQXiyseUqqtOaYdyqh_ItoYLvF92P_FPh1-wWtld-iR]--></g></svg>