<?xml version="1.0" encoding="UTF-8" standalone="no"?><svg xmlns="http://www.w3.org/2000/svg" xmlns:xlink="http://www.w3.org/1999/xlink" contentStyleType="text/css" height="581px" preserveAspectRatio="none" style="width:1579px;height:581px;background:#FFFFFF;" version="1.1" viewBox="0 0 1579 581" width="1579px" zoomAndPan="magnify"><defs/><g><rect fill="#FFFFFF" height="426.3997" style="stroke:#181818;stroke-width:1.0;" width="10" x="298.625" y="90.4799"/><rect fill="#FFFFFF" height="343.9198" style="stroke:#181818;stroke-width:1.0;" width="10" x="534.25" y="131.7199"/><rect fill="#FFFFFF" height="261.4398" style="stroke:#181818;stroke-width:1.0;" width="10" x="769.875" y="172.9599"/><rect fill="#FFFFFF" height="30" style="stroke:#181818;stroke-width:1.0;" width="10" x="1072.375" y="214.1999"/><rect fill="#FFFFFF" height="41.24" style="stroke:#181818;stroke-width:1.0;" width="10" x="1207.375" y="333.9198"/><rect fill="none" height="134.9599" style="stroke:#000000;stroke-width:1.5;" width="881.625" x="691.375" y="259.1999"/><line style="stroke:#181818;stroke-width:0.5;stroke-dasharray:5.0,5.0;" x1="303.125" x2="303.125" y1="47.24" y2="534.8797"/><line style="stroke:#181818;stroke-width:0.5;stroke-dasharray:5.0,5.0;" x1="539.25" x2="539.25" y1="47.24" y2="534.8797"/><line style="stroke:#181818;stroke-width:0.5;stroke-dasharray:5.0,5.0;" x1="774.375" x2="774.375" y1="47.24" y2="534.8797"/><line style="stroke:#181818;stroke-width:0.5;stroke-dasharray:5.0,5.0;" x1="930.375" x2="930.375" y1="47.24" y2="534.8797"/><line style="stroke:#181818;stroke-width:0.5;stroke-dasharray:5.0,5.0;" x1="1077.375" x2="1077.375" y1="47.24" y2="534.8797"/><line style="stroke:#181818;stroke-width:0.5;stroke-dasharray:5.0,5.0;" x1="1212.375" x2="1212.375" y1="47.24" y2="534.8797"/><line style="stroke:#181818;stroke-width:0.5;stroke-dasharray:5.0,5.0;" x1="1445" x2="1445" y1="378.0398" y2="534.8797"/><rect fill="#E2E2F0" height="41.24" rx="2.5" ry="2.5" style="stroke:#181818;stroke-width:0.5;" width="135" x="236.125" y="5"/><text fill="#000000" font-family="sans-serif" font-size="20" lengthAdjust="spacing" textLength="121" x="243.125" y="33.38">:DeviceRoute</text><rect fill="#E2E2F0" height="41.24" rx="2.5" ry="2.5" style="stroke:#181818;stroke-width:0.5;" width="135" x="236.125" y="533.8797"/><text fill="#000000" font-family="sans-serif" font-size="20" lengthAdjust="spacing" textLength="121" x="243.125" y="562.2597">:DeviceRoute</text><rect fill="#E2E2F0" height="41.24" rx="2.5" ry="2.5" style="stroke:#181818;stroke-width:0.5;" width="174" x="452.25" y="5"/><text fill="#000000" font-family="sans-serif" font-size="20" lengthAdjust="spacing" textLength="160" x="459.25" y="33.38">:DeviceController</text><rect fill="#E2E2F0" height="41.24" rx="2.5" ry="2.5" style="stroke:#181818;stroke-width:0.5;" width="174" x="452.25" y="533.8797"/><text fill="#000000" font-family="sans-serif" font-size="20" lengthAdjust="spacing" textLength="160" x="459.25" y="562.2597">:DeviceController</text><rect fill="#E2E2F0" height="41.24" rx="2.5" ry="2.5" style="stroke:#181818;stroke-width:0.5;" width="147" x="701.375" y="5"/><text fill="#000000" font-family="sans-serif" font-size="20" lengthAdjust="spacing" textLength="133" x="708.375" y="33.38">:DeviceService</text><rect fill="#E2E2F0" height="41.24" rx="2.5" ry="2.5" style="stroke:#181818;stroke-width:0.5;" width="147" x="701.375" y="533.8797"/><text fill="#000000" font-family="sans-serif" font-size="20" lengthAdjust="spacing" textLength="133" x="708.375" y="562.2597">:DeviceService</text><rect fill="#E2E2F0" height="41.24" rx="2.5" ry="2.5" style="stroke:#181818;stroke-width:0.5;" width="145" x="858.375" y="5"/><text fill="#000000" font-family="sans-serif" font-size="20" lengthAdjust="spacing" textLength="131" x="865.375" y="33.38">:device:Device</text><rect fill="#E2E2F0" height="41.24" rx="2.5" ry="2.5" style="stroke:#181818;stroke-width:0.5;" width="145" x="858.375" y="533.8797"/><text fill="#000000" font-family="sans-serif" font-size="20" lengthAdjust="spacing" textLength="131" x="865.375" y="562.2597">:device:Device</text><rect fill="#E2E2F0" height="41.24" rx="2.5" ry="2.5" style="stroke:#181818;stroke-width:0.5;" width="128" x="1013.375" y="5"/><text fill="#000000" font-family="sans-serif" font-size="20" lengthAdjust="spacing" textLength="114" x="1020.375" y="33.38">:DeviceRepo</text><rect fill="#E2E2F0" height="41.24" rx="2.5" ry="2.5" style="stroke:#181818;stroke-width:0.5;" width="128" x="1013.375" y="533.8797"/><text fill="#000000" font-family="sans-serif" font-size="20" lengthAdjust="spacing" textLength="114" x="1020.375" y="562.2597">:DeviceRepo</text><rect fill="#E2E2F0" height="41.24" rx="2.5" ry="2.5" style="stroke:#181818;stroke-width:0.5;" width="122" x="1151.375" y="5"/><text fill="#000000" font-family="sans-serif" font-size="20" lengthAdjust="spacing" textLength="108" x="1158.375" y="33.38">:DeviceMap</text><rect fill="#E2E2F0" height="41.24" rx="2.5" ry="2.5" style="stroke:#181818;stroke-width:0.5;" width="122" x="1151.375" y="533.8797"/><text fill="#000000" font-family="sans-serif" font-size="20" lengthAdjust="spacing" textLength="108" x="1158.375" y="562.2597">:DeviceMap</text><rect fill="#E2E2F0" height="41.24" rx="2.5" ry="2.5" style="stroke:#181818;stroke-width:0.5;" width="236" x="1327" y="533.8797"/><text fill="#000000" font-family="sans-serif" font-size="20" lengthAdjust="spacing" textLength="222" x="1334" y="562.2597">:deviceDTO:IDeviceDTO</text><rect fill="#FFFFFF" height="426.3997" style="stroke:#181818;stroke-width:1.0;" width="10" x="298.625" y="90.4799"/><rect fill="#FFFFFF" height="343.9198" style="stroke:#181818;stroke-width:1.0;" width="10" x="534.25" y="131.7199"/><rect fill="#FFFFFF" height="261.4398" style="stroke:#181818;stroke-width:1.0;" width="10" x="769.875" y="172.9599"/><rect fill="#FFFFFF" height="30" style="stroke:#181818;stroke-width:1.0;" width="10" x="1072.375" y="214.1999"/><rect fill="#FFFFFF" height="41.24" style="stroke:#181818;stroke-width:1.0;" width="10" x="1207.375" y="333.9198"/><ellipse cx="4.5" cy="89.7299" fill="none" rx="4" ry="4" style="stroke:#181818;stroke-width:1.5;"/><polygon fill="#181818" points="286.625,86.4799,296.625,90.4799,286.625,94.4799,290.625,90.4799" style="stroke:#181818;stroke-width:1.0;"/><line style="stroke:#181818;stroke-width:1.0;" x1="9" x2="292.625" y1="90.4799" y2="90.4799"/><text fill="#000000" font-family="sans-serif" font-size="20" font-weight="bold" lengthAdjust="spacing" textLength="11.625" x="12" y="82.62">1</text><text fill="#000000" font-family="sans-serif" font-size="20" lengthAdjust="spacing" textLength="256" x="27.625" y="82.62">GET /devices/robots/:taskId</text><polygon fill="#181818" points="522.25,127.7199,532.25,131.7199,522.25,135.7199,526.25,131.7199" style="stroke:#181818;stroke-width:1.0;"/><line style="stroke:#181818;stroke-width:1.0;" x1="308.625" x2="528.25" y1="131.7199" y2="131.7199"/><text fill="#000000" font-family="sans-serif" font-size="20" font-weight="bold" lengthAdjust="spacing" textLength="11.625" x="315.625" y="123.8599">2</text><text fill="#000000" font-family="sans-serif" font-size="20" lengthAdjust="spacing" textLength="179" x="331.25" y="123.8599">getDevicesRobots()</text><polygon fill="#181818" points="757.875,168.9599,767.875,172.9599,757.875,176.9599,761.875,172.9599" style="stroke:#181818;stroke-width:1.0;"/><line style="stroke:#181818;stroke-width:1.0;" x1="544.25" x2="763.875" y1="172.9599" y2="172.9599"/><text fill="#000000" font-family="sans-serif" font-size="20" font-weight="bold" lengthAdjust="spacing" textLength="11.625" x="551.25" y="165.0999">3</text><text fill="#000000" font-family="sans-serif" font-size="20" lengthAdjust="spacing" textLength="179" x="566.875" y="165.0999">getDevicesRobots()</text><polygon fill="#181818" points="1060.375,210.1999,1070.375,214.1999,1060.375,218.1999,1064.375,214.1999" style="stroke:#181818;stroke-width:1.0;"/><line style="stroke:#181818;stroke-width:1.0;" x1="779.875" x2="1066.375" y1="214.1999" y2="214.1999"/><text fill="#000000" font-family="sans-serif" font-size="20" font-weight="bold" lengthAdjust="spacing" textLength="11.625" x="786.875" y="206.3399">4</text><text fill="#000000" font-family="sans-serif" font-size="20" lengthAdjust="spacing" textLength="113" x="802.5" y="206.3399">findRobots()</text><path d="M691.375,259.1999 L779.875,259.1999 L779.875,278.4398 L769.875,288.4398 L691.375,288.4398 L691.375,259.1999 " fill="#EEEEEE" style="stroke:#000000;stroke-width:1.5;"/><rect fill="none" height="134.9599" style="stroke:#000000;stroke-width:1.5;" width="881.625" x="691.375" y="259.1999"/><text fill="#000000" font-family="sans-serif" font-size="20" font-weight="bold" lengthAdjust="spacing" textLength="43.5" x="706.375" y="281.5799">loop</text><text fill="#000000" font-family="sans-serif" font-size="20" font-weight="bold" lengthAdjust="spacing" textLength="158.375" x="794.875" y="282.5799">[foreach device]</text><polygon fill="#181818" points="1195.375,329.9198,1205.375,333.9198,1195.375,337.9198,1199.375,333.9198" style="stroke:#181818;stroke-width:1.0;"/><line style="stroke:#181818;stroke-width:1.0;" x1="779.875" x2="1201.375" y1="333.9198" y2="333.9198"/><text fill="#000000" font-family="sans-serif" font-size="20" font-weight="bold" lengthAdjust="spacing" textLength="11.625" x="786.875" y="326.0598">5</text><text fill="#000000" font-family="sans-serif" font-size="20" lengthAdjust="spacing" textLength="65" x="802.5" y="326.0598">toDto()</text><polygon fill="#181818" points="1315,371.1598,1325,375.1598,1315,379.1598,1319,375.1598" style="stroke:#181818;stroke-width:1.0;"/><line style="stroke:#181818;stroke-width:1.0;" x1="1212.375" x2="1321" y1="375.1598" y2="375.1598"/><text fill="#000000" font-family="sans-serif" font-size="20" font-weight="bold" lengthAdjust="spacing" textLength="11.625" x="1219.375" y="367.2998">6</text><text fill="#000000" font-family="sans-serif" font-size="20" lengthAdjust="spacing" textLength="70" x="1235" y="367.2998">create()</text><rect fill="#E2E2F0" height="41.24" rx="2.5" ry="2.5" style="stroke:#181818;stroke-width:0.5;" width="236" x="1327" y="341.9198"/><text fill="#000000" font-family="sans-serif" font-size="20" lengthAdjust="spacing" textLength="222" x="1334" y="370.2998">:deviceDTO:IDeviceDTO</text><polygon fill="#181818" points="555.25,430.3997,545.25,434.3997,555.25,438.3997,551.25,434.3997" style="stroke:#181818;stroke-width:1.0;"/><line style="stroke:#181818;stroke-width:1.0;stroke-dasharray:2.0,2.0;" x1="549.25" x2="773.875" y1="434.3997" y2="434.3997"/><text fill="#000000" font-family="sans-serif" font-size="20" font-weight="bold" lengthAdjust="spacing" textLength="11.625" x="561.25" y="426.5398">7</text><text fill="#000000" font-family="sans-serif" font-size="20" lengthAdjust="spacing" textLength="186" x="576.875" y="426.5398">sucess(devicesDTO)</text><polygon fill="#181818" points="319.625,471.6397,309.625,475.6397,319.625,479.6397,315.625,475.6397" style="stroke:#181818;stroke-width:1.0;"/><line style="stroke:#181818;stroke-width:1.0;stroke-dasharray:2.0,2.0;" x1="313.625" x2="538.25" y1="475.6397" y2="475.6397"/><text fill="#000000" font-family="sans-serif" font-size="20" font-weight="bold" lengthAdjust="spacing" textLength="11.625" x="325.625" y="467.7797">8</text><text fill="#000000" font-family="sans-serif" font-size="20" lengthAdjust="spacing" textLength="186" x="341.25" y="467.7797">sucess(devicesDTO)</text><polygon fill="#181818" points="11,512.8797,1,516.8797,11,520.8797,7,516.8797" style="stroke:#181818;stroke-width:1.0;"/><line style="stroke:#181818;stroke-width:1.0;stroke-dasharray:2.0,2.0;" x1="5" x2="302.625" y1="516.8797" y2="516.8797"/><text fill="#000000" font-family="sans-serif" font-size="20" font-weight="bold" lengthAdjust="spacing" textLength="11.625" x="17" y="509.0197">9</text><text fill="#000000" font-family="sans-serif" font-size="20" lengthAdjust="spacing" textLength="66" x="32.625" y="509.0197">200 OK</text><!--SRC=[VP51Ry8m38Nl-HKM9q1288xHj6cZR4835PMoUsZD5b6QgaavxDVFIJf8XCIXQXD_VlPxrITPDw8LvqeL9ooXnAFeAlEkQhEJlmZp6HETKNLtFc3BY3Ioa8se3MJfFb-2q33W2LvaWPdg30uYPf5dwn1Pa6ohgWhRcDjbNo6smzQ-OkPjlreddYeTrSCnbIstQRGKDYecDg_R4DY89gudUHfEeIDV9V-V0yPUrEIvDy_XOvd3r8Dwsgg3CdhAZT2dLSb4OUH56FGmOxw7cbqg7BxHU5sTkSRXwDPY4UOuucqwZt4Y63rsCUkVmr7MvJrcYwp4-0nGATN0KRLK-05lXcx1pIL96nW7enAZICmMhW9KSXSM8P826e-9BKZAO0y7ypoETScSz2qAtP4jFUo399bHkAPrvxC8ad_Sul9xcaok-7msW_GpCk_-oXy0]--></g></svg>