<?xml version="1.0" encoding="UTF-8" standalone="no"?><svg xmlns="http://www.w3.org/2000/svg" xmlns:xlink="http://www.w3.org/1999/xlink" contentStyleType="text/css" height="529px" preserveAspectRatio="none" style="width:1696px;height:529px;background:#FFFFFF;" version="1.1" viewBox="0 0 1696 529" width="1696px" zoomAndPan="magnify"><defs/><g><rect fill="#FFFFFF" height="386.8125" style="stroke:#181818;stroke-width:1.0;" width="10" x="319" y="82.5625"/><rect fill="#FFFFFF" height="312.25" style="stroke:#181818;stroke-width:1.0;" width="10" x="571" y="119.8438"/><rect fill="#FFFFFF" height="237.6875" style="stroke:#181818;stroke-width:1.0;" width="10" x="823" y="157.125"/><rect fill="#FFFFFF" height="30" style="stroke:#181818;stroke-width:1.0;" width="10" x="1153" y="194.4063"/><rect fill="#FFFFFF" height="37.2813" style="stroke:#181818;stroke-width:1.0;" width="10" x="1297.5" y="302.25"/><rect fill="none" height="119.125" style="stroke:#000000;stroke-width:1.5;" width="953" x="737.5" y="239.4063"/><line style="stroke:#181818;stroke-width:0.5;stroke-dasharray:5.0,5.0;" x1="323.5" x2="323.5" y1="43.2813" y2="487.375"/><line style="stroke:#181818;stroke-width:0.5;stroke-dasharray:5.0,5.0;" x1="575.5" x2="575.5" y1="43.2813" y2="487.375"/><line style="stroke:#181818;stroke-width:0.5;stroke-dasharray:5.0,5.0;" x1="827.5" x2="827.5" y1="43.2813" y2="487.375"/><line style="stroke:#181818;stroke-width:0.5;stroke-dasharray:5.0,5.0;" x1="998.5" x2="998.5" y1="43.2813" y2="487.375"/><line style="stroke:#181818;stroke-width:0.5;stroke-dasharray:5.0,5.0;" x1="1157.5" x2="1157.5" y1="43.2813" y2="487.375"/><line style="stroke:#181818;stroke-width:0.5;stroke-dasharray:5.0,5.0;" x1="1302.5" x2="1302.5" y1="43.2813" y2="487.375"/><line style="stroke:#181818;stroke-width:0.5;stroke-dasharray:5.0,5.0;" x1="1554.5" x2="1554.5" y1="344.3906" y2="487.375"/><rect fill="#E2E2F0" height="37.2813" rx="2.5" ry="2.5" style="stroke:#181818;stroke-width:0.5;" width="147" x="250.5" y="5"/><text fill="#000000" font-family="sans-serif" font-size="20" lengthAdjust="spacing" textLength="133" x="257.5" y="30.5645">:DeviceRoute</text><rect fill="#E2E2F0" height="37.2813" rx="2.5" ry="2.5" style="stroke:#181818;stroke-width:0.5;" width="147" x="250.5" y="486.375"/><text fill="#000000" font-family="sans-serif" font-size="20" lengthAdjust="spacing" textLength="133" x="257.5" y="511.9395">:DeviceRoute</text><rect fill="#E2E2F0" height="37.2813" rx="2.5" ry="2.5" style="stroke:#181818;stroke-width:0.5;" width="187" x="482.5" y="5"/><text fill="#000000" font-family="sans-serif" font-size="20" lengthAdjust="spacing" textLength="173" x="489.5" y="30.5645">:DeviceController</text><rect fill="#E2E2F0" height="37.2813" rx="2.5" ry="2.5" style="stroke:#181818;stroke-width:0.5;" width="187" x="482.5" y="486.375"/><text fill="#000000" font-family="sans-serif" font-size="20" lengthAdjust="spacing" textLength="173" x="489.5" y="511.9395">:DeviceController</text><rect fill="#E2E2F0" height="37.2813" rx="2.5" ry="2.5" style="stroke:#181818;stroke-width:0.5;" width="161" x="747.5" y="5"/><text fill="#000000" font-family="sans-serif" font-size="20" lengthAdjust="spacing" textLength="147" x="754.5" y="30.5645">:DeviceService</text><rect fill="#E2E2F0" height="37.2813" rx="2.5" ry="2.5" style="stroke:#181818;stroke-width:0.5;" width="161" x="747.5" y="486.375"/><text fill="#000000" font-family="sans-serif" font-size="20" lengthAdjust="spacing" textLength="147" x="754.5" y="511.9395">:DeviceService</text><rect fill="#E2E2F0" height="37.2813" rx="2.5" ry="2.5" style="stroke:#181818;stroke-width:0.5;" width="160" x="918.5" y="5"/><text fill="#000000" font-family="sans-serif" font-size="20" lengthAdjust="spacing" textLength="146" x="925.5" y="30.5645">:device:Device</text><rect fill="#E2E2F0" height="37.2813" rx="2.5" ry="2.5" style="stroke:#181818;stroke-width:0.5;" width="160" x="918.5" y="486.375"/><text fill="#000000" font-family="sans-serif" font-size="20" lengthAdjust="spacing" textLength="146" x="925.5" y="511.9395">:device:Device</text><rect fill="#E2E2F0" height="37.2813" rx="2.5" ry="2.5" style="stroke:#181818;stroke-width:0.5;" width="139" x="1088.5" y="5"/><text fill="#000000" font-family="sans-serif" font-size="20" lengthAdjust="spacing" textLength="125" x="1095.5" y="30.5645">:DeviceRepo</text><rect fill="#E2E2F0" height="37.2813" rx="2.5" ry="2.5" style="stroke:#181818;stroke-width:0.5;" width="139" x="1088.5" y="486.375"/><text fill="#000000" font-family="sans-serif" font-size="20" lengthAdjust="spacing" textLength="125" x="1095.5" y="511.9395">:DeviceRepo</text><rect fill="#E2E2F0" height="37.2813" rx="2.5" ry="2.5" style="stroke:#181818;stroke-width:0.5;" width="130" x="1237.5" y="5"/><text fill="#000000" font-family="sans-serif" font-size="20" lengthAdjust="spacing" textLength="116" x="1244.5" y="30.5645">:DeviceMap</text><rect fill="#E2E2F0" height="37.2813" rx="2.5" ry="2.5" style="stroke:#181818;stroke-width:0.5;" width="130" x="1237.5" y="486.375"/><text fill="#000000" font-family="sans-serif" font-size="20" lengthAdjust="spacing" textLength="116" x="1244.5" y="511.9395">:DeviceMap</text><rect fill="#E2E2F0" height="37.2813" rx="2.5" ry="2.5" style="stroke:#181818;stroke-width:0.5;" width="252" x="1428.5" y="486.375"/><text fill="#000000" font-family="sans-serif" font-size="20" lengthAdjust="spacing" textLength="238" x="1435.5" y="511.9395">:deviceDTO:IDeviceDTO</text><rect fill="#FFFFFF" height="386.8125" style="stroke:#181818;stroke-width:1.0;" width="10" x="319" y="82.5625"/><rect fill="#FFFFFF" height="312.25" style="stroke:#181818;stroke-width:1.0;" width="10" x="571" y="119.8438"/><rect fill="#FFFFFF" height="237.6875" style="stroke:#181818;stroke-width:1.0;" width="10" x="823" y="157.125"/><rect fill="#FFFFFF" height="30" style="stroke:#181818;stroke-width:1.0;" width="10" x="1153" y="194.4063"/><rect fill="#FFFFFF" height="37.2813" style="stroke:#181818;stroke-width:1.0;" width="10" x="1297.5" y="302.25"/><ellipse cx="4.5" cy="81.8125" fill="none" rx="4" ry="4" style="stroke:#181818;stroke-width:1.5;"/><polygon fill="#181818" points="307,78.5625,317,82.5625,307,86.5625,311,82.5625" style="stroke:#181818;stroke-width:1.0;"/><line style="stroke:#181818;stroke-width:1.0;" x1="9" x2="313" y1="82.5625" y2="82.5625"/><text fill="#000000" font-family="sans-serif" font-size="20" font-weight="bold" lengthAdjust="spacing" textLength="14" x="12" y="75.8457">1</text><text fill="#000000" font-family="sans-serif" font-size="20" lengthAdjust="spacing" textLength="274" x="30" y="75.8457">GET /devices/robots/:taskId</text><polygon fill="#181818" points="559,115.8438,569,119.8438,559,123.8438,563,119.8438" style="stroke:#181818;stroke-width:1.0;"/><line style="stroke:#181818;stroke-width:1.0;" x1="329" x2="565" y1="119.8438" y2="119.8438"/><text fill="#000000" font-family="sans-serif" font-size="20" font-weight="bold" lengthAdjust="spacing" textLength="14" x="336" y="113.127">2</text><text fill="#000000" font-family="sans-serif" font-size="20" lengthAdjust="spacing" textLength="195" x="354" y="113.127">getDevicesRobots()</text><polygon fill="#181818" points="811,153.125,821,157.125,811,161.125,815,157.125" style="stroke:#181818;stroke-width:1.0;"/><line style="stroke:#181818;stroke-width:1.0;" x1="581" x2="817" y1="157.125" y2="157.125"/><text fill="#000000" font-family="sans-serif" font-size="20" font-weight="bold" lengthAdjust="spacing" textLength="14" x="588" y="150.4082">3</text><text fill="#000000" font-family="sans-serif" font-size="20" lengthAdjust="spacing" textLength="195" x="606" y="150.4082">getDevicesRobots()</text><polygon fill="#181818" points="1141,190.4063,1151,194.4063,1141,198.4063,1145,194.4063" style="stroke:#181818;stroke-width:1.0;"/><line style="stroke:#181818;stroke-width:1.0;" x1="833" x2="1147" y1="194.4063" y2="194.4063"/><text fill="#000000" font-family="sans-serif" font-size="20" font-weight="bold" lengthAdjust="spacing" textLength="14" x="840" y="187.6895">4</text><text fill="#000000" font-family="sans-serif" font-size="20" lengthAdjust="spacing" textLength="124" x="858" y="187.6895">findRobots()</text><path d="M737.5,239.4063 L831.5,239.4063 L831.5,254.6875 L821.5,264.6875 L737.5,264.6875 L737.5,239.4063 " fill="#EEEEEE" style="stroke:#000000;stroke-width:1.5;"/><rect fill="none" height="119.125" style="stroke:#000000;stroke-width:1.5;" width="953" x="737.5" y="239.4063"/><text fill="#000000" font-family="sans-serif" font-size="20" font-weight="bold" lengthAdjust="spacing" textLength="49" x="752.5" y="258.9707">loop</text><text fill="#000000" font-family="sans-serif" font-size="20" font-weight="bold" lengthAdjust="spacing" textLength="186" x="846.5" y="259.9707">[foreach device]</text><polygon fill="#181818" points="1285.5,298.25,1295.5,302.25,1285.5,306.25,1289.5,302.25" style="stroke:#181818;stroke-width:1.0;"/><line style="stroke:#181818;stroke-width:1.0;" x1="833" x2="1291.5" y1="302.25" y2="302.25"/><text fill="#000000" font-family="sans-serif" font-size="20" font-weight="bold" lengthAdjust="spacing" textLength="14" x="840" y="295.5332">5</text><text fill="#000000" font-family="sans-serif" font-size="20" lengthAdjust="spacing" textLength="71" x="858" y="295.5332">toDto()</text><polygon fill="#181818" points="1416.5,335.5313,1426.5,339.5313,1416.5,343.5313,1420.5,339.5313" style="stroke:#181818;stroke-width:1.0;"/><line style="stroke:#181818;stroke-width:1.0;" x1="1302.5" x2="1422.5" y1="339.5313" y2="339.5313"/><text fill="#000000" font-family="sans-serif" font-size="20" font-weight="bold" lengthAdjust="spacing" textLength="14" x="1309.5" y="332.8145">6</text><text fill="#000000" font-family="sans-serif" font-size="20" lengthAdjust="spacing" textLength="79" x="1327.5" y="332.8145">create()</text><rect fill="#E2E2F0" height="37.2813" rx="2.5" ry="2.5" style="stroke:#181818;stroke-width:0.5;" width="252" x="1428.5" y="310.25"/><text fill="#000000" font-family="sans-serif" font-size="20" lengthAdjust="spacing" textLength="238" x="1435.5" y="335.8145">:deviceDTO:IDeviceDTO</text><polygon fill="#181818" points="592,390.8125,582,394.8125,592,398.8125,588,394.8125" style="stroke:#181818;stroke-width:1.0;"/><line style="stroke:#181818;stroke-width:1.0;stroke-dasharray:2.0,2.0;" x1="586" x2="827" y1="394.8125" y2="394.8125"/><text fill="#000000" font-family="sans-serif" font-size="20" font-weight="bold" lengthAdjust="spacing" textLength="14" x="598" y="388.0957">7</text><text fill="#000000" font-family="sans-serif" font-size="20" lengthAdjust="spacing" textLength="200" x="616" y="388.0957">sucess(devicesDTO)</text><polygon fill="#181818" points="340,428.0938,330,432.0938,340,436.0938,336,432.0938" style="stroke:#181818;stroke-width:1.0;"/><line style="stroke:#181818;stroke-width:1.0;stroke-dasharray:2.0,2.0;" x1="334" x2="575" y1="432.0938" y2="432.0938"/><text fill="#000000" font-family="sans-serif" font-size="20" font-weight="bold" lengthAdjust="spacing" textLength="14" x="346" y="425.377">8</text><text fill="#000000" font-family="sans-serif" font-size="20" lengthAdjust="spacing" textLength="200" x="364" y="425.377">sucess(devicesDTO)</text><polygon fill="#181818" points="11,465.375,1,469.375,11,473.375,7,469.375" style="stroke:#181818;stroke-width:1.0;"/><line style="stroke:#181818;stroke-width:1.0;stroke-dasharray:2.0,2.0;" x1="5" x2="323" y1="469.375" y2="469.375"/><text fill="#000000" font-family="sans-serif" font-size="20" font-weight="bold" lengthAdjust="spacing" textLength="14" x="17" y="462.6582">9</text><text fill="#000000" font-family="sans-serif" font-size="20" lengthAdjust="spacing" textLength="74" x="35" y="462.6582">200 OK</text><!--SRC=[VP51Ry8m38Nl-HKM9q1288xHj6cZR4835PMoUsZD5b6QgaavxDVFIJf8XCIXQXD_VlPxrITPDw8LvqeL9ooXnAFeAlEkQhEJlmZp6HETKNLtFc3BY3Ioa8se3MJfFb-2q33W2LvaWPdg30uYPf5dwn1Pa6ohgWhRcDjbNo6smzQ-OkPjlreddYeTrSCnbIstQRGKDYecDg_R4DY89gudUHfEeIDV9V-V0yPUrEIvDy_XOvd3r8Dwsgg3CdhAZT2dLSb4OUH56FGmOxw7cbqg7BxHU5sTkSRXwDPY4UOuucqwZt4Y63rsCUkVmr7MvJrcYwp4-0nGATN0KRLK-05lXcx1pIL96nW7enAZICmMhW9KSXSM8P826e-9BKZAO0y7ypoETScSz2qAtP4jFUo399bHkAPrvxC8ad_Sul9xcaok-7msW_GpCk_-oXy0]--></g></svg>