<?xml version="1.0" encoding="UTF-8" standalone="no"?><svg xmlns="http://www.w3.org/2000/svg" xmlns:xlink="http://www.w3.org/1999/xlink" contentStyleType="text/css" height="482px" preserveAspectRatio="none" style="width:1572px;height:482px;background:#FFFFFF;" version="1.1" viewBox="0 0 1572 482" width="1572px" zoomAndPan="magnify"><defs/><g><rect fill="#FFFFFF" height="339.25" style="stroke:#181818;stroke-width:1.0;" width="10" x="249" y="82.5625"/><rect fill="#FFFFFF" height="264.6875" style="stroke:#181818;stroke-width:1.0;" width="10" x="479" y="119.8438"/><rect fill="#FFFFFF" height="190.125" style="stroke:#181818;stroke-width:1.0;" width="10" x="709" y="157.125"/><rect fill="#FFFFFF" height="30" style="stroke:#181818;stroke-width:1.0;" width="10" x="1032" y="194.4063"/><rect fill="#FFFFFF" height="37.2813" style="stroke:#181818;stroke-width:1.0;" width="10" x="1181.5" y="261.6875"/><line style="stroke:#181818;stroke-width:0.5;stroke-dasharray:5.0,5.0;" x1="253.5" x2="253.5" y1="43.2813" y2="439.8125"/><line style="stroke:#181818;stroke-width:0.5;stroke-dasharray:5.0,5.0;" x1="483.5" x2="483.5" y1="43.2813" y2="439.8125"/><line style="stroke:#181818;stroke-width:0.5;stroke-dasharray:5.0,5.0;" x1="713.5" x2="713.5" y1="43.2813" y2="439.8125"/><line style="stroke:#181818;stroke-width:0.5;stroke-dasharray:5.0,5.0;" x1="1036.5" x2="1036.5" y1="43.2813" y2="439.8125"/><line style="stroke:#181818;stroke-width:0.5;stroke-dasharray:5.0,5.0;" x1="1186.5" x2="1186.5" y1="43.2813" y2="439.8125"/><line style="stroke:#181818;stroke-width:0.5;stroke-dasharray:5.0,5.0;" x1="1439.5" x2="1439.5" y1="303.8281" y2="439.8125"/><rect fill="#E2E2F0" height="37.2813" rx="2.5" ry="2.5" style="stroke:#181818;stroke-width:0.5;" width="147" x="180.5" y="5"/><text fill="#000000" font-family="sans-serif" font-size="20" lengthAdjust="spacing" textLength="133" x="187.5" y="30.5645">:DeviceRoute</text><rect fill="#E2E2F0" height="37.2813" rx="2.5" ry="2.5" style="stroke:#181818;stroke-width:0.5;" width="147" x="180.5" y="438.8125"/><text fill="#000000" font-family="sans-serif" font-size="20" lengthAdjust="spacing" textLength="133" x="187.5" y="464.377">:DeviceRoute</text><rect fill="#E2E2F0" height="37.2813" rx="2.5" ry="2.5" style="stroke:#181818;stroke-width:0.5;" width="187" x="390.5" y="5"/><text fill="#000000" font-family="sans-serif" font-size="20" lengthAdjust="spacing" textLength="173" x="397.5" y="30.5645">:DeviceController</text><rect fill="#E2E2F0" height="37.2813" rx="2.5" ry="2.5" style="stroke:#181818;stroke-width:0.5;" width="187" x="390.5" y="438.8125"/><text fill="#000000" font-family="sans-serif" font-size="20" lengthAdjust="spacing" textLength="173" x="397.5" y="464.377">:DeviceController</text><rect fill="#E2E2F0" height="37.2813" rx="2.5" ry="2.5" style="stroke:#181818;stroke-width:0.5;" width="161" x="633.5" y="5"/><text fill="#000000" font-family="sans-serif" font-size="20" lengthAdjust="spacing" textLength="147" x="640.5" y="30.5645">:DeviceService</text><rect fill="#E2E2F0" height="37.2813" rx="2.5" ry="2.5" style="stroke:#181818;stroke-width:0.5;" width="161" x="633.5" y="438.8125"/><text fill="#000000" font-family="sans-serif" font-size="20" lengthAdjust="spacing" textLength="147" x="640.5" y="464.377">:DeviceService</text><rect fill="#E2E2F0" height="37.2813" rx="2.5" ry="2.5" style="stroke:#181818;stroke-width:0.5;" width="149" x="962.5" y="5"/><text fill="#000000" font-family="sans-serif" font-size="20" lengthAdjust="spacing" textLength="135" x="969.5" y="30.5645">:DevicesRepo</text><rect fill="#E2E2F0" height="37.2813" rx="2.5" ry="2.5" style="stroke:#181818;stroke-width:0.5;" width="149" x="962.5" y="438.8125"/><text fill="#000000" font-family="sans-serif" font-size="20" lengthAdjust="spacing" textLength="135" x="969.5" y="464.377">:DevicesRepo</text><rect fill="#E2E2F0" height="37.2813" rx="2.5" ry="2.5" style="stroke:#181818;stroke-width:0.5;" width="130" x="1121.5" y="5"/><text fill="#000000" font-family="sans-serif" font-size="20" lengthAdjust="spacing" textLength="116" x="1128.5" y="30.5645">:DeviceMap</text><rect fill="#E2E2F0" height="37.2813" rx="2.5" ry="2.5" style="stroke:#181818;stroke-width:0.5;" width="130" x="1121.5" y="438.8125"/><text fill="#000000" font-family="sans-serif" font-size="20" lengthAdjust="spacing" textLength="116" x="1128.5" y="464.377">:DeviceMap</text><rect fill="#E2E2F0" height="37.2813" rx="2.5" ry="2.5" style="stroke:#181818;stroke-width:0.5;" width="254" x="1312.5" y="438.8125"/><text fill="#000000" font-family="sans-serif" font-size="20" lengthAdjust="spacing" textLength="240" x="1319.5" y="464.377">:DeviceDTO:IDeviceDTO</text><rect fill="#FFFFFF" height="339.25" style="stroke:#181818;stroke-width:1.0;" width="10" x="249" y="82.5625"/><rect fill="#FFFFFF" height="264.6875" style="stroke:#181818;stroke-width:1.0;" width="10" x="479" y="119.8438"/><rect fill="#FFFFFF" height="190.125" style="stroke:#181818;stroke-width:1.0;" width="10" x="709" y="157.125"/><rect fill="#FFFFFF" height="30" style="stroke:#181818;stroke-width:1.0;" width="10" x="1032" y="194.4063"/><rect fill="#FFFFFF" height="37.2813" style="stroke:#181818;stroke-width:1.0;" width="10" x="1181.5" y="261.6875"/><ellipse cx="4.5" cy="81.8125" fill="none" rx="4" ry="4" style="stroke:#181818;stroke-width:1.5;"/><polygon fill="#181818" points="237,78.5625,247,82.5625,237,86.5625,241,82.5625" style="stroke:#181818;stroke-width:1.0;"/><line style="stroke:#181818;stroke-width:1.0;" x1="9" x2="243" y1="82.5625" y2="82.5625"/><text fill="#000000" font-family="sans-serif" font-size="20" font-weight="bold" lengthAdjust="spacing" textLength="14" x="12" y="75.8457">1</text><text fill="#000000" font-family="sans-serif" font-size="20" lengthAdjust="spacing" textLength="204" x="30" y="75.8457">GET /devices/:taskId</text><polygon fill="#181818" points="467,115.8438,477,119.8438,467,123.8438,471,119.8438" style="stroke:#181818;stroke-width:1.0;"/><line style="stroke:#181818;stroke-width:1.0;" x1="259" x2="473" y1="119.8438" y2="119.8438"/><text fill="#000000" font-family="sans-serif" font-size="20" font-weight="bold" lengthAdjust="spacing" textLength="14" x="266" y="113.127">2</text><text fill="#000000" font-family="sans-serif" font-size="20" lengthAdjust="spacing" textLength="176" x="284" y="113.127">listRobots(taskId)</text><polygon fill="#181818" points="697,153.125,707,157.125,697,161.125,701,157.125" style="stroke:#181818;stroke-width:1.0;"/><line style="stroke:#181818;stroke-width:1.0;" x1="489" x2="703" y1="157.125" y2="157.125"/><text fill="#000000" font-family="sans-serif" font-size="20" font-weight="bold" lengthAdjust="spacing" textLength="14" x="496" y="150.4082">3</text><text fill="#000000" font-family="sans-serif" font-size="20" lengthAdjust="spacing" textLength="176" x="514" y="150.4082">listRobots(taskId)</text><polygon fill="#181818" points="1020,190.4063,1030,194.4063,1020,198.4063,1024,194.4063" style="stroke:#181818;stroke-width:1.0;"/><line style="stroke:#181818;stroke-width:1.0;" x1="719" x2="1026" y1="194.4063" y2="194.4063"/><text fill="#000000" font-family="sans-serif" font-size="20" font-weight="bold" lengthAdjust="spacing" textLength="14" x="726" y="187.6895">4</text><text fill="#000000" font-family="sans-serif" font-size="20" lengthAdjust="spacing" textLength="276" x="744" y="187.6895">robot=findByTaskId(taskId)</text><polygon fill="#181818" points="1169.5,257.6875,1179.5,261.6875,1169.5,265.6875,1173.5,261.6875" style="stroke:#181818;stroke-width:1.0;"/><line style="stroke:#181818;stroke-width:1.0;" x1="719" x2="1175.5" y1="261.6875" y2="261.6875"/><text fill="#000000" font-family="sans-serif" font-size="20" font-weight="bold" lengthAdjust="spacing" textLength="14" x="726" y="254.9707">5</text><text fill="#000000" font-family="sans-serif" font-size="20" lengthAdjust="spacing" textLength="211" x="744" y="254.9707">toDto(robot.elevator)</text><polygon fill="#181818" points="1300.5,294.9688,1310.5,298.9688,1300.5,302.9688,1304.5,298.9688" style="stroke:#181818;stroke-width:1.0;"/><line style="stroke:#181818;stroke-width:1.0;" x1="1186.5" x2="1306.5" y1="298.9688" y2="298.9688"/><text fill="#000000" font-family="sans-serif" font-size="20" font-weight="bold" lengthAdjust="spacing" textLength="14" x="1193.5" y="292.252">6</text><text fill="#000000" font-family="sans-serif" font-size="20" lengthAdjust="spacing" textLength="79" x="1211.5" y="292.252">create()</text><rect fill="#E2E2F0" height="37.2813" rx="2.5" ry="2.5" style="stroke:#181818;stroke-width:0.5;" width="254" x="1312.5" y="269.6875"/><text fill="#000000" font-family="sans-serif" font-size="20" lengthAdjust="spacing" textLength="240" x="1319.5" y="295.252">:DeviceDTO:IDeviceDTO</text><polygon fill="#181818" points="500,343.25,490,347.25,500,351.25,496,347.25" style="stroke:#181818;stroke-width:1.0;"/><line style="stroke:#181818;stroke-width:1.0;stroke-dasharray:2.0,2.0;" x1="494" x2="713" y1="347.25" y2="347.25"/><text fill="#000000" font-family="sans-serif" font-size="20" font-weight="bold" lengthAdjust="spacing" textLength="14" x="506" y="340.5332">7</text><text fill="#000000" font-family="sans-serif" font-size="20" lengthAdjust="spacing" textLength="178" x="524" y="340.5332">sucess(robotDTO)</text><polygon fill="#181818" points="270,380.5313,260,384.5313,270,388.5313,266,384.5313" style="stroke:#181818;stroke-width:1.0;"/><line style="stroke:#181818;stroke-width:1.0;stroke-dasharray:2.0,2.0;" x1="264" x2="483" y1="384.5313" y2="384.5313"/><text fill="#000000" font-family="sans-serif" font-size="20" font-weight="bold" lengthAdjust="spacing" textLength="14" x="276" y="377.8145">8</text><text fill="#000000" font-family="sans-serif" font-size="20" lengthAdjust="spacing" textLength="178" x="294" y="377.8145">sucess(robotDTO)</text><polygon fill="#181818" points="11,417.8125,1,421.8125,11,425.8125,7,421.8125" style="stroke:#181818;stroke-width:1.0;"/><line style="stroke:#181818;stroke-width:1.0;stroke-dasharray:2.0,2.0;" x1="5" x2="253" y1="421.8125" y2="421.8125"/><text fill="#000000" font-family="sans-serif" font-size="20" font-weight="bold" lengthAdjust="spacing" textLength="14" x="17" y="415.0957">9</text><text fill="#000000" font-family="sans-serif" font-size="20" lengthAdjust="spacing" textLength="74" x="35" y="415.0957">200 OK</text><!--SRC=[VT5TQy8m50RW-_oAu9KAJl4ox8DDtP1DAh7kFhP72DQc9AV2zkjtaeYc3hpgr_E-uPowWwuRPTMnCiK1Ibx2NhKLlfiQD_eN-7J2L8kcReyxi8mawa8tgaOkiss-uChndfZ3IHSWJOlGwvXPBhzICgDQQweARDTjv7VADc3zfMlcSh7EKkKaDAPhLg_hLAnKSzEHTnheKImljpt6Nipe-JoOu1-Bd8_BUDHOe7A7PSbKWVga4A9YB69AXL45hxH3QNO6NJyc1jU89omuydxa-vm4yufmd5rmw-dJNjVbsqyU_FzOiAo4cnVd9hyXmT7CqVH3smDKGCpOf88Gyz2Vd6V38IKA2_IbFqYBFGkrr_5TIyjoiPcY7UxdYTCdIxuN2Fjw78qkU3gPyEmp9V4l_040]--></g></svg>