<?xml version="1.0" encoding="UTF-8" standalone="no"?><svg xmlns="http://www.w3.org/2000/svg" xmlns:xlink="http://www.w3.org/1999/xlink" contentStyleType="text/css" height="525px" preserveAspectRatio="none" style="width:1468px;height:525px;background:#FFFFFF;" version="1.1" viewBox="0 0 1468 525" width="1468px" zoomAndPan="magnify"><defs/><g><rect fill="#FFFFFF" height="370.9198" style="stroke:#181818;stroke-width:1.0;" width="10" x="230.625" y="90.4799"/><rect fill="#FFFFFF" height="288.4398" style="stroke:#181818;stroke-width:1.0;" width="10" x="448.25" y="131.7199"/><rect fill="#FFFFFF" height="205.9599" style="stroke:#181818;stroke-width:1.0;" width="10" x="665.875" y="172.9599"/><rect fill="#FFFFFF" height="30" style="stroke:#181818;stroke-width:1.0;" width="10" x="963.5" y="214.1999"/><rect fill="#FFFFFF" height="41.24" style="stroke:#181818;stroke-width:1.0;" width="10" x="1103.5" y="285.4398"/><line style="stroke:#181818;stroke-width:0.5;stroke-dasharray:5.0,5.0;" x1="235.125" x2="235.125" y1="47.24" y2="479.3997"/><line style="stroke:#181818;stroke-width:0.5;stroke-dasharray:5.0,5.0;" x1="453.25" x2="453.25" y1="47.24" y2="479.3997"/><line style="stroke:#181818;stroke-width:0.5;stroke-dasharray:5.0,5.0;" x1="670.375" x2="670.375" y1="47.24" y2="479.3997"/><line style="stroke:#181818;stroke-width:0.5;stroke-dasharray:5.0,5.0;" x1="968.5" x2="968.5" y1="47.24" y2="479.3997"/><line style="stroke:#181818;stroke-width:0.5;stroke-dasharray:5.0,5.0;" x1="1108.5" x2="1108.5" y1="47.24" y2="479.3997"/><line style="stroke:#181818;stroke-width:0.5;stroke-dasharray:5.0,5.0;" x1="1342.125" x2="1342.125" y1="329.5598" y2="479.3997"/><rect fill="#E2E2F0" height="41.24" rx="2.5" ry="2.5" style="stroke:#181818;stroke-width:0.5;" width="135" x="168.125" y="5"/><text fill="#000000" font-family="sans-serif" font-size="20" lengthAdjust="spacing" textLength="121" x="175.125" y="33.38">:DeviceRoute</text><rect fill="#E2E2F0" height="41.24" rx="2.5" ry="2.5" style="stroke:#181818;stroke-width:0.5;" width="135" x="168.125" y="478.3997"/><text fill="#000000" font-family="sans-serif" font-size="20" lengthAdjust="spacing" textLength="121" x="175.125" y="506.7797">:DeviceRoute</text><rect fill="#E2E2F0" height="41.24" rx="2.5" ry="2.5" style="stroke:#181818;stroke-width:0.5;" width="174" x="366.25" y="5"/><text fill="#000000" font-family="sans-serif" font-size="20" lengthAdjust="spacing" textLength="160" x="373.25" y="33.38">:DeviceController</text><rect fill="#E2E2F0" height="41.24" rx="2.5" ry="2.5" style="stroke:#181818;stroke-width:0.5;" width="174" x="366.25" y="478.3997"/><text fill="#000000" font-family="sans-serif" font-size="20" lengthAdjust="spacing" textLength="160" x="373.25" y="506.7797">:DeviceController</text><rect fill="#E2E2F0" height="41.24" rx="2.5" ry="2.5" style="stroke:#181818;stroke-width:0.5;" width="147" x="597.375" y="5"/><text fill="#000000" font-family="sans-serif" font-size="20" lengthAdjust="spacing" textLength="133" x="604.375" y="33.38">:DeviceService</text><rect fill="#E2E2F0" height="41.24" rx="2.5" ry="2.5" style="stroke:#181818;stroke-width:0.5;" width="147" x="597.375" y="478.3997"/><text fill="#000000" font-family="sans-serif" font-size="20" lengthAdjust="spacing" textLength="133" x="604.375" y="506.7797">:DeviceService</text><rect fill="#E2E2F0" height="41.24" rx="2.5" ry="2.5" style="stroke:#181818;stroke-width:0.5;" width="138" x="899.5" y="5"/><text fill="#000000" font-family="sans-serif" font-size="20" lengthAdjust="spacing" textLength="124" x="906.5" y="33.38">:DevicesRepo</text><rect fill="#E2E2F0" height="41.24" rx="2.5" ry="2.5" style="stroke:#181818;stroke-width:0.5;" width="138" x="899.5" y="478.3997"/><text fill="#000000" font-family="sans-serif" font-size="20" lengthAdjust="spacing" textLength="124" x="906.5" y="506.7797">:DevicesRepo</text><rect fill="#E2E2F0" height="41.24" rx="2.5" ry="2.5" style="stroke:#181818;stroke-width:0.5;" width="122" x="1047.5" y="5"/><text fill="#000000" font-family="sans-serif" font-size="20" lengthAdjust="spacing" textLength="108" x="1054.5" y="33.38">:DeviceMap</text><rect fill="#E2E2F0" height="41.24" rx="2.5" ry="2.5" style="stroke:#181818;stroke-width:0.5;" width="122" x="1047.5" y="478.3997"/><text fill="#000000" font-family="sans-serif" font-size="20" lengthAdjust="spacing" textLength="108" x="1054.5" y="506.7797">:DeviceMap</text><rect fill="#E2E2F0" height="41.24" rx="2.5" ry="2.5" style="stroke:#181818;stroke-width:0.5;" width="239" x="1223.125" y="478.3997"/><text fill="#000000" font-family="sans-serif" font-size="20" lengthAdjust="spacing" textLength="225" x="1230.125" y="506.7797">:DeviceDTO:IDeviceDTO</text><rect fill="#FFFFFF" height="370.9198" style="stroke:#181818;stroke-width:1.0;" width="10" x="230.625" y="90.4799"/><rect fill="#FFFFFF" height="288.4398" style="stroke:#181818;stroke-width:1.0;" width="10" x="448.25" y="131.7199"/><rect fill="#FFFFFF" height="205.9599" style="stroke:#181818;stroke-width:1.0;" width="10" x="665.875" y="172.9599"/><rect fill="#FFFFFF" height="30" style="stroke:#181818;stroke-width:1.0;" width="10" x="963.5" y="214.1999"/><rect fill="#FFFFFF" height="41.24" style="stroke:#181818;stroke-width:1.0;" width="10" x="1103.5" y="285.4398"/><ellipse cx="4.5" cy="89.7299" fill="none" rx="4" ry="4" style="stroke:#181818;stroke-width:1.5;"/><polygon fill="#181818" points="218.625,86.4799,228.625,90.4799,218.625,94.4799,222.625,90.4799" style="stroke:#181818;stroke-width:1.0;"/><line style="stroke:#181818;stroke-width:1.0;" x1="9" x2="224.625" y1="90.4799" y2="90.4799"/><text fill="#000000" font-family="sans-serif" font-size="20" font-weight="bold" lengthAdjust="spacing" textLength="11.625" x="12" y="82.62">1</text><text fill="#000000" font-family="sans-serif" font-size="20" lengthAdjust="spacing" textLength="188" x="27.625" y="82.62">GET /devices/:taskId</text><polygon fill="#181818" points="436.25,127.7199,446.25,131.7199,436.25,135.7199,440.25,131.7199" style="stroke:#181818;stroke-width:1.0;"/><line style="stroke:#181818;stroke-width:1.0;" x1="240.625" x2="442.25" y1="131.7199" y2="131.7199"/><text fill="#000000" font-family="sans-serif" font-size="20" font-weight="bold" lengthAdjust="spacing" textLength="11.625" x="247.625" y="123.8599">2</text><text fill="#000000" font-family="sans-serif" font-size="20" lengthAdjust="spacing" textLength="162" x="263.25" y="123.8599">listRobots(taskId)</text><polygon fill="#181818" points="653.875,168.9599,663.875,172.9599,653.875,176.9599,657.875,172.9599" style="stroke:#181818;stroke-width:1.0;"/><line style="stroke:#181818;stroke-width:1.0;" x1="458.25" x2="659.875" y1="172.9599" y2="172.9599"/><text fill="#000000" font-family="sans-serif" font-size="20" font-weight="bold" lengthAdjust="spacing" textLength="11.625" x="465.25" y="165.0999">3</text><text fill="#000000" font-family="sans-serif" font-size="20" lengthAdjust="spacing" textLength="162" x="480.875" y="165.0999">listRobots(taskId)</text><polygon fill="#181818" points="951.5,210.1999,961.5,214.1999,951.5,218.1999,955.5,214.1999" style="stroke:#181818;stroke-width:1.0;"/><line style="stroke:#181818;stroke-width:1.0;" x1="675.875" x2="957.5" y1="214.1999" y2="214.1999"/><text fill="#000000" font-family="sans-serif" font-size="20" font-weight="bold" lengthAdjust="spacing" textLength="11.625" x="682.875" y="206.3399">4</text><text fill="#000000" font-family="sans-serif" font-size="20" lengthAdjust="spacing" textLength="253" x="698.5" y="206.3399">robot=findByTaskId(taskId)</text><polygon fill="#181818" points="1091.5,281.4398,1101.5,285.4398,1091.5,289.4398,1095.5,285.4398" style="stroke:#181818;stroke-width:1.0;"/><line style="stroke:#181818;stroke-width:1.0;" x1="675.875" x2="1097.5" y1="285.4398" y2="285.4398"/><text fill="#000000" font-family="sans-serif" font-size="20" font-weight="bold" lengthAdjust="spacing" textLength="11.625" x="682.875" y="277.5799">5</text><text fill="#000000" font-family="sans-serif" font-size="20" lengthAdjust="spacing" textLength="196" x="698.5" y="277.5799">toDto(robot.elevator)</text><polygon fill="#181818" points="1211.125,322.6798,1221.125,326.6798,1211.125,330.6798,1215.125,326.6798" style="stroke:#181818;stroke-width:1.0;"/><line style="stroke:#181818;stroke-width:1.0;" x1="1108.5" x2="1217.125" y1="326.6798" y2="326.6798"/><text fill="#000000" font-family="sans-serif" font-size="20" font-weight="bold" lengthAdjust="spacing" textLength="11.625" x="1115.5" y="318.8198">6</text><text fill="#000000" font-family="sans-serif" font-size="20" lengthAdjust="spacing" textLength="70" x="1131.125" y="318.8198">create()</text><rect fill="#E2E2F0" height="41.24" rx="2.5" ry="2.5" style="stroke:#181818;stroke-width:0.5;" width="239" x="1223.125" y="293.4398"/><text fill="#000000" font-family="sans-serif" font-size="20" lengthAdjust="spacing" textLength="225" x="1230.125" y="321.8198">:DeviceDTO:IDeviceDTO</text><polygon fill="#181818" points="469.25,374.9198,459.25,378.9198,469.25,382.9198,465.25,378.9198" style="stroke:#181818;stroke-width:1.0;"/><line style="stroke:#181818;stroke-width:1.0;stroke-dasharray:2.0,2.0;" x1="463.25" x2="669.875" y1="378.9198" y2="378.9198"/><text fill="#000000" font-family="sans-serif" font-size="20" font-weight="bold" lengthAdjust="spacing" textLength="11.625" x="475.25" y="371.0598">7</text><text fill="#000000" font-family="sans-serif" font-size="20" lengthAdjust="spacing" textLength="168" x="490.875" y="371.0598">sucess(robotDTO)</text><polygon fill="#181818" points="251.625,416.1598,241.625,420.1598,251.625,424.1598,247.625,420.1598" style="stroke:#181818;stroke-width:1.0;"/><line style="stroke:#181818;stroke-width:1.0;stroke-dasharray:2.0,2.0;" x1="245.625" x2="452.25" y1="420.1598" y2="420.1598"/><text fill="#000000" font-family="sans-serif" font-size="20" font-weight="bold" lengthAdjust="spacing" textLength="11.625" x="257.625" y="412.2998">8</text><text fill="#000000" font-family="sans-serif" font-size="20" lengthAdjust="spacing" textLength="168" x="273.25" y="412.2998">sucess(robotDTO)</text><polygon fill="#181818" points="11,457.3997,1,461.3997,11,465.3997,7,461.3997" style="stroke:#181818;stroke-width:1.0;"/><line style="stroke:#181818;stroke-width:1.0;stroke-dasharray:2.0,2.0;" x1="5" x2="234.625" y1="461.3997" y2="461.3997"/><text fill="#000000" font-family="sans-serif" font-size="20" font-weight="bold" lengthAdjust="spacing" textLength="11.625" x="17" y="453.5398">9</text><text fill="#000000" font-family="sans-serif" font-size="20" lengthAdjust="spacing" textLength="66" x="32.625" y="453.5398">200 OK</text><!--SRC=[VT5TQy8m50RW-_oAu9KAJl4ox8DDtP1DAh7kFhP72DQc9AV2zkjtaeYc3hpgr_E-uPowWwuRPTMnCiK1Ibx2NhKLlfiQD_eN-7J2L8kcReyxi8mawa8tgaOkiss-uChndfZ3IHSWJOlGwvXPBhzICgDQQweARDTjv7VADc3zfMlcSh7EKkKaDAPhLg_hLAnKSzEHTnheKImljpt6Nipe-JoOu1-Bd8_BUDHOe7A7PSbKWVga4A9YB69AXL45hxH3QNO6NJyc1jU89omuydxa-vm4yufmd5rmw-dJNjVbsqyU_FzOiAo4cnVd9hyXmT7CqVH3smDKGCpOf88Gyz2Vd6V38IKA2_IbFqYBFGkrr_5TIyjoiPcY7UxdYTCdIxuN2Fjw78qkU3gPyEmp9V4l_040]--></g></svg>