<?xml version="1.0" encoding="UTF-8" standalone="no"?><svg xmlns="http://www.w3.org/2000/svg" xmlns:xlink="http://www.w3.org/1999/xlink" contentStyleType="text/css" height="455px" preserveAspectRatio="none" style="width:931px;height:455px;background:#FFFFFF;" version="1.1" viewBox="0 0 931 455" width="931px" zoomAndPan="magnify"><defs/><g><rect fill="#FFFFFF" height="259.25" style="stroke:#181818;stroke-width:1.0;" width="10" x="105.5" y="98.2813"/><rect fill="#FFFFFF" height="37.2813" style="stroke:#181818;stroke-width:1.0;" width="10" x="798.5" y="127.5625"/><rect fill="#FFFFFF" height="140.4063" style="stroke:#181818;stroke-width:1.0;" width="10" x="798.5" y="202.125"/><rect fill="none" height="133.4063" style="stroke:#000000;stroke-width:1.5;" width="914" x="10" y="217.125"/><line style="stroke:#181818;stroke-width:0.5;stroke-dasharray:5.0,5.0;" x1="110" x2="110" y1="88.2813" y2="367.5313"/><line style="stroke:#181818;stroke-width:0.5;stroke-dasharray:5.0,5.0;" x1="803" x2="803" y1="88.2813" y2="367.5313"/><text fill="#000000" font-family="sans-serif" font-size="20" lengthAdjust="spacing" textLength="175" x="20" y="83.5645">Campus Manager</text><ellipse cx="110.5" cy="13.5" fill="#E2E2F0" rx="8" ry="8" style="stroke:#181818;stroke-width:0.5;"/><path d="M110.5,21.5 L110.5,48.5 M97.5,29.5 L123.5,29.5 M110.5,48.5 L97.5,63.5 M110.5,48.5 L123.5,63.5 " fill="none" style="stroke:#181818;stroke-width:0.5;"/><text fill="#000000" font-family="sans-serif" font-size="20" lengthAdjust="spacing" textLength="175" x="20" y="385.0957">Campus Manager</text><ellipse cx="110.5" cy="398.3125" fill="#E2E2F0" rx="8" ry="8" style="stroke:#181818;stroke-width:0.5;"/><path d="M110.5,406.3125 L110.5,433.3125 M97.5,414.3125 L123.5,414.3125 M110.5,433.3125 L97.5,448.3125 M110.5,433.3125 L123.5,448.3125 " fill="none" style="stroke:#181818;stroke-width:0.5;"/><rect fill="#E2E2F0" height="60.5625" rx="2.5" ry="2.5" style="stroke:#181818;stroke-width:0.5;" width="221" x="693" y="26.7188"/><text fill="#000000" font-family="sans-serif" font-size="20" font-style="italic" lengthAdjust="spacing" textLength="145" x="731" y="52.2832">«system (C4)»</text><text fill="#000000" font-family="sans-serif" font-size="20" lengthAdjust="spacing" textLength="207" x="700" y="75.5645">RobDroneGo System</text><rect fill="#E2E2F0" height="60.5625" rx="2.5" ry="2.5" style="stroke:#181818;stroke-width:0.5;" width="221" x="693" y="366.5313"/><text fill="#000000" font-family="sans-serif" font-size="20" font-style="italic" lengthAdjust="spacing" textLength="145" x="731" y="392.0957">«system (C4)»</text><text fill="#000000" font-family="sans-serif" font-size="20" lengthAdjust="spacing" textLength="207" x="700" y="415.377">RobDroneGo System</text><rect fill="#FFFFFF" height="259.25" style="stroke:#181818;stroke-width:1.0;" width="10" x="105.5" y="98.2813"/><rect fill="#FFFFFF" height="37.2813" style="stroke:#181818;stroke-width:1.0;" width="10" x="798.5" y="127.5625"/><rect fill="#FFFFFF" height="140.4063" style="stroke:#181818;stroke-width:1.0;" width="10" x="798.5" y="202.125"/><polygon fill="#181818" points="786.5,123.5625,796.5,127.5625,786.5,131.5625,790.5,127.5625" style="stroke:#181818;stroke-width:1.0;"/><line style="stroke:#181818;stroke-width:1.0;" x1="115.5" x2="792.5" y1="127.5625" y2="127.5625"/><text fill="#000000" font-family="sans-serif" font-size="20" font-weight="bold" lengthAdjust="spacing" textLength="14" x="122.5" y="120.8457">1</text><text fill="#000000" font-family="sans-serif" font-size="20" lengthAdjust="spacing" textLength="279" x="140.5" y="120.8457">wants to create a connector</text><polygon fill="#181818" points="126.5,160.8438,116.5,164.8438,126.5,168.8438,122.5,164.8438" style="stroke:#181818;stroke-width:1.0;"/><line style="stroke:#181818;stroke-width:1.0;stroke-dasharray:2.0,2.0;" x1="120.5" x2="802.5" y1="164.8438" y2="164.8438"/><text fill="#000000" font-family="sans-serif" font-size="20" font-weight="bold" lengthAdjust="spacing" textLength="14" x="132.5" y="158.127">2</text><text fill="#000000" font-family="sans-serif" font-size="20" lengthAdjust="spacing" textLength="507" x="150.5" y="158.127">asks for the connector code, floor 1 &amp; floor 2 codes</text><polygon fill="#181818" points="786.5,198.125,796.5,202.125,786.5,206.125,790.5,202.125" style="stroke:#181818;stroke-width:1.0;"/><line style="stroke:#181818;stroke-width:1.0;" x1="115.5" x2="792.5" y1="202.125" y2="202.125"/><text fill="#000000" font-family="sans-serif" font-size="20" font-weight="bold" lengthAdjust="spacing" textLength="14" x="122.5" y="195.4082">3</text><text fill="#000000" font-family="sans-serif" font-size="20" lengthAdjust="spacing" textLength="157" x="140.5" y="195.4082">inserts the data</text><path d="M10,217.125 L86,217.125 L86,232.4063 L76,242.4063 L10,242.4063 L10,217.125 " fill="#EEEEEE" style="stroke:#000000;stroke-width:1.5;"/><rect fill="none" height="133.4063" style="stroke:#000000;stroke-width:1.5;" width="914" x="10" y="217.125"/><text fill="#000000" font-family="sans-serif" font-size="20" font-weight="bold" lengthAdjust="spacing" textLength="31" x="25" y="236.6895">alt</text><text fill="#000000" font-family="sans-serif" font-size="20" font-weight="bold" lengthAdjust="spacing" textLength="327" x="101" y="237.6895">[a new connector is created]</text><polygon fill="#181818" points="126.5,275.9688,116.5,279.9688,126.5,283.9688,122.5,279.9688" style="stroke:#181818;stroke-width:1.0;"/><line style="stroke:#181818;stroke-width:1.0;stroke-dasharray:2.0,2.0;" x1="120.5" x2="797.5" y1="279.9688" y2="279.9688"/><text fill="#000000" font-family="sans-serif" font-size="20" font-weight="bold" lengthAdjust="spacing" textLength="14" x="132.5" y="273.252">4</text><text fill="#000000" font-family="sans-serif" font-size="20" lengthAdjust="spacing" textLength="265" x="150.5" y="273.252">returns the new connector</text><line style="stroke:#000000;stroke-width:1.0;stroke-dasharray:2.0,2.0;" x1="10" x2="924" y1="288.9688" y2="288.9688"/><text fill="#000000" font-family="sans-serif" font-size="20" font-weight="bold" lengthAdjust="spacing" textLength="497" x="15" y="307.5332">[there is a connector between those floors]</text><polygon fill="#181818" points="126.5,338.5313,116.5,342.5313,126.5,346.5313,122.5,342.5313" style="stroke:#181818;stroke-width:1.0;"/><line style="stroke:#181818;stroke-width:1.0;stroke-dasharray:2.0,2.0;" x1="120.5" x2="802.5" y1="342.5313" y2="342.5313"/><text fill="#000000" font-family="sans-serif" font-size="20" font-weight="bold" lengthAdjust="spacing" textLength="14" x="132.5" y="335.8145">5</text><text fill="#000000" font-family="sans-serif" font-size="20" lengthAdjust="spacing" textLength="641" x="150.5" y="335.8145">shows error message "A connector exists between those floors."</text><!--SRC=[RP6nJiD038RtUmeh0mA98gYOK5K95S7KXKoCJivjJqryqTaXmDFZ71LD2vjb-__ysvPzu0uJjasiz-J1qmRxHfyZQnc-2EQt3dkDtBSL9UUmrfXWjGOKA5ROTht06Xctb0fd70rrw90LohSozxp6wYb5ffS8vQSejGKi5f8Zk5pTNosN6HhUKScupXbxjipo1nYC9A0HwaHZ7Q6Ep3HwE8giDQiMizb1Xh8Ns9XFtT5HOP6dQzWqqU8xk3X4yvmNv-aFyTT7OA4qEZ6UHyMpuTYeMMCQ9iE274nx1t3YBf7sYNzW9nf7ZT2OJZJA9yj2HJeGiHMZjMJZSiwLNHm4A2NhRqd4VWB5umH27q5iYVzODuNHpYv0xDtqAlQSRm00]--></g></svg>