<?xml version="1.0" encoding="UTF-8" standalone="no"?><svg xmlns="http://www.w3.org/2000/svg" xmlns:xlink="http://www.w3.org/1999/xlink" contentStyleType="text/css" height="890px" preserveAspectRatio="none" style="width:585px;height:890px;background:#FFFFFF;" version="1.1" viewBox="0 0 585 890" width="585px" zoomAndPan="magnify"><defs/><g><!--cluster MDM--><g id="cluster_MDM"><rect fill="none" height="877.92" rx="2.5" ry="2.5" style="stroke:#181818;stroke-width:1.0;" width="572" x="7" y="7"/><rect fill="none" height="10" style="stroke:#181818;stroke-width:1.0;" width="15" x="559" y="12"/><rect fill="none" height="2" style="stroke:#181818;stroke-width:1.0;" width="4" x="557" y="14"/><rect fill="none" height="2" style="stroke:#181818;stroke-width:1.0;" width="4" x="557" y="18"/><text fill="#000000" font-family="sans-serif" font-size="20" font-style="italic" lengthAdjust="spacing" textLength="122" x="232" y="41.38">«component»</text><text fill="#000000" font-family="sans-serif" font-size="20" font-style="italic" lengthAdjust="spacing" textLength="145" x="220.5" y="68.62">«container (C4)»</text><text fill="#000000" font-family="sans-serif" font-size="20" font-weight="bold" lengthAdjust="spacing" textLength="169.5" x="208.25" y="95.8599">MD Management</text></g><!--cluster I--><g id="cluster_I"><path d="M61.5,123 L201.25,123 A3.75,3.75 0 0 1 203.75,125.5 L210.75,156.24 L370.5,156.24 A2.5,2.5 0 0 1 373,158.74 L373,272.98 A2.5,2.5 0 0 1 370.5,275.48 L61.5,275.48 A2.5,2.5 0 0 1 59,272.98 L59,125.5 A2.5,2.5 0 0 1 61.5,123 " fill="none" style="stroke:#000000;stroke-width:1.5;"/><line style="stroke:#000000;stroke-width:1.5;" x1="59" x2="210.75" y1="156.24" y2="156.24"/><text fill="#000000" font-family="sans-serif" font-size="20" font-weight="bold" lengthAdjust="spacing" textLength="138.75" x="63" y="146.38">Infrastructure</text></g><!--cluster IA--><g id="cluster_IA"><path d="M41.5,315.48 L226.125,315.48 A3.75,3.75 0 0 1 228.625,317.98 L235.625,348.72 L397.5,348.72 A2.5,2.5 0 0 1 400,351.22 L400,465.46 A2.5,2.5 0 0 1 397.5,467.96 L41.5,467.96 A2.5,2.5 0 0 1 39,465.46 L39,317.98 A2.5,2.5 0 0 1 41.5,315.48 " fill="none" style="stroke:#000000;stroke-width:1.5;"/><line style="stroke:#000000;stroke-width:1.5;" x1="39" x2="235.625" y1="348.72" y2="348.72"/><text fill="#000000" font-family="sans-serif" font-size="20" font-weight="bold" lengthAdjust="spacing" textLength="183.625" x="43" y="338.86">Interface Adapters</text></g><!--cluster UC--><g id="cluster_UC"><path d="M41.5,507.96 L423.375,507.96 A3.75,3.75 0 0 1 425.875,510.46 L432.875,541.2 L432.5,541.2 A2.5,2.5 0 0 1 435,543.7 L435,657.94 A2.5,2.5 0 0 1 432.5,660.44 L41.5,660.44 A2.5,2.5 0 0 1 39,657.94 L39,510.46 A2.5,2.5 0 0 1 41.5,507.96 " fill="none" style="stroke:#000000;stroke-width:1.5;"/><line style="stroke:#000000;stroke-width:1.5;" x1="39" x2="432.875" y1="541.2" y2="541.2"/><text fill="#000000" font-family="sans-serif" font-size="20" font-weight="bold" lengthAdjust="spacing" textLength="380.875" x="43" y="531.34">Application Services/Use Case Services</text></g><!--cluster E--><g id="cluster_E"><path d="M41.5,700.44 L255,700.44 A3.75,3.75 0 0 1 257.5,702.94 L264.5,733.68 L544.5,733.68 A2.5,2.5 0 0 1 547,736.18 L547,850.42 A2.5,2.5 0 0 1 544.5,852.92 L41.5,852.92 A2.5,2.5 0 0 1 39,850.42 L39,702.94 A2.5,2.5 0 0 1 41.5,700.44 " fill="none" style="stroke:#000000;stroke-width:1.5;"/><line style="stroke:#000000;stroke-width:1.5;" x1="39" x2="264.5" y1="733.68" y2="733.68"/><text fill="#000000" font-family="sans-serif" font-size="20" font-weight="bold" lengthAdjust="spacing" textLength="212.5" x="43" y="723.82">Entities/Core/Domain</text></g><path d="M224,177 L332,177 A3.75,3.75 0 0 1 334.5,179.5 L341.5,210.24 L346,210.24 A2.5,2.5 0 0 1 348.5,212.74 L348.5,248.9799 A2.5,2.5 0 0 1 346,251.4799 L224,251.4799 A2.5,2.5 0 0 1 221.5,248.9799 L221.5,179.5 A2.5,2.5 0 0 1 224,177 " fill="#F1F1F1" style="stroke:#181818;stroke-width:0.5;"/><line style="stroke:#181818;stroke-width:0.5;" x1="221.5" x2="341.5" y1="210.24" y2="210.24"/><text fill="#000000" font-family="sans-serif" font-size="20" lengthAdjust="spacing" textLength="107" x="225.5" y="200.38">Persistence</text><path d="M104.5,177 L169.5,177 A3.75,3.75 0 0 1 172,179.5 L179,210.24 L183.5,210.24 A2.5,2.5 0 0 1 186,212.74 L186,248.9799 A2.5,2.5 0 0 1 183.5,251.4799 L104.5,251.4799 A2.5,2.5 0 0 1 102,248.9799 L102,179.5 A2.5,2.5 0 0 1 104.5,177 " fill="#F1F1F1" style="stroke:#181818;stroke-width:0.5;"/><line style="stroke:#181818;stroke-width:0.5;" x1="102" x2="179" y1="210.24" y2="210.24"/><text fill="#000000" font-family="sans-serif" font-size="20" lengthAdjust="spacing" textLength="64" x="106" y="200.38">Routes</text><path d="M85,369.48 L189,369.48 A3.75,3.75 0 0 1 191.5,371.98 L198.5,402.72 L203,402.72 A2.5,2.5 0 0 1 205.5,405.22 L205.5,441.4599 A2.5,2.5 0 0 1 203,443.9599 L85,443.9599 A2.5,2.5 0 0 1 82.5,441.4599 L82.5,371.98 A2.5,2.5 0 0 1 85,369.48 " fill="#F1F1F1" style="stroke:#181818;stroke-width:0.5;"/><line style="stroke:#181818;stroke-width:0.5;" x1="82.5" x2="198.5" y1="402.72" y2="402.72"/><text fill="#000000" font-family="sans-serif" font-size="20" lengthAdjust="spacing" textLength="103" x="86.5" y="392.86">Controllers</text><path d="M243,369.48 L359,369.48 A3.75,3.75 0 0 1 361.5,371.98 L368.5,402.72 L373,402.72 A2.5,2.5 0 0 1 375.5,405.22 L375.5,441.4599 A2.5,2.5 0 0 1 373,443.9599 L243,443.9599 A2.5,2.5 0 0 1 240.5,441.4599 L240.5,371.98 A2.5,2.5 0 0 1 243,369.48 " fill="#F1F1F1" style="stroke:#181818;stroke-width:0.5;"/><line style="stroke:#181818;stroke-width:0.5;" x1="240.5" x2="368.5" y1="402.72" y2="402.72"/><text fill="#000000" font-family="sans-serif" font-size="20" lengthAdjust="spacing" textLength="115" x="244.5" y="392.86">Repositories</text><path d="M220.5,561.96 L339.5,561.96 A3.75,3.75 0 0 1 342,564.46 L349,595.2 L353.5,595.2 A2.5,2.5 0 0 1 356,597.7 L356,633.9399 A2.5,2.5 0 0 1 353.5,636.4399 L220.5,636.4399 A2.5,2.5 0 0 1 218,633.9399 L218,564.46 A2.5,2.5 0 0 1 220.5,561.96 " fill="#F1F1F1" style="stroke:#181818;stroke-width:0.5;"/><line style="stroke:#181818;stroke-width:0.5;" x1="218" x2="349" y1="595.2" y2="595.2"/><text fill="#000000" font-family="sans-serif" font-size="20" lengthAdjust="spacing" textLength="118" x="222" y="585.34">App Services</text><path d="M398,754.44 L506,754.44 A3.75,3.75 0 0 1 508.5,756.94 L515.5,787.68 L520,787.68 A2.5,2.5 0 0 1 522.5,790.18 L522.5,826.4199 A2.5,2.5 0 0 1 520,828.9199 L398,828.9199 A2.5,2.5 0 0 1 395.5,826.4199 L395.5,756.94 A2.5,2.5 0 0 1 398,754.44 " fill="#F1F1F1" style="stroke:#181818;stroke-width:0.5;"/><line style="stroke:#181818;stroke-width:0.5;" x1="395.5" x2="515.5" y1="787.68" y2="787.68"/><text fill="#000000" font-family="sans-serif" font-size="20" lengthAdjust="spacing" textLength="107" x="399.5" y="777.82">Aggregates</text><path d="M216,754.44 L344,754.44 A3.75,3.75 0 0 1 346.5,756.94 L353.5,787.68 L358,787.68 A2.5,2.5 0 0 1 360.5,790.18 L360.5,826.4199 A2.5,2.5 0 0 1 358,828.9199 L216,828.9199 A2.5,2.5 0 0 1 213.5,826.4199 L213.5,756.94 A2.5,2.5 0 0 1 216,754.44 " fill="#F1F1F1" style="stroke:#181818;stroke-width:0.5;"/><line style="stroke:#181818;stroke-width:0.5;" x1="213.5" x2="353.5" y1="787.68" y2="787.68"/><text fill="#000000" font-family="sans-serif" font-size="20" lengthAdjust="spacing" textLength="127" x="217.5" y="777.82">Value Objects</text><path d="M84.5,754.44 L161.5,754.44 A3.75,3.75 0 0 1 164,756.94 L171,787.68 L175.5,787.68 A2.5,2.5 0 0 1 178,790.18 L178,826.4199 A2.5,2.5 0 0 1 175.5,828.9199 L84.5,828.9199 A2.5,2.5 0 0 1 82,826.4199 L82,756.94 A2.5,2.5 0 0 1 84.5,754.44 " fill="#F1F1F1" style="stroke:#181818;stroke-width:0.5;"/><line style="stroke:#181818;stroke-width:0.5;" x1="82" x2="171" y1="787.68" y2="787.68"/><text fill="#000000" font-family="sans-serif" font-size="20" lengthAdjust="spacing" textLength="76" x="86" y="777.82">Services</text><!--link ROUTE to CTRL--><g id="link_ROUTE_CTRL"><path d="M144,251.97 C144,283.85 144,330.02 144,363.44 " fill="none" id="ROUTE-to-CTRL" style="stroke:#181818;stroke-width:1.0;stroke-dasharray:7.0,7.0;"/><polygon fill="#181818" points="144,368.11,148,359.11,144,363.11,140,359.11,144,368.11" style="stroke:#181818;stroke-width:1.0;"/></g><!--link REPO to PERS--><g id="link_REPO_PERS"><path d="M303.58,369.11 C299.73,337.26 294.16,291.09 290.12,257.64 " fill="none" id="REPO-to-PERS" style="stroke:#181818;stroke-width:1.0;stroke-dasharray:7.0,7.0;"/><polygon fill="#181818" points="289.43,252.97,286.5404,262.3854,290.0308,257.9338,294.4825,261.4241,289.43,252.97" style="stroke:#181818;stroke-width:1.0;"/></g><!--link CTRL to APP--><g id="link_CTRL_APP"><path d="M175.76,444.45 C188.01,459 201.95,476.04 214,491.96 C229.81,512.85 246.43,536.86 259.81,556.76 " fill="none" id="CTRL-to-APP" style="stroke:#181818;stroke-width:1.0;stroke-dasharray:7.0,7.0;"/><polygon fill="#181818" points="263.13,560.72,261.4505,551.0154,260.3499,556.5642,254.8011,555.4636,263.13,560.72" style="stroke:#181818;stroke-width:1.0;"/></g><!--link REPO to APP--><g id="link_REPO_APP"><path d="M303.95,444.45 C300.44,476.33 295.35,522.5 291.66,555.92 " fill="none" id="REPO-to-APP" style="stroke:#181818;stroke-width:1.0;stroke-dasharray:7.0,7.0;"/><polygon fill="#181818" points="291.04,560.59,296.0202,552.0931,291.5984,555.6213,288.0702,551.1996,291.04,560.59" style="stroke:#181818;stroke-width:1.0;"/></g><!--link APP to AGG--><g id="link_APP_AGG"><path d="M329.68,636.92 C345.44,651.19 363.09,668.03 378,684.44 C396.49,704.78 415.21,729.05 430,749.26 " fill="none" id="APP-to-AGG" style="stroke:#181818;stroke-width:1.0;stroke-dasharray:7.0,7.0;"/><polygon fill="#181818" points="433.48,753.04,431.4174,743.4096,430.5374,748.9976,424.9494,748.1176,433.48,753.04" style="stroke:#181818;stroke-width:1.0;"/></g><!--link APP to VO--><g id="link_APP_VO"><path d="M287,636.93 C287,668.81 287,714.98 287,748.4 " fill="none" id="APP-to-VO" style="stroke:#181818;stroke-width:1.0;stroke-dasharray:7.0,7.0;"/><polygon fill="#181818" points="287,753.07,291,744.07,287,748.07,283,744.07,287,753.07" style="stroke:#181818;stroke-width:1.0;"/></g><!--link APP to SRV--><g id="link_APP_SRV"><path d="M257.2,636.94 C244.85,650.56 229.74,665.38 214,676.44 C206.84,681.47 202.6,678.69 196,684.44 C175.76,702.07 159.68,727.44 148.46,748.96 " fill="none" id="APP-to-SRV" style="stroke:#181818;stroke-width:1.0;stroke-dasharray:7.0,7.0;"/><polygon fill="#181818" points="145.86,753.06,153.5184,746.8674,148.1361,748.6081,146.3954,743.2257,145.86,753.06" style="stroke:#181818;stroke-width:1.0;"/></g><!--link I to IA--><g id="link_I_IA"><path d="M60.6668,275.5696 C60.6313,275.9077 60.5957,276.2464 60.5601,276.5858 C59.4195,287.4462 58.2078,298.9828 56.9963,310.5187 C56.8448,311.9607 56.6934,313.4027 56.5421,314.8434 C56.5231,315.0235 56.5042,315.2035 56.4853,315.3835 " fill="none" id="I-to-IA" style="stroke:#181818;stroke-width:1.0;stroke-dasharray:7.0,7.0;"/><polygon fill="#181818" points="56.4853,315.3835,61.4035,306.8506,57.0076,310.4109,53.4473,306.015,56.4853,315.3835" style="stroke:#181818;stroke-width:1.0;"/></g><!--link IA to UC--><g id="link_IA_UC"><path d="M47,468.0496 C47,468.3877 47,468.7264 47,469.0658 C47,479.9262 47,491.4628 47,502.9987 C47,504.4407 47,505.8827 47,507.3234 C47,507.5035 47,507.6835 47,507.8635 " fill="none" id="IA-to-UC" style="stroke:#181818;stroke-width:1.0;stroke-dasharray:7.0,7.0;"/><polygon fill="#181818" points="47,507.8635,51,498.8635,47,502.8635,43,498.8635,47,507.8635" style="stroke:#181818;stroke-width:1.0;"/></g><!--link UC to E--><g id="link_UC_E"><path d="M47,660.5296 C47,660.8677 47,661.2064 47,661.5458 C47,672.4062 47,683.9428 47,695.4787 C47,696.9207 47,698.3627 47,699.8034 C47,699.9835 47,700.1635 47,700.3435 " fill="none" id="UC-to-E" style="stroke:#181818;stroke-width:1.0;stroke-dasharray:7.0,7.0;"/><polygon fill="#181818" points="47,700.3435,51,691.3435,47,695.3435,43,691.3435,47,700.3435" style="stroke:#181818;stroke-width:1.0;"/></g><!--SRC=[RL7BReCm4BpxArQSsajILJr6aH2X2Aa8125t5nRa1cnacnuQvT-xTffKULpGxCwmCxisUo4dhlaug6QFBRJOyNcmxqhQIlmWlBumrgXnKXAbXI3RGCObxt6aCW1k8Djai5fT9EkrhwJbGgA6f-ZjcLe71j2feQLEAZlDZTLpOsUDRaBgQO29DtkQ30Lg8un5sNYwYCiA3iShIQbcYyQnPLvlunDzPFykGIejwexJYB3b4s7ZqwRXZLb4KRKQ1X8uFjgM7tTcE2aZhDBYpp8kyWUEuJGDek5MA0aLwc_He5dMXYmuVSuTdwAERbAudwybOL4yy8Yb5PPYB2EbSRbH8rtPo-ExWNsliUVsF2v9RjSATdoO4VBFBspiIRNBxqHNeQfoTmv5iKwdNopM_chCdyLLxi6OFwIhQ95_oXLkCu-Jv89t-GMI1sEfXsd8wBqSgYD6DtCePhy0]--></g></svg>