<?xml version="1.0" encoding="UTF-8" standalone="no"?><svg xmlns="http://www.w3.org/2000/svg" xmlns:xlink="http://www.w3.org/1999/xlink" contentStyleType="text/css" height="833px" preserveAspectRatio="none" style="width:612px;height:833px;background:#FFFFFF;" version="1.1" viewBox="0 0 612 833" width="612px" zoomAndPan="magnify"><defs/><g><!--cluster MDM--><g id="cluster_MDM"><rect fill="none" height="820" rx="2.5" ry="2.5" style="stroke:#181818;stroke-width:1.0;" width="599" x="7" y="7"/><rect fill="none" height="10" style="stroke:#181818;stroke-width:1.0;" width="15" x="586" y="12"/><rect fill="none" height="2" style="stroke:#181818;stroke-width:1.0;" width="4" x="584" y="14"/><rect fill="none" height="2" style="stroke:#181818;stroke-width:1.0;" width="4" x="584" y="18"/><text fill="#000000" font-family="sans-serif" font-size="20" font-style="italic" lengthAdjust="spacing" textLength="138" x="237.5" y="38.5645">«component»</text><text fill="#000000" font-family="sans-serif" font-size="20" font-style="italic" lengthAdjust="spacing" textLength="168" x="222.5" y="61.8457">«container (C4)»</text><text fill="#000000" font-family="sans-serif" font-size="20" font-weight="bold" lengthAdjust="spacing" textLength="193" x="210" y="85.127">MD Management</text></g><!--cluster I--><g id="cluster_I"><path d="M61.5,111 L222.5,111 A3.75,3.75 0 0 1 225,113.5 L232,140.2813 L382.5,140.2813 A2.5,2.5 0 0 1 385,142.7813 L385,249.5 A2.5,2.5 0 0 1 382.5,252 L61.5,252 A2.5,2.5 0 0 1 59,249.5 L59,113.5 A2.5,2.5 0 0 1 61.5,111 " fill="none" style="stroke:#000000;stroke-width:1.5;"/><line style="stroke:#000000;stroke-width:1.5;" x1="59" x2="232" y1="140.2813" y2="140.2813"/><text fill="#000000" font-family="sans-serif" font-size="20" font-weight="bold" lengthAdjust="spacing" textLength="160" x="63" y="131.5645">Infrastructure</text></g><!--cluster IA--><g id="cluster_IA"><path d="M41.5,292 L256.5,292 A3.75,3.75 0 0 1 259,294.5 L266,321.2813 L411.5,321.2813 A2.5,2.5 0 0 1 414,323.7813 L414,430.5 A2.5,2.5 0 0 1 411.5,433 L41.5,433 A2.5,2.5 0 0 1 39,430.5 L39,294.5 A2.5,2.5 0 0 1 41.5,292 " fill="none" style="stroke:#000000;stroke-width:1.5;"/><line style="stroke:#000000;stroke-width:1.5;" x1="39" x2="266" y1="321.2813" y2="321.2813"/><text fill="#000000" font-family="sans-serif" font-size="20" font-weight="bold" lengthAdjust="spacing" textLength="214" x="43" y="312.5645">Interface Adapters</text></g><!--cluster UC--><g id="cluster_UC"><path d="M41.5,473 L487.5,473 A3.75,3.75 0 0 1 490,475.5 L497,502.2813 L497.5,502.2813 A2.5,2.5 0 0 1 500,504.7813 L500,611.5 A2.5,2.5 0 0 1 497.5,614 L41.5,614 A2.5,2.5 0 0 1 39,611.5 L39,475.5 A2.5,2.5 0 0 1 41.5,473 " fill="none" style="stroke:#000000;stroke-width:1.5;"/><line style="stroke:#000000;stroke-width:1.5;" x1="39" x2="497" y1="502.2813" y2="502.2813"/><text fill="#000000" font-family="sans-serif" font-size="20" font-weight="bold" lengthAdjust="spacing" textLength="445" x="43" y="493.5645">Application Services/Use Case Services</text></g><!--cluster E--><g id="cluster_E"><path d="M41.5,654 L284.5,654 A3.75,3.75 0 0 1 287,656.5 L294,683.2813 L571.5,683.2813 A2.5,2.5 0 0 1 574,685.7813 L574,792.5 A2.5,2.5 0 0 1 571.5,795 L41.5,795 A2.5,2.5 0 0 1 39,792.5 L39,656.5 A2.5,2.5 0 0 1 41.5,654 " fill="none" style="stroke:#000000;stroke-width:1.5;"/><line style="stroke:#000000;stroke-width:1.5;" x1="39" x2="294" y1="683.2813" y2="683.2813"/><text fill="#000000" font-family="sans-serif" font-size="20" font-weight="bold" lengthAdjust="spacing" textLength="242" x="43" y="674.5645">Entities/Core/Domain</text></g><path d="M229.5,161 L344.5,161 A3.75,3.75 0 0 1 347,163.5 L354,190.2813 L358.5,190.2813 A2.5,2.5 0 0 1 361,192.7813 L361,225.0625 A2.5,2.5 0 0 1 358.5,227.5625 L229.5,227.5625 A2.5,2.5 0 0 1 227,225.0625 L227,163.5 A2.5,2.5 0 0 1 229.5,161 " fill="#F1F1F1" style="stroke:#181818;stroke-width:0.5;"/><line style="stroke:#181818;stroke-width:0.5;" x1="227" x2="354" y1="190.2813" y2="190.2813"/><text fill="#000000" font-family="sans-serif" font-size="20" lengthAdjust="spacing" textLength="114" x="231" y="181.5645">Persistence</text><path d="M105,161 L175,161 A3.75,3.75 0 0 1 177.5,163.5 L184.5,190.2813 L189,190.2813 A2.5,2.5 0 0 1 191.5,192.7813 L191.5,225.0625 A2.5,2.5 0 0 1 189,227.5625 L105,227.5625 A2.5,2.5 0 0 1 102.5,225.0625 L102.5,163.5 A2.5,2.5 0 0 1 105,161 " fill="#F1F1F1" style="stroke:#181818;stroke-width:0.5;"/><line style="stroke:#181818;stroke-width:0.5;" x1="102.5" x2="184.5" y1="190.2813" y2="190.2813"/><text fill="#000000" font-family="sans-serif" font-size="20" lengthAdjust="spacing" textLength="69" x="106.5" y="181.5645">Routes</text><path d="M85,342 L195,342 A3.75,3.75 0 0 1 197.5,344.5 L204.5,371.2813 L209,371.2813 A2.5,2.5 0 0 1 211.5,373.7813 L211.5,406.0625 A2.5,2.5 0 0 1 209,408.5625 L85,408.5625 A2.5,2.5 0 0 1 82.5,406.0625 L82.5,344.5 A2.5,2.5 0 0 1 85,342 " fill="#F1F1F1" style="stroke:#181818;stroke-width:0.5;"/><line style="stroke:#181818;stroke-width:0.5;" x1="82.5" x2="204.5" y1="371.2813" y2="371.2813"/><text fill="#000000" font-family="sans-serif" font-size="20" lengthAdjust="spacing" textLength="109" x="86.5" y="362.5645">Controllers</text><path d="M249,342 L373,342 A3.75,3.75 0 0 1 375.5,344.5 L382.5,371.2813 L387,371.2813 A2.5,2.5 0 0 1 389.5,373.7813 L389.5,406.0625 A2.5,2.5 0 0 1 387,408.5625 L249,408.5625 A2.5,2.5 0 0 1 246.5,406.0625 L246.5,344.5 A2.5,2.5 0 0 1 249,342 " fill="#F1F1F1" style="stroke:#181818;stroke-width:0.5;"/><line style="stroke:#181818;stroke-width:0.5;" x1="246.5" x2="382.5" y1="371.2813" y2="371.2813"/><text fill="#000000" font-family="sans-serif" font-size="20" lengthAdjust="spacing" textLength="123" x="250.5" y="362.5645">Repositories</text><path d="M228,523 L358,523 A3.75,3.75 0 0 1 360.5,525.5 L367.5,552.2813 L372,552.2813 A2.5,2.5 0 0 1 374.5,554.7813 L374.5,587.0625 A2.5,2.5 0 0 1 372,589.5625 L228,589.5625 A2.5,2.5 0 0 1 225.5,587.0625 L225.5,525.5 A2.5,2.5 0 0 1 228,523 " fill="#F1F1F1" style="stroke:#181818;stroke-width:0.5;"/><line style="stroke:#181818;stroke-width:0.5;" x1="225.5" x2="367.5" y1="552.2813" y2="552.2813"/><text fill="#000000" font-family="sans-serif" font-size="20" lengthAdjust="spacing" textLength="129" x="229.5" y="543.5645">App Services</text><path d="M417,704 L533,704 A3.75,3.75 0 0 1 535.5,706.5 L542.5,733.2813 L547,733.2813 A2.5,2.5 0 0 1 549.5,735.7813 L549.5,768.0625 A2.5,2.5 0 0 1 547,770.5625 L417,770.5625 A2.5,2.5 0 0 1 414.5,768.0625 L414.5,706.5 A2.5,2.5 0 0 1 417,704 " fill="#F1F1F1" style="stroke:#181818;stroke-width:0.5;"/><line style="stroke:#181818;stroke-width:0.5;" x1="414.5" x2="542.5" y1="733.2813" y2="733.2813"/><text fill="#000000" font-family="sans-serif" font-size="20" lengthAdjust="spacing" textLength="115" x="418.5" y="724.5645">Aggregates</text><path d="M223,704 L363,704 A3.75,3.75 0 0 1 365.5,706.5 L372.5,733.2813 L377,733.2813 A2.5,2.5 0 0 1 379.5,735.7813 L379.5,768.0625 A2.5,2.5 0 0 1 377,770.5625 L223,770.5625 A2.5,2.5 0 0 1 220.5,768.0625 L220.5,706.5 A2.5,2.5 0 0 1 223,704 " fill="#F1F1F1" style="stroke:#181818;stroke-width:0.5;"/><line style="stroke:#181818;stroke-width:0.5;" x1="220.5" x2="372.5" y1="733.2813" y2="733.2813"/><text fill="#000000" font-family="sans-serif" font-size="20" lengthAdjust="spacing" textLength="139" x="224.5" y="724.5645">Value Objects</text><path d="M85,704 L169,704 A3.75,3.75 0 0 1 171.5,706.5 L178.5,733.2813 L183,733.2813 A2.5,2.5 0 0 1 185.5,735.7813 L185.5,768.0625 A2.5,2.5 0 0 1 183,770.5625 L85,770.5625 A2.5,2.5 0 0 1 82.5,768.0625 L82.5,706.5 A2.5,2.5 0 0 1 85,704 " fill="#F1F1F1" style="stroke:#181818;stroke-width:0.5;"/><line style="stroke:#181818;stroke-width:0.5;" x1="82.5" x2="178.5" y1="733.2813" y2="733.2813"/><text fill="#000000" font-family="sans-serif" font-size="20" lengthAdjust="spacing" textLength="83" x="86.5" y="724.5645">Services</text><!--link ROUTE to CTRL--><g id="link_ROUTE_CTRL"><path d="M147,228.33 C147,258.99 147,304.72 147,336.84 " fill="none" id="ROUTE-to-CTRL" style="stroke:#181818;stroke-width:1.0;stroke-dasharray:7.0,7.0;"/><polygon fill="#181818" points="147,341.88,151,332.88,147,336.88,143,332.88,147,341.88" style="stroke:#181818;stroke-width:1.0;"/></g><!--link REPO to PERS--><g id="link_REPO_PERS"><path d="M313.63,341.88 C309.52,311.29 303.39,265.56 299.08,233.38 " fill="none" id="REPO-to-PERS" style="stroke:#181818;stroke-width:1.0;stroke-dasharray:7.0,7.0;"/><polygon fill="#181818" points="298.4,228.33,295.6442,237.7854,299.0711,233.2848,303.5718,236.7117,298.4,228.33" style="stroke:#181818;stroke-width:1.0;"/></g><!--link CTRL to APP--><g id="link_CTRL_APP"><path d="M178.63,409.24 C192.25,423.65 208.18,440.92 222,457 C239.05,476.84 257.24,499.71 271.77,518.41 " fill="none" id="CTRL-to-APP" style="stroke:#181818;stroke-width:1.0;stroke-dasharray:7.0,7.0;"/><polygon fill="#181818" points="275,522.58,272.6631,513.0124,271.9432,518.6233,266.3323,517.9033,275,522.58" style="stroke:#181818;stroke-width:1.0;"/></g><!--link REPO to APP--><g id="link_REPO_APP"><path d="M314.7,409.33 C311.62,439.99 307.02,485.72 303.79,517.84 " fill="none" id="REPO-to-APP" style="stroke:#181818;stroke-width:1.0;stroke-dasharray:7.0,7.0;"/><polygon fill="#181818" points="303.28,522.88,308.1606,514.3255,303.7803,517.9051,300.2007,513.5249,303.28,522.88" style="stroke:#181818;stroke-width:1.0;"/></g><!--link APP to AGG--><g id="link_APP_AGG"><path d="M342.38,590.12 C359.86,604.22 379.97,621.3 397,638 C416.64,657.26 436.83,680.49 452.6,699.55 " fill="none" id="APP-to-AGG" style="stroke:#181818;stroke-width:1.0;stroke-dasharray:7.0,7.0;"/><polygon fill="#181818" points="456.1,703.8,453.4528,694.3136,452.916,699.9449,447.2846,699.408,456.1,703.8" style="stroke:#181818;stroke-width:1.0;"/></g><!--link APP to VO--><g id="link_APP_VO"><path d="M300,590.33 C300,620.99 300,666.72 300,698.84 " fill="none" id="APP-to-VO" style="stroke:#181818;stroke-width:1.0;stroke-dasharray:7.0,7.0;"/><polygon fill="#181818" points="300,703.88,304,694.88,300,698.88,296,694.88,300,703.88" style="stroke:#181818;stroke-width:1.0;"/></g><!--link APP to SRV--><g id="link_APP_SRV"><path d="M269.87,590.21 C256.19,603.75 239.24,618.86 222,630 C214.3,634.97 210.13,632.24 203,638 C182.46,654.58 165.38,678.81 153.35,699.09 " fill="none" id="APP-to-SRV" style="stroke:#181818;stroke-width:1.0;stroke-dasharray:7.0,7.0;"/><polygon fill="#181818" points="150.71,703.62,158.6893,697.8467,153.2214,699.2965,151.7716,693.8285,150.71,703.62" style="stroke:#181818;stroke-width:1.0;"/></g><!--link I to IA--><g id="link_I_IA"><path d="M60.6668,252.192 C60.6313,252.5096 60.5957,252.8279 60.5601,253.1469 C59.4195,263.3524 58.2078,274.1934 56.9963,285.0338 C56.8448,286.3888 56.6934,287.7438 56.5421,289.0976 C56.4664,289.7745 56.3908,290.4511 56.3152,291.1272 C56.2963,291.2962 56.2774,291.4652 56.2586,291.6341 " fill="none" id="I-to-IA" style="stroke:#181818;stroke-width:1.0;stroke-dasharray:7.0,7.0;"/><polygon fill="#181818" points="56.2586,291.6341,61.2335,283.1341,56.8139,286.6651,53.283,282.2455,56.2586,291.6341" style="stroke:#181818;stroke-width:1.0;"/></g><!--link IA to UC--><g id="link_IA_UC"><path d="M47,433.192 C47,433.5096 47,433.8279 47,434.1469 C47,444.3524 47,455.1934 47,466.0338 C47,467.3888 47,468.7438 47,470.0976 C47,470.7745 47,471.4511 47,472.1272 C47,472.2962 47,472.4652 47,472.6341 " fill="none" id="IA-to-UC" style="stroke:#181818;stroke-width:1.0;stroke-dasharray:7.0,7.0;"/><polygon fill="#181818" points="47,472.6341,51,463.6341,47,467.6341,43,463.6341,47,472.6341" style="stroke:#181818;stroke-width:1.0;"/></g><!--link UC to E--><g id="link_UC_E"><path d="M47,614.192 C47,614.5096 47,614.8279 47,615.1469 C47,625.3524 47,636.1934 47,647.0338 C47,648.3888 47,649.7438 47,651.0976 C47,651.7745 47,652.4511 47,653.1272 C47,653.2962 47,653.4652 47,653.6341 " fill="none" id="UC-to-E" style="stroke:#181818;stroke-width:1.0;stroke-dasharray:7.0,7.0;"/><polygon fill="#181818" points="47,653.6341,51,644.6341,47,648.6341,43,644.6341,47,653.6341" style="stroke:#181818;stroke-width:1.0;"/></g><!--SRC=[RL7BReCm4BpxArQSsajILJr6aH2X2Aa8125t5nRa1cnacnuQvT-xTffKULpGxCwmCxisUo4dhlaug6QFBRJOyNcmxqhQIlmWlBumrgXnKXAbXI3RGCObxt6aCW1k8Djai5fT9EkrhwJbGgA6f-ZjcLe71j2feQLEAZlDZTLpOsUDRaBgQO29DtkQ30Lg8un5sNYwYCiA3iShIQbcYyQnPLvlunDzPFykGIejwexJYB3b4s7ZqwRXZLb4KRKQ1X8uFjgM7tTcE2aZhDBYpp8kyWUEuJGDek5MA0aLwc_He5dMXYmuVSuTdwAERbAudwybOL4yy8Yb5PPYB2EbSRbH8rtPo-ExWNsliUVsF2v9RjSATdoO4VBFBspiIRNBxqHNeQfoTmv5iKwdNopM_chCdyLLxi6OFwIhQ95_oXLkCu-Jv89t-GMI1sEfXsd8wBqSgYD6DtCePhy0]--></g></svg>