<?xml version="1.0" encoding="UTF-8" standalone="no"?><svg xmlns="http://www.w3.org/2000/svg" xmlns:xlink="http://www.w3.org/1999/xlink" contentStyleType="text/css" height="368px" preserveAspectRatio="none" style="width:1221px;height:368px;background:#FFFFFF;" version="1.1" viewBox="0 0 1221 368" width="1221px" zoomAndPan="magnify"><defs/><g><rect fill="#FFFFFF" height="156.9599" style="stroke:#181818;stroke-width:1.0;" width="10" x="85.5" y="102.24"/><rect fill="#FFFFFF" height="123.7199" style="stroke:#181818;stroke-width:1.0;" width="10" x="670.125" y="135.4799"/><rect fill="#FFFFFF" height="41.24" style="stroke:#181818;stroke-width:1.0;" width="10" x="996.75" y="176.7199"/><line style="stroke:#181818;stroke-width:0.5;stroke-dasharray:5.0,5.0;" x1="90" x2="90" y1="92.24" y2="277.1999"/><line style="stroke:#181818;stroke-width:0.5;stroke-dasharray:5.0,5.0;" x1="675.125" x2="675.125" y1="92.24" y2="277.1999"/><line style="stroke:#181818;stroke-width:0.5;stroke-dasharray:5.0,5.0;" x1="1001.75" x2="1001.75" y1="92.24" y2="277.1999"/><line style="stroke:#181818;stroke-width:0.5;stroke-dasharray:5.0,5.0;" x1="1147.75" x2="1147.75" y1="92.24" y2="277.1999"/><text fill="#000000" font-family="sans-serif" font-size="20" lengthAdjust="spacing" textLength="165" x="5" y="86.38">Campus Manager</text><ellipse cx="90.5" cy="13.5" fill="#E2E2F0" rx="8" ry="8" style="stroke:#181818;stroke-width:0.5;"/><path d="M90.5,21.5 L90.5,48.5 M77.5,29.5 L103.5,29.5 M90.5,48.5 L77.5,63.5 M90.5,48.5 L103.5,63.5 " fill="none" style="stroke:#181818;stroke-width:0.5;"/><text fill="#000000" font-family="sans-serif" font-size="20" lengthAdjust="spacing" textLength="165" x="5" y="297.5799">Campus Manager</text><ellipse cx="90.5" cy="311.9398" fill="#E2E2F0" rx="8" ry="8" style="stroke:#181818;stroke-width:0.5;"/><path d="M90.5,319.9398 L90.5,346.9398 M77.5,327.9398 L103.5,327.9398 M90.5,346.9398 L77.5,361.9398 M90.5,346.9398 L103.5,361.9398 " fill="none" style="stroke:#181818;stroke-width:0.5;"/><rect fill="#E2E2F0" height="68.4799" rx="2.5" ry="2.5" style="stroke:#181818;stroke-width:0.5;" width="136" x="607.125" y="22.76"/><text fill="#000000" font-family="sans-serif" font-size="20" font-style="italic" lengthAdjust="spacing" textLength="122" x="614.125" y="51.14">«system (C4)»</text><text fill="#000000" font-family="sans-serif" font-size="20" lengthAdjust="spacing" textLength="116" x="617.125" y="78.38">Visualization</text><rect fill="#E2E2F0" height="68.4799" rx="2.5" ry="2.5" style="stroke:#181818;stroke-width:0.5;" width="136" x="607.125" y="276.1999"/><text fill="#000000" font-family="sans-serif" font-size="20" font-style="italic" lengthAdjust="spacing" textLength="122" x="614.125" y="304.5799">«system (C4)»</text><text fill="#000000" font-family="sans-serif" font-size="20" lengthAdjust="spacing" textLength="116" x="617.125" y="331.8198">Visualization</text><rect fill="#E2E2F0" height="68.4799" rx="2.5" ry="2.5" style="stroke:#181818;stroke-width:0.5;" width="136" x="933.75" y="22.76"/><text fill="#000000" font-family="sans-serif" font-size="20" font-style="italic" lengthAdjust="spacing" textLength="122" x="940.75" y="51.14">«system (C4)»</text><text fill="#000000" font-family="sans-serif" font-size="20" lengthAdjust="spacing" textLength="48" x="977.75" y="78.38">MDD</text><rect fill="#E2E2F0" height="68.4799" rx="2.5" ry="2.5" style="stroke:#181818;stroke-width:0.5;" width="136" x="933.75" y="276.1999"/><text fill="#000000" font-family="sans-serif" font-size="20" font-style="italic" lengthAdjust="spacing" textLength="122" x="940.75" y="304.5799">«system (C4)»</text><text fill="#000000" font-family="sans-serif" font-size="20" lengthAdjust="spacing" textLength="48" x="977.75" y="331.8198">MDD</text><rect fill="#E2E2F0" height="68.4799" rx="2.5" ry="2.5" style="stroke:#181818;stroke-width:0.5;" width="136" x="1079.75" y="22.76"/><text fill="#000000" font-family="sans-serif" font-size="20" font-style="italic" lengthAdjust="spacing" textLength="122" x="1086.75" y="51.14">«system (C4)»</text><text fill="#000000" font-family="sans-serif" font-size="20" lengthAdjust="spacing" textLength="81" x="1107.25" y="78.38">Planning</text><rect fill="#E2E2F0" height="68.4799" rx="2.5" ry="2.5" style="stroke:#181818;stroke-width:0.5;" width="136" x="1079.75" y="276.1999"/><text fill="#000000" font-family="sans-serif" font-size="20" font-style="italic" lengthAdjust="spacing" textLength="122" x="1086.75" y="304.5799">«system (C4)»</text><text fill="#000000" font-family="sans-serif" font-size="20" lengthAdjust="spacing" textLength="81" x="1107.25" y="331.8198">Planning</text><rect fill="#FFFFFF" height="156.9599" style="stroke:#181818;stroke-width:1.0;" width="10" x="85.5" y="102.24"/><rect fill="#FFFFFF" height="123.7199" style="stroke:#181818;stroke-width:1.0;" width="10" x="670.125" y="135.4799"/><rect fill="#FFFFFF" height="41.24" style="stroke:#181818;stroke-width:1.0;" width="10" x="996.75" y="176.7199"/><polygon fill="#181818" points="658.125,131.4799,668.125,135.4799,658.125,139.4799,662.125,135.4799" style="stroke:#181818;stroke-width:1.0;"/><line style="stroke:#181818;stroke-width:1.0;" x1="95.5" x2="664.125" y1="135.4799" y2="135.4799"/><text fill="#000000" font-family="sans-serif" font-size="20" font-weight="bold" lengthAdjust="spacing" textLength="11.625" x="102.5" y="127.62">1</text><text fill="#000000" font-family="sans-serif" font-size="20" lengthAdjust="spacing" textLength="540" x="118.125" y="127.62">asks to list floors serverd with elevator for a given building</text><polygon fill="#181818" points="984.75,172.7199,994.75,176.7199,984.75,180.7199,988.75,176.7199" style="stroke:#181818;stroke-width:1.0;"/><line style="stroke:#181818;stroke-width:1.0;" x1="680.125" x2="990.75" y1="176.7199" y2="176.7199"/><text fill="#000000" font-family="sans-serif" font-size="20" font-weight="bold" lengthAdjust="spacing" textLength="11.625" x="687.125" y="168.8599">2</text><text fill="#000000" font-family="sans-serif" font-size="20" lengthAdjust="spacing" textLength="282" x="702.75" y="168.8599">GET /buildings/:building/floors</text><polygon fill="#181818" points="691.125,213.9599,681.125,217.9599,691.125,221.9599,687.125,217.9599" style="stroke:#181818;stroke-width:1.0;"/><line style="stroke:#181818;stroke-width:1.0;stroke-dasharray:2.0,2.0;" x1="685.125" x2="1000.75" y1="217.9599" y2="217.9599"/><text fill="#000000" font-family="sans-serif" font-size="20" font-weight="bold" lengthAdjust="spacing" textLength="11.625" x="697.125" y="210.0999">3</text><text fill="#000000" font-family="sans-serif" font-size="20" lengthAdjust="spacing" textLength="104" x="712.75" y="210.0999">200 (floors)</text><polygon fill="#181818" points="101.5,255.1999,91.5,259.1999,101.5,263.1999,97.5,259.1999" style="stroke:#181818;stroke-width:1.0;"/><line style="stroke:#181818;stroke-width:1.0;stroke-dasharray:2.0,2.0;" x1="95.5" x2="674.125" y1="259.1999" y2="259.1999"/><text fill="#000000" font-family="sans-serif" font-size="20" font-weight="bold" lengthAdjust="spacing" textLength="11.625" x="107.5" y="251.3399">4</text><text fill="#000000" font-family="sans-serif" font-size="20" lengthAdjust="spacing" textLength="153" x="123.125" y="251.3399">returns all floors</text><!--SRC=[VO_1Qi9048Rl-nI39pq4HNeAuYMsnKD0QErzJCPqSBCRTcTJwjDt4YigXHwMtONl_-URU6BNOS3M-kf4DTHqn6JbnJjvupF1Sc4mYNUfFL0m1Yln0OeICCAamBPB4Kfqs52O6EqHhhX39x3VZiW7nuIMpoZitGHMg_WTXLgO5a-pzVeXKMusOqJl_y7TYEqiEiUk-SkEbjoZa8eQexBPUl39DNUA81uiHu6ZzJv4Y1Hw2ZLyiNm2MTASRdZKWz1mJmuEYMsjaswr-wqnMgYrWtGEhy_lCBzYSPvVd_FBZ5jGSJD4iglHSh60wOMQcPeUmC5ybMKNC92au2AWjR_cz_WWTF_NlNy0]--></g></svg>