<?xml version="1.0" encoding="UTF-8" standalone="no"?><svg xmlns="http://www.w3.org/2000/svg" xmlns:xlink="http://www.w3.org/1999/xlink" contentStyleType="text/css" height="536px" preserveAspectRatio="none" style="width:2162px;height:536px;background:#FFFFFF;" version="1.1" viewBox="0 0 2162 536" width="2162px" zoomAndPan="magnify"><defs/><g><rect fill="#FFFFFF" height="403.0938" style="stroke:#181818;stroke-width:1.0;" width="10" x="421" y="82.5625"/><rect fill="#FFFFFF" height="319.5313" style="stroke:#181818;stroke-width:1.0;" width="10" x="844" y="119.8438"/><rect fill="#FFFFFF" height="244.9688" style="stroke:#181818;stroke-width:1.0;" width="10" x="1267" y="157.125"/><rect fill="#FFFFFF" height="37.2813" style="stroke:#181818;stroke-width:1.0;" width="10" x="1689" y="194.4063"/><rect fill="#FFFFFF" height="37.2813" style="stroke:#181818;stroke-width:1.0;" width="10" x="1816.5" y="309.5313"/><rect fill="none" height="119.125" style="stroke:#000000;stroke-width:1.5;" width="966.5" x="1190" y="246.6875"/><line style="stroke:#181818;stroke-width:0.5;stroke-dasharray:5.0,5.0;" x1="426" x2="426" y1="43.2813" y2="494.6563"/><line style="stroke:#181818;stroke-width:0.5;stroke-dasharray:5.0,5.0;" x1="849" x2="849" y1="43.2813" y2="494.6563"/><line style="stroke:#181818;stroke-width:0.5;stroke-dasharray:5.0,5.0;" x1="1272" x2="1272" y1="43.2813" y2="494.6563"/><line style="stroke:#181818;stroke-width:0.5;stroke-dasharray:5.0,5.0;" x1="1451" x2="1451" y1="43.2813" y2="494.6563"/><line style="stroke:#181818;stroke-width:0.5;stroke-dasharray:5.0,5.0;" x1="1694" x2="1694" y1="43.2813" y2="494.6563"/><line style="stroke:#181818;stroke-width:0.5;stroke-dasharray:5.0,5.0;" x1="1821" x2="1821" y1="43.2813" y2="494.6563"/><line style="stroke:#181818;stroke-width:0.5;stroke-dasharray:5.0,5.0;" x1="2046.5" x2="2046.5" y1="351.6719" y2="494.6563"/><rect fill="#E2E2F0" height="37.2813" rx="2.5" ry="2.5" style="stroke:#181818;stroke-width:0.5;" width="130" x="361" y="5"/><text fill="#000000" font-family="sans-serif" font-size="20" lengthAdjust="spacing" textLength="116" x="368" y="30.5645">:FloorRoute</text><rect fill="#E2E2F0" height="37.2813" rx="2.5" ry="2.5" style="stroke:#181818;stroke-width:0.5;" width="130" x="361" y="493.6563"/><text fill="#000000" font-family="sans-serif" font-size="20" lengthAdjust="spacing" textLength="116" x="368" y="519.2207">:FloorRoute</text><rect fill="#E2E2F0" height="37.2813" rx="2.5" ry="2.5" style="stroke:#181818;stroke-width:0.5;" width="170" x="764" y="5"/><text fill="#000000" font-family="sans-serif" font-size="20" lengthAdjust="spacing" textLength="156" x="771" y="30.5645">:FloorController</text><rect fill="#E2E2F0" height="37.2813" rx="2.5" ry="2.5" style="stroke:#181818;stroke-width:0.5;" width="170" x="764" y="493.6563"/><text fill="#000000" font-family="sans-serif" font-size="20" lengthAdjust="spacing" textLength="156" x="771" y="519.2207">:FloorController</text><rect fill="#E2E2F0" height="37.2813" rx="2.5" ry="2.5" style="stroke:#181818;stroke-width:0.5;" width="144" x="1200" y="5"/><text fill="#000000" font-family="sans-serif" font-size="20" lengthAdjust="spacing" textLength="130" x="1207" y="30.5645">:FloorService</text><rect fill="#E2E2F0" height="37.2813" rx="2.5" ry="2.5" style="stroke:#181818;stroke-width:0.5;" width="144" x="1200" y="493.6563"/><text fill="#000000" font-family="sans-serif" font-size="20" lengthAdjust="spacing" textLength="130" x="1207" y="519.2207">:FloorService</text><rect fill="#E2E2F0" height="37.2813" rx="2.5" ry="2.5" style="stroke:#181818;stroke-width:0.5;" width="195" x="1354" y="5"/><text fill="#000000" font-family="sans-serif" font-size="20" lengthAdjust="spacing" textLength="181" x="1361" y="30.5645">:building:Building</text><rect fill="#E2E2F0" height="37.2813" rx="2.5" ry="2.5" style="stroke:#181818;stroke-width:0.5;" width="195" x="1354" y="493.6563"/><text fill="#000000" font-family="sans-serif" font-size="20" lengthAdjust="spacing" textLength="181" x="1361" y="519.2207">:building:Building</text><rect fill="#E2E2F0" height="37.2813" rx="2.5" ry="2.5" style="stroke:#181818;stroke-width:0.5;" width="122" x="1633" y="5"/><text fill="#000000" font-family="sans-serif" font-size="20" lengthAdjust="spacing" textLength="108" x="1640" y="30.5645">:FloorRepo</text><rect fill="#E2E2F0" height="37.2813" rx="2.5" ry="2.5" style="stroke:#181818;stroke-width:0.5;" width="122" x="1633" y="493.6563"/><text fill="#000000" font-family="sans-serif" font-size="20" lengthAdjust="spacing" textLength="108" x="1640" y="519.2207">:FloorRepo</text><rect fill="#E2E2F0" height="37.2813" rx="2.5" ry="2.5" style="stroke:#181818;stroke-width:0.5;" width="113" x="1765" y="5"/><text fill="#000000" font-family="sans-serif" font-size="20" lengthAdjust="spacing" textLength="99" x="1772" y="30.5645">:FloorMap</text><rect fill="#E2E2F0" height="37.2813" rx="2.5" ry="2.5" style="stroke:#181818;stroke-width:0.5;" width="113" x="1765" y="493.6563"/><text fill="#000000" font-family="sans-serif" font-size="20" lengthAdjust="spacing" textLength="99" x="1772" y="519.2207">:FloorMap</text><rect fill="#E2E2F0" height="37.2813" rx="2.5" ry="2.5" style="stroke:#181818;stroke-width:0.5;" width="199" x="1947.5" y="493.6563"/><text fill="#000000" font-family="sans-serif" font-size="20" lengthAdjust="spacing" textLength="185" x="1954.5" y="519.2207">:floorDto:IFloorDto</text><rect fill="#FFFFFF" height="403.0938" style="stroke:#181818;stroke-width:1.0;" width="10" x="421" y="82.5625"/><rect fill="#FFFFFF" height="319.5313" style="stroke:#181818;stroke-width:1.0;" width="10" x="844" y="119.8438"/><rect fill="#FFFFFF" height="244.9688" style="stroke:#181818;stroke-width:1.0;" width="10" x="1267" y="157.125"/><rect fill="#FFFFFF" height="37.2813" style="stroke:#181818;stroke-width:1.0;" width="10" x="1689" y="194.4063"/><rect fill="#FFFFFF" height="37.2813" style="stroke:#181818;stroke-width:1.0;" width="10" x="1816.5" y="309.5313"/><ellipse cx="4.5" cy="81.8125" fill="none" rx="4" ry="4" style="stroke:#181818;stroke-width:1.5;"/><polygon fill="#181818" points="409,78.5625,419,82.5625,409,86.5625,413,82.5625" style="stroke:#181818;stroke-width:1.0;"/><line style="stroke:#181818;stroke-width:1.0;" x1="9" x2="415" y1="82.5625" y2="82.5625"/><text fill="#000000" font-family="sans-serif" font-size="20" font-weight="bold" lengthAdjust="spacing" textLength="14" x="12" y="75.8457">1</text><text fill="#000000" font-family="sans-serif" font-size="20" lengthAdjust="spacing" textLength="376" x="30" y="75.8457">GET /buildings/{buildingCode}/floors</text><polygon fill="#181818" points="832,115.8438,842,119.8438,832,123.8438,836,119.8438" style="stroke:#181818;stroke-width:1.0;"/><line style="stroke:#181818;stroke-width:1.0;" x1="431" x2="838" y1="119.8438" y2="119.8438"/><text fill="#000000" font-family="sans-serif" font-size="20" font-weight="bold" lengthAdjust="spacing" textLength="14" x="438" y="113.127">2</text><text fill="#000000" font-family="sans-serif" font-size="20" lengthAdjust="spacing" textLength="376" x="456" y="113.127">getAllFloorsOfBuilding(buildingCode)</text><polygon fill="#181818" points="1255,153.125,1265,157.125,1255,161.125,1259,157.125" style="stroke:#181818;stroke-width:1.0;"/><line style="stroke:#181818;stroke-width:1.0;" x1="854" x2="1261" y1="157.125" y2="157.125"/><text fill="#000000" font-family="sans-serif" font-size="20" font-weight="bold" lengthAdjust="spacing" textLength="14" x="861" y="150.4082">3</text><text fill="#000000" font-family="sans-serif" font-size="20" lengthAdjust="spacing" textLength="376" x="879" y="150.4082">getAllFloorsOfBuilding(buildingCode)</text><polygon fill="#181818" points="1677,190.4063,1687,194.4063,1677,198.4063,1681,194.4063" style="stroke:#181818;stroke-width:1.0;"/><line style="stroke:#181818;stroke-width:1.0;" x1="1277" x2="1683" y1="194.4063" y2="194.4063"/><text fill="#000000" font-family="sans-serif" font-size="20" font-weight="bold" lengthAdjust="spacing" textLength="14" x="1284" y="187.6895">4</text><text fill="#000000" font-family="sans-serif" font-size="20" lengthAdjust="spacing" textLength="375" x="1302" y="187.6895">findAllByBuildingCode(buildingCode)</text><polygon fill="#181818" points="1288,227.6875,1278,231.6875,1288,235.6875,1284,231.6875" style="stroke:#181818;stroke-width:1.0;"/><line style="stroke:#181818;stroke-width:1.0;stroke-dasharray:2.0,2.0;" x1="1282" x2="1693" y1="231.6875" y2="231.6875"/><text fill="#000000" font-family="sans-serif" font-size="20" font-weight="bold" lengthAdjust="spacing" textLength="14" x="1294" y="224.9707">5</text><text fill="#000000" font-family="sans-serif" font-size="20" lengthAdjust="spacing" textLength="55" x="1312" y="224.9707">floors</text><path d="M1190,246.6875 L1284,246.6875 L1284,261.9688 L1274,271.9688 L1190,271.9688 L1190,246.6875 " fill="#EEEEEE" style="stroke:#000000;stroke-width:1.5;"/><rect fill="none" height="119.125" style="stroke:#000000;stroke-width:1.5;" width="966.5" x="1190" y="246.6875"/><text fill="#000000" font-family="sans-serif" font-size="20" font-weight="bold" lengthAdjust="spacing" textLength="49" x="1205" y="266.252">loop</text><text fill="#000000" font-family="sans-serif" font-size="20" font-weight="bold" lengthAdjust="spacing" textLength="499" x="1299" y="267.252">[foreach floor_wiki/sprint-a/us04-180/views]</text><polygon fill="#181818" points="1804.5,305.5313,1814.5,309.5313,1804.5,313.5313,1808.5,309.5313" style="stroke:#181818;stroke-width:1.0;"/><line style="stroke:#181818;stroke-width:1.0;" x1="1277" x2="1810.5" y1="309.5313" y2="309.5313"/><text fill="#000000" font-family="sans-serif" font-size="20" font-weight="bold" lengthAdjust="spacing" textLength="14" x="1284" y="302.8145">6</text><text fill="#000000" font-family="sans-serif" font-size="20" lengthAdjust="spacing" textLength="116" x="1302" y="302.8145">toDto(floor)</text><polygon fill="#181818" points="1935.5,342.8125,1945.5,346.8125,1935.5,350.8125,1939.5,346.8125" style="stroke:#181818;stroke-width:1.0;"/><line style="stroke:#181818;stroke-width:1.0;" x1="1821.5" x2="1941.5" y1="346.8125" y2="346.8125"/><text fill="#000000" font-family="sans-serif" font-size="20" font-weight="bold" lengthAdjust="spacing" textLength="14" x="1828.5" y="340.0957">7</text><text fill="#000000" font-family="sans-serif" font-size="20" lengthAdjust="spacing" textLength="79" x="1846.5" y="340.0957">create()</text><rect fill="#E2E2F0" height="37.2813" rx="2.5" ry="2.5" style="stroke:#181818;stroke-width:0.5;" width="199" x="1947.5" y="317.5313"/><text fill="#000000" font-family="sans-serif" font-size="20" lengthAdjust="spacing" textLength="185" x="1954.5" y="343.0957">:floorDto:IFloorDto</text><polygon fill="#181818" points="865,398.0938,855,402.0938,865,406.0938,861,402.0938" style="stroke:#181818;stroke-width:1.0;"/><line style="stroke:#181818;stroke-width:1.0;stroke-dasharray:2.0,2.0;" x1="859" x2="1271" y1="402.0938" y2="402.0938"/><text fill="#000000" font-family="sans-serif" font-size="20" font-weight="bold" lengthAdjust="spacing" textLength="14" x="871" y="395.377">8</text><text fill="#000000" font-family="sans-serif" font-size="20" lengthAdjust="spacing" textLength="191" x="889" y="395.377">success(floorsDTO)</text><polygon fill="#181818" points="442,435.375,432,439.375,442,443.375,438,439.375" style="stroke:#181818;stroke-width:1.0;"/><line style="stroke:#181818;stroke-width:1.0;stroke-dasharray:2.0,2.0;" x1="436" x2="848" y1="439.375" y2="439.375"/><text fill="#000000" font-family="sans-serif" font-size="20" font-weight="bold" lengthAdjust="spacing" textLength="14" x="448" y="432.6582">9</text><text fill="#000000" font-family="sans-serif" font-size="20" lengthAdjust="spacing" textLength="191" x="466" y="432.6582">success(floorsDTO)</text><polygon fill="#181818" points="11,472.6563,1,476.6563,11,480.6563,7,476.6563" style="stroke:#181818;stroke-width:1.0;"/><line style="stroke:#181818;stroke-width:1.0;stroke-dasharray:2.0,2.0;" x1="5" x2="420" y1="476.6563" y2="476.6563"/><text fill="#000000" font-family="sans-serif" font-size="20" font-weight="bold" lengthAdjust="spacing" textLength="28" x="17" y="469.9395">10</text><text fill="#000000" font-family="sans-serif" font-size="20" lengthAdjust="spacing" textLength="194" x="49" y="469.9395">200 OK (floorsDTO)</text><!--SRC=[bPBVIyCm4CVVyrU4FMs3qZfya2AAsvmCbO7EPycIT8PrIKdI3HN_Tw-_hp85-tIvV3_VkzpLxPJEc6NxrF2T55J8XEMfNnZjdzM7f9E8iDmRdUytqX9GUiLLnhIdrkHUKkRe85wanjYduZpeIJYuM9EcqYBTh4tsnKxQW-BOyRdAz6NJb-N3l19jSfKAfRVnj0xwogJmUBKoCxXBEFPbUvQX-qUMdN8HlZOfZtDlukMYZWQ4N9lWgfv7JEzkrpHiMdFXPnFEZ91VOSaxmhXN1mRwaY8L2oPeOZ7TId-JfcKTjqgQHmwnuQXpwb22NC2p6Un_3MkED3nOeP76D55QWDtqVOhutymwaY2JeDTUFHiXJr4GPJGn5YxVwlnHxLJeCgkq3rYOk-WyEBk8meEIHqSeVAZpOiinzGOMDYpfKQbeAy5zcIXqxKDXw-CnO1ogUZci4DHU0KajkWdztA3BEPVELHNTVBqQuTSr0yRhGZ_Itp1QzsKGjD0aYkZgdcBe6m00]--></g></svg>