<?xml version="1.0" encoding="UTF-8" standalone="no"?><svg xmlns="http://www.w3.org/2000/svg" xmlns:xlink="http://www.w3.org/1999/xlink" contentStyleType="text/css" height="592px" preserveAspectRatio="none" style="width:1992px;height:592px;background:#FFFFFF;" version="1.1" viewBox="0 0 1992 592" width="1992px" zoomAndPan="magnify"><defs/><g><rect fill="#FFFFFF" height="446.6397" style="stroke:#181818;stroke-width:1.0;" width="10" x="383.625" y="90.4799"/><rect fill="#FFFFFF" height="355.1598" style="stroke:#181818;stroke-width:1.0;" width="10" x="772.25" y="131.7199"/><rect fill="#FFFFFF" height="272.6798" style="stroke:#181818;stroke-width:1.0;" width="10" x="1160.875" y="172.9599"/><rect fill="#FFFFFF" height="41.24" style="stroke:#181818;stroke-width:1.0;" width="10" x="1546.5" y="214.1999"/><rect fill="#FFFFFF" height="41.24" style="stroke:#181818;stroke-width:1.0;" width="10" x="1666.5" y="345.1598"/><rect fill="none" height="134.9599" style="stroke:#000000;stroke-width:1.5;" width="896.25" x="1089.875" y="270.4398"/><line style="stroke:#181818;stroke-width:0.5;stroke-dasharray:5.0,5.0;" x1="388.625" x2="388.625" y1="47.24" y2="546.1197"/><line style="stroke:#181818;stroke-width:0.5;stroke-dasharray:5.0,5.0;" x1="776.75" x2="776.75" y1="47.24" y2="546.1197"/><line style="stroke:#181818;stroke-width:0.5;stroke-dasharray:5.0,5.0;" x1="1165.875" x2="1165.875" y1="47.24" y2="546.1197"/><line style="stroke:#181818;stroke-width:0.5;stroke-dasharray:5.0,5.0;" x1="1328.875" x2="1328.875" y1="47.24" y2="546.1197"/><line style="stroke:#181818;stroke-width:0.5;stroke-dasharray:5.0,5.0;" x1="1551" x2="1551" y1="47.24" y2="546.1197"/><line style="stroke:#181818;stroke-width:0.5;stroke-dasharray:5.0,5.0;" x1="1671" x2="1671" y1="47.24" y2="546.1197"/><line style="stroke:#181818;stroke-width:0.5;stroke-dasharray:5.0,5.0;" x1="1881.125" x2="1881.125" y1="389.2798" y2="546.1197"/><rect fill="#E2E2F0" height="41.24" rx="2.5" ry="2.5" style="stroke:#181818;stroke-width:0.5;" width="120" x="328.625" y="5"/><text fill="#000000" font-family="sans-serif" font-size="20" lengthAdjust="spacing" textLength="106" x="335.625" y="33.38">:FloorRoute</text><rect fill="#E2E2F0" height="41.24" rx="2.5" ry="2.5" style="stroke:#181818;stroke-width:0.5;" width="120" x="328.625" y="545.1197"/><text fill="#000000" font-family="sans-serif" font-size="20" lengthAdjust="spacing" textLength="106" x="335.625" y="573.4997">:FloorRoute</text><rect fill="#E2E2F0" height="41.24" rx="2.5" ry="2.5" style="stroke:#181818;stroke-width:0.5;" width="159" x="697.75" y="5"/><text fill="#000000" font-family="sans-serif" font-size="20" lengthAdjust="spacing" textLength="145" x="704.75" y="33.38">:FloorController</text><rect fill="#E2E2F0" height="41.24" rx="2.5" ry="2.5" style="stroke:#181818;stroke-width:0.5;" width="159" x="697.75" y="545.1197"/><text fill="#000000" font-family="sans-serif" font-size="20" lengthAdjust="spacing" textLength="145" x="704.75" y="573.4997">:FloorController</text><rect fill="#E2E2F0" height="41.24" rx="2.5" ry="2.5" style="stroke:#181818;stroke-width:0.5;" width="132" x="1099.875" y="5"/><text fill="#000000" font-family="sans-serif" font-size="20" lengthAdjust="spacing" textLength="118" x="1106.875" y="33.38">:FloorService</text><rect fill="#E2E2F0" height="41.24" rx="2.5" ry="2.5" style="stroke:#181818;stroke-width:0.5;" width="132" x="1099.875" y="545.1197"/><text fill="#000000" font-family="sans-serif" font-size="20" lengthAdjust="spacing" textLength="118" x="1106.875" y="573.4997">:FloorService</text><rect fill="#E2E2F0" height="41.24" rx="2.5" ry="2.5" style="stroke:#181818;stroke-width:0.5;" width="175" x="1241.875" y="5"/><text fill="#000000" font-family="sans-serif" font-size="20" lengthAdjust="spacing" textLength="161" x="1248.875" y="33.38">:building:Building</text><rect fill="#E2E2F0" height="41.24" rx="2.5" ry="2.5" style="stroke:#181818;stroke-width:0.5;" width="175" x="1241.875" y="545.1197"/><text fill="#000000" font-family="sans-serif" font-size="20" lengthAdjust="spacing" textLength="161" x="1248.875" y="573.4997">:building:Building</text><rect fill="#E2E2F0" height="41.24" rx="2.5" ry="2.5" style="stroke:#181818;stroke-width:0.5;" width="113" x="1495" y="5"/><text fill="#000000" font-family="sans-serif" font-size="20" lengthAdjust="spacing" textLength="99" x="1502" y="33.38">:FloorRepo</text><rect fill="#E2E2F0" height="41.24" rx="2.5" ry="2.5" style="stroke:#181818;stroke-width:0.5;" width="113" x="1495" y="545.1197"/><text fill="#000000" font-family="sans-serif" font-size="20" lengthAdjust="spacing" textLength="99" x="1502" y="573.4997">:FloorRepo</text><rect fill="#E2E2F0" height="41.24" rx="2.5" ry="2.5" style="stroke:#181818;stroke-width:0.5;" width="107" x="1618" y="5"/><text fill="#000000" font-family="sans-serif" font-size="20" lengthAdjust="spacing" textLength="93" x="1625" y="33.38">:FloorMap</text><rect fill="#E2E2F0" height="41.24" rx="2.5" ry="2.5" style="stroke:#181818;stroke-width:0.5;" width="107" x="1618" y="545.1197"/><text fill="#000000" font-family="sans-serif" font-size="20" lengthAdjust="spacing" textLength="93" x="1625" y="573.4997">:FloorMap</text><rect fill="#E2E2F0" height="41.24" rx="2.5" ry="2.5" style="stroke:#181818;stroke-width:0.5;" width="190" x="1786.125" y="545.1197"/><text fill="#000000" font-family="sans-serif" font-size="20" lengthAdjust="spacing" textLength="176" x="1793.125" y="573.4997">:floorDto:IFloorDto</text><rect fill="#FFFFFF" height="446.6397" style="stroke:#181818;stroke-width:1.0;" width="10" x="383.625" y="90.4799"/><rect fill="#FFFFFF" height="355.1598" style="stroke:#181818;stroke-width:1.0;" width="10" x="772.25" y="131.7199"/><rect fill="#FFFFFF" height="272.6798" style="stroke:#181818;stroke-width:1.0;" width="10" x="1160.875" y="172.9599"/><rect fill="#FFFFFF" height="41.24" style="stroke:#181818;stroke-width:1.0;" width="10" x="1546.5" y="214.1999"/><rect fill="#FFFFFF" height="41.24" style="stroke:#181818;stroke-width:1.0;" width="10" x="1666.5" y="345.1598"/><ellipse cx="4.5" cy="89.7299" fill="none" rx="4" ry="4" style="stroke:#181818;stroke-width:1.5;"/><polygon fill="#181818" points="371.625,86.4799,381.625,90.4799,371.625,94.4799,375.625,90.4799" style="stroke:#181818;stroke-width:1.0;"/><line style="stroke:#181818;stroke-width:1.0;" x1="9" x2="377.625" y1="90.4799" y2="90.4799"/><text fill="#000000" font-family="sans-serif" font-size="20" font-weight="bold" lengthAdjust="spacing" textLength="11.625" x="12" y="82.62">1</text><text fill="#000000" font-family="sans-serif" font-size="20" lengthAdjust="spacing" textLength="341" x="27.625" y="82.62">GET /buildings/{buildingCode}/floors</text><polygon fill="#181818" points="760.25,127.7199,770.25,131.7199,760.25,135.7199,764.25,131.7199" style="stroke:#181818;stroke-width:1.0;"/><line style="stroke:#181818;stroke-width:1.0;" x1="393.625" x2="766.25" y1="131.7199" y2="131.7199"/><text fill="#000000" font-family="sans-serif" font-size="20" font-weight="bold" lengthAdjust="spacing" textLength="11.625" x="400.625" y="123.8599">2</text><text fill="#000000" font-family="sans-serif" font-size="20" lengthAdjust="spacing" textLength="344" x="416.25" y="123.8599">getAllFloorsOfBuilding(buildingCode)</text><polygon fill="#181818" points="1148.875,168.9599,1158.875,172.9599,1148.875,176.9599,1152.875,172.9599" style="stroke:#181818;stroke-width:1.0;"/><line style="stroke:#181818;stroke-width:1.0;" x1="782.25" x2="1154.875" y1="172.9599" y2="172.9599"/><text fill="#000000" font-family="sans-serif" font-size="20" font-weight="bold" lengthAdjust="spacing" textLength="11.625" x="789.25" y="165.0999">3</text><text fill="#000000" font-family="sans-serif" font-size="20" lengthAdjust="spacing" textLength="344" x="804.875" y="165.0999">getAllFloorsOfBuilding(buildingCode)</text><polygon fill="#181818" points="1534.5,210.1999,1544.5,214.1999,1534.5,218.1999,1538.5,214.1999" style="stroke:#181818;stroke-width:1.0;"/><line style="stroke:#181818;stroke-width:1.0;" x1="1170.875" x2="1540.5" y1="214.1999" y2="214.1999"/><text fill="#000000" font-family="sans-serif" font-size="20" font-weight="bold" lengthAdjust="spacing" textLength="11.625" x="1177.875" y="206.3399">4</text><text fill="#000000" font-family="sans-serif" font-size="20" lengthAdjust="spacing" textLength="341" x="1193.5" y="206.3399">findAllByBuildingCode(buildingCode)</text><polygon fill="#181818" points="1181.875,251.4398,1171.875,255.4398,1181.875,259.4398,1177.875,255.4398" style="stroke:#181818;stroke-width:1.0;"/><line style="stroke:#181818;stroke-width:1.0;stroke-dasharray:2.0,2.0;" x1="1175.875" x2="1550.5" y1="255.4398" y2="255.4398"/><text fill="#000000" font-family="sans-serif" font-size="20" font-weight="bold" lengthAdjust="spacing" textLength="11.625" x="1187.875" y="247.5799">5</text><text fill="#000000" font-family="sans-serif" font-size="20" lengthAdjust="spacing" textLength="54" x="1203.5" y="247.5799">floors</text><path d="M1089.875,270.4398 L1178.375,270.4398 L1178.375,289.6798 L1168.375,299.6798 L1089.875,299.6798 L1089.875,270.4398 " fill="#EEEEEE" style="stroke:#000000;stroke-width:1.5;"/><rect fill="none" height="134.9599" style="stroke:#000000;stroke-width:1.5;" width="896.25" x="1089.875" y="270.4398"/><text fill="#000000" font-family="sans-serif" font-size="20" font-weight="bold" lengthAdjust="spacing" textLength="43.5" x="1104.875" y="292.8198">loop</text><text fill="#000000" font-family="sans-serif" font-size="20" font-weight="bold" lengthAdjust="spacing" textLength="433.875" x="1193.375" y="293.8198">[foreach floor_wiki/sprint-a/us04-180/views]</text><polygon fill="#181818" points="1654.5,341.1598,1664.5,345.1598,1654.5,349.1598,1658.5,345.1598" style="stroke:#181818;stroke-width:1.0;"/><line style="stroke:#181818;stroke-width:1.0;" x1="1170.875" x2="1660.5" y1="345.1598" y2="345.1598"/><text fill="#000000" font-family="sans-serif" font-size="20" font-weight="bold" lengthAdjust="spacing" textLength="11.625" x="1177.875" y="337.2998">6</text><text fill="#000000" font-family="sans-serif" font-size="20" lengthAdjust="spacing" textLength="109" x="1193.5" y="337.2998">toDto(floor)</text><polygon fill="#181818" points="1774.125,382.3997,1784.125,386.3997,1774.125,390.3997,1778.125,386.3997" style="stroke:#181818;stroke-width:1.0;"/><line style="stroke:#181818;stroke-width:1.0;" x1="1671.5" x2="1780.125" y1="386.3997" y2="386.3997"/><text fill="#000000" font-family="sans-serif" font-size="20" font-weight="bold" lengthAdjust="spacing" textLength="11.625" x="1678.5" y="378.5398">7</text><text fill="#000000" font-family="sans-serif" font-size="20" lengthAdjust="spacing" textLength="70" x="1694.125" y="378.5398">create()</text><rect fill="#E2E2F0" height="41.24" rx="2.5" ry="2.5" style="stroke:#181818;stroke-width:0.5;" width="190" x="1786.125" y="353.1598"/><text fill="#000000" font-family="sans-serif" font-size="20" lengthAdjust="spacing" textLength="176" x="1793.125" y="381.5398">:floorDto:IFloorDto</text><polygon fill="#181818" points="793.25,441.6397,783.25,445.6397,793.25,449.6397,789.25,445.6397" style="stroke:#181818;stroke-width:1.0;"/><line style="stroke:#181818;stroke-width:1.0;stroke-dasharray:2.0,2.0;" x1="787.25" x2="1164.875" y1="445.6397" y2="445.6397"/><text fill="#000000" font-family="sans-serif" font-size="20" font-weight="bold" lengthAdjust="spacing" textLength="11.625" x="799.25" y="437.7797">8</text><text fill="#000000" font-family="sans-serif" font-size="20" lengthAdjust="spacing" textLength="181" x="814.875" y="437.7797">success(floorsDTO)</text><polygon fill="#181818" points="404.625,482.8797,394.625,486.8797,404.625,490.8797,400.625,486.8797" style="stroke:#181818;stroke-width:1.0;"/><line style="stroke:#181818;stroke-width:1.0;stroke-dasharray:2.0,2.0;" x1="398.625" x2="776.25" y1="486.8797" y2="486.8797"/><text fill="#000000" font-family="sans-serif" font-size="20" font-weight="bold" lengthAdjust="spacing" textLength="11.625" x="410.625" y="479.0197">9</text><text fill="#000000" font-family="sans-serif" font-size="20" lengthAdjust="spacing" textLength="181" x="426.25" y="479.0197">success(floorsDTO)</text><polygon fill="#181818" points="11,524.1197,1,528.1197,11,532.1197,7,528.1197" style="stroke:#181818;stroke-width:1.0;"/><line style="stroke:#181818;stroke-width:1.0;stroke-dasharray:2.0,2.0;" x1="5" x2="382.625" y1="528.1197" y2="528.1197"/><text fill="#000000" font-family="sans-serif" font-size="20" font-weight="bold" lengthAdjust="spacing" textLength="23.25" x="17" y="520.2597">10</text><text fill="#000000" font-family="sans-serif" font-size="20" lengthAdjust="spacing" textLength="179" x="44.25" y="520.2597">200 OK (floorsDTO)</text><!--SRC=[bPBVIyCm4CVVyrU4FMs3qZfya2AAsvmCbO7EPycIT8PrIKdI3HN_Tw-_hp85-tIvV3_VkzpLxPJEc6NxrF2T55J8XEMfNnZjdzM7f9E8iDmRdUytqX9GUiLLnhIdrkHUKkRe85wanjYduZpeIJYuM9EcqYBTh4tsnKxQW-BOyRdAz6NJb-N3l19jSfKAfRVnj0xwogJmUBKoCxXBEFPbUvQX-qUMdN8HlZOfZtDlukMYZWQ4N9lWgfv7JEzkrpHiMdFXPnFEZ91VOSaxmhXN1mRwaY8L2oPeOZ7TId-JfcKTjqgQHmwnuQXpwb22NC2p6Un_3MkED3nOeP76D55QWDtqVOhutymwaY2JeDTUFHiXJr4GPJGn5YxVwlnHxLJeCgkq3rYOk-WyEBk8meEIHqSeVAZpOiinzGOMDYpfKQbeAy5zcIXqxKDXw-CnO1ogUZci4DHU0KajkWdztA3BEPVELHNTVBqQuTSr0yRhGZ_Itp1QzsKGjD0aYkZgdcBe6m00]--></g></svg>