<?xml version="1.0" encoding="UTF-8" standalone="no"?><svg xmlns="http://www.w3.org/2000/svg" xmlns:xlink="http://www.w3.org/1999/xlink" contentStyleType="text/css" height="1045px" preserveAspectRatio="none" style="width:2351px;height:1045px;background:#FFFFFF;" version="1.1" viewBox="0 0 2351 1045" width="2351px" zoomAndPan="magnify"><defs/><g><rect fill="#FFFFFF" height="890.3195" style="stroke:#181818;stroke-width:1.0;" width="10" x="298.625" y="90.4799"/><rect fill="#FFFFFF" height="807.8396" style="stroke:#181818;stroke-width:1.0;" width="10" x="710.25" y="131.7199"/><rect fill="#FFFFFF" height="725.3596" style="stroke:#181818;stroke-width:1.0;" width="10" x="993.875" y="172.9599"/><rect fill="#FFFFFF" height="30" style="stroke:#181818;stroke-width:1.0;" width="10" x="1387.5" y="531.8797"/><rect fill="#FFFFFF" height="30" style="stroke:#181818;stroke-width:1.0;" width="10" x="1546.5" y="214.1999"/><rect fill="#FFFFFF" height="30" style="stroke:#181818;stroke-width:1.0;" width="10" x="1546.5" y="733.5996"/><rect fill="#FFFFFF" height="30" style="stroke:#181818;stroke-width:1.0;" width="10" x="1684" y="460.6397"/><rect fill="#FFFFFF" height="41.24" style="stroke:#181818;stroke-width:1.0;" width="10" x="1818" y="804.8396"/><rect fill="#FFFFFF" height="30" style="stroke:#181818;stroke-width:1.0;" width="10" x="1980.5" y="662.3596"/><rect fill="none" height="183.9599" style="stroke:#000000;stroke-width:1.5;" width="846.625" x="908.875" y="385.9198"/><line style="stroke:#181818;stroke-width:0.5;stroke-dasharray:5.0,5.0;" x1="303.625" x2="303.625" y1="47.24" y2="998.7995"/><line style="stroke:#181818;stroke-width:0.5;stroke-dasharray:5.0,5.0;" x1="714.75" x2="714.75" y1="47.24" y2="998.7995"/><line style="stroke:#181818;stroke-width:0.5;stroke-dasharray:5.0,5.0;" x1="998.875" x2="998.875" y1="47.24" y2="998.7995"/><line style="stroke:#181818;stroke-width:0.5;stroke-dasharray:5.0,5.0;" x1="1217.5" x2="1217.5" y1="612.9997" y2="998.7995"/><line style="stroke:#181818;stroke-width:0.5;stroke-dasharray:5.0,5.0;" x1="1392.5" x2="1392.5" y1="288.3199" y2="998.7995"/><line style="stroke:#181818;stroke-width:0.5;stroke-dasharray:5.0,5.0;" x1="1551.5" x2="1551.5" y1="47.24" y2="998.7995"/><line style="stroke:#181818;stroke-width:0.5;stroke-dasharray:5.0,5.0;" x1="1688.5" x2="1688.5" y1="47.24" y2="998.7995"/><line style="stroke:#181818;stroke-width:0.5;stroke-dasharray:5.0,5.0;" x1="1822.5" x2="1822.5" y1="47.24" y2="998.7995"/><line style="stroke:#181818;stroke-width:0.5;stroke-dasharray:5.0,5.0;" x1="1985.5" x2="1985.5" y1="47.24" y2="998.7995"/><line style="stroke:#181818;stroke-width:0.5;stroke-dasharray:5.0,5.0;" x1="2212.5" x2="2212.5" y1="848.9596" y2="998.7995"/><rect fill="#E2E2F0" height="41.24" rx="2.5" ry="2.5" style="stroke:#181818;stroke-width:0.5;" width="148" x="229.625" y="5"/><text fill="#000000" font-family="sans-serif" font-size="20" lengthAdjust="spacing" textLength="134" x="236.625" y="33.38">:ElevatorRoute</text><rect fill="#E2E2F0" height="41.24" rx="2.5" ry="2.5" style="stroke:#181818;stroke-width:0.5;" width="148" x="229.625" y="997.7995"/><text fill="#000000" font-family="sans-serif" font-size="20" lengthAdjust="spacing" textLength="134" x="236.625" y="1026.1795">:ElevatorRoute</text><rect fill="#E2E2F0" height="41.24" rx="2.5" ry="2.5" style="stroke:#181818;stroke-width:0.5;" width="187" x="621.75" y="5"/><text fill="#000000" font-family="sans-serif" font-size="20" lengthAdjust="spacing" textLength="173" x="628.75" y="33.38">:ElevatorController</text><rect fill="#E2E2F0" height="41.24" rx="2.5" ry="2.5" style="stroke:#181818;stroke-width:0.5;" width="187" x="621.75" y="997.7995"/><text fill="#000000" font-family="sans-serif" font-size="20" lengthAdjust="spacing" textLength="173" x="628.75" y="1026.1795">:ElevatorController</text><rect fill="#E2E2F0" height="41.24" rx="2.5" ry="2.5" style="stroke:#181818;stroke-width:0.5;" width="160" x="918.875" y="5"/><text fill="#000000" font-family="sans-serif" font-size="20" lengthAdjust="spacing" textLength="146" x="925.875" y="33.38">:ElevatorService</text><rect fill="#E2E2F0" height="41.24" rx="2.5" ry="2.5" style="stroke:#181818;stroke-width:0.5;" width="160" x="918.875" y="997.7995"/><text fill="#000000" font-family="sans-serif" font-size="20" lengthAdjust="spacing" textLength="146" x="925.875" y="1026.1795">:ElevatorService</text><rect fill="#E2E2F0" height="41.24" rx="2.5" ry="2.5" style="stroke:#181818;stroke-width:0.5;" width="174" x="1130.5" y="997.7995"/><text fill="#000000" font-family="sans-serif" font-size="20" lengthAdjust="spacing" textLength="160" x="1137.5" y="1026.1795">:elevator:Elevator</text><rect fill="#E2E2F0" height="41.24" rx="2.5" ry="2.5" style="stroke:#181818;stroke-width:0.5;" width="156" x="1314.5" y="997.7995"/><text fill="#000000" font-family="sans-serif" font-size="20" lengthAdjust="spacing" textLength="142" x="1321.5" y="1026.1795">floorList:Floor[]</text><rect fill="#E2E2F0" height="41.24" rx="2.5" ry="2.5" style="stroke:#181818;stroke-width:0.5;" width="142" x="1480.5" y="5"/><text fill="#000000" font-family="sans-serif" font-size="20" lengthAdjust="spacing" textLength="128" x="1487.5" y="33.38">:BuildingRepo</text><rect fill="#E2E2F0" height="41.24" rx="2.5" ry="2.5" style="stroke:#181818;stroke-width:0.5;" width="142" x="1480.5" y="997.7995"/><text fill="#000000" font-family="sans-serif" font-size="20" lengthAdjust="spacing" textLength="128" x="1487.5" y="1026.1795">:BuildingRepo</text><rect fill="#E2E2F0" height="41.24" rx="2.5" ry="2.5" style="stroke:#181818;stroke-width:0.5;" width="113" x="1632.5" y="5"/><text fill="#000000" font-family="sans-serif" font-size="20" lengthAdjust="spacing" textLength="99" x="1639.5" y="33.38">:FloorRepo</text><rect fill="#E2E2F0" height="41.24" rx="2.5" ry="2.5" style="stroke:#181818;stroke-width:0.5;" width="113" x="1632.5" y="997.7995"/><text fill="#000000" font-family="sans-serif" font-size="20" lengthAdjust="spacing" textLength="99" x="1639.5" y="1026.1795">:FloorRepo</text><rect fill="#E2E2F0" height="41.24" rx="2.5" ry="2.5" style="stroke:#181818;stroke-width:0.5;" width="135" x="1755.5" y="5"/><text fill="#000000" font-family="sans-serif" font-size="20" lengthAdjust="spacing" textLength="121" x="1762.5" y="33.38">:ElevatorMap</text><rect fill="#E2E2F0" height="41.24" rx="2.5" ry="2.5" style="stroke:#181818;stroke-width:0.5;" width="135" x="1755.5" y="997.7995"/><text fill="#000000" font-family="sans-serif" font-size="20" lengthAdjust="spacing" textLength="121" x="1762.5" y="1026.1795">:ElevatorMap</text><rect fill="#E2E2F0" height="41.24" rx="2.5" ry="2.5" style="stroke:#181818;stroke-width:0.5;" width="170" x="1900.5" y="5"/><text fill="#000000" font-family="sans-serif" font-size="20" lengthAdjust="spacing" textLength="156" x="1907.5" y="33.38">building:Building</text><rect fill="#E2E2F0" height="41.24" rx="2.5" ry="2.5" style="stroke:#181818;stroke-width:0.5;" width="170" x="1900.5" y="997.7995"/><text fill="#000000" font-family="sans-serif" font-size="20" lengthAdjust="spacing" textLength="156" x="1907.5" y="1026.1795">building:Building</text><rect fill="#E2E2F0" height="41.24" rx="2.5" ry="2.5" style="stroke:#181818;stroke-width:0.5;" width="265" x="2080.5" y="997.7995"/><text fill="#000000" font-family="sans-serif" font-size="20" lengthAdjust="spacing" textLength="251" x="2087.5" y="1026.1795">:elevatorDTO:IElevatorDTO</text><rect fill="#FFFFFF" height="890.3195" style="stroke:#181818;stroke-width:1.0;" width="10" x="298.625" y="90.4799"/><rect fill="#FFFFFF" height="807.8396" style="stroke:#181818;stroke-width:1.0;" width="10" x="710.25" y="131.7199"/><rect fill="#FFFFFF" height="725.3596" style="stroke:#181818;stroke-width:1.0;" width="10" x="993.875" y="172.9599"/><rect fill="#FFFFFF" height="30" style="stroke:#181818;stroke-width:1.0;" width="10" x="1387.5" y="531.8797"/><rect fill="#FFFFFF" height="30" style="stroke:#181818;stroke-width:1.0;" width="10" x="1546.5" y="214.1999"/><rect fill="#FFFFFF" height="30" style="stroke:#181818;stroke-width:1.0;" width="10" x="1546.5" y="733.5996"/><rect fill="#FFFFFF" height="30" style="stroke:#181818;stroke-width:1.0;" width="10" x="1684" y="460.6397"/><rect fill="#FFFFFF" height="41.24" style="stroke:#181818;stroke-width:1.0;" width="10" x="1818" y="804.8396"/><rect fill="#FFFFFF" height="30" style="stroke:#181818;stroke-width:1.0;" width="10" x="1980.5" y="662.3596"/><ellipse cx="4.5" cy="89.7299" fill="none" rx="4" ry="4" style="stroke:#181818;stroke-width:1.5;"/><polygon fill="#181818" points="286.625,86.4799,296.625,90.4799,286.625,94.4799,290.625,90.4799" style="stroke:#181818;stroke-width:1.0;"/><line style="stroke:#181818;stroke-width:1.0;" x1="9" x2="292.625" y1="90.4799" y2="90.4799"/><text fill="#000000" font-family="sans-serif" font-size="20" font-weight="bold" lengthAdjust="spacing" textLength="11.625" x="12" y="82.62">1</text><text fill="#000000" font-family="sans-serif" font-size="20" lengthAdjust="spacing" textLength="256" x="27.625" y="82.62">PUT /buildings/:id/elevators</text><polygon fill="#181818" points="698.25,127.7199,708.25,131.7199,698.25,135.7199,702.25,131.7199" style="stroke:#181818;stroke-width:1.0;"/><line style="stroke:#181818;stroke-width:1.0;" x1="308.625" x2="704.25" y1="131.7199" y2="131.7199"/><text fill="#000000" font-family="sans-serif" font-size="20" font-weight="bold" lengthAdjust="spacing" textLength="11.625" x="315.625" y="123.8599">2</text><text fill="#000000" font-family="sans-serif" font-size="20" lengthAdjust="spacing" textLength="367" x="331.25" y="123.8599">editElevator(elevatorDTO,buildingCode)</text><polygon fill="#181818" points="981.875,168.9599,991.875,172.9599,981.875,176.9599,985.875,172.9599" style="stroke:#181818;stroke-width:1.0;"/><line style="stroke:#181818;stroke-width:1.0;" x1="720.25" x2="987.875" y1="172.9599" y2="172.9599"/><text fill="#000000" font-family="sans-serif" font-size="20" font-weight="bold" lengthAdjust="spacing" textLength="11.625" x="727.25" y="165.0999">3</text><text fill="#000000" font-family="sans-serif" font-size="20" lengthAdjust="spacing" textLength="239" x="742.875" y="165.0999">editElevator(elevatorDTO)</text><polygon fill="#181818" points="1534.5,210.1999,1544.5,214.1999,1534.5,218.1999,1538.5,214.1999" style="stroke:#181818;stroke-width:1.0;"/><line style="stroke:#181818;stroke-width:1.0;" x1="1003.875" x2="1540.5" y1="214.1999" y2="214.1999"/><text fill="#000000" font-family="sans-serif" font-size="20" font-weight="bold" lengthAdjust="spacing" textLength="11.625" x="1010.875" y="206.3399">4</text><text fill="#000000" font-family="sans-serif" font-size="20" lengthAdjust="spacing" textLength="409" x="1026.5" y="206.3399">findByDomainId(elevatorDTO.buildingCode)</text><polygon fill="#181818" points="1302.5,281.4398,1312.5,285.4398,1302.5,289.4398,1306.5,285.4398" style="stroke:#181818;stroke-width:1.0;"/><line style="stroke:#181818;stroke-width:1.0;" x1="1003.875" x2="1308.5" y1="285.4398" y2="285.4398"/><text fill="#000000" font-family="sans-serif" font-size="20" font-weight="bold" lengthAdjust="spacing" textLength="11.625" x="1010.875" y="277.5799">5</text><text fill="#000000" font-family="sans-serif" font-size="20" lengthAdjust="spacing" textLength="70" x="1026.5" y="277.5799">create()</text><rect fill="#E2E2F0" height="41.24" rx="2.5" ry="2.5" style="stroke:#181818;stroke-width:0.5;" width="156" x="1314.5" y="252.1999"/><text fill="#000000" font-family="sans-serif" font-size="20" lengthAdjust="spacing" textLength="142" x="1321.5" y="280.5799">floorList:Floor[]</text><path d="M1397,309.4398 L1397,373.4398 L1718,373.4398 L1718,319.4398 L1708,309.4398 L1397,309.4398 " fill="#FEFFDD" style="stroke:#181818;stroke-width:0.5;"/><path d="M1708,309.4398 L1708,319.4398 L1718,319.4398 L1708,309.4398 " fill="#FEFFDD" style="stroke:#181818;stroke-width:0.5;"/><text fill="#000000" font-family="sans-serif" font-size="20" lengthAdjust="spacing" textLength="295" x="1403" y="335.8198">we must check if the floorIds all</text><text fill="#000000" font-family="sans-serif" font-size="20" lengthAdjust="spacing" textLength="259" x="1403" y="363.0598">belong to the same building</text><path d="M908.875,385.9198 L997.375,385.9198 L997.375,405.1598 L987.375,415.1598 L908.875,415.1598 L908.875,385.9198 " fill="#EEEEEE" style="stroke:#000000;stroke-width:1.5;"/><rect fill="none" height="183.9599" style="stroke:#000000;stroke-width:1.5;" width="846.625" x="908.875" y="385.9198"/><text fill="#000000" font-family="sans-serif" font-size="20" font-weight="bold" lengthAdjust="spacing" textLength="43.5" x="923.875" y="408.2998">loop</text><text fill="#000000" font-family="sans-serif" font-size="20" font-weight="bold" lengthAdjust="spacing" textLength="403.75" x="1012.375" y="409.2998">[for each floorId in elevatorDTO.floorIds]</text><polygon fill="#181818" points="1672,456.6397,1682,460.6397,1672,464.6397,1676,460.6397" style="stroke:#181818;stroke-width:1.0;"/><line style="stroke:#181818;stroke-width:1.0;" x1="1003.875" x2="1678" y1="460.6397" y2="460.6397"/><text fill="#000000" font-family="sans-serif" font-size="20" font-weight="bold" lengthAdjust="spacing" textLength="11.625" x="1010.875" y="452.7797">6</text><text fill="#000000" font-family="sans-serif" font-size="20" lengthAdjust="spacing" textLength="228" x="1026.5" y="452.7797">floor=findWithId(floorId)</text><polygon fill="#181818" points="1375.5,527.8797,1385.5,531.8797,1375.5,535.8797,1379.5,531.8797" style="stroke:#181818;stroke-width:1.0;"/><line style="stroke:#181818;stroke-width:1.0;" x1="1003.875" x2="1381.5" y1="531.8797" y2="531.8797"/><text fill="#000000" font-family="sans-serif" font-size="20" font-weight="bold" lengthAdjust="spacing" textLength="11.625" x="1010.875" y="524.0197">7</text><text fill="#000000" font-family="sans-serif" font-size="20" lengthAdjust="spacing" textLength="91" x="1026.5" y="524.0197">add(floor)</text><polygon fill="#181818" points="1118.5,606.1197,1128.5,610.1197,1118.5,614.1197,1122.5,610.1197" style="stroke:#181818;stroke-width:1.0;"/><line style="stroke:#181818;stroke-width:1.0;" x1="1003.875" x2="1124.5" y1="610.1197" y2="610.1197"/><text fill="#000000" font-family="sans-serif" font-size="20" font-weight="bold" lengthAdjust="spacing" textLength="11.625" x="1010.875" y="602.2597">8</text><text fill="#000000" font-family="sans-serif" font-size="20" lengthAdjust="spacing" textLength="87" x="1026.5" y="602.2597">create(id)</text><rect fill="#E2E2F0" height="41.24" rx="2.5" ry="2.5" style="stroke:#181818;stroke-width:0.5;" width="174" x="1130.5" y="576.8797"/><text fill="#000000" font-family="sans-serif" font-size="20" lengthAdjust="spacing" textLength="160" x="1137.5" y="605.2597">:elevator:Elevator</text><polygon fill="#181818" points="1968.5,658.3596,1978.5,662.3596,1968.5,666.3596,1972.5,662.3596" style="stroke:#181818;stroke-width:1.0;"/><line style="stroke:#181818;stroke-width:1.0;" x1="1003.875" x2="1974.5" y1="662.3596" y2="662.3596"/><text fill="#000000" font-family="sans-serif" font-size="20" font-weight="bold" lengthAdjust="spacing" textLength="11.625" x="1010.875" y="654.4997">9</text><text fill="#000000" font-family="sans-serif" font-size="20" lengthAdjust="spacing" textLength="280" x="1026.5" y="654.4997">building.elevator=newElevator</text><polygon fill="#181818" points="1534.5,729.5996,1544.5,733.5996,1534.5,737.5996,1538.5,733.5996" style="stroke:#181818;stroke-width:1.0;"/><line style="stroke:#181818;stroke-width:1.0;" x1="1003.875" x2="1540.5" y1="733.5996" y2="733.5996"/><text fill="#000000" font-family="sans-serif" font-size="20" font-weight="bold" lengthAdjust="spacing" textLength="23.25" x="1010.875" y="725.7396">10</text><text fill="#000000" font-family="sans-serif" font-size="20" lengthAdjust="spacing" textLength="129" x="1038.125" y="725.7396">save(building)</text><polygon fill="#181818" points="1806,800.8396,1816,804.8396,1806,808.8396,1810,804.8396" style="stroke:#181818;stroke-width:1.0;"/><line style="stroke:#181818;stroke-width:1.0;" x1="1003.875" x2="1812" y1="804.8396" y2="804.8396"/><text fill="#000000" font-family="sans-serif" font-size="20" font-weight="bold" lengthAdjust="spacing" textLength="23.25" x="1010.875" y="796.9796">11</text><text fill="#000000" font-family="sans-serif" font-size="20" lengthAdjust="spacing" textLength="140" x="1038.125" y="796.9796">toDto(elevator)</text><polygon fill="#181818" points="2068.5,842.0796,2078.5,846.0796,2068.5,850.0796,2072.5,846.0796" style="stroke:#181818;stroke-width:1.0;"/><line style="stroke:#181818;stroke-width:1.0;" x1="1823" x2="2074.5" y1="846.0796" y2="846.0796"/><text fill="#000000" font-family="sans-serif" font-size="20" font-weight="bold" lengthAdjust="spacing" textLength="23.25" x="1830" y="838.2196">12</text><text fill="#000000" font-family="sans-serif" font-size="20" lengthAdjust="spacing" textLength="70" x="1857.25" y="838.2196">create()</text><rect fill="#E2E2F0" height="41.24" rx="2.5" ry="2.5" style="stroke:#181818;stroke-width:0.5;" width="265" x="2080.5" y="812.8396"/><text fill="#000000" font-family="sans-serif" font-size="20" lengthAdjust="spacing" textLength="251" x="2087.5" y="841.2196">:elevatorDTO:IElevatorDTO</text><polygon fill="#181818" points="731.25,894.3195,721.25,898.3195,731.25,902.3195,727.25,898.3195" style="stroke:#181818;stroke-width:1.0;"/><line style="stroke:#181818;stroke-width:1.0;stroke-dasharray:2.0,2.0;" x1="725.25" x2="997.875" y1="898.3195" y2="898.3195"/><text fill="#000000" font-family="sans-serif" font-size="20" font-weight="bold" lengthAdjust="spacing" textLength="23.25" x="737.25" y="890.4596">13</text><text fill="#000000" font-family="sans-serif" font-size="20" lengthAdjust="spacing" textLength="192" x="764.5" y="890.4596">sucess(elevatorDTO)</text><polygon fill="#181818" points="319.625,935.5595,309.625,939.5595,319.625,943.5595,315.625,939.5595" style="stroke:#181818;stroke-width:1.0;"/><line style="stroke:#181818;stroke-width:1.0;stroke-dasharray:2.0,2.0;" x1="313.625" x2="714.25" y1="939.5595" y2="939.5595"/><text fill="#000000" font-family="sans-serif" font-size="20" font-weight="bold" lengthAdjust="spacing" textLength="23.25" x="325.625" y="931.6995">14</text><text fill="#000000" font-family="sans-serif" font-size="20" lengthAdjust="spacing" textLength="192" x="352.875" y="931.6995">sucess(elevatorDTO)</text><polygon fill="#181818" points="11,976.7995,1,980.7995,11,984.7995,7,980.7995" style="stroke:#181818;stroke-width:1.0;"/><line style="stroke:#181818;stroke-width:1.0;stroke-dasharray:2.0,2.0;" x1="5" x2="302.625" y1="980.7995" y2="980.7995"/><text fill="#000000" font-family="sans-serif" font-size="20" font-weight="bold" lengthAdjust="spacing" textLength="23.25" x="17" y="972.9395">15</text><text fill="#000000" font-family="sans-serif" font-size="20" lengthAdjust="spacing" textLength="111" x="44.25" y="972.9395">201 Created</text><!--SRC=[ZPFBZjem58RtVeeZLZ0gmtIMKQTLWI0XCG9nQHTL5oO-0OiGezXXr3vzZvqus5IZTfVOt__xNFL9bXTUyNEXiXCA49ZpkZ0pLPgD_8tm_CHuRLHPd_TOCIADpEI5bmRMozqs1QwXbwG5NhbHrLhL1diHDTck5p4q8UjA5GLMCRbPVul13LPNcTtvfOkqnR35EZu6PulvPkl8l52gMaXjafdz-l4p1iVhTBLiBCUrB8Gi3skyg3kt6-HC_YPUlwxYy5_vvUwXtNmnTSo-VQTxC0QdssMS8Xqay_JsqsFiYnf-RbkGm6gtXP4trQD4Yf6NQiOp8-aJ6vgnHaHgrve4K4ZZlVl1Yn-yuKG97Dnih8mvBNdOfhrl4QW8P1OcJLFm179PYl6lgJfpMSv5g7jyvscdP0Bl3bfVr_671tBEAgJR_e2LYg1A7eu6LDu03E0DuLnh0zaHinF87CmHmKt9N6ZWHG44xR5GvG6CShUQdn5yL0nB0TQQaUO2kQg0GZfw2v0bXCbuPpBraVeAs9iNMuVlqXof1Yqw8BJBqS5q4AJjZyB4oOwBrY7Mjrc7UdT4MVZIsQqAAoSf1DyjDxL9b_oZJ-sbn3VVzA155ezQv0xkMg_v5VlUyRyRR5SieOvCZUgc9H3JDRC8aLJsU102IuivmziAw3f3hUF93HHsTfk13tRk7ngt9P-6muv_Vle84nUE2BbcAVy0]--></g></svg>