<?xml version="1.0" encoding="UTF-8" standalone="no"?><svg xmlns="http://www.w3.org/2000/svg" xmlns:xlink="http://www.w3.org/1999/xlink" contentStyleType="text/css" height="961px" preserveAspectRatio="none" style="width:2545px;height:961px;background:#FFFFFF;" version="1.1" viewBox="0 0 2545 961" width="2545px" zoomAndPan="magnify"><defs/><g><rect fill="#FFFFFF" height="819.0625" style="stroke:#181818;stroke-width:1.0;" width="10" x="321" y="82.5625"/><rect fill="#FFFFFF" height="744.5" style="stroke:#181818;stroke-width:1.0;" width="10" x="769" y="119.8438"/><rect fill="#FFFFFF" height="669.9375" style="stroke:#181818;stroke-width:1.0;" width="10" x="1077" y="157.125"/><rect fill="#FFFFFF" height="30" style="stroke:#181818;stroke-width:1.0;" width="10" x="1506.5" y="484.375"/><rect fill="#FFFFFF" height="30" style="stroke:#181818;stroke-width:1.0;" width="10" x="1678" y="194.4063"/><rect fill="#FFFFFF" height="30" style="stroke:#181818;stroke-width:1.0;" width="10" x="1678" y="674.2188"/><rect fill="#FFFFFF" height="30" style="stroke:#181818;stroke-width:1.0;" width="10" x="1827" y="417.0938"/><rect fill="#FFFFFF" height="37.2813" style="stroke:#181818;stroke-width:1.0;" width="10" x="1970.5" y="741.5"/><rect fill="#FFFFFF" height="30" style="stroke:#181818;stroke-width:1.0;" width="10" x="2147" y="606.9375"/><rect fill="none" height="168.125" style="stroke:#000000;stroke-width:1.5;" width="919" x="984" y="354.25"/><line style="stroke:#181818;stroke-width:0.5;stroke-dasharray:5.0,5.0;" x1="326" x2="326" y1="43.2813" y2="919.625"/><line style="stroke:#181818;stroke-width:0.5;stroke-dasharray:5.0,5.0;" x1="774" x2="774" y1="43.2813" y2="919.625"/><line style="stroke:#181818;stroke-width:0.5;stroke-dasharray:5.0,5.0;" x1="1082" x2="1082" y1="43.2813" y2="919.625"/><line style="stroke:#181818;stroke-width:0.5;stroke-dasharray:5.0,5.0;" x1="1322" x2="1322" y1="563.5156" y2="919.625"/><line style="stroke:#181818;stroke-width:0.5;stroke-dasharray:5.0,5.0;" x1="1511" x2="1511" y1="266.5469" y2="919.625"/><line style="stroke:#181818;stroke-width:0.5;stroke-dasharray:5.0,5.0;" x1="1683" x2="1683" y1="43.2813" y2="919.625"/><line style="stroke:#181818;stroke-width:0.5;stroke-dasharray:5.0,5.0;" x1="1832" x2="1832" y1="43.2813" y2="919.625"/><line style="stroke:#181818;stroke-width:0.5;stroke-dasharray:5.0,5.0;" x1="1975" x2="1975" y1="43.2813" y2="919.625"/><line style="stroke:#181818;stroke-width:0.5;stroke-dasharray:5.0,5.0;" x1="2152" x2="2152" y1="43.2813" y2="919.625"/><line style="stroke:#181818;stroke-width:0.5;stroke-dasharray:5.0,5.0;" x1="2397" x2="2397" y1="783.6406" y2="919.625"/><rect fill="#E2E2F0" height="37.2813" rx="2.5" ry="2.5" style="stroke:#181818;stroke-width:0.5;" width="162" x="245" y="5"/><text fill="#000000" font-family="sans-serif" font-size="20" lengthAdjust="spacing" textLength="148" x="252" y="30.5645">:ElevatorRoute</text><rect fill="#E2E2F0" height="37.2813" rx="2.5" ry="2.5" style="stroke:#181818;stroke-width:0.5;" width="162" x="245" y="918.625"/><text fill="#000000" font-family="sans-serif" font-size="20" lengthAdjust="spacing" textLength="148" x="252" y="944.1895">:ElevatorRoute</text><rect fill="#E2E2F0" height="37.2813" rx="2.5" ry="2.5" style="stroke:#181818;stroke-width:0.5;" width="202" x="673" y="5"/><text fill="#000000" font-family="sans-serif" font-size="20" lengthAdjust="spacing" textLength="188" x="680" y="30.5645">:ElevatorController</text><rect fill="#E2E2F0" height="37.2813" rx="2.5" ry="2.5" style="stroke:#181818;stroke-width:0.5;" width="202" x="673" y="918.625"/><text fill="#000000" font-family="sans-serif" font-size="20" lengthAdjust="spacing" textLength="188" x="680" y="944.1895">:ElevatorController</text><rect fill="#E2E2F0" height="37.2813" rx="2.5" ry="2.5" style="stroke:#181818;stroke-width:0.5;" width="176" x="994" y="5"/><text fill="#000000" font-family="sans-serif" font-size="20" lengthAdjust="spacing" textLength="162" x="1001" y="30.5645">:ElevatorService</text><rect fill="#E2E2F0" height="37.2813" rx="2.5" ry="2.5" style="stroke:#181818;stroke-width:0.5;" width="176" x="994" y="918.625"/><text fill="#000000" font-family="sans-serif" font-size="20" lengthAdjust="spacing" textLength="162" x="1001" y="944.1895">:ElevatorService</text><rect fill="#E2E2F0" height="37.2813" rx="2.5" ry="2.5" style="stroke:#181818;stroke-width:0.5;" width="191" x="1227" y="918.625"/><text fill="#000000" font-family="sans-serif" font-size="20" lengthAdjust="spacing" textLength="177" x="1234" y="944.1895">:elevator:Elevator</text><rect fill="#E2E2F0" height="37.2813" rx="2.5" ry="2.5" style="stroke:#181818;stroke-width:0.5;" width="167" x="1428" y="918.625"/><text fill="#000000" font-family="sans-serif" font-size="20" lengthAdjust="spacing" textLength="153" x="1435" y="944.1895">floorList:Floor[]</text><rect fill="#E2E2F0" height="37.2813" rx="2.5" ry="2.5" style="stroke:#181818;stroke-width:0.5;" width="156" x="1605" y="5"/><text fill="#000000" font-family="sans-serif" font-size="20" lengthAdjust="spacing" textLength="142" x="1612" y="30.5645">:BuildingRepo</text><rect fill="#E2E2F0" height="37.2813" rx="2.5" ry="2.5" style="stroke:#181818;stroke-width:0.5;" width="156" x="1605" y="918.625"/><text fill="#000000" font-family="sans-serif" font-size="20" lengthAdjust="spacing" textLength="142" x="1612" y="944.1895">:BuildingRepo</text><rect fill="#E2E2F0" height="37.2813" rx="2.5" ry="2.5" style="stroke:#181818;stroke-width:0.5;" width="122" x="1771" y="5"/><text fill="#000000" font-family="sans-serif" font-size="20" lengthAdjust="spacing" textLength="108" x="1778" y="30.5645">:FloorRepo</text><rect fill="#E2E2F0" height="37.2813" rx="2.5" ry="2.5" style="stroke:#181818;stroke-width:0.5;" width="122" x="1771" y="918.625"/><text fill="#000000" font-family="sans-serif" font-size="20" lengthAdjust="spacing" textLength="108" x="1778" y="944.1895">:FloorRepo</text><rect fill="#E2E2F0" height="37.2813" rx="2.5" ry="2.5" style="stroke:#181818;stroke-width:0.5;" width="145" x="1903" y="5"/><text fill="#000000" font-family="sans-serif" font-size="20" lengthAdjust="spacing" textLength="131" x="1910" y="30.5645">:ElevatorMap</text><rect fill="#E2E2F0" height="37.2813" rx="2.5" ry="2.5" style="stroke:#181818;stroke-width:0.5;" width="145" x="1903" y="918.625"/><text fill="#000000" font-family="sans-serif" font-size="20" lengthAdjust="spacing" textLength="131" x="1910" y="944.1895">:ElevatorMap</text><rect fill="#E2E2F0" height="37.2813" rx="2.5" ry="2.5" style="stroke:#181818;stroke-width:0.5;" width="188" x="2058" y="5"/><text fill="#000000" font-family="sans-serif" font-size="20" lengthAdjust="spacing" textLength="174" x="2065" y="30.5645">building:Building</text><rect fill="#E2E2F0" height="37.2813" rx="2.5" ry="2.5" style="stroke:#181818;stroke-width:0.5;" width="188" x="2058" y="918.625"/><text fill="#000000" font-family="sans-serif" font-size="20" lengthAdjust="spacing" textLength="174" x="2065" y="944.1895">building:Building</text><rect fill="#E2E2F0" height="37.2813" rx="2.5" ry="2.5" style="stroke:#181818;stroke-width:0.5;" width="283" x="2256" y="918.625"/><text fill="#000000" font-family="sans-serif" font-size="20" lengthAdjust="spacing" textLength="269" x="2263" y="944.1895">:elevatorDTO:IElevatorDTO</text><rect fill="#FFFFFF" height="819.0625" style="stroke:#181818;stroke-width:1.0;" width="10" x="321" y="82.5625"/><rect fill="#FFFFFF" height="744.5" style="stroke:#181818;stroke-width:1.0;" width="10" x="769" y="119.8438"/><rect fill="#FFFFFF" height="669.9375" style="stroke:#181818;stroke-width:1.0;" width="10" x="1077" y="157.125"/><rect fill="#FFFFFF" height="30" style="stroke:#181818;stroke-width:1.0;" width="10" x="1506.5" y="484.375"/><rect fill="#FFFFFF" height="30" style="stroke:#181818;stroke-width:1.0;" width="10" x="1678" y="194.4063"/><rect fill="#FFFFFF" height="30" style="stroke:#181818;stroke-width:1.0;" width="10" x="1678" y="674.2188"/><rect fill="#FFFFFF" height="30" style="stroke:#181818;stroke-width:1.0;" width="10" x="1827" y="417.0938"/><rect fill="#FFFFFF" height="37.2813" style="stroke:#181818;stroke-width:1.0;" width="10" x="1970.5" y="741.5"/><rect fill="#FFFFFF" height="30" style="stroke:#181818;stroke-width:1.0;" width="10" x="2147" y="606.9375"/><ellipse cx="4.5" cy="81.8125" fill="none" rx="4" ry="4" style="stroke:#181818;stroke-width:1.5;"/><polygon fill="#181818" points="309,78.5625,319,82.5625,309,86.5625,313,82.5625" style="stroke:#181818;stroke-width:1.0;"/><line style="stroke:#181818;stroke-width:1.0;" x1="9" x2="315" y1="82.5625" y2="82.5625"/><text fill="#000000" font-family="sans-serif" font-size="20" font-weight="bold" lengthAdjust="spacing" textLength="14" x="12" y="75.8457">1</text><text fill="#000000" font-family="sans-serif" font-size="20" lengthAdjust="spacing" textLength="276" x="30" y="75.8457">PUT /buildings/:id/elevators</text><polygon fill="#181818" points="757,115.8438,767,119.8438,757,123.8438,761,119.8438" style="stroke:#181818;stroke-width:1.0;"/><line style="stroke:#181818;stroke-width:1.0;" x1="331" x2="763" y1="119.8438" y2="119.8438"/><text fill="#000000" font-family="sans-serif" font-size="20" font-weight="bold" lengthAdjust="spacing" textLength="14" x="338" y="113.127">2</text><text fill="#000000" font-family="sans-serif" font-size="20" lengthAdjust="spacing" textLength="401" x="356" y="113.127">editElevator(elevatorDTO,buildingCode)</text><polygon fill="#181818" points="1065,153.125,1075,157.125,1065,161.125,1069,157.125" style="stroke:#181818;stroke-width:1.0;"/><line style="stroke:#181818;stroke-width:1.0;" x1="779" x2="1071" y1="157.125" y2="157.125"/><text fill="#000000" font-family="sans-serif" font-size="20" font-weight="bold" lengthAdjust="spacing" textLength="14" x="786" y="150.4082">3</text><text fill="#000000" font-family="sans-serif" font-size="20" lengthAdjust="spacing" textLength="261" x="804" y="150.4082">editElevator(elevatorDTO)</text><polygon fill="#181818" points="1666,190.4063,1676,194.4063,1666,198.4063,1670,194.4063" style="stroke:#181818;stroke-width:1.0;"/><line style="stroke:#181818;stroke-width:1.0;" x1="1087" x2="1672" y1="194.4063" y2="194.4063"/><text fill="#000000" font-family="sans-serif" font-size="20" font-weight="bold" lengthAdjust="spacing" textLength="14" x="1094" y="187.6895">4</text><text fill="#000000" font-family="sans-serif" font-size="20" lengthAdjust="spacing" textLength="441" x="1112" y="187.6895">findByDomainId(elevatorDTO.buildingCode)</text><polygon fill="#181818" points="1416,257.6875,1426,261.6875,1416,265.6875,1420,261.6875" style="stroke:#181818;stroke-width:1.0;"/><line style="stroke:#181818;stroke-width:1.0;" x1="1087" x2="1422" y1="261.6875" y2="261.6875"/><text fill="#000000" font-family="sans-serif" font-size="20" font-weight="bold" lengthAdjust="spacing" textLength="14" x="1094" y="254.9707">5</text><text fill="#000000" font-family="sans-serif" font-size="20" lengthAdjust="spacing" textLength="79" x="1112" y="254.9707">create()</text><rect fill="#E2E2F0" height="37.2813" rx="2.5" ry="2.5" style="stroke:#181818;stroke-width:0.5;" width="167" x="1428" y="232.4063"/><text fill="#000000" font-family="sans-serif" font-size="20" lengthAdjust="spacing" textLength="153" x="1435" y="257.9707">floorList:Floor[]</text><path d="M1516,285.6875 L1516,341.6875 L1862,341.6875 L1862,295.6875 L1852,285.6875 L1516,285.6875 " fill="#FEFFDD" style="stroke:#181818;stroke-width:0.5;"/><path d="M1852,285.6875 L1852,295.6875 L1862,295.6875 L1852,285.6875 " fill="#FEFFDD" style="stroke:#181818;stroke-width:0.5;"/><text fill="#000000" font-family="sans-serif" font-size="20" lengthAdjust="spacing" textLength="319" x="1522" y="309.252">we must check if the floorIds all</text><text fill="#000000" font-family="sans-serif" font-size="20" lengthAdjust="spacing" textLength="283" x="1522" y="332.5332">belong to the same building</text><path d="M984,354.25 L1078,354.25 L1078,369.5313 L1068,379.5313 L984,379.5313 L984,354.25 " fill="#EEEEEE" style="stroke:#000000;stroke-width:1.5;"/><rect fill="none" height="168.125" style="stroke:#000000;stroke-width:1.5;" width="919" x="984" y="354.25"/><text fill="#000000" font-family="sans-serif" font-size="20" font-weight="bold" lengthAdjust="spacing" textLength="49" x="999" y="373.8145">loop</text><text fill="#000000" font-family="sans-serif" font-size="20" font-weight="bold" lengthAdjust="spacing" textLength="468" x="1093" y="374.8145">[for each floorId in elevatorDTO.floorIds]</text><polygon fill="#181818" points="1815,413.0938,1825,417.0938,1815,421.0938,1819,417.0938" style="stroke:#181818;stroke-width:1.0;"/><line style="stroke:#181818;stroke-width:1.0;" x1="1087" x2="1821" y1="417.0938" y2="417.0938"/><text fill="#000000" font-family="sans-serif" font-size="20" font-weight="bold" lengthAdjust="spacing" textLength="14" x="1094" y="410.377">6</text><text fill="#000000" font-family="sans-serif" font-size="20" lengthAdjust="spacing" textLength="247" x="1112" y="410.377">floor=findWithId(floorId)</text><polygon fill="#181818" points="1494.5,480.375,1504.5,484.375,1494.5,488.375,1498.5,484.375" style="stroke:#181818;stroke-width:1.0;"/><line style="stroke:#181818;stroke-width:1.0;" x1="1087" x2="1500.5" y1="484.375" y2="484.375"/><text fill="#000000" font-family="sans-serif" font-size="20" font-weight="bold" lengthAdjust="spacing" textLength="14" x="1094" y="477.6582">7</text><text fill="#000000" font-family="sans-serif" font-size="20" lengthAdjust="spacing" textLength="99" x="1112" y="477.6582">add(floor)</text><polygon fill="#181818" points="1215,554.6563,1225,558.6563,1215,562.6563,1219,558.6563" style="stroke:#181818;stroke-width:1.0;"/><line style="stroke:#181818;stroke-width:1.0;" x1="1087" x2="1221" y1="558.6563" y2="558.6563"/><text fill="#000000" font-family="sans-serif" font-size="20" font-weight="bold" lengthAdjust="spacing" textLength="14" x="1094" y="551.9395">8</text><text fill="#000000" font-family="sans-serif" font-size="20" lengthAdjust="spacing" textLength="98" x="1112" y="551.9395">create(id)</text><rect fill="#E2E2F0" height="37.2813" rx="2.5" ry="2.5" style="stroke:#181818;stroke-width:0.5;" width="191" x="1227" y="529.375"/><text fill="#000000" font-family="sans-serif" font-size="20" lengthAdjust="spacing" textLength="177" x="1234" y="554.9395">:elevator:Elevator</text><polygon fill="#181818" points="2135,602.9375,2145,606.9375,2135,610.9375,2139,606.9375" style="stroke:#181818;stroke-width:1.0;"/><line style="stroke:#181818;stroke-width:1.0;" x1="1087" x2="2141" y1="606.9375" y2="606.9375"/><text fill="#000000" font-family="sans-serif" font-size="20" font-weight="bold" lengthAdjust="spacing" textLength="14" x="1094" y="600.2207">9</text><text fill="#000000" font-family="sans-serif" font-size="20" lengthAdjust="spacing" textLength="311" x="1112" y="600.2207">building.elevator=newElevator</text><polygon fill="#181818" points="1666,670.2188,1676,674.2188,1666,678.2188,1670,674.2188" style="stroke:#181818;stroke-width:1.0;"/><line style="stroke:#181818;stroke-width:1.0;" x1="1087" x2="1672" y1="674.2188" y2="674.2188"/><text fill="#000000" font-family="sans-serif" font-size="20" font-weight="bold" lengthAdjust="spacing" textLength="28" x="1094" y="667.502">10</text><text fill="#000000" font-family="sans-serif" font-size="20" lengthAdjust="spacing" textLength="144" x="1126" y="667.502">save(building)</text><polygon fill="#181818" points="1958.5,737.5,1968.5,741.5,1958.5,745.5,1962.5,741.5" style="stroke:#181818;stroke-width:1.0;"/><line style="stroke:#181818;stroke-width:1.0;" x1="1087" x2="1964.5" y1="741.5" y2="741.5"/><text fill="#000000" font-family="sans-serif" font-size="20" font-weight="bold" lengthAdjust="spacing" textLength="28" x="1094" y="734.7832">11</text><text fill="#000000" font-family="sans-serif" font-size="20" lengthAdjust="spacing" textLength="152" x="1126" y="734.7832">toDto(elevator)</text><polygon fill="#181818" points="2244,774.7813,2254,778.7813,2244,782.7813,2248,778.7813" style="stroke:#181818;stroke-width:1.0;"/><line style="stroke:#181818;stroke-width:1.0;" x1="1975.5" x2="2250" y1="778.7813" y2="778.7813"/><text fill="#000000" font-family="sans-serif" font-size="20" font-weight="bold" lengthAdjust="spacing" textLength="28" x="1982.5" y="772.0645">12</text><text fill="#000000" font-family="sans-serif" font-size="20" lengthAdjust="spacing" textLength="79" x="2014.5" y="772.0645">create()</text><rect fill="#E2E2F0" height="37.2813" rx="2.5" ry="2.5" style="stroke:#181818;stroke-width:0.5;" width="283" x="2256" y="749.5"/><text fill="#000000" font-family="sans-serif" font-size="20" lengthAdjust="spacing" textLength="269" x="2263" y="775.0645">:elevatorDTO:IElevatorDTO</text><polygon fill="#181818" points="790,823.0625,780,827.0625,790,831.0625,786,827.0625" style="stroke:#181818;stroke-width:1.0;"/><line style="stroke:#181818;stroke-width:1.0;stroke-dasharray:2.0,2.0;" x1="784" x2="1081" y1="827.0625" y2="827.0625"/><text fill="#000000" font-family="sans-serif" font-size="20" font-weight="bold" lengthAdjust="spacing" textLength="28" x="796" y="820.3457">13</text><text fill="#000000" font-family="sans-serif" font-size="20" lengthAdjust="spacing" textLength="206" x="828" y="820.3457">sucess(elevatorDTO)</text><polygon fill="#181818" points="342,860.3438,332,864.3438,342,868.3438,338,864.3438" style="stroke:#181818;stroke-width:1.0;"/><line style="stroke:#181818;stroke-width:1.0;stroke-dasharray:2.0,2.0;" x1="336" x2="773" y1="864.3438" y2="864.3438"/><text fill="#000000" font-family="sans-serif" font-size="20" font-weight="bold" lengthAdjust="spacing" textLength="28" x="348" y="857.627">14</text><text fill="#000000" font-family="sans-serif" font-size="20" lengthAdjust="spacing" textLength="206" x="380" y="857.627">sucess(elevatorDTO)</text><polygon fill="#181818" points="11,897.625,1,901.625,11,905.625,7,901.625" style="stroke:#181818;stroke-width:1.0;"/><line style="stroke:#181818;stroke-width:1.0;stroke-dasharray:2.0,2.0;" x1="5" x2="325" y1="901.625" y2="901.625"/><text fill="#000000" font-family="sans-serif" font-size="20" font-weight="bold" lengthAdjust="spacing" textLength="28" x="17" y="894.9082">15</text><text fill="#000000" font-family="sans-serif" font-size="20" lengthAdjust="spacing" textLength="124" x="49" y="894.9082">201 Created</text><!--SRC=[ZPFBZjem58RtVeeZLZ0gmtIMKQTLWI0XCG9nQHTL5oO-0OiGezXXr3vzZvqus5IZTfVOt__xNFL9bXTUyNEXiXCA49ZpkZ0pLPgD_8tm_CHuRLHPd_TOCIADpEI5bmRMozqs1QwXbwG5NhbHrLhL1diHDTck5p4q8UjA5GLMCRbPVul13LPNcTtvfOkqnR35EZu6PulvPkl8l52gMaXjafdz-l4p1iVhTBLiBCUrB8Gi3skyg3kt6-HC_YPUlwxYy5_vvUwXtNmnTSo-VQTxC0QdssMS8Xqay_JsqsFiYnf-RbkGm6gtXP4trQD4Yf6NQiOp8-aJ6vgnHaHgrve4K4ZZlVl1Yn-yuKG97Dnih8mvBNdOfhrl4QW8P1OcJLFm179PYl6lgJfpMSv5g7jyvscdP0Bl3bfVr_671tBEAgJR_e2LYg1A7eu6LDu03E0DuLnh0zaHinF87CmHmKt9N6ZWHG44xR5GvG6CShUQdn5yL0nB0TQQaUO2kQg0GZfw2v0bXCbuPpBraVeAs9iNMuVlqXof1Yqw8BJBqS5q4AJjZyB4oOwBrY7Mjrc7UdT4MVZIsQqAAoSf1DyjDxL9b_oZJ-sbn3VVzA155ezQv0xkMg_v5VlUyRyRR5SieOvCZUgc9H3JDRC8aLJsU102IuivmziAw3f3hUF93HHsTfk13tRk7ngt9P-6muv_Vle84nUE2BbcAVy0]--></g></svg>