<?xml version="1.0" encoding="UTF-8" standalone="no"?><svg xmlns="http://www.w3.org/2000/svg" xmlns:xlink="http://www.w3.org/1999/xlink" contentStyleType="text/css" height="314px" preserveAspectRatio="none" style="width:454px;height:314px;background:#FFFFFF;" version="1.1" viewBox="0 0 454 314" width="454px" zoomAndPan="magnify"><defs/><g><rect fill="#FFFFFF" height="118.8241" style="stroke:#181818;stroke-width:1.0;" width="10" x="63" y="94.0679"/><rect fill="#FFFFFF" height="31.706" style="stroke:#181818;stroke-width:1.0;" width="10" x="368" y="117.7739"/><rect fill="#FFFFFF" height="31.706" style="stroke:#181818;stroke-width:1.0;" width="10" x="368" y="181.186"/><line style="stroke:#181818;stroke-width:0.5;stroke-dasharray:5.0,5.0;" x1="68" x2="68" y1="84.0679" y2="230.892"/><line style="stroke:#181818;stroke-width:0.5;stroke-dasharray:5.0,5.0;" x1="372.5" x2="372.5" y1="84.0679" y2="230.892"/><text fill="#000000" font-family="sans-serif" font-size="14" lengthAdjust="spacing" textLength="120" x="5" y="79.9659">Campus Manager</text><ellipse cx="68" cy="13.5" fill="#E2E2F0" rx="8" ry="8" style="stroke:#181818;stroke-width:0.5;"/><path d="M68,21.5 L68,48.5 M55,29.5 L81,29.5 M68,48.5 L55,63.5 M68,48.5 L81,63.5 " fill="none" style="stroke:#181818;stroke-width:0.5;"/><text fill="#000000" font-family="sans-serif" font-size="14" lengthAdjust="spacing" textLength="120" x="5" y="244.8579">Campus Manager</text><ellipse cx="68" cy="257.4599" fill="#E2E2F0" rx="8" ry="8" style="stroke:#181818;stroke-width:0.5;"/><path d="M68,265.4599 L68,292.4599 M55,273.4599 L81,273.4599 M68,292.4599 L55,307.4599 M68,292.4599 L81,307.4599 " fill="none" style="stroke:#181818;stroke-width:0.5;"/><rect fill="#E2E2F0" height="52.1358" rx="2.5" ry="2.5" style="stroke:#181818;stroke-width:0.5;" width="151" x="297.5" y="30.9321"/><text fill="#000000" font-family="sans-serif" font-size="14" font-style="italic" lengthAdjust="spacing" textLength="85" x="330.5" y="52.898">«system (C4)»</text><text fill="#000000" font-family="sans-serif" font-size="14" lengthAdjust="spacing" textLength="137" x="304.5" y="71.9659">RobDroneGo System</text><rect fill="#E2E2F0" height="52.1358" rx="2.5" ry="2.5" style="stroke:#181818;stroke-width:0.5;" width="151" x="297.5" y="229.892"/><text fill="#000000" font-family="sans-serif" font-size="14" font-style="italic" lengthAdjust="spacing" textLength="85" x="330.5" y="251.8579">«system (C4)»</text><text fill="#000000" font-family="sans-serif" font-size="14" lengthAdjust="spacing" textLength="137" x="304.5" y="270.9258">RobDroneGo System</text><rect fill="#FFFFFF" height="118.8241" style="stroke:#181818;stroke-width:1.0;" width="10" x="63" y="94.0679"/><rect fill="#FFFFFF" height="31.706" style="stroke:#181818;stroke-width:1.0;" width="10" x="368" y="117.7739"/><rect fill="#FFFFFF" height="31.706" style="stroke:#181818;stroke-width:1.0;" width="10" x="368" y="181.186"/><polygon fill="#181818" points="356,113.7739,366,117.7739,356,121.7739,360,117.7739" style="stroke:#181818;stroke-width:1.0;"/><line style="stroke:#181818;stroke-width:1.0;" x1="73" x2="362" y1="117.7739" y2="117.7739"/><text fill="#000000" font-family="sans-serif" font-size="13" font-weight="bold" lengthAdjust="spacing" textLength="7" x="80" y="111.9649">1</text><text fill="#000000" font-family="sans-serif" font-size="13" lengthAdjust="spacing" textLength="265" x="91" y="111.9649">wants to list connectors between 2 buildings</text><polygon fill="#181818" points="84,145.4799,74,149.4799,84,153.4799,80,149.4799" style="stroke:#181818;stroke-width:1.0;"/><line style="stroke:#181818;stroke-width:1.0;stroke-dasharray:2.0,2.0;" x1="78" x2="372" y1="149.4799" y2="149.4799"/><text fill="#000000" font-family="sans-serif" font-size="13" font-weight="bold" lengthAdjust="spacing" textLength="7" x="90" y="143.6709">2</text><text fill="#000000" font-family="sans-serif" font-size="13" lengthAdjust="spacing" textLength="198" x="101" y="143.6709">asks for the buildings 1 &amp; 2 codes</text><polygon fill="#181818" points="356,177.186,366,181.186,356,185.186,360,181.186" style="stroke:#181818;stroke-width:1.0;"/><line style="stroke:#181818;stroke-width:1.0;" x1="73" x2="362" y1="181.186" y2="181.186"/><text fill="#000000" font-family="sans-serif" font-size="13" font-weight="bold" lengthAdjust="spacing" textLength="7" x="80" y="175.377">3</text><text fill="#000000" font-family="sans-serif" font-size="13" lengthAdjust="spacing" textLength="93" x="91" y="175.377">inserts the data</text><polygon fill="#181818" points="79,208.892,69,212.892,79,216.892,75,212.892" style="stroke:#181818;stroke-width:1.0;"/><line style="stroke:#181818;stroke-width:1.0;stroke-dasharray:2.0,2.0;" x1="73" x2="372" y1="212.892" y2="212.892"/><text fill="#000000" font-family="sans-serif" font-size="13" font-weight="bold" lengthAdjust="spacing" textLength="7" x="85" y="207.083">4</text><text fill="#000000" font-family="sans-serif" font-size="13" lengthAdjust="spacing" textLength="87" x="96" y="207.083">returns the list</text><!--MD5=[757ee421290a0754a1433a91ba0fbf8d]
@startuml process-view
autonumber

actor CM as "Campus Manager"
participant SYS as "RobDroneGo System" <<system (C4)>>

activate CM

CM -> SYS : wants to list connectors between 2 buildings
activate SYS

CM <- - SYS : asks for the buildings 1 & 2 codes
deactivate SYS

CM -> SYS : inserts the data
activate SYS

CM <- - SYS : returns the list
deactivate SYS

deactivate CM

@enduml

PlantUML version 1.2022.7(Mon Aug 22 18:01:30 WEST 2022)
(GPL source distribution)
Java Runtime: OpenJDK Runtime Environment
JVM: OpenJDK 64-Bit Server VM
Default Encoding: UTF-8
Language: en
Country: GB
--></g></svg>