<?xml version="1.0" encoding="UTF-8" standalone="no"?><svg xmlns="http://www.w3.org/2000/svg" xmlns:xlink="http://www.w3.org/1999/xlink" contentStyleType="text/css" height="1045px" preserveAspectRatio="none" style="width:2392px;height:1045px;background:#FFFFFF;" version="1.1" viewBox="0 0 2392 1045" width="2392px" zoomAndPan="magnify"><defs/><g><rect fill="#FFFFFF" height="890.3195" style="stroke:#181818;stroke-width:1.0;" width="10" x="310.625" y="90.4799"/><rect fill="#FFFFFF" height="807.8396" style="stroke:#181818;stroke-width:1.0;" width="10" x="745.25" y="131.7199"/><rect fill="#FFFFFF" height="725.3596" style="stroke:#181818;stroke-width:1.0;" width="10" x="1051.875" y="172.9599"/><rect fill="#FFFFFF" height="30" style="stroke:#181818;stroke-width:1.0;" width="10" x="1428.5" y="531.8797"/><rect fill="#FFFFFF" height="30" style="stroke:#181818;stroke-width:1.0;" width="10" x="1587.5" y="214.1999"/><rect fill="#FFFFFF" height="30" style="stroke:#181818;stroke-width:1.0;" width="10" x="1587.5" y="733.5996"/><rect fill="#FFFFFF" height="30" style="stroke:#181818;stroke-width:1.0;" width="10" x="1725" y="460.6397"/><rect fill="#FFFFFF" height="41.24" style="stroke:#181818;stroke-width:1.0;" width="10" x="1859" y="804.8396"/><rect fill="#FFFFFF" height="30" style="stroke:#181818;stroke-width:1.0;" width="10" x="2021.5" y="662.3596"/><rect fill="none" height="183.9599" style="stroke:#000000;stroke-width:1.5;" width="829.625" x="966.875" y="385.9198"/><line style="stroke:#181818;stroke-width:0.5;stroke-dasharray:5.0,5.0;" x1="315.625" x2="315.625" y1="47.24" y2="998.7995"/><line style="stroke:#181818;stroke-width:0.5;stroke-dasharray:5.0,5.0;" x1="749.75" x2="749.75" y1="47.24" y2="998.7995"/><line style="stroke:#181818;stroke-width:0.5;stroke-dasharray:5.0,5.0;" x1="1056.875" x2="1056.875" y1="47.24" y2="998.7995"/><line style="stroke:#181818;stroke-width:0.5;stroke-dasharray:5.0,5.0;" x1="1258.5" x2="1258.5" y1="612.9997" y2="998.7995"/><line style="stroke:#181818;stroke-width:0.5;stroke-dasharray:5.0,5.0;" x1="1433.5" x2="1433.5" y1="288.3199" y2="998.7995"/><line style="stroke:#181818;stroke-width:0.5;stroke-dasharray:5.0,5.0;" x1="1592.5" x2="1592.5" y1="47.24" y2="998.7995"/><line style="stroke:#181818;stroke-width:0.5;stroke-dasharray:5.0,5.0;" x1="1729.5" x2="1729.5" y1="47.24" y2="998.7995"/><line style="stroke:#181818;stroke-width:0.5;stroke-dasharray:5.0,5.0;" x1="1863.5" x2="1863.5" y1="47.24" y2="998.7995"/><line style="stroke:#181818;stroke-width:0.5;stroke-dasharray:5.0,5.0;" x1="2026.5" x2="2026.5" y1="47.24" y2="998.7995"/><line style="stroke:#181818;stroke-width:0.5;stroke-dasharray:5.0,5.0;" x1="2253.5" x2="2253.5" y1="848.9596" y2="998.7995"/><rect fill="#E2E2F0" height="41.24" rx="2.5" ry="2.5" style="stroke:#181818;stroke-width:0.5;" width="148" x="241.625" y="5"/><text fill="#000000" font-family="sans-serif" font-size="20" lengthAdjust="spacing" textLength="134" x="248.625" y="33.38">:ElevatorRoute</text><rect fill="#E2E2F0" height="41.24" rx="2.5" ry="2.5" style="stroke:#181818;stroke-width:0.5;" width="148" x="241.625" y="997.7995"/><text fill="#000000" font-family="sans-serif" font-size="20" lengthAdjust="spacing" textLength="134" x="248.625" y="1026.1795">:ElevatorRoute</text><rect fill="#E2E2F0" height="41.24" rx="2.5" ry="2.5" style="stroke:#181818;stroke-width:0.5;" width="187" x="656.75" y="5"/><text fill="#000000" font-family="sans-serif" font-size="20" lengthAdjust="spacing" textLength="173" x="663.75" y="33.38">:ElevatorController</text><rect fill="#E2E2F0" height="41.24" rx="2.5" ry="2.5" style="stroke:#181818;stroke-width:0.5;" width="187" x="656.75" y="997.7995"/><text fill="#000000" font-family="sans-serif" font-size="20" lengthAdjust="spacing" textLength="173" x="663.75" y="1026.1795">:ElevatorController</text><rect fill="#E2E2F0" height="41.24" rx="2.5" ry="2.5" style="stroke:#181818;stroke-width:0.5;" width="160" x="976.875" y="5"/><text fill="#000000" font-family="sans-serif" font-size="20" lengthAdjust="spacing" textLength="146" x="983.875" y="33.38">:ElevatorService</text><rect fill="#E2E2F0" height="41.24" rx="2.5" ry="2.5" style="stroke:#181818;stroke-width:0.5;" width="160" x="976.875" y="997.7995"/><text fill="#000000" font-family="sans-serif" font-size="20" lengthAdjust="spacing" textLength="146" x="983.875" y="1026.1795">:ElevatorService</text><rect fill="#E2E2F0" height="41.24" rx="2.5" ry="2.5" style="stroke:#181818;stroke-width:0.5;" width="174" x="1171.5" y="997.7995"/><text fill="#000000" font-family="sans-serif" font-size="20" lengthAdjust="spacing" textLength="160" x="1178.5" y="1026.1795">:elevator:Elevator</text><rect fill="#E2E2F0" height="41.24" rx="2.5" ry="2.5" style="stroke:#181818;stroke-width:0.5;" width="156" x="1355.5" y="997.7995"/><text fill="#000000" font-family="sans-serif" font-size="20" lengthAdjust="spacing" textLength="142" x="1362.5" y="1026.1795">floorList:Floor[]</text><rect fill="#E2E2F0" height="41.24" rx="2.5" ry="2.5" style="stroke:#181818;stroke-width:0.5;" width="142" x="1521.5" y="5"/><text fill="#000000" font-family="sans-serif" font-size="20" lengthAdjust="spacing" textLength="128" x="1528.5" y="33.38">:BuildingRepo</text><rect fill="#E2E2F0" height="41.24" rx="2.5" ry="2.5" style="stroke:#181818;stroke-width:0.5;" width="142" x="1521.5" y="997.7995"/><text fill="#000000" font-family="sans-serif" font-size="20" lengthAdjust="spacing" textLength="128" x="1528.5" y="1026.1795">:BuildingRepo</text><rect fill="#E2E2F0" height="41.24" rx="2.5" ry="2.5" style="stroke:#181818;stroke-width:0.5;" width="113" x="1673.5" y="5"/><text fill="#000000" font-family="sans-serif" font-size="20" lengthAdjust="spacing" textLength="99" x="1680.5" y="33.38">:FloorRepo</text><rect fill="#E2E2F0" height="41.24" rx="2.5" ry="2.5" style="stroke:#181818;stroke-width:0.5;" width="113" x="1673.5" y="997.7995"/><text fill="#000000" font-family="sans-serif" font-size="20" lengthAdjust="spacing" textLength="99" x="1680.5" y="1026.1795">:FloorRepo</text><rect fill="#E2E2F0" height="41.24" rx="2.5" ry="2.5" style="stroke:#181818;stroke-width:0.5;" width="135" x="1796.5" y="5"/><text fill="#000000" font-family="sans-serif" font-size="20" lengthAdjust="spacing" textLength="121" x="1803.5" y="33.38">:ElevatorMap</text><rect fill="#E2E2F0" height="41.24" rx="2.5" ry="2.5" style="stroke:#181818;stroke-width:0.5;" width="135" x="1796.5" y="997.7995"/><text fill="#000000" font-family="sans-serif" font-size="20" lengthAdjust="spacing" textLength="121" x="1803.5" y="1026.1795">:ElevatorMap</text><rect fill="#E2E2F0" height="41.24" rx="2.5" ry="2.5" style="stroke:#181818;stroke-width:0.5;" width="170" x="1941.5" y="5"/><text fill="#000000" font-family="sans-serif" font-size="20" lengthAdjust="spacing" textLength="156" x="1948.5" y="33.38">building:Building</text><rect fill="#E2E2F0" height="41.24" rx="2.5" ry="2.5" style="stroke:#181818;stroke-width:0.5;" width="170" x="1941.5" y="997.7995"/><text fill="#000000" font-family="sans-serif" font-size="20" lengthAdjust="spacing" textLength="156" x="1948.5" y="1026.1795">building:Building</text><rect fill="#E2E2F0" height="41.24" rx="2.5" ry="2.5" style="stroke:#181818;stroke-width:0.5;" width="265" x="2121.5" y="997.7995"/><text fill="#000000" font-family="sans-serif" font-size="20" lengthAdjust="spacing" textLength="251" x="2128.5" y="1026.1795">:elevatorDTO:IElevatorDTO</text><rect fill="#FFFFFF" height="890.3195" style="stroke:#181818;stroke-width:1.0;" width="10" x="310.625" y="90.4799"/><rect fill="#FFFFFF" height="807.8396" style="stroke:#181818;stroke-width:1.0;" width="10" x="745.25" y="131.7199"/><rect fill="#FFFFFF" height="725.3596" style="stroke:#181818;stroke-width:1.0;" width="10" x="1051.875" y="172.9599"/><rect fill="#FFFFFF" height="30" style="stroke:#181818;stroke-width:1.0;" width="10" x="1428.5" y="531.8797"/><rect fill="#FFFFFF" height="30" style="stroke:#181818;stroke-width:1.0;" width="10" x="1587.5" y="214.1999"/><rect fill="#FFFFFF" height="30" style="stroke:#181818;stroke-width:1.0;" width="10" x="1587.5" y="733.5996"/><rect fill="#FFFFFF" height="30" style="stroke:#181818;stroke-width:1.0;" width="10" x="1725" y="460.6397"/><rect fill="#FFFFFF" height="41.24" style="stroke:#181818;stroke-width:1.0;" width="10" x="1859" y="804.8396"/><rect fill="#FFFFFF" height="30" style="stroke:#181818;stroke-width:1.0;" width="10" x="2021.5" y="662.3596"/><ellipse cx="4.5" cy="89.7299" fill="none" rx="4" ry="4" style="stroke:#181818;stroke-width:1.5;"/><polygon fill="#181818" points="298.625,86.4799,308.625,90.4799,298.625,94.4799,302.625,90.4799" style="stroke:#181818;stroke-width:1.0;"/><line style="stroke:#181818;stroke-width:1.0;" x1="9" x2="304.625" y1="90.4799" y2="90.4799"/><text fill="#000000" font-family="sans-serif" font-size="20" font-weight="bold" lengthAdjust="spacing" textLength="11.625" x="12" y="82.62">1</text><text fill="#000000" font-family="sans-serif" font-size="20" lengthAdjust="spacing" textLength="268" x="27.625" y="82.62">POST /buildings/:id/elevators</text><polygon fill="#181818" points="733.25,127.7199,743.25,131.7199,733.25,135.7199,737.25,131.7199" style="stroke:#181818;stroke-width:1.0;"/><line style="stroke:#181818;stroke-width:1.0;" x1="320.625" x2="739.25" y1="131.7199" y2="131.7199"/><text fill="#000000" font-family="sans-serif" font-size="20" font-weight="bold" lengthAdjust="spacing" textLength="11.625" x="327.625" y="123.8599">2</text><text fill="#000000" font-family="sans-serif" font-size="20" lengthAdjust="spacing" textLength="390" x="343.25" y="123.8599">createElevator(elevatorDTO,buildingCode)</text><polygon fill="#181818" points="1039.875,168.9599,1049.875,172.9599,1039.875,176.9599,1043.875,172.9599" style="stroke:#181818;stroke-width:1.0;"/><line style="stroke:#181818;stroke-width:1.0;" x1="755.25" x2="1045.875" y1="172.9599" y2="172.9599"/><text fill="#000000" font-family="sans-serif" font-size="20" font-weight="bold" lengthAdjust="spacing" textLength="11.625" x="762.25" y="165.0999">3</text><text fill="#000000" font-family="sans-serif" font-size="20" lengthAdjust="spacing" textLength="262" x="777.875" y="165.0999">createElevator(elevatorDTO)</text><polygon fill="#181818" points="1575.5,210.1999,1585.5,214.1999,1575.5,218.1999,1579.5,214.1999" style="stroke:#181818;stroke-width:1.0;"/><line style="stroke:#181818;stroke-width:1.0;" x1="1061.875" x2="1581.5" y1="214.1999" y2="214.1999"/><text fill="#000000" font-family="sans-serif" font-size="20" font-weight="bold" lengthAdjust="spacing" textLength="11.625" x="1068.875" y="206.3399">4</text><text fill="#000000" font-family="sans-serif" font-size="20" lengthAdjust="spacing" textLength="409" x="1084.5" y="206.3399">findByDomainId(elevatorDTO.buildingCode)</text><polygon fill="#181818" points="1343.5,281.4398,1353.5,285.4398,1343.5,289.4398,1347.5,285.4398" style="stroke:#181818;stroke-width:1.0;"/><line style="stroke:#181818;stroke-width:1.0;" x1="1061.875" x2="1349.5" y1="285.4398" y2="285.4398"/><text fill="#000000" font-family="sans-serif" font-size="20" font-weight="bold" lengthAdjust="spacing" textLength="11.625" x="1068.875" y="277.5799">5</text><text fill="#000000" font-family="sans-serif" font-size="20" lengthAdjust="spacing" textLength="70" x="1084.5" y="277.5799">create()</text><rect fill="#E2E2F0" height="41.24" rx="2.5" ry="2.5" style="stroke:#181818;stroke-width:0.5;" width="156" x="1355.5" y="252.1999"/><text fill="#000000" font-family="sans-serif" font-size="20" lengthAdjust="spacing" textLength="142" x="1362.5" y="280.5799">floorList:Floor[]</text><path d="M1438,309.4398 L1438,373.4398 L1759,373.4398 L1759,319.4398 L1749,309.4398 L1438,309.4398 " fill="#FEFFDD" style="stroke:#181818;stroke-width:0.5;"/><path d="M1749,309.4398 L1749,319.4398 L1759,319.4398 L1749,309.4398 " fill="#FEFFDD" style="stroke:#181818;stroke-width:0.5;"/><text fill="#000000" font-family="sans-serif" font-size="20" lengthAdjust="spacing" textLength="295" x="1444" y="335.8198">we must check if the floorIds all</text><text fill="#000000" font-family="sans-serif" font-size="20" lengthAdjust="spacing" textLength="259" x="1444" y="363.0598">belong to the same building</text><path d="M966.875,385.9198 L1055.375,385.9198 L1055.375,405.1598 L1045.375,415.1598 L966.875,415.1598 L966.875,385.9198 " fill="#EEEEEE" style="stroke:#000000;stroke-width:1.5;"/><rect fill="none" height="183.9599" style="stroke:#000000;stroke-width:1.5;" width="829.625" x="966.875" y="385.9198"/><text fill="#000000" font-family="sans-serif" font-size="20" font-weight="bold" lengthAdjust="spacing" textLength="43.5" x="981.875" y="408.2998">loop</text><text fill="#000000" font-family="sans-serif" font-size="20" font-weight="bold" lengthAdjust="spacing" textLength="403.75" x="1070.375" y="409.2998">[for each floorId in elevatorDTO.floorIds]</text><polygon fill="#181818" points="1713,456.6397,1723,460.6397,1713,464.6397,1717,460.6397" style="stroke:#181818;stroke-width:1.0;"/><line style="stroke:#181818;stroke-width:1.0;" x1="1061.875" x2="1719" y1="460.6397" y2="460.6397"/><text fill="#000000" font-family="sans-serif" font-size="20" font-weight="bold" lengthAdjust="spacing" textLength="11.625" x="1068.875" y="452.7797">6</text><text fill="#000000" font-family="sans-serif" font-size="20" lengthAdjust="spacing" textLength="228" x="1084.5" y="452.7797">floor=findWithId(floorId)</text><polygon fill="#181818" points="1416.5,527.8797,1426.5,531.8797,1416.5,535.8797,1420.5,531.8797" style="stroke:#181818;stroke-width:1.0;"/><line style="stroke:#181818;stroke-width:1.0;" x1="1061.875" x2="1422.5" y1="531.8797" y2="531.8797"/><text fill="#000000" font-family="sans-serif" font-size="20" font-weight="bold" lengthAdjust="spacing" textLength="11.625" x="1068.875" y="524.0197">7</text><text fill="#000000" font-family="sans-serif" font-size="20" lengthAdjust="spacing" textLength="91" x="1084.5" y="524.0197">add(floor)</text><polygon fill="#181818" points="1159.5,606.1197,1169.5,610.1197,1159.5,614.1197,1163.5,610.1197" style="stroke:#181818;stroke-width:1.0;"/><line style="stroke:#181818;stroke-width:1.0;" x1="1061.875" x2="1165.5" y1="610.1197" y2="610.1197"/><text fill="#000000" font-family="sans-serif" font-size="20" font-weight="bold" lengthAdjust="spacing" textLength="11.625" x="1068.875" y="602.2597">8</text><text fill="#000000" font-family="sans-serif" font-size="20" lengthAdjust="spacing" textLength="70" x="1084.5" y="602.2597">create()</text><rect fill="#E2E2F0" height="41.24" rx="2.5" ry="2.5" style="stroke:#181818;stroke-width:0.5;" width="174" x="1171.5" y="576.8797"/><text fill="#000000" font-family="sans-serif" font-size="20" lengthAdjust="spacing" textLength="160" x="1178.5" y="605.2597">:elevator:Elevator</text><polygon fill="#181818" points="2009.5,658.3596,2019.5,662.3596,2009.5,666.3596,2013.5,662.3596" style="stroke:#181818;stroke-width:1.0;"/><line style="stroke:#181818;stroke-width:1.0;" x1="1061.875" x2="2015.5" y1="662.3596" y2="662.3596"/><text fill="#000000" font-family="sans-serif" font-size="20" font-weight="bold" lengthAdjust="spacing" textLength="11.625" x="1068.875" y="654.4997">9</text><text fill="#000000" font-family="sans-serif" font-size="20" lengthAdjust="spacing" textLength="280" x="1084.5" y="654.4997">building.elevator=newElevator</text><polygon fill="#181818" points="1575.5,729.5996,1585.5,733.5996,1575.5,737.5996,1579.5,733.5996" style="stroke:#181818;stroke-width:1.0;"/><line style="stroke:#181818;stroke-width:1.0;" x1="1061.875" x2="1581.5" y1="733.5996" y2="733.5996"/><text fill="#000000" font-family="sans-serif" font-size="20" font-weight="bold" lengthAdjust="spacing" textLength="23.25" x="1068.875" y="725.7396">10</text><text fill="#000000" font-family="sans-serif" font-size="20" lengthAdjust="spacing" textLength="129" x="1096.125" y="725.7396">save(building)</text><polygon fill="#181818" points="1847,800.8396,1857,804.8396,1847,808.8396,1851,804.8396" style="stroke:#181818;stroke-width:1.0;"/><line style="stroke:#181818;stroke-width:1.0;" x1="1061.875" x2="1853" y1="804.8396" y2="804.8396"/><text fill="#000000" font-family="sans-serif" font-size="20" font-weight="bold" lengthAdjust="spacing" textLength="23.25" x="1068.875" y="796.9796">11</text><text fill="#000000" font-family="sans-serif" font-size="20" lengthAdjust="spacing" textLength="140" x="1096.125" y="796.9796">toDto(elevator)</text><polygon fill="#181818" points="2109.5,842.0796,2119.5,846.0796,2109.5,850.0796,2113.5,846.0796" style="stroke:#181818;stroke-width:1.0;"/><line style="stroke:#181818;stroke-width:1.0;" x1="1864" x2="2115.5" y1="846.0796" y2="846.0796"/><text fill="#000000" font-family="sans-serif" font-size="20" font-weight="bold" lengthAdjust="spacing" textLength="23.25" x="1871" y="838.2196">12</text><text fill="#000000" font-family="sans-serif" font-size="20" lengthAdjust="spacing" textLength="70" x="1898.25" y="838.2196">create()</text><rect fill="#E2E2F0" height="41.24" rx="2.5" ry="2.5" style="stroke:#181818;stroke-width:0.5;" width="265" x="2121.5" y="812.8396"/><text fill="#000000" font-family="sans-serif" font-size="20" lengthAdjust="spacing" textLength="251" x="2128.5" y="841.2196">:elevatorDTO:IElevatorDTO</text><polygon fill="#181818" points="766.25,894.3195,756.25,898.3195,766.25,902.3195,762.25,898.3195" style="stroke:#181818;stroke-width:1.0;"/><line style="stroke:#181818;stroke-width:1.0;stroke-dasharray:2.0,2.0;" x1="760.25" x2="1055.875" y1="898.3195" y2="898.3195"/><text fill="#000000" font-family="sans-serif" font-size="20" font-weight="bold" lengthAdjust="spacing" textLength="23.25" x="772.25" y="890.4596">13</text><text fill="#000000" font-family="sans-serif" font-size="20" lengthAdjust="spacing" textLength="192" x="799.5" y="890.4596">sucess(elevatorDTO)</text><polygon fill="#181818" points="331.625,935.5595,321.625,939.5595,331.625,943.5595,327.625,939.5595" style="stroke:#181818;stroke-width:1.0;"/><line style="stroke:#181818;stroke-width:1.0;stroke-dasharray:2.0,2.0;" x1="325.625" x2="749.25" y1="939.5595" y2="939.5595"/><text fill="#000000" font-family="sans-serif" font-size="20" font-weight="bold" lengthAdjust="spacing" textLength="23.25" x="337.625" y="931.6995">14</text><text fill="#000000" font-family="sans-serif" font-size="20" lengthAdjust="spacing" textLength="192" x="364.875" y="931.6995">sucess(elevatorDTO)</text><polygon fill="#181818" points="11,976.7995,1,980.7995,11,984.7995,7,980.7995" style="stroke:#181818;stroke-width:1.0;"/><line style="stroke:#181818;stroke-width:1.0;stroke-dasharray:2.0,2.0;" x1="5" x2="314.625" y1="980.7995" y2="980.7995"/><text fill="#000000" font-family="sans-serif" font-size="20" font-weight="bold" lengthAdjust="spacing" textLength="23.25" x="17" y="972.9395">15</text><text fill="#000000" font-family="sans-serif" font-size="20" lengthAdjust="spacing" textLength="111" x="44.25" y="972.9395">201 Created</text><!--SRC=[ZPFBZjem58RtVegZMS6e3DDPHfrM1OA4n0WKc7PHTM7Y4x08DaeSHktJzzY9WqtLoownl__tkTP7gSwyugTIvqSK8B3WJMdcMfcD_8dmzCXuOxHgJZki6956vlBCbO5izRfDWTTmbwGbNhZHLQORWtSHDTrconYQadMbonAhcDnaNs9mWzL5vZT-wJBjCEomde_1-NAnsJgoABMkbh8soTn-VViUWvCiNQzQoqaZIo7LFiEpld6xGixaT-BbypeE_uMVRnvwNIndZjbrx_GFnk1ikufJf8DaaLv_xXZxf4SVknOai5vHgcFlMeyJASPUMpEU6qcVsEACjIgIkzuaa5T8jzv-43pwpbjEjS3XrSWAcLEJY-tRtqm27Q7CugHggvv08PMO_9Zf4vTg8KBTmnyUTqecyEQWytLjlx_l8neCcT84LN9_CA2B5c00RmYdfZQG7p0_WYp0713Sg2n43RmiWQ0TbbhjmMXtM_CJWe-AeH9WhHbfpb3e2YYaWxS0gI1CnZkJgO_KLy3UFDiwV9NcG3Neq26XVOuEfeCWRNyK9avsN7GEiRxBEjIx8yh2bywkLbmvtoitk4cV-eDFx5dXcszvq22BHmro1pUDh_a51zxnlzjhjooXVioCxcSb4DCrimYHLFGucS3IOixmkWHrasDTntCRAEpajWCVhDq_D6vBFen6FV_q-1wcBXmHSkrQ_W80]--></g></svg>