<?xml version="1.0" encoding="UTF-8" standalone="no"?><svg xmlns="http://www.w3.org/2000/svg" xmlns:xlink="http://www.w3.org/1999/xlink" contentStyleType="text/css" height="961px" preserveAspectRatio="none" style="width:2588px;height:961px;background:#FFFFFF;" version="1.1" viewBox="0 0 2588 961" width="2588px" zoomAndPan="magnify"><defs/><g><rect fill="#FFFFFF" height="819.0625" style="stroke:#181818;stroke-width:1.0;" width="10" x="335" y="82.5625"/><rect fill="#FFFFFF" height="744.5" style="stroke:#181818;stroke-width:1.0;" width="10" x="807" y="119.8438"/><rect fill="#FFFFFF" height="669.9375" style="stroke:#181818;stroke-width:1.0;" width="10" x="1139" y="157.125"/><rect fill="#FFFFFF" height="30" style="stroke:#181818;stroke-width:1.0;" width="10" x="1549.5" y="484.375"/><rect fill="#FFFFFF" height="30" style="stroke:#181818;stroke-width:1.0;" width="10" x="1721" y="194.4063"/><rect fill="#FFFFFF" height="30" style="stroke:#181818;stroke-width:1.0;" width="10" x="1721" y="674.2188"/><rect fill="#FFFFFF" height="30" style="stroke:#181818;stroke-width:1.0;" width="10" x="1870" y="417.0938"/><rect fill="#FFFFFF" height="37.2813" style="stroke:#181818;stroke-width:1.0;" width="10" x="2013.5" y="741.5"/><rect fill="#FFFFFF" height="30" style="stroke:#181818;stroke-width:1.0;" width="10" x="2190" y="606.9375"/><rect fill="none" height="168.125" style="stroke:#000000;stroke-width:1.5;" width="900" x="1046" y="354.25"/><line style="stroke:#181818;stroke-width:0.5;stroke-dasharray:5.0,5.0;" x1="340" x2="340" y1="43.2813" y2="919.625"/><line style="stroke:#181818;stroke-width:0.5;stroke-dasharray:5.0,5.0;" x1="812" x2="812" y1="43.2813" y2="919.625"/><line style="stroke:#181818;stroke-width:0.5;stroke-dasharray:5.0,5.0;" x1="1144" x2="1144" y1="43.2813" y2="919.625"/><line style="stroke:#181818;stroke-width:0.5;stroke-dasharray:5.0,5.0;" x1="1365" x2="1365" y1="563.5156" y2="919.625"/><line style="stroke:#181818;stroke-width:0.5;stroke-dasharray:5.0,5.0;" x1="1554" x2="1554" y1="266.5469" y2="919.625"/><line style="stroke:#181818;stroke-width:0.5;stroke-dasharray:5.0,5.0;" x1="1726" x2="1726" y1="43.2813" y2="919.625"/><line style="stroke:#181818;stroke-width:0.5;stroke-dasharray:5.0,5.0;" x1="1875" x2="1875" y1="43.2813" y2="919.625"/><line style="stroke:#181818;stroke-width:0.5;stroke-dasharray:5.0,5.0;" x1="2018" x2="2018" y1="43.2813" y2="919.625"/><line style="stroke:#181818;stroke-width:0.5;stroke-dasharray:5.0,5.0;" x1="2195" x2="2195" y1="43.2813" y2="919.625"/><line style="stroke:#181818;stroke-width:0.5;stroke-dasharray:5.0,5.0;" x1="2440" x2="2440" y1="783.6406" y2="919.625"/><rect fill="#E2E2F0" height="37.2813" rx="2.5" ry="2.5" style="stroke:#181818;stroke-width:0.5;" width="162" x="259" y="5"/><text fill="#000000" font-family="sans-serif" font-size="20" lengthAdjust="spacing" textLength="148" x="266" y="30.5645">:ElevatorRoute</text><rect fill="#E2E2F0" height="37.2813" rx="2.5" ry="2.5" style="stroke:#181818;stroke-width:0.5;" width="162" x="259" y="918.625"/><text fill="#000000" font-family="sans-serif" font-size="20" lengthAdjust="spacing" textLength="148" x="266" y="944.1895">:ElevatorRoute</text><rect fill="#E2E2F0" height="37.2813" rx="2.5" ry="2.5" style="stroke:#181818;stroke-width:0.5;" width="202" x="711" y="5"/><text fill="#000000" font-family="sans-serif" font-size="20" lengthAdjust="spacing" textLength="188" x="718" y="30.5645">:ElevatorController</text><rect fill="#E2E2F0" height="37.2813" rx="2.5" ry="2.5" style="stroke:#181818;stroke-width:0.5;" width="202" x="711" y="918.625"/><text fill="#000000" font-family="sans-serif" font-size="20" lengthAdjust="spacing" textLength="188" x="718" y="944.1895">:ElevatorController</text><rect fill="#E2E2F0" height="37.2813" rx="2.5" ry="2.5" style="stroke:#181818;stroke-width:0.5;" width="176" x="1056" y="5"/><text fill="#000000" font-family="sans-serif" font-size="20" lengthAdjust="spacing" textLength="162" x="1063" y="30.5645">:ElevatorService</text><rect fill="#E2E2F0" height="37.2813" rx="2.5" ry="2.5" style="stroke:#181818;stroke-width:0.5;" width="176" x="1056" y="918.625"/><text fill="#000000" font-family="sans-serif" font-size="20" lengthAdjust="spacing" textLength="162" x="1063" y="944.1895">:ElevatorService</text><rect fill="#E2E2F0" height="37.2813" rx="2.5" ry="2.5" style="stroke:#181818;stroke-width:0.5;" width="191" x="1270" y="918.625"/><text fill="#000000" font-family="sans-serif" font-size="20" lengthAdjust="spacing" textLength="177" x="1277" y="944.1895">:elevator:Elevator</text><rect fill="#E2E2F0" height="37.2813" rx="2.5" ry="2.5" style="stroke:#181818;stroke-width:0.5;" width="167" x="1471" y="918.625"/><text fill="#000000" font-family="sans-serif" font-size="20" lengthAdjust="spacing" textLength="153" x="1478" y="944.1895">floorList:Floor[]</text><rect fill="#E2E2F0" height="37.2813" rx="2.5" ry="2.5" style="stroke:#181818;stroke-width:0.5;" width="156" x="1648" y="5"/><text fill="#000000" font-family="sans-serif" font-size="20" lengthAdjust="spacing" textLength="142" x="1655" y="30.5645">:BuildingRepo</text><rect fill="#E2E2F0" height="37.2813" rx="2.5" ry="2.5" style="stroke:#181818;stroke-width:0.5;" width="156" x="1648" y="918.625"/><text fill="#000000" font-family="sans-serif" font-size="20" lengthAdjust="spacing" textLength="142" x="1655" y="944.1895">:BuildingRepo</text><rect fill="#E2E2F0" height="37.2813" rx="2.5" ry="2.5" style="stroke:#181818;stroke-width:0.5;" width="122" x="1814" y="5"/><text fill="#000000" font-family="sans-serif" font-size="20" lengthAdjust="spacing" textLength="108" x="1821" y="30.5645">:FloorRepo</text><rect fill="#E2E2F0" height="37.2813" rx="2.5" ry="2.5" style="stroke:#181818;stroke-width:0.5;" width="122" x="1814" y="918.625"/><text fill="#000000" font-family="sans-serif" font-size="20" lengthAdjust="spacing" textLength="108" x="1821" y="944.1895">:FloorRepo</text><rect fill="#E2E2F0" height="37.2813" rx="2.5" ry="2.5" style="stroke:#181818;stroke-width:0.5;" width="145" x="1946" y="5"/><text fill="#000000" font-family="sans-serif" font-size="20" lengthAdjust="spacing" textLength="131" x="1953" y="30.5645">:ElevatorMap</text><rect fill="#E2E2F0" height="37.2813" rx="2.5" ry="2.5" style="stroke:#181818;stroke-width:0.5;" width="145" x="1946" y="918.625"/><text fill="#000000" font-family="sans-serif" font-size="20" lengthAdjust="spacing" textLength="131" x="1953" y="944.1895">:ElevatorMap</text><rect fill="#E2E2F0" height="37.2813" rx="2.5" ry="2.5" style="stroke:#181818;stroke-width:0.5;" width="188" x="2101" y="5"/><text fill="#000000" font-family="sans-serif" font-size="20" lengthAdjust="spacing" textLength="174" x="2108" y="30.5645">building:Building</text><rect fill="#E2E2F0" height="37.2813" rx="2.5" ry="2.5" style="stroke:#181818;stroke-width:0.5;" width="188" x="2101" y="918.625"/><text fill="#000000" font-family="sans-serif" font-size="20" lengthAdjust="spacing" textLength="174" x="2108" y="944.1895">building:Building</text><rect fill="#E2E2F0" height="37.2813" rx="2.5" ry="2.5" style="stroke:#181818;stroke-width:0.5;" width="283" x="2299" y="918.625"/><text fill="#000000" font-family="sans-serif" font-size="20" lengthAdjust="spacing" textLength="269" x="2306" y="944.1895">:elevatorDTO:IElevatorDTO</text><rect fill="#FFFFFF" height="819.0625" style="stroke:#181818;stroke-width:1.0;" width="10" x="335" y="82.5625"/><rect fill="#FFFFFF" height="744.5" style="stroke:#181818;stroke-width:1.0;" width="10" x="807" y="119.8438"/><rect fill="#FFFFFF" height="669.9375" style="stroke:#181818;stroke-width:1.0;" width="10" x="1139" y="157.125"/><rect fill="#FFFFFF" height="30" style="stroke:#181818;stroke-width:1.0;" width="10" x="1549.5" y="484.375"/><rect fill="#FFFFFF" height="30" style="stroke:#181818;stroke-width:1.0;" width="10" x="1721" y="194.4063"/><rect fill="#FFFFFF" height="30" style="stroke:#181818;stroke-width:1.0;" width="10" x="1721" y="674.2188"/><rect fill="#FFFFFF" height="30" style="stroke:#181818;stroke-width:1.0;" width="10" x="1870" y="417.0938"/><rect fill="#FFFFFF" height="37.2813" style="stroke:#181818;stroke-width:1.0;" width="10" x="2013.5" y="741.5"/><rect fill="#FFFFFF" height="30" style="stroke:#181818;stroke-width:1.0;" width="10" x="2190" y="606.9375"/><ellipse cx="4.5" cy="81.8125" fill="none" rx="4" ry="4" style="stroke:#181818;stroke-width:1.5;"/><polygon fill="#181818" points="323,78.5625,333,82.5625,323,86.5625,327,82.5625" style="stroke:#181818;stroke-width:1.0;"/><line style="stroke:#181818;stroke-width:1.0;" x1="9" x2="329" y1="82.5625" y2="82.5625"/><text fill="#000000" font-family="sans-serif" font-size="20" font-weight="bold" lengthAdjust="spacing" textLength="14" x="12" y="75.8457">1</text><text fill="#000000" font-family="sans-serif" font-size="20" lengthAdjust="spacing" textLength="290" x="30" y="75.8457">POST /buildings/:id/elevators</text><polygon fill="#181818" points="795,115.8438,805,119.8438,795,123.8438,799,119.8438" style="stroke:#181818;stroke-width:1.0;"/><line style="stroke:#181818;stroke-width:1.0;" x1="345" x2="801" y1="119.8438" y2="119.8438"/><text fill="#000000" font-family="sans-serif" font-size="20" font-weight="bold" lengthAdjust="spacing" textLength="14" x="352" y="113.127">2</text><text fill="#000000" font-family="sans-serif" font-size="20" lengthAdjust="spacing" textLength="425" x="370" y="113.127">createElevator(elevatorDTO,buildingCode)</text><polygon fill="#181818" points="1127,153.125,1137,157.125,1127,161.125,1131,157.125" style="stroke:#181818;stroke-width:1.0;"/><line style="stroke:#181818;stroke-width:1.0;" x1="817" x2="1133" y1="157.125" y2="157.125"/><text fill="#000000" font-family="sans-serif" font-size="20" font-weight="bold" lengthAdjust="spacing" textLength="14" x="824" y="150.4082">3</text><text fill="#000000" font-family="sans-serif" font-size="20" lengthAdjust="spacing" textLength="285" x="842" y="150.4082">createElevator(elevatorDTO)</text><polygon fill="#181818" points="1709,190.4063,1719,194.4063,1709,198.4063,1713,194.4063" style="stroke:#181818;stroke-width:1.0;"/><line style="stroke:#181818;stroke-width:1.0;" x1="1149" x2="1715" y1="194.4063" y2="194.4063"/><text fill="#000000" font-family="sans-serif" font-size="20" font-weight="bold" lengthAdjust="spacing" textLength="14" x="1156" y="187.6895">4</text><text fill="#000000" font-family="sans-serif" font-size="20" lengthAdjust="spacing" textLength="441" x="1174" y="187.6895">findByDomainId(elevatorDTO.buildingCode)</text><polygon fill="#181818" points="1459,257.6875,1469,261.6875,1459,265.6875,1463,261.6875" style="stroke:#181818;stroke-width:1.0;"/><line style="stroke:#181818;stroke-width:1.0;" x1="1149" x2="1465" y1="261.6875" y2="261.6875"/><text fill="#000000" font-family="sans-serif" font-size="20" font-weight="bold" lengthAdjust="spacing" textLength="14" x="1156" y="254.9707">5</text><text fill="#000000" font-family="sans-serif" font-size="20" lengthAdjust="spacing" textLength="79" x="1174" y="254.9707">create()</text><rect fill="#E2E2F0" height="37.2813" rx="2.5" ry="2.5" style="stroke:#181818;stroke-width:0.5;" width="167" x="1471" y="232.4063"/><text fill="#000000" font-family="sans-serif" font-size="20" lengthAdjust="spacing" textLength="153" x="1478" y="257.9707">floorList:Floor[]</text><path d="M1559,285.6875 L1559,341.6875 L1905,341.6875 L1905,295.6875 L1895,285.6875 L1559,285.6875 " fill="#FEFFDD" style="stroke:#181818;stroke-width:0.5;"/><path d="M1895,285.6875 L1895,295.6875 L1905,295.6875 L1895,285.6875 " fill="#FEFFDD" style="stroke:#181818;stroke-width:0.5;"/><text fill="#000000" font-family="sans-serif" font-size="20" lengthAdjust="spacing" textLength="319" x="1565" y="309.252">we must check if the floorIds all</text><text fill="#000000" font-family="sans-serif" font-size="20" lengthAdjust="spacing" textLength="283" x="1565" y="332.5332">belong to the same building</text><path d="M1046,354.25 L1140,354.25 L1140,369.5313 L1130,379.5313 L1046,379.5313 L1046,354.25 " fill="#EEEEEE" style="stroke:#000000;stroke-width:1.5;"/><rect fill="none" height="168.125" style="stroke:#000000;stroke-width:1.5;" width="900" x="1046" y="354.25"/><text fill="#000000" font-family="sans-serif" font-size="20" font-weight="bold" lengthAdjust="spacing" textLength="49" x="1061" y="373.8145">loop</text><text fill="#000000" font-family="sans-serif" font-size="20" font-weight="bold" lengthAdjust="spacing" textLength="468" x="1155" y="374.8145">[for each floorId in elevatorDTO.floorIds]</text><polygon fill="#181818" points="1858,413.0938,1868,417.0938,1858,421.0938,1862,417.0938" style="stroke:#181818;stroke-width:1.0;"/><line style="stroke:#181818;stroke-width:1.0;" x1="1149" x2="1864" y1="417.0938" y2="417.0938"/><text fill="#000000" font-family="sans-serif" font-size="20" font-weight="bold" lengthAdjust="spacing" textLength="14" x="1156" y="410.377">6</text><text fill="#000000" font-family="sans-serif" font-size="20" lengthAdjust="spacing" textLength="247" x="1174" y="410.377">floor=findWithId(floorId)</text><polygon fill="#181818" points="1537.5,480.375,1547.5,484.375,1537.5,488.375,1541.5,484.375" style="stroke:#181818;stroke-width:1.0;"/><line style="stroke:#181818;stroke-width:1.0;" x1="1149" x2="1543.5" y1="484.375" y2="484.375"/><text fill="#000000" font-family="sans-serif" font-size="20" font-weight="bold" lengthAdjust="spacing" textLength="14" x="1156" y="477.6582">7</text><text fill="#000000" font-family="sans-serif" font-size="20" lengthAdjust="spacing" textLength="99" x="1174" y="477.6582">add(floor)</text><polygon fill="#181818" points="1258,554.6563,1268,558.6563,1258,562.6563,1262,558.6563" style="stroke:#181818;stroke-width:1.0;"/><line style="stroke:#181818;stroke-width:1.0;" x1="1149" x2="1264" y1="558.6563" y2="558.6563"/><text fill="#000000" font-family="sans-serif" font-size="20" font-weight="bold" lengthAdjust="spacing" textLength="14" x="1156" y="551.9395">8</text><text fill="#000000" font-family="sans-serif" font-size="20" lengthAdjust="spacing" textLength="79" x="1174" y="551.9395">create()</text><rect fill="#E2E2F0" height="37.2813" rx="2.5" ry="2.5" style="stroke:#181818;stroke-width:0.5;" width="191" x="1270" y="529.375"/><text fill="#000000" font-family="sans-serif" font-size="20" lengthAdjust="spacing" textLength="177" x="1277" y="554.9395">:elevator:Elevator</text><polygon fill="#181818" points="2178,602.9375,2188,606.9375,2178,610.9375,2182,606.9375" style="stroke:#181818;stroke-width:1.0;"/><line style="stroke:#181818;stroke-width:1.0;" x1="1149" x2="2184" y1="606.9375" y2="606.9375"/><text fill="#000000" font-family="sans-serif" font-size="20" font-weight="bold" lengthAdjust="spacing" textLength="14" x="1156" y="600.2207">9</text><text fill="#000000" font-family="sans-serif" font-size="20" lengthAdjust="spacing" textLength="311" x="1174" y="600.2207">building.elevator=newElevator</text><polygon fill="#181818" points="1709,670.2188,1719,674.2188,1709,678.2188,1713,674.2188" style="stroke:#181818;stroke-width:1.0;"/><line style="stroke:#181818;stroke-width:1.0;" x1="1149" x2="1715" y1="674.2188" y2="674.2188"/><text fill="#000000" font-family="sans-serif" font-size="20" font-weight="bold" lengthAdjust="spacing" textLength="28" x="1156" y="667.502">10</text><text fill="#000000" font-family="sans-serif" font-size="20" lengthAdjust="spacing" textLength="144" x="1188" y="667.502">save(building)</text><polygon fill="#181818" points="2001.5,737.5,2011.5,741.5,2001.5,745.5,2005.5,741.5" style="stroke:#181818;stroke-width:1.0;"/><line style="stroke:#181818;stroke-width:1.0;" x1="1149" x2="2007.5" y1="741.5" y2="741.5"/><text fill="#000000" font-family="sans-serif" font-size="20" font-weight="bold" lengthAdjust="spacing" textLength="28" x="1156" y="734.7832">11</text><text fill="#000000" font-family="sans-serif" font-size="20" lengthAdjust="spacing" textLength="152" x="1188" y="734.7832">toDto(elevator)</text><polygon fill="#181818" points="2287,774.7813,2297,778.7813,2287,782.7813,2291,778.7813" style="stroke:#181818;stroke-width:1.0;"/><line style="stroke:#181818;stroke-width:1.0;" x1="2018.5" x2="2293" y1="778.7813" y2="778.7813"/><text fill="#000000" font-family="sans-serif" font-size="20" font-weight="bold" lengthAdjust="spacing" textLength="28" x="2025.5" y="772.0645">12</text><text fill="#000000" font-family="sans-serif" font-size="20" lengthAdjust="spacing" textLength="79" x="2057.5" y="772.0645">create()</text><rect fill="#E2E2F0" height="37.2813" rx="2.5" ry="2.5" style="stroke:#181818;stroke-width:0.5;" width="283" x="2299" y="749.5"/><text fill="#000000" font-family="sans-serif" font-size="20" lengthAdjust="spacing" textLength="269" x="2306" y="775.0645">:elevatorDTO:IElevatorDTO</text><polygon fill="#181818" points="828,823.0625,818,827.0625,828,831.0625,824,827.0625" style="stroke:#181818;stroke-width:1.0;"/><line style="stroke:#181818;stroke-width:1.0;stroke-dasharray:2.0,2.0;" x1="822" x2="1143" y1="827.0625" y2="827.0625"/><text fill="#000000" font-family="sans-serif" font-size="20" font-weight="bold" lengthAdjust="spacing" textLength="28" x="834" y="820.3457">13</text><text fill="#000000" font-family="sans-serif" font-size="20" lengthAdjust="spacing" textLength="206" x="866" y="820.3457">sucess(elevatorDTO)</text><polygon fill="#181818" points="356,860.3438,346,864.3438,356,868.3438,352,864.3438" style="stroke:#181818;stroke-width:1.0;"/><line style="stroke:#181818;stroke-width:1.0;stroke-dasharray:2.0,2.0;" x1="350" x2="811" y1="864.3438" y2="864.3438"/><text fill="#000000" font-family="sans-serif" font-size="20" font-weight="bold" lengthAdjust="spacing" textLength="28" x="362" y="857.627">14</text><text fill="#000000" font-family="sans-serif" font-size="20" lengthAdjust="spacing" textLength="206" x="394" y="857.627">sucess(elevatorDTO)</text><polygon fill="#181818" points="11,897.625,1,901.625,11,905.625,7,901.625" style="stroke:#181818;stroke-width:1.0;"/><line style="stroke:#181818;stroke-width:1.0;stroke-dasharray:2.0,2.0;" x1="5" x2="339" y1="901.625" y2="901.625"/><text fill="#000000" font-family="sans-serif" font-size="20" font-weight="bold" lengthAdjust="spacing" textLength="28" x="17" y="894.9082">15</text><text fill="#000000" font-family="sans-serif" font-size="20" lengthAdjust="spacing" textLength="124" x="49" y="894.9082">201 Created</text><!--SRC=[ZPFBZjem58RtVegZMS6e3DDPHfrM1OA4n0WKc7PHTM7Y4x08DaeSHktJzzY9WqtLoownl__tkTP7gSwyugTIvqSK8B3WJMdcMfcD_8dmzCXuOxHgJZki6956vlBCbO5izRfDWTTmbwGbNhZHLQORWtSHDTrconYQadMbonAhcDnaNs9mWzL5vZT-wJBjCEomde_1-NAnsJgoABMkbh8soTn-VViUWvCiNQzQoqaZIo7LFiEpld6xGixaT-BbypeE_uMVRnvwNIndZjbrx_GFnk1ikufJf8DaaLv_xXZxf4SVknOai5vHgcFlMeyJASPUMpEU6qcVsEACjIgIkzuaa5T8jzv-43pwpbjEjS3XrSWAcLEJY-tRtqm27Q7CugHggvv08PMO_9Zf4vTg8KBTmnyUTqecyEQWytLjlx_l8neCcT84LN9_CA2B5c00RmYdfZQG7p0_WYp0713Sg2n43RmiWQ0TbbhjmMXtM_CJWe-AeH9WhHbfpb3e2YYaWxS0gI1CnZkJgO_KLy3UFDiwV9NcG3Neq26XVOuEfeCWRNyK9avsN7GEiRxBEjIx8yh2bywkLbmvtoitk4cV-eDFx5dXcszvq22BHmro1pUDh_a51zxnlzjhjooXVioCxcSb4DCrimYHLFGucS3IOixmkWHrasDTntCRAEpajWCVhDq_D6vBFen6FV_q-1wcBXmHSkrQ_W80]--></g></svg>