<?xml version="1.0" encoding="UTF-8" standalone="no"?><svg xmlns="http://www.w3.org/2000/svg" xmlns:xlink="http://www.w3.org/1999/xlink" contentStyleType="text/css" height="445px" preserveAspectRatio="none" style="width:671px;height:445px;background:#FFFFFF;" version="1.1" viewBox="0 0 671 445" width="671px" zoomAndPan="magnify"><defs/><g><rect fill="#FFFFFF" height="290.4398" style="stroke:#181818;stroke-width:1.0;" width="10" x="310.625" y="90.4799"/><rect fill="#FFFFFF" height="28" style="stroke:#181818;stroke-width:1.0;" width="10" x="315.625" y="222.1999"/><rect fill="#FFFFFF" height="41.24" style="stroke:#181818;stroke-width:1.0;" width="10" x="639.25" y="131.7199"/><rect fill="#FFFFFF" height="41.24" style="stroke:#181818;stroke-width:1.0;" width="10" x="639.25" y="298.4398"/><line style="stroke:#181818;stroke-width:0.5;stroke-dasharray:5.0,5.0;" x1="315.625" x2="315.625" y1="47.24" y2="398.9198"/><line style="stroke:#181818;stroke-width:0.5;stroke-dasharray:5.0,5.0;" x1="644.25" x2="644.25" y1="47.24" y2="398.9198"/><rect fill="#E2E2F0" height="41.24" rx="2.5" ry="2.5" style="stroke:#181818;stroke-width:0.5;" width="38" x="296.625" y="5"/><text fill="#000000" font-family="sans-serif" font-size="20" lengthAdjust="spacing" textLength="24" x="303.625" y="33.38">BE</text><rect fill="#E2E2F0" height="41.24" rx="2.5" ry="2.5" style="stroke:#181818;stroke-width:0.5;" width="38" x="296.625" y="397.9198"/><text fill="#000000" font-family="sans-serif" font-size="20" lengthAdjust="spacing" textLength="24" x="303.625" y="426.2998">BE</text><rect fill="#E2E2F0" height="41.24" rx="2.5" ry="2.5" style="stroke:#181818;stroke-width:0.5;" width="42" x="623.25" y="5"/><text fill="#000000" font-family="sans-serif" font-size="20" lengthAdjust="spacing" textLength="28" x="630.25" y="33.38">DB</text><rect fill="#E2E2F0" height="41.24" rx="2.5" ry="2.5" style="stroke:#181818;stroke-width:0.5;" width="42" x="623.25" y="397.9198"/><text fill="#000000" font-family="sans-serif" font-size="20" lengthAdjust="spacing" textLength="28" x="630.25" y="426.2998">DB</text><rect fill="#FFFFFF" height="290.4398" style="stroke:#181818;stroke-width:1.0;" width="10" x="310.625" y="90.4799"/><rect fill="#FFFFFF" height="28" style="stroke:#181818;stroke-width:1.0;" width="10" x="315.625" y="222.1999"/><rect fill="#FFFFFF" height="41.24" style="stroke:#181818;stroke-width:1.0;" width="10" x="639.25" y="131.7199"/><rect fill="#FFFFFF" height="41.24" style="stroke:#181818;stroke-width:1.0;" width="10" x="639.25" y="298.4398"/><ellipse cx="4.5" cy="89.7299" fill="none" rx="4" ry="4" style="stroke:#181818;stroke-width:1.5;"/><polygon fill="#181818" points="298.625,86.4799,308.625,90.4799,298.625,94.4799,302.625,90.4799" style="stroke:#181818;stroke-width:1.0;"/><line style="stroke:#181818;stroke-width:1.0;" x1="9" x2="304.625" y1="90.4799" y2="90.4799"/><text fill="#000000" font-family="sans-serif" font-size="20" font-weight="bold" lengthAdjust="spacing" textLength="11.625" x="12" y="82.62">1</text><text fill="#000000" font-family="sans-serif" font-size="20" lengthAdjust="spacing" textLength="268" x="27.625" y="82.62">POST /buildings/:id/elevators</text><polygon fill="#181818" points="627.25,127.7199,637.25,131.7199,627.25,135.7199,631.25,131.7199" style="stroke:#181818;stroke-width:1.0;"/><line style="stroke:#181818;stroke-width:1.0;" x1="320.625" x2="633.25" y1="131.7199" y2="131.7199"/><text fill="#000000" font-family="sans-serif" font-size="20" font-weight="bold" lengthAdjust="spacing" textLength="11.625" x="327.625" y="123.8599">2</text><text fill="#000000" font-family="sans-serif" font-size="20" lengthAdjust="spacing" textLength="177" x="343.25" y="123.8599">get building with id</text><polygon fill="#181818" points="331.625,168.9599,321.625,172.9599,331.625,176.9599,327.625,172.9599" style="stroke:#181818;stroke-width:1.0;"/><line style="stroke:#181818;stroke-width:1.0;stroke-dasharray:2.0,2.0;" x1="325.625" x2="643.25" y1="172.9599" y2="172.9599"/><text fill="#000000" font-family="sans-serif" font-size="20" font-weight="bold" lengthAdjust="spacing" textLength="11.625" x="337.625" y="165.0999">3</text><text fill="#000000" font-family="sans-serif" font-size="20" lengthAdjust="spacing" textLength="75" x="353.25" y="165.0999">building</text><line style="stroke:#181818;stroke-width:1.0;" x1="325.625" x2="367.625" y1="214.1999" y2="214.1999"/><line style="stroke:#181818;stroke-width:1.0;" x1="367.625" x2="367.625" y1="214.1999" y2="227.1999"/><line style="stroke:#181818;stroke-width:1.0;" x1="326.625" x2="367.625" y1="227.1999" y2="227.1999"/><polygon fill="#181818" points="336.625,223.1999,326.625,227.1999,336.625,231.1999,332.625,227.1999" style="stroke:#181818;stroke-width:1.0;"/><text fill="#000000" font-family="sans-serif" font-size="20" font-weight="bold" lengthAdjust="spacing" textLength="11.625" x="332.625" y="206.3399">4</text><text fill="#000000" font-family="sans-serif" font-size="20" lengthAdjust="spacing" textLength="138" x="348.25" y="206.3399">create elevator</text><polygon fill="#181818" points="627.25,294.4398,637.25,298.4398,627.25,302.4398,631.25,298.4398" style="stroke:#181818;stroke-width:1.0;"/><line style="stroke:#181818;stroke-width:1.0;" x1="320.625" x2="633.25" y1="298.4398" y2="298.4398"/><text fill="#000000" font-family="sans-serif" font-size="20" font-weight="bold" lengthAdjust="spacing" textLength="11.625" x="327.625" y="290.5799">5</text><text fill="#000000" font-family="sans-serif" font-size="20" lengthAdjust="spacing" textLength="284" x="343.25" y="290.5799">edit building with new elevator</text><polygon fill="#181818" points="331.625,335.6798,321.625,339.6798,331.625,343.6798,327.625,339.6798" style="stroke:#181818;stroke-width:1.0;"/><line style="stroke:#181818;stroke-width:1.0;stroke-dasharray:2.0,2.0;" x1="325.625" x2="643.25" y1="339.6798" y2="339.6798"/><text fill="#000000" font-family="sans-serif" font-size="20" font-weight="bold" lengthAdjust="spacing" textLength="11.625" x="337.625" y="331.8198">6</text><text fill="#000000" font-family="sans-serif" font-size="20" lengthAdjust="spacing" textLength="75" x="353.25" y="331.8198">building</text><polygon fill="#181818" points="11,376.9198,1,380.9198,11,384.9198,7,380.9198" style="stroke:#181818;stroke-width:1.0;"/><line style="stroke:#181818;stroke-width:1.0;stroke-dasharray:2.0,2.0;" x1="5" x2="314.625" y1="380.9198" y2="380.9198"/><text fill="#000000" font-family="sans-serif" font-size="20" font-weight="bold" lengthAdjust="spacing" textLength="11.625" x="17" y="373.0598">7</text><text fill="#000000" font-family="sans-serif" font-size="20" lengthAdjust="spacing" textLength="111" x="32.625" y="373.0598">201 Created</text><!--SRC=[ZOxD2e9058NtzoakxaLpAL4mQTk2Ue79kTabdGcz9lJqZOQKqQBTuV2Td_RAzgORNLUkk991GsVTLR9rLWxy84nYq9quszKdQi2JmWNVj1LKEUeM0vK7CpjJevsf063jmjN0fRZV7OuOdJgk3DkoZL8s4LLqr-AQ5dGXx2Lv5ZpkGxubnP84fmZsB1TaysOp1PuAfuK914EVoAjk98g61dEQdQr-XEOVoF3t2KlzZvB_xi0o35z04YzmCpuoN-jF]--></g></svg>