<?xml version="1.0" encoding="UTF-8" standalone="no"?><svg xmlns="http://www.w3.org/2000/svg" xmlns:xlink="http://www.w3.org/1999/xlink" contentStyleType="text/css" height="409px" preserveAspectRatio="none" style="width:727px;height:409px;background:#FFFFFF;" version="1.1" viewBox="0 0 727 409" width="727px" zoomAndPan="magnify"><defs/><g><rect fill="#FFFFFF" height="266.6875" style="stroke:#181818;stroke-width:1.0;" width="10" x="335" y="82.5625"/><rect fill="#FFFFFF" height="28" style="stroke:#181818;stroke-width:1.0;" width="10" x="340" y="202.4063"/><rect fill="#FFFFFF" height="37.2813" style="stroke:#181818;stroke-width:1.0;" width="10" x="695" y="119.8438"/><rect fill="#FFFFFF" height="37.2813" style="stroke:#181818;stroke-width:1.0;" width="10" x="695" y="274.6875"/><line style="stroke:#181818;stroke-width:0.5;stroke-dasharray:5.0,5.0;" x1="339.5" x2="339.5" y1="43.2813" y2="367.25"/><line style="stroke:#181818;stroke-width:0.5;stroke-dasharray:5.0,5.0;" x1="699.5" x2="699.5" y1="43.2813" y2="367.25"/><rect fill="#E2E2F0" height="37.2813" rx="2.5" ry="2.5" style="stroke:#181818;stroke-width:0.5;" width="41" x="319.5" y="5"/><text fill="#000000" font-family="sans-serif" font-size="20" lengthAdjust="spacing" textLength="27" x="326.5" y="30.5645">BE</text><rect fill="#E2E2F0" height="37.2813" rx="2.5" ry="2.5" style="stroke:#181818;stroke-width:0.5;" width="41" x="319.5" y="366.25"/><text fill="#000000" font-family="sans-serif" font-size="20" lengthAdjust="spacing" textLength="27" x="326.5" y="391.8145">BE</text><rect fill="#E2E2F0" height="37.2813" rx="2.5" ry="2.5" style="stroke:#181818;stroke-width:0.5;" width="43" x="678.5" y="5"/><text fill="#000000" font-family="sans-serif" font-size="20" lengthAdjust="spacing" textLength="29" x="685.5" y="30.5645">DB</text><rect fill="#E2E2F0" height="37.2813" rx="2.5" ry="2.5" style="stroke:#181818;stroke-width:0.5;" width="43" x="678.5" y="366.25"/><text fill="#000000" font-family="sans-serif" font-size="20" lengthAdjust="spacing" textLength="29" x="685.5" y="391.8145">DB</text><rect fill="#FFFFFF" height="266.6875" style="stroke:#181818;stroke-width:1.0;" width="10" x="335" y="82.5625"/><rect fill="#FFFFFF" height="28" style="stroke:#181818;stroke-width:1.0;" width="10" x="340" y="202.4063"/><rect fill="#FFFFFF" height="37.2813" style="stroke:#181818;stroke-width:1.0;" width="10" x="695" y="119.8438"/><rect fill="#FFFFFF" height="37.2813" style="stroke:#181818;stroke-width:1.0;" width="10" x="695" y="274.6875"/><ellipse cx="4.5" cy="81.8125" fill="none" rx="4" ry="4" style="stroke:#181818;stroke-width:1.5;"/><polygon fill="#181818" points="323,78.5625,333,82.5625,323,86.5625,327,82.5625" style="stroke:#181818;stroke-width:1.0;"/><line style="stroke:#181818;stroke-width:1.0;" x1="9" x2="329" y1="82.5625" y2="82.5625"/><text fill="#000000" font-family="sans-serif" font-size="20" font-weight="bold" lengthAdjust="spacing" textLength="14" x="12" y="75.8457">1</text><text fill="#000000" font-family="sans-serif" font-size="20" lengthAdjust="spacing" textLength="290" x="30" y="75.8457">POST /buildings/:id/elevators</text><polygon fill="#181818" points="683,115.8438,693,119.8438,683,123.8438,687,119.8438" style="stroke:#181818;stroke-width:1.0;"/><line style="stroke:#181818;stroke-width:1.0;" x1="345" x2="689" y1="119.8438" y2="119.8438"/><text fill="#000000" font-family="sans-serif" font-size="20" font-weight="bold" lengthAdjust="spacing" textLength="14" x="352" y="113.127">2</text><text fill="#000000" font-family="sans-serif" font-size="20" lengthAdjust="spacing" textLength="197" x="370" y="113.127">get building with id</text><polygon fill="#181818" points="356,153.125,346,157.125,356,161.125,352,157.125" style="stroke:#181818;stroke-width:1.0;"/><line style="stroke:#181818;stroke-width:1.0;stroke-dasharray:2.0,2.0;" x1="350" x2="699" y1="157.125" y2="157.125"/><text fill="#000000" font-family="sans-serif" font-size="20" font-weight="bold" lengthAdjust="spacing" textLength="14" x="362" y="150.4082">3</text><text fill="#000000" font-family="sans-serif" font-size="20" lengthAdjust="spacing" textLength="83" x="380" y="150.4082">building</text><line style="stroke:#181818;stroke-width:1.0;" x1="350" x2="392" y1="194.4063" y2="194.4063"/><line style="stroke:#181818;stroke-width:1.0;" x1="392" x2="392" y1="194.4063" y2="207.4063"/><line style="stroke:#181818;stroke-width:1.0;" x1="351" x2="392" y1="207.4063" y2="207.4063"/><polygon fill="#181818" points="361,203.4063,351,207.4063,361,211.4063,357,207.4063" style="stroke:#181818;stroke-width:1.0;"/><text fill="#000000" font-family="sans-serif" font-size="20" font-weight="bold" lengthAdjust="spacing" textLength="14" x="357" y="187.6895">4</text><text fill="#000000" font-family="sans-serif" font-size="20" lengthAdjust="spacing" textLength="150" x="375" y="187.6895">create elevator</text><polygon fill="#181818" points="683,270.6875,693,274.6875,683,278.6875,687,274.6875" style="stroke:#181818;stroke-width:1.0;"/><line style="stroke:#181818;stroke-width:1.0;" x1="345" x2="689" y1="274.6875" y2="274.6875"/><text fill="#000000" font-family="sans-serif" font-size="20" font-weight="bold" lengthAdjust="spacing" textLength="14" x="352" y="267.9707">5</text><text fill="#000000" font-family="sans-serif" font-size="20" lengthAdjust="spacing" textLength="313" x="370" y="267.9707">edit building with new elevator</text><polygon fill="#181818" points="356,307.9688,346,311.9688,356,315.9688,352,311.9688" style="stroke:#181818;stroke-width:1.0;"/><line style="stroke:#181818;stroke-width:1.0;stroke-dasharray:2.0,2.0;" x1="350" x2="699" y1="311.9688" y2="311.9688"/><text fill="#000000" font-family="sans-serif" font-size="20" font-weight="bold" lengthAdjust="spacing" textLength="14" x="362" y="305.252">6</text><text fill="#000000" font-family="sans-serif" font-size="20" lengthAdjust="spacing" textLength="83" x="380" y="305.252">building</text><polygon fill="#181818" points="11,345.25,1,349.25,11,353.25,7,349.25" style="stroke:#181818;stroke-width:1.0;"/><line style="stroke:#181818;stroke-width:1.0;stroke-dasharray:2.0,2.0;" x1="5" x2="339" y1="349.25" y2="349.25"/><text fill="#000000" font-family="sans-serif" font-size="20" font-weight="bold" lengthAdjust="spacing" textLength="14" x="17" y="342.5332">7</text><text fill="#000000" font-family="sans-serif" font-size="20" lengthAdjust="spacing" textLength="124" x="35" y="342.5332">201 Created</text><!--SRC=[ZOxD2e9058NtzoakxaLpAL4mQTk2Ue79kTabdGcz9lJqZOQKqQBTuV2Td_RAzgORNLUkk991GsVTLR9rLWxy84nYq9quszKdQi2JmWNVj1LKEUeM0vK7CpjJevsf063jmjN0fRZV7OuOdJgk3DkoZL8s4LLqr-AQ5dGXx2Lv5ZpkGxubnP84fmZsB1TaysOp1PuAfuK914EVoAjk98g61dEQdQr-XEOVoF3t2KlzZvB_xi0o35z04YzmCpuoN-jF]--></g></svg>