<?xml version="1.0" encoding="UTF-8" standalone="no"?><svg xmlns="http://www.w3.org/2000/svg" xmlns:xlink="http://www.w3.org/1999/xlink" contentStyleType="text/css" height="973px" preserveAspectRatio="none" style="width:2143px;height:973px;background:#FFFFFF;" version="1.1" viewBox="0 0 2143 973" width="2143px" zoomAndPan="magnify"><defs/><g><rect fill="#FFFFFF" height="819.0796" style="stroke:#181818;stroke-width:1.0;" width="10" x="189.625" y="90.4799"/><rect fill="#FFFFFF" height="736.5996" style="stroke:#181818;stroke-width:1.0;" width="10" x="496.25" y="131.7199"/><rect fill="#FFFFFF" height="654.1197" style="stroke:#181818;stroke-width:1.0;" width="10" x="802.875" y="172.9599"/><rect fill="#FFFFFF" height="30" style="stroke:#181818;stroke-width:1.0;" width="10" x="1179.5" y="531.8797"/><rect fill="#FFFFFF" height="30" style="stroke:#181818;stroke-width:1.0;" width="10" x="1338.5" y="214.1999"/><rect fill="#FFFFFF" height="30" style="stroke:#181818;stroke-width:1.0;" width="10" x="1476" y="460.6397"/><rect fill="#FFFFFF" height="41.24" style="stroke:#181818;stroke-width:1.0;" width="10" x="1610" y="733.5996"/><rect fill="#FFFFFF" height="30" style="stroke:#181818;stroke-width:1.0;" width="10" x="1772.5" y="662.3596"/><rect fill="none" height="183.9599" style="stroke:#000000;stroke-width:1.5;" width="829.625" x="717.875" y="385.9198"/><line style="stroke:#181818;stroke-width:0.5;stroke-dasharray:5.0,5.0;" x1="194.625" x2="194.625" y1="47.24" y2="927.5595"/><line style="stroke:#181818;stroke-width:0.5;stroke-dasharray:5.0,5.0;" x1="500.75" x2="500.75" y1="47.24" y2="927.5595"/><line style="stroke:#181818;stroke-width:0.5;stroke-dasharray:5.0,5.0;" x1="807.875" x2="807.875" y1="47.24" y2="927.5595"/><line style="stroke:#181818;stroke-width:0.5;stroke-dasharray:5.0,5.0;" x1="1009.5" x2="1009.5" y1="612.9997" y2="927.5595"/><line style="stroke:#181818;stroke-width:0.5;stroke-dasharray:5.0,5.0;" x1="1184.5" x2="1184.5" y1="288.3199" y2="927.5595"/><line style="stroke:#181818;stroke-width:0.5;stroke-dasharray:5.0,5.0;" x1="1343.5" x2="1343.5" y1="47.24" y2="927.5595"/><line style="stroke:#181818;stroke-width:0.5;stroke-dasharray:5.0,5.0;" x1="1480.5" x2="1480.5" y1="47.24" y2="927.5595"/><line style="stroke:#181818;stroke-width:0.5;stroke-dasharray:5.0,5.0;" x1="1614.5" x2="1614.5" y1="47.24" y2="927.5595"/><line style="stroke:#181818;stroke-width:0.5;stroke-dasharray:5.0,5.0;" x1="1777.5" x2="1777.5" y1="47.24" y2="927.5595"/><line style="stroke:#181818;stroke-width:0.5;stroke-dasharray:5.0,5.0;" x1="2004.5" x2="2004.5" y1="777.7196" y2="927.5595"/><rect fill="#E2E2F0" height="41.24" rx="2.5" ry="2.5" style="stroke:#181818;stroke-width:0.5;" width="148" x="120.625" y="5"/><text fill="#000000" font-family="sans-serif" font-size="20" lengthAdjust="spacing" textLength="134" x="127.625" y="33.38">:ElevatorRoute</text><rect fill="#E2E2F0" height="41.24" rx="2.5" ry="2.5" style="stroke:#181818;stroke-width:0.5;" width="148" x="120.625" y="926.5595"/><text fill="#000000" font-family="sans-serif" font-size="20" lengthAdjust="spacing" textLength="134" x="127.625" y="954.9395">:ElevatorRoute</text><rect fill="#E2E2F0" height="41.24" rx="2.5" ry="2.5" style="stroke:#181818;stroke-width:0.5;" width="187" x="407.75" y="5"/><text fill="#000000" font-family="sans-serif" font-size="20" lengthAdjust="spacing" textLength="173" x="414.75" y="33.38">:ElevatorController</text><rect fill="#E2E2F0" height="41.24" rx="2.5" ry="2.5" style="stroke:#181818;stroke-width:0.5;" width="187" x="407.75" y="926.5595"/><text fill="#000000" font-family="sans-serif" font-size="20" lengthAdjust="spacing" textLength="173" x="414.75" y="954.9395">:ElevatorController</text><rect fill="#E2E2F0" height="41.24" rx="2.5" ry="2.5" style="stroke:#181818;stroke-width:0.5;" width="160" x="727.875" y="5"/><text fill="#000000" font-family="sans-serif" font-size="20" lengthAdjust="spacing" textLength="146" x="734.875" y="33.38">:ElevatorService</text><rect fill="#E2E2F0" height="41.24" rx="2.5" ry="2.5" style="stroke:#181818;stroke-width:0.5;" width="160" x="727.875" y="926.5595"/><text fill="#000000" font-family="sans-serif" font-size="20" lengthAdjust="spacing" textLength="146" x="734.875" y="954.9395">:ElevatorService</text><rect fill="#E2E2F0" height="41.24" rx="2.5" ry="2.5" style="stroke:#181818;stroke-width:0.5;" width="174" x="922.5" y="926.5595"/><text fill="#000000" font-family="sans-serif" font-size="20" lengthAdjust="spacing" textLength="160" x="929.5" y="954.9395">:elevator:Elevator</text><rect fill="#E2E2F0" height="41.24" rx="2.5" ry="2.5" style="stroke:#181818;stroke-width:0.5;" width="156" x="1106.5" y="926.5595"/><text fill="#000000" font-family="sans-serif" font-size="20" lengthAdjust="spacing" textLength="142" x="1113.5" y="954.9395">floorList:Floor[]</text><rect fill="#E2E2F0" height="41.24" rx="2.5" ry="2.5" style="stroke:#181818;stroke-width:0.5;" width="142" x="1272.5" y="5"/><text fill="#000000" font-family="sans-serif" font-size="20" lengthAdjust="spacing" textLength="128" x="1279.5" y="33.38">:BuildingRepo</text><rect fill="#E2E2F0" height="41.24" rx="2.5" ry="2.5" style="stroke:#181818;stroke-width:0.5;" width="142" x="1272.5" y="926.5595"/><text fill="#000000" font-family="sans-serif" font-size="20" lengthAdjust="spacing" textLength="128" x="1279.5" y="954.9395">:BuildingRepo</text><rect fill="#E2E2F0" height="41.24" rx="2.5" ry="2.5" style="stroke:#181818;stroke-width:0.5;" width="113" x="1424.5" y="5"/><text fill="#000000" font-family="sans-serif" font-size="20" lengthAdjust="spacing" textLength="99" x="1431.5" y="33.38">:FloorRepo</text><rect fill="#E2E2F0" height="41.24" rx="2.5" ry="2.5" style="stroke:#181818;stroke-width:0.5;" width="113" x="1424.5" y="926.5595"/><text fill="#000000" font-family="sans-serif" font-size="20" lengthAdjust="spacing" textLength="99" x="1431.5" y="954.9395">:FloorRepo</text><rect fill="#E2E2F0" height="41.24" rx="2.5" ry="2.5" style="stroke:#181818;stroke-width:0.5;" width="135" x="1547.5" y="5"/><text fill="#000000" font-family="sans-serif" font-size="20" lengthAdjust="spacing" textLength="121" x="1554.5" y="33.38">:ElevatorMap</text><rect fill="#E2E2F0" height="41.24" rx="2.5" ry="2.5" style="stroke:#181818;stroke-width:0.5;" width="135" x="1547.5" y="926.5595"/><text fill="#000000" font-family="sans-serif" font-size="20" lengthAdjust="spacing" textLength="121" x="1554.5" y="954.9395">:ElevatorMap</text><rect fill="#E2E2F0" height="41.24" rx="2.5" ry="2.5" style="stroke:#181818;stroke-width:0.5;" width="170" x="1692.5" y="5"/><text fill="#000000" font-family="sans-serif" font-size="20" lengthAdjust="spacing" textLength="156" x="1699.5" y="33.38">building:Building</text><rect fill="#E2E2F0" height="41.24" rx="2.5" ry="2.5" style="stroke:#181818;stroke-width:0.5;" width="170" x="1692.5" y="926.5595"/><text fill="#000000" font-family="sans-serif" font-size="20" lengthAdjust="spacing" textLength="156" x="1699.5" y="954.9395">building:Building</text><rect fill="#E2E2F0" height="41.24" rx="2.5" ry="2.5" style="stroke:#181818;stroke-width:0.5;" width="265" x="1872.5" y="926.5595"/><text fill="#000000" font-family="sans-serif" font-size="20" lengthAdjust="spacing" textLength="251" x="1879.5" y="954.9395">:elevatorDTO:IElevatorDTO</text><rect fill="#FFFFFF" height="819.0796" style="stroke:#181818;stroke-width:1.0;" width="10" x="189.625" y="90.4799"/><rect fill="#FFFFFF" height="736.5996" style="stroke:#181818;stroke-width:1.0;" width="10" x="496.25" y="131.7199"/><rect fill="#FFFFFF" height="654.1197" style="stroke:#181818;stroke-width:1.0;" width="10" x="802.875" y="172.9599"/><rect fill="#FFFFFF" height="30" style="stroke:#181818;stroke-width:1.0;" width="10" x="1179.5" y="531.8797"/><rect fill="#FFFFFF" height="30" style="stroke:#181818;stroke-width:1.0;" width="10" x="1338.5" y="214.1999"/><rect fill="#FFFFFF" height="30" style="stroke:#181818;stroke-width:1.0;" width="10" x="1476" y="460.6397"/><rect fill="#FFFFFF" height="41.24" style="stroke:#181818;stroke-width:1.0;" width="10" x="1610" y="733.5996"/><rect fill="#FFFFFF" height="30" style="stroke:#181818;stroke-width:1.0;" width="10" x="1772.5" y="662.3596"/><ellipse cx="4.5" cy="89.7299" fill="none" rx="4" ry="4" style="stroke:#181818;stroke-width:1.5;"/><polygon fill="#181818" points="177.625,86.4799,187.625,90.4799,177.625,94.4799,181.625,90.4799" style="stroke:#181818;stroke-width:1.0;"/><line style="stroke:#181818;stroke-width:1.0;" x1="9" x2="183.625" y1="90.4799" y2="90.4799"/><text fill="#000000" font-family="sans-serif" font-size="20" font-weight="bold" lengthAdjust="spacing" textLength="11.625" x="12" y="82.62">1</text><text fill="#000000" font-family="sans-serif" font-size="20" lengthAdjust="spacing" textLength="147" x="27.625" y="82.62">POST /elevators</text><polygon fill="#181818" points="484.25,127.7199,494.25,131.7199,484.25,135.7199,488.25,131.7199" style="stroke:#181818;stroke-width:1.0;"/><line style="stroke:#181818;stroke-width:1.0;" x1="199.625" x2="490.25" y1="131.7199" y2="131.7199"/><text fill="#000000" font-family="sans-serif" font-size="20" font-weight="bold" lengthAdjust="spacing" textLength="11.625" x="206.625" y="123.8599">2</text><text fill="#000000" font-family="sans-serif" font-size="20" lengthAdjust="spacing" textLength="262" x="222.25" y="123.8599">createElevator(elevatorDTO)</text><polygon fill="#181818" points="790.875,168.9599,800.875,172.9599,790.875,176.9599,794.875,172.9599" style="stroke:#181818;stroke-width:1.0;"/><line style="stroke:#181818;stroke-width:1.0;" x1="506.25" x2="796.875" y1="172.9599" y2="172.9599"/><text fill="#000000" font-family="sans-serif" font-size="20" font-weight="bold" lengthAdjust="spacing" textLength="11.625" x="513.25" y="165.0999">3</text><text fill="#000000" font-family="sans-serif" font-size="20" lengthAdjust="spacing" textLength="262" x="528.875" y="165.0999">createElevator(elevatorDTO)</text><polygon fill="#181818" points="1326.5,210.1999,1336.5,214.1999,1326.5,218.1999,1330.5,214.1999" style="stroke:#181818;stroke-width:1.0;"/><line style="stroke:#181818;stroke-width:1.0;" x1="812.875" x2="1332.5" y1="214.1999" y2="214.1999"/><text fill="#000000" font-family="sans-serif" font-size="20" font-weight="bold" lengthAdjust="spacing" textLength="11.625" x="819.875" y="206.3399">4</text><text fill="#000000" font-family="sans-serif" font-size="20" lengthAdjust="spacing" textLength="409" x="835.5" y="206.3399">findByDomainId(elevatorDTO.buildingCode)</text><polygon fill="#181818" points="1094.5,281.4398,1104.5,285.4398,1094.5,289.4398,1098.5,285.4398" style="stroke:#181818;stroke-width:1.0;"/><line style="stroke:#181818;stroke-width:1.0;" x1="812.875" x2="1100.5" y1="285.4398" y2="285.4398"/><text fill="#000000" font-family="sans-serif" font-size="20" font-weight="bold" lengthAdjust="spacing" textLength="11.625" x="819.875" y="277.5799">5</text><text fill="#000000" font-family="sans-serif" font-size="20" lengthAdjust="spacing" textLength="70" x="835.5" y="277.5799">create()</text><rect fill="#E2E2F0" height="41.24" rx="2.5" ry="2.5" style="stroke:#181818;stroke-width:0.5;" width="156" x="1106.5" y="252.1999"/><text fill="#000000" font-family="sans-serif" font-size="20" lengthAdjust="spacing" textLength="142" x="1113.5" y="280.5799">floorList:Floor[]</text><path d="M1189,309.4398 L1189,373.4398 L1510,373.4398 L1510,319.4398 L1500,309.4398 L1189,309.4398 " fill="#FEFFDD" style="stroke:#181818;stroke-width:0.5;"/><path d="M1500,309.4398 L1500,319.4398 L1510,319.4398 L1500,309.4398 " fill="#FEFFDD" style="stroke:#181818;stroke-width:0.5;"/><text fill="#000000" font-family="sans-serif" font-size="20" lengthAdjust="spacing" textLength="295" x="1195" y="335.8198">we must check if the floorIds all</text><text fill="#000000" font-family="sans-serif" font-size="20" lengthAdjust="spacing" textLength="259" x="1195" y="363.0598">belong to the same building</text><path d="M717.875,385.9198 L806.375,385.9198 L806.375,405.1598 L796.375,415.1598 L717.875,415.1598 L717.875,385.9198 " fill="#EEEEEE" style="stroke:#000000;stroke-width:1.5;"/><rect fill="none" height="183.9599" style="stroke:#000000;stroke-width:1.5;" width="829.625" x="717.875" y="385.9198"/><text fill="#000000" font-family="sans-serif" font-size="20" font-weight="bold" lengthAdjust="spacing" textLength="43.5" x="732.875" y="408.2998">loop</text><text fill="#000000" font-family="sans-serif" font-size="20" font-weight="bold" lengthAdjust="spacing" textLength="403.75" x="821.375" y="409.2998">[for each floorId in elevatorDTO.floorIds]</text><polygon fill="#181818" points="1464,456.6397,1474,460.6397,1464,464.6397,1468,460.6397" style="stroke:#181818;stroke-width:1.0;"/><line style="stroke:#181818;stroke-width:1.0;" x1="812.875" x2="1470" y1="460.6397" y2="460.6397"/><text fill="#000000" font-family="sans-serif" font-size="20" font-weight="bold" lengthAdjust="spacing" textLength="11.625" x="819.875" y="452.7797">6</text><text fill="#000000" font-family="sans-serif" font-size="20" lengthAdjust="spacing" textLength="228" x="835.5" y="452.7797">floor=findWithId(floorId)</text><polygon fill="#181818" points="1167.5,527.8797,1177.5,531.8797,1167.5,535.8797,1171.5,531.8797" style="stroke:#181818;stroke-width:1.0;"/><line style="stroke:#181818;stroke-width:1.0;" x1="812.875" x2="1173.5" y1="531.8797" y2="531.8797"/><text fill="#000000" font-family="sans-serif" font-size="20" font-weight="bold" lengthAdjust="spacing" textLength="11.625" x="819.875" y="524.0197">7</text><text fill="#000000" font-family="sans-serif" font-size="20" lengthAdjust="spacing" textLength="91" x="835.5" y="524.0197">add(floor)</text><polygon fill="#181818" points="910.5,606.1197,920.5,610.1197,910.5,614.1197,914.5,610.1197" style="stroke:#181818;stroke-width:1.0;"/><line style="stroke:#181818;stroke-width:1.0;" x1="812.875" x2="916.5" y1="610.1197" y2="610.1197"/><text fill="#000000" font-family="sans-serif" font-size="20" font-weight="bold" lengthAdjust="spacing" textLength="11.625" x="819.875" y="602.2597">8</text><text fill="#000000" font-family="sans-serif" font-size="20" lengthAdjust="spacing" textLength="70" x="835.5" y="602.2597">create()</text><rect fill="#E2E2F0" height="41.24" rx="2.5" ry="2.5" style="stroke:#181818;stroke-width:0.5;" width="174" x="922.5" y="576.8797"/><text fill="#000000" font-family="sans-serif" font-size="20" lengthAdjust="spacing" textLength="160" x="929.5" y="605.2597">:elevator:Elevator</text><polygon fill="#181818" points="1760.5,658.3596,1770.5,662.3596,1760.5,666.3596,1764.5,662.3596" style="stroke:#181818;stroke-width:1.0;"/><line style="stroke:#181818;stroke-width:1.0;" x1="812.875" x2="1766.5" y1="662.3596" y2="662.3596"/><text fill="#000000" font-family="sans-serif" font-size="20" font-weight="bold" lengthAdjust="spacing" textLength="11.625" x="819.875" y="654.4997">9</text><text fill="#000000" font-family="sans-serif" font-size="20" lengthAdjust="spacing" textLength="236" x="835.5" y="654.4997">addElevator(newElevator)</text><polygon fill="#181818" points="1598,729.5996,1608,733.5996,1598,737.5996,1602,733.5996" style="stroke:#181818;stroke-width:1.0;"/><line style="stroke:#181818;stroke-width:1.0;" x1="812.875" x2="1604" y1="733.5996" y2="733.5996"/><text fill="#000000" font-family="sans-serif" font-size="20" font-weight="bold" lengthAdjust="spacing" textLength="23.25" x="819.875" y="725.7396">10</text><text fill="#000000" font-family="sans-serif" font-size="20" lengthAdjust="spacing" textLength="140" x="847.125" y="725.7396">toDto(elevator)</text><polygon fill="#181818" points="1860.5,770.8396,1870.5,774.8396,1860.5,778.8396,1864.5,774.8396" style="stroke:#181818;stroke-width:1.0;"/><line style="stroke:#181818;stroke-width:1.0;" x1="1615" x2="1866.5" y1="774.8396" y2="774.8396"/><text fill="#000000" font-family="sans-serif" font-size="20" font-weight="bold" lengthAdjust="spacing" textLength="23.25" x="1622" y="766.9796">11</text><text fill="#000000" font-family="sans-serif" font-size="20" lengthAdjust="spacing" textLength="70" x="1649.25" y="766.9796">create()</text><rect fill="#E2E2F0" height="41.24" rx="2.5" ry="2.5" style="stroke:#181818;stroke-width:0.5;" width="265" x="1872.5" y="741.5996"/><text fill="#000000" font-family="sans-serif" font-size="20" lengthAdjust="spacing" textLength="251" x="1879.5" y="769.9796">:elevatorDTO:IElevatorDTO</text><polygon fill="#181818" points="517.25,823.0796,507.25,827.0796,517.25,831.0796,513.25,827.0796" style="stroke:#181818;stroke-width:1.0;"/><line style="stroke:#181818;stroke-width:1.0;stroke-dasharray:2.0,2.0;" x1="511.25" x2="806.875" y1="827.0796" y2="827.0796"/><text fill="#000000" font-family="sans-serif" font-size="20" font-weight="bold" lengthAdjust="spacing" textLength="23.25" x="523.25" y="819.2196">12</text><text fill="#000000" font-family="sans-serif" font-size="20" lengthAdjust="spacing" textLength="192" x="550.5" y="819.2196">sucess(elevatorDTO)</text><polygon fill="#181818" points="210.625,864.3195,200.625,868.3195,210.625,872.3195,206.625,868.3195" style="stroke:#181818;stroke-width:1.0;"/><line style="stroke:#181818;stroke-width:1.0;stroke-dasharray:2.0,2.0;" x1="204.625" x2="500.25" y1="868.3195" y2="868.3195"/><text fill="#000000" font-family="sans-serif" font-size="20" font-weight="bold" lengthAdjust="spacing" textLength="23.25" x="216.625" y="860.4596">13</text><text fill="#000000" font-family="sans-serif" font-size="20" lengthAdjust="spacing" textLength="192" x="243.875" y="860.4596">sucess(elevatorDTO)</text><polygon fill="#181818" points="11,905.5595,1,909.5595,11,913.5595,7,909.5595" style="stroke:#181818;stroke-width:1.0;"/><line style="stroke:#181818;stroke-width:1.0;stroke-dasharray:2.0,2.0;" x1="5" x2="193.625" y1="909.5595" y2="909.5595"/><text fill="#000000" font-family="sans-serif" font-size="20" font-weight="bold" lengthAdjust="spacing" textLength="23.25" x="17" y="901.6995">14</text><text fill="#000000" font-family="sans-serif" font-size="20" lengthAdjust="spacing" textLength="111" x="44.25" y="901.6995">201 Created</text><!--SRC=[ZPDDZzem48Rl_XKZJijARBTxZDgk2WG9AIjGODj3rOE99s0Hx2XnTjN- -ewTEDZqqDwIyVE-dY-tPwbgtl1BfOip2X1OyguoAwtCJlv6U7fal3DQTPS3Den88mjPSsKWtxpkK-0jJ9AqmZTkT9Fhpk0aeXRxF8kX1LatkggmYSbT_Yq6TzYyoUB6BytI0SC16_aON6NhtTwHPQLraydM92lxzUDd3CxpTBlfBUUTh8HKnnnhVUDsXPp9tyJBrssS_WklRovwNMTBnno6UyOBOt2vtyGbKY1PfzUV2MFFUlPb6442smsL-i7JBUE5aVI9FS1Opv70JIE1ea4wzOPtmJNJgzQop0b8Q8Vpdpf2cSL9rRSsWL8gCV-rr1SkrLg4kWVVYeKM69Wu9HDu4nXytMplxyUCxgPCQO8QUJmPq6KFC81tX4lN6YXEM9n1bc1E26uVrg85NbL0q04hhOvWj3jj-GN1PyLG2R3MZ3GrbBe1IkdaBK0g28lnpcJgC_KTi2UVRH- -ItEY7WpebD2nHWTJ82ZRXyB2oOwBmI7M3rM7UXUYAdphxFk9E-TdvRRJMOy3LlZklyFPM3AQZGiCFlOT9DJCfT7Ze0Cn7JEB44aTYpC9B2tc3AzBstO5jcsyT872hbs_hS73-8V6hVYdsMpadnu_miAb8qAkVqP_0000]--></g></svg>