<?xml version="1.0" encoding="UTF-8" standalone="no"?><svg xmlns="http://www.w3.org/2000/svg" xmlns:xlink="http://www.w3.org/1999/xlink" contentStyleType="text/css" height="973px" preserveAspectRatio="none" style="width:2168px;height:973px;background:#FFFFFF;" version="1.1" viewBox="0 0 2168 973" width="2168px" zoomAndPan="magnify"><defs/><g><rect fill="#FFFFFF" height="819.0796" style="stroke:#181818;stroke-width:1.0;" width="10" x="157.25" y="90.4799"/><rect fill="#FFFFFF" height="736.5996" style="stroke:#181818;stroke-width:1.0;" width="10" x="463.875" y="131.7199"/><rect fill="#FFFFFF" height="654.1197" style="stroke:#181818;stroke-width:1.0;" width="10" x="770.5" y="172.9599"/><rect fill="#FFFFFF" height="30" style="stroke:#181818;stroke-width:1.0;" width="10" x="1147.125" y="531.8797"/><rect fill="#FFFFFF" height="30" style="stroke:#181818;stroke-width:1.0;" width="10" x="1306.125" y="214.1999"/><rect fill="#FFFFFF" height="30" style="stroke:#181818;stroke-width:1.0;" width="10" x="1443.625" y="460.6397"/><rect fill="#FFFFFF" height="41.24" style="stroke:#181818;stroke-width:1.0;" width="10" x="1577.625" y="733.5996"/><rect fill="#FFFFFF" height="30" style="stroke:#181818;stroke-width:1.0;" width="10" x="1740.125" y="662.3596"/><rect fill="none" height="183.9599" style="stroke:#000000;stroke-width:1.5;" width="829.625" x="685.5" y="385.9198"/><line style="stroke:#181818;stroke-width:0.5;stroke-dasharray:5.0,5.0;" x1="162.25" x2="162.25" y1="47.24" y2="927.5595"/><line style="stroke:#181818;stroke-width:0.5;stroke-dasharray:5.0,5.0;" x1="468.375" x2="468.375" y1="47.24" y2="927.5595"/><line style="stroke:#181818;stroke-width:0.5;stroke-dasharray:5.0,5.0;" x1="775.5" x2="775.5" y1="47.24" y2="927.5595"/><line style="stroke:#181818;stroke-width:0.5;stroke-dasharray:5.0,5.0;" x1="977.125" x2="977.125" y1="612.9997" y2="927.5595"/><line style="stroke:#181818;stroke-width:0.5;stroke-dasharray:5.0,5.0;" x1="1152.125" x2="1152.125" y1="288.3199" y2="927.5595"/><line style="stroke:#181818;stroke-width:0.5;stroke-dasharray:5.0,5.0;" x1="1311.125" x2="1311.125" y1="47.24" y2="927.5595"/><line style="stroke:#181818;stroke-width:0.5;stroke-dasharray:5.0,5.0;" x1="1448.125" x2="1448.125" y1="47.24" y2="927.5595"/><line style="stroke:#181818;stroke-width:0.5;stroke-dasharray:5.0,5.0;" x1="1582.125" x2="1582.125" y1="47.24" y2="927.5595"/><line style="stroke:#181818;stroke-width:0.5;stroke-dasharray:5.0,5.0;" x1="1745.125" x2="1745.125" y1="47.24" y2="927.5595"/><line style="stroke:#181818;stroke-width:0.5;stroke-dasharray:5.0,5.0;" x1="1972.125" x2="1972.125" y1="777.7196" y2="927.5595"/><line style="stroke:#181818;stroke-width:0.5;stroke-dasharray:5.0,5.0;" x1="2138.125" x2="2138.125" y1="47.24" y2="927.5595"/><rect fill="#E2E2F0" height="41.24" rx="2.5" ry="2.5" style="stroke:#181818;stroke-width:0.5;" width="148" x="88.25" y="5"/><text fill="#000000" font-family="sans-serif" font-size="20" lengthAdjust="spacing" textLength="134" x="95.25" y="33.38">:ElevatorRoute</text><rect fill="#E2E2F0" height="41.24" rx="2.5" ry="2.5" style="stroke:#181818;stroke-width:0.5;" width="148" x="88.25" y="926.5595"/><text fill="#000000" font-family="sans-serif" font-size="20" lengthAdjust="spacing" textLength="134" x="95.25" y="954.9395">:ElevatorRoute</text><rect fill="#E2E2F0" height="41.24" rx="2.5" ry="2.5" style="stroke:#181818;stroke-width:0.5;" width="187" x="375.375" y="5"/><text fill="#000000" font-family="sans-serif" font-size="20" lengthAdjust="spacing" textLength="173" x="382.375" y="33.38">:ElevatorController</text><rect fill="#E2E2F0" height="41.24" rx="2.5" ry="2.5" style="stroke:#181818;stroke-width:0.5;" width="187" x="375.375" y="926.5595"/><text fill="#000000" font-family="sans-serif" font-size="20" lengthAdjust="spacing" textLength="173" x="382.375" y="954.9395">:ElevatorController</text><rect fill="#E2E2F0" height="41.24" rx="2.5" ry="2.5" style="stroke:#181818;stroke-width:0.5;" width="160" x="695.5" y="5"/><text fill="#000000" font-family="sans-serif" font-size="20" lengthAdjust="spacing" textLength="146" x="702.5" y="33.38">:ElevatorService</text><rect fill="#E2E2F0" height="41.24" rx="2.5" ry="2.5" style="stroke:#181818;stroke-width:0.5;" width="160" x="695.5" y="926.5595"/><text fill="#000000" font-family="sans-serif" font-size="20" lengthAdjust="spacing" textLength="146" x="702.5" y="954.9395">:ElevatorService</text><rect fill="#E2E2F0" height="41.24" rx="2.5" ry="2.5" style="stroke:#181818;stroke-width:0.5;" width="174" x="890.125" y="926.5595"/><text fill="#000000" font-family="sans-serif" font-size="20" lengthAdjust="spacing" textLength="160" x="897.125" y="954.9395">:elevator:Elevator</text><rect fill="#E2E2F0" height="41.24" rx="2.5" ry="2.5" style="stroke:#181818;stroke-width:0.5;" width="156" x="1074.125" y="926.5595"/><text fill="#000000" font-family="sans-serif" font-size="20" lengthAdjust="spacing" textLength="142" x="1081.125" y="954.9395">floorList:Floor[]</text><rect fill="#E2E2F0" height="41.24" rx="2.5" ry="2.5" style="stroke:#181818;stroke-width:0.5;" width="142" x="1240.125" y="5"/><text fill="#000000" font-family="sans-serif" font-size="20" lengthAdjust="spacing" textLength="128" x="1247.125" y="33.38">:BuildingRepo</text><rect fill="#E2E2F0" height="41.24" rx="2.5" ry="2.5" style="stroke:#181818;stroke-width:0.5;" width="142" x="1240.125" y="926.5595"/><text fill="#000000" font-family="sans-serif" font-size="20" lengthAdjust="spacing" textLength="128" x="1247.125" y="954.9395">:BuildingRepo</text><rect fill="#E2E2F0" height="41.24" rx="2.5" ry="2.5" style="stroke:#181818;stroke-width:0.5;" width="113" x="1392.125" y="5"/><text fill="#000000" font-family="sans-serif" font-size="20" lengthAdjust="spacing" textLength="99" x="1399.125" y="33.38">:FloorRepo</text><rect fill="#E2E2F0" height="41.24" rx="2.5" ry="2.5" style="stroke:#181818;stroke-width:0.5;" width="113" x="1392.125" y="926.5595"/><text fill="#000000" font-family="sans-serif" font-size="20" lengthAdjust="spacing" textLength="99" x="1399.125" y="954.9395">:FloorRepo</text><rect fill="#E2E2F0" height="41.24" rx="2.5" ry="2.5" style="stroke:#181818;stroke-width:0.5;" width="135" x="1515.125" y="5"/><text fill="#000000" font-family="sans-serif" font-size="20" lengthAdjust="spacing" textLength="121" x="1522.125" y="33.38">:ElevatorMap</text><rect fill="#E2E2F0" height="41.24" rx="2.5" ry="2.5" style="stroke:#181818;stroke-width:0.5;" width="135" x="1515.125" y="926.5595"/><text fill="#000000" font-family="sans-serif" font-size="20" lengthAdjust="spacing" textLength="121" x="1522.125" y="954.9395">:ElevatorMap</text><rect fill="#E2E2F0" height="41.24" rx="2.5" ry="2.5" style="stroke:#181818;stroke-width:0.5;" width="170" x="1660.125" y="5"/><text fill="#000000" font-family="sans-serif" font-size="20" lengthAdjust="spacing" textLength="156" x="1667.125" y="33.38">building:Building</text><rect fill="#E2E2F0" height="41.24" rx="2.5" ry="2.5" style="stroke:#181818;stroke-width:0.5;" width="170" x="1660.125" y="926.5595"/><text fill="#000000" font-family="sans-serif" font-size="20" lengthAdjust="spacing" textLength="156" x="1667.125" y="954.9395">building:Building</text><rect fill="#E2E2F0" height="41.24" rx="2.5" ry="2.5" style="stroke:#181818;stroke-width:0.5;" width="265" x="1840.125" y="926.5595"/><text fill="#000000" font-family="sans-serif" font-size="20" lengthAdjust="spacing" textLength="251" x="1847.125" y="954.9395">:elevatorDTO:IElevatorDTO</text><rect fill="#E2E2F0" height="41.24" rx="2.5" ry="2.5" style="stroke:#181818;stroke-width:0.5;" width="47" x="2115.125" y="5"/><text fill="#000000" font-family="sans-serif" font-size="20" lengthAdjust="spacing" textLength="33" x="2122.125" y="33.38">SYS</text><rect fill="#E2E2F0" height="41.24" rx="2.5" ry="2.5" style="stroke:#181818;stroke-width:0.5;" width="47" x="2115.125" y="926.5595"/><text fill="#000000" font-family="sans-serif" font-size="20" lengthAdjust="spacing" textLength="33" x="2122.125" y="954.9395">SYS</text><rect fill="#FFFFFF" height="819.0796" style="stroke:#181818;stroke-width:1.0;" width="10" x="157.25" y="90.4799"/><rect fill="#FFFFFF" height="736.5996" style="stroke:#181818;stroke-width:1.0;" width="10" x="463.875" y="131.7199"/><rect fill="#FFFFFF" height="654.1197" style="stroke:#181818;stroke-width:1.0;" width="10" x="770.5" y="172.9599"/><rect fill="#FFFFFF" height="30" style="stroke:#181818;stroke-width:1.0;" width="10" x="1147.125" y="531.8797"/><rect fill="#FFFFFF" height="30" style="stroke:#181818;stroke-width:1.0;" width="10" x="1306.125" y="214.1999"/><rect fill="#FFFFFF" height="30" style="stroke:#181818;stroke-width:1.0;" width="10" x="1443.625" y="460.6397"/><rect fill="#FFFFFF" height="41.24" style="stroke:#181818;stroke-width:1.0;" width="10" x="1577.625" y="733.5996"/><rect fill="#FFFFFF" height="30" style="stroke:#181818;stroke-width:1.0;" width="10" x="1740.125" y="662.3596"/><ellipse cx="1822.5" cy="89.7299" fill="none" rx="4" ry="4" style="stroke:#181818;stroke-width:1.5;"/><polygon fill="#181818" points="2126.625,86.4799,2136.625,90.4799,2126.625,94.4799,2130.625,90.4799" style="stroke:#181818;stroke-width:1.0;"/><line style="stroke:#181818;stroke-width:1.0;" x1="1827" x2="2132.625" y1="90.4799" y2="90.4799"/><text fill="#000000" font-family="sans-serif" font-size="20" font-weight="bold" lengthAdjust="spacing" textLength="11.625" x="1830" y="82.62">1</text><text fill="#000000" font-family="sans-serif" font-size="20" lengthAdjust="spacing" textLength="268" x="1845.625" y="82.62">POST /buildings/:id/elevators</text><polygon fill="#181818" points="451.875,127.7199,461.875,131.7199,451.875,135.7199,455.875,131.7199" style="stroke:#181818;stroke-width:1.0;"/><line style="stroke:#181818;stroke-width:1.0;" x1="167.25" x2="457.875" y1="131.7199" y2="131.7199"/><text fill="#000000" font-family="sans-serif" font-size="20" font-weight="bold" lengthAdjust="spacing" textLength="11.625" x="174.25" y="123.8599">2</text><text fill="#000000" font-family="sans-serif" font-size="20" lengthAdjust="spacing" textLength="262" x="189.875" y="123.8599">createElevator(elevatorDTO)</text><polygon fill="#181818" points="758.5,168.9599,768.5,172.9599,758.5,176.9599,762.5,172.9599" style="stroke:#181818;stroke-width:1.0;"/><line style="stroke:#181818;stroke-width:1.0;" x1="473.875" x2="764.5" y1="172.9599" y2="172.9599"/><text fill="#000000" font-family="sans-serif" font-size="20" font-weight="bold" lengthAdjust="spacing" textLength="11.625" x="480.875" y="165.0999">3</text><text fill="#000000" font-family="sans-serif" font-size="20" lengthAdjust="spacing" textLength="262" x="496.5" y="165.0999">createElevator(elevatorDTO)</text><polygon fill="#181818" points="1294.125,210.1999,1304.125,214.1999,1294.125,218.1999,1298.125,214.1999" style="stroke:#181818;stroke-width:1.0;"/><line style="stroke:#181818;stroke-width:1.0;" x1="780.5" x2="1300.125" y1="214.1999" y2="214.1999"/><text fill="#000000" font-family="sans-serif" font-size="20" font-weight="bold" lengthAdjust="spacing" textLength="11.625" x="787.5" y="206.3399">4</text><text fill="#000000" font-family="sans-serif" font-size="20" lengthAdjust="spacing" textLength="409" x="803.125" y="206.3399">findByDomainId(elevatorDTO.buildingCode)</text><polygon fill="#181818" points="1062.125,281.4398,1072.125,285.4398,1062.125,289.4398,1066.125,285.4398" style="stroke:#181818;stroke-width:1.0;"/><line style="stroke:#181818;stroke-width:1.0;" x1="780.5" x2="1068.125" y1="285.4398" y2="285.4398"/><text fill="#000000" font-family="sans-serif" font-size="20" font-weight="bold" lengthAdjust="spacing" textLength="11.625" x="787.5" y="277.5799">5</text><text fill="#000000" font-family="sans-serif" font-size="20" lengthAdjust="spacing" textLength="70" x="803.125" y="277.5799">create()</text><rect fill="#E2E2F0" height="41.24" rx="2.5" ry="2.5" style="stroke:#181818;stroke-width:0.5;" width="156" x="1074.125" y="252.1999"/><text fill="#000000" font-family="sans-serif" font-size="20" lengthAdjust="spacing" textLength="142" x="1081.125" y="280.5799">floorList:Floor[]</text><path d="M1157,309.4398 L1157,373.4398 L1478,373.4398 L1478,319.4398 L1468,309.4398 L1157,309.4398 " fill="#FEFFDD" style="stroke:#181818;stroke-width:0.5;"/><path d="M1468,309.4398 L1468,319.4398 L1478,319.4398 L1468,309.4398 " fill="#FEFFDD" style="stroke:#181818;stroke-width:0.5;"/><text fill="#000000" font-family="sans-serif" font-size="20" lengthAdjust="spacing" textLength="295" x="1163" y="335.8198">we must check if the floorIds all</text><text fill="#000000" font-family="sans-serif" font-size="20" lengthAdjust="spacing" textLength="259" x="1163" y="363.0598">belong to the same building</text><path d="M685.5,385.9198 L774,385.9198 L774,405.1598 L764,415.1598 L685.5,415.1598 L685.5,385.9198 " fill="#EEEEEE" style="stroke:#000000;stroke-width:1.5;"/><rect fill="none" height="183.9599" style="stroke:#000000;stroke-width:1.5;" width="829.625" x="685.5" y="385.9198"/><text fill="#000000" font-family="sans-serif" font-size="20" font-weight="bold" lengthAdjust="spacing" textLength="43.5" x="700.5" y="408.2998">loop</text><text fill="#000000" font-family="sans-serif" font-size="20" font-weight="bold" lengthAdjust="spacing" textLength="403.75" x="789" y="409.2998">[for each floorId in elevatorDTO.floorIds]</text><polygon fill="#181818" points="1431.625,456.6397,1441.625,460.6397,1431.625,464.6397,1435.625,460.6397" style="stroke:#181818;stroke-width:1.0;"/><line style="stroke:#181818;stroke-width:1.0;" x1="780.5" x2="1437.625" y1="460.6397" y2="460.6397"/><text fill="#000000" font-family="sans-serif" font-size="20" font-weight="bold" lengthAdjust="spacing" textLength="11.625" x="787.5" y="452.7797">6</text><text fill="#000000" font-family="sans-serif" font-size="20" lengthAdjust="spacing" textLength="228" x="803.125" y="452.7797">floor=findWithId(floorId)</text><polygon fill="#181818" points="1135.125,527.8797,1145.125,531.8797,1135.125,535.8797,1139.125,531.8797" style="stroke:#181818;stroke-width:1.0;"/><line style="stroke:#181818;stroke-width:1.0;" x1="780.5" x2="1141.125" y1="531.8797" y2="531.8797"/><text fill="#000000" font-family="sans-serif" font-size="20" font-weight="bold" lengthAdjust="spacing" textLength="11.625" x="787.5" y="524.0197">7</text><text fill="#000000" font-family="sans-serif" font-size="20" lengthAdjust="spacing" textLength="91" x="803.125" y="524.0197">add(floor)</text><polygon fill="#181818" points="878.125,606.1197,888.125,610.1197,878.125,614.1197,882.125,610.1197" style="stroke:#181818;stroke-width:1.0;"/><line style="stroke:#181818;stroke-width:1.0;" x1="780.5" x2="884.125" y1="610.1197" y2="610.1197"/><text fill="#000000" font-family="sans-serif" font-size="20" font-weight="bold" lengthAdjust="spacing" textLength="11.625" x="787.5" y="602.2597">8</text><text fill="#000000" font-family="sans-serif" font-size="20" lengthAdjust="spacing" textLength="70" x="803.125" y="602.2597">create()</text><rect fill="#E2E2F0" height="41.24" rx="2.5" ry="2.5" style="stroke:#181818;stroke-width:0.5;" width="174" x="890.125" y="576.8797"/><text fill="#000000" font-family="sans-serif" font-size="20" lengthAdjust="spacing" textLength="160" x="897.125" y="605.2597">:elevator:Elevator</text><polygon fill="#181818" points="1728.125,658.3596,1738.125,662.3596,1728.125,666.3596,1732.125,662.3596" style="stroke:#181818;stroke-width:1.0;"/><line style="stroke:#181818;stroke-width:1.0;" x1="780.5" x2="1734.125" y1="662.3596" y2="662.3596"/><text fill="#000000" font-family="sans-serif" font-size="20" font-weight="bold" lengthAdjust="spacing" textLength="11.625" x="787.5" y="654.4997">9</text><text fill="#000000" font-family="sans-serif" font-size="20" lengthAdjust="spacing" textLength="236" x="803.125" y="654.4997">addElevator(newElevator)</text><polygon fill="#181818" points="1565.625,729.5996,1575.625,733.5996,1565.625,737.5996,1569.625,733.5996" style="stroke:#181818;stroke-width:1.0;"/><line style="stroke:#181818;stroke-width:1.0;" x1="780.5" x2="1571.625" y1="733.5996" y2="733.5996"/><text fill="#000000" font-family="sans-serif" font-size="20" font-weight="bold" lengthAdjust="spacing" textLength="23.25" x="787.5" y="725.7396">10</text><text fill="#000000" font-family="sans-serif" font-size="20" lengthAdjust="spacing" textLength="140" x="814.75" y="725.7396">toDto(elevator)</text><polygon fill="#181818" points="1828.125,770.8396,1838.125,774.8396,1828.125,778.8396,1832.125,774.8396" style="stroke:#181818;stroke-width:1.0;"/><line style="stroke:#181818;stroke-width:1.0;" x1="1582.625" x2="1834.125" y1="774.8396" y2="774.8396"/><text fill="#000000" font-family="sans-serif" font-size="20" font-weight="bold" lengthAdjust="spacing" textLength="23.25" x="1589.625" y="766.9796">11</text><text fill="#000000" font-family="sans-serif" font-size="20" lengthAdjust="spacing" textLength="70" x="1616.875" y="766.9796">create()</text><rect fill="#E2E2F0" height="41.24" rx="2.5" ry="2.5" style="stroke:#181818;stroke-width:0.5;" width="265" x="1840.125" y="741.5996"/><text fill="#000000" font-family="sans-serif" font-size="20" lengthAdjust="spacing" textLength="251" x="1847.125" y="769.9796">:elevatorDTO:IElevatorDTO</text><polygon fill="#181818" points="484.875,823.0796,474.875,827.0796,484.875,831.0796,480.875,827.0796" style="stroke:#181818;stroke-width:1.0;"/><line style="stroke:#181818;stroke-width:1.0;stroke-dasharray:2.0,2.0;" x1="478.875" x2="774.5" y1="827.0796" y2="827.0796"/><text fill="#000000" font-family="sans-serif" font-size="20" font-weight="bold" lengthAdjust="spacing" textLength="23.25" x="490.875" y="819.2196">12</text><text fill="#000000" font-family="sans-serif" font-size="20" lengthAdjust="spacing" textLength="192" x="518.125" y="819.2196">sucess(elevatorDTO)</text><polygon fill="#181818" points="178.25,864.3195,168.25,868.3195,178.25,872.3195,174.25,868.3195" style="stroke:#181818;stroke-width:1.0;"/><line style="stroke:#181818;stroke-width:1.0;stroke-dasharray:2.0,2.0;" x1="172.25" x2="467.875" y1="868.3195" y2="868.3195"/><text fill="#000000" font-family="sans-serif" font-size="20" font-weight="bold" lengthAdjust="spacing" textLength="23.25" x="184.25" y="860.4596">13</text><text fill="#000000" font-family="sans-serif" font-size="20" lengthAdjust="spacing" textLength="192" x="211.5" y="860.4596">sucess(elevatorDTO)</text><polygon fill="#181818" points="11,905.5595,1,909.5595,11,913.5595,7,909.5595" style="stroke:#181818;stroke-width:1.0;"/><line style="stroke:#181818;stroke-width:1.0;stroke-dasharray:2.0,2.0;" x1="5" x2="161.25" y1="909.5595" y2="909.5595"/><text fill="#000000" font-family="sans-serif" font-size="20" font-weight="bold" lengthAdjust="spacing" textLength="23.25" x="17" y="901.6995">14</text><text fill="#000000" font-family="sans-serif" font-size="20" lengthAdjust="spacing" textLength="111" x="44.25" y="901.6995">201 Created</text><!--SRC=[ZPDDZzem48Rl_XKZJijABDizHcrN1OA4n0gKiAsggWSJJy0Ys2XnTjN- -ewTEDZqqDwSyVE-dgyq9waklERdIXSd522mv6rbbbgPNFv6U7fal3LQjUSzren88mjvuSf0jddTfS0R62LfXM_Sw3hJhS5HHCrtsJg6vcHTwwh2EYRpx6iCvbY_oUB6BrsdFOOzDl0nk5olyfqZoqhhUYqRaopjwSVF69nbwNRJMSvQMGcf3XbUz8tR5N8cVnClNxPn-Y_ySlFGwsgzSCo-VsTuC0ONkqrS8WMILNhz637sh2UV8V-UGmBR3HKwzPxDD95YwfKDuuMHTCHkNenrOoEncqm2HOrqwytlWYV7LwrbcHFOLsbG_waZb5cSL5sR4oYb4hDV2ttcKgr4g7lm9SormC34APd0cq3lw-PyVpzaT3TcIXDKoyFHW2uxW06y8vpRna1nnE84iWHpH72xiH8DyAe2WlPOQNK0ezrjmyy8FYk6Ie2rPgIvGAbhe9IEtWAaWh0OxqocFbFV0NlpoVRXcpH7wa6FZWaTQdGm1OAoVIWidEouw1rYVLzrg7SXgiAtplvBSUVyhDocEkjXm0hV_JcSZIMZsRX0xsF_YOIQkJ1w67GWfcjc4IAfOt4cWQN5dE5rQPksmAQ9bovGsBNhjfKatSB_K-DM_EDaCl1FZnzWxj8H8TVzHdy0]--></g></svg>