<?xml version="1.0" encoding="UTF-8" standalone="no"?><svg xmlns="http://www.w3.org/2000/svg" xmlns:xlink="http://www.w3.org/1999/xlink" contentStyleType="text/css" height="1045px" preserveAspectRatio="none" style="width:2296px;height:1045px;background:#FFFFFF;" version="1.1" viewBox="0 0 2296 1045" width="2296px" zoomAndPan="magnify"><defs/><g><rect fill="#FFFFFF" height="890.3195" style="stroke:#181818;stroke-width:1.0;" width="10" x="157.25" y="90.4799"/><rect fill="#FFFFFF" height="807.8396" style="stroke:#181818;stroke-width:1.0;" width="10" x="591.875" y="131.7199"/><rect fill="#FFFFFF" height="725.3596" style="stroke:#181818;stroke-width:1.0;" width="10" x="898.5" y="172.9599"/><rect fill="#FFFFFF" height="30" style="stroke:#181818;stroke-width:1.0;" width="10" x="1275.125" y="531.8797"/><rect fill="#FFFFFF" height="30" style="stroke:#181818;stroke-width:1.0;" width="10" x="1434.125" y="214.1999"/><rect fill="#FFFFFF" height="30" style="stroke:#181818;stroke-width:1.0;" width="10" x="1434.125" y="733.5996"/><rect fill="#FFFFFF" height="30" style="stroke:#181818;stroke-width:1.0;" width="10" x="1571.625" y="460.6397"/><rect fill="#FFFFFF" height="41.24" style="stroke:#181818;stroke-width:1.0;" width="10" x="1705.625" y="804.8396"/><rect fill="#FFFFFF" height="30" style="stroke:#181818;stroke-width:1.0;" width="10" x="1868.125" y="662.3596"/><rect fill="none" height="183.9599" style="stroke:#000000;stroke-width:1.5;" width="829.625" x="813.5" y="385.9198"/><line style="stroke:#181818;stroke-width:0.5;stroke-dasharray:5.0,5.0;" x1="162.25" x2="162.25" y1="47.24" y2="998.7995"/><line style="stroke:#181818;stroke-width:0.5;stroke-dasharray:5.0,5.0;" x1="596.375" x2="596.375" y1="47.24" y2="998.7995"/><line style="stroke:#181818;stroke-width:0.5;stroke-dasharray:5.0,5.0;" x1="903.5" x2="903.5" y1="47.24" y2="998.7995"/><line style="stroke:#181818;stroke-width:0.5;stroke-dasharray:5.0,5.0;" x1="1105.125" x2="1105.125" y1="612.9997" y2="998.7995"/><line style="stroke:#181818;stroke-width:0.5;stroke-dasharray:5.0,5.0;" x1="1280.125" x2="1280.125" y1="288.3199" y2="998.7995"/><line style="stroke:#181818;stroke-width:0.5;stroke-dasharray:5.0,5.0;" x1="1439.125" x2="1439.125" y1="47.24" y2="998.7995"/><line style="stroke:#181818;stroke-width:0.5;stroke-dasharray:5.0,5.0;" x1="1576.125" x2="1576.125" y1="47.24" y2="998.7995"/><line style="stroke:#181818;stroke-width:0.5;stroke-dasharray:5.0,5.0;" x1="1710.125" x2="1710.125" y1="47.24" y2="998.7995"/><line style="stroke:#181818;stroke-width:0.5;stroke-dasharray:5.0,5.0;" x1="1873.125" x2="1873.125" y1="47.24" y2="998.7995"/><line style="stroke:#181818;stroke-width:0.5;stroke-dasharray:5.0,5.0;" x1="2100.125" x2="2100.125" y1="848.9596" y2="998.7995"/><line style="stroke:#181818;stroke-width:0.5;stroke-dasharray:5.0,5.0;" x1="2266.125" x2="2266.125" y1="47.24" y2="998.7995"/><rect fill="#E2E2F0" height="41.24" rx="2.5" ry="2.5" style="stroke:#181818;stroke-width:0.5;" width="148" x="88.25" y="5"/><text fill="#000000" font-family="sans-serif" font-size="20" lengthAdjust="spacing" textLength="134" x="95.25" y="33.38">:ElevatorRoute</text><rect fill="#E2E2F0" height="41.24" rx="2.5" ry="2.5" style="stroke:#181818;stroke-width:0.5;" width="148" x="88.25" y="997.7995"/><text fill="#000000" font-family="sans-serif" font-size="20" lengthAdjust="spacing" textLength="134" x="95.25" y="1026.1795">:ElevatorRoute</text><rect fill="#E2E2F0" height="41.24" rx="2.5" ry="2.5" style="stroke:#181818;stroke-width:0.5;" width="187" x="503.375" y="5"/><text fill="#000000" font-family="sans-serif" font-size="20" lengthAdjust="spacing" textLength="173" x="510.375" y="33.38">:ElevatorController</text><rect fill="#E2E2F0" height="41.24" rx="2.5" ry="2.5" style="stroke:#181818;stroke-width:0.5;" width="187" x="503.375" y="997.7995"/><text fill="#000000" font-family="sans-serif" font-size="20" lengthAdjust="spacing" textLength="173" x="510.375" y="1026.1795">:ElevatorController</text><rect fill="#E2E2F0" height="41.24" rx="2.5" ry="2.5" style="stroke:#181818;stroke-width:0.5;" width="160" x="823.5" y="5"/><text fill="#000000" font-family="sans-serif" font-size="20" lengthAdjust="spacing" textLength="146" x="830.5" y="33.38">:ElevatorService</text><rect fill="#E2E2F0" height="41.24" rx="2.5" ry="2.5" style="stroke:#181818;stroke-width:0.5;" width="160" x="823.5" y="997.7995"/><text fill="#000000" font-family="sans-serif" font-size="20" lengthAdjust="spacing" textLength="146" x="830.5" y="1026.1795">:ElevatorService</text><rect fill="#E2E2F0" height="41.24" rx="2.5" ry="2.5" style="stroke:#181818;stroke-width:0.5;" width="174" x="1018.125" y="997.7995"/><text fill="#000000" font-family="sans-serif" font-size="20" lengthAdjust="spacing" textLength="160" x="1025.125" y="1026.1795">:elevator:Elevator</text><rect fill="#E2E2F0" height="41.24" rx="2.5" ry="2.5" style="stroke:#181818;stroke-width:0.5;" width="156" x="1202.125" y="997.7995"/><text fill="#000000" font-family="sans-serif" font-size="20" lengthAdjust="spacing" textLength="142" x="1209.125" y="1026.1795">floorList:Floor[]</text><rect fill="#E2E2F0" height="41.24" rx="2.5" ry="2.5" style="stroke:#181818;stroke-width:0.5;" width="142" x="1368.125" y="5"/><text fill="#000000" font-family="sans-serif" font-size="20" lengthAdjust="spacing" textLength="128" x="1375.125" y="33.38">:BuildingRepo</text><rect fill="#E2E2F0" height="41.24" rx="2.5" ry="2.5" style="stroke:#181818;stroke-width:0.5;" width="142" x="1368.125" y="997.7995"/><text fill="#000000" font-family="sans-serif" font-size="20" lengthAdjust="spacing" textLength="128" x="1375.125" y="1026.1795">:BuildingRepo</text><rect fill="#E2E2F0" height="41.24" rx="2.5" ry="2.5" style="stroke:#181818;stroke-width:0.5;" width="113" x="1520.125" y="5"/><text fill="#000000" font-family="sans-serif" font-size="20" lengthAdjust="spacing" textLength="99" x="1527.125" y="33.38">:FloorRepo</text><rect fill="#E2E2F0" height="41.24" rx="2.5" ry="2.5" style="stroke:#181818;stroke-width:0.5;" width="113" x="1520.125" y="997.7995"/><text fill="#000000" font-family="sans-serif" font-size="20" lengthAdjust="spacing" textLength="99" x="1527.125" y="1026.1795">:FloorRepo</text><rect fill="#E2E2F0" height="41.24" rx="2.5" ry="2.5" style="stroke:#181818;stroke-width:0.5;" width="135" x="1643.125" y="5"/><text fill="#000000" font-family="sans-serif" font-size="20" lengthAdjust="spacing" textLength="121" x="1650.125" y="33.38">:ElevatorMap</text><rect fill="#E2E2F0" height="41.24" rx="2.5" ry="2.5" style="stroke:#181818;stroke-width:0.5;" width="135" x="1643.125" y="997.7995"/><text fill="#000000" font-family="sans-serif" font-size="20" lengthAdjust="spacing" textLength="121" x="1650.125" y="1026.1795">:ElevatorMap</text><rect fill="#E2E2F0" height="41.24" rx="2.5" ry="2.5" style="stroke:#181818;stroke-width:0.5;" width="170" x="1788.125" y="5"/><text fill="#000000" font-family="sans-serif" font-size="20" lengthAdjust="spacing" textLength="156" x="1795.125" y="33.38">building:Building</text><rect fill="#E2E2F0" height="41.24" rx="2.5" ry="2.5" style="stroke:#181818;stroke-width:0.5;" width="170" x="1788.125" y="997.7995"/><text fill="#000000" font-family="sans-serif" font-size="20" lengthAdjust="spacing" textLength="156" x="1795.125" y="1026.1795">building:Building</text><rect fill="#E2E2F0" height="41.24" rx="2.5" ry="2.5" style="stroke:#181818;stroke-width:0.5;" width="265" x="1968.125" y="997.7995"/><text fill="#000000" font-family="sans-serif" font-size="20" lengthAdjust="spacing" textLength="251" x="1975.125" y="1026.1795">:elevatorDTO:IElevatorDTO</text><rect fill="#E2E2F0" height="41.24" rx="2.5" ry="2.5" style="stroke:#181818;stroke-width:0.5;" width="47" x="2243.125" y="5"/><text fill="#000000" font-family="sans-serif" font-size="20" lengthAdjust="spacing" textLength="33" x="2250.125" y="33.38">SYS</text><rect fill="#E2E2F0" height="41.24" rx="2.5" ry="2.5" style="stroke:#181818;stroke-width:0.5;" width="47" x="2243.125" y="997.7995"/><text fill="#000000" font-family="sans-serif" font-size="20" lengthAdjust="spacing" textLength="33" x="2250.125" y="1026.1795">SYS</text><rect fill="#FFFFFF" height="890.3195" style="stroke:#181818;stroke-width:1.0;" width="10" x="157.25" y="90.4799"/><rect fill="#FFFFFF" height="807.8396" style="stroke:#181818;stroke-width:1.0;" width="10" x="591.875" y="131.7199"/><rect fill="#FFFFFF" height="725.3596" style="stroke:#181818;stroke-width:1.0;" width="10" x="898.5" y="172.9599"/><rect fill="#FFFFFF" height="30" style="stroke:#181818;stroke-width:1.0;" width="10" x="1275.125" y="531.8797"/><rect fill="#FFFFFF" height="30" style="stroke:#181818;stroke-width:1.0;" width="10" x="1434.125" y="214.1999"/><rect fill="#FFFFFF" height="30" style="stroke:#181818;stroke-width:1.0;" width="10" x="1434.125" y="733.5996"/><rect fill="#FFFFFF" height="30" style="stroke:#181818;stroke-width:1.0;" width="10" x="1571.625" y="460.6397"/><rect fill="#FFFFFF" height="41.24" style="stroke:#181818;stroke-width:1.0;" width="10" x="1705.625" y="804.8396"/><rect fill="#FFFFFF" height="30" style="stroke:#181818;stroke-width:1.0;" width="10" x="1868.125" y="662.3596"/><ellipse cx="1950.5" cy="89.7299" fill="none" rx="4" ry="4" style="stroke:#181818;stroke-width:1.5;"/><polygon fill="#181818" points="2254.625,86.4799,2264.625,90.4799,2254.625,94.4799,2258.625,90.4799" style="stroke:#181818;stroke-width:1.0;"/><line style="stroke:#181818;stroke-width:1.0;" x1="1955" x2="2260.625" y1="90.4799" y2="90.4799"/><text fill="#000000" font-family="sans-serif" font-size="20" font-weight="bold" lengthAdjust="spacing" textLength="11.625" x="1958" y="82.62">1</text><text fill="#000000" font-family="sans-serif" font-size="20" lengthAdjust="spacing" textLength="268" x="1973.625" y="82.62">POST /buildings/:id/elevators</text><polygon fill="#181818" points="579.875,127.7199,589.875,131.7199,579.875,135.7199,583.875,131.7199" style="stroke:#181818;stroke-width:1.0;"/><line style="stroke:#181818;stroke-width:1.0;" x1="167.25" x2="585.875" y1="131.7199" y2="131.7199"/><text fill="#000000" font-family="sans-serif" font-size="20" font-weight="bold" lengthAdjust="spacing" textLength="11.625" x="174.25" y="123.8599">2</text><text fill="#000000" font-family="sans-serif" font-size="20" lengthAdjust="spacing" textLength="390" x="189.875" y="123.8599">createElevator(elevatorDTO,buildingCode)</text><polygon fill="#181818" points="886.5,168.9599,896.5,172.9599,886.5,176.9599,890.5,172.9599" style="stroke:#181818;stroke-width:1.0;"/><line style="stroke:#181818;stroke-width:1.0;" x1="601.875" x2="892.5" y1="172.9599" y2="172.9599"/><text fill="#000000" font-family="sans-serif" font-size="20" font-weight="bold" lengthAdjust="spacing" textLength="11.625" x="608.875" y="165.0999">3</text><text fill="#000000" font-family="sans-serif" font-size="20" lengthAdjust="spacing" textLength="262" x="624.5" y="165.0999">createElevator(elevatorDTO)</text><polygon fill="#181818" points="1422.125,210.1999,1432.125,214.1999,1422.125,218.1999,1426.125,214.1999" style="stroke:#181818;stroke-width:1.0;"/><line style="stroke:#181818;stroke-width:1.0;" x1="908.5" x2="1428.125" y1="214.1999" y2="214.1999"/><text fill="#000000" font-family="sans-serif" font-size="20" font-weight="bold" lengthAdjust="spacing" textLength="11.625" x="915.5" y="206.3399">4</text><text fill="#000000" font-family="sans-serif" font-size="20" lengthAdjust="spacing" textLength="409" x="931.125" y="206.3399">findByDomainId(elevatorDTO.buildingCode)</text><polygon fill="#181818" points="1190.125,281.4398,1200.125,285.4398,1190.125,289.4398,1194.125,285.4398" style="stroke:#181818;stroke-width:1.0;"/><line style="stroke:#181818;stroke-width:1.0;" x1="908.5" x2="1196.125" y1="285.4398" y2="285.4398"/><text fill="#000000" font-family="sans-serif" font-size="20" font-weight="bold" lengthAdjust="spacing" textLength="11.625" x="915.5" y="277.5799">5</text><text fill="#000000" font-family="sans-serif" font-size="20" lengthAdjust="spacing" textLength="70" x="931.125" y="277.5799">create()</text><rect fill="#E2E2F0" height="41.24" rx="2.5" ry="2.5" style="stroke:#181818;stroke-width:0.5;" width="156" x="1202.125" y="252.1999"/><text fill="#000000" font-family="sans-serif" font-size="20" lengthAdjust="spacing" textLength="142" x="1209.125" y="280.5799">floorList:Floor[]</text><path d="M1285,309.4398 L1285,373.4398 L1606,373.4398 L1606,319.4398 L1596,309.4398 L1285,309.4398 " fill="#FEFFDD" style="stroke:#181818;stroke-width:0.5;"/><path d="M1596,309.4398 L1596,319.4398 L1606,319.4398 L1596,309.4398 " fill="#FEFFDD" style="stroke:#181818;stroke-width:0.5;"/><text fill="#000000" font-family="sans-serif" font-size="20" lengthAdjust="spacing" textLength="295" x="1291" y="335.8198">we must check if the floorIds all</text><text fill="#000000" font-family="sans-serif" font-size="20" lengthAdjust="spacing" textLength="259" x="1291" y="363.0598">belong to the same building</text><path d="M813.5,385.9198 L902,385.9198 L902,405.1598 L892,415.1598 L813.5,415.1598 L813.5,385.9198 " fill="#EEEEEE" style="stroke:#000000;stroke-width:1.5;"/><rect fill="none" height="183.9599" style="stroke:#000000;stroke-width:1.5;" width="829.625" x="813.5" y="385.9198"/><text fill="#000000" font-family="sans-serif" font-size="20" font-weight="bold" lengthAdjust="spacing" textLength="43.5" x="828.5" y="408.2998">loop</text><text fill="#000000" font-family="sans-serif" font-size="20" font-weight="bold" lengthAdjust="spacing" textLength="403.75" x="917" y="409.2998">[for each floorId in elevatorDTO.floorIds]</text><polygon fill="#181818" points="1559.625,456.6397,1569.625,460.6397,1559.625,464.6397,1563.625,460.6397" style="stroke:#181818;stroke-width:1.0;"/><line style="stroke:#181818;stroke-width:1.0;" x1="908.5" x2="1565.625" y1="460.6397" y2="460.6397"/><text fill="#000000" font-family="sans-serif" font-size="20" font-weight="bold" lengthAdjust="spacing" textLength="11.625" x="915.5" y="452.7797">6</text><text fill="#000000" font-family="sans-serif" font-size="20" lengthAdjust="spacing" textLength="228" x="931.125" y="452.7797">floor=findWithId(floorId)</text><polygon fill="#181818" points="1263.125,527.8797,1273.125,531.8797,1263.125,535.8797,1267.125,531.8797" style="stroke:#181818;stroke-width:1.0;"/><line style="stroke:#181818;stroke-width:1.0;" x1="908.5" x2="1269.125" y1="531.8797" y2="531.8797"/><text fill="#000000" font-family="sans-serif" font-size="20" font-weight="bold" lengthAdjust="spacing" textLength="11.625" x="915.5" y="524.0197">7</text><text fill="#000000" font-family="sans-serif" font-size="20" lengthAdjust="spacing" textLength="91" x="931.125" y="524.0197">add(floor)</text><polygon fill="#181818" points="1006.125,606.1197,1016.125,610.1197,1006.125,614.1197,1010.125,610.1197" style="stroke:#181818;stroke-width:1.0;"/><line style="stroke:#181818;stroke-width:1.0;" x1="908.5" x2="1012.125" y1="610.1197" y2="610.1197"/><text fill="#000000" font-family="sans-serif" font-size="20" font-weight="bold" lengthAdjust="spacing" textLength="11.625" x="915.5" y="602.2597">8</text><text fill="#000000" font-family="sans-serif" font-size="20" lengthAdjust="spacing" textLength="70" x="931.125" y="602.2597">create()</text><rect fill="#E2E2F0" height="41.24" rx="2.5" ry="2.5" style="stroke:#181818;stroke-width:0.5;" width="174" x="1018.125" y="576.8797"/><text fill="#000000" font-family="sans-serif" font-size="20" lengthAdjust="spacing" textLength="160" x="1025.125" y="605.2597">:elevator:Elevator</text><polygon fill="#181818" points="1856.125,658.3596,1866.125,662.3596,1856.125,666.3596,1860.125,662.3596" style="stroke:#181818;stroke-width:1.0;"/><line style="stroke:#181818;stroke-width:1.0;" x1="908.5" x2="1862.125" y1="662.3596" y2="662.3596"/><text fill="#000000" font-family="sans-serif" font-size="20" font-weight="bold" lengthAdjust="spacing" textLength="11.625" x="915.5" y="654.4997">9</text><text fill="#000000" font-family="sans-serif" font-size="20" lengthAdjust="spacing" textLength="280" x="931.125" y="654.4997">building.elevator=newElevator</text><polygon fill="#181818" points="1422.125,729.5996,1432.125,733.5996,1422.125,737.5996,1426.125,733.5996" style="stroke:#181818;stroke-width:1.0;"/><line style="stroke:#181818;stroke-width:1.0;" x1="908.5" x2="1428.125" y1="733.5996" y2="733.5996"/><text fill="#000000" font-family="sans-serif" font-size="20" font-weight="bold" lengthAdjust="spacing" textLength="23.25" x="915.5" y="725.7396">10</text><text fill="#000000" font-family="sans-serif" font-size="20" lengthAdjust="spacing" textLength="129" x="942.75" y="725.7396">save(building)</text><polygon fill="#181818" points="1693.625,800.8396,1703.625,804.8396,1693.625,808.8396,1697.625,804.8396" style="stroke:#181818;stroke-width:1.0;"/><line style="stroke:#181818;stroke-width:1.0;" x1="908.5" x2="1699.625" y1="804.8396" y2="804.8396"/><text fill="#000000" font-family="sans-serif" font-size="20" font-weight="bold" lengthAdjust="spacing" textLength="23.25" x="915.5" y="796.9796">11</text><text fill="#000000" font-family="sans-serif" font-size="20" lengthAdjust="spacing" textLength="140" x="942.75" y="796.9796">toDto(elevator)</text><polygon fill="#181818" points="1956.125,842.0796,1966.125,846.0796,1956.125,850.0796,1960.125,846.0796" style="stroke:#181818;stroke-width:1.0;"/><line style="stroke:#181818;stroke-width:1.0;" x1="1710.625" x2="1962.125" y1="846.0796" y2="846.0796"/><text fill="#000000" font-family="sans-serif" font-size="20" font-weight="bold" lengthAdjust="spacing" textLength="23.25" x="1717.625" y="838.2196">12</text><text fill="#000000" font-family="sans-serif" font-size="20" lengthAdjust="spacing" textLength="70" x="1744.875" y="838.2196">create()</text><rect fill="#E2E2F0" height="41.24" rx="2.5" ry="2.5" style="stroke:#181818;stroke-width:0.5;" width="265" x="1968.125" y="812.8396"/><text fill="#000000" font-family="sans-serif" font-size="20" lengthAdjust="spacing" textLength="251" x="1975.125" y="841.2196">:elevatorDTO:IElevatorDTO</text><polygon fill="#181818" points="612.875,894.3195,602.875,898.3195,612.875,902.3195,608.875,898.3195" style="stroke:#181818;stroke-width:1.0;"/><line style="stroke:#181818;stroke-width:1.0;stroke-dasharray:2.0,2.0;" x1="606.875" x2="902.5" y1="898.3195" y2="898.3195"/><text fill="#000000" font-family="sans-serif" font-size="20" font-weight="bold" lengthAdjust="spacing" textLength="23.25" x="618.875" y="890.4596">13</text><text fill="#000000" font-family="sans-serif" font-size="20" lengthAdjust="spacing" textLength="192" x="646.125" y="890.4596">sucess(elevatorDTO)</text><polygon fill="#181818" points="178.25,935.5595,168.25,939.5595,178.25,943.5595,174.25,939.5595" style="stroke:#181818;stroke-width:1.0;"/><line style="stroke:#181818;stroke-width:1.0;stroke-dasharray:2.0,2.0;" x1="172.25" x2="595.875" y1="939.5595" y2="939.5595"/><text fill="#000000" font-family="sans-serif" font-size="20" font-weight="bold" lengthAdjust="spacing" textLength="23.25" x="184.25" y="931.6995">14</text><text fill="#000000" font-family="sans-serif" font-size="20" lengthAdjust="spacing" textLength="192" x="211.5" y="931.6995">sucess(elevatorDTO)</text><polygon fill="#181818" points="11,976.7995,1,980.7995,11,984.7995,7,980.7995" style="stroke:#181818;stroke-width:1.0;"/><line style="stroke:#181818;stroke-width:1.0;stroke-dasharray:2.0,2.0;" x1="5" x2="161.25" y1="980.7995" y2="980.7995"/><text fill="#000000" font-family="sans-serif" font-size="20" font-weight="bold" lengthAdjust="spacing" textLength="23.25" x="17" y="972.9395">15</text><text fill="#000000" font-family="sans-serif" font-size="20" lengthAdjust="spacing" textLength="111" x="44.25" y="972.9395">201 Created</text><!--SRC=[ZPFBZjem58RtVeeZLZ0gmtIMKQTLWI0XCG8bp5HLrOM97R08DeeTHktJzzY9WqtLoownl__tkUgZa6TQqrEbYYDdm7X9cyeib3Iv-CdXyO7GnYZPd7Qy9aWQKOWpbGQozSis1QfXaAGLlr2ZwamrXWyYQhRDLZ4qG-jQLHMlOpBFNcCmv_L553T-wIhjCDvXFH-3YzKotpgoh9IgLqARP66_ldsFmMcMRjQjvRGH5HDod_6pkd6xGixaT-BvyoOE_vcURnvwMQxcZjbrx_GFnk1ykuvJn8DacLv_1eHyKkEFa7_D8O7D6XETU4yzIGIRUAKcj302FtdRBqBQjg7OTIQ1ekPuwys7mPFllELCCJww6baXSMeR0dRjRoQ13b5YSLIrDK-W599DVypLYGgvPA7k_W-FEoLX_EQWytLDlxlh8ngEY5G8rM9_CA3A5Y00RnnEZJPG77Xn1562EN1mWx9a6cXL0K8xNYcv1wFShQOd3ZugmYK3QqrGSuPIrO0X7Rm520bXCjuPJNsalWBsvidMuOim1wn1XuuGxNDqC1u4QVkZC76qewnpYFLTrg7U7M4MldHsiUBA-LwviKtwrEzzOa-Il_cM1msoUDGWTt3JU4qlVEWT_xkzTiSIxCVSg7vM0Z5U4uiWYKMFamaiBUOChqkWcu9h7SzjeB2JsmuyIje5-gV6RSc7yRZd7n_Umyo5mqAkNSjV]--></g></svg>