<?xml version="1.0" encoding="UTF-8" standalone="no"?><svg xmlns="http://www.w3.org/2000/svg" xmlns:xlink="http://www.w3.org/1999/xlink" contentStyleType="text/css" height="877px" preserveAspectRatio="none" style="width:2855px;height:877px;background:#FFFFFF;" version="1.1" viewBox="0 0 2855 877" width="2855px" zoomAndPan="magnify"><defs/><g><rect fill="#FFFFFF" height="722.5996" style="stroke:#181818;stroke-width:1.0;" width="10" x="189.625" y="90.4799"/><rect fill="#FFFFFF" height="640.1197" style="stroke:#181818;stroke-width:1.0;" width="10" x="450.25" y="131.7199"/><rect fill="#FFFFFF" height="557.6397" style="stroke:#181818;stroke-width:1.0;" width="10" x="756.875" y="172.9599"/><rect fill="#FFFFFF" height="329.4398" style="stroke:#181818;stroke-width:1.0;" width="10" x="1126" y="266.4398"/><rect fill="#FFFFFF" height="30" style="stroke:#181818;stroke-width:1.0;" width="10" x="1457.625" y="307.6798"/><rect fill="#FFFFFF" height="41.24" style="stroke:#181818;stroke-width:1.0;" width="10" x="1457.625" y="502.3997"/><rect fill="#FFFFFF" height="41.24" style="stroke:#181818;stroke-width:1.0;" width="10" x="1457.625" y="637.1197"/><rect fill="#FFFFFF" height="30" style="stroke:#181818;stroke-width:1.0;" width="10" x="2140.625" y="431.1598"/><line style="stroke:#181818;stroke-width:0.5;stroke-dasharray:5.0,5.0;" x1="194.625" x2="194.625" y1="47.24" y2="831.0796"/><line style="stroke:#181818;stroke-width:0.5;stroke-dasharray:5.0,5.0;" x1="454.75" x2="454.75" y1="47.24" y2="831.0796"/><line style="stroke:#181818;stroke-width:0.5;stroke-dasharray:5.0,5.0;" x1="761.875" x2="761.875" y1="47.24" y2="831.0796"/><line style="stroke:#181818;stroke-width:0.5;stroke-dasharray:5.0,5.0;" x1="963.5" x2="963.5" y1="217.0799" y2="831.0796"/><line style="stroke:#181818;stroke-width:0.5;stroke-dasharray:5.0,5.0;" x1="1130.5" x2="1130.5" y1="47.24" y2="831.0796"/><line style="stroke:#181818;stroke-width:0.5;stroke-dasharray:5.0,5.0;" x1="1462.125" x2="1462.125" y1="47.24" y2="831.0796"/><line style="stroke:#181818;stroke-width:0.5;stroke-dasharray:5.0,5.0;" x1="1735.125" x2="1735.125" y1="381.7998" y2="831.0796"/><line style="stroke:#181818;stroke-width:0.5;stroke-dasharray:5.0,5.0;" x1="2145.125" x2="2145.125" y1="47.24" y2="831.0796"/><line style="stroke:#181818;stroke-width:0.5;stroke-dasharray:5.0,5.0;" x1="2467.125" x2="2467.125" y1="546.5197" y2="831.0796"/><line style="stroke:#181818;stroke-width:0.5;stroke-dasharray:5.0,5.0;" x1="2716.125" x2="2716.125" y1="681.2397" y2="831.0796"/><rect fill="#E2E2F0" height="41.24" rx="2.5" ry="2.5" style="stroke:#181818;stroke-width:0.5;" width="148" x="120.625" y="5"/><text fill="#000000" font-family="sans-serif" font-size="20" lengthAdjust="spacing" textLength="134" x="127.625" y="33.38">:ElevatorRoute</text><rect fill="#E2E2F0" height="41.24" rx="2.5" ry="2.5" style="stroke:#181818;stroke-width:0.5;" width="148" x="120.625" y="830.0796"/><text fill="#000000" font-family="sans-serif" font-size="20" lengthAdjust="spacing" textLength="134" x="127.625" y="858.4596">:ElevatorRoute</text><rect fill="#E2E2F0" height="41.24" rx="2.5" ry="2.5" style="stroke:#181818;stroke-width:0.5;" width="187" x="361.75" y="5"/><text fill="#000000" font-family="sans-serif" font-size="20" lengthAdjust="spacing" textLength="173" x="368.75" y="33.38">:ElevatorController</text><rect fill="#E2E2F0" height="41.24" rx="2.5" ry="2.5" style="stroke:#181818;stroke-width:0.5;" width="187" x="361.75" y="830.0796"/><text fill="#000000" font-family="sans-serif" font-size="20" lengthAdjust="spacing" textLength="173" x="368.75" y="858.4596">:ElevatorController</text><rect fill="#E2E2F0" height="41.24" rx="2.5" ry="2.5" style="stroke:#181818;stroke-width:0.5;" width="160" x="681.875" y="5"/><text fill="#000000" font-family="sans-serif" font-size="20" lengthAdjust="spacing" textLength="146" x="688.875" y="33.38">:ElevatorService</text><rect fill="#E2E2F0" height="41.24" rx="2.5" ry="2.5" style="stroke:#181818;stroke-width:0.5;" width="160" x="681.875" y="830.0796"/><text fill="#000000" font-family="sans-serif" font-size="20" lengthAdjust="spacing" textLength="146" x="688.875" y="858.4596">:ElevatorService</text><rect fill="#E2E2F0" height="41.24" rx="2.5" ry="2.5" style="stroke:#181818;stroke-width:0.5;" width="174" x="876.5" y="830.0796"/><text fill="#000000" font-family="sans-serif" font-size="20" lengthAdjust="spacing" textLength="160" x="883.5" y="858.4596">:elevator:Elevator</text><rect fill="#E2E2F0" height="41.24" rx="2.5" ry="2.5" style="stroke:#181818;stroke-width:0.5;" width="141" x="1060.5" y="5"/><text fill="#000000" font-family="sans-serif" font-size="20" lengthAdjust="spacing" textLength="127" x="1067.5" y="33.38">:ElevatorRepo</text><rect fill="#E2E2F0" height="41.24" rx="2.5" ry="2.5" style="stroke:#181818;stroke-width:0.5;" width="141" x="1060.5" y="830.0796"/><text fill="#000000" font-family="sans-serif" font-size="20" lengthAdjust="spacing" textLength="127" x="1067.5" y="858.4596">:ElevatorRepo</text><rect fill="#E2E2F0" height="41.24" rx="2.5" ry="2.5" style="stroke:#181818;stroke-width:0.5;" width="135" x="1395.125" y="5"/><text fill="#000000" font-family="sans-serif" font-size="20" lengthAdjust="spacing" textLength="121" x="1402.125" y="33.38">:ElevatorMap</text><rect fill="#E2E2F0" height="41.24" rx="2.5" ry="2.5" style="stroke:#181818;stroke-width:0.5;" width="135" x="1395.125" y="830.0796"/><text fill="#000000" font-family="sans-serif" font-size="20" lengthAdjust="spacing" textLength="121" x="1402.125" y="858.4596">:ElevatorMap</text><rect fill="#E2E2F0" height="41.24" rx="2.5" ry="2.5" style="stroke:#181818;stroke-width:0.5;" width="390" x="1540.125" y="830.0796"/><text fill="#000000" font-family="sans-serif" font-size="20" lengthAdjust="spacing" textLength="376" x="1547.125" y="858.4596">elevatorPersistence:IElevatorPersistence</text><rect fill="#E2E2F0" height="41.24" rx="2.5" ry="2.5" style="stroke:#181818;stroke-width:0.5;" width="411" x="1940.125" y="5"/><text fill="#000000" font-family="sans-serif" font-size="20" lengthAdjust="spacing" textLength="397" x="1947.125" y="33.38">:Model&lt;IElevatorPersistence &amp; Document&gt;</text><rect fill="#E2E2F0" height="41.24" rx="2.5" ry="2.5" style="stroke:#181818;stroke-width:0.5;" width="411" x="1940.125" y="830.0796"/><text fill="#000000" font-family="sans-serif" font-size="20" lengthAdjust="spacing" textLength="397" x="1947.125" y="858.4596">:Model&lt;IElevatorPersistence &amp; Document&gt;</text><rect fill="#E2E2F0" height="41.24" rx="2.5" ry="2.5" style="stroke:#181818;stroke-width:0.5;" width="213" x="2361.125" y="830.0796"/><text fill="#000000" font-family="sans-serif" font-size="20" lengthAdjust="spacing" textLength="199" x="2368.125" y="858.4596">:newElevator:Elevator</text><rect fill="#E2E2F0" height="41.24" rx="2.5" ry="2.5" style="stroke:#181818;stroke-width:0.5;" width="265" x="2584.125" y="830.0796"/><text fill="#000000" font-family="sans-serif" font-size="20" lengthAdjust="spacing" textLength="251" x="2591.125" y="858.4596">:elevatorDTO:IElevatorDTO</text><rect fill="#FFFFFF" height="722.5996" style="stroke:#181818;stroke-width:1.0;" width="10" x="189.625" y="90.4799"/><rect fill="#FFFFFF" height="640.1197" style="stroke:#181818;stroke-width:1.0;" width="10" x="450.25" y="131.7199"/><rect fill="#FFFFFF" height="557.6397" style="stroke:#181818;stroke-width:1.0;" width="10" x="756.875" y="172.9599"/><rect fill="#FFFFFF" height="329.4398" style="stroke:#181818;stroke-width:1.0;" width="10" x="1126" y="266.4398"/><rect fill="#FFFFFF" height="30" style="stroke:#181818;stroke-width:1.0;" width="10" x="1457.625" y="307.6798"/><rect fill="#FFFFFF" height="41.24" style="stroke:#181818;stroke-width:1.0;" width="10" x="1457.625" y="502.3997"/><rect fill="#FFFFFF" height="41.24" style="stroke:#181818;stroke-width:1.0;" width="10" x="1457.625" y="637.1197"/><rect fill="#FFFFFF" height="30" style="stroke:#181818;stroke-width:1.0;" width="10" x="2140.625" y="431.1598"/><ellipse cx="4.5" cy="89.7299" fill="none" rx="4" ry="4" style="stroke:#181818;stroke-width:1.5;"/><polygon fill="#181818" points="177.625,86.4799,187.625,90.4799,177.625,94.4799,181.625,90.4799" style="stroke:#181818;stroke-width:1.0;"/><line style="stroke:#181818;stroke-width:1.0;" x1="9" x2="183.625" y1="90.4799" y2="90.4799"/><text fill="#000000" font-family="sans-serif" font-size="20" font-weight="bold" lengthAdjust="spacing" textLength="11.625" x="12" y="82.62">1</text><text fill="#000000" font-family="sans-serif" font-size="20" lengthAdjust="spacing" textLength="147" x="27.625" y="82.62">POST /elevators</text><polygon fill="#181818" points="438.25,127.7199,448.25,131.7199,438.25,135.7199,442.25,131.7199" style="stroke:#181818;stroke-width:1.0;"/><line style="stroke:#181818;stroke-width:1.0;" x1="199.625" x2="444.25" y1="131.7199" y2="131.7199"/><text fill="#000000" font-family="sans-serif" font-size="20" font-weight="bold" lengthAdjust="spacing" textLength="11.625" x="206.625" y="123.8599">2</text><text fill="#000000" font-family="sans-serif" font-size="20" lengthAdjust="spacing" textLength="216" x="222.25" y="123.8599">createElevator(request)</text><polygon fill="#181818" points="744.875,168.9599,754.875,172.9599,744.875,176.9599,748.875,172.9599" style="stroke:#181818;stroke-width:1.0;"/><line style="stroke:#181818;stroke-width:1.0;" x1="460.25" x2="750.875" y1="172.9599" y2="172.9599"/><text fill="#000000" font-family="sans-serif" font-size="20" font-weight="bold" lengthAdjust="spacing" textLength="11.625" x="467.25" y="165.0999">3</text><text fill="#000000" font-family="sans-serif" font-size="20" lengthAdjust="spacing" textLength="262" x="482.875" y="165.0999">createElevator(elevatorDTO)</text><polygon fill="#181818" points="864.5,210.1999,874.5,214.1999,864.5,218.1999,868.5,214.1999" style="stroke:#181818;stroke-width:1.0;"/><line style="stroke:#181818;stroke-width:1.0;" x1="766.875" x2="870.5" y1="214.1999" y2="214.1999"/><text fill="#000000" font-family="sans-serif" font-size="20" font-weight="bold" lengthAdjust="spacing" textLength="11.625" x="773.875" y="206.3399">4</text><text fill="#000000" font-family="sans-serif" font-size="20" lengthAdjust="spacing" textLength="70" x="789.5" y="206.3399">create()</text><rect fill="#E2E2F0" height="41.24" rx="2.5" ry="2.5" style="stroke:#181818;stroke-width:0.5;" width="174" x="876.5" y="180.9599"/><text fill="#000000" font-family="sans-serif" font-size="20" lengthAdjust="spacing" textLength="160" x="883.5" y="209.3399">:elevator:Elevator</text><polygon fill="#181818" points="1114,262.4398,1124,266.4398,1114,270.4398,1118,266.4398" style="stroke:#181818;stroke-width:1.0;"/><line style="stroke:#181818;stroke-width:1.0;" x1="766.875" x2="1120" y1="266.4398" y2="266.4398"/><text fill="#000000" font-family="sans-serif" font-size="20" font-weight="bold" lengthAdjust="spacing" textLength="11.625" x="773.875" y="258.5799">5</text><text fill="#000000" font-family="sans-serif" font-size="20" lengthAdjust="spacing" textLength="129" x="789.5" y="258.5799">save(elevator)</text><polygon fill="#181818" points="1445.625,303.6798,1455.625,307.6798,1445.625,311.6798,1449.625,307.6798" style="stroke:#181818;stroke-width:1.0;"/><line style="stroke:#181818;stroke-width:1.0;" x1="1136" x2="1451.625" y1="307.6798" y2="307.6798"/><text fill="#000000" font-family="sans-serif" font-size="20" font-weight="bold" lengthAdjust="spacing" textLength="11.625" x="1143" y="299.8198">6</text><text fill="#000000" font-family="sans-serif" font-size="20" lengthAdjust="spacing" textLength="203" x="1158.625" y="299.8198">toPersitence(elevator)</text><polygon fill="#181818" points="1528.125,374.9198,1538.125,378.9198,1528.125,382.9198,1532.125,378.9198" style="stroke:#181818;stroke-width:1.0;"/><line style="stroke:#181818;stroke-width:1.0;" x1="1136" x2="1534.125" y1="378.9198" y2="378.9198"/><text fill="#000000" font-family="sans-serif" font-size="20" font-weight="bold" lengthAdjust="spacing" textLength="11.625" x="1143" y="371.0598">7</text><text fill="#000000" font-family="sans-serif" font-size="20" lengthAdjust="spacing" textLength="70" x="1158.625" y="371.0598">create()</text><rect fill="#E2E2F0" height="41.24" rx="2.5" ry="2.5" style="stroke:#181818;stroke-width:0.5;" width="390" x="1540.125" y="345.6798"/><text fill="#000000" font-family="sans-serif" font-size="20" lengthAdjust="spacing" textLength="376" x="1547.125" y="374.0598">elevatorPersistence:IElevatorPersistence</text><polygon fill="#181818" points="2128.625,427.1598,2138.625,431.1598,2128.625,435.1598,2132.625,431.1598" style="stroke:#181818;stroke-width:1.0;"/><line style="stroke:#181818;stroke-width:1.0;" x1="1136" x2="2134.625" y1="431.1598" y2="431.1598"/><text fill="#000000" font-family="sans-serif" font-size="20" font-weight="bold" lengthAdjust="spacing" textLength="11.625" x="1143" y="423.2998">8</text><text fill="#000000" font-family="sans-serif" font-size="20" lengthAdjust="spacing" textLength="252" x="1158.625" y="423.2998">create(elevatorPersistence)</text><polygon fill="#181818" points="1445.625,498.3997,1455.625,502.3997,1445.625,506.3997,1449.625,502.3997" style="stroke:#181818;stroke-width:1.0;"/><line style="stroke:#181818;stroke-width:1.0;" x1="1136" x2="1451.625" y1="502.3997" y2="502.3997"/><text fill="#000000" font-family="sans-serif" font-size="20" font-weight="bold" lengthAdjust="spacing" textLength="11.625" x="1143" y="494.5398">9</text><text fill="#000000" font-family="sans-serif" font-size="20" lengthAdjust="spacing" textLength="287" x="1158.625" y="494.5398">toDomain(elevatorPersistence)</text><polygon fill="#181818" points="2349.125,539.6397,2359.125,543.6397,2349.125,547.6397,2353.125,543.6397" style="stroke:#181818;stroke-width:1.0;"/><line style="stroke:#181818;stroke-width:1.0;" x1="1462.625" x2="2355.125" y1="543.6397" y2="543.6397"/><text fill="#000000" font-family="sans-serif" font-size="20" font-weight="bold" lengthAdjust="spacing" textLength="23.25" x="1469.625" y="535.7797">10</text><text fill="#000000" font-family="sans-serif" font-size="20" lengthAdjust="spacing" textLength="70" x="1496.875" y="535.7797">create()</text><rect fill="#E2E2F0" height="41.24" rx="2.5" ry="2.5" style="stroke:#181818;stroke-width:0.5;" width="213" x="2361.125" y="510.3997"/><text fill="#000000" font-family="sans-serif" font-size="20" lengthAdjust="spacing" textLength="199" x="2368.125" y="538.7797">:newElevator:Elevator</text><polygon fill="#181818" points="777.875,591.8797,767.875,595.8797,777.875,599.8797,773.875,595.8797" style="stroke:#181818;stroke-width:1.0;"/><line style="stroke:#181818;stroke-width:1.0;stroke-dasharray:2.0,2.0;" x1="771.875" x2="1130" y1="595.8797" y2="595.8797"/><text fill="#000000" font-family="sans-serif" font-size="20" font-weight="bold" lengthAdjust="spacing" textLength="23.25" x="783.875" y="588.0197">11</text><text fill="#000000" font-family="sans-serif" font-size="20" lengthAdjust="spacing" textLength="114" x="811.125" y="588.0197">newElevator</text><polygon fill="#181818" points="1445.625,633.1197,1455.625,637.1197,1445.625,641.1197,1449.625,637.1197" style="stroke:#181818;stroke-width:1.0;"/><line style="stroke:#181818;stroke-width:1.0;" x1="766.875" x2="1451.625" y1="637.1197" y2="637.1197"/><text fill="#000000" font-family="sans-serif" font-size="20" font-weight="bold" lengthAdjust="spacing" textLength="23.25" x="773.875" y="629.2597">12</text><text fill="#000000" font-family="sans-serif" font-size="20" lengthAdjust="spacing" textLength="179" x="801.125" y="629.2597">toDto(newElevator)</text><polygon fill="#181818" points="2572.125,674.3596,2582.125,678.3596,2572.125,682.3596,2576.125,678.3596" style="stroke:#181818;stroke-width:1.0;"/><line style="stroke:#181818;stroke-width:1.0;" x1="1462.625" x2="2578.125" y1="678.3596" y2="678.3596"/><text fill="#000000" font-family="sans-serif" font-size="20" font-weight="bold" lengthAdjust="spacing" textLength="23.25" x="1469.625" y="670.4997">13</text><text fill="#000000" font-family="sans-serif" font-size="20" lengthAdjust="spacing" textLength="70" x="1496.875" y="670.4997">create()</text><rect fill="#E2E2F0" height="41.24" rx="2.5" ry="2.5" style="stroke:#181818;stroke-width:0.5;" width="265" x="2584.125" y="645.1197"/><text fill="#000000" font-family="sans-serif" font-size="20" lengthAdjust="spacing" textLength="251" x="2591.125" y="673.4997">:elevatorDTO:IElevatorDTO</text><polygon fill="#181818" points="471.25,726.5996,461.25,730.5996,471.25,734.5996,467.25,730.5996" style="stroke:#181818;stroke-width:1.0;"/><line style="stroke:#181818;stroke-width:1.0;stroke-dasharray:2.0,2.0;" x1="465.25" x2="760.875" y1="730.5996" y2="730.5996"/><text fill="#000000" font-family="sans-serif" font-size="20" font-weight="bold" lengthAdjust="spacing" textLength="23.25" x="477.25" y="722.7396">14</text><text fill="#000000" font-family="sans-serif" font-size="20" lengthAdjust="spacing" textLength="192" x="504.5" y="722.7396">sucess(elevatorDTO)</text><polygon fill="#181818" points="210.625,767.8396,200.625,771.8396,210.625,775.8396,206.625,771.8396" style="stroke:#181818;stroke-width:1.0;"/><line style="stroke:#181818;stroke-width:1.0;stroke-dasharray:2.0,2.0;" x1="204.625" x2="454.25" y1="771.8396" y2="771.8396"/><text fill="#000000" font-family="sans-serif" font-size="20" font-weight="bold" lengthAdjust="spacing" textLength="23.25" x="216.625" y="763.9796">15</text><text fill="#000000" font-family="sans-serif" font-size="20" lengthAdjust="spacing" textLength="192" x="243.875" y="763.9796">sucess(elevatorDTO)</text><polygon fill="#181818" points="11,809.0796,1,813.0796,11,817.0796,7,813.0796" style="stroke:#181818;stroke-width:1.0;"/><line style="stroke:#181818;stroke-width:1.0;stroke-dasharray:2.0,2.0;" x1="5" x2="193.625" y1="813.0796" y2="813.0796"/><text fill="#000000" font-family="sans-serif" font-size="20" font-weight="bold" lengthAdjust="spacing" textLength="23.25" x="17" y="805.2196">16</text><text fill="#000000" font-family="sans-serif" font-size="20" lengthAdjust="spacing" textLength="111" x="44.25" y="805.2196">201 Created</text><!--SRC=[XP9TRu8m58Rl-oiQBnOrCNDU4kEo2KjCL0ZWxZiuIuX0MLjSib-_jdpO8j4xw7dUy_KUVixAYZ1Iv3GvGufJ-2PrBZveAQBi3_1gYKWjQ5aNNy2G94MMP1Kf1GxzK-nXml74yNAu445PI6i14ulQnk7UXhOoDQDv3imce_3J1YDWbomPv7i_xVPkmq7BzGAR3Bt07xG75RMPmrjW8mTIsKJWXP56kce1C9vn0MK2piwxVHmKy5sldVz0KyZNOnByX5sQr0MKOcFBZyQu9VnwzoTsOz_UZ7ouzYX_9WYzqiMcjSx1WH_5-BcZEIA9oEGdD0123IS5saK79mnaj4iuPV1J0nUpgqvnICDIf0ozqHYj6Jg98eLBbPvuFk-LqraNqOOwc9CBz6cC72gCD2DPPQo31TLRraiUaqWAfM3zTWcKxtONVMfjQHyOkGkpWeAj6lfXsAPB2vALZtB9zfH0weuZMneTfBV1k1wJr4jhzzit8-ZKmCSxaFxTBQzpNY-7rmbmRhjlA9J_pTaOr_b0eszjlLZq_6hvWhUwdTGQKT_oFm00]--></g></svg>