<?xml version="1.0" encoding="UTF-8" standalone="no"?><svg xmlns="http://www.w3.org/2000/svg" xmlns:xlink="http://www.w3.org/1999/xlink" contentStyleType="text/css" height="1365px" preserveAspectRatio="none" style="width:3838px;height:1365px;background:#FFFFFF;" version="1.1" viewBox="0 0 3838 1365" width="3838px" zoomAndPan="magnify"><defs/><g><rect fill="#FFFFFF" height="1210.7594" style="stroke:#181818;stroke-width:1.0;" width="10" x="189.625" y="90.4799"/><rect fill="#FFFFFF" height="1128.2794" style="stroke:#181818;stroke-width:1.0;" width="10" x="450.25" y="131.7199"/><rect fill="#FFFFFF" height="1045.7995" style="stroke:#181818;stroke-width:1.0;" width="10" x="991.875" y="172.9599"/><rect fill="#FFFFFF" height="329.4398" style="stroke:#181818;stroke-width:1.0;" width="10" x="1361" y="587.8797"/><rect fill="#FFFFFF" height="30" style="stroke:#181818;stroke-width:1.0;" width="10" x="1519.5" y="457.3997"/><rect fill="#FFFFFF" height="30" style="stroke:#181818;stroke-width:1.0;" width="10" x="1678.5" y="214.1999"/><rect fill="#FFFFFF" height="125.4799" style="stroke:#181818;stroke-width:1.0;" width="10" x="1678.5" y="958.5595"/><rect fill="#FFFFFF" height="30" style="stroke:#181818;stroke-width:1.0;" width="10" x="2121.75" y="386.1598"/><rect fill="#FFFFFF" height="30" style="stroke:#181818;stroke-width:1.0;" width="10" x="2255.75" y="629.1197"/><rect fill="#FFFFFF" height="41.24" style="stroke:#181818;stroke-width:1.0;" width="10" x="2255.75" y="823.8396"/><rect fill="#FFFFFF" height="41.24" style="stroke:#181818;stroke-width:1.0;" width="10" x="2255.75" y="1125.2794"/><rect fill="#FFFFFF" height="30" style="stroke:#181818;stroke-width:1.0;" width="10" x="2420.75" y="1054.0395"/><rect fill="#FFFFFF" height="30" style="stroke:#181818;stroke-width:1.0;" width="10" x="3123.75" y="752.5996"/><rect fill="none" height="183.9599" style="stroke:#000000;stroke-width:1.5;" width="1286.375" x="906.875" y="311.4398"/><line style="stroke:#181818;stroke-width:0.5;stroke-dasharray:5.0,5.0;" x1="194.625" x2="194.625" y1="47.24" y2="1319.2393"/><line style="stroke:#181818;stroke-width:0.5;stroke-dasharray:5.0,5.0;" x1="454.75" x2="454.75" y1="47.24" y2="1319.2393"/><line style="stroke:#181818;stroke-width:0.5;stroke-dasharray:5.0,5.0;" x1="996.875" x2="996.875" y1="47.24" y2="1319.2393"/><line style="stroke:#181818;stroke-width:0.5;stroke-dasharray:5.0,5.0;" x1="1198.5" x2="1198.5" y1="538.5197" y2="1319.2393"/><line style="stroke:#181818;stroke-width:0.5;stroke-dasharray:5.0,5.0;" x1="1365.5" x2="1365.5" y1="47.24" y2="1319.2393"/><line style="stroke:#181818;stroke-width:0.5;stroke-dasharray:5.0,5.0;" x1="1524.5" x2="1524.5" y1="288.3199" y2="1319.2393"/><line style="stroke:#181818;stroke-width:0.5;stroke-dasharray:5.0,5.0;" x1="1683.5" x2="1683.5" y1="47.24" y2="1319.2393"/><line style="stroke:#181818;stroke-width:0.5;stroke-dasharray:5.0,5.0;" x1="2126.25" x2="2126.25" y1="47.24" y2="1319.2393"/><line style="stroke:#181818;stroke-width:0.5;stroke-dasharray:5.0,5.0;" x1="2260.25" x2="2260.25" y1="47.24" y2="1319.2393"/><line style="stroke:#181818;stroke-width:0.5;stroke-dasharray:5.0,5.0;" x1="2425.25" x2="2425.25" y1="47.24" y2="1319.2393"/><line style="stroke:#181818;stroke-width:0.5;stroke-dasharray:5.0,5.0;" x1="2718.25" x2="2718.25" y1="703.2397" y2="1319.2393"/><line style="stroke:#181818;stroke-width:0.5;stroke-dasharray:5.0,5.0;" x1="3128.25" x2="3128.25" y1="47.24" y2="1319.2393"/><line style="stroke:#181818;stroke-width:0.5;stroke-dasharray:5.0,5.0;" x1="3450.25" x2="3450.25" y1="867.9596" y2="1319.2393"/><line style="stroke:#181818;stroke-width:0.5;stroke-dasharray:5.0,5.0;" x1="3699.25" x2="3699.25" y1="1169.3994" y2="1319.2393"/><rect fill="#E2E2F0" height="41.24" rx="2.5" ry="2.5" style="stroke:#181818;stroke-width:0.5;" width="148" x="120.625" y="5"/><text fill="#000000" font-family="sans-serif" font-size="20" lengthAdjust="spacing" textLength="134" x="127.625" y="33.38">:ElevatorRoute</text><rect fill="#E2E2F0" height="41.24" rx="2.5" ry="2.5" style="stroke:#181818;stroke-width:0.5;" width="148" x="120.625" y="1318.2393"/><text fill="#000000" font-family="sans-serif" font-size="20" lengthAdjust="spacing" textLength="134" x="127.625" y="1346.6193">:ElevatorRoute</text><rect fill="#E2E2F0" height="41.24" rx="2.5" ry="2.5" style="stroke:#181818;stroke-width:0.5;" width="187" x="361.75" y="5"/><text fill="#000000" font-family="sans-serif" font-size="20" lengthAdjust="spacing" textLength="173" x="368.75" y="33.38">:ElevatorController</text><rect fill="#E2E2F0" height="41.24" rx="2.5" ry="2.5" style="stroke:#181818;stroke-width:0.5;" width="187" x="361.75" y="1318.2393"/><text fill="#000000" font-family="sans-serif" font-size="20" lengthAdjust="spacing" textLength="173" x="368.75" y="1346.6193">:ElevatorController</text><rect fill="#E2E2F0" height="41.24" rx="2.5" ry="2.5" style="stroke:#181818;stroke-width:0.5;" width="160" x="916.875" y="5"/><text fill="#000000" font-family="sans-serif" font-size="20" lengthAdjust="spacing" textLength="146" x="923.875" y="33.38">:ElevatorService</text><rect fill="#E2E2F0" height="41.24" rx="2.5" ry="2.5" style="stroke:#181818;stroke-width:0.5;" width="160" x="916.875" y="1318.2393"/><text fill="#000000" font-family="sans-serif" font-size="20" lengthAdjust="spacing" textLength="146" x="923.875" y="1346.6193">:ElevatorService</text><rect fill="#E2E2F0" height="41.24" rx="2.5" ry="2.5" style="stroke:#181818;stroke-width:0.5;" width="174" x="1111.5" y="1318.2393"/><text fill="#000000" font-family="sans-serif" font-size="20" lengthAdjust="spacing" textLength="160" x="1118.5" y="1346.6193">:elevator:Elevator</text><rect fill="#E2E2F0" height="41.24" rx="2.5" ry="2.5" style="stroke:#181818;stroke-width:0.5;" width="141" x="1295.5" y="5"/><text fill="#000000" font-family="sans-serif" font-size="20" lengthAdjust="spacing" textLength="127" x="1302.5" y="33.38">:ElevatorRepo</text><rect fill="#E2E2F0" height="41.24" rx="2.5" ry="2.5" style="stroke:#181818;stroke-width:0.5;" width="141" x="1295.5" y="1318.2393"/><text fill="#000000" font-family="sans-serif" font-size="20" lengthAdjust="spacing" textLength="127" x="1302.5" y="1346.6193">:ElevatorRepo</text><rect fill="#E2E2F0" height="41.24" rx="2.5" ry="2.5" style="stroke:#181818;stroke-width:0.5;" width="156" x="1446.5" y="1318.2393"/><text fill="#000000" font-family="sans-serif" font-size="20" lengthAdjust="spacing" textLength="142" x="1453.5" y="1346.6193">floorList:Floor[]</text><rect fill="#E2E2F0" height="41.24" rx="2.5" ry="2.5" style="stroke:#181818;stroke-width:0.5;" width="142" x="1612.5" y="5"/><text fill="#000000" font-family="sans-serif" font-size="20" lengthAdjust="spacing" textLength="128" x="1619.5" y="33.38">:BuildingRepo</text><rect fill="#E2E2F0" height="41.24" rx="2.5" ry="2.5" style="stroke:#181818;stroke-width:0.5;" width="142" x="1612.5" y="1318.2393"/><text fill="#000000" font-family="sans-serif" font-size="20" lengthAdjust="spacing" textLength="128" x="1619.5" y="1346.6193">:BuildingRepo</text><rect fill="#E2E2F0" height="41.24" rx="2.5" ry="2.5" style="stroke:#181818;stroke-width:0.5;" width="113" x="2070.25" y="5"/><text fill="#000000" font-family="sans-serif" font-size="20" lengthAdjust="spacing" textLength="99" x="2077.25" y="33.38">:FloorRepo</text><rect fill="#E2E2F0" height="41.24" rx="2.5" ry="2.5" style="stroke:#181818;stroke-width:0.5;" width="113" x="2070.25" y="1318.2393"/><text fill="#000000" font-family="sans-serif" font-size="20" lengthAdjust="spacing" textLength="99" x="2077.25" y="1346.6193">:FloorRepo</text><rect fill="#E2E2F0" height="41.24" rx="2.5" ry="2.5" style="stroke:#181818;stroke-width:0.5;" width="135" x="2193.25" y="5"/><text fill="#000000" font-family="sans-serif" font-size="20" lengthAdjust="spacing" textLength="121" x="2200.25" y="33.38">:ElevatorMap</text><rect fill="#E2E2F0" height="41.24" rx="2.5" ry="2.5" style="stroke:#181818;stroke-width:0.5;" width="135" x="2193.25" y="1318.2393"/><text fill="#000000" font-family="sans-serif" font-size="20" lengthAdjust="spacing" textLength="121" x="2200.25" y="1346.6193">:ElevatorMap</text><rect fill="#E2E2F0" height="41.24" rx="2.5" ry="2.5" style="stroke:#181818;stroke-width:0.5;" width="175" x="2338.25" y="5"/><text fill="#000000" font-family="sans-serif" font-size="20" lengthAdjust="spacing" textLength="161" x="2345.25" y="33.38">:building:Building</text><rect fill="#E2E2F0" height="41.24" rx="2.5" ry="2.5" style="stroke:#181818;stroke-width:0.5;" width="175" x="2338.25" y="1318.2393"/><text fill="#000000" font-family="sans-serif" font-size="20" lengthAdjust="spacing" textLength="161" x="2345.25" y="1346.6193">:building:Building</text><rect fill="#E2E2F0" height="41.24" rx="2.5" ry="2.5" style="stroke:#181818;stroke-width:0.5;" width="390" x="2523.25" y="1318.2393"/><text fill="#000000" font-family="sans-serif" font-size="20" lengthAdjust="spacing" textLength="376" x="2530.25" y="1346.6193">elevatorPersistence:IElevatorPersistence</text><rect fill="#E2E2F0" height="41.24" rx="2.5" ry="2.5" style="stroke:#181818;stroke-width:0.5;" width="411" x="2923.25" y="5"/><text fill="#000000" font-family="sans-serif" font-size="20" lengthAdjust="spacing" textLength="397" x="2930.25" y="33.38">:Model&lt;IElevatorPersistence &amp; Document&gt;</text><rect fill="#E2E2F0" height="41.24" rx="2.5" ry="2.5" style="stroke:#181818;stroke-width:0.5;" width="411" x="2923.25" y="1318.2393"/><text fill="#000000" font-family="sans-serif" font-size="20" lengthAdjust="spacing" textLength="397" x="2930.25" y="1346.6193">:Model&lt;IElevatorPersistence &amp; Document&gt;</text><rect fill="#E2E2F0" height="41.24" rx="2.5" ry="2.5" style="stroke:#181818;stroke-width:0.5;" width="213" x="3344.25" y="1318.2393"/><text fill="#000000" font-family="sans-serif" font-size="20" lengthAdjust="spacing" textLength="199" x="3351.25" y="1346.6193">:newElevator:Elevator</text><rect fill="#E2E2F0" height="41.24" rx="2.5" ry="2.5" style="stroke:#181818;stroke-width:0.5;" width="265" x="3567.25" y="1318.2393"/><text fill="#000000" font-family="sans-serif" font-size="20" lengthAdjust="spacing" textLength="251" x="3574.25" y="1346.6193">:elevatorDTO:IElevatorDTO</text><rect fill="#FFFFFF" height="1210.7594" style="stroke:#181818;stroke-width:1.0;" width="10" x="189.625" y="90.4799"/><rect fill="#FFFFFF" height="1128.2794" style="stroke:#181818;stroke-width:1.0;" width="10" x="450.25" y="131.7199"/><rect fill="#FFFFFF" height="1045.7995" style="stroke:#181818;stroke-width:1.0;" width="10" x="991.875" y="172.9599"/><rect fill="#FFFFFF" height="329.4398" style="stroke:#181818;stroke-width:1.0;" width="10" x="1361" y="587.8797"/><rect fill="#FFFFFF" height="30" style="stroke:#181818;stroke-width:1.0;" width="10" x="1519.5" y="457.3997"/><rect fill="#FFFFFF" height="30" style="stroke:#181818;stroke-width:1.0;" width="10" x="1678.5" y="214.1999"/><rect fill="#FFFFFF" height="125.4799" style="stroke:#181818;stroke-width:1.0;" width="10" x="1678.5" y="958.5595"/><rect fill="#FFFFFF" height="30" style="stroke:#181818;stroke-width:1.0;" width="10" x="2121.75" y="386.1598"/><rect fill="#FFFFFF" height="30" style="stroke:#181818;stroke-width:1.0;" width="10" x="2255.75" y="629.1197"/><rect fill="#FFFFFF" height="41.24" style="stroke:#181818;stroke-width:1.0;" width="10" x="2255.75" y="823.8396"/><rect fill="#FFFFFF" height="41.24" style="stroke:#181818;stroke-width:1.0;" width="10" x="2255.75" y="1125.2794"/><rect fill="#FFFFFF" height="30" style="stroke:#181818;stroke-width:1.0;" width="10" x="2420.75" y="1054.0395"/><rect fill="#FFFFFF" height="30" style="stroke:#181818;stroke-width:1.0;" width="10" x="3123.75" y="752.5996"/><ellipse cx="4.5" cy="89.7299" fill="none" rx="4" ry="4" style="stroke:#181818;stroke-width:1.5;"/><polygon fill="#181818" points="177.625,86.4799,187.625,90.4799,177.625,94.4799,181.625,90.4799" style="stroke:#181818;stroke-width:1.0;"/><line style="stroke:#181818;stroke-width:1.0;" x1="9" x2="183.625" y1="90.4799" y2="90.4799"/><text fill="#000000" font-family="sans-serif" font-size="20" font-weight="bold" lengthAdjust="spacing" textLength="11.625" x="12" y="82.62">1</text><text fill="#000000" font-family="sans-serif" font-size="20" lengthAdjust="spacing" textLength="147" x="27.625" y="82.62">POST /elevators</text><polygon fill="#181818" points="438.25,127.7199,448.25,131.7199,438.25,135.7199,442.25,131.7199" style="stroke:#181818;stroke-width:1.0;"/><line style="stroke:#181818;stroke-width:1.0;" x1="199.625" x2="444.25" y1="131.7199" y2="131.7199"/><text fill="#000000" font-family="sans-serif" font-size="20" font-weight="bold" lengthAdjust="spacing" textLength="11.625" x="206.625" y="123.8599">2</text><text fill="#000000" font-family="sans-serif" font-size="20" lengthAdjust="spacing" textLength="216" x="222.25" y="123.8599">createElevator(request)</text><polygon fill="#181818" points="979.875,168.9599,989.875,172.9599,979.875,176.9599,983.875,172.9599" style="stroke:#181818;stroke-width:1.0;"/><line style="stroke:#181818;stroke-width:1.0;" x1="460.25" x2="985.875" y1="172.9599" y2="172.9599"/><text fill="#000000" font-family="sans-serif" font-size="20" font-weight="bold" lengthAdjust="spacing" textLength="11.625" x="467.25" y="165.0999">3</text><text fill="#000000" font-family="sans-serif" font-size="20" lengthAdjust="spacing" textLength="497" x="482.875" y="165.0999">createElevator(elevatorDTO,buildingCode,floorCodes)</text><polygon fill="#181818" points="1666.5,210.1999,1676.5,214.1999,1666.5,218.1999,1670.5,214.1999" style="stroke:#181818;stroke-width:1.0;"/><line style="stroke:#181818;stroke-width:1.0;" x1="1001.875" x2="1672.5" y1="214.1999" y2="214.1999"/><text fill="#000000" font-family="sans-serif" font-size="20" font-weight="bold" lengthAdjust="spacing" textLength="11.625" x="1008.875" y="206.3399">4</text><text fill="#000000" font-family="sans-serif" font-size="20" lengthAdjust="spacing" textLength="189" x="1024.5" y="206.3399">exists(buildingCode)</text><polygon fill="#181818" points="1434.5,281.4398,1444.5,285.4398,1434.5,289.4398,1438.5,285.4398" style="stroke:#181818;stroke-width:1.0;"/><line style="stroke:#181818;stroke-width:1.0;" x1="1001.875" x2="1440.5" y1="285.4398" y2="285.4398"/><text fill="#000000" font-family="sans-serif" font-size="20" font-weight="bold" lengthAdjust="spacing" textLength="11.625" x="1008.875" y="277.5799">5</text><text fill="#000000" font-family="sans-serif" font-size="20" lengthAdjust="spacing" textLength="70" x="1024.5" y="277.5799">create()</text><rect fill="#E2E2F0" height="41.24" rx="2.5" ry="2.5" style="stroke:#181818;stroke-width:0.5;" width="156" x="1446.5" y="252.1999"/><text fill="#000000" font-family="sans-serif" font-size="20" lengthAdjust="spacing" textLength="142" x="1453.5" y="280.5799">floorList:Floor[]</text><path d="M906.875,311.4398 L995.375,311.4398 L995.375,330.6798 L985.375,340.6798 L906.875,340.6798 L906.875,311.4398 " fill="#EEEEEE" style="stroke:#000000;stroke-width:1.5;"/><rect fill="none" height="183.9599" style="stroke:#000000;stroke-width:1.5;" width="1286.375" x="906.875" y="311.4398"/><text fill="#000000" font-family="sans-serif" font-size="20" font-weight="bold" lengthAdjust="spacing" textLength="43.5" x="921.875" y="333.8198">loop</text><text fill="#000000" font-family="sans-serif" font-size="20" font-weight="bold" lengthAdjust="spacing" textLength="334.75" x="1010.375" y="334.8198">[for each floorCode in floorCodes]</text><polygon fill="#181818" points="2109.75,382.1598,2119.75,386.1598,2109.75,390.1598,2113.75,386.1598" style="stroke:#181818;stroke-width:1.0;"/><line style="stroke:#181818;stroke-width:1.0;" x1="1001.875" x2="2115.75" y1="386.1598" y2="386.1598"/><text fill="#000000" font-family="sans-serif" font-size="20" font-weight="bold" lengthAdjust="spacing" textLength="11.625" x="1008.875" y="378.2998">6</text><text fill="#000000" font-family="sans-serif" font-size="20" lengthAdjust="spacing" textLength="286" x="1024.5" y="378.2998">floor=findWithCode(floorCode)</text><polygon fill="#181818" points="1507.5,453.3997,1517.5,457.3997,1507.5,461.3997,1511.5,457.3997" style="stroke:#181818;stroke-width:1.0;"/><line style="stroke:#181818;stroke-width:1.0;" x1="1001.875" x2="1513.5" y1="457.3997" y2="457.3997"/><text fill="#000000" font-family="sans-serif" font-size="20" font-weight="bold" lengthAdjust="spacing" textLength="11.625" x="1008.875" y="449.5398">7</text><text fill="#000000" font-family="sans-serif" font-size="20" lengthAdjust="spacing" textLength="91" x="1024.5" y="449.5398">add(floor)</text><polygon fill="#181818" points="1099.5,531.6397,1109.5,535.6397,1099.5,539.6397,1103.5,535.6397" style="stroke:#181818;stroke-width:1.0;"/><line style="stroke:#181818;stroke-width:1.0;" x1="1001.875" x2="1105.5" y1="535.6397" y2="535.6397"/><text fill="#000000" font-family="sans-serif" font-size="20" font-weight="bold" lengthAdjust="spacing" textLength="11.625" x="1008.875" y="527.7797">8</text><text fill="#000000" font-family="sans-serif" font-size="20" lengthAdjust="spacing" textLength="70" x="1024.5" y="527.7797">create()</text><rect fill="#E2E2F0" height="41.24" rx="2.5" ry="2.5" style="stroke:#181818;stroke-width:0.5;" width="174" x="1111.5" y="502.3997"/><text fill="#000000" font-family="sans-serif" font-size="20" lengthAdjust="spacing" textLength="160" x="1118.5" y="530.7797">:elevator:Elevator</text><polygon fill="#181818" points="1349,583.8797,1359,587.8797,1349,591.8797,1353,587.8797" style="stroke:#181818;stroke-width:1.0;"/><line style="stroke:#181818;stroke-width:1.0;" x1="1001.875" x2="1355" y1="587.8797" y2="587.8797"/><text fill="#000000" font-family="sans-serif" font-size="20" font-weight="bold" lengthAdjust="spacing" textLength="11.625" x="1008.875" y="580.0197">9</text><text fill="#000000" font-family="sans-serif" font-size="20" lengthAdjust="spacing" textLength="129" x="1024.5" y="580.0197">save(elevator)</text><polygon fill="#181818" points="2243.75,625.1197,2253.75,629.1197,2243.75,633.1197,2247.75,629.1197" style="stroke:#181818;stroke-width:1.0;"/><line style="stroke:#181818;stroke-width:1.0;" x1="1371" x2="2249.75" y1="629.1197" y2="629.1197"/><text fill="#000000" font-family="sans-serif" font-size="20" font-weight="bold" lengthAdjust="spacing" textLength="23.25" x="1378" y="621.2597">10</text><text fill="#000000" font-family="sans-serif" font-size="20" lengthAdjust="spacing" textLength="203" x="1405.25" y="621.2597">toPersitence(elevator)</text><polygon fill="#181818" points="2511.25,696.3596,2521.25,700.3596,2511.25,704.3596,2515.25,700.3596" style="stroke:#181818;stroke-width:1.0;"/><line style="stroke:#181818;stroke-width:1.0;" x1="1371" x2="2517.25" y1="700.3596" y2="700.3596"/><text fill="#000000" font-family="sans-serif" font-size="20" font-weight="bold" lengthAdjust="spacing" textLength="23.25" x="1378" y="692.4997">11</text><text fill="#000000" font-family="sans-serif" font-size="20" lengthAdjust="spacing" textLength="70" x="1405.25" y="692.4997">create()</text><rect fill="#E2E2F0" height="41.24" rx="2.5" ry="2.5" style="stroke:#181818;stroke-width:0.5;" width="390" x="2523.25" y="667.1197"/><text fill="#000000" font-family="sans-serif" font-size="20" lengthAdjust="spacing" textLength="376" x="2530.25" y="695.4997">elevatorPersistence:IElevatorPersistence</text><polygon fill="#181818" points="3111.75,748.5996,3121.75,752.5996,3111.75,756.5996,3115.75,752.5996" style="stroke:#181818;stroke-width:1.0;"/><line style="stroke:#181818;stroke-width:1.0;" x1="1371" x2="3117.75" y1="752.5996" y2="752.5996"/><text fill="#000000" font-family="sans-serif" font-size="20" font-weight="bold" lengthAdjust="spacing" textLength="23.25" x="1378" y="744.7396">12</text><text fill="#000000" font-family="sans-serif" font-size="20" lengthAdjust="spacing" textLength="252" x="1405.25" y="744.7396">create(elevatorPersistence)</text><polygon fill="#181818" points="2243.75,819.8396,2253.75,823.8396,2243.75,827.8396,2247.75,823.8396" style="stroke:#181818;stroke-width:1.0;"/><line style="stroke:#181818;stroke-width:1.0;" x1="1371" x2="2249.75" y1="823.8396" y2="823.8396"/><text fill="#000000" font-family="sans-serif" font-size="20" font-weight="bold" lengthAdjust="spacing" textLength="23.25" x="1378" y="815.9796">13</text><text fill="#000000" font-family="sans-serif" font-size="20" lengthAdjust="spacing" textLength="287" x="1405.25" y="815.9796">toDomain(elevatorPersistence)</text><polygon fill="#181818" points="3332.25,861.0796,3342.25,865.0796,3332.25,869.0796,3336.25,865.0796" style="stroke:#181818;stroke-width:1.0;"/><line style="stroke:#181818;stroke-width:1.0;" x1="2260.75" x2="3338.25" y1="865.0796" y2="865.0796"/><text fill="#000000" font-family="sans-serif" font-size="20" font-weight="bold" lengthAdjust="spacing" textLength="23.25" x="2267.75" y="857.2196">14</text><text fill="#000000" font-family="sans-serif" font-size="20" lengthAdjust="spacing" textLength="70" x="2295" y="857.2196">create()</text><rect fill="#E2E2F0" height="41.24" rx="2.5" ry="2.5" style="stroke:#181818;stroke-width:0.5;" width="213" x="3344.25" y="831.8396"/><text fill="#000000" font-family="sans-serif" font-size="20" lengthAdjust="spacing" textLength="199" x="3351.25" y="860.2196">:newElevator:Elevator</text><polygon fill="#181818" points="1012.875,913.3195,1002.875,917.3195,1012.875,921.3195,1008.875,917.3195" style="stroke:#181818;stroke-width:1.0;"/><line style="stroke:#181818;stroke-width:1.0;stroke-dasharray:2.0,2.0;" x1="1006.875" x2="1365" y1="917.3195" y2="917.3195"/><text fill="#000000" font-family="sans-serif" font-size="20" font-weight="bold" lengthAdjust="spacing" textLength="23.25" x="1018.875" y="909.4596">15</text><text fill="#000000" font-family="sans-serif" font-size="20" lengthAdjust="spacing" textLength="114" x="1046.125" y="909.4596">newElevator</text><polygon fill="#181818" points="1666.5,954.5595,1676.5,958.5595,1666.5,962.5595,1670.5,958.5595" style="stroke:#181818;stroke-width:1.0;"/><line style="stroke:#181818;stroke-width:1.0;" x1="1001.875" x2="1672.5" y1="958.5595" y2="958.5595"/><text fill="#000000" font-family="sans-serif" font-size="20" font-weight="bold" lengthAdjust="spacing" textLength="23.25" x="1008.875" y="950.6995">16</text><text fill="#000000" font-family="sans-serif" font-size="20" lengthAdjust="spacing" textLength="491" x="1036.125" y="950.6995">addElevatorForCode(buildingDTO.code, newElevator)</text><line style="stroke:#181818;stroke-width:1.0;" x1="1688.5" x2="1730.5" y1="999.7995" y2="999.7995"/><line style="stroke:#181818;stroke-width:1.0;" x1="1730.5" x2="1730.5" y1="999.7995" y2="1012.7995"/><line style="stroke:#181818;stroke-width:1.0;" x1="1689.5" x2="1730.5" y1="1012.7995" y2="1012.7995"/><polygon fill="#181818" points="1699.5,1008.7995,1689.5,1012.7995,1699.5,1016.7995,1695.5,1012.7995" style="stroke:#181818;stroke-width:1.0;"/><text fill="#000000" font-family="sans-serif" font-size="20" font-weight="bold" lengthAdjust="spacing" textLength="23.25" x="1695.5" y="991.9395">17</text><text fill="#000000" font-family="sans-serif" font-size="20" lengthAdjust="spacing" textLength="392" x="1722.75" y="991.9395">elevator=findWithCode(buildingDTO.code)</text><polygon fill="#181818" points="2408.75,1050.0395,2418.75,1054.0395,2408.75,1058.0395,2412.75,1054.0395" style="stroke:#181818;stroke-width:1.0;"/><line style="stroke:#181818;stroke-width:1.0;" x1="1688.5" x2="2414.75" y1="1054.0395" y2="1054.0395"/><text fill="#000000" font-family="sans-serif" font-size="20" font-weight="bold" lengthAdjust="spacing" textLength="23.25" x="1695.5" y="1046.1795">18</text><text fill="#000000" font-family="sans-serif" font-size="20" lengthAdjust="spacing" textLength="190" x="1722.75" y="1046.1795">setElevator(elevator)</text><polygon fill="#181818" points="2243.75,1121.2794,2253.75,1125.2794,2243.75,1129.2794,2247.75,1125.2794" style="stroke:#181818;stroke-width:1.0;"/><line style="stroke:#181818;stroke-width:1.0;" x1="1001.875" x2="2249.75" y1="1125.2794" y2="1125.2794"/><text fill="#000000" font-family="sans-serif" font-size="20" font-weight="bold" lengthAdjust="spacing" textLength="23.25" x="1008.875" y="1117.4195">19</text><text fill="#000000" font-family="sans-serif" font-size="20" lengthAdjust="spacing" textLength="179" x="1036.125" y="1117.4195">toDto(newElevator)</text><polygon fill="#181818" points="3555.25,1162.5194,3565.25,1166.5194,3555.25,1170.5194,3559.25,1166.5194" style="stroke:#181818;stroke-width:1.0;"/><line style="stroke:#181818;stroke-width:1.0;" x1="2260.75" x2="3561.25" y1="1166.5194" y2="1166.5194"/><text fill="#000000" font-family="sans-serif" font-size="20" font-weight="bold" lengthAdjust="spacing" textLength="23.25" x="2267.75" y="1158.6594">20</text><text fill="#000000" font-family="sans-serif" font-size="20" lengthAdjust="spacing" textLength="70" x="2295" y="1158.6594">create()</text><rect fill="#E2E2F0" height="41.24" rx="2.5" ry="2.5" style="stroke:#181818;stroke-width:0.5;" width="265" x="3567.25" y="1133.2794"/><text fill="#000000" font-family="sans-serif" font-size="20" lengthAdjust="spacing" textLength="251" x="3574.25" y="1161.6594">:elevatorDTO:IElevatorDTO</text><polygon fill="#181818" points="471.25,1214.7594,461.25,1218.7594,471.25,1222.7594,467.25,1218.7594" style="stroke:#181818;stroke-width:1.0;"/><line style="stroke:#181818;stroke-width:1.0;stroke-dasharray:2.0,2.0;" x1="465.25" x2="995.875" y1="1218.7594" y2="1218.7594"/><text fill="#000000" font-family="sans-serif" font-size="20" font-weight="bold" lengthAdjust="spacing" textLength="23.25" x="477.25" y="1210.8994">21</text><text fill="#000000" font-family="sans-serif" font-size="20" lengthAdjust="spacing" textLength="192" x="504.5" y="1210.8994">sucess(elevatorDTO)</text><polygon fill="#181818" points="210.625,1255.9994,200.625,1259.9994,210.625,1263.9994,206.625,1259.9994" style="stroke:#181818;stroke-width:1.0;"/><line style="stroke:#181818;stroke-width:1.0;stroke-dasharray:2.0,2.0;" x1="204.625" x2="454.25" y1="1259.9994" y2="1259.9994"/><text fill="#000000" font-family="sans-serif" font-size="20" font-weight="bold" lengthAdjust="spacing" textLength="23.25" x="216.625" y="1252.1394">22</text><text fill="#000000" font-family="sans-serif" font-size="20" lengthAdjust="spacing" textLength="192" x="243.875" y="1252.1394">sucess(elevatorDTO)</text><polygon fill="#181818" points="11,1297.2393,1,1301.2393,11,1305.2393,7,1301.2393" style="stroke:#181818;stroke-width:1.0;"/><line style="stroke:#181818;stroke-width:1.0;stroke-dasharray:2.0,2.0;" x1="5" x2="193.625" y1="1301.2393" y2="1301.2393"/><text fill="#000000" font-family="sans-serif" font-size="20" font-weight="bold" lengthAdjust="spacing" textLength="23.25" x="17" y="1293.3794">23</text><text fill="#000000" font-family="sans-serif" font-size="20" lengthAdjust="spacing" textLength="111" x="44.25" y="1293.3794">201 Created</text><!--SRC=[XPHHRziW58NV-HKe3rDIDLlNHwlhj2IE52bf8YVT7gOzKFjcHNKWCpYRzkjxmJO6sshVRFZkuN0ve5wuEBE2dNAPla16CpYoCjTBAVIU_mTwUqDOgQKeJqzG42GrJ_cP2KsJxUCXfapHKHJdS65Q5eaiDOm2Qdv8rY4qH-b2vZaK8RbFleVW7eeBJpjwyJgkCQWnnuTW4k-s7NTmbY6pNA_s1miTSocBDLSwMfgldxz2SDQgpKgUPrpy7b1h8IlI9pRVTg6b3Jjt5dfShHSLyrGlv5OCoLsSx2tOz647XS8DW4WXMiNzmOwLxIAk3sOZCyZlXahe1xgGQNa2eU_3yeVs70JyZTy-YiLX6nuP3hGMyMT4o5SvlQyZ5T7T5e_bKqChmbBDyHCgW92AmmARheYc1U1i8pWku4y9Ia_QEiCH2sEH2LglnhDstNH-ZesvjiamNyhJGmbYP52jYaP4uHysJOtzMg_0KYI3pa2jONDuTULSZIS4LptJeomebZnJPu9oqVueGccZKBkmSr-EN6G_k7usqDZX4yJT-hO01pnBpP1l2YLPbbKQORsPxTJR8H1PiosJaN1NzKHjLh4BkCPxpR8-B8EikJCHrTB6qgPog0Gflxlcjn4m5oLquQJj7N0J0nV9Ny70mHfse6jp8K-CY_Uqq9ufmBg7VfC6z-5owrqtd_JZr4GIJwv1brK4N3mnvXzJ4szVhvVNMRCx-u4Phy4mO5tDYLTddpCyQT2zc-QlPh3WTlG6_FsvNciv7hRlDHXTlTbUgza-9QfCGId_EGWgpCMltX7lkNgdnZu-TzEfuszlFjEvjPC5HsWVjrS0]--></g></svg>