<?xml version="1.0" encoding="UTF-8" standalone="no"?><svg xmlns="http://www.w3.org/2000/svg" xmlns:xlink="http://www.w3.org/1999/xlink" contentStyleType="text/css" height="961px" preserveAspectRatio="none" style="width:2490px;height:961px;background:#FFFFFF;" version="1.1" viewBox="0 0 2490 961" width="2490px" zoomAndPan="magnify"><defs/><g><rect fill="#FFFFFF" height="819.0625" style="stroke:#181818;stroke-width:1.0;" width="10" x="175" y="82.5625"/><rect fill="#FFFFFF" height="744.5" style="stroke:#181818;stroke-width:1.0;" width="10" x="647" y="119.8438"/><rect fill="#FFFFFF" height="669.9375" style="stroke:#181818;stroke-width:1.0;" width="10" x="979" y="157.125"/><rect fill="#FFFFFF" height="30" style="stroke:#181818;stroke-width:1.0;" width="10" x="1389.5" y="484.375"/><rect fill="#FFFFFF" height="30" style="stroke:#181818;stroke-width:1.0;" width="10" x="1561" y="194.4063"/><rect fill="#FFFFFF" height="30" style="stroke:#181818;stroke-width:1.0;" width="10" x="1561" y="674.2188"/><rect fill="#FFFFFF" height="30" style="stroke:#181818;stroke-width:1.0;" width="10" x="1710" y="417.0938"/><rect fill="#FFFFFF" height="37.2813" style="stroke:#181818;stroke-width:1.0;" width="10" x="1853.5" y="741.5"/><rect fill="#FFFFFF" height="30" style="stroke:#181818;stroke-width:1.0;" width="10" x="2030" y="606.9375"/><rect fill="none" height="168.125" style="stroke:#000000;stroke-width:1.5;" width="900" x="886" y="354.25"/><line style="stroke:#181818;stroke-width:0.5;stroke-dasharray:5.0,5.0;" x1="180" x2="180" y1="43.2813" y2="919.625"/><line style="stroke:#181818;stroke-width:0.5;stroke-dasharray:5.0,5.0;" x1="652" x2="652" y1="43.2813" y2="919.625"/><line style="stroke:#181818;stroke-width:0.5;stroke-dasharray:5.0,5.0;" x1="984" x2="984" y1="43.2813" y2="919.625"/><line style="stroke:#181818;stroke-width:0.5;stroke-dasharray:5.0,5.0;" x1="1205" x2="1205" y1="563.5156" y2="919.625"/><line style="stroke:#181818;stroke-width:0.5;stroke-dasharray:5.0,5.0;" x1="1394" x2="1394" y1="266.5469" y2="919.625"/><line style="stroke:#181818;stroke-width:0.5;stroke-dasharray:5.0,5.0;" x1="1566" x2="1566" y1="43.2813" y2="919.625"/><line style="stroke:#181818;stroke-width:0.5;stroke-dasharray:5.0,5.0;" x1="1715" x2="1715" y1="43.2813" y2="919.625"/><line style="stroke:#181818;stroke-width:0.5;stroke-dasharray:5.0,5.0;" x1="1858" x2="1858" y1="43.2813" y2="919.625"/><line style="stroke:#181818;stroke-width:0.5;stroke-dasharray:5.0,5.0;" x1="2035" x2="2035" y1="43.2813" y2="919.625"/><line style="stroke:#181818;stroke-width:0.5;stroke-dasharray:5.0,5.0;" x1="2280" x2="2280" y1="783.6406" y2="919.625"/><line style="stroke:#181818;stroke-width:0.5;stroke-dasharray:5.0,5.0;" x1="2458" x2="2458" y1="43.2813" y2="919.625"/><rect fill="#E2E2F0" height="37.2813" rx="2.5" ry="2.5" style="stroke:#181818;stroke-width:0.5;" width="162" x="99" y="5"/><text fill="#000000" font-family="sans-serif" font-size="20" lengthAdjust="spacing" textLength="148" x="106" y="30.5645">:ElevatorRoute</text><rect fill="#E2E2F0" height="37.2813" rx="2.5" ry="2.5" style="stroke:#181818;stroke-width:0.5;" width="162" x="99" y="918.625"/><text fill="#000000" font-family="sans-serif" font-size="20" lengthAdjust="spacing" textLength="148" x="106" y="944.1895">:ElevatorRoute</text><rect fill="#E2E2F0" height="37.2813" rx="2.5" ry="2.5" style="stroke:#181818;stroke-width:0.5;" width="202" x="551" y="5"/><text fill="#000000" font-family="sans-serif" font-size="20" lengthAdjust="spacing" textLength="188" x="558" y="30.5645">:ElevatorController</text><rect fill="#E2E2F0" height="37.2813" rx="2.5" ry="2.5" style="stroke:#181818;stroke-width:0.5;" width="202" x="551" y="918.625"/><text fill="#000000" font-family="sans-serif" font-size="20" lengthAdjust="spacing" textLength="188" x="558" y="944.1895">:ElevatorController</text><rect fill="#E2E2F0" height="37.2813" rx="2.5" ry="2.5" style="stroke:#181818;stroke-width:0.5;" width="176" x="896" y="5"/><text fill="#000000" font-family="sans-serif" font-size="20" lengthAdjust="spacing" textLength="162" x="903" y="30.5645">:ElevatorService</text><rect fill="#E2E2F0" height="37.2813" rx="2.5" ry="2.5" style="stroke:#181818;stroke-width:0.5;" width="176" x="896" y="918.625"/><text fill="#000000" font-family="sans-serif" font-size="20" lengthAdjust="spacing" textLength="162" x="903" y="944.1895">:ElevatorService</text><rect fill="#E2E2F0" height="37.2813" rx="2.5" ry="2.5" style="stroke:#181818;stroke-width:0.5;" width="191" x="1110" y="918.625"/><text fill="#000000" font-family="sans-serif" font-size="20" lengthAdjust="spacing" textLength="177" x="1117" y="944.1895">:elevator:Elevator</text><rect fill="#E2E2F0" height="37.2813" rx="2.5" ry="2.5" style="stroke:#181818;stroke-width:0.5;" width="167" x="1311" y="918.625"/><text fill="#000000" font-family="sans-serif" font-size="20" lengthAdjust="spacing" textLength="153" x="1318" y="944.1895">floorList:Floor[]</text><rect fill="#E2E2F0" height="37.2813" rx="2.5" ry="2.5" style="stroke:#181818;stroke-width:0.5;" width="156" x="1488" y="5"/><text fill="#000000" font-family="sans-serif" font-size="20" lengthAdjust="spacing" textLength="142" x="1495" y="30.5645">:BuildingRepo</text><rect fill="#E2E2F0" height="37.2813" rx="2.5" ry="2.5" style="stroke:#181818;stroke-width:0.5;" width="156" x="1488" y="918.625"/><text fill="#000000" font-family="sans-serif" font-size="20" lengthAdjust="spacing" textLength="142" x="1495" y="944.1895">:BuildingRepo</text><rect fill="#E2E2F0" height="37.2813" rx="2.5" ry="2.5" style="stroke:#181818;stroke-width:0.5;" width="122" x="1654" y="5"/><text fill="#000000" font-family="sans-serif" font-size="20" lengthAdjust="spacing" textLength="108" x="1661" y="30.5645">:FloorRepo</text><rect fill="#E2E2F0" height="37.2813" rx="2.5" ry="2.5" style="stroke:#181818;stroke-width:0.5;" width="122" x="1654" y="918.625"/><text fill="#000000" font-family="sans-serif" font-size="20" lengthAdjust="spacing" textLength="108" x="1661" y="944.1895">:FloorRepo</text><rect fill="#E2E2F0" height="37.2813" rx="2.5" ry="2.5" style="stroke:#181818;stroke-width:0.5;" width="145" x="1786" y="5"/><text fill="#000000" font-family="sans-serif" font-size="20" lengthAdjust="spacing" textLength="131" x="1793" y="30.5645">:ElevatorMap</text><rect fill="#E2E2F0" height="37.2813" rx="2.5" ry="2.5" style="stroke:#181818;stroke-width:0.5;" width="145" x="1786" y="918.625"/><text fill="#000000" font-family="sans-serif" font-size="20" lengthAdjust="spacing" textLength="131" x="1793" y="944.1895">:ElevatorMap</text><rect fill="#E2E2F0" height="37.2813" rx="2.5" ry="2.5" style="stroke:#181818;stroke-width:0.5;" width="188" x="1941" y="5"/><text fill="#000000" font-family="sans-serif" font-size="20" lengthAdjust="spacing" textLength="174" x="1948" y="30.5645">building:Building</text><rect fill="#E2E2F0" height="37.2813" rx="2.5" ry="2.5" style="stroke:#181818;stroke-width:0.5;" width="188" x="1941" y="918.625"/><text fill="#000000" font-family="sans-serif" font-size="20" lengthAdjust="spacing" textLength="174" x="1948" y="944.1895">building:Building</text><rect fill="#E2E2F0" height="37.2813" rx="2.5" ry="2.5" style="stroke:#181818;stroke-width:0.5;" width="283" x="2139" y="918.625"/><text fill="#000000" font-family="sans-serif" font-size="20" lengthAdjust="spacing" textLength="269" x="2146" y="944.1895">:elevatorDTO:IElevatorDTO</text><rect fill="#E2E2F0" height="37.2813" rx="2.5" ry="2.5" style="stroke:#181818;stroke-width:0.5;" width="52" x="2432" y="5"/><text fill="#000000" font-family="sans-serif" font-size="20" lengthAdjust="spacing" textLength="38" x="2439" y="30.5645">SYS</text><rect fill="#E2E2F0" height="37.2813" rx="2.5" ry="2.5" style="stroke:#181818;stroke-width:0.5;" width="52" x="2432" y="918.625"/><text fill="#000000" font-family="sans-serif" font-size="20" lengthAdjust="spacing" textLength="38" x="2439" y="944.1895">SYS</text><rect fill="#FFFFFF" height="819.0625" style="stroke:#181818;stroke-width:1.0;" width="10" x="175" y="82.5625"/><rect fill="#FFFFFF" height="744.5" style="stroke:#181818;stroke-width:1.0;" width="10" x="647" y="119.8438"/><rect fill="#FFFFFF" height="669.9375" style="stroke:#181818;stroke-width:1.0;" width="10" x="979" y="157.125"/><rect fill="#FFFFFF" height="30" style="stroke:#181818;stroke-width:1.0;" width="10" x="1389.5" y="484.375"/><rect fill="#FFFFFF" height="30" style="stroke:#181818;stroke-width:1.0;" width="10" x="1561" y="194.4063"/><rect fill="#FFFFFF" height="30" style="stroke:#181818;stroke-width:1.0;" width="10" x="1561" y="674.2188"/><rect fill="#FFFFFF" height="30" style="stroke:#181818;stroke-width:1.0;" width="10" x="1710" y="417.0938"/><rect fill="#FFFFFF" height="37.2813" style="stroke:#181818;stroke-width:1.0;" width="10" x="1853.5" y="741.5"/><rect fill="#FFFFFF" height="30" style="stroke:#181818;stroke-width:1.0;" width="10" x="2030" y="606.9375"/><ellipse cx="2117.5" cy="81.8125" fill="none" rx="4" ry="4" style="stroke:#181818;stroke-width:1.5;"/><polygon fill="#181818" points="2446,78.5625,2456,82.5625,2446,86.5625,2450,82.5625" style="stroke:#181818;stroke-width:1.0;"/><line style="stroke:#181818;stroke-width:1.0;" x1="2122" x2="2452" y1="82.5625" y2="82.5625"/><text fill="#000000" font-family="sans-serif" font-size="20" font-weight="bold" lengthAdjust="spacing" textLength="14" x="2125" y="75.8457">1</text><text fill="#000000" font-family="sans-serif" font-size="20" lengthAdjust="spacing" textLength="290" x="2143" y="75.8457">POST /buildings/:id/elevators</text><polygon fill="#181818" points="635,115.8438,645,119.8438,635,123.8438,639,119.8438" style="stroke:#181818;stroke-width:1.0;"/><line style="stroke:#181818;stroke-width:1.0;" x1="185" x2="641" y1="119.8438" y2="119.8438"/><text fill="#000000" font-family="sans-serif" font-size="20" font-weight="bold" lengthAdjust="spacing" textLength="14" x="192" y="113.127">2</text><text fill="#000000" font-family="sans-serif" font-size="20" lengthAdjust="spacing" textLength="425" x="210" y="113.127">createElevator(elevatorDTO,buildingCode)</text><polygon fill="#181818" points="967,153.125,977,157.125,967,161.125,971,157.125" style="stroke:#181818;stroke-width:1.0;"/><line style="stroke:#181818;stroke-width:1.0;" x1="657" x2="973" y1="157.125" y2="157.125"/><text fill="#000000" font-family="sans-serif" font-size="20" font-weight="bold" lengthAdjust="spacing" textLength="14" x="664" y="150.4082">3</text><text fill="#000000" font-family="sans-serif" font-size="20" lengthAdjust="spacing" textLength="285" x="682" y="150.4082">createElevator(elevatorDTO)</text><polygon fill="#181818" points="1549,190.4063,1559,194.4063,1549,198.4063,1553,194.4063" style="stroke:#181818;stroke-width:1.0;"/><line style="stroke:#181818;stroke-width:1.0;" x1="989" x2="1555" y1="194.4063" y2="194.4063"/><text fill="#000000" font-family="sans-serif" font-size="20" font-weight="bold" lengthAdjust="spacing" textLength="14" x="996" y="187.6895">4</text><text fill="#000000" font-family="sans-serif" font-size="20" lengthAdjust="spacing" textLength="441" x="1014" y="187.6895">findByDomainId(elevatorDTO.buildingCode)</text><polygon fill="#181818" points="1299,257.6875,1309,261.6875,1299,265.6875,1303,261.6875" style="stroke:#181818;stroke-width:1.0;"/><line style="stroke:#181818;stroke-width:1.0;" x1="989" x2="1305" y1="261.6875" y2="261.6875"/><text fill="#000000" font-family="sans-serif" font-size="20" font-weight="bold" lengthAdjust="spacing" textLength="14" x="996" y="254.9707">5</text><text fill="#000000" font-family="sans-serif" font-size="20" lengthAdjust="spacing" textLength="79" x="1014" y="254.9707">create()</text><rect fill="#E2E2F0" height="37.2813" rx="2.5" ry="2.5" style="stroke:#181818;stroke-width:0.5;" width="167" x="1311" y="232.4063"/><text fill="#000000" font-family="sans-serif" font-size="20" lengthAdjust="spacing" textLength="153" x="1318" y="257.9707">floorList:Floor[]</text><path d="M1399,285.6875 L1399,341.6875 L1745,341.6875 L1745,295.6875 L1735,285.6875 L1399,285.6875 " fill="#FEFFDD" style="stroke:#181818;stroke-width:0.5;"/><path d="M1735,285.6875 L1735,295.6875 L1745,295.6875 L1735,285.6875 " fill="#FEFFDD" style="stroke:#181818;stroke-width:0.5;"/><text fill="#000000" font-family="sans-serif" font-size="20" lengthAdjust="spacing" textLength="319" x="1405" y="309.252">we must check if the floorIds all</text><text fill="#000000" font-family="sans-serif" font-size="20" lengthAdjust="spacing" textLength="283" x="1405" y="332.5332">belong to the same building</text><path d="M886,354.25 L980,354.25 L980,369.5313 L970,379.5313 L886,379.5313 L886,354.25 " fill="#EEEEEE" style="stroke:#000000;stroke-width:1.5;"/><rect fill="none" height="168.125" style="stroke:#000000;stroke-width:1.5;" width="900" x="886" y="354.25"/><text fill="#000000" font-family="sans-serif" font-size="20" font-weight="bold" lengthAdjust="spacing" textLength="49" x="901" y="373.8145">loop</text><text fill="#000000" font-family="sans-serif" font-size="20" font-weight="bold" lengthAdjust="spacing" textLength="468" x="995" y="374.8145">[for each floorId in elevatorDTO.floorIds]</text><polygon fill="#181818" points="1698,413.0938,1708,417.0938,1698,421.0938,1702,417.0938" style="stroke:#181818;stroke-width:1.0;"/><line style="stroke:#181818;stroke-width:1.0;" x1="989" x2="1704" y1="417.0938" y2="417.0938"/><text fill="#000000" font-family="sans-serif" font-size="20" font-weight="bold" lengthAdjust="spacing" textLength="14" x="996" y="410.377">6</text><text fill="#000000" font-family="sans-serif" font-size="20" lengthAdjust="spacing" textLength="247" x="1014" y="410.377">floor=findWithId(floorId)</text><polygon fill="#181818" points="1377.5,480.375,1387.5,484.375,1377.5,488.375,1381.5,484.375" style="stroke:#181818;stroke-width:1.0;"/><line style="stroke:#181818;stroke-width:1.0;" x1="989" x2="1383.5" y1="484.375" y2="484.375"/><text fill="#000000" font-family="sans-serif" font-size="20" font-weight="bold" lengthAdjust="spacing" textLength="14" x="996" y="477.6582">7</text><text fill="#000000" font-family="sans-serif" font-size="20" lengthAdjust="spacing" textLength="99" x="1014" y="477.6582">add(floor)</text><polygon fill="#181818" points="1098,554.6563,1108,558.6563,1098,562.6563,1102,558.6563" style="stroke:#181818;stroke-width:1.0;"/><line style="stroke:#181818;stroke-width:1.0;" x1="989" x2="1104" y1="558.6563" y2="558.6563"/><text fill="#000000" font-family="sans-serif" font-size="20" font-weight="bold" lengthAdjust="spacing" textLength="14" x="996" y="551.9395">8</text><text fill="#000000" font-family="sans-serif" font-size="20" lengthAdjust="spacing" textLength="79" x="1014" y="551.9395">create()</text><rect fill="#E2E2F0" height="37.2813" rx="2.5" ry="2.5" style="stroke:#181818;stroke-width:0.5;" width="191" x="1110" y="529.375"/><text fill="#000000" font-family="sans-serif" font-size="20" lengthAdjust="spacing" textLength="177" x="1117" y="554.9395">:elevator:Elevator</text><polygon fill="#181818" points="2018,602.9375,2028,606.9375,2018,610.9375,2022,606.9375" style="stroke:#181818;stroke-width:1.0;"/><line style="stroke:#181818;stroke-width:1.0;" x1="989" x2="2024" y1="606.9375" y2="606.9375"/><text fill="#000000" font-family="sans-serif" font-size="20" font-weight="bold" lengthAdjust="spacing" textLength="14" x="996" y="600.2207">9</text><text fill="#000000" font-family="sans-serif" font-size="20" lengthAdjust="spacing" textLength="311" x="1014" y="600.2207">building.elevator=newElevator</text><polygon fill="#181818" points="1549,670.2188,1559,674.2188,1549,678.2188,1553,674.2188" style="stroke:#181818;stroke-width:1.0;"/><line style="stroke:#181818;stroke-width:1.0;" x1="989" x2="1555" y1="674.2188" y2="674.2188"/><text fill="#000000" font-family="sans-serif" font-size="20" font-weight="bold" lengthAdjust="spacing" textLength="28" x="996" y="667.502">10</text><text fill="#000000" font-family="sans-serif" font-size="20" lengthAdjust="spacing" textLength="144" x="1028" y="667.502">save(building)</text><polygon fill="#181818" points="1841.5,737.5,1851.5,741.5,1841.5,745.5,1845.5,741.5" style="stroke:#181818;stroke-width:1.0;"/><line style="stroke:#181818;stroke-width:1.0;" x1="989" x2="1847.5" y1="741.5" y2="741.5"/><text fill="#000000" font-family="sans-serif" font-size="20" font-weight="bold" lengthAdjust="spacing" textLength="28" x="996" y="734.7832">11</text><text fill="#000000" font-family="sans-serif" font-size="20" lengthAdjust="spacing" textLength="152" x="1028" y="734.7832">toDto(elevator)</text><polygon fill="#181818" points="2127,774.7813,2137,778.7813,2127,782.7813,2131,778.7813" style="stroke:#181818;stroke-width:1.0;"/><line style="stroke:#181818;stroke-width:1.0;" x1="1858.5" x2="2133" y1="778.7813" y2="778.7813"/><text fill="#000000" font-family="sans-serif" font-size="20" font-weight="bold" lengthAdjust="spacing" textLength="28" x="1865.5" y="772.0645">12</text><text fill="#000000" font-family="sans-serif" font-size="20" lengthAdjust="spacing" textLength="79" x="1897.5" y="772.0645">create()</text><rect fill="#E2E2F0" height="37.2813" rx="2.5" ry="2.5" style="stroke:#181818;stroke-width:0.5;" width="283" x="2139" y="749.5"/><text fill="#000000" font-family="sans-serif" font-size="20" lengthAdjust="spacing" textLength="269" x="2146" y="775.0645">:elevatorDTO:IElevatorDTO</text><polygon fill="#181818" points="668,823.0625,658,827.0625,668,831.0625,664,827.0625" style="stroke:#181818;stroke-width:1.0;"/><line style="stroke:#181818;stroke-width:1.0;stroke-dasharray:2.0,2.0;" x1="662" x2="983" y1="827.0625" y2="827.0625"/><text fill="#000000" font-family="sans-serif" font-size="20" font-weight="bold" lengthAdjust="spacing" textLength="28" x="674" y="820.3457">13</text><text fill="#000000" font-family="sans-serif" font-size="20" lengthAdjust="spacing" textLength="206" x="706" y="820.3457">sucess(elevatorDTO)</text><polygon fill="#181818" points="196,860.3438,186,864.3438,196,868.3438,192,864.3438" style="stroke:#181818;stroke-width:1.0;"/><line style="stroke:#181818;stroke-width:1.0;stroke-dasharray:2.0,2.0;" x1="190" x2="651" y1="864.3438" y2="864.3438"/><text fill="#000000" font-family="sans-serif" font-size="20" font-weight="bold" lengthAdjust="spacing" textLength="28" x="202" y="857.627">14</text><text fill="#000000" font-family="sans-serif" font-size="20" lengthAdjust="spacing" textLength="206" x="234" y="857.627">sucess(elevatorDTO)</text><polygon fill="#181818" points="11,897.625,1,901.625,11,905.625,7,901.625" style="stroke:#181818;stroke-width:1.0;"/><line style="stroke:#181818;stroke-width:1.0;stroke-dasharray:2.0,2.0;" x1="5" x2="179" y1="901.625" y2="901.625"/><text fill="#000000" font-family="sans-serif" font-size="20" font-weight="bold" lengthAdjust="spacing" textLength="28" x="17" y="894.9082">15</text><text fill="#000000" font-family="sans-serif" font-size="20" lengthAdjust="spacing" textLength="124" x="49" y="894.9082">201 Created</text><!--SRC=[ZPFBZjem58RtVeeZLZ0gmtIMKQTLWI0XCG8bp5HLrOM97R08DeeTHktJzzY9WqtLoownl__tkUgZa6TQqrEbYYDdm7X9cyeib3Iv-CdXyO7GnYZPd7Qy9aWQKOWpbGQozSis1QfXaAGLlr2ZwamrXWyYQhRDLZ4qG-jQLHMlOpBFNcCmv_L553T-wIhjCDvXFH-3YzKotpgoh9IgLqARP66_ldsFmMcMRjQjvRGH5HDod_6pkd6xGixaT-BvyoOE_vcURnvwMQxcZjbrx_GFnk1ykuvJn8DacLv_1eHyKkEFa7_D8O7D6XETU4yzIGIRUAKcj302FtdRBqBQjg7OTIQ1ekPuwys7mPFllELCCJww6baXSMeR0dRjRoQ13b5YSLIrDK-W599DVypLYGgvPA7k_W-FEoLX_EQWytLDlxlh8ngEY5G8rM9_CA3A5Y00RnnEZJPG77Xn1562EN1mWx9a6cXL0K8xNYcv1wFShQOd3ZugmYK3QqrGSuPIrO0X7Rm520bXCjuPJNsalWBsvidMuOim1wn1XuuGxNDqC1u4QVkZC76qewnpYFLTrg7U7M4MldHsiUBA-LwviKtwrEzzOa-Il_cM1msoUDGWTt3JU4qlVEWT_xkzTiSIxCVSg7vM0Z5U4uiWYKMFamaiBUOChqkWcu9h7SzjeB2JsmuyIje5-gV6RSc7yRZd7n_Umyo5mqAkNSjV]--></g></svg>