<?xml version="1.0" encoding="UTF-8" standalone="no"?><svg xmlns="http://www.w3.org/2000/svg" xmlns:xlink="http://www.w3.org/1999/xlink" contentStyleType="text/css" height="894px" preserveAspectRatio="none" style="width:2315px;height:894px;background:#FFFFFF;" version="1.1" viewBox="0 0 2315 894" width="2315px" zoomAndPan="magnify"><defs/><g><rect fill="#FFFFFF" height="751.7813" style="stroke:#181818;stroke-width:1.0;" width="10" x="202" y="82.5625"/><rect fill="#FFFFFF" height="677.2188" style="stroke:#181818;stroke-width:1.0;" width="10" x="534" y="119.8438"/><rect fill="#FFFFFF" height="602.6563" style="stroke:#181818;stroke-width:1.0;" width="10" x="866" y="157.125"/><rect fill="#FFFFFF" height="30" style="stroke:#181818;stroke-width:1.0;" width="10" x="1276.5" y="484.375"/><rect fill="#FFFFFF" height="30" style="stroke:#181818;stroke-width:1.0;" width="10" x="1448" y="194.4063"/><rect fill="#FFFFFF" height="30" style="stroke:#181818;stroke-width:1.0;" width="10" x="1597" y="417.0938"/><rect fill="#FFFFFF" height="37.2813" style="stroke:#181818;stroke-width:1.0;" width="10" x="1740.5" y="674.2188"/><rect fill="#FFFFFF" height="30" style="stroke:#181818;stroke-width:1.0;" width="10" x="1917" y="606.9375"/><rect fill="none" height="168.125" style="stroke:#000000;stroke-width:1.5;" width="900" x="773" y="354.25"/><line style="stroke:#181818;stroke-width:0.5;stroke-dasharray:5.0,5.0;" x1="207" x2="207" y1="43.2813" y2="852.3438"/><line style="stroke:#181818;stroke-width:0.5;stroke-dasharray:5.0,5.0;" x1="539" x2="539" y1="43.2813" y2="852.3438"/><line style="stroke:#181818;stroke-width:0.5;stroke-dasharray:5.0,5.0;" x1="871" x2="871" y1="43.2813" y2="852.3438"/><line style="stroke:#181818;stroke-width:0.5;stroke-dasharray:5.0,5.0;" x1="1092" x2="1092" y1="563.5156" y2="852.3438"/><line style="stroke:#181818;stroke-width:0.5;stroke-dasharray:5.0,5.0;" x1="1281" x2="1281" y1="266.5469" y2="852.3438"/><line style="stroke:#181818;stroke-width:0.5;stroke-dasharray:5.0,5.0;" x1="1453" x2="1453" y1="43.2813" y2="852.3438"/><line style="stroke:#181818;stroke-width:0.5;stroke-dasharray:5.0,5.0;" x1="1602" x2="1602" y1="43.2813" y2="852.3438"/><line style="stroke:#181818;stroke-width:0.5;stroke-dasharray:5.0,5.0;" x1="1745" x2="1745" y1="43.2813" y2="852.3438"/><line style="stroke:#181818;stroke-width:0.5;stroke-dasharray:5.0,5.0;" x1="1922" x2="1922" y1="43.2813" y2="852.3438"/><line style="stroke:#181818;stroke-width:0.5;stroke-dasharray:5.0,5.0;" x1="2167" x2="2167" y1="716.3594" y2="852.3438"/><rect fill="#E2E2F0" height="37.2813" rx="2.5" ry="2.5" style="stroke:#181818;stroke-width:0.5;" width="162" x="126" y="5"/><text fill="#000000" font-family="sans-serif" font-size="20" lengthAdjust="spacing" textLength="148" x="133" y="30.5645">:ElevatorRoute</text><rect fill="#E2E2F0" height="37.2813" rx="2.5" ry="2.5" style="stroke:#181818;stroke-width:0.5;" width="162" x="126" y="851.3438"/><text fill="#000000" font-family="sans-serif" font-size="20" lengthAdjust="spacing" textLength="148" x="133" y="876.9082">:ElevatorRoute</text><rect fill="#E2E2F0" height="37.2813" rx="2.5" ry="2.5" style="stroke:#181818;stroke-width:0.5;" width="202" x="438" y="5"/><text fill="#000000" font-family="sans-serif" font-size="20" lengthAdjust="spacing" textLength="188" x="445" y="30.5645">:ElevatorController</text><rect fill="#E2E2F0" height="37.2813" rx="2.5" ry="2.5" style="stroke:#181818;stroke-width:0.5;" width="202" x="438" y="851.3438"/><text fill="#000000" font-family="sans-serif" font-size="20" lengthAdjust="spacing" textLength="188" x="445" y="876.9082">:ElevatorController</text><rect fill="#E2E2F0" height="37.2813" rx="2.5" ry="2.5" style="stroke:#181818;stroke-width:0.5;" width="176" x="783" y="5"/><text fill="#000000" font-family="sans-serif" font-size="20" lengthAdjust="spacing" textLength="162" x="790" y="30.5645">:ElevatorService</text><rect fill="#E2E2F0" height="37.2813" rx="2.5" ry="2.5" style="stroke:#181818;stroke-width:0.5;" width="176" x="783" y="851.3438"/><text fill="#000000" font-family="sans-serif" font-size="20" lengthAdjust="spacing" textLength="162" x="790" y="876.9082">:ElevatorService</text><rect fill="#E2E2F0" height="37.2813" rx="2.5" ry="2.5" style="stroke:#181818;stroke-width:0.5;" width="191" x="997" y="851.3438"/><text fill="#000000" font-family="sans-serif" font-size="20" lengthAdjust="spacing" textLength="177" x="1004" y="876.9082">:elevator:Elevator</text><rect fill="#E2E2F0" height="37.2813" rx="2.5" ry="2.5" style="stroke:#181818;stroke-width:0.5;" width="167" x="1198" y="851.3438"/><text fill="#000000" font-family="sans-serif" font-size="20" lengthAdjust="spacing" textLength="153" x="1205" y="876.9082">floorList:Floor[]</text><rect fill="#E2E2F0" height="37.2813" rx="2.5" ry="2.5" style="stroke:#181818;stroke-width:0.5;" width="156" x="1375" y="5"/><text fill="#000000" font-family="sans-serif" font-size="20" lengthAdjust="spacing" textLength="142" x="1382" y="30.5645">:BuildingRepo</text><rect fill="#E2E2F0" height="37.2813" rx="2.5" ry="2.5" style="stroke:#181818;stroke-width:0.5;" width="156" x="1375" y="851.3438"/><text fill="#000000" font-family="sans-serif" font-size="20" lengthAdjust="spacing" textLength="142" x="1382" y="876.9082">:BuildingRepo</text><rect fill="#E2E2F0" height="37.2813" rx="2.5" ry="2.5" style="stroke:#181818;stroke-width:0.5;" width="122" x="1541" y="5"/><text fill="#000000" font-family="sans-serif" font-size="20" lengthAdjust="spacing" textLength="108" x="1548" y="30.5645">:FloorRepo</text><rect fill="#E2E2F0" height="37.2813" rx="2.5" ry="2.5" style="stroke:#181818;stroke-width:0.5;" width="122" x="1541" y="851.3438"/><text fill="#000000" font-family="sans-serif" font-size="20" lengthAdjust="spacing" textLength="108" x="1548" y="876.9082">:FloorRepo</text><rect fill="#E2E2F0" height="37.2813" rx="2.5" ry="2.5" style="stroke:#181818;stroke-width:0.5;" width="145" x="1673" y="5"/><text fill="#000000" font-family="sans-serif" font-size="20" lengthAdjust="spacing" textLength="131" x="1680" y="30.5645">:ElevatorMap</text><rect fill="#E2E2F0" height="37.2813" rx="2.5" ry="2.5" style="stroke:#181818;stroke-width:0.5;" width="145" x="1673" y="851.3438"/><text fill="#000000" font-family="sans-serif" font-size="20" lengthAdjust="spacing" textLength="131" x="1680" y="876.9082">:ElevatorMap</text><rect fill="#E2E2F0" height="37.2813" rx="2.5" ry="2.5" style="stroke:#181818;stroke-width:0.5;" width="188" x="1828" y="5"/><text fill="#000000" font-family="sans-serif" font-size="20" lengthAdjust="spacing" textLength="174" x="1835" y="30.5645">building:Building</text><rect fill="#E2E2F0" height="37.2813" rx="2.5" ry="2.5" style="stroke:#181818;stroke-width:0.5;" width="188" x="1828" y="851.3438"/><text fill="#000000" font-family="sans-serif" font-size="20" lengthAdjust="spacing" textLength="174" x="1835" y="876.9082">building:Building</text><rect fill="#E2E2F0" height="37.2813" rx="2.5" ry="2.5" style="stroke:#181818;stroke-width:0.5;" width="283" x="2026" y="851.3438"/><text fill="#000000" font-family="sans-serif" font-size="20" lengthAdjust="spacing" textLength="269" x="2033" y="876.9082">:elevatorDTO:IElevatorDTO</text><rect fill="#FFFFFF" height="751.7813" style="stroke:#181818;stroke-width:1.0;" width="10" x="202" y="82.5625"/><rect fill="#FFFFFF" height="677.2188" style="stroke:#181818;stroke-width:1.0;" width="10" x="534" y="119.8438"/><rect fill="#FFFFFF" height="602.6563" style="stroke:#181818;stroke-width:1.0;" width="10" x="866" y="157.125"/><rect fill="#FFFFFF" height="30" style="stroke:#181818;stroke-width:1.0;" width="10" x="1276.5" y="484.375"/><rect fill="#FFFFFF" height="30" style="stroke:#181818;stroke-width:1.0;" width="10" x="1448" y="194.4063"/><rect fill="#FFFFFF" height="30" style="stroke:#181818;stroke-width:1.0;" width="10" x="1597" y="417.0938"/><rect fill="#FFFFFF" height="37.2813" style="stroke:#181818;stroke-width:1.0;" width="10" x="1740.5" y="674.2188"/><rect fill="#FFFFFF" height="30" style="stroke:#181818;stroke-width:1.0;" width="10" x="1917" y="606.9375"/><ellipse cx="4.5" cy="81.8125" fill="none" rx="4" ry="4" style="stroke:#181818;stroke-width:1.5;"/><polygon fill="#181818" points="190,78.5625,200,82.5625,190,86.5625,194,82.5625" style="stroke:#181818;stroke-width:1.0;"/><line style="stroke:#181818;stroke-width:1.0;" x1="9" x2="196" y1="82.5625" y2="82.5625"/><text fill="#000000" font-family="sans-serif" font-size="20" font-weight="bold" lengthAdjust="spacing" textLength="14" x="12" y="75.8457">1</text><text fill="#000000" font-family="sans-serif" font-size="20" lengthAdjust="spacing" textLength="157" x="30" y="75.8457">POST /elevators</text><polygon fill="#181818" points="522,115.8438,532,119.8438,522,123.8438,526,119.8438" style="stroke:#181818;stroke-width:1.0;"/><line style="stroke:#181818;stroke-width:1.0;" x1="212" x2="528" y1="119.8438" y2="119.8438"/><text fill="#000000" font-family="sans-serif" font-size="20" font-weight="bold" lengthAdjust="spacing" textLength="14" x="219" y="113.127">2</text><text fill="#000000" font-family="sans-serif" font-size="20" lengthAdjust="spacing" textLength="285" x="237" y="113.127">createElevator(elevatorDTO)</text><polygon fill="#181818" points="854,153.125,864,157.125,854,161.125,858,157.125" style="stroke:#181818;stroke-width:1.0;"/><line style="stroke:#181818;stroke-width:1.0;" x1="544" x2="860" y1="157.125" y2="157.125"/><text fill="#000000" font-family="sans-serif" font-size="20" font-weight="bold" lengthAdjust="spacing" textLength="14" x="551" y="150.4082">3</text><text fill="#000000" font-family="sans-serif" font-size="20" lengthAdjust="spacing" textLength="285" x="569" y="150.4082">createElevator(elevatorDTO)</text><polygon fill="#181818" points="1436,190.4063,1446,194.4063,1436,198.4063,1440,194.4063" style="stroke:#181818;stroke-width:1.0;"/><line style="stroke:#181818;stroke-width:1.0;" x1="876" x2="1442" y1="194.4063" y2="194.4063"/><text fill="#000000" font-family="sans-serif" font-size="20" font-weight="bold" lengthAdjust="spacing" textLength="14" x="883" y="187.6895">4</text><text fill="#000000" font-family="sans-serif" font-size="20" lengthAdjust="spacing" textLength="441" x="901" y="187.6895">findByDomainId(elevatorDTO.buildingCode)</text><polygon fill="#181818" points="1186,257.6875,1196,261.6875,1186,265.6875,1190,261.6875" style="stroke:#181818;stroke-width:1.0;"/><line style="stroke:#181818;stroke-width:1.0;" x1="876" x2="1192" y1="261.6875" y2="261.6875"/><text fill="#000000" font-family="sans-serif" font-size="20" font-weight="bold" lengthAdjust="spacing" textLength="14" x="883" y="254.9707">5</text><text fill="#000000" font-family="sans-serif" font-size="20" lengthAdjust="spacing" textLength="79" x="901" y="254.9707">create()</text><rect fill="#E2E2F0" height="37.2813" rx="2.5" ry="2.5" style="stroke:#181818;stroke-width:0.5;" width="167" x="1198" y="232.4063"/><text fill="#000000" font-family="sans-serif" font-size="20" lengthAdjust="spacing" textLength="153" x="1205" y="257.9707">floorList:Floor[]</text><path d="M1286,285.6875 L1286,341.6875 L1632,341.6875 L1632,295.6875 L1622,285.6875 L1286,285.6875 " fill="#FEFFDD" style="stroke:#181818;stroke-width:0.5;"/><path d="M1622,285.6875 L1622,295.6875 L1632,295.6875 L1622,285.6875 " fill="#FEFFDD" style="stroke:#181818;stroke-width:0.5;"/><text fill="#000000" font-family="sans-serif" font-size="20" lengthAdjust="spacing" textLength="319" x="1292" y="309.252">we must check if the floorIds all</text><text fill="#000000" font-family="sans-serif" font-size="20" lengthAdjust="spacing" textLength="283" x="1292" y="332.5332">belong to the same building</text><path d="M773,354.25 L867,354.25 L867,369.5313 L857,379.5313 L773,379.5313 L773,354.25 " fill="#EEEEEE" style="stroke:#000000;stroke-width:1.5;"/><rect fill="none" height="168.125" style="stroke:#000000;stroke-width:1.5;" width="900" x="773" y="354.25"/><text fill="#000000" font-family="sans-serif" font-size="20" font-weight="bold" lengthAdjust="spacing" textLength="49" x="788" y="373.8145">loop</text><text fill="#000000" font-family="sans-serif" font-size="20" font-weight="bold" lengthAdjust="spacing" textLength="468" x="882" y="374.8145">[for each floorId in elevatorDTO.floorIds]</text><polygon fill="#181818" points="1585,413.0938,1595,417.0938,1585,421.0938,1589,417.0938" style="stroke:#181818;stroke-width:1.0;"/><line style="stroke:#181818;stroke-width:1.0;" x1="876" x2="1591" y1="417.0938" y2="417.0938"/><text fill="#000000" font-family="sans-serif" font-size="20" font-weight="bold" lengthAdjust="spacing" textLength="14" x="883" y="410.377">6</text><text fill="#000000" font-family="sans-serif" font-size="20" lengthAdjust="spacing" textLength="247" x="901" y="410.377">floor=findWithId(floorId)</text><polygon fill="#181818" points="1264.5,480.375,1274.5,484.375,1264.5,488.375,1268.5,484.375" style="stroke:#181818;stroke-width:1.0;"/><line style="stroke:#181818;stroke-width:1.0;" x1="876" x2="1270.5" y1="484.375" y2="484.375"/><text fill="#000000" font-family="sans-serif" font-size="20" font-weight="bold" lengthAdjust="spacing" textLength="14" x="883" y="477.6582">7</text><text fill="#000000" font-family="sans-serif" font-size="20" lengthAdjust="spacing" textLength="99" x="901" y="477.6582">add(floor)</text><polygon fill="#181818" points="985,554.6563,995,558.6563,985,562.6563,989,558.6563" style="stroke:#181818;stroke-width:1.0;"/><line style="stroke:#181818;stroke-width:1.0;" x1="876" x2="991" y1="558.6563" y2="558.6563"/><text fill="#000000" font-family="sans-serif" font-size="20" font-weight="bold" lengthAdjust="spacing" textLength="14" x="883" y="551.9395">8</text><text fill="#000000" font-family="sans-serif" font-size="20" lengthAdjust="spacing" textLength="79" x="901" y="551.9395">create()</text><rect fill="#E2E2F0" height="37.2813" rx="2.5" ry="2.5" style="stroke:#181818;stroke-width:0.5;" width="191" x="997" y="529.375"/><text fill="#000000" font-family="sans-serif" font-size="20" lengthAdjust="spacing" textLength="177" x="1004" y="554.9395">:elevator:Elevator</text><polygon fill="#181818" points="1905,602.9375,1915,606.9375,1905,610.9375,1909,606.9375" style="stroke:#181818;stroke-width:1.0;"/><line style="stroke:#181818;stroke-width:1.0;" x1="876" x2="1911" y1="606.9375" y2="606.9375"/><text fill="#000000" font-family="sans-serif" font-size="20" font-weight="bold" lengthAdjust="spacing" textLength="14" x="883" y="600.2207">9</text><text fill="#000000" font-family="sans-serif" font-size="20" lengthAdjust="spacing" textLength="260" x="901" y="600.2207">addElevator(newElevator)</text><polygon fill="#181818" points="1728.5,670.2188,1738.5,674.2188,1728.5,678.2188,1732.5,674.2188" style="stroke:#181818;stroke-width:1.0;"/><line style="stroke:#181818;stroke-width:1.0;" x1="876" x2="1734.5" y1="674.2188" y2="674.2188"/><text fill="#000000" font-family="sans-serif" font-size="20" font-weight="bold" lengthAdjust="spacing" textLength="28" x="883" y="667.502">10</text><text fill="#000000" font-family="sans-serif" font-size="20" lengthAdjust="spacing" textLength="152" x="915" y="667.502">toDto(elevator)</text><polygon fill="#181818" points="2014,707.5,2024,711.5,2014,715.5,2018,711.5" style="stroke:#181818;stroke-width:1.0;"/><line style="stroke:#181818;stroke-width:1.0;" x1="1745.5" x2="2020" y1="711.5" y2="711.5"/><text fill="#000000" font-family="sans-serif" font-size="20" font-weight="bold" lengthAdjust="spacing" textLength="28" x="1752.5" y="704.7832">11</text><text fill="#000000" font-family="sans-serif" font-size="20" lengthAdjust="spacing" textLength="79" x="1784.5" y="704.7832">create()</text><rect fill="#E2E2F0" height="37.2813" rx="2.5" ry="2.5" style="stroke:#181818;stroke-width:0.5;" width="283" x="2026" y="682.2188"/><text fill="#000000" font-family="sans-serif" font-size="20" lengthAdjust="spacing" textLength="269" x="2033" y="707.7832">:elevatorDTO:IElevatorDTO</text><polygon fill="#181818" points="555,755.7813,545,759.7813,555,763.7813,551,759.7813" style="stroke:#181818;stroke-width:1.0;"/><line style="stroke:#181818;stroke-width:1.0;stroke-dasharray:2.0,2.0;" x1="549" x2="870" y1="759.7813" y2="759.7813"/><text fill="#000000" font-family="sans-serif" font-size="20" font-weight="bold" lengthAdjust="spacing" textLength="28" x="561" y="753.0645">12</text><text fill="#000000" font-family="sans-serif" font-size="20" lengthAdjust="spacing" textLength="206" x="593" y="753.0645">sucess(elevatorDTO)</text><polygon fill="#181818" points="223,793.0625,213,797.0625,223,801.0625,219,797.0625" style="stroke:#181818;stroke-width:1.0;"/><line style="stroke:#181818;stroke-width:1.0;stroke-dasharray:2.0,2.0;" x1="217" x2="538" y1="797.0625" y2="797.0625"/><text fill="#000000" font-family="sans-serif" font-size="20" font-weight="bold" lengthAdjust="spacing" textLength="28" x="229" y="790.3457">13</text><text fill="#000000" font-family="sans-serif" font-size="20" lengthAdjust="spacing" textLength="206" x="261" y="790.3457">sucess(elevatorDTO)</text><polygon fill="#181818" points="11,830.3438,1,834.3438,11,838.3438,7,834.3438" style="stroke:#181818;stroke-width:1.0;"/><line style="stroke:#181818;stroke-width:1.0;stroke-dasharray:2.0,2.0;" x1="5" x2="206" y1="834.3438" y2="834.3438"/><text fill="#000000" font-family="sans-serif" font-size="20" font-weight="bold" lengthAdjust="spacing" textLength="28" x="17" y="827.627">14</text><text fill="#000000" font-family="sans-serif" font-size="20" lengthAdjust="spacing" textLength="124" x="49" y="827.627">201 Created</text><!--SRC=[ZPDDZzem48Rl_XKZJijARBTxZDgk2WG9AIjGODj3rOE99s0Hx2XnTjN- -ewTEDZqqDwIyVE-dY-tPwbgtl1BfOip2X1OyguoAwtCJlv6U7fal3DQTPS3Den88mjPSsKWtxpkK-0jJ9AqmZTkT9Fhpk0aeXRxF8kX1LatkggmYSbT_Yq6TzYyoUB6BytI0SC16_aON6NhtTwHPQLraydM92lxzUDd3CxpTBlfBUUTh8HKnnnhVUDsXPp9tyJBrssS_WklRovwNMTBnno6UyOBOt2vtyGbKY1PfzUV2MFFUlPb6442smsL-i7JBUE5aVI9FS1Opv70JIE1ea4wzOPtmJNJgzQop0b8Q8Vpdpf2cSL9rRSsWL8gCV-rr1SkrLg4kWVVYeKM69Wu9HDu4nXytMplxyUCxgPCQO8QUJmPq6KFC81tX4lN6YXEM9n1bc1E26uVrg85NbL0q04hhOvWj3jj-GN1PyLG2R3MZ3GrbBe1IkdaBK0g28lnpcJgC_KTi2UVRH- -ItEY7WpebD2nHWTJ82ZRXyB2oOwBmI7M3rM7UXUYAdphxFk9E-TdvRRJMOy3LlZklyFPM3AQZGiCFlOT9DJCfT7Ze0Cn7JEB44aTYpC9B2tc3AzBstO5jcsyT872hbs_hS73-8V6hVYdsMpadnu_miAb8qAkVqP_0000]--></g></svg>