<?xml version="1.0" encoding="UTF-8" standalone="no"?><svg xmlns="http://www.w3.org/2000/svg" xmlns:xlink="http://www.w3.org/1999/xlink" contentStyleType="text/css" height="1115px" preserveAspectRatio="none" style="width:3451px;height:1115px;background:#FFFFFF;" version="1.1" viewBox="0 0 3451 1115" width="3451px" zoomAndPan="magnify"><defs/><g><rect fill="#FFFFFF" height="960.5595" style="stroke:#181818;stroke-width:1.0;" width="10" x="189.625" y="90.4799"/><rect fill="#FFFFFF" height="878.0796" style="stroke:#181818;stroke-width:1.0;" width="10" x="450.25" y="131.7199"/><rect fill="#FFFFFF" height="795.5996" style="stroke:#181818;stroke-width:1.0;" width="10" x="878.875" y="172.9599"/><rect fill="#FFFFFF" height="329.4398" style="stroke:#181818;stroke-width:1.0;" width="10" x="1248" y="337.6798"/><rect fill="#FFFFFF" height="30" style="stroke:#181818;stroke-width:1.0;" width="10" x="1426.125" y="214.1999"/><rect fill="#FFFFFF" height="125.4799" style="stroke:#181818;stroke-width:1.0;" width="10" x="1426.125" y="708.3596"/><rect fill="#FFFFFF" height="30" style="stroke:#181818;stroke-width:1.0;" width="10" x="1869.375" y="378.9198"/><rect fill="#FFFFFF" height="41.24" style="stroke:#181818;stroke-width:1.0;" width="10" x="1869.375" y="573.6397"/><rect fill="#FFFFFF" height="41.24" style="stroke:#181818;stroke-width:1.0;" width="10" x="1869.375" y="875.0796"/><rect fill="#FFFFFF" height="30" style="stroke:#181818;stroke-width:1.0;" width="10" x="2034.375" y="803.8396"/><rect fill="#FFFFFF" height="30" style="stroke:#181818;stroke-width:1.0;" width="10" x="2737.375" y="502.3997"/><line style="stroke:#181818;stroke-width:0.5;stroke-dasharray:5.0,5.0;" x1="194.625" x2="194.625" y1="47.24" y2="1069.0395"/><line style="stroke:#181818;stroke-width:0.5;stroke-dasharray:5.0,5.0;" x1="454.75" x2="454.75" y1="47.24" y2="1069.0395"/><line style="stroke:#181818;stroke-width:0.5;stroke-dasharray:5.0,5.0;" x1="883.875" x2="883.875" y1="47.24" y2="1069.0395"/><line style="stroke:#181818;stroke-width:0.5;stroke-dasharray:5.0,5.0;" x1="1085.5" x2="1085.5" y1="288.3199" y2="1069.0395"/><line style="stroke:#181818;stroke-width:0.5;stroke-dasharray:5.0,5.0;" x1="1252.5" x2="1252.5" y1="47.24" y2="1069.0395"/><line style="stroke:#181818;stroke-width:0.5;stroke-dasharray:5.0,5.0;" x1="1431.125" x2="1431.125" y1="47.24" y2="1069.0395"/><line style="stroke:#181818;stroke-width:0.5;stroke-dasharray:5.0,5.0;" x1="1873.875" x2="1873.875" y1="47.24" y2="1069.0395"/><line style="stroke:#181818;stroke-width:0.5;stroke-dasharray:5.0,5.0;" x1="2038.875" x2="2038.875" y1="47.24" y2="1069.0395"/><line style="stroke:#181818;stroke-width:0.5;stroke-dasharray:5.0,5.0;" x1="2331.875" x2="2331.875" y1="453.0398" y2="1069.0395"/><line style="stroke:#181818;stroke-width:0.5;stroke-dasharray:5.0,5.0;" x1="2741.875" x2="2741.875" y1="47.24" y2="1069.0395"/><line style="stroke:#181818;stroke-width:0.5;stroke-dasharray:5.0,5.0;" x1="3063.875" x2="3063.875" y1="617.7597" y2="1069.0395"/><line style="stroke:#181818;stroke-width:0.5;stroke-dasharray:5.0,5.0;" x1="3312.875" x2="3312.875" y1="919.1996" y2="1069.0395"/><rect fill="#E2E2F0" height="41.24" rx="2.5" ry="2.5" style="stroke:#181818;stroke-width:0.5;" width="148" x="120.625" y="5"/><text fill="#000000" font-family="sans-serif" font-size="20" lengthAdjust="spacing" textLength="134" x="127.625" y="33.38">:ElevatorRoute</text><rect fill="#E2E2F0" height="41.24" rx="2.5" ry="2.5" style="stroke:#181818;stroke-width:0.5;" width="148" x="120.625" y="1068.0395"/><text fill="#000000" font-family="sans-serif" font-size="20" lengthAdjust="spacing" textLength="134" x="127.625" y="1096.4195">:ElevatorRoute</text><rect fill="#E2E2F0" height="41.24" rx="2.5" ry="2.5" style="stroke:#181818;stroke-width:0.5;" width="187" x="361.75" y="5"/><text fill="#000000" font-family="sans-serif" font-size="20" lengthAdjust="spacing" textLength="173" x="368.75" y="33.38">:ElevatorController</text><rect fill="#E2E2F0" height="41.24" rx="2.5" ry="2.5" style="stroke:#181818;stroke-width:0.5;" width="187" x="361.75" y="1068.0395"/><text fill="#000000" font-family="sans-serif" font-size="20" lengthAdjust="spacing" textLength="173" x="368.75" y="1096.4195">:ElevatorController</text><rect fill="#E2E2F0" height="41.24" rx="2.5" ry="2.5" style="stroke:#181818;stroke-width:0.5;" width="160" x="803.875" y="5"/><text fill="#000000" font-family="sans-serif" font-size="20" lengthAdjust="spacing" textLength="146" x="810.875" y="33.38">:ElevatorService</text><rect fill="#E2E2F0" height="41.24" rx="2.5" ry="2.5" style="stroke:#181818;stroke-width:0.5;" width="160" x="803.875" y="1068.0395"/><text fill="#000000" font-family="sans-serif" font-size="20" lengthAdjust="spacing" textLength="146" x="810.875" y="1096.4195">:ElevatorService</text><rect fill="#E2E2F0" height="41.24" rx="2.5" ry="2.5" style="stroke:#181818;stroke-width:0.5;" width="174" x="998.5" y="1068.0395"/><text fill="#000000" font-family="sans-serif" font-size="20" lengthAdjust="spacing" textLength="160" x="1005.5" y="1096.4195">:elevator:Elevator</text><rect fill="#E2E2F0" height="41.24" rx="2.5" ry="2.5" style="stroke:#181818;stroke-width:0.5;" width="141" x="1182.5" y="5"/><text fill="#000000" font-family="sans-serif" font-size="20" lengthAdjust="spacing" textLength="127" x="1189.5" y="33.38">:ElevatorRepo</text><rect fill="#E2E2F0" height="41.24" rx="2.5" ry="2.5" style="stroke:#181818;stroke-width:0.5;" width="141" x="1182.5" y="1068.0395"/><text fill="#000000" font-family="sans-serif" font-size="20" lengthAdjust="spacing" textLength="127" x="1189.5" y="1096.4195">:ElevatorRepo</text><rect fill="#E2E2F0" height="41.24" rx="2.5" ry="2.5" style="stroke:#181818;stroke-width:0.5;" width="142" x="1360.125" y="5"/><text fill="#000000" font-family="sans-serif" font-size="20" lengthAdjust="spacing" textLength="128" x="1367.125" y="33.38">:BuildingRepo</text><rect fill="#E2E2F0" height="41.24" rx="2.5" ry="2.5" style="stroke:#181818;stroke-width:0.5;" width="142" x="1360.125" y="1068.0395"/><text fill="#000000" font-family="sans-serif" font-size="20" lengthAdjust="spacing" textLength="128" x="1367.125" y="1096.4195">:BuildingRepo</text><rect fill="#E2E2F0" height="41.24" rx="2.5" ry="2.5" style="stroke:#181818;stroke-width:0.5;" width="135" x="1806.875" y="5"/><text fill="#000000" font-family="sans-serif" font-size="20" lengthAdjust="spacing" textLength="121" x="1813.875" y="33.38">:ElevatorMap</text><rect fill="#E2E2F0" height="41.24" rx="2.5" ry="2.5" style="stroke:#181818;stroke-width:0.5;" width="135" x="1806.875" y="1068.0395"/><text fill="#000000" font-family="sans-serif" font-size="20" lengthAdjust="spacing" textLength="121" x="1813.875" y="1096.4195">:ElevatorMap</text><rect fill="#E2E2F0" height="41.24" rx="2.5" ry="2.5" style="stroke:#181818;stroke-width:0.5;" width="175" x="1951.875" y="5"/><text fill="#000000" font-family="sans-serif" font-size="20" lengthAdjust="spacing" textLength="161" x="1958.875" y="33.38">:building:Building</text><rect fill="#E2E2F0" height="41.24" rx="2.5" ry="2.5" style="stroke:#181818;stroke-width:0.5;" width="175" x="1951.875" y="1068.0395"/><text fill="#000000" font-family="sans-serif" font-size="20" lengthAdjust="spacing" textLength="161" x="1958.875" y="1096.4195">:building:Building</text><rect fill="#E2E2F0" height="41.24" rx="2.5" ry="2.5" style="stroke:#181818;stroke-width:0.5;" width="390" x="2136.875" y="1068.0395"/><text fill="#000000" font-family="sans-serif" font-size="20" lengthAdjust="spacing" textLength="376" x="2143.875" y="1096.4195">elevatorPersistence:IElevatorPersistence</text><rect fill="#E2E2F0" height="41.24" rx="2.5" ry="2.5" style="stroke:#181818;stroke-width:0.5;" width="411" x="2536.875" y="5"/><text fill="#000000" font-family="sans-serif" font-size="20" lengthAdjust="spacing" textLength="397" x="2543.875" y="33.38">:Model&lt;IElevatorPersistence &amp; Document&gt;</text><rect fill="#E2E2F0" height="41.24" rx="2.5" ry="2.5" style="stroke:#181818;stroke-width:0.5;" width="411" x="2536.875" y="1068.0395"/><text fill="#000000" font-family="sans-serif" font-size="20" lengthAdjust="spacing" textLength="397" x="2543.875" y="1096.4195">:Model&lt;IElevatorPersistence &amp; Document&gt;</text><rect fill="#E2E2F0" height="41.24" rx="2.5" ry="2.5" style="stroke:#181818;stroke-width:0.5;" width="213" x="2957.875" y="1068.0395"/><text fill="#000000" font-family="sans-serif" font-size="20" lengthAdjust="spacing" textLength="199" x="2964.875" y="1096.4195">:newElevator:Elevator</text><rect fill="#E2E2F0" height="41.24" rx="2.5" ry="2.5" style="stroke:#181818;stroke-width:0.5;" width="265" x="3180.875" y="1068.0395"/><text fill="#000000" font-family="sans-serif" font-size="20" lengthAdjust="spacing" textLength="251" x="3187.875" y="1096.4195">:elevatorDTO:IElevatorDTO</text><rect fill="#FFFFFF" height="960.5595" style="stroke:#181818;stroke-width:1.0;" width="10" x="189.625" y="90.4799"/><rect fill="#FFFFFF" height="878.0796" style="stroke:#181818;stroke-width:1.0;" width="10" x="450.25" y="131.7199"/><rect fill="#FFFFFF" height="795.5996" style="stroke:#181818;stroke-width:1.0;" width="10" x="878.875" y="172.9599"/><rect fill="#FFFFFF" height="329.4398" style="stroke:#181818;stroke-width:1.0;" width="10" x="1248" y="337.6798"/><rect fill="#FFFFFF" height="30" style="stroke:#181818;stroke-width:1.0;" width="10" x="1426.125" y="214.1999"/><rect fill="#FFFFFF" height="125.4799" style="stroke:#181818;stroke-width:1.0;" width="10" x="1426.125" y="708.3596"/><rect fill="#FFFFFF" height="30" style="stroke:#181818;stroke-width:1.0;" width="10" x="1869.375" y="378.9198"/><rect fill="#FFFFFF" height="41.24" style="stroke:#181818;stroke-width:1.0;" width="10" x="1869.375" y="573.6397"/><rect fill="#FFFFFF" height="41.24" style="stroke:#181818;stroke-width:1.0;" width="10" x="1869.375" y="875.0796"/><rect fill="#FFFFFF" height="30" style="stroke:#181818;stroke-width:1.0;" width="10" x="2034.375" y="803.8396"/><rect fill="#FFFFFF" height="30" style="stroke:#181818;stroke-width:1.0;" width="10" x="2737.375" y="502.3997"/><ellipse cx="4.5" cy="89.7299" fill="none" rx="4" ry="4" style="stroke:#181818;stroke-width:1.5;"/><polygon fill="#181818" points="177.625,86.4799,187.625,90.4799,177.625,94.4799,181.625,90.4799" style="stroke:#181818;stroke-width:1.0;"/><line style="stroke:#181818;stroke-width:1.0;" x1="9" x2="183.625" y1="90.4799" y2="90.4799"/><text fill="#000000" font-family="sans-serif" font-size="20" font-weight="bold" lengthAdjust="spacing" textLength="11.625" x="12" y="82.62">1</text><text fill="#000000" font-family="sans-serif" font-size="20" lengthAdjust="spacing" textLength="147" x="27.625" y="82.62">POST /elevators</text><polygon fill="#181818" points="438.25,127.7199,448.25,131.7199,438.25,135.7199,442.25,131.7199" style="stroke:#181818;stroke-width:1.0;"/><line style="stroke:#181818;stroke-width:1.0;" x1="199.625" x2="444.25" y1="131.7199" y2="131.7199"/><text fill="#000000" font-family="sans-serif" font-size="20" font-weight="bold" lengthAdjust="spacing" textLength="11.625" x="206.625" y="123.8599">2</text><text fill="#000000" font-family="sans-serif" font-size="20" lengthAdjust="spacing" textLength="216" x="222.25" y="123.8599">createElevator(request)</text><polygon fill="#181818" points="866.875,168.9599,876.875,172.9599,866.875,176.9599,870.875,172.9599" style="stroke:#181818;stroke-width:1.0;"/><line style="stroke:#181818;stroke-width:1.0;" x1="460.25" x2="872.875" y1="172.9599" y2="172.9599"/><text fill="#000000" font-family="sans-serif" font-size="20" font-weight="bold" lengthAdjust="spacing" textLength="11.625" x="467.25" y="165.0999">3</text><text fill="#000000" font-family="sans-serif" font-size="20" lengthAdjust="spacing" textLength="384" x="482.875" y="165.0999">createElevator(elevatorDTO,buildingDTO)</text><polygon fill="#181818" points="1414.125,210.1999,1424.125,214.1999,1414.125,218.1999,1418.125,214.1999" style="stroke:#181818;stroke-width:1.0;"/><line style="stroke:#181818;stroke-width:1.0;" x1="888.875" x2="1420.125" y1="214.1999" y2="214.1999"/><text fill="#000000" font-family="sans-serif" font-size="20" font-weight="bold" lengthAdjust="spacing" textLength="11.625" x="895.875" y="206.3399">4</text><text fill="#000000" font-family="sans-serif" font-size="20" lengthAdjust="spacing" textLength="233" x="911.5" y="206.3399">exists(buildingDTO.code)</text><polygon fill="#181818" points="986.5,281.4398,996.5,285.4398,986.5,289.4398,990.5,285.4398" style="stroke:#181818;stroke-width:1.0;"/><line style="stroke:#181818;stroke-width:1.0;" x1="888.875" x2="992.5" y1="285.4398" y2="285.4398"/><text fill="#000000" font-family="sans-serif" font-size="20" font-weight="bold" lengthAdjust="spacing" textLength="11.625" x="895.875" y="277.5799">5</text><text fill="#000000" font-family="sans-serif" font-size="20" lengthAdjust="spacing" textLength="70" x="911.5" y="277.5799">create()</text><rect fill="#E2E2F0" height="41.24" rx="2.5" ry="2.5" style="stroke:#181818;stroke-width:0.5;" width="174" x="998.5" y="252.1999"/><text fill="#000000" font-family="sans-serif" font-size="20" lengthAdjust="spacing" textLength="160" x="1005.5" y="280.5799">:elevator:Elevator</text><polygon fill="#181818" points="1236,333.6798,1246,337.6798,1236,341.6798,1240,337.6798" style="stroke:#181818;stroke-width:1.0;"/><line style="stroke:#181818;stroke-width:1.0;" x1="888.875" x2="1242" y1="337.6798" y2="337.6798"/><text fill="#000000" font-family="sans-serif" font-size="20" font-weight="bold" lengthAdjust="spacing" textLength="11.625" x="895.875" y="329.8198">6</text><text fill="#000000" font-family="sans-serif" font-size="20" lengthAdjust="spacing" textLength="129" x="911.5" y="329.8198">save(elevator)</text><polygon fill="#181818" points="1857.375,374.9198,1867.375,378.9198,1857.375,382.9198,1861.375,378.9198" style="stroke:#181818;stroke-width:1.0;"/><line style="stroke:#181818;stroke-width:1.0;" x1="1258" x2="1863.375" y1="378.9198" y2="378.9198"/><text fill="#000000" font-family="sans-serif" font-size="20" font-weight="bold" lengthAdjust="spacing" textLength="11.625" x="1265" y="371.0598">7</text><text fill="#000000" font-family="sans-serif" font-size="20" lengthAdjust="spacing" textLength="203" x="1280.625" y="371.0598">toPersitence(elevator)</text><polygon fill="#181818" points="2124.875,446.1598,2134.875,450.1598,2124.875,454.1598,2128.875,450.1598" style="stroke:#181818;stroke-width:1.0;"/><line style="stroke:#181818;stroke-width:1.0;" x1="1258" x2="2130.875" y1="450.1598" y2="450.1598"/><text fill="#000000" font-family="sans-serif" font-size="20" font-weight="bold" lengthAdjust="spacing" textLength="11.625" x="1265" y="442.2998">8</text><text fill="#000000" font-family="sans-serif" font-size="20" lengthAdjust="spacing" textLength="70" x="1280.625" y="442.2998">create()</text><rect fill="#E2E2F0" height="41.24" rx="2.5" ry="2.5" style="stroke:#181818;stroke-width:0.5;" width="390" x="2136.875" y="416.9198"/><text fill="#000000" font-family="sans-serif" font-size="20" lengthAdjust="spacing" textLength="376" x="2143.875" y="445.2998">elevatorPersistence:IElevatorPersistence</text><polygon fill="#181818" points="2725.375,498.3997,2735.375,502.3997,2725.375,506.3997,2729.375,502.3997" style="stroke:#181818;stroke-width:1.0;"/><line style="stroke:#181818;stroke-width:1.0;" x1="1258" x2="2731.375" y1="502.3997" y2="502.3997"/><text fill="#000000" font-family="sans-serif" font-size="20" font-weight="bold" lengthAdjust="spacing" textLength="11.625" x="1265" y="494.5398">9</text><text fill="#000000" font-family="sans-serif" font-size="20" lengthAdjust="spacing" textLength="252" x="1280.625" y="494.5398">create(elevatorPersistence)</text><polygon fill="#181818" points="1857.375,569.6397,1867.375,573.6397,1857.375,577.6397,1861.375,573.6397" style="stroke:#181818;stroke-width:1.0;"/><line style="stroke:#181818;stroke-width:1.0;" x1="1258" x2="1863.375" y1="573.6397" y2="573.6397"/><text fill="#000000" font-family="sans-serif" font-size="20" font-weight="bold" lengthAdjust="spacing" textLength="23.25" x="1265" y="565.7797">10</text><text fill="#000000" font-family="sans-serif" font-size="20" lengthAdjust="spacing" textLength="287" x="1292.25" y="565.7797">toDomain(elevatorPersistence)</text><polygon fill="#181818" points="2945.875,610.8797,2955.875,614.8797,2945.875,618.8797,2949.875,614.8797" style="stroke:#181818;stroke-width:1.0;"/><line style="stroke:#181818;stroke-width:1.0;" x1="1874.375" x2="2951.875" y1="614.8797" y2="614.8797"/><text fill="#000000" font-family="sans-serif" font-size="20" font-weight="bold" lengthAdjust="spacing" textLength="23.25" x="1881.375" y="607.0197">11</text><text fill="#000000" font-family="sans-serif" font-size="20" lengthAdjust="spacing" textLength="70" x="1908.625" y="607.0197">create()</text><rect fill="#E2E2F0" height="41.24" rx="2.5" ry="2.5" style="stroke:#181818;stroke-width:0.5;" width="213" x="2957.875" y="581.6397"/><text fill="#000000" font-family="sans-serif" font-size="20" lengthAdjust="spacing" textLength="199" x="2964.875" y="610.0197">:newElevator:Elevator</text><polygon fill="#181818" points="899.875,663.1197,889.875,667.1197,899.875,671.1197,895.875,667.1197" style="stroke:#181818;stroke-width:1.0;"/><line style="stroke:#181818;stroke-width:1.0;stroke-dasharray:2.0,2.0;" x1="893.875" x2="1252" y1="667.1197" y2="667.1197"/><text fill="#000000" font-family="sans-serif" font-size="20" font-weight="bold" lengthAdjust="spacing" textLength="23.25" x="905.875" y="659.2597">12</text><text fill="#000000" font-family="sans-serif" font-size="20" lengthAdjust="spacing" textLength="114" x="933.125" y="659.2597">newElevator</text><polygon fill="#181818" points="1414.125,704.3596,1424.125,708.3596,1414.125,712.3596,1418.125,708.3596" style="stroke:#181818;stroke-width:1.0;"/><line style="stroke:#181818;stroke-width:1.0;" x1="888.875" x2="1420.125" y1="708.3596" y2="708.3596"/><text fill="#000000" font-family="sans-serif" font-size="20" font-weight="bold" lengthAdjust="spacing" textLength="23.25" x="895.875" y="700.4997">13</text><text fill="#000000" font-family="sans-serif" font-size="20" lengthAdjust="spacing" textLength="491" x="923.125" y="700.4997">addElevatorForCode(buildingDTO.code, newElevator)</text><line style="stroke:#181818;stroke-width:1.0;" x1="1436.125" x2="1478.125" y1="749.5996" y2="749.5996"/><line style="stroke:#181818;stroke-width:1.0;" x1="1478.125" x2="1478.125" y1="749.5996" y2="762.5996"/><line style="stroke:#181818;stroke-width:1.0;" x1="1437.125" x2="1478.125" y1="762.5996" y2="762.5996"/><polygon fill="#181818" points="1447.125,758.5996,1437.125,762.5996,1447.125,766.5996,1443.125,762.5996" style="stroke:#181818;stroke-width:1.0;"/><text fill="#000000" font-family="sans-serif" font-size="20" font-weight="bold" lengthAdjust="spacing" textLength="23.25" x="1443.125" y="741.7396">14</text><text fill="#000000" font-family="sans-serif" font-size="20" lengthAdjust="spacing" textLength="392" x="1470.375" y="741.7396">elevator=findWithCode(buildingDTO.code)</text><polygon fill="#181818" points="2022.375,799.8396,2032.375,803.8396,2022.375,807.8396,2026.375,803.8396" style="stroke:#181818;stroke-width:1.0;"/><line style="stroke:#181818;stroke-width:1.0;" x1="1436.125" x2="2028.375" y1="803.8396" y2="803.8396"/><text fill="#000000" font-family="sans-serif" font-size="20" font-weight="bold" lengthAdjust="spacing" textLength="23.25" x="1443.125" y="795.9796">15</text><text fill="#000000" font-family="sans-serif" font-size="20" lengthAdjust="spacing" textLength="190" x="1470.375" y="795.9796">setElevator(elevator)</text><polygon fill="#181818" points="1857.375,871.0796,1867.375,875.0796,1857.375,879.0796,1861.375,875.0796" style="stroke:#181818;stroke-width:1.0;"/><line style="stroke:#181818;stroke-width:1.0;" x1="888.875" x2="1863.375" y1="875.0796" y2="875.0796"/><text fill="#000000" font-family="sans-serif" font-size="20" font-weight="bold" lengthAdjust="spacing" textLength="23.25" x="895.875" y="867.2196">16</text><text fill="#000000" font-family="sans-serif" font-size="20" lengthAdjust="spacing" textLength="179" x="923.125" y="867.2196">toDto(newElevator)</text><polygon fill="#181818" points="3168.875,912.3195,3178.875,916.3195,3168.875,920.3195,3172.875,916.3195" style="stroke:#181818;stroke-width:1.0;"/><line style="stroke:#181818;stroke-width:1.0;" x1="1874.375" x2="3174.875" y1="916.3195" y2="916.3195"/><text fill="#000000" font-family="sans-serif" font-size="20" font-weight="bold" lengthAdjust="spacing" textLength="23.25" x="1881.375" y="908.4596">17</text><text fill="#000000" font-family="sans-serif" font-size="20" lengthAdjust="spacing" textLength="70" x="1908.625" y="908.4596">create()</text><rect fill="#E2E2F0" height="41.24" rx="2.5" ry="2.5" style="stroke:#181818;stroke-width:0.5;" width="265" x="3180.875" y="883.0796"/><text fill="#000000" font-family="sans-serif" font-size="20" lengthAdjust="spacing" textLength="251" x="3187.875" y="911.4596">:elevatorDTO:IElevatorDTO</text><polygon fill="#181818" points="471.25,964.5595,461.25,968.5595,471.25,972.5595,467.25,968.5595" style="stroke:#181818;stroke-width:1.0;"/><line style="stroke:#181818;stroke-width:1.0;stroke-dasharray:2.0,2.0;" x1="465.25" x2="882.875" y1="968.5595" y2="968.5595"/><text fill="#000000" font-family="sans-serif" font-size="20" font-weight="bold" lengthAdjust="spacing" textLength="23.25" x="477.25" y="960.6995">18</text><text fill="#000000" font-family="sans-serif" font-size="20" lengthAdjust="spacing" textLength="192" x="504.5" y="960.6995">sucess(elevatorDTO)</text><polygon fill="#181818" points="210.625,1005.7995,200.625,1009.7995,210.625,1013.7995,206.625,1009.7995" style="stroke:#181818;stroke-width:1.0;"/><line style="stroke:#181818;stroke-width:1.0;stroke-dasharray:2.0,2.0;" x1="204.625" x2="454.25" y1="1009.7995" y2="1009.7995"/><text fill="#000000" font-family="sans-serif" font-size="20" font-weight="bold" lengthAdjust="spacing" textLength="23.25" x="216.625" y="1001.9395">19</text><text fill="#000000" font-family="sans-serif" font-size="20" lengthAdjust="spacing" textLength="192" x="243.875" y="1001.9395">sucess(elevatorDTO)</text><polygon fill="#181818" points="11,1047.0395,1,1051.0395,11,1055.0395,7,1051.0395" style="stroke:#181818;stroke-width:1.0;"/><line style="stroke:#181818;stroke-width:1.0;stroke-dasharray:2.0,2.0;" x1="5" x2="193.625" y1="1051.0395" y2="1051.0395"/><text fill="#000000" font-family="sans-serif" font-size="20" font-weight="bold" lengthAdjust="spacing" textLength="23.25" x="17" y="1043.1795">20</text><text fill="#000000" font-family="sans-serif" font-size="20" lengthAdjust="spacing" textLength="111" x="44.25" y="1043.1795">201 Created</text><!--SRC=[XPHTRvim58Rl_IkiN4n9rNHTBr7NQGbKgfGK1EbsxS9fPvNO6JRPj5-_O_Db0shlm3ploylvGBrnSM8LEvOoVuE25l32wbBVIw4p_W_epJLXjPQYFZv3HP3KFESd9ZHDuwT3H9cYYo0guSoqh59PQrXurFQGxdneYzQLB4keV39BV_XW1jMPvoE_Q1Ur6BHOp_jW6YNnA1sSfCzi1cXJyxBWudKAxRydli-UdKOsJm-xi66UMvlUpoUJACqis8LFe59SQH0v10_Hz70K9GwZjffxMK1vEoUXdsWey_e8Gj_vyiUXU0B-HE_NBpp4VftnO8Y8Dmj2lidrNJi70KtYx40_TxGYBDSSBw4126au5DYH26XU0Jxj39SL_Av1wTMWCnonC8hCT4mqJhJBhl9uxNYWZ1WfEZJD3YZynKAffSDVvLXCHsH9Ki3eeFKnHRouwCCiLzs3rb-nC_J975VhOHbapL05L4lRDzksEGbIRWnpsncOIV9JzDPsIFe7CvFcli70tZlimJXcA8-CYu-yC9uHeEvnMgJPx-WRwyoZIxfrx_h7Yg93xytVf819BozTlqbZDztNsGiSY1Ry-i95yPFhNxEUAqTdznqx3NeoYkxR3EQDqUJ0_Rw-rbekv-Cx1SPKxvRNUWwxfkeSb7BtnLEOBMaMpTdd3pHsEs_Nwvw_kVv2jpPEuRNGRlz_]--></g></svg>