<?xml version="1.0" encoding="UTF-8" standalone="no"?><svg xmlns="http://www.w3.org/2000/svg" xmlns:xlink="http://www.w3.org/1999/xlink" contentStyleType="text/css" height="994px" preserveAspectRatio="none" style="width:2594px;height:994px;background:#FFFFFF;" version="1.1" viewBox="0 0 2594 994" width="2594px" zoomAndPan="magnify"><defs/><g><rect fill="#FFFFFF" height="840.0796" style="stroke:#181818;stroke-width:1.0;" width="10" x="189.625" y="90.4799"/><rect fill="#FFFFFF" height="757.5996" style="stroke:#181818;stroke-width:1.0;" width="10" x="450.25" y="131.7199"/><rect fill="#FFFFFF" height="675.1197" style="stroke:#181818;stroke-width:1.0;" width="10" x="991.875" y="172.9599"/><rect fill="#FFFFFF" height="30" style="stroke:#181818;stroke-width:1.0;" width="10" x="1368.5" y="457.3997"/><rect fill="#FFFFFF" height="30" style="stroke:#181818;stroke-width:1.0;" width="10" x="1527.5" y="214.1999"/><rect fill="#FFFFFF" height="125.4799" style="stroke:#181818;stroke-width:1.0;" width="10" x="1527.5" y="587.8797"/><rect fill="#FFFFFF" height="30" style="stroke:#181818;stroke-width:1.0;" width="10" x="1926.75" y="386.1598"/><rect fill="#FFFFFF" height="41.24" style="stroke:#181818;stroke-width:1.0;" width="10" x="2060.75" y="754.5996"/><rect fill="#FFFFFF" height="30" style="stroke:#181818;stroke-width:1.0;" width="10" x="2223.25" y="683.3596"/><rect fill="none" height="183.9599" style="stroke:#000000;stroke-width:1.5;" width="1091.375" x="906.875" y="311.4398"/><line style="stroke:#181818;stroke-width:0.5;stroke-dasharray:5.0,5.0;" x1="194.625" x2="194.625" y1="47.24" y2="948.5595"/><line style="stroke:#181818;stroke-width:0.5;stroke-dasharray:5.0,5.0;" x1="454.75" x2="454.75" y1="47.24" y2="948.5595"/><line style="stroke:#181818;stroke-width:0.5;stroke-dasharray:5.0,5.0;" x1="996.875" x2="996.875" y1="47.24" y2="948.5595"/><line style="stroke:#181818;stroke-width:0.5;stroke-dasharray:5.0,5.0;" x1="1198.5" x2="1198.5" y1="538.5197" y2="948.5595"/><line style="stroke:#181818;stroke-width:0.5;stroke-dasharray:5.0,5.0;" x1="1373.5" x2="1373.5" y1="288.3199" y2="948.5595"/><line style="stroke:#181818;stroke-width:0.5;stroke-dasharray:5.0,5.0;" x1="1532.5" x2="1532.5" y1="47.24" y2="948.5595"/><line style="stroke:#181818;stroke-width:0.5;stroke-dasharray:5.0,5.0;" x1="1931.25" x2="1931.25" y1="47.24" y2="948.5595"/><line style="stroke:#181818;stroke-width:0.5;stroke-dasharray:5.0,5.0;" x1="2065.25" x2="2065.25" y1="47.24" y2="948.5595"/><line style="stroke:#181818;stroke-width:0.5;stroke-dasharray:5.0,5.0;" x1="2228.25" x2="2228.25" y1="47.24" y2="948.5595"/><line style="stroke:#181818;stroke-width:0.5;stroke-dasharray:5.0,5.0;" x1="2455.25" x2="2455.25" y1="798.7196" y2="948.5595"/><rect fill="#E2E2F0" height="41.24" rx="2.5" ry="2.5" style="stroke:#181818;stroke-width:0.5;" width="148" x="120.625" y="5"/><text fill="#000000" font-family="sans-serif" font-size="20" lengthAdjust="spacing" textLength="134" x="127.625" y="33.38">:ElevatorRoute</text><rect fill="#E2E2F0" height="41.24" rx="2.5" ry="2.5" style="stroke:#181818;stroke-width:0.5;" width="148" x="120.625" y="947.5595"/><text fill="#000000" font-family="sans-serif" font-size="20" lengthAdjust="spacing" textLength="134" x="127.625" y="975.9395">:ElevatorRoute</text><rect fill="#E2E2F0" height="41.24" rx="2.5" ry="2.5" style="stroke:#181818;stroke-width:0.5;" width="187" x="361.75" y="5"/><text fill="#000000" font-family="sans-serif" font-size="20" lengthAdjust="spacing" textLength="173" x="368.75" y="33.38">:ElevatorController</text><rect fill="#E2E2F0" height="41.24" rx="2.5" ry="2.5" style="stroke:#181818;stroke-width:0.5;" width="187" x="361.75" y="947.5595"/><text fill="#000000" font-family="sans-serif" font-size="20" lengthAdjust="spacing" textLength="173" x="368.75" y="975.9395">:ElevatorController</text><rect fill="#E2E2F0" height="41.24" rx="2.5" ry="2.5" style="stroke:#181818;stroke-width:0.5;" width="160" x="916.875" y="5"/><text fill="#000000" font-family="sans-serif" font-size="20" lengthAdjust="spacing" textLength="146" x="923.875" y="33.38">:ElevatorService</text><rect fill="#E2E2F0" height="41.24" rx="2.5" ry="2.5" style="stroke:#181818;stroke-width:0.5;" width="160" x="916.875" y="947.5595"/><text fill="#000000" font-family="sans-serif" font-size="20" lengthAdjust="spacing" textLength="146" x="923.875" y="975.9395">:ElevatorService</text><rect fill="#E2E2F0" height="41.24" rx="2.5" ry="2.5" style="stroke:#181818;stroke-width:0.5;" width="174" x="1111.5" y="947.5595"/><text fill="#000000" font-family="sans-serif" font-size="20" lengthAdjust="spacing" textLength="160" x="1118.5" y="975.9395">:elevator:Elevator</text><rect fill="#E2E2F0" height="41.24" rx="2.5" ry="2.5" style="stroke:#181818;stroke-width:0.5;" width="156" x="1295.5" y="947.5595"/><text fill="#000000" font-family="sans-serif" font-size="20" lengthAdjust="spacing" textLength="142" x="1302.5" y="975.9395">floorList:Floor[]</text><rect fill="#E2E2F0" height="41.24" rx="2.5" ry="2.5" style="stroke:#181818;stroke-width:0.5;" width="142" x="1461.5" y="5"/><text fill="#000000" font-family="sans-serif" font-size="20" lengthAdjust="spacing" textLength="128" x="1468.5" y="33.38">:BuildingRepo</text><rect fill="#E2E2F0" height="41.24" rx="2.5" ry="2.5" style="stroke:#181818;stroke-width:0.5;" width="142" x="1461.5" y="947.5595"/><text fill="#000000" font-family="sans-serif" font-size="20" lengthAdjust="spacing" textLength="128" x="1468.5" y="975.9395">:BuildingRepo</text><rect fill="#E2E2F0" height="41.24" rx="2.5" ry="2.5" style="stroke:#181818;stroke-width:0.5;" width="113" x="1875.25" y="5"/><text fill="#000000" font-family="sans-serif" font-size="20" lengthAdjust="spacing" textLength="99" x="1882.25" y="33.38">:FloorRepo</text><rect fill="#E2E2F0" height="41.24" rx="2.5" ry="2.5" style="stroke:#181818;stroke-width:0.5;" width="113" x="1875.25" y="947.5595"/><text fill="#000000" font-family="sans-serif" font-size="20" lengthAdjust="spacing" textLength="99" x="1882.25" y="975.9395">:FloorRepo</text><rect fill="#E2E2F0" height="41.24" rx="2.5" ry="2.5" style="stroke:#181818;stroke-width:0.5;" width="135" x="1998.25" y="5"/><text fill="#000000" font-family="sans-serif" font-size="20" lengthAdjust="spacing" textLength="121" x="2005.25" y="33.38">:ElevatorMap</text><rect fill="#E2E2F0" height="41.24" rx="2.5" ry="2.5" style="stroke:#181818;stroke-width:0.5;" width="135" x="1998.25" y="947.5595"/><text fill="#000000" font-family="sans-serif" font-size="20" lengthAdjust="spacing" textLength="121" x="2005.25" y="975.9395">:ElevatorMap</text><rect fill="#E2E2F0" height="41.24" rx="2.5" ry="2.5" style="stroke:#181818;stroke-width:0.5;" width="170" x="2143.25" y="5"/><text fill="#000000" font-family="sans-serif" font-size="20" lengthAdjust="spacing" textLength="156" x="2150.25" y="33.38">building:Building</text><rect fill="#E2E2F0" height="41.24" rx="2.5" ry="2.5" style="stroke:#181818;stroke-width:0.5;" width="170" x="2143.25" y="947.5595"/><text fill="#000000" font-family="sans-serif" font-size="20" lengthAdjust="spacing" textLength="156" x="2150.25" y="975.9395">building:Building</text><rect fill="#E2E2F0" height="41.24" rx="2.5" ry="2.5" style="stroke:#181818;stroke-width:0.5;" width="265" x="2323.25" y="947.5595"/><text fill="#000000" font-family="sans-serif" font-size="20" lengthAdjust="spacing" textLength="251" x="2330.25" y="975.9395">:elevatorDTO:IElevatorDTO</text><rect fill="#FFFFFF" height="840.0796" style="stroke:#181818;stroke-width:1.0;" width="10" x="189.625" y="90.4799"/><rect fill="#FFFFFF" height="757.5996" style="stroke:#181818;stroke-width:1.0;" width="10" x="450.25" y="131.7199"/><rect fill="#FFFFFF" height="675.1197" style="stroke:#181818;stroke-width:1.0;" width="10" x="991.875" y="172.9599"/><rect fill="#FFFFFF" height="30" style="stroke:#181818;stroke-width:1.0;" width="10" x="1368.5" y="457.3997"/><rect fill="#FFFFFF" height="30" style="stroke:#181818;stroke-width:1.0;" width="10" x="1527.5" y="214.1999"/><rect fill="#FFFFFF" height="125.4799" style="stroke:#181818;stroke-width:1.0;" width="10" x="1527.5" y="587.8797"/><rect fill="#FFFFFF" height="30" style="stroke:#181818;stroke-width:1.0;" width="10" x="1926.75" y="386.1598"/><rect fill="#FFFFFF" height="41.24" style="stroke:#181818;stroke-width:1.0;" width="10" x="2060.75" y="754.5996"/><rect fill="#FFFFFF" height="30" style="stroke:#181818;stroke-width:1.0;" width="10" x="2223.25" y="683.3596"/><ellipse cx="4.5" cy="89.7299" fill="none" rx="4" ry="4" style="stroke:#181818;stroke-width:1.5;"/><polygon fill="#181818" points="177.625,86.4799,187.625,90.4799,177.625,94.4799,181.625,90.4799" style="stroke:#181818;stroke-width:1.0;"/><line style="stroke:#181818;stroke-width:1.0;" x1="9" x2="183.625" y1="90.4799" y2="90.4799"/><text fill="#000000" font-family="sans-serif" font-size="20" font-weight="bold" lengthAdjust="spacing" textLength="11.625" x="12" y="82.62">1</text><text fill="#000000" font-family="sans-serif" font-size="20" lengthAdjust="spacing" textLength="147" x="27.625" y="82.62">POST /elevators</text><polygon fill="#181818" points="438.25,127.7199,448.25,131.7199,438.25,135.7199,442.25,131.7199" style="stroke:#181818;stroke-width:1.0;"/><line style="stroke:#181818;stroke-width:1.0;" x1="199.625" x2="444.25" y1="131.7199" y2="131.7199"/><text fill="#000000" font-family="sans-serif" font-size="20" font-weight="bold" lengthAdjust="spacing" textLength="11.625" x="206.625" y="123.8599">2</text><text fill="#000000" font-family="sans-serif" font-size="20" lengthAdjust="spacing" textLength="216" x="222.25" y="123.8599">createElevator(request)</text><polygon fill="#181818" points="979.875,168.9599,989.875,172.9599,979.875,176.9599,983.875,172.9599" style="stroke:#181818;stroke-width:1.0;"/><line style="stroke:#181818;stroke-width:1.0;" x1="460.25" x2="985.875" y1="172.9599" y2="172.9599"/><text fill="#000000" font-family="sans-serif" font-size="20" font-weight="bold" lengthAdjust="spacing" textLength="11.625" x="467.25" y="165.0999">3</text><text fill="#000000" font-family="sans-serif" font-size="20" lengthAdjust="spacing" textLength="497" x="482.875" y="165.0999">createElevator(elevatorDTO,buildingCode,floorCodes)</text><polygon fill="#181818" points="1515.5,210.1999,1525.5,214.1999,1515.5,218.1999,1519.5,214.1999" style="stroke:#181818;stroke-width:1.0;"/><line style="stroke:#181818;stroke-width:1.0;" x1="1001.875" x2="1521.5" y1="214.1999" y2="214.1999"/><text fill="#000000" font-family="sans-serif" font-size="20" font-weight="bold" lengthAdjust="spacing" textLength="11.625" x="1008.875" y="206.3399">4</text><text fill="#000000" font-family="sans-serif" font-size="20" lengthAdjust="spacing" textLength="189" x="1024.5" y="206.3399">exists(buildingCode)</text><polygon fill="#181818" points="1283.5,281.4398,1293.5,285.4398,1283.5,289.4398,1287.5,285.4398" style="stroke:#181818;stroke-width:1.0;"/><line style="stroke:#181818;stroke-width:1.0;" x1="1001.875" x2="1289.5" y1="285.4398" y2="285.4398"/><text fill="#000000" font-family="sans-serif" font-size="20" font-weight="bold" lengthAdjust="spacing" textLength="11.625" x="1008.875" y="277.5799">5</text><text fill="#000000" font-family="sans-serif" font-size="20" lengthAdjust="spacing" textLength="70" x="1024.5" y="277.5799">create()</text><rect fill="#E2E2F0" height="41.24" rx="2.5" ry="2.5" style="stroke:#181818;stroke-width:0.5;" width="156" x="1295.5" y="252.1999"/><text fill="#000000" font-family="sans-serif" font-size="20" lengthAdjust="spacing" textLength="142" x="1302.5" y="280.5799">floorList:Floor[]</text><path d="M906.875,311.4398 L995.375,311.4398 L995.375,330.6798 L985.375,340.6798 L906.875,340.6798 L906.875,311.4398 " fill="#EEEEEE" style="stroke:#000000;stroke-width:1.5;"/><rect fill="none" height="183.9599" style="stroke:#000000;stroke-width:1.5;" width="1091.375" x="906.875" y="311.4398"/><text fill="#000000" font-family="sans-serif" font-size="20" font-weight="bold" lengthAdjust="spacing" textLength="43.5" x="921.875" y="333.8198">loop</text><text fill="#000000" font-family="sans-serif" font-size="20" font-weight="bold" lengthAdjust="spacing" textLength="334.75" x="1010.375" y="334.8198">[for each floorCode in floorCodes]</text><polygon fill="#181818" points="1914.75,382.1598,1924.75,386.1598,1914.75,390.1598,1918.75,386.1598" style="stroke:#181818;stroke-width:1.0;"/><line style="stroke:#181818;stroke-width:1.0;" x1="1001.875" x2="1920.75" y1="386.1598" y2="386.1598"/><text fill="#000000" font-family="sans-serif" font-size="20" font-weight="bold" lengthAdjust="spacing" textLength="11.625" x="1008.875" y="378.2998">6</text><text fill="#000000" font-family="sans-serif" font-size="20" lengthAdjust="spacing" textLength="286" x="1024.5" y="378.2998">floor=findWithCode(floorCode)</text><polygon fill="#181818" points="1356.5,453.3997,1366.5,457.3997,1356.5,461.3997,1360.5,457.3997" style="stroke:#181818;stroke-width:1.0;"/><line style="stroke:#181818;stroke-width:1.0;" x1="1001.875" x2="1362.5" y1="457.3997" y2="457.3997"/><text fill="#000000" font-family="sans-serif" font-size="20" font-weight="bold" lengthAdjust="spacing" textLength="11.625" x="1008.875" y="449.5398">7</text><text fill="#000000" font-family="sans-serif" font-size="20" lengthAdjust="spacing" textLength="91" x="1024.5" y="449.5398">add(floor)</text><polygon fill="#181818" points="1099.5,531.6397,1109.5,535.6397,1099.5,539.6397,1103.5,535.6397" style="stroke:#181818;stroke-width:1.0;"/><line style="stroke:#181818;stroke-width:1.0;" x1="1001.875" x2="1105.5" y1="535.6397" y2="535.6397"/><text fill="#000000" font-family="sans-serif" font-size="20" font-weight="bold" lengthAdjust="spacing" textLength="11.625" x="1008.875" y="527.7797">8</text><text fill="#000000" font-family="sans-serif" font-size="20" lengthAdjust="spacing" textLength="70" x="1024.5" y="527.7797">create()</text><rect fill="#E2E2F0" height="41.24" rx="2.5" ry="2.5" style="stroke:#181818;stroke-width:0.5;" width="174" x="1111.5" y="502.3997"/><text fill="#000000" font-family="sans-serif" font-size="20" lengthAdjust="spacing" textLength="160" x="1118.5" y="530.7797">:elevator:Elevator</text><polygon fill="#181818" points="1515.5,583.8797,1525.5,587.8797,1515.5,591.8797,1519.5,587.8797" style="stroke:#181818;stroke-width:1.0;"/><line style="stroke:#181818;stroke-width:1.0;" x1="1001.875" x2="1521.5" y1="587.8797" y2="587.8797"/><text fill="#000000" font-family="sans-serif" font-size="20" font-weight="bold" lengthAdjust="spacing" textLength="11.625" x="1008.875" y="580.0197">9</text><text fill="#000000" font-family="sans-serif" font-size="20" lengthAdjust="spacing" textLength="447" x="1024.5" y="580.0197">addElevatorForCode(buildingCode, newElevator)</text><line style="stroke:#181818;stroke-width:1.0;" x1="1537.5" x2="1579.5" y1="629.1197" y2="629.1197"/><line style="stroke:#181818;stroke-width:1.0;" x1="1579.5" x2="1579.5" y1="629.1197" y2="642.1197"/><line style="stroke:#181818;stroke-width:1.0;" x1="1538.5" x2="1579.5" y1="642.1197" y2="642.1197"/><polygon fill="#181818" points="1548.5,638.1197,1538.5,642.1197,1548.5,646.1197,1544.5,642.1197" style="stroke:#181818;stroke-width:1.0;"/><text fill="#000000" font-family="sans-serif" font-size="20" font-weight="bold" lengthAdjust="spacing" textLength="23.25" x="1544.5" y="621.2597">10</text><text fill="#000000" font-family="sans-serif" font-size="20" lengthAdjust="spacing" textLength="348" x="1571.75" y="621.2597">building=findWithCode(buildingCode)</text><polygon fill="#181818" points="2211.25,679.3596,2221.25,683.3596,2211.25,687.3596,2215.25,683.3596" style="stroke:#181818;stroke-width:1.0;"/><line style="stroke:#181818;stroke-width:1.0;" x1="1537.5" x2="2217.25" y1="683.3596" y2="683.3596"/><text fill="#000000" font-family="sans-serif" font-size="20" font-weight="bold" lengthAdjust="spacing" textLength="23.25" x="1544.5" y="675.4997">11</text><text fill="#000000" font-family="sans-serif" font-size="20" lengthAdjust="spacing" textLength="190" x="1571.75" y="675.4997">setElevator(elevator)</text><polygon fill="#181818" points="2048.75,750.5996,2058.75,754.5996,2048.75,758.5996,2052.75,754.5996" style="stroke:#181818;stroke-width:1.0;"/><line style="stroke:#181818;stroke-width:1.0;" x1="1001.875" x2="2054.75" y1="754.5996" y2="754.5996"/><text fill="#000000" font-family="sans-serif" font-size="20" font-weight="bold" lengthAdjust="spacing" textLength="23.25" x="1008.875" y="746.7396">12</text><text fill="#000000" font-family="sans-serif" font-size="20" lengthAdjust="spacing" textLength="140" x="1036.125" y="746.7396">toDto(elevator)</text><polygon fill="#181818" points="2311.25,791.8396,2321.25,795.8396,2311.25,799.8396,2315.25,795.8396" style="stroke:#181818;stroke-width:1.0;"/><line style="stroke:#181818;stroke-width:1.0;" x1="2065.75" x2="2317.25" y1="795.8396" y2="795.8396"/><text fill="#000000" font-family="sans-serif" font-size="20" font-weight="bold" lengthAdjust="spacing" textLength="23.25" x="2072.75" y="787.9796">13</text><text fill="#000000" font-family="sans-serif" font-size="20" lengthAdjust="spacing" textLength="70" x="2100" y="787.9796">create()</text><rect fill="#E2E2F0" height="41.24" rx="2.5" ry="2.5" style="stroke:#181818;stroke-width:0.5;" width="265" x="2323.25" y="762.5996"/><text fill="#000000" font-family="sans-serif" font-size="20" lengthAdjust="spacing" textLength="251" x="2330.25" y="790.9796">:elevatorDTO:IElevatorDTO</text><polygon fill="#181818" points="471.25,844.0796,461.25,848.0796,471.25,852.0796,467.25,848.0796" style="stroke:#181818;stroke-width:1.0;"/><line style="stroke:#181818;stroke-width:1.0;stroke-dasharray:2.0,2.0;" x1="465.25" x2="995.875" y1="848.0796" y2="848.0796"/><text fill="#000000" font-family="sans-serif" font-size="20" font-weight="bold" lengthAdjust="spacing" textLength="23.25" x="477.25" y="840.2196">14</text><text fill="#000000" font-family="sans-serif" font-size="20" lengthAdjust="spacing" textLength="192" x="504.5" y="840.2196">sucess(elevatorDTO)</text><polygon fill="#181818" points="210.625,885.3195,200.625,889.3195,210.625,893.3195,206.625,889.3195" style="stroke:#181818;stroke-width:1.0;"/><line style="stroke:#181818;stroke-width:1.0;stroke-dasharray:2.0,2.0;" x1="204.625" x2="454.25" y1="889.3195" y2="889.3195"/><text fill="#000000" font-family="sans-serif" font-size="20" font-weight="bold" lengthAdjust="spacing" textLength="23.25" x="216.625" y="881.4596">15</text><text fill="#000000" font-family="sans-serif" font-size="20" lengthAdjust="spacing" textLength="192" x="243.875" y="881.4596">sucess(elevatorDTO)</text><polygon fill="#181818" points="11,926.5595,1,930.5595,11,934.5595,7,930.5595" style="stroke:#181818;stroke-width:1.0;"/><line style="stroke:#181818;stroke-width:1.0;stroke-dasharray:2.0,2.0;" x1="5" x2="193.625" y1="930.5595" y2="930.5595"/><text fill="#000000" font-family="sans-serif" font-size="20" font-weight="bold" lengthAdjust="spacing" textLength="23.25" x="17" y="922.6995">16</text><text fill="#000000" font-family="sans-serif" font-size="20" lengthAdjust="spacing" textLength="111" x="44.25" y="922.6995">201 Created</text><!--SRC=[XPDFJzim6CRl_XHMJorgDSOn6aoZJQLAGQtI0eU9WudV3eiGPxR3fdrwNZjnOYT8koNsxtdUlzQleggPOc-bB5w1KmvdrfHcAojp5F-0NbqIrXXPDM_Fe0YIHXIYPfMX-Vx-b5AcwIn9ItXdHgfSDWPc4RK-vLaChT5QoR845PF7_246Zw3UHJ7oIxEqmw33UZu6jzdkU7BakPHIPKARP6k_VZx5u6sU7lQjvMqZIYwgNpdKSkGsGCvaIjpzECJftx5w5EX-bsqSyzp5wGF6uEQqZql4WsIN3ZypGhxBrKqtWeGUzbZg5qzhmWeZy1DQW92MGu6RHa8B1NZh3USAVZUWpMBGMOuu64LsC1DDaDhIbxEM79Qks_PB1tveGQmDkhNjJYZynOdeUQWD18uY74O7dOURxSL5dzLyGJ1gJSzIKPIyq3u9AghXHnDAlKENXRkxFekAFmhpOg5vZoyGx-Cx0Hu4AVcZC2cqP9ot7h7UtexqxWWgxikoknrNDUePMli1RDiSe_ujQGL_F31fPclYtHBgbN7ryJm6ZTlTX6emanK88rai6jla89oZVJC9DN9Zv6TkU4qiWYIkMToPmD9Ypd1OSDqKe7Muf972hcExtS4Z-e_6FOblgrNFNrr-fMkN3W-vzibz0000]--></g></svg>