<?xml version="1.0" encoding="UTF-8" standalone="no"?><svg xmlns="http://www.w3.org/2000/svg" xmlns:xlink="http://www.w3.org/1999/xlink" contentStyleType="text/css" height="623px" preserveAspectRatio="none" style="width:1542px;height:623px;background:#FFFFFF;" version="1.1" viewBox="0 0 1542 623" width="1542px" zoomAndPan="magnify"><defs/><g><rect fill="#DDDDDD" height="611.5996" style="stroke:#181818;stroke-width:0.5;" width="497.125" x="533.625" y="6"/><text fill="#000000" font-family="sans-serif" font-size="20" font-weight="bold" lengthAdjust="spacing" textLength="158.375" x="703" y="27.38">«container (C4)»</text><text fill="#000000" font-family="sans-serif" font-size="20" font-weight="bold" lengthAdjust="spacing" textLength="124.125" x="720.125" y="54.62">Visualization</text><rect fill="#FFFFE0" height="611.5996" style="stroke:#181818;stroke-width:0.5;" width="185.5" x="1351.375" y="6"/><text fill="#000000" font-family="sans-serif" font-size="20" font-weight="bold" lengthAdjust="spacing" textLength="158.375" x="1364.9375" y="27.38">«container (C4)»</text><text fill="#000000" font-family="sans-serif" font-size="20" font-weight="bold" lengthAdjust="spacing" textLength="169.5" x="1359.375" y="54.62">MD Management</text><rect fill="#FFFFFF" height="373.3997" style="stroke:#181818;stroke-width:1.0;" width="10" x="100.5" y="143.9599"/><rect fill="#FFFFFF" height="325.1598" style="stroke:#181818;stroke-width:1.0;" width="10" x="639.125" y="177.1999"/><rect fill="#FFFFFF" height="123.7199" style="stroke:#181818;stroke-width:1.0;" width="10" x="953.75" y="218.4398"/><rect fill="#FFFFFF" height="41.24" style="stroke:#181818;stroke-width:1.0;" width="10" x="1439.125" y="259.6798"/><rect fill="none" height="153.1999" style="stroke:#000000;stroke-width:1.5;" width="750.625" x="10" y="357.1598"/><line style="stroke:#181818;stroke-width:0.5;stroke-dasharray:5.0,5.0;" x1="105" x2="105" y1="133.9599" y2="527.3596"/><line style="stroke:#181818;stroke-width:0.5;stroke-dasharray:5.0,5.0;" x1="643.625" x2="643.625" y1="133.9599" y2="527.3596"/><line style="stroke:#181818;stroke-width:0.5;stroke-dasharray:5.0,5.0;" x1="958.75" x2="958.75" y1="133.9599" y2="527.3596"/><line style="stroke:#181818;stroke-width:0.5;stroke-dasharray:5.0,5.0;" x1="1444.125" x2="1444.125" y1="133.9599" y2="527.3596"/><text fill="#000000" font-family="sans-serif" font-size="20" lengthAdjust="spacing" textLength="165" x="20" y="128.0999">Campus Manager</text><ellipse cx="105.5" cy="55.2199" fill="#E2E2F0" rx="8" ry="8" style="stroke:#181818;stroke-width:0.5;"/><path d="M105.5,63.2199 L105.5,90.2199 M92.5,71.2199 L118.5,71.2199 M105.5,90.2199 L92.5,105.2199 M105.5,90.2199 L118.5,105.2199 " fill="none" style="stroke:#181818;stroke-width:0.5;"/><text fill="#000000" font-family="sans-serif" font-size="20" lengthAdjust="spacing" textLength="165" x="20" y="547.7396">Campus Manager</text><ellipse cx="105.5" cy="562.0996" fill="#E2E2F0" rx="8" ry="8" style="stroke:#181818;stroke-width:0.5;"/><path d="M105.5,570.0996 L105.5,597.0996 M92.5,578.0996 L118.5,578.0996 M105.5,597.0996 L92.5,612.0996 M105.5,597.0996 L118.5,612.0996 " fill="none" style="stroke:#181818;stroke-width:0.5;"/><rect fill="#E2E2F0" height="68.4799" rx="2.5" ry="2.5" style="stroke:#181818;stroke-width:0.5;" width="213" x="537.625" y="64.4799"/><text fill="#000000" font-family="sans-serif" font-size="20" font-style="italic" lengthAdjust="spacing" textLength="122" x="583.125" y="92.8599">«component»</text><text fill="#000000" font-family="sans-serif" font-size="20" lengthAdjust="spacing" textLength="199" x="544.625" y="120.0999">ListFloorsComponent</text><rect fill="#E2E2F0" height="68.4799" rx="2.5" ry="2.5" style="stroke:#181818;stroke-width:0.5;" width="213" x="537.625" y="526.3596"/><text fill="#000000" font-family="sans-serif" font-size="20" font-style="italic" lengthAdjust="spacing" textLength="122" x="583.125" y="554.7396">«component»</text><text fill="#000000" font-family="sans-serif" font-size="20" lengthAdjust="spacing" textLength="199" x="544.625" y="581.9796">ListFloorsComponent</text><rect fill="#E2E2F0" height="68.4799" rx="2.5" ry="2.5" style="stroke:#181818;stroke-width:0.5;" width="136" x="890.75" y="64.4799"/><text fill="#000000" font-family="sans-serif" font-size="20" font-style="italic" lengthAdjust="spacing" textLength="122" x="897.75" y="92.8599">«component»</text><text fill="#000000" font-family="sans-serif" font-size="20" lengthAdjust="spacing" textLength="113" x="902.25" y="120.0999">FloorService</text><rect fill="#E2E2F0" height="68.4799" rx="2.5" ry="2.5" style="stroke:#181818;stroke-width:0.5;" width="136" x="890.75" y="526.3596"/><text fill="#000000" font-family="sans-serif" font-size="20" font-style="italic" lengthAdjust="spacing" textLength="122" x="897.75" y="554.7396">«component»</text><text fill="#000000" font-family="sans-serif" font-size="20" lengthAdjust="spacing" textLength="113" x="902.25" y="581.9796">FloorService</text><rect fill="#E2E2F0" height="68.4799" rx="2.5" ry="2.5" style="stroke:#181818;stroke-width:0.5;" width="136" x="1376.125" y="64.4799"/><text fill="#000000" font-family="sans-serif" font-size="20" font-style="italic" lengthAdjust="spacing" textLength="122" x="1383.125" y="92.8599">«component»</text><text fill="#000000" font-family="sans-serif" font-size="20" lengthAdjust="spacing" textLength="101" x="1393.625" y="120.0999">FloorRoute</text><rect fill="#E2E2F0" height="68.4799" rx="2.5" ry="2.5" style="stroke:#181818;stroke-width:0.5;" width="136" x="1376.125" y="526.3596"/><text fill="#000000" font-family="sans-serif" font-size="20" font-style="italic" lengthAdjust="spacing" textLength="122" x="1383.125" y="554.7396">«component»</text><text fill="#000000" font-family="sans-serif" font-size="20" lengthAdjust="spacing" textLength="101" x="1393.625" y="581.9796">FloorRoute</text><rect fill="#FFFFFF" height="373.3997" style="stroke:#181818;stroke-width:1.0;" width="10" x="100.5" y="143.9599"/><rect fill="#FFFFFF" height="325.1598" style="stroke:#181818;stroke-width:1.0;" width="10" x="639.125" y="177.1999"/><rect fill="#FFFFFF" height="123.7199" style="stroke:#181818;stroke-width:1.0;" width="10" x="953.75" y="218.4398"/><rect fill="#FFFFFF" height="41.24" style="stroke:#181818;stroke-width:1.0;" width="10" x="1439.125" y="259.6798"/><polygon fill="#181818" points="627.125,173.1999,637.125,177.1999,627.125,181.1999,631.125,177.1999" style="stroke:#181818;stroke-width:1.0;"/><line style="stroke:#181818;stroke-width:1.0;" x1="110.5" x2="633.125" y1="177.1999" y2="177.1999"/><text fill="#000000" font-family="sans-serif" font-size="20" font-weight="bold" lengthAdjust="spacing" textLength="11.625" x="117.5" y="169.3399">1</text><text fill="#000000" font-family="sans-serif" font-size="20" lengthAdjust="spacing" textLength="494" x="133.125" y="169.3399">wants to list floors with connectors to other buildings</text><polygon fill="#181818" points="941.75,214.4398,951.75,218.4398,941.75,222.4398,945.75,218.4398" style="stroke:#181818;stroke-width:1.0;"/><line style="stroke:#181818;stroke-width:1.0;" x1="649.125" x2="947.75" y1="218.4398" y2="218.4398"/><text fill="#000000" font-family="sans-serif" font-size="20" font-weight="bold" lengthAdjust="spacing" textLength="11.625" x="656.125" y="210.5799">2</text><text fill="#000000" font-family="sans-serif" font-size="20" lengthAdjust="spacing" textLength="270" x="671.75" y="210.5799">getFloors(buildingCode,filter)</text><polygon fill="#181818" points="1427.125,255.6798,1437.125,259.6798,1427.125,263.6798,1431.125,259.6798" style="stroke:#181818;stroke-width:1.0;"/><line style="stroke:#181818;stroke-width:1.0;" x1="963.75" x2="1433.125" y1="259.6798" y2="259.6798"/><text fill="#000000" font-family="sans-serif" font-size="20" font-weight="bold" lengthAdjust="spacing" textLength="11.625" x="970.75" y="251.8198">3</text><text fill="#000000" font-family="sans-serif" font-size="20" lengthAdjust="spacing" textLength="420" x="986.375" y="251.8198">GET /building/{code}/floors?filter=connectors</text><polygon fill="#181818" points="974.75,296.9198,964.75,300.9198,974.75,304.9198,970.75,300.9198" style="stroke:#181818;stroke-width:1.0;"/><line style="stroke:#181818;stroke-width:1.0;stroke-dasharray:2.0,2.0;" x1="968.75" x2="1443.125" y1="300.9198" y2="300.9198"/><text fill="#000000" font-family="sans-serif" font-size="20" font-weight="bold" lengthAdjust="spacing" textLength="11.625" x="980.75" y="293.0598">4</text><text fill="#000000" font-family="sans-serif" font-size="20" lengthAdjust="spacing" textLength="66" x="996.375" y="293.0598">200 OK</text><polygon fill="#181818" points="660.125,338.1598,650.125,342.1598,660.125,346.1598,656.125,342.1598" style="stroke:#181818;stroke-width:1.0;"/><line style="stroke:#181818;stroke-width:1.0;stroke-dasharray:2.0,2.0;" x1="654.125" x2="957.75" y1="342.1598" y2="342.1598"/><text fill="#000000" font-family="sans-serif" font-size="20" font-weight="bold" lengthAdjust="spacing" textLength="11.625" x="666.125" y="334.2998">5</text><text fill="#000000" font-family="sans-serif" font-size="20" lengthAdjust="spacing" textLength="110" x="681.75" y="334.2998">list of floors</text><path d="M10,357.1598 L79.875,357.1598 L79.875,376.3997 L69.875,386.3997 L10,386.3997 L10,357.1598 " fill="#EEEEEE" style="stroke:#000000;stroke-width:1.5;"/><rect fill="none" height="153.1999" style="stroke:#000000;stroke-width:1.5;" width="750.625" x="10" y="357.1598"/><text fill="#000000" font-family="sans-serif" font-size="20" font-weight="bold" lengthAdjust="spacing" textLength="24.875" x="25" y="379.5398">alt</text><text fill="#000000" font-family="sans-serif" font-size="20" font-weight="bold" lengthAdjust="spacing" textLength="396.75" x="94.875" y="380.5398">[there are floors with the specified filter]</text><polygon fill="#181818" points="121.5,427.8797,111.5,431.8797,121.5,435.8797,117.5,431.8797" style="stroke:#181818;stroke-width:1.0;"/><line style="stroke:#181818;stroke-width:1.0;stroke-dasharray:2.0,2.0;" x1="115.5" x2="638.125" y1="431.8797" y2="431.8797"/><text fill="#000000" font-family="sans-serif" font-size="20" font-weight="bold" lengthAdjust="spacing" textLength="11.625" x="127.5" y="424.0197">6</text><text fill="#000000" font-family="sans-serif" font-size="20" lengthAdjust="spacing" textLength="186" x="143.125" y="424.0197">shows the floors list</text><line style="stroke:#000000;stroke-width:1.0;stroke-dasharray:2.0,2.0;" x1="10" x2="760.625" y1="440.8797" y2="440.8797"/><text fill="#000000" font-family="sans-serif" font-size="20" font-weight="bold" lengthAdjust="spacing" textLength="170" x="15" y="462.2597">[the list is empty]</text><polygon fill="#181818" points="121.5,498.3596,111.5,502.3596,121.5,506.3596,117.5,502.3596" style="stroke:#181818;stroke-width:1.0;"/><line style="stroke:#181818;stroke-width:1.0;stroke-dasharray:2.0,2.0;" x1="115.5" x2="643.125" y1="502.3596" y2="502.3596"/><text fill="#000000" font-family="sans-serif" font-size="20" font-weight="bold" lengthAdjust="spacing" textLength="11.625" x="127.5" y="494.4997">7</text><text fill="#000000" font-family="sans-serif" font-size="20" lengthAdjust="spacing" textLength="373" x="143.125" y="494.4997">shows error message "No floors found."</text><!--SRC=[VLBBRjim4BppAnRg9G7gsWXwCbmNXPBqqBW1OZT0W5veQIKlGf42ISLfYdvHFw6tV5cNf1K9xkCWGQHcPcU6TFUaMsbbeqnnZoMKMCbE-KkZ_PgU4CvcGdRUwAxPeXMkHyDvmctmqNzGLEi6jLyi2dwZNIuXVGWX2syiv2kG3h9SDctdO2MrhD5cGcpD8sJFFmiU9acZXPFyxUdphw_wbbmd5Jr9JqPdC0WB09xlgQ1MQWzvrBqYvo-LCTRbfccDPcpaz8i_QElRH8oaDTe7Al2OWRe4zlSVax0wFsG9uM5iyzKLrJj_XqgP_T7ic-ilcujX-etf_BzdSttq83roWq9mYvCbHvx3deKSU0EAaqCLeyEU_0xOfSRGUVnj_8xzRZjI9UdQZUHOBOY58kPGuw6-anwQcn9VLwGupEd0OhGGWSBC56CE7oysCErfq-y54tzCawFtIU3Tu6cGYlGajfXCNjJEPZEu_YHAF0OcMB8RGvlga7iCZWQbyX1o8qX-nkNmBhWM2wg8RtfonwV3lGRn8ErsPkyYxi0BimGgXt4pJYO7sBJ-sz-OQ2rVzmQTuri1sMVJwrIcq-MRZ3aZktauQ34EmCVy6m00]--></g></svg>