<?xml version="1.0" encoding="UTF-8" standalone="no"?><svg xmlns="http://www.w3.org/2000/svg" xmlns:xlink="http://www.w3.org/1999/xlink" contentStyleType="text/css" height="542px" preserveAspectRatio="none" style="width:1159px;height:542px;background:#FFFFFF;" version="1.1" viewBox="0 0 1159 542" width="1159px" zoomAndPan="magnify"><defs/><g><rect fill="#DDDDDD" height="530.6578" style="stroke:#181818;stroke-width:0.5;" width="435" x="388" y="6"/><text fill="#000000" font-family="sans-serif" font-size="13" font-weight="bold" lengthAdjust="spacing" textLength="107" x="552" y="19.897">«container (C4)»</text><text fill="#000000" font-family="sans-serif" font-size="13" font-weight="bold" lengthAdjust="spacing" textLength="84" x="563.5" y="37.603">Visualization</text><rect fill="#FFFFE0" height="530.6578" style="stroke:#181818;stroke-width:0.5;" width="126" x="1027" y="6"/><text fill="#000000" font-family="sans-serif" font-size="13" font-weight="bold" lengthAdjust="spacing" textLength="107" x="1036.5" y="19.897">«container (C4)»</text><text fill="#000000" font-family="sans-serif" font-size="13" font-weight="bold" lengthAdjust="spacing" textLength="114" x="1033" y="37.603">MD Management</text><rect fill="#FFFFFF" height="336.0421" style="stroke:#181818;stroke-width:1.0;" width="10" x="78" y="108.5479"/><rect fill="#FFFFFF" height="297.336" style="stroke:#181818;stroke-width:1.0;" width="10" x="436" y="132.2539"/><rect fill="#FFFFFF" height="158.5301" style="stroke:#181818;stroke-width:1.0;" width="10" x="651" y="163.9599"/><rect fill="#FFFFFF" height="95.118" style="stroke:#181818;stroke-width:1.0;" width="10" x="765" y="195.6659"/><rect fill="#FFFFFF" height="31.706" style="stroke:#181818;stroke-width:1.0;" width="10" x="1085" y="227.3719"/><rect fill="none" height="100.0999" style="stroke:#000000;stroke-width:1.5;" width="490" x="10" y="337.49"/><line style="stroke:#181818;stroke-width:0.5;stroke-dasharray:5.0,5.0;" x1="83" x2="83" y1="98.5479" y2="454.5899"/><line style="stroke:#181818;stroke-width:0.5;stroke-dasharray:5.0,5.0;" x1="441" x2="441" y1="98.5479" y2="454.5899"/><line style="stroke:#181818;stroke-width:0.5;stroke-dasharray:5.0,5.0;" x1="656" x2="656" y1="98.5479" y2="454.5899"/><line style="stroke:#181818;stroke-width:0.5;stroke-dasharray:5.0,5.0;" x1="770" x2="770" y1="98.5479" y2="454.5899"/><line style="stroke:#181818;stroke-width:0.5;stroke-dasharray:5.0,5.0;" x1="1090" x2="1090" y1="98.5479" y2="454.5899"/><text fill="#000000" font-family="sans-serif" font-size="14" lengthAdjust="spacing" textLength="120" x="20" y="94.4459">Campus Manager</text><ellipse cx="83" cy="27.9799" fill="#E2E2F0" rx="8" ry="8" style="stroke:#181818;stroke-width:0.5;"/><path d="M83,35.9799 L83,62.9799 M70,43.9799 L96,43.9799 M83,62.9799 L70,77.9799 M83,62.9799 L96,77.9799 " fill="none" style="stroke:#181818;stroke-width:0.5;"/><text fill="#000000" font-family="sans-serif" font-size="14" lengthAdjust="spacing" textLength="120" x="20" y="468.5559">Campus Manager</text><ellipse cx="83" cy="481.1578" fill="#E2E2F0" rx="8" ry="8" style="stroke:#181818;stroke-width:0.5;"/><path d="M83,489.1578 L83,516.1578 M70,497.1578 L96,497.1578 M83,516.1578 L70,531.1578 M83,516.1578 L96,531.1578 " fill="none" style="stroke:#181818;stroke-width:0.5;"/><rect fill="#E2E2F0" height="52.1358" rx="2.5" ry="2.5" style="stroke:#181818;stroke-width:0.5;" width="98" x="392" y="45.412"/><text fill="#000000" font-family="sans-serif" font-size="14" font-style="italic" lengthAdjust="spacing" textLength="84" x="399" y="67.378">«component»</text><text fill="#000000" font-family="sans-serif" font-size="14" lengthAdjust="spacing" textLength="78" x="402" y="86.4459">Component</text><rect fill="#E2E2F0" height="52.1358" rx="2.5" ry="2.5" style="stroke:#181818;stroke-width:0.5;" width="98" x="392" y="453.5899"/><text fill="#000000" font-family="sans-serif" font-size="14" font-style="italic" lengthAdjust="spacing" textLength="84" x="399" y="475.5559">«component»</text><text fill="#000000" font-family="sans-serif" font-size="14" lengthAdjust="spacing" textLength="78" x="402" y="494.6238">Component</text><rect fill="#E2E2F0" height="52.1358" rx="2.5" ry="2.5" style="stroke:#181818;stroke-width:0.5;" width="98" x="607" y="45.412"/><text fill="#000000" font-family="sans-serif" font-size="14" font-style="italic" lengthAdjust="spacing" textLength="84" x="614" y="67.378">«component»</text><text fill="#000000" font-family="sans-serif" font-size="14" lengthAdjust="spacing" textLength="48" x="632" y="86.4459">Service</text><rect fill="#E2E2F0" height="52.1358" rx="2.5" ry="2.5" style="stroke:#181818;stroke-width:0.5;" width="98" x="607" y="453.5899"/><text fill="#000000" font-family="sans-serif" font-size="14" font-style="italic" lengthAdjust="spacing" textLength="84" x="614" y="475.5559">«component»</text><text fill="#000000" font-family="sans-serif" font-size="14" lengthAdjust="spacing" textLength="48" x="632" y="494.6238">Service</text><rect fill="#E2E2F0" height="52.1358" rx="2.5" ry="2.5" style="stroke:#181818;stroke-width:0.5;" width="98" x="721" y="45.412"/><text fill="#000000" font-family="sans-serif" font-size="14" font-style="italic" lengthAdjust="spacing" textLength="84" x="728" y="67.378">«component»</text><text fill="#000000" font-family="sans-serif" font-size="14" lengthAdjust="spacing" textLength="34" x="753" y="86.4459">HTTP</text><rect fill="#E2E2F0" height="52.1358" rx="2.5" ry="2.5" style="stroke:#181818;stroke-width:0.5;" width="98" x="721" y="453.5899"/><text fill="#000000" font-family="sans-serif" font-size="14" font-style="italic" lengthAdjust="spacing" textLength="84" x="728" y="475.5559">«component»</text><text fill="#000000" font-family="sans-serif" font-size="14" lengthAdjust="spacing" textLength="34" x="753" y="494.6238">HTTP</text><rect fill="#E2E2F0" height="52.1358" rx="2.5" ry="2.5" style="stroke:#181818;stroke-width:0.5;" width="98" x="1041" y="45.412"/><text fill="#000000" font-family="sans-serif" font-size="14" font-style="italic" lengthAdjust="spacing" textLength="84" x="1048" y="67.378">«component»</text><text fill="#000000" font-family="sans-serif" font-size="14" lengthAdjust="spacing" textLength="39" x="1070.5" y="86.4459">Route</text><rect fill="#E2E2F0" height="52.1358" rx="2.5" ry="2.5" style="stroke:#181818;stroke-width:0.5;" width="98" x="1041" y="453.5899"/><text fill="#000000" font-family="sans-serif" font-size="14" font-style="italic" lengthAdjust="spacing" textLength="84" x="1048" y="475.5559">«component»</text><text fill="#000000" font-family="sans-serif" font-size="14" lengthAdjust="spacing" textLength="39" x="1070.5" y="494.6238">Route</text><rect fill="#FFFFFF" height="336.0421" style="stroke:#181818;stroke-width:1.0;" width="10" x="78" y="108.5479"/><rect fill="#FFFFFF" height="297.336" style="stroke:#181818;stroke-width:1.0;" width="10" x="436" y="132.2539"/><rect fill="#FFFFFF" height="158.5301" style="stroke:#181818;stroke-width:1.0;" width="10" x="651" y="163.9599"/><rect fill="#FFFFFF" height="95.118" style="stroke:#181818;stroke-width:1.0;" width="10" x="765" y="195.6659"/><rect fill="#FFFFFF" height="31.706" style="stroke:#181818;stroke-width:1.0;" width="10" x="1085" y="227.3719"/><polygon fill="#181818" points="424,128.2539,434,132.2539,424,136.2539,428,132.2539" style="stroke:#181818;stroke-width:1.0;"/><line style="stroke:#181818;stroke-width:1.0;" x1="88" x2="430" y1="132.2539" y2="132.2539"/><text fill="#000000" font-family="sans-serif" font-size="13" font-weight="bold" lengthAdjust="spacing" textLength="7" x="95" y="126.4449">1</text><text fill="#000000" font-family="sans-serif" font-size="13" lengthAdjust="spacing" textLength="318" x="106" y="126.4449">wants to list floors with connectors to other buildings</text><polygon fill="#181818" points="639,159.9599,649,163.9599,639,167.9599,643,163.9599" style="stroke:#181818;stroke-width:1.0;"/><line style="stroke:#181818;stroke-width:1.0;" x1="446" x2="645" y1="163.9599" y2="163.9599"/><text fill="#000000" font-family="sans-serif" font-size="13" font-weight="bold" lengthAdjust="spacing" textLength="7" x="453" y="158.1509">2</text><text fill="#000000" font-family="sans-serif" font-size="13" lengthAdjust="spacing" textLength="175" x="464" y="158.1509">getFloors(buildingCode,filter)</text><polygon fill="#181818" points="753,191.6659,763,195.6659,753,199.6659,757,195.6659" style="stroke:#181818;stroke-width:1.0;"/><line style="stroke:#181818;stroke-width:1.0;" x1="661" x2="759" y1="195.6659" y2="195.6659"/><text fill="#000000" font-family="sans-serif" font-size="13" font-weight="bold" lengthAdjust="spacing" textLength="7" x="668" y="189.8569">3</text><text fill="#000000" font-family="sans-serif" font-size="13" lengthAdjust="spacing" textLength="44" x="679" y="189.8569">get(url)</text><polygon fill="#181818" points="1073,223.3719,1083,227.3719,1073,231.3719,1077,227.3719" style="stroke:#181818;stroke-width:1.0;"/><line style="stroke:#181818;stroke-width:1.0;" x1="775" x2="1079" y1="227.3719" y2="227.3719"/><text fill="#000000" font-family="sans-serif" font-size="13" font-weight="bold" lengthAdjust="spacing" textLength="7" x="782" y="221.5629">4</text><text fill="#000000" font-family="sans-serif" font-size="13" lengthAdjust="spacing" textLength="270" x="793" y="221.5629">GET /building/{code}/floors?filter=connectors</text><polygon fill="#181818" points="786,255.0779,776,259.0779,786,263.0779,782,259.0779" style="stroke:#181818;stroke-width:1.0;"/><line style="stroke:#181818;stroke-width:1.0;stroke-dasharray:2.0,2.0;" x1="780" x2="1089" y1="259.0779" y2="259.0779"/><text fill="#000000" font-family="sans-serif" font-size="13" font-weight="bold" lengthAdjust="spacing" textLength="7" x="792" y="253.2689">5</text><text fill="#000000" font-family="sans-serif" font-size="13" lengthAdjust="spacing" textLength="42" x="803" y="253.2689">200 OK</text><polygon fill="#181818" points="672,286.784,662,290.784,672,294.784,668,290.784" style="stroke:#181818;stroke-width:1.0;"/><line style="stroke:#181818;stroke-width:1.0;stroke-dasharray:2.0,2.0;" x1="666" x2="769" y1="290.784" y2="290.784"/><text fill="#000000" font-family="sans-serif" font-size="13" font-weight="bold" lengthAdjust="spacing" textLength="7" x="678" y="284.975">6</text><text fill="#000000" font-family="sans-serif" font-size="13" lengthAdjust="spacing" textLength="69" x="689" y="284.975">list of floors</text><polygon fill="#181818" points="457,318.49,447,322.49,457,326.49,453,322.49" style="stroke:#181818;stroke-width:1.0;"/><line style="stroke:#181818;stroke-width:1.0;stroke-dasharray:2.0,2.0;" x1="451" x2="655" y1="322.49" y2="322.49"/><text fill="#000000" font-family="sans-serif" font-size="13" font-weight="bold" lengthAdjust="spacing" textLength="7" x="463" y="316.681">7</text><text fill="#000000" font-family="sans-serif" font-size="13" lengthAdjust="spacing" textLength="69" x="474" y="316.681">list of floors</text><path d="M10,337.49 L73,337.49 L73,347.196 L63,357.196 L10,357.196 L10,337.49 " fill="#EEEEEE" style="stroke:#000000;stroke-width:1.5;"/><rect fill="none" height="100.0999" style="stroke:#000000;stroke-width:1.5;" width="490" x="10" y="337.49"/><text fill="#000000" font-family="sans-serif" font-size="13" font-weight="bold" lengthAdjust="spacing" textLength="18" x="25" y="352.387">alt</text><text fill="#000000" font-family="sans-serif" font-size="11" font-weight="bold" lengthAdjust="spacing" textLength="226" x="88" y="351.2489">[there are floors with the specified filter]</text><polygon fill="#181818" points="99,376.902,89,380.902,99,384.902,95,380.902" style="stroke:#181818;stroke-width:1.0;"/><line style="stroke:#181818;stroke-width:1.0;stroke-dasharray:2.0,2.0;" x1="93" x2="435" y1="380.902" y2="380.902"/><text fill="#000000" font-family="sans-serif" font-size="13" font-weight="bold" lengthAdjust="spacing" textLength="7" x="105" y="375.093">8</text><text fill="#000000" font-family="sans-serif" font-size="13" lengthAdjust="spacing" textLength="118" x="116" y="375.093">shows the floors list</text><line style="stroke:#000000;stroke-width:1.0;stroke-dasharray:2.0,2.0;" x1="10" x2="500" y1="389.902" y2="389.902"/><text fill="#000000" font-family="sans-serif" font-size="11" font-weight="bold" lengthAdjust="spacing" textLength="96" x="15" y="401.6609">[the list is empty]</text><polygon fill="#181818" points="99,425.5899,89,429.5899,99,433.5899,95,429.5899" style="stroke:#181818;stroke-width:1.0;"/><line style="stroke:#181818;stroke-width:1.0;stroke-dasharray:2.0,2.0;" x1="93" x2="440" y1="429.5899" y2="429.5899"/><text fill="#000000" font-family="sans-serif" font-size="13" font-weight="bold" lengthAdjust="spacing" textLength="7" x="105" y="423.7809">9</text><text fill="#000000" font-family="sans-serif" font-size="13" lengthAdjust="spacing" textLength="237" x="116" y="423.7809">shows error message "No floors found."</text><!--MD5=[c197eb8e2ce1776bf1d92c9959b77d59]
@startuml process-view
autonumber
skinparam DefaultTextAlignment<<center>> center

actor CM as "Campus Manager"

box "«container (C4)»\nVisualization" <<center>>
  participant C as "Component" <<component>>
  participant SVC as "Service" <<component>>
  participant H as "HTTP" <<component>>
end box

box "«container (C4)»\n MD Management " <<center>>#LightYellow
  participant ROUTE as "Route" <<component>>
end box

activate CM

CM -> C : wants to list floors with connectors to other buildings
activate C

C -> SVC : getFloors(buildingCode,filter)
activate SVC

SVC -> H : get(url)
activate H

H -> ROUTE : GET /building/{code}/floors?filter=connectors
activate ROUTE

H <- - ROUTE : 200 OK
deactivate ROUTE

SVC <- - H : list of floors
deactivate H

C <- - SVC : list of floors
deactivate SVC

alt there are floors with the specified filter
  CM <- - C : shows the floors list
else the list is empty
  CM <- - C : shows error message "No floors found."
  deactivate C
end

deactivate CM

@enduml

PlantUML version 1.2022.7(Mon Aug 22 18:01:30 WEST 2022)
(GPL source distribution)
Java Runtime: OpenJDK Runtime Environment
JVM: OpenJDK 64-Bit Server VM
Default Encoding: UTF-8
Language: en
Country: GB
--></g></svg>