<?xml version="1.0" encoding="UTF-8" standalone="no"?><svg xmlns="http://www.w3.org/2000/svg" xmlns:xlink="http://www.w3.org/1999/xlink" contentStyleType="text/css" height="479px" preserveAspectRatio="none" style="width:1045px;height:479px;background:#FFFFFF;" version="1.1" viewBox="0 0 1045 479" width="1045px" zoomAndPan="magnify"><defs/><g><rect fill="#DDDDDD" height="467.2458" style="stroke:#181818;stroke-width:0.5;" width="334.5" x="374.5" y="6"/><text fill="#000000" font-family="sans-serif" font-size="13" font-weight="bold" lengthAdjust="spacing" textLength="107" x="488.25" y="19.897">«container (C4)»</text><text fill="#000000" font-family="sans-serif" font-size="13" font-weight="bold" lengthAdjust="spacing" textLength="84" x="499.75" y="37.603">Visualization</text><rect fill="#DDDDDD" height="467.2458" style="stroke:#181818;stroke-width:0.5;" width="126" x="913" y="6"/><text fill="#000000" font-family="sans-serif" font-size="13" font-weight="bold" lengthAdjust="spacing" textLength="107" x="922.5" y="19.897">«container (C4)»</text><text fill="#000000" font-family="sans-serif" font-size="13" font-weight="bold" lengthAdjust="spacing" textLength="114" x="919" y="37.603">MD Management</text><rect fill="#FFFFFF" height="272.63" style="stroke:#181818;stroke-width:1.0;" width="10" x="78" y="108.5479"/><rect fill="#FFFFFF" height="233.924" style="stroke:#181818;stroke-width:1.0;" width="10" x="436" y="132.2539"/><rect fill="#FFFFFF" height="95.118" style="stroke:#181818;stroke-width:1.0;" width="10" x="651" y="163.9599"/><rect fill="#FFFFFF" height="31.706" style="stroke:#181818;stroke-width:1.0;" width="10" x="971" y="195.6659"/><rect fill="none" height="100.0999" style="stroke:#000000;stroke-width:1.5;" width="503.5" x="10" y="274.0779"/><line style="stroke:#181818;stroke-width:0.5;stroke-dasharray:5.0,5.0;" x1="83" x2="83" y1="98.5479" y2="391.1779"/><line style="stroke:#181818;stroke-width:0.5;stroke-dasharray:5.0,5.0;" x1="440.5" x2="440.5" y1="98.5479" y2="391.1779"/><line style="stroke:#181818;stroke-width:0.5;stroke-dasharray:5.0,5.0;" x1="656" x2="656" y1="98.5479" y2="391.1779"/><line style="stroke:#181818;stroke-width:0.5;stroke-dasharray:5.0,5.0;" x1="976" x2="976" y1="98.5479" y2="391.1779"/><text fill="#000000" font-family="sans-serif" font-size="14" lengthAdjust="spacing" textLength="120" x="20" y="94.4459">Campus Manager</text><ellipse cx="83" cy="27.9799" fill="#E2E2F0" rx="8" ry="8" style="stroke:#181818;stroke-width:0.5;"/><path d="M83,35.9799 L83,62.9799 M70,43.9799 L96,43.9799 M83,62.9799 L70,77.9799 M83,62.9799 L96,77.9799 " fill="none" style="stroke:#181818;stroke-width:0.5;"/><text fill="#000000" font-family="sans-serif" font-size="14" lengthAdjust="spacing" textLength="120" x="20" y="405.1438">Campus Manager</text><ellipse cx="83" cy="417.7458" fill="#E2E2F0" rx="8" ry="8" style="stroke:#181818;stroke-width:0.5;"/><path d="M83,425.7458 L83,452.7458 M70,433.7458 L96,433.7458 M83,452.7458 L70,467.7458 M83,452.7458 L96,467.7458 " fill="none" style="stroke:#181818;stroke-width:0.5;"/><rect fill="#E2E2F0" height="52.1358" rx="2.5" ry="2.5" style="stroke:#181818;stroke-width:0.5;" width="125" x="378.5" y="45.412"/><text fill="#000000" font-family="sans-serif" font-size="14" font-style="italic" lengthAdjust="spacing" textLength="84" x="399" y="67.378">«component»</text><text fill="#000000" font-family="sans-serif" font-size="14" lengthAdjust="spacing" textLength="111" x="385.5" y="86.4459">FloorComponent</text><rect fill="#E2E2F0" height="52.1358" rx="2.5" ry="2.5" style="stroke:#181818;stroke-width:0.5;" width="125" x="378.5" y="390.1779"/><text fill="#000000" font-family="sans-serif" font-size="14" font-style="italic" lengthAdjust="spacing" textLength="84" x="399" y="412.1438">«component»</text><text fill="#000000" font-family="sans-serif" font-size="14" lengthAdjust="spacing" textLength="111" x="385.5" y="431.2117">FloorComponent</text><rect fill="#E2E2F0" height="52.1358" rx="2.5" ry="2.5" style="stroke:#181818;stroke-width:0.5;" width="98" x="607" y="45.412"/><text fill="#000000" font-family="sans-serif" font-size="14" font-style="italic" lengthAdjust="spacing" textLength="84" x="614" y="67.378">«component»</text><text fill="#000000" font-family="sans-serif" font-size="14" lengthAdjust="spacing" textLength="81" x="615.5" y="86.4459">FloorService</text><rect fill="#E2E2F0" height="52.1358" rx="2.5" ry="2.5" style="stroke:#181818;stroke-width:0.5;" width="98" x="607" y="390.1779"/><text fill="#000000" font-family="sans-serif" font-size="14" font-style="italic" lengthAdjust="spacing" textLength="84" x="614" y="412.1438">«component»</text><text fill="#000000" font-family="sans-serif" font-size="14" lengthAdjust="spacing" textLength="81" x="615.5" y="431.2117">FloorService</text><rect fill="#E2E2F0" height="52.1358" rx="2.5" ry="2.5" style="stroke:#181818;stroke-width:0.5;" width="98" x="927" y="45.412"/><text fill="#000000" font-family="sans-serif" font-size="14" font-style="italic" lengthAdjust="spacing" textLength="84" x="934" y="67.378">«component»</text><text fill="#000000" font-family="sans-serif" font-size="14" lengthAdjust="spacing" textLength="72" x="940" y="86.4459">FloorRoute</text><rect fill="#E2E2F0" height="52.1358" rx="2.5" ry="2.5" style="stroke:#181818;stroke-width:0.5;" width="98" x="927" y="390.1779"/><text fill="#000000" font-family="sans-serif" font-size="14" font-style="italic" lengthAdjust="spacing" textLength="84" x="934" y="412.1438">«component»</text><text fill="#000000" font-family="sans-serif" font-size="14" lengthAdjust="spacing" textLength="72" x="940" y="431.2117">FloorRoute</text><rect fill="#FFFFFF" height="272.63" style="stroke:#181818;stroke-width:1.0;" width="10" x="78" y="108.5479"/><rect fill="#FFFFFF" height="233.924" style="stroke:#181818;stroke-width:1.0;" width="10" x="436" y="132.2539"/><rect fill="#FFFFFF" height="95.118" style="stroke:#181818;stroke-width:1.0;" width="10" x="651" y="163.9599"/><rect fill="#FFFFFF" height="31.706" style="stroke:#181818;stroke-width:1.0;" width="10" x="971" y="195.6659"/><polygon fill="#181818" points="424,128.2539,434,132.2539,424,136.2539,428,132.2539" style="stroke:#181818;stroke-width:1.0;"/><line style="stroke:#181818;stroke-width:1.0;" x1="88" x2="430" y1="132.2539" y2="132.2539"/><text fill="#000000" font-family="sans-serif" font-size="13" font-weight="bold" lengthAdjust="spacing" textLength="7" x="95" y="126.4449">1</text><text fill="#000000" font-family="sans-serif" font-size="13" lengthAdjust="spacing" textLength="318" x="106" y="126.4449">wants to list floors with connectors to other buildings</text><polygon fill="#181818" points="639,159.9599,649,163.9599,639,167.9599,643,163.9599" style="stroke:#181818;stroke-width:1.0;"/><line style="stroke:#181818;stroke-width:1.0;" x1="446" x2="645" y1="163.9599" y2="163.9599"/><text fill="#000000" font-family="sans-serif" font-size="13" font-weight="bold" lengthAdjust="spacing" textLength="7" x="453" y="158.1509">2</text><text fill="#000000" font-family="sans-serif" font-size="13" lengthAdjust="spacing" textLength="175" x="464" y="158.1509">getFloors(buildingCode,filter)</text><polygon fill="#181818" points="959,191.6659,969,195.6659,959,199.6659,963,195.6659" style="stroke:#181818;stroke-width:1.0;"/><line style="stroke:#181818;stroke-width:1.0;" x1="661" x2="965" y1="195.6659" y2="195.6659"/><text fill="#000000" font-family="sans-serif" font-size="13" font-weight="bold" lengthAdjust="spacing" textLength="7" x="668" y="189.8569">3</text><text fill="#000000" font-family="sans-serif" font-size="13" lengthAdjust="spacing" textLength="270" x="679" y="189.8569">GET /building/{code}/floors?filter=connectors</text><polygon fill="#181818" points="672,223.3719,662,227.3719,672,231.3719,668,227.3719" style="stroke:#181818;stroke-width:1.0;"/><line style="stroke:#181818;stroke-width:1.0;stroke-dasharray:2.0,2.0;" x1="666" x2="975" y1="227.3719" y2="227.3719"/><text fill="#000000" font-family="sans-serif" font-size="13" font-weight="bold" lengthAdjust="spacing" textLength="7" x="678" y="221.5629">4</text><text fill="#000000" font-family="sans-serif" font-size="13" lengthAdjust="spacing" textLength="42" x="689" y="221.5629">200 OK</text><polygon fill="#181818" points="457,255.0779,447,259.0779,457,263.0779,453,259.0779" style="stroke:#181818;stroke-width:1.0;"/><line style="stroke:#181818;stroke-width:1.0;stroke-dasharray:2.0,2.0;" x1="451" x2="655" y1="259.0779" y2="259.0779"/><text fill="#000000" font-family="sans-serif" font-size="13" font-weight="bold" lengthAdjust="spacing" textLength="7" x="463" y="253.2689">5</text><text fill="#000000" font-family="sans-serif" font-size="13" lengthAdjust="spacing" textLength="69" x="474" y="253.2689">list of floors</text><path d="M10,274.0779 L73,274.0779 L73,283.784 L63,293.784 L10,293.784 L10,274.0779 " fill="#EEEEEE" style="stroke:#000000;stroke-width:1.5;"/><rect fill="none" height="100.0999" style="stroke:#000000;stroke-width:1.5;" width="503.5" x="10" y="274.0779"/><text fill="#000000" font-family="sans-serif" font-size="13" font-weight="bold" lengthAdjust="spacing" textLength="18" x="25" y="288.975">alt</text><text fill="#000000" font-family="sans-serif" font-size="11" font-weight="bold" lengthAdjust="spacing" textLength="226" x="88" y="287.8369">[there are floors with the specified filter]</text><polygon fill="#181818" points="99,313.49,89,317.49,99,321.49,95,317.49" style="stroke:#181818;stroke-width:1.0;"/><line style="stroke:#181818;stroke-width:1.0;stroke-dasharray:2.0,2.0;" x1="93" x2="435" y1="317.49" y2="317.49"/><text fill="#000000" font-family="sans-serif" font-size="13" font-weight="bold" lengthAdjust="spacing" textLength="7" x="105" y="311.681">6</text><text fill="#000000" font-family="sans-serif" font-size="13" lengthAdjust="spacing" textLength="118" x="116" y="311.681">shows the floors list</text><line style="stroke:#000000;stroke-width:1.0;stroke-dasharray:2.0,2.0;" x1="10" x2="513.5" y1="326.49" y2="326.49"/><text fill="#000000" font-family="sans-serif" font-size="11" font-weight="bold" lengthAdjust="spacing" textLength="96" x="15" y="338.2489">[the list is empty]</text><polygon fill="#181818" points="99,362.1779,89,366.1779,99,370.1779,95,366.1779" style="stroke:#181818;stroke-width:1.0;"/><line style="stroke:#181818;stroke-width:1.0;stroke-dasharray:2.0,2.0;" x1="93" x2="440" y1="366.1779" y2="366.1779"/><text fill="#000000" font-family="sans-serif" font-size="13" font-weight="bold" lengthAdjust="spacing" textLength="7" x="105" y="360.3689">7</text><text fill="#000000" font-family="sans-serif" font-size="13" lengthAdjust="spacing" textLength="237" x="116" y="360.3689">shows error message "No floors found."</text><!--MD5=[5ab5dbf11102fdb73c67a3179a8399f2]
@startuml process-view
autonumber
skinparam DefaultTextAlignment<<center>> center

actor CM as "Campus Manager"

box "«container (C4)»\nVisualization" <<center>>
  participant C as "FloorComponent" <<component>>
  participant SVC as "FloorService" <<component>>
end box

box "«container (C4)»\n MD Management " <<center>>
  participant ROUTE as "FloorRoute" <<component>>
end box

activate CM

CM -> C : wants to list floors with connectors to other buildings
activate C

C -> SVC : getFloors(buildingCode,filter)
activate SVC

SVC -> ROUTE : GET /building/{code}/floors?filter=connectors
activate ROUTE

SVC <- - ROUTE : 200 OK
deactivate ROUTE

C <- - SVC : list of floors
deactivate SVC

alt there are floors with the specified filter
  CM <- - C : shows the floors list
else the list is empty
  CM <- - C : shows error message "No floors found."
  deactivate C
end

deactivate CM

@enduml

PlantUML version 1.2022.7(Mon Aug 22 18:01:30 WEST 2022)
(GPL source distribution)
Java Runtime: OpenJDK Runtime Environment
JVM: OpenJDK 64-Bit Server VM
Default Encoding: UTF-8
Language: en
Country: GB
--></g></svg>