<?xml version="1.0" encoding="UTF-8" standalone="no"?><svg xmlns="http://www.w3.org/2000/svg" xmlns:xlink="http://www.w3.org/1999/xlink" contentStyleType="text/css" height="829px" preserveAspectRatio="none" style="width:1862px;height:829px;background:#FFFFFF;" version="1.1" viewBox="0 0 1862 829" width="1862px" zoomAndPan="magnify"><defs/><g><rect fill="#DDDDDD" height="817.7995" style="stroke:#181818;stroke-width:0.5;" width="785.375" x="564.625" y="6"/><text fill="#000000" font-family="sans-serif" font-size="20" font-weight="bold" lengthAdjust="spacing" textLength="158.375" x="878.125" y="27.38">«container (C4)»</text><text fill="#000000" font-family="sans-serif" font-size="20" font-weight="bold" lengthAdjust="spacing" textLength="124.125" x="895.25" y="54.62">Visualization</text><rect fill="#FFFFE0" height="817.7995" style="stroke:#181818;stroke-width:0.5;" width="185.5" x="1670.625" y="6"/><text fill="#000000" font-family="sans-serif" font-size="20" font-weight="bold" lengthAdjust="spacing" textLength="158.375" x="1684.1875" y="27.38">«container (C4)»</text><text fill="#000000" font-family="sans-serif" font-size="20" font-weight="bold" lengthAdjust="spacing" textLength="169.5" x="1678.625" y="54.62">MD Management</text><rect fill="#FFFFFF" height="579.5996" style="stroke:#181818;stroke-width:1.0;" width="10" x="100.5" y="143.9599"/><rect fill="#FFFFFF" height="531.3596" style="stroke:#181818;stroke-width:1.0;" width="10" x="639.125" y="177.1999"/><rect fill="#FFFFFF" height="337.1598" style="stroke:#181818;stroke-width:1.0;" width="10" x="798.75" y="218.4398"/><rect fill="#FFFFFF" height="70.4799" style="stroke:#181818;stroke-width:1.0;" width="10" x="798.75" y="596.8396"/><rect fill="#FFFFFF" height="206.1999" style="stroke:#181818;stroke-width:1.0;" width="10" x="1113.375" y="259.6798"/><rect fill="#FFFFFF" height="123.7199" style="stroke:#181818;stroke-width:1.0;" width="10" x="1273" y="300.9198"/><rect fill="#FFFFFF" height="41.24" style="stroke:#181818;stroke-width:1.0;" width="10" x="1758.375" y="342.1598"/><rect fill="none" height="235.6798" style="stroke:#000000;stroke-width:1.5;" width="871.75" x="10" y="480.8797"/><line style="stroke:#181818;stroke-width:0.5;stroke-dasharray:5.0,5.0;" x1="105" x2="105" y1="133.9599" y2="733.5595"/><line style="stroke:#181818;stroke-width:0.5;stroke-dasharray:5.0,5.0;" x1="643.625" x2="643.625" y1="133.9599" y2="733.5595"/><line style="stroke:#181818;stroke-width:0.5;stroke-dasharray:5.0,5.0;" x1="803.75" x2="803.75" y1="133.9599" y2="733.5595"/><line style="stroke:#181818;stroke-width:0.5;stroke-dasharray:5.0,5.0;" x1="1118.375" x2="1118.375" y1="133.9599" y2="733.5595"/><line style="stroke:#181818;stroke-width:0.5;stroke-dasharray:5.0,5.0;" x1="1278" x2="1278" y1="133.9599" y2="733.5595"/><line style="stroke:#181818;stroke-width:0.5;stroke-dasharray:5.0,5.0;" x1="1763.375" x2="1763.375" y1="133.9599" y2="733.5595"/><text fill="#000000" font-family="sans-serif" font-size="20" lengthAdjust="spacing" textLength="165" x="20" y="128.0999">Campus Manager</text><ellipse cx="105.5" cy="55.2199" fill="#E2E2F0" rx="8" ry="8" style="stroke:#181818;stroke-width:0.5;"/><path d="M105.5,63.2199 L105.5,90.2199 M92.5,71.2199 L118.5,71.2199 M105.5,90.2199 L92.5,105.2199 M105.5,90.2199 L118.5,105.2199 " fill="none" style="stroke:#181818;stroke-width:0.5;"/><text fill="#000000" font-family="sans-serif" font-size="20" lengthAdjust="spacing" textLength="165" x="20" y="753.9395">Campus Manager</text><ellipse cx="105.5" cy="768.2995" fill="#E2E2F0" rx="8" ry="8" style="stroke:#181818;stroke-width:0.5;"/><path d="M105.5,776.2995 L105.5,803.2995 M92.5,784.2995 L118.5,784.2995 M105.5,803.2995 L92.5,818.2995 M105.5,803.2995 L118.5,818.2995 " fill="none" style="stroke:#181818;stroke-width:0.5;"/><rect fill="#E2E2F0" height="68.4799" rx="2.5" ry="2.5" style="stroke:#181818;stroke-width:0.5;" width="151" x="568.625" y="64.4799"/><text fill="#000000" font-family="sans-serif" font-size="20" font-style="italic" lengthAdjust="spacing" textLength="122" x="583.125" y="92.8599">«component»</text><text fill="#000000" font-family="sans-serif" font-size="20" lengthAdjust="spacing" textLength="137" x="575.625" y="120.0999">UI Component</text><rect fill="#E2E2F0" height="68.4799" rx="2.5" ry="2.5" style="stroke:#181818;stroke-width:0.5;" width="151" x="568.625" y="732.5595"/><text fill="#000000" font-family="sans-serif" font-size="20" font-style="italic" lengthAdjust="spacing" textLength="122" x="583.125" y="760.9395">«component»</text><text fill="#000000" font-family="sans-serif" font-size="20" lengthAdjust="spacing" textLength="137" x="575.625" y="788.1795">UI Component</text><rect fill="#E2E2F0" height="68.4799" rx="2.5" ry="2.5" style="stroke:#181818;stroke-width:0.5;" width="136" x="735.75" y="64.4799"/><text fill="#000000" font-family="sans-serif" font-size="20" font-style="italic" lengthAdjust="spacing" textLength="122" x="742.75" y="92.8599">«component»</text><text fill="#000000" font-family="sans-serif" font-size="20" lengthAdjust="spacing" textLength="70" x="768.75" y="120.0999">Module</text><rect fill="#E2E2F0" height="68.4799" rx="2.5" ry="2.5" style="stroke:#181818;stroke-width:0.5;" width="136" x="735.75" y="732.5595"/><text fill="#000000" font-family="sans-serif" font-size="20" font-style="italic" lengthAdjust="spacing" textLength="122" x="742.75" y="760.9395">«component»</text><text fill="#000000" font-family="sans-serif" font-size="20" lengthAdjust="spacing" textLength="70" x="768.75" y="788.1795">Module</text><rect fill="#E2E2F0" height="68.4799" rx="2.5" ry="2.5" style="stroke:#181818;stroke-width:0.5;" width="136" x="1050.375" y="64.4799"/><text fill="#000000" font-family="sans-serif" font-size="20" font-style="italic" lengthAdjust="spacing" textLength="122" x="1057.375" y="92.8599">«component»</text><text fill="#000000" font-family="sans-serif" font-size="20" lengthAdjust="spacing" textLength="66" x="1085.375" y="120.0999">Service</text><rect fill="#E2E2F0" height="68.4799" rx="2.5" ry="2.5" style="stroke:#181818;stroke-width:0.5;" width="136" x="1050.375" y="732.5595"/><text fill="#000000" font-family="sans-serif" font-size="20" font-style="italic" lengthAdjust="spacing" textLength="122" x="1057.375" y="760.9395">«component»</text><text fill="#000000" font-family="sans-serif" font-size="20" lengthAdjust="spacing" textLength="66" x="1085.375" y="788.1795">Service</text><rect fill="#E2E2F0" height="68.4799" rx="2.5" ry="2.5" style="stroke:#181818;stroke-width:0.5;" width="136" x="1210" y="64.4799"/><text fill="#000000" font-family="sans-serif" font-size="20" font-style="italic" lengthAdjust="spacing" textLength="122" x="1217" y="92.8599">«component»</text><text fill="#000000" font-family="sans-serif" font-size="20" lengthAdjust="spacing" textLength="49" x="1253.5" y="120.0999">HTTP</text><rect fill="#E2E2F0" height="68.4799" rx="2.5" ry="2.5" style="stroke:#181818;stroke-width:0.5;" width="136" x="1210" y="732.5595"/><text fill="#000000" font-family="sans-serif" font-size="20" font-style="italic" lengthAdjust="spacing" textLength="122" x="1217" y="760.9395">«component»</text><text fill="#000000" font-family="sans-serif" font-size="20" lengthAdjust="spacing" textLength="49" x="1253.5" y="788.1795">HTTP</text><rect fill="#E2E2F0" height="68.4799" rx="2.5" ry="2.5" style="stroke:#181818;stroke-width:0.5;" width="136" x="1695.375" y="64.4799"/><text fill="#000000" font-family="sans-serif" font-size="20" font-style="italic" lengthAdjust="spacing" textLength="122" x="1702.375" y="92.8599">«component»</text><text fill="#000000" font-family="sans-serif" font-size="20" lengthAdjust="spacing" textLength="54" x="1736.375" y="120.0999">Route</text><rect fill="#E2E2F0" height="68.4799" rx="2.5" ry="2.5" style="stroke:#181818;stroke-width:0.5;" width="136" x="1695.375" y="732.5595"/><text fill="#000000" font-family="sans-serif" font-size="20" font-style="italic" lengthAdjust="spacing" textLength="122" x="1702.375" y="760.9395">«component»</text><text fill="#000000" font-family="sans-serif" font-size="20" lengthAdjust="spacing" textLength="54" x="1736.375" y="788.1795">Route</text><rect fill="#FFFFFF" height="579.5996" style="stroke:#181818;stroke-width:1.0;" width="10" x="100.5" y="143.9599"/><rect fill="#FFFFFF" height="531.3596" style="stroke:#181818;stroke-width:1.0;" width="10" x="639.125" y="177.1999"/><rect fill="#FFFFFF" height="337.1598" style="stroke:#181818;stroke-width:1.0;" width="10" x="798.75" y="218.4398"/><rect fill="#FFFFFF" height="70.4799" style="stroke:#181818;stroke-width:1.0;" width="10" x="798.75" y="596.8396"/><rect fill="#FFFFFF" height="206.1999" style="stroke:#181818;stroke-width:1.0;" width="10" x="1113.375" y="259.6798"/><rect fill="#FFFFFF" height="123.7199" style="stroke:#181818;stroke-width:1.0;" width="10" x="1273" y="300.9198"/><rect fill="#FFFFFF" height="41.24" style="stroke:#181818;stroke-width:1.0;" width="10" x="1758.375" y="342.1598"/><polygon fill="#181818" points="627.125,173.1999,637.125,177.1999,627.125,181.1999,631.125,177.1999" style="stroke:#181818;stroke-width:1.0;"/><line style="stroke:#181818;stroke-width:1.0;" x1="110.5" x2="633.125" y1="177.1999" y2="177.1999"/><text fill="#000000" font-family="sans-serif" font-size="20" font-weight="bold" lengthAdjust="spacing" textLength="11.625" x="117.5" y="169.3399">1</text><text fill="#000000" font-family="sans-serif" font-size="20" lengthAdjust="spacing" textLength="494" x="133.125" y="169.3399">wants to list floors with connectors to other buildings</text><polygon fill="#181818" points="786.75,214.4398,796.75,218.4398,786.75,222.4398,790.75,218.4398" style="stroke:#181818;stroke-width:1.0;"/><line style="stroke:#181818;stroke-width:1.0;" x1="649.125" x2="792.75" y1="218.4398" y2="218.4398"/><text fill="#000000" font-family="sans-serif" font-size="20" font-weight="bold" lengthAdjust="spacing" textLength="11.625" x="656.125" y="210.5799">2</text><text fill="#000000" font-family="sans-serif" font-size="20" lengthAdjust="spacing" textLength="87" x="671.75" y="210.5799">getFloors</text><polygon fill="#181818" points="1101.375,255.6798,1111.375,259.6798,1101.375,263.6798,1105.375,259.6798" style="stroke:#181818;stroke-width:1.0;"/><line style="stroke:#181818;stroke-width:1.0;" x1="808.75" x2="1107.375" y1="259.6798" y2="259.6798"/><text fill="#000000" font-family="sans-serif" font-size="20" font-weight="bold" lengthAdjust="spacing" textLength="11.625" x="815.75" y="251.8198">3</text><text fill="#000000" font-family="sans-serif" font-size="20" lengthAdjust="spacing" textLength="270" x="831.375" y="251.8198">getFloors(buildingCode,filter)</text><polygon fill="#181818" points="1261,296.9198,1271,300.9198,1261,304.9198,1265,300.9198" style="stroke:#181818;stroke-width:1.0;"/><line style="stroke:#181818;stroke-width:1.0;" x1="1123.375" x2="1267" y1="300.9198" y2="300.9198"/><text fill="#000000" font-family="sans-serif" font-size="20" font-weight="bold" lengthAdjust="spacing" textLength="11.625" x="1130.375" y="293.0598">4</text><text fill="#000000" font-family="sans-serif" font-size="20" lengthAdjust="spacing" textLength="67" x="1146" y="293.0598">get(url)</text><polygon fill="#181818" points="1746.375,338.1598,1756.375,342.1598,1746.375,346.1598,1750.375,342.1598" style="stroke:#181818;stroke-width:1.0;"/><line style="stroke:#181818;stroke-width:1.0;" x1="1283" x2="1752.375" y1="342.1598" y2="342.1598"/><text fill="#000000" font-family="sans-serif" font-size="20" font-weight="bold" lengthAdjust="spacing" textLength="11.625" x="1290" y="334.2998">5</text><text fill="#000000" font-family="sans-serif" font-size="20" lengthAdjust="spacing" textLength="420" x="1305.625" y="334.2998">GET /building/{code}/floors?filter=connectors</text><polygon fill="#181818" points="1294,379.3997,1284,383.3997,1294,387.3997,1290,383.3997" style="stroke:#181818;stroke-width:1.0;"/><line style="stroke:#181818;stroke-width:1.0;stroke-dasharray:2.0,2.0;" x1="1288" x2="1762.375" y1="383.3997" y2="383.3997"/><text fill="#000000" font-family="sans-serif" font-size="20" font-weight="bold" lengthAdjust="spacing" textLength="11.625" x="1300" y="375.5398">6</text><text fill="#000000" font-family="sans-serif" font-size="20" lengthAdjust="spacing" textLength="66" x="1315.625" y="375.5398">200 OK</text><polygon fill="#181818" points="1134.375,420.6397,1124.375,424.6397,1134.375,428.6397,1130.375,424.6397" style="stroke:#181818;stroke-width:1.0;"/><line style="stroke:#181818;stroke-width:1.0;stroke-dasharray:2.0,2.0;" x1="1128.375" x2="1277" y1="424.6397" y2="424.6397"/><text fill="#000000" font-family="sans-serif" font-size="20" font-weight="bold" lengthAdjust="spacing" textLength="11.625" x="1140.375" y="416.7797">7</text><text fill="#000000" font-family="sans-serif" font-size="20" lengthAdjust="spacing" textLength="110" x="1156" y="416.7797">list of floors</text><polygon fill="#181818" points="819.75,461.8797,809.75,465.8797,819.75,469.8797,815.75,465.8797" style="stroke:#181818;stroke-width:1.0;"/><line style="stroke:#181818;stroke-width:1.0;stroke-dasharray:2.0,2.0;" x1="813.75" x2="1117.375" y1="465.8797" y2="465.8797"/><text fill="#000000" font-family="sans-serif" font-size="20" font-weight="bold" lengthAdjust="spacing" textLength="11.625" x="825.75" y="458.0197">8</text><text fill="#000000" font-family="sans-serif" font-size="20" lengthAdjust="spacing" textLength="110" x="841.375" y="458.0197">list of floors</text><path d="M10,480.8797 L79.875,480.8797 L79.875,500.1197 L69.875,510.1197 L10,510.1197 L10,480.8797 " fill="#EEEEEE" style="stroke:#000000;stroke-width:1.5;"/><rect fill="none" height="235.6798" style="stroke:#000000;stroke-width:1.5;" width="871.75" x="10" y="480.8797"/><text fill="#000000" font-family="sans-serif" font-size="20" font-weight="bold" lengthAdjust="spacing" textLength="24.875" x="25" y="503.2597">alt</text><text fill="#000000" font-family="sans-serif" font-size="20" font-weight="bold" lengthAdjust="spacing" textLength="396.75" x="94.875" y="504.2597">[there are floors with the specified filter]</text><polygon fill="#181818" points="660.125,551.5996,650.125,555.5996,660.125,559.5996,656.125,555.5996" style="stroke:#181818;stroke-width:1.0;"/><line style="stroke:#181818;stroke-width:1.0;stroke-dasharray:2.0,2.0;" x1="654.125" x2="802.75" y1="555.5996" y2="555.5996"/><text fill="#000000" font-family="sans-serif" font-size="20" font-weight="bold" lengthAdjust="spacing" textLength="11.625" x="666.125" y="547.7396">9</text><text fill="#000000" font-family="sans-serif" font-size="20" lengthAdjust="spacing" textLength="110" x="681.75" y="547.7396">list of floors</text><polygon fill="#181818" points="121.5,592.8396,111.5,596.8396,121.5,600.8396,117.5,596.8396" style="stroke:#181818;stroke-width:1.0;"/><line style="stroke:#181818;stroke-width:1.0;stroke-dasharray:2.0,2.0;" x1="115.5" x2="638.125" y1="596.8396" y2="596.8396"/><text fill="#000000" font-family="sans-serif" font-size="20" font-weight="bold" lengthAdjust="spacing" textLength="23.25" x="127.5" y="588.9796">10</text><text fill="#000000" font-family="sans-serif" font-size="20" lengthAdjust="spacing" textLength="186" x="154.75" y="588.9796">shows the floors list</text><line style="stroke:#000000;stroke-width:1.0;stroke-dasharray:2.0,2.0;" x1="10" x2="881.75" y1="605.8396" y2="605.8396"/><text fill="#000000" font-family="sans-serif" font-size="20" font-weight="bold" lengthAdjust="spacing" textLength="170" x="15" y="627.2196">[the list is empty]</text><polygon fill="#181818" points="660.125,663.3195,650.125,667.3195,660.125,671.3195,656.125,667.3195" style="stroke:#181818;stroke-width:1.0;"/><line style="stroke:#181818;stroke-width:1.0;stroke-dasharray:2.0,2.0;" x1="654.125" x2="802.75" y1="667.3195" y2="667.3195"/><text fill="#000000" font-family="sans-serif" font-size="20" font-weight="bold" lengthAdjust="spacing" textLength="23.25" x="666.125" y="659.4596">11</text><text fill="#000000" font-family="sans-serif" font-size="20" lengthAdjust="spacing" textLength="47" x="693.375" y="659.4596">error</text><polygon fill="#181818" points="121.5,704.5595,111.5,708.5595,121.5,712.5595,117.5,708.5595" style="stroke:#181818;stroke-width:1.0;"/><line style="stroke:#181818;stroke-width:1.0;stroke-dasharray:2.0,2.0;" x1="115.5" x2="643.125" y1="708.5595" y2="708.5595"/><text fill="#000000" font-family="sans-serif" font-size="20" font-weight="bold" lengthAdjust="spacing" textLength="23.25" x="127.5" y="700.6995">12</text><text fill="#000000" font-family="sans-serif" font-size="20" lengthAdjust="spacing" textLength="373" x="154.75" y="700.6995">shows error message "No floors found."</text><!--SRC=[ZPFHRjCm58Rl_HH7uQQJAAqchgQk26KRGH26rcuI4ZTkSf9QS-p8TjQnYIVY4RZRa-tORadejC55gpR-p_UV_np7NWlLSiCRgOjhBA74YdVIdMdb5k8EuN3AUEUqwfeL6cPtQZY9kYNUklTIrAf1vMQpWhxHpESGVp362wSDf3bm2qdAcxQpa7F5QpG9Oojz2yd3huBCk51eO9I-FNZu_LrT2TjnAUwu4rebq8CP0FaxKOYMAmTfu5v-X5GthLOa2kBTdoVws4UkoqxYoyh5LMGlqDo8uX_YB4YpvVBhlWvL2PJoXQYGdsmduaS8mx2lFejwxRwXb7gpvtXnVhay3QuNkdFuh2tDNznmXxG2ncWDupdDx0WsnB3WD4XX7LHIQsDX8zmQg465VcdXMBirjRhgX2o5gkq0HpGFombMepiBXFwOp8ANd-90CDgHKbtYwqf8YddGLv6QCLz2bLci6tL63XGPOva_ZV6FuCFf4YOxwEI-8EpFIOppBkAF-q0z9fHxr6my_iCwd4xX_1ChSL_cE_92trAObwws8nkACn_PosBcvuKX9PSE_6mHE7s62w2dO5iiH2NeTOmXQFcnXVmf6M30fhc3VzkyrdTXrtfZ0t9huOiPIelXOK092zYqxWTL3ZX3HpH6c_yn2a9eq5gwpf1yqJlRIdUgV9FypKZzDMN3qT0bVGG0]--></g></svg>