<?xml version="1.0" encoding="UTF-8" standalone="no"?><svg xmlns="http://www.w3.org/2000/svg" xmlns:xlink="http://www.w3.org/1999/xlink" contentStyleType="text/css" height="466px" preserveAspectRatio="none" style="width:919px;height:466px;background:#FFFFFF;" version="1.1" viewBox="0 0 919 466" width="919px" zoomAndPan="magnify"><defs/><g><!--cluster RobDroneGo System--><g id="cluster_RobDroneGo System"><rect fill="none" height="204" rx="2.5" ry="2.5" style="stroke:#181818;stroke-width:1.0;" width="270" x="358.5" y="116"/><rect fill="none" height="10" style="stroke:#181818;stroke-width:1.0;" width="15" x="608.5" y="121"/><rect fill="none" height="2" style="stroke:#181818;stroke-width:1.0;" width="4" x="606.5" y="123"/><rect fill="none" height="2" style="stroke:#181818;stroke-width:1.0;" width="4" x="606.5" y="127"/><text fill="#000000" font-family="sans-serif" font-size="20" font-style="italic" lengthAdjust="spacing" textLength="138" x="424.5" y="147.5645">«component»</text><text fill="#000000" font-family="sans-serif" font-size="20" font-style="italic" lengthAdjust="spacing" textLength="145" x="421" y="170.8457">«system (C4)»</text><text fill="#000000" font-family="sans-serif" font-size="20" font-weight="bold" lengthAdjust="spacing" textLength="233" x="377" y="194.127">RobDroneGo System</text></g><text fill="#000000" font-family="sans-serif" font-size="20" lengthAdjust="spacing" textLength="6" x="484.5" y="93.2832"> </text><rect fill="#F1F1F1" height="12" style="stroke:#181818;stroke-width:1.5;" width="12" x="481.5" y="110"/><text fill="#000000" font-family="sans-serif" font-size="20" lengthAdjust="spacing" textLength="6" x="373.5" y="344.5645"> </text><rect fill="#F1F1F1" height="12" style="stroke:#181818;stroke-width:1.5;" width="12" x="370.5" y="314"/><text fill="#000000" font-family="sans-serif" font-size="20" lengthAdjust="spacing" textLength="6" x="429.5" y="344.5645"> </text><rect fill="#F1F1F1" height="12" style="stroke:#181818;stroke-width:1.5;" width="12" x="426.5" y="314"/><text fill="#000000" font-family="sans-serif" font-size="20" lengthAdjust="spacing" textLength="6" x="484.5" y="344.5645"> </text><rect fill="#F1F1F1" height="12" style="stroke:#181818;stroke-width:1.5;" width="12" x="481.5" y="314"/><!--entity AUI--><g id="elem_AUI"><ellipse cx="52.5" cy="14" fill="#F1F1F1" rx="8" ry="8" style="stroke:#181818;stroke-width:0.5;"/><text fill="#000000" font-family="sans-serif" font-size="20" lengthAdjust="spacing" textLength="93" x="6" y="49.5645">Admin UI</text></g><!--entity CUI--><g id="elem_CUI"><ellipse cx="250.5" cy="14" fill="#F1F1F1" rx="8" ry="8" style="stroke:#181818;stroke-width:0.5;"/><text fill="#000000" font-family="sans-serif" font-size="20" lengthAdjust="spacing" textLength="202" x="149.5" y="49.5645">Campus Manager UI</text></g><!--entity FUI--><g id="elem_FUI"><ellipse cx="487.5" cy="14" fill="#F1F1F1" rx="8" ry="8" style="stroke:#181818;stroke-width:0.5;"/><text fill="#000000" font-family="sans-serif" font-size="20" lengthAdjust="spacing" textLength="170" x="402.5" y="49.5645">Fleet Manager UI</text></g><!--entity TUI--><g id="elem_TUI"><ellipse cx="706.5" cy="14" fill="#F1F1F1" rx="8" ry="8" style="stroke:#181818;stroke-width:0.5;"/><text fill="#000000" font-family="sans-serif" font-size="20" lengthAdjust="spacing" textLength="166" x="623.5" y="49.5645">Task Manager UI</text></g><!--entity UUI--><g id="elem_UUI"><ellipse cx="876.5" cy="14" fill="#F1F1F1" rx="8" ry="8" style="stroke:#181818;stroke-width:0.5;"/><text fill="#000000" font-family="sans-serif" font-size="20" lengthAdjust="spacing" textLength="72" x="840.5" y="49.5645">User UI</text></g><!--entity FS--><g id="elem_FS"><ellipse cx="213.5" cy="422" fill="#F1F1F1" rx="8" ry="8" style="stroke:#181818;stroke-width:0.5;"/><text fill="#000000" font-family="sans-serif" font-size="20" lengthAdjust="spacing" textLength="145" x="141" y="457.5645">Filesystem API</text></g><!--entity GA--><g id="elem_GA"><ellipse cx="432.5" cy="422" fill="#F1F1F1" rx="8" ry="8" style="stroke:#181818;stroke-width:0.5;"/><text fill="#000000" font-family="sans-serif" font-size="20" lengthAdjust="spacing" textLength="192" x="336.5" y="457.5645">Google OAuth2 API</text></g><!--entity GS--><g id="elem_GS"><ellipse cx="724.5" cy="422" fill="#F1F1F1" rx="8" ry="8" style="stroke:#181818;stroke-width:0.5;"/><text fill="#000000" font-family="sans-serif" font-size="20" lengthAdjust="spacing" textLength="290" x="579.5" y="457.5645">Google Identity Services SDK</text></g><!--link AUI to P1--><g id="link_AUI_P1"><path d="M61.78,20.64 C75.01,28.43 100.26,42.37 123.5,50 C263.77,96.07 445.81,111.83 481.34,114.55 " fill="none" id="AUI-P1" style="stroke:#181818;stroke-width:1.0;"/></g><!--link CUI to P1--><g id="link_CUI_P1"><path d="M259.5,18.8 C298.06,35.07 448.79,98.67 481.3,112.38 " fill="none" id="CUI-P1" style="stroke:#181818;stroke-width:1.0;"/></g><!--link FUI to P1--><g id="link_FUI_P1"><path d="M487.5,23.18 C487.5,42.96 487.5,92.95 487.5,109.55 " fill="none" id="FUI-P1" style="stroke:#181818;stroke-width:1.0;"/></g><!--link TUI to P1--><g id="link_TUI_P1"><path d="M697.37,19.17 C660.62,35.95 524.03,98.32 493.55,112.24 " fill="none" id="TUI-P1" style="stroke:#181818;stroke-width:1.0;"/></g><!--link UUI to P1--><g id="link_UUI_P1"><path d="M867.46,21.45 C855.94,29.37 835.17,42.64 815.5,50 C691,96.62 526.78,111.85 493.52,114.54 " fill="none" id="UUI-P1" style="stroke:#181818;stroke-width:1.0;"/></g><!--link P2 to FS--><g id="link_P2_FS"><path d="M370.31,324.8 C347.46,338.81 267.34,387.97 231.3,410.08 " fill="none" id="P2-to-FS" style="stroke:#181818;stroke-width:1.0;"/><path d="M229.8146,420.9113 A9,9 0 0 0 220.974 406.491" fill="none" style="stroke:#181818;stroke-width:1.5;"/></g><!--link P3 to GA--><g id="link_P3_GA"><path d="M432.5,326.1 C432.5,340.05 432.5,379.4 432.5,402.82 " fill="none" id="P3-to-GA" style="stroke:#181818;stroke-width:1.0;"/><path d="M440.9572,409.7718 A9,9 0 0 0 424.0428 409.7718" fill="none" style="stroke:#181818;stroke-width:1.5;"/></g><!--link P4 to GS--><g id="link_P4_GS"><path d="M493.84,323.67 C524.36,336.55 656.69,392.39 705.94,413.17 " fill="none" id="P4-to-GS" style="stroke:#181818;stroke-width:1.0;"/><path d="M715.8199,408.1613 A9,9 0 0 0 709.2475 423.7466" fill="none" style="stroke:#181818;stroke-width:1.5;"/></g><!--SRC=[RP7FQiCm38VlVWgHKtSeR6cFfH1IKi8O2tFp06wYjgQ95Mnbq8sz-zm_yvgIswUVFYGZkwCsdRAgRQWwOWqrxbJVS4Q6fVv2Y9y5KmTCi2LcQg7M5YlMP8JGXj7kL8KG9NMh3PHv1Cf1KkRtlLIrNU_WJHcrH_idfKCfQn3vqSc6paQvuwEo6Igb-s-LPGw35Rf1TtACBIJ5RO6y5zP4-mRXFUdv40TddOmuUOs6DPz0eltK5JgGgzUhBeMegEt8U0EY3zgkhESrWRpiZc2n2FtbqbUtDqtI-PEllmL0HvRzEIEuJ2nURX7r7B9u99kDP7Fn8uJ_49XEpuFIG5cWJQ0oK15xc9plKymkvAzGpAyanIy0]--></g></svg>