<?xml version="1.0" encoding="UTF-8" standalone="no"?><svg xmlns="http://www.w3.org/2000/svg" xmlns:xlink="http://www.w3.org/1999/xlink" contentStyleType="text/css" height="525px" preserveAspectRatio="none" style="width:1781px;height:525px;background:#FFFFFF;" version="1.1" viewBox="0 0 1781 525" width="1781px" zoomAndPan="magnify"><defs/><g><rect fill="#FFFFFF" height="370.9198" style="stroke:#181818;stroke-width:1.0;" width="10" x="290.625" y="90.4799"/><rect fill="#FFFFFF" height="288.4398" style="stroke:#181818;stroke-width:1.0;" width="10" x="572.25" y="131.7199"/><rect fill="#FFFFFF" height="205.9599" style="stroke:#181818;stroke-width:1.0;" width="10" x="853.875" y="172.9599"/><rect fill="#FFFFFF" height="30" style="stroke:#181818;stroke-width:1.0;" width="10" x="1242.5" y="214.1999"/><rect fill="#FFFFFF" height="41.24" style="stroke:#181818;stroke-width:1.0;" width="10" x="1391" y="285.4398"/><line style="stroke:#181818;stroke-width:0.5;stroke-dasharray:5.0,5.0;" x1="295.625" x2="295.625" y1="47.24" y2="479.3997"/><line style="stroke:#181818;stroke-width:0.5;stroke-dasharray:5.0,5.0;" x1="576.75" x2="576.75" y1="47.24" y2="479.3997"/><line style="stroke:#181818;stroke-width:0.5;stroke-dasharray:5.0,5.0;" x1="858.875" x2="858.875" y1="47.24" y2="479.3997"/><line style="stroke:#181818;stroke-width:0.5;stroke-dasharray:5.0,5.0;" x1="1247.5" x2="1247.5" y1="47.24" y2="479.3997"/><line style="stroke:#181818;stroke-width:0.5;stroke-dasharray:5.0,5.0;" x1="1395.5" x2="1395.5" y1="47.24" y2="479.3997"/><line style="stroke:#181818;stroke-width:0.5;stroke-dasharray:5.0,5.0;" x1="1642.625" x2="1642.625" y1="329.5598" y2="479.3997"/><rect fill="#E2E2F0" height="41.24" rx="2.5" ry="2.5" style="stroke:#181818;stroke-width:0.5;" width="148" x="221.625" y="5"/><text fill="#000000" font-family="sans-serif" font-size="20" lengthAdjust="spacing" textLength="134" x="228.625" y="33.38">:ElevatorRoute</text><rect fill="#E2E2F0" height="41.24" rx="2.5" ry="2.5" style="stroke:#181818;stroke-width:0.5;" width="148" x="221.625" y="478.3997"/><text fill="#000000" font-family="sans-serif" font-size="20" lengthAdjust="spacing" textLength="134" x="228.625" y="506.7797">:ElevatorRoute</text><rect fill="#E2E2F0" height="41.24" rx="2.5" ry="2.5" style="stroke:#181818;stroke-width:0.5;" width="187" x="483.75" y="5"/><text fill="#000000" font-family="sans-serif" font-size="20" lengthAdjust="spacing" textLength="173" x="490.75" y="33.38">:ElevatorController</text><rect fill="#E2E2F0" height="41.24" rx="2.5" ry="2.5" style="stroke:#181818;stroke-width:0.5;" width="187" x="483.75" y="478.3997"/><text fill="#000000" font-family="sans-serif" font-size="20" lengthAdjust="spacing" textLength="173" x="490.75" y="506.7797">:ElevatorController</text><rect fill="#E2E2F0" height="41.24" rx="2.5" ry="2.5" style="stroke:#181818;stroke-width:0.5;" width="160" x="778.875" y="5"/><text fill="#000000" font-family="sans-serif" font-size="20" lengthAdjust="spacing" textLength="146" x="785.875" y="33.38">:ElevatorService</text><rect fill="#E2E2F0" height="41.24" rx="2.5" ry="2.5" style="stroke:#181818;stroke-width:0.5;" width="160" x="778.875" y="478.3997"/><text fill="#000000" font-family="sans-serif" font-size="20" lengthAdjust="spacing" textLength="146" x="785.875" y="506.7797">:ElevatorService</text><rect fill="#E2E2F0" height="41.24" rx="2.5" ry="2.5" style="stroke:#181818;stroke-width:0.5;" width="142" x="1176.5" y="5"/><text fill="#000000" font-family="sans-serif" font-size="20" lengthAdjust="spacing" textLength="128" x="1183.5" y="33.38">:BuildingRepo</text><rect fill="#E2E2F0" height="41.24" rx="2.5" ry="2.5" style="stroke:#181818;stroke-width:0.5;" width="142" x="1176.5" y="478.3997"/><text fill="#000000" font-family="sans-serif" font-size="20" lengthAdjust="spacing" textLength="128" x="1183.5" y="506.7797">:BuildingRepo</text><rect fill="#E2E2F0" height="41.24" rx="2.5" ry="2.5" style="stroke:#181818;stroke-width:0.5;" width="135" x="1328.5" y="5"/><text fill="#000000" font-family="sans-serif" font-size="20" lengthAdjust="spacing" textLength="121" x="1335.5" y="33.38">:ElevatorMap</text><rect fill="#E2E2F0" height="41.24" rx="2.5" ry="2.5" style="stroke:#181818;stroke-width:0.5;" width="135" x="1328.5" y="478.3997"/><text fill="#000000" font-family="sans-serif" font-size="20" lengthAdjust="spacing" textLength="121" x="1335.5" y="506.7797">:ElevatorMap</text><rect fill="#E2E2F0" height="41.24" rx="2.5" ry="2.5" style="stroke:#181818;stroke-width:0.5;" width="265" x="1510.625" y="478.3997"/><text fill="#000000" font-family="sans-serif" font-size="20" lengthAdjust="spacing" textLength="251" x="1517.625" y="506.7797">:elevatorDTO:IElevatorDTO</text><rect fill="#FFFFFF" height="370.9198" style="stroke:#181818;stroke-width:1.0;" width="10" x="290.625" y="90.4799"/><rect fill="#FFFFFF" height="288.4398" style="stroke:#181818;stroke-width:1.0;" width="10" x="572.25" y="131.7199"/><rect fill="#FFFFFF" height="205.9599" style="stroke:#181818;stroke-width:1.0;" width="10" x="853.875" y="172.9599"/><rect fill="#FFFFFF" height="30" style="stroke:#181818;stroke-width:1.0;" width="10" x="1242.5" y="214.1999"/><rect fill="#FFFFFF" height="41.24" style="stroke:#181818;stroke-width:1.0;" width="10" x="1391" y="285.4398"/><ellipse cx="4.5" cy="89.7299" fill="none" rx="4" ry="4" style="stroke:#181818;stroke-width:1.5;"/><polygon fill="#181818" points="278.625,86.4799,288.625,90.4799,278.625,94.4799,282.625,90.4799" style="stroke:#181818;stroke-width:1.0;"/><line style="stroke:#181818;stroke-width:1.0;" x1="9" x2="284.625" y1="90.4799" y2="90.4799"/><text fill="#000000" font-family="sans-serif" font-size="20" font-weight="bold" lengthAdjust="spacing" textLength="11.625" x="12" y="82.62">1</text><text fill="#000000" font-family="sans-serif" font-size="20" lengthAdjust="spacing" textLength="248" x="27.625" y="82.62">GET buildings/:id/elevators</text><polygon fill="#181818" points="560.25,127.7199,570.25,131.7199,560.25,135.7199,564.25,131.7199" style="stroke:#181818;stroke-width:1.0;"/><line style="stroke:#181818;stroke-width:1.0;" x1="300.625" x2="566.25" y1="131.7199" y2="131.7199"/><text fill="#000000" font-family="sans-serif" font-size="20" font-weight="bold" lengthAdjust="spacing" textLength="11.625" x="307.625" y="123.8599">2</text><text fill="#000000" font-family="sans-serif" font-size="20" lengthAdjust="spacing" textLength="237" x="323.25" y="123.8599">listElevator(buildingCode)</text><polygon fill="#181818" points="841.875,168.9599,851.875,172.9599,841.875,176.9599,845.875,172.9599" style="stroke:#181818;stroke-width:1.0;"/><line style="stroke:#181818;stroke-width:1.0;" x1="582.25" x2="847.875" y1="172.9599" y2="172.9599"/><text fill="#000000" font-family="sans-serif" font-size="20" font-weight="bold" lengthAdjust="spacing" textLength="11.625" x="589.25" y="165.0999">3</text><text fill="#000000" font-family="sans-serif" font-size="20" lengthAdjust="spacing" textLength="237" x="604.875" y="165.0999">listElevator(buildingCode)</text><polygon fill="#181818" points="1230.5,210.1999,1240.5,214.1999,1230.5,218.1999,1234.5,214.1999" style="stroke:#181818;stroke-width:1.0;"/><line style="stroke:#181818;stroke-width:1.0;" x1="863.875" x2="1236.5" y1="214.1999" y2="214.1999"/><text fill="#000000" font-family="sans-serif" font-size="20" font-weight="bold" lengthAdjust="spacing" textLength="11.625" x="870.875" y="206.3399">4</text><text fill="#000000" font-family="sans-serif" font-size="20" lengthAdjust="spacing" textLength="344" x="886.5" y="206.3399">building=findByDomainId(buildingId)</text><polygon fill="#181818" points="1379,281.4398,1389,285.4398,1379,289.4398,1383,285.4398" style="stroke:#181818;stroke-width:1.0;"/><line style="stroke:#181818;stroke-width:1.0;" x1="863.875" x2="1385" y1="285.4398" y2="285.4398"/><text fill="#000000" font-family="sans-serif" font-size="20" font-weight="bold" lengthAdjust="spacing" textLength="11.625" x="870.875" y="277.5799">5</text><text fill="#000000" font-family="sans-serif" font-size="20" lengthAdjust="spacing" textLength="220" x="886.5" y="277.5799">toDto(buidling.elevator)</text><polygon fill="#181818" points="1498.625,322.6798,1508.625,326.6798,1498.625,330.6798,1502.625,326.6798" style="stroke:#181818;stroke-width:1.0;"/><line style="stroke:#181818;stroke-width:1.0;" x1="1396" x2="1504.625" y1="326.6798" y2="326.6798"/><text fill="#000000" font-family="sans-serif" font-size="20" font-weight="bold" lengthAdjust="spacing" textLength="11.625" x="1403" y="318.8198">6</text><text fill="#000000" font-family="sans-serif" font-size="20" lengthAdjust="spacing" textLength="70" x="1418.625" y="318.8198">create()</text><rect fill="#E2E2F0" height="41.24" rx="2.5" ry="2.5" style="stroke:#181818;stroke-width:0.5;" width="265" x="1510.625" y="293.4398"/><text fill="#000000" font-family="sans-serif" font-size="20" lengthAdjust="spacing" textLength="251" x="1517.625" y="321.8198">:elevatorDTO:IElevatorDTO</text><polygon fill="#181818" points="593.25,374.9198,583.25,378.9198,593.25,382.9198,589.25,378.9198" style="stroke:#181818;stroke-width:1.0;"/><line style="stroke:#181818;stroke-width:1.0;stroke-dasharray:2.0,2.0;" x1="587.25" x2="857.875" y1="378.9198" y2="378.9198"/><text fill="#000000" font-family="sans-serif" font-size="20" font-weight="bold" lengthAdjust="spacing" textLength="11.625" x="599.25" y="371.0598">7</text><text fill="#000000" font-family="sans-serif" font-size="20" lengthAdjust="spacing" textLength="192" x="614.875" y="371.0598">sucess(elevatorDTO)</text><polygon fill="#181818" points="311.625,416.1598,301.625,420.1598,311.625,424.1598,307.625,420.1598" style="stroke:#181818;stroke-width:1.0;"/><line style="stroke:#181818;stroke-width:1.0;stroke-dasharray:2.0,2.0;" x1="305.625" x2="576.25" y1="420.1598" y2="420.1598"/><text fill="#000000" font-family="sans-serif" font-size="20" font-weight="bold" lengthAdjust="spacing" textLength="11.625" x="317.625" y="412.2998">8</text><text fill="#000000" font-family="sans-serif" font-size="20" lengthAdjust="spacing" textLength="192" x="333.25" y="412.2998">sucess(elevatorDTO)</text><polygon fill="#181818" points="11,457.3997,1,461.3997,11,465.3997,7,461.3997" style="stroke:#181818;stroke-width:1.0;"/><line style="stroke:#181818;stroke-width:1.0;stroke-dasharray:2.0,2.0;" x1="5" x2="294.625" y1="461.3997" y2="461.3997"/><text fill="#000000" font-family="sans-serif" font-size="20" font-weight="bold" lengthAdjust="spacing" textLength="11.625" x="17" y="453.5398">9</text><text fill="#000000" font-family="sans-serif" font-size="20" lengthAdjust="spacing" textLength="66" x="32.625" y="453.5398">200 OK</text><!--SRC=[ZP7BRi8m44Nt_WgB5I1H44kh3nL8AzGYK4YxD_5GMHWxiXsazkixpeF4RDfTufnpdRdZJb8NtFApCla911LmvANoBqRxlVm1EfyHNdgZo_C1B47IormMN7kQRZ-oX7971onHSE7UsDIK7WOHjSpIznXQOhGrIe6DoNtw6ODxi1UPt-GjqcIthRb5APMG-Yk5miJGvdaNHsru4HEhh0c1Xi03jawwbm4XJsRos4p9w6kIqKDpePioAQQjwGZFlSH7g652QWVbQdX6bNI-ZHws8KiZODIf0IKLZrweudyQaYJGADNDiEjVFXob5ellbJbpgTVYch0MFR-IY82RWoOozCYeDojlWYuKwdVjtBqKv4XWKS7gncEKSWluPJZgPmUiIkwgSMKEpWrxMuYCC5vTIcyLVpXLa_UJoPMVpsPq-zP7wZtz0W00]--></g></svg>