<?xml version="1.0" encoding="UTF-8" standalone="no"?><svg xmlns="http://www.w3.org/2000/svg" xmlns:xlink="http://www.w3.org/1999/xlink" contentStyleType="text/css" height="482px" preserveAspectRatio="none" style="width:1797px;height:482px;background:#FFFFFF;" version="1.1" viewBox="0 0 1797 482" width="1797px" zoomAndPan="magnify"><defs/><g><rect fill="#FFFFFF" height="339.25" style="stroke:#181818;stroke-width:1.0;" width="10" x="111" y="82.5625"/><rect fill="#FFFFFF" height="264.6875" style="stroke:#181818;stroke-width:1.0;" width="10" x="420" y="119.8438"/><rect fill="#FFFFFF" height="190.125" style="stroke:#181818;stroke-width:1.0;" width="10" x="729" y="157.125"/><rect fill="#FFFFFF" height="30" style="stroke:#181818;stroke-width:1.0;" width="10" x="1155" y="194.4063"/><rect fill="#FFFFFF" height="37.2813" style="stroke:#181818;stroke-width:1.0;" width="10" x="1315.5" y="261.6875"/><line style="stroke:#181818;stroke-width:0.5;stroke-dasharray:5.0,5.0;" x1="116" x2="116" y1="43.2813" y2="439.8125"/><line style="stroke:#181818;stroke-width:0.5;stroke-dasharray:5.0,5.0;" x1="425" x2="425" y1="43.2813" y2="439.8125"/><line style="stroke:#181818;stroke-width:0.5;stroke-dasharray:5.0,5.0;" x1="734" x2="734" y1="43.2813" y2="439.8125"/><line style="stroke:#181818;stroke-width:0.5;stroke-dasharray:5.0,5.0;" x1="1160" x2="1160" y1="43.2813" y2="439.8125"/><line style="stroke:#181818;stroke-width:0.5;stroke-dasharray:5.0,5.0;" x1="1320" x2="1320" y1="43.2813" y2="439.8125"/><line style="stroke:#181818;stroke-width:0.5;stroke-dasharray:5.0,5.0;" x1="1587.5" x2="1587.5" y1="303.8281" y2="439.8125"/><line style="stroke:#181818;stroke-width:0.5;stroke-dasharray:5.0,5.0;" x1="1765.5" x2="1765.5" y1="43.2813" y2="439.8125"/><rect fill="#E2E2F0" height="37.2813" rx="2.5" ry="2.5" style="stroke:#181818;stroke-width:0.5;" width="162" x="35" y="5"/><text fill="#000000" font-family="sans-serif" font-size="20" lengthAdjust="spacing" textLength="148" x="42" y="30.5645">:ElevatorRoute</text><rect fill="#E2E2F0" height="37.2813" rx="2.5" ry="2.5" style="stroke:#181818;stroke-width:0.5;" width="162" x="35" y="438.8125"/><text fill="#000000" font-family="sans-serif" font-size="20" lengthAdjust="spacing" textLength="148" x="42" y="464.377">:ElevatorRoute</text><rect fill="#E2E2F0" height="37.2813" rx="2.5" ry="2.5" style="stroke:#181818;stroke-width:0.5;" width="202" x="324" y="5"/><text fill="#000000" font-family="sans-serif" font-size="20" lengthAdjust="spacing" textLength="188" x="331" y="30.5645">:ElevatorController</text><rect fill="#E2E2F0" height="37.2813" rx="2.5" ry="2.5" style="stroke:#181818;stroke-width:0.5;" width="202" x="324" y="438.8125"/><text fill="#000000" font-family="sans-serif" font-size="20" lengthAdjust="spacing" textLength="188" x="331" y="464.377">:ElevatorController</text><rect fill="#E2E2F0" height="37.2813" rx="2.5" ry="2.5" style="stroke:#181818;stroke-width:0.5;" width="176" x="646" y="5"/><text fill="#000000" font-family="sans-serif" font-size="20" lengthAdjust="spacing" textLength="162" x="653" y="30.5645">:ElevatorService</text><rect fill="#E2E2F0" height="37.2813" rx="2.5" ry="2.5" style="stroke:#181818;stroke-width:0.5;" width="176" x="646" y="438.8125"/><text fill="#000000" font-family="sans-serif" font-size="20" lengthAdjust="spacing" textLength="162" x="653" y="464.377">:ElevatorService</text><rect fill="#E2E2F0" height="37.2813" rx="2.5" ry="2.5" style="stroke:#181818;stroke-width:0.5;" width="156" x="1082" y="5"/><text fill="#000000" font-family="sans-serif" font-size="20" lengthAdjust="spacing" textLength="142" x="1089" y="30.5645">:BuildingRepo</text><rect fill="#E2E2F0" height="37.2813" rx="2.5" ry="2.5" style="stroke:#181818;stroke-width:0.5;" width="156" x="1082" y="438.8125"/><text fill="#000000" font-family="sans-serif" font-size="20" lengthAdjust="spacing" textLength="142" x="1089" y="464.377">:BuildingRepo</text><rect fill="#E2E2F0" height="37.2813" rx="2.5" ry="2.5" style="stroke:#181818;stroke-width:0.5;" width="145" x="1248" y="5"/><text fill="#000000" font-family="sans-serif" font-size="20" lengthAdjust="spacing" textLength="131" x="1255" y="30.5645">:ElevatorMap</text><rect fill="#E2E2F0" height="37.2813" rx="2.5" ry="2.5" style="stroke:#181818;stroke-width:0.5;" width="145" x="1248" y="438.8125"/><text fill="#000000" font-family="sans-serif" font-size="20" lengthAdjust="spacing" textLength="131" x="1255" y="464.377">:ElevatorMap</text><rect fill="#E2E2F0" height="37.2813" rx="2.5" ry="2.5" style="stroke:#181818;stroke-width:0.5;" width="283" x="1446.5" y="438.8125"/><text fill="#000000" font-family="sans-serif" font-size="20" lengthAdjust="spacing" textLength="269" x="1453.5" y="464.377">:elevatorDTO:IElevatorDTO</text><rect fill="#E2E2F0" height="37.2813" rx="2.5" ry="2.5" style="stroke:#181818;stroke-width:0.5;" width="52" x="1739.5" y="5"/><text fill="#000000" font-family="sans-serif" font-size="20" lengthAdjust="spacing" textLength="38" x="1746.5" y="30.5645">SYS</text><rect fill="#E2E2F0" height="37.2813" rx="2.5" ry="2.5" style="stroke:#181818;stroke-width:0.5;" width="52" x="1739.5" y="438.8125"/><text fill="#000000" font-family="sans-serif" font-size="20" lengthAdjust="spacing" textLength="38" x="1746.5" y="464.377">SYS</text><rect fill="#FFFFFF" height="339.25" style="stroke:#181818;stroke-width:1.0;" width="10" x="111" y="82.5625"/><rect fill="#FFFFFF" height="264.6875" style="stroke:#181818;stroke-width:1.0;" width="10" x="420" y="119.8438"/><rect fill="#FFFFFF" height="190.125" style="stroke:#181818;stroke-width:1.0;" width="10" x="729" y="157.125"/><rect fill="#FFFFFF" height="30" style="stroke:#181818;stroke-width:1.0;" width="10" x="1155" y="194.4063"/><rect fill="#FFFFFF" height="37.2813" style="stroke:#181818;stroke-width:1.0;" width="10" x="1315.5" y="261.6875"/><ellipse cx="1444" cy="81.8125" fill="none" rx="4" ry="4" style="stroke:#181818;stroke-width:1.5;"/><polygon fill="#181818" points="1753.5,78.5625,1763.5,82.5625,1753.5,86.5625,1757.5,82.5625" style="stroke:#181818;stroke-width:1.0;"/><line style="stroke:#181818;stroke-width:1.0;" x1="1448.5" x2="1759.5" y1="82.5625" y2="82.5625"/><text fill="#000000" font-family="sans-serif" font-size="20" font-weight="bold" lengthAdjust="spacing" textLength="14" x="1451.5" y="75.8457">1</text><text fill="#000000" font-family="sans-serif" font-size="20" lengthAdjust="spacing" textLength="271" x="1469.5" y="75.8457">GET buildings/:id/elevators</text><polygon fill="#181818" points="408,115.8438,418,119.8438,408,123.8438,412,119.8438" style="stroke:#181818;stroke-width:1.0;"/><line style="stroke:#181818;stroke-width:1.0;" x1="121" x2="414" y1="119.8438" y2="119.8438"/><text fill="#000000" font-family="sans-serif" font-size="20" font-weight="bold" lengthAdjust="spacing" textLength="14" x="128" y="113.127">2</text><text fill="#000000" font-family="sans-serif" font-size="20" lengthAdjust="spacing" textLength="262" x="146" y="113.127">listElevator(buildingCode)</text><polygon fill="#181818" points="717,153.125,727,157.125,717,161.125,721,157.125" style="stroke:#181818;stroke-width:1.0;"/><line style="stroke:#181818;stroke-width:1.0;" x1="430" x2="723" y1="157.125" y2="157.125"/><text fill="#000000" font-family="sans-serif" font-size="20" font-weight="bold" lengthAdjust="spacing" textLength="14" x="437" y="150.4082">3</text><text fill="#000000" font-family="sans-serif" font-size="20" lengthAdjust="spacing" textLength="262" x="455" y="150.4082">listElevator(buildingCode)</text><polygon fill="#181818" points="1143,190.4063,1153,194.4063,1143,198.4063,1147,194.4063" style="stroke:#181818;stroke-width:1.0;"/><line style="stroke:#181818;stroke-width:1.0;" x1="739" x2="1149" y1="194.4063" y2="194.4063"/><text fill="#000000" font-family="sans-serif" font-size="20" font-weight="bold" lengthAdjust="spacing" textLength="14" x="746" y="187.6895">4</text><text fill="#000000" font-family="sans-serif" font-size="20" lengthAdjust="spacing" textLength="379" x="764" y="187.6895">building=findByDomainId(buildingId)</text><polygon fill="#181818" points="1303.5,257.6875,1313.5,261.6875,1303.5,265.6875,1307.5,261.6875" style="stroke:#181818;stroke-width:1.0;"/><line style="stroke:#181818;stroke-width:1.0;" x1="739" x2="1309.5" y1="261.6875" y2="261.6875"/><text fill="#000000" font-family="sans-serif" font-size="20" font-weight="bold" lengthAdjust="spacing" textLength="14" x="746" y="254.9707">5</text><text fill="#000000" font-family="sans-serif" font-size="20" lengthAdjust="spacing" textLength="241" x="764" y="254.9707">toDto(buidling.elevator)</text><polygon fill="#181818" points="1434.5,294.9688,1444.5,298.9688,1434.5,302.9688,1438.5,298.9688" style="stroke:#181818;stroke-width:1.0;"/><line style="stroke:#181818;stroke-width:1.0;" x1="1320.5" x2="1440.5" y1="298.9688" y2="298.9688"/><text fill="#000000" font-family="sans-serif" font-size="20" font-weight="bold" lengthAdjust="spacing" textLength="14" x="1327.5" y="292.252">6</text><text fill="#000000" font-family="sans-serif" font-size="20" lengthAdjust="spacing" textLength="79" x="1345.5" y="292.252">create()</text><rect fill="#E2E2F0" height="37.2813" rx="2.5" ry="2.5" style="stroke:#181818;stroke-width:0.5;" width="283" x="1446.5" y="269.6875"/><text fill="#000000" font-family="sans-serif" font-size="20" lengthAdjust="spacing" textLength="269" x="1453.5" y="295.252">:elevatorDTO:IElevatorDTO</text><polygon fill="#181818" points="441,343.25,431,347.25,441,351.25,437,347.25" style="stroke:#181818;stroke-width:1.0;"/><line style="stroke:#181818;stroke-width:1.0;stroke-dasharray:2.0,2.0;" x1="435" x2="733" y1="347.25" y2="347.25"/><text fill="#000000" font-family="sans-serif" font-size="20" font-weight="bold" lengthAdjust="spacing" textLength="14" x="447" y="340.5332">7</text><text fill="#000000" font-family="sans-serif" font-size="20" lengthAdjust="spacing" textLength="206" x="465" y="340.5332">sucess(elevatorDTO)</text><polygon fill="#181818" points="132,380.5313,122,384.5313,132,388.5313,128,384.5313" style="stroke:#181818;stroke-width:1.0;"/><line style="stroke:#181818;stroke-width:1.0;stroke-dasharray:2.0,2.0;" x1="126" x2="424" y1="384.5313" y2="384.5313"/><text fill="#000000" font-family="sans-serif" font-size="20" font-weight="bold" lengthAdjust="spacing" textLength="14" x="138" y="377.8145">8</text><text fill="#000000" font-family="sans-serif" font-size="20" lengthAdjust="spacing" textLength="206" x="156" y="377.8145">sucess(elevatorDTO)</text><polygon fill="#181818" points="11,417.8125,1,421.8125,11,425.8125,7,421.8125" style="stroke:#181818;stroke-width:1.0;"/><line style="stroke:#181818;stroke-width:1.0;stroke-dasharray:2.0,2.0;" x1="5" x2="115" y1="421.8125" y2="421.8125"/><text fill="#000000" font-family="sans-serif" font-size="20" font-weight="bold" lengthAdjust="spacing" textLength="14" x="17" y="415.0957">9</text><text fill="#000000" font-family="sans-serif" font-size="20" lengthAdjust="spacing" textLength="74" x="35" y="415.0957">200 OK</text><!--SRC=[ZP5TRy8W58Rl-HN4ApLn6Y_9FZArMyncNDfkoIwn71SYGWFKPFlrE_H3YpVR7T3dUUbvSGUfIsxvKPdY088AsFDA-IUZVIP_WCvdX5VUwEgu0qkGzBAG9TUUfjltFA7SqG5B59ouDpOrbOT1H2tpz3M6bXXjZL9WOp9BFs8m0tkInLNU8atUjWstgAGIKd-bK9eOsZo-nL4RNiR4Acz3e2NmWAsJosP0o8EPtDFiCwECFYSvtRNNkIcJOjfvZl32Irn2KmWXJI-ergCpggJpNV2m2raQ0QEB6b1Iy-5ABE9_6f8aq2WrlR3pNzxjfHQBxvKvSgdNufom5Zs_beY0guCsChJ8g3ShRu8k5EettToz5EH8O571uiPZb0eB-6KuwcS7h4w-LEEg0fmRzjuWCi9uJIceDBN-wTHDtaucPtu-cz7jInzftkaN]--></g></svg>