<?xml version="1.0" encoding="UTF-8" standalone="no"?><svg xmlns="http://www.w3.org/2000/svg" xmlns:xlink="http://www.w3.org/1999/xlink" contentStyleType="text/css" height="525px" preserveAspectRatio="none" style="width:1648px;height:525px;background:#FFFFFF;" version="1.1" viewBox="0 0 1648 525" width="1648px" zoomAndPan="magnify"><defs/><g><rect fill="#FFFFFF" height="370.9198" style="stroke:#181818;stroke-width:1.0;" width="10" x="100.625" y="90.4799"/><rect fill="#FFFFFF" height="288.4398" style="stroke:#181818;stroke-width:1.0;" width="10" x="382.25" y="131.7199"/><rect fill="#FFFFFF" height="205.9599" style="stroke:#181818;stroke-width:1.0;" width="10" x="663.875" y="172.9599"/><rect fill="#FFFFFF" height="30" style="stroke:#181818;stroke-width:1.0;" width="10" x="1052.5" y="214.1999"/><rect fill="#FFFFFF" height="41.24" style="stroke:#181818;stroke-width:1.0;" width="10" x="1201" y="285.4398"/><line style="stroke:#181818;stroke-width:0.5;stroke-dasharray:5.0,5.0;" x1="105.625" x2="105.625" y1="47.24" y2="479.3997"/><line style="stroke:#181818;stroke-width:0.5;stroke-dasharray:5.0,5.0;" x1="386.75" x2="386.75" y1="47.24" y2="479.3997"/><line style="stroke:#181818;stroke-width:0.5;stroke-dasharray:5.0,5.0;" x1="668.875" x2="668.875" y1="47.24" y2="479.3997"/><line style="stroke:#181818;stroke-width:0.5;stroke-dasharray:5.0,5.0;" x1="1057.5" x2="1057.5" y1="47.24" y2="479.3997"/><line style="stroke:#181818;stroke-width:0.5;stroke-dasharray:5.0,5.0;" x1="1205.5" x2="1205.5" y1="47.24" y2="479.3997"/><line style="stroke:#181818;stroke-width:0.5;stroke-dasharray:5.0,5.0;" x1="1452.625" x2="1452.625" y1="329.5598" y2="479.3997"/><line style="stroke:#181818;stroke-width:0.5;stroke-dasharray:5.0,5.0;" x1="1618.625" x2="1618.625" y1="47.24" y2="479.3997"/><rect fill="#E2E2F0" height="41.24" rx="2.5" ry="2.5" style="stroke:#181818;stroke-width:0.5;" width="148" x="31.625" y="5"/><text fill="#000000" font-family="sans-serif" font-size="20" lengthAdjust="spacing" textLength="134" x="38.625" y="33.38">:ElevatorRoute</text><rect fill="#E2E2F0" height="41.24" rx="2.5" ry="2.5" style="stroke:#181818;stroke-width:0.5;" width="148" x="31.625" y="478.3997"/><text fill="#000000" font-family="sans-serif" font-size="20" lengthAdjust="spacing" textLength="134" x="38.625" y="506.7797">:ElevatorRoute</text><rect fill="#E2E2F0" height="41.24" rx="2.5" ry="2.5" style="stroke:#181818;stroke-width:0.5;" width="187" x="293.75" y="5"/><text fill="#000000" font-family="sans-serif" font-size="20" lengthAdjust="spacing" textLength="173" x="300.75" y="33.38">:ElevatorController</text><rect fill="#E2E2F0" height="41.24" rx="2.5" ry="2.5" style="stroke:#181818;stroke-width:0.5;" width="187" x="293.75" y="478.3997"/><text fill="#000000" font-family="sans-serif" font-size="20" lengthAdjust="spacing" textLength="173" x="300.75" y="506.7797">:ElevatorController</text><rect fill="#E2E2F0" height="41.24" rx="2.5" ry="2.5" style="stroke:#181818;stroke-width:0.5;" width="160" x="588.875" y="5"/><text fill="#000000" font-family="sans-serif" font-size="20" lengthAdjust="spacing" textLength="146" x="595.875" y="33.38">:ElevatorService</text><rect fill="#E2E2F0" height="41.24" rx="2.5" ry="2.5" style="stroke:#181818;stroke-width:0.5;" width="160" x="588.875" y="478.3997"/><text fill="#000000" font-family="sans-serif" font-size="20" lengthAdjust="spacing" textLength="146" x="595.875" y="506.7797">:ElevatorService</text><rect fill="#E2E2F0" height="41.24" rx="2.5" ry="2.5" style="stroke:#181818;stroke-width:0.5;" width="142" x="986.5" y="5"/><text fill="#000000" font-family="sans-serif" font-size="20" lengthAdjust="spacing" textLength="128" x="993.5" y="33.38">:BuildingRepo</text><rect fill="#E2E2F0" height="41.24" rx="2.5" ry="2.5" style="stroke:#181818;stroke-width:0.5;" width="142" x="986.5" y="478.3997"/><text fill="#000000" font-family="sans-serif" font-size="20" lengthAdjust="spacing" textLength="128" x="993.5" y="506.7797">:BuildingRepo</text><rect fill="#E2E2F0" height="41.24" rx="2.5" ry="2.5" style="stroke:#181818;stroke-width:0.5;" width="135" x="1138.5" y="5"/><text fill="#000000" font-family="sans-serif" font-size="20" lengthAdjust="spacing" textLength="121" x="1145.5" y="33.38">:ElevatorMap</text><rect fill="#E2E2F0" height="41.24" rx="2.5" ry="2.5" style="stroke:#181818;stroke-width:0.5;" width="135" x="1138.5" y="478.3997"/><text fill="#000000" font-family="sans-serif" font-size="20" lengthAdjust="spacing" textLength="121" x="1145.5" y="506.7797">:ElevatorMap</text><rect fill="#E2E2F0" height="41.24" rx="2.5" ry="2.5" style="stroke:#181818;stroke-width:0.5;" width="265" x="1320.625" y="478.3997"/><text fill="#000000" font-family="sans-serif" font-size="20" lengthAdjust="spacing" textLength="251" x="1327.625" y="506.7797">:elevatorDTO:IElevatorDTO</text><rect fill="#E2E2F0" height="41.24" rx="2.5" ry="2.5" style="stroke:#181818;stroke-width:0.5;" width="47" x="1595.625" y="5"/><text fill="#000000" font-family="sans-serif" font-size="20" lengthAdjust="spacing" textLength="33" x="1602.625" y="33.38">SYS</text><rect fill="#E2E2F0" height="41.24" rx="2.5" ry="2.5" style="stroke:#181818;stroke-width:0.5;" width="47" x="1595.625" y="478.3997"/><text fill="#000000" font-family="sans-serif" font-size="20" lengthAdjust="spacing" textLength="33" x="1602.625" y="506.7797">SYS</text><rect fill="#FFFFFF" height="370.9198" style="stroke:#181818;stroke-width:1.0;" width="10" x="100.625" y="90.4799"/><rect fill="#FFFFFF" height="288.4398" style="stroke:#181818;stroke-width:1.0;" width="10" x="382.25" y="131.7199"/><rect fill="#FFFFFF" height="205.9599" style="stroke:#181818;stroke-width:1.0;" width="10" x="663.875" y="172.9599"/><rect fill="#FFFFFF" height="30" style="stroke:#181818;stroke-width:1.0;" width="10" x="1052.5" y="214.1999"/><rect fill="#FFFFFF" height="41.24" style="stroke:#181818;stroke-width:1.0;" width="10" x="1201" y="285.4398"/><ellipse cx="1323" cy="89.7299" fill="none" rx="4" ry="4" style="stroke:#181818;stroke-width:1.5;"/><polygon fill="#181818" points="1607.125,86.4799,1617.125,90.4799,1607.125,94.4799,1611.125,90.4799" style="stroke:#181818;stroke-width:1.0;"/><line style="stroke:#181818;stroke-width:1.0;" x1="1327.5" x2="1613.125" y1="90.4799" y2="90.4799"/><text fill="#000000" font-family="sans-serif" font-size="20" font-weight="bold" lengthAdjust="spacing" textLength="11.625" x="1330.5" y="82.62">1</text><text fill="#000000" font-family="sans-serif" font-size="20" lengthAdjust="spacing" textLength="248" x="1346.125" y="82.62">GET buildings/:id/elevators</text><polygon fill="#181818" points="370.25,127.7199,380.25,131.7199,370.25,135.7199,374.25,131.7199" style="stroke:#181818;stroke-width:1.0;"/><line style="stroke:#181818;stroke-width:1.0;" x1="110.625" x2="376.25" y1="131.7199" y2="131.7199"/><text fill="#000000" font-family="sans-serif" font-size="20" font-weight="bold" lengthAdjust="spacing" textLength="11.625" x="117.625" y="123.8599">2</text><text fill="#000000" font-family="sans-serif" font-size="20" lengthAdjust="spacing" textLength="237" x="133.25" y="123.8599">listElevator(buildingCode)</text><polygon fill="#181818" points="651.875,168.9599,661.875,172.9599,651.875,176.9599,655.875,172.9599" style="stroke:#181818;stroke-width:1.0;"/><line style="stroke:#181818;stroke-width:1.0;" x1="392.25" x2="657.875" y1="172.9599" y2="172.9599"/><text fill="#000000" font-family="sans-serif" font-size="20" font-weight="bold" lengthAdjust="spacing" textLength="11.625" x="399.25" y="165.0999">3</text><text fill="#000000" font-family="sans-serif" font-size="20" lengthAdjust="spacing" textLength="237" x="414.875" y="165.0999">listElevator(buildingCode)</text><polygon fill="#181818" points="1040.5,210.1999,1050.5,214.1999,1040.5,218.1999,1044.5,214.1999" style="stroke:#181818;stroke-width:1.0;"/><line style="stroke:#181818;stroke-width:1.0;" x1="673.875" x2="1046.5" y1="214.1999" y2="214.1999"/><text fill="#000000" font-family="sans-serif" font-size="20" font-weight="bold" lengthAdjust="spacing" textLength="11.625" x="680.875" y="206.3399">4</text><text fill="#000000" font-family="sans-serif" font-size="20" lengthAdjust="spacing" textLength="344" x="696.5" y="206.3399">building=findByDomainId(buildingId)</text><polygon fill="#181818" points="1189,281.4398,1199,285.4398,1189,289.4398,1193,285.4398" style="stroke:#181818;stroke-width:1.0;"/><line style="stroke:#181818;stroke-width:1.0;" x1="673.875" x2="1195" y1="285.4398" y2="285.4398"/><text fill="#000000" font-family="sans-serif" font-size="20" font-weight="bold" lengthAdjust="spacing" textLength="11.625" x="680.875" y="277.5799">5</text><text fill="#000000" font-family="sans-serif" font-size="20" lengthAdjust="spacing" textLength="220" x="696.5" y="277.5799">toDto(buidling.elevator)</text><polygon fill="#181818" points="1308.625,322.6798,1318.625,326.6798,1308.625,330.6798,1312.625,326.6798" style="stroke:#181818;stroke-width:1.0;"/><line style="stroke:#181818;stroke-width:1.0;" x1="1206" x2="1314.625" y1="326.6798" y2="326.6798"/><text fill="#000000" font-family="sans-serif" font-size="20" font-weight="bold" lengthAdjust="spacing" textLength="11.625" x="1213" y="318.8198">6</text><text fill="#000000" font-family="sans-serif" font-size="20" lengthAdjust="spacing" textLength="70" x="1228.625" y="318.8198">create()</text><rect fill="#E2E2F0" height="41.24" rx="2.5" ry="2.5" style="stroke:#181818;stroke-width:0.5;" width="265" x="1320.625" y="293.4398"/><text fill="#000000" font-family="sans-serif" font-size="20" lengthAdjust="spacing" textLength="251" x="1327.625" y="321.8198">:elevatorDTO:IElevatorDTO</text><polygon fill="#181818" points="403.25,374.9198,393.25,378.9198,403.25,382.9198,399.25,378.9198" style="stroke:#181818;stroke-width:1.0;"/><line style="stroke:#181818;stroke-width:1.0;stroke-dasharray:2.0,2.0;" x1="397.25" x2="667.875" y1="378.9198" y2="378.9198"/><text fill="#000000" font-family="sans-serif" font-size="20" font-weight="bold" lengthAdjust="spacing" textLength="11.625" x="409.25" y="371.0598">7</text><text fill="#000000" font-family="sans-serif" font-size="20" lengthAdjust="spacing" textLength="192" x="424.875" y="371.0598">sucess(elevatorDTO)</text><polygon fill="#181818" points="121.625,416.1598,111.625,420.1598,121.625,424.1598,117.625,420.1598" style="stroke:#181818;stroke-width:1.0;"/><line style="stroke:#181818;stroke-width:1.0;stroke-dasharray:2.0,2.0;" x1="115.625" x2="386.25" y1="420.1598" y2="420.1598"/><text fill="#000000" font-family="sans-serif" font-size="20" font-weight="bold" lengthAdjust="spacing" textLength="11.625" x="127.625" y="412.2998">8</text><text fill="#000000" font-family="sans-serif" font-size="20" lengthAdjust="spacing" textLength="192" x="143.25" y="412.2998">sucess(elevatorDTO)</text><polygon fill="#181818" points="11,457.3997,1,461.3997,11,465.3997,7,461.3997" style="stroke:#181818;stroke-width:1.0;"/><line style="stroke:#181818;stroke-width:1.0;stroke-dasharray:2.0,2.0;" x1="5" x2="104.625" y1="461.3997" y2="461.3997"/><text fill="#000000" font-family="sans-serif" font-size="20" font-weight="bold" lengthAdjust="spacing" textLength="11.625" x="17" y="453.5398">9</text><text fill="#000000" font-family="sans-serif" font-size="20" lengthAdjust="spacing" textLength="66" x="32.625" y="453.5398">200 OK</text><!--SRC=[ZP5TRy8W58Rl-HN4ApLn6Y_9FZArMyncNDfkoIwn71SYGWFKPFlrE_H3YpVR7T3dUUbvSGUfIsxvKPdY088AsFDA-IUZVIP_WCvdX5VUwEgu0qkGzBAG9TUUfjltFA7SqG5B59ouDpOrbOT1H2tpz3M6bXXjZL9WOp9BFs8m0tkInLNU8atUjWstgAGIKd-bK9eOsZo-nL4RNiR4Acz3e2NmWAsJosP0o8EPtDFiCwECFYSvtRNNkIcJOjfvZl32Irn2KmWXJI-ergCpggJpNV2m2raQ0QEB6b1Iy-5ABE9_6f8aq2WrlR3pNzxjfHQBxvKvSgdNufom5Zs_beY0guCsChJ8g3ShRu8k5EettToz5EH8O571uiPZb0eB-6KuwcS7h4w-LEEg0fmRzjuWCi9uJIceDBN-wTHDtaucPtu-cz7jInzftkaN]--></g></svg>