<?xml version="1.0" encoding="UTF-8" standalone="no"?><svg xmlns="http://www.w3.org/2000/svg" xmlns:xlink="http://www.w3.org/1999/xlink" contentStyleType="text/css" height="482px" preserveAspectRatio="none" style="width:1962px;height:482px;background:#FFFFFF;" version="1.1" viewBox="0 0 1962 482" width="1962px" zoomAndPan="magnify"><defs/><g><rect fill="#FFFFFF" height="339.25" style="stroke:#181818;stroke-width:1.0;" width="10" x="338" y="82.5625"/><rect fill="#FFFFFF" height="264.6875" style="stroke:#181818;stroke-width:1.0;" width="10" x="647" y="119.8438"/><rect fill="#FFFFFF" height="190.125" style="stroke:#181818;stroke-width:1.0;" width="10" x="956" y="157.125"/><rect fill="#FFFFFF" height="30" style="stroke:#181818;stroke-width:1.0;" width="10" x="1382" y="194.4063"/><rect fill="#FFFFFF" height="37.2813" style="stroke:#181818;stroke-width:1.0;" width="10" x="1542.5" y="261.6875"/><line style="stroke:#181818;stroke-width:0.5;stroke-dasharray:5.0,5.0;" x1="343" x2="343" y1="43.2813" y2="439.8125"/><line style="stroke:#181818;stroke-width:0.5;stroke-dasharray:5.0,5.0;" x1="652" x2="652" y1="43.2813" y2="439.8125"/><line style="stroke:#181818;stroke-width:0.5;stroke-dasharray:5.0,5.0;" x1="961" x2="961" y1="43.2813" y2="439.8125"/><line style="stroke:#181818;stroke-width:0.5;stroke-dasharray:5.0,5.0;" x1="1387" x2="1387" y1="43.2813" y2="439.8125"/><line style="stroke:#181818;stroke-width:0.5;stroke-dasharray:5.0,5.0;" x1="1547" x2="1547" y1="43.2813" y2="439.8125"/><line style="stroke:#181818;stroke-width:0.5;stroke-dasharray:5.0,5.0;" x1="1814.5" x2="1814.5" y1="303.8281" y2="439.8125"/><rect fill="#E2E2F0" height="37.2813" rx="2.5" ry="2.5" style="stroke:#181818;stroke-width:0.5;" width="162" x="262" y="5"/><text fill="#000000" font-family="sans-serif" font-size="20" lengthAdjust="spacing" textLength="148" x="269" y="30.5645">:ElevatorRoute</text><rect fill="#E2E2F0" height="37.2813" rx="2.5" ry="2.5" style="stroke:#181818;stroke-width:0.5;" width="162" x="262" y="438.8125"/><text fill="#000000" font-family="sans-serif" font-size="20" lengthAdjust="spacing" textLength="148" x="269" y="464.377">:ElevatorRoute</text><rect fill="#E2E2F0" height="37.2813" rx="2.5" ry="2.5" style="stroke:#181818;stroke-width:0.5;" width="202" x="551" y="5"/><text fill="#000000" font-family="sans-serif" font-size="20" lengthAdjust="spacing" textLength="188" x="558" y="30.5645">:ElevatorController</text><rect fill="#E2E2F0" height="37.2813" rx="2.5" ry="2.5" style="stroke:#181818;stroke-width:0.5;" width="202" x="551" y="438.8125"/><text fill="#000000" font-family="sans-serif" font-size="20" lengthAdjust="spacing" textLength="188" x="558" y="464.377">:ElevatorController</text><rect fill="#E2E2F0" height="37.2813" rx="2.5" ry="2.5" style="stroke:#181818;stroke-width:0.5;" width="176" x="873" y="5"/><text fill="#000000" font-family="sans-serif" font-size="20" lengthAdjust="spacing" textLength="162" x="880" y="30.5645">:ElevatorService</text><rect fill="#E2E2F0" height="37.2813" rx="2.5" ry="2.5" style="stroke:#181818;stroke-width:0.5;" width="176" x="873" y="438.8125"/><text fill="#000000" font-family="sans-serif" font-size="20" lengthAdjust="spacing" textLength="162" x="880" y="464.377">:ElevatorService</text><rect fill="#E2E2F0" height="37.2813" rx="2.5" ry="2.5" style="stroke:#181818;stroke-width:0.5;" width="156" x="1309" y="5"/><text fill="#000000" font-family="sans-serif" font-size="20" lengthAdjust="spacing" textLength="142" x="1316" y="30.5645">:BuildingRepo</text><rect fill="#E2E2F0" height="37.2813" rx="2.5" ry="2.5" style="stroke:#181818;stroke-width:0.5;" width="156" x="1309" y="438.8125"/><text fill="#000000" font-family="sans-serif" font-size="20" lengthAdjust="spacing" textLength="142" x="1316" y="464.377">:BuildingRepo</text><rect fill="#E2E2F0" height="37.2813" rx="2.5" ry="2.5" style="stroke:#181818;stroke-width:0.5;" width="145" x="1475" y="5"/><text fill="#000000" font-family="sans-serif" font-size="20" lengthAdjust="spacing" textLength="131" x="1482" y="30.5645">:ElevatorMap</text><rect fill="#E2E2F0" height="37.2813" rx="2.5" ry="2.5" style="stroke:#181818;stroke-width:0.5;" width="145" x="1475" y="438.8125"/><text fill="#000000" font-family="sans-serif" font-size="20" lengthAdjust="spacing" textLength="131" x="1482" y="464.377">:ElevatorMap</text><rect fill="#E2E2F0" height="37.2813" rx="2.5" ry="2.5" style="stroke:#181818;stroke-width:0.5;" width="283" x="1673.5" y="438.8125"/><text fill="#000000" font-family="sans-serif" font-size="20" lengthAdjust="spacing" textLength="269" x="1680.5" y="464.377">:elevatorDTO:IElevatorDTO</text><rect fill="#FFFFFF" height="339.25" style="stroke:#181818;stroke-width:1.0;" width="10" x="338" y="82.5625"/><rect fill="#FFFFFF" height="264.6875" style="stroke:#181818;stroke-width:1.0;" width="10" x="647" y="119.8438"/><rect fill="#FFFFFF" height="190.125" style="stroke:#181818;stroke-width:1.0;" width="10" x="956" y="157.125"/><rect fill="#FFFFFF" height="30" style="stroke:#181818;stroke-width:1.0;" width="10" x="1382" y="194.4063"/><rect fill="#FFFFFF" height="37.2813" style="stroke:#181818;stroke-width:1.0;" width="10" x="1542.5" y="261.6875"/><ellipse cx="4.5" cy="81.8125" fill="none" rx="4" ry="4" style="stroke:#181818;stroke-width:1.5;"/><polygon fill="#181818" points="326,78.5625,336,82.5625,326,86.5625,330,82.5625" style="stroke:#181818;stroke-width:1.0;"/><line style="stroke:#181818;stroke-width:1.0;" x1="9" x2="332" y1="82.5625" y2="82.5625"/><text fill="#000000" font-family="sans-serif" font-size="20" font-weight="bold" lengthAdjust="spacing" textLength="14" x="12" y="75.8457">1</text><text fill="#000000" font-family="sans-serif" font-size="20" lengthAdjust="spacing" textLength="293" x="30" y="75.8457">GET /elevators/:buildingCode</text><polygon fill="#181818" points="635,115.8438,645,119.8438,635,123.8438,639,119.8438" style="stroke:#181818;stroke-width:1.0;"/><line style="stroke:#181818;stroke-width:1.0;" x1="348" x2="641" y1="119.8438" y2="119.8438"/><text fill="#000000" font-family="sans-serif" font-size="20" font-weight="bold" lengthAdjust="spacing" textLength="14" x="355" y="113.127">2</text><text fill="#000000" font-family="sans-serif" font-size="20" lengthAdjust="spacing" textLength="262" x="373" y="113.127">listElevator(buildingCode)</text><polygon fill="#181818" points="944,153.125,954,157.125,944,161.125,948,157.125" style="stroke:#181818;stroke-width:1.0;"/><line style="stroke:#181818;stroke-width:1.0;" x1="657" x2="950" y1="157.125" y2="157.125"/><text fill="#000000" font-family="sans-serif" font-size="20" font-weight="bold" lengthAdjust="spacing" textLength="14" x="664" y="150.4082">3</text><text fill="#000000" font-family="sans-serif" font-size="20" lengthAdjust="spacing" textLength="262" x="682" y="150.4082">listElevator(buildingCode)</text><polygon fill="#181818" points="1370,190.4063,1380,194.4063,1370,198.4063,1374,194.4063" style="stroke:#181818;stroke-width:1.0;"/><line style="stroke:#181818;stroke-width:1.0;" x1="966" x2="1376" y1="194.4063" y2="194.4063"/><text fill="#000000" font-family="sans-serif" font-size="20" font-weight="bold" lengthAdjust="spacing" textLength="14" x="973" y="187.6895">4</text><text fill="#000000" font-family="sans-serif" font-size="20" lengthAdjust="spacing" textLength="379" x="991" y="187.6895">building=findByDomainId(buildingId)</text><polygon fill="#181818" points="1530.5,257.6875,1540.5,261.6875,1530.5,265.6875,1534.5,261.6875" style="stroke:#181818;stroke-width:1.0;"/><line style="stroke:#181818;stroke-width:1.0;" x1="966" x2="1536.5" y1="261.6875" y2="261.6875"/><text fill="#000000" font-family="sans-serif" font-size="20" font-weight="bold" lengthAdjust="spacing" textLength="14" x="973" y="254.9707">5</text><text fill="#000000" font-family="sans-serif" font-size="20" lengthAdjust="spacing" textLength="241" x="991" y="254.9707">toDto(buidling.elevator)</text><polygon fill="#181818" points="1661.5,294.9688,1671.5,298.9688,1661.5,302.9688,1665.5,298.9688" style="stroke:#181818;stroke-width:1.0;"/><line style="stroke:#181818;stroke-width:1.0;" x1="1547.5" x2="1667.5" y1="298.9688" y2="298.9688"/><text fill="#000000" font-family="sans-serif" font-size="20" font-weight="bold" lengthAdjust="spacing" textLength="14" x="1554.5" y="292.252">6</text><text fill="#000000" font-family="sans-serif" font-size="20" lengthAdjust="spacing" textLength="79" x="1572.5" y="292.252">create()</text><rect fill="#E2E2F0" height="37.2813" rx="2.5" ry="2.5" style="stroke:#181818;stroke-width:0.5;" width="283" x="1673.5" y="269.6875"/><text fill="#000000" font-family="sans-serif" font-size="20" lengthAdjust="spacing" textLength="269" x="1680.5" y="295.252">:elevatorDTO:IElevatorDTO</text><polygon fill="#181818" points="668,343.25,658,347.25,668,351.25,664,347.25" style="stroke:#181818;stroke-width:1.0;"/><line style="stroke:#181818;stroke-width:1.0;stroke-dasharray:2.0,2.0;" x1="662" x2="960" y1="347.25" y2="347.25"/><text fill="#000000" font-family="sans-serif" font-size="20" font-weight="bold" lengthAdjust="spacing" textLength="14" x="674" y="340.5332">7</text><text fill="#000000" font-family="sans-serif" font-size="20" lengthAdjust="spacing" textLength="206" x="692" y="340.5332">sucess(elevatorDTO)</text><polygon fill="#181818" points="359,380.5313,349,384.5313,359,388.5313,355,384.5313" style="stroke:#181818;stroke-width:1.0;"/><line style="stroke:#181818;stroke-width:1.0;stroke-dasharray:2.0,2.0;" x1="353" x2="651" y1="384.5313" y2="384.5313"/><text fill="#000000" font-family="sans-serif" font-size="20" font-weight="bold" lengthAdjust="spacing" textLength="14" x="365" y="377.8145">8</text><text fill="#000000" font-family="sans-serif" font-size="20" lengthAdjust="spacing" textLength="206" x="383" y="377.8145">sucess(elevatorDTO)</text><polygon fill="#181818" points="11,417.8125,1,421.8125,11,425.8125,7,421.8125" style="stroke:#181818;stroke-width:1.0;"/><line style="stroke:#181818;stroke-width:1.0;stroke-dasharray:2.0,2.0;" x1="5" x2="342" y1="421.8125" y2="421.8125"/><text fill="#000000" font-family="sans-serif" font-size="20" font-weight="bold" lengthAdjust="spacing" textLength="14" x="17" y="415.0957">9</text><text fill="#000000" font-family="sans-serif" font-size="20" lengthAdjust="spacing" textLength="74" x="35" y="415.0957">200 OK</text><!--SRC=[ZP5DRm8X54Nt_0hYIasinYNfHwfE6zCQpJZj7eTdGqIO38n9- -lxc0y7tBHBu9nBtdts97N1ItvM9Z-1e0AEl5BknMYtbpz0vpF2AsTqTJv0IP1qCfS5ruwcsuyieTpI0KiKNBWpPMeg1uE8McRfUmmjCReqIa4Pa_lqCmRtK5vaVfEtI9FTjk4MbLH2wgyK2XD3c-TT7BNXHKoiiZO4MW8ls3hf3mD2dipaiPsIqTSaezCEjbDsQ3zV6W64vqxY0pGq8Os4TZqzeqfQrsKFGtFKgnubDO-Ux-9_6fB4qoWrrJ3QaGz7gSNYUsNENEgrk2QiHU3N4X5mSz56-Y8PTMRbZDU5GlskQo58GOvu5XNiRZn6AIy1NuQZCDjZTN9VZQroi7OOh24o_7XDAS4k_d3g9kydaoi_dytezYr4cZtz0W00]--></g></svg>