<?xml version="1.0" encoding="UTF-8" standalone="no"?><svg xmlns="http://www.w3.org/2000/svg" xmlns:xlink="http://www.w3.org/1999/xlink" contentStyleType="text/css" height="525px" preserveAspectRatio="none" style="width:1802px;height:525px;background:#FFFFFF;" version="1.1" viewBox="0 0 1802 525" width="1802px" zoomAndPan="magnify"><defs/><g><rect fill="#FFFFFF" height="370.9198" style="stroke:#181818;stroke-width:1.0;" width="10" x="311.625" y="90.4799"/><rect fill="#FFFFFF" height="288.4398" style="stroke:#181818;stroke-width:1.0;" width="10" x="593.25" y="131.7199"/><rect fill="#FFFFFF" height="205.9599" style="stroke:#181818;stroke-width:1.0;" width="10" x="874.875" y="172.9599"/><rect fill="#FFFFFF" height="30" style="stroke:#181818;stroke-width:1.0;" width="10" x="1263.5" y="214.1999"/><rect fill="#FFFFFF" height="41.24" style="stroke:#181818;stroke-width:1.0;" width="10" x="1412" y="285.4398"/><line style="stroke:#181818;stroke-width:0.5;stroke-dasharray:5.0,5.0;" x1="316.625" x2="316.625" y1="47.24" y2="479.3997"/><line style="stroke:#181818;stroke-width:0.5;stroke-dasharray:5.0,5.0;" x1="597.75" x2="597.75" y1="47.24" y2="479.3997"/><line style="stroke:#181818;stroke-width:0.5;stroke-dasharray:5.0,5.0;" x1="879.875" x2="879.875" y1="47.24" y2="479.3997"/><line style="stroke:#181818;stroke-width:0.5;stroke-dasharray:5.0,5.0;" x1="1268.5" x2="1268.5" y1="47.24" y2="479.3997"/><line style="stroke:#181818;stroke-width:0.5;stroke-dasharray:5.0,5.0;" x1="1416.5" x2="1416.5" y1="47.24" y2="479.3997"/><line style="stroke:#181818;stroke-width:0.5;stroke-dasharray:5.0,5.0;" x1="1663.625" x2="1663.625" y1="329.5598" y2="479.3997"/><rect fill="#E2E2F0" height="41.24" rx="2.5" ry="2.5" style="stroke:#181818;stroke-width:0.5;" width="148" x="242.625" y="5"/><text fill="#000000" font-family="sans-serif" font-size="20" lengthAdjust="spacing" textLength="134" x="249.625" y="33.38">:ElevatorRoute</text><rect fill="#E2E2F0" height="41.24" rx="2.5" ry="2.5" style="stroke:#181818;stroke-width:0.5;" width="148" x="242.625" y="478.3997"/><text fill="#000000" font-family="sans-serif" font-size="20" lengthAdjust="spacing" textLength="134" x="249.625" y="506.7797">:ElevatorRoute</text><rect fill="#E2E2F0" height="41.24" rx="2.5" ry="2.5" style="stroke:#181818;stroke-width:0.5;" width="187" x="504.75" y="5"/><text fill="#000000" font-family="sans-serif" font-size="20" lengthAdjust="spacing" textLength="173" x="511.75" y="33.38">:ElevatorController</text><rect fill="#E2E2F0" height="41.24" rx="2.5" ry="2.5" style="stroke:#181818;stroke-width:0.5;" width="187" x="504.75" y="478.3997"/><text fill="#000000" font-family="sans-serif" font-size="20" lengthAdjust="spacing" textLength="173" x="511.75" y="506.7797">:ElevatorController</text><rect fill="#E2E2F0" height="41.24" rx="2.5" ry="2.5" style="stroke:#181818;stroke-width:0.5;" width="160" x="799.875" y="5"/><text fill="#000000" font-family="sans-serif" font-size="20" lengthAdjust="spacing" textLength="146" x="806.875" y="33.38">:ElevatorService</text><rect fill="#E2E2F0" height="41.24" rx="2.5" ry="2.5" style="stroke:#181818;stroke-width:0.5;" width="160" x="799.875" y="478.3997"/><text fill="#000000" font-family="sans-serif" font-size="20" lengthAdjust="spacing" textLength="146" x="806.875" y="506.7797">:ElevatorService</text><rect fill="#E2E2F0" height="41.24" rx="2.5" ry="2.5" style="stroke:#181818;stroke-width:0.5;" width="142" x="1197.5" y="5"/><text fill="#000000" font-family="sans-serif" font-size="20" lengthAdjust="spacing" textLength="128" x="1204.5" y="33.38">:BuildingRepo</text><rect fill="#E2E2F0" height="41.24" rx="2.5" ry="2.5" style="stroke:#181818;stroke-width:0.5;" width="142" x="1197.5" y="478.3997"/><text fill="#000000" font-family="sans-serif" font-size="20" lengthAdjust="spacing" textLength="128" x="1204.5" y="506.7797">:BuildingRepo</text><rect fill="#E2E2F0" height="41.24" rx="2.5" ry="2.5" style="stroke:#181818;stroke-width:0.5;" width="135" x="1349.5" y="5"/><text fill="#000000" font-family="sans-serif" font-size="20" lengthAdjust="spacing" textLength="121" x="1356.5" y="33.38">:ElevatorMap</text><rect fill="#E2E2F0" height="41.24" rx="2.5" ry="2.5" style="stroke:#181818;stroke-width:0.5;" width="135" x="1349.5" y="478.3997"/><text fill="#000000" font-family="sans-serif" font-size="20" lengthAdjust="spacing" textLength="121" x="1356.5" y="506.7797">:ElevatorMap</text><rect fill="#E2E2F0" height="41.24" rx="2.5" ry="2.5" style="stroke:#181818;stroke-width:0.5;" width="265" x="1531.625" y="478.3997"/><text fill="#000000" font-family="sans-serif" font-size="20" lengthAdjust="spacing" textLength="251" x="1538.625" y="506.7797">:elevatorDTO:IElevatorDTO</text><rect fill="#FFFFFF" height="370.9198" style="stroke:#181818;stroke-width:1.0;" width="10" x="311.625" y="90.4799"/><rect fill="#FFFFFF" height="288.4398" style="stroke:#181818;stroke-width:1.0;" width="10" x="593.25" y="131.7199"/><rect fill="#FFFFFF" height="205.9599" style="stroke:#181818;stroke-width:1.0;" width="10" x="874.875" y="172.9599"/><rect fill="#FFFFFF" height="30" style="stroke:#181818;stroke-width:1.0;" width="10" x="1263.5" y="214.1999"/><rect fill="#FFFFFF" height="41.24" style="stroke:#181818;stroke-width:1.0;" width="10" x="1412" y="285.4398"/><ellipse cx="4.5" cy="89.7299" fill="none" rx="4" ry="4" style="stroke:#181818;stroke-width:1.5;"/><polygon fill="#181818" points="299.625,86.4799,309.625,90.4799,299.625,94.4799,303.625,90.4799" style="stroke:#181818;stroke-width:1.0;"/><line style="stroke:#181818;stroke-width:1.0;" x1="9" x2="305.625" y1="90.4799" y2="90.4799"/><text fill="#000000" font-family="sans-serif" font-size="20" font-weight="bold" lengthAdjust="spacing" textLength="11.625" x="12" y="82.62">1</text><text fill="#000000" font-family="sans-serif" font-size="20" lengthAdjust="spacing" textLength="269" x="27.625" y="82.62">GET /elevators/:buildingCode</text><polygon fill="#181818" points="581.25,127.7199,591.25,131.7199,581.25,135.7199,585.25,131.7199" style="stroke:#181818;stroke-width:1.0;"/><line style="stroke:#181818;stroke-width:1.0;" x1="321.625" x2="587.25" y1="131.7199" y2="131.7199"/><text fill="#000000" font-family="sans-serif" font-size="20" font-weight="bold" lengthAdjust="spacing" textLength="11.625" x="328.625" y="123.8599">2</text><text fill="#000000" font-family="sans-serif" font-size="20" lengthAdjust="spacing" textLength="237" x="344.25" y="123.8599">listElevator(buildingCode)</text><polygon fill="#181818" points="862.875,168.9599,872.875,172.9599,862.875,176.9599,866.875,172.9599" style="stroke:#181818;stroke-width:1.0;"/><line style="stroke:#181818;stroke-width:1.0;" x1="603.25" x2="868.875" y1="172.9599" y2="172.9599"/><text fill="#000000" font-family="sans-serif" font-size="20" font-weight="bold" lengthAdjust="spacing" textLength="11.625" x="610.25" y="165.0999">3</text><text fill="#000000" font-family="sans-serif" font-size="20" lengthAdjust="spacing" textLength="237" x="625.875" y="165.0999">listElevator(buildingCode)</text><polygon fill="#181818" points="1251.5,210.1999,1261.5,214.1999,1251.5,218.1999,1255.5,214.1999" style="stroke:#181818;stroke-width:1.0;"/><line style="stroke:#181818;stroke-width:1.0;" x1="884.875" x2="1257.5" y1="214.1999" y2="214.1999"/><text fill="#000000" font-family="sans-serif" font-size="20" font-weight="bold" lengthAdjust="spacing" textLength="11.625" x="891.875" y="206.3399">4</text><text fill="#000000" font-family="sans-serif" font-size="20" lengthAdjust="spacing" textLength="344" x="907.5" y="206.3399">building=findByDomainId(buildingId)</text><polygon fill="#181818" points="1400,281.4398,1410,285.4398,1400,289.4398,1404,285.4398" style="stroke:#181818;stroke-width:1.0;"/><line style="stroke:#181818;stroke-width:1.0;" x1="884.875" x2="1406" y1="285.4398" y2="285.4398"/><text fill="#000000" font-family="sans-serif" font-size="20" font-weight="bold" lengthAdjust="spacing" textLength="11.625" x="891.875" y="277.5799">5</text><text fill="#000000" font-family="sans-serif" font-size="20" lengthAdjust="spacing" textLength="220" x="907.5" y="277.5799">toDto(buidling.elevator)</text><polygon fill="#181818" points="1519.625,322.6798,1529.625,326.6798,1519.625,330.6798,1523.625,326.6798" style="stroke:#181818;stroke-width:1.0;"/><line style="stroke:#181818;stroke-width:1.0;" x1="1417" x2="1525.625" y1="326.6798" y2="326.6798"/><text fill="#000000" font-family="sans-serif" font-size="20" font-weight="bold" lengthAdjust="spacing" textLength="11.625" x="1424" y="318.8198">6</text><text fill="#000000" font-family="sans-serif" font-size="20" lengthAdjust="spacing" textLength="70" x="1439.625" y="318.8198">create()</text><rect fill="#E2E2F0" height="41.24" rx="2.5" ry="2.5" style="stroke:#181818;stroke-width:0.5;" width="265" x="1531.625" y="293.4398"/><text fill="#000000" font-family="sans-serif" font-size="20" lengthAdjust="spacing" textLength="251" x="1538.625" y="321.8198">:elevatorDTO:IElevatorDTO</text><polygon fill="#181818" points="614.25,374.9198,604.25,378.9198,614.25,382.9198,610.25,378.9198" style="stroke:#181818;stroke-width:1.0;"/><line style="stroke:#181818;stroke-width:1.0;stroke-dasharray:2.0,2.0;" x1="608.25" x2="878.875" y1="378.9198" y2="378.9198"/><text fill="#000000" font-family="sans-serif" font-size="20" font-weight="bold" lengthAdjust="spacing" textLength="11.625" x="620.25" y="371.0598">7</text><text fill="#000000" font-family="sans-serif" font-size="20" lengthAdjust="spacing" textLength="192" x="635.875" y="371.0598">sucess(elevatorDTO)</text><polygon fill="#181818" points="332.625,416.1598,322.625,420.1598,332.625,424.1598,328.625,420.1598" style="stroke:#181818;stroke-width:1.0;"/><line style="stroke:#181818;stroke-width:1.0;stroke-dasharray:2.0,2.0;" x1="326.625" x2="597.25" y1="420.1598" y2="420.1598"/><text fill="#000000" font-family="sans-serif" font-size="20" font-weight="bold" lengthAdjust="spacing" textLength="11.625" x="338.625" y="412.2998">8</text><text fill="#000000" font-family="sans-serif" font-size="20" lengthAdjust="spacing" textLength="192" x="354.25" y="412.2998">sucess(elevatorDTO)</text><polygon fill="#181818" points="11,457.3997,1,461.3997,11,465.3997,7,461.3997" style="stroke:#181818;stroke-width:1.0;"/><line style="stroke:#181818;stroke-width:1.0;stroke-dasharray:2.0,2.0;" x1="5" x2="315.625" y1="461.3997" y2="461.3997"/><text fill="#000000" font-family="sans-serif" font-size="20" font-weight="bold" lengthAdjust="spacing" textLength="11.625" x="17" y="453.5398">9</text><text fill="#000000" font-family="sans-serif" font-size="20" lengthAdjust="spacing" textLength="66" x="32.625" y="453.5398">200 OK</text><!--SRC=[ZP5DRm8X54Nt_0hYIasinYNfHwfE6zCQpJZj7eTdGqIO38n9- -lxc0y7tBHBu9nBtdts97N1ItvM9Z-1e0AEl5BknMYtbpz0vpF2AsTqTJv0IP1qCfS5ruwcsuyieTpI0KiKNBWpPMeg1uE8McRfUmmjCReqIa4Pa_lqCmRtK5vaVfEtI9FTjk4MbLH2wgyK2XD3c-TT7BNXHKoiiZO4MW8ls3hf3mD2dipaiPsIqTSaezCEjbDsQ3zV6W64vqxY0pGq8Os4TZqzeqfQrsKFGtFKgnubDO-Ux-9_6fB4qoWrrJ3QaGz7gSNYUsNENEgrk2QiHU3N4X5mSz56-Y8PTMRbZDU5GlskQo58GOvu5XNiRZn6AIy1NuQZCDjZTN9VZQroi7OOh24o_7XDAS4k_d3g9kydaoi_dytezYr4cZtz0W00]--></g></svg>