<?xml version="1.0" encoding="UTF-8" standalone="no"?><svg xmlns="http://www.w3.org/2000/svg" xmlns:xlink="http://www.w3.org/1999/xlink" contentStyleType="text/css" height="1116px" preserveAspectRatio="none" style="width:2676px;height:1116px;background:#FFFFFF;" version="1.1" viewBox="0 0 2676 1116" width="2676px" zoomAndPan="magnify"><defs/><g><rect fill="#FFFFFF" height="904.5595" style="stroke:#181818;stroke-width:1.0;" width="10" x="68.5" y="102.24"/><rect fill="#FFFFFF" height="123.7199" style="stroke:#181818;stroke-width:1.0;" width="10" x="669.125" y="135.4799"/><rect fill="#FFFFFF" height="706.3596" style="stroke:#181818;stroke-width:1.0;" width="10" x="669.125" y="300.4398"/><rect fill="#FFFFFF" height="41.24" style="stroke:#181818;stroke-width:1.0;" width="10" x="1083.75" y="176.7199"/><rect fill="#FFFFFF" height="623.8797" style="stroke:#181818;stroke-width:1.0;" width="10" x="1083.75" y="341.6798"/><rect fill="#FFFFFF" height="123.7199" style="stroke:#181818;stroke-width:1.0;" width="10" x="1088.75" y="465.3997"/><rect fill="#FFFFFF" height="28" style="stroke:#181818;stroke-width:1.0;" width="10" x="1088.75" y="889.3195"/><rect fill="#FFFFFF" height="534.3997" style="stroke:#181818;stroke-width:1.0;" width="10" x="1753" y="382.9198"/><rect fill="#FFFFFF" height="41.24" style="stroke:#181818;stroke-width:1.0;" width="10" x="1758" y="506.6397"/><rect fill="#FFFFFF" height="28" style="stroke:#181818;stroke-width:1.0;" width="10" x="1758" y="763.8396"/><rect fill="#FFFFFF" height="290.4398" style="stroke:#181818;stroke-width:1.0;" width="10" x="2216.25" y="424.1598"/><rect fill="#FFFFFF" height="28" style="stroke:#181818;stroke-width:1.0;" width="10" x="2221.25" y="638.3596"/><line style="stroke:#181818;stroke-width:0.5;stroke-dasharray:5.0,5.0;" x1="73" x2="73" y1="92.24" y2="1024.7995"/><line style="stroke:#181818;stroke-width:0.5;stroke-dasharray:5.0,5.0;" x1="674.125" x2="674.125" y1="92.24" y2="1024.7995"/><line style="stroke:#181818;stroke-width:0.5;stroke-dasharray:5.0,5.0;" x1="1088.25" x2="1088.25" y1="92.24" y2="1024.7995"/><line style="stroke:#181818;stroke-width:0.5;stroke-dasharray:5.0,5.0;" x1="1758" x2="1758" y1="92.24" y2="1024.7995"/><line style="stroke:#181818;stroke-width:0.5;stroke-dasharray:5.0,5.0;" x1="2221.25" x2="2221.25" y1="92.24" y2="1024.7995"/><text fill="#000000" font-family="sans-serif" font-size="20" lengthAdjust="spacing" textLength="131" x="5" y="86.38">Task Manager</text><ellipse cx="73.5" cy="13.5" fill="#E2E2F0" rx="8" ry="8" style="stroke:#181818;stroke-width:0.5;"/><path d="M73.5,21.5 L73.5,48.5 M60.5,29.5 L86.5,29.5 M73.5,48.5 L60.5,63.5 M73.5,48.5 L86.5,63.5 " fill="none" style="stroke:#181818;stroke-width:0.5;"/><text fill="#000000" font-family="sans-serif" font-size="20" lengthAdjust="spacing" textLength="131" x="5" y="1045.1795">Task Manager</text><ellipse cx="73.5" cy="1059.5395" fill="#E2E2F0" rx="8" ry="8" style="stroke:#181818;stroke-width:0.5;"/><path d="M73.5,1067.5395 L73.5,1094.5395 M60.5,1075.5395 L86.5,1075.5395 M73.5,1094.5395 L60.5,1109.5395 M73.5,1094.5395 L86.5,1109.5395 " fill="none" style="stroke:#181818;stroke-width:0.5;"/><rect fill="#E2E2F0" height="68.4799" rx="2.5" ry="2.5" style="stroke:#181818;stroke-width:0.5;" width="136" x="606.125" y="22.76"/><text fill="#000000" font-family="sans-serif" font-size="20" font-style="italic" lengthAdjust="spacing" textLength="122" x="613.125" y="51.14">«system (C4)»</text><text fill="#000000" font-family="sans-serif" font-size="20" lengthAdjust="spacing" textLength="116" x="616.125" y="78.38">Visualization</text><rect fill="#E2E2F0" height="68.4799" rx="2.5" ry="2.5" style="stroke:#181818;stroke-width:0.5;" width="136" x="606.125" y="1023.7995"/><text fill="#000000" font-family="sans-serif" font-size="20" font-style="italic" lengthAdjust="spacing" textLength="122" x="613.125" y="1052.1795">«system (C4)»</text><text fill="#000000" font-family="sans-serif" font-size="20" lengthAdjust="spacing" textLength="116" x="616.125" y="1079.4195">Visualization</text><rect fill="#E2E2F0" height="68.4799" rx="2.5" ry="2.5" style="stroke:#181818;stroke-width:0.5;" width="257" x="960.25" y="22.76"/><text fill="#000000" font-family="sans-serif" font-size="20" font-style="italic" lengthAdjust="spacing" textLength="122" x="1027.75" y="51.14">«system (C4)»</text><text fill="#000000" font-family="sans-serif" font-size="20" lengthAdjust="spacing" textLength="243" x="967.25" y="78.38">Management Master Data</text><rect fill="#E2E2F0" height="68.4799" rx="2.5" ry="2.5" style="stroke:#181818;stroke-width:0.5;" width="257" x="960.25" y="1023.7995"/><text fill="#000000" font-family="sans-serif" font-size="20" font-style="italic" lengthAdjust="spacing" textLength="122" x="1027.75" y="1052.1795">«system (C4)»</text><text fill="#000000" font-family="sans-serif" font-size="20" lengthAdjust="spacing" textLength="243" x="967.25" y="1079.4195">Management Master Data</text><rect fill="#E2E2F0" height="68.4799" rx="2.5" ry="2.5" style="stroke:#181818;stroke-width:0.5;" width="186" x="1665" y="22.76"/><text fill="#000000" font-family="sans-serif" font-size="20" font-style="italic" lengthAdjust="spacing" textLength="122" x="1697" y="51.14">«system (C4)»</text><text fill="#000000" font-family="sans-serif" font-size="20" lengthAdjust="spacing" textLength="172" x="1672" y="78.38">Tasks Master Data</text><rect fill="#E2E2F0" height="68.4799" rx="2.5" ry="2.5" style="stroke:#181818;stroke-width:0.5;" width="186" x="1665" y="1023.7995"/><text fill="#000000" font-family="sans-serif" font-size="20" font-style="italic" lengthAdjust="spacing" textLength="122" x="1697" y="1052.1795">«system (C4)»</text><text fill="#000000" font-family="sans-serif" font-size="20" lengthAdjust="spacing" textLength="172" x="1672" y="1079.4195">Tasks Master Data</text><rect fill="#E2E2F0" height="68.4799" rx="2.5" ry="2.5" style="stroke:#181818;stroke-width:0.5;" width="136" x="2153.25" y="22.76"/><text fill="#000000" font-family="sans-serif" font-size="20" font-style="italic" lengthAdjust="spacing" textLength="122" x="2160.25" y="51.14">«system (C4)»</text><text fill="#000000" font-family="sans-serif" font-size="20" lengthAdjust="spacing" textLength="81" x="2180.75" y="78.38">Planning</text><rect fill="#E2E2F0" height="68.4799" rx="2.5" ry="2.5" style="stroke:#181818;stroke-width:0.5;" width="136" x="2153.25" y="1023.7995"/><text fill="#000000" font-family="sans-serif" font-size="20" font-style="italic" lengthAdjust="spacing" textLength="122" x="2160.25" y="1052.1795">«system (C4)»</text><text fill="#000000" font-family="sans-serif" font-size="20" lengthAdjust="spacing" textLength="81" x="2180.75" y="1079.4195">Planning</text><rect fill="#FFFFFF" height="904.5595" style="stroke:#181818;stroke-width:1.0;" width="10" x="68.5" y="102.24"/><rect fill="#FFFFFF" height="123.7199" style="stroke:#181818;stroke-width:1.0;" width="10" x="669.125" y="135.4799"/><rect fill="#FFFFFF" height="706.3596" style="stroke:#181818;stroke-width:1.0;" width="10" x="669.125" y="300.4398"/><rect fill="#FFFFFF" height="41.24" style="stroke:#181818;stroke-width:1.0;" width="10" x="1083.75" y="176.7199"/><rect fill="#FFFFFF" height="623.8797" style="stroke:#181818;stroke-width:1.0;" width="10" x="1083.75" y="341.6798"/><rect fill="#FFFFFF" height="123.7199" style="stroke:#181818;stroke-width:1.0;" width="10" x="1088.75" y="465.3997"/><rect fill="#FFFFFF" height="28" style="stroke:#181818;stroke-width:1.0;" width="10" x="1088.75" y="889.3195"/><rect fill="#FFFFFF" height="534.3997" style="stroke:#181818;stroke-width:1.0;" width="10" x="1753" y="382.9198"/><rect fill="#FFFFFF" height="41.24" style="stroke:#181818;stroke-width:1.0;" width="10" x="1758" y="506.6397"/><rect fill="#FFFFFF" height="28" style="stroke:#181818;stroke-width:1.0;" width="10" x="1758" y="763.8396"/><rect fill="#FFFFFF" height="290.4398" style="stroke:#181818;stroke-width:1.0;" width="10" x="2216.25" y="424.1598"/><rect fill="#FFFFFF" height="28" style="stroke:#181818;stroke-width:1.0;" width="10" x="2221.25" y="638.3596"/><polygon fill="#181818" points="657.125,131.4799,667.125,135.4799,657.125,139.4799,661.125,135.4799" style="stroke:#181818;stroke-width:1.0;"/><line style="stroke:#181818;stroke-width:1.0;" x1="78.5" x2="663.125" y1="135.4799" y2="135.4799"/><text fill="#000000" font-family="sans-serif" font-size="20" font-weight="bold" lengthAdjust="spacing" textLength="11.625" x="85.5" y="127.62">1</text><text fill="#000000" font-family="sans-serif" font-size="20" lengthAdjust="spacing" textLength="556" x="101.125" y="127.62">asks to get the sequence of execution of the approved tasks</text><polygon fill="#181818" points="1071.75,172.7199,1081.75,176.7199,1071.75,180.7199,1075.75,176.7199" style="stroke:#181818;stroke-width:1.0;"/><line style="stroke:#181818;stroke-width:1.0;" x1="679.125" x2="1077.75" y1="176.7199" y2="176.7199"/><text fill="#000000" font-family="sans-serif" font-size="20" font-weight="bold" lengthAdjust="spacing" textLength="11.625" x="686.125" y="168.8599">2</text><text fill="#000000" font-family="sans-serif" font-size="20" lengthAdjust="spacing" textLength="118" x="701.75" y="168.8599">GET /devices</text><polygon fill="#181818" points="690.125,213.9599,680.125,217.9599,690.125,221.9599,686.125,217.9599" style="stroke:#181818;stroke-width:1.0;"/><line style="stroke:#181818;stroke-width:1.0;stroke-dasharray:2.0,2.0;" x1="684.125" x2="1087.75" y1="217.9599" y2="217.9599"/><text fill="#000000" font-family="sans-serif" font-size="20" font-weight="bold" lengthAdjust="spacing" textLength="11.625" x="696.125" y="210.0999">3</text><text fill="#000000" font-family="sans-serif" font-size="20" lengthAdjust="spacing" textLength="175" x="711.75" y="210.0999">200 (list of devices)</text><polygon fill="#181818" points="89.5,255.1999,79.5,259.1999,89.5,263.1999,85.5,259.1999" style="stroke:#181818;stroke-width:1.0;"/><line style="stroke:#181818;stroke-width:1.0;stroke-dasharray:2.0,2.0;" x1="83.5" x2="673.125" y1="259.1999" y2="259.1999"/><text fill="#000000" font-family="sans-serif" font-size="20" font-weight="bold" lengthAdjust="spacing" textLength="11.625" x="95.5" y="251.3399">4</text><text fill="#000000" font-family="sans-serif" font-size="20" lengthAdjust="spacing" textLength="276" x="111.125" y="251.3399">shows list of available devices</text><polygon fill="#181818" points="657.125,296.4398,667.125,300.4398,657.125,304.4398,661.125,300.4398" style="stroke:#181818;stroke-width:1.0;"/><line style="stroke:#181818;stroke-width:1.0;" x1="78.5" x2="663.125" y1="300.4398" y2="300.4398"/><text fill="#000000" font-family="sans-serif" font-size="20" font-weight="bold" lengthAdjust="spacing" textLength="11.625" x="85.5" y="292.5799">5</text><text fill="#000000" font-family="sans-serif" font-size="20" lengthAdjust="spacing" textLength="144" x="101.125" y="292.5799">selects a device</text><polygon fill="#181818" points="1071.75,337.6798,1081.75,341.6798,1071.75,345.6798,1075.75,341.6798" style="stroke:#181818;stroke-width:1.0;"/><line style="stroke:#181818;stroke-width:1.0;" x1="679.125" x2="1077.75" y1="341.6798" y2="341.6798"/><text fill="#000000" font-family="sans-serif" font-size="20" font-weight="bold" lengthAdjust="spacing" textLength="11.625" x="686.125" y="333.8198">6</text><text fill="#000000" font-family="sans-serif" font-size="20" lengthAdjust="spacing" textLength="370" x="701.75" y="333.8198">GET /tasks/sequence?deviceId=deviceId</text><polygon fill="#181818" points="1741,378.9198,1751,382.9198,1741,386.9198,1745,382.9198" style="stroke:#181818;stroke-width:1.0;"/><line style="stroke:#181818;stroke-width:1.0;" x1="1093.75" x2="1747" y1="382.9198" y2="382.9198"/><text fill="#000000" font-family="sans-serif" font-size="20" font-weight="bold" lengthAdjust="spacing" textLength="11.625" x="1100.75" y="375.0598">7</text><text fill="#000000" font-family="sans-serif" font-size="20" lengthAdjust="spacing" textLength="370" x="1116.375" y="375.0598">GET /tasks/sequence?deviceId=deviceId</text><polygon fill="#181818" points="2204.25,420.1598,2214.25,424.1598,2204.25,428.1598,2208.25,424.1598" style="stroke:#181818;stroke-width:1.0;"/><line style="stroke:#181818;stroke-width:1.0;" x1="1763" x2="2210.25" y1="424.1598" y2="424.1598"/><text fill="#000000" font-family="sans-serif" font-size="20" font-weight="bold" lengthAdjust="spacing" textLength="11.625" x="1770" y="416.2998">8</text><text fill="#000000" font-family="sans-serif" font-size="20" lengthAdjust="spacing" textLength="314" x="1785.625" y="416.2998">GET /sequence?deviceId=deviceId</text><polygon fill="#181818" points="1109.75,461.3997,1099.75,465.3997,1109.75,469.3997,1105.75,465.3997" style="stroke:#181818;stroke-width:1.0;"/><line style="stroke:#181818;stroke-width:1.0;" x1="1103.75" x2="2215.25" y1="465.3997" y2="465.3997"/><text fill="#000000" font-family="sans-serif" font-size="20" font-weight="bold" lengthAdjust="spacing" textLength="11.625" x="1115.75" y="457.5398">9</text><text fill="#000000" font-family="sans-serif" font-size="20" lengthAdjust="spacing" textLength="274" x="1131.375" y="457.5398">GET /tasks?deviceId=deviceId</text><polygon fill="#181818" points="1746,502.6397,1756,506.6397,1746,510.6397,1750,506.6397" style="stroke:#181818;stroke-width:1.0;"/><line style="stroke:#181818;stroke-width:1.0;" x1="1098.75" x2="1752" y1="506.6397" y2="506.6397"/><text fill="#000000" font-family="sans-serif" font-size="20" font-weight="bold" lengthAdjust="spacing" textLength="23.25" x="1105.75" y="498.7797">10</text><text fill="#000000" font-family="sans-serif" font-size="20" lengthAdjust="spacing" textLength="373" x="1133" y="498.7797">GET /tasks?filter=device&amp;value=deviceId</text><polygon fill="#181818" points="1109.75,543.8797,1099.75,547.8797,1109.75,551.8797,1105.75,547.8797" style="stroke:#181818;stroke-width:1.0;"/><line style="stroke:#181818;stroke-width:1.0;stroke-dasharray:2.0,2.0;" x1="1103.75" x2="1752" y1="547.8797" y2="547.8797"/><text fill="#000000" font-family="sans-serif" font-size="20" font-weight="bold" lengthAdjust="spacing" textLength="23.25" x="1115.75" y="540.0197">11</text><text fill="#000000" font-family="sans-serif" font-size="20" lengthAdjust="spacing" textLength="306" x="1143" y="540.0197">200 (list of tasks for given device)</text><polygon fill="#181818" points="2204.25,585.1197,2214.25,589.1197,2204.25,593.1197,2208.25,589.1197" style="stroke:#181818;stroke-width:1.0;"/><line style="stroke:#181818;stroke-width:1.0;stroke-dasharray:2.0,2.0;" x1="1093.75" x2="2210.25" y1="589.1197" y2="589.1197"/><text fill="#000000" font-family="sans-serif" font-size="20" font-weight="bold" lengthAdjust="spacing" textLength="23.25" x="1100.75" y="581.2597">12</text><text fill="#000000" font-family="sans-serif" font-size="20" lengthAdjust="spacing" textLength="306" x="1128" y="581.2597">200 (list of tasks for given device)</text><line style="stroke:#181818;stroke-width:1.0;" x1="2231.25" x2="2273.25" y1="630.3596" y2="630.3596"/><line style="stroke:#181818;stroke-width:1.0;" x1="2273.25" x2="2273.25" y1="630.3596" y2="643.3596"/><line style="stroke:#181818;stroke-width:1.0;" x1="2232.25" x2="2273.25" y1="643.3596" y2="643.3596"/><polygon fill="#181818" points="2242.25,639.3596,2232.25,643.3596,2242.25,647.3596,2238.25,643.3596" style="stroke:#181818;stroke-width:1.0;"/><text fill="#000000" font-family="sans-serif" font-size="20" font-weight="bold" lengthAdjust="spacing" textLength="23.25" x="2238.25" y="622.4997">13</text><text fill="#000000" font-family="sans-serif" font-size="20" lengthAdjust="spacing" textLength="404" x="2265.5" y="622.4997">runs algorithm to get the sequence of tasks</text><polygon fill="#181818" points="1774,710.5996,1764,714.5996,1774,718.5996,1770,714.5996" style="stroke:#181818;stroke-width:1.0;"/><line style="stroke:#181818;stroke-width:1.0;stroke-dasharray:2.0,2.0;" x1="1768" x2="2220.25" y1="714.5996" y2="714.5996"/><text fill="#000000" font-family="sans-serif" font-size="20" font-weight="bold" lengthAdjust="spacing" textLength="23.25" x="1780" y="706.7396">14</text><text fill="#000000" font-family="sans-serif" font-size="20" lengthAdjust="spacing" textLength="249" x="1807.25" y="706.7396">200 (sequence of tasks ids)</text><line style="stroke:#181818;stroke-width:1.0;" x1="1768" x2="1810" y1="755.8396" y2="755.8396"/><line style="stroke:#181818;stroke-width:1.0;" x1="1810" x2="1810" y1="755.8396" y2="768.8396"/><line style="stroke:#181818;stroke-width:1.0;" x1="1769" x2="1810" y1="768.8396" y2="768.8396"/><polygon fill="#181818" points="1779,764.8396,1769,768.8396,1779,772.8396,1775,768.8396" style="stroke:#181818;stroke-width:1.0;"/><text fill="#000000" font-family="sans-serif" font-size="20" font-weight="bold" lengthAdjust="spacing" textLength="23.25" x="1775" y="747.9796">15</text><text fill="#000000" font-family="sans-serif" font-size="20" lengthAdjust="spacing" textLength="412" x="1802.25" y="747.9796">enriches the sequence with task information</text><polygon fill="#181818" points="1104.75,836.0796,1094.75,840.0796,1104.75,844.0796,1100.75,840.0796" style="stroke:#181818;stroke-width:1.0;"/><line style="stroke:#181818;stroke-width:1.0;stroke-dasharray:2.0,2.0;" x1="1098.75" x2="1752" y1="840.0796" y2="840.0796"/><text fill="#000000" font-family="sans-serif" font-size="20" font-weight="bold" lengthAdjust="spacing" textLength="23.25" x="1110.75" y="832.2196">16</text><text fill="#000000" font-family="sans-serif" font-size="20" lengthAdjust="spacing" textLength="217" x="1138" y="832.2196">200 (sequence of tasks)</text><line style="stroke:#181818;stroke-width:1.0;" x1="1098.75" x2="1140.75" y1="881.3195" y2="881.3195"/><line style="stroke:#181818;stroke-width:1.0;" x1="1140.75" x2="1140.75" y1="881.3195" y2="894.3195"/><line style="stroke:#181818;stroke-width:1.0;" x1="1099.75" x2="1140.75" y1="894.3195" y2="894.3195"/><polygon fill="#181818" points="1109.75,890.3195,1099.75,894.3195,1109.75,898.3195,1105.75,894.3195" style="stroke:#181818;stroke-width:1.0;"/><text fill="#000000" font-family="sans-serif" font-size="20" font-weight="bold" lengthAdjust="spacing" textLength="23.25" x="1105.75" y="873.4596">17</text><text fill="#000000" font-family="sans-serif" font-size="20" lengthAdjust="spacing" textLength="618" x="1133" y="873.4596">enriches the sequence of tasks with the user's &amp; robot information</text><polygon fill="#181818" points="690.125,961.5595,680.125,965.5595,690.125,969.5595,686.125,965.5595" style="stroke:#181818;stroke-width:1.0;"/><line style="stroke:#181818;stroke-width:1.0;stroke-dasharray:2.0,2.0;" x1="684.125" x2="1087.75" y1="965.5595" y2="965.5595"/><text fill="#000000" font-family="sans-serif" font-size="20" font-weight="bold" lengthAdjust="spacing" textLength="23.25" x="696.125" y="957.6995">18</text><text fill="#000000" font-family="sans-serif" font-size="20" lengthAdjust="spacing" textLength="217" x="723.375" y="957.6995">200 (sequence of tasks)</text><polygon fill="#181818" points="84.5,1002.7995,74.5,1006.7995,84.5,1010.7995,80.5,1006.7995" style="stroke:#181818;stroke-width:1.0;"/><line style="stroke:#181818;stroke-width:1.0;stroke-dasharray:2.0,2.0;" x1="78.5" x2="673.125" y1="1006.7995" y2="1006.7995"/><text fill="#000000" font-family="sans-serif" font-size="20" font-weight="bold" lengthAdjust="spacing" textLength="23.25" x="90.5" y="998.9395">19</text><text fill="#000000" font-family="sans-serif" font-size="20" lengthAdjust="spacing" textLength="275" x="117.75" y="998.9395">returns the sequence of tasks</text><!--SRC=[dPHFR-8m4CNl_XGZ3jroG4NLdYgM7fRTYWDIfAPx7v8XM3WszPzqjv- -jeCf2Q7gzWPuVc_UlB4nEoxtgB4MgjXH2ILjq0dxMqdxo5y9RgSCdLNIrMlI30khDEGhG0EZ7CqELYYn8ZrYNiJoWkzHMdXQne8_t3WK_1KjLt84ivdvPopLSFtp-tW-xn2hHQlPojKKVa9Vh6615ZzcyzNYwCTy7iiYb0cKailgl3OConkqv1imvcUUpCDWTn3RM0KLMR1R0aFFZcH1e3P0VwbmOTpm9HpYVgzLuuEr0NlNV5eovjMyPXZz3Xv-vN1JKiCBEgdoPooSJrBls-aKhWKtDkWVoiUif0uHT3sG1rspLIy64e4DSe5hGOazHOEbap4D2Igi0JpKThoVMO_ZtQGexbjaMVv87mPcciVD_JVl8HP0psU9_WoNiMp8ynUjtc-uyFVi05qrA1nzPFROkRF1A0KR_wOgtf0y9DrPQ518Lo3x0Xzco59Osac_K54fpUssldI9UrSrEvMBAHxpY6REKE1bzr9cQM4jHLBpOakcs_Z5MueySEadgkE_HZV9NYm3mPvv6QS5jaN3hO_6Mm_-o1dItmnSWLPhPOSTXMHxGL_Os_lJ7V3NamXFS3QPj8mcwxIyuBR_TZlDsHi0]--></g></svg>