<?xml version="1.0" encoding="UTF-8" standalone="no"?><svg xmlns="http://www.w3.org/2000/svg" xmlns:xlink="http://www.w3.org/1999/xlink" contentStyleType="text/css" height="1033px" preserveAspectRatio="none" style="width:2895px;height:1033px;background:#FFFFFF;" version="1.1" viewBox="0 0 2895 1033" width="2895px" zoomAndPan="magnify"><defs/><g><rect fill="#FFFFFF" height="829.3438" style="stroke:#181818;stroke-width:1.0;" width="10" x="72.5" y="98.2813"/><rect fill="#FFFFFF" height="111.8438" style="stroke:#181818;stroke-width:1.0;" width="10" x="720.5" y="127.5625"/><rect fill="#FFFFFF" height="650.9375" style="stroke:#181818;stroke-width:1.0;" width="10" x="720.5" y="276.6875"/><rect fill="#FFFFFF" height="37.2813" style="stroke:#181818;stroke-width:1.0;" width="10" x="1172.5" y="164.8438"/><rect fill="#FFFFFF" height="576.375" style="stroke:#181818;stroke-width:1.0;" width="10" x="1172.5" y="313.9688"/><rect fill="#FFFFFF" height="111.8438" style="stroke:#181818;stroke-width:1.0;" width="10" x="1177.5" y="425.8125"/><rect fill="#FFFFFF" height="28" style="stroke:#181818;stroke-width:1.0;" width="10" x="1177.5" y="818.0625"/><rect fill="#FFFFFF" height="494.8125" style="stroke:#181818;stroke-width:1.0;" width="10" x="1894.5" y="351.25"/><rect fill="#FFFFFF" height="37.2813" style="stroke:#181818;stroke-width:1.0;" width="10" x="1899.5" y="463.0938"/><rect fill="#FFFFFF" height="28" style="stroke:#181818;stroke-width:1.0;" width="10" x="1899.5" y="700.5"/><rect fill="#FFFFFF" height="266.6875" style="stroke:#181818;stroke-width:1.0;" width="10" x="2397.5" y="388.5313"/><rect fill="#FFFFFF" height="28" style="stroke:#181818;stroke-width:1.0;" width="10" x="2402.5" y="582.9375"/><line style="stroke:#181818;stroke-width:0.5;stroke-dasharray:5.0,5.0;" x1="77" x2="77" y1="88.2813" y2="945.625"/><line style="stroke:#181818;stroke-width:0.5;stroke-dasharray:5.0,5.0;" x1="725" x2="725" y1="88.2813" y2="945.625"/><line style="stroke:#181818;stroke-width:0.5;stroke-dasharray:5.0,5.0;" x1="1177.5" x2="1177.5" y1="88.2813" y2="945.625"/><line style="stroke:#181818;stroke-width:0.5;stroke-dasharray:5.0,5.0;" x1="1899.5" x2="1899.5" y1="88.2813" y2="945.625"/><line style="stroke:#181818;stroke-width:0.5;stroke-dasharray:5.0,5.0;" x1="2402" x2="2402" y1="88.2813" y2="945.625"/><text fill="#000000" font-family="sans-serif" font-size="20" lengthAdjust="spacing" textLength="139" x="5" y="83.5645">Task Manager</text><ellipse cx="77.5" cy="13.5" fill="#E2E2F0" rx="8" ry="8" style="stroke:#181818;stroke-width:0.5;"/><path d="M77.5,21.5 L77.5,48.5 M64.5,29.5 L90.5,29.5 M77.5,48.5 L64.5,63.5 M77.5,48.5 L90.5,63.5 " fill="none" style="stroke:#181818;stroke-width:0.5;"/><text fill="#000000" font-family="sans-serif" font-size="20" lengthAdjust="spacing" textLength="139" x="5" y="963.1895">Task Manager</text><ellipse cx="77.5" cy="976.4063" fill="#E2E2F0" rx="8" ry="8" style="stroke:#181818;stroke-width:0.5;"/><path d="M77.5,984.4063 L77.5,1011.4063 M64.5,992.4063 L90.5,992.4063 M77.5,1011.4063 L64.5,1026.4063 M77.5,1011.4063 L90.5,1026.4063 " fill="none" style="stroke:#181818;stroke-width:0.5;"/><rect fill="#E2E2F0" height="60.5625" rx="2.5" ry="2.5" style="stroke:#181818;stroke-width:0.5;" width="159" x="646" y="26.7188"/><text fill="#000000" font-family="sans-serif" font-size="20" font-style="italic" lengthAdjust="spacing" textLength="145" x="653" y="52.2832">«system (C4)»</text><text fill="#000000" font-family="sans-serif" font-size="20" lengthAdjust="spacing" textLength="129" x="661" y="75.5645">Visualization</text><rect fill="#E2E2F0" height="60.5625" rx="2.5" ry="2.5" style="stroke:#181818;stroke-width:0.5;" width="159" x="646" y="944.625"/><text fill="#000000" font-family="sans-serif" font-size="20" font-style="italic" lengthAdjust="spacing" textLength="145" x="653" y="970.1895">«system (C4)»</text><text fill="#000000" font-family="sans-serif" font-size="20" lengthAdjust="spacing" textLength="129" x="661" y="993.4707">Visualization</text><rect fill="#E2E2F0" height="60.5625" rx="2.5" ry="2.5" style="stroke:#181818;stroke-width:0.5;" width="272" x="1041.5" y="26.7188"/><text fill="#000000" font-family="sans-serif" font-size="20" font-style="italic" lengthAdjust="spacing" textLength="145" x="1105" y="52.2832">«system (C4)»</text><text fill="#000000" font-family="sans-serif" font-size="20" lengthAdjust="spacing" textLength="258" x="1048.5" y="75.5645">Management Master Data</text><rect fill="#E2E2F0" height="60.5625" rx="2.5" ry="2.5" style="stroke:#181818;stroke-width:0.5;" width="272" x="1041.5" y="944.625"/><text fill="#000000" font-family="sans-serif" font-size="20" font-style="italic" lengthAdjust="spacing" textLength="145" x="1105" y="970.1895">«system (C4)»</text><text fill="#000000" font-family="sans-serif" font-size="20" lengthAdjust="spacing" textLength="258" x="1048.5" y="993.4707">Management Master Data</text><rect fill="#E2E2F0" height="60.5625" rx="2.5" ry="2.5" style="stroke:#181818;stroke-width:0.5;" width="196" x="1801.5" y="26.7188"/><text fill="#000000" font-family="sans-serif" font-size="20" font-style="italic" lengthAdjust="spacing" textLength="145" x="1827" y="52.2832">«system (C4)»</text><text fill="#000000" font-family="sans-serif" font-size="20" lengthAdjust="spacing" textLength="182" x="1808.5" y="75.5645">Tasks Master Data</text><rect fill="#E2E2F0" height="60.5625" rx="2.5" ry="2.5" style="stroke:#181818;stroke-width:0.5;" width="196" x="1801.5" y="944.625"/><text fill="#000000" font-family="sans-serif" font-size="20" font-style="italic" lengthAdjust="spacing" textLength="145" x="1827" y="970.1895">«system (C4)»</text><text fill="#000000" font-family="sans-serif" font-size="20" lengthAdjust="spacing" textLength="182" x="1808.5" y="993.4707">Tasks Master Data</text><rect fill="#E2E2F0" height="60.5625" rx="2.5" ry="2.5" style="stroke:#181818;stroke-width:0.5;" width="159" x="2323" y="26.7188"/><text fill="#000000" font-family="sans-serif" font-size="20" font-style="italic" lengthAdjust="spacing" textLength="145" x="2330" y="52.2832">«system (C4)»</text><text fill="#000000" font-family="sans-serif" font-size="20" lengthAdjust="spacing" textLength="88" x="2358.5" y="75.5645">Planning</text><rect fill="#E2E2F0" height="60.5625" rx="2.5" ry="2.5" style="stroke:#181818;stroke-width:0.5;" width="159" x="2323" y="944.625"/><text fill="#000000" font-family="sans-serif" font-size="20" font-style="italic" lengthAdjust="spacing" textLength="145" x="2330" y="970.1895">«system (C4)»</text><text fill="#000000" font-family="sans-serif" font-size="20" lengthAdjust="spacing" textLength="88" x="2358.5" y="993.4707">Planning</text><rect fill="#FFFFFF" height="829.3438" style="stroke:#181818;stroke-width:1.0;" width="10" x="72.5" y="98.2813"/><rect fill="#FFFFFF" height="111.8438" style="stroke:#181818;stroke-width:1.0;" width="10" x="720.5" y="127.5625"/><rect fill="#FFFFFF" height="650.9375" style="stroke:#181818;stroke-width:1.0;" width="10" x="720.5" y="276.6875"/><rect fill="#FFFFFF" height="37.2813" style="stroke:#181818;stroke-width:1.0;" width="10" x="1172.5" y="164.8438"/><rect fill="#FFFFFF" height="576.375" style="stroke:#181818;stroke-width:1.0;" width="10" x="1172.5" y="313.9688"/><rect fill="#FFFFFF" height="111.8438" style="stroke:#181818;stroke-width:1.0;" width="10" x="1177.5" y="425.8125"/><rect fill="#FFFFFF" height="28" style="stroke:#181818;stroke-width:1.0;" width="10" x="1177.5" y="818.0625"/><rect fill="#FFFFFF" height="494.8125" style="stroke:#181818;stroke-width:1.0;" width="10" x="1894.5" y="351.25"/><rect fill="#FFFFFF" height="37.2813" style="stroke:#181818;stroke-width:1.0;" width="10" x="1899.5" y="463.0938"/><rect fill="#FFFFFF" height="28" style="stroke:#181818;stroke-width:1.0;" width="10" x="1899.5" y="700.5"/><rect fill="#FFFFFF" height="266.6875" style="stroke:#181818;stroke-width:1.0;" width="10" x="2397.5" y="388.5313"/><rect fill="#FFFFFF" height="28" style="stroke:#181818;stroke-width:1.0;" width="10" x="2402.5" y="582.9375"/><polygon fill="#181818" points="708.5,123.5625,718.5,127.5625,708.5,131.5625,712.5,127.5625" style="stroke:#181818;stroke-width:1.0;"/><line style="stroke:#181818;stroke-width:1.0;" x1="82.5" x2="714.5" y1="127.5625" y2="127.5625"/><text fill="#000000" font-family="sans-serif" font-size="20" font-weight="bold" lengthAdjust="spacing" textLength="14" x="89.5" y="120.8457">1</text><text fill="#000000" font-family="sans-serif" font-size="20" lengthAdjust="spacing" textLength="601" x="107.5" y="120.8457">asks to get the sequence of execution of the approved tasks</text><polygon fill="#181818" points="1160.5,160.8438,1170.5,164.8438,1160.5,168.8438,1164.5,164.8438" style="stroke:#181818;stroke-width:1.0;"/><line style="stroke:#181818;stroke-width:1.0;" x1="730.5" x2="1166.5" y1="164.8438" y2="164.8438"/><text fill="#000000" font-family="sans-serif" font-size="20" font-weight="bold" lengthAdjust="spacing" textLength="14" x="737.5" y="158.127">2</text><text fill="#000000" font-family="sans-serif" font-size="20" lengthAdjust="spacing" textLength="129" x="755.5" y="158.127">GET /devices</text><polygon fill="#181818" points="741.5,198.125,731.5,202.125,741.5,206.125,737.5,202.125" style="stroke:#181818;stroke-width:1.0;"/><line style="stroke:#181818;stroke-width:1.0;stroke-dasharray:2.0,2.0;" x1="735.5" x2="1176.5" y1="202.125" y2="202.125"/><text fill="#000000" font-family="sans-serif" font-size="20" font-weight="bold" lengthAdjust="spacing" textLength="14" x="747.5" y="195.4082">3</text><text fill="#000000" font-family="sans-serif" font-size="20" lengthAdjust="spacing" textLength="197" x="765.5" y="195.4082">200 (list of devices)</text><polygon fill="#181818" points="93.5,235.4063,83.5,239.4063,93.5,243.4063,89.5,239.4063" style="stroke:#181818;stroke-width:1.0;"/><line style="stroke:#181818;stroke-width:1.0;stroke-dasharray:2.0,2.0;" x1="87.5" x2="724.5" y1="239.4063" y2="239.4063"/><text fill="#000000" font-family="sans-serif" font-size="20" font-weight="bold" lengthAdjust="spacing" textLength="14" x="99.5" y="232.6895">4</text><text fill="#000000" font-family="sans-serif" font-size="20" lengthAdjust="spacing" textLength="300" x="117.5" y="232.6895">shows list of available devices</text><polygon fill="#181818" points="708.5,272.6875,718.5,276.6875,708.5,280.6875,712.5,276.6875" style="stroke:#181818;stroke-width:1.0;"/><line style="stroke:#181818;stroke-width:1.0;" x1="82.5" x2="714.5" y1="276.6875" y2="276.6875"/><text fill="#000000" font-family="sans-serif" font-size="20" font-weight="bold" lengthAdjust="spacing" textLength="14" x="89.5" y="269.9707">5</text><text fill="#000000" font-family="sans-serif" font-size="20" lengthAdjust="spacing" textLength="158" x="107.5" y="269.9707">selects a device</text><polygon fill="#181818" points="1160.5,309.9688,1170.5,313.9688,1160.5,317.9688,1164.5,313.9688" style="stroke:#181818;stroke-width:1.0;"/><line style="stroke:#181818;stroke-width:1.0;" x1="730.5" x2="1166.5" y1="313.9688" y2="313.9688"/><text fill="#000000" font-family="sans-serif" font-size="20" font-weight="bold" lengthAdjust="spacing" textLength="14" x="737.5" y="307.252">6</text><text fill="#000000" font-family="sans-serif" font-size="20" lengthAdjust="spacing" textLength="405" x="755.5" y="307.252">GET /tasks/sequence?deviceId=deviceId</text><polygon fill="#181818" points="1882.5,347.25,1892.5,351.25,1882.5,355.25,1886.5,351.25" style="stroke:#181818;stroke-width:1.0;"/><line style="stroke:#181818;stroke-width:1.0;" x1="1182.5" x2="1888.5" y1="351.25" y2="351.25"/><text fill="#000000" font-family="sans-serif" font-size="20" font-weight="bold" lengthAdjust="spacing" textLength="14" x="1189.5" y="344.5332">7</text><text fill="#000000" font-family="sans-serif" font-size="20" lengthAdjust="spacing" textLength="405" x="1207.5" y="344.5332">GET /tasks/sequence?deviceId=deviceId</text><polygon fill="#181818" points="2385.5,384.5313,2395.5,388.5313,2385.5,392.5313,2389.5,388.5313" style="stroke:#181818;stroke-width:1.0;"/><line style="stroke:#181818;stroke-width:1.0;" x1="1904.5" x2="2391.5" y1="388.5313" y2="388.5313"/><text fill="#000000" font-family="sans-serif" font-size="20" font-weight="bold" lengthAdjust="spacing" textLength="14" x="1911.5" y="381.8145">8</text><text fill="#000000" font-family="sans-serif" font-size="20" lengthAdjust="spacing" textLength="346" x="1929.5" y="381.8145">GET /sequence?deviceId=deviceId</text><polygon fill="#181818" points="1198.5,421.8125,1188.5,425.8125,1198.5,429.8125,1194.5,425.8125" style="stroke:#181818;stroke-width:1.0;"/><line style="stroke:#181818;stroke-width:1.0;" x1="1192.5" x2="2396.5" y1="425.8125" y2="425.8125"/><text fill="#000000" font-family="sans-serif" font-size="20" font-weight="bold" lengthAdjust="spacing" textLength="14" x="1204.5" y="419.0957">9</text><text fill="#000000" font-family="sans-serif" font-size="20" lengthAdjust="spacing" textLength="302" x="1222.5" y="419.0957">GET /tasks?deviceId=deviceId</text><polygon fill="#181818" points="1887.5,459.0938,1897.5,463.0938,1887.5,467.0938,1891.5,463.0938" style="stroke:#181818;stroke-width:1.0;"/><line style="stroke:#181818;stroke-width:1.0;" x1="1187.5" x2="1893.5" y1="463.0938" y2="463.0938"/><text fill="#000000" font-family="sans-serif" font-size="20" font-weight="bold" lengthAdjust="spacing" textLength="28" x="1194.5" y="456.377">10</text><text fill="#000000" font-family="sans-serif" font-size="20" lengthAdjust="spacing" textLength="416" x="1226.5" y="456.377">GET /tasks?filter=device&amp;value=deviceId</text><polygon fill="#181818" points="1198.5,496.375,1188.5,500.375,1198.5,504.375,1194.5,500.375" style="stroke:#181818;stroke-width:1.0;"/><line style="stroke:#181818;stroke-width:1.0;stroke-dasharray:2.0,2.0;" x1="1192.5" x2="1893.5" y1="500.375" y2="500.375"/><text fill="#000000" font-family="sans-serif" font-size="20" font-weight="bold" lengthAdjust="spacing" textLength="28" x="1204.5" y="493.6582">11</text><text fill="#000000" font-family="sans-serif" font-size="20" lengthAdjust="spacing" textLength="339" x="1236.5" y="493.6582">200 (list of tasks for given device)</text><polygon fill="#181818" points="2385.5,533.6563,2395.5,537.6563,2385.5,541.6563,2389.5,537.6563" style="stroke:#181818;stroke-width:1.0;"/><line style="stroke:#181818;stroke-width:1.0;stroke-dasharray:2.0,2.0;" x1="1182.5" x2="2391.5" y1="537.6563" y2="537.6563"/><text fill="#000000" font-family="sans-serif" font-size="20" font-weight="bold" lengthAdjust="spacing" textLength="28" x="1189.5" y="530.9395">12</text><text fill="#000000" font-family="sans-serif" font-size="20" lengthAdjust="spacing" textLength="339" x="1221.5" y="530.9395">200 (list of tasks for given device)</text><line style="stroke:#181818;stroke-width:1.0;" x1="2412.5" x2="2454.5" y1="574.9375" y2="574.9375"/><line style="stroke:#181818;stroke-width:1.0;" x1="2454.5" x2="2454.5" y1="574.9375" y2="587.9375"/><line style="stroke:#181818;stroke-width:1.0;" x1="2413.5" x2="2454.5" y1="587.9375" y2="587.9375"/><polygon fill="#181818" points="2423.5,583.9375,2413.5,587.9375,2423.5,591.9375,2419.5,587.9375" style="stroke:#181818;stroke-width:1.0;"/><text fill="#000000" font-family="sans-serif" font-size="20" font-weight="bold" lengthAdjust="spacing" textLength="28" x="2419.5" y="568.2207">13</text><text fill="#000000" font-family="sans-serif" font-size="20" lengthAdjust="spacing" textLength="437" x="2451.5" y="568.2207">runs algorithm to get the sequence of tasks</text><polygon fill="#181818" points="1915.5,651.2188,1905.5,655.2188,1915.5,659.2188,1911.5,655.2188" style="stroke:#181818;stroke-width:1.0;"/><line style="stroke:#181818;stroke-width:1.0;stroke-dasharray:2.0,2.0;" x1="1909.5" x2="2401.5" y1="655.2188" y2="655.2188"/><text fill="#000000" font-family="sans-serif" font-size="20" font-weight="bold" lengthAdjust="spacing" textLength="28" x="1921.5" y="648.502">14</text><text fill="#000000" font-family="sans-serif" font-size="20" lengthAdjust="spacing" textLength="275" x="1953.5" y="648.502">200 (sequence of tasks ids)</text><line style="stroke:#181818;stroke-width:1.0;" x1="1909.5" x2="1951.5" y1="692.5" y2="692.5"/><line style="stroke:#181818;stroke-width:1.0;" x1="1951.5" x2="1951.5" y1="692.5" y2="705.5"/><line style="stroke:#181818;stroke-width:1.0;" x1="1910.5" x2="1951.5" y1="705.5" y2="705.5"/><polygon fill="#181818" points="1920.5,701.5,1910.5,705.5,1920.5,709.5,1916.5,705.5" style="stroke:#181818;stroke-width:1.0;"/><text fill="#000000" font-family="sans-serif" font-size="20" font-weight="bold" lengthAdjust="spacing" textLength="28" x="1916.5" y="685.7832">15</text><text fill="#000000" font-family="sans-serif" font-size="20" lengthAdjust="spacing" textLength="447" x="1948.5" y="685.7832">enriches the sequence with task information</text><polygon fill="#181818" points="1193.5,768.7813,1183.5,772.7813,1193.5,776.7813,1189.5,772.7813" style="stroke:#181818;stroke-width:1.0;"/><line style="stroke:#181818;stroke-width:1.0;stroke-dasharray:2.0,2.0;" x1="1187.5" x2="1893.5" y1="772.7813" y2="772.7813"/><text fill="#000000" font-family="sans-serif" font-size="20" font-weight="bold" lengthAdjust="spacing" textLength="28" x="1199.5" y="766.0645">16</text><text fill="#000000" font-family="sans-serif" font-size="20" lengthAdjust="spacing" textLength="240" x="1231.5" y="766.0645">200 (sequence of tasks)</text><line style="stroke:#181818;stroke-width:1.0;" x1="1187.5" x2="1229.5" y1="810.0625" y2="810.0625"/><line style="stroke:#181818;stroke-width:1.0;" x1="1229.5" x2="1229.5" y1="810.0625" y2="823.0625"/><line style="stroke:#181818;stroke-width:1.0;" x1="1188.5" x2="1229.5" y1="823.0625" y2="823.0625"/><polygon fill="#181818" points="1198.5,819.0625,1188.5,823.0625,1198.5,827.0625,1194.5,823.0625" style="stroke:#181818;stroke-width:1.0;"/><text fill="#000000" font-family="sans-serif" font-size="20" font-weight="bold" lengthAdjust="spacing" textLength="28" x="1194.5" y="803.3457">17</text><text fill="#000000" font-family="sans-serif" font-size="20" lengthAdjust="spacing" textLength="666" x="1226.5" y="803.3457">enriches the sequence of tasks with the user's &amp; robot information</text><polygon fill="#181818" points="741.5,886.3438,731.5,890.3438,741.5,894.3438,737.5,890.3438" style="stroke:#181818;stroke-width:1.0;"/><line style="stroke:#181818;stroke-width:1.0;stroke-dasharray:2.0,2.0;" x1="735.5" x2="1176.5" y1="890.3438" y2="890.3438"/><text fill="#000000" font-family="sans-serif" font-size="20" font-weight="bold" lengthAdjust="spacing" textLength="28" x="747.5" y="883.627">18</text><text fill="#000000" font-family="sans-serif" font-size="20" lengthAdjust="spacing" textLength="240" x="779.5" y="883.627">200 (sequence of tasks)</text><polygon fill="#181818" points="88.5,923.625,78.5,927.625,88.5,931.625,84.5,927.625" style="stroke:#181818;stroke-width:1.0;"/><line style="stroke:#181818;stroke-width:1.0;stroke-dasharray:2.0,2.0;" x1="82.5" x2="724.5" y1="927.625" y2="927.625"/><text fill="#000000" font-family="sans-serif" font-size="20" font-weight="bold" lengthAdjust="spacing" textLength="28" x="94.5" y="920.9082">19</text><text fill="#000000" font-family="sans-serif" font-size="20" lengthAdjust="spacing" textLength="296" x="126.5" y="920.9082">returns the sequence of tasks</text><!--SRC=[dPHFR-8m4CNl_XGZ3jroG4NLdYgM7fRTYWDIfAPx7v8XM3WszPzqjv- -jeCf2Q7gzWPuVc_UlB4nEoxtgB4MgjXH2ILjq0dxMqdxo5y9RgSCdLNIrMlI30khDEGhG0EZ7CqELYYn8ZrYNiJoWkzHMdXQne8_t3WK_1KjLt84ivdvPopLSFtp-tW-xn2hHQlPojKKVa9Vh6615ZzcyzNYwCTy7iiYb0cKailgl3OConkqv1imvcUUpCDWTn3RM0KLMR1R0aFFZcH1e3P0VwbmOTpm9HpYVgzLuuEr0NlNV5eovjMyPXZz3Xv-vN1JKiCBEgdoPooSJrBls-aKhWKtDkWVoiUif0uHT3sG1rspLIy64e4DSe5hGOazHOEbap4D2Igi0JpKThoVMO_ZtQGexbjaMVv87mPcciVD_JVl8HP0psU9_WoNiMp8ynUjtc-uyFVi05qrA1nzPFROkRF1A0KR_wOgtf0y9DrPQ518Lo3x0Xzco59Osac_K54fpUssldI9UrSrEvMBAHxpY6REKE1bzr9cQM4jHLBpOakcs_Z5MueySEadgkE_HZV9NYm3mPvv6QS5jaN3hO_6Mm_-o1dItmnSWLPhPOSTXMHxGL_Os_lJ7V3NamXFS3QPj8mcwxIyuBR_TZlDsHi0]--></g></svg>