<?xml version="1.0" encoding="UTF-8" standalone="no"?><svg xmlns="http://www.w3.org/2000/svg" xmlns:xlink="http://www.w3.org/1999/xlink" contentStyleType="text/css" height="804px" preserveAspectRatio="none" style="width:2775px;height:804px;background:#FFFFFF;" version="1.1" viewBox="0 0 2775 804" width="2775px" zoomAndPan="magnify"><defs/><g><rect fill="#FFFFFF" height="599.9375" style="stroke:#181818;stroke-width:1.0;" width="10" x="72.5" y="98.2813"/><rect fill="#FFFFFF" height="74.5625" style="stroke:#181818;stroke-width:1.0;" width="10" x="720.5" y="127.5625"/><rect fill="#FFFFFF" height="458.8125" style="stroke:#181818;stroke-width:1.0;" width="10" x="720.5" y="239.4063"/><rect fill="#FFFFFF" height="37.2813" style="stroke:#181818;stroke-width:1.0;" width="10" x="1054.5" y="164.8438"/><rect fill="#FFFFFF" height="421.5313" style="stroke:#181818;stroke-width:1.0;" width="10" x="1054.5" y="239.4063"/><rect fill="#FFFFFF" height="28" style="stroke:#181818;stroke-width:1.0;" width="10" x="1059.5" y="588.6563"/><rect fill="#FFFFFF" height="339.9688" style="stroke:#181818;stroke-width:1.0;" width="10" x="1776.5" y="276.6875"/><rect fill="#FFFFFF" height="37.2813" style="stroke:#181818;stroke-width:1.0;" width="10" x="1781.5" y="351.25"/><rect fill="#FFFFFF" height="192.125" style="stroke:#181818;stroke-width:1.0;" width="10" x="2291.5" y="313.9688"/><rect fill="#FFFFFF" height="28" style="stroke:#181818;stroke-width:1.0;" width="10" x="2296.5" y="433.8125"/><line style="stroke:#181818;stroke-width:0.5;stroke-dasharray:5.0,5.0;" x1="77" x2="77" y1="88.2813" y2="716.2188"/><line style="stroke:#181818;stroke-width:0.5;stroke-dasharray:5.0,5.0;" x1="725" x2="725" y1="88.2813" y2="716.2188"/><line style="stroke:#181818;stroke-width:0.5;stroke-dasharray:5.0,5.0;" x1="1059.5" x2="1059.5" y1="88.2813" y2="716.2188"/><line style="stroke:#181818;stroke-width:0.5;stroke-dasharray:5.0,5.0;" x1="1781.5" x2="1781.5" y1="88.2813" y2="716.2188"/><line style="stroke:#181818;stroke-width:0.5;stroke-dasharray:5.0,5.0;" x1="2296" x2="2296" y1="88.2813" y2="716.2188"/><text fill="#000000" font-family="sans-serif" font-size="20" lengthAdjust="spacing" textLength="139" x="5" y="83.5645">Task Manager</text><ellipse cx="77.5" cy="13.5" fill="#E2E2F0" rx="8" ry="8" style="stroke:#181818;stroke-width:0.5;"/><path d="M77.5,21.5 L77.5,48.5 M64.5,29.5 L90.5,29.5 M77.5,48.5 L64.5,63.5 M77.5,48.5 L90.5,63.5 " fill="none" style="stroke:#181818;stroke-width:0.5;"/><text fill="#000000" font-family="sans-serif" font-size="20" lengthAdjust="spacing" textLength="139" x="5" y="733.7832">Task Manager</text><ellipse cx="77.5" cy="747" fill="#E2E2F0" rx="8" ry="8" style="stroke:#181818;stroke-width:0.5;"/><path d="M77.5,755 L77.5,782 M64.5,763 L90.5,763 M77.5,782 L64.5,797 M77.5,782 L90.5,797 " fill="none" style="stroke:#181818;stroke-width:0.5;"/><rect fill="#E2E2F0" height="60.5625" rx="2.5" ry="2.5" style="stroke:#181818;stroke-width:0.5;" width="159" x="646" y="26.7188"/><text fill="#000000" font-family="sans-serif" font-size="20" font-style="italic" lengthAdjust="spacing" textLength="145" x="653" y="52.2832">«system (C4)»</text><text fill="#000000" font-family="sans-serif" font-size="20" lengthAdjust="spacing" textLength="129" x="661" y="75.5645">Visualization</text><rect fill="#E2E2F0" height="60.5625" rx="2.5" ry="2.5" style="stroke:#181818;stroke-width:0.5;" width="159" x="646" y="715.2188"/><text fill="#000000" font-family="sans-serif" font-size="20" font-style="italic" lengthAdjust="spacing" textLength="145" x="653" y="740.7832">«system (C4)»</text><text fill="#000000" font-family="sans-serif" font-size="20" lengthAdjust="spacing" textLength="129" x="661" y="764.0645">Visualization</text><rect fill="#E2E2F0" height="60.5625" rx="2.5" ry="2.5" style="stroke:#181818;stroke-width:0.5;" width="272" x="923.5" y="26.7188"/><text fill="#000000" font-family="sans-serif" font-size="20" font-style="italic" lengthAdjust="spacing" textLength="145" x="987" y="52.2832">«system (C4)»</text><text fill="#000000" font-family="sans-serif" font-size="20" lengthAdjust="spacing" textLength="258" x="930.5" y="75.5645">Management Master Data</text><rect fill="#E2E2F0" height="60.5625" rx="2.5" ry="2.5" style="stroke:#181818;stroke-width:0.5;" width="272" x="923.5" y="715.2188"/><text fill="#000000" font-family="sans-serif" font-size="20" font-style="italic" lengthAdjust="spacing" textLength="145" x="987" y="740.7832">«system (C4)»</text><text fill="#000000" font-family="sans-serif" font-size="20" lengthAdjust="spacing" textLength="258" x="930.5" y="764.0645">Management Master Data</text><rect fill="#E2E2F0" height="60.5625" rx="2.5" ry="2.5" style="stroke:#181818;stroke-width:0.5;" width="196" x="1683.5" y="26.7188"/><text fill="#000000" font-family="sans-serif" font-size="20" font-style="italic" lengthAdjust="spacing" textLength="145" x="1709" y="52.2832">«system (C4)»</text><text fill="#000000" font-family="sans-serif" font-size="20" lengthAdjust="spacing" textLength="182" x="1690.5" y="75.5645">Tasks Master Data</text><rect fill="#E2E2F0" height="60.5625" rx="2.5" ry="2.5" style="stroke:#181818;stroke-width:0.5;" width="196" x="1683.5" y="715.2188"/><text fill="#000000" font-family="sans-serif" font-size="20" font-style="italic" lengthAdjust="spacing" textLength="145" x="1709" y="740.7832">«system (C4)»</text><text fill="#000000" font-family="sans-serif" font-size="20" lengthAdjust="spacing" textLength="182" x="1690.5" y="764.0645">Tasks Master Data</text><rect fill="#E2E2F0" height="60.5625" rx="2.5" ry="2.5" style="stroke:#181818;stroke-width:0.5;" width="159" x="2217" y="26.7188"/><text fill="#000000" font-family="sans-serif" font-size="20" font-style="italic" lengthAdjust="spacing" textLength="145" x="2224" y="52.2832">«system (C4)»</text><text fill="#000000" font-family="sans-serif" font-size="20" lengthAdjust="spacing" textLength="88" x="2252.5" y="75.5645">Planning</text><rect fill="#E2E2F0" height="60.5625" rx="2.5" ry="2.5" style="stroke:#181818;stroke-width:0.5;" width="159" x="2217" y="715.2188"/><text fill="#000000" font-family="sans-serif" font-size="20" font-style="italic" lengthAdjust="spacing" textLength="145" x="2224" y="740.7832">«system (C4)»</text><text fill="#000000" font-family="sans-serif" font-size="20" lengthAdjust="spacing" textLength="88" x="2252.5" y="764.0645">Planning</text><rect fill="#FFFFFF" height="599.9375" style="stroke:#181818;stroke-width:1.0;" width="10" x="72.5" y="98.2813"/><rect fill="#FFFFFF" height="74.5625" style="stroke:#181818;stroke-width:1.0;" width="10" x="720.5" y="127.5625"/><rect fill="#FFFFFF" height="458.8125" style="stroke:#181818;stroke-width:1.0;" width="10" x="720.5" y="239.4063"/><rect fill="#FFFFFF" height="37.2813" style="stroke:#181818;stroke-width:1.0;" width="10" x="1054.5" y="164.8438"/><rect fill="#FFFFFF" height="421.5313" style="stroke:#181818;stroke-width:1.0;" width="10" x="1054.5" y="239.4063"/><rect fill="#FFFFFF" height="28" style="stroke:#181818;stroke-width:1.0;" width="10" x="1059.5" y="588.6563"/><rect fill="#FFFFFF" height="339.9688" style="stroke:#181818;stroke-width:1.0;" width="10" x="1776.5" y="276.6875"/><rect fill="#FFFFFF" height="37.2813" style="stroke:#181818;stroke-width:1.0;" width="10" x="1781.5" y="351.25"/><rect fill="#FFFFFF" height="192.125" style="stroke:#181818;stroke-width:1.0;" width="10" x="2291.5" y="313.9688"/><rect fill="#FFFFFF" height="28" style="stroke:#181818;stroke-width:1.0;" width="10" x="2296.5" y="433.8125"/><polygon fill="#181818" points="708.5,123.5625,718.5,127.5625,708.5,131.5625,712.5,127.5625" style="stroke:#181818;stroke-width:1.0;"/><line style="stroke:#181818;stroke-width:1.0;" x1="82.5" x2="714.5" y1="127.5625" y2="127.5625"/><text fill="#000000" font-family="sans-serif" font-size="20" font-weight="bold" lengthAdjust="spacing" textLength="14" x="89.5" y="120.8457">1</text><text fill="#000000" font-family="sans-serif" font-size="20" lengthAdjust="spacing" textLength="601" x="107.5" y="120.8457">asks to get the sequence of execution of the approved tasks</text><polygon fill="#181818" points="1042.5,160.8438,1052.5,164.8438,1042.5,168.8438,1046.5,164.8438" style="stroke:#181818;stroke-width:1.0;"/><line style="stroke:#181818;stroke-width:1.0;" x1="730.5" x2="1048.5" y1="164.8438" y2="164.8438"/><text fill="#000000" font-family="sans-serif" font-size="20" font-weight="bold" lengthAdjust="spacing" textLength="14" x="737.5" y="158.127">2</text><text fill="#000000" font-family="sans-serif" font-size="20" lengthAdjust="spacing" textLength="129" x="755.5" y="158.127">GET /devices</text><polygon fill="#181818" points="736.5,198.125,726.5,202.125,736.5,206.125,732.5,202.125" style="stroke:#181818;stroke-width:1.0;"/><line style="stroke:#181818;stroke-width:1.0;stroke-dasharray:2.0,2.0;" x1="730.5" x2="1058.5" y1="202.125" y2="202.125"/><text fill="#000000" font-family="sans-serif" font-size="20" font-weight="bold" lengthAdjust="spacing" textLength="14" x="742.5" y="195.4082">3</text><text fill="#000000" font-family="sans-serif" font-size="20" lengthAdjust="spacing" textLength="197" x="760.5" y="195.4082">200 (list of devices)</text><polygon fill="#181818" points="1042.5,235.4063,1052.5,239.4063,1042.5,243.4063,1046.5,239.4063" style="stroke:#181818;stroke-width:1.0;"/><line style="stroke:#181818;stroke-width:1.0;" x1="730.5" x2="1048.5" y1="239.4063" y2="239.4063"/><text fill="#000000" font-family="sans-serif" font-size="20" font-weight="bold" lengthAdjust="spacing" textLength="14" x="737.5" y="232.6895">4</text><text fill="#000000" font-family="sans-serif" font-size="20" lengthAdjust="spacing" textLength="292" x="755.5" y="232.6895">GET /task-requests/sequence</text><polygon fill="#181818" points="1764.5,272.6875,1774.5,276.6875,1764.5,280.6875,1768.5,276.6875" style="stroke:#181818;stroke-width:1.0;"/><line style="stroke:#181818;stroke-width:1.0;" x1="1064.5" x2="1770.5" y1="276.6875" y2="276.6875"/><text fill="#000000" font-family="sans-serif" font-size="20" font-weight="bold" lengthAdjust="spacing" textLength="14" x="1071.5" y="269.9707">5</text><text fill="#000000" font-family="sans-serif" font-size="20" lengthAdjust="spacing" textLength="209" x="1089.5" y="269.9707">GET /tasks/sequence</text><polygon fill="#181818" points="2279.5,309.9688,2289.5,313.9688,2279.5,317.9688,2283.5,313.9688" style="stroke:#181818;stroke-width:1.0;"/><line style="stroke:#181818;stroke-width:1.0;" x1="1786.5" x2="2285.5" y1="313.9688" y2="313.9688"/><text fill="#000000" font-family="sans-serif" font-size="20" font-weight="bold" lengthAdjust="spacing" textLength="14" x="1793.5" y="307.252">6</text><text fill="#000000" font-family="sans-serif" font-size="20" lengthAdjust="spacing" textLength="150" x="1811.5" y="307.252">GET /sequence</text><polygon fill="#181818" points="1802.5,347.25,1792.5,351.25,1802.5,355.25,1798.5,351.25" style="stroke:#181818;stroke-width:1.0;"/><line style="stroke:#181818;stroke-width:1.0;" x1="1796.5" x2="2290.5" y1="351.25" y2="351.25"/><text fill="#000000" font-family="sans-serif" font-size="20" font-weight="bold" lengthAdjust="spacing" textLength="14" x="1808.5" y="344.5332">7</text><text fill="#000000" font-family="sans-serif" font-size="20" lengthAdjust="spacing" textLength="458" x="1826.5" y="344.5332">GET /requests/pick-delivery?status=approved</text><polygon fill="#181818" points="2279.5,384.5313,2289.5,388.5313,2279.5,392.5313,2283.5,388.5313" style="stroke:#181818;stroke-width:1.0;"/><line style="stroke:#181818;stroke-width:1.0;stroke-dasharray:2.0,2.0;" x1="1786.5" x2="2285.5" y1="388.5313" y2="388.5313"/><text fill="#000000" font-family="sans-serif" font-size="20" font-weight="bold" lengthAdjust="spacing" textLength="14" x="1793.5" y="381.8145">8</text><text fill="#000000" font-family="sans-serif" font-size="20" lengthAdjust="spacing" textLength="458" x="1811.5" y="381.8145">GET /requests/pick-delivery?status=approved</text><line style="stroke:#181818;stroke-width:1.0;" x1="2306.5" x2="2348.5" y1="425.8125" y2="425.8125"/><line style="stroke:#181818;stroke-width:1.0;" x1="2348.5" x2="2348.5" y1="425.8125" y2="438.8125"/><line style="stroke:#181818;stroke-width:1.0;" x1="2307.5" x2="2348.5" y1="438.8125" y2="438.8125"/><polygon fill="#181818" points="2317.5,434.8125,2307.5,438.8125,2317.5,442.8125,2313.5,438.8125" style="stroke:#181818;stroke-width:1.0;"/><text fill="#000000" font-family="sans-serif" font-size="20" font-weight="bold" lengthAdjust="spacing" textLength="14" x="2313.5" y="419.0957">9</text><text fill="#000000" font-family="sans-serif" font-size="20" lengthAdjust="spacing" textLength="437" x="2331.5" y="419.0957">runs algorithm to get the sequence of tasks</text><polygon fill="#181818" points="1797.5,502.0938,1787.5,506.0938,1797.5,510.0938,1793.5,506.0938" style="stroke:#181818;stroke-width:1.0;"/><line style="stroke:#181818;stroke-width:1.0;stroke-dasharray:2.0,2.0;" x1="1791.5" x2="2295.5" y1="506.0938" y2="506.0938"/><text fill="#000000" font-family="sans-serif" font-size="20" font-weight="bold" lengthAdjust="spacing" textLength="28" x="1803.5" y="499.377">10</text><text fill="#000000" font-family="sans-serif" font-size="20" lengthAdjust="spacing" textLength="240" x="1835.5" y="499.377">200 (sequence of tasks)</text><polygon fill="#181818" points="1075.5,539.375,1065.5,543.375,1075.5,547.375,1071.5,543.375" style="stroke:#181818;stroke-width:1.0;"/><line style="stroke:#181818;stroke-width:1.0;stroke-dasharray:2.0,2.0;" x1="1069.5" x2="1775.5" y1="543.375" y2="543.375"/><text fill="#000000" font-family="sans-serif" font-size="20" font-weight="bold" lengthAdjust="spacing" textLength="28" x="1081.5" y="536.6582">11</text><text fill="#000000" font-family="sans-serif" font-size="20" lengthAdjust="spacing" textLength="240" x="1113.5" y="536.6582">200 (sequence of tasks)</text><line style="stroke:#181818;stroke-width:1.0;" x1="1069.5" x2="1111.5" y1="580.6563" y2="580.6563"/><line style="stroke:#181818;stroke-width:1.0;" x1="1111.5" x2="1111.5" y1="580.6563" y2="593.6563"/><line style="stroke:#181818;stroke-width:1.0;" x1="1070.5" x2="1111.5" y1="593.6563" y2="593.6563"/><polygon fill="#181818" points="1080.5,589.6563,1070.5,593.6563,1080.5,597.6563,1076.5,593.6563" style="stroke:#181818;stroke-width:1.0;"/><text fill="#000000" font-family="sans-serif" font-size="20" font-weight="bold" lengthAdjust="spacing" textLength="28" x="1076.5" y="573.9395">12</text><text fill="#000000" font-family="sans-serif" font-size="20" lengthAdjust="spacing" textLength="666" x="1108.5" y="573.9395">enriches the sequence of tasks with the user's &amp; robot information</text><polygon fill="#181818" points="741.5,656.9375,731.5,660.9375,741.5,664.9375,737.5,660.9375" style="stroke:#181818;stroke-width:1.0;"/><line style="stroke:#181818;stroke-width:1.0;stroke-dasharray:2.0,2.0;" x1="735.5" x2="1058.5" y1="660.9375" y2="660.9375"/><text fill="#000000" font-family="sans-serif" font-size="20" font-weight="bold" lengthAdjust="spacing" textLength="28" x="747.5" y="654.2207">13</text><text fill="#000000" font-family="sans-serif" font-size="20" lengthAdjust="spacing" textLength="240" x="779.5" y="654.2207">200 (sequence of tasks)</text><polygon fill="#181818" points="88.5,694.2188,78.5,698.2188,88.5,702.2188,84.5,698.2188" style="stroke:#181818;stroke-width:1.0;"/><line style="stroke:#181818;stroke-width:1.0;stroke-dasharray:2.0,2.0;" x1="82.5" x2="724.5" y1="698.2188" y2="698.2188"/><text fill="#000000" font-family="sans-serif" font-size="20" font-weight="bold" lengthAdjust="spacing" textLength="28" x="94.5" y="691.502">14</text><text fill="#000000" font-family="sans-serif" font-size="20" lengthAdjust="spacing" textLength="296" x="126.5" y="691.502">returns the sequence of tasks</text><!--SRC=[ZLF1Rjim3BthAuWSjkPWD2XsAhBii6v33mOCpDsTjPb4Y2rv8fMj_Vf9IjpPYHFqAF6zn_T8YNVQTEYmRMorenfgMgDlvBirybE_4jmj57gnnhVFv1HMOXsKEI33h4JUGOu6D-HcAeY8hdI7Hk3fCG5-QVROw5SKRSqCbaj-OQ4MRhv-cgzM8qQUFoJAGQwbU8K1xE011QzpooCt-k7tquf4AXeqHflDEJQ6rNiK2WsK2fcpLGns3wcDMDYGW6m9c7vxCXM1NGFzfSh7kF4GYzXrpkx3O2NI_ci-FIeLr89cZ7uFFxwLS5lJNbSqG8MQYlMixtstMC1DercY_X4-LpMD68FZP9je9NFHDGlVzlP7tiuThDAS1mfJp01HvG5TzDXpLA6A4xqtCvskTbbDZTwJU_d2WkBvSp_3YJx3HkyK6KmdoXIzMUSD0pORwxHisqiBFbbZCPHBkTw2fLMTKUTZGXyYlqevBk008kDqjIMUjWP_WljKyapk8yC7SFRP2cYpjgvDNr5TUYqdntBozLsF52NYPrbcsO7ZIBmp5zoUFjLHS_KF]--></g></svg>