<?xml version="1.0" encoding="UTF-8" standalone="no"?><svg xmlns="http://www.w3.org/2000/svg" xmlns:xlink="http://www.w3.org/1999/xlink" contentStyleType="text/css" height="618px" preserveAspectRatio="none" style="width:1776px;height:618px;background:#FFFFFF;" version="1.1" viewBox="0 0 1776 618" width="1776px" zoomAndPan="magnify"><defs/><g><rect fill="#FFFFFF" height="406.1598" style="stroke:#181818;stroke-width:1.0;" width="10" x="68.5" y="102.24"/><rect fill="#FFFFFF" height="372.9198" style="stroke:#181818;stroke-width:1.0;" width="10" x="669.125" y="135.4799"/><rect fill="#FFFFFF" height="290.4398" style="stroke:#181818;stroke-width:1.0;" width="10" x="935.75" y="176.7199"/><rect fill="#FFFFFF" height="41.24" style="stroke:#181818;stroke-width:1.0;" width="10" x="940.75" y="259.1999"/><rect fill="#FFFFFF" height="207.9599" style="stroke:#181818;stroke-width:1.0;" width="10" x="1253.375" y="217.9599"/><rect fill="#FFFFFF" height="28" style="stroke:#181818;stroke-width:1.0;" width="10" x="1258.375" y="349.6798"/><line style="stroke:#181818;stroke-width:0.5;stroke-dasharray:5.0,5.0;" x1="73" x2="73" y1="92.24" y2="526.3997"/><line style="stroke:#181818;stroke-width:0.5;stroke-dasharray:5.0,5.0;" x1="674.125" x2="674.125" y1="92.24" y2="526.3997"/><line style="stroke:#181818;stroke-width:0.5;stroke-dasharray:5.0,5.0;" x1="940.75" x2="940.75" y1="92.24" y2="526.3997"/><line style="stroke:#181818;stroke-width:0.5;stroke-dasharray:5.0,5.0;" x1="1258.375" x2="1258.375" y1="92.24" y2="526.3997"/><line style="stroke:#181818;stroke-width:0.5;stroke-dasharray:5.0,5.0;" x1="1702" x2="1702" y1="92.24" y2="526.3997"/><text fill="#000000" font-family="sans-serif" font-size="20" lengthAdjust="spacing" textLength="131" x="5" y="86.38">Task Manager</text><ellipse cx="73.5" cy="13.5" fill="#E2E2F0" rx="8" ry="8" style="stroke:#181818;stroke-width:0.5;"/><path d="M73.5,21.5 L73.5,48.5 M60.5,29.5 L86.5,29.5 M73.5,48.5 L60.5,63.5 M73.5,48.5 L86.5,63.5 " fill="none" style="stroke:#181818;stroke-width:0.5;"/><text fill="#000000" font-family="sans-serif" font-size="20" lengthAdjust="spacing" textLength="131" x="5" y="546.7797">Task Manager</text><ellipse cx="73.5" cy="561.1397" fill="#E2E2F0" rx="8" ry="8" style="stroke:#181818;stroke-width:0.5;"/><path d="M73.5,569.1397 L73.5,596.1397 M60.5,577.1397 L86.5,577.1397 M73.5,596.1397 L60.5,611.1397 M73.5,596.1397 L86.5,611.1397 " fill="none" style="stroke:#181818;stroke-width:0.5;"/><rect fill="#E2E2F0" height="68.4799" rx="2.5" ry="2.5" style="stroke:#181818;stroke-width:0.5;" width="136" x="606.125" y="22.76"/><text fill="#000000" font-family="sans-serif" font-size="20" font-style="italic" lengthAdjust="spacing" textLength="122" x="613.125" y="51.14">«system (C4)»</text><text fill="#000000" font-family="sans-serif" font-size="20" lengthAdjust="spacing" textLength="116" x="616.125" y="78.38">Visualization</text><rect fill="#E2E2F0" height="68.4799" rx="2.5" ry="2.5" style="stroke:#181818;stroke-width:0.5;" width="136" x="606.125" y="525.3997"/><text fill="#000000" font-family="sans-serif" font-size="20" font-style="italic" lengthAdjust="spacing" textLength="122" x="613.125" y="553.7797">«system (C4)»</text><text fill="#000000" font-family="sans-serif" font-size="20" lengthAdjust="spacing" textLength="116" x="616.125" y="581.0197">Visualization</text><rect fill="#E2E2F0" height="68.4799" rx="2.5" ry="2.5" style="stroke:#181818;stroke-width:0.5;" width="186" x="847.75" y="22.76"/><text fill="#000000" font-family="sans-serif" font-size="20" font-style="italic" lengthAdjust="spacing" textLength="122" x="879.75" y="51.14">«system (C4)»</text><text fill="#000000" font-family="sans-serif" font-size="20" lengthAdjust="spacing" textLength="172" x="854.75" y="78.38">Tasks Master Data</text><rect fill="#E2E2F0" height="68.4799" rx="2.5" ry="2.5" style="stroke:#181818;stroke-width:0.5;" width="186" x="847.75" y="525.3997"/><text fill="#000000" font-family="sans-serif" font-size="20" font-style="italic" lengthAdjust="spacing" textLength="122" x="879.75" y="553.7797">«system (C4)»</text><text fill="#000000" font-family="sans-serif" font-size="20" lengthAdjust="spacing" textLength="172" x="854.75" y="581.0197">Tasks Master Data</text><rect fill="#E2E2F0" height="68.4799" rx="2.5" ry="2.5" style="stroke:#181818;stroke-width:0.5;" width="136" x="1190.375" y="22.76"/><text fill="#000000" font-family="sans-serif" font-size="20" font-style="italic" lengthAdjust="spacing" textLength="122" x="1197.375" y="51.14">«system (C4)»</text><text fill="#000000" font-family="sans-serif" font-size="20" lengthAdjust="spacing" textLength="81" x="1217.875" y="78.38">Planning</text><rect fill="#E2E2F0" height="68.4799" rx="2.5" ry="2.5" style="stroke:#181818;stroke-width:0.5;" width="136" x="1190.375" y="525.3997"/><text fill="#000000" font-family="sans-serif" font-size="20" font-style="italic" lengthAdjust="spacing" textLength="122" x="1197.375" y="553.7797">«system (C4)»</text><text fill="#000000" font-family="sans-serif" font-size="20" lengthAdjust="spacing" textLength="81" x="1217.875" y="581.0197">Planning</text><rect fill="#E2E2F0" height="68.4799" rx="2.5" ry="2.5" style="stroke:#181818;stroke-width:0.5;" width="136" x="1634" y="22.76"/><text fill="#000000" font-family="sans-serif" font-size="20" font-style="italic" lengthAdjust="spacing" textLength="122" x="1641" y="51.14">«system (C4)»</text><text fill="#000000" font-family="sans-serif" font-size="20" lengthAdjust="spacing" textLength="48" x="1678" y="78.38">MDD</text><rect fill="#E2E2F0" height="68.4799" rx="2.5" ry="2.5" style="stroke:#181818;stroke-width:0.5;" width="136" x="1634" y="525.3997"/><text fill="#000000" font-family="sans-serif" font-size="20" font-style="italic" lengthAdjust="spacing" textLength="122" x="1641" y="553.7797">«system (C4)»</text><text fill="#000000" font-family="sans-serif" font-size="20" lengthAdjust="spacing" textLength="48" x="1678" y="581.0197">MDD</text><rect fill="#FFFFFF" height="406.1598" style="stroke:#181818;stroke-width:1.0;" width="10" x="68.5" y="102.24"/><rect fill="#FFFFFF" height="372.9198" style="stroke:#181818;stroke-width:1.0;" width="10" x="669.125" y="135.4799"/><rect fill="#FFFFFF" height="290.4398" style="stroke:#181818;stroke-width:1.0;" width="10" x="935.75" y="176.7199"/><rect fill="#FFFFFF" height="41.24" style="stroke:#181818;stroke-width:1.0;" width="10" x="940.75" y="259.1999"/><rect fill="#FFFFFF" height="207.9599" style="stroke:#181818;stroke-width:1.0;" width="10" x="1253.375" y="217.9599"/><rect fill="#FFFFFF" height="28" style="stroke:#181818;stroke-width:1.0;" width="10" x="1258.375" y="349.6798"/><polygon fill="#181818" points="657.125,131.4799,667.125,135.4799,657.125,139.4799,661.125,135.4799" style="stroke:#181818;stroke-width:1.0;"/><line style="stroke:#181818;stroke-width:1.0;" x1="78.5" x2="663.125" y1="135.4799" y2="135.4799"/><text fill="#000000" font-family="sans-serif" font-size="20" font-weight="bold" lengthAdjust="spacing" textLength="11.625" x="85.5" y="127.62">1</text><text fill="#000000" font-family="sans-serif" font-size="20" lengthAdjust="spacing" textLength="556" x="101.125" y="127.62">asks to get the sequence of execution of the approved tasks</text><polygon fill="#181818" points="923.75,172.7199,933.75,176.7199,923.75,180.7199,927.75,176.7199" style="stroke:#181818;stroke-width:1.0;"/><line style="stroke:#181818;stroke-width:1.0;" x1="679.125" x2="929.75" y1="176.7199" y2="176.7199"/><text fill="#000000" font-family="sans-serif" font-size="20" font-weight="bold" lengthAdjust="spacing" textLength="11.625" x="686.125" y="168.8599">2</text><text fill="#000000" font-family="sans-serif" font-size="20" lengthAdjust="spacing" textLength="194" x="701.75" y="168.8599">GET /tasks/sequence</text><polygon fill="#181818" points="1241.375,213.9599,1251.375,217.9599,1241.375,221.9599,1245.375,217.9599" style="stroke:#181818;stroke-width:1.0;"/><line style="stroke:#181818;stroke-width:1.0;" x1="945.75" x2="1247.375" y1="217.9599" y2="217.9599"/><text fill="#000000" font-family="sans-serif" font-size="20" font-weight="bold" lengthAdjust="spacing" textLength="11.625" x="952.75" y="210.0999">3</text><text fill="#000000" font-family="sans-serif" font-size="20" lengthAdjust="spacing" textLength="194" x="968.375" y="210.0999">GET /tasks/sequence</text><polygon fill="#181818" points="961.75,255.1999,951.75,259.1999,961.75,263.1999,957.75,259.1999" style="stroke:#181818;stroke-width:1.0;"/><line style="stroke:#181818;stroke-width:1.0;" x1="955.75" x2="1252.375" y1="259.1999" y2="259.1999"/><text fill="#000000" font-family="sans-serif" font-size="20" font-weight="bold" lengthAdjust="spacing" textLength="11.625" x="967.75" y="251.3399">4</text><text fill="#000000" font-family="sans-serif" font-size="20" lengthAdjust="spacing" textLength="263" x="983.375" y="251.3399">GET /tasks?status=approved</text><polygon fill="#181818" points="1241.375,296.4398,1251.375,300.4398,1241.375,304.4398,1245.375,300.4398" style="stroke:#181818;stroke-width:1.0;"/><line style="stroke:#181818;stroke-width:1.0;stroke-dasharray:2.0,2.0;" x1="945.75" x2="1247.375" y1="300.4398" y2="300.4398"/><text fill="#000000" font-family="sans-serif" font-size="20" font-weight="bold" lengthAdjust="spacing" textLength="11.625" x="952.75" y="292.5799">5</text><text fill="#000000" font-family="sans-serif" font-size="20" lengthAdjust="spacing" textLength="263" x="968.375" y="292.5799">GET /tasks?status=approved</text><line style="stroke:#181818;stroke-width:1.0;" x1="1268.375" x2="1310.375" y1="341.6798" y2="341.6798"/><line style="stroke:#181818;stroke-width:1.0;" x1="1310.375" x2="1310.375" y1="341.6798" y2="354.6798"/><line style="stroke:#181818;stroke-width:1.0;" x1="1269.375" x2="1310.375" y1="354.6798" y2="354.6798"/><polygon fill="#181818" points="1279.375,350.6798,1269.375,354.6798,1279.375,358.6798,1275.375,354.6798" style="stroke:#181818;stroke-width:1.0;"/><text fill="#000000" font-family="sans-serif" font-size="20" font-weight="bold" lengthAdjust="spacing" textLength="11.625" x="1275.375" y="333.8198">6</text><text fill="#000000" font-family="sans-serif" font-size="20" lengthAdjust="spacing" textLength="404" x="1291" y="333.8198">runs algorithm to get the sequence of tasks</text><polygon fill="#181818" points="956.75,421.9198,946.75,425.9198,956.75,429.9198,952.75,425.9198" style="stroke:#181818;stroke-width:1.0;"/><line style="stroke:#181818;stroke-width:1.0;stroke-dasharray:2.0,2.0;" x1="950.75" x2="1257.375" y1="425.9198" y2="425.9198"/><text fill="#000000" font-family="sans-serif" font-size="20" font-weight="bold" lengthAdjust="spacing" textLength="11.625" x="962.75" y="418.0598">7</text><text fill="#000000" font-family="sans-serif" font-size="20" lengthAdjust="spacing" textLength="217" x="978.375" y="418.0598">200 (sequence of tasks)</text><polygon fill="#181818" points="690.125,463.1598,680.125,467.1598,690.125,471.1598,686.125,467.1598" style="stroke:#181818;stroke-width:1.0;"/><line style="stroke:#181818;stroke-width:1.0;stroke-dasharray:2.0,2.0;" x1="684.125" x2="939.75" y1="467.1598" y2="467.1598"/><text fill="#000000" font-family="sans-serif" font-size="20" font-weight="bold" lengthAdjust="spacing" textLength="11.625" x="696.125" y="459.2998">8</text><text fill="#000000" font-family="sans-serif" font-size="20" lengthAdjust="spacing" textLength="217" x="711.75" y="459.2998">200 (sequence of tasks)</text><polygon fill="#181818" points="84.5,504.3997,74.5,508.3997,84.5,512.3997,80.5,508.3997" style="stroke:#181818;stroke-width:1.0;"/><line style="stroke:#181818;stroke-width:1.0;stroke-dasharray:2.0,2.0;" x1="78.5" x2="673.125" y1="508.3997" y2="508.3997"/><text fill="#000000" font-family="sans-serif" font-size="20" font-weight="bold" lengthAdjust="spacing" textLength="11.625" x="90.5" y="500.5398">9</text><text fill="#000000" font-family="sans-serif" font-size="20" lengthAdjust="spacing" textLength="275" x="106.125" y="500.5398">returns the sequence of tasks</text><!--SRC=[ZP71Ji9048Rl-nGJJd0W4kA981wi6WvDDh5u7yjGDhIxTNUMA4_lRacHMaHFJTF_-_hFZDifNQF5gZJvZjQmfWtwaf-CvXTr89XE17essbTlP0NcR2naAQ23GOPk1obgBCWEH92mobMDcc6rR0AlodairG5P6Js0-TnzEgOAXW-teyMYGsHfSdAw80qv2maoNiTa0yaIjLQwk9vDa-ClmhCVZ9EfFJA59aA40SUBECKCcZvie206tX8uUlUaSmAp0VgWtCVPualyY7LjpJviaIFsxLmjXGYsu8nppk3vCOER9dFJ-iuB92B6Gbh-bPL2NhBUEqRsxgxjSq7Ui_UODNKesHQoNZl0iZ1MyRRwRJS_DY3FTKthK-tfP0B37Zhg0ctdvYR_86BZUCRvU7naBB6teVZbdcTal5L79Bu0]--></g></svg>