<?xml version="1.0" encoding="UTF-8" standalone="no"?><svg xmlns="http://www.w3.org/2000/svg" xmlns:xlink="http://www.w3.org/1999/xlink" contentStyleType="text/css" height="806px" preserveAspectRatio="none" style="width:3162px;height:806px;background:#FFFFFF;" version="1.1" viewBox="0 0 3162 806" width="3162px" zoomAndPan="magnify"><defs/><g><rect fill="#FFFFFF" height="663.2188" style="stroke:#181818;stroke-width:1.0;" width="10" x="204" y="82.5625"/><rect fill="#FFFFFF" height="588.6563" style="stroke:#181818;stroke-width:1.0;" width="10" x="538" y="119.8438"/><rect fill="#FFFFFF" height="514.0938" style="stroke:#181818;stroke-width:1.0;" width="10" x="874" y="157.125"/><rect fill="#FFFFFF" height="305.6875" style="stroke:#181818;stroke-width:1.0;" width="10" x="1283" y="242.6875"/><rect fill="#FFFFFF" height="30" style="stroke:#181818;stroke-width:1.0;" width="10" x="1641" y="279.9688"/><rect fill="#FFFFFF" height="37.2813" style="stroke:#181818;stroke-width:1.0;" width="10" x="1641" y="462.8125"/><rect fill="#FFFFFF" height="37.2813" style="stroke:#181818;stroke-width:1.0;" width="10" x="1641" y="585.6563"/><rect fill="#FFFFFF" height="30" style="stroke:#181818;stroke-width:1.0;" width="10" x="2381.5" y="395.5313"/><line style="stroke:#181818;stroke-width:0.5;stroke-dasharray:5.0,5.0;" x1="209" x2="209" y1="43.2813" y2="763.7813"/><line style="stroke:#181818;stroke-width:0.5;stroke-dasharray:5.0,5.0;" x1="543" x2="543" y1="43.2813" y2="763.7813"/><line style="stroke:#181818;stroke-width:0.5;stroke-dasharray:5.0,5.0;" x1="879" x2="879" y1="43.2813" y2="763.7813"/><line style="stroke:#181818;stroke-width:0.5;stroke-dasharray:5.0,5.0;" x1="1102" x2="1102" y1="199.2656" y2="763.7813"/><line style="stroke:#181818;stroke-width:0.5;stroke-dasharray:5.0,5.0;" x1="1288" x2="1288" y1="43.2813" y2="763.7813"/><line style="stroke:#181818;stroke-width:0.5;stroke-dasharray:5.0,5.0;" x1="1645.5" x2="1645.5" y1="43.2813" y2="763.7813"/><line style="stroke:#181818;stroke-width:0.5;stroke-dasharray:5.0,5.0;" x1="1940.5" x2="1940.5" y1="352.1094" y2="763.7813"/><line style="stroke:#181818;stroke-width:0.5;stroke-dasharray:5.0,5.0;" x1="2386.5" x2="2386.5" y1="43.2813" y2="763.7813"/><line style="stroke:#181818;stroke-width:0.5;stroke-dasharray:5.0,5.0;" x1="2740.5" x2="2740.5" y1="504.9531" y2="763.7813"/><line style="stroke:#181818;stroke-width:0.5;stroke-dasharray:5.0,5.0;" x1="3012.5" x2="3012.5" y1="627.7969" y2="763.7813"/><rect fill="#E2E2F0" height="37.2813" rx="2.5" ry="2.5" style="stroke:#181818;stroke-width:0.5;" width="164" x="127" y="5"/><text fill="#000000" font-family="sans-serif" font-size="20" lengthAdjust="spacing" textLength="150" x="134" y="30.5645">:BuildingRoute</text><rect fill="#E2E2F0" height="37.2813" rx="2.5" ry="2.5" style="stroke:#181818;stroke-width:0.5;" width="164" x="127" y="762.7813"/><text fill="#000000" font-family="sans-serif" font-size="20" lengthAdjust="spacing" textLength="150" x="134" y="788.3457">:BuildingRoute</text><rect fill="#E2E2F0" height="37.2813" rx="2.5" ry="2.5" style="stroke:#181818;stroke-width:0.5;" width="204" x="441" y="5"/><text fill="#000000" font-family="sans-serif" font-size="20" lengthAdjust="spacing" textLength="190" x="448" y="30.5645">:BuildingController</text><rect fill="#E2E2F0" height="37.2813" rx="2.5" ry="2.5" style="stroke:#181818;stroke-width:0.5;" width="204" x="441" y="762.7813"/><text fill="#000000" font-family="sans-serif" font-size="20" lengthAdjust="spacing" textLength="190" x="448" y="788.3457">:BuildingController</text><rect fill="#E2E2F0" height="37.2813" rx="2.5" ry="2.5" style="stroke:#181818;stroke-width:0.5;" width="178" x="790" y="5"/><text fill="#000000" font-family="sans-serif" font-size="20" lengthAdjust="spacing" textLength="164" x="797" y="30.5645">:BuildingService</text><rect fill="#E2E2F0" height="37.2813" rx="2.5" ry="2.5" style="stroke:#181818;stroke-width:0.5;" width="178" x="790" y="762.7813"/><text fill="#000000" font-family="sans-serif" font-size="20" lengthAdjust="spacing" textLength="164" x="797" y="788.3457">:BuildingService</text><rect fill="#E2E2F0" height="37.2813" rx="2.5" ry="2.5" style="stroke:#181818;stroke-width:0.5;" width="195" x="1005" y="762.7813"/><text fill="#000000" font-family="sans-serif" font-size="20" lengthAdjust="spacing" textLength="181" x="1012" y="788.3457">:building:Building</text><rect fill="#E2E2F0" height="37.2813" rx="2.5" ry="2.5" style="stroke:#181818;stroke-width:0.5;" width="156" x="1210" y="5"/><text fill="#000000" font-family="sans-serif" font-size="20" lengthAdjust="spacing" textLength="142" x="1217" y="30.5645">:BuildingRepo</text><rect fill="#E2E2F0" height="37.2813" rx="2.5" ry="2.5" style="stroke:#181818;stroke-width:0.5;" width="156" x="1210" y="762.7813"/><text fill="#000000" font-family="sans-serif" font-size="20" lengthAdjust="spacing" textLength="142" x="1217" y="788.3457">:BuildingRepo</text><rect fill="#E2E2F0" height="37.2813" rx="2.5" ry="2.5" style="stroke:#181818;stroke-width:0.5;" width="147" x="1572.5" y="5"/><text fill="#000000" font-family="sans-serif" font-size="20" lengthAdjust="spacing" textLength="133" x="1579.5" y="30.5645">:BuildingMap</text><rect fill="#E2E2F0" height="37.2813" rx="2.5" ry="2.5" style="stroke:#181818;stroke-width:0.5;" width="147" x="1572.5" y="762.7813"/><text fill="#000000" font-family="sans-serif" font-size="20" lengthAdjust="spacing" textLength="133" x="1579.5" y="788.3457">:BuildingMap</text><rect fill="#E2E2F0" height="37.2813" rx="2.5" ry="2.5" style="stroke:#181818;stroke-width:0.5;" width="422" x="1729.5" y="762.7813"/><text fill="#000000" font-family="sans-serif" font-size="20" lengthAdjust="spacing" textLength="408" x="1736.5" y="788.3457">buildingPersistence:IBuildingPersistence</text><rect fill="#E2E2F0" height="37.2813" rx="2.5" ry="2.5" style="stroke:#181818;stroke-width:0.5;" width="450" x="2161.5" y="5"/><text fill="#000000" font-family="sans-serif" font-size="20" lengthAdjust="spacing" textLength="436" x="2168.5" y="30.5645">:Model&lt;IBuildingPersistence &amp; Document&gt;</text><rect fill="#E2E2F0" height="37.2813" rx="2.5" ry="2.5" style="stroke:#181818;stroke-width:0.5;" width="450" x="2161.5" y="762.7813"/><text fill="#000000" font-family="sans-serif" font-size="20" lengthAdjust="spacing" textLength="436" x="2168.5" y="788.3457">:Model&lt;IBuildingPersistence &amp; Document&gt;</text><rect fill="#E2E2F0" height="37.2813" rx="2.5" ry="2.5" style="stroke:#181818;stroke-width:0.5;" width="238" x="2621.5" y="762.7813"/><text fill="#000000" font-family="sans-serif" font-size="20" lengthAdjust="spacing" textLength="224" x="2628.5" y="788.3457">:newBuilding:Building</text><rect fill="#E2E2F0" height="37.2813" rx="2.5" ry="2.5" style="stroke:#181818;stroke-width:0.5;" width="287" x="2869.5" y="762.7813"/><text fill="#000000" font-family="sans-serif" font-size="20" lengthAdjust="spacing" textLength="273" x="2876.5" y="788.3457">:buildingDTO:IBuildingDTO</text><rect fill="#FFFFFF" height="663.2188" style="stroke:#181818;stroke-width:1.0;" width="10" x="204" y="82.5625"/><rect fill="#FFFFFF" height="588.6563" style="stroke:#181818;stroke-width:1.0;" width="10" x="538" y="119.8438"/><rect fill="#FFFFFF" height="514.0938" style="stroke:#181818;stroke-width:1.0;" width="10" x="874" y="157.125"/><rect fill="#FFFFFF" height="305.6875" style="stroke:#181818;stroke-width:1.0;" width="10" x="1283" y="242.6875"/><rect fill="#FFFFFF" height="30" style="stroke:#181818;stroke-width:1.0;" width="10" x="1641" y="279.9688"/><rect fill="#FFFFFF" height="37.2813" style="stroke:#181818;stroke-width:1.0;" width="10" x="1641" y="462.8125"/><rect fill="#FFFFFF" height="37.2813" style="stroke:#181818;stroke-width:1.0;" width="10" x="1641" y="585.6563"/><rect fill="#FFFFFF" height="30" style="stroke:#181818;stroke-width:1.0;" width="10" x="2381.5" y="395.5313"/><ellipse cx="4.5" cy="81.8125" fill="none" rx="4" ry="4" style="stroke:#181818;stroke-width:1.5;"/><polygon fill="#181818" points="192,78.5625,202,82.5625,192,86.5625,196,82.5625" style="stroke:#181818;stroke-width:1.0;"/><line style="stroke:#181818;stroke-width:1.0;" x1="9" x2="198" y1="82.5625" y2="82.5625"/><text fill="#000000" font-family="sans-serif" font-size="20" font-weight="bold" lengthAdjust="spacing" textLength="14" x="12" y="75.8457">1</text><text fill="#000000" font-family="sans-serif" font-size="20" lengthAdjust="spacing" textLength="159" x="30" y="75.8457">POST /buildings</text><polygon fill="#181818" points="526,115.8438,536,119.8438,526,123.8438,530,119.8438" style="stroke:#181818;stroke-width:1.0;"/><line style="stroke:#181818;stroke-width:1.0;" x1="214" x2="532" y1="119.8438" y2="119.8438"/><text fill="#000000" font-family="sans-serif" font-size="20" font-weight="bold" lengthAdjust="spacing" textLength="14" x="221" y="113.127">2</text><text fill="#000000" font-family="sans-serif" font-size="20" lengthAdjust="spacing" textLength="287" x="239" y="113.127">createBuilding(elevatorDTO)</text><polygon fill="#181818" points="862,153.125,872,157.125,862,161.125,866,157.125" style="stroke:#181818;stroke-width:1.0;"/><line style="stroke:#181818;stroke-width:1.0;" x1="548" x2="868" y1="157.125" y2="157.125"/><text fill="#000000" font-family="sans-serif" font-size="20" font-weight="bold" lengthAdjust="spacing" textLength="14" x="555" y="150.4082">3</text><text fill="#000000" font-family="sans-serif" font-size="20" lengthAdjust="spacing" textLength="289" x="573" y="150.4082">createBuilding(buildingDTO)</text><polygon fill="#181818" points="993,190.4063,1003,194.4063,993,198.4063,997,194.4063" style="stroke:#181818;stroke-width:1.0;"/><line style="stroke:#181818;stroke-width:1.0;" x1="884" x2="999" y1="194.4063" y2="194.4063"/><text fill="#000000" font-family="sans-serif" font-size="20" font-weight="bold" lengthAdjust="spacing" textLength="14" x="891" y="187.6895">4</text><text fill="#000000" font-family="sans-serif" font-size="20" lengthAdjust="spacing" textLength="79" x="909" y="187.6895">create()</text><rect fill="#E2E2F0" height="37.2813" rx="2.5" ry="2.5" style="stroke:#181818;stroke-width:0.5;" width="195" x="1005" y="165.125"/><text fill="#000000" font-family="sans-serif" font-size="20" lengthAdjust="spacing" textLength="181" x="1012" y="190.6895">:building:Building</text><polygon fill="#181818" points="1271,238.6875,1281,242.6875,1271,246.6875,1275,242.6875" style="stroke:#181818;stroke-width:1.0;"/><line style="stroke:#181818;stroke-width:1.0;" x1="884" x2="1277" y1="242.6875" y2="242.6875"/><text fill="#000000" font-family="sans-serif" font-size="20" font-weight="bold" lengthAdjust="spacing" textLength="14" x="891" y="235.9707">5</text><text fill="#000000" font-family="sans-serif" font-size="20" lengthAdjust="spacing" textLength="144" x="909" y="235.9707">save(building)</text><polygon fill="#181818" points="1629,275.9688,1639,279.9688,1629,283.9688,1633,279.9688" style="stroke:#181818;stroke-width:1.0;"/><line style="stroke:#181818;stroke-width:1.0;" x1="1293" x2="1635" y1="279.9688" y2="279.9688"/><text fill="#000000" font-family="sans-serif" font-size="20" font-weight="bold" lengthAdjust="spacing" textLength="14" x="1300" y="273.252">6</text><text fill="#000000" font-family="sans-serif" font-size="20" lengthAdjust="spacing" textLength="223" x="1318" y="273.252">toPersitence(building)</text><polygon fill="#181818" points="1717.5,343.25,1727.5,347.25,1717.5,351.25,1721.5,347.25" style="stroke:#181818;stroke-width:1.0;"/><line style="stroke:#181818;stroke-width:1.0;" x1="1293" x2="1723.5" y1="347.25" y2="347.25"/><text fill="#000000" font-family="sans-serif" font-size="20" font-weight="bold" lengthAdjust="spacing" textLength="14" x="1300" y="340.5332">7</text><text fill="#000000" font-family="sans-serif" font-size="20" lengthAdjust="spacing" textLength="79" x="1318" y="340.5332">create()</text><rect fill="#E2E2F0" height="37.2813" rx="2.5" ry="2.5" style="stroke:#181818;stroke-width:0.5;" width="422" x="1729.5" y="317.9688"/><text fill="#000000" font-family="sans-serif" font-size="20" lengthAdjust="spacing" textLength="408" x="1736.5" y="343.5332">buildingPersistence:IBuildingPersistence</text><polygon fill="#181818" points="2369.5,391.5313,2379.5,395.5313,2369.5,399.5313,2373.5,395.5313" style="stroke:#181818;stroke-width:1.0;"/><line style="stroke:#181818;stroke-width:1.0;" x1="1293" x2="2375.5" y1="395.5313" y2="395.5313"/><text fill="#000000" font-family="sans-serif" font-size="20" font-weight="bold" lengthAdjust="spacing" textLength="14" x="1300" y="388.8145">8</text><text fill="#000000" font-family="sans-serif" font-size="20" lengthAdjust="spacing" textLength="276" x="1318" y="388.8145">create(buildingPersistence)</text><polygon fill="#181818" points="1629,458.8125,1639,462.8125,1629,466.8125,1633,462.8125" style="stroke:#181818;stroke-width:1.0;"/><line style="stroke:#181818;stroke-width:1.0;" x1="1293" x2="1635" y1="462.8125" y2="462.8125"/><text fill="#000000" font-family="sans-serif" font-size="20" font-weight="bold" lengthAdjust="spacing" textLength="14" x="1300" y="456.0957">9</text><text fill="#000000" font-family="sans-serif" font-size="20" lengthAdjust="spacing" textLength="311" x="1318" y="456.0957">toDomain(buildingPersistence)</text><polygon fill="#181818" points="2609.5,496.0938,2619.5,500.0938,2609.5,504.0938,2613.5,500.0938" style="stroke:#181818;stroke-width:1.0;"/><line style="stroke:#181818;stroke-width:1.0;" x1="1646" x2="2615.5" y1="500.0938" y2="500.0938"/><text fill="#000000" font-family="sans-serif" font-size="20" font-weight="bold" lengthAdjust="spacing" textLength="28" x="1653" y="493.377">10</text><text fill="#000000" font-family="sans-serif" font-size="20" lengthAdjust="spacing" textLength="79" x="1685" y="493.377">create()</text><rect fill="#E2E2F0" height="37.2813" rx="2.5" ry="2.5" style="stroke:#181818;stroke-width:0.5;" width="238" x="2621.5" y="470.8125"/><text fill="#000000" font-family="sans-serif" font-size="20" lengthAdjust="spacing" textLength="224" x="2628.5" y="496.377">:newBuilding:Building</text><polygon fill="#181818" points="895,544.375,885,548.375,895,552.375,891,548.375" style="stroke:#181818;stroke-width:1.0;"/><line style="stroke:#181818;stroke-width:1.0;stroke-dasharray:2.0,2.0;" x1="889" x2="1287" y1="548.375" y2="548.375"/><text fill="#000000" font-family="sans-serif" font-size="20" font-weight="bold" lengthAdjust="spacing" textLength="28" x="901" y="541.6582">11</text><text fill="#000000" font-family="sans-serif" font-size="20" lengthAdjust="spacing" textLength="126" x="933" y="541.6582">newBuilding</text><polygon fill="#181818" points="1629,581.6563,1639,585.6563,1629,589.6563,1633,585.6563" style="stroke:#181818;stroke-width:1.0;"/><line style="stroke:#181818;stroke-width:1.0;" x1="884" x2="1635" y1="585.6563" y2="585.6563"/><text fill="#000000" font-family="sans-serif" font-size="20" font-weight="bold" lengthAdjust="spacing" textLength="28" x="891" y="578.9395">12</text><text fill="#000000" font-family="sans-serif" font-size="20" lengthAdjust="spacing" textLength="197" x="923" y="578.9395">toDto(newBuilding)</text><polygon fill="#181818" points="2857.5,618.9375,2867.5,622.9375,2857.5,626.9375,2861.5,622.9375" style="stroke:#181818;stroke-width:1.0;"/><line style="stroke:#181818;stroke-width:1.0;" x1="1646" x2="2863.5" y1="622.9375" y2="622.9375"/><text fill="#000000" font-family="sans-serif" font-size="20" font-weight="bold" lengthAdjust="spacing" textLength="28" x="1653" y="616.2207">13</text><text fill="#000000" font-family="sans-serif" font-size="20" lengthAdjust="spacing" textLength="79" x="1685" y="616.2207">create()</text><rect fill="#E2E2F0" height="37.2813" rx="2.5" ry="2.5" style="stroke:#181818;stroke-width:0.5;" width="287" x="2869.5" y="593.6563"/><text fill="#000000" font-family="sans-serif" font-size="20" lengthAdjust="spacing" textLength="273" x="2876.5" y="619.2207">:buildingDTO:IBuildingDTO</text><polygon fill="#181818" points="559,667.2188,549,671.2188,559,675.2188,555,671.2188" style="stroke:#181818;stroke-width:1.0;"/><line style="stroke:#181818;stroke-width:1.0;stroke-dasharray:2.0,2.0;" x1="553" x2="878" y1="671.2188" y2="671.2188"/><text fill="#000000" font-family="sans-serif" font-size="20" font-weight="bold" lengthAdjust="spacing" textLength="28" x="565" y="664.502">14</text><text fill="#000000" font-family="sans-serif" font-size="20" lengthAdjust="spacing" textLength="208" x="597" y="664.502">sucess(buildingDTO)</text><polygon fill="#181818" points="225,704.5,215,708.5,225,712.5,221,708.5" style="stroke:#181818;stroke-width:1.0;"/><line style="stroke:#181818;stroke-width:1.0;stroke-dasharray:2.0,2.0;" x1="219" x2="542" y1="708.5" y2="708.5"/><text fill="#000000" font-family="sans-serif" font-size="20" font-weight="bold" lengthAdjust="spacing" textLength="28" x="231" y="701.7832">15</text><text fill="#000000" font-family="sans-serif" font-size="20" lengthAdjust="spacing" textLength="208" x="263" y="701.7832">sucess(buildingDTO)</text><polygon fill="#181818" points="11,741.7813,1,745.7813,11,749.7813,7,745.7813" style="stroke:#181818;stroke-width:1.0;"/><line style="stroke:#181818;stroke-width:1.0;stroke-dasharray:2.0,2.0;" x1="5" x2="208" y1="745.7813" y2="745.7813"/><text fill="#000000" font-family="sans-serif" font-size="20" font-weight="bold" lengthAdjust="spacing" textLength="28" x="17" y="739.0645">16</text><text fill="#000000" font-family="sans-serif" font-size="20" lengthAdjust="spacing" textLength="124" x="49" y="739.0645">201 Created</text><!--SRC=[XP9HQy8m58NVyok23qC5cVEnY6Er3WIrfQrxZ-tT2DP4cjJ1VlsIsDQa5drCyfsJU- -vuaZPcPJaLF3i23dEuPjKXVpaJ2Rq3_1iYaWbEQjE1oYH8YNDw9amYUDmdwum4NZW-HKjSif-Obv963ZKCeqtBhHKrYKl2YXTCec_N321yaApZf-_Ns-2AtUekLRWal4g2ZlbmPcxpFOZSf4jERj4j8eJWpI_HL0AAYIm3BorVt_P-I0CLdN_Mvv3CU-Ju1SSyAmw0PCBLxwpscNmwp_kE4X3TpBgubQZEWmGUkUJHHsTXwCmIV5hGmj4CaalHC8LGEZAAO59qSDP2UgrCHn20OhcfN8UtRIQHKQWX3hKEvrLdgLJADAuKfckn-DMEHmrBoPK3mjoWTR6yj3Fo32ArU5wM78pQJFeFecYK0xEiJ7GsRjLjDOcrlQXPpVi7pJi_64kkcK6_4GeU-QbojC2fTlrJActaJO6QuDiqWojdczRZEH32- -lGENty7lZUTiUKMKWX9k-fT3vNzV6sj0d6hDhyycavMVJDxmqvUHEYsQV_m40]--></g></svg>