<?xml version="1.0" encoding="UTF-8" standalone="no"?><svg xmlns="http://www.w3.org/2000/svg" xmlns:xlink="http://www.w3.org/1999/xlink" contentStyleType="text/css" height="607px" preserveAspectRatio="none" style="width:2279px;height:607px;background:#FFFFFF;" version="1.1" viewBox="0 0 2279 607" width="2279px" zoomAndPan="magnify"><defs/><g><rect fill="#FFFFFF" height="453.1598" style="stroke:#181818;stroke-width:1.0;" width="10" x="189.625" y="90.4799"/><rect fill="#FFFFFF" height="370.6798" style="stroke:#181818;stroke-width:1.0;" width="10" x="451.25" y="131.7199"/><rect fill="#FFFFFF" height="288.1999" style="stroke:#181818;stroke-width:1.0;" width="10" x="758.875" y="172.9599"/><rect fill="#FFFFFF" height="194.7199" style="stroke:#181818;stroke-width:1.0;" width="10" x="1129.5" y="266.4398"/><rect fill="#FFFFFF" height="30" style="stroke:#181818;stroke-width:1.0;" width="10" x="1377.125" y="307.6798"/><rect fill="#FFFFFF" height="30" style="stroke:#181818;stroke-width:1.0;" width="10" x="2062.125" y="431.1598"/><line style="stroke:#181818;stroke-width:0.5;stroke-dasharray:5.0,5.0;" x1="194.125" x2="194.125" y1="47.24" y2="561.6397"/><line style="stroke:#181818;stroke-width:0.5;stroke-dasharray:5.0,5.0;" x1="456.25" x2="456.25" y1="47.24" y2="561.6397"/><line style="stroke:#181818;stroke-width:0.5;stroke-dasharray:5.0,5.0;" x1="763.375" x2="763.375" y1="47.24" y2="561.6397"/><line style="stroke:#181818;stroke-width:0.5;stroke-dasharray:5.0,5.0;" x1="965.5" x2="965.5" y1="217.0799" y2="561.6397"/><line style="stroke:#181818;stroke-width:0.5;stroke-dasharray:5.0,5.0;" x1="1134.5" x2="1134.5" y1="47.24" y2="561.6397"/><line style="stroke:#181818;stroke-width:0.5;stroke-dasharray:5.0,5.0;" x1="1382.125" x2="1382.125" y1="47.24" y2="561.6397"/><line style="stroke:#181818;stroke-width:0.5;stroke-dasharray:5.0,5.0;" x1="1655.125" x2="1655.125" y1="381.7998" y2="561.6397"/><line style="stroke:#181818;stroke-width:0.5;stroke-dasharray:5.0,5.0;" x1="2067.125" x2="2067.125" y1="47.24" y2="561.6397"/><rect fill="#E2E2F0" height="41.24" rx="2.5" ry="2.5" style="stroke:#181818;stroke-width:0.5;" width="149" x="120.125" y="5"/><text fill="#000000" font-family="sans-serif" font-size="20" lengthAdjust="spacing" textLength="135" x="127.125" y="33.38">:BuildingRoute</text><rect fill="#E2E2F0" height="41.24" rx="2.5" ry="2.5" style="stroke:#181818;stroke-width:0.5;" width="149" x="120.125" y="560.6397"/><text fill="#000000" font-family="sans-serif" font-size="20" lengthAdjust="spacing" textLength="135" x="127.125" y="589.0197">:BuildingRoute</text><rect fill="#E2E2F0" height="41.24" rx="2.5" ry="2.5" style="stroke:#181818;stroke-width:0.5;" width="188" x="362.25" y="5"/><text fill="#000000" font-family="sans-serif" font-size="20" lengthAdjust="spacing" textLength="174" x="369.25" y="33.38">:BuildingController</text><rect fill="#E2E2F0" height="41.24" rx="2.5" ry="2.5" style="stroke:#181818;stroke-width:0.5;" width="188" x="362.25" y="560.6397"/><text fill="#000000" font-family="sans-serif" font-size="20" lengthAdjust="spacing" textLength="174" x="369.25" y="589.0197">:BuildingController</text><rect fill="#E2E2F0" height="41.24" rx="2.5" ry="2.5" style="stroke:#181818;stroke-width:0.5;" width="161" x="683.375" y="5"/><text fill="#000000" font-family="sans-serif" font-size="20" lengthAdjust="spacing" textLength="147" x="690.375" y="33.38">:BuildingService</text><rect fill="#E2E2F0" height="41.24" rx="2.5" ry="2.5" style="stroke:#181818;stroke-width:0.5;" width="161" x="683.375" y="560.6397"/><text fill="#000000" font-family="sans-serif" font-size="20" lengthAdjust="spacing" textLength="147" x="690.375" y="589.0197">:BuildingService</text><rect fill="#E2E2F0" height="41.24" rx="2.5" ry="2.5" style="stroke:#181818;stroke-width:0.5;" width="175" x="878.5" y="560.6397"/><text fill="#000000" font-family="sans-serif" font-size="20" lengthAdjust="spacing" textLength="161" x="885.5" y="589.0197">:building:Building</text><rect fill="#E2E2F0" height="41.24" rx="2.5" ry="2.5" style="stroke:#181818;stroke-width:0.5;" width="142" x="1063.5" y="5"/><text fill="#000000" font-family="sans-serif" font-size="20" lengthAdjust="spacing" textLength="128" x="1070.5" y="33.38">:BuildingRepo</text><rect fill="#E2E2F0" height="41.24" rx="2.5" ry="2.5" style="stroke:#181818;stroke-width:0.5;" width="142" x="1063.5" y="560.6397"/><text fill="#000000" font-family="sans-serif" font-size="20" lengthAdjust="spacing" textLength="128" x="1070.5" y="589.0197">:BuildingRepo</text><rect fill="#E2E2F0" height="41.24" rx="2.5" ry="2.5" style="stroke:#181818;stroke-width:0.5;" width="136" x="1314.125" y="5"/><text fill="#000000" font-family="sans-serif" font-size="20" lengthAdjust="spacing" textLength="122" x="1321.125" y="33.38">:BuildingMap</text><rect fill="#E2E2F0" height="41.24" rx="2.5" ry="2.5" style="stroke:#181818;stroke-width:0.5;" width="136" x="1314.125" y="560.6397"/><text fill="#000000" font-family="sans-serif" font-size="20" lengthAdjust="spacing" textLength="122" x="1321.125" y="589.0197">:BuildingMap</text><rect fill="#E2E2F0" height="41.24" rx="2.5" ry="2.5" style="stroke:#181818;stroke-width:0.5;" width="391" x="1460.125" y="560.6397"/><text fill="#000000" font-family="sans-serif" font-size="20" lengthAdjust="spacing" textLength="377" x="1467.125" y="589.0197">buildingPersistence:IBuildingPersistence</text><rect fill="#E2E2F0" height="41.24" rx="2.5" ry="2.5" style="stroke:#181818;stroke-width:0.5;" width="412" x="1861.125" y="5"/><text fill="#000000" font-family="sans-serif" font-size="20" lengthAdjust="spacing" textLength="398" x="1868.125" y="33.38">:Model&lt;IBuildingPersistence &amp; Document&gt;</text><rect fill="#E2E2F0" height="41.24" rx="2.5" ry="2.5" style="stroke:#181818;stroke-width:0.5;" width="412" x="1861.125" y="560.6397"/><text fill="#000000" font-family="sans-serif" font-size="20" lengthAdjust="spacing" textLength="398" x="1868.125" y="589.0197">:Model&lt;IBuildingPersistence &amp; Document&gt;</text><rect fill="#FFFFFF" height="453.1598" style="stroke:#181818;stroke-width:1.0;" width="10" x="189.625" y="90.4799"/><rect fill="#FFFFFF" height="370.6798" style="stroke:#181818;stroke-width:1.0;" width="10" x="451.25" y="131.7199"/><rect fill="#FFFFFF" height="288.1999" style="stroke:#181818;stroke-width:1.0;" width="10" x="758.875" y="172.9599"/><rect fill="#FFFFFF" height="194.7199" style="stroke:#181818;stroke-width:1.0;" width="10" x="1129.5" y="266.4398"/><rect fill="#FFFFFF" height="30" style="stroke:#181818;stroke-width:1.0;" width="10" x="1377.125" y="307.6798"/><rect fill="#FFFFFF" height="30" style="stroke:#181818;stroke-width:1.0;" width="10" x="2062.125" y="431.1598"/><ellipse cx="4.5" cy="89.7299" fill="none" rx="4" ry="4" style="stroke:#181818;stroke-width:1.5;"/><polygon fill="#181818" points="177.625,86.4799,187.625,90.4799,177.625,94.4799,181.625,90.4799" style="stroke:#181818;stroke-width:1.0;"/><line style="stroke:#181818;stroke-width:1.0;" x1="9" x2="183.625" y1="90.4799" y2="90.4799"/><text fill="#000000" font-family="sans-serif" font-size="20" font-weight="bold" lengthAdjust="spacing" textLength="11.625" x="12" y="82.62">1</text><text fill="#000000" font-family="sans-serif" font-size="20" lengthAdjust="spacing" textLength="147" x="27.625" y="82.62">POST /buildings</text><polygon fill="#181818" points="439.25,127.7199,449.25,131.7199,439.25,135.7199,443.25,131.7199" style="stroke:#181818;stroke-width:1.0;"/><line style="stroke:#181818;stroke-width:1.0;" x1="199.625" x2="445.25" y1="131.7199" y2="131.7199"/><text fill="#000000" font-family="sans-serif" font-size="20" font-weight="bold" lengthAdjust="spacing" textLength="11.625" x="206.625" y="123.8599">2</text><text fill="#000000" font-family="sans-serif" font-size="20" lengthAdjust="spacing" textLength="217" x="222.25" y="123.8599">createBuilding(request)</text><polygon fill="#181818" points="746.875,168.9599,756.875,172.9599,746.875,176.9599,750.875,172.9599" style="stroke:#181818;stroke-width:1.0;"/><line style="stroke:#181818;stroke-width:1.0;" x1="461.25" x2="752.875" y1="172.9599" y2="172.9599"/><text fill="#000000" font-family="sans-serif" font-size="20" font-weight="bold" lengthAdjust="spacing" textLength="11.625" x="468.25" y="165.0999">3</text><text fill="#000000" font-family="sans-serif" font-size="20" lengthAdjust="spacing" textLength="263" x="483.875" y="165.0999">createBuilding(buildingDTO)</text><polygon fill="#181818" points="866.5,210.1999,876.5,214.1999,866.5,218.1999,870.5,214.1999" style="stroke:#181818;stroke-width:1.0;"/><line style="stroke:#181818;stroke-width:1.0;" x1="768.875" x2="872.5" y1="214.1999" y2="214.1999"/><text fill="#000000" font-family="sans-serif" font-size="20" font-weight="bold" lengthAdjust="spacing" textLength="11.625" x="775.875" y="206.3399">4</text><text fill="#000000" font-family="sans-serif" font-size="20" lengthAdjust="spacing" textLength="70" x="791.5" y="206.3399">create()</text><rect fill="#E2E2F0" height="41.24" rx="2.5" ry="2.5" style="stroke:#181818;stroke-width:0.5;" width="175" x="878.5" y="180.9599"/><text fill="#000000" font-family="sans-serif" font-size="20" lengthAdjust="spacing" textLength="161" x="885.5" y="209.3399">:building:Building</text><polygon fill="#181818" points="1117.5,262.4398,1127.5,266.4398,1117.5,270.4398,1121.5,266.4398" style="stroke:#181818;stroke-width:1.0;"/><line style="stroke:#181818;stroke-width:1.0;" x1="768.875" x2="1123.5" y1="266.4398" y2="266.4398"/><text fill="#000000" font-family="sans-serif" font-size="20" font-weight="bold" lengthAdjust="spacing" textLength="11.625" x="775.875" y="258.5799">5</text><text fill="#000000" font-family="sans-serif" font-size="20" lengthAdjust="spacing" textLength="129" x="791.5" y="258.5799">save(building)</text><polygon fill="#181818" points="1365.125,303.6798,1375.125,307.6798,1365.125,311.6798,1369.125,307.6798" style="stroke:#181818;stroke-width:1.0;"/><line style="stroke:#181818;stroke-width:1.0;" x1="1139.5" x2="1371.125" y1="307.6798" y2="307.6798"/><text fill="#000000" font-family="sans-serif" font-size="20" font-weight="bold" lengthAdjust="spacing" textLength="11.625" x="1146.5" y="299.8198">6</text><text fill="#000000" font-family="sans-serif" font-size="20" lengthAdjust="spacing" textLength="203" x="1162.125" y="299.8198">toPersitence(building)</text><polygon fill="#181818" points="1448.125,374.9198,1458.125,378.9198,1448.125,382.9198,1452.125,378.9198" style="stroke:#181818;stroke-width:1.0;"/><line style="stroke:#181818;stroke-width:1.0;" x1="1139.5" x2="1454.125" y1="378.9198" y2="378.9198"/><text fill="#000000" font-family="sans-serif" font-size="20" font-weight="bold" lengthAdjust="spacing" textLength="11.625" x="1146.5" y="371.0598">7</text><text fill="#000000" font-family="sans-serif" font-size="20" lengthAdjust="spacing" textLength="70" x="1162.125" y="371.0598">create()</text><rect fill="#E2E2F0" height="41.24" rx="2.5" ry="2.5" style="stroke:#181818;stroke-width:0.5;" width="391" x="1460.125" y="345.6798"/><text fill="#000000" font-family="sans-serif" font-size="20" lengthAdjust="spacing" textLength="377" x="1467.125" y="374.0598">buildingPersistence:IBuildingPersistence</text><polygon fill="#181818" points="2050.125,427.1598,2060.125,431.1598,2050.125,435.1598,2054.125,431.1598" style="stroke:#181818;stroke-width:1.0;"/><line style="stroke:#181818;stroke-width:1.0;" x1="1139.5" x2="2056.125" y1="431.1598" y2="431.1598"/><text fill="#000000" font-family="sans-serif" font-size="20" font-weight="bold" lengthAdjust="spacing" textLength="11.625" x="1146.5" y="423.2998">8</text><text fill="#000000" font-family="sans-serif" font-size="20" lengthAdjust="spacing" textLength="252" x="1162.125" y="423.2998">create(buildingPersistence)</text><polygon fill="#181818" points="210.625,498.3997,200.625,502.3997,210.625,506.3997,206.625,502.3997" style="stroke:#181818;stroke-width:1.0;"/><line style="stroke:#181818;stroke-width:1.0;stroke-dasharray:2.0,2.0;" x1="204.625" x2="455.25" y1="502.3997" y2="502.3997"/><text fill="#000000" font-family="sans-serif" font-size="20" font-weight="bold" lengthAdjust="spacing" textLength="11.625" x="216.625" y="494.5398">9</text><text fill="#000000" font-family="sans-serif" font-size="20" lengthAdjust="spacing" textLength="75" x="232.25" y="494.5398">building</text><polygon fill="#181818" points="11,539.6397,1,543.6397,11,547.6397,7,543.6397" style="stroke:#181818;stroke-width:1.0;"/><line style="stroke:#181818;stroke-width:1.0;stroke-dasharray:2.0,2.0;" x1="5" x2="193.625" y1="543.6397" y2="543.6397"/><text fill="#000000" font-family="sans-serif" font-size="20" font-weight="bold" lengthAdjust="spacing" textLength="23.25" x="17" y="535.7797">10</text><text fill="#000000" font-family="sans-serif" font-size="20" lengthAdjust="spacing" textLength="111" x="44.25" y="535.7797">201 Created</text><!--SRC=[RP7DRi8m48JlVWgBGmMLK2d7254Laaf8e4H9wDqusyeYsAb_EFJfQpiaZGF7UB-PsSogC-CDaUHI2tg62bVmHKojFmJN1Vi5l5mWOhJWvd82YIof6MKDuHhdwR5CC55u4cqCgol6ltDXD4m2Qblc-n3QMcifwXfaI1RvPmWM8A-CZlmsnzq-RhdJZUi58PadMJfQ3neHCeVtB4GEf0c9BCaBZtHf6KZ5b0PE8TfjxXz70McStFx_82geLuya-0d7WfeBSBsU8FGcvkjRkn7EqgB4BrsuGeHgTYKQMW2XbhC2NtI4gGGxxKAc4duCA3txrpaEUTYANETtcYuiBjE1pgB8uLRbR_3yt2kdisxYEu-m8bVeRGOURemyOrdNVOIry4Nu7Xv9B8Kg23ux0tUQS8lUshVU3nwSRfZWu21Z_E3N7doxAje61uVgGeQWxterd_VGSl6AjtwfAWZmj_m3]--></g></svg>