<?xml version="1.0" encoding="UTF-8" standalone="no"?><svg xmlns="http://www.w3.org/2000/svg" xmlns:xlink="http://www.w3.org/1999/xlink" contentStyleType="text/css" height="1159px" preserveAspectRatio="none" style="width:2004px;height:1159px;background:#FFFFFF;" version="1.1" viewBox="0 0 2004 1159" width="2004px" zoomAndPan="magnify"><defs/><g><rect fill="#DDDDDD" height="1147.2393" style="stroke:#181818;stroke-width:0.5;" width="1039.5" x="646.75" y="6"/><text fill="#000000" font-family="sans-serif" font-size="20" font-weight="bold" lengthAdjust="spacing" textLength="128.875" x="1102.0625" y="27.38">«system (C4»</text><text fill="#000000" font-family="sans-serif" font-size="20" font-weight="bold" lengthAdjust="spacing" textLength="124.125" x="1104.4375" y="54.62">Visualization</text><rect fill="#FFFFE0" height="1147.2393" style="stroke:#181818;stroke-width:0.5;" width="184" x="1814.5" y="6"/><text fill="#000000" font-family="sans-serif" font-size="20" font-weight="bold" lengthAdjust="spacing" textLength="135.5" x="1838.75" y="27.38">«system (C4)»</text><text fill="#000000" font-family="sans-serif" font-size="20" font-weight="bold" lengthAdjust="spacing" textLength="169.5" x="1821.75" y="54.62">MD Management</text><rect fill="#FFFFFF" height="901.0395" style="stroke:#181818;stroke-width:1.0;" width="10" x="85.5" y="143.9599"/><rect fill="#FFFFFF" height="371.1598" style="stroke:#181818;stroke-width:1.0;" width="10" x="733.75" y="177.1999"/><rect fill="#FFFFFF" height="455.3997" style="stroke:#181818;stroke-width:1.0;" width="10" x="733.75" y="589.5996"/><rect fill="#FFFFFF" height="288.6798" style="stroke:#181818;stroke-width:1.0;" width="10" x="1000.375" y="218.4398"/><rect fill="#FFFFFF" height="372.9198" style="stroke:#181818;stroke-width:1.0;" width="10" x="1000.375" y="630.8396"/><rect fill="#FFFFFF" height="28" style="stroke:#181818;stroke-width:1.0;" width="10" x="1005.375" y="680.0796"/><rect fill="#FFFFFF" height="206.1999" style="stroke:#181818;stroke-width:1.0;" width="10" x="1267" y="259.6798"/><rect fill="#FFFFFF" height="206.1999" style="stroke:#181818;stroke-width:1.0;" width="10" x="1267" y="756.3195"/><rect fill="#FFFFFF" height="123.7199" style="stroke:#181818;stroke-width:1.0;" width="10" x="1589.25" y="300.9198"/><rect fill="#FFFFFF" height="123.7199" style="stroke:#181818;stroke-width:1.0;" width="10" x="1589.25" y="797.5595"/><rect fill="#FFFFFF" height="41.24" style="stroke:#181818;stroke-width:1.0;" width="10" x="1901.5" y="838.7995"/><line style="stroke:#181818;stroke-width:0.5;stroke-dasharray:5.0,5.0;" x1="90" x2="90" y1="133.9599" y2="1062.9994"/><line style="stroke:#181818;stroke-width:0.5;stroke-dasharray:5.0,5.0;" x1="738.75" x2="738.75" y1="133.9599" y2="1062.9994"/><line style="stroke:#181818;stroke-width:0.5;stroke-dasharray:5.0,5.0;" x1="1005.375" x2="1005.375" y1="133.9599" y2="1062.9994"/><line style="stroke:#181818;stroke-width:0.5;stroke-dasharray:5.0,5.0;" x1="1272" x2="1272" y1="133.9599" y2="1062.9994"/><line style="stroke:#181818;stroke-width:0.5;stroke-dasharray:5.0,5.0;" x1="1594.25" x2="1594.25" y1="133.9599" y2="1062.9994"/><line style="stroke:#181818;stroke-width:0.5;stroke-dasharray:5.0,5.0;" x1="1906.5" x2="1906.5" y1="133.9599" y2="1062.9994"/><text fill="#000000" font-family="sans-serif" font-size="20" lengthAdjust="spacing" textLength="165" x="5" y="128.0999">Campus Manager</text><ellipse cx="90.5" cy="55.2199" fill="#E2E2F0" rx="8" ry="8" style="stroke:#181818;stroke-width:0.5;"/><path d="M90.5,63.2199 L90.5,90.2199 M77.5,71.2199 L103.5,71.2199 M90.5,90.2199 L77.5,105.2199 M90.5,90.2199 L103.5,105.2199 " fill="none" style="stroke:#181818;stroke-width:0.5;"/><text fill="#000000" font-family="sans-serif" font-size="20" lengthAdjust="spacing" textLength="165" x="5" y="1083.3794">Campus Manager</text><ellipse cx="90.5" cy="1097.7393" fill="#E2E2F0" rx="8" ry="8" style="stroke:#181818;stroke-width:0.5;"/><path d="M90.5,1105.7393 L90.5,1132.7393 M77.5,1113.7393 L103.5,1113.7393 M90.5,1132.7393 L77.5,1147.7393 M90.5,1132.7393 L103.5,1147.7393 " fill="none" style="stroke:#181818;stroke-width:0.5;"/><rect fill="#E2E2F0" height="68.4799" rx="2.5" ry="2.5" style="stroke:#181818;stroke-width:0.5;" width="176" x="650.75" y="64.4799"/><text fill="#000000" font-family="sans-serif" font-size="20" font-style="italic" lengthAdjust="spacing" textLength="162" x="657.75" y="92.8599">«component (C4)»</text><text fill="#000000" font-family="sans-serif" font-size="20" lengthAdjust="spacing" textLength="137" x="670.25" y="120.0999">UI Component</text><rect fill="#E2E2F0" height="68.4799" rx="2.5" ry="2.5" style="stroke:#181818;stroke-width:0.5;" width="176" x="650.75" y="1061.9994"/><text fill="#000000" font-family="sans-serif" font-size="20" font-style="italic" lengthAdjust="spacing" textLength="162" x="657.75" y="1090.3794">«component (C4)»</text><text fill="#000000" font-family="sans-serif" font-size="20" lengthAdjust="spacing" textLength="137" x="670.25" y="1117.6193">UI Component</text><rect fill="#E2E2F0" height="68.4799" rx="2.5" ry="2.5" style="stroke:#181818;stroke-width:0.5;" width="176" x="917.375" y="64.4799"/><text fill="#000000" font-family="sans-serif" font-size="20" font-style="italic" lengthAdjust="spacing" textLength="162" x="924.375" y="92.8599">«component (C4)»</text><text fill="#000000" font-family="sans-serif" font-size="20" lengthAdjust="spacing" textLength="70" x="970.375" y="120.0999">Module</text><rect fill="#E2E2F0" height="68.4799" rx="2.5" ry="2.5" style="stroke:#181818;stroke-width:0.5;" width="176" x="917.375" y="1061.9994"/><text fill="#000000" font-family="sans-serif" font-size="20" font-style="italic" lengthAdjust="spacing" textLength="162" x="924.375" y="1090.3794">«component (C4)»</text><text fill="#000000" font-family="sans-serif" font-size="20" lengthAdjust="spacing" textLength="70" x="970.375" y="1117.6193">Module</text><rect fill="#E2E2F0" height="68.4799" rx="2.5" ry="2.5" style="stroke:#181818;stroke-width:0.5;" width="176" x="1184" y="64.4799"/><text fill="#000000" font-family="sans-serif" font-size="20" font-style="italic" lengthAdjust="spacing" textLength="162" x="1191" y="92.8599">«component (C4)»</text><text fill="#000000" font-family="sans-serif" font-size="20" lengthAdjust="spacing" textLength="66" x="1239" y="120.0999">Service</text><rect fill="#E2E2F0" height="68.4799" rx="2.5" ry="2.5" style="stroke:#181818;stroke-width:0.5;" width="176" x="1184" y="1061.9994"/><text fill="#000000" font-family="sans-serif" font-size="20" font-style="italic" lengthAdjust="spacing" textLength="162" x="1191" y="1090.3794">«component (C4)»</text><text fill="#000000" font-family="sans-serif" font-size="20" lengthAdjust="spacing" textLength="66" x="1239" y="1117.6193">Service</text><rect fill="#E2E2F0" height="68.4799" rx="2.5" ry="2.5" style="stroke:#181818;stroke-width:0.5;" width="176" x="1506.25" y="64.4799"/><text fill="#000000" font-family="sans-serif" font-size="20" font-style="italic" lengthAdjust="spacing" textLength="162" x="1513.25" y="92.8599">«component (C4)»</text><text fill="#000000" font-family="sans-serif" font-size="20" lengthAdjust="spacing" textLength="49" x="1569.75" y="120.0999">HTTP</text><rect fill="#E2E2F0" height="68.4799" rx="2.5" ry="2.5" style="stroke:#181818;stroke-width:0.5;" width="176" x="1506.25" y="1061.9994"/><text fill="#000000" font-family="sans-serif" font-size="20" font-style="italic" lengthAdjust="spacing" textLength="162" x="1513.25" y="1090.3794">«component (C4)»</text><text fill="#000000" font-family="sans-serif" font-size="20" lengthAdjust="spacing" textLength="49" x="1569.75" y="1117.6193">HTTP</text><rect fill="#E2E2F0" height="68.4799" rx="2.5" ry="2.5" style="stroke:#181818;stroke-width:0.5;" width="176" x="1818.5" y="64.4799"/><text fill="#000000" font-family="sans-serif" font-size="20" font-style="italic" lengthAdjust="spacing" textLength="162" x="1825.5" y="92.8599">«component (C4)»</text><text fill="#000000" font-family="sans-serif" font-size="20" lengthAdjust="spacing" textLength="162" x="1825.5" y="120.0999">MD Management</text><rect fill="#E2E2F0" height="68.4799" rx="2.5" ry="2.5" style="stroke:#181818;stroke-width:0.5;" width="176" x="1818.5" y="1061.9994"/><text fill="#000000" font-family="sans-serif" font-size="20" font-style="italic" lengthAdjust="spacing" textLength="162" x="1825.5" y="1090.3794">«component (C4)»</text><text fill="#000000" font-family="sans-serif" font-size="20" lengthAdjust="spacing" textLength="162" x="1825.5" y="1117.6193">MD Management</text><rect fill="#FFFFFF" height="901.0395" style="stroke:#181818;stroke-width:1.0;" width="10" x="85.5" y="143.9599"/><rect fill="#FFFFFF" height="371.1598" style="stroke:#181818;stroke-width:1.0;" width="10" x="733.75" y="177.1999"/><rect fill="#FFFFFF" height="455.3997" style="stroke:#181818;stroke-width:1.0;" width="10" x="733.75" y="589.5996"/><rect fill="#FFFFFF" height="288.6798" style="stroke:#181818;stroke-width:1.0;" width="10" x="1000.375" y="218.4398"/><rect fill="#FFFFFF" height="372.9198" style="stroke:#181818;stroke-width:1.0;" width="10" x="1000.375" y="630.8396"/><rect fill="#FFFFFF" height="28" style="stroke:#181818;stroke-width:1.0;" width="10" x="1005.375" y="680.0796"/><rect fill="#FFFFFF" height="206.1999" style="stroke:#181818;stroke-width:1.0;" width="10" x="1267" y="259.6798"/><rect fill="#FFFFFF" height="206.1999" style="stroke:#181818;stroke-width:1.0;" width="10" x="1267" y="756.3195"/><rect fill="#FFFFFF" height="123.7199" style="stroke:#181818;stroke-width:1.0;" width="10" x="1589.25" y="300.9198"/><rect fill="#FFFFFF" height="123.7199" style="stroke:#181818;stroke-width:1.0;" width="10" x="1589.25" y="797.5595"/><rect fill="#FFFFFF" height="41.24" style="stroke:#181818;stroke-width:1.0;" width="10" x="1901.5" y="838.7995"/><polygon fill="#181818" points="721.75,173.1999,731.75,177.1999,721.75,181.1999,725.75,177.1999" style="stroke:#181818;stroke-width:1.0;"/><line style="stroke:#181818;stroke-width:1.0;" x1="95.5" x2="727.75" y1="177.1999" y2="177.1999"/><text fill="#000000" font-family="sans-serif" font-size="20" font-weight="bold" lengthAdjust="spacing" textLength="11.625" x="102.5" y="169.3399">1</text><text fill="#000000" font-family="sans-serif" font-size="20" lengthAdjust="spacing" textLength="214" x="118.125" y="169.3399">asks to edit an elevator</text><polygon fill="#181818" points="988.375,214.4398,998.375,218.4398,988.375,222.4398,992.375,218.4398" style="stroke:#181818;stroke-width:1.0;"/><line style="stroke:#181818;stroke-width:1.0;" x1="743.75" x2="994.375" y1="218.4398" y2="218.4398"/><text fill="#000000" font-family="sans-serif" font-size="20" font-weight="bold" lengthAdjust="spacing" textLength="11.625" x="750.75" y="210.5799">2</text><text fill="#000000" font-family="sans-serif" font-size="20" lengthAdjust="spacing" textLength="222" x="766.375" y="210.5799">get elevator for building</text><polygon fill="#181818" points="1255,255.6798,1265,259.6798,1255,263.6798,1259,259.6798" style="stroke:#181818;stroke-width:1.0;"/><line style="stroke:#181818;stroke-width:1.0;" x1="1010.375" x2="1261" y1="259.6798" y2="259.6798"/><text fill="#000000" font-family="sans-serif" font-size="20" font-weight="bold" lengthAdjust="spacing" textLength="11.625" x="1017.375" y="251.8198">3</text><text fill="#000000" font-family="sans-serif" font-size="20" lengthAdjust="spacing" textLength="222" x="1033" y="251.8198">get elevator for building</text><polygon fill="#181818" points="1577.25,296.9198,1587.25,300.9198,1577.25,304.9198,1581.25,300.9198" style="stroke:#181818;stroke-width:1.0;"/><line style="stroke:#181818;stroke-width:1.0;" x1="1277" x2="1583.25" y1="300.9198" y2="300.9198"/><text fill="#000000" font-family="sans-serif" font-size="20" font-weight="bold" lengthAdjust="spacing" textLength="11.625" x="1284" y="293.0598">4</text><text fill="#000000" font-family="sans-serif" font-size="20" lengthAdjust="spacing" textLength="265" x="1299.625" y="293.0598">get('/buildings/:id/elevators')</text><polygon fill="#181818" points="1894.5,338.1598,1904.5,342.1598,1894.5,346.1598,1898.5,342.1598" style="stroke:#181818;stroke-width:1.0;"/><line style="stroke:#181818;stroke-width:1.0;" x1="1599.25" x2="1900.5" y1="342.1598" y2="342.1598"/><text fill="#000000" font-family="sans-serif" font-size="20" font-weight="bold" lengthAdjust="spacing" textLength="11.625" x="1606.25" y="334.2998">5</text><text fill="#000000" font-family="sans-serif" font-size="20" lengthAdjust="spacing" textLength="255" x="1621.875" y="334.2998">GET /buildings/:id/elevators</text><polygon fill="#181818" points="1610.25,379.3997,1600.25,383.3997,1610.25,387.3997,1606.25,383.3997" style="stroke:#181818;stroke-width:1.0;"/><line style="stroke:#181818;stroke-width:1.0;stroke-dasharray:2.0,2.0;" x1="1604.25" x2="1905.5" y1="383.3997" y2="383.3997"/><text fill="#000000" font-family="sans-serif" font-size="20" font-weight="bold" lengthAdjust="spacing" textLength="11.625" x="1616.25" y="375.5398">6</text><text fill="#000000" font-family="sans-serif" font-size="20" lengthAdjust="spacing" textLength="125" x="1631.875" y="375.5398">200 (elevator)</text><polygon fill="#181818" points="1288,420.6397,1278,424.6397,1288,428.6397,1284,424.6397" style="stroke:#181818;stroke-width:1.0;"/><line style="stroke:#181818;stroke-width:1.0;stroke-dasharray:2.0,2.0;" x1="1282" x2="1593.25" y1="424.6397" y2="424.6397"/><text fill="#000000" font-family="sans-serif" font-size="20" font-weight="bold" lengthAdjust="spacing" textLength="11.625" x="1294" y="416.7797">7</text><text fill="#000000" font-family="sans-serif" font-size="20" lengthAdjust="spacing" textLength="75" x="1309.625" y="416.7797">elevator</text><polygon fill="#181818" points="1021.375,461.8797,1011.375,465.8797,1021.375,469.8797,1017.375,465.8797" style="stroke:#181818;stroke-width:1.0;"/><line style="stroke:#181818;stroke-width:1.0;stroke-dasharray:2.0,2.0;" x1="1015.375" x2="1271" y1="465.8797" y2="465.8797"/><text fill="#000000" font-family="sans-serif" font-size="20" font-weight="bold" lengthAdjust="spacing" textLength="11.625" x="1027.375" y="458.0197">8</text><text fill="#000000" font-family="sans-serif" font-size="20" lengthAdjust="spacing" textLength="75" x="1043" y="458.0197">elevator</text><polygon fill="#181818" points="754.75,503.1197,744.75,507.1197,754.75,511.1197,750.75,507.1197" style="stroke:#181818;stroke-width:1.0;"/><line style="stroke:#181818;stroke-width:1.0;stroke-dasharray:2.0,2.0;" x1="748.75" x2="1004.375" y1="507.1197" y2="507.1197"/><text fill="#000000" font-family="sans-serif" font-size="20" font-weight="bold" lengthAdjust="spacing" textLength="11.625" x="760.75" y="499.2597">9</text><text fill="#000000" font-family="sans-serif" font-size="20" lengthAdjust="spacing" textLength="75" x="776.375" y="499.2597">elevator</text><polygon fill="#181818" points="106.5,544.3596,96.5,548.3596,106.5,552.3596,102.5,548.3596" style="stroke:#181818;stroke-width:1.0;"/><line style="stroke:#181818;stroke-width:1.0;stroke-dasharray:2.0,2.0;" x1="100.5" x2="737.75" y1="548.3596" y2="548.3596"/><text fill="#000000" font-family="sans-serif" font-size="20" font-weight="bold" lengthAdjust="spacing" textLength="23.25" x="112.5" y="540.4997">10</text><text fill="#000000" font-family="sans-serif" font-size="20" lengthAdjust="spacing" textLength="186" x="139.75" y="540.4997">shows elevator data</text><polygon fill="#181818" points="721.75,585.5996,731.75,589.5996,721.75,593.5996,725.75,589.5996" style="stroke:#181818;stroke-width:1.0;"/><line style="stroke:#181818;stroke-width:1.0;" x1="95.5" x2="727.75" y1="589.5996" y2="589.5996"/><text fill="#000000" font-family="sans-serif" font-size="20" font-weight="bold" lengthAdjust="spacing" textLength="23.25" x="102.5" y="581.7396">11</text><text fill="#000000" font-family="sans-serif" font-size="20" lengthAdjust="spacing" textLength="592" x="129.75" y="581.7396">gives new elevator data (brand,serial number,description,floors)</text><polygon fill="#181818" points="988.375,626.8396,998.375,630.8396,988.375,634.8396,992.375,630.8396" style="stroke:#181818;stroke-width:1.0;"/><line style="stroke:#181818;stroke-width:1.0;" x1="743.75" x2="994.375" y1="630.8396" y2="630.8396"/><text fill="#000000" font-family="sans-serif" font-size="20" font-weight="bold" lengthAdjust="spacing" textLength="23.25" x="750.75" y="622.9796">12</text><text fill="#000000" font-family="sans-serif" font-size="20" lengthAdjust="spacing" textLength="195" x="778" y="622.9796">edit building elevator</text><line style="stroke:#181818;stroke-width:1.0;" x1="1015.375" x2="1057.375" y1="672.0796" y2="672.0796"/><line style="stroke:#181818;stroke-width:1.0;" x1="1057.375" x2="1057.375" y1="672.0796" y2="685.0796"/><line style="stroke:#181818;stroke-width:1.0;" x1="1016.375" x2="1057.375" y1="685.0796" y2="685.0796"/><polygon fill="#181818" points="1026.375,681.0796,1016.375,685.0796,1026.375,689.0796,1022.375,685.0796" style="stroke:#181818;stroke-width:1.0;"/><text fill="#000000" font-family="sans-serif" font-size="20" font-weight="bold" lengthAdjust="spacing" textLength="23.25" x="1022.375" y="664.2196">13</text><text fill="#000000" font-family="sans-serif" font-size="20" lengthAdjust="spacing" textLength="128" x="1049.625" y="664.2196">validates data</text><polygon fill="#181818" points="1255,752.3195,1265,756.3195,1255,760.3195,1259,756.3195" style="stroke:#181818;stroke-width:1.0;"/><line style="stroke:#181818;stroke-width:1.0;" x1="1010.375" x2="1261" y1="756.3195" y2="756.3195"/><text fill="#000000" font-family="sans-serif" font-size="20" font-weight="bold" lengthAdjust="spacing" textLength="23.25" x="1017.375" y="748.4596">14</text><text fill="#000000" font-family="sans-serif" font-size="20" lengthAdjust="spacing" textLength="143" x="1044.625" y="748.4596">edit an elevator</text><polygon fill="#181818" points="1577.25,793.5595,1587.25,797.5595,1577.25,801.5595,1581.25,797.5595" style="stroke:#181818;stroke-width:1.0;"/><line style="stroke:#181818;stroke-width:1.0;" x1="1277" x2="1583.25" y1="797.5595" y2="797.5595"/><text fill="#000000" font-family="sans-serif" font-size="20" font-weight="bold" lengthAdjust="spacing" textLength="23.25" x="1284" y="789.6995">15</text><text fill="#000000" font-family="sans-serif" font-size="20" lengthAdjust="spacing" textLength="266" x="1311.25" y="789.6995">put('/buildings/:id/elevators')</text><polygon fill="#181818" points="1889.5,834.7995,1899.5,838.7995,1889.5,842.7995,1893.5,838.7995" style="stroke:#181818;stroke-width:1.0;"/><line style="stroke:#181818;stroke-width:1.0;" x1="1599.25" x2="1895.5" y1="838.7995" y2="838.7995"/><text fill="#000000" font-family="sans-serif" font-size="20" font-weight="bold" lengthAdjust="spacing" textLength="23.25" x="1606.25" y="830.9395">16</text><text fill="#000000" font-family="sans-serif" font-size="20" lengthAdjust="spacing" textLength="256" x="1633.5" y="830.9395">PUT /buildings/:id/elevators</text><polygon fill="#181818" points="1610.25,876.0395,1600.25,880.0395,1610.25,884.0395,1606.25,880.0395" style="stroke:#181818;stroke-width:1.0;"/><line style="stroke:#181818;stroke-width:1.0;stroke-dasharray:2.0,2.0;" x1="1604.25" x2="1905.5" y1="880.0395" y2="880.0395"/><text fill="#000000" font-family="sans-serif" font-size="20" font-weight="bold" lengthAdjust="spacing" textLength="23.25" x="1616.25" y="872.1795">17</text><text fill="#000000" font-family="sans-serif" font-size="20" lengthAdjust="spacing" textLength="78" x="1643.5" y="872.1795">200 (OK)</text><polygon fill="#181818" points="1288,917.2794,1278,921.2794,1288,925.2794,1284,921.2794" style="stroke:#181818;stroke-width:1.0;"/><line style="stroke:#181818;stroke-width:1.0;stroke-dasharray:2.0,2.0;" x1="1282" x2="1593.25" y1="921.2794" y2="921.2794"/><text fill="#000000" font-family="sans-serif" font-size="20" font-weight="bold" lengthAdjust="spacing" textLength="23.25" x="1294" y="913.4195">18</text><text fill="#000000" font-family="sans-serif" font-size="20" lengthAdjust="spacing" textLength="114" x="1321.25" y="913.4195">newElevator</text><polygon fill="#181818" points="1021.375,958.5194,1011.375,962.5194,1021.375,966.5194,1017.375,962.5194" style="stroke:#181818;stroke-width:1.0;"/><line style="stroke:#181818;stroke-width:1.0;stroke-dasharray:2.0,2.0;" x1="1015.375" x2="1271" y1="962.5194" y2="962.5194"/><text fill="#000000" font-family="sans-serif" font-size="20" font-weight="bold" lengthAdjust="spacing" textLength="23.25" x="1027.375" y="954.6594">19</text><text fill="#000000" font-family="sans-serif" font-size="20" lengthAdjust="spacing" textLength="114" x="1054.625" y="954.6594">newElevator</text><polygon fill="#181818" points="754.75,999.7594,744.75,1003.7594,754.75,1007.7594,750.75,1003.7594" style="stroke:#181818;stroke-width:1.0;"/><line style="stroke:#181818;stroke-width:1.0;stroke-dasharray:2.0,2.0;" x1="748.75" x2="1004.375" y1="1003.7594" y2="1003.7594"/><text fill="#000000" font-family="sans-serif" font-size="20" font-weight="bold" lengthAdjust="spacing" textLength="23.25" x="760.75" y="995.8994">20</text><text fill="#000000" font-family="sans-serif" font-size="20" lengthAdjust="spacing" textLength="114" x="788" y="995.8994">newElevator</text><polygon fill="#181818" points="101.5,1040.9994,91.5,1044.9994,101.5,1048.9994,97.5,1044.9994" style="stroke:#181818;stroke-width:1.0;"/><line style="stroke:#181818;stroke-width:1.0;stroke-dasharray:2.0,2.0;" x1="95.5" x2="737.75" y1="1044.9994" y2="1044.9994"/><text fill="#000000" font-family="sans-serif" font-size="20" font-weight="bold" lengthAdjust="spacing" textLength="23.25" x="107.5" y="1037.1394">21</text><text fill="#000000" font-family="sans-serif" font-size="20" lengthAdjust="spacing" textLength="282" x="134.75" y="1037.1394">returns confirmation message</text><!--SRC=[ZPHFZzem4CNl_XGZUbWYWK2hdX12gc3xHssqgCkkLAaNamnPYyIER0Us- -axTWWX2Lbn02NmU-EPDoynUo5phdcMgcYFCSIuuqLgloffdyGxmlsKyS8gMMHRrCnKDAnAReDlzaig4fcXjFDvHD-e5mieBnZZaLKQbY5m0uCbp_B2GCWbJr0Fs5QzmM0-D_-CnGo6oy-BnL_v8ap1K_7EhL1oK9Ta07Io5P78kRHKSkrhFl-0fSfo9GaR0E7LZQiNT6JXuyhBGXKNATuWUFhzuWLFg0yYkaNnVRCfMtCNLtcKCT3ih6j0u1m8LoUBicgcamMVVedarVx1D5N7zbohqkAkjlTmMequS8ja9MEqeV72cpgZEdi3LW76mWANW2aIf_IbOkqaQwTnZiuWGNlcO4UVRI7IMCYa5X7874mQP-fD6WAPWqdZRVMYuTsa8ira9k99LSJS1RNKySoBN9Dapmo-FMoWJyeSCgxFkPzEOLZz6vmAdLi_Mn9Zyq3VxDcLQvWRoTjmzliQvSnoIvcFnoVAlAgZgVsAkUMNWjDAwYqcue0691wR6XXkDPVnoA0MF8NokHx5Q28jSlV8ZNQf8Z-2vhORo_R1g7oy4e-BJPU20ptGT3ZruzjkWAsX6mdfJs0t67dnSJ1QoMX5O_tyGJJg1bVXrPmy_WmQSn3MJWmjug4lDAtKzA3TuFI0tUnej8MM1Y8bTq9d_jKA6Hf3BufEY9e_iFy0]--></g></svg>