<?xml version="1.0" encoding="UTF-8" standalone="no"?><svg xmlns="http://www.w3.org/2000/svg" xmlns:xlink="http://www.w3.org/1999/xlink" contentStyleType="text/css" height="1056px" preserveAspectRatio="none" style="width:2179px;height:1056px;background:#FFFFFF;" version="1.1" viewBox="0 0 2179 1056" width="2179px" zoomAndPan="magnify"><defs/><g><rect fill="#DDDDDD" height="1044.3125" style="stroke:#181818;stroke-width:0.5;" width="1141" x="695" y="6"/><text fill="#000000" font-family="sans-serif" font-size="20" font-weight="bold" lengthAdjust="spacing" textLength="153" x="1189" y="24.5645">«system (C4»</text><text fill="#000000" font-family="sans-serif" font-size="20" font-weight="bold" lengthAdjust="spacing" textLength="147" x="1192" y="47.8457">Visualization</text><rect fill="#FFFFE0" height="1044.3125" style="stroke:#181818;stroke-width:0.5;" width="209" x="1964" y="6"/><text fill="#000000" font-family="sans-serif" font-size="20" font-weight="bold" lengthAdjust="spacing" textLength="162" x="1987.5" y="24.5645">«system (C4)»</text><text fill="#000000" font-family="sans-serif" font-size="20" font-weight="bold" lengthAdjust="spacing" textLength="193" x="1972" y="47.8457">MD Management</text><rect fill="#FFFFFF" height="817.9063" style="stroke:#181818;stroke-width:1.0;" width="10" x="90.5" y="128.125"/><rect fill="#FFFFFF" height="335.5313" style="stroke:#181818;stroke-width:1.0;" width="10" x="794.5" y="157.4063"/><rect fill="#FFFFFF" height="415.8125" style="stroke:#181818;stroke-width:1.0;" width="10" x="794.5" y="530.2188"/><rect fill="#FFFFFF" height="260.9688" style="stroke:#181818;stroke-width:1.0;" width="10" x="1083.5" y="194.6875"/><rect fill="#FFFFFF" height="341.25" style="stroke:#181818;stroke-width:1.0;" width="10" x="1083.5" y="567.5"/><rect fill="#FFFFFF" height="28" style="stroke:#181818;stroke-width:1.0;" width="10" x="1088.5" y="612.7813"/><rect fill="#FFFFFF" height="186.4063" style="stroke:#181818;stroke-width:1.0;" width="10" x="1372.5" y="231.9688"/><rect fill="#FFFFFF" height="186.4063" style="stroke:#181818;stroke-width:1.0;" width="10" x="1372.5" y="685.0625"/><rect fill="#FFFFFF" height="111.8438" style="stroke:#181818;stroke-width:1.0;" width="10" x="1726.5" y="269.25"/><rect fill="#FFFFFF" height="111.8438" style="stroke:#181818;stroke-width:1.0;" width="10" x="1726.5" y="722.3438"/><rect fill="#FFFFFF" height="37.2813" style="stroke:#181818;stroke-width:1.0;" width="10" x="2063.5" y="759.625"/><line style="stroke:#181818;stroke-width:0.5;stroke-dasharray:5.0,5.0;" x1="95" x2="95" y1="118.125" y2="964.0313"/><line style="stroke:#181818;stroke-width:0.5;stroke-dasharray:5.0,5.0;" x1="799" x2="799" y1="118.125" y2="964.0313"/><line style="stroke:#181818;stroke-width:0.5;stroke-dasharray:5.0,5.0;" x1="1088" x2="1088" y1="118.125" y2="964.0313"/><line style="stroke:#181818;stroke-width:0.5;stroke-dasharray:5.0,5.0;" x1="1377" x2="1377" y1="118.125" y2="964.0313"/><line style="stroke:#181818;stroke-width:0.5;stroke-dasharray:5.0,5.0;" x1="1731" x2="1731" y1="118.125" y2="964.0313"/><line style="stroke:#181818;stroke-width:0.5;stroke-dasharray:5.0,5.0;" x1="2068" x2="2068" y1="118.125" y2="964.0313"/><text fill="#000000" font-family="sans-serif" font-size="20" lengthAdjust="spacing" textLength="175" x="5" y="113.4082">Campus Manager</text><ellipse cx="95.5" cy="43.3438" fill="#E2E2F0" rx="8" ry="8" style="stroke:#181818;stroke-width:0.5;"/><path d="M95.5,51.3438 L95.5,78.3438 M82.5,59.3438 L108.5,59.3438 M95.5,78.3438 L82.5,93.3438 M95.5,78.3438 L108.5,93.3438 " fill="none" style="stroke:#181818;stroke-width:0.5;"/><text fill="#000000" font-family="sans-serif" font-size="20" lengthAdjust="spacing" textLength="175" x="5" y="981.5957">Campus Manager</text><ellipse cx="95.5" cy="994.8125" fill="#E2E2F0" rx="8" ry="8" style="stroke:#181818;stroke-width:0.5;"/><path d="M95.5,1002.8125 L95.5,1029.8125 M82.5,1010.8125 L108.5,1010.8125 M95.5,1029.8125 L82.5,1044.8125 M95.5,1029.8125 L108.5,1044.8125 " fill="none" style="stroke:#181818;stroke-width:0.5;"/><rect fill="#E2E2F0" height="60.5625" rx="2.5" ry="2.5" style="stroke:#181818;stroke-width:0.5;" width="201" x="699" y="56.5625"/><text fill="#000000" font-family="sans-serif" font-size="20" font-style="italic" lengthAdjust="spacing" textLength="187" x="706" y="82.127">«component (C4)»</text><text fill="#000000" font-family="sans-serif" font-size="20" lengthAdjust="spacing" textLength="144" x="727.5" y="105.4082">UI Component</text><rect fill="#E2E2F0" height="60.5625" rx="2.5" ry="2.5" style="stroke:#181818;stroke-width:0.5;" width="201" x="699" y="963.0313"/><text fill="#000000" font-family="sans-serif" font-size="20" font-style="italic" lengthAdjust="spacing" textLength="187" x="706" y="988.5957">«component (C4)»</text><text fill="#000000" font-family="sans-serif" font-size="20" lengthAdjust="spacing" textLength="144" x="727.5" y="1011.877">UI Component</text><rect fill="#E2E2F0" height="60.5625" rx="2.5" ry="2.5" style="stroke:#181818;stroke-width:0.5;" width="201" x="988" y="56.5625"/><text fill="#000000" font-family="sans-serif" font-size="20" font-style="italic" lengthAdjust="spacing" textLength="187" x="995" y="82.127">«component (C4)»</text><text fill="#000000" font-family="sans-serif" font-size="20" lengthAdjust="spacing" textLength="73" x="1052" y="105.4082">Module</text><rect fill="#E2E2F0" height="60.5625" rx="2.5" ry="2.5" style="stroke:#181818;stroke-width:0.5;" width="201" x="988" y="963.0313"/><text fill="#000000" font-family="sans-serif" font-size="20" font-style="italic" lengthAdjust="spacing" textLength="187" x="995" y="988.5957">«component (C4)»</text><text fill="#000000" font-family="sans-serif" font-size="20" lengthAdjust="spacing" textLength="73" x="1052" y="1011.877">Module</text><rect fill="#E2E2F0" height="60.5625" rx="2.5" ry="2.5" style="stroke:#181818;stroke-width:0.5;" width="201" x="1277" y="56.5625"/><text fill="#000000" font-family="sans-serif" font-size="20" font-style="italic" lengthAdjust="spacing" textLength="187" x="1284" y="82.127">«component (C4)»</text><text fill="#000000" font-family="sans-serif" font-size="20" lengthAdjust="spacing" textLength="73" x="1341" y="105.4082">Service</text><rect fill="#E2E2F0" height="60.5625" rx="2.5" ry="2.5" style="stroke:#181818;stroke-width:0.5;" width="201" x="1277" y="963.0313"/><text fill="#000000" font-family="sans-serif" font-size="20" font-style="italic" lengthAdjust="spacing" textLength="187" x="1284" y="988.5957">«component (C4)»</text><text fill="#000000" font-family="sans-serif" font-size="20" lengthAdjust="spacing" textLength="73" x="1341" y="1011.877">Service</text><rect fill="#E2E2F0" height="60.5625" rx="2.5" ry="2.5" style="stroke:#181818;stroke-width:0.5;" width="201" x="1631" y="56.5625"/><text fill="#000000" font-family="sans-serif" font-size="20" font-style="italic" lengthAdjust="spacing" textLength="187" x="1638" y="82.127">«component (C4)»</text><text fill="#000000" font-family="sans-serif" font-size="20" lengthAdjust="spacing" textLength="51" x="1706" y="105.4082">HTTP</text><rect fill="#E2E2F0" height="60.5625" rx="2.5" ry="2.5" style="stroke:#181818;stroke-width:0.5;" width="201" x="1631" y="963.0313"/><text fill="#000000" font-family="sans-serif" font-size="20" font-style="italic" lengthAdjust="spacing" textLength="187" x="1638" y="988.5957">«component (C4)»</text><text fill="#000000" font-family="sans-serif" font-size="20" lengthAdjust="spacing" textLength="51" x="1706" y="1011.877">HTTP</text><rect fill="#E2E2F0" height="60.5625" rx="2.5" ry="2.5" style="stroke:#181818;stroke-width:0.5;" width="201" x="1968" y="56.5625"/><text fill="#000000" font-family="sans-serif" font-size="20" font-style="italic" lengthAdjust="spacing" textLength="187" x="1975" y="82.127">«component (C4)»</text><text fill="#000000" font-family="sans-serif" font-size="20" lengthAdjust="spacing" textLength="170" x="1983.5" y="105.4082">MD Management</text><rect fill="#E2E2F0" height="60.5625" rx="2.5" ry="2.5" style="stroke:#181818;stroke-width:0.5;" width="201" x="1968" y="963.0313"/><text fill="#000000" font-family="sans-serif" font-size="20" font-style="italic" lengthAdjust="spacing" textLength="187" x="1975" y="988.5957">«component (C4)»</text><text fill="#000000" font-family="sans-serif" font-size="20" lengthAdjust="spacing" textLength="170" x="1983.5" y="1011.877">MD Management</text><rect fill="#FFFFFF" height="817.9063" style="stroke:#181818;stroke-width:1.0;" width="10" x="90.5" y="128.125"/><rect fill="#FFFFFF" height="335.5313" style="stroke:#181818;stroke-width:1.0;" width="10" x="794.5" y="157.4063"/><rect fill="#FFFFFF" height="415.8125" style="stroke:#181818;stroke-width:1.0;" width="10" x="794.5" y="530.2188"/><rect fill="#FFFFFF" height="260.9688" style="stroke:#181818;stroke-width:1.0;" width="10" x="1083.5" y="194.6875"/><rect fill="#FFFFFF" height="341.25" style="stroke:#181818;stroke-width:1.0;" width="10" x="1083.5" y="567.5"/><rect fill="#FFFFFF" height="28" style="stroke:#181818;stroke-width:1.0;" width="10" x="1088.5" y="612.7813"/><rect fill="#FFFFFF" height="186.4063" style="stroke:#181818;stroke-width:1.0;" width="10" x="1372.5" y="231.9688"/><rect fill="#FFFFFF" height="186.4063" style="stroke:#181818;stroke-width:1.0;" width="10" x="1372.5" y="685.0625"/><rect fill="#FFFFFF" height="111.8438" style="stroke:#181818;stroke-width:1.0;" width="10" x="1726.5" y="269.25"/><rect fill="#FFFFFF" height="111.8438" style="stroke:#181818;stroke-width:1.0;" width="10" x="1726.5" y="722.3438"/><rect fill="#FFFFFF" height="37.2813" style="stroke:#181818;stroke-width:1.0;" width="10" x="2063.5" y="759.625"/><polygon fill="#181818" points="782.5,153.4063,792.5,157.4063,782.5,161.4063,786.5,157.4063" style="stroke:#181818;stroke-width:1.0;"/><line style="stroke:#181818;stroke-width:1.0;" x1="100.5" x2="788.5" y1="157.4063" y2="157.4063"/><text fill="#000000" font-family="sans-serif" font-size="20" font-weight="bold" lengthAdjust="spacing" textLength="14" x="107.5" y="150.6895">1</text><text fill="#000000" font-family="sans-serif" font-size="20" lengthAdjust="spacing" textLength="233" x="125.5" y="150.6895">asks to edit an elevator</text><polygon fill="#181818" points="1071.5,190.6875,1081.5,194.6875,1071.5,198.6875,1075.5,194.6875" style="stroke:#181818;stroke-width:1.0;"/><line style="stroke:#181818;stroke-width:1.0;" x1="804.5" x2="1077.5" y1="194.6875" y2="194.6875"/><text fill="#000000" font-family="sans-serif" font-size="20" font-weight="bold" lengthAdjust="spacing" textLength="14" x="811.5" y="187.9707">2</text><text fill="#000000" font-family="sans-serif" font-size="20" lengthAdjust="spacing" textLength="242" x="829.5" y="187.9707">get elevator for building</text><polygon fill="#181818" points="1360.5,227.9688,1370.5,231.9688,1360.5,235.9688,1364.5,231.9688" style="stroke:#181818;stroke-width:1.0;"/><line style="stroke:#181818;stroke-width:1.0;" x1="1093.5" x2="1366.5" y1="231.9688" y2="231.9688"/><text fill="#000000" font-family="sans-serif" font-size="20" font-weight="bold" lengthAdjust="spacing" textLength="14" x="1100.5" y="225.252">3</text><text fill="#000000" font-family="sans-serif" font-size="20" lengthAdjust="spacing" textLength="242" x="1118.5" y="225.252">get elevator for building</text><polygon fill="#181818" points="1714.5,265.25,1724.5,269.25,1714.5,273.25,1718.5,269.25" style="stroke:#181818;stroke-width:1.0;"/><line style="stroke:#181818;stroke-width:1.0;" x1="1382.5" x2="1720.5" y1="269.25" y2="269.25"/><text fill="#000000" font-family="sans-serif" font-size="20" font-weight="bold" lengthAdjust="spacing" textLength="14" x="1389.5" y="262.5332">4</text><text fill="#000000" font-family="sans-serif" font-size="20" lengthAdjust="spacing" textLength="292" x="1407.5" y="262.5332">get('/buildings/:id/elevators')</text><polygon fill="#181818" points="2056.5,302.5313,2066.5,306.5313,2056.5,310.5313,2060.5,306.5313" style="stroke:#181818;stroke-width:1.0;"/><line style="stroke:#181818;stroke-width:1.0;" x1="1736.5" x2="2062.5" y1="306.5313" y2="306.5313"/><text fill="#000000" font-family="sans-serif" font-size="20" font-weight="bold" lengthAdjust="spacing" textLength="14" x="1743.5" y="299.8145">5</text><text fill="#000000" font-family="sans-serif" font-size="20" lengthAdjust="spacing" textLength="278" x="1761.5" y="299.8145">GET /buildings/:id/elevators</text><polygon fill="#181818" points="1747.5,339.8125,1737.5,343.8125,1747.5,347.8125,1743.5,343.8125" style="stroke:#181818;stroke-width:1.0;"/><line style="stroke:#181818;stroke-width:1.0;stroke-dasharray:2.0,2.0;" x1="1741.5" x2="2067.5" y1="343.8125" y2="343.8125"/><text fill="#000000" font-family="sans-serif" font-size="20" font-weight="bold" lengthAdjust="spacing" textLength="14" x="1753.5" y="337.0957">6</text><text fill="#000000" font-family="sans-serif" font-size="20" lengthAdjust="spacing" textLength="142" x="1771.5" y="337.0957">200 (elevator)</text><polygon fill="#181818" points="1393.5,377.0938,1383.5,381.0938,1393.5,385.0938,1389.5,381.0938" style="stroke:#181818;stroke-width:1.0;"/><line style="stroke:#181818;stroke-width:1.0;stroke-dasharray:2.0,2.0;" x1="1387.5" x2="1730.5" y1="381.0938" y2="381.0938"/><text fill="#000000" font-family="sans-serif" font-size="20" font-weight="bold" lengthAdjust="spacing" textLength="14" x="1399.5" y="374.377">7</text><text fill="#000000" font-family="sans-serif" font-size="20" lengthAdjust="spacing" textLength="81" x="1417.5" y="374.377">elevator</text><polygon fill="#181818" points="1104.5,414.375,1094.5,418.375,1104.5,422.375,1100.5,418.375" style="stroke:#181818;stroke-width:1.0;"/><line style="stroke:#181818;stroke-width:1.0;stroke-dasharray:2.0,2.0;" x1="1098.5" x2="1376.5" y1="418.375" y2="418.375"/><text fill="#000000" font-family="sans-serif" font-size="20" font-weight="bold" lengthAdjust="spacing" textLength="14" x="1110.5" y="411.6582">8</text><text fill="#000000" font-family="sans-serif" font-size="20" lengthAdjust="spacing" textLength="81" x="1128.5" y="411.6582">elevator</text><polygon fill="#181818" points="815.5,451.6563,805.5,455.6563,815.5,459.6563,811.5,455.6563" style="stroke:#181818;stroke-width:1.0;"/><line style="stroke:#181818;stroke-width:1.0;stroke-dasharray:2.0,2.0;" x1="809.5" x2="1087.5" y1="455.6563" y2="455.6563"/><text fill="#000000" font-family="sans-serif" font-size="20" font-weight="bold" lengthAdjust="spacing" textLength="14" x="821.5" y="448.9395">9</text><text fill="#000000" font-family="sans-serif" font-size="20" lengthAdjust="spacing" textLength="81" x="839.5" y="448.9395">elevator</text><polygon fill="#181818" points="111.5,488.9375,101.5,492.9375,111.5,496.9375,107.5,492.9375" style="stroke:#181818;stroke-width:1.0;"/><line style="stroke:#181818;stroke-width:1.0;stroke-dasharray:2.0,2.0;" x1="105.5" x2="798.5" y1="492.9375" y2="492.9375"/><text fill="#000000" font-family="sans-serif" font-size="20" font-weight="bold" lengthAdjust="spacing" textLength="28" x="117.5" y="486.2207">10</text><text fill="#000000" font-family="sans-serif" font-size="20" lengthAdjust="spacing" textLength="200" x="149.5" y="486.2207">shows elevator data</text><polygon fill="#181818" points="782.5,526.2188,792.5,530.2188,782.5,534.2188,786.5,530.2188" style="stroke:#181818;stroke-width:1.0;"/><line style="stroke:#181818;stroke-width:1.0;" x1="100.5" x2="788.5" y1="530.2188" y2="530.2188"/><text fill="#000000" font-family="sans-serif" font-size="20" font-weight="bold" lengthAdjust="spacing" textLength="28" x="107.5" y="523.502">11</text><text fill="#000000" font-family="sans-serif" font-size="20" lengthAdjust="spacing" textLength="643" x="139.5" y="523.502">gives new elevator data (brand,serial number,description,floors)</text><polygon fill="#181818" points="1071.5,563.5,1081.5,567.5,1071.5,571.5,1075.5,567.5" style="stroke:#181818;stroke-width:1.0;"/><line style="stroke:#181818;stroke-width:1.0;" x1="804.5" x2="1077.5" y1="567.5" y2="567.5"/><text fill="#000000" font-family="sans-serif" font-size="20" font-weight="bold" lengthAdjust="spacing" textLength="28" x="811.5" y="560.7832">12</text><text fill="#000000" font-family="sans-serif" font-size="20" lengthAdjust="spacing" textLength="215" x="843.5" y="560.7832">edit building elevator</text><line style="stroke:#181818;stroke-width:1.0;" x1="1098.5" x2="1140.5" y1="604.7813" y2="604.7813"/><line style="stroke:#181818;stroke-width:1.0;" x1="1140.5" x2="1140.5" y1="604.7813" y2="617.7813"/><line style="stroke:#181818;stroke-width:1.0;" x1="1099.5" x2="1140.5" y1="617.7813" y2="617.7813"/><polygon fill="#181818" points="1109.5,613.7813,1099.5,617.7813,1109.5,621.7813,1105.5,617.7813" style="stroke:#181818;stroke-width:1.0;"/><text fill="#000000" font-family="sans-serif" font-size="20" font-weight="bold" lengthAdjust="spacing" textLength="28" x="1105.5" y="598.0645">13</text><text fill="#000000" font-family="sans-serif" font-size="20" lengthAdjust="spacing" textLength="141" x="1137.5" y="598.0645">validates data</text><polygon fill="#181818" points="1360.5,681.0625,1370.5,685.0625,1360.5,689.0625,1364.5,685.0625" style="stroke:#181818;stroke-width:1.0;"/><line style="stroke:#181818;stroke-width:1.0;" x1="1093.5" x2="1366.5" y1="685.0625" y2="685.0625"/><text fill="#000000" font-family="sans-serif" font-size="20" font-weight="bold" lengthAdjust="spacing" textLength="28" x="1100.5" y="678.3457">14</text><text fill="#000000" font-family="sans-serif" font-size="20" lengthAdjust="spacing" textLength="157" x="1132.5" y="678.3457">edit an elevator</text><polygon fill="#181818" points="1714.5,718.3438,1724.5,722.3438,1714.5,726.3438,1718.5,722.3438" style="stroke:#181818;stroke-width:1.0;"/><line style="stroke:#181818;stroke-width:1.0;" x1="1382.5" x2="1720.5" y1="722.3438" y2="722.3438"/><text fill="#000000" font-family="sans-serif" font-size="20" font-weight="bold" lengthAdjust="spacing" textLength="28" x="1389.5" y="715.627">15</text><text fill="#000000" font-family="sans-serif" font-size="20" lengthAdjust="spacing" textLength="293" x="1421.5" y="715.627">put('/buildings/:id/elevators')</text><polygon fill="#181818" points="2051.5,755.625,2061.5,759.625,2051.5,763.625,2055.5,759.625" style="stroke:#181818;stroke-width:1.0;"/><line style="stroke:#181818;stroke-width:1.0;" x1="1736.5" x2="2057.5" y1="759.625" y2="759.625"/><text fill="#000000" font-family="sans-serif" font-size="20" font-weight="bold" lengthAdjust="spacing" textLength="28" x="1743.5" y="752.9082">16</text><text fill="#000000" font-family="sans-serif" font-size="20" lengthAdjust="spacing" textLength="276" x="1775.5" y="752.9082">PUT /buildings/:id/elevators</text><polygon fill="#181818" points="1747.5,792.9063,1737.5,796.9063,1747.5,800.9063,1743.5,796.9063" style="stroke:#181818;stroke-width:1.0;"/><line style="stroke:#181818;stroke-width:1.0;stroke-dasharray:2.0,2.0;" x1="1741.5" x2="2067.5" y1="796.9063" y2="796.9063"/><text fill="#000000" font-family="sans-serif" font-size="20" font-weight="bold" lengthAdjust="spacing" textLength="28" x="1753.5" y="790.1895">17</text><text fill="#000000" font-family="sans-serif" font-size="20" lengthAdjust="spacing" textLength="90" x="1785.5" y="790.1895">200 (OK)</text><polygon fill="#181818" points="1393.5,830.1875,1383.5,834.1875,1393.5,838.1875,1389.5,834.1875" style="stroke:#181818;stroke-width:1.0;"/><line style="stroke:#181818;stroke-width:1.0;stroke-dasharray:2.0,2.0;" x1="1387.5" x2="1730.5" y1="834.1875" y2="834.1875"/><text fill="#000000" font-family="sans-serif" font-size="20" font-weight="bold" lengthAdjust="spacing" textLength="28" x="1399.5" y="827.4707">18</text><text fill="#000000" font-family="sans-serif" font-size="20" lengthAdjust="spacing" textLength="124" x="1431.5" y="827.4707">newElevator</text><polygon fill="#181818" points="1104.5,867.4688,1094.5,871.4688,1104.5,875.4688,1100.5,871.4688" style="stroke:#181818;stroke-width:1.0;"/><line style="stroke:#181818;stroke-width:1.0;stroke-dasharray:2.0,2.0;" x1="1098.5" x2="1376.5" y1="871.4688" y2="871.4688"/><text fill="#000000" font-family="sans-serif" font-size="20" font-weight="bold" lengthAdjust="spacing" textLength="28" x="1110.5" y="864.752">19</text><text fill="#000000" font-family="sans-serif" font-size="20" lengthAdjust="spacing" textLength="124" x="1142.5" y="864.752">newElevator</text><polygon fill="#181818" points="815.5,904.75,805.5,908.75,815.5,912.75,811.5,908.75" style="stroke:#181818;stroke-width:1.0;"/><line style="stroke:#181818;stroke-width:1.0;stroke-dasharray:2.0,2.0;" x1="809.5" x2="1087.5" y1="908.75" y2="908.75"/><text fill="#000000" font-family="sans-serif" font-size="20" font-weight="bold" lengthAdjust="spacing" textLength="28" x="821.5" y="902.0332">20</text><text fill="#000000" font-family="sans-serif" font-size="20" lengthAdjust="spacing" textLength="124" x="853.5" y="902.0332">newElevator</text><polygon fill="#181818" points="106.5,942.0313,96.5,946.0313,106.5,950.0313,102.5,946.0313" style="stroke:#181818;stroke-width:1.0;"/><line style="stroke:#181818;stroke-width:1.0;stroke-dasharray:2.0,2.0;" x1="100.5" x2="798.5" y1="946.0313" y2="946.0313"/><text fill="#000000" font-family="sans-serif" font-size="20" font-weight="bold" lengthAdjust="spacing" textLength="28" x="112.5" y="939.3145">21</text><text fill="#000000" font-family="sans-serif" font-size="20" lengthAdjust="spacing" textLength="301" x="144.5" y="939.3145">returns confirmation message</text><!--SRC=[ZPHFZzem4CNl_XGZUbWYWK2hdX12gc3xHssqgCkkLAaNamnPYyIER0Us- -axTWWX2Lbn02NmU-EPDoynUo5phdcMgcYFCSIuuqLgloffdyGxmlsKyS8gMMHRrCnKDAnAReDlzaig4fcXjFDvHD-e5mieBnZZaLKQbY5m0uCbp_B2GCWbJr0Fs5QzmM0-D_-CnGo6oy-BnL_v8ap1K_7EhL1oK9Ta07Io5P78kRHKSkrhFl-0fSfo9GaR0E7LZQiNT6JXuyhBGXKNATuWUFhzuWLFg0yYkaNnVRCfMtCNLtcKCT3ih6j0u1m8LoUBicgcamMVVedarVx1D5N7zbohqkAkjlTmMequS8ja9MEqeV72cpgZEdi3LW76mWANW2aIf_IbOkqaQwTnZiuWGNlcO4UVRI7IMCYa5X7874mQP-fD6WAPWqdZRVMYuTsa8ira9k99LSJS1RNKySoBN9Dapmo-FMoWJyeSCgxFkPzEOLZz6vmAdLi_Mn9Zyq3VxDcLQvWRoTjmzliQvSnoIvcFnoVAlAgZgVsAkUMNWjDAwYqcue0691wR6XXkDPVnoA0MF8NokHx5Q28jSlV8ZNQf8Z-2vhORo_R1g7oy4e-BJPU20ptGT3ZruzjkWAsX6mdfJs0t67dnSJ1QoMX5O_tyGJJg1bVXrPmy_WmQSn3MJWmjug4lDAtKzA3TuFI0tUnej8MM1Y8bTq9d_jKA6Hf3BufEY9e_iFy0]--></g></svg>