<?xml version="1.0" encoding="UTF-8" standalone="no"?><svg xmlns="http://www.w3.org/2000/svg" xmlns:xlink="http://www.w3.org/1999/xlink" contentStyleType="text/css" height="3075px" preserveAspectRatio="none" style="width:1134px;height:3075px;background:#FFFFFF;" version="1.1" viewBox="0 0 1134 3075" width="1134px" zoomAndPan="magnify"><defs/><g><!--cluster campus--><g id="cluster_campus"><rect fill="none" height="2348" rx="2.5" ry="2.5" style="stroke:#181818;stroke-width:1.0;" width="903" x="225" y="7.2168"/><text fill="#000000" font-family="sans-serif" font-size="20" font-weight="bold" lengthAdjust="spacing" textLength="208" x="572.5" y="27.7813">Campus Managing</text></g><!--cluster fleet--><g id="cluster_fleet"><rect fill="none" height="690" rx="2.5" ry="2.5" style="stroke:#181818;stroke-width:1.0;" width="687" x="333" y="2379.2168"/><text fill="#000000" font-family="sans-serif" font-size="20" font-weight="bold" lengthAdjust="spacing" textLength="177" x="588" y="2399.7813">Fleet Managing</text></g><g id="elem_createBuilding"><ellipse cx="676.4602" cy="81.3088" fill="#ADD8E6" rx="148.4602" ry="32.092" style="stroke:#00008B;stroke-width:0.5;"/><text fill="#000000" font-family="sans-serif" font-size="20" font-weight="bold" lengthAdjust="spacing" textLength="253" x="546.9602" y="87.8411">150. Create a building</text></g><g id="elem_editBuilding"><ellipse cx="676.3484" cy="190.3865" fill="#ADD8E6" rx="198.8484" ry="42.1697" style="stroke:#00008B;stroke-width:0.5;"/><text fill="#000000" font-family="sans-serif" font-size="20" font-weight="bold" lengthAdjust="spacing" textLength="362" x="495.3484" y="195.3103">160. Edit a building information</text></g><g id="elem_listBuildings"><ellipse cx="676.4688" cy="299.0106" fill="#ADD8E6" rx="144.4688" ry="31.2938" style="stroke:#00008B;stroke-width:0.5;"/><text fill="#000000" font-family="sans-serif" font-size="20" font-weight="bold" lengthAdjust="spacing" textLength="244" x="551.4688" y="305.5428">170. List all buildings</text></g><g id="elem_listBuildingsWithFloors"><ellipse cx="676.4348" cy="455.2038" fill="#ADD8E6" rx="435.4348" ry="89.487" style="stroke:#00008B;stroke-width:0.5;"/><text fill="#000000" font-family="sans-serif" font-size="20" font-weight="bold" lengthAdjust="spacing" textLength="845" x="253.9348" y="460.1276">180. List all buildings with given minimum and maximum number of floors</text></g><g id="elem_createFloor"><ellipse cx="676.5029" cy="629.1174" fill="#ADD8E6" rx="232.5029" ry="48.9006" style="stroke:#00008B;stroke-width:0.5;"/><text fill="#000000" font-family="sans-serif" font-size="20" font-weight="bold" lengthAdjust="spacing" textLength="432" x="460.5029" y="634.0412">190. Create a floor in a given building</text></g><g id="elem_editFloor"><ellipse cx="676.636" cy="761.344" fill="#ADD8E6" rx="228.636" ry="48.1272" style="stroke:#00008B;stroke-width:0.5;"/><text fill="#000000" font-family="sans-serif" font-size="20" font-weight="bold" lengthAdjust="spacing" textLength="424" x="464.636" y="766.2678">200. Edit information of a given floor</text></g><g id="elem_listFloors"><ellipse cx="676.3429" cy="894.0854" fill="#ADD8E6" rx="237.3429" ry="49.8686" style="stroke:#00008B;stroke-width:0.5;"/><text fill="#000000" font-family="sans-serif" font-size="20" font-weight="bold" lengthAdjust="spacing" textLength="435" x="455.3429" y="899.0092">210. List all floors for a given building</text></g><g id="elem_listFloorsWithConnections"><ellipse cx="676.4424" cy="1045.0053" fill="#ADD8E6" rx="316.9424" ry="65.7885" style="stroke:#00008B;stroke-width:0.5;"/><text fill="#000000" font-family="sans-serif" font-size="20" font-weight="bold" lengthAdjust="spacing" textLength="605" x="373.9424" y="1049.9291">220. List all floors with connection to other buildings</text></g><g id="elem_loadFloorMap"><ellipse cx="676.4593" cy="1190.1087" fill="#ADD8E6" rx="207.4593" ry="43.8919" style="stroke:#00008B;stroke-width:0.5;"/><text fill="#000000" font-family="sans-serif" font-size="20" font-weight="bold" lengthAdjust="spacing" textLength="380" x="486.4593" y="1195.0325">230. Load a map for a given floor</text></g><g id="elem_createConnection"><ellipse cx="676.712" cy="1323.3592" fill="#ADD8E6" rx="258.712" ry="54.1424" style="stroke:#00008B;stroke-width:0.5;"/><text fill="#000000" font-family="sans-serif" font-size="20" font-weight="bold" lengthAdjust="spacing" textLength="486" x="433.712" y="1328.283">240. Create a connection between 2 floors</text></g><g id="elem_editConnection"><ellipse cx="676.6595" cy="1463.2487" fill="#ADD8E6" rx="243.1595" ry="51.0319" style="stroke:#00008B;stroke-width:0.5;"/><text fill="#000000" font-family="sans-serif" font-size="20" font-weight="bold" lengthAdjust="spacing" textLength="454" x="449.6595" y="1468.1725">250. Edit a connection between 2 floors</text></g><g id="elem_listBuildingsConnections"><ellipse cx="676.4958" cy="1609.316" fill="#ADD8E6" rx="288.4958" ry="60.0992" style="stroke:#00008B;stroke-width:0.5;"/><text fill="#000000" font-family="sans-serif" font-size="20" font-weight="bold" lengthAdjust="spacing" textLength="547" x="402.9958" y="1614.2398">260. List all the connection between 2 buildings</text></g><g id="elem_createElevator"><ellipse cx="676.4786" cy="1738.0125" fill="#ADD8E6" rx="156.9786" ry="33.7957" style="stroke:#00008B;stroke-width:0.5;"/><text fill="#000000" font-family="sans-serif" font-size="20" font-weight="bold" lengthAdjust="spacing" textLength="272" x="537.4786" y="1744.5447">270. Create an elevator</text></g><g id="elem_editElevator"><ellipse cx="676.7047" cy="1838.1577" fill="#ADD8E6" rx="142.7047" ry="30.9409" style="stroke:#00008B;stroke-width:0.5;"/><text fill="#000000" font-family="sans-serif" font-size="20" font-weight="bold" lengthAdjust="spacing" textLength="240" x="553.7047" y="1844.69">280. Edit an elevator</text></g><g id="elem_listElevators"><ellipse cx="676.2702" cy="1962.3708" fill="#ADD8E6" rx="276.2702" ry="57.654" style="stroke:#00008B;stroke-width:0.5;"/><text fill="#000000" font-family="sans-serif" font-size="20" font-weight="bold" lengthAdjust="spacing" textLength="522" x="415.2702" y="1967.2947">290. List all the elevators for a given building</text></g><g id="elem_listFloorsReachableByElevator"><ellipse cx="676.4958" cy="2133.016" fill="#ADD8E6" rx="381.9958" ry="78.7992" style="stroke:#00008B;stroke-width:0.5;"/><text fill="#000000" font-family="sans-serif" font-size="20" font-weight="bold" lengthAdjust="spacing" textLength="737" x="307.9958" y="2137.9398">300. List all the floors reachable by elevator for a given building</text></g><g id="elem_createRoom"><ellipse cx="676.5645" cy="2293.0297" fill="#ADD8E6" rx="217.0645" ry="45.8129" style="stroke:#00008B;stroke-width:0.5;"/><text fill="#000000" font-family="sans-serif" font-size="20" font-weight="bold" lengthAdjust="spacing" textLength="400" x="476.5645" y="2297.9535">310. Create a room in a given floor</text></g><g id="elem_createRobotType"><ellipse cx="676.2663" cy="2489.07" fill="#ADD8E6" rx="327.2663" ry="67.8533" style="stroke:#00008B;stroke-width:0.5;"/><text fill="#000000" font-family="sans-serif" font-size="20" font-weight="bold" lengthAdjust="spacing" textLength="626" x="363.2663" y="2493.9939">350. Create a new robot type and assign specific tasks</text></g><g id="elem_createRobot"><ellipse cx="676.2782" cy="2646.3724" fill="#ADD8E6" rx="256.2782" ry="53.6556" style="stroke:#00008B;stroke-width:0.5;"/><text fill="#000000" font-family="sans-serif" font-size="20" font-weight="bold" lengthAdjust="spacing" textLength="481" x="435.7782" y="2651.2963">360. Create a new robot with a given type</text></g><g id="elem_disableRobot"><ellipse cx="676.6962" cy="2765.456" fill="#ADD8E6" rx="139.1962" ry="30.2392" style="stroke:#00008B;stroke-width:0.5;"/><text fill="#000000" font-family="sans-serif" font-size="20" font-weight="bold" lengthAdjust="spacing" textLength="232" x="557.6962" y="2771.9883">370. Disable a robot</text></g><g id="elem_listRobots"><ellipse cx="676.3358" cy="2858.984" fill="#ADD8E6" rx="131.8358" ry="28.7672" style="stroke:#00008B;stroke-width:0.5;"/><text fill="#000000" font-family="sans-serif" font-size="20" font-weight="bold" lengthAdjust="spacing" textLength="215" x="565.8358" y="2865.5162">370. List all robots</text></g><g id="elem_searchRobot"><ellipse cx="676.4949" cy="2988.4158" fill="#ADD8E6" rx="313.9949" ry="65.199" style="stroke:#00008B;stroke-width:0.5;"/><text fill="#000000" font-family="sans-serif" font-size="20" font-weight="bold" lengthAdjust="spacing" textLength="599" x="376.9949" y="2993.3396">370. Search robots for a specific designation or task</text></g><!--entity Fleet--><g id="elem_Fleet"><ellipse cx="93.5" cy="2732.2168" fill="#F1F1F1" rx="8" ry="8" style="stroke:#181818;stroke-width:0.5;"/><path d="M93.5,2740.2168 L93.5,2767.2168 M80.5,2748.2168 L106.5,2748.2168 M93.5,2767.2168 L80.5,2782.2168 M93.5,2767.2168 L106.5,2782.2168 " fill="none" style="stroke:#181818;stroke-width:0.5;"/><text fill="#000000" font-family="sans-serif" font-size="20" lengthAdjust="spacing" textLength="143" x="22" y="2802.2813">Fleet Manager</text></g><!--entity Campus--><g id="elem_Campus"><ellipse cx="93.5" cy="1157.2168" fill="#F1F1F1" rx="8" ry="8" style="stroke:#181818;stroke-width:0.5;"/><path d="M93.5,1165.2168 L93.5,1192.2168 M80.5,1173.2168 L106.5,1173.2168 M93.5,1192.2168 L80.5,1207.2168 M93.5,1192.2168 L106.5,1207.2168 " fill="none" style="stroke:#181818;stroke-width:0.5;"/><text fill="#000000" font-family="sans-serif" font-size="20" lengthAdjust="spacing" textLength="175" x="6" y="1227.2813">Campus Manager</text></g><!--link Campus to createBuilding--><g id="link_Campus_createBuilding"><path d="M96.3,1148.4068 C104.75,960.8868 143.29,203.2968 217,130.2168 C306.73,41.2568 460.1,43.3668 564.53,58.0668 " fill="none" id="Campus-to-createBuilding" style="stroke:#00008B;stroke-width:1.0;"/><polygon fill="#00008B" points="569.78,58.8168,561.4446,53.5707,564.8314,58.1017,560.3004,61.4885,569.78,58.8168" style="stroke:#00008B;stroke-width:1.0;"/></g><!--link Campus to editBuilding--><g id="link_Campus_editBuilding"><path d="M96.97,1148.5868 C107.68,975.0168 152.39,314.8568 217,250.2168 C291.43,175.7468 409.94,161.8368 507.83,165.9768 " fill="none" id="Campus-to-editBuilding" style="stroke:#00008B;stroke-width:1.0;"/><polygon fill="#00008B" points="513.06,166.2168,504.2521,161.81,508.0652,165.9885,503.8867,169.8016,513.06,166.2168" style="stroke:#00008B;stroke-width:1.0;"/></g><!--link Campus to listBuildings--><g id="link_Campus_listBuildings"><path d="M94.13,1148.5168 C93.7,994.3968 100.74,460.1468 217,348.2168 C308.31,260.3168 462.05,262.3968 566.08,276.7868 " fill="none" id="Campus-to-listBuildings" style="stroke:#00008B;stroke-width:1.0;"/><polygon fill="#00008B" points="571.3,277.5268,562.9477,272.3077,566.3491,276.8277,561.8291,280.2291,571.3,277.5268" style="stroke:#00008B;stroke-width:1.0;"/></g><!--link Campus to listBuildingsWithFloors--><g id="link_Campus_listBuildingsWithFloors"><path d="M96.87,1148.4468 C104.9,1022.0368 135.28,646.9868 217,562.2168 C240.29,538.0568 267.9,518.8968 297.85,503.7468 " fill="none" id="Campus-to-listBuildingsWithFloors" style="stroke:#00008B;stroke-width:1.0;"/><polygon fill="#00008B" points="302.68,501.3568,292.8402,501.7789,298.2022,503.5814,296.3996,508.9434,302.68,501.3568" style="stroke:#00008B;stroke-width:1.0;"/></g><!--link Campus to createFloor--><g id="link_Campus_createFloor"><path d="M98.91,1148.3368 C111.18,1040.3268 149.31,756.4768 217,695.2168 C280.72,637.5468 371.15,616.5268 454.88,611.5968 " fill="none" id="Campus-to-createFloor" style="stroke:#00008B;stroke-width:1.0;"/><polygon fill="#00008B" points="459.87,611.3268,450.6559,607.8483,454.8782,611.6129,451.1136,615.8352,459.87,611.3268" style="stroke:#00008B;stroke-width:1.0;"/></g><!--link Campus to editFloor--><g id="link_Campus_editFloor"><path d="M95.18,1148.6868 C98.87,1071.8868 118.55,908.0468 217,826.2168 C282.41,771.8468 372.07,751.3068 454.76,745.9368 " fill="none" id="Campus-to-editFloor" style="stroke:#00008B;stroke-width:1.0;"/><polygon fill="#00008B" points="460.2,745.6068,450.9668,742.1793,455.2098,745.9205,451.4687,750.1635,460.2,745.6068" style="stroke:#00008B;stroke-width:1.0;"/></g><!--link Campus to listFloors--><g id="link_Campus_listFloors"><path d="M104.39,1148.6668 C119.28,1095.8968 152.8,1006.3068 217,961.2168 C280.21,916.8168 360.5,896.2968 436.17,887.9968 " fill="none" id="Campus-to-listFloors" style="stroke:#00008B;stroke-width:1.0;"/><polygon fill="#00008B" points="441.15,887.4668,431.7775,884.4407,436.178,887.9954,432.6233,892.3959,441.15,887.4668" style="stroke:#00008B;stroke-width:1.0;"/></g><!--link Campus to listFloorsWithConnections--><g id="link_Campus_listFloorsWithConnections"><path d="M168.17,1148.6368 C183.92,1140.9668 200.73,1133.6768 217,1128.2168 C275.84,1108.4668 340.58,1093.1068 402.42,1081.2668 " fill="none" id="Campus-to-listFloorsWithConnections" style="stroke:#00008B;stroke-width:1.0;"/><polygon fill="#00008B" points="407.63,1080.2768,398.0426,1078.0225,402.7174,1081.2078,399.5321,1085.8826,407.63,1080.2768" style="stroke:#00008B;stroke-width:1.0;"/></g><!--link Campus to loadFloorMap--><g id="link_Campus_loadFloorMap"><path d="M181.17,1190.2168 C255.6,1190.2168 366.02,1190.2168 463.63,1190.2168 " fill="none" id="Campus-to-loadFloorMap" style="stroke:#00008B;stroke-width:1.0;"/><polygon fill="#00008B" points="468.85,1190.2168,459.85,1186.2168,463.85,1190.2168,459.85,1194.2168,468.85,1190.2168" style="stroke:#00008B;stroke-width:1.0;"/></g><!--link Campus to createConnection--><g id="link_Campus_createConnection"><path d="M169.11,1231.8668 C184.58,1239.2068 201.04,1246.1268 217,1251.2168 C286.81,1273.4968 364.88,1289.0268 436.54,1299.7968 " fill="none" id="Campus-to-createConnection" style="stroke:#00008B;stroke-width:1.0;"/><polygon fill="#00008B" points="441.69,1300.5668,433.3822,1295.2772,436.7452,1299.8258,432.1966,1303.1888,441.69,1300.5668" style="stroke:#00008B;stroke-width:1.0;"/></g><!--link Campus to editConnection--><g id="link_Campus_editConnection"><path d="M107.37,1231.8568 C124.38,1279.3768 159.15,1355.5068 217,1394.2168 C278.74,1435.5268 355.55,1456.0168 428.54,1465.3368 " fill="none" id="Campus-to-editConnection" style="stroke:#00008B;stroke-width:1.0;"/><polygon fill="#00008B" points="433.79,1465.9868,425.3502,1460.9104,428.828,1465.3719,424.3664,1468.8496,433.79,1465.9868" style="stroke:#00008B;stroke-width:1.0;"/></g><!--link Campus to listBuildingsConnections--><g id="link_Campus_listBuildingsConnections"><path d="M96.5,1231.7968 C102.4,1304.6068 125.61,1454.6768 217,1531.2168 C263.74,1570.3568 322.79,1593.1968 382.82,1605.9468 " fill="none" id="Campus-to-listBuildingsConnections" style="stroke:#00008B;stroke-width:1.0;"/><polygon fill="#00008B" points="387.89,1606.9968,379.8876,1601.2555,382.9938,1605.9833,378.266,1609.0895,387.89,1606.9968" style="stroke:#00008B;stroke-width:1.0;"/></g><!--link Campus to createElevator--><g id="link_Campus_createElevator"><path d="M98.75,1231.8968 C110.69,1340.1068 148.2,1625.7768 217,1686.2168 C306.45,1764.7968 446.56,1769.6668 548.37,1759.9168 " fill="none" id="Campus-to-createElevator" style="stroke:#00008B;stroke-width:1.0;"/><polygon fill="#00008B" points="553.49,1759.4168,544.1437,1756.3109,548.5137,1759.903,544.9216,1764.273,553.49,1759.4168" style="stroke:#00008B;stroke-width:1.0;"/></g><!--link Campus to editElevator--><g id="link_Campus_editElevator"><path d="M96.82,1231.8168 C104.58,1354.9668 134.04,1713.8068 217,1789.2168 C310.21,1873.9468 462.04,1873.0268 565.23,1859.7468 " fill="none" id="Campus-to-editElevator" style="stroke:#00008B;stroke-width:1.0;"/><polygon fill="#00008B" points="570.41,1859.0568,560.9703,1856.2475,565.4515,1859.6998,561.9992,1864.181,570.41,1859.0568" style="stroke:#00008B;stroke-width:1.0;"/></g><!--link Campus to listElevators--><g id="link_Campus_listElevators"><path d="M95.74,1231.8568 C100.68,1367.5668 123.49,1793.6368 217,1886.2168 C265.13,1933.8668 330.99,1958.4368 397.78,1969.9468 " fill="none" id="Campus-to-listElevators" style="stroke:#00008B;stroke-width:1.0;"/><polygon fill="#00008B" points="403,1970.8168,394.7851,1965.3839,398.0688,1969.9902,393.4626,1973.2738,403,1970.8168" style="stroke:#00008B;stroke-width:1.0;"/></g><!--link Campus to listFloorsReachableByElevator--><g id="link_Campus_listFloorsReachableByElevator"><path d="M94.46,1231.7968 C95.21,1385.5168 105.88,1918.8968 217,2037.2168 C244.17,2066.1568 277.65,2087.5468 314.04,2103.2168 " fill="none" id="Campus-to-listFloorsReachableByElevator" style="stroke:#00008B;stroke-width:1.0;"/><polygon fill="#00008B" points="318.96,2105.2968,312.2255,2098.1103,314.354,2103.3514,309.1128,2105.4799,318.96,2105.2968" style="stroke:#00008B;stroke-width:1.0;"/></g><!--link Campus to createRoom--><g id="link_Campus_createRoom"><path d="M96.44,1231.7668 C105.47,1416.3868 145.89,2156.5768 217,2229.2168 C285.01,2298.6868 391.12,2316.7968 484.13,2316.5768 " fill="none" id="Campus-to-createRoom" style="stroke:#00008B;stroke-width:1.0;"/><polygon fill="#00008B" points="489.39,2316.5368,480.356,2312.6141,484.3902,2316.5797,480.4246,2320.6138,489.39,2316.5368" style="stroke:#00008B;stroke-width:1.0;"/></g><!--link Fleet to createRobotType--><g id="link_Fleet_createRobotType"><path d="M109.73,2723.5568 C128.11,2679.4168 163.42,2611.2368 217,2575.2168 C260.22,2546.1668 310.66,2526.2868 361.95,2512.7968 " fill="none" id="Fleet-to-createRobotType" style="stroke:#00008B;stroke-width:1.0;"/><polygon fill="#00008B" points="366.92,2511.5068,357.2037,2509.8965,362.0804,2512.7631,359.2138,2517.6398,366.92,2511.5068" style="stroke:#00008B;stroke-width:1.0;"/></g><!--link Fleet to createRobot--><g id="link_Fleet_createRobot"><path d="M165.19,2734.4768 C181.94,2728.0468 199.91,2721.8268 217,2717.2168 C289.81,2697.5668 370.7,2682.7968 444,2671.9668 " fill="none" id="Fleet-to-createRobot" style="stroke:#00008B;stroke-width:1.0;"/><polygon fill="#00008B" points="449.27,2671.1868,439.7829,2668.542,444.3234,2671.9159,440.9495,2676.4564,449.27,2671.1868" style="stroke:#00008B;stroke-width:1.0;"/></g><!--link Fleet to disableRobot--><g id="link_Fleet_disableRobot"><path d="M165.16,2765.2168 C255.9,2765.2168 415.55,2765.2168 532.18,2765.2168 " fill="none" id="Fleet-to-disableRobot" style="stroke:#00008B;stroke-width:1.0;"/><polygon fill="#00008B" points="537.35,2765.2168,528.35,2761.2168,532.35,2765.2168,528.35,2769.2168,537.35,2765.2168" style="stroke:#00008B;stroke-width:1.0;"/></g><!--link Fleet to listRobots--><g id="link_Fleet_listRobots"><path d="M165.07,2795.9268 C181.83,2802.1968 199.83,2808.1168 217,2812.2168 C323.94,2837.7368 448.17,2849.4068 540.32,2854.7368 " fill="none" id="Fleet-to-listRobots" style="stroke:#00008B;stroke-width:1.0;"/><polygon fill="#00008B" points="545.51,2855.0268,536.7536,2850.5184,540.5182,2854.7407,536.2959,2858.5053,545.51,2855.0268" style="stroke:#00008B;stroke-width:1.0;"/></g><!--link Fleet to searchRobot--><g id="link_Fleet_searchRobot"><path d="M119.45,2807.0068 C141.07,2839.3968 175.4,2882.6068 217,2906.2168 C265.38,2933.6768 320.88,2952.2968 376.16,2964.8568 " fill="none" id="Fleet-to-searchRobot" style="stroke:#00008B;stroke-width:1.0;"/><polygon fill="#00008B" points="381.17,2965.9768,373.2721,2960.0927,376.2928,2964.8755,371.51,2967.8962,381.17,2965.9768" style="stroke:#00008B;stroke-width:1.0;"/></g><!--SRC=[XLLBRzim3BxxLn2zTyXZJTiS1YnfSselxO2T5PjsXCXI8CdDic7_VNhu8TbAvvD1ylj8Vg8eTQJyH2IfcSYFM4219McOtWckt-blXCKiorGN0ut2d2Y4FncORqFoOoL5mukjO4B22wqEUiCQz5uX2vJUyqJaiNTybrAS4tQNKryO6YWhihzPjjunH0slX9CAvHg80cV9rbjIdneLURmfonYM6hG0QQk1WahCDHKyo-mFuPNXlmdXb5St5fzxcssjQ_DcVZVx0bk9H2CGs3UK5NsuisvQKmHQ6T1pGNK00SfB8MjYAt5mDFua-Dw0NwWoOCPwk78OPimTHaMWXoG8pbGVeA8VoA6cdDPD3OGNK9DVxfytzHubY19A9eHC9Fbf27RE5wLx35LnMDEV-VMf4Z8vZf1YCUiq2eInbNGaZhLNQegVXntxyi4GJOg0lgbf7uj5WiHfbWlE_TZOIHBwO6IQdeLdj1fj-_WumT8c4AGmPTNa51KuDCXCWADw9QS8_JMKEIXfZ_gCXc8HdfiNUYWaOheR9l9_F5RkAoohK2wZIPhhavcz9jDzq2W7PFX1T2kER-kvDKMeXxwf4SQsa4GyZXleOEdPwHleoAAgbxCnMpj1fkByGFPcp-mlVORF4_X9Ukk0cqkg_EKyd0SfH1tUkc6Ul6HlncztQB3rWctQ9I-TATfvosZdSJoRL7jXLkhbX6vz4ALenK6TCASbpK4JTLHHPXF-mqH7hAiqgxjkNGysnPWe8h63yaIL4vTu1XTVU5iQq9-HYn_6qaMhIVWx4faVsk3ssFfU2xIzjzjAkjOTdt8Wdz-8thuljxVVnkz4u8cUWC0Uh_bhZc0rJxBvTJbADJ46Ip5f7I-sC2XSMPFqmVeOrP3sNDqH4-R-MenuK_RuuYOxJ5suIKvtaJ9_Tq9hD-H9Js2DPdCm1nCu6CCn-WS0]--></g></svg>