<?xml version="1.0" encoding="UTF-8" standalone="no"?><svg xmlns="http://www.w3.org/2000/svg" xmlns:xlink="http://www.w3.org/1999/xlink" contentStyleType="text/css" height="2828px" preserveAspectRatio="none" style="width:1011px;height:2828px;background:#FFFFFF;" version="1.1" viewBox="0 0 1011 2828" width="1011px" zoomAndPan="magnify"><defs/><g><!--cluster campus--><g id="cluster_campus"><rect fill="none" height="2152" rx="2.5" ry="2.5" style="stroke:#181818;stroke-width:1.0;" width="790" x="215" y="8.36"/><text fill="#000000" font-family="sans-serif" font-size="20" font-weight="bold" lengthAdjust="spacing" textLength="183.75" x="518.125" y="31.74">Campus Managing</text></g><!--cluster fleet--><g id="cluster_fleet"><rect fill="none" height="638" rx="2.5" ry="2.5" style="stroke:#181818;stroke-width:1.0;" width="594" x="313" y="2184.36"/><text fill="#000000" font-family="sans-serif" font-size="20" font-weight="bold" lengthAdjust="spacing" textLength="150.125" x="534.9375" y="2207.74">Fleet Managing</text></g><g id="elem_createBuilding"><ellipse cx="610.0673" cy="84.2735" fill="#ADD8E6" rx="137.5673" ry="29.9135" style="stroke:#00008B;stroke-width:0.5;"/><text fill="#000000" font-family="sans-serif" font-size="20" font-weight="bold" lengthAdjust="spacing" textLength="211.875" x="501.1298" y="92.2135">150. Create a building</text></g><g id="elem_editBuilding"><ellipse cx="610.0858" cy="187.3772" fill="#ADD8E6" rx="178.0858" ry="38.0172" style="stroke:#00008B;stroke-width:0.5;"/><text fill="#000000" font-family="sans-serif" font-size="20" font-weight="bold" lengthAdjust="spacing" textLength="306.5" x="453.8358" y="195.3172">160. Edit a building information</text></g><g id="elem_listBuildings"><ellipse cx="610.2004" cy="289.6001" fill="#ADD8E6" rx="134.2004" ry="29.2401" style="stroke:#00008B;stroke-width:0.5;"/><text fill="#000000" font-family="sans-serif" font-size="20" font-weight="bold" lengthAdjust="spacing" textLength="203.5" x="505.4504" y="297.5401">170. List all buildings</text></g><g id="elem_listBuildingsWithFloors"><ellipse cx="609.969" cy="431.5538" fill="#ADD8E6" rx="378.969" ry="78.1938" style="stroke:#00008B;stroke-width:0.5;"/><text fill="#000000" font-family="sans-serif" font-size="20" font-weight="bold" lengthAdjust="spacing" textLength="727.5" x="246.219" y="437.3138">180. List all buildings with given minimum and maximum number of floors</text></g><g id="elem_createFloor"><ellipse cx="610.2423" cy="587.4085" fill="#ADD8E6" rx="203.2423" ry="43.0485" style="stroke:#00008B;stroke-width:0.5;"/><text fill="#000000" font-family="sans-serif" font-size="20" font-weight="bold" lengthAdjust="spacing" textLength="362" x="426.2423" y="595.3484">190. Create a floor in a given building</text></g><g id="elem_editFloor"><ellipse cx="609.9476" cy="708.4495" fill="#ADD8E6" rx="200.9476" ry="42.5895" style="stroke:#00008B;stroke-width:0.5;"/><text fill="#000000" font-family="sans-serif" font-size="20" font-weight="bold" lengthAdjust="spacing" textLength="357" x="428.4476" y="716.3895">200. Edit information of a given floor</text></g><g id="elem_listFloors"><ellipse cx="610.0783" cy="829.5757" fill="#ADD8E6" rx="206.5783" ry="43.7157" style="stroke:#00008B;stroke-width:0.5;"/><text fill="#000000" font-family="sans-serif" font-size="20" font-weight="bold" lengthAdjust="spacing" textLength="364.25" x="422.4533" y="837.5156">210. List all floors for a given building</text></g><g id="elem_listFloorsWithConnections"><ellipse cx="610.0079" cy="965.4616" fill="#ADD8E6" rx="273.5079" ry="57.1016" style="stroke:#00008B;stroke-width:0.5;"/><text fill="#000000" font-family="sans-serif" font-size="20" font-weight="bold" lengthAdjust="spacing" textLength="511.375" x="352.4259" y="972.6776">220. List all floors with connection to other buildings</text></g><g id="elem_loadFloorMap"><ellipse cx="609.7979" cy="1096.5196" fill="#ADD8E6" rx="183.7979" ry="39.1596" style="stroke:#00008B;stroke-width:0.5;"/><text fill="#000000" font-family="sans-serif" font-size="20" font-weight="bold" lengthAdjust="spacing" textLength="319.25" x="447.1729" y="1104.4596">230. Load a map for a given floor</text></g><g id="elem_createConnection"><ellipse cx="609.9387" cy="1218.3477" fill="#ADD8E6" rx="225.4387" ry="47.4877" style="stroke:#00008B;stroke-width:0.5;"/><text fill="#000000" font-family="sans-serif" font-size="20" font-weight="bold" lengthAdjust="spacing" textLength="409.875" x="402.0012" y="1226.2877">240. Create a connection between 2 floors</text></g><g id="elem_editConnection"><ellipse cx="609.7578" cy="1346.3116" fill="#ADD8E6" rx="212.7578" ry="44.9516" style="stroke:#00008B;stroke-width:0.5;"/><text fill="#000000" font-family="sans-serif" font-size="20" font-weight="bold" lengthAdjust="spacing" textLength="382.625" x="415.4453" y="1354.2515">250. Edit a connection between 2 floors</text></g><g id="elem_listBuildingsConnections"><ellipse cx="609.8244" cy="1479.1249" fill="#ADD8E6" rx="249.3244" ry="52.2649" style="stroke:#00008B;stroke-width:0.5;"/><text fill="#000000" font-family="sans-serif" font-size="20" font-weight="bold" lengthAdjust="spacing" textLength="460.625" x="376.5119" y="1487.0649">260. List all the connection between 2 buildings</text></g><g id="elem_createElevator"><ellipse cx="610.2267" cy="1598.3053" fill="#ADD8E6" rx="142.7267" ry="30.9453" style="stroke:#00008B;stroke-width:0.5;"/><text fill="#000000" font-family="sans-serif" font-size="20" font-weight="bold" lengthAdjust="spacing" textLength="224.5" x="494.9767" y="1606.2453">270. Create an elevator</text></g><g id="elem_editElevator"><ellipse cx="610.2192" cy="1693.6038" fill="#ADD8E6" rx="131.7192" ry="28.7438" style="stroke:#00008B;stroke-width:0.5;"/><text fill="#000000" font-family="sans-serif" font-size="20" font-weight="bold" lengthAdjust="spacing" textLength="197.25" x="508.5942" y="1701.5438">280. Edit an elevator</text></g><g id="elem_listElevators"><ellipse cx="609.7541" cy="1807.1108" fill="#ADD8E6" rx="236.7541" ry="49.7508" style="stroke:#00008B;stroke-width:0.5;"/><text fill="#000000" font-family="sans-serif" font-size="20" font-weight="bold" lengthAdjust="spacing" textLength="434" x="389.7541" y="1815.0508">290. List all the elevators for a given building</text></g><g id="elem_listFloorsReachableByElevator"><ellipse cx="609.7999" cy="1960.12" fill="#ADD8E6" rx="324.2999" ry="67.26" style="stroke:#00008B;stroke-width:0.5;"/><text fill="#000000" font-family="sans-serif" font-size="20" font-weight="bold" lengthAdjust="spacing" textLength="616" x="301.7999" y="1965.88">300. List all the floors reachable by elevator for a given building</text></g><g id="elem_createRoom"><ellipse cx="610.1397" cy="2103.4879" fill="#ADD8E6" rx="191.1397" ry="40.6279" style="stroke:#00008B;stroke-width:0.5;"/><text fill="#000000" font-family="sans-serif" font-size="20" font-weight="bold" lengthAdjust="spacing" textLength="335.5" x="439.3897" y="2111.4279">310. Create a room in a given floor</text></g><g id="elem_createRobotType"><ellipse cx="610.0846" cy="2289.4769" fill="#ADD8E6" rx="281.0846" ry="58.6169" style="stroke:#00008B;stroke-width:0.5;"/><text fill="#000000" font-family="sans-serif" font-size="20" font-weight="bold" lengthAdjust="spacing" textLength="527.125" x="345.1913" y="2296.2905">350. Create a new robot type and assign specific tasks</text></g><g id="elem_createRobot"><ellipse cx="610.0876" cy="2429.5775" fill="#ADD8E6" rx="221.5876" ry="46.7175" style="stroke:#00008B;stroke-width:0.5;"/><text fill="#000000" font-family="sans-serif" font-size="20" font-weight="bold" lengthAdjust="spacing" textLength="401.625" x="406.2751" y="2437.5175">360. Create a new robot with a given type</text></g><g id="elem_disableRobot"><ellipse cx="610.1855" cy="2539.3971" fill="#ADD8E6" rx="130.6855" ry="28.5371" style="stroke:#00008B;stroke-width:0.5;"/><text fill="#000000" font-family="sans-serif" font-size="20" font-weight="bold" lengthAdjust="spacing" textLength="194.625" x="509.873" y="2547.3371">370. Disable a robot</text></g><g id="elem_listRobots"><ellipse cx="610.1219" cy="2630.5844" fill="#ADD8E6" rx="124.1219" ry="27.2244" style="stroke:#00008B;stroke-width:0.5;"/><text fill="#000000" font-family="sans-serif" font-size="20" font-weight="bold" lengthAdjust="spacing" textLength="177.625" x="518.3094" y="2638.5244">370. List all robots</text></g><g id="elem_searchRobot"><ellipse cx="609.9898" cy="2749.458" fill="#ADD8E6" rx="270.9898" ry="56.598" style="stroke:#00008B;stroke-width:0.5;"/><text fill="#000000" font-family="sans-serif" font-size="20" font-weight="bold" lengthAdjust="spacing" textLength="506.125" x="354.8378" y="2756.8077">370. Search robots for a specific designation or task</text></g><!--entity Fleet--><g id="elem_Fleet"><ellipse cx="88.5" cy="2504.36" fill="#F1F1F1" rx="8" ry="8" style="stroke:#181818;stroke-width:0.5;"/><path d="M88.5,2512.36 L88.5,2539.36 M75.5,2520.36 L101.5,2520.36 M88.5,2539.36 L75.5,2554.36 M88.5,2539.36 L101.5,2554.36 " fill="none" style="stroke:#181818;stroke-width:0.5;"/><text fill="#000000" font-family="sans-serif" font-size="20" lengthAdjust="spacing" textLength="132" x="22.5" y="2577.24">Fleet Manager</text></g><!--entity Campus--><g id="elem_Campus"><ellipse cx="88.5" cy="1061.36" fill="#F1F1F1" rx="8" ry="8" style="stroke:#181818;stroke-width:0.5;"/><path d="M88.5,1069.36 L88.5,1096.36 M75.5,1077.36 L101.5,1077.36 M88.5,1096.36 L75.5,1111.36 M88.5,1096.36 L101.5,1111.36 " fill="none" style="stroke:#181818;stroke-width:0.5;"/><text fill="#000000" font-family="sans-serif" font-size="20" lengthAdjust="spacing" textLength="165" x="6" y="1134.24">Campus Manager</text></g><!--link Campus to createBuilding--><g id="link_Campus_createBuilding"><path d="M91.7,1052.4 C101.14,872.32 140.72,197.32 207,131.36 C282.1,56.62 408.19,53.62 499.16,63.78 " fill="none" id="Campus-to-createBuilding" style="stroke:#00008B;stroke-width:1.0;"/><polygon fill="#00008B" points="503.87,64.32,495.3856,59.3184,498.9027,63.749,494.4721,67.2661,503.87,64.32" style="stroke:#00008B;stroke-width:1.0;"/></g><!--link Campus to editBuilding--><g id="link_Campus_editBuilding"><path d="M88.87,1052.58 C87.55,894.64 91.74,357.53 207,242.36 C269.77,179.64 368.1,165.33 451.8,166.97 " fill="none" id="Campus-to-editBuilding" style="stroke:#00008B;stroke-width:1.0;"/><polygon fill="#00008B" points="456.8,167.09,447.9058,162.86,451.8017,166.9615,447.7002,170.8573,456.8,167.09" style="stroke:#00008B;stroke-width:1.0;"/></g><!--link Campus to listBuildings--><g id="link_Campus_listBuildings"><path d="M89.6,1052.49 C90.9,905.66 103.23,435.14 207,335.36 C284.02,261.31 411.43,259.01 502.16,269.35 " fill="none" id="Campus-to-listBuildings" style="stroke:#00008B;stroke-width:1.0;"/><polygon fill="#00008B" points="507.12,269.93,498.6515,264.9016,502.1545,269.3433,497.7128,272.8463,507.12,269.93" style="stroke:#00008B;stroke-width:1.0;"/></g><!--link Campus to listBuildingsWithFloors--><g id="link_Campus_listBuildingsWithFloors"><path d="M92.55,1052.57 C101.82,932.49 133.6,601.91 207,526.36 C227.88,504.87 252.65,487.87 279.49,474.45 " fill="none" id="Campus-to-listBuildingsWithFloors" style="stroke:#00008B;stroke-width:1.0;"/><polygon fill="#00008B" points="283.88,472.31,274.0377,472.6693,279.3881,474.506,277.5514,479.8564,283.88,472.31" style="stroke:#00008B;stroke-width:1.0;"/></g><!--link Campus to createFloor--><g id="link_Campus_createFloor"><path d="M94.87,1052.6 C108.27,950.82 146.54,702.73 207,648.36 C261.64,599.22 338.33,579.96 410.09,574.4 " fill="none" id="Campus-to-createFloor" style="stroke:#00008B;stroke-width:1.0;"/><polygon fill="#00008B" points="415.06,574.04,405.7972,570.6933,410.0728,574.3972,406.3688,578.6728,415.06,574.04" style="stroke:#00008B;stroke-width:1.0;"/></g><!--link Campus to editFloor--><g id="link_Campus_editFloor"><path d="M91.52,1052.5 C97.36,980.93 119.93,839.85 207,768.36 C262.92,722.45 338.53,703.69 409.09,697.69 " fill="none" id="Campus-to-editFloor" style="stroke:#00008B;stroke-width:1.0;"/><polygon fill="#00008B" points="413.95,697.31,404.6589,694.0426,408.966,697.7099,405.2987,702.0169,413.95,697.31" style="stroke:#00008B;stroke-width:1.0;"/></g><!--link Campus to listFloors--><g id="link_Campus_listFloors"><path d="M101.82,1052.65 C117.78,1004.62 150.48,929.15 207,890.36 C262.25,852.44 331.81,834.25 397.47,826.38 " fill="none" id="Campus-to-listFloors" style="stroke:#00008B;stroke-width:1.0;"/><polygon fill="#00008B" points="402.31,825.82,392.9111,822.8769,397.3429,826.3926,393.8273,830.8243,402.31,825.82" style="stroke:#00008B;stroke-width:1.0;"/></g><!--link Campus to listFloorsWithConnections--><g id="link_Campus_listFloorsWithConnections"><path d="M171.47,1053.17 C183.19,1048 195.26,1043.21 207,1039.36 C259.92,1022.01 318.17,1008.34 373.51,997.73 " fill="none" id="Campus-to-listFloorsWithConnections" style="stroke:#00008B;stroke-width:1.0;"/><polygon fill="#00008B" points="378.41,996.8,368.8238,994.5406,373.4969,997.7283,370.3092,1002.4015,378.41,996.8" style="stroke:#00008B;stroke-width:1.0;"/></g><!--link Campus to loadFloorMap--><g id="link_Campus_loadFloorMap"><path d="M171.24,1096.36 C237.59,1096.36 333.79,1096.36 419.12,1096.36 " fill="none" id="Campus-to-loadFloorMap" style="stroke:#00008B;stroke-width:1.0;"/><polygon fill="#00008B" points="423.99,1096.36,414.99,1092.36,418.99,1096.36,414.99,1100.36,423.99,1096.36" style="stroke:#00008B;stroke-width:1.0;"/></g><!--link Campus to createConnection--><g id="link_Campus_createConnection"><path d="M171.45,1138.98 C183.17,1144.02 195.25,1148.68 207,1152.36 C269.19,1171.85 338.7,1185.86 402.2,1195.82 " fill="none" id="Campus-to-createConnection" style="stroke:#00008B;stroke-width:1.0;"/><polygon fill="#00008B" points="406.83,1196.53,398.5545,1191.19,401.8898,1195.759,397.3208,1199.0943,406.83,1196.53" style="stroke:#00008B;stroke-width:1.0;"/></g><!--link Campus to editConnection--><g id="link_Campus_editConnection"><path d="M104.58,1140.06 C122.06,1183.78 155.29,1249.29 207,1283.36 C260.79,1318.8 327.26,1336.99 390.56,1345.72 " fill="none" id="Campus-to-editConnection" style="stroke:#00008B;stroke-width:1.0;"/><polygon fill="#00008B" points="395.17,1346.33,386.7883,1341.1582,390.2152,1345.6589,385.7146,1349.0858,395.17,1346.33" style="stroke:#00008B;stroke-width:1.0;"/></g><!--link Campus to listBuildingsConnections--><g id="link_Campus_listBuildingsConnections"><path d="M92.68,1140.1 C100.13,1208.57 124.94,1340.25 207,1408.36 C248.68,1442.95 301.31,1463.22 354.63,1474.63 " fill="none" id="Campus-to-listBuildingsConnections" style="stroke:#00008B;stroke-width:1.0;"/><polygon fill="#00008B" points="359.31,1475.6,351.3076,1469.8587,354.4138,1474.5865,349.686,1477.6927,359.31,1475.6" style="stroke:#00008B;stroke-width:1.0;"/></g><!--link Campus to createElevator--><g id="link_Campus_createElevator"><path d="M94.64,1140.34 C107.61,1243.27 145.11,1495.17 207,1549.36 C282.55,1615.51 398.92,1623.1 487.06,1616.88 " fill="none" id="Campus-to-createElevator" style="stroke:#00008B;stroke-width:1.0;"/><polygon fill="#00008B" points="491.84,1616.53,482.5677,1613.2097,486.8538,1616.9015,483.162,1621.1876,491.84,1616.53" style="stroke:#00008B;stroke-width:1.0;"/></g><!--link Campus to editElevator--><g id="link_Campus_editElevator"><path d="M92.45,1140.33 C101.34,1258.41 131.99,1578.09 207,1646.36 C285.41,1717.72 411.03,1721.29 500.98,1712.19 " fill="none" id="Campus-to-editElevator" style="stroke:#00008B;stroke-width:1.0;"/><polygon fill="#00008B" points="505.89,1711.67,496.5175,1708.6439,500.918,1712.1986,497.3633,1716.5991,505.89,1711.67" style="stroke:#00008B;stroke-width:1.0;"/></g><!--link Campus to listElevators--><g id="link_Campus_listElevators"><path d="M91.17,1140.25 C97.1,1271.17 121.59,1655.06 207,1739.36 C250.11,1781.9 309.3,1803.6 369.02,1813.64 " fill="none" id="Campus-to-listElevators" style="stroke:#00008B;stroke-width:1.0;"/><polygon fill="#00008B" points="373.68,1814.39,365.422,1809.023,368.7424,1813.6028,364.1625,1816.9232,373.68,1814.39" style="stroke:#00008B;stroke-width:1.0;"/></g><!--link Campus to listFloorsReachableByElevator--><g id="link_Campus_listFloorsReachableByElevator"><path d="M89.82,1140.31 C91.81,1288.58 106.08,1767.1 207,1874.36 C232.43,1901.38 264.11,1920.98 298.45,1935.05 " fill="none" id="Campus-to-listFloorsReachableByElevator" style="stroke:#00008B;stroke-width:1.0;"/><polygon fill="#00008B" points="303.04,1936.87,296.1693,1929.8136,298.3976,1935.013,293.1981,1937.2414,303.04,1936.87" style="stroke:#00008B;stroke-width:1.0;"/></g><!--link Campus to createRoom--><g id="link_Campus_createRoom"><path d="M91.84,1140.14 C101.74,1317.96 142.69,1979.74 207,2045.36 C265.27,2104.81 355.28,2121.76 435.37,2122.77 " fill="none" id="Campus-to-createRoom" style="stroke:#00008B;stroke-width:1.0;"/><polygon fill="#00008B" points="440.09,2122.81,431.1246,2118.733,435.0902,2122.7671,431.056,2126.7327,440.09,2122.81" style="stroke:#00008B;stroke-width:1.0;"/></g><!--link Fleet to createRobotType--><g id="link_Fleet_createRobotType"><path d="M107.18,2495.53 C125.83,2455.13 159.19,2396.81 207,2365.36 C246.11,2339.63 291.74,2322.11 337.92,2310.28 " fill="none" id="Fleet-to-createRobotType" style="stroke:#00008B;stroke-width:1.0;"/><polygon fill="#00008B" points="342.68,2309.09,332.9774,2307.399,337.8301,2310.306,334.9231,2315.1588,342.68,2309.09" style="stroke:#00008B;stroke-width:1.0;"/></g><!--link Fleet to createRobot--><g id="link_Fleet_createRobot"><path d="M154.84,2510.91 C171.6,2504.41 189.77,2498.04 207,2493.36 C271.66,2475.78 343.57,2462.44 408.49,2452.61 " fill="none" id="Fleet-to-createRobot" style="stroke:#00008B;stroke-width:1.0;"/><polygon fill="#00008B" points="413.25,2451.9,403.7555,2449.282,408.3055,2452.6431,404.9444,2457.1932,413.25,2451.9" style="stroke:#00008B;stroke-width:1.0;"/></g><!--link Fleet to disableRobot--><g id="link_Fleet_disableRobot"><path d="M154.77,2539.36 C234.11,2539.36 370.1,2539.36 472.66,2539.36 " fill="none" id="Fleet-to-disableRobot" style="stroke:#00008B;stroke-width:1.0;"/><polygon fill="#00008B" points="477.54,2539.36,468.54,2535.36,472.54,2539.36,468.54,2543.36,477.54,2539.36" style="stroke:#00008B;stroke-width:1.0;"/></g><!--link Fleet to listRobots--><g id="link_Fleet_listRobots"><path d="M154.7,2568.37 C171.46,2574.86 189.67,2581.08 207,2585.36 C297.37,2607.7 401.92,2618.97 481.75,2624.64 " fill="none" id="Fleet-to-listRobots" style="stroke:#00008B;stroke-width:1.0;"/><polygon fill="#00008B" points="486.43,2624.97,477.7256,2620.362,481.4418,2624.627,477.1768,2628.3431,486.43,2624.97" style="stroke:#00008B;stroke-width:1.0;"/></g><!--link Fleet to searchRobot--><g id="link_Fleet_searchRobot"><path d="M115.78,2583.15 C136.6,2613.9 168.55,2653.34 207,2675.36 C250.18,2700.09 299.87,2716.83 349.26,2728.09 " fill="none" id="Fleet-to-searchRobot" style="stroke:#00008B;stroke-width:1.0;"/><polygon fill="#00008B" points="354.12,2729.18,346.202,2723.3229,349.2391,2728.0953,344.4666,2731.1324,354.12,2729.18" style="stroke:#00008B;stroke-width:1.0;"/></g><!--SRC=[XLLBRzim3BxxLn2zTyXZJTiS1YnfSselxO2T5PjsXCXI8CdDic7_VNhu8TbAvvD1ylj8Vg8eTQJyH2IfcSYFM4219McOtWckt-blXCKiorGN0ut2d2Y4FncORqFoOoL5mukjO4B22wqEUiCQz5uX2vJUyqJaiNTybrAS4tQNKryO6YWhihzPjjunH0slX9CAvHg80cV9rbjIdneLURmfonYM6hG0QQk1WahCDHKyo-mFuPNXlmdXb5St5fzxcssjQ_DcVZVx0bk9H2CGs3UK5NsuisvQKmHQ6T1pGNK00SfB8MjYAt5mDFua-Dw0NwWoOCPwk78OPimTHaMWXoG8pbGVeA8VoA6cdDPD3OGNK9DVxfytzHubY19A9eHC9Fbf27RE5wLx35LnMDEV-VMf4Z8vZf1YCUiq2eInbNGaZhLNQegVXntxyi4GJOg0lgbf7uj5WiHfbWlE_TZOIHBwO6IQdeLdj1fj-_WumT8c4AGmPTNa51KuDCXCWADw9QS8_JMKEIXfZ_gCXc8HdfiNUYWaOheR9l9_F5RkAoohK2wZIPhhavcz9jDzq2W7PFX1T2kER-kvDKMeXxwf4SQsa4GyZXleOEdPwHleoAAgbxCnMpj1fkByGFPcp-mlVORF4_X9Ukk0cqkg_EKyd0SfH1tUkc6Ul6HlncztQB3rWctQ9I-TATfvosZdSJoRL7jXLkhbX6vz4ALenK6TCASbpK4JTLHHPXF-mqH7hAiqgxjkNGysnPWe8h63yaIL4vTu1XTVU5iQq9-HYn_6qaMhIVWx4faVsk3ssFfU2xIzjzjAkjOTdt8Wdz-8thuljxVVnkz4u8cUWC0Uh_bhZc0rJxBvTJbADJ46Ip5f7I-sC2XSMPFqmVeOrP3sNDqH4-R-MenuK_RuuYOxJ5suIKvtaJ9_Tq9hD-H9Js2DPdCm1nCu6CCn-WS0]--></g></svg>