<?xml version="1.0" encoding="UTF-8" standalone="no"?><svg xmlns="http://www.w3.org/2000/svg" xmlns:xlink="http://www.w3.org/1999/xlink" contentStyleType="text/css" height="4631px" preserveAspectRatio="none" style="width:1499px;height:4631px;background:#FFFFFF;" version="1.1" viewBox="0 0 1499 4631" width="1499px" zoomAndPan="magnify"><defs/><g><!--cluster campus--><g id="cluster_campus"><rect fill="none" height="3576" rx="2.5" ry="2.5" style="stroke:#181818;stroke-width:1.0;" width="1268" x="225" y="7.2168"/><text fill="#000000" font-family="sans-serif" font-size="20" font-weight="bold" lengthAdjust="spacing" textLength="208" x="755" y="27.7813">Campus Managing</text></g><!--cluster fleet--><g id="cluster_fleet"><rect fill="none" height="1018" rx="2.5" ry="2.5" style="stroke:#181818;stroke-width:1.0;" width="1020" x="349" y="3607.2168"/><text fill="#000000" font-family="sans-serif" font-size="20" font-weight="bold" lengthAdjust="spacing" textLength="177" x="770.5" y="3627.7813">Fleet Managing</text></g><g id="elem_createBuilding"><ellipse cx="858.7907" cy="117.2749" fill="#ADD8E6" rx="325.7907" ry="67.5581" style="stroke:#00008B;stroke-width:0.5;"/><text fill="#000000" font-family="sans-serif" font-size="20" font-weight="bold" lengthAdjust="spacing" textLength="623" x="547.2907" y="122.1988">150. As a campus manager, I want to create a building</text></g><g id="elem_editBuilding"><ellipse cx="859.0077" cy="298.3183" fill="#ADD8E6" rx="381.0077" ry="78.6015" style="stroke:#00008B;stroke-width:0.5;"/><text fill="#000000" font-family="sans-serif" font-size="20" font-weight="bold" lengthAdjust="spacing" textLength="735" x="491.5077" y="303.2422">160. As a campus manager, I want to edit a building information</text></g><g id="elem_listBuildings"><ellipse cx="858.8909" cy="478.095" fill="#ADD8E6" rx="319.8909" ry="66.3782" style="stroke:#00008B;stroke-width:0.5;"/><text fill="#000000" font-family="sans-serif" font-size="20" font-weight="bold" lengthAdjust="spacing" textLength="611" x="553.3909" y="483.0188">170. As a campus manager, I want to list all buildings</text></g><g id="elem_listBuildingsWithFloors"><ellipse cx="858.7614" cy="706.1691" fill="#ADD8E6" rx="617.7614" ry="125.9523" style="stroke:#00008B;stroke-width:0.5;"/><text fill="#000000" font-family="sans-serif" font-size="20" font-weight="bold" lengthAdjust="spacing" textLength="1212" x="252.7614" y="711.0929">180. As a campus manager, I want to list all buildings with given minimum and maximum number of floors</text></g><g id="elem_createFloor"><ellipse cx="859.1406" cy="952.4449" fill="#ADD8E6" rx="414.1406" ry="85.2281" style="stroke:#00008B;stroke-width:0.5;"/><text fill="#000000" font-family="sans-serif" font-size="20" font-weight="bold" lengthAdjust="spacing" textLength="802" x="458.1406" y="957.3687">190. As a campus manager, I want to create a floor in a given building</text></g><g id="elem_editFloor"><ellipse cx="859.1659" cy="1157.45" fill="#ADD8E6" rx="411.6659" ry="84.7332" style="stroke:#00008B;stroke-width:0.5;"/><text fill="#000000" font-family="sans-serif" font-size="20" font-weight="bold" lengthAdjust="spacing" textLength="797" x="460.6659" y="1162.3738">200. As a campus manager, I want to edit information of a given floor</text></g><g id="elem_listFloors"><ellipse cx="859.1057" cy="1363.1379" fill="#ADD8E6" rx="417.6057" ry="85.9211" style="stroke:#00008B;stroke-width:0.5;"/><text fill="#000000" font-family="sans-serif" font-size="20" font-weight="bold" lengthAdjust="spacing" textLength="802" x="454.6057" y="1368.0618">210. As a campus manager, I want to list all floors for a given building</text></g><g id="elem_listFloorsWithConnections"><ellipse cx="858.9307" cy="1586.3029" fill="#ADD8E6" rx="498.4307" ry="102.0861" style="stroke:#00008B;stroke-width:0.5;"/><text fill="#000000" font-family="sans-serif" font-size="20" font-weight="bold" lengthAdjust="spacing" textLength="972" x="372.9307" y="1591.2268">220. As a campus manager, I want to list all floors with connection to other buildings</text></g><g id="elem_loadFloorMap"><ellipse cx="858.9373" cy="1803.0043" fill="#ADD8E6" rx="386.9373" ry="79.7875" style="stroke:#00008B;stroke-width:0.5;"/><text fill="#000000" font-family="sans-serif" font-size="20" font-weight="bold" lengthAdjust="spacing" textLength="747" x="485.4373" y="1807.9281">230. As a campus manager, I want to load a map for a given floor</text></g><g id="elem_createConnection"><ellipse cx="858.8854" cy="2009.2939" fill="#ADD8E6" rx="440.8854" ry="90.5771" style="stroke:#00008B;stroke-width:0.5;"/><text fill="#000000" font-family="sans-serif" font-size="20" font-weight="bold" lengthAdjust="spacing" textLength="856" x="430.8854" y="2014.2177">240. As a campus manager, I want to create a connection between 2 floors</text></g><g id="elem_editConnection"><ellipse cx="859.0184" cy="2222.4205" fill="#ADD8E6" rx="426.5184" ry="87.7037" style="stroke:#00008B;stroke-width:0.5;"/><text fill="#000000" font-family="sans-serif" font-size="20" font-weight="bold" lengthAdjust="spacing" textLength="827" x="445.5184" y="2227.3443">250. As a campus manager, I want to edit a connection between 2 floors</text></g><g id="elem_listBuildingsConnections"><ellipse cx="859.144" cy="2441.0456" fill="#ADD8E6" rx="469.644" ry="96.3288" style="stroke:#00008B;stroke-width:0.5;"/><text fill="#000000" font-family="sans-serif" font-size="20" font-weight="bold" lengthAdjust="spacing" textLength="914" x="402.144" y="2445.9694">260. As a campus manager, I want to list all the connection between 2 buildings</text></g><g id="elem_createElevator"><ellipse cx="859.1394" cy="2642.1447" fill="#ADD8E6" rx="335.1394" ry="69.4279" style="stroke:#00008B;stroke-width:0.5;"/><text fill="#000000" font-family="sans-serif" font-size="20" font-weight="bold" lengthAdjust="spacing" textLength="642" x="538.1394" y="2647.0685">270. As a campus manager, I want to create an elevator</text></g><g id="elem_editElevator"><ellipse cx="858.874" cy="2813.2916" fill="#ADD8E6" rx="320.874" ry="66.5748" style="stroke:#00008B;stroke-width:0.5;"/><text fill="#000000" font-family="sans-serif" font-size="20" font-weight="bold" lengthAdjust="spacing" textLength="613" x="552.374" y="2818.2154">280. As a campus manager, I want to edit an elevator</text></g><g id="elem_listElevators"><ellipse cx="859.2443" cy="3009.0657" fill="#ADD8E6" rx="457.2443" ry="93.8489" style="stroke:#00008B;stroke-width:0.5;"/><text fill="#000000" font-family="sans-serif" font-size="20" font-weight="bold" lengthAdjust="spacing" textLength="889" x="414.7443" y="3013.9895">290. As a campus manager, I want to list all the elevators for a given building</text></g><g id="elem_listFloorsReachableByElevator"><ellipse cx="859.0273" cy="3253.4223" fill="#ADD8E6" rx="564.0273" ry="115.2055" style="stroke:#00008B;stroke-width:0.5;"/><text fill="#000000" font-family="sans-serif" font-size="20" font-weight="bold" lengthAdjust="spacing" textLength="1104" x="307.0273" y="3258.3461">300. As a campus manager, I want to list all the floors reachable by elevator for a given building</text></g><g id="elem_createRoom"><ellipse cx="858.8082" cy="3485.2784" fill="#ADD8E6" rx="398.3082" ry="82.0616" style="stroke:#00008B;stroke-width:0.5;"/><text fill="#000000" font-family="sans-serif" font-size="20" font-weight="bold" lengthAdjust="spacing" textLength="770" x="473.8082" y="3490.2023">310. As a campus manager, I want to create a room in a given floor</text></g><g id="elem_createRobotType"><ellipse cx="858.9622" cy="3750.4092" fill="#ADD8E6" rx="493.9622" ry="101.1924" style="stroke:#00008B;stroke-width:0.5;"/><text fill="#000000" font-family="sans-serif" font-size="20" font-weight="bold" lengthAdjust="spacing" textLength="963" x="377.4622" y="3755.3331">350. As a fleet manager, I want to create a new robot type and assign specific tasks</text></g><g id="elem_createRobot"><ellipse cx="859.0616" cy="3973.0291" fill="#ADD8E6" rx="422.0616" ry="86.8123" style="stroke:#00008B;stroke-width:0.5;"/><text fill="#000000" font-family="sans-serif" font-size="20" font-weight="bold" lengthAdjust="spacing" textLength="818" x="450.0616" y="3977.9529">360. As a fleet manager, I want to create a new robot with a given type</text></g><g id="elem_disableRobot"><ellipse cx="858.7733" cy="4157.9715" fill="#ADD8E6" rx="299.2733" ry="62.2547" style="stroke:#00008B;stroke-width:0.5;"/><text fill="#000000" font-family="sans-serif" font-size="20" font-weight="bold" lengthAdjust="spacing" textLength="569" x="574.2733" y="4162.8953">370. As a fleet manager, I want to disable a robot</text></g><g id="elem_listRobots"><ellipse cx="858.9749" cy="4316.0118" fill="#ADD8E6" rx="289.4749" ry="60.295" style="stroke:#00008B;stroke-width:0.5;"/><text fill="#000000" font-family="sans-serif" font-size="20" font-weight="bold" lengthAdjust="spacing" textLength="549" x="584.4749" y="4320.9356">370. As a fleet manager, I want to list all robots</text></g><g id="elem_searchRobot"><ellipse cx="859.0563" cy="4510.3281" fill="#ADD8E6" rx="481.0563" ry="98.6113" style="stroke:#00008B;stroke-width:0.5;"/><text fill="#000000" font-family="sans-serif" font-size="20" font-weight="bold" lengthAdjust="spacing" textLength="937" x="390.5563" y="4515.2519">370. As a fleet manager, I want to search robots for a specific designation or task</text></g><!--entity Fleet--><g id="elem_Fleet"><ellipse cx="93.5" cy="4125.2168" fill="#F1F1F1" rx="8" ry="8" style="stroke:#181818;stroke-width:0.5;"/><path d="M93.5,4133.2168 L93.5,4160.2168 M80.5,4141.2168 L106.5,4141.2168 M93.5,4160.2168 L80.5,4175.2168 M93.5,4160.2168 L106.5,4175.2168 " fill="none" style="stroke:#181818;stroke-width:0.5;"/><text fill="#000000" font-family="sans-serif" font-size="20" lengthAdjust="spacing" textLength="143" x="22" y="4195.2813">Fleet Manager</text></g><!--entity Campus--><g id="elem_Campus"><ellipse cx="93.5" cy="1770.2168" fill="#F1F1F1" rx="8" ry="8" style="stroke:#181818;stroke-width:0.5;"/><path d="M93.5,1778.2168 L93.5,1805.2168 M80.5,1786.2168 L106.5,1786.2168 M93.5,1805.2168 L80.5,1820.2168 M93.5,1805.2168 L106.5,1820.2168 " fill="none" style="stroke:#181818;stroke-width:0.5;"/><text fill="#000000" font-family="sans-serif" font-size="20" lengthAdjust="spacing" textLength="175" x="6" y="1840.2813">Campus Manager</text></g><!--link Campus to createBuilding--><g id="link_Campus_createBuilding"><path d="M94.62,1761.4168 C95.72,1520.7868 106.73,318.7868 217,202.2168 C307.93,106.0968 451.01,80.4668 578.94,80.7968 " fill="none" id="Campus-to-createBuilding" style="stroke:#00008B;stroke-width:1.0;"/><polygon fill="#00008B" points="584.25,80.8268,575.273,76.7754,579.2501,80.7982,575.2273,84.7753,584.25,80.8268" style="stroke:#00008B;stroke-width:1.0;"/></g><!--link Campus to editBuilding--><g id="link_Campus_editBuilding"><path d="M95.11,1761.4668 C98.77,1538.7168 120.94,496.4268 217,394.2168 C288.05,318.6268 391.06,285.0268 493.79,272.9868 " fill="none" id="Campus-to-editBuilding" style="stroke:#00008B;stroke-width:1.0;"/><polygon fill="#00008B" points="499,272.3868,489.6021,269.4407,494.0327,272.9578,490.5156,277.3883,499,272.3868" style="stroke:#00008B;stroke-width:1.0;"/></g><!--link Campus to listBuildings--><g id="link_Campus_listBuildings"><path d="M95.6,1761.4268 C101.42,1554.9768 131.66,650.3268 217,562.2168 C310.1,466.0968 455.51,441.2868 584.31,442.2168 " fill="none" id="Campus-to-listBuildings" style="stroke:#00008B;stroke-width:1.0;"/><polygon fill="#00008B" points="589.66,442.2668,580.7063,438.1642,584.6603,442.2097,580.6149,446.1637,589.66,442.2668" style="stroke:#00008B;stroke-width:1.0;"/></g><!--link Campus to listBuildingsWithFloors--><g id="link_Campus_listBuildingsWithFloors"><path d="M97.05,1761.7168 C108.13,1587.0768 154.44,917.8068 217,849.2168 C245.98,817.4468 280.34,791.9268 317.86,771.5168 " fill="none" id="Campus-to-listBuildingsWithFloors" style="stroke:#00008B;stroke-width:1.0;"/><polygon fill="#00008B" points="322.45,769.0568,312.6286,769.7923,318.0454,771.423,316.4146,776.8398,322.45,769.0568" style="stroke:#00008B;stroke-width:1.0;"/></g><!--link Campus to createFloor--><g id="link_Campus_createFloor"><path d="M95.17,1761.4868 C98.34,1619.0868 116.36,1155.5568 217,1055.2168 C277.55,994.8468 358.51,961.2068 442.46,943.7668 " fill="none" id="Campus-to-createFloor" style="stroke:#00008B;stroke-width:1.0;"/><polygon fill="#00008B" points="447.48,942.7368,437.8619,940.6172,442.581,943.7366,439.4616,948.4557,447.48,942.7368" style="stroke:#00008B;stroke-width:1.0;"/></g><!--link Campus to editFloor--><g id="link_Campus_editFloor"><path d="M97.95,1761.5268 C108.35,1646.4568 143.31,1328.3568 217,1259.2168 C279.04,1201.0068 360.24,1168.2568 443.89,1151.0168 " fill="none" id="Campus-to-editFloor" style="stroke:#00008B;stroke-width:1.0;"/><polygon fill="#00008B" points="448.9,1150.0068,439.2879,1147.8603,443.9982,1150.9929,440.8656,1155.7032,448.9,1150.0068" style="stroke:#00008B;stroke-width:1.0;"/></g><!--link Campus to listFloors--><g id="link_Campus_listFloors"><path d="M96.65,1761.4568 C102.76,1689.1368 126.31,1541.1768 217,1466.2168 C279.16,1414.8368 356.65,1384.1268 436.05,1366.5568 " fill="none" id="Campus-to-listFloors" style="stroke:#00008B;stroke-width:1.0;"/><polygon fill="#00008B" points="441.28,1365.4168,431.6321,1363.4375,436.3961,1366.4878,433.3457,1371.2518,441.28,1365.4168" style="stroke:#00008B;stroke-width:1.0;"/></g><!--link Campus to listFloorsWithConnections--><g id="link_Campus_listFloorsWithConnections"><path d="M135.77,1761.6368 C158.03,1741.5768 187.03,1718.9268 217,1705.2168 C280.32,1676.2368 350.23,1654.3168 419.9,1637.7368 " fill="none" id="Campus-to-listFloorsWithConnections" style="stroke:#00008B;stroke-width:1.0;"/><polygon fill="#00008B" points="424.92,1636.5468,415.2443,1634.7082,420.0522,1637.6888,417.0715,1642.4967,424.92,1636.5468" style="stroke:#00008B;stroke-width:1.0;"/></g><!--link Campus to loadFloorMap--><g id="link_Campus_loadFloorMap"><path d="M181.34,1803.2168 C252.71,1803.2168 359.24,1803.2168 466.77,1803.2168 " fill="none" id="Campus-to-loadFloorMap" style="stroke:#00008B;stroke-width:1.0;"/><polygon fill="#00008B" points="471.89,1803.2168,462.89,1799.2168,466.89,1803.2168,462.89,1807.2168,471.89,1803.2168" style="stroke:#00008B;stroke-width:1.0;"/></g><!--link Campus to createConnection--><g id="link_Campus_createConnection"><path d="M136.03,1844.7968 C158.25,1864.6468 187.14,1886.9168 217,1900.2168 C289.65,1932.5768 370.86,1955.3868 450.41,1971.4468 " fill="none" id="Campus-to-createConnection" style="stroke:#00008B;stroke-width:1.0;"/><polygon fill="#00008B" points="455.65,1972.4868,447.5997,1966.813,450.7455,1971.5145,446.044,1974.6602,455.65,1972.4868" style="stroke:#00008B;stroke-width:1.0;"/></g><!--link Campus to editConnection--><g id="link_Campus_editConnection"><path d="M97.93,1844.8968 C105.93,1913.2768 132.18,2048.5468 217,2117.2168 C277.46,2166.1668 351.88,2196.3668 428.35,2214.3568 " fill="none" id="Campus-to-editConnection" style="stroke:#00008B;stroke-width:1.0;"/><polygon fill="#00008B" points="433.39,2215.5168,425.525,2209.5888,428.519,2214.3883,423.7194,2217.3823,433.39,2215.5168" style="stroke:#00008B;stroke-width:1.0;"/></g><!--link Campus to listBuildingsConnections--><g id="link_Campus_listBuildingsConnections"><path d="M98.41,1844.9268 C109.77,1956.9668 146.56,2260.4568 217,2327.2168 C265.57,2373.2568 325.97,2404.0868 390.11,2424.2968 " fill="none" id="Campus-to-listBuildingsConnections" style="stroke:#00008B;stroke-width:1.0;"/><polygon fill="#00008B" points="395.13,2425.8568,387.7261,2419.362,390.3561,2424.3703,385.3477,2427.0003,395.13,2425.8568" style="stroke:#00008B;stroke-width:1.0;"/></g><!--link Campus to createElevator--><g id="link_Campus_createElevator"><path d="M95.03,1844.7568 C97.77,1987.6268 114.53,2455.4368 217,2555.2168 C305.1,2641.0068 435.11,2669.3268 555.05,2673.6368 " fill="none" id="Campus-to-createElevator" style="stroke:#00008B;stroke-width:1.0;"/><polygon fill="#00008B" points="560.39,2673.8168,551.5201,2669.5361,555.3925,2673.6597,551.2688,2677.5321,560.39,2673.8168" style="stroke:#00008B;stroke-width:1.0;"/></g><!--link Campus to editElevator--><g id="link_Campus_editElevator"><path d="M97.06,1844.8068 C108.01,2016.6868 153.36,2665.6468 217,2729.2168 C310.21,2822.3068 452.69,2847.6968 579.67,2847.8968 " fill="none" id="Campus-to-editElevator" style="stroke:#00008B;stroke-width:1.0;"/><polygon fill="#00008B" points="584.94,2847.8868,575.9286,2843.9125,579.94,2847.9011,575.9515,2851.9125,584.94,2847.8868" style="stroke:#00008B;stroke-width:1.0;"/></g><!--link Campus to listElevators--><g id="link_Campus_listElevators"><path d="M96.26,1844.9668 C104.67,2035.7768 143.48,2819.0268 217,2897.2168 C265.75,2949.0568 329.31,2982.1668 397.45,3002.6268 " fill="none" id="Campus-to-listElevators" style="stroke:#00008B;stroke-width:1.0;"/><polygon fill="#00008B" points="402.36,3004.0768,394.8575,2997.6962,397.5639,3002.6636,392.5964,3005.37,402.36,3004.0768" style="stroke:#00008B;stroke-width:1.0;"/></g><!--link Campus to listFloorsReachableByElevator--><g id="link_Campus_listFloorsReachableByElevator"><path d="M95.48,1844.9268 C100.88,2058.4568 129.96,3022.8468 217,3120.2168 C249.86,3156.9768 290,3185.0968 334,3206.4568 " fill="none" id="Campus-to-listFloorsReachableByElevator" style="stroke:#00008B;stroke-width:1.0;"/><polygon fill="#00008B" points="338.54,3208.6268,332.1441,3201.1373,334.0286,3206.471,328.6949,3208.3555,338.54,3208.6268" style="stroke:#00008B;stroke-width:1.0;"/></g><!--link Campus to createRoom--><g id="link_Campus_createRoom"><path d="M94.7,1844.8668 C96.25,2083.3368 109.36,3268.8968 217,3385.2168 C281.73,3455.1668 373.69,3489.7968 467.81,3504.8168 " fill="none" id="Campus-to-createRoom" style="stroke:#00008B;stroke-width:1.0;"/><polygon fill="#00008B" points="472.87,3505.6068,464.5945,3500.2668,467.9298,3504.8358,463.3608,3508.1711,472.87,3505.6068" style="stroke:#00008B;stroke-width:1.0;"/></g><!--link Fleet to createRobotType--><g id="link_Fleet_createRobotType"><path d="M99.64,4116.4568 C109.85,4052.4568 138.91,3930.9268 217,3868.2168 C265.49,3829.2768 322.69,3801.6268 382.65,3782.1968 " fill="none" id="Fleet-to-createRobotType" style="stroke:#00008B;stroke-width:1.0;"/><polygon fill="#00008B" points="387.71,3780.5768,377.9178,3779.5218,382.9497,3782.1064,380.3651,3787.1383,387.71,3780.5768" style="stroke:#00008B;stroke-width:1.0;"/></g><!--link Fleet to createRobot--><g id="link_Fleet_createRobot"><path d="M147.63,4116.5868 C168.26,4102.3468 192.73,4087.6468 217,4078.2168 C296.36,4047.3968 384.66,4025.6168 469.73,4010.2368 " fill="none" id="Fleet-to-createRobot" style="stroke:#00008B;stroke-width:1.0;"/><polygon fill="#00008B" points="474.81,4009.3268,465.251,4006.9549,469.8864,4010.1974,466.6439,4014.8327,474.81,4009.3268" style="stroke:#00008B;stroke-width:1.0;"/></g><!--link Fleet to disableRobot--><g id="link_Fleet_disableRobot"><path d="M165.3,4158.2168 C253.99,4158.2168 411.65,4158.2168 554.17,4158.2168 " fill="none" id="Fleet-to-disableRobot" style="stroke:#00008B;stroke-width:1.0;"/><polygon fill="#00008B" points="559.24,4158.2168,550.24,4154.2168,554.24,4158.2168,550.24,4162.2168,559.24,4158.2168" style="stroke:#00008B;stroke-width:1.0;"/></g><!--link Fleet to listRobots--><g id="link_Fleet_listRobots"><path d="M146.53,4199.7568 C167.31,4214.2668 192.18,4229.1668 217,4238.2168 C327.02,4278.3568 453.99,4298.7168 565.75,4308.7668 " fill="none" id="Fleet-to-listRobots" style="stroke:#00008B;stroke-width:1.0;"/><polygon fill="#00008B" points="571.07,4309.2468,562.4592,4304.4662,566.0896,4308.8044,561.7514,4312.4348,571.07,4309.2468" style="stroke:#00008B;stroke-width:1.0;"/></g><!--link Fleet to searchRobot--><g id="link_Fleet_searchRobot"><path d="M104,4199.7468 C118.61,4253.5868 151.99,4346.2668 217,4394.2168 C269.67,4433.0668 331.28,4460.2768 395.09,4479.1268 " fill="none" id="Fleet-to-searchRobot" style="stroke:#00008B;stroke-width:1.0;"/><polygon fill="#00008B" points="400.09,4480.5868,392.57,4474.2268,395.29,4479.1868,390.33,4481.9068,400.09,4480.5868" style="stroke:#00008B;stroke-width:1.0;"/></g><!--SRC=[dLR9Rjim4BthAmOvDuMNPZqKYDC6AD1SqW8zqzB89aoH1ad5TOl-Uxb8CYdHiHMVZ3V3zsRXSAGsb6-991KJ-GOBAB0aDTDFWkiVz0_2R99bglM1Mc5E5CBV3CnlGVBDIegQ5u-22GdVwMgj5wn6RnMoGEajNuZST8O7ASKkWJjDlMTeZh8Y-vTbzqyCKSCpuMI5yXw80eTazu-asjOgidWeonYM6hG0QQE1WahCDHKyo-mVmbU6_o8yJldgmfxFFMPJQzEyc5vDFiA30j9QAo_u0Rx1Zd2daqia6etBigQiwDWSkcYWYFFwD2SML0UCG7afP4Li7exTsfFSDwUv6LM6cx6ENJbA2xUKAkAyVGydxAXUmug-8eUASbhL5H1UcCE_tNzULqkK84eecH0o4SClG_3aR54qToCwugXDySnV7qcYHKuYL9XDpknFq1IRHwlXHBik3Ucd8yhfQmD6Pv02T1KR5cas6w_X-fKBplsuM1UXrwP5mslY1Mr_7Zl_M7z-XhuWXN6eo3PAxr0zw-2Kdias8lyquWO42IrHxz0epC8RvnqFQKH2LsSFwYaPwtP4v7f4gqm_qb9lZFAn5jsSNqKEoF2LwAOn7lxQG17fxRaLwr5QC4buDx8wBMjwPhhgj5fHIUQJaMBDv9Xov6koD7jbkUy2U5lVJz1BUt2nJoK_duwuw5A8Adpf3dFaNLwCtQxKO0a6oxMDhNHGj0BdtHHuurj1SDoPG9R2eFijklUUA4LN7DGMSrhI73HH6nN5PTn_6kz8y_ezcku5Q_Et0VHb8ecRan85LQwhnFCxjWPx3rrtTHpROL8Tbnf9ff38VDrGDNUjgt61jkRDOfAkv4xD7_AncwlGV0HTNdxkVwq4bkXB8y3ZpuLZXc273zJyPkn93S1WmINH_XOAdS85Cf0FdkDU36dBqKTrmDpDSeytXSUFKJB3r2inq7JZdVc93j5sk9AM08tkzG4ExkS13A_HVm00]--></g></svg>