<?xml version="1.0" encoding="UTF-8" standalone="no"?><svg xmlns="http://www.w3.org/2000/svg" xmlns:xlink="http://www.w3.org/1999/xlink" contentStyleType="text/css" height="2634px" preserveAspectRatio="none" style="width:918px;height:2634px;background:#FFFFFF;" version="1.1" viewBox="0 0 918 2634" width="918px" zoomAndPan="magnify"><defs/><g><!--cluster task--><g id="cluster_task"><rect fill="none" height="628" rx="2.5" ry="2.5" style="stroke:#181818;stroke-width:1.0;" width="596" x="252.5" y="2000.2168"/><text fill="#000000" font-family="sans-serif" font-size="20" font-weight="bold" lengthAdjust="spacing" textLength="160" x="470.5" y="2020.7813">Task Manager</text></g><!--cluster admin--><g id="cluster_admin"><rect fill="none" height="791" rx="2.5" ry="2.5" style="stroke:#181818;stroke-width:1.0;" width="723" x="189" y="1185.2168"/><text fill="#000000" font-family="sans-serif" font-size="20" font-weight="bold" lengthAdjust="spacing" textLength="158" x="471.5" y="1205.7813">Administrator</text></g><!--cluster user--><g id="cluster_user"><rect fill="none" height="1154" rx="2.5" ry="2.5" style="stroke:#181818;stroke-width:1.0;" width="660" x="220.5" y="7.2168"/><text fill="#000000" font-family="sans-serif" font-size="20" font-weight="bold" lengthAdjust="spacing" textLength="52" x="524.5" y="27.7813">User</text></g><g id="elem_requestTask"><ellipse cx="550.5174" cy="2072.0203" fill="#ADD8E6" rx="137.0174" ry="29.8035" style="stroke:#00008B;stroke-width:0.5;"/><text fill="#000000" font-family="sans-serif" font-size="20" font-weight="bold" lengthAdjust="spacing" textLength="227" x="434.0174" y="2078.5525">460. Request a task</text></g><g id="elem_approveOrDenyRequest"><ellipse cx="550.3938" cy="2179.1956" fill="#ADD8E6" rx="197.8938" ry="41.9788" style="stroke:#00008B;stroke-width:0.5;"/><text fill="#000000" font-family="sans-serif" font-size="20" font-weight="bold" lengthAdjust="spacing" textLength="360" x="370.3938" y="2184.1194">470. Approve or deny a request</text></g><g id="elem_consultAllRequestPending"><ellipse cx="550.6496" cy="2299.2467" fill="#ADD8E6" rx="203.1496" ry="43.0299" style="stroke:#00008B;stroke-width:0.5;"/><text fill="#000000" font-family="sans-serif" font-size="20" font-weight="bold" lengthAdjust="spacing" textLength="371" x="365.1496" y="2304.1705">480. Consult all request pending</text></g><g id="elem_listRequestByUserStateOrDeviceType"><ellipse cx="550.6355" cy="2436.0439" fill="#ADD8E6" rx="282.1355" ry="58.8271" style="stroke:#00008B;stroke-width:0.5;"/><text fill="#000000" font-family="sans-serif" font-size="20" font-weight="bold" lengthAdjust="spacing" textLength="534" x="283.6355" y="2440.9677">490. List request by User, State or device type</text></g><g id="elem_obtainSequenceOfTasks"><ellipse cx="550.7257" cy="2571.3619" fill="#ADD8E6" rx="191.2257" ry="40.6451" style="stroke:#00008B;stroke-width:0.5;"/><text fill="#000000" font-family="sans-serif" font-size="20" font-weight="bold" lengthAdjust="spacing" textLength="346" x="377.5547" y="2576.391">500. Obtain sequence of tasks</text></g><g id="elem_createUser"><ellipse cx="550.3812" cy="1267.293" fill="#ADD8E6" rx="188.3812" ry="40.0762" style="stroke:#00008B;stroke-width:0.5;"/><text fill="#000000" font-family="sans-serif" font-size="20" font-weight="bold" lengthAdjust="spacing" textLength="340" x="379.8781" y="1272.5211">10. Create a new system user</text></g><g id="elem_addPossibilityToRegister"><ellipse cx="550.3994" cy="1408.9967" fill="#ADD8E6" rx="319.3994" ry="66.2799" style="stroke:#00008B;stroke-width:0.5;"/><text fill="#000000" font-family="sans-serif" font-size="20" font-weight="bold" lengthAdjust="spacing" textLength="610" x="245.3994" y="1413.9205">20. Add possibility to (students, teachers) to register</text></g><g id="elem_changeMenuAccordingToUserType"><ellipse cx="550.6599" cy="1565.2488" fill="#ADD8E6" rx="260.6599" ry="54.532" style="stroke:#00008B;stroke-width:0.5;"/><text fill="#000000" font-family="sans-serif" font-size="20" font-weight="bold" lengthAdjust="spacing" textLength="490" x="305.6599" y="1570.1726">1300. Change menu according to user type</text></g><g id="elem_backendServicesNeedsToBeAuthenticated"><ellipse cx="550.6964" cy="1718.2561" fill="#ADD8E6" rx="303.1964" ry="63.0393" style="stroke:#00008B;stroke-width:0.5;"/><text fill="#000000" font-family="sans-serif" font-size="20" font-weight="bold" lengthAdjust="spacing" textLength="577" x="262.1964" y="1723.1799">1310. Backend services needs to be authenticated</text></g><g id="elem_backendServicesNeedToValidateUserPermissions"><ellipse cx="550.4819" cy="1888.2132" fill="#ADD8E6" rx="345.4819" ry="71.4964" style="stroke:#00008B;stroke-width:0.5;"/><text fill="#000000" font-family="sans-serif" font-size="20" font-weight="bold" lengthAdjust="spacing" textLength="663" x="218.9819" y="1893.137">1320. Backend services need to validate user permissions</text></g><g id="elem_consentToTheUseOfPersonalData"><ellipse cx="550.6595" cy="100.2487" fill="#ADD8E6" rx="243.1595" ry="51.0319" style="stroke:#00008B;stroke-width:0.5;"/><text fill="#000000" font-family="sans-serif" font-size="20" font-weight="bold" lengthAdjust="spacing" textLength="454" x="323.6595" y="105.1725">30. Consent to the use of personal data</text></g><g id="elem_informAboutTheUseOfPersonalData"><ellipse cx="550.3186" cy="240.0805" fill="#ADD8E6" rx="254.8186" ry="53.3637" style="stroke:#00008B;stroke-width:0.5;"/><text fill="#000000" font-family="sans-serif" font-size="20" font-weight="bold" lengthAdjust="spacing" textLength="478" x="311.3186" y="245.0043">40. Inform about the use of personal data</text></g><g id="elem_knowAndHaveAccessToThePersonResponsible"><ellipse cx="550.4949" cy="394.4158" fill="#ADD8E6" rx="313.9949" ry="65.199" style="stroke:#00008B;stroke-width:0.5;"/><text fill="#000000" font-family="sans-serif" font-size="20" font-weight="bold" lengthAdjust="spacing" textLength="599" x="250.9949" y="399.3396">50. Know and have access to the person responsible</text></g><g id="elem_knowHowLongTheDataWillBeStored"><ellipse cx="550.2916" cy="548.2751" fill="#ADD8E6" rx="255.7916" ry="53.5583" style="stroke:#00008B;stroke-width:0.5;"/><text fill="#000000" font-family="sans-serif" font-size="20" font-weight="bold" lengthAdjust="spacing" textLength="480" x="310.2916" y="553.1989">60. Know how long the data will be stored</text></g><g id="elem_knowMyRights"><ellipse cx="550.4863" cy="666.4141" fill="#ADD8E6" rx="133.9863" ry="29.1973" style="stroke:#00008B;stroke-width:0.5;"/><text fill="#000000" font-family="sans-serif" font-size="20" font-weight="bold" lengthAdjust="spacing" textLength="220" x="437.4863" y="672.9463">70. Know my rights</text></g><g id="elem_approveOrDenyUser"><ellipse cx="550.4094" cy="767.2987" fill="#ADD8E6" rx="173.4094" ry="37.0819" style="stroke:#00008B;stroke-width:0.5;"/><text fill="#000000" font-family="sans-serif" font-size="20" font-weight="bold" lengthAdjust="spacing" textLength="308" x="393.9502" y="773.5745">80. Approve or deny a user</text></g><g id="elem_modifyMyPersonalData"><ellipse cx="550.3812" cy="879.293" fill="#ADD8E6" rx="188.3812" ry="40.0762" style="stroke:#00008B;stroke-width:0.5;"/><text fill="#000000" font-family="sans-serif" font-size="20" font-weight="bold" lengthAdjust="spacing" textLength="340" x="379.8781" y="884.5211">100. Modify my personal data</text></g><g id="elem_consultMyPersonalData"><ellipse cx="550.5154" cy="992.3199" fill="#ADD8E6" rx="178.5154" ry="38.1031" style="stroke:#00008B;stroke-width:0.5;"/><text fill="#000000" font-family="sans-serif" font-size="20" font-weight="bold" lengthAdjust="spacing" textLength="319" x="389.2663" y="998.2384">110. Copy my personal data</text></g><g id="elem_deleteMyPersonalData"><ellipse cx="550.4081" cy="1105.1984" fill="#ADD8E6" rx="187.9081" ry="39.9816" style="stroke:#00008B;stroke-width:0.5;"/><text fill="#000000" font-family="sans-serif" font-size="20" font-weight="bold" lengthAdjust="spacing" textLength="339" x="380.3487" y="1110.4596">120. Delete my personal data</text></g><!--entity Task--><g id="elem_Task"><ellipse cx="75.5" cy="2266.2168" fill="#F1F1F1" rx="8" ry="8" style="stroke:#181818;stroke-width:0.5;"/><path d="M75.5,2274.2168 L75.5,2301.2168 M62.5,2282.2168 L88.5,2282.2168 M75.5,2301.2168 L62.5,2316.2168 M75.5,2301.2168 L88.5,2316.2168 " fill="none" style="stroke:#181818;stroke-width:0.5;"/><text fill="#000000" font-family="sans-serif" font-size="20" lengthAdjust="spacing" textLength="139" x="6" y="2336.2813">Task Manager</text></g><!--entity Admin--><g id="elem_Admin"><ellipse cx="75.5" cy="1532.2168" fill="#F1F1F1" rx="8" ry="8" style="stroke:#181818;stroke-width:0.5;"/><path d="M75.5,1540.2168 L75.5,1567.2168 M62.5,1548.2168 L88.5,1548.2168 M75.5,1567.2168 L62.5,1582.2168 M75.5,1567.2168 L88.5,1582.2168 " fill="none" style="stroke:#181818;stroke-width:0.5;"/><text fill="#000000" font-family="sans-serif" font-size="20" lengthAdjust="spacing" textLength="132" x="9.5" y="1602.2813">Adminstrator</text></g><!--entity User--><g id="elem_User"><ellipse cx="75.5" cy="633.2168" fill="#F1F1F1" rx="8" ry="8" style="stroke:#181818;stroke-width:0.5;"/><path d="M75.5,641.2168 L75.5,668.2168 M62.5,649.2168 L88.5,649.2168 M75.5,668.2168 L62.5,683.2168 M75.5,668.2168 L88.5,683.2168 " fill="none" style="stroke:#181818;stroke-width:0.5;"/><text fill="#000000" font-family="sans-serif" font-size="20" lengthAdjust="spacing" textLength="45" x="53" y="703.2813">User</text></g><!--link Task to requestTask--><g id="link_Task_requestTask"><path d="M88.56,2257.7168 C103.15,2215.4568 132.07,2151.6768 181,2119.2168 C249.88,2073.5168 342.16,2061.7968 417.15,2061.4868 " fill="none" id="Task-to-requestTask" style="stroke:#00008B;stroke-width:1.0;"/><polygon fill="#00008B" points="422.51,2061.4768,413.51,2057.4768,417.51,2061.4768,413.51,2065.4768,422.51,2061.4768" style="stroke:#00008B;stroke-width:1.0;"/></g><!--link Task to approveOrDenyRequest--><g id="link_Task_approveOrDenyRequest"><path d="M139.34,2257.5568 C152.66,2250.1668 166.96,2243.2368 181,2238.2168 C238.11,2217.7868 302.73,2204.4068 361.73,2195.6568 " fill="none" id="Task-to-approveOrDenyRequest" style="stroke:#00008B;stroke-width:1.0;"/><polygon fill="#00008B" points="366.7,2194.9268,357.214,2192.278,361.7531,2195.6539,358.3773,2200.193,366.7,2194.9268" style="stroke:#00008B;stroke-width:1.0;"/></g><!--link Task to consultAllRequestPending--><g id="link_Task_consultAllRequestPending"><path d="M145.03,2299.2168 C197.03,2299.2168 271.43,2299.2168 342.28,2299.2168 " fill="none" id="Task-to-consultAllRequestPending" style="stroke:#00008B;stroke-width:1.0;"/><polygon fill="#00008B" points="347.37,2299.2168,338.37,2295.2168,342.37,2299.2168,338.37,2303.2168,347.37,2299.2168" style="stroke:#00008B;stroke-width:1.0;"/></g><!--link Task to listRequestByUserStateOrDeviceType--><g id="link_Task_listRequestByUserStateOrDeviceType"><path d="M140.37,2340.8568 C153.43,2348.1068 167.37,2354.9968 181,2360.2168 C223.96,2376.6768 271.18,2389.8368 317.06,2400.2568 " fill="none" id="Task-to-listRequestByUserStateOrDeviceType" style="stroke:#00008B;stroke-width:1.0;"/><polygon fill="#00008B" points="322.07,2401.3868,314.1684,2395.5076,317.1921,2400.2886,312.4112,2403.3123,322.07,2401.3868" style="stroke:#00008B;stroke-width:1.0;"/></g><!--link Task to obtainSequenceOfTasks--><g id="link_Task_obtainSequenceOfTasks"><path d="M84.71,2340.8668 C96.77,2390.3068 124.3,2471.3268 181,2513.2168 C230.78,2549.9968 294.74,2567.3968 355.36,2574.7668 " fill="none" id="Task-to-obtainSequenceOfTasks" style="stroke:#00008B;stroke-width:1.0;"/><polygon fill="#00008B" points="360.47,2575.3568,352.0015,2570.3284,355.5045,2574.7701,351.0628,2578.2731,360.47,2575.3568" style="stroke:#00008B;stroke-width:1.0;"/></g><!--link Admin to createUser--><g id="link_Admin_createUser"><path d="M82.28,1523.4168 C92.2,1468.6868 117.9,1373.9968 181,1325.2168 C231.09,1286.4968 296.65,1268.8868 358.57,1261.9168 " fill="none" id="Admin-to-createUser" style="stroke:#00008B;stroke-width:1.0;"/><polygon fill="#00008B" points="363.78,1261.3568,354.399,1258.3574,358.8095,1261.8995,355.2674,1266.3101,363.78,1261.3568" style="stroke:#00008B;stroke-width:1.0;"/></g><!--link Admin to addPossibilityToRegister--><g id="link_Admin_addPossibilityToRegister"><path d="M128.43,1523.7068 C144.54,1512.4568 162.84,1501.1868 181,1493.2168 C217.95,1476.9968 258.41,1463.7168 298.57,1452.9068 " fill="none" id="Admin-to-addPossibilityToRegister" style="stroke:#00008B;stroke-width:1.0;"/><polygon fill="#00008B" points="303.47,1451.6068,293.7407,1450.0769,298.641,1452.9031,295.8148,1457.8034,303.47,1451.6068" style="stroke:#00008B;stroke-width:1.0;"/></g><!--link Admin to changeMenuAccordingToUserType--><g id="link_Admin_changeMenuAccordingToUserType"><path d="M141.77,1565.2168 C180.13,1565.2168 231.45,1565.2168 284.71,1565.2168 " fill="none" id="Admin-to-changeMenuAccordingToUserType" style="stroke:#00008B;stroke-width:1.0;"/><polygon fill="#00008B" points="289.87,1565.2168,280.87,1561.2168,284.87,1565.2168,280.87,1569.2168,289.87,1565.2168" style="stroke:#00008B;stroke-width:1.0;"/></g><!--link Admin to backendServicesNeedsToBeAuthenticated--><g id="link_Admin_backendServicesNeedsToBeAuthenticated"><path d="M128.39,1606.8068 C144.5,1618.0668 162.81,1629.3168 181,1637.2168 C220.05,1654.1768 263.02,1667.7568 305.41,1678.5568 " fill="none" id="Admin-to-backendServicesNeedsToBeAuthenticated" style="stroke:#00008B;stroke-width:1.0;"/><polygon fill="#00008B" points="310.31,1679.7968,302.5699,1673.7065,305.4635,1678.5673,300.6027,1681.4609,310.31,1679.7968" style="stroke:#00008B;stroke-width:1.0;"/></g><!--link Admin to backendServicesNeedToValidateUserPermissions--><g id="link_Admin_backendServicesNeedToValidateUserPermissions"><path d="M83.65,1606.8768 C94.9,1659.4668 121.89,1748.9968 181,1798.2168 C204.66,1817.9168 231.97,1833.4268 260.8,1845.6068 " fill="none" id="Admin-to-backendServicesNeedToValidateUserPermissions" style="stroke:#00008B;stroke-width:1.0;"/><polygon fill="#00008B" points="265.44,1847.5368,258.6598,1840.3934,260.8217,1845.6208,255.5942,1847.7827,265.44,1847.5368" style="stroke:#00008B;stroke-width:1.0;"/></g><!--link User to consentToTheUseOfPersonalData--><g id="link_User_consentToTheUseOfPersonalData"><path d="M79.44,624.4068 C87.9,516.5268 116,232.7968 181,169.2168 C214.22,136.7268 257.58,116.9868 302.83,105.4168 " fill="none" id="User-to-consentToTheUseOfPersonalData" style="stroke:#00008B;stroke-width:1.0;"/><polygon fill="#00008B" points="307.78,104.1868,298.0833,102.4622,302.9259,105.386,300.0021,110.2287,307.78,104.1868" style="stroke:#00008B;stroke-width:1.0;"/></g><!--link User to informAboutTheUseOfPersonalData--><g id="link_User_informAboutTheUseOfPersonalData"><path d="M75.73,624.5468 C76.78,549.9068 90.41,393.5068 181,311.2168 C212.92,282.2168 252.98,263.4668 294.83,251.6068 " fill="none" id="User-to-informAboutTheUseOfPersonalData" style="stroke:#00008B;stroke-width:1.0;"/><polygon fill="#00008B" points="299.67,250.2668,289.9302,248.8051,294.8502,251.5969,292.0584,256.5169,299.67,250.2668" style="stroke:#00008B;stroke-width:1.0;"/></g><!--link User to knowAndHaveAccessToThePersonResponsible--><g id="link_User_knowAndHaveAccessToThePersonResponsible"><path d="M88.36,624.4268 C102.94,580.8968 131.96,514.0068 181,477.2168 C208.75,456.3968 240.76,440.6368 274.1,428.7368 " fill="none" id="User-to-knowAndHaveAccessToThePersonResponsible" style="stroke:#00008B;stroke-width:1.0;"/><polygon fill="#00008B" points="279.03,427.0168,269.2128,426.2278,274.3129,428.6749,271.8658,433.7751,279.03,427.0168" style="stroke:#00008B;stroke-width:1.0;"/></g><!--link User to knowHowLongTheDataWillBeStored--><g id="link_User_knowHowLongTheDataWillBeStored"><path d="M98.34,654.5868 C119.08,643.9868 151.41,628.5768 181,619.2168 C230.79,603.4568 285.54,590.6068 337.25,580.3868 " fill="none" id="User-to-knowHowLongTheDataWillBeStored" style="stroke:#00008B;stroke-width:1.0;"/><polygon fill="#00008B" points="342.24,579.4068,332.6401,577.2064,337.3327,580.3654,334.1738,585.058,342.24,579.4068" style="stroke:#00008B;stroke-width:1.0;"/></g><!--link User to knowMyRights--><g id="link_User_knowMyRights"><path d="M98.05,666.2168 C152.58,666.2168 299.61,666.2168 411.19,666.2168 " fill="none" id="User-to-knowMyRights" style="stroke:#00008B;stroke-width:1.0;"/><polygon fill="#00008B" points="416.47,666.2168,407.47,662.2168,411.47,666.2168,407.47,670.2168,416.47,666.2168" style="stroke:#00008B;stroke-width:1.0;"/></g><!--link User to approveOrDenyUser--><g id="link_User_approveOrDenyUser"><path d="M98.28,677.8568 C118.99,688.4268 151.29,703.6268 181,712.2168 C246.56,731.1668 320.67,743.8368 385.14,752.1868 " fill="none" id="User-to-approveOrDenyUser" style="stroke:#00008B;stroke-width:1.0;"/><polygon fill="#00008B" points="390.16,752.8368,381.7492,747.7126,385.2015,752.1938,380.7203,755.6461,390.16,752.8368" style="stroke:#00008B;stroke-width:1.0;"/></g><!--link User to modifyMyPersonalData--><g id="link_User_modifyMyPersonalData"><path d="M93.13,707.9968 C109.78,744.0668 138.97,794.4668 181,821.2168 C232.81,854.1968 296.81,870.7068 356.85,878.4168 " fill="none" id="User-to-modifyMyPersonalData" style="stroke:#00008B;stroke-width:1.0;"/><polygon fill="#00008B" points="361.9,879.0368,353.4602,873.9604,356.938,878.4219,352.4764,881.8996,361.9,879.0368" style="stroke:#00008B;stroke-width:1.0;"/></g><!--link User to consultMyPersonalData--><g id="link_User_consultMyPersonalData"><path d="M79.91,707.7468 C87.25,768.1968 110.14,879.3568 181,936.2168 C234.13,978.8468 305.86,995.8868 371.92,1001.1668 " fill="none" id="User-to-consultMyPersonalData" style="stroke:#00008B;stroke-width:1.0;"/><polygon fill="#00008B" points="377.07,1001.5568,368.392,996.8992,372.0838,1001.1853,367.7977,1004.8771,377.07,1001.5568" style="stroke:#00008B;stroke-width:1.0;"/></g><!--link User to deleteMyPersonalData--><g id="link_User_deleteMyPersonalData"><path d="M82.22,708.0368 C95.29,797.2468 130.19,1001.7868 181,1047.2168 C230.4,1091.3968 299.19,1109.5168 363.98,1115.3668 " fill="none" id="User-to-deleteMyPersonalData" style="stroke:#00008B;stroke-width:1.0;"/><polygon fill="#00008B" points="369.03,1115.7968,360.4056,1111.0407,364.0484,1115.3686,359.7205,1119.0113,369.03,1115.7968" style="stroke:#00008B;stroke-width:1.0;"/></g><!--SRC=[ZLLjRnen3Fv-loBgfqtgfjAkB-F3fADewhGo45otp-5Y828ajoHNT9lstsVdNhYZG8k4XEp7ZntxiN5hgJDk-KQPT0s22LZmNFclHlkP_0FiyYAAN8rXkOEKEs1_8uQV0K_NIsjoBUwDCfOzokNA3rGEfTTO0RRq3BbTDuxOMhCzO0yvVQ40GvM8_aLHF-5kpKPSyoNOFkEEaI7gns8ZjVEMUrEQWo7gFxaAHZ-YIC72Cs-OfRgOa1PIBusE8lh1zH8pdRKpd56e9mEzhtxhsQURYuzi2hzpS9xn00X8Mvf2IMtuBSBZBBFc6HY-KO0kCAn2XqXUUiTsYBwAkKDnXnJtHZkS1EDArS4i0osaNWQIjFJ7IbKCazBP8VgCH8yI8sk6UH6QSyvcdlkglcUP0lD51e5N8RnY71I43KYgbN09mjePhYymmtZkkTJCKPH6BhC8NNA1pmJdhFAD5zGlHzDjJI7CJrOJBLj4bkuSUjGK2rGsPngsp1NEGn1b6PC6PvXzA-oInY44ounpSYwLz0M9uftpEOx6ktFcWQShiEvz40iiiH2egn2JNLXYffMpKzOLjU1-XKy1jW6TCvwcg7qS1V5HTRlcfW4sGbHSWn935U_tjNT5pwKDmwbYPoqrt-6pGJYYdMCJSh_21yWK7oq2-xo4pohq3m8dPW1n6zdDSdai2oLvvaeAwdTuH0Ps8x4PgBjZsHBpimgXDqrs0NlpVgf75eWxKxwgf8_rKWbOEFb8KfZV6SqLGtxUh03Y4fEiAE5uCQaWGqHqzW19l-c5iHl6voRtfsbbGCO4V8tu6ec_QxDb7FktuhZnE7nmhYwz94THkGnhbNDLoc2D8R4M3nWG1tnuGfbakiEsCztKcLRuLOR4XVnKCzjAF14e28VBKoc14ZoOxIFYa9Yg_eMW0Sm2fCrxM_DkYl9GkePWL4o3eGs_EtZScXNiNBRzJUpHeeoCa8k2ihri_2RuHiMnRlV22J3PaV3g8fw89xKFGG5A-Y232Buz0j9k-9luyE5Bv-WtneFtlF4UFTGDuWqdjy4UFgTHkA1bkjqLt1cF7h9MtCdJjCEzxSYSn1y_4n4PcguTt-q6zjgkDi2thbmduCGATN3DfZJMbulGk0wglFFkbo9kt0SL-Xy0]--></g></svg>