<?xml version="1.0" encoding="UTF-8" standalone="no"?><svg xmlns="http://www.w3.org/2000/svg" xmlns:xlink="http://www.w3.org/1999/xlink" contentStyleType="text/css" height="4030px" preserveAspectRatio="none" style="width:1205px;height:4030px;background:#FFFFFF;" version="1.1" viewBox="0 0 1205 4030" width="1205px" zoomAndPan="magnify"><defs/><g><!--cluster campus--><g id="cluster_campus"><rect fill="none" height="2393" rx="2.5" ry="2.5" style="stroke:#181818;stroke-width:1.0;" width="917" x="253.5" y="903.2168"/><text fill="#000000" font-family="sans-serif" font-size="20" font-weight="bold" lengthAdjust="spacing" textLength="208" x="608" y="923.7813">Campus Managing</text></g><!--cluster fleet--><g id="cluster_fleet"><rect fill="none" height="704" rx="2.5" ry="2.5" style="stroke:#181818;stroke-width:1.0;" width="700" x="362" y="3320.2168"/><text fill="#000000" font-family="sans-serif" font-size="20" font-weight="bold" lengthAdjust="spacing" textLength="177" x="623.5" y="3340.7813">Fleet Managing</text></g><!--cluster task--><g id="cluster_task"><rect fill="none" height="539" rx="2.5" ry="2.5" style="stroke:#181818;stroke-width:1.0;" width="974" x="225" y="340.2168"/><text fill="#000000" font-family="sans-serif" font-size="20" font-weight="bold" lengthAdjust="spacing" textLength="160" x="632" y="360.7813">Task Manager</text></g><!--cluster user--><g id="cluster_user"><rect fill="none" height="309" rx="2.5" ry="2.5" style="stroke:#181818;stroke-width:1.0;" width="730" x="347" y="7.2168"/><text fill="#000000" font-family="sans-serif" font-size="20" font-weight="bold" lengthAdjust="spacing" textLength="52" x="686" y="27.7813">User</text></g><g id="elem_createBuilding"><ellipse cx="712.2256" cy="979.0619" fill="#ADD8E6" rx="154.7256" ry="33.3451" style="stroke:#00008B;stroke-width:0.5;"/><text fill="#000000" font-family="sans-serif" font-size="20" font-weight="bold" lengthAdjust="spacing" textLength="267" x="575.7256" y="985.5941">1050. Create a building</text></g><g id="elem_editBuilding"><ellipse cx="712.0428" cy="1091.2254" fill="#ADD8E6" rx="205.5428" ry="43.5086" style="stroke:#00008B;stroke-width:0.5;"/><text fill="#000000" font-family="sans-serif" font-size="20" font-weight="bold" lengthAdjust="spacing" textLength="376" x="524.0428" y="1096.1492">1070. Edit a building information</text></g><g id="elem_listBuildings"><ellipse cx="712.1903" cy="1202.2549" fill="#ADD8E6" rx="150.6903" ry="32.5381" style="stroke:#00008B;stroke-width:0.5;"/><text fill="#000000" font-family="sans-serif" font-size="20" font-weight="bold" lengthAdjust="spacing" textLength="258" x="580.1903" y="1208.7871">1060. List all buildings</text></g><g id="elem_listBuildingsWithFloors"><ellipse cx="711.8721" cy="1361.0912" fill="#ADD8E6" rx="442.3721" ry="90.8744" style="stroke:#00008B;stroke-width:0.5;"/><text fill="#000000" font-family="sans-serif" font-size="20" font-weight="bold" lengthAdjust="spacing" textLength="859" x="282.3721" y="1366.015">1080. List all buildings with given minimum and maximum number of floors</text></g><g id="elem_createFloor"><ellipse cx="711.7808" cy="1537.973" fill="#ADD8E6" rx="239.2808" ry="50.2562" style="stroke:#00008B;stroke-width:0.5;"/><text fill="#000000" font-family="sans-serif" font-size="20" font-weight="bold" lengthAdjust="spacing" textLength="446" x="488.7808" y="1542.8968">1090. Create a floor in a given building</text></g><g id="elem_editFloor"><ellipse cx="711.9061" cy="1673.198" fill="#ADD8E6" rx="235.4061" ry="49.4812" style="stroke:#00008B;stroke-width:0.5;"/><text fill="#000000" font-family="sans-serif" font-size="20" font-weight="bold" lengthAdjust="spacing" textLength="438" x="492.9061" y="1678.1218">1110. Edit information of a given floor</text></g><g id="elem_listFloors"><ellipse cx="712.1298" cy="1809.4428" fill="#ADD8E6" rx="244.1298" ry="51.226" style="stroke:#00008B;stroke-width:0.5;"/><text fill="#000000" font-family="sans-serif" font-size="20" font-weight="bold" lengthAdjust="spacing" textLength="449" x="484.1298" y="1814.3666">1100. List all floors for a given building</text></g><g id="elem_listFloorsWithConnections"><ellipse cx="711.8237" cy="1962.3815" fill="#ADD8E6" rx="323.8237" ry="67.1647" style="stroke:#00008B;stroke-width:0.5;"/><text fill="#000000" font-family="sans-serif" font-size="20" font-weight="bold" lengthAdjust="spacing" textLength="619" x="402.3237" y="1967.3054">1200. List all floors with connection to other buildings</text></g><g id="elem_loadFloorMap"><ellipse cx="712.1791" cy="2109.4526" fill="#ADD8E6" rx="214.1791" ry="45.2358" style="stroke:#00008B;stroke-width:0.5;"/><text fill="#000000" font-family="sans-serif" font-size="20" font-weight="bold" lengthAdjust="spacing" textLength="394" x="515.1791" y="2114.3764">1120. Load a map for a given floor</text></g><g id="elem_createConnection"><ellipse cx="712.0331" cy="2245.2234" fill="#ADD8E6" rx="265.5331" ry="55.5066" style="stroke:#00008B;stroke-width:0.5;"/><text fill="#000000" font-family="sans-serif" font-size="20" font-weight="bold" lengthAdjust="spacing" textLength="500" x="462.0331" y="2250.1472">1170. Create a connection between 2 floors</text></g><g id="elem_editConnection"><ellipse cx="711.9567" cy="2388.1081" fill="#ADD8E6" rx="249.9567" ry="52.3913" style="stroke:#00008B;stroke-width:0.5;"/><text fill="#000000" font-family="sans-serif" font-size="20" font-weight="bold" lengthAdjust="spacing" textLength="468" x="477.9567" y="2393.032">1180. Edit a connection between 2 floors</text></g><g id="elem_listBuildingsConnections"><ellipse cx="711.8523" cy="2537.1873" fill="#ADD8E6" rx="295.3523" ry="61.4705" style="stroke:#00008B;stroke-width:0.5;"/><text fill="#000000" font-family="sans-serif" font-size="20" font-weight="bold" lengthAdjust="spacing" textLength="561" x="431.3523" y="2542.1111">1190. List all the connection between 2 buildings</text></g><g id="elem_createElevator"><ellipse cx="711.826" cy="2669.282" fill="#ADD8E6" rx="163.326" ry="35.0652" style="stroke:#00008B;stroke-width:0.5;"/><text fill="#000000" font-family="sans-serif" font-size="20" font-weight="bold" lengthAdjust="spacing" textLength="286" x="565.826" y="2675.8142">1130. Create an elevator</text></g><g id="elem_editElevator"><ellipse cx="711.9055" cy="2771.3979" fill="#ADD8E6" rx="148.9055" ry="32.1811" style="stroke:#00008B;stroke-width:0.5;"/><text fill="#000000" font-family="sans-serif" font-size="20" font-weight="bold" lengthAdjust="spacing" textLength="254" x="581.9055" y="2777.9301">1150. Edit an elevator</text></g><g id="elem_listElevators"><ellipse cx="712.1136" cy="2897.2395" fill="#ADD8E6" rx="283.1136" ry="59.0227" style="stroke:#00008B;stroke-width:0.5;"/><text fill="#000000" font-family="sans-serif" font-size="20" font-weight="bold" lengthAdjust="spacing" textLength="536" x="444.1136" y="2902.1633">1140. List all the elevators for a given building</text></g><g id="elem_listFloorsReachableByElevator"><ellipse cx="711.9143" cy="3071.3997" fill="#ADD8E6" rx="388.9143" ry="80.1829" style="stroke:#00008B;stroke-width:0.5;"/><text fill="#000000" font-family="sans-serif" font-size="20" font-weight="bold" lengthAdjust="spacing" textLength="751" x="336.4143" y="3076.3235">1160. List all the floors reachable by elevator for a given building</text></g><g id="elem_createRoom"><ellipse cx="711.809" cy="3233.3786" fill="#ADD8E6" rx="223.809" ry="47.1618" style="stroke:#00008B;stroke-width:0.5;"/><text fill="#000000" font-family="sans-serif" font-size="20" font-weight="bold" lengthAdjust="spacing" textLength="414" x="504.809" y="3238.3024">1210. Create a room in a given floor</text></g><g id="elem_createRobotType"><ellipse cx="712.155" cy="3431.4478" fill="#ADD8E6" rx="334.155" ry="69.231" style="stroke:#00008B;stroke-width:0.5;"/><text fill="#000000" font-family="sans-serif" font-size="20" font-weight="bold" lengthAdjust="spacing" textLength="640" x="392.155" y="3436.3716">1000. Create a new robot type and assign specific tasks</text></g><g id="elem_createRobot"><ellipse cx="712.0959" cy="3590.236" fill="#ADD8E6" rx="263.0959" ry="55.0192" style="stroke:#00008B;stroke-width:0.5;"/><text fill="#000000" font-family="sans-serif" font-size="20" font-weight="bold" lengthAdjust="spacing" textLength="495" x="464.5959" y="3595.1598">1010. Create a new robot with a given type</text></g><g id="elem_disableRobot"><ellipse cx="711.8531" cy="3712.1874" fill="#ADD8E6" rx="145.3531" ry="31.4706" style="stroke:#00008B;stroke-width:0.5;"/><text fill="#000000" font-family="sans-serif" font-size="20" font-weight="bold" lengthAdjust="spacing" textLength="246" x="585.8531" y="3718.7197">1020. Disable a robot</text></g><g id="elem_listRobots"><ellipse cx="711.8876" cy="3809.1943" fill="#ADD8E6" rx="137.8876" ry="29.9775" style="stroke:#00008B;stroke-width:0.5;"/><text fill="#000000" font-family="sans-serif" font-size="20" font-weight="bold" lengthAdjust="spacing" textLength="229" x="594.3876" y="3815.7265">1030. List all robots</text></g><g id="elem_searchRobot"><ellipse cx="711.874" cy="3941.2916" fill="#ADD8E6" rx="320.874" ry="66.5748" style="stroke:#00008B;stroke-width:0.5;"/><text fill="#000000" font-family="sans-serif" font-size="20" font-weight="bold" lengthAdjust="spacing" textLength="613" x="405.374" y="3946.2154">1040. Search robots for a specific designation or task</text></g><g id="elem_obtainPaths"><ellipse cx="711.7649" cy="435.9698" fill="#ADD8E6" rx="256.7649" ry="53.753" style="stroke:#00008B;stroke-width:0.5;"/><text fill="#000000" font-family="sans-serif" font-size="20" font-weight="bold" lengthAdjust="spacing" textLength="482" x="470.7649" y="440.8936">1220. Obtain paths between two buildings</text></g><g id="elem_obtainPathsOptimized"><ellipse cx="712.1323" cy="622.3433" fill="#ADD8E6" rx="471.1323" ry="96.6265" style="stroke:#00008B;stroke-width:0.5;"/><text fill="#000000" font-family="sans-serif" font-size="20" font-weight="bold" lengthAdjust="spacing" textLength="917" x="253.6323" y="627.2671">510. Obtain paths between two buildings using a certain criteria of optimization</text></g><g id="elem_complexityAnalysis"><ellipse cx="712.1599" cy="808.2488" fill="#ADD8E6" rx="260.6599" ry="54.532" style="stroke:#00008B;stroke-width:0.5;"/><text fill="#000000" font-family="sans-serif" font-size="20" font-weight="bold" lengthAdjust="spacing" textLength="490" x="467.1599" y="813.1726">515. Complexity analysis of the algorithms</text></g><g id="elem_menu"><ellipse cx="711.8501" cy="85.2868" fill="#ADD8E6" rx="168.3501" ry="36.07" style="stroke:#00008B;stroke-width:0.5;"/><text fill="#000000" font-family="sans-serif" font-size="20" font-weight="bold" lengthAdjust="spacing" textLength="297" x="560.3501" y="91.819">535. Menu for all modules</text></g><g id="elem_interactiveNavigation"><ellipse cx="711.9315" cy="228.4031" fill="#ADD8E6" rx="348.9315" ry="72.1863" style="stroke:#00008B;stroke-width:0.5;"/><text fill="#000000" font-family="sans-serif" font-size="20" font-weight="bold" lengthAdjust="spacing" textLength="670" x="376.9315" y="233.3269">606. Interactive navigation by a robot through the campus</text></g><!--entity Fleet--><g id="elem_Fleet"><ellipse cx="93.5" cy="3679.2168" fill="#F1F1F1" rx="8" ry="8" style="stroke:#181818;stroke-width:0.5;"/><path d="M93.5,3687.2168 L93.5,3714.2168 M80.5,3695.2168 L106.5,3695.2168 M93.5,3714.2168 L80.5,3729.2168 M93.5,3714.2168 L106.5,3729.2168 " fill="none" style="stroke:#181818;stroke-width:0.5;"/><text fill="#000000" font-family="sans-serif" font-size="20" lengthAdjust="spacing" textLength="143" x="22" y="3749.2813">Fleet Manager</text></g><!--entity Campus--><g id="elem_Campus"><ellipse cx="93.5" cy="2076.2168" fill="#F1F1F1" rx="8" ry="8" style="stroke:#181818;stroke-width:0.5;"/><path d="M93.5,2084.2168 L93.5,2111.2168 M80.5,2092.2168 L106.5,2092.2168 M93.5,2111.2168 L80.5,2126.2168 M93.5,2111.2168 L106.5,2126.2168 " fill="none" style="stroke:#181818;stroke-width:0.5;"/><text fill="#000000" font-family="sans-serif" font-size="20" lengthAdjust="spacing" textLength="175" x="6" y="2146.2813">Campus Manager</text></g><!--entity Task--><g id="elem_Task"><ellipse cx="93.5" cy="589.2168" fill="#F1F1F1" rx="8" ry="8" style="stroke:#181818;stroke-width:0.5;"/><path d="M93.5,597.2168 L93.5,624.2168 M80.5,605.2168 L106.5,605.2168 M93.5,624.2168 L80.5,639.2168 M93.5,624.2168 L106.5,639.2168 " fill="none" style="stroke:#181818;stroke-width:0.5;"/><text fill="#000000" font-family="sans-serif" font-size="20" lengthAdjust="spacing" textLength="139" x="24" y="659.2813">Task Manager</text></g><!--entity User--><g id="elem_User"><ellipse cx="93.5" cy="124.2168" fill="#F1F1F1" rx="8" ry="8" style="stroke:#181818;stroke-width:0.5;"/><path d="M93.5,132.2168 L93.5,159.2168 M80.5,140.2168 L106.5,140.2168 M93.5,159.2168 L80.5,174.2168 M93.5,159.2168 L106.5,174.2168 " fill="none" style="stroke:#181818;stroke-width:0.5;"/><text fill="#000000" font-family="sans-serif" font-size="20" lengthAdjust="spacing" textLength="45" x="71" y="194.2813">User</text></g><!--link Campus to createBuilding--><g id="link_Campus_createBuilding"><path d="M96.19,2067.6068 C104.29,1878.3368 141.8,1104.6568 217,1030.2168 C315.57,932.6468 485.31,937.5568 597.86,954.6868 " fill="none" id="Campus-to-createBuilding" style="stroke:#00008B;stroke-width:1.0;"/><polygon fill="#00008B" points="602.85,955.4568,594.5594,950.1402,597.9076,954.6997,593.3481,958.048,602.85,955.4568" style="stroke:#00008B;stroke-width:1.0;"/></g><!--link Campus to editBuilding--><g id="link_Campus_editBuilding"><path d="M96.87,2067.4268 C107.23,1891.5868 151.01,1217.9168 217,1152.2168 C300.79,1068.7968 436.14,1057.1268 543.99,1064.3368 " fill="none" id="Campus-to-editBuilding" style="stroke:#00008B;stroke-width:1.0;"/><polygon fill="#00008B" points="549.1,1064.6868,540.4088,1060.054,544.1128,1064.3295,539.8372,1068.0335,549.1,1064.6868" style="stroke:#00008B;stroke-width:1.0;"/></g><!--link Campus to listBuildings--><g id="link_Campus_listBuildings"><path d="M93.99,2067.5568 C93.03,1911.7068 98.33,1366.1068 217,1252.2168 C317.73,1155.5368 488.75,1161.1768 600.78,1178.3668 " fill="none" id="Campus-to-listBuildings" style="stroke:#00008B;stroke-width:1.0;"/><polygon fill="#00008B" points="605.74,1179.1468,597.4668,1173.8032,600.8001,1178.3736,596.2297,1181.7069,605.74,1179.1468" style="stroke:#00008B;stroke-width:1.0;"/></g><!--link Campus to listBuildingsWithFloors--><g id="link_Campus_listBuildingsWithFloors"><path d="M96.66,2067.5868 C104.16,1939.7468 133.32,1556.2468 217,1470.2168 C244.1,1442.3468 276.6,1420.8568 311.82,1404.3768 " fill="none" id="Campus-to-listBuildingsWithFloors" style="stroke:#00008B;stroke-width:1.0;"/><polygon fill="#00008B" points="316.58,1402.1868,306.7319,1402.3068,312.036,1404.273,310.0698,1409.5772,316.58,1402.1868" style="stroke:#00008B;stroke-width:1.0;"/></g><!--link Campus to createFloor--><g id="link_Campus_createFloor"><path d="M98.7,2067.4468 C110.56,1958.2568 148.03,1668.4768 217,1606.2168 C289.99,1540.3168 395.47,1519.5168 490.24,1516.7568 " fill="none" id="Campus-to-createFloor" style="stroke:#00008B;stroke-width:1.0;"/><polygon fill="#00008B" points="495.31,1516.6268,486.2102,1512.8595,490.3117,1516.7553,486.4158,1520.8568,495.31,1516.6268" style="stroke:#00008B;stroke-width:1.0;"/></g><!--link Campus to editFloor--><g id="link_Campus_editFloor"><path d="M94.91,2067.6868 C98.12,1990.0168 117,1823.1768 217,1740.2168 C291.85,1678.1268 396.16,1657.6268 489.65,1654.1868 " fill="none" id="Campus-to-editFloor" style="stroke:#00008B;stroke-width:1.0;"/><polygon fill="#00008B" points="494.66,1654.0168,485.5385,1650.3023,489.6625,1654.1743,485.7905,1658.2983,494.66,1654.0168" style="stroke:#00008B;stroke-width:1.0;"/></g><!--link Campus to listFloors--><g id="link_Campus_listFloors"><path d="M104.05,2067.5068 C118.63,2014.0368 151.89,1922.8068 217,1877.2168 C289.4,1826.5168 382.62,1805.4468 468.54,1798.4268 " fill="none" id="Campus-to-listFloors" style="stroke:#00008B;stroke-width:1.0;"/><polygon fill="#00008B" points="473.66,1798.0268,464.3783,1794.7329,468.6749,1798.4125,464.9953,1802.7091,473.66,1798.0268" style="stroke:#00008B;stroke-width:1.0;"/></g><!--link Campus to listFloorsWithConnections--><g id="link_Campus_listFloorsWithConnections"><path d="M166.43,2067.6168 C182.66,2059.5368 200.1,2051.8468 217,2046.2168 C282.59,2024.3568 355.06,2007.9768 423.82,1995.7768 " fill="none" id="Campus-to-listFloorsWithConnections" style="stroke:#00008B;stroke-width:1.0;"/><polygon fill="#00008B" points="428.76,1994.9068,419.201,1992.5349,423.8364,1995.7774,420.5939,2000.4127,428.76,1994.9068" style="stroke:#00008B;stroke-width:1.0;"/></g><!--link Campus to loadFloorMap--><g id="link_Campus_loadFloorMap"><path d="M181.2,2109.2168 C261.83,2109.2168 385.36,2109.2168 492.86,2109.2168 " fill="none" id="Campus-to-loadFloorMap" style="stroke:#00008B;stroke-width:1.0;"/><polygon fill="#00008B" points="497.97,2109.2168,488.97,2105.2168,492.97,2109.2168,488.97,2113.2168,497.97,2109.2168" style="stroke:#00008B;stroke-width:1.0;"/></g><!--link Campus to createConnection--><g id="link_Campus_createConnection"><path d="M167.38,2150.8668 C183.34,2158.6168 200.42,2165.9268 217,2171.2168 C294.51,2195.9268 381.56,2212.4668 460.74,2223.4968 " fill="none" id="Campus-to-createConnection" style="stroke:#00008B;stroke-width:1.0;"/><polygon fill="#00008B" points="465.94,2224.2168,457.575,2219.018,460.9874,2223.5297,456.4757,2226.9421,465.94,2224.2168" style="stroke:#00008B;stroke-width:1.0;"/></g><!--link Campus to editConnection--><g id="link_Campus_editConnection"><path d="M106.73,2151.0768 C123.29,2199.7668 157.79,2278.5168 217,2318.2168 C287.4,2365.4268 376.15,2386.7668 458.95,2395.1268 " fill="none" id="Campus-to-editConnection" style="stroke:#00008B;stroke-width:1.0;"/><polygon fill="#00008B" points="464.39,2395.6568,455.8203,2390.803,459.4136,2395.172,455.0446,2398.7653,464.39,2395.6568" style="stroke:#00008B;stroke-width:1.0;"/></g><!--link Campus to listBuildingsConnections--><g id="link_Campus_listBuildingsConnections"><path d="M96.04,2150.9568 C101.18,2225.2368 123.24,2379.8968 217,2458.2168 C271.6,2503.8268 341.83,2528.3368 412.1,2540.5768 " fill="none" id="Campus-to-listBuildingsConnections" style="stroke:#00008B;stroke-width:1.0;"/><polygon fill="#00008B" points="417.16,2541.4368,408.9631,2535.9769,412.2315,2540.594,407.6145,2543.8625,417.16,2541.4368" style="stroke:#00008B;stroke-width:1.0;"/></g><!--link Campus to createElevator--><g id="link_Campus_createElevator"><path d="M98.5,2151.0368 C109.94,2261.0668 146.56,2554.3968 217,2616.2168 C316,2703.0968 472.66,2705.1868 582.97,2692.7268 " fill="none" id="Campus-to-createElevator" style="stroke:#00008B;stroke-width:1.0;"/><polygon fill="#00008B" points="588.18,2692.1268,578.7811,2689.1837,583.2129,2692.6994,579.6973,2697.1311,588.18,2692.1268" style="stroke:#00008B;stroke-width:1.0;"/></g><!--link Campus to editElevator--><g id="link_Campus_editElevator"><path d="M96.6,2150.8368 C103.82,2275.8468 132.05,2644.1068 217,2721.2168 C319.65,2814.3968 488.29,2810.2368 599.49,2794.2568 " fill="none" id="Campus-to-editElevator" style="stroke:#00008B;stroke-width:1.0;"/><polygon fill="#00008B" points="604.74,2793.4868,595.2529,2790.842,599.7934,2794.2159,596.4195,2798.7564,604.74,2793.4868" style="stroke:#00008B;stroke-width:1.0;"/></g><!--link Campus to listElevators--><g id="link_Campus_listElevators"><path d="M95.53,2150.8168 C99.86,2288.4668 121.03,2725.7668 217,2820.2168 C274.13,2876.4368 354.33,2902.1268 433.51,2911.9768 " fill="none" id="Campus-to-listElevators" style="stroke:#00008B;stroke-width:1.0;"/><polygon fill="#00008B" points="438.73,2912.6068,430.2741,2907.5572,433.766,2912.0077,429.3156,2915.4996,438.73,2912.6068" style="stroke:#00008B;stroke-width:1.0;"/></g><!--link Campus to listFloorsReachableByElevator--><g id="link_Campus_listFloorsReachableByElevator"><path d="M94.29,2150.8568 C94.4,2306.7168 103.03,2852.7968 217,2973.2168 C249.04,3007.0668 289.16,3031.0668 332.6,3047.8568 " fill="none" id="Campus-to-listFloorsReachableByElevator" style="stroke:#00008B;stroke-width:1.0;"/><polygon fill="#00008B" points="337.36,3049.6668,330.363,3042.7356,332.6848,3047.894,327.5265,3050.2158,337.36,3049.6668" style="stroke:#00008B;stroke-width:1.0;"/></g><!--link Campus to createRoom--><g id="link_Campus_createRoom"><path d="M96.34,2150.9468 C104.99,2338.1068 144.25,3094.3168 217,3168.2168 C294.51,3246.9468 417.64,3263.2968 521.57,3259.9168 " fill="none" id="Campus-to-createRoom" style="stroke:#00008B;stroke-width:1.0;"/><polygon fill="#00008B" points="526.82,3259.7268,517.6777,3256.0636,521.8234,3259.9124,517.9747,3264.0581,526.82,3259.7268" style="stroke:#00008B;stroke-width:1.0;"/></g><!--link Fleet to createRobotType--><g id="link_Fleet_createRobotType"><path d="M108.84,3670.5768 C126.75,3625.2168 161.89,3554.2068 217,3517.2168 C266.13,3484.2468 323.99,3462.7168 382.48,3448.8868 " fill="none" id="Fleet-to-createRobotType" style="stroke:#00008B;stroke-width:1.0;"/><polygon fill="#00008B" points="387.41,3447.7368,377.7394,3445.8713,382.539,3448.8653,379.545,3453.6648,387.41,3447.7368" style="stroke:#00008B;stroke-width:1.0;"/></g><!--link Fleet to createRobot--><g id="link_Fleet_createRobot"><path d="M165.12,3680.7168 C181.87,3674.1568 199.86,3667.8468 217,3663.2168 C297.78,3641.4168 387.85,3625.6768 468.74,3614.5268 " fill="none" id="Fleet-to-createRobot" style="stroke:#00008B;stroke-width:1.0;"/><polygon fill="#00008B" points="474.06,3613.8068,464.5968,3611.0777,469.1072,3614.4919,465.693,3619.0023,474.06,3613.8068" style="stroke:#00008B;stroke-width:1.0;"/></g><!--link Fleet to disableRobot--><g id="link_Fleet_disableRobot"><path d="M165.22,3712.2168 C261.22,3712.2168 435.23,3712.2168 561,3712.2168 " fill="none" id="Fleet-to-disableRobot" style="stroke:#00008B;stroke-width:1.0;"/><polygon fill="#00008B" points="566.2,3712.2168,557.2,3708.2168,561.2,3712.2168,557.2,3716.2168,566.2,3712.2168" style="stroke:#00008B;stroke-width:1.0;"/></g><!--link Fleet to listRobots--><g id="link_Fleet_listRobots"><path d="M165.28,3744.4668 C181.95,3750.9568 199.86,3757.0468 217,3761.2168 C333.71,3789.6168 469.79,3801.3168 569.54,3806.0868 " fill="none" id="Fleet-to-listRobots" style="stroke:#00008B;stroke-width:1.0;"/><polygon fill="#00008B" points="574.56,3806.3268,565.7647,3801.8949,569.5659,3806.0842,565.3765,3809.8855,574.56,3806.3268" style="stroke:#00008B;stroke-width:1.0;"/></g><!--link Fleet to searchRobot--><g id="link_Fleet_searchRobot"><path d="M118.25,3753.9368 C139.63,3787.4368 174.22,3832.7868 217,3857.2168 C271.85,3888.5368 335.33,3908.8568 398.12,3921.8768 " fill="none" id="Fleet-to-searchRobot" style="stroke:#00008B;stroke-width:1.0;"/><polygon fill="#00008B" points="403.03,3922.8868,395.0116,3917.1679,398.131,3921.887,393.4119,3925.0064,403.03,3922.8868" style="stroke:#00008B;stroke-width:1.0;"/></g><!--link Task to obtainPaths--><g id="link_Task_obtainPaths"><path d="M127.53,580.6868 C149.98,555.4968 181.9,525.0468 217,508.2168 C289.27,473.5668 373.78,454.5568 452.26,444.4068 " fill="none" id="Task-to-obtainPaths" style="stroke:#00008B;stroke-width:1.0;"/><polygon fill="#00008B" points="457.42,443.7468,447.9883,440.9107,452.4597,444.3758,448.9947,448.8472,457.42,443.7468" style="stroke:#00008B;stroke-width:1.0;"/></g><!--link Task to obtainPathsOptimized--><g id="link_Task_obtainPathsOptimized"><path d="M163.13,622.2168 C183.96,622.2168 208.59,622.2168 235.7,622.2168 " fill="none" id="Task-to-obtainPathsOptimized" style="stroke:#00008B;stroke-width:1.0;"/><polygon fill="#00008B" points="240.79,622.2168,231.79,618.2168,235.79,622.2168,231.79,626.2168,240.79,622.2168" style="stroke:#00008B;stroke-width:1.0;"/></g><!--link Task to complexityAnalysis--><g id="link_Task_complexityAnalysis"><path d="M127.53,663.7468 C149.98,688.9368 181.9,719.3868 217,736.2168 C288.31,770.4068 371.55,789.3768 449.15,799.6268 " fill="none" id="Task-to-complexityAnalysis" style="stroke:#00008B;stroke-width:1.0;"/><polygon fill="#00008B" points="454.25,800.2868,445.8537,795.1388,449.2934,799.6297,444.8024,803.0694,454.25,800.2868" style="stroke:#00008B;stroke-width:1.0;"/></g><!--link User to menu--><g id="link_User_menu"><path d="M116.14,153.5468 C140.59,149.4668 181.58,142.8568 217,138.2168 C328.96,123.5368 455.59,110.0068 552.61,100.2968 " fill="none" id="User-to-menu" style="stroke:#00008B;stroke-width:1.0;"/><polygon fill="#00008B" points="557.79,99.7768,548.4349,96.6975,552.8151,100.2771,549.2355,104.6573,557.79,99.7768" style="stroke:#00008B;stroke-width:1.0;"/></g><!--link User to interactiveNavigation--><g id="link_User_interactiveNavigation"><path d="M116.08,159.7068 C163.59,165.1768 282.52,178.8668 401.66,192.5868 " fill="none" id="User-to-interactiveNavigation" style="stroke:#00008B;stroke-width:1.0;"/><polygon fill="#00008B" points="406.98,193.2068,398.4973,188.2025,402.0129,192.6342,397.5811,196.1498,406.98,193.2068" style="stroke:#00008B;stroke-width:1.0;"/></g><!--SRC=[ZLR9Rjim4BtpAuZS4zXEdRO-56Wse43I5btGCosD9S8KAP1KNBVeltT8QY5b9crEpioyDmk7Zp9xBbkcMIDKiOUIbh1ZdR3tIjgl_1VGrO8GCyJGpa313D3VXEBVDIlsbLQTB6-KK9e-yAgsrwA3u5Mw11qyjqplHyTxhTKXO_SvxL40GaL9_X2okHS0bZuooIhG6yeCzHQokM5Dsvd44qnayusPVU9m1hBvRlf_tGz21EmijOfgLpCjkOR2SYK9SJ-OhB2AipW9bzMPGnV1vWOm3EDikLWlBkYD1cQ1Chhjk2Z7U6-zxaqfwZMYxafk8mpbSgTqmrmj7W_epwEl4Ft03QA56F76WmIQ1v19KM-oA7hWjgOLVm996ovvqpMKoP8sxAV_BRjc2vgg7Tq9fNGcomyakFU-DD_RU38UZ2tYpv0hCofFad0ibyESek6uMWOMJpjEAqEmY9iE7L1aEYc3ZdrbMbdbMFpS2YLbM1-tKShMEAhJ0mcKRautOtoQ0LDW1iLABAnXRLBYrAF00C_roDeK_ZgUTLJK5km1a6CLdrwOzbHAIlLcMir_4RcPFqVpDXuPpYLFziBoFZkgowXNIK704xFzW49dTxqfXQt7lcOWrqKUychUmu3Bxz3Omy0sA_ngJjTl4XPTr6oBkhCzZYbUpX0swii0l3vc6rWjuxNGIZNn3PpsAepj2_gTz4Oo68dma7tdJJCHNCHv91mmrrQXo1vRy6B2ZE6LfAQ5WkzuGItgiabIO_WtZ4vfbtbQV_E6BboEELFAugxMBJT-m2nGU40PR1d4PNnG7Z3jfm-VAPtRaw_0T57tqVtXZVsMuFhlrKlxzZsXyQ1GGJhv-2dpeGup6_lATVPfQnaUQijiRSQBPGzgThMK3_liecAEzVA_A13WD18L0RIFBJIte3bpMgnQonl-QtgueboVWW_ADEaQprKrhO2Vt1vnGvWu6cuScRiMJ5GA-UkcNv4nydqVI6R3Sk-w3yKKEXtI-X9pFOBimf7WUJQgx0G4wWOTSVJLukg2Vf3O6aFbUG8gsHElmhdXtMJ3NjVuwLFLGTRyLu5dunFmuuXpfVPV4-Vdx-OV1P4dUUuZU_gYF-U87k6JRE5PdAKwCKPlNzOwVxxYeFXTEaaVlH2p6lAUPr-14-PHz6QyENkgozaESt9wajEh90d265i70Sjw8ckYEfCvafR96Ci3yOhWhF5LpXcdEpTwSrV8NHhlz9TW_2-_nEGl]--></g></svg>