<?xml version="1.0" encoding="UTF-8" standalone="no"?><svg xmlns="http://www.w3.org/2000/svg" xmlns:xlink="http://www.w3.org/1999/xlink" contentStyleType="text/css" height="3698px" preserveAspectRatio="none" style="width:1059px;height:3698px;background:#FFFFFF;" version="1.1" viewBox="0 0 1059 3698" width="1059px" zoomAndPan="magnify"><defs/><g><!--cluster campus--><g id="cluster_campus"><rect fill="none" height="2184" rx="2.5" ry="2.5" style="stroke:#181818;stroke-width:1.0;" width="801.37" x="233.71" y="835.36"/><text fill="#000000" font-family="sans-serif" font-size="20" font-weight="bold" lengthAdjust="spacing" textLength="183.75" x="542.52" y="858.74">Campus Managing</text></g><!--cluster fleet--><g id="cluster_fleet"><rect fill="none" height="649" rx="2.5" ry="2.5" style="stroke:#181818;stroke-width:1.0;" width="605.39" x="331.7" y="3043.36"/><text fill="#000000" font-family="sans-serif" font-size="20" font-weight="bold" lengthAdjust="spacing" textLength="150.125" x="559.3325" y="3066.74">Fleet Managing</text></g><!--cluster task--><g id="cluster_task"><rect fill="none" height="490" rx="2.5" ry="2.5" style="stroke:#181818;stroke-width:1.0;" width="838.79" x="215" y="321.36"/><text fill="#000000" font-family="sans-serif" font-size="20" font-weight="bold" lengthAdjust="spacing" textLength="137.875" x="565.4575" y="344.74">Task Manager</text></g><!--cluster user--><g id="cluster_user"><rect fill="none" height="289" rx="2.5" ry="2.5" style="stroke:#181818;stroke-width:1.0;" width="633.41" x="317.69" y="8.36"/><text fill="#000000" font-family="sans-serif" font-size="20" font-weight="bold" lengthAdjust="spacing" textLength="46.5" x="611.145" y="31.74">User</text></g><g id="elem_createBuilding"><ellipse cx="634.4046" cy="912.3629" fill="#ADD8E6" rx="142.3146" ry="30.8629" style="stroke:#00008B;stroke-width:0.5;"/><text fill="#000000" font-family="sans-serif" font-size="20" font-weight="bold" lengthAdjust="spacing" textLength="223.5" x="519.6546" y="920.3029">1050. Create a building</text></g><g id="elem_editBuilding"><ellipse cx="634.4021" cy="1017.3584" fill="#ADD8E6" rx="183.2921" ry="39.0584" style="stroke:#00008B;stroke-width:0.5;"/><text fill="#000000" font-family="sans-serif" font-size="20" font-weight="bold" lengthAdjust="spacing" textLength="318.125" x="472.3396" y="1025.2984">1070. Edit a building information</text></g><g id="elem_listBuildings"><ellipse cx="634.3962" cy="1121.3572" fill="#ADD8E6" rx="138.8862" ry="30.1772" style="stroke:#00008B;stroke-width:0.5;"/><text fill="#000000" font-family="sans-serif" font-size="20" font-weight="bold" lengthAdjust="spacing" textLength="215.125" x="523.8337" y="1129.2972">1060. List all buildings</text></g><g id="elem_listBuildingsWithFloors"><ellipse cx="634.3968" cy="1266.3573" fill="#ADD8E6" rx="384.6868" ry="79.3374" style="stroke:#00008B;stroke-width:0.5;"/><text fill="#000000" font-family="sans-serif" font-size="20" font-weight="bold" lengthAdjust="spacing" textLength="739.125" x="264.8343" y="1272.1173">1080. List all buildings with given minimum and maximum number of floors</text></g><g id="elem_createFloor"><ellipse cx="634.3961" cy="1424.3592" fill="#ADD8E6" rx="208.5961" ry="44.1192" style="stroke:#00008B;stroke-width:0.5;"/><text fill="#000000" font-family="sans-serif" font-size="20" font-weight="bold" lengthAdjust="spacing" textLength="373.625" x="444.5836" y="1432.2992">1090. Create a floor in a given building</text></g><g id="elem_editFloor"><ellipse cx="634.4003" cy="1547.3581" fill="#ADD8E6" rx="206.2903" ry="43.6581" style="stroke:#00008B;stroke-width:0.5;"/><text fill="#000000" font-family="sans-serif" font-size="20" font-weight="bold" lengthAdjust="spacing" textLength="368.625" x="447.0878" y="1555.2981">1110. Edit information of a given floor</text></g><g id="elem_listFloors"><ellipse cx="634.3975" cy="1670.3595" fill="#ADD8E6" rx="211.9475" ry="44.7895" style="stroke:#00008B;stroke-width:0.5;"/><text fill="#000000" font-family="sans-serif" font-size="20" font-weight="bold" lengthAdjust="spacing" textLength="375.875" x="440.96" y="1678.2995">1100. List all floors for a given building</text></g><g id="elem_listFloorsWithConnections"><ellipse cx="634.3971" cy="1808.3594" fill="#ADD8E6" rx="279.0971" ry="58.2194" style="stroke:#00008B;stroke-width:0.5;"/><text fill="#000000" font-family="sans-serif" font-size="20" font-weight="bold" lengthAdjust="spacing" textLength="523" x="371.4217" y="1815.2785">1200. List all floors with connection to other buildings</text></g><g id="elem_loadFloorMap"><ellipse cx="634.4035" cy="1941.3587" fill="#ADD8E6" rx="189.0435" ry="40.2087" style="stroke:#00008B;stroke-width:0.5;"/><text fill="#000000" font-family="sans-serif" font-size="20" font-weight="bold" lengthAdjust="spacing" textLength="330.875" x="465.966" y="1949.2987">1120. Load a map for a given floor</text></g><g id="elem_createConnection"><ellipse cx="634.4017" cy="2065.3563" fill="#ADD8E6" rx="230.8817" ry="48.5763" style="stroke:#00008B;stroke-width:0.5;"/><text fill="#000000" font-family="sans-serif" font-size="20" font-weight="bold" lengthAdjust="spacing" textLength="421.5" x="420.6517" y="2073.2963">1170. Create a connection between 2 floors</text></g><g id="elem_editConnection"><ellipse cx="634.4034" cy="2195.3607" fill="#ADD8E6" rx="218.1534" ry="46.0307" style="stroke:#00008B;stroke-width:0.5;"/><text fill="#000000" font-family="sans-serif" font-size="20" font-weight="bold" lengthAdjust="spacing" textLength="394.25" x="434.2784" y="2203.3007">1180. Edit a connection between 2 floors</text></g><g id="elem_listBuildingsConnections"><ellipse cx="634.3968" cy="2329.3573" fill="#ADD8E6" rx="254.8368" ry="53.3674" style="stroke:#00008B;stroke-width:0.5;"/><text fill="#000000" font-family="sans-serif" font-size="20" font-weight="bold" lengthAdjust="spacing" textLength="472.25" x="395.2718" y="2337.2973">1190. List all the connection between 2 buildings</text></g><g id="elem_createElevator"><ellipse cx="634.3984" cy="2449.3617" fill="#ADD8E6" rx="147.5584" ry="31.9117" style="stroke:#00008B;stroke-width:0.5;"/><text fill="#000000" font-family="sans-serif" font-size="20" font-weight="bold" lengthAdjust="spacing" textLength="236.125" x="513.3359" y="2457.3017">1130. Create an elevator</text></g><g id="elem_editElevator"><ellipse cx="634.3959" cy="2546.3612" fill="#ADD8E6" rx="136.3559" ry="29.6712" style="stroke:#00008B;stroke-width:0.5;"/><text fill="#000000" font-family="sans-serif" font-size="20" font-weight="bold" lengthAdjust="spacing" textLength="208.875" x="526.9584" y="2554.3012">1150. Edit an elevator</text></g><g id="elem_listElevators"><ellipse cx="634.4027" cy="2662.3565" fill="#ADD8E6" rx="242.2327" ry="50.8465" style="stroke:#00008B;stroke-width:0.5;"/><text fill="#000000" font-family="sans-serif" font-size="20" font-weight="bold" lengthAdjust="spacing" textLength="445.625" x="408.5902" y="2670.2965">1140. List all the elevators for a given building</text></g><g id="elem_listFloorsReachableByElevator"><ellipse cx="634.4026" cy="2816.3565" fill="#ADD8E6" rx="329.9826" ry="68.3965" style="stroke:#00008B;stroke-width:0.5;"/><text fill="#000000" font-family="sans-serif" font-size="20" font-weight="bold" lengthAdjust="spacing" textLength="627.625" x="320.5901" y="2822.1165">1160. List all the floors reachable by elevator for a given building</text></g><g id="elem_createRoom"><ellipse cx="634.4004" cy="2961.3561" fill="#ADD8E6" rx="196.4304" ry="41.6861" style="stroke:#00008B;stroke-width:0.5;"/><text fill="#000000" font-family="sans-serif" font-size="20" font-weight="bold" lengthAdjust="spacing" textLength="347.125" x="457.8379" y="2969.2961">1210. Create a room in a given floor</text></g><g id="elem_createRobotType"><ellipse cx="634.3973" cy="3149.3594" fill="#ADD8E6" rx="286.6973" ry="59.7395" style="stroke:#00008B;stroke-width:0.5;"/><text fill="#000000" font-family="sans-serif" font-size="20" font-weight="bold" lengthAdjust="spacing" textLength="538.75" x="364.0882" y="3155.8749">1000. Create a new robot type and assign specific tasks</text></g><g id="elem_createRobot"><ellipse cx="634.397" cy="3292.3634" fill="#ADD8E6" rx="227.017" ry="47.8034" style="stroke:#00008B;stroke-width:0.5;"/><text fill="#000000" font-family="sans-serif" font-size="20" font-weight="bold" lengthAdjust="spacing" textLength="413.25" x="424.772" y="3300.3034">1010. Create a new robot with a given type</text></g><g id="elem_disableRobot"><ellipse cx="634.4008" cy="3404.3602" fill="#ADD8E6" rx="135.3008" ry="29.4602" style="stroke:#00008B;stroke-width:0.5;"/><text fill="#000000" font-family="sans-serif" font-size="20" font-weight="bold" lengthAdjust="spacing" textLength="206.25" x="528.2758" y="3412.3001">1020. Disable a robot</text></g><g id="elem_listRobots"><ellipse cx="634.3951" cy="3497.357" fill="#ADD8E6" rx="128.5851" ry="28.117" style="stroke:#00008B;stroke-width:0.5;"/><text fill="#000000" font-family="sans-serif" font-size="20" font-weight="bold" lengthAdjust="spacing" textLength="189.25" x="536.7701" y="3505.297">1030. List all robots</text></g><g id="elem_searchRobot"><ellipse cx="634.4007" cy="3618.3641" fill="#ADD8E6" rx="276.5707" ry="57.7141" style="stroke:#00008B;stroke-width:0.5;"/><text fill="#000000" font-family="sans-serif" font-size="20" font-weight="bold" lengthAdjust="spacing" textLength="517.75" x="373.8632" y="3625.4174">1040. Search robots for a specific designation or task</text></g><g id="elem_obtainPaths"><ellipse cx="634.3962" cy="415.3612" fill="#ADD8E6" rx="225.9062" ry="47.5812" style="stroke:#00008B;stroke-width:0.5;"/><text fill="#000000" font-family="sans-serif" font-size="20" font-weight="bold" lengthAdjust="spacing" textLength="410.875" x="425.9587" y="423.3012">1220. Obtain paths between two buildings</text></g><g id="elem_obtainPathsOptimized"><ellipse cx="634.3963" cy="581.3592" fill="#ADD8E6" rx="403.3963" ry="83.0793" style="stroke:#00008B;stroke-width:0.5;"/><text fill="#000000" font-family="sans-serif" font-size="20" font-weight="bold" lengthAdjust="spacing" textLength="777.125" x="245.8338" y="587.1192">510. Obtain paths between two buildings using a certain criteria of optimization</text></g><g id="elem_complexityAnalysis"><ellipse cx="634.4045" cy="747.3589" fill="#ADD8E6" rx="227.8945" ry="47.9789" style="stroke:#00008B;stroke-width:0.5;"/><text fill="#000000" font-family="sans-serif" font-size="20" font-weight="bold" lengthAdjust="spacing" textLength="415.125" x="423.842" y="755.2989">515. Complexity analysis of the algorithms</text></g><g id="elem_menu"><ellipse cx="634.3979" cy="87.3596" fill="#ADD8E6" rx="154.7479" ry="33.3496" style="stroke:#00008B;stroke-width:0.5;"/><text fill="#000000" font-family="sans-serif" font-size="20" font-weight="bold" lengthAdjust="spacing" textLength="253.125" x="504.8354" y="95.2996">535. Menu for all modules</text></g><g id="elem_interactiveNavigation"><ellipse cx="634.396" cy="218.3612" fill="#ADD8E6" rx="300.706" ry="62.5412" style="stroke:#00008B;stroke-width:0.5;"/><text fill="#000000" font-family="sans-serif" font-size="20" font-weight="bold" lengthAdjust="spacing" textLength="567.625" x="350.5702" y="224.1326">606. Interactive navigation by a robot through the campus</text></g><!--entity Fleet--><g id="elem_Fleet"><ellipse cx="88.5" cy="3369.24" fill="#F1F1F1" rx="8" ry="8" style="stroke:#181818;stroke-width:0.5;"/><path d="M88.5,3377.24 L88.5,3404.24 M75.5,3385.24 L101.5,3385.24 M88.5,3404.24 L75.5,3419.24 M88.5,3404.24 L101.5,3419.24 " fill="none" style="stroke:#181818;stroke-width:0.5;"/><text fill="#000000" font-family="sans-serif" font-size="20" lengthAdjust="spacing" textLength="132" x="22.5" y="3442.12">Fleet Manager</text></g><!--entity Campus--><g id="elem_Campus"><ellipse cx="88.5" cy="1906.24" fill="#F1F1F1" rx="8" ry="8" style="stroke:#181818;stroke-width:0.5;"/><path d="M88.5,1914.24 L88.5,1941.24 M75.5,1922.24 L101.5,1922.24 M88.5,1941.24 L75.5,1956.24 M88.5,1941.24 L101.5,1956.24 " fill="none" style="stroke:#181818;stroke-width:0.5;"/><text fill="#000000" font-family="sans-serif" font-size="20" lengthAdjust="spacing" textLength="165" x="6" y="1979.12">Campus Manager</text></g><!--entity Task--><g id="elem_Task"><ellipse cx="88.5" cy="546.24" fill="#F1F1F1" rx="8" ry="8" style="stroke:#181818;stroke-width:0.5;"/><path d="M88.5,554.24 L88.5,581.24 M75.5,562.24 L101.5,562.24 M88.5,581.24 L75.5,596.24 M88.5,581.24 L101.5,596.24 " fill="none" style="stroke:#181818;stroke-width:0.5;"/><text fill="#000000" font-family="sans-serif" font-size="20" lengthAdjust="spacing" textLength="131" x="23" y="619.12">Task Manager</text></g><!--entity User--><g id="elem_User"><ellipse cx="88.5" cy="118.24" fill="#F1F1F1" rx="8" ry="8" style="stroke:#181818;stroke-width:0.5;"/><path d="M88.5,126.24 L88.5,153.24 M75.5,134.24 L101.5,134.24 M88.5,153.24 L75.5,168.24 M88.5,153.24 L101.5,168.24 " fill="none" style="stroke:#181818;stroke-width:0.5;"/><text fill="#000000" font-family="sans-serif" font-size="20" lengthAdjust="spacing" textLength="44" x="66.5" y="191.12">User</text></g><!--link Campus to createBuilding--><g id="link_Campus_createBuilding"><path d="M91.61,1897.29 C100.74,1715.13 139.48,1027.4 207,960.36 C288.37,879.56 426.06,878.58 522.91,890.64 " fill="none" id="Campus-to-createBuilding" style="stroke:#00008B;stroke-width:1.0;"/><polygon fill="#00008B" points="527.65,891.37,519.2247,886.2696,522.6897,890.741,518.2183,894.2061,527.65,891.37" style="stroke:#00008B;stroke-width:1.0;"/></g><!--link Campus to editBuilding--><g id="link_Campus_editBuilding"><path d="M92.36,1897.34 C103.71,1728.96 147.84,1132.28 207,1073.36 C276.04,1004.59 385.5,991.39 476.24,994.97 " fill="none" id="Campus-to-editBuilding" style="stroke:#00008B;stroke-width:1.0;"/><polygon fill="#00008B" points="481.18,995.22,472.3721,990.8132,476.1852,994.9917,472.0067,998.8048,481.18,995.22" style="stroke:#00008B;stroke-width:1.0;"/></g><!--link Campus to listBuildings--><g id="link_Campus_listBuildings"><path d="M89.49,1897.37 C90.41,1749.01 101.65,1270.68 207,1169.36 C289.91,1089.62 427.95,1088.61 524.44,1100.37 " fill="none" id="Campus-to-listBuildings" style="stroke:#00008B;stroke-width:1.0;"/><polygon fill="#00008B" points="529.15,1101.09,520.7102,1096.0135,524.188,1100.4751,519.7264,1103.9528,529.15,1101.09" style="stroke:#00008B;stroke-width:1.0;"/></g><!--link Campus to listBuildingsWithFloors--><g id="link_Campus_listBuildingsWithFloors"><path d="M92.38,1897.29 C101.23,1775.59 132.11,1438.86 207,1362.36 C230.27,1338.59 258.08,1320.15 288.18,1305.9 " fill="none" id="Campus-to-listBuildingsWithFloors" style="stroke:#00008B;stroke-width:1.0;"/><polygon fill="#00008B" points="292.43,1303.47,282.5826,1303.6411,287.8969,1305.5797,285.9582,1310.894,292.43,1303.47" style="stroke:#00008B;stroke-width:1.0;"/></g><!--link Campus to createFloor--><g id="link_Campus_createFloor"><path d="M94.69,1897.28 C107.78,1794.11 145.51,1541.52 207,1486.36 C267.97,1431.66 354.79,1412.41 434.2,1408.29 " fill="none" id="Campus-to-createFloor" style="stroke:#00008B;stroke-width:1.0;"/><polygon fill="#00008B" points="438.9,1408.02,429.7165,1404.4613,433.9059,1408.2626,430.1047,1412.4519,438.9,1408.02" style="stroke:#00008B;stroke-width:1.0;"/></g><!--link Campus to editFloor--><g id="link_Campus_editFloor"><path d="M91.21,1897.38 C96.58,1824.84 118.47,1680.96 207,1608.36 C269.33,1557.25 354.76,1538.36 432.79,1533.63 " fill="none" id="Campus-to-editFloor" style="stroke:#00008B;stroke-width:1.0;"/><polygon fill="#00008B" points="437.4,1533.31,428.1859,1529.8315,432.4082,1533.5961,428.6436,1537.8184,437.4,1533.31" style="stroke:#00008B;stroke-width:1.0;"/></g><!--link Campus to listFloors--><g id="link_Campus_listFloors"><path d="M101.45,1897.41 C117.15,1848.65 149.69,1771.7 207,1732.36 C268.31,1690.28 346.3,1671.53 418.78,1664.34 " fill="none" id="Campus-to-listFloors" style="stroke:#00008B;stroke-width:1.0;"/><polygon fill="#00008B" points="423.43,1663.8,414.0934,1660.665,418.4522,1664.2707,414.8465,1668.6295,423.43,1663.8" style="stroke:#00008B;stroke-width:1.0;"/></g><!--link Campus to listFloorsWithConnections--><g id="link_Campus_listFloorsWithConnections"><path d="M171.39,1897.3 C183.13,1892.06 195.22,1887.22 207,1883.36 C264.52,1864.53 328.05,1850.13 388.11,1839.23 " fill="none" id="Campus-to-listFloorsWithConnections" style="stroke:#00008B;stroke-width:1.0;"/><polygon fill="#00008B" points="392.91,1838.18,383.3432,1835.8398,387.9893,1839.0669,384.7622,1843.7129,392.91,1838.18" style="stroke:#00008B;stroke-width:1.0;"/></g><!--link Campus to loadFloorMap--><g id="link_Campus_loadFloorMap"><path d="M171.22,1941.36 C241.95,1941.36 347.08,1941.36 439.2,1941.36 " fill="none" id="Campus-to-loadFloorMap" style="stroke:#00008B;stroke-width:1.0;"/><polygon fill="#00008B" points="443.97,1941.36,434.97,1937.36,438.97,1941.36,434.97,1945.36,443.97,1941.36" style="stroke:#00008B;stroke-width:1.0;"/></g><!--link Campus to createConnection--><g id="link_Campus_createConnection"><path d="M170.67,1985.36 C182.62,1990.68 194.96,1995.56 207,1999.36 C273.78,2020.46 348.66,2034.95 416.81,2044.85 " fill="none" id="Campus-to-createConnection" style="stroke:#00008B;stroke-width:1.0;"/><polygon fill="#00008B" points="421.54,2045.67,413.2046,2040.4239,416.5914,2044.9549,412.0604,2048.3417,421.54,2045.67" style="stroke:#00008B;stroke-width:1.0;"/></g><!--link Campus to editConnection--><g id="link_Campus_editConnection"><path d="M104.18,1985.41 C121.43,2029.87 154.55,2096.77 207,2131.36 C266.49,2170.59 340.7,2189.49 410.46,2197.76 " fill="none" id="Campus-to-editConnection" style="stroke:#00008B;stroke-width:1.0;"/><polygon fill="#00008B" points="415.33,2198.44,406.8456,2193.4384,410.3627,2197.869,405.9321,2201.3861,415.33,2198.44" style="stroke:#00008B;stroke-width:1.0;"/></g><!--link Campus to listBuildingsConnections--><g id="link_Campus_listBuildingsConnections"><path d="M92.25,1985.47 C99.11,2055.22 123.12,2190.16 207,2259.36 C253.81,2297.98 313.61,2319.18 373.52,2330.11 " fill="none" id="Campus-to-listBuildingsConnections" style="stroke:#00008B;stroke-width:1.0;"/><polygon fill="#00008B" points="378.32,2331.14,370.1567,2325.63,373.3968,2330.267,368.7598,2333.5071,378.32,2331.14" style="stroke:#00008B;stroke-width:1.0;"/></g><!--link Campus to createElevator--><g id="link_Campus_createElevator"><path d="M94.43,1985.18 C107.06,2089.02 144.08,2345.48 207,2400.36 C289.23,2472.09 416.9,2477.79 511.12,2469.53 " fill="none" id="Campus-to-createElevator" style="stroke:#00008B;stroke-width:1.0;"/><polygon fill="#00008B" points="516,2469,506.6715,2465.8409,511.021,2469.4578,507.4041,2473.8073,516,2469" style="stroke:#00008B;stroke-width:1.0;"/></g><!--link Campus to editElevator--><g id="link_Campus_editElevator"><path d="M92.32,1985.47 C100.9,2104.73 130.92,2429.25 207,2498.36 C291.66,2575.27 428.14,2577.19 523.84,2566.41 " fill="none" id="Campus-to-editElevator" style="stroke:#00008B;stroke-width:1.0;"/><polygon fill="#00008B" points="528.79,2565.72,519.3828,2562.8037,523.8245,2566.3067,520.3215,2570.7484,528.79,2565.72" style="stroke:#00008B;stroke-width:1.0;"/></g><!--link Campus to listElevators--><g id="link_Campus_listElevators"><path d="M91.03,1985.42 C96.58,2117.78 120.13,2508.02 207,2593.36 C255.98,2641.47 324.46,2663.99 392.23,2673.08 " fill="none" id="Campus-to-listElevators" style="stroke:#00008B;stroke-width:1.0;"/><polygon fill="#00008B" points="396.94,2673.81,388.5147,2668.7096,391.9797,2673.181,387.5083,2676.6461,396.94,2673.81" style="stroke:#00008B;stroke-width:1.0;"/></g><!--link Campus to listFloorsReachableByElevator--><g id="link_Campus_listFloorsReachableByElevator"><path d="M89.67,1985.45 C91.17,2135.34 104.04,2621.99 207,2730.36 C235.62,2760.49 271.64,2781.64 310.56,2796.27 " fill="none" id="Campus-to-listFloorsReachableByElevator" style="stroke:#00008B;stroke-width:1.0;"/><polygon fill="#00008B" points="314.82,2798.21,307.7539,2791.3493,310.1273,2796.4841,304.9925,2798.8576,314.82,2798.21" style="stroke:#00008B;stroke-width:1.0;"/></g><!--link Campus to createRoom--><g id="link_Campus_createRoom"><path d="M91.77,1985.4 C101.44,2165.05 141.71,2836.03 207,2902.36 C271.51,2967.9 372.51,2984.06 460.03,2983.18 " fill="none" id="Campus-to-createRoom" style="stroke:#00008B;stroke-width:1.0;"/><polygon fill="#00008B" points="464.77,2983.09,455.7138,2979.219,459.7705,2983.1614,455.8281,2987.2181,464.77,2983.09" style="stroke:#00008B;stroke-width:1.0;"/></g><!--link Fleet to createRobotType--><g id="link_Fleet_createRobotType"><path d="M106.58,3360.5 C124.99,3319.34 158.34,3259.44 207,3227.36 C250.5,3198.69 301.65,3179.82 353.14,3167.54 " fill="none" id="Fleet-to-createRobotType" style="stroke:#00008B;stroke-width:1.0;"/><polygon fill="#00008B" points="357.77,3166.23,348.0943,3164.3914,352.9022,3167.372,349.9215,3172.1799,357.77,3166.23" style="stroke:#00008B;stroke-width:1.0;"/></g><!--link Fleet to createRobot--><g id="link_Fleet_createRobot"><path d="M154.77,3375.18 C171.54,3368.54 189.72,3362.07 207,3357.36 C276.75,3338.36 354.53,3324.45 424.36,3314.49 " fill="none" id="Fleet-to-createRobot" style="stroke:#00008B;stroke-width:1.0;"/><polygon fill="#00008B" points="429.23,3313.66,419.758,3310.9615,424.2794,3314.3611,420.8798,3318.8825,429.23,3313.66" style="stroke:#00008B;stroke-width:1.0;"/></g><!--link Fleet to disableRobot--><g id="link_Fleet_disableRobot"><path d="M154.84,3404.36 C238.02,3404.36 384.01,3404.36 492.94,3404.36 " fill="none" id="Fleet-to-disableRobot" style="stroke:#00008B;stroke-width:1.0;"/><polygon fill="#00008B" points="497.75,3404.36,488.75,3400.36,492.75,3404.36,488.75,3408.36,497.75,3404.36" style="stroke:#00008B;stroke-width:1.0;"/></g><!--link Fleet to listRobots--><g id="link_Fleet_listRobots"><path d="M154.94,3434.19 C171.63,3440.78 189.73,3447.06 207,3451.36 C303.94,3475.49 416.39,3486.96 501.46,3492.42 " fill="none" id="Fleet-to-listRobots" style="stroke:#00008B;stroke-width:1.0;"/><polygon fill="#00008B" points="506.28,3492.78,497.5487,3488.2233,501.2898,3492.4663,497.0468,3496.2075,506.28,3492.78" style="stroke:#00008B;stroke-width:1.0;"/></g><!--link Fleet to searchRobot--><g id="link_Fleet_searchRobot"><path d="M114.85,3448.21 C135.53,3479.83 167.68,3520.77 207,3543.36 C254.57,3570.7 309.68,3588.54 364.16,3600.08 " fill="none" id="Fleet-to-searchRobot" style="stroke:#00008B;stroke-width:1.0;"/><polygon fill="#00008B" points="368.77,3601.25,360.7676,3595.5087,363.8738,3600.2365,359.146,3603.3427,368.77,3601.25" style="stroke:#00008B;stroke-width:1.0;"/></g><!--link Task to obtainPaths--><g id="link_Task_obtainPaths"><path d="M129.18,537.28 C150.25,516.68 177.79,493.78 207,480.36 C268.88,451.93 340.61,435.5 407.38,426.12 " fill="none" id="Task-to-obtainPaths" style="stroke:#00008B;stroke-width:1.0;"/><polygon fill="#00008B" points="412,425.35,402.5368,422.6209,407.0472,426.0351,403.633,430.5455,412,425.35" style="stroke:#00008B;stroke-width:1.0;"/></g><!--link Task to obtainPathsOptimized--><g id="link_Task_obtainPathsOptimized"><path d="M154.3,581.36 C174.46,581.36 198.35,581.36 224.53,581.36 " fill="none" id="Task-to-obtainPathsOptimized" style="stroke:#00008B;stroke-width:1.0;"/><polygon fill="#00008B" points="229.51,581.36,220.51,577.36,224.51,581.36,220.51,585.36,229.51,581.36" style="stroke:#00008B;stroke-width:1.0;"/></g><!--link Task to complexityAnalysis--><g id="link_Task_complexityAnalysis"><path d="M129.18,625.44 C150.25,646.04 177.79,668.94 207,682.36 C268.39,710.56 339.46,726.96 405.77,736.37 " fill="none" id="Task-to-complexityAnalysis" style="stroke:#00008B;stroke-width:1.0;"/><polygon fill="#00008B" points="410.35,737.15,401.983,731.9545,405.3972,736.4649,400.8868,739.8791,410.35,737.15" style="stroke:#00008B;stroke-width:1.0;"/></g><!--link User to menu--><g id="link_User_menu"><path d="M110.72,150.6 C134.25,147.55 173.32,142.52 207,138.36 C302.02,126.61 409,113.82 492.04,103.98 " fill="none" id="User-to-menu" style="stroke:#00008B;stroke-width:1.0;"/><polygon fill="#00008B" points="496.98,103.28,487.5738,100.3605,492.0143,103.865,488.5098,108.3056,496.98,103.28" style="stroke:#00008B;stroke-width:1.0;"/></g><!--link User to interactiveNavigation--><g id="link_User_interactiveNavigation"><path d="M110.82,155.91 C155.1,161.2 261.72,173.94 367.19,186.55 " fill="none" id="User-to-interactiveNavigation" style="stroke:#00008B;stroke-width:1.0;"/><polygon fill="#00008B" points="371.85,187.22,363.3798,182.1944,366.8843,186.635,362.4438,190.1395,371.85,187.22" style="stroke:#00008B;stroke-width:1.0;"/></g><!--SRC=[ZLR9Rjim4BtpAuZS4zXEdRO-56Wse43I5btGCosD9S8KAP1KNBVeltT8QY5b9crEpioyDmk7Zp9xBbkcMIDKiOUIbh1ZdR3tIjgl_1VGrO8GCyJGpa313D3VXEBVDIlsbLQTB6-KK9e-yAgsrwA3u5Mw11qyjqplHyTxhTKXO_SvxL40GaL9_X2okHS0bZuooIhG6yeCzHQokM5Dsvd44qnayusPVU9m1hBvRlf_tGz21EmijOfgLpCjkOR2SYK9SJ-OhB2AipW9bzMPGnV1vWOm3EDikLWlBkYD1cQ1Chhjk2Z7U6-zxaqfwZMYxafk8mpbSgTqmrmj7W_epwEl4Ft03QA56F76WmIQ1v19KM-oA7hWjgOLVm996ovvqpMKoP8sxAV_BRjc2vgg7Tq9fNGcomyakFU-DD_RU38UZ2tYpv0hCofFad0ibyESek6uMWOMJpjEAqEmY9iE7L1aEYc3ZdrbMbdbMFpS2YLbM1-tKShMEAhJ0mcKRautOtoQ0LDW1iLABAnXRLBYrAF00C_roDeK_ZgUTLJK5km1a6CLdrwOzbHAIlLcMir_4RcPFqVpDXuPpYLFziBoFZkgowXNIK704xFzW49dTxqfXQt7lcOWrqKUychUmu3Bxz3Omy0sA_ngJjTl4XPTr6oBkhCzZYbUpX0swii0l3vc6rWjuxNGIZNn3PpsAepj2_gTz4Oo68dma7tdJJCHNCHv91mmrrQXo1vRy6B2ZE6LfAQ5WkzuGItgiabIO_WtZ4vfbtbQV_E6BboEELFAugxMBJT-m2nGU40PR1d4PNnG7Z3jfm-VAPtRaw_0T57tqVtXZVsMuFhlrKlxzZsXyQ1GGJhv-2dpeGup6_lATVPfQnaUQijiRSQBPGzgThMK3_liecAEzVA_A13WD18L0RIFBJIte3bpMgnQonl-QtgueboVWW_ADEaQprKrhO2Vt1vnGvWu6cuScRiMJ5GA-UkcNv4nydqVI6R3Sk-w3yKKEXtI-X9pFOBimf7WUJQgx0G4wWOTSVJLukg2Vf3O6aFbUG8gsHElmhdXtMJ3NjVuwLFLGTRyLu5dunFmuuXpfVPV4-Vdx-OV1P4dUUuZU_gYF-U87k6JRE5PdAKwCKPlNzOwVxxYeFXTEaaVlH2p6lAUPr-14-PHz6QyENkgozaESt9wajEh90d265i70Sjw8ckYEfCvafR96Ci3yOhWhF5LpXcdEpTwSrV8NHhlz9TW_2-_nEGl]--></g></svg>