<?xml version="1.0" encoding="UTF-8" standalone="no"?><svg xmlns="http://www.w3.org/2000/svg" xmlns:xlink="http://www.w3.org/1999/xlink" contentStyleType="text/css" height="1269px" preserveAspectRatio="none" style="width:822px;height:1269px;background:#FFFFFF;" version="1.1" viewBox="0 0 822 1269" width="822px" zoomAndPan="magnify"><defs/><g><!--cluster VIS--><g id="cluster_VIS"><rect fill="none" height="1131" rx="2.5" ry="2.5" style="stroke:#181818;stroke-width:1.0;" width="809" x="7" y="132"/><rect fill="none" height="10" style="stroke:#181818;stroke-width:1.0;" width="15" x="796" y="137"/><rect fill="none" height="2" style="stroke:#181818;stroke-width:1.0;" width="4" x="794" y="139"/><rect fill="none" height="2" style="stroke:#181818;stroke-width:1.0;" width="4" x="794" y="143"/><text fill="#000000" font-family="sans-serif" font-size="20" font-style="italic" lengthAdjust="spacing" textLength="122" x="350.5" y="166.38">«component»</text><text fill="#000000" font-family="sans-serif" font-size="20" font-style="italic" lengthAdjust="spacing" textLength="145" x="339" y="193.62">«container (C4)»</text><text fill="#000000" font-family="sans-serif" font-size="20" font-weight="bold" lengthAdjust="spacing" textLength="124.125" x="349.4375" y="220.8599">Visualization</text></g><!--cluster Frameworks & Drivers Layer--><g id="cluster_Frameworks &amp; Drivers Layer"><path d="M206.5,235 L484.875,235 A3.75,3.75 0 0 1 487.375,237.5 L494.375,268.24 L789.5,268.24 A2.5,2.5 0 0 1 792,270.74 L792,378.5 A2.5,2.5 0 0 1 789.5,381 L206.5,381 A2.5,2.5 0 0 1 204,378.5 L204,237.5 A2.5,2.5 0 0 1 206.5,235 " fill="#80FFFF" style="stroke:#000000;stroke-width:1.5;"/><line style="stroke:#000000;stroke-width:1.5;" x1="204" x2="494.375" y1="268.24" y2="268.24"/><text fill="#000000" font-family="sans-serif" font-size="20" font-weight="bold" lengthAdjust="spacing" textLength="277.375" x="208" y="258.38">Frameworks &amp; Drivers Layer</text></g><!--cluster Interface Adapters Layer--><g id="cluster_Interface Adapters Layer"><path d="M380.5,521 L623.25,521 A3.75,3.75 0 0 1 625.75,523.5 L632.75,554.24 L632.5,554.24 A2.5,2.5 0 0 1 635,556.74 L635,664.5 A2.5,2.5 0 0 1 632.5,667 L380.5,667 A2.5,2.5 0 0 1 378,664.5 L378,523.5 A2.5,2.5 0 0 1 380.5,521 " fill="#80FF80" style="stroke:#000000;stroke-width:1.5;"/><line style="stroke:#000000;stroke-width:1.5;" x1="378" x2="632.75" y1="554.24" y2="554.24"/><text fill="#000000" font-family="sans-serif" font-size="20" font-weight="bold" lengthAdjust="spacing" textLength="241.75" x="382" y="544.38">Interface Adapters Layer</text></g><!--cluster Application Business Rules--><g id="cluster_Application Business Rules"><path d="M255.5,807 L518.5,807 A3.75,3.75 0 0 1 521,809.5 L528,840.24 L528.5,840.24 A2.5,2.5 0 0 1 531,842.74 L531,950.5 A2.5,2.5 0 0 1 528.5,953 L255.5,953 A2.5,2.5 0 0 1 253,950.5 L253,809.5 A2.5,2.5 0 0 1 255.5,807 " fill="#FF8080" style="stroke:#000000;stroke-width:1.5;"/><line style="stroke:#000000;stroke-width:1.5;" x1="253" x2="528" y1="840.24" y2="840.24"/><text fill="#000000" font-family="sans-serif" font-size="20" font-weight="bold" lengthAdjust="spacing" textLength="262" x="257" y="830.38">Application Business Rules</text></g><!--cluster Enterprise Business Rules--><g id="cluster_Enterprise Business Rules"><path d="M260.5,1093 L513.875,1093 A3.75,3.75 0 0 1 516.375,1095.5 L523.375,1126.24 L523.5,1126.24 A2.5,2.5 0 0 1 526,1128.74 L526,1236.5 A2.5,2.5 0 0 1 523.5,1239 L260.5,1239 A2.5,2.5 0 0 1 258,1236.5 L258,1095.5 A2.5,2.5 0 0 1 260.5,1093 " fill="#FFC080" style="stroke:#000000;stroke-width:1.5;"/><line style="stroke:#000000;stroke-width:1.5;" x1="258" x2="523.375" y1="1126.24" y2="1126.24"/><text fill="#000000" font-family="sans-serif" font-size="20" font-weight="bold" lengthAdjust="spacing" textLength="252.375" x="262" y="1116.38">Enterprise Business Rules</text></g><text fill="#000000" font-family="sans-serif" font-size="20" lengthAdjust="spacing" textLength="199" x="201" y="108.14">MD Management API</text><rect fill="#F1F1F1" height="12" style="stroke:#181818;stroke-width:1.5;" width="12" x="294.5" y="126"/><text fill="#000000" font-family="sans-serif" font-size="20" lengthAdjust="spacing" textLength="59" x="403.5" y="108.14">UI API</text><rect fill="#F1F1F1" height="12" style="stroke:#181818;stroke-width:1.5;" width="12" x="427" y="126"/><!--entity MODULE_API--><g id="elem_MODULE_API"><ellipse cx="485" cy="465" fill="#F1F1F1" rx="8" ry="8" style="stroke:#181818;stroke-width:0.5;"/><text fill="#000000" font-family="sans-serif" font-size="20" lengthAdjust="spacing" textLength="107" x="431.5" y="503.38">Module API</text></g><!--entity HTTP_API--><g id="elem_HTTP_API"><ellipse cx="313" cy="465" fill="#F1F1F1" rx="8" ry="8" style="stroke:#181818;stroke-width:0.5;"/><text fill="#000000" font-family="sans-serif" font-size="20" lengthAdjust="spacing" textLength="86" x="270" y="503.38">HTTP API</text></g><!--entity SRV_API--><g id="elem_SRV_API"><ellipse cx="465" cy="751" fill="#F1F1F1" rx="8" ry="8" style="stroke:#181818;stroke-width:0.5;"/><text fill="#000000" font-family="sans-serif" font-size="20" lengthAdjust="spacing" textLength="155" x="387.5" y="789.38">App Services API</text></g><!--entity MODEL_API--><g id="elem_MODEL_API"><ellipse cx="392" cy="1037" fill="#F1F1F1" rx="8" ry="8" style="stroke:#181818;stroke-width:0.5;"/><text fill="#000000" font-family="sans-serif" font-size="20" lengthAdjust="spacing" textLength="95" x="344.5" y="1075.38">Model API</text></g><!--entity ROUTE--><g id="elem_ROUTE"><rect fill="#F1F1F1" height="84.4799" rx="2.5" ry="2.5" style="stroke:#181818;stroke-width:0.5;" width="162" x="614" y="281"/><rect fill="#F1F1F1" height="10" style="stroke:#181818;stroke-width:0.5;" width="15" x="756" y="286"/><rect fill="#F1F1F1" height="2" style="stroke:#181818;stroke-width:0.5;" width="4" x="754" y="288"/><rect fill="#F1F1F1" height="2" style="stroke:#181818;stroke-width:0.5;" width="4" x="754" y="292"/><text fill="#000000" font-family="sans-serif" font-size="20" font-style="italic" lengthAdjust="spacing" textLength="122" x="629" y="322.38">«component»</text><text fill="#000000" font-family="sans-serif" font-size="20" lengthAdjust="spacing" textLength="72" x="654" y="349.62">Routing</text></g><!--entity COMPONENT--><g id="elem_COMPONENT"><rect fill="#F1F1F1" height="84.4799" rx="2.5" ry="2.5" style="stroke:#181818;stroke-width:0.5;" width="162" x="417" y="281"/><rect fill="#F1F1F1" height="10" style="stroke:#181818;stroke-width:0.5;" width="15" x="559" y="286"/><rect fill="#F1F1F1" height="2" style="stroke:#181818;stroke-width:0.5;" width="4" x="557" y="288"/><rect fill="#F1F1F1" height="2" style="stroke:#181818;stroke-width:0.5;" width="4" x="557" y="292"/><text fill="#000000" font-family="sans-serif" font-size="20" font-style="italic" lengthAdjust="spacing" textLength="122" x="432" y="322.38">«component»</text><text fill="#000000" font-family="sans-serif" font-size="20" lengthAdjust="spacing" textLength="110" x="438" y="349.62">Component</text></g><!--entity HTTP--><g id="elem_HTTP"><rect fill="#F1F1F1" height="84.4799" rx="2.5" ry="2.5" style="stroke:#181818;stroke-width:0.5;" width="162" x="220" y="281"/><rect fill="#F1F1F1" height="10" style="stroke:#181818;stroke-width:0.5;" width="15" x="362" y="286"/><rect fill="#F1F1F1" height="2" style="stroke:#181818;stroke-width:0.5;" width="4" x="360" y="288"/><rect fill="#F1F1F1" height="2" style="stroke:#181818;stroke-width:0.5;" width="4" x="360" y="292"/><text fill="#000000" font-family="sans-serif" font-size="20" font-style="italic" lengthAdjust="spacing" textLength="122" x="235" y="322.38">«component»</text><text fill="#000000" font-family="sans-serif" font-size="20" lengthAdjust="spacing" textLength="49" x="271.5" y="349.62">HTTP</text></g><!--entity MODULE--><g id="elem_MODULE"><rect fill="#F1F1F1" height="84.4799" rx="2.5" ry="2.5" style="stroke:#181818;stroke-width:0.5;" width="162" x="397" y="567"/><rect fill="#F1F1F1" height="10" style="stroke:#181818;stroke-width:0.5;" width="15" x="539" y="572"/><rect fill="#F1F1F1" height="2" style="stroke:#181818;stroke-width:0.5;" width="4" x="537" y="574"/><rect fill="#F1F1F1" height="2" style="stroke:#181818;stroke-width:0.5;" width="4" x="537" y="578"/><text fill="#000000" font-family="sans-serif" font-size="20" font-style="italic" lengthAdjust="spacing" textLength="122" x="412" y="608.38">«component»</text><text fill="#000000" font-family="sans-serif" font-size="20" lengthAdjust="spacing" textLength="70" x="438" y="635.62">Module</text></g><!--entity SRV--><g id="elem_SRV"><rect fill="#F1F1F1" height="84.4799" rx="2.5" ry="2.5" style="stroke:#181818;stroke-width:0.5;" width="215" x="284.5" y="853"/><rect fill="#F1F1F1" height="10" style="stroke:#181818;stroke-width:0.5;" width="15" x="479.5" y="858"/><rect fill="#F1F1F1" height="2" style="stroke:#181818;stroke-width:0.5;" width="4" x="477.5" y="860"/><rect fill="#F1F1F1" height="2" style="stroke:#181818;stroke-width:0.5;" width="4" x="477.5" y="864"/><text fill="#000000" font-family="sans-serif" font-size="20" font-style="italic" lengthAdjust="spacing" textLength="122" x="326" y="894.38">«component»</text><text fill="#000000" font-family="sans-serif" font-size="20" lengthAdjust="spacing" textLength="175" x="299.5" y="921.62">Application Service</text></g><!--entity MODEL--><g id="elem_MODEL"><rect fill="#F1F1F1" height="84.4799" rx="2.5" ry="2.5" style="stroke:#181818;stroke-width:0.5;" width="227" x="278.5" y="1139"/><rect fill="#F1F1F1" height="10" style="stroke:#181818;stroke-width:0.5;" width="15" x="485.5" y="1144"/><rect fill="#F1F1F1" height="2" style="stroke:#181818;stroke-width:0.5;" width="4" x="483.5" y="1146"/><rect fill="#F1F1F1" height="2" style="stroke:#181818;stroke-width:0.5;" width="4" x="483.5" y="1150"/><text fill="#000000" font-family="sans-serif" font-size="20" font-style="italic" lengthAdjust="spacing" textLength="122" x="326" y="1180.38">«component»</text><text fill="#000000" font-family="sans-serif" font-size="20" lengthAdjust="spacing" textLength="187" x="293.5" y="1207.62">Domain Model DDD</text></g><!--entity API--><g id="elem_API"><ellipse cx="301" cy="14" fill="#F1F1F1" rx="8" ry="8" style="stroke:#181818;stroke-width:0.5;"/><text fill="#000000" font-family="sans-serif" font-size="20" lengthAdjust="spacing" textLength="70" x="266" y="52.38">MD API</text></g><!--entity UI--><g id="elem_UI"><ellipse cx="433" cy="14" fill="#F1F1F1" rx="8" ry="8" style="stroke:#181818;stroke-width:0.5;"/><text fill="#000000" font-family="sans-serif" font-size="20" lengthAdjust="spacing" textLength="22" x="422" y="52.38">UI</text></g><!--link API to P1--><g id="link_API_P1"><path d="M301,22.97 C301,45.29 301,107.94 301,126.04 " fill="none" id="API-P1" style="stroke:#181818;stroke-width:1.0;"/></g><!--link ROUTE to P2--><g id="link_ROUTE_P2"><path d="M661.21,280.53 C643.46,260.39 620.54,236.77 597,219 C540.81,176.58 460.74,143.8 438.77,135.21 " fill="none" id="ROUTE-P2" style="stroke:#181818;stroke-width:1.0;"/></g><!--link UI to P2--><g id="link_UI_P2"><path d="M433,22.97 C433,45.29 433,107.94 433,126.04 " fill="none" id="UI-P2" style="stroke:#181818;stroke-width:1.0;"/></g><!--link P1 to HTTP--><g id="link_P1_HTTP"><path d="M301,137.67 C301,157.06 301,232.38 301,280.54 " fill="none" id="P1-HTTP" style="stroke:#181818;stroke-width:1.0;"/></g><!--link COMPONENT to MODULE_API--><g id="link_COMPONENT_MODULE_API"><path d="M494.17,365.25 C491.74,391.45 488.7,424.15 486.8,444.56 " fill="none" id="COMPONENT-to-MODULE_API" style="stroke:#181818;stroke-width:1.0;"/><path d="M494.5865,452.2204 A9,9 0 0 0 477.7451 450.6498" fill="none" style="stroke:#181818;stroke-width:1.5;"/></g><!--reverse link HTTP_API to SRV--><g id="link_HTTP_API_SRV"><path d="M315.08,484.8 C320.8,534.92 338.01,675.77 363,791 C367.45,811.52 373.62,833.99 379.13,852.69 " fill="none" id="HTTP_API-backto-SRV" style="stroke:#181818;stroke-width:1.0;"/><path d="M305.9282,479.1209 A9,9 0 0 0 322.7374 477.2371" fill="none" style="stroke:#181818;stroke-width:1.5;"/></g><!--link HTTP to HTTP_API--><g id="link_HTTP_HTTP_API"><path d="M304.54,365.25 C307.27,397.19 310.84,438.79 312.32,456.01 " fill="none" id="HTTP-HTTP_API" style="stroke:#181818;stroke-width:1.0;"/></g><!--link MODULE_API to MODULE--><g id="link_MODULE_API_MODULE"><path d="M484.62,473.63 C483.77,490.86 481.66,533.79 480.04,566.53 " fill="none" id="MODULE_API-MODULE" style="stroke:#181818;stroke-width:1.0;"/></g><!--link MODULE to SRV_API--><g id="link_MODULE_SRV_API"><path d="M474.17,651.25 C471.74,677.45 468.7,710.15 466.8,730.56 " fill="none" id="MODULE-to-SRV_API" style="stroke:#181818;stroke-width:1.0;"/><path d="M474.5865,738.2204 A9,9 0 0 0 457.7451 736.6498" fill="none" style="stroke:#181818;stroke-width:1.5;"/></g><!--reverse link SRV_API to SRV--><g id="link_SRV_API_SRV"><path d="M455.88,769.74 C445.29,790.35 427.45,825.03 413.32,852.53 " fill="none" id="SRV_API-backto-SRV" style="stroke:#181818;stroke-width:1.0;"/><path d="M451.4514,759.8482 A9,9 0 0 0 466.4922 767.5862" fill="none" style="stroke:#181818;stroke-width:1.5;"/></g><!--link SRV to MODEL_API--><g id="link_SRV_MODEL_API"><path d="M392,937.25 C392,963.45 392,996.15 392,1016.56 " fill="none" id="SRV-to-MODEL_API" style="stroke:#181818;stroke-width:1.0;"/><path d="M400.4572,1023.4118 A9,9 0 0 0 383.5428 1023.4118" fill="none" style="stroke:#181818;stroke-width:1.5;"/></g><!--link MODEL_API to MODEL--><g id="link_MODEL_API_MODEL"><path d="M392,1045.63 C392,1062.86 392,1105.79 392,1138.53 " fill="none" id="MODEL_API-MODEL" style="stroke:#181818;stroke-width:1.0;"/></g><!--SRC=[ZLB1QkCm4BthAmONblPWICCUUYY5REnGGzAO9CwrQ6sbYDYIaUGkswN_lYCfYbrljZINZ4VlpPjvC_h8HKiLRMfP7ba55JlGhZOBASoMlp6OJWWniWKZuQSqHZPGSSLAmwKWX0l3r86M3A9L0hCyYu1g-pzyANoso0WfPTDAmOI1QCzrHsl-Hcqb1zXdMxY_FqCU7joNC9GBfk1w_lq6Kty8G2kLuS99hgYWBwon5ODwVZk055cVdn9yo0OTowghsVbzjKwAPVficxV0Wwmhb8qMQ0tx9TLHmpT857zbIiEI_cOgWgkxoG9_hYc0mN0RsQ7yYwkxMHUxT3IO9xoFQVCGEk9ylShNJ-dJxclanzqkTpmR_9VoFZB1WPq5iwrZUWC-O6Pj2rkcNdd9z1cxtUmTT6mfgyyGT3HTXdh1pnuzgsXhncxUJVvrqozgiAJFfmjAs7RDItTVyAFJU4KQju6LD6fPfKjQGz9fPYUCutvDDRNpjOfhTabqVb4qaGqUENZtaYG9ewRBJpHH5Qs5EBONxu_CnbDIPAU0vBSOnMwjfB-cEBx-SEnXwt23M9opJyHTUsAJa_4kCoI7FDOC5s6jihW-urDUrby443zUg1UoVm40]--></g></svg>