<?xml version="1.0" encoding="UTF-8" standalone="no"?><svg xmlns="http://www.w3.org/2000/svg" xmlns:xlink="http://www.w3.org/1999/xlink" contentStyleType="text/css" height="1270px" preserveAspectRatio="none" style="width:822px;height:1270px;background:#FFFFFF;" version="1.1" viewBox="0 0 822 1270" width="822px" zoomAndPan="magnify"><defs/><g><!--cluster VIS--><g id="cluster_VIS"><rect fill="none" height="1132.92" rx="2.5" ry="2.5" style="stroke:#181818;stroke-width:1.0;" width="809" x="7" y="132"/><rect fill="none" height="10" style="stroke:#181818;stroke-width:1.0;" width="15" x="796" y="137"/><rect fill="none" height="2" style="stroke:#181818;stroke-width:1.0;" width="4" x="794" y="139"/><rect fill="none" height="2" style="stroke:#181818;stroke-width:1.0;" width="4" x="794" y="143"/><text fill="#000000" font-family="sans-serif" font-size="20" font-style="italic" lengthAdjust="spacing" textLength="122" x="350.5" y="166.38">«component»</text><text fill="#000000" font-family="sans-serif" font-size="20" font-style="italic" lengthAdjust="spacing" textLength="145" x="339" y="193.62">«container (C4)»</text><text fill="#000000" font-family="sans-serif" font-size="20" font-weight="bold" lengthAdjust="spacing" textLength="124.125" x="349.4375" y="220.8599">Visualization</text></g><!--cluster Frameworks & Drivers Layer--><g id="cluster_Frameworks &amp; Drivers Layer"><path d="M206.5,235 L484.875,235 A3.75,3.75 0 0 1 487.375,237.5 L494.375,268.24 L789.5,268.24 A2.5,2.5 0 0 1 792,270.74 L792,378.98 A2.5,2.5 0 0 1 789.5,381.48 L206.5,381.48 A2.5,2.5 0 0 1 204,378.98 L204,237.5 A2.5,2.5 0 0 1 206.5,235 " fill="#80FFFF" style="stroke:#000000;stroke-width:1.5;"/><line style="stroke:#000000;stroke-width:1.5;" x1="204" x2="494.375" y1="268.24" y2="268.24"/><text fill="#000000" font-family="sans-serif" font-size="20" font-weight="bold" lengthAdjust="spacing" textLength="277.375" x="208" y="258.38">Frameworks &amp; Drivers Layer</text></g><!--cluster Interface Adapters Layer--><g id="cluster_Interface Adapters Layer"><path d="M380.5,521.48 L623.25,521.48 A3.75,3.75 0 0 1 625.75,523.98 L632.75,554.72 L632.5,554.72 A2.5,2.5 0 0 1 635,557.22 L635,665.46 A2.5,2.5 0 0 1 632.5,667.96 L380.5,667.96 A2.5,2.5 0 0 1 378,665.46 L378,523.98 A2.5,2.5 0 0 1 380.5,521.48 " fill="#80FF80" style="stroke:#000000;stroke-width:1.5;"/><line style="stroke:#000000;stroke-width:1.5;" x1="378" x2="632.75" y1="554.72" y2="554.72"/><text fill="#000000" font-family="sans-serif" font-size="20" font-weight="bold" lengthAdjust="spacing" textLength="241.75" x="382" y="544.86">Interface Adapters Layer</text></g><!--cluster Application Business Rules--><g id="cluster_Application Business Rules"><path d="M255.5,807.96 L518.5,807.96 A3.75,3.75 0 0 1 521,810.46 L528,841.2 L528.5,841.2 A2.5,2.5 0 0 1 531,843.7 L531,951.94 A2.5,2.5 0 0 1 528.5,954.44 L255.5,954.44 A2.5,2.5 0 0 1 253,951.94 L253,810.46 A2.5,2.5 0 0 1 255.5,807.96 " fill="#FF8080" style="stroke:#000000;stroke-width:1.5;"/><line style="stroke:#000000;stroke-width:1.5;" x1="253" x2="528" y1="841.2" y2="841.2"/><text fill="#000000" font-family="sans-serif" font-size="20" font-weight="bold" lengthAdjust="spacing" textLength="262" x="257" y="831.34">Application Business Rules</text></g><!--cluster Enterprise Business Rules--><g id="cluster_Enterprise Business Rules"><path d="M260.5,1094.44 L513.875,1094.44 A3.75,3.75 0 0 1 516.375,1096.94 L523.375,1127.68 L523.5,1127.68 A2.5,2.5 0 0 1 526,1130.18 L526,1238.42 A2.5,2.5 0 0 1 523.5,1240.92 L260.5,1240.92 A2.5,2.5 0 0 1 258,1238.42 L258,1096.94 A2.5,2.5 0 0 1 260.5,1094.44 " fill="#FFC080" style="stroke:#000000;stroke-width:1.5;"/><line style="stroke:#000000;stroke-width:1.5;" x1="258" x2="523.375" y1="1127.68" y2="1127.68"/><text fill="#000000" font-family="sans-serif" font-size="20" font-weight="bold" lengthAdjust="spacing" textLength="252.375" x="262" y="1117.82">Enterprise Business Rules</text></g><text fill="#000000" font-family="sans-serif" font-size="20" lengthAdjust="spacing" textLength="199" x="201.5" y="108.14">MD Management API</text><rect fill="#F1F1F1" height="12" style="stroke:#181818;stroke-width:1.5;" width="12" x="295" y="126"/><text fill="#000000" font-family="sans-serif" font-size="20" lengthAdjust="spacing" textLength="59" x="404" y="108.14">UI API</text><rect fill="#F1F1F1" height="12" style="stroke:#181818;stroke-width:1.5;" width="12" x="427.5" y="126"/><!--entity MODULE_API--><g id="elem_MODULE_API"><ellipse cx="485" cy="465.48" fill="#F1F1F1" rx="8" ry="8" style="stroke:#181818;stroke-width:0.5;"/><text fill="#000000" font-family="sans-serif" font-size="20" lengthAdjust="spacing" textLength="107" x="431.5" y="503.86">Module API</text></g><!--entity HTTP_API--><g id="elem_HTTP_API"><ellipse cx="313" cy="465.48" fill="#F1F1F1" rx="8" ry="8" style="stroke:#181818;stroke-width:0.5;"/><text fill="#000000" font-family="sans-serif" font-size="20" lengthAdjust="spacing" textLength="86" x="270" y="503.86">HTTP API</text></g><!--entity SRV_API--><g id="elem_SRV_API"><ellipse cx="465" cy="751.96" fill="#F1F1F1" rx="8" ry="8" style="stroke:#181818;stroke-width:0.5;"/><text fill="#000000" font-family="sans-serif" font-size="20" lengthAdjust="spacing" textLength="155" x="387.5" y="790.34">App Services API</text></g><!--entity MODEL_API--><g id="elem_MODEL_API"><ellipse cx="392" cy="1038.44" fill="#F1F1F1" rx="8" ry="8" style="stroke:#181818;stroke-width:0.5;"/><text fill="#000000" font-family="sans-serif" font-size="20" lengthAdjust="spacing" textLength="95" x="344.5" y="1076.82">Model API</text></g><!--entity ROUTE--><g id="elem_ROUTE"><rect fill="#F1F1F1" height="84.4799" rx="2.5" ry="2.5" style="stroke:#181818;stroke-width:0.5;" width="162" x="614" y="281"/><rect fill="#F1F1F1" height="10" style="stroke:#181818;stroke-width:0.5;" width="15" x="756" y="286"/><rect fill="#F1F1F1" height="2" style="stroke:#181818;stroke-width:0.5;" width="4" x="754" y="288"/><rect fill="#F1F1F1" height="2" style="stroke:#181818;stroke-width:0.5;" width="4" x="754" y="292"/><text fill="#000000" font-family="sans-serif" font-size="20" font-style="italic" lengthAdjust="spacing" textLength="122" x="629" y="322.38">«component»</text><text fill="#000000" font-family="sans-serif" font-size="20" lengthAdjust="spacing" textLength="72" x="654" y="349.62">Routing</text></g><!--entity COMPONENT--><g id="elem_COMPONENT"><rect fill="#F1F1F1" height="84.4799" rx="2.5" ry="2.5" style="stroke:#181818;stroke-width:0.5;" width="162" x="417" y="281"/><rect fill="#F1F1F1" height="10" style="stroke:#181818;stroke-width:0.5;" width="15" x="559" y="286"/><rect fill="#F1F1F1" height="2" style="stroke:#181818;stroke-width:0.5;" width="4" x="557" y="288"/><rect fill="#F1F1F1" height="2" style="stroke:#181818;stroke-width:0.5;" width="4" x="557" y="292"/><text fill="#000000" font-family="sans-serif" font-size="20" font-style="italic" lengthAdjust="spacing" textLength="122" x="432" y="322.38">«component»</text><text fill="#000000" font-family="sans-serif" font-size="20" lengthAdjust="spacing" textLength="110" x="438" y="349.62">Component</text></g><!--entity HTTP--><g id="elem_HTTP"><rect fill="#F1F1F1" height="84.4799" rx="2.5" ry="2.5" style="stroke:#181818;stroke-width:0.5;" width="162" x="220" y="281"/><rect fill="#F1F1F1" height="10" style="stroke:#181818;stroke-width:0.5;" width="15" x="362" y="286"/><rect fill="#F1F1F1" height="2" style="stroke:#181818;stroke-width:0.5;" width="4" x="360" y="288"/><rect fill="#F1F1F1" height="2" style="stroke:#181818;stroke-width:0.5;" width="4" x="360" y="292"/><text fill="#000000" font-family="sans-serif" font-size="20" font-style="italic" lengthAdjust="spacing" textLength="122" x="235" y="322.38">«component»</text><text fill="#000000" font-family="sans-serif" font-size="20" lengthAdjust="spacing" textLength="49" x="271.5" y="349.62">HTTP</text></g><!--entity MODULE--><g id="elem_MODULE"><rect fill="#F1F1F1" height="84.4799" rx="2.5" ry="2.5" style="stroke:#181818;stroke-width:0.5;" width="162" x="397" y="567.48"/><rect fill="#F1F1F1" height="10" style="stroke:#181818;stroke-width:0.5;" width="15" x="539" y="572.48"/><rect fill="#F1F1F1" height="2" style="stroke:#181818;stroke-width:0.5;" width="4" x="537" y="574.48"/><rect fill="#F1F1F1" height="2" style="stroke:#181818;stroke-width:0.5;" width="4" x="537" y="578.48"/><text fill="#000000" font-family="sans-serif" font-size="20" font-style="italic" lengthAdjust="spacing" textLength="122" x="412" y="608.86">«component»</text><text fill="#000000" font-family="sans-serif" font-size="20" lengthAdjust="spacing" textLength="70" x="438" y="636.1">Module</text></g><!--entity SRV--><g id="elem_SRV"><rect fill="#F1F1F1" height="84.4799" rx="2.5" ry="2.5" style="stroke:#181818;stroke-width:0.5;" width="215" x="284.5" y="853.96"/><rect fill="#F1F1F1" height="10" style="stroke:#181818;stroke-width:0.5;" width="15" x="479.5" y="858.96"/><rect fill="#F1F1F1" height="2" style="stroke:#181818;stroke-width:0.5;" width="4" x="477.5" y="860.96"/><rect fill="#F1F1F1" height="2" style="stroke:#181818;stroke-width:0.5;" width="4" x="477.5" y="864.96"/><text fill="#000000" font-family="sans-serif" font-size="20" font-style="italic" lengthAdjust="spacing" textLength="122" x="326" y="895.34">«component»</text><text fill="#000000" font-family="sans-serif" font-size="20" lengthAdjust="spacing" textLength="175" x="299.5" y="922.58">Application Service</text></g><!--entity MODEL--><g id="elem_MODEL"><rect fill="#F1F1F1" height="84.4799" rx="2.5" ry="2.5" style="stroke:#181818;stroke-width:0.5;" width="227" x="278.5" y="1140.44"/><rect fill="#F1F1F1" height="10" style="stroke:#181818;stroke-width:0.5;" width="15" x="485.5" y="1145.44"/><rect fill="#F1F1F1" height="2" style="stroke:#181818;stroke-width:0.5;" width="4" x="483.5" y="1147.44"/><rect fill="#F1F1F1" height="2" style="stroke:#181818;stroke-width:0.5;" width="4" x="483.5" y="1151.44"/><text fill="#000000" font-family="sans-serif" font-size="20" font-style="italic" lengthAdjust="spacing" textLength="122" x="326" y="1181.82">«component»</text><text fill="#000000" font-family="sans-serif" font-size="20" lengthAdjust="spacing" textLength="187" x="293.5" y="1209.06">Domain Model DDD</text></g><!--entity API--><g id="elem_API"><ellipse cx="301" cy="14" fill="#F1F1F1" rx="8" ry="8" style="stroke:#181818;stroke-width:0.5;"/><text fill="#000000" font-family="sans-serif" font-size="20" lengthAdjust="spacing" textLength="70" x="266" y="52.38">MD API</text></g><!--entity UI--><g id="elem_UI"><ellipse cx="434" cy="14" fill="#F1F1F1" rx="8" ry="8" style="stroke:#181818;stroke-width:0.5;"/><text fill="#000000" font-family="sans-serif" font-size="20" lengthAdjust="spacing" textLength="22" x="423" y="52.38">UI</text></g><!--link API to P1--><g id="link_API_P1"><path d="M301,22.97 C301,45.29 301,107.94 301,126.04 " fill="none" id="API-P1" style="stroke:#181818;stroke-width:1.0;"/></g><!--link ROUTE to P2--><g id="link_ROUTE_P2"><path d="M661.2,280.7 C643.45,260.52 620.54,236.84 597,219 C540.9,176.49 460.84,143.53 439.44,135.1 " fill="none" id="ROUTE-P2" style="stroke:#181818;stroke-width:1.0;"/></g><!--link UI to P2--><g id="link_UI_P2"><path d="M434,22.97 C434,45.29 434,107.94 434,126.04 " fill="none" id="UI-P2" style="stroke:#181818;stroke-width:1.0;"/></g><!--link P1 to HTTP--><g id="link_P1_HTTP"><path d="M301,137.68 C301,157.09 301,232.51 301,280.73 " fill="none" id="P1-HTTP" style="stroke:#181818;stroke-width:1.0;"/></g><!--link COMPONENT to MODULE_API--><g id="link_COMPONENT_MODULE_API"><path d="M494.13,365.94 C491.68,392.41 488.62,425.4 486.74,445.7 " fill="none" id="COMPONENT-to-MODULE_API" style="stroke:#181818;stroke-width:1.0;"/><path d="M494.4465,453.2404 A9,9 0 0 0 477.6051 451.6698" fill="none" style="stroke:#181818;stroke-width:1.5;"/></g><!--reverse link HTTP_API to SRV--><g id="link_HTTP_API_SRV"><path d="M315.04,484.99 C320.73,534.9 337.97,676.31 363,791.96 C367.45,812.52 373.62,835.05 379.13,853.8 " fill="none" id="HTTP_API-backto-SRV" style="stroke:#181818;stroke-width:1.0;"/><path d="M305.7682,479.1109 A9,9 0 0 0 322.5774 477.2271" fill="none" style="stroke:#181818;stroke-width:1.5;"/></g><!--link HTTP to HTTP_API--><g id="link_HTTP_HTTP_API"><path d="M304.57,365.94 C307.3,397.91 310.85,439.37 312.32,456.52 " fill="none" id="HTTP-HTTP_API" style="stroke:#181818;stroke-width:1.0;"/></g><!--link MODULE_API to MODULE--><g id="link_MODULE_API_MODULE"><path d="M484.62,474.13 C483.77,491.38 481.66,534.38 480.04,567.18 " fill="none" id="MODULE_API-MODULE" style="stroke:#181818;stroke-width:1.0;"/></g><!--link MODULE to SRV_API--><g id="link_MODULE_SRV_API"><path d="M474.13,652.42 C471.68,678.89 468.62,711.88 466.74,732.18 " fill="none" id="MODULE-to-SRV_API" style="stroke:#181818;stroke-width:1.0;"/><path d="M474.4465,739.7204 A9,9 0 0 0 457.6051 738.1498" fill="none" style="stroke:#181818;stroke-width:1.5;"/></g><!--reverse link SRV_API to SRV--><g id="link_SRV_API_SRV"><path d="M456.17,770.16 C445.62,790.73 427.59,825.86 413.32,853.66 " fill="none" id="SRV_API-backto-SRV" style="stroke:#181818;stroke-width:1.0;"/><path d="M452.15,760.4896 A9,9 0 0 0 467.2006 768.2084" fill="none" style="stroke:#181818;stroke-width:1.5;"/></g><!--link SRV to MODEL_API--><g id="link_SRV_MODEL_API"><path d="M392,938.9 C392,965.37 392,998.36 392,1018.66 " fill="none" id="SRV-to-MODEL_API" style="stroke:#181818;stroke-width:1.0;"/><path d="M400.4572,1025.4018 A9,9 0 0 0 383.5428 1025.4018" fill="none" style="stroke:#181818;stroke-width:1.5;"/></g><!--link MODEL_API to MODEL--><g id="link_MODEL_API_MODEL"><path d="M392,1047.09 C392,1064.34 392,1107.34 392,1140.14 " fill="none" id="MODEL_API-MODEL" style="stroke:#181818;stroke-width:1.0;"/></g><!--SRC=[ZLB1QkCm4BthAmONblPWICCUUYY5REnGGzAO9CwrQ6sbYDYIaUGkswN_lYCfYbrljZINZ4VlpPjvC_h8HKiLRMfP7ba55JlGhZOBASoMlp6OJWWniWKZuQSqHZPGSSLAmwKWX0l3r86M3A9L0hCyYu1g-pzyANoso0WfPTDAmOI1QCzrHsl-Hcqb1zXdMxY_FqCU7joNC9GBfk1w_lq6Kty8G2kLuS99hgYWBwon5ODwVZk055cVdn9yo0OTowghsVbzjKwAPVficxV0Wwmhb8qMQ0tx9TLHmpT857zbIiEI_cOgWgkxoG9_hYc0mN0RsQ7yYwkxMHUxT3IO9xoFQVCGEk9ylShNJ-dJxclanzqkTpmR_9VoFZB1WPq5iwrZUWC-O6Pj2rkcNdd9z1cxtUmTT6mfgyyGT3HTXdh1pnuzgsXhncxUJVvrqozgiAJFfmjAs7RDItTVyAFJU4KQju6LD6fPfKjQGz9fPYUCutvDDRNpjOfhTabqVb4qaGqUENZtaYG9ewRBJpHH5Qs5EBONxu_CnbDIPAU0vBSOnMwjfB-cEBx-SEnXwt23M9opJyHTUsAJa_4kCoI7FDOC5s6jihW-urDUrby443zUg1UoVm40]--></g></svg>