<?xml version="1.0" encoding="UTF-8" standalone="no"?><svg xmlns="http://www.w3.org/2000/svg" xmlns:xlink="http://www.w3.org/1999/xlink" contentStyleType="text/css" height="1203px" preserveAspectRatio="none" style="width:892px;height:1203px;background:#FFFFFF;" version="1.1" viewBox="0 0 892 1203" width="892px" zoomAndPan="magnify"><defs/><g><!--cluster VIS--><g id="cluster_VIS"><rect fill="none" height="1069" rx="2.5" ry="2.5" style="stroke:#181818;stroke-width:1.0;" width="879" x="7" y="128"/><rect fill="none" height="10" style="stroke:#181818;stroke-width:1.0;" width="15" x="866" y="133"/><rect fill="none" height="2" style="stroke:#181818;stroke-width:1.0;" width="4" x="864" y="135"/><rect fill="none" height="2" style="stroke:#181818;stroke-width:1.0;" width="4" x="864" y="139"/><text fill="#000000" font-family="sans-serif" font-size="20" font-style="italic" lengthAdjust="spacing" textLength="138" x="377.5" y="159.5645">«component»</text><text fill="#000000" font-family="sans-serif" font-size="20" font-style="italic" lengthAdjust="spacing" textLength="168" x="362.5" y="182.8457">«container (C4)»</text><text fill="#000000" font-family="sans-serif" font-size="20" font-weight="bold" lengthAdjust="spacing" textLength="147" x="373" y="206.127">Visualization</text></g><!--cluster Frameworks & Drivers Layer--><g id="cluster_Frameworks &amp; Drivers Layer"><path d="M33.5,231 L359.5,231 A3.75,3.75 0 0 1 362,233.5 L369,260.2813 L664.5,260.2813 A2.5,2.5 0 0 1 667,262.7813 L667,363.5 A2.5,2.5 0 0 1 664.5,366 L33.5,366 A2.5,2.5 0 0 1 31,363.5 L31,233.5 A2.5,2.5 0 0 1 33.5,231 " fill="#80FFFF" style="stroke:#000000;stroke-width:1.5;"/><line style="stroke:#000000;stroke-width:1.5;" x1="31" x2="369" y1="260.2813" y2="260.2813"/><text fill="#000000" font-family="sans-serif" font-size="20" font-weight="bold" lengthAdjust="spacing" textLength="325" x="35" y="251.5645">Frameworks &amp; Drivers Layer</text></g><!--cluster Interface Adapters Layer--><g id="cluster_Interface Adapters Layer"><path d="M367.5,500 L653.5,500 A3.75,3.75 0 0 1 656,502.5 L663,529.2813 L663.5,529.2813 A2.5,2.5 0 0 1 666,531.7813 L666,632.5 A2.5,2.5 0 0 1 663.5,635 L367.5,635 A2.5,2.5 0 0 1 365,632.5 L365,502.5 A2.5,2.5 0 0 1 367.5,500 " fill="#80FF80" style="stroke:#000000;stroke-width:1.5;"/><line style="stroke:#000000;stroke-width:1.5;" x1="365" x2="663" y1="529.2813" y2="529.2813"/><text fill="#000000" font-family="sans-serif" font-size="20" font-weight="bold" lengthAdjust="spacing" textLength="285" x="369" y="520.5645">Interface Adapters Layer</text></g><!--cluster Application Business Rules--><g id="cluster_Application Business Rules"><path d="M171.5,769 L476.5,769 A3.75,3.75 0 0 1 479,771.5 L486,798.2813 L486.5,798.2813 A2.5,2.5 0 0 1 489,800.7813 L489,901.5 A2.5,2.5 0 0 1 486.5,904 L171.5,904 A2.5,2.5 0 0 1 169,901.5 L169,771.5 A2.5,2.5 0 0 1 171.5,769 " fill="#FF8080" style="stroke:#000000;stroke-width:1.5;"/><line style="stroke:#000000;stroke-width:1.5;" x1="169" x2="486" y1="798.2813" y2="798.2813"/><text fill="#000000" font-family="sans-serif" font-size="20" font-weight="bold" lengthAdjust="spacing" textLength="304" x="173" y="789.5645">Application Business Rules</text></g><!--cluster Enterprise Business Rules--><g id="cluster_Enterprise Business Rules"><path d="M176.5,1038 L472.5,1038 A3.75,3.75 0 0 1 475,1040.5 L482,1067.2813 L482.5,1067.2813 A2.5,2.5 0 0 1 485,1069.7813 L485,1170.5 A2.5,2.5 0 0 1 482.5,1173 L176.5,1173 A2.5,2.5 0 0 1 174,1170.5 L174,1040.5 A2.5,2.5 0 0 1 176.5,1038 " fill="#FFC080" style="stroke:#000000;stroke-width:1.5;"/><line style="stroke:#000000;stroke-width:1.5;" x1="174" x2="482" y1="1067.2813" y2="1067.2813"/><text fill="#000000" font-family="sans-serif" font-size="20" font-weight="bold" lengthAdjust="spacing" textLength="295" x="178" y="1058.5645">Enterprise Business Rules</text></g><text fill="#000000" font-family="sans-serif" font-size="20" lengthAdjust="spacing" textLength="208" x="89.5" y="105.2832">MD Management API</text><rect fill="#F1F1F1" height="12" style="stroke:#181818;stroke-width:1.5;" width="12" x="187.5" y="122"/><text fill="#000000" font-family="sans-serif" font-size="20" lengthAdjust="spacing" textLength="59" x="319.5" y="105.2832">UI API</text><rect fill="#F1F1F1" height="12" style="stroke:#181818;stroke-width:1.5;" width="12" x="343" y="122"/><text fill="#000000" font-family="sans-serif" font-size="20" lengthAdjust="spacing" textLength="226" x="449.5" y="105.2832">Google Authentication</text><rect fill="#F1F1F1" height="12" style="stroke:#181818;stroke-width:1.5;" width="12" x="556.5" y="122"/><!--entity MODULE_API--><g id="elem_MODULE_API"><ellipse cx="493" cy="446" fill="#F1F1F1" rx="8" ry="8" style="stroke:#181818;stroke-width:0.5;"/><text fill="#000000" font-family="sans-serif" font-size="20" lengthAdjust="spacing" textLength="111" x="437.5" y="481.5645">Module API</text></g><!--entity HTTP_API--><g id="elem_HTTP_API"><ellipse cx="205" cy="446" fill="#F1F1F1" rx="8" ry="8" style="stroke:#181818;stroke-width:0.5;"/><text fill="#000000" font-family="sans-serif" font-size="20" lengthAdjust="spacing" textLength="89" x="160.5" y="481.5645">HTTP API</text></g><!--entity SRV_API--><g id="elem_SRV_API"><ellipse cx="432" cy="715" fill="#F1F1F1" rx="8" ry="8" style="stroke:#181818;stroke-width:0.5;"/><text fill="#000000" font-family="sans-serif" font-size="20" lengthAdjust="spacing" textLength="167" x="348.5" y="750.5645">App Services API</text></g><!--entity MODEL_API--><g id="elem_MODEL_API"><ellipse cx="329" cy="984" fill="#F1F1F1" rx="8" ry="8" style="stroke:#181818;stroke-width:0.5;"/><text fill="#000000" font-family="sans-serif" font-size="20" lengthAdjust="spacing" textLength="98" x="280" y="1019.5645">Model API</text></g><!--entity ROUTE--><g id="elem_ROUTE"><rect fill="#F1F1F1" height="76.5625" rx="2.5" ry="2.5" style="stroke:#181818;stroke-width:0.5;" width="178" x="260" y="273"/><rect fill="#F1F1F1" height="10" style="stroke:#181818;stroke-width:0.5;" width="15" x="418" y="278"/><rect fill="#F1F1F1" height="2" style="stroke:#181818;stroke-width:0.5;" width="4" x="416" y="280"/><rect fill="#F1F1F1" height="2" style="stroke:#181818;stroke-width:0.5;" width="4" x="416" y="284"/><text fill="#000000" font-family="sans-serif" font-size="20" font-style="italic" lengthAdjust="spacing" textLength="138" x="275" y="311.5645">«component»</text><text fill="#000000" font-family="sans-serif" font-size="20" lengthAdjust="spacing" textLength="79" x="304.5" y="334.8457">Routing</text></g><!--entity COMPONENT--><g id="elem_COMPONENT"><rect fill="#F1F1F1" height="76.5625" rx="2.5" ry="2.5" style="stroke:#181818;stroke-width:0.5;" width="178" x="473" y="273"/><rect fill="#F1F1F1" height="10" style="stroke:#181818;stroke-width:0.5;" width="15" x="631" y="278"/><rect fill="#F1F1F1" height="2" style="stroke:#181818;stroke-width:0.5;" width="4" x="629" y="280"/><rect fill="#F1F1F1" height="2" style="stroke:#181818;stroke-width:0.5;" width="4" x="629" y="284"/><text fill="#000000" font-family="sans-serif" font-size="20" font-style="italic" lengthAdjust="spacing" textLength="138" x="488" y="311.5645">«component»</text><text fill="#000000" font-family="sans-serif" font-size="20" lengthAdjust="spacing" textLength="117" x="498.5" y="334.8457">Component</text></g><!--entity HTTP--><g id="elem_HTTP"><rect fill="#F1F1F1" height="76.5625" rx="2.5" ry="2.5" style="stroke:#181818;stroke-width:0.5;" width="178" x="47" y="273"/><rect fill="#F1F1F1" height="10" style="stroke:#181818;stroke-width:0.5;" width="15" x="205" y="278"/><rect fill="#F1F1F1" height="2" style="stroke:#181818;stroke-width:0.5;" width="4" x="203" y="280"/><rect fill="#F1F1F1" height="2" style="stroke:#181818;stroke-width:0.5;" width="4" x="203" y="284"/><text fill="#000000" font-family="sans-serif" font-size="20" font-style="italic" lengthAdjust="spacing" textLength="138" x="62" y="311.5645">«component»</text><text fill="#000000" font-family="sans-serif" font-size="20" lengthAdjust="spacing" textLength="51" x="105.5" y="334.8457">HTTP</text></g><!--entity MODULE--><g id="elem_MODULE"><rect fill="#F1F1F1" height="76.5625" rx="2.5" ry="2.5" style="stroke:#181818;stroke-width:0.5;" width="178" x="383" y="542"/><rect fill="#F1F1F1" height="10" style="stroke:#181818;stroke-width:0.5;" width="15" x="541" y="547"/><rect fill="#F1F1F1" height="2" style="stroke:#181818;stroke-width:0.5;" width="4" x="539" y="549"/><rect fill="#F1F1F1" height="2" style="stroke:#181818;stroke-width:0.5;" width="4" x="539" y="553"/><text fill="#000000" font-family="sans-serif" font-size="20" font-style="italic" lengthAdjust="spacing" textLength="138" x="398" y="580.5645">«component»</text><text fill="#000000" font-family="sans-serif" font-size="20" lengthAdjust="spacing" textLength="73" x="430.5" y="603.8457">Module</text></g><!--entity SRV--><g id="elem_SRV"><rect fill="#F1F1F1" height="76.5625" rx="2.5" ry="2.5" style="stroke:#181818;stroke-width:0.5;" width="233" x="212.5" y="811"/><rect fill="#F1F1F1" height="10" style="stroke:#181818;stroke-width:0.5;" width="15" x="425.5" y="816"/><rect fill="#F1F1F1" height="2" style="stroke:#181818;stroke-width:0.5;" width="4" x="423.5" y="818"/><rect fill="#F1F1F1" height="2" style="stroke:#181818;stroke-width:0.5;" width="4" x="423.5" y="822"/><text fill="#000000" font-family="sans-serif" font-size="20" font-style="italic" lengthAdjust="spacing" textLength="138" x="255" y="849.5645">«component»</text><text fill="#000000" font-family="sans-serif" font-size="20" lengthAdjust="spacing" textLength="193" x="227.5" y="872.8457">Application Service</text></g><!--entity MODEL--><g id="elem_MODEL"><rect fill="#F1F1F1" height="76.5625" rx="2.5" ry="2.5" style="stroke:#181818;stroke-width:0.5;" width="235" x="211.5" y="1080"/><rect fill="#F1F1F1" height="10" style="stroke:#181818;stroke-width:0.5;" width="15" x="426.5" y="1085"/><rect fill="#F1F1F1" height="2" style="stroke:#181818;stroke-width:0.5;" width="4" x="424.5" y="1087"/><rect fill="#F1F1F1" height="2" style="stroke:#181818;stroke-width:0.5;" width="4" x="424.5" y="1091"/><text fill="#000000" font-family="sans-serif" font-size="20" font-style="italic" lengthAdjust="spacing" textLength="138" x="255" y="1118.5645">«component»</text><text fill="#000000" font-family="sans-serif" font-size="20" lengthAdjust="spacing" textLength="195" x="226.5" y="1141.8457">Domain Model DDD</text></g><!--entity API--><g id="elem_API"><ellipse cx="194" cy="14" fill="#F1F1F1" rx="8" ry="8" style="stroke:#181818;stroke-width:0.5;"/><text fill="#000000" font-family="sans-serif" font-size="20" lengthAdjust="spacing" textLength="70" x="159" y="49.5645">MD API</text></g><!--entity GS--><g id="elem_GS"><ellipse cx="564" cy="14" fill="#F1F1F1" rx="8" ry="8" style="stroke:#181818;stroke-width:0.5;"/><text fill="#000000" font-family="sans-serif" font-size="20" lengthAdjust="spacing" textLength="290" x="419" y="49.5645">Google Identity Services SDK</text></g><!--entity UI--><g id="elem_UI"><ellipse cx="349" cy="14" fill="#F1F1F1" rx="8" ry="8" style="stroke:#181818;stroke-width:0.5;"/><text fill="#000000" font-family="sans-serif" font-size="20" lengthAdjust="spacing" textLength="21" x="338.5" y="49.5645">UI</text></g><!--link API to P1--><g id="link_API_P1"><path d="M194,23.05 C194,44.72 194,103.83 194,121.77 " fill="none" id="API-P1" style="stroke:#181818;stroke-width:1.0;"/></g><!--link ROUTE to P2--><g id="link_ROUTE_P2"><path d="M349,272.88 C349,227.35 349,154.29 349,134.24 " fill="none" id="ROUTE-P2" style="stroke:#181818;stroke-width:1.0;"/></g><!--link UI to P2--><g id="link_UI_P2"><path d="M349,23.05 C349,44.72 349,103.83 349,121.77 " fill="none" id="UI-P2" style="stroke:#181818;stroke-width:1.0;"/></g><!--link GS to P3--><g id="link_GS_P3"><path d="M563.93,23.05 C563.73,44.72 563.21,103.83 563.05,121.77 " fill="none" id="GS-P3" style="stroke:#181818;stroke-width:1.0;"/></g><!--link P1 to HTTP--><g id="link_P1_HTTP"><path d="M192.33,134.24 C185.92,154.29 162.57,227.35 148.02,272.88 " fill="none" id="P1-HTTP" style="stroke:#181818;stroke-width:1.0;"/></g><!--link COMPONENT to MODULE_API--><g id="link_COMPONENT_MODULE_API"><path d="M542.41,350.11 C529.11,375.65 512.15,408.22 501.96,427.8 " fill="none" id="COMPONENT-to-MODULE_API" style="stroke:#181818;stroke-width:1.0;"/><path d="M506.2219,437.933 A9,9 0 0 0 491.2258 430.1089" fill="none" style="stroke:#181818;stroke-width:1.5;"/></g><!--link COMPONENT to P3--><g id="link_COMPONENT_P3"><path d="M562.21,272.88 C562.46,227.35 562.86,154.29 562.97,134.24 " fill="none" id="COMPONENT-P3" style="stroke:#181818;stroke-width:1.0;"/></g><!--reverse link HTTP_API to SRV--><g id="link_HTTP_API_SRV"><path d="M210.46,464.68 C229.23,525.46 291.42,726.8 317.41,810.99 " fill="none" id="HTTP_API-backto-SRV" style="stroke:#181818;stroke-width:1.0;"/><path d="M200.3106,460.4605 A9,9 0 0 0 216.4692 455.4608" fill="none" style="stroke:#181818;stroke-width:1.5;"/></g><!--link HTTP to HTTP_API--><g id="link_HTTP_HTTP_API"><path d="M155.59,350.11 C171.21,380.11 191.87,419.79 200.7,436.75 " fill="none" id="HTTP-HTTP_API" style="stroke:#181818;stroke-width:1.0;"/></g><!--link MODULE_API to MODULE--><g id="link_MODULE_API_MODULE"><path d="M491.69,455.29 C488.99,472.29 482.7,512.01 477.94,541.99 " fill="none" id="MODULE_API-MODULE" style="stroke:#181818;stroke-width:1.0;"/></g><!--link MODULE to SRV_API--><g id="link_MODULE_SRV_API"><path d="M460.64,619.11 C453.04,644.3 443.37,676.33 437.44,695.99 " fill="none" id="MODULE-to-SRV_API" style="stroke:#181818;stroke-width:1.0;"/><path d="M443.4765,705.2564 A9,9 0 0 0 427.2887 700.3517" fill="none" style="stroke:#181818;stroke-width:1.5;"/></g><!--reverse link SRV_API to SRV--><g id="link_SRV_API_SRV"><path d="M419.42,732.19 C404.28,751.66 378.37,784.99 358.16,810.99 " fill="none" id="SRV_API-backto-SRV" style="stroke:#181818;stroke-width:1.0;"/><path d="M416.9934,721.5308 A9,9 0 0 0 430.3488 731.9102" fill="none" style="stroke:#181818;stroke-width:1.5;"/></g><!--link SRV to MODEL_API--><g id="link_SRV_MODEL_API"><path d="M329,888.11 C329,913.19 329,945.03 329,964.71 " fill="none" id="SRV-to-MODEL_API" style="stroke:#181818;stroke-width:1.0;"/><path d="M337.4572,971.6718 A9,9 0 0 0 320.5428 971.6718" fill="none" style="stroke:#181818;stroke-width:1.5;"/></g><!--link MODEL_API to MODEL--><g id="link_MODEL_API_MODEL"><path d="M329,993.29 C329,1010.29 329,1050.01 329,1079.99 " fill="none" id="MODEL_API-MODEL" style="stroke:#181818;stroke-width:1.0;"/></g><!--SRC=[ZLDHRvim47xthpWnQMeVaD9i3tseAh50ChIaGI7aTVB0oQm0HiPqQgV-zvqDBXxBglB2SNpVVNUVp-sPrmsLj2f5VcO55En8kr8jHQrI_inWFYD4YGQKW1z2AL51mINB5HSr8RnMJ1vfpi3RX10aiGUqrM_tpqg8KyaWBbYjk7g2bCb7dhCMql2RmQzI5vxrHRAOa5nKZQYH1jw1jnqj-JFLmWPmY5Euktk5tD-RhrfHNZC9LulFrvZwJG0Q8HMlJOSRMjCJgtH5ssnouq2oUCpFdVmmGj2fdtg8VEmY-KGG5pi-YABJqA7CPXjcw-YxjaG3Zw8ii3jlYOQpNqAUM_W8eUIFJBQmfazCUl3XThR4n_GEu7Ym4nrsSp9rTzji7qtcxmalKzh2XeQus6wIxKFqi7yV-Uj-dnYU3lvBUPcOOC36WY0rpDw0lp11quohOB7fxc2WKqjP-Gf1HwErhMVz7D51GHirTVDszg-R_K4vX_JsT5O9sow71O0lNOlBrk9fOAKMjRJI9IsNDCniX77Szwb6Uhv6yfPT4brS50r5XNS1UlV2CBIZHkitD54LhGNVrnUZNp8TpqaM3y4gDG7kVNA3aM_EbunhvVjNxjQxFmpBhWDSOm8D61D-rmpLo70Y9kDU8Pj73RigsaED6pDzgc-ZNnKW_Tosdit-0G00]--></g></svg>