<?xml version="1.0" encoding="UTF-8" standalone="no"?><svg xmlns="http://www.w3.org/2000/svg" xmlns:xlink="http://www.w3.org/1999/xlink" contentStyleType="text/css" height="1203px" preserveAspectRatio="none" style="width:892px;height:1203px;background:#FFFFFF;" version="1.1" viewBox="0 0 892 1203" width="892px" zoomAndPan="magnify"><defs/><g><!--cluster VIS--><g id="cluster_VIS"><rect fill="none" height="1069" rx="2.5" ry="2.5" style="stroke:#181818;stroke-width:1.0;" width="879" x="7" y="128"/><rect fill="none" height="10" style="stroke:#181818;stroke-width:1.0;" width="15" x="866" y="133"/><rect fill="none" height="2" style="stroke:#181818;stroke-width:1.0;" width="4" x="864" y="135"/><rect fill="none" height="2" style="stroke:#181818;stroke-width:1.0;" width="4" x="864" y="139"/><text fill="#000000" font-family="sans-serif" font-size="20" font-style="italic" lengthAdjust="spacing" textLength="138" x="377.5" y="159.5645">«component»</text><text fill="#000000" font-family="sans-serif" font-size="20" font-style="italic" lengthAdjust="spacing" textLength="168" x="362.5" y="182.8457">«container (C4)»</text><text fill="#000000" font-family="sans-serif" font-size="20" font-weight="bold" lengthAdjust="spacing" textLength="147" x="373" y="206.127">Visualization</text></g><!--cluster Frameworks & Drivers Layer--><g id="cluster_Frameworks &amp; Drivers Layer"><path d="M228.5,231 L554.5,231 A3.75,3.75 0 0 1 557,233.5 L564,260.2813 L859.5,260.2813 A2.5,2.5 0 0 1 862,262.7813 L862,363.5 A2.5,2.5 0 0 1 859.5,366 L228.5,366 A2.5,2.5 0 0 1 226,363.5 L226,233.5 A2.5,2.5 0 0 1 228.5,231 " fill="#80FFFF" style="stroke:#000000;stroke-width:1.5;"/><line style="stroke:#000000;stroke-width:1.5;" x1="226" x2="564" y1="260.2813" y2="260.2813"/><text fill="#000000" font-family="sans-serif" font-size="20" font-weight="bold" lengthAdjust="spacing" textLength="325" x="230" y="251.5645">Frameworks &amp; Drivers Layer</text></g><!--cluster Interface Adapters Layer--><g id="cluster_Interface Adapters Layer"><path d="M416.5,500 L702.5,500 A3.75,3.75 0 0 1 705,502.5 L712,529.2813 L712.5,529.2813 A2.5,2.5 0 0 1 715,531.7813 L715,632.5 A2.5,2.5 0 0 1 712.5,635 L416.5,635 A2.5,2.5 0 0 1 414,632.5 L414,502.5 A2.5,2.5 0 0 1 416.5,500 " fill="#80FF80" style="stroke:#000000;stroke-width:1.5;"/><line style="stroke:#000000;stroke-width:1.5;" x1="414" x2="712" y1="529.2813" y2="529.2813"/><text fill="#000000" font-family="sans-serif" font-size="20" font-weight="bold" lengthAdjust="spacing" textLength="285" x="418" y="520.5645">Interface Adapters Layer</text></g><!--cluster Application Business Rules--><g id="cluster_Application Business Rules"><path d="M273.5,769 L578.5,769 A3.75,3.75 0 0 1 581,771.5 L588,798.2813 L588.5,798.2813 A2.5,2.5 0 0 1 591,800.7813 L591,901.5 A2.5,2.5 0 0 1 588.5,904 L273.5,904 A2.5,2.5 0 0 1 271,901.5 L271,771.5 A2.5,2.5 0 0 1 273.5,769 " fill="#FF8080" style="stroke:#000000;stroke-width:1.5;"/><line style="stroke:#000000;stroke-width:1.5;" x1="271" x2="588" y1="798.2813" y2="798.2813"/><text fill="#000000" font-family="sans-serif" font-size="20" font-weight="bold" lengthAdjust="spacing" textLength="304" x="275" y="789.5645">Application Business Rules</text></g><!--cluster Enterprise Business Rules--><g id="cluster_Enterprise Business Rules"><path d="M278.5,1038 L574.5,1038 A3.75,3.75 0 0 1 577,1040.5 L584,1067.2813 L584.5,1067.2813 A2.5,2.5 0 0 1 587,1069.7813 L587,1170.5 A2.5,2.5 0 0 1 584.5,1173 L278.5,1173 A2.5,2.5 0 0 1 276,1170.5 L276,1040.5 A2.5,2.5 0 0 1 278.5,1038 " fill="#FFC080" style="stroke:#000000;stroke-width:1.5;"/><line style="stroke:#000000;stroke-width:1.5;" x1="276" x2="584" y1="1067.2813" y2="1067.2813"/><text fill="#000000" font-family="sans-serif" font-size="20" font-weight="bold" lengthAdjust="spacing" textLength="295" x="280" y="1058.5645">Enterprise Business Rules</text></g><text fill="#000000" font-family="sans-serif" font-size="20" lengthAdjust="spacing" textLength="208" x="226.5" y="105.2832">MD Management API</text><rect fill="#F1F1F1" height="12" style="stroke:#181818;stroke-width:1.5;" width="12" x="324.5" y="122"/><text fill="#000000" font-family="sans-serif" font-size="20" lengthAdjust="spacing" textLength="59" x="436.5" y="105.2832">UI API</text><rect fill="#F1F1F1" height="12" style="stroke:#181818;stroke-width:1.5;" width="12" x="460" y="122"/><!--entity MODULE_API--><g id="elem_MODULE_API"><ellipse cx="528" cy="446" fill="#F1F1F1" rx="8" ry="8" style="stroke:#181818;stroke-width:0.5;"/><text fill="#000000" font-family="sans-serif" font-size="20" lengthAdjust="spacing" textLength="111" x="472.5" y="481.5645">Module API</text></g><!--entity HTTP_API--><g id="elem_HTTP_API"><ellipse cx="347" cy="446" fill="#F1F1F1" rx="8" ry="8" style="stroke:#181818;stroke-width:0.5;"/><text fill="#000000" font-family="sans-serif" font-size="20" lengthAdjust="spacing" textLength="89" x="302.5" y="481.5645">HTTP API</text></g><!--entity SRV_API--><g id="elem_SRV_API"><ellipse cx="508" cy="715" fill="#F1F1F1" rx="8" ry="8" style="stroke:#181818;stroke-width:0.5;"/><text fill="#000000" font-family="sans-serif" font-size="20" lengthAdjust="spacing" textLength="167" x="424.5" y="750.5645">App Services API</text></g><!--entity MODEL_API--><g id="elem_MODEL_API"><ellipse cx="431" cy="984" fill="#F1F1F1" rx="8" ry="8" style="stroke:#181818;stroke-width:0.5;"/><text fill="#000000" font-family="sans-serif" font-size="20" lengthAdjust="spacing" textLength="98" x="382" y="1019.5645">Model API</text></g><!--entity ROUTE--><g id="elem_ROUTE"><rect fill="#F1F1F1" height="76.5625" rx="2.5" ry="2.5" style="stroke:#181818;stroke-width:0.5;" width="178" x="668" y="273"/><rect fill="#F1F1F1" height="10" style="stroke:#181818;stroke-width:0.5;" width="15" x="826" y="278"/><rect fill="#F1F1F1" height="2" style="stroke:#181818;stroke-width:0.5;" width="4" x="824" y="280"/><rect fill="#F1F1F1" height="2" style="stroke:#181818;stroke-width:0.5;" width="4" x="824" y="284"/><text fill="#000000" font-family="sans-serif" font-size="20" font-style="italic" lengthAdjust="spacing" textLength="138" x="683" y="311.5645">«component»</text><text fill="#000000" font-family="sans-serif" font-size="20" lengthAdjust="spacing" textLength="79" x="712.5" y="334.8457">Routing</text></g><!--entity COMPONENT--><g id="elem_COMPONENT"><rect fill="#F1F1F1" height="76.5625" rx="2.5" ry="2.5" style="stroke:#181818;stroke-width:0.5;" width="178" x="455" y="273"/><rect fill="#F1F1F1" height="10" style="stroke:#181818;stroke-width:0.5;" width="15" x="613" y="278"/><rect fill="#F1F1F1" height="2" style="stroke:#181818;stroke-width:0.5;" width="4" x="611" y="280"/><rect fill="#F1F1F1" height="2" style="stroke:#181818;stroke-width:0.5;" width="4" x="611" y="284"/><text fill="#000000" font-family="sans-serif" font-size="20" font-style="italic" lengthAdjust="spacing" textLength="138" x="470" y="311.5645">«component»</text><text fill="#000000" font-family="sans-serif" font-size="20" lengthAdjust="spacing" textLength="117" x="480.5" y="334.8457">Component</text></g><!--entity HTTP--><g id="elem_HTTP"><rect fill="#F1F1F1" height="76.5625" rx="2.5" ry="2.5" style="stroke:#181818;stroke-width:0.5;" width="178" x="242" y="273"/><rect fill="#F1F1F1" height="10" style="stroke:#181818;stroke-width:0.5;" width="15" x="400" y="278"/><rect fill="#F1F1F1" height="2" style="stroke:#181818;stroke-width:0.5;" width="4" x="398" y="280"/><rect fill="#F1F1F1" height="2" style="stroke:#181818;stroke-width:0.5;" width="4" x="398" y="284"/><text fill="#000000" font-family="sans-serif" font-size="20" font-style="italic" lengthAdjust="spacing" textLength="138" x="257" y="311.5645">«component»</text><text fill="#000000" font-family="sans-serif" font-size="20" lengthAdjust="spacing" textLength="51" x="300.5" y="334.8457">HTTP</text></g><!--entity MODULE--><g id="elem_MODULE"><rect fill="#F1F1F1" height="76.5625" rx="2.5" ry="2.5" style="stroke:#181818;stroke-width:0.5;" width="178" x="432" y="542"/><rect fill="#F1F1F1" height="10" style="stroke:#181818;stroke-width:0.5;" width="15" x="590" y="547"/><rect fill="#F1F1F1" height="2" style="stroke:#181818;stroke-width:0.5;" width="4" x="588" y="549"/><rect fill="#F1F1F1" height="2" style="stroke:#181818;stroke-width:0.5;" width="4" x="588" y="553"/><text fill="#000000" font-family="sans-serif" font-size="20" font-style="italic" lengthAdjust="spacing" textLength="138" x="447" y="580.5645">«component»</text><text fill="#000000" font-family="sans-serif" font-size="20" lengthAdjust="spacing" textLength="73" x="479.5" y="603.8457">Module</text></g><!--entity SRV--><g id="elem_SRV"><rect fill="#F1F1F1" height="76.5625" rx="2.5" ry="2.5" style="stroke:#181818;stroke-width:0.5;" width="233" x="314.5" y="811"/><rect fill="#F1F1F1" height="10" style="stroke:#181818;stroke-width:0.5;" width="15" x="527.5" y="816"/><rect fill="#F1F1F1" height="2" style="stroke:#181818;stroke-width:0.5;" width="4" x="525.5" y="818"/><rect fill="#F1F1F1" height="2" style="stroke:#181818;stroke-width:0.5;" width="4" x="525.5" y="822"/><text fill="#000000" font-family="sans-serif" font-size="20" font-style="italic" lengthAdjust="spacing" textLength="138" x="357" y="849.5645">«component»</text><text fill="#000000" font-family="sans-serif" font-size="20" lengthAdjust="spacing" textLength="193" x="329.5" y="872.8457">Application Service</text></g><!--entity MODEL--><g id="elem_MODEL"><rect fill="#F1F1F1" height="76.5625" rx="2.5" ry="2.5" style="stroke:#181818;stroke-width:0.5;" width="235" x="313.5" y="1080"/><rect fill="#F1F1F1" height="10" style="stroke:#181818;stroke-width:0.5;" width="15" x="528.5" y="1085"/><rect fill="#F1F1F1" height="2" style="stroke:#181818;stroke-width:0.5;" width="4" x="526.5" y="1087"/><rect fill="#F1F1F1" height="2" style="stroke:#181818;stroke-width:0.5;" width="4" x="526.5" y="1091"/><text fill="#000000" font-family="sans-serif" font-size="20" font-style="italic" lengthAdjust="spacing" textLength="138" x="357" y="1118.5645">«component»</text><text fill="#000000" font-family="sans-serif" font-size="20" lengthAdjust="spacing" textLength="195" x="328.5" y="1141.8457">Domain Model DDD</text></g><!--entity API--><g id="elem_API"><ellipse cx="331" cy="14" fill="#F1F1F1" rx="8" ry="8" style="stroke:#181818;stroke-width:0.5;"/><text fill="#000000" font-family="sans-serif" font-size="20" lengthAdjust="spacing" textLength="70" x="296" y="49.5645">MD API</text></g><!--entity UI--><g id="elem_UI"><ellipse cx="466" cy="14" fill="#F1F1F1" rx="8" ry="8" style="stroke:#181818;stroke-width:0.5;"/><text fill="#000000" font-family="sans-serif" font-size="20" lengthAdjust="spacing" textLength="21" x="455.5" y="49.5645">UI</text></g><!--link API to P1--><g id="link_API_P1"><path d="M331,23.05 C331,44.72 331,103.83 331,121.77 " fill="none" id="API-P1" style="stroke:#181818;stroke-width:1.0;"/></g><!--link ROUTE to P2--><g id="link_ROUTE_P2"><path d="M720.51,272.63 C701.05,253.77 676,231.53 651,215 C586,172.02 496.09,139.4 472.09,131.07 " fill="none" id="ROUTE-P2" style="stroke:#181818;stroke-width:1.0;"/></g><!--link UI to P2--><g id="link_UI_P2"><path d="M466,23.05 C466,44.72 466,103.83 466,121.77 " fill="none" id="UI-P2" style="stroke:#181818;stroke-width:1.0;"/></g><!--link P1 to HTTP--><g id="link_P1_HTTP"><path d="M331,134.24 C331,154.29 331,227.35 331,272.88 " fill="none" id="P1-HTTP" style="stroke:#181818;stroke-width:1.0;"/></g><!--link COMPONENT to MODULE_API--><g id="link_COMPONENT_MODULE_API"><path d="M539.46,350.11 C536.43,375.19 532.58,407.03 530.21,426.71 " fill="none" id="COMPONENT-to-MODULE_API" style="stroke:#181818;stroke-width:1.0;"/><path d="M537.7655,434.7088 A9,9 0 0 0 520.9732 432.6793" fill="none" style="stroke:#181818;stroke-width:1.5;"/></g><!--reverse link HTTP_API to SRV--><g id="link_HTTP_API_SRV"><path d="M349.31,465.28 C355.5,512.82 373.8,644.03 400,751 C404.9,771.01 411.73,792.91 417.72,810.87 " fill="none" id="HTTP_API-backto-SRV" style="stroke:#181818;stroke-width:1.0;"/><path d="M340.003,459.1989 A9,9 0 0 0 356.7801 457.0474" fill="none" style="stroke:#181818;stroke-width:1.5;"/></g><!--link HTTP to HTTP_API--><g id="link_HTTP_HTTP_API"><path d="M335.54,350.11 C339.16,380.11 343.96,419.79 346,436.75 " fill="none" id="HTTP-HTTP_API" style="stroke:#181818;stroke-width:1.0;"/></g><!--link MODULE_API to MODULE--><g id="link_MODULE_API_MODULE"><path d="M527.56,455.29 C526.66,472.29 524.57,512.01 522.98,541.99 " fill="none" id="MODULE_API-MODULE" style="stroke:#181818;stroke-width:1.0;"/></g><!--link MODULE to SRV_API--><g id="link_MODULE_SRV_API"><path d="M517.31,619.11 C514.85,644.19 511.73,676.03 509.79,695.71 " fill="none" id="MODULE-to-SRV_API" style="stroke:#181818;stroke-width:1.0;"/><path d="M517.5262,703.5076 A9,9 0 0 0 500.6916 701.8652" fill="none" style="stroke:#181818;stroke-width:1.5;"/></g><!--reverse link SRV_API to SRV--><g id="link_SRV_API_SRV"><path d="M498.13,732.98 C486.75,752.56 467.7,785.34 452.8,810.99 " fill="none" id="SRV_API-backto-SRV" style="stroke:#181818;stroke-width:1.0;"/><path d="M494.32,722.7085 A9,9 0 0 0 508.9505 731.1966" fill="none" style="stroke:#181818;stroke-width:1.5;"/></g><!--link SRV to MODEL_API--><g id="link_SRV_MODEL_API"><path d="M431,888.11 C431,913.19 431,945.03 431,964.71 " fill="none" id="SRV-to-MODEL_API" style="stroke:#181818;stroke-width:1.0;"/><path d="M439.4572,971.6718 A9,9 0 0 0 422.5428 971.6718" fill="none" style="stroke:#181818;stroke-width:1.5;"/></g><!--link MODEL_API to MODEL--><g id="link_MODEL_API_MODEL"><path d="M431,993.29 C431,1010.29 431,1050.01 431,1079.99 " fill="none" id="MODEL_API-MODEL" style="stroke:#181818;stroke-width:1.0;"/></g><!--SRC=[ZLB1QkCm4BthAmONblPWICCUUYY5REnGGzAO9CwrQ6sbYDYIaUGkswN_lYCfYbrljZINZ4VlpPjvC_h8HKiLRMfP7ba55JlGhZOBASoMlp6OJWWniWKZuQSqHZPGSSLAmwKWX0l3r86M3A9L0hCyYu1g-pzyANoso0WfPTDAmOI1QCzrHsl-Hcqb1zXdMxY_FqCU7joNC9GBfk1w_lq6Kty8G2kLuS99hgYWBwon5ODwVZk055cVdn9yo0OTowghsVbzjKwAPVficxV0Wwmhb8qMQ0tx9TLHmpT857zbIiEI_cOgWgkxoG9_hYc0mN0RsQ7yYwkxMHUxT3IO9xoFQVCGEk9ylShNJ-dJxclanzqkTpmR_9VoFZB1WPq5iwrZUWC-O6Pj2rkcNdd9z1cxtUmTT6mfgyyGT3HTXdh1pnuzgsXhncxUJVvrqozgiAJFfmjAs7RDItTVyAFJU4KQju6LD6fPfKjQGz9fPYUCutvDDRNpjOfhTabqVb4qaGqUENZtaYG9ewRBJpHH5Qs5EBONxu_CnbDIPAU0vBSOnMwjfB-cEBx-SEnXwt23M9opJyHTUsAJa_4kCoI7FDOC5s6jihW-urDUrby443zUg1UoVm40]--></g></svg>