<?xml version="1.0" encoding="UTF-8" standalone="no"?><svg xmlns="http://www.w3.org/2000/svg" xmlns:xlink="http://www.w3.org/1999/xlink" contentStyleType="text/css" height="601px" preserveAspectRatio="none" style="width:1275px;height:601px;background:#FFFFFF;" version="1.1" viewBox="0 0 1275 601" width="1275px" zoomAndPan="magnify"><defs/><g><rect fill="#DDDDDD" height="589.5" style="stroke:#181818;stroke-width:0.5;" width="456" x="806.5" y="6"/><text fill="#000000" font-family="sans-serif" font-size="20" font-weight="bold" lengthAdjust="spacing" textLength="162" x="953.5" y="24.5645">«system (C4)»</text><text fill="#000000" font-family="sans-serif" font-size="20" font-weight="bold" lengthAdjust="spacing" textLength="142" x="963.5" y="47.8457">RobDroneGo</text><rect fill="#FFFFFF" height="371.0938" style="stroke:#181818;stroke-width:1.0;" width="10" x="105.5" y="128.125"/><rect fill="#FFFFFF" height="37.2813" style="stroke:#181818;stroke-width:1.0;" width="10" x="896.5" y="157.4063"/><rect fill="#FFFFFF" height="252.25" style="stroke:#181818;stroke-width:1.0;" width="10" x="896.5" y="231.9688"/><rect fill="#FFFFFF" height="77.8438" style="stroke:#181818;stroke-width:1.0;" width="10" x="1161.5" y="269.25"/><rect fill="#FFFFFF" height="62.5625" style="stroke:#181818;stroke-width:1.0;" width="10" x="1161.5" y="384.375"/><rect fill="none" height="207.9688" style="stroke:#000000;stroke-width:1.5;" width="1258.5" x="10" y="284.25"/><line style="stroke:#181818;stroke-width:0.5;stroke-dasharray:5.0,5.0;" x1="110" x2="110" y1="118.125" y2="509.2188"/><line style="stroke:#181818;stroke-width:0.5;stroke-dasharray:5.0,5.0;" x1="901.5" x2="901.5" y1="118.125" y2="509.2188"/><line style="stroke:#181818;stroke-width:0.5;stroke-dasharray:5.0,5.0;" x1="1166.5" x2="1166.5" y1="118.125" y2="509.2188"/><text fill="#000000" font-family="sans-serif" font-size="20" lengthAdjust="spacing" textLength="175" x="20" y="113.4082">Campus Manager</text><ellipse cx="110.5" cy="43.3438" fill="#E2E2F0" rx="8" ry="8" style="stroke:#181818;stroke-width:0.5;"/><path d="M110.5,51.3438 L110.5,78.3438 M97.5,59.3438 L123.5,59.3438 M110.5,78.3438 L97.5,93.3438 M110.5,78.3438 L123.5,93.3438 " fill="none" style="stroke:#181818;stroke-width:0.5;"/><text fill="#000000" font-family="sans-serif" font-size="20" lengthAdjust="spacing" textLength="175" x="20" y="526.7832">Campus Manager</text><ellipse cx="110.5" cy="540" fill="#E2E2F0" rx="8" ry="8" style="stroke:#181818;stroke-width:0.5;"/><path d="M110.5,548 L110.5,575 M97.5,556 L123.5,556 M110.5,575 L97.5,590 M110.5,575 L123.5,590 " fill="none" style="stroke:#181818;stroke-width:0.5;"/><rect fill="#E2E2F0" height="60.5625" rx="2.5" ry="2.5" style="stroke:#181818;stroke-width:0.5;" width="182" x="810.5" y="56.5625"/><text fill="#000000" font-family="sans-serif" font-size="20" font-style="italic" lengthAdjust="spacing" textLength="168" x="817.5" y="82.127">«container (C4)»</text><text fill="#000000" font-family="sans-serif" font-size="20" lengthAdjust="spacing" textLength="129" x="837" y="105.4082">Visualization</text><rect fill="#E2E2F0" height="60.5625" rx="2.5" ry="2.5" style="stroke:#181818;stroke-width:0.5;" width="182" x="810.5" y="508.2188"/><text fill="#000000" font-family="sans-serif" font-size="20" font-style="italic" lengthAdjust="spacing" textLength="168" x="817.5" y="533.7832">«container (C4)»</text><text fill="#000000" font-family="sans-serif" font-size="20" lengthAdjust="spacing" textLength="129" x="837" y="557.0645">Visualization</text><rect fill="#E2E2F0" height="60.5625" rx="2.5" ry="2.5" style="stroke:#181818;stroke-width:0.5;" width="184" x="1074.5" y="56.5625"/><text fill="#000000" font-family="sans-serif" font-size="20" font-style="italic" lengthAdjust="spacing" textLength="168" x="1082.5" y="82.127">«container (C4)»</text><text fill="#000000" font-family="sans-serif" font-size="20" lengthAdjust="spacing" textLength="170" x="1081.5" y="105.4082">MD Management</text><rect fill="#E2E2F0" height="60.5625" rx="2.5" ry="2.5" style="stroke:#181818;stroke-width:0.5;" width="184" x="1074.5" y="508.2188"/><text fill="#000000" font-family="sans-serif" font-size="20" font-style="italic" lengthAdjust="spacing" textLength="168" x="1082.5" y="533.7832">«container (C4)»</text><text fill="#000000" font-family="sans-serif" font-size="20" lengthAdjust="spacing" textLength="170" x="1081.5" y="557.0645">MD Management</text><rect fill="#FFFFFF" height="371.0938" style="stroke:#181818;stroke-width:1.0;" width="10" x="105.5" y="128.125"/><rect fill="#FFFFFF" height="37.2813" style="stroke:#181818;stroke-width:1.0;" width="10" x="896.5" y="157.4063"/><rect fill="#FFFFFF" height="252.25" style="stroke:#181818;stroke-width:1.0;" width="10" x="896.5" y="231.9688"/><rect fill="#FFFFFF" height="77.8438" style="stroke:#181818;stroke-width:1.0;" width="10" x="1161.5" y="269.25"/><rect fill="#FFFFFF" height="62.5625" style="stroke:#181818;stroke-width:1.0;" width="10" x="1161.5" y="384.375"/><polygon fill="#181818" points="884.5,153.4063,894.5,157.4063,884.5,161.4063,888.5,157.4063" style="stroke:#181818;stroke-width:1.0;"/><line style="stroke:#181818;stroke-width:1.0;" x1="115.5" x2="890.5" y1="157.4063" y2="157.4063"/><text fill="#000000" font-family="sans-serif" font-size="20" font-weight="bold" lengthAdjust="spacing" textLength="14" x="122.5" y="150.6895">1</text><text fill="#000000" font-family="sans-serif" font-size="20" lengthAdjust="spacing" textLength="371" x="140.5" y="150.6895">wants to add a new robot to the fleet</text><polygon fill="#181818" points="126.5,190.6875,116.5,194.6875,126.5,198.6875,122.5,194.6875" style="stroke:#181818;stroke-width:1.0;"/><line style="stroke:#181818;stroke-width:1.0;stroke-dasharray:2.0,2.0;" x1="120.5" x2="900.5" y1="194.6875" y2="194.6875"/><text fill="#000000" font-family="sans-serif" font-size="20" font-weight="bold" lengthAdjust="spacing" textLength="14" x="132.5" y="187.9707">2</text><text fill="#000000" font-family="sans-serif" font-size="20" lengthAdjust="spacing" textLength="739" x="150.5" y="187.9707">asks for the the code, nickname, model code, serial number &amp; description</text><polygon fill="#181818" points="884.5,227.9688,894.5,231.9688,884.5,235.9688,888.5,231.9688" style="stroke:#181818;stroke-width:1.0;"/><line style="stroke:#181818;stroke-width:1.0;" x1="115.5" x2="890.5" y1="231.9688" y2="231.9688"/><text fill="#000000" font-family="sans-serif" font-size="20" font-weight="bold" lengthAdjust="spacing" textLength="14" x="122.5" y="225.252">3</text><text fill="#000000" font-family="sans-serif" font-size="20" lengthAdjust="spacing" textLength="157" x="140.5" y="225.252">inserts the data</text><polygon fill="#181818" points="1149.5,265.25,1159.5,269.25,1149.5,273.25,1153.5,269.25" style="stroke:#181818;stroke-width:1.0;"/><line style="stroke:#181818;stroke-width:1.0;" x1="906.5" x2="1155.5" y1="269.25" y2="269.25"/><text fill="#000000" font-family="sans-serif" font-size="20" font-weight="bold" lengthAdjust="spacing" textLength="14" x="913.5" y="262.5332">4</text><text fill="#000000" font-family="sans-serif" font-size="20" lengthAdjust="spacing" textLength="218" x="931.5" y="262.5332">POST /devices {data}</text><path d="M10,284.25 L86,284.25 L86,299.5313 L76,309.5313 L10,309.5313 L10,284.25 " fill="#EEEEEE" style="stroke:#000000;stroke-width:1.5;"/><rect fill="none" height="207.9688" style="stroke:#000000;stroke-width:1.5;" width="1258.5" x="10" y="284.25"/><text fill="#000000" font-family="sans-serif" font-size="20" font-weight="bold" lengthAdjust="spacing" textLength="31" x="25" y="303.8145">alt</text><text fill="#000000" font-family="sans-serif" font-size="20" font-weight="bold" lengthAdjust="spacing" textLength="275" x="101" y="304.8145">[a new robot is created]</text><polygon fill="#181818" points="917.5,343.0938,907.5,347.0938,917.5,351.0938,913.5,347.0938" style="stroke:#181818;stroke-width:1.0;"/><line style="stroke:#181818;stroke-width:1.0;stroke-dasharray:2.0,2.0;" x1="911.5" x2="1165.5" y1="347.0938" y2="347.0938"/><text fill="#000000" font-family="sans-serif" font-size="20" font-weight="bold" lengthAdjust="spacing" textLength="14" x="923.5" y="340.377">5</text><text fill="#000000" font-family="sans-serif" font-size="20" lengthAdjust="spacing" textLength="124" x="941.5" y="340.377">201 Created</text><polygon fill="#181818" points="126.5,380.375,116.5,384.375,126.5,388.375,122.5,384.375" style="stroke:#181818;stroke-width:1.0;"/><line style="stroke:#181818;stroke-width:1.0;stroke-dasharray:2.0,2.0;" x1="120.5" x2="895.5" y1="384.375" y2="384.375"/><text fill="#000000" font-family="sans-serif" font-size="20" font-weight="bold" lengthAdjust="spacing" textLength="14" x="132.5" y="377.6582">6</text><text fill="#000000" font-family="sans-serif" font-size="20" lengthAdjust="spacing" textLength="364" x="150.5" y="377.6582">informs the success of the operation</text><line style="stroke:#000000;stroke-width:1.0;stroke-dasharray:2.0,2.0;" x1="10" x2="1268.5" y1="393.375" y2="393.375"/><text fill="#000000" font-family="sans-serif" font-size="20" font-weight="bold" lengthAdjust="spacing" textLength="788" x="15" y="411.9395">[there is a robot with the specified code, nickname or serial number]</text><polygon fill="#181818" points="917.5,442.9375,907.5,446.9375,917.5,450.9375,913.5,446.9375" style="stroke:#181818;stroke-width:1.0;"/><line style="stroke:#181818;stroke-width:1.0;stroke-dasharray:2.0,2.0;" x1="911.5" x2="1165.5" y1="446.9375" y2="446.9375"/><text fill="#000000" font-family="sans-serif" font-size="20" font-weight="bold" lengthAdjust="spacing" textLength="14" x="923.5" y="440.2207">7</text><text fill="#000000" font-family="sans-serif" font-size="20" lengthAdjust="spacing" textLength="172" x="941.5" y="440.2207">400 Bad Request</text><polygon fill="#181818" points="126.5,480.2188,116.5,484.2188,126.5,488.2188,122.5,484.2188" style="stroke:#181818;stroke-width:1.0;"/><line style="stroke:#181818;stroke-width:1.0;stroke-dasharray:2.0,2.0;" x1="120.5" x2="900.5" y1="484.2188" y2="484.2188"/><text fill="#000000" font-family="sans-serif" font-size="20" font-weight="bold" lengthAdjust="spacing" textLength="14" x="132.5" y="477.502">8</text><text fill="#000000" font-family="sans-serif" font-size="20" lengthAdjust="spacing" textLength="707" x="150.5" y="477.502">shows error message "A device with the specified data already exists."</text><!--SRC=[XL9DRnCn4BtxLupsW40Y4AgUgYXIcmZKGmJg1oSk4tlIZB9hBnvlanRnY_W9tFhB67jRaeLAFUokxNtptfitbWtx5YCsTR0RSk1eXLsTFWQVBlcUu6Xii4l1TysIef4dDCnxt1NjqcdDDxuXdoOJgs-Aqodq2sFGfX1XjW0Kg6ROj9t00ZtUKAoCMOOTL0-_v4uIDV1wTlpcuVStVn6MynWyVGeLx2aDW2edjjoYJt1zNYY_idHOypqc3hx0rJYofrZe_YjRp4kPVdeNsVQpPUGTgBtI0TzY8ct266raDCtQ9x1LEe4K09q314zRY64PKZvAQu9LJPJsrTVdfNeo6lNbA1k1bMQJiVcnmT5Ry6mt7XjTDRgl7q-58cCD_H3WbGv9REGszsmS_Qlnv92zrcMFokumuT2CGXIeGPp0by-NL_3UqIrR4lYHiJ_tuCLSGwZJe4SMi97qhzDybIctLQYEnXzWzlVFWRVC0d2O07jjl-djIMTLMY2ioZQq5Cj43TLIuecKDV5HVijftTUrP7d5Uc-7yO46EmXDjG-j34qVZyTmXWukw7j7abuoBkkm5Q0OLQHHrtgDe3g5Fh_dlEL00MkDnTq1xLYIlAk6AZeHlN7cS9fwt_u0]--></g></svg>