<?xml version="1.0" encoding="UTF-8" standalone="no"?><svg xmlns="http://www.w3.org/2000/svg" xmlns:xlink="http://www.w3.org/1999/xlink" contentStyleType="text/css" height="664px" preserveAspectRatio="none" style="width:1179px;height:664px;background:#FFFFFF;" version="1.1" viewBox="0 0 1179 664" width="1179px" zoomAndPan="magnify"><defs/><g><rect fill="#DDDDDD" height="652.8396" style="stroke:#181818;stroke-width:0.5;" width="413.125" x="753.625" y="6"/><text fill="#000000" font-family="sans-serif" font-size="20" font-weight="bold" lengthAdjust="spacing" textLength="135.5" x="892.4375" y="27.38">«system (C4)»</text><text fill="#000000" font-family="sans-serif" font-size="20" font-weight="bold" lengthAdjust="spacing" textLength="127.25" x="896.5625" y="54.62">RobDroneGo</text><rect fill="#FFFFFF" height="414.6397" style="stroke:#181818;stroke-width:1.0;" width="10" x="100.5" y="143.9599"/><rect fill="#FFFFFF" height="41.24" style="stroke:#181818;stroke-width:1.0;" width="10" x="832.125" y="177.1999"/><rect fill="#FFFFFF" height="283.9198" style="stroke:#181818;stroke-width:1.0;" width="10" x="832.125" y="259.6798"/><rect fill="#FFFFFF" height="89.7199" style="stroke:#181818;stroke-width:1.0;" width="10" x="1069.75" y="300.9198"/><rect fill="#FFFFFF" height="70.4799" style="stroke:#181818;stroke-width:1.0;" width="10" x="1069.75" y="431.8797"/><rect fill="none" height="235.6798" style="stroke:#000000;stroke-width:1.5;" width="1162.75" x="10" y="315.9198"/><line style="stroke:#181818;stroke-width:0.5;stroke-dasharray:5.0,5.0;" x1="105" x2="105" y1="133.9599" y2="568.5996"/><line style="stroke:#181818;stroke-width:0.5;stroke-dasharray:5.0,5.0;" x1="836.625" x2="836.625" y1="133.9599" y2="568.5996"/><line style="stroke:#181818;stroke-width:0.5;stroke-dasharray:5.0,5.0;" x1="1074.75" x2="1074.75" y1="133.9599" y2="568.5996"/><text fill="#000000" font-family="sans-serif" font-size="20" lengthAdjust="spacing" textLength="165" x="20" y="128.0999">Campus Manager</text><ellipse cx="105.5" cy="55.2199" fill="#E2E2F0" rx="8" ry="8" style="stroke:#181818;stroke-width:0.5;"/><path d="M105.5,63.2199 L105.5,90.2199 M92.5,71.2199 L118.5,71.2199 M105.5,90.2199 L92.5,105.2199 M105.5,90.2199 L118.5,105.2199 " fill="none" style="stroke:#181818;stroke-width:0.5;"/><text fill="#000000" font-family="sans-serif" font-size="20" lengthAdjust="spacing" textLength="165" x="20" y="588.9796">Campus Manager</text><ellipse cx="105.5" cy="603.3396" fill="#E2E2F0" rx="8" ry="8" style="stroke:#181818;stroke-width:0.5;"/><path d="M105.5,611.3396 L105.5,638.3396 M92.5,619.3396 L118.5,619.3396 M105.5,638.3396 L92.5,653.3396 M105.5,638.3396 L118.5,653.3396 " fill="none" style="stroke:#181818;stroke-width:0.5;"/><rect fill="#E2E2F0" height="68.4799" rx="2.5" ry="2.5" style="stroke:#181818;stroke-width:0.5;" width="159" x="757.625" y="64.4799"/><text fill="#000000" font-family="sans-serif" font-size="20" font-style="italic" lengthAdjust="spacing" textLength="145" x="764.625" y="92.8599">«container (C4)»</text><text fill="#000000" font-family="sans-serif" font-size="20" lengthAdjust="spacing" textLength="116" x="779.125" y="120.0999">Visualization</text><rect fill="#E2E2F0" height="68.4799" rx="2.5" ry="2.5" style="stroke:#181818;stroke-width:0.5;" width="159" x="757.625" y="567.5996"/><text fill="#000000" font-family="sans-serif" font-size="20" font-style="italic" lengthAdjust="spacing" textLength="145" x="764.625" y="595.9796">«container (C4)»</text><text fill="#000000" font-family="sans-serif" font-size="20" lengthAdjust="spacing" textLength="116" x="779.125" y="623.2196">Visualization</text><rect fill="#E2E2F0" height="68.4799" rx="2.5" ry="2.5" style="stroke:#181818;stroke-width:0.5;" width="176" x="986.75" y="64.4799"/><text fill="#000000" font-family="sans-serif" font-size="20" font-style="italic" lengthAdjust="spacing" textLength="145" x="1002.25" y="92.8599">«container (C4)»</text><text fill="#000000" font-family="sans-serif" font-size="20" lengthAdjust="spacing" textLength="162" x="993.75" y="120.0999">MD Management</text><rect fill="#E2E2F0" height="68.4799" rx="2.5" ry="2.5" style="stroke:#181818;stroke-width:0.5;" width="176" x="986.75" y="567.5996"/><text fill="#000000" font-family="sans-serif" font-size="20" font-style="italic" lengthAdjust="spacing" textLength="145" x="1002.25" y="595.9796">«container (C4)»</text><text fill="#000000" font-family="sans-serif" font-size="20" lengthAdjust="spacing" textLength="162" x="993.75" y="623.2196">MD Management</text><rect fill="#FFFFFF" height="414.6397" style="stroke:#181818;stroke-width:1.0;" width="10" x="100.5" y="143.9599"/><rect fill="#FFFFFF" height="41.24" style="stroke:#181818;stroke-width:1.0;" width="10" x="832.125" y="177.1999"/><rect fill="#FFFFFF" height="283.9198" style="stroke:#181818;stroke-width:1.0;" width="10" x="832.125" y="259.6798"/><rect fill="#FFFFFF" height="89.7199" style="stroke:#181818;stroke-width:1.0;" width="10" x="1069.75" y="300.9198"/><rect fill="#FFFFFF" height="70.4799" style="stroke:#181818;stroke-width:1.0;" width="10" x="1069.75" y="431.8797"/><polygon fill="#181818" points="820.125,173.1999,830.125,177.1999,820.125,181.1999,824.125,177.1999" style="stroke:#181818;stroke-width:1.0;"/><line style="stroke:#181818;stroke-width:1.0;" x1="110.5" x2="826.125" y1="177.1999" y2="177.1999"/><text fill="#000000" font-family="sans-serif" font-size="20" font-weight="bold" lengthAdjust="spacing" textLength="11.625" x="117.5" y="169.3399">1</text><text fill="#000000" font-family="sans-serif" font-size="20" lengthAdjust="spacing" textLength="341" x="133.125" y="169.3399">wants to add a new robot to the fleet</text><polygon fill="#181818" points="121.5,214.4398,111.5,218.4398,121.5,222.4398,117.5,218.4398" style="stroke:#181818;stroke-width:1.0;"/><line style="stroke:#181818;stroke-width:1.0;stroke-dasharray:2.0,2.0;" x1="115.5" x2="836.125" y1="218.4398" y2="218.4398"/><text fill="#000000" font-family="sans-serif" font-size="20" font-weight="bold" lengthAdjust="spacing" textLength="11.625" x="127.5" y="210.5799">2</text><text fill="#000000" font-family="sans-serif" font-size="20" lengthAdjust="spacing" textLength="682" x="143.125" y="210.5799">asks for the the code, nickname, model code, serial number &amp; description</text><polygon fill="#181818" points="820.125,255.6798,830.125,259.6798,820.125,263.6798,824.125,259.6798" style="stroke:#181818;stroke-width:1.0;"/><line style="stroke:#181818;stroke-width:1.0;" x1="110.5" x2="826.125" y1="259.6798" y2="259.6798"/><text fill="#000000" font-family="sans-serif" font-size="20" font-weight="bold" lengthAdjust="spacing" textLength="11.625" x="117.5" y="251.8198">3</text><text fill="#000000" font-family="sans-serif" font-size="20" lengthAdjust="spacing" textLength="144" x="133.125" y="251.8198">inserts the data</text><polygon fill="#181818" points="1057.75,296.9198,1067.75,300.9198,1057.75,304.9198,1061.75,300.9198" style="stroke:#181818;stroke-width:1.0;"/><line style="stroke:#181818;stroke-width:1.0;" x1="842.125" x2="1063.75" y1="300.9198" y2="300.9198"/><text fill="#000000" font-family="sans-serif" font-size="20" font-weight="bold" lengthAdjust="spacing" textLength="11.625" x="849.125" y="293.0598">4</text><text fill="#000000" font-family="sans-serif" font-size="20" lengthAdjust="spacing" textLength="193" x="864.75" y="293.0598">POST /devices {data}</text><path d="M10,315.9198 L79.875,315.9198 L79.875,335.1598 L69.875,345.1598 L10,345.1598 L10,315.9198 " fill="#EEEEEE" style="stroke:#000000;stroke-width:1.5;"/><rect fill="none" height="235.6798" style="stroke:#000000;stroke-width:1.5;" width="1162.75" x="10" y="315.9198"/><text fill="#000000" font-family="sans-serif" font-size="20" font-weight="bold" lengthAdjust="spacing" textLength="24.875" x="25" y="338.2998">alt</text><text fill="#000000" font-family="sans-serif" font-size="20" font-weight="bold" lengthAdjust="spacing" textLength="232.5" x="94.875" y="339.2998">[a new robot is created]</text><polygon fill="#181818" points="853.125,386.6397,843.125,390.6397,853.125,394.6397,849.125,390.6397" style="stroke:#181818;stroke-width:1.0;"/><line style="stroke:#181818;stroke-width:1.0;stroke-dasharray:2.0,2.0;" x1="847.125" x2="1073.75" y1="390.6397" y2="390.6397"/><text fill="#000000" font-family="sans-serif" font-size="20" font-weight="bold" lengthAdjust="spacing" textLength="11.625" x="859.125" y="382.7797">5</text><text fill="#000000" font-family="sans-serif" font-size="20" lengthAdjust="spacing" textLength="111" x="874.75" y="382.7797">201 Created</text><polygon fill="#181818" points="121.5,427.8797,111.5,431.8797,121.5,435.8797,117.5,431.8797" style="stroke:#181818;stroke-width:1.0;"/><line style="stroke:#181818;stroke-width:1.0;stroke-dasharray:2.0,2.0;" x1="115.5" x2="831.125" y1="431.8797" y2="431.8797"/><text fill="#000000" font-family="sans-serif" font-size="20" font-weight="bold" lengthAdjust="spacing" textLength="11.625" x="127.5" y="424.0197">6</text><text fill="#000000" font-family="sans-serif" font-size="20" lengthAdjust="spacing" textLength="340" x="143.125" y="424.0197">informs the success of the operation</text><line style="stroke:#000000;stroke-width:1.0;stroke-dasharray:2.0,2.0;" x1="10" x2="1172.75" y1="440.8797" y2="440.8797"/><text fill="#000000" font-family="sans-serif" font-size="20" font-weight="bold" lengthAdjust="spacing" textLength="669.25" x="15" y="462.2597">[there is a robot with the specified code, nickname or serial number]</text><polygon fill="#181818" points="853.125,498.3596,843.125,502.3596,853.125,506.3596,849.125,502.3596" style="stroke:#181818;stroke-width:1.0;"/><line style="stroke:#181818;stroke-width:1.0;stroke-dasharray:2.0,2.0;" x1="847.125" x2="1073.75" y1="502.3596" y2="502.3596"/><text fill="#000000" font-family="sans-serif" font-size="20" font-weight="bold" lengthAdjust="spacing" textLength="11.625" x="859.125" y="494.4997">7</text><text fill="#000000" font-family="sans-serif" font-size="20" lengthAdjust="spacing" textLength="154" x="874.75" y="494.4997">400 Bad Request</text><polygon fill="#181818" points="121.5,539.5996,111.5,543.5996,121.5,547.5996,117.5,543.5996" style="stroke:#181818;stroke-width:1.0;"/><line style="stroke:#181818;stroke-width:1.0;stroke-dasharray:2.0,2.0;" x1="115.5" x2="836.125" y1="543.5996" y2="543.5996"/><text fill="#000000" font-family="sans-serif" font-size="20" font-weight="bold" lengthAdjust="spacing" textLength="11.625" x="127.5" y="535.7396">8</text><text fill="#000000" font-family="sans-serif" font-size="20" lengthAdjust="spacing" textLength="650" x="143.125" y="535.7396">shows error message "A device with the specified data already exists."</text><!--SRC=[XL9DRnCn4BtxLupsW40Y4AgUgYXIcmZKGmJg1oSk4tlIZB9hBnvlanRnY_W9tFhB67jRaeLAFUokxNtptfitbWtx5YCsTR0RSk1eXLsTFWQVBlcUu6Xii4l1TysIef4dDCnxt1NjqcdDDxuXdoOJgs-Aqodq2sFGfX1XjW0Kg6ROj9t00ZtUKAoCMOOTL0-_v4uIDV1wTlpcuVStVn6MynWyVGeLx2aDW2edjjoYJt1zNYY_idHOypqc3hx0rJYofrZe_YjRp4kPVdeNsVQpPUGTgBtI0TzY8ct266raDCtQ9x1LEe4K09q314zRY64PKZvAQu9LJPJsrTVdfNeo6lNbA1k1bMQJiVcnmT5Ry6mt7XjTDRgl7q-58cCD_H3WbGv9REGszsmS_Qlnv92zrcMFokumuT2CGXIeGPp0by-NL_3UqIrR4lYHiJ_tuCLSGwZJe4SMi97qhzDybIctLQYEnXzWzlVFWRVC0d2O07jjl-djIMTLMY2ioZQq5Cj43TLIuecKDV5HVijftTUrP7d5Uc-7yO46EmXDjG-j34qVZyTmXWukw7j7abuoBkkm5Q0OLQHHrtgDe3g5Fh_dlEL00MkDnTq1xLYIlAk6AZeHlN7cS9fwt_u0]--></g></svg>