<?xml version="1.0" encoding="UTF-8" standalone="no"?><svg xmlns="http://www.w3.org/2000/svg" xmlns:xlink="http://www.w3.org/1999/xlink" contentStyleType="text/css" height="576px" preserveAspectRatio="none" style="width:1477px;height:576px;background:#FFFFFF;" version="1.1" viewBox="0 0 1477 576" width="1477px" zoomAndPan="magnify"><defs/><g><!--cluster RobDroneGo System--><g id="cluster_RobDroneGo System"><rect fill="none" height="450.96" rx="2.5" ry="2.5" style="stroke:#181818;stroke-width:1.0;" width="1299" x="7" y="120"/><rect fill="none" height="10" style="stroke:#181818;stroke-width:1.0;" width="15" x="1286" y="125"/><rect fill="none" height="2" style="stroke:#181818;stroke-width:1.0;" width="4" x="1284" y="127"/><rect fill="none" height="2" style="stroke:#181818;stroke-width:1.0;" width="4" x="1284" y="131"/><text fill="#000000" font-family="sans-serif" font-size="20" font-style="italic" lengthAdjust="spacing" textLength="122" x="595.5" y="154.38">«component»</text><text fill="#000000" font-family="sans-serif" font-size="20" font-style="italic" lengthAdjust="spacing" textLength="122" x="595.5" y="181.62">«system (C4)»</text><text fill="#000000" font-family="sans-serif" font-size="20" font-weight="bold" lengthAdjust="spacing" textLength="204" x="554.5" y="208.8599">RobDroneGo System</text></g><text fill="#000000" font-family="sans-serif" font-size="20" lengthAdjust="spacing" textLength="5" x="1020.5" y="96.14"> </text><rect fill="#F1F1F1" height="12" style="stroke:#181818;stroke-width:1.5;" width="12" x="1017" y="114"/><text fill="#000000" font-family="sans-serif" font-size="20" lengthAdjust="spacing" textLength="5" x="1303.5" y="397.86"> </text><rect fill="#F1F1F1" height="12" style="stroke:#181818;stroke-width:1.5;" width="12" x="1300" y="364.48"/><!--entity API--><g id="elem_API"><ellipse cx="526" cy="370.48" fill="#F1F1F1" rx="8" ry="8" style="stroke:#181818;stroke-width:0.5;"/><text fill="#000000" font-family="sans-serif" font-size="20" lengthAdjust="spacing" textLength="162" x="445" y="408.86">API-Management</text></g><!--entity PAPI--><g id="elem_PAPI"><ellipse cx="335" cy="370.48" fill="#F1F1F1" rx="8" ry="8" style="stroke:#181818;stroke-width:0.5;"/><text fill="#000000" font-family="sans-serif" font-size="20" lengthAdjust="spacing" textLength="119" x="275.5" y="408.86">API-Planning</text></g><!--entity TAPI--><g id="elem_TAPI"><ellipse cx="179" cy="370.48" fill="#F1F1F1" rx="8" ry="8" style="stroke:#181818;stroke-width:0.5;"/><text fill="#000000" font-family="sans-serif" font-size="20" lengthAdjust="spacing" textLength="91" x="133.5" y="408.86">API-Tasks</text></g><!--entity V--><g id="elem_V"><rect fill="#F1F1F1" height="84.4799" rx="2.5" ry="2.5" style="stroke:#181818;stroke-width:0.5;" width="312" x="717" y="186"/><rect fill="#F1F1F1" height="10" style="stroke:#181818;stroke-width:0.5;" width="15" x="1009" y="191"/><rect fill="#F1F1F1" height="2" style="stroke:#181818;stroke-width:0.5;" width="4" x="1007" y="193"/><rect fill="#F1F1F1" height="2" style="stroke:#181818;stroke-width:0.5;" width="4" x="1007" y="197"/><text fill="#000000" font-family="sans-serif" font-size="20" font-style="italic" lengthAdjust="spacing" textLength="272" x="732" y="227.38">«component» «container (C4)»</text><text fill="#000000" font-family="sans-serif" font-size="20" lengthAdjust="spacing" textLength="116" x="810" y="254.62">Visualization</text></g><!--entity MDM--><g id="elem_MDM"><rect fill="#F1F1F1" height="84.4799" rx="2.5" ry="2.5" style="stroke:#181818;stroke-width:0.5;" width="312" x="179" y="470.48"/><rect fill="#F1F1F1" height="10" style="stroke:#181818;stroke-width:0.5;" width="15" x="471" y="475.48"/><rect fill="#F1F1F1" height="2" style="stroke:#181818;stroke-width:0.5;" width="4" x="469" y="477.48"/><rect fill="#F1F1F1" height="2" style="stroke:#181818;stroke-width:0.5;" width="4" x="469" y="481.48"/><text fill="#000000" font-family="sans-serif" font-size="20" font-style="italic" lengthAdjust="spacing" textLength="272" x="194" y="511.86">«component» «container (C4)»</text><text fill="#000000" font-family="sans-serif" font-size="20" lengthAdjust="spacing" textLength="162" x="249" y="539.1">MD Management</text></g><!--entity P--><g id="elem_P"><rect fill="#F1F1F1" height="84.4799" rx="2.5" ry="2.5" style="stroke:#181818;stroke-width:0.5;" width="312" x="370" y="186"/><rect fill="#F1F1F1" height="10" style="stroke:#181818;stroke-width:0.5;" width="15" x="662" y="191"/><rect fill="#F1F1F1" height="2" style="stroke:#181818;stroke-width:0.5;" width="4" x="660" y="193"/><rect fill="#F1F1F1" height="2" style="stroke:#181818;stroke-width:0.5;" width="4" x="660" y="197"/><text fill="#000000" font-family="sans-serif" font-size="20" font-style="italic" lengthAdjust="spacing" textLength="272" x="385" y="227.38">«component» «container (C4)»</text><text fill="#000000" font-family="sans-serif" font-size="20" lengthAdjust="spacing" textLength="81" x="480.5" y="254.62">Planning</text></g><!--entity MDT--><g id="elem_MDT"><rect fill="#F1F1F1" height="84.4799" rx="2.5" ry="2.5" style="stroke:#181818;stroke-width:0.5;" width="312" x="23" y="186"/><rect fill="#F1F1F1" height="10" style="stroke:#181818;stroke-width:0.5;" width="15" x="315" y="191"/><rect fill="#F1F1F1" height="2" style="stroke:#181818;stroke-width:0.5;" width="4" x="313" y="193"/><rect fill="#F1F1F1" height="2" style="stroke:#181818;stroke-width:0.5;" width="4" x="313" y="197"/><text fill="#000000" font-family="sans-serif" font-size="20" font-style="italic" lengthAdjust="spacing" textLength="272" x="38" y="227.38">«component» «container (C4)»</text><text fill="#000000" font-family="sans-serif" font-size="20" lengthAdjust="spacing" textLength="91" x="128.5" y="254.62">MD Tasks</text></g><!--entity AUI--><g id="elem_AUI"><ellipse cx="606" cy="14" fill="#F1F1F1" rx="8" ry="8" style="stroke:#181818;stroke-width:0.5;"/><text fill="#000000" font-family="sans-serif" font-size="20" lengthAdjust="spacing" textLength="88" x="562" y="52.38">Admin UI</text></g><!--entity CUI--><g id="elem_CUI"><ellipse cx="797" cy="14" fill="#F1F1F1" rx="8" ry="8" style="stroke:#181818;stroke-width:0.5;"/><text fill="#000000" font-family="sans-serif" font-size="20" lengthAdjust="spacing" textLength="192" x="701" y="52.38">Campus Manager UI</text></g><!--entity FUI--><g id="elem_FUI"><ellipse cx="1023" cy="14" fill="#F1F1F1" rx="8" ry="8" style="stroke:#181818;stroke-width:0.5;"/><text fill="#000000" font-family="sans-serif" font-size="20" lengthAdjust="spacing" textLength="159" x="943.5" y="52.38">Fleet Manager UI</text></g><!--entity TUI--><g id="elem_TUI"><ellipse cx="1232" cy="14" fill="#F1F1F1" rx="8" ry="8" style="stroke:#181818;stroke-width:0.5;"/><text fill="#000000" font-family="sans-serif" font-size="20" lengthAdjust="spacing" textLength="158" x="1153" y="52.38">Task Manager UI</text></g><!--entity UUI--><g id="elem_UUI"><ellipse cx="1397" cy="14" fill="#F1F1F1" rx="8" ry="8" style="stroke:#181818;stroke-width:0.5;"/><text fill="#000000" font-family="sans-serif" font-size="20" lengthAdjust="spacing" textLength="71" x="1361.5" y="52.38">User UI</text></g><!--entity FS--><g id="elem_FS"><ellipse cx="1403" cy="512.72" fill="#F1F1F1" rx="8" ry="8" style="stroke:#181818;stroke-width:0.5;"/><text fill="#000000" font-family="sans-serif" font-size="20" lengthAdjust="spacing" textLength="135" x="1335.5" y="551.1">Filesystem API</text></g><!--link V to P1--><g id="link_V_P1"><path d="M931.75,185.63 C964.62,162.35 1001.86,135.97 1016.55,125.57 " fill="none" id="V-P1" style="stroke:#181818;stroke-width:1.0;"/></g><!--link V to P2--><g id="link_V_P2"><path d="M1029.29,266.4 C1149.53,295.03 1295.37,329.86 1296,330.48 C1305.17,339.5 1306.32,355.7 1306.25,364.1 " fill="none" id="V-P2" style="stroke:#181818;stroke-width:1.0;"/></g><!--link API to MDM--><g id="link_API_MDM"><path d="M517.04,378.06 C494.92,394.3 436.22,437.4 391.41,470.3 " fill="none" id="API-MDM" style="stroke:#181818;stroke-width:1.0;"/></g><!--link V to API--><g id="link_V_API"><path d="M767.17,270.94 C721.51,289.05 667.55,310.63 619,330.48 C593.25,341.01 563.63,353.5 544.87,361.45 " fill="none" id="V-to-API" style="stroke:#181818;stroke-width:1.0;"/><path d="M542.1035,372.237 A9,9 0 0 0 535.4814 356.6727" fill="none" style="stroke:#181818;stroke-width:1.5;"/></g><!--link P to API--><g id="link_P_API"><path d="M526,270.94 C526,297.41 526,330.4 526,350.7 " fill="none" id="P-to-API" style="stroke:#181818;stroke-width:1.0;"/><path d="M534.4572,357.4418 A9,9 0 0 0 517.5428 357.4418" fill="none" style="stroke:#181818;stroke-width:1.5;"/></g><!--link P to PAPI--><g id="link_P_PAPI"><path d="M469.21,270.94 C424.35,303.88 365.76,346.9 343.81,363.01 " fill="none" id="P-PAPI" style="stroke:#181818;stroke-width:1.0;"/></g><!--reverse link PAPI to MDM--><g id="link_PAPI_MDM"><path d="M335,390.25 C335,410.57 335,443.61 335,470.11 " fill="none" id="PAPI-backto-MDM" style="stroke:#181818;stroke-width:1.0;"/><path d="M326.5428,383.4982 A9,9 0 0 0 343.4572 383.4982" fill="none" style="stroke:#181818;stroke-width:1.5;"/></g><!--link MDT to TAPI--><g id="link_MDT_TAPI"><path d="M179,270.94 C179,302.91 179,344.37 179,361.52 " fill="none" id="MDT-TAPI" style="stroke:#181818;stroke-width:1.0;"/></g><!--reverse link TAPI to MDM--><g id="link_TAPI_MDM"><path d="M195.89,386.67 C217.95,406.49 257.43,441.99 288.71,470.11 " fill="none" id="TAPI-backto-MDM" style="stroke:#181818;stroke-width:1.0;"/><path d="M185.4684,388.7686 A9,9 0 0 0 196.7715 376.1854" fill="none" style="stroke:#181818;stroke-width:1.5;"/></g><!--link MDT to PAPI--><g id="link_MDT_PAPI"><path d="M225.38,270.94 C256.64,299.04 296.06,334.47 318.09,354.28 " fill="none" id="MDT-to-PAPI" style="stroke:#181818;stroke-width:1.0;"/><path d="M328.5116,352.1714 A9,9 0 0 0 317.2085 364.7546" fill="none" style="stroke:#181818;stroke-width:1.5;"/></g><!--link AUI to P1--><g id="link_AUI_P1"><path d="M614.62,21.02 C627.41,29.67 652.45,45.49 676,54 C808,101.7 981.51,116.07 1016.64,118.58 " fill="none" id="AUI-P1" style="stroke:#181818;stroke-width:1.0;"/></g><!--link CUI to P1--><g id="link_CUI_P1"><path d="M805.86,19.08 C842.91,36.13 984.98,101.51 1016.7,116.1 " fill="none" id="CUI-P1" style="stroke:#181818;stroke-width:1.0;"/></g><!--link FUI to P1--><g id="link_FUI_P1"><path d="M1023,22.82 C1023,43.04 1023,96.66 1023,113.72 " fill="none" id="FUI-P1" style="stroke:#181818;stroke-width:1.0;"/></g><!--link TUI to P1--><g id="link_TUI_P1"><path d="M1223.02,19.47 C1187.7,37.04 1058.86,101.16 1029.14,115.94 " fill="none" id="TUI-P1" style="stroke:#181818;stroke-width:1.0;"/></g><!--link UUI to P1--><g id="link_UUI_P1"><path d="M1388.24,22.22 C1377.05,31.06 1356.76,45.87 1337,54 C1219.62,102.29 1062.25,116.12 1029.23,118.57 " fill="none" id="UUI-P1" style="stroke:#181818;stroke-width:1.0;"/></g><!--link P2 to FS--><g id="link_P2_FS"><path d="M1309.68,376.81 C1323.05,396.13 1369.35,463.06 1391.29,494.79 " fill="none" id="P2-to-FS" style="stroke:#181818;stroke-width:1.0;"/><path d="M1402.682,495.4057 A9,9 0 0 0 1388.7742 505.0323" fill="none" style="stroke:#181818;stroke-width:1.5;"/></g><!--SRC=[dLF1YeCm5BpdAnwUkWTXL_PO2aMnU132DlR-rgObL1CnyR1Tzjyt6ckDtSDI49oy6IUPzuo-2DbWYtMboWi_mf6ViAjCggJPYok7w9KG8GrlJrXo2BR7MaWeiW1GmxR8vboCTTDfo57YcRStKUoBqefpizIaleQXlYmbp9SK-auLYnr4nVMNDho6BHtzzuIKgcwKvD90yA4-azRYdOBz80nWlPxupSQkHeDL_FvYrzy4e56jiT4361pfsrXIdPbg4R75RDOiceKkHcrzNSjezgYX5KefvDcv_2dfMw9T8nnldrcYWz0TLkAAHYWvo0uFaKexKXJIzcsMweVuHda2YnFdIVwSbP_gwUFSa-S9-w-BzI472CD-JkuTaJv8s3NXC8E-k1eGzP1h_qswkYrPJp6VOdTgr15x8SPDumcb4s8JAYP4e-5p-uF-0W00]--></g></svg>