<?xml version="1.0" encoding="UTF-8" standalone="no"?><svg xmlns="http://www.w3.org/2000/svg" xmlns:xlink="http://www.w3.org/1999/xlink" contentStyleType="text/css" height="550px" preserveAspectRatio="none" style="width:1145px;height:550px;background:#FFFFFF;" version="1.1" viewBox="0 0 1145 550" width="1145px" zoomAndPan="magnify"><defs/><g><!--cluster RobDroneGo System--><g id="cluster_RobDroneGo System"><rect fill="none" height="428" rx="2.5" ry="2.5" style="stroke:#181818;stroke-width:1.0;" width="1009" x="7" y="116"/><rect fill="none" height="10" style="stroke:#181818;stroke-width:1.0;" width="15" x="996" y="121"/><rect fill="none" height="2" style="stroke:#181818;stroke-width:1.0;" width="4" x="994" y="123"/><rect fill="none" height="2" style="stroke:#181818;stroke-width:1.0;" width="4" x="994" y="127"/><text fill="#000000" font-family="sans-serif" font-size="20" font-style="italic" lengthAdjust="spacing" textLength="138" x="442.5" y="147.5645">«component»</text><text fill="#000000" font-family="sans-serif" font-size="20" font-style="italic" lengthAdjust="spacing" textLength="145" x="439" y="170.8457">«system (C4)»</text><text fill="#000000" font-family="sans-serif" font-size="20" font-weight="bold" lengthAdjust="spacing" textLength="233" x="395" y="194.127">RobDroneGo System</text></g><text fill="#000000" font-family="sans-serif" font-size="20" lengthAdjust="spacing" textLength="6" x="710" y="93.2832"> </text><rect fill="#F1F1F1" height="12" style="stroke:#181818;stroke-width:1.5;" width="12" x="707" y="110"/><!--entity API--><g id="elem_API"><ellipse cx="386" cy="355" fill="#F1F1F1" rx="8" ry="8" style="stroke:#181818;stroke-width:0.5;"/><text fill="#000000" font-family="sans-serif" font-size="20" lengthAdjust="spacing" textLength="171" x="300.5" y="390.5645">API-Management</text></g><!--entity PAPI--><g id="elem_PAPI"><ellipse cx="187" cy="355" fill="#F1F1F1" rx="8" ry="8" style="stroke:#181818;stroke-width:0.5;"/><text fill="#000000" font-family="sans-serif" font-size="20" lengthAdjust="spacing" textLength="127" x="123.5" y="390.5645">API-Planning</text></g><!--entity V--><g id="elem_V"><rect fill="#F1F1F1" height="76.5625" rx="2.5" ry="2.5" style="stroke:#181818;stroke-width:0.5;" width="329" x="386.5" y="182"/><rect fill="#F1F1F1" height="10" style="stroke:#181818;stroke-width:0.5;" width="15" x="695.5" y="187"/><rect fill="#F1F1F1" height="2" style="stroke:#181818;stroke-width:0.5;" width="4" x="693.5" y="189"/><rect fill="#F1F1F1" height="2" style="stroke:#181818;stroke-width:0.5;" width="4" x="693.5" y="193"/><text fill="#000000" font-family="sans-serif" font-size="20" font-style="italic" lengthAdjust="spacing" textLength="289" x="401.5" y="220.5645">«component» «system (C4)»</text><text fill="#000000" font-family="sans-serif" font-size="20" lengthAdjust="spacing" textLength="129" x="481.5" y="243.8457">Visualization</text></g><!--entity MDM--><g id="elem_MDM"><rect fill="#F1F1F1" height="76.5625" rx="2.5" ry="2.5" style="stroke:#181818;stroke-width:0.5;" width="329" x="121.5" y="451"/><rect fill="#F1F1F1" height="10" style="stroke:#181818;stroke-width:0.5;" width="15" x="430.5" y="456"/><rect fill="#F1F1F1" height="2" style="stroke:#181818;stroke-width:0.5;" width="4" x="428.5" y="458"/><rect fill="#F1F1F1" height="2" style="stroke:#181818;stroke-width:0.5;" width="4" x="428.5" y="462"/><text fill="#000000" font-family="sans-serif" font-size="20" font-style="italic" lengthAdjust="spacing" textLength="289" x="136.5" y="489.5645">«component» «system (C4)»</text><text fill="#000000" font-family="sans-serif" font-size="20" lengthAdjust="spacing" textLength="170" x="196" y="512.8457">MD Management</text></g><!--entity P--><g id="elem_P"><rect fill="#F1F1F1" height="76.5625" rx="2.5" ry="2.5" style="stroke:#181818;stroke-width:0.5;" width="329" x="22.5" y="182"/><rect fill="#F1F1F1" height="10" style="stroke:#181818;stroke-width:0.5;" width="15" x="331.5" y="187"/><rect fill="#F1F1F1" height="2" style="stroke:#181818;stroke-width:0.5;" width="4" x="329.5" y="189"/><rect fill="#F1F1F1" height="2" style="stroke:#181818;stroke-width:0.5;" width="4" x="329.5" y="193"/><text fill="#000000" font-family="sans-serif" font-size="20" font-style="italic" lengthAdjust="spacing" textLength="289" x="37.5" y="220.5645">«component» «system (C4)»</text><text fill="#000000" font-family="sans-serif" font-size="20" lengthAdjust="spacing" textLength="88" x="138" y="243.8457">Planning</text></g><!--entity AUI--><g id="elem_AUI"><ellipse cx="278" cy="14" fill="#F1F1F1" rx="8" ry="8" style="stroke:#181818;stroke-width:0.5;"/><text fill="#000000" font-family="sans-serif" font-size="20" lengthAdjust="spacing" textLength="93" x="231.5" y="49.5645">Admin UI</text></g><!--entity CUI--><g id="elem_CUI"><ellipse cx="476" cy="14" fill="#F1F1F1" rx="8" ry="8" style="stroke:#181818;stroke-width:0.5;"/><text fill="#000000" font-family="sans-serif" font-size="20" lengthAdjust="spacing" textLength="202" x="375" y="49.5645">Campus Manager UI</text></g><!--entity FUI--><g id="elem_FUI"><ellipse cx="713" cy="14" fill="#F1F1F1" rx="8" ry="8" style="stroke:#181818;stroke-width:0.5;"/><text fill="#000000" font-family="sans-serif" font-size="20" lengthAdjust="spacing" textLength="170" x="628" y="49.5645">Fleet Manager UI</text></g><!--entity TUI--><g id="elem_TUI"><ellipse cx="932" cy="14" fill="#F1F1F1" rx="8" ry="8" style="stroke:#181818;stroke-width:0.5;"/><text fill="#000000" font-family="sans-serif" font-size="20" lengthAdjust="spacing" textLength="166" x="849" y="49.5645">Task Manager UI</text></g><!--entity UUI--><g id="elem_UUI"><ellipse cx="1102" cy="14" fill="#F1F1F1" rx="8" ry="8" style="stroke:#181818;stroke-width:0.5;"/><text fill="#000000" font-family="sans-serif" font-size="20" lengthAdjust="spacing" textLength="72" x="1066" y="49.5645">User UI</text></g><!--link V to P1--><g id="link_V_P1"><path d="M610.45,181.88 C647.49,158.45 691.01,130.91 706.85,120.89 " fill="none" id="V-P1" style="stroke:#181818;stroke-width:1.0;"/></g><!--link API to MDM--><g id="link_API_MDM"><path d="M379.74,364.29 C366.92,381.29 336.94,421.01 314.31,450.99 " fill="none" id="API-MDM" style="stroke:#181818;stroke-width:1.0;"/></g><!--link V to API--><g id="link_V_API"><path d="M504.16,259.11 C470.37,286.25 426.69,321.33 403.04,340.32 " fill="none" id="V-to-API" style="stroke:#181818;stroke-width:1.0;"/><path d="M402.7183,351.4222 A9,9 0 0 0 392.1196 338.2402" fill="none" style="stroke:#181818;stroke-width:1.5;"/></g><!--link P to API--><g id="link_P_API"><path d="M243.49,259.11 C285.64,287.18 340.53,323.72 368.28,342.2 " fill="none" id="P-to-API" style="stroke:#181818;stroke-width:1.0;"/><path d="M379.0231,339.194 A9,9 0 0 0 369.6518 353.2751" fill="none" style="stroke:#181818;stroke-width:1.5;"/></g><!--link P to PAPI--><g id="link_P_PAPI"><path d="M187,259.11 C187,289.11 187,328.79 187,345.75 " fill="none" id="P-PAPI" style="stroke:#181818;stroke-width:1.0;"/></g><!--reverse link PAPI to MDM--><g id="link_PAPI_MDM"><path d="M199.29,372.45 C213.87,391.96 238.64,425.11 257.97,450.99 " fill="none" id="PAPI-backto-MDM" style="stroke:#181818;stroke-width:1.0;"/><path d="M188.2561,371.817 A9,9 0 0 0 201.8079 361.6954" fill="none" style="stroke:#181818;stroke-width:1.5;"/></g><!--link AUI to P1--><g id="link_AUI_P1"><path d="M287.43,20.63 C300.86,28.41 326.48,42.34 350,50 C490.02,95.6 671.45,111.73 706.86,114.54 " fill="none" id="AUI-P1" style="stroke:#181818;stroke-width:1.0;"/></g><!--link CUI to P1--><g id="link_CUI_P1"><path d="M485,18.8 C523.56,35.07 674.29,98.67 706.8,112.38 " fill="none" id="CUI-P1" style="stroke:#181818;stroke-width:1.0;"/></g><!--link FUI to P1--><g id="link_FUI_P1"><path d="M713,23.18 C713,42.96 713,92.95 713,109.55 " fill="none" id="FUI-P1" style="stroke:#181818;stroke-width:1.0;"/></g><!--link TUI to P1--><g id="link_TUI_P1"><path d="M922.87,19.17 C886.12,35.95 749.53,98.32 719.05,112.24 " fill="none" id="TUI-P1" style="stroke:#181818;stroke-width:1.0;"/></g><!--link UUI to P1--><g id="link_UUI_P1"><path d="M1092.96,21.45 C1081.44,29.37 1060.67,42.64 1041,50 C916.5,96.62 752.28,111.85 719.02,114.54 " fill="none" id="UUI-P1" style="stroke:#181818;stroke-width:1.0;"/></g><!--SRC=[dP91QuGm48Nl-HM39tiGsjBZih2uM3m8qbNlKyqkGJCH4m_Tql_UQBhMsCjIyF1cvkFbpQ1k1VKueEnKtV866dx6iJE98dCILmxFZum9CdmuOyqXE3HI49Hf0AZXKARhMOoo7pLaI7ZXmmsAVIZfE3TR9l6P0dMxHGeVAVNlgBGZLYlPA-9a87XJxyV1wbS5fmzjk0nWjrlc-xsjzDo7C7vviFKd0-ZLOEnc0SoM-HEplNIrTvv6Bf6q7cxxFFtBv1qI2Reu5uVORvMk4dh4JbpH24KpLjqHxulvBjaHDd6oO_OF7p_lNGRMWbKGHTEHfaUZiO_cOqpDS5QvfzmTRcZeIcP_dX-JU579eef5bOlw1W00]--></g></svg>