<?xml version="1.0" encoding="UTF-8" standalone="no"?><svg xmlns="http://www.w3.org/2000/svg" xmlns:xlink="http://www.w3.org/1999/xlink" contentStyleType="text/css" height="550px" preserveAspectRatio="none" style="width:2314px;height:550px;background:#FFFFFF;" version="1.1" viewBox="0 0 2314 550" width="2314px" zoomAndPan="magnify"><defs/><g><!--cluster RobDroneGo System--><g id="cluster_RobDroneGo System"><rect fill="none" height="428" rx="2.5" ry="2.5" style="stroke:#181818;stroke-width:1.0;" width="1542" x="7" y="116"/><rect fill="none" height="10" style="stroke:#181818;stroke-width:1.0;" width="15" x="1529" y="121"/><rect fill="none" height="2" style="stroke:#181818;stroke-width:1.0;" width="4" x="1527" y="123"/><rect fill="none" height="2" style="stroke:#181818;stroke-width:1.0;" width="4" x="1527" y="127"/><text fill="#000000" font-family="sans-serif" font-size="20" font-style="italic" lengthAdjust="spacing" textLength="138" x="709" y="147.5645">«component»</text><text fill="#000000" font-family="sans-serif" font-size="20" font-style="italic" lengthAdjust="spacing" textLength="145" x="705.5" y="170.8457">«system (C4)»</text><text fill="#000000" font-family="sans-serif" font-size="20" font-weight="bold" lengthAdjust="spacing" textLength="233" x="661.5" y="194.127">RobDroneGo System</text></g><text fill="#000000" font-family="sans-serif" font-size="20" lengthAdjust="spacing" textLength="6" x="1137" y="93.2832"> </text><rect fill="#F1F1F1" height="12" style="stroke:#181818;stroke-width:1.5;" width="12" x="1134" y="110"/><text fill="#000000" font-family="sans-serif" font-size="20" lengthAdjust="spacing" textLength="6" x="1499" y="379.5645"> </text><rect fill="#F1F1F1" height="12" style="stroke:#181818;stroke-width:1.5;" width="12" x="1496" y="349"/><text fill="#000000" font-family="sans-serif" font-size="20" lengthAdjust="spacing" textLength="6" x="1452" y="379.5645"> </text><rect fill="#F1F1F1" height="12" style="stroke:#181818;stroke-width:1.5;" width="12" x="1449" y="349"/><text fill="#000000" font-family="sans-serif" font-size="20" lengthAdjust="spacing" textLength="6" x="1546" y="379.5645"> </text><rect fill="#F1F1F1" height="12" style="stroke:#181818;stroke-width:1.5;" width="12" x="1543" y="349"/><!--entity API--><g id="elem_API"><ellipse cx="685" cy="355" fill="#F1F1F1" rx="8" ry="8" style="stroke:#181818;stroke-width:0.5;"/><text fill="#000000" font-family="sans-serif" font-size="20" lengthAdjust="spacing" textLength="171" x="599.5" y="390.5645">API-Management</text></g><!--entity PAPI--><g id="elem_PAPI"><ellipse cx="486" cy="355" fill="#F1F1F1" rx="8" ry="8" style="stroke:#181818;stroke-width:0.5;"/><text fill="#000000" font-family="sans-serif" font-size="20" lengthAdjust="spacing" textLength="127" x="422.5" y="390.5645">API-Planning</text></g><!--entity TAPI--><g id="elem_TAPI"><ellipse cx="262" cy="355" fill="#F1F1F1" rx="8" ry="8" style="stroke:#181818;stroke-width:0.5;"/><text fill="#000000" font-family="sans-serif" font-size="20" lengthAdjust="spacing" textLength="95" x="214.5" y="390.5645">API-Tasks</text></g><!--entity V--><g id="elem_V"><rect fill="#F1F1F1" height="76.5625" rx="2.5" ry="2.5" style="stroke:#181818;stroke-width:0.5;" width="352" x="797" y="182"/><rect fill="#F1F1F1" height="10" style="stroke:#181818;stroke-width:0.5;" width="15" x="1129" y="187"/><rect fill="#F1F1F1" height="2" style="stroke:#181818;stroke-width:0.5;" width="4" x="1127" y="189"/><rect fill="#F1F1F1" height="2" style="stroke:#181818;stroke-width:0.5;" width="4" x="1127" y="193"/><text fill="#000000" font-family="sans-serif" font-size="20" font-style="italic" lengthAdjust="spacing" textLength="312" x="812" y="220.5645">«component» «container (C4)»</text><text fill="#000000" font-family="sans-serif" font-size="20" lengthAdjust="spacing" textLength="129" x="903.5" y="243.8457">Visualization</text></g><!--entity MDM--><g id="elem_MDM"><rect fill="#F1F1F1" height="76.5625" rx="2.5" ry="2.5" style="stroke:#181818;stroke-width:0.5;" width="352" x="409" y="451"/><rect fill="#F1F1F1" height="10" style="stroke:#181818;stroke-width:0.5;" width="15" x="741" y="456"/><rect fill="#F1F1F1" height="2" style="stroke:#181818;stroke-width:0.5;" width="4" x="739" y="458"/><rect fill="#F1F1F1" height="2" style="stroke:#181818;stroke-width:0.5;" width="4" x="739" y="462"/><text fill="#000000" font-family="sans-serif" font-size="20" font-style="italic" lengthAdjust="spacing" textLength="312" x="424" y="489.5645">«component» «container (C4)»</text><text fill="#000000" font-family="sans-serif" font-size="20" lengthAdjust="spacing" textLength="170" x="495" y="512.8457">MD Management</text></g><!--entity P--><g id="elem_P"><rect fill="#F1F1F1" height="76.5625" rx="2.5" ry="2.5" style="stroke:#181818;stroke-width:0.5;" width="352" x="410" y="182"/><rect fill="#F1F1F1" height="10" style="stroke:#181818;stroke-width:0.5;" width="15" x="742" y="187"/><rect fill="#F1F1F1" height="2" style="stroke:#181818;stroke-width:0.5;" width="4" x="740" y="189"/><rect fill="#F1F1F1" height="2" style="stroke:#181818;stroke-width:0.5;" width="4" x="740" y="193"/><text fill="#000000" font-family="sans-serif" font-size="20" font-style="italic" lengthAdjust="spacing" textLength="312" x="425" y="220.5645">«component» «container (C4)»</text><text fill="#000000" font-family="sans-serif" font-size="20" lengthAdjust="spacing" textLength="88" x="537" y="243.8457">Planning</text></g><!--entity MDT--><g id="elem_MDT"><rect fill="#F1F1F1" height="76.5625" rx="2.5" ry="2.5" style="stroke:#181818;stroke-width:0.5;" width="352" x="23" y="182"/><rect fill="#F1F1F1" height="10" style="stroke:#181818;stroke-width:0.5;" width="15" x="355" y="187"/><rect fill="#F1F1F1" height="2" style="stroke:#181818;stroke-width:0.5;" width="4" x="353" y="189"/><rect fill="#F1F1F1" height="2" style="stroke:#181818;stroke-width:0.5;" width="4" x="353" y="193"/><text fill="#000000" font-family="sans-serif" font-size="20" font-style="italic" lengthAdjust="spacing" textLength="312" x="38" y="220.5645">«component» «container (C4)»</text><text fill="#000000" font-family="sans-serif" font-size="20" lengthAdjust="spacing" textLength="94" x="147" y="243.8457">MD Tasks</text></g><!--entity AUI--><g id="elem_AUI"><ellipse cx="705" cy="14" fill="#F1F1F1" rx="8" ry="8" style="stroke:#181818;stroke-width:0.5;"/><text fill="#000000" font-family="sans-serif" font-size="20" lengthAdjust="spacing" textLength="93" x="658.5" y="49.5645">Admin UI</text></g><!--entity CUI--><g id="elem_CUI"><ellipse cx="903" cy="14" fill="#F1F1F1" rx="8" ry="8" style="stroke:#181818;stroke-width:0.5;"/><text fill="#000000" font-family="sans-serif" font-size="20" lengthAdjust="spacing" textLength="202" x="802" y="49.5645">Campus Manager UI</text></g><!--entity FUI--><g id="elem_FUI"><ellipse cx="1140" cy="14" fill="#F1F1F1" rx="8" ry="8" style="stroke:#181818;stroke-width:0.5;"/><text fill="#000000" font-family="sans-serif" font-size="20" lengthAdjust="spacing" textLength="170" x="1055" y="49.5645">Fleet Manager UI</text></g><!--entity TUI--><g id="elem_TUI"><ellipse cx="1359" cy="14" fill="#F1F1F1" rx="8" ry="8" style="stroke:#181818;stroke-width:0.5;"/><text fill="#000000" font-family="sans-serif" font-size="20" lengthAdjust="spacing" textLength="166" x="1276" y="49.5645">Task Manager UI</text></g><!--entity UUI--><g id="elem_UUI"><ellipse cx="1529" cy="14" fill="#F1F1F1" rx="8" ry="8" style="stroke:#181818;stroke-width:0.5;"/><text fill="#000000" font-family="sans-serif" font-size="20" lengthAdjust="spacing" textLength="72" x="1493" y="49.5645">User UI</text></g><!--entity FS--><g id="elem_FS"><ellipse cx="1894" cy="489.5" fill="#F1F1F1" rx="8" ry="8" style="stroke:#181818;stroke-width:0.5;"/><text fill="#000000" font-family="sans-serif" font-size="20" lengthAdjust="spacing" textLength="145" x="1821.5" y="525.0645">Filesystem API</text></g><!--entity GA--><g id="elem_GA"><ellipse cx="1675" cy="489.5" fill="#F1F1F1" rx="8" ry="8" style="stroke:#181818;stroke-width:0.5;"/><text fill="#000000" font-family="sans-serif" font-size="20" lengthAdjust="spacing" textLength="192" x="1579" y="525.0645">Google OAuth2 API</text></g><!--entity GS--><g id="elem_GS"><ellipse cx="2162" cy="489.5" fill="#F1F1F1" rx="8" ry="8" style="stroke:#181818;stroke-width:0.5;"/><text fill="#000000" font-family="sans-serif" font-size="20" lengthAdjust="spacing" textLength="290" x="2017" y="525.0645">Google Identity Services SDK</text></g><!--link V to P1--><g id="link_V_P1"><path d="M1034.29,181.88 C1072.47,158.45 1117.33,130.91 1133.66,120.89 " fill="none" id="V-P1" style="stroke:#181818;stroke-width:1.0;"/></g><!--link V to P2--><g id="link_V_P2"><path d="M1149.18,255.75 C1154.85,256.85 1160.47,257.93 1166,259 C1305.08,285.84 1361.26,240.26 1479,319 C1490,326.36 1496.98,340.94 1500.1,348.76 " fill="none" id="V-P2" style="stroke:#181818;stroke-width:1.0;"/></g><!--link V to P4--><g id="link_V_P4"><path d="M1149.14,255.93 C1154.83,256.97 1160.46,258 1166,259 C1325.63,287.81 1390.08,230.48 1526,319 C1537.21,326.3 1544.19,341.19 1547.23,348.98 " fill="none" id="V-P4" style="stroke:#181818;stroke-width:1.0;"/></g><!--link API to MDM--><g id="link_API_MDM"><path d="M678.74,364.29 C665.92,381.29 635.94,421.01 613.31,450.99 " fill="none" id="API-MDM" style="stroke:#181818;stroke-width:1.0;"/></g><!--link MDM to P3--><g id="link_MDM_P3"><path d="M761.15,478.93 C997.57,464.51 1393.94,434.24 1445,391 C1453.78,383.57 1455.13,369.01 1455.18,361.22 " fill="none" id="MDM-P3" style="stroke:#181818;stroke-width:1.0;"/></g><!--link V to API--><g id="link_V_API"><path d="M891.24,259.11 C826.46,288.92 740.87,328.3 703.63,345.43 " fill="none" id="V-to-API" style="stroke:#181818;stroke-width:1.0;"/><path d="M700.4062,356.2215 A9,9 0 0 0 693.3487 340.8498" fill="none" style="stroke:#181818;stroke-width:1.5;"/></g><!--link P to API--><g id="link_P_API"><path d="M614.1,259.11 C633.45,285.01 658.19,318.12 672.75,337.6 " fill="none" id="P-to-API" style="stroke:#181818;stroke-width:1.0;"/><path d="M683.7675,338.2187 A9,9 0 0 0 670.2243 348.3519" fill="none" style="stroke:#181818;stroke-width:1.5;"/></g><!--link P to PAPI--><g id="link_P_PAPI"><path d="M557.61,259.11 C534.98,289.11 505.02,328.79 492.23,345.75 " fill="none" id="P-PAPI" style="stroke:#181818;stroke-width:1.0;"/></g><!--reverse link PAPI to MDM--><g id="link_PAPI_MDM"><path d="M498.29,372.45 C512.87,391.96 537.64,425.11 556.97,450.99 " fill="none" id="PAPI-backto-MDM" style="stroke:#181818;stroke-width:1.0;"/><path d="M487.2561,371.817 A9,9 0 0 0 500.8079 361.6954" fill="none" style="stroke:#181818;stroke-width:1.5;"/></g><!--link MDT to TAPI--><g id="link_MDT_TAPI"><path d="M216.88,259.11 C231.14,289.11 250.01,328.79 258.08,345.75 " fill="none" id="MDT-TAPI" style="stroke:#181818;stroke-width:1.0;"/></g><!--reverse link TAPI to MDM--><g id="link_TAPI_MDM"><path d="M280.76,363.7 C321.35,380.35 419.62,420.66 493.57,451 " fill="none" id="TAPI-backto-MDM" style="stroke:#181818;stroke-width:1.0;"/><path d="M270.956,368.8126 A9,9 0 0 0 277.3792 353.1652" fill="none" style="stroke:#181818;stroke-width:1.5;"/></g><!--link MDT to PAPI--><g id="link_MDT_PAPI"><path d="M280.47,259.11 C345.03,288.92 430.33,328.3 467.43,345.43 " fill="none" id="MDT-to-PAPI" style="stroke:#181818;stroke-width:1.0;"/><path d="M477.6929,340.8507 A9,9 0 0 0 470.6155 356.2133" fill="none" style="stroke:#181818;stroke-width:1.5;"/></g><!--link AUI to P1--><g id="link_AUI_P1"><path d="M714.43,20.63 C727.86,28.41 753.48,42.34 777,50 C917.02,95.6 1098.45,111.73 1133.86,114.54 " fill="none" id="AUI-P1" style="stroke:#181818;stroke-width:1.0;"/></g><!--link CUI to P1--><g id="link_CUI_P1"><path d="M912,18.8 C950.56,35.07 1101.29,98.67 1133.8,112.38 " fill="none" id="CUI-P1" style="stroke:#181818;stroke-width:1.0;"/></g><!--link FUI to P1--><g id="link_FUI_P1"><path d="M1140,23.18 C1140,42.96 1140,92.95 1140,109.55 " fill="none" id="FUI-P1" style="stroke:#181818;stroke-width:1.0;"/></g><!--link TUI to P1--><g id="link_TUI_P1"><path d="M1349.87,19.17 C1313.12,35.95 1176.53,98.32 1146.05,112.24 " fill="none" id="TUI-P1" style="stroke:#181818;stroke-width:1.0;"/></g><!--link UUI to P1--><g id="link_UUI_P1"><path d="M1519.96,21.45 C1508.44,29.37 1487.67,42.64 1468,50 C1343.5,96.62 1179.28,111.85 1146.02,114.54 " fill="none" id="UUI-P1" style="stroke:#181818;stroke-width:1.0;"/></g><!--link P2 to FS--><g id="link_P2_FS"><path d="M1504.07,361.2 C1507.44,368.97 1514.89,383.5 1526,391 C1628.24,460.02 1678.91,415.32 1797,451 C1824.85,459.41 1856.08,472.1 1875.39,480.34 " fill="none" id="P2-to-FS" style="stroke:#181818;stroke-width:1.0;"/><path d="M1885.3308,475.4157 A9,9 0 0 0 1878.6184 490.9412" fill="none" style="stroke:#181818;stroke-width:1.5;"/></g><!--link P3 to GA--><g id="link_P3_GA"><path d="M1457.44,361.12 C1461.19,368.53 1468.99,382.3 1479,391 C1534.86,439.57 1619.18,470.67 1656.32,482.77 " fill="none" id="P3-to-GA" style="stroke:#181818;stroke-width:1.0;"/><path d="M1665.4882,476.8077 A9,9 0 0 0 1660.3647 492.9275" fill="none" style="stroke:#181818;stroke-width:1.5;"/></g><!--link P4 to GS--><g id="link_P4_GS"><path d="M1555.25,357.33 C1594.73,365.71 1813.68,412.21 1992,451 C2046.71,462.9 2111.26,477.21 2142.76,484.22 " fill="none" id="P4-to-GS" style="stroke:#181818;stroke-width:1.0;"/><path d="M2151.6225,477.526 A9,9 0 0 0 2147.9481 494.0366" fill="none" style="stroke:#181818;stroke-width:1.5;"/></g><!--SRC=[dLFHQeCm57tFLrnywXw4pVfO1bAno925gNtFDEr2DH4J1-tOloyQQzNwC0f2phtdvERU72DFZ5Ua9cKXiXFD8QS7qXGg45p5x4B1UKQ8SKNh0yaeM5vUCWvfQ06HuANXcDkIiceaH8IJ8wslekrK51IKghacc6eI8azpIJALfF96fRCJM47bMIfQWeVx-l5Oi1FYM51uznhrvGoQdRUW2NFA5LDdY6dzpJ8g8VRVZ3n6A1Db9RXMWFKXFlrQuvs0k3lRWircu5zVTTJtjDgwJph-GG2Lg9M-JGkwYlYbJub63Jbd8RTUoBb89yEHJpYqpGsM-dpZ5WxlDRWWd3D-D5KM9QqRqdXWUFsD9jypsP22NOXYWdUo_TtecVwR2EFQij7qlsXQAF9Xrd7aHu-LcaxrS3ktoIC_-MyLNGVjmRPRFytgzAkBse7ifh8xBxh0RkriwLMNmnDa3BbkMbt3fAMIAPNSg5w7zEliszWEA1XGCg1qGDZfjklNWjSTqcy2kmR5w0y0]--></g></svg>