<?xml version="1.0" encoding="UTF-8" standalone="no"?><svg xmlns="http://www.w3.org/2000/svg" xmlns:xlink="http://www.w3.org/1999/xlink" contentStyleType="text/css" height="550px" preserveAspectRatio="none" style="width:1249px;height:550px;background:#FFFFFF;" version="1.1" viewBox="0 0 1249 550" width="1249px" zoomAndPan="magnify"><defs/><g><!--cluster RobDroneGo System--><g id="cluster_RobDroneGo System"><rect fill="none" height="428" rx="2.5" ry="2.5" style="stroke:#181818;stroke-width:1.0;" width="1061" x="7" y="116"/><rect fill="none" height="10" style="stroke:#181818;stroke-width:1.0;" width="15" x="1048" y="121"/><rect fill="none" height="2" style="stroke:#181818;stroke-width:1.0;" width="4" x="1046" y="123"/><rect fill="none" height="2" style="stroke:#181818;stroke-width:1.0;" width="4" x="1046" y="127"/><text fill="#000000" font-family="sans-serif" font-size="20" font-style="italic" lengthAdjust="spacing" textLength="138" x="468.5" y="147.5645">«component»</text><text fill="#000000" font-family="sans-serif" font-size="20" font-style="italic" lengthAdjust="spacing" textLength="145" x="465" y="170.8457">«system (C4)»</text><text fill="#000000" font-family="sans-serif" font-size="20" font-weight="bold" lengthAdjust="spacing" textLength="233" x="421" y="194.127">RobDroneGo System</text></g><text fill="#000000" font-family="sans-serif" font-size="20" lengthAdjust="spacing" textLength="6" x="750" y="93.2832"> </text><rect fill="#F1F1F1" height="12" style="stroke:#181818;stroke-width:1.5;" width="12" x="747" y="110"/><text fill="#000000" font-family="sans-serif" font-size="20" lengthAdjust="spacing" textLength="6" x="1065" y="379.5645"> </text><rect fill="#F1F1F1" height="12" style="stroke:#181818;stroke-width:1.5;" width="12" x="1062" y="349"/><!--entity API--><g id="elem_API"><ellipse cx="398" cy="355" fill="#F1F1F1" rx="8" ry="8" style="stroke:#181818;stroke-width:0.5;"/><text fill="#000000" font-family="sans-serif" font-size="20" lengthAdjust="spacing" textLength="171" x="312.5" y="390.5645">API-Management</text></g><!--entity PAPI--><g id="elem_PAPI"><ellipse cx="199" cy="355" fill="#F1F1F1" rx="8" ry="8" style="stroke:#181818;stroke-width:0.5;"/><text fill="#000000" font-family="sans-serif" font-size="20" lengthAdjust="spacing" textLength="127" x="135.5" y="390.5645">API-Planning</text></g><!--entity V--><g id="elem_V"><rect fill="#F1F1F1" height="76.5625" rx="2.5" ry="2.5" style="stroke:#181818;stroke-width:0.5;" width="352" x="410" y="182"/><rect fill="#F1F1F1" height="10" style="stroke:#181818;stroke-width:0.5;" width="15" x="742" y="187"/><rect fill="#F1F1F1" height="2" style="stroke:#181818;stroke-width:0.5;" width="4" x="740" y="189"/><rect fill="#F1F1F1" height="2" style="stroke:#181818;stroke-width:0.5;" width="4" x="740" y="193"/><text fill="#000000" font-family="sans-serif" font-size="20" font-style="italic" lengthAdjust="spacing" textLength="312" x="425" y="220.5645">«component» «container (C4)»</text><text fill="#000000" font-family="sans-serif" font-size="20" lengthAdjust="spacing" textLength="129" x="516.5" y="243.8457">Visualization</text></g><!--entity MDM--><g id="elem_MDM"><rect fill="#F1F1F1" height="76.5625" rx="2.5" ry="2.5" style="stroke:#181818;stroke-width:0.5;" width="352" x="122" y="451"/><rect fill="#F1F1F1" height="10" style="stroke:#181818;stroke-width:0.5;" width="15" x="454" y="456"/><rect fill="#F1F1F1" height="2" style="stroke:#181818;stroke-width:0.5;" width="4" x="452" y="458"/><rect fill="#F1F1F1" height="2" style="stroke:#181818;stroke-width:0.5;" width="4" x="452" y="462"/><text fill="#000000" font-family="sans-serif" font-size="20" font-style="italic" lengthAdjust="spacing" textLength="312" x="137" y="489.5645">«component» «container (C4)»</text><text fill="#000000" font-family="sans-serif" font-size="20" lengthAdjust="spacing" textLength="170" x="208" y="512.8457">MD Management</text></g><!--entity P--><g id="elem_P"><rect fill="#F1F1F1" height="76.5625" rx="2.5" ry="2.5" style="stroke:#181818;stroke-width:0.5;" width="352" x="23" y="182"/><rect fill="#F1F1F1" height="10" style="stroke:#181818;stroke-width:0.5;" width="15" x="355" y="187"/><rect fill="#F1F1F1" height="2" style="stroke:#181818;stroke-width:0.5;" width="4" x="353" y="189"/><rect fill="#F1F1F1" height="2" style="stroke:#181818;stroke-width:0.5;" width="4" x="353" y="193"/><text fill="#000000" font-family="sans-serif" font-size="20" font-style="italic" lengthAdjust="spacing" textLength="312" x="38" y="220.5645">«component» «container (C4)»</text><text fill="#000000" font-family="sans-serif" font-size="20" lengthAdjust="spacing" textLength="88" x="150" y="243.8457">Planning</text></g><!--entity AUI--><g id="elem_AUI"><ellipse cx="318" cy="14" fill="#F1F1F1" rx="8" ry="8" style="stroke:#181818;stroke-width:0.5;"/><text fill="#000000" font-family="sans-serif" font-size="20" lengthAdjust="spacing" textLength="93" x="271.5" y="49.5645">Admin UI</text></g><!--entity CUI--><g id="elem_CUI"><ellipse cx="516" cy="14" fill="#F1F1F1" rx="8" ry="8" style="stroke:#181818;stroke-width:0.5;"/><text fill="#000000" font-family="sans-serif" font-size="20" lengthAdjust="spacing" textLength="202" x="415" y="49.5645">Campus Manager UI</text></g><!--entity FUI--><g id="elem_FUI"><ellipse cx="753" cy="14" fill="#F1F1F1" rx="8" ry="8" style="stroke:#181818;stroke-width:0.5;"/><text fill="#000000" font-family="sans-serif" font-size="20" lengthAdjust="spacing" textLength="170" x="668" y="49.5645">Fleet Manager UI</text></g><!--entity TUI--><g id="elem_TUI"><ellipse cx="972" cy="14" fill="#F1F1F1" rx="8" ry="8" style="stroke:#181818;stroke-width:0.5;"/><text fill="#000000" font-family="sans-serif" font-size="20" lengthAdjust="spacing" textLength="166" x="889" y="49.5645">Task Manager UI</text></g><!--entity UUI--><g id="elem_UUI"><ellipse cx="1142" cy="14" fill="#F1F1F1" rx="8" ry="8" style="stroke:#181818;stroke-width:0.5;"/><text fill="#000000" font-family="sans-serif" font-size="20" lengthAdjust="spacing" textLength="72" x="1106" y="49.5645">User UI</text></g><!--entity FS--><g id="elem_FS"><ellipse cx="1170" cy="489.5" fill="#F1F1F1" rx="8" ry="8" style="stroke:#181818;stroke-width:0.5;"/><text fill="#000000" font-family="sans-serif" font-size="20" lengthAdjust="spacing" textLength="145" x="1097.5" y="525.0645">Filesystem API</text></g><!--link V to P1--><g id="link_V_P1"><path d="M647.29,181.88 C685.47,158.45 730.33,130.91 746.66,120.89 " fill="none" id="V-P1" style="stroke:#181818;stroke-width:1.0;"/></g><!--link V to P2--><g id="link_V_P2"><path d="M762.11,255.71 C893.86,281.65 1052.3,313.71 1058,319 C1066.43,326.82 1067.93,341.21 1068.09,348.88 " fill="none" id="V-P2" style="stroke:#181818;stroke-width:1.0;"/></g><!--link API to MDM--><g id="link_API_MDM"><path d="M391.74,364.29 C378.92,381.29 348.94,421.01 326.31,450.99 " fill="none" id="API-MDM" style="stroke:#181818;stroke-width:1.0;"/></g><!--link V to API--><g id="link_V_API"><path d="M532.63,259.11 C493.2,286.9 441.97,323.01 415.52,341.65 " fill="none" id="V-to-API" style="stroke:#181818;stroke-width:1.0;"/><path d="M414.6433,352.6121 A9,9 0 0 0 404.8852 338.7962" fill="none" style="stroke:#181818;stroke-width:1.5;"/></g><!--link P to API--><g id="link_P_API"><path d="M255.49,259.11 C297.64,287.18 352.53,323.72 380.28,342.2 " fill="none" id="P-to-API" style="stroke:#181818;stroke-width:1.0;"/><path d="M391.0231,339.194 A9,9 0 0 0 381.6518 353.2751" fill="none" style="stroke:#181818;stroke-width:1.5;"/></g><!--link P to PAPI--><g id="link_P_PAPI"><path d="M199,259.11 C199,289.11 199,328.79 199,345.75 " fill="none" id="P-PAPI" style="stroke:#181818;stroke-width:1.0;"/></g><!--reverse link PAPI to MDM--><g id="link_PAPI_MDM"><path d="M211.29,372.45 C225.87,391.96 250.64,425.11 269.97,450.99 " fill="none" id="PAPI-backto-MDM" style="stroke:#181818;stroke-width:1.0;"/><path d="M200.2561,371.817 A9,9 0 0 0 213.8079 361.6954" fill="none" style="stroke:#181818;stroke-width:1.5;"/></g><!--link AUI to P1--><g id="link_AUI_P1"><path d="M327.43,20.63 C340.86,28.41 366.48,42.34 390,50 C530.02,95.6 711.45,111.73 746.86,114.54 " fill="none" id="AUI-P1" style="stroke:#181818;stroke-width:1.0;"/></g><!--link CUI to P1--><g id="link_CUI_P1"><path d="M525,18.8 C563.56,35.07 714.29,98.67 746.8,112.38 " fill="none" id="CUI-P1" style="stroke:#181818;stroke-width:1.0;"/></g><!--link FUI to P1--><g id="link_FUI_P1"><path d="M753,23.18 C753,42.96 753,92.95 753,109.55 " fill="none" id="FUI-P1" style="stroke:#181818;stroke-width:1.0;"/></g><!--link TUI to P1--><g id="link_TUI_P1"><path d="M962.87,19.17 C926.12,35.95 789.53,98.32 759.05,112.24 " fill="none" id="TUI-P1" style="stroke:#181818;stroke-width:1.0;"/></g><!--link UUI to P1--><g id="link_UUI_P1"><path d="M1132.96,21.45 C1121.44,29.37 1100.67,42.64 1081,50 C956.5,96.62 792.28,111.85 759.02,114.54 " fill="none" id="UUI-P1" style="stroke:#181818;stroke-width:1.0;"/></g><!--link P2 to FS--><g id="link_P2_FS"><path d="M1071.87,361.03 C1085.86,379.2 1134.12,441.89 1157.33,472.05 " fill="none" id="P2-to-FS" style="stroke:#181818;stroke-width:1.0;"/><path d="M1168.4959,472.6733 A9,9 0 0 0 1155.09 482.9874" fill="none" style="stroke:#181818;stroke-width:1.5;"/></g><!--SRC=[dP9FQuGm4CNl-HI39tiGMkbnMH35ua48zSzzgjabg8cOUEYMVlT6urfrBwKW-6RcyNFoZ6guw770hfLLmsgesGN7LiTIw8pV6FZFX72XsN31Ye4Jr1qNK2GEe8AWIBQp4Bj-L92Ym2iRxgPmRufRnlJH4-yzEQhcQCdtbaBzZeh35tZBrAVIh8E0BloCa4fslHHCQ73UvKSq6Fqc8PkD3fnEw_nyDjK2SCFN9rD_4O1U3jeStO6PI5-MbXprslE9QIQRi6ZYsMDqXciZeycZXxOe11TNIx4MysmsBhaQiUKtr5oAsLO-h5oPNuPSc5msMt-JFIYDuB1H6gN_G-st_Yl3K4W9dZSbQDy-cLRmnjwRqvcQxgpeJjbWxbRNbiHSmGKMhYfULRwgObNKdx7cIlm0]--></g></svg>