<?xml version="1.0" encoding="UTF-8" standalone="no"?><svg xmlns="http://www.w3.org/2000/svg" xmlns:xlink="http://www.w3.org/1999/xlink" contentStyleType="text/css" height="576px" preserveAspectRatio="none" style="width:1130px;height:576px;background:#FFFFFF;" version="1.1" viewBox="0 0 1130 576" width="1130px" zoomAndPan="magnify"><defs/><g><!--cluster RobDroneGo System--><g id="cluster_RobDroneGo System"><rect fill="none" height="450.96" rx="2.5" ry="2.5" style="stroke:#181818;stroke-width:1.0;" width="952" x="7" y="120"/><rect fill="none" height="10" style="stroke:#181818;stroke-width:1.0;" width="15" x="939" y="125"/><rect fill="none" height="2" style="stroke:#181818;stroke-width:1.0;" width="4" x="937" y="127"/><rect fill="none" height="2" style="stroke:#181818;stroke-width:1.0;" width="4" x="937" y="131"/><text fill="#000000" font-family="sans-serif" font-size="20" font-style="italic" lengthAdjust="spacing" textLength="122" x="422" y="154.38">«component»</text><text fill="#000000" font-family="sans-serif" font-size="20" font-style="italic" lengthAdjust="spacing" textLength="122" x="422" y="181.62">«system (C4)»</text><text fill="#000000" font-family="sans-serif" font-size="20" font-weight="bold" lengthAdjust="spacing" textLength="204" x="381" y="208.8599">RobDroneGo System</text></g><text fill="#000000" font-family="sans-serif" font-size="20" lengthAdjust="spacing" textLength="5" x="673.5" y="96.14"> </text><rect fill="#F1F1F1" height="12" style="stroke:#181818;stroke-width:1.5;" width="12" x="670" y="114"/><text fill="#000000" font-family="sans-serif" font-size="20" lengthAdjust="spacing" textLength="5" x="956.5" y="397.86"> </text><rect fill="#F1F1F1" height="12" style="stroke:#181818;stroke-width:1.5;" width="12" x="953" y="364.48"/><!--entity API--><g id="elem_API"><ellipse cx="370" cy="370.48" fill="#F1F1F1" rx="8" ry="8" style="stroke:#181818;stroke-width:0.5;"/><text fill="#000000" font-family="sans-serif" font-size="20" lengthAdjust="spacing" textLength="162" x="289" y="408.86">API-Management</text></g><!--entity PAPI--><g id="elem_PAPI"><ellipse cx="179" cy="370.48" fill="#F1F1F1" rx="8" ry="8" style="stroke:#181818;stroke-width:0.5;"/><text fill="#000000" font-family="sans-serif" font-size="20" lengthAdjust="spacing" textLength="119" x="119.5" y="408.86">API-Planning</text></g><!--entity V--><g id="elem_V"><rect fill="#F1F1F1" height="84.4799" rx="2.5" ry="2.5" style="stroke:#181818;stroke-width:0.5;" width="312" x="370" y="186"/><rect fill="#F1F1F1" height="10" style="stroke:#181818;stroke-width:0.5;" width="15" x="662" y="191"/><rect fill="#F1F1F1" height="2" style="stroke:#181818;stroke-width:0.5;" width="4" x="660" y="193"/><rect fill="#F1F1F1" height="2" style="stroke:#181818;stroke-width:0.5;" width="4" x="660" y="197"/><text fill="#000000" font-family="sans-serif" font-size="20" font-style="italic" lengthAdjust="spacing" textLength="272" x="385" y="227.38">«component» «container (C4)»</text><text fill="#000000" font-family="sans-serif" font-size="20" lengthAdjust="spacing" textLength="116" x="463" y="254.62">Visualization</text></g><!--entity MDM--><g id="elem_MDM"><rect fill="#F1F1F1" height="84.4799" rx="2.5" ry="2.5" style="stroke:#181818;stroke-width:0.5;" width="312" x="118" y="470.48"/><rect fill="#F1F1F1" height="10" style="stroke:#181818;stroke-width:0.5;" width="15" x="410" y="475.48"/><rect fill="#F1F1F1" height="2" style="stroke:#181818;stroke-width:0.5;" width="4" x="408" y="477.48"/><rect fill="#F1F1F1" height="2" style="stroke:#181818;stroke-width:0.5;" width="4" x="408" y="481.48"/><text fill="#000000" font-family="sans-serif" font-size="20" font-style="italic" lengthAdjust="spacing" textLength="272" x="133" y="511.86">«component» «container (C4)»</text><text fill="#000000" font-family="sans-serif" font-size="20" lengthAdjust="spacing" textLength="162" x="188" y="539.1">MD Management</text></g><!--entity P--><g id="elem_P"><rect fill="#F1F1F1" height="84.4799" rx="2.5" ry="2.5" style="stroke:#181818;stroke-width:0.5;" width="312" x="23" y="186"/><rect fill="#F1F1F1" height="10" style="stroke:#181818;stroke-width:0.5;" width="15" x="315" y="191"/><rect fill="#F1F1F1" height="2" style="stroke:#181818;stroke-width:0.5;" width="4" x="313" y="193"/><rect fill="#F1F1F1" height="2" style="stroke:#181818;stroke-width:0.5;" width="4" x="313" y="197"/><text fill="#000000" font-family="sans-serif" font-size="20" font-style="italic" lengthAdjust="spacing" textLength="272" x="38" y="227.38">«component» «container (C4)»</text><text fill="#000000" font-family="sans-serif" font-size="20" lengthAdjust="spacing" textLength="81" x="133.5" y="254.62">Planning</text></g><!--entity AUI--><g id="elem_AUI"><ellipse cx="259" cy="14" fill="#F1F1F1" rx="8" ry="8" style="stroke:#181818;stroke-width:0.5;"/><text fill="#000000" font-family="sans-serif" font-size="20" lengthAdjust="spacing" textLength="88" x="215" y="52.38">Admin UI</text></g><!--entity CUI--><g id="elem_CUI"><ellipse cx="450" cy="14" fill="#F1F1F1" rx="8" ry="8" style="stroke:#181818;stroke-width:0.5;"/><text fill="#000000" font-family="sans-serif" font-size="20" lengthAdjust="spacing" textLength="192" x="354" y="52.38">Campus Manager UI</text></g><!--entity FUI--><g id="elem_FUI"><ellipse cx="676" cy="14" fill="#F1F1F1" rx="8" ry="8" style="stroke:#181818;stroke-width:0.5;"/><text fill="#000000" font-family="sans-serif" font-size="20" lengthAdjust="spacing" textLength="159" x="596.5" y="52.38">Fleet Manager UI</text></g><!--entity TUI--><g id="elem_TUI"><ellipse cx="885" cy="14" fill="#F1F1F1" rx="8" ry="8" style="stroke:#181818;stroke-width:0.5;"/><text fill="#000000" font-family="sans-serif" font-size="20" lengthAdjust="spacing" textLength="158" x="806" y="52.38">Task Manager UI</text></g><!--entity UUI--><g id="elem_UUI"><ellipse cx="1050" cy="14" fill="#F1F1F1" rx="8" ry="8" style="stroke:#181818;stroke-width:0.5;"/><text fill="#000000" font-family="sans-serif" font-size="20" lengthAdjust="spacing" textLength="71" x="1014.5" y="52.38">User UI</text></g><!--entity FS--><g id="elem_FS"><ellipse cx="1056" cy="512.72" fill="#F1F1F1" rx="8" ry="8" style="stroke:#181818;stroke-width:0.5;"/><text fill="#000000" font-family="sans-serif" font-size="20" lengthAdjust="spacing" textLength="135" x="988.5" y="551.1">Filesystem API</text></g><!--link V to P1--><g id="link_V_P1"><path d="M584.75,185.63 C617.62,162.35 654.86,135.97 669.55,125.57 " fill="none" id="V-P1" style="stroke:#181818;stroke-width:1.0;"/></g><!--link V to P2--><g id="link_V_P2"><path d="M682.29,266.4 C802.53,295.03 948.37,329.86 949,330.48 C958.17,339.5 959.32,355.7 959.25,364.1 " fill="none" id="V-P2" style="stroke:#181818;stroke-width:1.0;"/></g><!--link API to MDM--><g id="link_API_MDM"><path d="M364.56,379.42 C352.82,396.57 324.39,438.11 302.49,470.11 " fill="none" id="API-MDM" style="stroke:#181818;stroke-width:1.0;"/></g><!--link V to API--><g id="link_V_API"><path d="M479.62,270.94 C448.36,299.04 408.94,334.47 386.91,354.28 " fill="none" id="V-to-API" style="stroke:#181818;stroke-width:1.0;"/><path d="M387.7915,364.7546 A9,9 0 0 0 376.4884 352.1714" fill="none" style="stroke:#181818;stroke-width:1.5;"/></g><!--link P to API--><g id="link_P_API"><path d="M235.79,270.94 C275.57,300.15 326.14,337.28 352.39,356.55 " fill="none" id="P-to-API" style="stroke:#181818;stroke-width:1.0;"/><path d="M362.713,354.3709 A9,9 0 0 0 352.7041 368.0062" fill="none" style="stroke:#181818;stroke-width:1.5;"/></g><!--link P to PAPI--><g id="link_P_PAPI"><path d="M179,270.94 C179,302.91 179,344.37 179,361.52 " fill="none" id="P-PAPI" style="stroke:#181818;stroke-width:1.0;"/></g><!--reverse link PAPI to MDM--><g id="link_PAPI_MDM"><path d="M190.38,388.28 C204,408.38 227.27,442.74 245.81,470.11 " fill="none" id="PAPI-backto-MDM" style="stroke:#181818;stroke-width:1.0;"/><path d="M179.0967,387.7061 A9,9 0 0 0 193.1106 378.2346" fill="none" style="stroke:#181818;stroke-width:1.5;"/></g><!--link AUI to P1--><g id="link_AUI_P1"><path d="M267.62,21.02 C280.41,29.67 305.45,45.49 329,54 C461,101.7 634.51,116.07 669.64,118.58 " fill="none" id="AUI-P1" style="stroke:#181818;stroke-width:1.0;"/></g><!--link CUI to P1--><g id="link_CUI_P1"><path d="M458.86,19.08 C495.91,36.13 637.98,101.51 669.7,116.1 " fill="none" id="CUI-P1" style="stroke:#181818;stroke-width:1.0;"/></g><!--link FUI to P1--><g id="link_FUI_P1"><path d="M676,22.82 C676,43.04 676,96.66 676,113.72 " fill="none" id="FUI-P1" style="stroke:#181818;stroke-width:1.0;"/></g><!--link TUI to P1--><g id="link_TUI_P1"><path d="M876.02,19.47 C840.7,37.04 711.86,101.16 682.14,115.94 " fill="none" id="TUI-P1" style="stroke:#181818;stroke-width:1.0;"/></g><!--link UUI to P1--><g id="link_UUI_P1"><path d="M1041.24,22.22 C1030.05,31.06 1009.76,45.87 990,54 C872.62,102.29 715.25,116.12 682.23,118.57 " fill="none" id="UUI-P1" style="stroke:#181818;stroke-width:1.0;"/></g><!--link P2 to FS--><g id="link_P2_FS"><path d="M962.68,376.81 C976.05,396.13 1022.35,463.06 1044.29,494.79 " fill="none" id="P2-to-FS" style="stroke:#181818;stroke-width:1.0;"/><path d="M1055.682,495.4057 A9,9 0 0 0 1041.7742 505.0323" fill="none" style="stroke:#181818;stroke-width:1.5;"/></g><!--SRC=[dP9FQuGm4CNl-HI39tiGMkbnMH35ua48zSzzgjabg8cOUEYMVlT6urfrBwKW-6RcyNFoZ6guw770hfLLmsgesGN7LiTIw8pV6FZFX72XsN31Ye4Jr1qNK2GEe8AWIBQp4Bj-L92Ym2iRxgPmRufRnlJH4-yzEQhcQCdtbaBzZeh35tZBrAVIh8E0BloCa4fslHHCQ73UvKSq6Fqc8PkD3fnEw_nyDjK2SCFN9rD_4O1U3jeStO6PI5-MbXprslE9QIQRi6ZYsMDqXciZeycZXxOe11TNIx4MysmsBhaQiUKtr5oAsLO-h5oPNuPSc5msMt-JFIYDuB1H6gN_G-st_Yl3K4W9dZSbQDy-cLRmnjwRqvcQxgpeJjbWxbRNbiHSmGKMhYfULRwgObNKdx7cIlm0]--></g></svg>