<?xml version="1.0" encoding="UTF-8" standalone="no"?><svg xmlns="http://www.w3.org/2000/svg" xmlns:xlink="http://www.w3.org/1999/xlink" contentStyleType="text/css" height="520px" preserveAspectRatio="none" style="width:848px;height:520px;background:#FFFFFF;" version="1.1" viewBox="0 0 848 520" width="848px" zoomAndPan="magnify"><defs/><g><!--MD5=[0f6b1c88a3f80ad3092b4fe31cec549a]
cluster RobDroneGo System--><g id="cluster_RobDroneGo System"><rect fill="none" height="402.27" rx="2.5" ry="2.5" style="stroke:#181818;stroke-width:1.0;" width="721" x="7" y="112"/><rect fill="none" height="10" style="stroke:#181818;stroke-width:1.0;" width="15" x="708" y="117"/><rect fill="none" height="2" style="stroke:#181818;stroke-width:1.0;" width="4" x="706" y="119"/><rect fill="none" height="2" style="stroke:#181818;stroke-width:1.0;" width="4" x="706" y="123"/><text fill="#000000" font-family="sans-serif" font-size="14" font-style="italic" lengthAdjust="spacing" textLength="84" x="325.5" y="139.9659">«component»</text><text fill="#000000" font-family="sans-serif" font-size="14" font-style="italic" lengthAdjust="spacing" textLength="85" x="325" y="159.0339">«system (C4)»</text><text fill="#000000" font-family="sans-serif" font-size="14" font-weight="bold" lengthAdjust="spacing" textLength="143" x="296" y="178.1018">RobDroneGo System</text></g><text fill="#000000" font-family="sans-serif" font-size="14" lengthAdjust="spacing" textLength="4" x="515" y="89.898"> </text><rect fill="#F1F1F1" height="12" style="stroke:#181818;stroke-width:1.5;" width="12" x="511" y="106"/><!--MD5=[645d8587175d8f7ad110cd370775931d]
entity API--><g id="elem_API"><ellipse cx="290" cy="338.13" fill="#F1F1F1" rx="8" ry="8" style="stroke:#181818;stroke-width:0.5;"/><text fill="#000000" font-family="sans-serif" font-size="14" lengthAdjust="spacing" textLength="117" x="231.5" y="370.0959">API-Management</text></g><!--MD5=[f3fc39b189f3b1918fb2a3388e729573]
entity PAPI--><g id="elem_PAPI"><ellipse cx="138" cy="338.13" fill="#F1F1F1" rx="8" ry="8" style="stroke:#181818;stroke-width:0.5;"/><text fill="#000000" font-family="sans-serif" font-size="14" lengthAdjust="spacing" textLength="87" x="94.5" y="370.0959">API-Planning</text></g><!--MD5=[9c35c66068622dad62ecac52c54c307b]
entity V--><g id="elem_V"><rect fill="#F1F1F1" height="68.1358" rx="2.5" ry="2.5" style="stroke:#181818;stroke-width:0.5;" width="230" x="288" y="178"/><rect fill="#F1F1F1" height="10" style="stroke:#181818;stroke-width:0.5;" width="15" x="498" y="183"/><rect fill="#F1F1F1" height="2" style="stroke:#181818;stroke-width:0.5;" width="4" x="496" y="185"/><rect fill="#F1F1F1" height="2" style="stroke:#181818;stroke-width:0.5;" width="4" x="496" y="189"/><text fill="#000000" font-family="sans-serif" font-size="14" font-style="italic" lengthAdjust="spacing" textLength="190" x="303" y="212.9659">«component» «container (C4)»</text><text fill="#000000" font-family="sans-serif" font-size="14" lengthAdjust="spacing" textLength="85" x="355.5" y="232.0339">Visualization</text></g><!--MD5=[726927e6d83af89079991bbb6f485283]
entity MDM--><g id="elem_MDM"><rect fill="#F1F1F1" height="68.1358" rx="2.5" ry="2.5" style="stroke:#181818;stroke-width:0.5;" width="230" x="99" y="430.13"/><rect fill="#F1F1F1" height="10" style="stroke:#181818;stroke-width:0.5;" width="15" x="309" y="435.13"/><rect fill="#F1F1F1" height="2" style="stroke:#181818;stroke-width:0.5;" width="4" x="307" y="437.13"/><rect fill="#F1F1F1" height="2" style="stroke:#181818;stroke-width:0.5;" width="4" x="307" y="441.13"/><text fill="#000000" font-family="sans-serif" font-size="14" font-style="italic" lengthAdjust="spacing" textLength="190" x="114" y="465.0959">«component» «container (C4)»</text><text fill="#000000" font-family="sans-serif" font-size="14" lengthAdjust="spacing" textLength="117" x="150.5" y="484.1639">MD Management</text></g><!--MD5=[626ad08abde0879284d52f51a0eb42aa]
entity P--><g id="elem_P"><rect fill="#F1F1F1" height="68.1358" rx="2.5" ry="2.5" style="stroke:#181818;stroke-width:0.5;" width="230" x="23" y="178"/><rect fill="#F1F1F1" height="10" style="stroke:#181818;stroke-width:0.5;" width="15" x="233" y="183"/><rect fill="#F1F1F1" height="2" style="stroke:#181818;stroke-width:0.5;" width="4" x="231" y="185"/><rect fill="#F1F1F1" height="2" style="stroke:#181818;stroke-width:0.5;" width="4" x="231" y="189"/><text fill="#000000" font-family="sans-serif" font-size="14" font-style="italic" lengthAdjust="spacing" textLength="190" x="38" y="212.9659">«component» «container (C4)»</text><text fill="#000000" font-family="sans-serif" font-size="14" lengthAdjust="spacing" textLength="60" x="103" y="232.0339">Planning</text></g><!--MD5=[cfcafa412c0babcd780f6effe68cc082]
entity AUI--><g id="elem_AUI"><ellipse cx="188" cy="14" fill="#F1F1F1" rx="8" ry="8" style="stroke:#181818;stroke-width:0.5;"/><text fill="#000000" font-family="sans-serif" font-size="14" lengthAdjust="spacing" textLength="63" x="156.5" y="45.9659">Admin UI</text></g><!--MD5=[00a53cdc1199406b772e5950891343c5]
entity CUI--><g id="elem_CUI"><ellipse cx="339" cy="14" fill="#F1F1F1" rx="8" ry="8" style="stroke:#181818;stroke-width:0.5;"/><text fill="#000000" font-family="sans-serif" font-size="14" lengthAdjust="spacing" textLength="139" x="269.5" y="45.9659">Campus Manager UI</text></g><!--MD5=[2fdcfc5154486ff4bac96ea7d6266223]
entity FUI--><g id="elem_FUI"><ellipse cx="517" cy="14" fill="#F1F1F1" rx="8" ry="8" style="stroke:#181818;stroke-width:0.5;"/><text fill="#000000" font-family="sans-serif" font-size="14" lengthAdjust="spacing" textLength="116" x="459" y="45.9659">Fleet Manager UI</text></g><!--MD5=[1f8580275780bab29e0393918322d740]
entity TUI--><g id="elem_TUI"><ellipse cx="683" cy="14" fill="#F1F1F1" rx="8" ry="8" style="stroke:#181818;stroke-width:0.5;"/><text fill="#000000" font-family="sans-serif" font-size="14" lengthAdjust="spacing" textLength="114" x="626" y="45.9659">Task Manager UI</text></g><!--MD5=[f18335d2d2f1db8dfcacee575012285a]
entity UUI--><g id="elem_UUI"><ellipse cx="816" cy="14" fill="#F1F1F1" rx="8" ry="8" style="stroke:#181818;stroke-width:0.5;"/><text fill="#000000" font-family="sans-serif" font-size="14" lengthAdjust="spacing" textLength="50" x="791" y="45.9659">User UI</text></g><!--MD5=[4fa59f2fdf0883c2e7c14a7d031f2558]
link V to P1--><g id="link_V_P1"><path d="M441.94,177.57 C467.32,155.74 498.01,129.33 510.87,118.27 " fill="none" id="V-P1" style="stroke:#181818;stroke-width:1.0;"/></g><!--MD5=[7a01a35a3a611017fafa7b8abfabb847]
link API to MDM--><g id="link_API_MDM"><path d="M285.25,346.9 C275.3,363.13 251.8,401.5 234.49,429.75 " fill="none" id="API-MDM" style="stroke:#181818;stroke-width:1.0;"/></g><!--MD5=[3853e52ea2604b2435d339a66ba0a203]
link V to API--><g id="link_V_API"><path d="M372.72,246.31 C350.79,270.38 322.11,301.88 304.92,320.76 " fill="none" id="V-to-API" style="stroke:#181818;stroke-width:1.0;"/><path d="M306.6245,331.4409 A9,9 0 0 0 294.1219 320.0486" fill="none" style="stroke:#181818;stroke-width:1.5;"/></g><!--MD5=[56a04dc363635fba468495a194212db5]
link P to API--><g id="link_P_API"><path d="M178.73,246.31 C209.22,271.2 249.44,304.03 272.23,322.63 " fill="none" id="P-to-API" style="stroke:#181818;stroke-width:1.0;"/><path d="M282.9088,320.4237 A9,9 0 0 0 272.2045 333.5202" fill="none" style="stroke:#181818;stroke-width:1.5;"/></g><!--MD5=[a84971207aa808810a508e9b35c238d8]
link P to PAPI--><g id="link_P_PAPI"><path d="M138,246.31 C138,274.45 138,312.74 138,329.14 " fill="none" id="P-PAPI" style="stroke:#181818;stroke-width:1.0;"/></g><!--MD5=[b14017d3dd34997ae4acf13b66d811a6]
reverse link PAPI to MDM--><g id="link_PAPI_MDM"><path d="M148.66,356.53 C160.24,375.45 179.04,406.14 193.51,429.75 " fill="none" id="PAPI-backto-MDM" style="stroke:#181818;stroke-width:1.0;"/><path d="M137.9387,355.2346 A9,9 0 0 0 152.359 346.394" fill="none" style="stroke:#181818;stroke-width:1.5;"/></g><!--MD5=[1a596fe3bb89ea3f4253e71944a50120]
link AUI to P1--><g id="link_AUI_P1"><path d="M196.92,20.82 C207.85,27.72 227.12,39.14 245,46 C347.45,85.3 481,105.87 510.89,110.15 " fill="none" id="AUI-P1" style="stroke:#181818;stroke-width:1.0;"/></g><!--MD5=[82aa52e761f2c7d4275711f0f6072f71]
link CUI to P1--><g id="link_CUI_P1"><path d="M347.59,19.63 C378.56,36.33 484.12,93.27 510.82,107.67 " fill="none" id="CUI-P1" style="stroke:#181818;stroke-width:1.0;"/></g><!--MD5=[234d85ca90cddf23b132216c62d6baee]
link FUI to P1--><g id="link_FUI_P1"><path d="M517,22.85 C517,41.84 517,89.83 517,105.76 " fill="none" id="FUI-P1" style="stroke:#181818;stroke-width:1.0;"/></g><!--MD5=[a7b2fb2017985076509f38a2e3f9adf9]
link TUI to P1--><g id="link_TUI_P1"><path d="M674.08,20.16 C644.31,37.37 548.88,92.56 523.34,107.33 " fill="none" id="TUI-P1" style="stroke:#181818;stroke-width:1.0;"/></g><!--MD5=[9b520fe73f8c4dca4b6c83d4978d7c54]
link UUI to P1--><g id="link_UUI_P1"><path d="M807.23,21.57 C797.58,28.53 781.39,39.4 766,46 C674.02,85.45 552.37,105.63 523.39,110.05 " fill="none" id="UUI-P1" style="stroke:#181818;stroke-width:1.0;"/></g><!--MD5=[e0925c466adca3f07ef6dc3d546baf52]
@startuml logical-view

interface "Admin UI" as AUI
interface "Campus Manager UI" as CUI
interface "Fleet Manager UI" as FUI
interface "Task Manager UI" as TUI
interface "User UI" as UUI

component "RobDroneGo System" <<component>> <<system (C4)>> {
  portin " " as P1

  Interface "API-Management" as API
  Interface "API-Planning" as PAPI
  
  component "Visualization" as V <<component>> <<container (C4)>> {
  }

  component "MD Management" as MDM <<component>> <<container (C4)>> {
  }

  component "Planning" as P <<component>> <<container (C4)>> {
  }
}


V - - P1
MDM -up- API
V - -( API
P - -( API
P - - PAPI
MDM -up-( PAPI

AUI - - P1
CUI - - P1
FUI - - P1
TUI - - P1
UUI - - P1

@enduml

PlantUML version 1.2022.7(Mon Aug 22 18:01:30 WEST 2022)
(GPL source distribution)
Java Runtime: OpenJDK Runtime Environment
JVM: OpenJDK 64-Bit Server VM
Default Encoding: UTF-8
Language: en
Country: GB
--></g></svg>