<?xml version="1.0" encoding="UTF-8" standalone="no"?><svg xmlns="http://www.w3.org/2000/svg" xmlns:xlink="http://www.w3.org/1999/xlink" contentStyleType="text/css" height="662px" preserveAspectRatio="none" style="width:2012px;height:662px;background:#FFFFFF;" version="1.1" viewBox="0 0 2012 662" width="2012px" zoomAndPan="magnify"><defs/><g><rect fill="#DDDDDD" height="650.5996" style="stroke:#181818;stroke-width:0.5;" width="1169.25" x="595.25" y="6"/><text fill="#000000" font-family="sans-serif" font-size="20" font-weight="bold" lengthAdjust="spacing" textLength="158.375" x="1100.6875" y="27.38">«container (C4)»</text><text fill="#000000" font-family="sans-serif" font-size="20" font-weight="bold" lengthAdjust="spacing" textLength="130.75" x="1114.5" y="54.62">Visualization)</text><rect fill="#FFFFE0" height="650.5996" style="stroke:#181818;stroke-width:0.5;" width="175.5" x="1831.125" y="6"/><text fill="#000000" font-family="sans-serif" font-size="20" font-weight="bold" lengthAdjust="spacing" textLength="158.375" x="1839.6875" y="27.38">«container (C4)»</text><text fill="#000000" font-family="sans-serif" font-size="20" font-weight="bold" lengthAdjust="spacing" textLength="169.5" x="1834.125" y="54.62">MD Management</text><rect fill="#FFFFFF" height="404.3997" style="stroke:#181818;stroke-width:1.0;" width="10" x="69" y="143.9599"/><rect fill="#FFFFFF" height="371.1598" style="stroke:#181818;stroke-width:1.0;" width="10" x="682.25" y="177.1999"/><rect fill="#FFFFFF" height="288.6798" style="stroke:#181818;stroke-width:1.0;" width="10" x="868.25" y="218.4398"/><rect fill="#FFFFFF" height="206.1999" style="stroke:#181818;stroke-width:1.0;" width="10" x="1426.875" y="259.6798"/><rect fill="#FFFFFF" height="123.7199" style="stroke:#181818;stroke-width:1.0;" width="10" x="1667.5" y="300.9198"/><rect fill="#FFFFFF" height="41.24" style="stroke:#181818;stroke-width:1.0;" width="10" x="1913.875" y="342.1598"/><line style="stroke:#181818;stroke-width:0.5;stroke-dasharray:5.0,5.0;" x1="74" x2="74" y1="133.9599" y2="566.3596"/><line style="stroke:#181818;stroke-width:0.5;stroke-dasharray:5.0,5.0;" x1="687.25" x2="687.25" y1="133.9599" y2="566.3596"/><line style="stroke:#181818;stroke-width:0.5;stroke-dasharray:5.0,5.0;" x1="873.25" x2="873.25" y1="133.9599" y2="566.3596"/><line style="stroke:#181818;stroke-width:0.5;stroke-dasharray:5.0,5.0;" x1="1431.875" x2="1431.875" y1="133.9599" y2="566.3596"/><line style="stroke:#181818;stroke-width:0.5;stroke-dasharray:5.0,5.0;" x1="1672.5" x2="1672.5" y1="133.9599" y2="566.3596"/><line style="stroke:#181818;stroke-width:0.5;stroke-dasharray:5.0,5.0;" x1="1918.875" x2="1918.875" y1="133.9599" y2="566.3596"/><text fill="#000000" font-family="sans-serif" font-size="20" lengthAdjust="spacing" textLength="132" x="5" y="128.0999">Fleet Manager</text><ellipse cx="74" cy="55.2199" fill="#E2E2F0" rx="8" ry="8" style="stroke:#181818;stroke-width:0.5;"/><path d="M74,63.2199 L74,90.2199 M61,71.2199 L87,71.2199 M74,90.2199 L61,105.2199 M74,90.2199 L87,105.2199 " fill="none" style="stroke:#181818;stroke-width:0.5;"/><text fill="#000000" font-family="sans-serif" font-size="20" lengthAdjust="spacing" textLength="132" x="5" y="586.7396">Fleet Manager</text><ellipse cx="74" cy="601.0996" fill="#E2E2F0" rx="8" ry="8" style="stroke:#181818;stroke-width:0.5;"/><path d="M74,609.0996 L74,636.0996 M61,617.0996 L87,617.0996 M74,636.0996 L61,651.0996 M74,636.0996 L87,651.0996 " fill="none" style="stroke:#181818;stroke-width:0.5;"/><rect fill="#E2E2F0" height="68.4799" rx="2.5" ry="2.5" style="stroke:#181818;stroke-width:0.5;" width="176" x="599.25" y="64.4799"/><text fill="#000000" font-family="sans-serif" font-size="20" font-style="italic" lengthAdjust="spacing" textLength="162" x="606.25" y="92.8599">«component (C4)»</text><text fill="#000000" font-family="sans-serif" font-size="20" lengthAdjust="spacing" textLength="137" x="618.75" y="120.0999">UI Component</text><rect fill="#E2E2F0" height="68.4799" rx="2.5" ry="2.5" style="stroke:#181818;stroke-width:0.5;" width="176" x="599.25" y="565.3596"/><text fill="#000000" font-family="sans-serif" font-size="20" font-style="italic" lengthAdjust="spacing" textLength="162" x="606.25" y="593.7396">«component (C4)»</text><text fill="#000000" font-family="sans-serif" font-size="20" lengthAdjust="spacing" textLength="137" x="618.75" y="620.9796">UI Component</text><rect fill="#E2E2F0" height="68.4799" rx="2.5" ry="2.5" style="stroke:#181818;stroke-width:0.5;" width="176" x="785.25" y="64.4799"/><text fill="#000000" font-family="sans-serif" font-size="20" font-style="italic" lengthAdjust="spacing" textLength="162" x="792.25" y="92.8599">«component (C4)»</text><text fill="#000000" font-family="sans-serif" font-size="20" lengthAdjust="spacing" textLength="70" x="838.25" y="120.0999">Module</text><rect fill="#E2E2F0" height="68.4799" rx="2.5" ry="2.5" style="stroke:#181818;stroke-width:0.5;" width="176" x="785.25" y="565.3596"/><text fill="#000000" font-family="sans-serif" font-size="20" font-style="italic" lengthAdjust="spacing" textLength="162" x="792.25" y="593.7396">«component (C4)»</text><text fill="#000000" font-family="sans-serif" font-size="20" lengthAdjust="spacing" textLength="70" x="838.25" y="620.9796">Module</text><rect fill="#E2E2F0" height="68.4799" rx="2.5" ry="2.5" style="stroke:#181818;stroke-width:0.5;" width="176" x="1343.875" y="64.4799"/><text fill="#000000" font-family="sans-serif" font-size="20" font-style="italic" lengthAdjust="spacing" textLength="162" x="1350.875" y="92.8599">«component (C4)»</text><text fill="#000000" font-family="sans-serif" font-size="20" lengthAdjust="spacing" textLength="66" x="1398.875" y="120.0999">Service</text><rect fill="#E2E2F0" height="68.4799" rx="2.5" ry="2.5" style="stroke:#181818;stroke-width:0.5;" width="176" x="1343.875" y="565.3596"/><text fill="#000000" font-family="sans-serif" font-size="20" font-style="italic" lengthAdjust="spacing" textLength="162" x="1350.875" y="593.7396">«component (C4)»</text><text fill="#000000" font-family="sans-serif" font-size="20" lengthAdjust="spacing" textLength="66" x="1398.875" y="620.9796">Service</text><rect fill="#E2E2F0" height="68.4799" rx="2.5" ry="2.5" style="stroke:#181818;stroke-width:0.5;" width="176" x="1584.5" y="64.4799"/><text fill="#000000" font-family="sans-serif" font-size="20" font-style="italic" lengthAdjust="spacing" textLength="162" x="1591.5" y="92.8599">«component (C4)»</text><text fill="#000000" font-family="sans-serif" font-size="20" lengthAdjust="spacing" textLength="49" x="1648" y="120.0999">HTTP</text><rect fill="#E2E2F0" height="68.4799" rx="2.5" ry="2.5" style="stroke:#181818;stroke-width:0.5;" width="176" x="1584.5" y="565.3596"/><text fill="#000000" font-family="sans-serif" font-size="20" font-style="italic" lengthAdjust="spacing" textLength="162" x="1591.5" y="593.7396">«component (C4)»</text><text fill="#000000" font-family="sans-serif" font-size="20" lengthAdjust="spacing" textLength="49" x="1648" y="620.9796">HTTP</text><rect fill="#E2E2F0" height="68.4799" rx="2.5" ry="2.5" style="stroke:#181818;stroke-width:0.5;" width="136" x="1850.875" y="64.4799"/><text fill="#000000" font-family="sans-serif" font-size="20" font-style="italic" lengthAdjust="spacing" textLength="122" x="1857.875" y="92.8599">«component»</text><text fill="#000000" font-family="sans-serif" font-size="20" lengthAdjust="spacing" textLength="121" x="1858.375" y="120.0999">Device Route</text><rect fill="#E2E2F0" height="68.4799" rx="2.5" ry="2.5" style="stroke:#181818;stroke-width:0.5;" width="136" x="1850.875" y="565.3596"/><text fill="#000000" font-family="sans-serif" font-size="20" font-style="italic" lengthAdjust="spacing" textLength="122" x="1857.875" y="593.7396">«component»</text><text fill="#000000" font-family="sans-serif" font-size="20" lengthAdjust="spacing" textLength="121" x="1858.375" y="620.9796">Device Route</text><rect fill="#FFFFFF" height="404.3997" style="stroke:#181818;stroke-width:1.0;" width="10" x="69" y="143.9599"/><rect fill="#FFFFFF" height="371.1598" style="stroke:#181818;stroke-width:1.0;" width="10" x="682.25" y="177.1999"/><rect fill="#FFFFFF" height="288.6798" style="stroke:#181818;stroke-width:1.0;" width="10" x="868.25" y="218.4398"/><rect fill="#FFFFFF" height="206.1999" style="stroke:#181818;stroke-width:1.0;" width="10" x="1426.875" y="259.6798"/><rect fill="#FFFFFF" height="123.7199" style="stroke:#181818;stroke-width:1.0;" width="10" x="1667.5" y="300.9198"/><rect fill="#FFFFFF" height="41.24" style="stroke:#181818;stroke-width:1.0;" width="10" x="1913.875" y="342.1598"/><polygon fill="#181818" points="670.25,173.1999,680.25,177.1999,670.25,181.1999,674.25,177.1999" style="stroke:#181818;stroke-width:1.0;"/><line style="stroke:#181818;stroke-width:1.0;" x1="79" x2="676.25" y1="177.1999" y2="177.1999"/><text fill="#000000" font-family="sans-serif" font-size="20" font-weight="bold" lengthAdjust="spacing" textLength="11.625" x="86" y="169.3399">1</text><text fill="#000000" font-family="sans-serif" font-size="20" lengthAdjust="spacing" textLength="477" x="101.625" y="169.3399">asks to list all robots filtering by designation or task</text><polygon fill="#181818" points="856.25,214.4398,866.25,218.4398,856.25,222.4398,860.25,218.4398" style="stroke:#181818;stroke-width:1.0;"/><line style="stroke:#181818;stroke-width:1.0;" x1="692.25" x2="862.25" y1="218.4398" y2="218.4398"/><text fill="#000000" font-family="sans-serif" font-size="20" font-weight="bold" lengthAdjust="spacing" textLength="11.625" x="699.25" y="210.5799">2</text><text fill="#000000" font-family="sans-serif" font-size="20" lengthAdjust="spacing" textLength="27" x="714.875" y="210.5799">list</text><polygon fill="#181818" points="1414.875,255.6798,1424.875,259.6798,1414.875,263.6798,1418.875,259.6798" style="stroke:#181818;stroke-width:1.0;"/><line style="stroke:#181818;stroke-width:1.0;" x1="878.25" x2="1420.875" y1="259.6798" y2="259.6798"/><text fill="#000000" font-family="sans-serif" font-size="20" font-weight="bold" lengthAdjust="spacing" textLength="11.625" x="885.25" y="251.8198">3</text><text fill="#000000" font-family="sans-serif" font-size="20" lengthAdjust="spacing" textLength="514" x="900.875" y="251.8198">get all devices robots with the designation or task given</text><polygon fill="#181818" points="1655.5,296.9198,1665.5,300.9198,1655.5,304.9198,1659.5,300.9198" style="stroke:#181818;stroke-width:1.0;"/><line style="stroke:#181818;stroke-width:1.0;" x1="1436.875" x2="1661.5" y1="300.9198" y2="300.9198"/><text fill="#000000" font-family="sans-serif" font-size="20" font-weight="bold" lengthAdjust="spacing" textLength="11.625" x="1443.875" y="293.0598">4</text><text fill="#000000" font-family="sans-serif" font-size="20" lengthAdjust="spacing" textLength="196" x="1459.5" y="293.0598">get('/devices/robots')</text><polygon fill="#181818" points="1901.875,338.1598,1911.875,342.1598,1901.875,346.1598,1905.875,342.1598" style="stroke:#181818;stroke-width:1.0;"/><line style="stroke:#181818;stroke-width:1.0;" x1="1677.5" x2="1907.875" y1="342.1598" y2="342.1598"/><text fill="#000000" font-family="sans-serif" font-size="20" font-weight="bold" lengthAdjust="spacing" textLength="11.625" x="1684.5" y="334.2998">5</text><text fill="#000000" font-family="sans-serif" font-size="20" lengthAdjust="spacing" textLength="186" x="1700.125" y="334.2998">GET /devices/robots</text><polygon fill="#181818" points="1688.5,379.3997,1678.5,383.3997,1688.5,387.3997,1684.5,383.3997" style="stroke:#181818;stroke-width:1.0;"/><line style="stroke:#181818;stroke-width:1.0;stroke-dasharray:2.0,2.0;" x1="1682.5" x2="1917.875" y1="383.3997" y2="383.3997"/><text fill="#000000" font-family="sans-serif" font-size="20" font-weight="bold" lengthAdjust="spacing" textLength="11.625" x="1694.5" y="375.5398">6</text><text fill="#000000" font-family="sans-serif" font-size="20" lengthAdjust="spacing" textLength="111" x="1710.125" y="375.5398">200 (robots)</text><polygon fill="#181818" points="1447.875,420.6397,1437.875,424.6397,1447.875,428.6397,1443.875,424.6397" style="stroke:#181818;stroke-width:1.0;"/><line style="stroke:#181818;stroke-width:1.0;stroke-dasharray:2.0,2.0;" x1="1441.875" x2="1671.5" y1="424.6397" y2="424.6397"/><text fill="#000000" font-family="sans-serif" font-size="20" font-weight="bold" lengthAdjust="spacing" textLength="11.625" x="1453.875" y="416.7797">7</text><text fill="#000000" font-family="sans-serif" font-size="20" lengthAdjust="spacing" textLength="61" x="1469.5" y="416.7797">robots</text><polygon fill="#181818" points="889.25,461.8797,879.25,465.8797,889.25,469.8797,885.25,465.8797" style="stroke:#181818;stroke-width:1.0;"/><line style="stroke:#181818;stroke-width:1.0;stroke-dasharray:2.0,2.0;" x1="883.25" x2="1430.875" y1="465.8797" y2="465.8797"/><text fill="#000000" font-family="sans-serif" font-size="20" font-weight="bold" lengthAdjust="spacing" textLength="11.625" x="895.25" y="458.0197">8</text><text fill="#000000" font-family="sans-serif" font-size="20" lengthAdjust="spacing" textLength="61" x="910.875" y="458.0197">robots</text><polygon fill="#181818" points="703.25,503.1197,693.25,507.1197,703.25,511.1197,699.25,507.1197" style="stroke:#181818;stroke-width:1.0;"/><line style="stroke:#181818;stroke-width:1.0;stroke-dasharray:2.0,2.0;" x1="697.25" x2="872.25" y1="507.1197" y2="507.1197"/><text fill="#000000" font-family="sans-serif" font-size="20" font-weight="bold" lengthAdjust="spacing" textLength="11.625" x="709.25" y="499.2597">9</text><text fill="#000000" font-family="sans-serif" font-size="20" lengthAdjust="spacing" textLength="61" x="724.875" y="499.2597">robots</text><polygon fill="#181818" points="85,544.3596,75,548.3596,85,552.3596,81,548.3596" style="stroke:#181818;stroke-width:1.0;"/><line style="stroke:#181818;stroke-width:1.0;stroke-dasharray:2.0,2.0;" x1="79" x2="686.25" y1="548.3596" y2="548.3596"/><text fill="#000000" font-family="sans-serif" font-size="20" font-weight="bold" lengthAdjust="spacing" textLength="23.25" x="91" y="540.4997">10</text><text fill="#000000" font-family="sans-serif" font-size="20" lengthAdjust="spacing" textLength="552" x="118.25" y="540.4997">returns all devices robots with the designation or task given</text><!--SRC=[dP9FQzj04CNl-oa6zH3xO692JyO8WbMtXOg6s0q4SbbB4tdnQjTeHywVJz_PNTbId1H2Bq8hlVdDcpVhTihiPIDhROiTbb3YesmrBQsXbNf5k9eAsP8rRRt1HhYZ6hAeM-CpNMjLcHeDpUS5Fx59KuWlGiY2R0FB7AI3PAaH2N9fP8LD8ZRs6HAkuLPI6MnWjFWwJjC7SwTSAxLwbQIi6ISzLW1mTrA5saj3iCXl0lVFJrZOUcyDonBmnExG4S_AyjzPACjjsMhyHC7gzYuKhB0vgE8p5J_MwsZDltoeHrC21o3-dKAUTL7Lnx6w5BxyKjMMxb5h-tG-MXQJpj0RXLlRqbkxmywy6tMGXBmU8NX5apGaEcF2pW5PqCeHIAsXiHjB3XwLPWFALB1vuOlYUErXHS0h9YxgYSmHmiEOwUEUHLOlu8_2_-3_FjqPL1XRbS6vExPyKhG5sk97xQ1I1pGzaq72mvWPyW_GqSLbXxoCo8lnO7Al4oAelLDERmRVlwtXh6RWEyk5bqtw9bVJAOoYRYnAV2FjqASfEzn05Hq4swUitglyQ26kquxUQtoaVetpoUIeGMeRu_uprm4wh7DmvWlp5m00]--></g></svg>