<?xml version="1.0" encoding="UTF-8" standalone="no"?><svg xmlns="http://www.w3.org/2000/svg" xmlns:xlink="http://www.w3.org/1999/xlink" contentStyleType="text/css" height="445px" preserveAspectRatio="none" style="width:393px;height:445px;background:#FFFFFF;" version="1.1" viewBox="0 0 393 445" width="393px" zoomAndPan="magnify"><defs/><g><rect fill="#FFFFFF" height="290.4398" style="stroke:#181818;stroke-width:1.0;" width="10" x="187.625" y="90.4799"/><rect fill="#FFFFFF" height="28" style="stroke:#181818;stroke-width:1.0;" width="10" x="192.625" y="222.1999"/><rect fill="#FFFFFF" height="41.24" style="stroke:#181818;stroke-width:1.0;" width="10" x="361.25" y="131.7199"/><rect fill="#FFFFFF" height="41.24" style="stroke:#181818;stroke-width:1.0;" width="10" x="361.25" y="298.4398"/><line style="stroke:#181818;stroke-width:0.5;stroke-dasharray:5.0,5.0;" x1="192.625" x2="192.625" y1="47.24" y2="398.9198"/><line style="stroke:#181818;stroke-width:0.5;stroke-dasharray:5.0,5.0;" x1="366.25" x2="366.25" y1="47.24" y2="398.9198"/><rect fill="#E2E2F0" height="41.24" rx="2.5" ry="2.5" style="stroke:#181818;stroke-width:0.5;" width="38" x="173.625" y="5"/><text fill="#000000" font-family="sans-serif" font-size="20" lengthAdjust="spacing" textLength="24" x="180.625" y="33.38">BE</text><rect fill="#E2E2F0" height="41.24" rx="2.5" ry="2.5" style="stroke:#181818;stroke-width:0.5;" width="38" x="173.625" y="397.9198"/><text fill="#000000" font-family="sans-serif" font-size="20" lengthAdjust="spacing" textLength="24" x="180.625" y="426.2998">BE</text><rect fill="#E2E2F0" height="41.24" rx="2.5" ry="2.5" style="stroke:#181818;stroke-width:0.5;" width="42" x="345.25" y="5"/><text fill="#000000" font-family="sans-serif" font-size="20" lengthAdjust="spacing" textLength="28" x="352.25" y="33.38">DB</text><rect fill="#E2E2F0" height="41.24" rx="2.5" ry="2.5" style="stroke:#181818;stroke-width:0.5;" width="42" x="345.25" y="397.9198"/><text fill="#000000" font-family="sans-serif" font-size="20" lengthAdjust="spacing" textLength="28" x="352.25" y="426.2998">DB</text><rect fill="#FFFFFF" height="290.4398" style="stroke:#181818;stroke-width:1.0;" width="10" x="187.625" y="90.4799"/><rect fill="#FFFFFF" height="28" style="stroke:#181818;stroke-width:1.0;" width="10" x="192.625" y="222.1999"/><rect fill="#FFFFFF" height="41.24" style="stroke:#181818;stroke-width:1.0;" width="10" x="361.25" y="131.7199"/><rect fill="#FFFFFF" height="41.24" style="stroke:#181818;stroke-width:1.0;" width="10" x="361.25" y="298.4398"/><ellipse cx="4.5" cy="89.7299" fill="none" rx="4" ry="4" style="stroke:#181818;stroke-width:1.5;"/><polygon fill="#181818" points="175.625,86.4799,185.625,90.4799,175.625,94.4799,179.625,90.4799" style="stroke:#181818;stroke-width:1.0;"/><line style="stroke:#181818;stroke-width:1.0;" x1="9" x2="181.625" y1="90.4799" y2="90.4799"/><text fill="#000000" font-family="sans-serif" font-size="20" font-weight="bold" lengthAdjust="spacing" textLength="11.625" x="12" y="82.62">1</text><text fill="#000000" font-family="sans-serif" font-size="20" lengthAdjust="spacing" textLength="145" x="27.625" y="82.62">PATCH /devices</text><polygon fill="#181818" points="349.25,127.7199,359.25,131.7199,349.25,135.7199,353.25,131.7199" style="stroke:#181818;stroke-width:1.0;"/><line style="stroke:#181818;stroke-width:1.0;" x1="197.625" x2="355.25" y1="131.7199" y2="131.7199"/><text fill="#000000" font-family="sans-serif" font-size="20" font-weight="bold" lengthAdjust="spacing" textLength="11.625" x="204.625" y="123.8599">2</text><text fill="#000000" font-family="sans-serif" font-size="20" lengthAdjust="spacing" textLength="94" x="220.25" y="123.8599">get device</text><polygon fill="#181818" points="208.625,168.9599,198.625,172.9599,208.625,176.9599,204.625,172.9599" style="stroke:#181818;stroke-width:1.0;"/><line style="stroke:#181818;stroke-width:1.0;stroke-dasharray:2.0,2.0;" x1="202.625" x2="365.25" y1="172.9599" y2="172.9599"/><text fill="#000000" font-family="sans-serif" font-size="20" font-weight="bold" lengthAdjust="spacing" textLength="11.625" x="214.625" y="165.0999">3</text><text fill="#000000" font-family="sans-serif" font-size="20" lengthAdjust="spacing" textLength="59" x="230.25" y="165.0999">device</text><line style="stroke:#181818;stroke-width:1.0;" x1="202.625" x2="244.625" y1="214.1999" y2="214.1999"/><line style="stroke:#181818;stroke-width:1.0;" x1="244.625" x2="244.625" y1="214.1999" y2="227.1999"/><line style="stroke:#181818;stroke-width:1.0;" x1="203.625" x2="244.625" y1="227.1999" y2="227.1999"/><polygon fill="#181818" points="213.625,223.1999,203.625,227.1999,213.625,231.1999,209.625,227.1999" style="stroke:#181818;stroke-width:1.0;"/><text fill="#000000" font-family="sans-serif" font-size="20" font-weight="bold" lengthAdjust="spacing" textLength="11.625" x="209.625" y="206.3399">4</text><text fill="#000000" font-family="sans-serif" font-size="20" lengthAdjust="spacing" textLength="122" x="225.25" y="206.3399">inhibit device</text><polygon fill="#181818" points="349.25,294.4398,359.25,298.4398,349.25,302.4398,353.25,298.4398" style="stroke:#181818;stroke-width:1.0;"/><line style="stroke:#181818;stroke-width:1.0;" x1="197.625" x2="355.25" y1="298.4398" y2="298.4398"/><text fill="#000000" font-family="sans-serif" font-size="20" font-weight="bold" lengthAdjust="spacing" textLength="11.625" x="204.625" y="290.5799">5</text><text fill="#000000" font-family="sans-serif" font-size="20" lengthAdjust="spacing" textLength="129" x="220.25" y="290.5799">update device</text><polygon fill="#181818" points="208.625,335.6798,198.625,339.6798,208.625,343.6798,204.625,339.6798" style="stroke:#181818;stroke-width:1.0;"/><line style="stroke:#181818;stroke-width:1.0;stroke-dasharray:2.0,2.0;" x1="202.625" x2="365.25" y1="339.6798" y2="339.6798"/><text fill="#000000" font-family="sans-serif" font-size="20" font-weight="bold" lengthAdjust="spacing" textLength="11.625" x="214.625" y="331.8198">6</text><text fill="#000000" font-family="sans-serif" font-size="20" lengthAdjust="spacing" textLength="44" x="230.25" y="331.8198">floor</text><polygon fill="#181818" points="11,376.9198,1,380.9198,11,384.9198,7,380.9198" style="stroke:#181818;stroke-width:1.0;"/><line style="stroke:#181818;stroke-width:1.0;stroke-dasharray:2.0,2.0;" x1="5" x2="191.625" y1="380.9198" y2="380.9198"/><text fill="#000000" font-family="sans-serif" font-size="20" font-weight="bold" lengthAdjust="spacing" textLength="11.625" x="17" y="373.0598">7</text><text fill="#000000" font-family="sans-serif" font-size="20" lengthAdjust="spacing" textLength="66" x="32.625" y="373.0598">200 OK</text><!--SRC=[XOtB3e8m44Nt_Oe9Uo9XIOp62iR4XIRw0uKEEW5Q0YqBlzxoC28kNCwzP-vf2rArQ4HLwgn02H9pOKjpqCfSwOaG1anOevMjKcoO8mrbL0jbW2SWMl1uudt5CH_Yc7kCRRM_wRa8uBAxxO-majXHXYqJcQ5E67GjOuvmd7kCu8u6HkQ3n9ovpdzFJRN4EJ1j302f1wNqk-DKioTtpRosbdtuHvsNMZTByzhtnpOC0ZYV5euN]--></g></svg>