<?xml version="1.0" encoding="UTF-8" standalone="no"?><svg xmlns="http://www.w3.org/2000/svg" xmlns:xlink="http://www.w3.org/1999/xlink" contentStyleType="text/css" height="660px" preserveAspectRatio="none" style="width:1729px;height:660px;background:#FFFFFF;" version="1.1" viewBox="0 0 1729 660" width="1729px" zoomAndPan="magnify"><defs/><g><rect fill="#FFFFFF" height="505.6397" style="stroke:#181818;stroke-width:1.0;" width="10" x="240.25" y="90.4799"/><rect fill="#FFFFFF" height="423.1598" style="stroke:#181818;stroke-width:1.0;" width="10" x="523.875" y="131.7199"/><rect fill="#FFFFFF" height="340.6798" style="stroke:#181818;stroke-width:1.0;" width="10" x="807.5" y="172.9599"/><rect fill="#FFFFFF" height="41.24" style="stroke:#181818;stroke-width:1.0;" width="10" x="1078.125" y="214.1999"/><rect fill="#FFFFFF" height="30" style="stroke:#181818;stroke-width:1.0;" width="10" x="1078.125" y="348.9198"/><rect fill="#FFFFFF" height="41.24" style="stroke:#181818;stroke-width:1.0;" width="10" x="1368.125" y="420.1598"/><line style="stroke:#181818;stroke-width:0.5;stroke-dasharray:5.0,5.0;" x1="244.75" x2="244.75" y1="47.24" y2="614.1197"/><line style="stroke:#181818;stroke-width:0.5;stroke-dasharray:5.0,5.0;" x1="528.875" x2="528.875" y1="47.24" y2="614.1197"/><line style="stroke:#181818;stroke-width:0.5;stroke-dasharray:5.0,5.0;" x1="812" x2="812" y1="47.24" y2="614.1197"/><line style="stroke:#181818;stroke-width:0.5;stroke-dasharray:5.0,5.0;" x1="1083.125" x2="1083.125" y1="47.24" y2="614.1197"/><line style="stroke:#181818;stroke-width:0.5;stroke-dasharray:5.0,5.0;" x1="1229.125" x2="1229.125" y1="299.5598" y2="614.1197"/><line style="stroke:#181818;stroke-width:0.5;stroke-dasharray:5.0,5.0;" x1="1373.125" x2="1373.125" y1="47.24" y2="614.1197"/><line style="stroke:#181818;stroke-width:0.5;stroke-dasharray:5.0,5.0;" x1="1605.75" x2="1605.75" y1="464.2798" y2="614.1197"/><rect fill="#E2E2F0" height="41.24" rx="2.5" ry="2.5" style="stroke:#181818;stroke-width:0.5;" width="135" x="177.75" y="5"/><text fill="#000000" font-family="sans-serif" font-size="20" lengthAdjust="spacing" textLength="121" x="184.75" y="33.38">:DeviceRoute</text><rect fill="#E2E2F0" height="41.24" rx="2.5" ry="2.5" style="stroke:#181818;stroke-width:0.5;" width="135" x="177.75" y="613.1197"/><text fill="#000000" font-family="sans-serif" font-size="20" lengthAdjust="spacing" textLength="121" x="184.75" y="641.4997">:DeviceRoute</text><rect fill="#E2E2F0" height="41.24" rx="2.5" ry="2.5" style="stroke:#181818;stroke-width:0.5;" width="174" x="441.875" y="5"/><text fill="#000000" font-family="sans-serif" font-size="20" lengthAdjust="spacing" textLength="160" x="448.875" y="33.38">:DeviceController</text><rect fill="#E2E2F0" height="41.24" rx="2.5" ry="2.5" style="stroke:#181818;stroke-width:0.5;" width="174" x="441.875" y="613.1197"/><text fill="#000000" font-family="sans-serif" font-size="20" lengthAdjust="spacing" textLength="160" x="448.875" y="641.4997">:DeviceController</text><rect fill="#E2E2F0" height="41.24" rx="2.5" ry="2.5" style="stroke:#181818;stroke-width:0.5;" width="147" x="739" y="5"/><text fill="#000000" font-family="sans-serif" font-size="20" lengthAdjust="spacing" textLength="133" x="746" y="33.38">:DeviceService</text><rect fill="#E2E2F0" height="41.24" rx="2.5" ry="2.5" style="stroke:#181818;stroke-width:0.5;" width="147" x="739" y="613.1197"/><text fill="#000000" font-family="sans-serif" font-size="20" lengthAdjust="spacing" textLength="133" x="746" y="641.4997">:DeviceService</text><rect fill="#E2E2F0" height="41.24" rx="2.5" ry="2.5" style="stroke:#181818;stroke-width:0.5;" width="128" x="1019.125" y="5"/><text fill="#000000" font-family="sans-serif" font-size="20" lengthAdjust="spacing" textLength="114" x="1026.125" y="33.38">:DeviceRepo</text><rect fill="#E2E2F0" height="41.24" rx="2.5" ry="2.5" style="stroke:#181818;stroke-width:0.5;" width="128" x="1019.125" y="613.1197"/><text fill="#000000" font-family="sans-serif" font-size="20" lengthAdjust="spacing" textLength="114" x="1026.125" y="641.4997">:DeviceRepo</text><rect fill="#E2E2F0" height="41.24" rx="2.5" ry="2.5" style="stroke:#181818;stroke-width:0.5;" width="145" x="1157.125" y="613.1197"/><text fill="#000000" font-family="sans-serif" font-size="20" lengthAdjust="spacing" textLength="131" x="1164.125" y="641.4997">:device:Device</text><rect fill="#E2E2F0" height="41.24" rx="2.5" ry="2.5" style="stroke:#181818;stroke-width:0.5;" width="122" x="1312.125" y="5"/><text fill="#000000" font-family="sans-serif" font-size="20" lengthAdjust="spacing" textLength="108" x="1319.125" y="33.38">:DeviceMap</text><rect fill="#E2E2F0" height="41.24" rx="2.5" ry="2.5" style="stroke:#181818;stroke-width:0.5;" width="122" x="1312.125" y="613.1197"/><text fill="#000000" font-family="sans-serif" font-size="20" lengthAdjust="spacing" textLength="108" x="1319.125" y="641.4997">:DeviceMap</text><rect fill="#E2E2F0" height="41.24" rx="2.5" ry="2.5" style="stroke:#181818;stroke-width:0.5;" width="236" x="1487.75" y="613.1197"/><text fill="#000000" font-family="sans-serif" font-size="20" lengthAdjust="spacing" textLength="222" x="1494.75" y="641.4997">:deviceDTO:IDeviceDTO</text><rect fill="#FFFFFF" height="505.6397" style="stroke:#181818;stroke-width:1.0;" width="10" x="240.25" y="90.4799"/><rect fill="#FFFFFF" height="423.1598" style="stroke:#181818;stroke-width:1.0;" width="10" x="523.875" y="131.7199"/><rect fill="#FFFFFF" height="340.6798" style="stroke:#181818;stroke-width:1.0;" width="10" x="807.5" y="172.9599"/><rect fill="#FFFFFF" height="41.24" style="stroke:#181818;stroke-width:1.0;" width="10" x="1078.125" y="214.1999"/><rect fill="#FFFFFF" height="30" style="stroke:#181818;stroke-width:1.0;" width="10" x="1078.125" y="348.9198"/><rect fill="#FFFFFF" height="41.24" style="stroke:#181818;stroke-width:1.0;" width="10" x="1368.125" y="420.1598"/><ellipse cx="57.125" cy="89.7299" fill="none" rx="4" ry="4" style="stroke:#181818;stroke-width:1.5;"/><polygon fill="#181818" points="228.25,86.4799,238.25,90.4799,228.25,94.4799,232.25,90.4799" style="stroke:#181818;stroke-width:1.0;"/><line style="stroke:#181818;stroke-width:1.0;" x1="61.625" x2="234.25" y1="90.4799" y2="90.4799"/><text fill="#000000" font-family="sans-serif" font-size="20" font-weight="bold" lengthAdjust="spacing" textLength="11.625" x="64.625" y="82.62">1</text><text fill="#000000" font-family="sans-serif" font-size="20" lengthAdjust="spacing" textLength="145" x="80.25" y="82.62">PATCH /devices</text><polygon fill="#181818" points="511.875,127.7199,521.875,131.7199,511.875,135.7199,515.875,131.7199" style="stroke:#181818;stroke-width:1.0;"/><line style="stroke:#181818;stroke-width:1.0;" x1="250.25" x2="517.875" y1="131.7199" y2="131.7199"/><text fill="#000000" font-family="sans-serif" font-size="20" font-weight="bold" lengthAdjust="spacing" textLength="11.625" x="257.25" y="123.8599">2</text><text fill="#000000" font-family="sans-serif" font-size="20" lengthAdjust="spacing" textLength="239" x="272.875" y="123.8599">inhibitDevice(deviceCode)</text><polygon fill="#181818" points="795.5,168.9599,805.5,172.9599,795.5,176.9599,799.5,172.9599" style="stroke:#181818;stroke-width:1.0;"/><line style="stroke:#181818;stroke-width:1.0;" x1="533.875" x2="801.5" y1="172.9599" y2="172.9599"/><text fill="#000000" font-family="sans-serif" font-size="20" font-weight="bold" lengthAdjust="spacing" textLength="11.625" x="540.875" y="165.0999">3</text><text fill="#000000" font-family="sans-serif" font-size="20" lengthAdjust="spacing" textLength="239" x="556.5" y="165.0999">inhibitDevice(deviceCode)</text><polygon fill="#181818" points="1066.125,210.1999,1076.125,214.1999,1066.125,218.1999,1070.125,214.1999" style="stroke:#181818;stroke-width:1.0;"/><line style="stroke:#181818;stroke-width:1.0;" x1="817.5" x2="1072.125" y1="214.1999" y2="214.1999"/><text fill="#000000" font-family="sans-serif" font-size="20" font-weight="bold" lengthAdjust="spacing" textLength="11.625" x="824.5" y="206.3399">4</text><text fill="#000000" font-family="sans-serif" font-size="20" lengthAdjust="spacing" textLength="226" x="840.125" y="206.3399">findByCode(deviceCode)</text><polygon fill="#181818" points="828.5,251.4398,818.5,255.4398,828.5,259.4398,824.5,255.4398" style="stroke:#181818;stroke-width:1.0;"/><line style="stroke:#181818;stroke-width:1.0;stroke-dasharray:2.0,2.0;" x1="822.5" x2="1082.125" y1="255.4398" y2="255.4398"/><text fill="#000000" font-family="sans-serif" font-size="20" font-weight="bold" lengthAdjust="spacing" textLength="11.625" x="834.5" y="247.5799">5</text><text fill="#000000" font-family="sans-serif" font-size="20" lengthAdjust="spacing" textLength="59" x="850.125" y="247.5799">device</text><polygon fill="#181818" points="1145.125,292.6798,1155.125,296.6798,1145.125,300.6798,1149.125,296.6798" style="stroke:#181818;stroke-width:1.0;"/><line style="stroke:#181818;stroke-width:1.0;" x1="817.5" x2="1151.125" y1="296.6798" y2="296.6798"/><text fill="#000000" font-family="sans-serif" font-size="20" font-weight="bold" lengthAdjust="spacing" textLength="11.625" x="824.5" y="288.8198">6</text><text fill="#000000" font-family="sans-serif" font-size="20" lengthAdjust="spacing" textLength="292" x="840.125" y="288.8198">create(device, isAvailable=false)</text><rect fill="#E2E2F0" height="41.24" rx="2.5" ry="2.5" style="stroke:#181818;stroke-width:0.5;" width="145" x="1157.125" y="263.4398"/><text fill="#000000" font-family="sans-serif" font-size="20" lengthAdjust="spacing" textLength="131" x="1164.125" y="291.8198">:device:Device</text><polygon fill="#181818" points="1066.125,344.9198,1076.125,348.9198,1066.125,352.9198,1070.125,348.9198" style="stroke:#181818;stroke-width:1.0;"/><line style="stroke:#181818;stroke-width:1.0;" x1="817.5" x2="1072.125" y1="348.9198" y2="348.9198"/><text fill="#000000" font-family="sans-serif" font-size="20" font-weight="bold" lengthAdjust="spacing" textLength="11.625" x="824.5" y="341.0598">7</text><text fill="#000000" font-family="sans-serif" font-size="20" lengthAdjust="spacing" textLength="193" x="840.125" y="341.0598">save(updatedDevice)</text><polygon fill="#181818" points="1356.125,416.1598,1366.125,420.1598,1356.125,424.1598,1360.125,420.1598" style="stroke:#181818;stroke-width:1.0;"/><line style="stroke:#181818;stroke-width:1.0;" x1="817.5" x2="1362.125" y1="420.1598" y2="420.1598"/><text fill="#000000" font-family="sans-serif" font-size="20" font-weight="bold" lengthAdjust="spacing" textLength="11.625" x="824.5" y="412.2998">8</text><text fill="#000000" font-family="sans-serif" font-size="20" lengthAdjust="spacing" textLength="124" x="840.125" y="412.2998">toDto(device)</text><polygon fill="#181818" points="1475.75,457.3997,1485.75,461.3997,1475.75,465.3997,1479.75,461.3997" style="stroke:#181818;stroke-width:1.0;"/><line style="stroke:#181818;stroke-width:1.0;" x1="1373.125" x2="1481.75" y1="461.3997" y2="461.3997"/><text fill="#000000" font-family="sans-serif" font-size="20" font-weight="bold" lengthAdjust="spacing" textLength="11.625" x="1380.125" y="453.5398">9</text><text fill="#000000" font-family="sans-serif" font-size="20" lengthAdjust="spacing" textLength="70" x="1395.75" y="453.5398">create()</text><rect fill="#E2E2F0" height="41.24" rx="2.5" ry="2.5" style="stroke:#181818;stroke-width:0.5;" width="236" x="1487.75" y="428.1598"/><text fill="#000000" font-family="sans-serif" font-size="20" lengthAdjust="spacing" textLength="222" x="1494.75" y="456.5398">:deviceDTO:IDeviceDTO</text><polygon fill="#181818" points="544.875,509.6397,534.875,513.6397,544.875,517.6397,540.875,513.6397" style="stroke:#181818;stroke-width:1.0;"/><line style="stroke:#181818;stroke-width:1.0;stroke-dasharray:2.0,2.0;" x1="538.875" x2="811.5" y1="513.6397" y2="513.6397"/><text fill="#000000" font-family="sans-serif" font-size="20" font-weight="bold" lengthAdjust="spacing" textLength="23.25" x="550.875" y="505.7797">10</text><text fill="#000000" font-family="sans-serif" font-size="20" lengthAdjust="spacing" textLength="93" x="578.125" y="505.7797">deviceDto</text><polygon fill="#181818" points="261.25,550.8797,251.25,554.8797,261.25,558.8797,257.25,554.8797" style="stroke:#181818;stroke-width:1.0;"/><line style="stroke:#181818;stroke-width:1.0;stroke-dasharray:2.0,2.0;" x1="255.25" x2="527.875" y1="554.8797" y2="554.8797"/><text fill="#000000" font-family="sans-serif" font-size="20" font-weight="bold" lengthAdjust="spacing" textLength="23.25" x="267.25" y="547.0197">11</text><text fill="#000000" font-family="sans-serif" font-size="20" lengthAdjust="spacing" textLength="93" x="294.5" y="547.0197">deviceDto</text><polygon fill="#181818" points="11,592.1197,1,596.1197,11,600.1197,7,596.1197" style="stroke:#181818;stroke-width:1.0;"/><line style="stroke:#181818;stroke-width:1.0;stroke-dasharray:2.0,2.0;" x1="5" x2="244.25" y1="596.1197" y2="596.1197"/><text fill="#000000" font-family="sans-serif" font-size="20" font-weight="bold" lengthAdjust="spacing" textLength="23.25" x="17" y="588.2597">12</text><text fill="#000000" font-family="sans-serif" font-size="20" lengthAdjust="spacing" textLength="194" x="44.25" y="588.2597">200 OK (device JSON)</text><!--SRC=[ZPBBRi8m44Nt_WgB5Q2Y8fPH7w94LHzggGhxQeWdgeM98zk9r7vzRUm46q7RNUmvz_fcPlIMLpKes0bPR95HXYKqmjpBogpuDzBPb41ZPDNiDgY89GqlU0sLeKes1YbeEiXoR7c1x-vYa325jL5I25GnkEXlKrgZSkKONVchb6FxqeV2MYRls_Cfq3F-Ew0fjeCwzdc1-iZ6oDWZNo-pnxpx711oAoSteHqPVPkl5m_qqgEQG65u2xQohnDFMJpgJ4PvzSatt7ZF8GjDOZWwo0yyYQJMg6lQlrm2J3gHrSVDp6Z9AtRtvLId3IAwDxcQJ8vS_8am_5NNFpuUMqsXq8BXrGlAzRm5Bc0ZyBe4eMs8iw4rj3XiQcRrpF_zcSH_1tAha54ZSoD3bCZA5ea3N00ZuzIZsDfXlUNngCCAcIHCDvPuij5AdTH42-46qB6pwPGkdsa8JvzMozSad5_37m00]--></g></svg>