<?xml version="1.0" encoding="UTF-8" standalone="no"?><svg xmlns="http://www.w3.org/2000/svg" xmlns:xlink="http://www.w3.org/1999/xlink" contentStyleType="text/css" height="604px" preserveAspectRatio="none" style="width:1889px;height:604px;background:#FFFFFF;" version="1.1" viewBox="0 0 1889 604" width="1889px" zoomAndPan="magnify"><defs/><g><rect fill="#FFFFFF" height="462.0938" style="stroke:#181818;stroke-width:1.0;" width="10" x="268" y="82.5625"/><rect fill="#FFFFFF" height="387.5313" style="stroke:#181818;stroke-width:1.0;" width="10" x="579" y="119.8438"/><rect fill="#FFFFFF" height="312.9688" style="stroke:#181818;stroke-width:1.0;" width="10" x="890" y="157.125"/><rect fill="#FFFFFF" height="37.2813" style="stroke:#181818;stroke-width:1.0;" width="10" x="1184" y="194.4063"/><rect fill="#FFFFFF" height="30" style="stroke:#181818;stroke-width:1.0;" width="10" x="1184" y="317.25"/><rect fill="#FFFFFF" height="37.2813" style="stroke:#181818;stroke-width:1.0;" width="10" x="1500" y="384.5313"/><line style="stroke:#181818;stroke-width:0.5;stroke-dasharray:5.0,5.0;" x1="272.5" x2="272.5" y1="43.2813" y2="562.6563"/><line style="stroke:#181818;stroke-width:0.5;stroke-dasharray:5.0,5.0;" x1="583.5" x2="583.5" y1="43.2813" y2="562.6563"/><line style="stroke:#181818;stroke-width:0.5;stroke-dasharray:5.0,5.0;" x1="894.5" x2="894.5" y1="43.2813" y2="562.6563"/><line style="stroke:#181818;stroke-width:0.5;stroke-dasharray:5.0,5.0;" x1="1188.5" x2="1188.5" y1="43.2813" y2="562.6563"/><line style="stroke:#181818;stroke-width:0.5;stroke-dasharray:5.0,5.0;" x1="1350" x2="1350" y1="273.8281" y2="562.6563"/><line style="stroke:#181818;stroke-width:0.5;stroke-dasharray:5.0,5.0;" x1="1505" x2="1505" y1="43.2813" y2="562.6563"/><line style="stroke:#181818;stroke-width:0.5;stroke-dasharray:5.0,5.0;" x1="1757" x2="1757" y1="426.6719" y2="562.6563"/><rect fill="#E2E2F0" height="37.2813" rx="2.5" ry="2.5" style="stroke:#181818;stroke-width:0.5;" width="147" x="199.5" y="5"/><text fill="#000000" font-family="sans-serif" font-size="20" lengthAdjust="spacing" textLength="133" x="206.5" y="30.5645">:DeviceRoute</text><rect fill="#E2E2F0" height="37.2813" rx="2.5" ry="2.5" style="stroke:#181818;stroke-width:0.5;" width="147" x="199.5" y="561.6563"/><text fill="#000000" font-family="sans-serif" font-size="20" lengthAdjust="spacing" textLength="133" x="206.5" y="587.2207">:DeviceRoute</text><rect fill="#E2E2F0" height="37.2813" rx="2.5" ry="2.5" style="stroke:#181818;stroke-width:0.5;" width="187" x="490.5" y="5"/><text fill="#000000" font-family="sans-serif" font-size="20" lengthAdjust="spacing" textLength="173" x="497.5" y="30.5645">:DeviceController</text><rect fill="#E2E2F0" height="37.2813" rx="2.5" ry="2.5" style="stroke:#181818;stroke-width:0.5;" width="187" x="490.5" y="561.6563"/><text fill="#000000" font-family="sans-serif" font-size="20" lengthAdjust="spacing" textLength="173" x="497.5" y="587.2207">:DeviceController</text><rect fill="#E2E2F0" height="37.2813" rx="2.5" ry="2.5" style="stroke:#181818;stroke-width:0.5;" width="161" x="814.5" y="5"/><text fill="#000000" font-family="sans-serif" font-size="20" lengthAdjust="spacing" textLength="147" x="821.5" y="30.5645">:DeviceService</text><rect fill="#E2E2F0" height="37.2813" rx="2.5" ry="2.5" style="stroke:#181818;stroke-width:0.5;" width="161" x="814.5" y="561.6563"/><text fill="#000000" font-family="sans-serif" font-size="20" lengthAdjust="spacing" textLength="147" x="821.5" y="587.2207">:DeviceService</text><rect fill="#E2E2F0" height="37.2813" rx="2.5" ry="2.5" style="stroke:#181818;stroke-width:0.5;" width="139" x="1119.5" y="5"/><text fill="#000000" font-family="sans-serif" font-size="20" lengthAdjust="spacing" textLength="125" x="1126.5" y="30.5645">:DeviceRepo</text><rect fill="#E2E2F0" height="37.2813" rx="2.5" ry="2.5" style="stroke:#181818;stroke-width:0.5;" width="139" x="1119.5" y="561.6563"/><text fill="#000000" font-family="sans-serif" font-size="20" lengthAdjust="spacing" textLength="125" x="1126.5" y="587.2207">:DeviceRepo</text><rect fill="#E2E2F0" height="37.2813" rx="2.5" ry="2.5" style="stroke:#181818;stroke-width:0.5;" width="160" x="1270" y="561.6563"/><text fill="#000000" font-family="sans-serif" font-size="20" lengthAdjust="spacing" textLength="146" x="1277" y="587.2207">:device:Device</text><rect fill="#E2E2F0" height="37.2813" rx="2.5" ry="2.5" style="stroke:#181818;stroke-width:0.5;" width="130" x="1440" y="5"/><text fill="#000000" font-family="sans-serif" font-size="20" lengthAdjust="spacing" textLength="116" x="1447" y="30.5645">:DeviceMap</text><rect fill="#E2E2F0" height="37.2813" rx="2.5" ry="2.5" style="stroke:#181818;stroke-width:0.5;" width="130" x="1440" y="561.6563"/><text fill="#000000" font-family="sans-serif" font-size="20" lengthAdjust="spacing" textLength="116" x="1447" y="587.2207">:DeviceMap</text><rect fill="#E2E2F0" height="37.2813" rx="2.5" ry="2.5" style="stroke:#181818;stroke-width:0.5;" width="252" x="1631" y="561.6563"/><text fill="#000000" font-family="sans-serif" font-size="20" lengthAdjust="spacing" textLength="238" x="1638" y="587.2207">:deviceDTO:IDeviceDTO</text><rect fill="#FFFFFF" height="462.0938" style="stroke:#181818;stroke-width:1.0;" width="10" x="268" y="82.5625"/><rect fill="#FFFFFF" height="387.5313" style="stroke:#181818;stroke-width:1.0;" width="10" x="579" y="119.8438"/><rect fill="#FFFFFF" height="312.9688" style="stroke:#181818;stroke-width:1.0;" width="10" x="890" y="157.125"/><rect fill="#FFFFFF" height="37.2813" style="stroke:#181818;stroke-width:1.0;" width="10" x="1184" y="194.4063"/><rect fill="#FFFFFF" height="30" style="stroke:#181818;stroke-width:1.0;" width="10" x="1184" y="317.25"/><rect fill="#FFFFFF" height="37.2813" style="stroke:#181818;stroke-width:1.0;" width="10" x="1500" y="384.5313"/><ellipse cx="72.5" cy="81.8125" fill="none" rx="4" ry="4" style="stroke:#181818;stroke-width:1.5;"/><polygon fill="#181818" points="256,78.5625,266,82.5625,256,86.5625,260,82.5625" style="stroke:#181818;stroke-width:1.0;"/><line style="stroke:#181818;stroke-width:1.0;" x1="77" x2="262" y1="82.5625" y2="82.5625"/><text fill="#000000" font-family="sans-serif" font-size="20" font-weight="bold" lengthAdjust="spacing" textLength="14" x="80" y="75.8457">1</text><text fill="#000000" font-family="sans-serif" font-size="20" lengthAdjust="spacing" textLength="155" x="98" y="75.8457">PATCH /devices</text><polygon fill="#181818" points="567,115.8438,577,119.8438,567,123.8438,571,119.8438" style="stroke:#181818;stroke-width:1.0;"/><line style="stroke:#181818;stroke-width:1.0;" x1="278" x2="573" y1="119.8438" y2="119.8438"/><text fill="#000000" font-family="sans-serif" font-size="20" font-weight="bold" lengthAdjust="spacing" textLength="14" x="285" y="113.127">2</text><text fill="#000000" font-family="sans-serif" font-size="20" lengthAdjust="spacing" textLength="264" x="303" y="113.127">inhibitDevice(deviceCode)</text><polygon fill="#181818" points="878,153.125,888,157.125,878,161.125,882,157.125" style="stroke:#181818;stroke-width:1.0;"/><line style="stroke:#181818;stroke-width:1.0;" x1="589" x2="884" y1="157.125" y2="157.125"/><text fill="#000000" font-family="sans-serif" font-size="20" font-weight="bold" lengthAdjust="spacing" textLength="14" x="596" y="150.4082">3</text><text fill="#000000" font-family="sans-serif" font-size="20" lengthAdjust="spacing" textLength="264" x="614" y="150.4082">inhibitDevice(deviceCode)</text><polygon fill="#181818" points="1172,190.4063,1182,194.4063,1172,198.4063,1176,194.4063" style="stroke:#181818;stroke-width:1.0;"/><line style="stroke:#181818;stroke-width:1.0;" x1="900" x2="1178" y1="194.4063" y2="194.4063"/><text fill="#000000" font-family="sans-serif" font-size="20" font-weight="bold" lengthAdjust="spacing" textLength="14" x="907" y="187.6895">4</text><text fill="#000000" font-family="sans-serif" font-size="20" lengthAdjust="spacing" textLength="247" x="925" y="187.6895">findByCode(deviceCode)</text><polygon fill="#181818" points="911,227.6875,901,231.6875,911,235.6875,907,231.6875" style="stroke:#181818;stroke-width:1.0;"/><line style="stroke:#181818;stroke-width:1.0;stroke-dasharray:2.0,2.0;" x1="905" x2="1188" y1="231.6875" y2="231.6875"/><text fill="#000000" font-family="sans-serif" font-size="20" font-weight="bold" lengthAdjust="spacing" textLength="14" x="917" y="224.9707">5</text><text fill="#000000" font-family="sans-serif" font-size="20" lengthAdjust="spacing" textLength="65" x="935" y="224.9707">device</text><polygon fill="#181818" points="1258,264.9688,1268,268.9688,1258,272.9688,1262,268.9688" style="stroke:#181818;stroke-width:1.0;"/><line style="stroke:#181818;stroke-width:1.0;" x1="900" x2="1264" y1="268.9688" y2="268.9688"/><text fill="#000000" font-family="sans-serif" font-size="20" font-weight="bold" lengthAdjust="spacing" textLength="14" x="907" y="262.252">6</text><text fill="#000000" font-family="sans-serif" font-size="20" lengthAdjust="spacing" textLength="328" x="925" y="262.252">create(device, isAvailable=false)</text><rect fill="#E2E2F0" height="37.2813" rx="2.5" ry="2.5" style="stroke:#181818;stroke-width:0.5;" width="160" x="1270" y="239.6875"/><text fill="#000000" font-family="sans-serif" font-size="20" lengthAdjust="spacing" textLength="146" x="1277" y="265.252">:device:Device</text><polygon fill="#181818" points="1172,313.25,1182,317.25,1172,321.25,1176,317.25" style="stroke:#181818;stroke-width:1.0;"/><line style="stroke:#181818;stroke-width:1.0;" x1="900" x2="1178" y1="317.25" y2="317.25"/><text fill="#000000" font-family="sans-serif" font-size="20" font-weight="bold" lengthAdjust="spacing" textLength="14" x="907" y="310.5332">7</text><text fill="#000000" font-family="sans-serif" font-size="20" lengthAdjust="spacing" textLength="212" x="925" y="310.5332">save(updatedDevice)</text><polygon fill="#181818" points="1488,380.5313,1498,384.5313,1488,388.5313,1492,384.5313" style="stroke:#181818;stroke-width:1.0;"/><line style="stroke:#181818;stroke-width:1.0;" x1="900" x2="1494" y1="384.5313" y2="384.5313"/><text fill="#000000" font-family="sans-serif" font-size="20" font-weight="bold" lengthAdjust="spacing" textLength="14" x="907" y="377.8145">8</text><text fill="#000000" font-family="sans-serif" font-size="20" lengthAdjust="spacing" textLength="136" x="925" y="377.8145">toDto(device)</text><polygon fill="#181818" points="1619,417.8125,1629,421.8125,1619,425.8125,1623,421.8125" style="stroke:#181818;stroke-width:1.0;"/><line style="stroke:#181818;stroke-width:1.0;" x1="1505" x2="1625" y1="421.8125" y2="421.8125"/><text fill="#000000" font-family="sans-serif" font-size="20" font-weight="bold" lengthAdjust="spacing" textLength="14" x="1512" y="415.0957">9</text><text fill="#000000" font-family="sans-serif" font-size="20" lengthAdjust="spacing" textLength="79" x="1530" y="415.0957">create()</text><rect fill="#E2E2F0" height="37.2813" rx="2.5" ry="2.5" style="stroke:#181818;stroke-width:0.5;" width="252" x="1631" y="392.5313"/><text fill="#000000" font-family="sans-serif" font-size="20" lengthAdjust="spacing" textLength="238" x="1638" y="418.0957">:deviceDTO:IDeviceDTO</text><polygon fill="#181818" points="600,466.0938,590,470.0938,600,474.0938,596,470.0938" style="stroke:#181818;stroke-width:1.0;"/><line style="stroke:#181818;stroke-width:1.0;stroke-dasharray:2.0,2.0;" x1="594" x2="894" y1="470.0938" y2="470.0938"/><text fill="#000000" font-family="sans-serif" font-size="20" font-weight="bold" lengthAdjust="spacing" textLength="28" x="606" y="463.377">10</text><text fill="#000000" font-family="sans-serif" font-size="20" lengthAdjust="spacing" textLength="100" x="638" y="463.377">deviceDto</text><polygon fill="#181818" points="289,503.375,279,507.375,289,511.375,285,507.375" style="stroke:#181818;stroke-width:1.0;"/><line style="stroke:#181818;stroke-width:1.0;stroke-dasharray:2.0,2.0;" x1="283" x2="583" y1="507.375" y2="507.375"/><text fill="#000000" font-family="sans-serif" font-size="20" font-weight="bold" lengthAdjust="spacing" textLength="28" x="295" y="500.6582">11</text><text fill="#000000" font-family="sans-serif" font-size="20" lengthAdjust="spacing" textLength="100" x="327" y="500.6582">deviceDto</text><polygon fill="#181818" points="11,540.6563,1,544.6563,11,548.6563,7,544.6563" style="stroke:#181818;stroke-width:1.0;"/><line style="stroke:#181818;stroke-width:1.0;stroke-dasharray:2.0,2.0;" x1="5" x2="272" y1="544.6563" y2="544.6563"/><text fill="#000000" font-family="sans-serif" font-size="20" font-weight="bold" lengthAdjust="spacing" textLength="28" x="17" y="537.9395">12</text><text fill="#000000" font-family="sans-serif" font-size="20" lengthAdjust="spacing" textLength="217" x="49" y="537.9395">200 OK (device JSON)</text><!--SRC=[ZPBBRi8m44Nt_WgB5Q2Y8fPH7w94LHzggGhxQeWdgeM98zk9r7vzRUm46q7RNUmvz_fcPlIMLpKes0bPR95HXYKqmjpBogpuDzBPb41ZPDNiDgY89GqlU0sLeKes1YbeEiXoR7c1x-vYa325jL5I25GnkEXlKrgZSkKONVchb6FxqeV2MYRls_Cfq3F-Ew0fjeCwzdc1-iZ6oDWZNo-pnxpx711oAoSteHqPVPkl5m_qqgEQG65u2xQohnDFMJpgJ4PvzSatt7ZF8GjDOZWwo0yyYQJMg6lQlrm2J3gHrSVDp6Z9AtRtvLId3IAwDxcQJ8vS_8am_5NNFpuUMqsXq8BXrGlAzRm5Bc0ZyBe4eMs8iw4rj3XiQcRrpF_zcSH_1tAha54ZSoD3bCZA5ea3N00ZuzIZsDfXlUNngCCAcIHCDvPuij5AdTH42-46qB6pwPGkdsa8JvzMozSad5_37m00]--></g></svg>