<?xml version="1.0" encoding="UTF-8" standalone="no"?><svg xmlns="http://www.w3.org/2000/svg" xmlns:xlink="http://www.w3.org/1999/xlink" contentStyleType="text/css" height="606px" preserveAspectRatio="none" style="width:1034px;height:606px;background:#FFFFFF;" version="1.1" viewBox="0 0 1034 606" width="1034px" zoomAndPan="magnify"><defs/><g><rect fill="#DDDDDD" height="594.0699" style="stroke:#181818;stroke-width:0.5;" width="407" x="431.5" y="6"/><text fill="#000000" font-family="sans-serif" font-size="13" font-weight="bold" lengthAdjust="spacing" textLength="107" x="581.5" y="19.897">«container (C4)»</text><text fill="#000000" font-family="sans-serif" font-size="13" font-weight="bold" lengthAdjust="spacing" textLength="84" x="593" y="37.603">Visualization</text><rect fill="#FFFFE0" height="594.0699" style="stroke:#181818;stroke-width:0.5;" width="130" x="891" y="6"/><text fill="#000000" font-family="sans-serif" font-size="13" font-weight="bold" lengthAdjust="spacing" textLength="107" x="902.5" y="19.897">«container (C4)»</text><text fill="#000000" font-family="sans-serif" font-size="13" font-weight="bold" lengthAdjust="spacing" textLength="114" x="899" y="37.603">MD Management</text><rect fill="#FFFFFF" height="399.4541" style="stroke:#181818;stroke-width:1.0;" width="10" x="78" y="108.5479"/><rect fill="#FFFFFF" height="31.706" style="stroke:#181818;stroke-width:1.0;" width="10" x="511" y="132.2539"/><rect fill="#FFFFFF" height="297.336" style="stroke:#181818;stroke-width:1.0;" width="10" x="511" y="195.6659"/><rect fill="#FFFFFF" height="121.8241" style="stroke:#181818;stroke-width:1.0;" width="10" x="764" y="227.3719"/><rect fill="#FFFFFF" height="80.3939" style="stroke:#181818;stroke-width:1.0;" width="10" x="764" y="380.902"/><rect fill="#FFFFFF" height="58.412" style="stroke:#181818;stroke-width:1.0;" width="10" x="951" y="259.0779"/><rect fill="#FFFFFF" height="48.6879" style="stroke:#181818;stroke-width:1.0;" width="10" x="951" y="380.902"/><rect fill="none" height="226.924" style="stroke:#000000;stroke-width:1.5;" width="1017" x="10" y="274.0779"/><line style="stroke:#181818;stroke-width:0.5;stroke-dasharray:5.0,5.0;" x1="83" x2="83" y1="98.5479" y2="518.002"/><line style="stroke:#181818;stroke-width:0.5;stroke-dasharray:5.0,5.0;" x1="515.5" x2="515.5" y1="98.5479" y2="518.002"/><line style="stroke:#181818;stroke-width:0.5;stroke-dasharray:5.0,5.0;" x1="768.5" x2="768.5" y1="98.5479" y2="518.002"/><line style="stroke:#181818;stroke-width:0.5;stroke-dasharray:5.0,5.0;" x1="956" x2="956" y1="98.5479" y2="518.002"/><text fill="#000000" font-family="sans-serif" font-size="14" lengthAdjust="spacing" textLength="120" x="20" y="94.4459">Campus Manager</text><ellipse cx="83" cy="27.9799" fill="#E2E2F0" rx="8" ry="8" style="stroke:#181818;stroke-width:0.5;"/><path d="M83,35.9799 L83,62.9799 M70,43.9799 L96,43.9799 M83,62.9799 L70,77.9799 M83,62.9799 L96,77.9799 " fill="none" style="stroke:#181818;stroke-width:0.5;"/><text fill="#000000" font-family="sans-serif" font-size="14" lengthAdjust="spacing" textLength="120" x="20" y="531.9679">Campus Manager</text><ellipse cx="83" cy="544.5699" fill="#E2E2F0" rx="8" ry="8" style="stroke:#181818;stroke-width:0.5;"/><path d="M83,552.5699 L83,579.5699 M70,560.5699 L96,560.5699 M83,579.5699 L70,594.5699 M83,579.5699 L96,594.5699 " fill="none" style="stroke:#181818;stroke-width:0.5;"/><rect fill="#E2E2F0" height="52.1358" rx="2.5" ry="2.5" style="stroke:#181818;stroke-width:0.5;" width="161" x="435.5" y="45.412"/><text fill="#000000" font-family="sans-serif" font-size="14" font-style="italic" lengthAdjust="spacing" textLength="84" x="474" y="67.378">«component»</text><text fill="#000000" font-family="sans-serif" font-size="14" lengthAdjust="spacing" textLength="147" x="442.5" y="86.4459">ConnectorComponent</text><rect fill="#E2E2F0" height="52.1358" rx="2.5" ry="2.5" style="stroke:#181818;stroke-width:0.5;" width="161" x="435.5" y="517.002"/><text fill="#000000" font-family="sans-serif" font-size="14" font-style="italic" lengthAdjust="spacing" textLength="84" x="474" y="538.9679">«component»</text><text fill="#000000" font-family="sans-serif" font-size="14" lengthAdjust="spacing" textLength="147" x="442.5" y="558.0358">ConnectorComponent</text><rect fill="#E2E2F0" height="52.1358" rx="2.5" ry="2.5" style="stroke:#181818;stroke-width:0.5;" width="131" x="703.5" y="45.412"/><text fill="#000000" font-family="sans-serif" font-size="14" font-style="italic" lengthAdjust="spacing" textLength="84" x="727" y="67.378">«component»</text><text fill="#000000" font-family="sans-serif" font-size="14" lengthAdjust="spacing" textLength="117" x="710.5" y="86.4459">ConnectorService</text><rect fill="#E2E2F0" height="52.1358" rx="2.5" ry="2.5" style="stroke:#181818;stroke-width:0.5;" width="131" x="703.5" y="517.002"/><text fill="#000000" font-family="sans-serif" font-size="14" font-style="italic" lengthAdjust="spacing" textLength="84" x="727" y="538.9679">«component»</text><text fill="#000000" font-family="sans-serif" font-size="14" lengthAdjust="spacing" textLength="117" x="710.5" y="558.0358">ConnectorService</text><rect fill="#E2E2F0" height="52.1358" rx="2.5" ry="2.5" style="stroke:#181818;stroke-width:0.5;" width="122" x="895" y="45.412"/><text fill="#000000" font-family="sans-serif" font-size="14" font-style="italic" lengthAdjust="spacing" textLength="84" x="914" y="67.378">«component»</text><text fill="#000000" font-family="sans-serif" font-size="14" lengthAdjust="spacing" textLength="108" x="902" y="86.4459">ConnectorRoute</text><rect fill="#E2E2F0" height="52.1358" rx="2.5" ry="2.5" style="stroke:#181818;stroke-width:0.5;" width="122" x="895" y="517.002"/><text fill="#000000" font-family="sans-serif" font-size="14" font-style="italic" lengthAdjust="spacing" textLength="84" x="914" y="538.9679">«component»</text><text fill="#000000" font-family="sans-serif" font-size="14" lengthAdjust="spacing" textLength="108" x="902" y="558.0358">ConnectorRoute</text><rect fill="#FFFFFF" height="399.4541" style="stroke:#181818;stroke-width:1.0;" width="10" x="78" y="108.5479"/><rect fill="#FFFFFF" height="31.706" style="stroke:#181818;stroke-width:1.0;" width="10" x="511" y="132.2539"/><rect fill="#FFFFFF" height="297.336" style="stroke:#181818;stroke-width:1.0;" width="10" x="511" y="195.6659"/><rect fill="#FFFFFF" height="121.8241" style="stroke:#181818;stroke-width:1.0;" width="10" x="764" y="227.3719"/><rect fill="#FFFFFF" height="80.3939" style="stroke:#181818;stroke-width:1.0;" width="10" x="764" y="380.902"/><rect fill="#FFFFFF" height="58.412" style="stroke:#181818;stroke-width:1.0;" width="10" x="951" y="259.0779"/><rect fill="#FFFFFF" height="48.6879" style="stroke:#181818;stroke-width:1.0;" width="10" x="951" y="380.902"/><polygon fill="#181818" points="499,128.2539,509,132.2539,499,136.2539,503,132.2539" style="stroke:#181818;stroke-width:1.0;"/><line style="stroke:#181818;stroke-width:1.0;" x1="88" x2="505" y1="132.2539" y2="132.2539"/><text fill="#000000" font-family="sans-serif" font-size="13" font-weight="bold" lengthAdjust="spacing" textLength="7" x="95" y="126.4449">1</text><text fill="#000000" font-family="sans-serif" font-size="13" lengthAdjust="spacing" textLength="318" x="106" y="126.4449">wants to list floors with connectors to other buildings</text><polygon fill="#181818" points="99,159.9599,89,163.9599,99,167.9599,95,163.9599" style="stroke:#181818;stroke-width:1.0;"/><line style="stroke:#181818;stroke-width:1.0;stroke-dasharray:2.0,2.0;" x1="93" x2="515" y1="163.9599" y2="163.9599"/><text fill="#000000" font-family="sans-serif" font-size="13" font-weight="bold" lengthAdjust="spacing" textLength="7" x="105" y="158.1509">2</text><text fill="#000000" font-family="sans-serif" font-size="13" lengthAdjust="spacing" textLength="276" x="116" y="158.1509">asks for the connector code, floors 1 &amp; 2 codes</text><polygon fill="#181818" points="499,191.6659,509,195.6659,499,199.6659,503,195.6659" style="stroke:#181818;stroke-width:1.0;"/><line style="stroke:#181818;stroke-width:1.0;" x1="88" x2="505" y1="195.6659" y2="195.6659"/><text fill="#000000" font-family="sans-serif" font-size="13" font-weight="bold" lengthAdjust="spacing" textLength="7" x="95" y="189.8569">3</text><text fill="#000000" font-family="sans-serif" font-size="13" lengthAdjust="spacing" textLength="93" x="106" y="189.8569">inserts the data</text><polygon fill="#181818" points="752,223.3719,762,227.3719,752,231.3719,756,227.3719" style="stroke:#181818;stroke-width:1.0;"/><line style="stroke:#181818;stroke-width:1.0;" x1="521" x2="758" y1="227.3719" y2="227.3719"/><text fill="#000000" font-family="sans-serif" font-size="13" font-weight="bold" lengthAdjust="spacing" textLength="7" x="528" y="221.5629">4</text><text fill="#000000" font-family="sans-serif" font-size="13" lengthAdjust="spacing" textLength="213" x="539" y="221.5629">createConnector(code,floor1,floor2)</text><polygon fill="#181818" points="939,255.0779,949,259.0779,939,263.0779,943,259.0779" style="stroke:#181818;stroke-width:1.0;"/><line style="stroke:#181818;stroke-width:1.0;" x1="774" x2="945" y1="259.0779" y2="259.0779"/><text fill="#000000" font-family="sans-serif" font-size="13" font-weight="bold" lengthAdjust="spacing" textLength="7" x="781" y="253.2689">5</text><text fill="#000000" font-family="sans-serif" font-size="13" lengthAdjust="spacing" textLength="147" x="792" y="253.2689">POST /connectors {data}</text><path d="M10,274.0779 L73,274.0779 L73,283.784 L63,293.784 L10,293.784 L10,274.0779 " fill="#EEEEEE" style="stroke:#000000;stroke-width:1.5;"/><rect fill="none" height="226.924" style="stroke:#000000;stroke-width:1.5;" width="1017" x="10" y="274.0779"/><text fill="#000000" font-family="sans-serif" font-size="13" font-weight="bold" lengthAdjust="spacing" textLength="18" x="25" y="288.975">alt</text><text fill="#000000" font-family="sans-serif" font-size="11" font-weight="bold" lengthAdjust="spacing" textLength="159" x="88" y="287.8369">[a new connector is created]</text><polygon fill="#181818" points="785,313.49,775,317.49,785,321.49,781,317.49" style="stroke:#181818;stroke-width:1.0;"/><line style="stroke:#181818;stroke-width:1.0;stroke-dasharray:2.0,2.0;" x1="779" x2="955" y1="317.49" y2="317.49"/><text fill="#000000" font-family="sans-serif" font-size="13" font-weight="bold" lengthAdjust="spacing" textLength="7" x="791" y="311.681">6</text><text fill="#000000" font-family="sans-serif" font-size="13" lengthAdjust="spacing" textLength="71" x="802" y="311.681">201 Created</text><polygon fill="#181818" points="532,345.196,522,349.196,532,353.196,528,349.196" style="stroke:#181818;stroke-width:1.0;"/><line style="stroke:#181818;stroke-width:1.0;stroke-dasharray:2.0,2.0;" x1="526" x2="768" y1="349.196" y2="349.196"/><text fill="#000000" font-family="sans-serif" font-size="13" font-weight="bold" lengthAdjust="spacing" textLength="7" x="538" y="343.387">7</text><text fill="#000000" font-family="sans-serif" font-size="13" lengthAdjust="spacing" textLength="112" x="549" y="343.387">the new connector</text><polygon fill="#181818" points="99,376.902,89,380.902,99,384.902,95,380.902" style="stroke:#181818;stroke-width:1.0;"/><line style="stroke:#181818;stroke-width:1.0;stroke-dasharray:2.0,2.0;" x1="93" x2="510" y1="380.902" y2="380.902"/><text fill="#000000" font-family="sans-serif" font-size="13" font-weight="bold" lengthAdjust="spacing" textLength="7" x="105" y="375.093">8</text><text fill="#000000" font-family="sans-serif" font-size="13" lengthAdjust="spacing" textLength="217" x="116" y="375.093">informs the success of the operation</text><line style="stroke:#000000;stroke-width:1.0;stroke-dasharray:2.0,2.0;" x1="10" x2="1027" y1="389.902" y2="389.902"/><text fill="#000000" font-family="sans-serif" font-size="11" font-weight="bold" lengthAdjust="spacing" textLength="240" x="15" y="401.6609">[there is a connector between those floors]</text><polygon fill="#181818" points="785,425.5899,775,429.5899,785,433.5899,781,429.5899" style="stroke:#181818;stroke-width:1.0;"/><line style="stroke:#181818;stroke-width:1.0;stroke-dasharray:2.0,2.0;" x1="779" x2="955" y1="429.5899" y2="429.5899"/><text fill="#000000" font-family="sans-serif" font-size="13" font-weight="bold" lengthAdjust="spacing" textLength="7" x="791" y="423.7809">9</text><text fill="#000000" font-family="sans-serif" font-size="13" lengthAdjust="spacing" textLength="99" x="802" y="423.7809">400 Bad Request</text><polygon fill="#181818" points="532,457.2959,522,461.2959,532,465.2959,528,461.2959" style="stroke:#181818;stroke-width:1.0;"/><line style="stroke:#181818;stroke-width:1.0;stroke-dasharray:2.0,2.0;" x1="526" x2="768" y1="461.2959" y2="461.2959"/><text fill="#000000" font-family="sans-serif" font-size="13" font-weight="bold" lengthAdjust="spacing" textLength="14" x="538" y="455.4869">10</text><text fill="#000000" font-family="sans-serif" font-size="13" lengthAdjust="spacing" textLength="30" x="556" y="455.4869">error</text><polygon fill="#181818" points="99,489.002,89,493.002,99,497.002,95,493.002" style="stroke:#181818;stroke-width:1.0;"/><line style="stroke:#181818;stroke-width:1.0;stroke-dasharray:2.0,2.0;" x1="93" x2="515" y1="493.002" y2="493.002"/><text fill="#000000" font-family="sans-serif" font-size="13" font-weight="bold" lengthAdjust="spacing" textLength="14" x="105" y="487.1929">11</text><text fill="#000000" font-family="sans-serif" font-size="13" lengthAdjust="spacing" textLength="381" x="123" y="487.1929">shows error message "A connector exists between those floors."</text><!--MD5=[c6b9952002f3bd023217fe968f931d5d]
@startuml process-view
autonumber
skinparam DefaultTextAlignment<<center>> center

actor CM as "Campus Manager"

box "«container (C4)»\nVisualization" <<center>>
  participant C as "ConnectorComponent" <<component>>
  participant SVC as "ConnectorService" <<component>>
end box

box "«container (C4)»\n MD Management " <<center>>#LightYellow
  participant ROUTE as "ConnectorRoute" <<component>>
end box

activate CM

CM -> C : wants to list floors with connectors to other buildings
activate C

CM <- - C : asks for the connector code, floors 1 & 2 codes
deactivate C

CM -> C : inserts the data
activate C

C -> SVC : createConnector(code,floor1,floor2)
activate SVC

SVC -> ROUTE : POST /connectors {data}
activate ROUTE

alt a new connector is created
  SVC <- - ROUTE : 201 Created
  deactivate ROUTE

  C <- - SVC : the new connector
  deactivate SVC

  CM <- - C : informs the success of the operation
else there is a connector between those floors
  activate SVC
  activate ROUTE

  SVC <- - ROUTE : 400 Bad Request
  deactivate ROUTE

  C <- - SVC : error
  deactivate SVC

  CM <- - C : shows error message "A connector exists between those floors."
  deactivate C
end

deactivate CM

@enduml

PlantUML version 1.2022.7(Mon Aug 22 18:01:30 WEST 2022)
(GPL source distribution)
Java Runtime: OpenJDK Runtime Environment
JVM: OpenJDK 64-Bit Server VM
Default Encoding: UTF-8
Language: en
Country: GB
--></g></svg>