<?xml version="1.0" encoding="UTF-8" standalone="no"?><svg xmlns="http://www.w3.org/2000/svg" xmlns:xlink="http://www.w3.org/1999/xlink" contentStyleType="text/css" height="1120px" preserveAspectRatio="none" style="width:1992px;height:1120px;background:#FFFFFF;" version="1.1" viewBox="0 0 1992 1120" width="1992px" zoomAndPan="magnify"><defs/><g><rect fill="#DDDDDD" height="1108.2393" style="stroke:#181818;stroke-width:0.5;" width="985.625" x="686.25" y="6"/><text fill="#000000" font-family="sans-serif" font-size="20" font-weight="bold" lengthAdjust="spacing" textLength="158.375" x="1099.875" y="27.38">«container (C4)»</text><text fill="#000000" font-family="sans-serif" font-size="20" font-weight="bold" lengthAdjust="spacing" textLength="124.125" x="1117" y="54.62">Visualization</text><rect fill="#FFFFE0" height="1108.2393" style="stroke:#181818;stroke-width:0.5;" width="185.5" x="1800.5" y="6"/><text fill="#000000" font-family="sans-serif" font-size="20" font-weight="bold" lengthAdjust="spacing" textLength="158.375" x="1814.0625" y="27.38">«container (C4)»</text><text fill="#000000" font-family="sans-serif" font-size="20" font-weight="bold" lengthAdjust="spacing" textLength="169.5" x="1808.5" y="54.62">MD Management</text><rect fill="#FFFFFF" height="870.0395" style="stroke:#181818;stroke-width:1.0;" width="10" x="100.5" y="143.9599"/><rect fill="#FFFFFF" height="41.24" style="stroke:#181818;stroke-width:1.0;" width="10" x="760.75" y="177.1999"/><rect fill="#FFFFFF" height="739.3195" style="stroke:#181818;stroke-width:1.0;" width="10" x="760.75" y="259.6798"/><rect fill="#FFFFFF" height="421.3997" style="stroke:#181818;stroke-width:1.0;" width="10" x="984" y="300.9198"/><rect fill="#FFFFFF" height="28" style="stroke:#181818;stroke-width:1.0;" width="10" x="989" y="350.1598"/><rect fill="#FFFFFF" height="194.1999" style="stroke:#181818;stroke-width:1.0;" width="10" x="984" y="763.5595"/><rect fill="#FFFFFF" height="254.6798" style="stroke:#181818;stroke-width:1.0;" width="10" x="1360.625" y="426.3997"/><rect fill="#FFFFFF" height="152.9599" style="stroke:#181818;stroke-width:1.0;" width="10" x="1360.625" y="763.5595"/><rect fill="#FFFFFF" height="172.1999" style="stroke:#181818;stroke-width:1.0;" width="10" x="1594.875" y="467.6397"/><rect fill="#FFFFFF" height="111.7199" style="stroke:#181818;stroke-width:1.0;" width="10" x="1594.875" y="763.5595"/><rect fill="#FFFFFF" height="89.7199" style="stroke:#181818;stroke-width:1.0;" width="10" x="1888.25" y="508.8797"/><rect fill="#FFFFFF" height="70.4799" style="stroke:#181818;stroke-width:1.0;" width="10" x="1888.25" y="763.5595"/><rect fill="none" height="483.1197" style="stroke:#000000;stroke-width:1.5;" width="1961.25" x="10" y="523.8797"/><line style="stroke:#181818;stroke-width:0.5;stroke-dasharray:5.0,5.0;" x1="105" x2="105" y1="133.9599" y2="1023.9994"/><line style="stroke:#181818;stroke-width:0.5;stroke-dasharray:5.0,5.0;" x1="765.25" x2="765.25" y1="133.9599" y2="1023.9994"/><line style="stroke:#181818;stroke-width:0.5;stroke-dasharray:5.0,5.0;" x1="989" x2="989" y1="133.9599" y2="1023.9994"/><line style="stroke:#181818;stroke-width:0.5;stroke-dasharray:5.0,5.0;" x1="1365.625" x2="1365.625" y1="133.9599" y2="1023.9994"/><line style="stroke:#181818;stroke-width:0.5;stroke-dasharray:5.0,5.0;" x1="1599.875" x2="1599.875" y1="133.9599" y2="1023.9994"/><line style="stroke:#181818;stroke-width:0.5;stroke-dasharray:5.0,5.0;" x1="1893.25" x2="1893.25" y1="133.9599" y2="1023.9994"/><text fill="#000000" font-family="sans-serif" font-size="20" lengthAdjust="spacing" textLength="165" x="20" y="128.0999">Campus Manager</text><ellipse cx="105.5" cy="55.2199" fill="#E2E2F0" rx="8" ry="8" style="stroke:#181818;stroke-width:0.5;"/><path d="M105.5,63.2199 L105.5,90.2199 M92.5,71.2199 L118.5,71.2199 M105.5,90.2199 L92.5,105.2199 M105.5,90.2199 L118.5,105.2199 " fill="none" style="stroke:#181818;stroke-width:0.5;"/><text fill="#000000" font-family="sans-serif" font-size="20" lengthAdjust="spacing" textLength="165" x="20" y="1044.3794">Campus Manager</text><ellipse cx="105.5" cy="1058.7393" fill="#E2E2F0" rx="8" ry="8" style="stroke:#181818;stroke-width:0.5;"/><path d="M105.5,1066.7393 L105.5,1093.7393 M92.5,1074.7393 L118.5,1074.7393 M105.5,1093.7393 L92.5,1108.7393 M105.5,1093.7393 L118.5,1108.7393 " fill="none" style="stroke:#181818;stroke-width:0.5;"/><rect fill="#E2E2F0" height="68.4799" rx="2.5" ry="2.5" style="stroke:#181818;stroke-width:0.5;" width="151" x="690.25" y="64.4799"/><text fill="#000000" font-family="sans-serif" font-size="20" font-style="italic" lengthAdjust="spacing" textLength="122" x="704.75" y="92.8599">«component»</text><text fill="#000000" font-family="sans-serif" font-size="20" lengthAdjust="spacing" textLength="137" x="697.25" y="120.0999">UI Component</text><rect fill="#E2E2F0" height="68.4799" rx="2.5" ry="2.5" style="stroke:#181818;stroke-width:0.5;" width="151" x="690.25" y="1022.9994"/><text fill="#000000" font-family="sans-serif" font-size="20" font-style="italic" lengthAdjust="spacing" textLength="122" x="704.75" y="1051.3794">«component»</text><text fill="#000000" font-family="sans-serif" font-size="20" lengthAdjust="spacing" textLength="137" x="697.25" y="1078.6193">UI Component</text><rect fill="#E2E2F0" height="68.4799" rx="2.5" ry="2.5" style="stroke:#181818;stroke-width:0.5;" width="136" x="921" y="64.4799"/><text fill="#000000" font-family="sans-serif" font-size="20" font-style="italic" lengthAdjust="spacing" textLength="122" x="928" y="92.8599">«component»</text><text fill="#000000" font-family="sans-serif" font-size="20" lengthAdjust="spacing" textLength="70" x="954" y="120.0999">Module</text><rect fill="#E2E2F0" height="68.4799" rx="2.5" ry="2.5" style="stroke:#181818;stroke-width:0.5;" width="136" x="921" y="1022.9994"/><text fill="#000000" font-family="sans-serif" font-size="20" font-style="italic" lengthAdjust="spacing" textLength="122" x="928" y="1051.3794">«component»</text><text fill="#000000" font-family="sans-serif" font-size="20" lengthAdjust="spacing" textLength="70" x="954" y="1078.6193">Module</text><rect fill="#E2E2F0" height="68.4799" rx="2.5" ry="2.5" style="stroke:#181818;stroke-width:0.5;" width="136" x="1297.625" y="64.4799"/><text fill="#000000" font-family="sans-serif" font-size="20" font-style="italic" lengthAdjust="spacing" textLength="122" x="1304.625" y="92.8599">«component»</text><text fill="#000000" font-family="sans-serif" font-size="20" lengthAdjust="spacing" textLength="66" x="1332.625" y="120.0999">Service</text><rect fill="#E2E2F0" height="68.4799" rx="2.5" ry="2.5" style="stroke:#181818;stroke-width:0.5;" width="136" x="1297.625" y="1022.9994"/><text fill="#000000" font-family="sans-serif" font-size="20" font-style="italic" lengthAdjust="spacing" textLength="122" x="1304.625" y="1051.3794">«component»</text><text fill="#000000" font-family="sans-serif" font-size="20" lengthAdjust="spacing" textLength="66" x="1332.625" y="1078.6193">Service</text><rect fill="#E2E2F0" height="68.4799" rx="2.5" ry="2.5" style="stroke:#181818;stroke-width:0.5;" width="136" x="1531.875" y="64.4799"/><text fill="#000000" font-family="sans-serif" font-size="20" font-style="italic" lengthAdjust="spacing" textLength="122" x="1538.875" y="92.8599">«component»</text><text fill="#000000" font-family="sans-serif" font-size="20" lengthAdjust="spacing" textLength="49" x="1575.375" y="120.0999">HTTP</text><rect fill="#E2E2F0" height="68.4799" rx="2.5" ry="2.5" style="stroke:#181818;stroke-width:0.5;" width="136" x="1531.875" y="1022.9994"/><text fill="#000000" font-family="sans-serif" font-size="20" font-style="italic" lengthAdjust="spacing" textLength="122" x="1538.875" y="1051.3794">«component»</text><text fill="#000000" font-family="sans-serif" font-size="20" lengthAdjust="spacing" textLength="49" x="1575.375" y="1078.6193">HTTP</text><rect fill="#E2E2F0" height="68.4799" rx="2.5" ry="2.5" style="stroke:#181818;stroke-width:0.5;" width="136" x="1825.25" y="64.4799"/><text fill="#000000" font-family="sans-serif" font-size="20" font-style="italic" lengthAdjust="spacing" textLength="122" x="1832.25" y="92.8599">«component»</text><text fill="#000000" font-family="sans-serif" font-size="20" lengthAdjust="spacing" textLength="54" x="1866.25" y="120.0999">Route</text><rect fill="#E2E2F0" height="68.4799" rx="2.5" ry="2.5" style="stroke:#181818;stroke-width:0.5;" width="136" x="1825.25" y="1022.9994"/><text fill="#000000" font-family="sans-serif" font-size="20" font-style="italic" lengthAdjust="spacing" textLength="122" x="1832.25" y="1051.3794">«component»</text><text fill="#000000" font-family="sans-serif" font-size="20" lengthAdjust="spacing" textLength="54" x="1866.25" y="1078.6193">Route</text><rect fill="#FFFFFF" height="870.0395" style="stroke:#181818;stroke-width:1.0;" width="10" x="100.5" y="143.9599"/><rect fill="#FFFFFF" height="41.24" style="stroke:#181818;stroke-width:1.0;" width="10" x="760.75" y="177.1999"/><rect fill="#FFFFFF" height="739.3195" style="stroke:#181818;stroke-width:1.0;" width="10" x="760.75" y="259.6798"/><rect fill="#FFFFFF" height="421.3997" style="stroke:#181818;stroke-width:1.0;" width="10" x="984" y="300.9198"/><rect fill="#FFFFFF" height="28" style="stroke:#181818;stroke-width:1.0;" width="10" x="989" y="350.1598"/><rect fill="#FFFFFF" height="194.1999" style="stroke:#181818;stroke-width:1.0;" width="10" x="984" y="763.5595"/><rect fill="#FFFFFF" height="254.6798" style="stroke:#181818;stroke-width:1.0;" width="10" x="1360.625" y="426.3997"/><rect fill="#FFFFFF" height="152.9599" style="stroke:#181818;stroke-width:1.0;" width="10" x="1360.625" y="763.5595"/><rect fill="#FFFFFF" height="172.1999" style="stroke:#181818;stroke-width:1.0;" width="10" x="1594.875" y="467.6397"/><rect fill="#FFFFFF" height="111.7199" style="stroke:#181818;stroke-width:1.0;" width="10" x="1594.875" y="763.5595"/><rect fill="#FFFFFF" height="89.7199" style="stroke:#181818;stroke-width:1.0;" width="10" x="1888.25" y="508.8797"/><rect fill="#FFFFFF" height="70.4799" style="stroke:#181818;stroke-width:1.0;" width="10" x="1888.25" y="763.5595"/><polygon fill="#181818" points="748.75,173.1999,758.75,177.1999,748.75,181.1999,752.75,177.1999" style="stroke:#181818;stroke-width:1.0;"/><line style="stroke:#181818;stroke-width:1.0;" x1="110.5" x2="754.75" y1="177.1999" y2="177.1999"/><text fill="#000000" font-family="sans-serif" font-size="20" font-weight="bold" lengthAdjust="spacing" textLength="11.625" x="117.5" y="169.3399">1</text><text fill="#000000" font-family="sans-serif" font-size="20" lengthAdjust="spacing" textLength="302" x="133.125" y="169.3399">wants to create a new connector</text><polygon fill="#181818" points="121.5,214.4398,111.5,218.4398,121.5,222.4398,117.5,218.4398" style="stroke:#181818;stroke-width:1.0;"/><line style="stroke:#181818;stroke-width:1.0;stroke-dasharray:2.0,2.0;" x1="115.5" x2="764.75" y1="218.4398" y2="218.4398"/><text fill="#000000" font-family="sans-serif" font-size="20" font-weight="bold" lengthAdjust="spacing" textLength="11.625" x="127.5" y="210.5799">2</text><text fill="#000000" font-family="sans-serif" font-size="20" lengthAdjust="spacing" textLength="434" x="143.125" y="210.5799">asks for the connector code, floors 1 &amp; 2 codes</text><polygon fill="#181818" points="748.75,255.6798,758.75,259.6798,748.75,263.6798,752.75,259.6798" style="stroke:#181818;stroke-width:1.0;"/><line style="stroke:#181818;stroke-width:1.0;" x1="110.5" x2="754.75" y1="259.6798" y2="259.6798"/><text fill="#000000" font-family="sans-serif" font-size="20" font-weight="bold" lengthAdjust="spacing" textLength="11.625" x="117.5" y="251.8198">3</text><text fill="#000000" font-family="sans-serif" font-size="20" lengthAdjust="spacing" textLength="144" x="133.125" y="251.8198">inserts the data</text><polygon fill="#181818" points="972,296.9198,982,300.9198,972,304.9198,976,300.9198" style="stroke:#181818;stroke-width:1.0;"/><line style="stroke:#181818;stroke-width:1.0;" x1="770.75" x2="978" y1="300.9198" y2="300.9198"/><text fill="#000000" font-family="sans-serif" font-size="20" font-weight="bold" lengthAdjust="spacing" textLength="11.625" x="777.75" y="293.0598">4</text><text fill="#000000" font-family="sans-serif" font-size="20" lengthAdjust="spacing" textLength="155" x="793.375" y="293.0598">createConnector</text><line style="stroke:#181818;stroke-width:1.0;" x1="999" x2="1041" y1="342.1598" y2="342.1598"/><line style="stroke:#181818;stroke-width:1.0;" x1="1041" x2="1041" y1="342.1598" y2="355.1598"/><line style="stroke:#181818;stroke-width:1.0;" x1="1000" x2="1041" y1="355.1598" y2="355.1598"/><polygon fill="#181818" points="1010,351.1598,1000,355.1598,1010,359.1598,1006,355.1598" style="stroke:#181818;stroke-width:1.0;"/><text fill="#000000" font-family="sans-serif" font-size="20" font-weight="bold" lengthAdjust="spacing" textLength="11.625" x="1006" y="334.2998">5</text><text fill="#000000" font-family="sans-serif" font-size="20" lengthAdjust="spacing" textLength="128" x="1021.625" y="334.2998">validates data</text><polygon fill="#181818" points="1348.625,422.3997,1358.625,426.3997,1348.625,430.3997,1352.625,426.3997" style="stroke:#181818;stroke-width:1.0;"/><line style="stroke:#181818;stroke-width:1.0;" x1="994" x2="1354.625" y1="426.3997" y2="426.3997"/><text fill="#000000" font-family="sans-serif" font-size="20" font-weight="bold" lengthAdjust="spacing" textLength="11.625" x="1001" y="418.5398">6</text><text fill="#000000" font-family="sans-serif" font-size="20" lengthAdjust="spacing" textLength="332" x="1016.625" y="418.5398">createConnector(code,floor1,floor2)</text><polygon fill="#181818" points="1582.875,463.6397,1592.875,467.6397,1582.875,471.6397,1586.875,467.6397" style="stroke:#181818;stroke-width:1.0;"/><line style="stroke:#181818;stroke-width:1.0;" x1="1370.625" x2="1588.875" y1="467.6397" y2="467.6397"/><text fill="#000000" font-family="sans-serif" font-size="20" font-weight="bold" lengthAdjust="spacing" textLength="11.625" x="1377.625" y="459.7797">7</text><text fill="#000000" font-family="sans-serif" font-size="20" lengthAdjust="spacing" textLength="124" x="1393.25" y="459.7797">post(url,data)</text><polygon fill="#181818" points="1876.25,504.8797,1886.25,508.8797,1876.25,512.8797,1880.25,508.8797" style="stroke:#181818;stroke-width:1.0;"/><line style="stroke:#181818;stroke-width:1.0;" x1="1604.875" x2="1882.25" y1="508.8797" y2="508.8797"/><text fill="#000000" font-family="sans-serif" font-size="20" font-weight="bold" lengthAdjust="spacing" textLength="11.625" x="1611.875" y="501.0197">8</text><text fill="#000000" font-family="sans-serif" font-size="20" lengthAdjust="spacing" textLength="228" x="1627.5" y="501.0197">POST /connectors {data}</text><path d="M10,523.8797 L79.875,523.8797 L79.875,543.1197 L69.875,553.1197 L10,553.1197 L10,523.8797 " fill="#EEEEEE" style="stroke:#000000;stroke-width:1.5;"/><rect fill="none" height="483.1197" style="stroke:#000000;stroke-width:1.5;" width="1961.25" x="10" y="523.8797"/><text fill="#000000" font-family="sans-serif" font-size="20" font-weight="bold" lengthAdjust="spacing" textLength="24.875" x="25" y="546.2597">alt</text><text fill="#000000" font-family="sans-serif" font-size="20" font-weight="bold" lengthAdjust="spacing" textLength="278" x="94.875" y="547.2597">[a new connector is created]</text><polygon fill="#181818" points="1615.875,594.5996,1605.875,598.5996,1615.875,602.5996,1611.875,598.5996" style="stroke:#181818;stroke-width:1.0;"/><line style="stroke:#181818;stroke-width:1.0;stroke-dasharray:2.0,2.0;" x1="1609.875" x2="1892.25" y1="598.5996" y2="598.5996"/><text fill="#000000" font-family="sans-serif" font-size="20" font-weight="bold" lengthAdjust="spacing" textLength="11.625" x="1621.875" y="590.7396">9</text><text fill="#000000" font-family="sans-serif" font-size="20" lengthAdjust="spacing" textLength="111" x="1637.5" y="590.7396">201 Created</text><polygon fill="#181818" points="1381.625,635.8396,1371.625,639.8396,1381.625,643.8396,1377.625,639.8396" style="stroke:#181818;stroke-width:1.0;"/><line style="stroke:#181818;stroke-width:1.0;stroke-dasharray:2.0,2.0;" x1="1375.625" x2="1598.875" y1="639.8396" y2="639.8396"/><text fill="#000000" font-family="sans-serif" font-size="20" font-weight="bold" lengthAdjust="spacing" textLength="23.25" x="1387.625" y="631.9796">10</text><text fill="#000000" font-family="sans-serif" font-size="20" lengthAdjust="spacing" textLength="173" x="1414.875" y="631.9796">the new connector</text><polygon fill="#181818" points="1005,677.0796,995,681.0796,1005,685.0796,1001,681.0796" style="stroke:#181818;stroke-width:1.0;"/><line style="stroke:#181818;stroke-width:1.0;stroke-dasharray:2.0,2.0;" x1="999" x2="1364.625" y1="681.0796" y2="681.0796"/><text fill="#000000" font-family="sans-serif" font-size="20" font-weight="bold" lengthAdjust="spacing" textLength="23.25" x="1011" y="673.2196">11</text><text fill="#000000" font-family="sans-serif" font-size="20" lengthAdjust="spacing" textLength="173" x="1038.25" y="673.2196">the new connector</text><polygon fill="#181818" points="781.75,718.3195,771.75,722.3195,781.75,726.3195,777.75,722.3195" style="stroke:#181818;stroke-width:1.0;"/><line style="stroke:#181818;stroke-width:1.0;stroke-dasharray:2.0,2.0;" x1="775.75" x2="988" y1="722.3195" y2="722.3195"/><text fill="#000000" font-family="sans-serif" font-size="20" font-weight="bold" lengthAdjust="spacing" textLength="23.25" x="787.75" y="714.4596">12</text><text fill="#000000" font-family="sans-serif" font-size="20" lengthAdjust="spacing" textLength="162" x="815" y="714.4596">success message</text><polygon fill="#181818" points="121.5,759.5595,111.5,763.5595,121.5,767.5595,117.5,763.5595" style="stroke:#181818;stroke-width:1.0;"/><line style="stroke:#181818;stroke-width:1.0;stroke-dasharray:2.0,2.0;" x1="115.5" x2="759.75" y1="763.5595" y2="763.5595"/><text fill="#000000" font-family="sans-serif" font-size="20" font-weight="bold" lengthAdjust="spacing" textLength="23.25" x="127.5" y="755.6995">13</text><text fill="#000000" font-family="sans-serif" font-size="20" lengthAdjust="spacing" textLength="340" x="154.75" y="755.6995">informs the success of the operation</text><line style="stroke:#000000;stroke-width:1.0;stroke-dasharray:2.0,2.0;" x1="10" x2="1971.25" y1="772.5595" y2="772.5595"/><text fill="#000000" font-family="sans-serif" font-size="20" font-weight="bold" lengthAdjust="spacing" textLength="422.125" x="15" y="793.9395">[there is a connector between those floors]</text><polygon fill="#181818" points="1615.875,830.0395,1605.875,834.0395,1615.875,838.0395,1611.875,834.0395" style="stroke:#181818;stroke-width:1.0;"/><line style="stroke:#181818;stroke-width:1.0;stroke-dasharray:2.0,2.0;" x1="1609.875" x2="1892.25" y1="834.0395" y2="834.0395"/><text fill="#000000" font-family="sans-serif" font-size="20" font-weight="bold" lengthAdjust="spacing" textLength="23.25" x="1621.875" y="826.1795">14</text><text fill="#000000" font-family="sans-serif" font-size="20" lengthAdjust="spacing" textLength="154" x="1649.125" y="826.1795">400 Bad Request</text><polygon fill="#181818" points="1381.625,871.2794,1371.625,875.2794,1381.625,879.2794,1377.625,875.2794" style="stroke:#181818;stroke-width:1.0;"/><line style="stroke:#181818;stroke-width:1.0;stroke-dasharray:2.0,2.0;" x1="1375.625" x2="1598.875" y1="875.2794" y2="875.2794"/><text fill="#000000" font-family="sans-serif" font-size="20" font-weight="bold" lengthAdjust="spacing" textLength="23.25" x="1387.625" y="867.4195">15</text><text fill="#000000" font-family="sans-serif" font-size="20" lengthAdjust="spacing" textLength="47" x="1414.875" y="867.4195">error</text><polygon fill="#181818" points="1005,912.5194,995,916.5194,1005,920.5194,1001,916.5194" style="stroke:#181818;stroke-width:1.0;"/><line style="stroke:#181818;stroke-width:1.0;stroke-dasharray:2.0,2.0;" x1="999" x2="1364.625" y1="916.5194" y2="916.5194"/><text fill="#000000" font-family="sans-serif" font-size="20" font-weight="bold" lengthAdjust="spacing" textLength="23.25" x="1011" y="908.6594">16</text><text fill="#000000" font-family="sans-serif" font-size="20" lengthAdjust="spacing" textLength="47" x="1038.25" y="908.6594">error</text><polygon fill="#181818" points="781.75,953.7594,771.75,957.7594,781.75,961.7594,777.75,957.7594" style="stroke:#181818;stroke-width:1.0;"/><line style="stroke:#181818;stroke-width:1.0;stroke-dasharray:2.0,2.0;" x1="775.75" x2="988" y1="957.7594" y2="957.7594"/><text fill="#000000" font-family="sans-serif" font-size="20" font-weight="bold" lengthAdjust="spacing" textLength="23.25" x="787.75" y="949.8994">17</text><text fill="#000000" font-family="sans-serif" font-size="20" lengthAdjust="spacing" textLength="47" x="815" y="949.8994">error</text><polygon fill="#181818" points="121.5,994.9994,111.5,998.9994,121.5,1002.9994,117.5,998.9994" style="stroke:#181818;stroke-width:1.0;"/><line style="stroke:#181818;stroke-width:1.0;stroke-dasharray:2.0,2.0;" x1="115.5" x2="764.75" y1="998.9994" y2="998.9994"/><text fill="#000000" font-family="sans-serif" font-size="20" font-weight="bold" lengthAdjust="spacing" textLength="23.25" x="127.5" y="991.1394">18</text><text fill="#000000" font-family="sans-serif" font-size="20" lengthAdjust="spacing" textLength="599" x="154.75" y="991.1394">shows error message "A connector exists between those floors."</text><!--SRC=[ZLJHRjem57ttLrmnQQ9IsG3rgK98NRefanQrAhJIfBsOv08MYSri1r2dVL4_OM_zibtR119WPIyXZiyvzzvpRCn2o2NNlCXLki0CCfpoChTVbBGZyOpGxp9UMYNBOeAQcGeDjm4tneszoSLC5YZjO93I4_Lm2E65CPvQfI5AW1jeHRnObWOIBlaCTOknYTf0w_KbfM9SIDJGZgukNl_ya4_2b3mNpzmA9Lkm5sO0LD-AL2ovj11vtSUl4AbYgII1FBXQ7E537udAoXpVHewUWlO8zKgaPy2nXyRZyVqX3cK6DEKReq9oktN4MGZrOTzz4xEv_OvvhjO75H_k7iUVVTK7LLhyPrdoNwouHOg0COgXCoJFhc5D6WQiWbIZs-KWSGtKd4GNM8tcMODEnzEuMHYOKg1sZdiqlMLu2TDSAMsW1- -XxpyPbk61qBQya0QrQu1aCcvvivv39OGAlKN7JT4eIGLQqJ4X2JG7GaczU4LmeHxfjdtxlljU-EbVx7M8mfZZ4Jqcyb8PsovrVkdArN0nOx73X62kuVvkD8QFEuyC_7A4ttk21r90kJrq7uJPzfXHwh5tlvBjTtiGxVPg8sxbmC_e6AvPvsyps0OdTlYGRd3c3Dvx0H3qdVccJ5Cq1Wfwq05keXEFtHyU8Uda527qYgYcVgcMgFrLPvWRT9yqEXTupPG9sZMYf4r5a73Og41jcDeYgIzSsxNbpgccirVTBdpY6JpWpnAD_GztKUkpZfx07Bbu0dFedPchjGd0ocnetTJSmOqmTA5EcVIXrTIEtBy3QzpDXFq5]--></g></svg>