<?xml version="1.0" encoding="UTF-8" standalone="no"?><svg xmlns="http://www.w3.org/2000/svg" xmlns:xlink="http://www.w3.org/1999/xlink" contentStyleType="text/css" height="713px" preserveAspectRatio="none" style="width:1649px;height:713px;background:#FFFFFF;" version="1.1" viewBox="0 0 1649 713" width="1649px" zoomAndPan="magnify"><defs/><g><rect fill="#DDDDDD" height="701.3438" style="stroke:#181818;stroke-width:0.5;" width="625" x="696.5" y="6"/><text fill="#000000" font-family="sans-serif" font-size="20" font-weight="bold" lengthAdjust="spacing" textLength="189" x="914.5" y="24.5645">«container (C4)»</text><text fill="#000000" font-family="sans-serif" font-size="20" font-weight="bold" lengthAdjust="spacing" textLength="147" x="935.5" y="47.8457">Visualization</text><rect fill="#FFFFE0" height="701.3438" style="stroke:#181818;stroke-width:0.5;" width="213" x="1430.5" y="6"/><text fill="#000000" font-family="sans-serif" font-size="20" font-weight="bold" lengthAdjust="spacing" textLength="189" x="1442.5" y="24.5645">«container (C4)»</text><text fill="#000000" font-family="sans-serif" font-size="20" font-weight="bold" lengthAdjust="spacing" textLength="193" x="1440.5" y="47.8457">MD Management</text><rect fill="#FFFFFF" height="482.9375" style="stroke:#181818;stroke-width:1.0;" width="10" x="105.5" y="128.125"/><rect fill="#FFFFFF" height="37.2813" style="stroke:#181818;stroke-width:1.0;" width="10" x="812.5" y="157.4063"/><rect fill="#FFFFFF" height="364.0938" style="stroke:#181818;stroke-width:1.0;" width="10" x="812.5" y="231.9688"/><rect fill="#FFFFFF" height="152.4063" style="stroke:#181818;stroke-width:1.0;" width="10" x="1217.5" y="269.25"/><rect fill="#FFFFFF" height="99.8438" style="stroke:#181818;stroke-width:1.0;" width="10" x="1217.5" y="458.9375"/><rect fill="#FFFFFF" height="77.8438" style="stroke:#181818;stroke-width:1.0;" width="10" x="1532" y="306.5313"/><rect fill="#FFFFFF" height="62.5625" style="stroke:#181818;stroke-width:1.0;" width="10" x="1532" y="458.9375"/><rect fill="none" height="282.5313" style="stroke:#000000;stroke-width:1.5;" width="1625" x="10" y="321.5313"/><line style="stroke:#181818;stroke-width:0.5;stroke-dasharray:5.0,5.0;" x1="110" x2="110" y1="118.125" y2="621.0625"/><line style="stroke:#181818;stroke-width:0.5;stroke-dasharray:5.0,5.0;" x1="817.5" x2="817.5" y1="118.125" y2="621.0625"/><line style="stroke:#181818;stroke-width:0.5;stroke-dasharray:5.0,5.0;" x1="1222.5" x2="1222.5" y1="118.125" y2="621.0625"/><line style="stroke:#181818;stroke-width:0.5;stroke-dasharray:5.0,5.0;" x1="1537" x2="1537" y1="118.125" y2="621.0625"/><text fill="#000000" font-family="sans-serif" font-size="20" lengthAdjust="spacing" textLength="175" x="20" y="113.4082">Campus Manager</text><ellipse cx="110.5" cy="43.3438" fill="#E2E2F0" rx="8" ry="8" style="stroke:#181818;stroke-width:0.5;"/><path d="M110.5,51.3438 L110.5,78.3438 M97.5,59.3438 L123.5,59.3438 M110.5,78.3438 L97.5,93.3438 M110.5,78.3438 L123.5,93.3438 " fill="none" style="stroke:#181818;stroke-width:0.5;"/><text fill="#000000" font-family="sans-serif" font-size="20" lengthAdjust="spacing" textLength="175" x="20" y="638.627">Campus Manager</text><ellipse cx="110.5" cy="651.8438" fill="#E2E2F0" rx="8" ry="8" style="stroke:#181818;stroke-width:0.5;"/><path d="M110.5,659.8438 L110.5,686.8438 M97.5,667.8438 L123.5,667.8438 M110.5,686.8438 L97.5,701.8438 M110.5,686.8438 L123.5,701.8438 " fill="none" style="stroke:#181818;stroke-width:0.5;"/><rect fill="#E2E2F0" height="60.5625" rx="2.5" ry="2.5" style="stroke:#181818;stroke-width:0.5;" width="234" x="700.5" y="56.5625"/><text fill="#000000" font-family="sans-serif" font-size="20" font-style="italic" lengthAdjust="spacing" textLength="138" x="748.5" y="82.127">«component»</text><text fill="#000000" font-family="sans-serif" font-size="20" lengthAdjust="spacing" textLength="220" x="707.5" y="105.4082">ConnectorComponent</text><rect fill="#E2E2F0" height="60.5625" rx="2.5" ry="2.5" style="stroke:#181818;stroke-width:0.5;" width="234" x="700.5" y="620.0625"/><text fill="#000000" font-family="sans-serif" font-size="20" font-style="italic" lengthAdjust="spacing" textLength="138" x="748.5" y="645.627">«component»</text><text fill="#000000" font-family="sans-serif" font-size="20" lengthAdjust="spacing" textLength="220" x="707.5" y="668.9082">ConnectorComponent</text><rect fill="#E2E2F0" height="60.5625" rx="2.5" ry="2.5" style="stroke:#181818;stroke-width:0.5;" width="190" x="1127.5" y="56.5625"/><text fill="#000000" font-family="sans-serif" font-size="20" font-style="italic" lengthAdjust="spacing" textLength="138" x="1153.5" y="82.127">«component»</text><text fill="#000000" font-family="sans-serif" font-size="20" lengthAdjust="spacing" textLength="176" x="1134.5" y="105.4082">ConnectorService</text><rect fill="#E2E2F0" height="60.5625" rx="2.5" ry="2.5" style="stroke:#181818;stroke-width:0.5;" width="190" x="1127.5" y="620.0625"/><text fill="#000000" font-family="sans-serif" font-size="20" font-style="italic" lengthAdjust="spacing" textLength="138" x="1153.5" y="645.627">«component»</text><text fill="#000000" font-family="sans-serif" font-size="20" lengthAdjust="spacing" textLength="176" x="1134.5" y="668.9082">ConnectorService</text><rect fill="#E2E2F0" height="60.5625" rx="2.5" ry="2.5" style="stroke:#181818;stroke-width:0.5;" width="176" x="1449" y="56.5625"/><text fill="#000000" font-family="sans-serif" font-size="20" font-style="italic" lengthAdjust="spacing" textLength="138" x="1468" y="82.127">«component»</text><text fill="#000000" font-family="sans-serif" font-size="20" lengthAdjust="spacing" textLength="162" x="1456" y="105.4082">ConnectorRoute</text><rect fill="#E2E2F0" height="60.5625" rx="2.5" ry="2.5" style="stroke:#181818;stroke-width:0.5;" width="176" x="1449" y="620.0625"/><text fill="#000000" font-family="sans-serif" font-size="20" font-style="italic" lengthAdjust="spacing" textLength="138" x="1468" y="645.627">«component»</text><text fill="#000000" font-family="sans-serif" font-size="20" lengthAdjust="spacing" textLength="162" x="1456" y="668.9082">ConnectorRoute</text><rect fill="#FFFFFF" height="482.9375" style="stroke:#181818;stroke-width:1.0;" width="10" x="105.5" y="128.125"/><rect fill="#FFFFFF" height="37.2813" style="stroke:#181818;stroke-width:1.0;" width="10" x="812.5" y="157.4063"/><rect fill="#FFFFFF" height="364.0938" style="stroke:#181818;stroke-width:1.0;" width="10" x="812.5" y="231.9688"/><rect fill="#FFFFFF" height="152.4063" style="stroke:#181818;stroke-width:1.0;" width="10" x="1217.5" y="269.25"/><rect fill="#FFFFFF" height="99.8438" style="stroke:#181818;stroke-width:1.0;" width="10" x="1217.5" y="458.9375"/><rect fill="#FFFFFF" height="77.8438" style="stroke:#181818;stroke-width:1.0;" width="10" x="1532" y="306.5313"/><rect fill="#FFFFFF" height="62.5625" style="stroke:#181818;stroke-width:1.0;" width="10" x="1532" y="458.9375"/><polygon fill="#181818" points="800.5,153.4063,810.5,157.4063,800.5,161.4063,804.5,157.4063" style="stroke:#181818;stroke-width:1.0;"/><line style="stroke:#181818;stroke-width:1.0;" x1="115.5" x2="806.5" y1="157.4063" y2="157.4063"/><text fill="#000000" font-family="sans-serif" font-size="20" font-weight="bold" lengthAdjust="spacing" textLength="14" x="122.5" y="150.6895">1</text><text fill="#000000" font-family="sans-serif" font-size="20" lengthAdjust="spacing" textLength="327" x="140.5" y="150.6895">wants to create a new connector</text><polygon fill="#181818" points="126.5,190.6875,116.5,194.6875,126.5,198.6875,122.5,194.6875" style="stroke:#181818;stroke-width:1.0;"/><line style="stroke:#181818;stroke-width:1.0;stroke-dasharray:2.0,2.0;" x1="120.5" x2="816.5" y1="194.6875" y2="194.6875"/><text fill="#000000" font-family="sans-serif" font-size="20" font-weight="bold" lengthAdjust="spacing" textLength="14" x="132.5" y="187.9707">2</text><text fill="#000000" font-family="sans-serif" font-size="20" lengthAdjust="spacing" textLength="466" x="150.5" y="187.9707">asks for the connector code, floors 1 &amp; 2 codes</text><polygon fill="#181818" points="800.5,227.9688,810.5,231.9688,800.5,235.9688,804.5,231.9688" style="stroke:#181818;stroke-width:1.0;"/><line style="stroke:#181818;stroke-width:1.0;" x1="115.5" x2="806.5" y1="231.9688" y2="231.9688"/><text fill="#000000" font-family="sans-serif" font-size="20" font-weight="bold" lengthAdjust="spacing" textLength="14" x="122.5" y="225.252">3</text><text fill="#000000" font-family="sans-serif" font-size="20" lengthAdjust="spacing" textLength="157" x="140.5" y="225.252">inserts the data</text><polygon fill="#181818" points="1205.5,265.25,1215.5,269.25,1205.5,273.25,1209.5,269.25" style="stroke:#181818;stroke-width:1.0;"/><line style="stroke:#181818;stroke-width:1.0;" x1="822.5" x2="1211.5" y1="269.25" y2="269.25"/><text fill="#000000" font-family="sans-serif" font-size="20" font-weight="bold" lengthAdjust="spacing" textLength="14" x="829.5" y="262.5332">4</text><text fill="#000000" font-family="sans-serif" font-size="20" lengthAdjust="spacing" textLength="358" x="847.5" y="262.5332">createConnector(code,floor1,floor2)</text><polygon fill="#181818" points="1520,302.5313,1530,306.5313,1520,310.5313,1524,306.5313" style="stroke:#181818;stroke-width:1.0;"/><line style="stroke:#181818;stroke-width:1.0;" x1="1227.5" x2="1526" y1="306.5313" y2="306.5313"/><text fill="#000000" font-family="sans-serif" font-size="20" font-weight="bold" lengthAdjust="spacing" textLength="14" x="1234.5" y="299.8145">5</text><text fill="#000000" font-family="sans-serif" font-size="20" lengthAdjust="spacing" textLength="253" x="1252.5" y="299.8145">POST /connectors {data}</text><path d="M10,321.5313 L86,321.5313 L86,336.8125 L76,346.8125 L10,346.8125 L10,321.5313 " fill="#EEEEEE" style="stroke:#000000;stroke-width:1.5;"/><rect fill="none" height="282.5313" style="stroke:#000000;stroke-width:1.5;" width="1625" x="10" y="321.5313"/><text fill="#000000" font-family="sans-serif" font-size="20" font-weight="bold" lengthAdjust="spacing" textLength="31" x="25" y="341.0957">alt</text><text fill="#000000" font-family="sans-serif" font-size="20" font-weight="bold" lengthAdjust="spacing" textLength="327" x="101" y="342.0957">[a new connector is created]</text><polygon fill="#181818" points="1238.5,380.375,1228.5,384.375,1238.5,388.375,1234.5,384.375" style="stroke:#181818;stroke-width:1.0;"/><line style="stroke:#181818;stroke-width:1.0;stroke-dasharray:2.0,2.0;" x1="1232.5" x2="1536" y1="384.375" y2="384.375"/><text fill="#000000" font-family="sans-serif" font-size="20" font-weight="bold" lengthAdjust="spacing" textLength="14" x="1244.5" y="377.6582">6</text><text fill="#000000" font-family="sans-serif" font-size="20" lengthAdjust="spacing" textLength="124" x="1262.5" y="377.6582">201 Created</text><polygon fill="#181818" points="833.5,417.6563,823.5,421.6563,833.5,425.6563,829.5,421.6563" style="stroke:#181818;stroke-width:1.0;"/><line style="stroke:#181818;stroke-width:1.0;stroke-dasharray:2.0,2.0;" x1="827.5" x2="1221.5" y1="421.6563" y2="421.6563"/><text fill="#000000" font-family="sans-serif" font-size="20" font-weight="bold" lengthAdjust="spacing" textLength="14" x="839.5" y="414.9395">7</text><text fill="#000000" font-family="sans-serif" font-size="20" lengthAdjust="spacing" textLength="187" x="857.5" y="414.9395">the new connector</text><polygon fill="#181818" points="126.5,454.9375,116.5,458.9375,126.5,462.9375,122.5,458.9375" style="stroke:#181818;stroke-width:1.0;"/><line style="stroke:#181818;stroke-width:1.0;stroke-dasharray:2.0,2.0;" x1="120.5" x2="811.5" y1="458.9375" y2="458.9375"/><text fill="#000000" font-family="sans-serif" font-size="20" font-weight="bold" lengthAdjust="spacing" textLength="14" x="132.5" y="452.2207">8</text><text fill="#000000" font-family="sans-serif" font-size="20" lengthAdjust="spacing" textLength="364" x="150.5" y="452.2207">informs the success of the operation</text><line style="stroke:#000000;stroke-width:1.0;stroke-dasharray:2.0,2.0;" x1="10" x2="1635" y1="467.9375" y2="467.9375"/><text fill="#000000" font-family="sans-serif" font-size="20" font-weight="bold" lengthAdjust="spacing" textLength="497" x="15" y="486.502">[there is a connector between those floors]</text><polygon fill="#181818" points="1238.5,517.5,1228.5,521.5,1238.5,525.5,1234.5,521.5" style="stroke:#181818;stroke-width:1.0;"/><line style="stroke:#181818;stroke-width:1.0;stroke-dasharray:2.0,2.0;" x1="1232.5" x2="1536" y1="521.5" y2="521.5"/><text fill="#000000" font-family="sans-serif" font-size="20" font-weight="bold" lengthAdjust="spacing" textLength="14" x="1244.5" y="514.7832">9</text><text fill="#000000" font-family="sans-serif" font-size="20" lengthAdjust="spacing" textLength="172" x="1262.5" y="514.7832">400 Bad Request</text><polygon fill="#181818" points="833.5,554.7813,823.5,558.7813,833.5,562.7813,829.5,558.7813" style="stroke:#181818;stroke-width:1.0;"/><line style="stroke:#181818;stroke-width:1.0;stroke-dasharray:2.0,2.0;" x1="827.5" x2="1221.5" y1="558.7813" y2="558.7813"/><text fill="#000000" font-family="sans-serif" font-size="20" font-weight="bold" lengthAdjust="spacing" textLength="28" x="839.5" y="552.0645">10</text><text fill="#000000" font-family="sans-serif" font-size="20" lengthAdjust="spacing" textLength="48" x="871.5" y="552.0645">error</text><polygon fill="#181818" points="126.5,592.0625,116.5,596.0625,126.5,600.0625,122.5,596.0625" style="stroke:#181818;stroke-width:1.0;"/><line style="stroke:#181818;stroke-width:1.0;stroke-dasharray:2.0,2.0;" x1="120.5" x2="816.5" y1="596.0625" y2="596.0625"/><text fill="#000000" font-family="sans-serif" font-size="20" font-weight="bold" lengthAdjust="spacing" textLength="28" x="132.5" y="589.3457">11</text><text fill="#000000" font-family="sans-serif" font-size="20" lengthAdjust="spacing" textLength="641" x="164.5" y="589.3457">shows error message "A connector exists between those floors."</text><!--SRC=[ZLFTRjem5BxtKnnbqjHAOmFKAuIGkdIx6ke4hDAatPZa01Q9dVau3Ugq9zeZxAvFrkCuG99sFpSGn-VxjKDxfGjfPPwPP8yffBYHPUO-6ksMwW5XF1IoT4QN-HgjeECqt8Iv5HxSTQQsEaVjfjE4Vz7EPX0UX929CnRYEKY2A9PvKHBCfPPRj94GQtE0wF5Nmc9IQRHm4LzTFlx-fkyKbJ9J3z8feoCu4mi0rdSgKONK3kB0QxH6BnIRl32QHsl8SV4CjRphuPPexrM2VHJg5DZYNtp2_AQ9u_D3s-chJsgxSrynoqpLqr_SVbbzw3fOcDBzMPzRLFVI8HSf19Svc77o2LHCHk0C91RzhWID5IH7pXQiHaq7WnecQK-muMDnEpnFyrEARs2J6MC9Hl0QnlKh4YdsY1fvfGcjDy0qgNIog-UdVD6JnjqfwaKjLEkCmj_uyWnbY10Un_3GqmG-tovNyExabE27b_jv1jM3N5Fc-Xs0eaO_vKFmlBw58_5uE8BujDlAsH02XFcGm-Vi5jp1rCu1MaKhpItdeI0gamI9m6pgfIdGrfTRO4ReNrdqNcNB-XfTXQXvq_18E1WMw0YsbYVF_PHNmo6yboaiy7k9vFuZALhxxtIqCnM5KSWv6dy445st_ED14L-FbsAyZRhiiR_hedFJvk89]--></g></svg>