<?xml version="1.0" encoding="UTF-8" standalone="no"?><svg xmlns="http://www.w3.org/2000/svg" xmlns:xlink="http://www.w3.org/1999/xlink" contentStyleType="text/css" height="825px" preserveAspectRatio="none" style="width:1900px;height:825px;background:#FFFFFF;" version="1.1" viewBox="0 0 1900 825" width="1900px" zoomAndPan="magnify"><defs/><g><rect fill="#DDDDDD" height="813.1875" style="stroke:#181818;stroke-width:0.5;" width="804" x="737.5" y="6"/><text fill="#000000" font-family="sans-serif" font-size="20" font-weight="bold" lengthAdjust="spacing" textLength="189" x="1045" y="24.5645">«container (C4)»</text><text fill="#000000" font-family="sans-serif" font-size="20" font-weight="bold" lengthAdjust="spacing" textLength="147" x="1066" y="47.8457">Visualization</text><rect fill="#FFFFE0" height="813.1875" style="stroke:#181818;stroke-width:0.5;" width="213" x="1681.5" y="6"/><text fill="#000000" font-family="sans-serif" font-size="20" font-weight="bold" lengthAdjust="spacing" textLength="189" x="1693.5" y="24.5645">«container (C4)»</text><text fill="#000000" font-family="sans-serif" font-size="20" font-weight="bold" lengthAdjust="spacing" textLength="193" x="1691.5" y="47.8457">MD Management</text><rect fill="#FFFFFF" height="594.7813" style="stroke:#181818;stroke-width:1.0;" width="10" x="105.5" y="128.125"/><rect fill="#FFFFFF" height="37.2813" style="stroke:#181818;stroke-width:1.0;" width="10" x="812.5" y="157.4063"/><rect fill="#FFFFFF" height="475.9375" style="stroke:#181818;stroke-width:1.0;" width="10" x="812.5" y="231.9688"/><rect fill="#FFFFFF" height="226.9688" style="stroke:#181818;stroke-width:1.0;" width="10" x="1217.5" y="269.25"/><rect fill="#FFFFFF" height="137.125" style="stroke:#181818;stroke-width:1.0;" width="10" x="1217.5" y="533.5"/><rect fill="#FFFFFF" height="152.4063" style="stroke:#181818;stroke-width:1.0;" width="10" x="1456.5" y="306.5313"/><rect fill="#FFFFFF" height="99.8438" style="stroke:#181818;stroke-width:1.0;" width="10" x="1456.5" y="533.5"/><rect fill="#FFFFFF" height="77.8438" style="stroke:#181818;stroke-width:1.0;" width="10" x="1783" y="343.8125"/><rect fill="#FFFFFF" height="62.5625" style="stroke:#181818;stroke-width:1.0;" width="10" x="1783" y="533.5"/><rect fill="none" height="357.0938" style="stroke:#000000;stroke-width:1.5;" width="1864" x="10" y="358.8125"/><line style="stroke:#181818;stroke-width:0.5;stroke-dasharray:5.0,5.0;" x1="110" x2="110" y1="118.125" y2="732.9063"/><line style="stroke:#181818;stroke-width:0.5;stroke-dasharray:5.0,5.0;" x1="817.5" x2="817.5" y1="118.125" y2="732.9063"/><line style="stroke:#181818;stroke-width:0.5;stroke-dasharray:5.0,5.0;" x1="1222.5" x2="1222.5" y1="118.125" y2="732.9063"/><line style="stroke:#181818;stroke-width:0.5;stroke-dasharray:5.0,5.0;" x1="1461.5" x2="1461.5" y1="118.125" y2="732.9063"/><line style="stroke:#181818;stroke-width:0.5;stroke-dasharray:5.0,5.0;" x1="1788" x2="1788" y1="118.125" y2="732.9063"/><text fill="#000000" font-family="sans-serif" font-size="20" lengthAdjust="spacing" textLength="175" x="20" y="113.4082">Campus Manager</text><ellipse cx="110.5" cy="43.3438" fill="#E2E2F0" rx="8" ry="8" style="stroke:#181818;stroke-width:0.5;"/><path d="M110.5,51.3438 L110.5,78.3438 M97.5,59.3438 L123.5,59.3438 M110.5,78.3438 L97.5,93.3438 M110.5,78.3438 L123.5,93.3438 " fill="none" style="stroke:#181818;stroke-width:0.5;"/><text fill="#000000" font-family="sans-serif" font-size="20" lengthAdjust="spacing" textLength="175" x="20" y="750.4707">Campus Manager</text><ellipse cx="110.5" cy="763.6875" fill="#E2E2F0" rx="8" ry="8" style="stroke:#181818;stroke-width:0.5;"/><path d="M110.5,771.6875 L110.5,798.6875 M97.5,779.6875 L123.5,779.6875 M110.5,798.6875 L97.5,813.6875 M110.5,798.6875 L123.5,813.6875 " fill="none" style="stroke:#181818;stroke-width:0.5;"/><rect fill="#E2E2F0" height="60.5625" rx="2.5" ry="2.5" style="stroke:#181818;stroke-width:0.5;" width="152" x="741.5" y="56.5625"/><text fill="#000000" font-family="sans-serif" font-size="20" font-style="italic" lengthAdjust="spacing" textLength="138" x="748.5" y="82.127">«component»</text><text fill="#000000" font-family="sans-serif" font-size="20" lengthAdjust="spacing" textLength="117" x="759" y="105.4082">Component</text><rect fill="#E2E2F0" height="60.5625" rx="2.5" ry="2.5" style="stroke:#181818;stroke-width:0.5;" width="152" x="741.5" y="731.9063"/><text fill="#000000" font-family="sans-serif" font-size="20" font-style="italic" lengthAdjust="spacing" textLength="138" x="748.5" y="757.4707">«component»</text><text fill="#000000" font-family="sans-serif" font-size="20" lengthAdjust="spacing" textLength="117" x="759" y="780.752">Component</text><rect fill="#E2E2F0" height="60.5625" rx="2.5" ry="2.5" style="stroke:#181818;stroke-width:0.5;" width="152" x="1146.5" y="56.5625"/><text fill="#000000" font-family="sans-serif" font-size="20" font-style="italic" lengthAdjust="spacing" textLength="138" x="1153.5" y="82.127">«component»</text><text fill="#000000" font-family="sans-serif" font-size="20" lengthAdjust="spacing" textLength="73" x="1186" y="105.4082">Service</text><rect fill="#E2E2F0" height="60.5625" rx="2.5" ry="2.5" style="stroke:#181818;stroke-width:0.5;" width="152" x="1146.5" y="731.9063"/><text fill="#000000" font-family="sans-serif" font-size="20" font-style="italic" lengthAdjust="spacing" textLength="138" x="1153.5" y="757.4707">«component»</text><text fill="#000000" font-family="sans-serif" font-size="20" lengthAdjust="spacing" textLength="73" x="1186" y="780.752">Service</text><rect fill="#E2E2F0" height="60.5625" rx="2.5" ry="2.5" style="stroke:#181818;stroke-width:0.5;" width="152" x="1385.5" y="56.5625"/><text fill="#000000" font-family="sans-serif" font-size="20" font-style="italic" lengthAdjust="spacing" textLength="138" x="1392.5" y="82.127">«component»</text><text fill="#000000" font-family="sans-serif" font-size="20" lengthAdjust="spacing" textLength="51" x="1436" y="105.4082">HTTP</text><rect fill="#E2E2F0" height="60.5625" rx="2.5" ry="2.5" style="stroke:#181818;stroke-width:0.5;" width="152" x="1385.5" y="731.9063"/><text fill="#000000" font-family="sans-serif" font-size="20" font-style="italic" lengthAdjust="spacing" textLength="138" x="1392.5" y="757.4707">«component»</text><text fill="#000000" font-family="sans-serif" font-size="20" lengthAdjust="spacing" textLength="51" x="1436" y="780.752">HTTP</text><rect fill="#E2E2F0" height="60.5625" rx="2.5" ry="2.5" style="stroke:#181818;stroke-width:0.5;" width="152" x="1712" y="56.5625"/><text fill="#000000" font-family="sans-serif" font-size="20" font-style="italic" lengthAdjust="spacing" textLength="138" x="1719" y="82.127">«component»</text><text fill="#000000" font-family="sans-serif" font-size="20" lengthAdjust="spacing" textLength="59" x="1758.5" y="105.4082">Route</text><rect fill="#E2E2F0" height="60.5625" rx="2.5" ry="2.5" style="stroke:#181818;stroke-width:0.5;" width="152" x="1712" y="731.9063"/><text fill="#000000" font-family="sans-serif" font-size="20" font-style="italic" lengthAdjust="spacing" textLength="138" x="1719" y="757.4707">«component»</text><text fill="#000000" font-family="sans-serif" font-size="20" lengthAdjust="spacing" textLength="59" x="1758.5" y="780.752">Route</text><rect fill="#FFFFFF" height="594.7813" style="stroke:#181818;stroke-width:1.0;" width="10" x="105.5" y="128.125"/><rect fill="#FFFFFF" height="37.2813" style="stroke:#181818;stroke-width:1.0;" width="10" x="812.5" y="157.4063"/><rect fill="#FFFFFF" height="475.9375" style="stroke:#181818;stroke-width:1.0;" width="10" x="812.5" y="231.9688"/><rect fill="#FFFFFF" height="226.9688" style="stroke:#181818;stroke-width:1.0;" width="10" x="1217.5" y="269.25"/><rect fill="#FFFFFF" height="137.125" style="stroke:#181818;stroke-width:1.0;" width="10" x="1217.5" y="533.5"/><rect fill="#FFFFFF" height="152.4063" style="stroke:#181818;stroke-width:1.0;" width="10" x="1456.5" y="306.5313"/><rect fill="#FFFFFF" height="99.8438" style="stroke:#181818;stroke-width:1.0;" width="10" x="1456.5" y="533.5"/><rect fill="#FFFFFF" height="77.8438" style="stroke:#181818;stroke-width:1.0;" width="10" x="1783" y="343.8125"/><rect fill="#FFFFFF" height="62.5625" style="stroke:#181818;stroke-width:1.0;" width="10" x="1783" y="533.5"/><polygon fill="#181818" points="800.5,153.4063,810.5,157.4063,800.5,161.4063,804.5,157.4063" style="stroke:#181818;stroke-width:1.0;"/><line style="stroke:#181818;stroke-width:1.0;" x1="115.5" x2="806.5" y1="157.4063" y2="157.4063"/><text fill="#000000" font-family="sans-serif" font-size="20" font-weight="bold" lengthAdjust="spacing" textLength="14" x="122.5" y="150.6895">1</text><text fill="#000000" font-family="sans-serif" font-size="20" lengthAdjust="spacing" textLength="327" x="140.5" y="150.6895">wants to create a new connector</text><polygon fill="#181818" points="126.5,190.6875,116.5,194.6875,126.5,198.6875,122.5,194.6875" style="stroke:#181818;stroke-width:1.0;"/><line style="stroke:#181818;stroke-width:1.0;stroke-dasharray:2.0,2.0;" x1="120.5" x2="816.5" y1="194.6875" y2="194.6875"/><text fill="#000000" font-family="sans-serif" font-size="20" font-weight="bold" lengthAdjust="spacing" textLength="14" x="132.5" y="187.9707">2</text><text fill="#000000" font-family="sans-serif" font-size="20" lengthAdjust="spacing" textLength="466" x="150.5" y="187.9707">asks for the connector code, floors 1 &amp; 2 codes</text><polygon fill="#181818" points="800.5,227.9688,810.5,231.9688,800.5,235.9688,804.5,231.9688" style="stroke:#181818;stroke-width:1.0;"/><line style="stroke:#181818;stroke-width:1.0;" x1="115.5" x2="806.5" y1="231.9688" y2="231.9688"/><text fill="#000000" font-family="sans-serif" font-size="20" font-weight="bold" lengthAdjust="spacing" textLength="14" x="122.5" y="225.252">3</text><text fill="#000000" font-family="sans-serif" font-size="20" lengthAdjust="spacing" textLength="157" x="140.5" y="225.252">inserts the data</text><polygon fill="#181818" points="1205.5,265.25,1215.5,269.25,1205.5,273.25,1209.5,269.25" style="stroke:#181818;stroke-width:1.0;"/><line style="stroke:#181818;stroke-width:1.0;" x1="822.5" x2="1211.5" y1="269.25" y2="269.25"/><text fill="#000000" font-family="sans-serif" font-size="20" font-weight="bold" lengthAdjust="spacing" textLength="14" x="829.5" y="262.5332">4</text><text fill="#000000" font-family="sans-serif" font-size="20" lengthAdjust="spacing" textLength="358" x="847.5" y="262.5332">createConnector(code,floor1,floor2)</text><polygon fill="#181818" points="1444.5,302.5313,1454.5,306.5313,1444.5,310.5313,1448.5,306.5313" style="stroke:#181818;stroke-width:1.0;"/><line style="stroke:#181818;stroke-width:1.0;" x1="1227.5" x2="1450.5" y1="306.5313" y2="306.5313"/><text fill="#000000" font-family="sans-serif" font-size="20" font-weight="bold" lengthAdjust="spacing" textLength="14" x="1234.5" y="299.8145">5</text><text fill="#000000" font-family="sans-serif" font-size="20" lengthAdjust="spacing" textLength="137" x="1252.5" y="299.8145">post(url,data)</text><polygon fill="#181818" points="1771,339.8125,1781,343.8125,1771,347.8125,1775,343.8125" style="stroke:#181818;stroke-width:1.0;"/><line style="stroke:#181818;stroke-width:1.0;" x1="1466.5" x2="1777" y1="343.8125" y2="343.8125"/><text fill="#000000" font-family="sans-serif" font-size="20" font-weight="bold" lengthAdjust="spacing" textLength="14" x="1473.5" y="337.0957">6</text><text fill="#000000" font-family="sans-serif" font-size="20" lengthAdjust="spacing" textLength="253" x="1491.5" y="337.0957">POST /connectors {data}</text><path d="M10,358.8125 L86,358.8125 L86,374.0938 L76,384.0938 L10,384.0938 L10,358.8125 " fill="#EEEEEE" style="stroke:#000000;stroke-width:1.5;"/><rect fill="none" height="357.0938" style="stroke:#000000;stroke-width:1.5;" width="1864" x="10" y="358.8125"/><text fill="#000000" font-family="sans-serif" font-size="20" font-weight="bold" lengthAdjust="spacing" textLength="31" x="25" y="378.377">alt</text><text fill="#000000" font-family="sans-serif" font-size="20" font-weight="bold" lengthAdjust="spacing" textLength="327" x="101" y="379.377">[a new connector is created]</text><polygon fill="#181818" points="1477.5,417.6563,1467.5,421.6563,1477.5,425.6563,1473.5,421.6563" style="stroke:#181818;stroke-width:1.0;"/><line style="stroke:#181818;stroke-width:1.0;stroke-dasharray:2.0,2.0;" x1="1471.5" x2="1787" y1="421.6563" y2="421.6563"/><text fill="#000000" font-family="sans-serif" font-size="20" font-weight="bold" lengthAdjust="spacing" textLength="14" x="1483.5" y="414.9395">7</text><text fill="#000000" font-family="sans-serif" font-size="20" lengthAdjust="spacing" textLength="124" x="1501.5" y="414.9395">201 Created</text><polygon fill="#181818" points="1238.5,454.9375,1228.5,458.9375,1238.5,462.9375,1234.5,458.9375" style="stroke:#181818;stroke-width:1.0;"/><line style="stroke:#181818;stroke-width:1.0;stroke-dasharray:2.0,2.0;" x1="1232.5" x2="1460.5" y1="458.9375" y2="458.9375"/><text fill="#000000" font-family="sans-serif" font-size="20" font-weight="bold" lengthAdjust="spacing" textLength="14" x="1244.5" y="452.2207">8</text><text fill="#000000" font-family="sans-serif" font-size="20" lengthAdjust="spacing" textLength="187" x="1262.5" y="452.2207">the new connector</text><polygon fill="#181818" points="833.5,492.2188,823.5,496.2188,833.5,500.2188,829.5,496.2188" style="stroke:#181818;stroke-width:1.0;"/><line style="stroke:#181818;stroke-width:1.0;stroke-dasharray:2.0,2.0;" x1="827.5" x2="1221.5" y1="496.2188" y2="496.2188"/><text fill="#000000" font-family="sans-serif" font-size="20" font-weight="bold" lengthAdjust="spacing" textLength="14" x="839.5" y="489.502">9</text><text fill="#000000" font-family="sans-serif" font-size="20" lengthAdjust="spacing" textLength="187" x="857.5" y="489.502">the new connector</text><polygon fill="#181818" points="126.5,529.5,116.5,533.5,126.5,537.5,122.5,533.5" style="stroke:#181818;stroke-width:1.0;"/><line style="stroke:#181818;stroke-width:1.0;stroke-dasharray:2.0,2.0;" x1="120.5" x2="811.5" y1="533.5" y2="533.5"/><text fill="#000000" font-family="sans-serif" font-size="20" font-weight="bold" lengthAdjust="spacing" textLength="28" x="132.5" y="526.7832">10</text><text fill="#000000" font-family="sans-serif" font-size="20" lengthAdjust="spacing" textLength="364" x="164.5" y="526.7832">informs the success of the operation</text><line style="stroke:#000000;stroke-width:1.0;stroke-dasharray:2.0,2.0;" x1="10" x2="1874" y1="542.5" y2="542.5"/><text fill="#000000" font-family="sans-serif" font-size="20" font-weight="bold" lengthAdjust="spacing" textLength="497" x="15" y="561.0645">[there is a connector between those floors]</text><polygon fill="#181818" points="1477.5,592.0625,1467.5,596.0625,1477.5,600.0625,1473.5,596.0625" style="stroke:#181818;stroke-width:1.0;"/><line style="stroke:#181818;stroke-width:1.0;stroke-dasharray:2.0,2.0;" x1="1471.5" x2="1787" y1="596.0625" y2="596.0625"/><text fill="#000000" font-family="sans-serif" font-size="20" font-weight="bold" lengthAdjust="spacing" textLength="28" x="1483.5" y="589.3457">11</text><text fill="#000000" font-family="sans-serif" font-size="20" lengthAdjust="spacing" textLength="172" x="1515.5" y="589.3457">400 Bad Request</text><polygon fill="#181818" points="1238.5,629.3438,1228.5,633.3438,1238.5,637.3438,1234.5,633.3438" style="stroke:#181818;stroke-width:1.0;"/><line style="stroke:#181818;stroke-width:1.0;stroke-dasharray:2.0,2.0;" x1="1232.5" x2="1460.5" y1="633.3438" y2="633.3438"/><text fill="#000000" font-family="sans-serif" font-size="20" font-weight="bold" lengthAdjust="spacing" textLength="28" x="1244.5" y="626.627">12</text><text fill="#000000" font-family="sans-serif" font-size="20" lengthAdjust="spacing" textLength="48" x="1276.5" y="626.627">error</text><polygon fill="#181818" points="833.5,666.625,823.5,670.625,833.5,674.625,829.5,670.625" style="stroke:#181818;stroke-width:1.0;"/><line style="stroke:#181818;stroke-width:1.0;stroke-dasharray:2.0,2.0;" x1="827.5" x2="1221.5" y1="670.625" y2="670.625"/><text fill="#000000" font-family="sans-serif" font-size="20" font-weight="bold" lengthAdjust="spacing" textLength="28" x="839.5" y="663.9082">13</text><text fill="#000000" font-family="sans-serif" font-size="20" lengthAdjust="spacing" textLength="48" x="871.5" y="663.9082">error</text><polygon fill="#181818" points="126.5,703.9063,116.5,707.9063,126.5,711.9063,122.5,707.9063" style="stroke:#181818;stroke-width:1.0;"/><line style="stroke:#181818;stroke-width:1.0;stroke-dasharray:2.0,2.0;" x1="120.5" x2="816.5" y1="707.9063" y2="707.9063"/><text fill="#000000" font-family="sans-serif" font-size="20" font-weight="bold" lengthAdjust="spacing" textLength="28" x="132.5" y="701.1895">14</text><text fill="#000000" font-family="sans-serif" font-size="20" lengthAdjust="spacing" textLength="641" x="164.5" y="701.1895">shows error message "A connector exists between those floors."</text><!--SRC=[ZPFFRjf04CRl-nGZLwg855f0EI64b3gjV2XA56YaIhqizW0hx5rtPnrGgZvH7o6tF5bdr_onIPhq0bxxzyqtyurDQwLBQMMHctID6MIua5NklXZjfke1OT0Jid96LyKShQ0z3LSrDyEjkypLKXUetMYKyY_QyHZg2o5aweo5U0AI88fbKLO44wdb4cqanDni8NhwaxAPL1ejTEABiwV77_fEKILpzI2TCZg2Os41mFvEfQgKsa5SrpL5QJGJWTmVdi7JkngVehrNARuE9m5DPhERKmvr1jpuAzt3v6etf4y5cls_-wgMA_STyzniJXnlhx_DFWVNMrCv_ASjHwhkfKDELGXEjZlc68QmuHe4pa1gqJ-Le743t9n6luE6BAX6tMwGILeJB7X7ReL7cgyoF8T5RembwCDx68HR938yARIpLvhG-WQuJ2QTRFjvoiS_t7KNxuqwmIZuzEk_mTbHoX8Xl8xb2OjBGwvJsVpSEpIuH8Z4CtM4GxYvdixWus4QWbzUyFie2217cRlJd43HhiUCzvE4dFPb1xq-n8TdZIHsvI3Cw1M-MPz4UmKjJUBvcgwJUOCFMG0qLgSqxwse8wSgJP48p28SJOasV3i2Sq9_owAVJ3O6dQFR86f-Q1YfLyq6ZGOR1-_UE1u6RWTqqUl19vd1BVwiaDn_X8JMlXdC2yppC6XbDbIZK70I_F51TDaO5xUA-FryQUeFKRjwx3ysqNhL9-8l]--></g></svg>