<?xml version="1.0" encoding="UTF-8" standalone="no"?><svg xmlns="http://www.w3.org/2000/svg" xmlns:xlink="http://www.w3.org/1999/xlink" contentStyleType="text/css" height="494px" preserveAspectRatio="none" style="width:1092px;height:494px;background:#FFFFFF;" version="1.1" viewBox="0 0 1092 494" width="1092px" zoomAndPan="magnify"><defs/><g><rect fill="#FFFFFF" height="282.9198" style="stroke:#181818;stroke-width:1.0;" width="10" x="68.5" y="102.24"/><rect fill="#FFFFFF" height="249.6798" style="stroke:#181818;stroke-width:1.0;" width="10" x="347.125" y="135.4799"/><rect fill="#FFFFFF" height="118.7199" style="stroke:#181818;stroke-width:1.0;" width="10" x="696.75" y="225.1999"/><rect fill="none" height="153.1999" style="stroke:#000000;stroke-width:1.5;" width="530.625" x="274.125" y="150.4799"/><line style="stroke:#181818;stroke-width:0.5;stroke-dasharray:5.0,5.0;" x1="73" x2="73" y1="92.24" y2="403.1598"/><line style="stroke:#181818;stroke-width:0.5;stroke-dasharray:5.0,5.0;" x1="352.125" x2="352.125" y1="92.24" y2="403.1598"/><line style="stroke:#181818;stroke-width:0.5;stroke-dasharray:5.0,5.0;" x1="701.75" x2="701.75" y1="92.24" y2="403.1598"/><line style="stroke:#181818;stroke-width:0.5;stroke-dasharray:5.0,5.0;" x1="872.75" x2="872.75" y1="92.24" y2="403.1598"/><line style="stroke:#181818;stroke-width:0.5;stroke-dasharray:5.0,5.0;" x1="1018.75" x2="1018.75" y1="92.24" y2="403.1598"/><text fill="#000000" font-family="sans-serif" font-size="20" lengthAdjust="spacing" textLength="131" x="5" y="86.38">Task Manager</text><ellipse cx="73.5" cy="13.5" fill="#E2E2F0" rx="8" ry="8" style="stroke:#181818;stroke-width:0.5;"/><path d="M73.5,21.5 L73.5,48.5 M60.5,29.5 L86.5,29.5 M73.5,48.5 L60.5,63.5 M73.5,48.5 L86.5,63.5 " fill="none" style="stroke:#181818;stroke-width:0.5;"/><text fill="#000000" font-family="sans-serif" font-size="20" lengthAdjust="spacing" textLength="131" x="5" y="423.5398">Task Manager</text><ellipse cx="73.5" cy="437.8997" fill="#E2E2F0" rx="8" ry="8" style="stroke:#181818;stroke-width:0.5;"/><path d="M73.5,445.8997 L73.5,472.8997 M60.5,453.8997 L86.5,453.8997 M73.5,472.8997 L60.5,487.8997 M73.5,472.8997 L86.5,487.8997 " fill="none" style="stroke:#181818;stroke-width:0.5;"/><rect fill="#E2E2F0" height="68.4799" rx="2.5" ry="2.5" style="stroke:#181818;stroke-width:0.5;" width="136" x="284.125" y="22.76"/><text fill="#000000" font-family="sans-serif" font-size="20" font-style="italic" lengthAdjust="spacing" textLength="122" x="291.125" y="51.14">«system (C4)»</text><text fill="#000000" font-family="sans-serif" font-size="20" lengthAdjust="spacing" textLength="116" x="294.125" y="78.38">Visualization</text><rect fill="#E2E2F0" height="68.4799" rx="2.5" ry="2.5" style="stroke:#181818;stroke-width:0.5;" width="136" x="284.125" y="402.1598"/><text fill="#000000" font-family="sans-serif" font-size="20" font-style="italic" lengthAdjust="spacing" textLength="122" x="291.125" y="430.5398">«system (C4)»</text><text fill="#000000" font-family="sans-serif" font-size="20" lengthAdjust="spacing" textLength="116" x="294.125" y="457.7797">Visualization</text><rect fill="#E2E2F0" height="68.4799" rx="2.5" ry="2.5" style="stroke:#181818;stroke-width:0.5;" width="186" x="608.75" y="22.76"/><text fill="#000000" font-family="sans-serif" font-size="20" font-style="italic" lengthAdjust="spacing" textLength="122" x="640.75" y="51.14">«system (C4)»</text><text fill="#000000" font-family="sans-serif" font-size="20" lengthAdjust="spacing" textLength="172" x="615.75" y="78.38">Tasks Master Data</text><rect fill="#E2E2F0" height="68.4799" rx="2.5" ry="2.5" style="stroke:#181818;stroke-width:0.5;" width="186" x="608.75" y="402.1598"/><text fill="#000000" font-family="sans-serif" font-size="20" font-style="italic" lengthAdjust="spacing" textLength="122" x="640.75" y="430.5398">«system (C4)»</text><text fill="#000000" font-family="sans-serif" font-size="20" lengthAdjust="spacing" textLength="172" x="615.75" y="457.7797">Tasks Master Data</text><rect fill="#E2E2F0" height="68.4799" rx="2.5" ry="2.5" style="stroke:#181818;stroke-width:0.5;" width="136" x="804.75" y="22.76"/><text fill="#000000" font-family="sans-serif" font-size="20" font-style="italic" lengthAdjust="spacing" textLength="122" x="811.75" y="51.14">«system (C4)»</text><text fill="#000000" font-family="sans-serif" font-size="20" lengthAdjust="spacing" textLength="81" x="832.25" y="78.38">Planning</text><rect fill="#E2E2F0" height="68.4799" rx="2.5" ry="2.5" style="stroke:#181818;stroke-width:0.5;" width="136" x="804.75" y="402.1598"/><text fill="#000000" font-family="sans-serif" font-size="20" font-style="italic" lengthAdjust="spacing" textLength="122" x="811.75" y="430.5398">«system (C4)»</text><text fill="#000000" font-family="sans-serif" font-size="20" lengthAdjust="spacing" textLength="81" x="832.25" y="457.7797">Planning</text><rect fill="#E2E2F0" height="68.4799" rx="2.5" ry="2.5" style="stroke:#181818;stroke-width:0.5;" width="136" x="950.75" y="22.76"/><text fill="#000000" font-family="sans-serif" font-size="20" font-style="italic" lengthAdjust="spacing" textLength="122" x="957.75" y="51.14">«system (C4)»</text><text fill="#000000" font-family="sans-serif" font-size="20" lengthAdjust="spacing" textLength="48" x="994.75" y="78.38">MDD</text><rect fill="#E2E2F0" height="68.4799" rx="2.5" ry="2.5" style="stroke:#181818;stroke-width:0.5;" width="136" x="950.75" y="402.1598"/><text fill="#000000" font-family="sans-serif" font-size="20" font-style="italic" lengthAdjust="spacing" textLength="122" x="957.75" y="430.5398">«system (C4)»</text><text fill="#000000" font-family="sans-serif" font-size="20" lengthAdjust="spacing" textLength="48" x="994.75" y="457.7797">MDD</text><rect fill="#FFFFFF" height="282.9198" style="stroke:#181818;stroke-width:1.0;" width="10" x="68.5" y="102.24"/><rect fill="#FFFFFF" height="249.6798" style="stroke:#181818;stroke-width:1.0;" width="10" x="347.125" y="135.4799"/><rect fill="#FFFFFF" height="118.7199" style="stroke:#181818;stroke-width:1.0;" width="10" x="696.75" y="225.1999"/><polygon fill="#181818" points="335.125,131.4799,345.125,135.4799,335.125,139.4799,339.125,135.4799" style="stroke:#181818;stroke-width:1.0;"/><line style="stroke:#181818;stroke-width:1.0;" x1="78.5" x2="341.125" y1="135.4799" y2="135.4799"/><text fill="#000000" font-family="sans-serif" font-size="20" font-weight="bold" lengthAdjust="spacing" textLength="11.625" x="85.5" y="127.62">1</text><text fill="#000000" font-family="sans-serif" font-size="20" lengthAdjust="spacing" textLength="185" x="101.125" y="127.62">requests a new task</text><path d="M274.125,150.4799 L344,150.4799 L344,169.7199 L334,179.7199 L274.125,179.7199 L274.125,150.4799 " fill="#EEEEEE" style="stroke:#000000;stroke-width:1.5;"/><rect fill="none" height="153.1999" style="stroke:#000000;stroke-width:1.5;" width="530.625" x="274.125" y="150.4799"/><text fill="#000000" font-family="sans-serif" font-size="20" font-weight="bold" lengthAdjust="spacing" textLength="24.875" x="289.125" y="172.8599">alt</text><text fill="#000000" font-family="sans-serif" font-size="20" font-weight="bold" lengthAdjust="spacing" textLength="283.875" x="359" y="173.8599">[request is surveillance then]</text><polygon fill="#181818" points="684.75,221.1999,694.75,225.1999,684.75,229.1999,688.75,225.1999" style="stroke:#181818;stroke-width:1.0;"/><line style="stroke:#181818;stroke-width:1.0;" x1="357.125" x2="690.75" y1="225.1999" y2="225.1999"/><text fill="#000000" font-family="sans-serif" font-size="20" font-weight="bold" lengthAdjust="spacing" textLength="11.625" x="364.125" y="217.3399">2</text><text fill="#000000" font-family="sans-serif" font-size="20" lengthAdjust="spacing" textLength="260" x="379.75" y="217.3399">POST /requests/surveillance</text><line style="stroke:#000000;stroke-width:1.0;stroke-dasharray:2.0,2.0;" x1="274.125" x2="804.75" y1="234.1999" y2="234.1999"/><text fill="#000000" font-family="sans-serif" font-size="20" font-weight="bold" lengthAdjust="spacing" textLength="325.75" x="279.125" y="255.5799">[request is pickAndDelivery then]</text><polygon fill="#181818" points="684.75,291.6798,694.75,295.6798,684.75,299.6798,688.75,295.6798" style="stroke:#181818;stroke-width:1.0;"/><line style="stroke:#181818;stroke-width:1.0;" x1="357.125" x2="690.75" y1="295.6798" y2="295.6798"/><text fill="#000000" font-family="sans-serif" font-size="20" font-weight="bold" lengthAdjust="spacing" textLength="11.625" x="364.125" y="287.8198">3</text><text fill="#000000" font-family="sans-serif" font-size="20" lengthAdjust="spacing" textLength="300" x="379.75" y="287.8198">POST /requests/pickAndDelivery</text><polygon fill="#181818" points="368.125,339.9198,358.125,343.9198,368.125,347.9198,364.125,343.9198" style="stroke:#181818;stroke-width:1.0;"/><line style="stroke:#181818;stroke-width:1.0;stroke-dasharray:2.0,2.0;" x1="362.125" x2="700.75" y1="343.9198" y2="343.9198"/><text fill="#000000" font-family="sans-serif" font-size="20" font-weight="bold" lengthAdjust="spacing" textLength="11.625" x="374.125" y="336.0598">4</text><text fill="#000000" font-family="sans-serif" font-size="20" lengthAdjust="spacing" textLength="229" x="389.75" y="336.0598">201 (returns the request)</text><polygon fill="#181818" points="84.5,381.1598,74.5,385.1598,84.5,389.1598,80.5,385.1598" style="stroke:#181818;stroke-width:1.0;"/><line style="stroke:#181818;stroke-width:1.0;stroke-dasharray:2.0,2.0;" x1="78.5" x2="351.125" y1="385.1598" y2="385.1598"/><text fill="#000000" font-family="sans-serif" font-size="20" font-weight="bold" lengthAdjust="spacing" textLength="11.625" x="90.5" y="377.2998">5</text><text fill="#000000" font-family="sans-serif" font-size="20" lengthAdjust="spacing" textLength="229" x="106.125" y="377.2998">201 (returns the request)</text><!--SRC=[bP11Jy9048NlyoicdE3GWCGJ8IJ6neH38md5-zYEkEbsYhkp6FZrxcAge0dHqrw-z-rxuniZEtBKsgvgkCQQNoXOVUX4r-R8E9q01UqajC_iW2hj79O5aiT1IRx1WeIsx0OG9MegioDHt2nFm9FnWQmvaffE1ZYV-uDNRd5uVpjQB2uIPP5_ENsKHivXJahNOwjJQ6L9nCZsEbladr_4zpUObfazASSc075WjaWhPkZuBR1NZuJ2xwYntpUxMSQWrHv2uz47jsTZOwEAKLzP032PeYzjdE7gSLtYkDUEp_b8djN80TXwFfVlJDNSIPspDNjsXx_uVqI0fOOqCCUidpYTtE3GiGOdFYdx7qTGysMVU9TvblqZbGvq8O4F]--></g></svg>