<?xml version="1.0" encoding="UTF-8" standalone="no"?><svg xmlns="http://www.w3.org/2000/svg" xmlns:xlink="http://www.w3.org/1999/xlink" contentStyleType="text/css" height="637px" preserveAspectRatio="none" style="width:1254px;height:637px;background:#FFFFFF;" version="1.1" viewBox="0 0 1254 637" width="1254px" zoomAndPan="magnify"><defs/><g><rect fill="#FFFFFF" height="425.3997" style="stroke:#181818;stroke-width:1.0;" width="10" x="25" y="102.24"/><rect fill="#FFFFFF" height="392.1598" style="stroke:#181818;stroke-width:1.0;" width="10" x="303.625" y="135.4799"/><rect fill="#FFFFFF" height="71.24" style="stroke:#181818;stroke-width:1.0;" width="10" x="653.25" y="225.1999"/><rect fill="#FFFFFF" height="119.4799" style="stroke:#181818;stroke-width:1.0;" width="10" x="653.25" y="366.9198"/><rect fill="#FFFFFF" height="30" style="stroke:#181818;stroke-width:1.0;" width="10" x="1004.875" y="266.4398"/><rect fill="#FFFFFF" height="30" style="stroke:#181818;stroke-width:1.0;" width="10" x="1004.875" y="408.1598"/><rect fill="none" height="295.6798" style="stroke:#000000;stroke-width:1.5;" width="882.25" x="230.625" y="150.4799"/><line style="stroke:#181818;stroke-width:0.5;stroke-dasharray:5.0,5.0;" x1="30" x2="30" y1="92.24" y2="545.6397"/><line style="stroke:#181818;stroke-width:0.5;stroke-dasharray:5.0,5.0;" x1="308.625" x2="308.625" y1="92.24" y2="545.6397"/><line style="stroke:#181818;stroke-width:0.5;stroke-dasharray:5.0,5.0;" x1="658.25" x2="658.25" y1="92.24" y2="545.6397"/><line style="stroke:#181818;stroke-width:0.5;stroke-dasharray:5.0,5.0;" x1="1009.875" x2="1009.875" y1="92.24" y2="545.6397"/><line style="stroke:#181818;stroke-width:0.5;stroke-dasharray:5.0,5.0;" x1="1180.875" x2="1180.875" y1="92.24" y2="545.6397"/><text fill="#000000" font-family="sans-serif" font-size="20" lengthAdjust="spacing" textLength="44" x="5" y="86.38">User</text><ellipse cx="30" cy="13.5" fill="#E2E2F0" rx="8" ry="8" style="stroke:#181818;stroke-width:0.5;"/><path d="M30,21.5 L30,48.5 M17,29.5 L43,29.5 M30,48.5 L17,63.5 M30,48.5 L43,63.5 " fill="none" style="stroke:#181818;stroke-width:0.5;"/><text fill="#000000" font-family="sans-serif" font-size="20" lengthAdjust="spacing" textLength="44" x="5" y="566.0197">User</text><ellipse cx="30" cy="580.3797" fill="#E2E2F0" rx="8" ry="8" style="stroke:#181818;stroke-width:0.5;"/><path d="M30,588.3797 L30,615.3797 M17,596.3797 L43,596.3797 M30,615.3797 L17,630.3797 M30,615.3797 L43,630.3797 " fill="none" style="stroke:#181818;stroke-width:0.5;"/><rect fill="#E2E2F0" height="68.4799" rx="2.5" ry="2.5" style="stroke:#181818;stroke-width:0.5;" width="136" x="240.625" y="22.76"/><text fill="#000000" font-family="sans-serif" font-size="20" font-style="italic" lengthAdjust="spacing" textLength="122" x="247.625" y="51.14">«system (C4)»</text><text fill="#000000" font-family="sans-serif" font-size="20" lengthAdjust="spacing" textLength="116" x="250.625" y="78.38">Visualization</text><rect fill="#E2E2F0" height="68.4799" rx="2.5" ry="2.5" style="stroke:#181818;stroke-width:0.5;" width="136" x="240.625" y="544.6397"/><text fill="#000000" font-family="sans-serif" font-size="20" font-style="italic" lengthAdjust="spacing" textLength="122" x="247.625" y="573.0197">«system (C4)»</text><text fill="#000000" font-family="sans-serif" font-size="20" lengthAdjust="spacing" textLength="116" x="250.625" y="600.2597">Visualization</text><rect fill="#E2E2F0" height="68.4799" rx="2.5" ry="2.5" style="stroke:#181818;stroke-width:0.5;" width="136" x="590.25" y="22.76"/><text fill="#000000" font-family="sans-serif" font-size="20" font-style="italic" lengthAdjust="spacing" textLength="122" x="597.25" y="51.14">«system (C4)»</text><text fill="#000000" font-family="sans-serif" font-size="20" lengthAdjust="spacing" textLength="48" x="634.25" y="78.38">MDD</text><rect fill="#E2E2F0" height="68.4799" rx="2.5" ry="2.5" style="stroke:#181818;stroke-width:0.5;" width="136" x="590.25" y="544.6397"/><text fill="#000000" font-family="sans-serif" font-size="20" font-style="italic" lengthAdjust="spacing" textLength="122" x="597.25" y="573.0197">«system (C4)»</text><text fill="#000000" font-family="sans-serif" font-size="20" lengthAdjust="spacing" textLength="48" x="634.25" y="600.2597">MDD</text><rect fill="#E2E2F0" height="68.4799" rx="2.5" ry="2.5" style="stroke:#181818;stroke-width:0.5;" width="186" x="916.875" y="22.76"/><text fill="#000000" font-family="sans-serif" font-size="20" font-style="italic" lengthAdjust="spacing" textLength="122" x="948.875" y="51.14">«system (C4)»</text><text fill="#000000" font-family="sans-serif" font-size="20" lengthAdjust="spacing" textLength="172" x="923.875" y="78.38">Tasks Master Data</text><rect fill="#E2E2F0" height="68.4799" rx="2.5" ry="2.5" style="stroke:#181818;stroke-width:0.5;" width="186" x="916.875" y="544.6397"/><text fill="#000000" font-family="sans-serif" font-size="20" font-style="italic" lengthAdjust="spacing" textLength="122" x="948.875" y="573.0197">«system (C4)»</text><text fill="#000000" font-family="sans-serif" font-size="20" lengthAdjust="spacing" textLength="172" x="923.875" y="600.2597">Tasks Master Data</text><rect fill="#E2E2F0" height="68.4799" rx="2.5" ry="2.5" style="stroke:#181818;stroke-width:0.5;" width="136" x="1112.875" y="22.76"/><text fill="#000000" font-family="sans-serif" font-size="20" font-style="italic" lengthAdjust="spacing" textLength="122" x="1119.875" y="51.14">«system (C4)»</text><text fill="#000000" font-family="sans-serif" font-size="20" lengthAdjust="spacing" textLength="81" x="1140.375" y="78.38">Planning</text><rect fill="#E2E2F0" height="68.4799" rx="2.5" ry="2.5" style="stroke:#181818;stroke-width:0.5;" width="136" x="1112.875" y="544.6397"/><text fill="#000000" font-family="sans-serif" font-size="20" font-style="italic" lengthAdjust="spacing" textLength="122" x="1119.875" y="573.0197">«system (C4)»</text><text fill="#000000" font-family="sans-serif" font-size="20" lengthAdjust="spacing" textLength="81" x="1140.375" y="600.2597">Planning</text><rect fill="#FFFFFF" height="425.3997" style="stroke:#181818;stroke-width:1.0;" width="10" x="25" y="102.24"/><rect fill="#FFFFFF" height="392.1598" style="stroke:#181818;stroke-width:1.0;" width="10" x="303.625" y="135.4799"/><rect fill="#FFFFFF" height="71.24" style="stroke:#181818;stroke-width:1.0;" width="10" x="653.25" y="225.1999"/><rect fill="#FFFFFF" height="119.4799" style="stroke:#181818;stroke-width:1.0;" width="10" x="653.25" y="366.9198"/><rect fill="#FFFFFF" height="30" style="stroke:#181818;stroke-width:1.0;" width="10" x="1004.875" y="266.4398"/><rect fill="#FFFFFF" height="30" style="stroke:#181818;stroke-width:1.0;" width="10" x="1004.875" y="408.1598"/><polygon fill="#181818" points="291.625,131.4799,301.625,135.4799,291.625,139.4799,295.625,135.4799" style="stroke:#181818;stroke-width:1.0;"/><line style="stroke:#181818;stroke-width:1.0;" x1="35" x2="297.625" y1="135.4799" y2="135.4799"/><text fill="#000000" font-family="sans-serif" font-size="20" font-weight="bold" lengthAdjust="spacing" textLength="11.625" x="42" y="127.62">1</text><text fill="#000000" font-family="sans-serif" font-size="20" lengthAdjust="spacing" textLength="217" x="57.625" y="127.62">requests a new request</text><path d="M230.625,150.4799 L300.5,150.4799 L300.5,169.7199 L290.5,179.7199 L230.625,179.7199 L230.625,150.4799 " fill="#EEEEEE" style="stroke:#000000;stroke-width:1.5;"/><rect fill="none" height="295.6798" style="stroke:#000000;stroke-width:1.5;" width="882.25" x="230.625" y="150.4799"/><text fill="#000000" font-family="sans-serif" font-size="20" font-weight="bold" lengthAdjust="spacing" textLength="24.875" x="245.625" y="172.8599">alt</text><text fill="#000000" font-family="sans-serif" font-size="20" font-weight="bold" lengthAdjust="spacing" textLength="283.875" x="315.5" y="173.8599">[request is surveillance then]</text><polygon fill="#181818" points="641.25,221.1999,651.25,225.1999,641.25,229.1999,645.25,225.1999" style="stroke:#181818;stroke-width:1.0;"/><line style="stroke:#181818;stroke-width:1.0;" x1="313.625" x2="647.25" y1="225.1999" y2="225.1999"/><text fill="#000000" font-family="sans-serif" font-size="20" font-weight="bold" lengthAdjust="spacing" textLength="11.625" x="320.625" y="217.3399">2</text><text fill="#000000" font-family="sans-serif" font-size="20" lengthAdjust="spacing" textLength="305" x="336.25" y="217.3399">POST /task-requests/surveillance</text><polygon fill="#181818" points="992.875,262.4398,1002.875,266.4398,992.875,270.4398,996.875,266.4398" style="stroke:#181818;stroke-width:1.0;"/><line style="stroke:#181818;stroke-width:1.0;" x1="663.25" x2="998.875" y1="266.4398" y2="266.4398"/><text fill="#000000" font-family="sans-serif" font-size="20" font-weight="bold" lengthAdjust="spacing" textLength="11.625" x="670.25" y="258.5799">3</text><text fill="#000000" font-family="sans-serif" font-size="20" lengthAdjust="spacing" textLength="270" x="685.875" y="258.5799">POST /requests/surveillances</text><line style="stroke:#000000;stroke-width:1.0;stroke-dasharray:2.0,2.0;" x1="230.625" x2="1112.875" y1="305.4398" y2="305.4398"/><text fill="#000000" font-family="sans-serif" font-size="20" font-weight="bold" lengthAdjust="spacing" textLength="325.75" x="235.625" y="326.8198">[request is pickAndDelivery then]</text><polygon fill="#181818" points="641.25,362.9198,651.25,366.9198,641.25,370.9198,645.25,366.9198" style="stroke:#181818;stroke-width:1.0;"/><line style="stroke:#181818;stroke-width:1.0;" x1="313.625" x2="647.25" y1="366.9198" y2="366.9198"/><text fill="#000000" font-family="sans-serif" font-size="20" font-weight="bold" lengthAdjust="spacing" textLength="11.625" x="320.625" y="359.0598">4</text><text fill="#000000" font-family="sans-serif" font-size="20" lengthAdjust="spacing" textLength="305" x="336.25" y="359.0598">POST /task-requests/surveillance</text><polygon fill="#181818" points="992.875,404.1598,1002.875,408.1598,992.875,412.1598,996.875,408.1598" style="stroke:#181818;stroke-width:1.0;"/><line style="stroke:#181818;stroke-width:1.0;" x1="663.25" x2="998.875" y1="408.1598" y2="408.1598"/><text fill="#000000" font-family="sans-serif" font-size="20" font-weight="bold" lengthAdjust="spacing" textLength="11.625" x="670.25" y="400.2998">5</text><text fill="#000000" font-family="sans-serif" font-size="20" lengthAdjust="spacing" textLength="307" x="685.875" y="400.2998">POST /requests/pick-and-delivery</text><polygon fill="#181818" points="324.625,482.3997,314.625,486.3997,324.625,490.3997,320.625,486.3997" style="stroke:#181818;stroke-width:1.0;"/><line style="stroke:#181818;stroke-width:1.0;stroke-dasharray:2.0,2.0;" x1="318.625" x2="657.25" y1="486.3997" y2="486.3997"/><text fill="#000000" font-family="sans-serif" font-size="20" font-weight="bold" lengthAdjust="spacing" textLength="11.625" x="330.625" y="478.5398">6</text><text fill="#000000" font-family="sans-serif" font-size="20" lengthAdjust="spacing" textLength="229" x="346.25" y="478.5398">201 (returns the request)</text><polygon fill="#181818" points="41,523.6397,31,527.6397,41,531.6397,37,527.6397" style="stroke:#181818;stroke-width:1.0;"/><line style="stroke:#181818;stroke-width:1.0;stroke-dasharray:2.0,2.0;" x1="35" x2="307.625" y1="527.6397" y2="527.6397"/><text fill="#000000" font-family="sans-serif" font-size="20" font-weight="bold" lengthAdjust="spacing" textLength="11.625" x="47" y="519.7797">7</text><text fill="#000000" font-family="sans-serif" font-size="20" lengthAdjust="spacing" textLength="229" x="62.625" y="519.7797">201 (returns the request)</text><!--SRC=[lP51Jy9048Nl-oicdE3GWCGJ8IJ6neH38md5-zWEkkconPqf1dwzizKgLKFYnTDcTzutRzuELzRlCU3ErKL59PIqnSR9NUrbRKy4qud1HchVx1uf62oa3f1dW0o33LCO68N55dQFNc2pR0iFbXjqzeHYQp-0-PoFBBI3uUtrQB7e4LcQjeYUbuLvzYxCaIk635KN84N1ozYgXLOElRV-wQSs9h875583OpHOieWfPX3efI4M1WHFhztrIxvP6eMTT1Mm3Do40rcdPWM1F9Ct1c8txHbppc1rlyvXB1eXwVgFpo6LVnee4V48AX_ZT_olA9-pgjPhIRrclOUeCEIOpkVVswAwyMLApXue7FyZGhHCq9T9-M5wCKPy85_gpxSzkrrD9rSm32HDy1o7xZADpBSlY0kU9yaVgBZctW3c3G00]--></g></svg>