<?xml version="1.0" encoding="UTF-8" standalone="no"?><svg xmlns="http://www.w3.org/2000/svg" xmlns:xlink="http://www.w3.org/1999/xlink" contentStyleType="text/css" height="2482px" preserveAspectRatio="none" style="width:1020px;height:2482px;background:#FFFFFF;" version="1.1" viewBox="0 0 1020 2482" width="1020px" zoomAndPan="magnify"><defs/><g><!--cluster MDM--><g id="cluster_MDM"><rect fill="none" height="1422.92" rx="2.5" ry="2.5" style="stroke:#181818;stroke-width:1.0;" width="857" x="157" y="133"/><rect fill="none" height="10" style="stroke:#181818;stroke-width:1.0;" width="15" x="994" y="138"/><rect fill="none" height="2" style="stroke:#181818;stroke-width:1.0;" width="4" x="992" y="140"/><rect fill="none" height="2" style="stroke:#181818;stroke-width:1.0;" width="4" x="992" y="144"/><text fill="#000000" font-family="sans-serif" font-size="20" font-style="italic" lengthAdjust="spacing" textLength="122" x="524.5" y="167.38">«component»</text><text fill="#000000" font-family="sans-serif" font-size="20" font-style="italic" lengthAdjust="spacing" textLength="145" x="513" y="194.62">«container (C4)»</text><text fill="#000000" font-family="sans-serif" font-size="20" font-weight="bold" lengthAdjust="spacing" textLength="169.5" x="500.75" y="221.8599">MD Management</text></g><!--cluster FDL--><g id="cluster_FDL"><path d="M361.5,276 L639.875,276 A3.75,3.75 0 0 1 642.375,278.5 L649.375,309.24 L782.5,309.24 A2.5,2.5 0 0 1 785,311.74 L785,435.98 A2.5,2.5 0 0 1 782.5,438.48 L361.5,438.48 A2.5,2.5 0 0 1 359,435.98 L359,278.5 A2.5,2.5 0 0 1 361.5,276 " fill="#80FFFF" style="stroke:#000000;stroke-width:1.5;"/><line style="stroke:#000000;stroke-width:1.5;" x1="359" x2="649.375" y1="309.24" y2="309.24"/><text fill="#000000" font-family="sans-serif" font-size="20" font-weight="bold" lengthAdjust="spacing" textLength="277.375" x="363" y="299.38">Frameworks &amp; Drivers Layer</text></g><!--cluster IAL--><g id="cluster_IAL"><path d="M361.5,628.48 L604.25,628.48 A3.75,3.75 0 0 1 606.75,630.98 L613.75,661.72 L782.5,661.72 A2.5,2.5 0 0 1 785,664.22 L785,788.46 A2.5,2.5 0 0 1 782.5,790.96 L361.5,790.96 A2.5,2.5 0 0 1 359,788.46 L359,630.98 A2.5,2.5 0 0 1 361.5,628.48 " fill="#80FF80" style="stroke:#000000;stroke-width:1.5;"/><line style="stroke:#000000;stroke-width:1.5;" x1="359" x2="613.75" y1="661.72" y2="661.72"/><text fill="#000000" font-family="sans-serif" font-size="20" font-weight="bold" lengthAdjust="spacing" textLength="241.75" x="363" y="651.86">Interface Adapters Layer</text></g><!--cluster ABR--><g id="cluster_ABR"><path d="M279.5,980.96 L542.5,980.96 A3.75,3.75 0 0 1 545,983.46 L552,1014.2 L556.5,1014.2 A2.5,2.5 0 0 1 559,1016.7 L559,1140.94 A2.5,2.5 0 0 1 556.5,1143.44 L279.5,1143.44 A2.5,2.5 0 0 1 277,1140.94 L277,983.46 A2.5,2.5 0 0 1 279.5,980.96 " fill="#FF8080" style="stroke:#000000;stroke-width:1.5;"/><line style="stroke:#000000;stroke-width:1.5;" x1="277" x2="552" y1="1014.2" y2="1014.2"/><text fill="#000000" font-family="sans-serif" font-size="20" font-weight="bold" lengthAdjust="spacing" textLength="262" x="281" y="1004.34">Application Business Rules</text></g><!--cluster EBR--><g id="cluster_EBR"><path d="M222.5,1361.44 L475.875,1361.44 A3.75,3.75 0 0 1 478.375,1363.94 L485.375,1394.68 L512.5,1394.68 A2.5,2.5 0 0 1 515,1397.18 L515,1521.42 A2.5,2.5 0 0 1 512.5,1523.92 L222.5,1523.92 A2.5,2.5 0 0 1 220,1521.42 L220,1363.94 A2.5,2.5 0 0 1 222.5,1361.44 " fill="#FFC080" style="stroke:#000000;stroke-width:1.5;"/><line style="stroke:#000000;stroke-width:1.5;" x1="220" x2="485.375" y1="1394.68" y2="1394.68"/><text fill="#000000" font-family="sans-serif" font-size="20" font-weight="bold" lengthAdjust="spacing" textLength="252.375" x="224" y="1384.82">Enterprise Business Rules</text></g><!--cluster MDM2--><g id="cluster_MDM2"><rect fill="none" height="867.96" rx="2.5" ry="2.5" style="stroke:#181818;stroke-width:1.0;" width="603" x="7" y="1608.92"/><rect fill="none" height="10" style="stroke:#181818;stroke-width:1.0;" width="15" x="590" y="1613.92"/><rect fill="none" height="2" style="stroke:#181818;stroke-width:1.0;" width="4" x="588" y="1615.92"/><rect fill="none" height="2" style="stroke:#181818;stroke-width:1.0;" width="4" x="588" y="1619.92"/><text fill="#000000" font-family="sans-serif" font-size="20" font-style="italic" lengthAdjust="spacing" textLength="122" x="247.5" y="1643.3">«component»</text><text fill="#000000" font-family="sans-serif" font-size="20" font-style="italic" lengthAdjust="spacing" textLength="145" x="236" y="1670.54">«container (C4)»</text><text fill="#000000" font-family="sans-serif" font-size="20" font-weight="bold" lengthAdjust="spacing" textLength="169.5" x="223.75" y="1697.7799">MD Management</text></g><!--cluster I2--><g id="cluster_I2"><path d="M235.5,2301.64 L375.25,2301.64 A3.75,3.75 0 0 1 377.75,2304.14 L384.75,2334.88 L564.5,2334.88 A2.5,2.5 0 0 1 567,2337.38 L567,2442.38 A2.5,2.5 0 0 1 564.5,2444.88 L235.5,2444.88 A2.5,2.5 0 0 1 233,2442.38 L233,2304.14 A2.5,2.5 0 0 1 235.5,2301.64 " fill="none" style="stroke:#000000;stroke-width:1.5;"/><line style="stroke:#000000;stroke-width:1.5;" x1="233" x2="384.75" y1="2334.88" y2="2334.88"/><text fill="#000000" font-family="sans-serif" font-size="20" font-weight="bold" lengthAdjust="spacing" textLength="138.75" x="237" y="2325.02">Infrastructure</text></g><!--cluster IA2--><g id="cluster_IA2"><path d="M200.5,2109.4 L385.125,2109.4 A3.75,3.75 0 0 1 387.625,2111.9 L394.625,2142.64 L575.5,2142.64 A2.5,2.5 0 0 1 578,2145.14 L578,2250.14 A2.5,2.5 0 0 1 575.5,2252.64 L200.5,2252.64 A2.5,2.5 0 0 1 198,2250.14 L198,2111.9 A2.5,2.5 0 0 1 200.5,2109.4 " fill="none" style="stroke:#000000;stroke-width:1.5;"/><line style="stroke:#000000;stroke-width:1.5;" x1="198" x2="394.625" y1="2142.64" y2="2142.64"/><text fill="#000000" font-family="sans-serif" font-size="20" font-weight="bold" lengthAdjust="spacing" textLength="183.625" x="202" y="2132.78">Interface Adapters</text></g><!--cluster UC2--><g id="cluster_UC2"><path d="M113.5,1917.16 L495.375,1917.16 A3.75,3.75 0 0 1 497.875,1919.66 L504.875,1950.4 L504.5,1950.4 A2.5,2.5 0 0 1 507,1952.9 L507,2057.9 A2.5,2.5 0 0 1 504.5,2060.4 L113.5,2060.4 A2.5,2.5 0 0 1 111,2057.9 L111,1919.66 A2.5,2.5 0 0 1 113.5,1917.16 " fill="none" style="stroke:#000000;stroke-width:1.5;"/><line style="stroke:#000000;stroke-width:1.5;" x1="111" x2="504.875" y1="1950.4" y2="1950.4"/><text fill="#000000" font-family="sans-serif" font-size="20" font-weight="bold" lengthAdjust="spacing" textLength="380.875" x="115" y="1940.54">Application Services/Use Case Services</text></g><!--cluster E2--><g id="cluster_E2"><path d="M41.5,1724.92 L255,1724.92 A3.75,3.75 0 0 1 257.5,1727.42 L264.5,1758.16 L575.5,1758.16 A2.5,2.5 0 0 1 578,1760.66 L578,1865.66 A2.5,2.5 0 0 1 575.5,1868.16 L41.5,1868.16 A2.5,2.5 0 0 1 39,1865.66 L39,1727.42 A2.5,2.5 0 0 1 41.5,1724.92 " fill="none" style="stroke:#000000;stroke-width:1.5;"/><line style="stroke:#000000;stroke-width:1.5;" x1="39" x2="264.5" y1="1758.16" y2="1758.16"/><text fill="#000000" font-family="sans-serif" font-size="20" font-weight="bold" lengthAdjust="spacing" textLength="212.5" x="43" y="1748.3">Entities/Core/Domain</text></g><text fill="#000000" font-family="sans-serif" font-size="20" lengthAdjust="spacing" textLength="5" x="479.5" y="109.14"> </text><rect fill="#F1F1F1" height="12" style="stroke:#181818;stroke-width:1.5;" width="12" x="476" y="127"/><text fill="#000000" font-family="sans-serif" font-size="20" lengthAdjust="spacing" textLength="144" x="563.5" y="109.14">Persistence API</text><rect fill="#F1F1F1" height="12" style="stroke:#181818;stroke-width:1.5;" width="12" x="629.5" y="127"/><!--entity CTRL_API--><g id="elem_CTRL_API"><ellipse cx="388" cy="533.48" fill="#F1F1F1" rx="8" ry="8" style="stroke:#181818;stroke-width:0.5;"/><text fill="#000000" font-family="sans-serif" font-size="20" lengthAdjust="spacing" textLength="130" x="323" y="571.86">Controller API</text></g><!--entity DATA_API--><g id="elem_DATA_API"><ellipse cx="576" cy="533.48" fill="#F1F1F1" rx="8" ry="8" style="stroke:#181818;stroke-width:0.5;"/><text fill="#000000" font-family="sans-serif" font-size="20" lengthAdjust="spacing" textLength="144" x="504" y="571.86">Data Model API</text></g><!--entity SRV_API--><g id="elem_SRV_API"><ellipse cx="464" cy="885.96" fill="#F1F1F1" rx="8" ry="8" style="stroke:#181818;stroke-width:0.5;"/><text fill="#000000" font-family="sans-serif" font-size="20" lengthAdjust="spacing" textLength="155" x="386.5" y="924.34">App Services API</text></g><!--entity DTO_API--><g id="elem_DTO_API"><ellipse cx="297" cy="885.96" fill="#F1F1F1" rx="8" ry="8" style="stroke:#181818;stroke-width:0.5;"/><text fill="#000000" font-family="sans-serif" font-size="20" lengthAdjust="spacing" textLength="79" x="257.5" y="924.34">DTO API</text></g><!--entity REPO_API--><g id="elem_REPO_API"><ellipse cx="673" cy="885.96" fill="#F1F1F1" rx="8" ry="8" style="stroke:#181818;stroke-width:0.5;"/><text fill="#000000" font-family="sans-serif" font-size="20" lengthAdjust="spacing" textLength="84" x="631" y="924.34">Repo API</text></g><!--entity MODEL_API--><g id="elem_MODEL_API"><ellipse cx="408" cy="1238.44" fill="#F1F1F1" rx="8" ry="8" style="stroke:#181818;stroke-width:0.5;"/><text fill="#000000" font-family="sans-serif" font-size="20" lengthAdjust="spacing" textLength="95" x="360.5" y="1276.82">Model API</text></g><!--entity PERSISTENCE_API--><g id="elem_PERSISTENCE_API"><ellipse cx="771" cy="533.48" fill="#F1F1F1" rx="8" ry="8" style="stroke:#181818;stroke-width:0.5;"/><text fill="#000000" font-family="sans-serif" font-size="20" lengthAdjust="spacing" textLength="144" x="699" y="571.86">Persistence API</text></g><!--entity ROUTE--><g id="elem_ROUTE"><rect fill="#F1F1F1" height="84.4799" rx="2.5" ry="2.5" style="stroke:#181818;stroke-width:0.5;" width="162" x="383" y="330"/><rect fill="#F1F1F1" height="10" style="stroke:#181818;stroke-width:0.5;" width="15" x="525" y="335"/><rect fill="#F1F1F1" height="2" style="stroke:#181818;stroke-width:0.5;" width="4" x="523" y="337"/><rect fill="#F1F1F1" height="2" style="stroke:#181818;stroke-width:0.5;" width="4" x="523" y="341"/><text fill="#000000" font-family="sans-serif" font-size="20" font-style="italic" lengthAdjust="spacing" textLength="122" x="398" y="371.38">«component»</text><text fill="#000000" font-family="sans-serif" font-size="20" lengthAdjust="spacing" textLength="72" x="423" y="398.62">Routing</text></g><!--entity PERSISTENCE--><g id="elem_PERSISTENCE"><rect fill="#F1F1F1" height="84.4799" rx="2.5" ry="2.5" style="stroke:#181818;stroke-width:0.5;" width="162" x="580" y="330"/><rect fill="#F1F1F1" height="10" style="stroke:#181818;stroke-width:0.5;" width="15" x="722" y="335"/><rect fill="#F1F1F1" height="2" style="stroke:#181818;stroke-width:0.5;" width="4" x="720" y="337"/><rect fill="#F1F1F1" height="2" style="stroke:#181818;stroke-width:0.5;" width="4" x="720" y="341"/><text fill="#000000" font-family="sans-serif" font-size="20" font-style="italic" lengthAdjust="spacing" textLength="122" x="595" y="371.38">«component»</text><text fill="#000000" font-family="sans-serif" font-size="20" lengthAdjust="spacing" textLength="107" x="602.5" y="398.62">Persistence</text></g><!--entity DATA--><g id="elem_DATA"><rect fill="#F1F1F1" height="84.4799" rx="2.5" ry="2.5" style="stroke:#181818;stroke-width:0.5;" width="162" x="173" y="330"/><rect fill="#F1F1F1" height="10" style="stroke:#181818;stroke-width:0.5;" width="15" x="315" y="335"/><rect fill="#F1F1F1" height="2" style="stroke:#181818;stroke-width:0.5;" width="4" x="313" y="337"/><rect fill="#F1F1F1" height="2" style="stroke:#181818;stroke-width:0.5;" width="4" x="313" y="341"/><text fill="#000000" font-family="sans-serif" font-size="20" font-style="italic" lengthAdjust="spacing" textLength="122" x="188" y="371.38">«component»</text><text fill="#000000" font-family="sans-serif" font-size="20" lengthAdjust="spacing" textLength="107" x="195.5" y="398.62">Data Model</text></g><!--entity DTO--><g id="elem_DTO"><rect fill="#F1F1F1" height="84.4799" rx="2.5" ry="2.5" style="stroke:#181818;stroke-width:0.5;" width="162" x="173" y="682.48"/><rect fill="#F1F1F1" height="10" style="stroke:#181818;stroke-width:0.5;" width="15" x="315" y="687.48"/><rect fill="#F1F1F1" height="2" style="stroke:#181818;stroke-width:0.5;" width="4" x="313" y="689.48"/><rect fill="#F1F1F1" height="2" style="stroke:#181818;stroke-width:0.5;" width="4" x="313" y="693.48"/><text fill="#000000" font-family="sans-serif" font-size="20" font-style="italic" lengthAdjust="spacing" textLength="122" x="188" y="723.86">«component»</text><text fill="#000000" font-family="sans-serif" font-size="20" lengthAdjust="spacing" textLength="42" x="228" y="751.1">DTO</text></g><!--entity CTRL--><g id="elem_CTRL"><rect fill="#F1F1F1" height="84.4799" rx="2.5" ry="2.5" style="stroke:#181818;stroke-width:0.5;" width="162" x="383" y="682.48"/><rect fill="#F1F1F1" height="10" style="stroke:#181818;stroke-width:0.5;" width="15" x="525" y="687.48"/><rect fill="#F1F1F1" height="2" style="stroke:#181818;stroke-width:0.5;" width="4" x="523" y="689.48"/><rect fill="#F1F1F1" height="2" style="stroke:#181818;stroke-width:0.5;" width="4" x="523" y="693.48"/><text fill="#000000" font-family="sans-serif" font-size="20" font-style="italic" lengthAdjust="spacing" textLength="122" x="398" y="723.86">«component»</text><text fill="#000000" font-family="sans-serif" font-size="20" lengthAdjust="spacing" textLength="93" x="412.5" y="751.1">Controller</text></g><!--entity REPO--><g id="elem_REPO"><rect fill="#F1F1F1" height="84.4799" rx="2.5" ry="2.5" style="stroke:#181818;stroke-width:0.5;" width="162" x="580" y="682.48"/><rect fill="#F1F1F1" height="10" style="stroke:#181818;stroke-width:0.5;" width="15" x="722" y="687.48"/><rect fill="#F1F1F1" height="2" style="stroke:#181818;stroke-width:0.5;" width="4" x="720" y="689.48"/><rect fill="#F1F1F1" height="2" style="stroke:#181818;stroke-width:0.5;" width="4" x="720" y="693.48"/><text fill="#000000" font-family="sans-serif" font-size="20" font-style="italic" lengthAdjust="spacing" textLength="122" x="595" y="723.86">«component»</text><text fill="#000000" font-family="sans-serif" font-size="20" lengthAdjust="spacing" textLength="99" x="606.5" y="751.1">Repository</text></g><!--entity SRV--><g id="elem_SRV"><rect fill="#F1F1F1" height="84.4799" rx="2.5" ry="2.5" style="stroke:#181818;stroke-width:0.5;" width="215" x="300.5" y="1034.96"/><rect fill="#F1F1F1" height="10" style="stroke:#181818;stroke-width:0.5;" width="15" x="495.5" y="1039.96"/><rect fill="#F1F1F1" height="2" style="stroke:#181818;stroke-width:0.5;" width="4" x="493.5" y="1041.96"/><rect fill="#F1F1F1" height="2" style="stroke:#181818;stroke-width:0.5;" width="4" x="493.5" y="1045.96"/><text fill="#000000" font-family="sans-serif" font-size="20" font-style="italic" lengthAdjust="spacing" textLength="122" x="342" y="1076.34">«component»</text><text fill="#000000" font-family="sans-serif" font-size="20" lengthAdjust="spacing" textLength="175" x="315.5" y="1103.58">Application Service</text></g><!--entity MODEL--><g id="elem_MODEL"><rect fill="#F1F1F1" height="84.4799" rx="2.5" ry="2.5" style="stroke:#181818;stroke-width:0.5;" width="227" x="263.5" y="1415.44"/><rect fill="#F1F1F1" height="10" style="stroke:#181818;stroke-width:0.5;" width="15" x="470.5" y="1420.44"/><rect fill="#F1F1F1" height="2" style="stroke:#181818;stroke-width:0.5;" width="4" x="468.5" y="1422.44"/><rect fill="#F1F1F1" height="2" style="stroke:#181818;stroke-width:0.5;" width="4" x="468.5" y="1426.44"/><text fill="#000000" font-family="sans-serif" font-size="20" font-style="italic" lengthAdjust="spacing" textLength="122" x="311" y="1456.82">«component»</text><text fill="#000000" font-family="sans-serif" font-size="20" lengthAdjust="spacing" textLength="187" x="278.5" y="1484.06">Domain Model DDD</text></g><!--entity PERS2--><g id="elem_PERS2"><path d="M260,2355.64 L301,2355.64 A3.75,3.75 0 0 1 303.5,2358.14 L310.5,2376.64 L392,2376.64 A2.5,2.5 0 0 1 394.5,2379.14 L394.5,2418.38 A2.5,2.5 0 0 1 392,2420.88 L260,2420.88 A2.5,2.5 0 0 1 257.5,2418.38 L257.5,2358.14 A2.5,2.5 0 0 1 260,2355.64 " fill="#F1F1F1" style="stroke:#181818;stroke-width:0.5;"/><line style="stroke:#181818;stroke-width:0.5;" x1="257.5" x2="310.5" y1="2376.64" y2="2376.64"/><text fill="#000000" font-family="sans-serif" font-size="20" lengthAdjust="spacing" textLength="107" x="267.5" y="2405.02">Persistence</text></g><!--entity ROUTE2--><g id="elem_ROUTE2"><path d="M432.5,2355.64 L473.5,2355.64 A3.75,3.75 0 0 1 476,2358.14 L483,2376.64 L521.5,2376.64 A2.5,2.5 0 0 1 524,2379.14 L524,2418.38 A2.5,2.5 0 0 1 521.5,2420.88 L432.5,2420.88 A2.5,2.5 0 0 1 430,2418.38 L430,2358.14 A2.5,2.5 0 0 1 432.5,2355.64 " fill="#F1F1F1" style="stroke:#181818;stroke-width:0.5;"/><line style="stroke:#181818;stroke-width:0.5;" x1="430" x2="483" y1="2376.64" y2="2376.64"/><text fill="#000000" font-family="sans-serif" font-size="20" lengthAdjust="spacing" textLength="64" x="440" y="2405.02">Routes</text></g><!--entity CTRL2--><g id="elem_CTRL2"><path d="M424,2163.4 L465,2163.4 A3.75,3.75 0 0 1 467.5,2165.9 L474.5,2184.4 L552,2184.4 A2.5,2.5 0 0 1 554.5,2186.9 L554.5,2226.14 A2.5,2.5 0 0 1 552,2228.64 L424,2228.64 A2.5,2.5 0 0 1 421.5,2226.14 L421.5,2165.9 A2.5,2.5 0 0 1 424,2163.4 " fill="#F1F1F1" style="stroke:#181818;stroke-width:0.5;"/><line style="stroke:#181818;stroke-width:0.5;" x1="421.5" x2="474.5" y1="2184.4" y2="2184.4"/><text fill="#000000" font-family="sans-serif" font-size="20" lengthAdjust="spacing" textLength="103" x="431.5" y="2212.78">Controllers</text></g><!--entity REPO2--><g id="elem_REPO2"><path d="M244,2163.4 L285,2163.4 A3.75,3.75 0 0 1 287.5,2165.9 L294.5,2184.4 L384,2184.4 A2.5,2.5 0 0 1 386.5,2186.9 L386.5,2226.14 A2.5,2.5 0 0 1 384,2228.64 L244,2228.64 A2.5,2.5 0 0 1 241.5,2226.14 L241.5,2165.9 A2.5,2.5 0 0 1 244,2163.4 " fill="#F1F1F1" style="stroke:#181818;stroke-width:0.5;"/><line style="stroke:#181818;stroke-width:0.5;" x1="241.5" x2="294.5" y1="2184.4" y2="2184.4"/><text fill="#000000" font-family="sans-serif" font-size="20" lengthAdjust="spacing" textLength="115" x="251.5" y="2212.78">Repositories</text></g><!--entity APP2--><g id="elem_APP2"><path d="M242.5,1971.16 L283.5,1971.16 A3.75,3.75 0 0 1 286,1973.66 L293,1992.16 L385.5,1992.16 A2.5,2.5 0 0 1 388,1994.66 L388,2033.9 A2.5,2.5 0 0 1 385.5,2036.4 L242.5,2036.4 A2.5,2.5 0 0 1 240,2033.9 L240,1973.66 A2.5,2.5 0 0 1 242.5,1971.16 " fill="#F1F1F1" style="stroke:#181818;stroke-width:0.5;"/><line style="stroke:#181818;stroke-width:0.5;" x1="240" x2="293" y1="1992.16" y2="1992.16"/><text fill="#000000" font-family="sans-serif" font-size="20" lengthAdjust="spacing" textLength="118" x="250" y="2020.54">App Services</text></g><!--entity AGG2--><g id="elem_AGG2"><path d="M85,1778.92 L126,1778.92 A3.75,3.75 0 0 1 128.5,1781.42 L135.5,1799.92 L217,1799.92 A2.5,2.5 0 0 1 219.5,1802.42 L219.5,1841.66 A2.5,2.5 0 0 1 217,1844.16 L85,1844.16 A2.5,2.5 0 0 1 82.5,1841.66 L82.5,1781.42 A2.5,2.5 0 0 1 85,1778.92 " fill="#F1F1F1" style="stroke:#181818;stroke-width:0.5;"/><line style="stroke:#181818;stroke-width:0.5;" x1="82.5" x2="135.5" y1="1799.92" y2="1799.92"/><text fill="#000000" font-family="sans-serif" font-size="20" lengthAdjust="spacing" textLength="107" x="92.5" y="1828.3">Aggregates</text></g><!--entity VO2--><g id="elem_VO2"><path d="M399,1778.92 L440,1778.92 A3.75,3.75 0 0 1 442.5,1781.42 L449.5,1799.92 L551,1799.92 A2.5,2.5 0 0 1 553.5,1802.42 L553.5,1841.66 A2.5,2.5 0 0 1 551,1844.16 L399,1844.16 A2.5,2.5 0 0 1 396.5,1841.66 L396.5,1781.42 A2.5,2.5 0 0 1 399,1778.92 " fill="#F1F1F1" style="stroke:#181818;stroke-width:0.5;"/><line style="stroke:#181818;stroke-width:0.5;" x1="396.5" x2="449.5" y1="1799.92" y2="1799.92"/><text fill="#000000" font-family="sans-serif" font-size="20" lengthAdjust="spacing" textLength="127" x="406.5" y="1828.3">Value Objects</text></g><!--entity SRV2--><g id="elem_SRV2"><path d="M257.5,1778.92 L298.5,1778.92 A3.75,3.75 0 0 1 301,1781.42 L308,1799.92 L358.5,1799.92 A2.5,2.5 0 0 1 361,1802.42 L361,1841.66 A2.5,2.5 0 0 1 358.5,1844.16 L257.5,1844.16 A2.5,2.5 0 0 1 255,1841.66 L255,1781.42 A2.5,2.5 0 0 1 257.5,1778.92 " fill="#F1F1F1" style="stroke:#181818;stroke-width:0.5;"/><line style="stroke:#181818;stroke-width:0.5;" x1="255" x2="308" y1="1799.92" y2="1799.92"/><text fill="#000000" font-family="sans-serif" font-size="20" lengthAdjust="spacing" textLength="76" x="265" y="1828.3">Services</text></g><!--entity API--><g id="elem_API"><ellipse cx="482" cy="14" fill="#F1F1F1" rx="8" ry="8" style="stroke:#181818;stroke-width:0.5;"/><text fill="#000000" font-family="sans-serif" font-size="20" lengthAdjust="spacing" textLength="70" x="447" y="52.38">MD API</text></g><!--link API to P1--><g id="link_API_P1"><path d="M482,22.68 C482,44.84 482,108.53 482,126.95 " fill="none" id="API-P1" style="stroke:#181818;stroke-width:1.0;"/></g><!--link ROUTE to P1--><g id="link_ROUTE_P1"><path d="M467.16,329.63 C471.69,269.93 479.7,164.37 481.59,139.4 " fill="none" id="ROUTE-P1" style="stroke:#181818;stroke-width:1.0;"/></g><!--link PERSISTENCE to P2--><g id="link_PERSISTENCE_P2"><path d="M656.63,329.81 C650.31,269.77 639.07,163.11 636.52,138.96 " fill="none" id="PERSISTENCE-P2" style="stroke:#181818;stroke-width:1.0;"/></g><!--link ROUTE to CTRL_API--><g id="link_ROUTE_CTRL_API"><path d="M444.23,414.66 C428.74,447.12 407.95,490.68 396.48,514.7 " fill="none" id="ROUTE-to-CTRL_API" style="stroke:#181818;stroke-width:1.0;"/><path d="M400.7574,524.4045 A9,9 0 0 0 385.5003 517.1024" fill="none" style="stroke:#181818;stroke-width:1.5;"/></g><!--link CTRL_API to CTRL--><g id="link_CTRL_API_CTRL"><path d="M391.07,542.13 C400.4,565.37 428.9,636.31 447.38,682.34 " fill="none" id="CTRL_API-CTRL" style="stroke:#181818;stroke-width:1.0;"/></g><!--link PERSISTENCE to PERSISTENCE_API--><g id="link_PERSISTENCE_PERSISTENCE_API"><path d="M689.61,414.66 C715.59,452.26 751.85,504.75 765.51,524.53 " fill="none" id="PERSISTENCE-PERSISTENCE_API" style="stroke:#181818;stroke-width:1.0;"/></g><!--reverse link PERSISTENCE_API to REPO--><g id="link_PERSISTENCE_API_REPO"><path d="M761.18,551.37 C744.2,580.59 708.88,641.34 685.05,682.34 " fill="none" id="PERSISTENCE_API-backto-REPO" style="stroke:#181818;stroke-width:1.0;"/><path d="M757.692,541.5375 A9,9 0 0 0 772.312 550.0437" fill="none" style="stroke:#181818;stroke-width:1.5;"/></g><!--link PERSISTENCE to DATA_API--><g id="link_PERSISTENCE_DATA_API"><path d="M638.89,414.66 C621.49,447.27 598.1,491.07 585.32,515.03 " fill="none" id="PERSISTENCE-to-DATA_API" style="stroke:#181818;stroke-width:1.0;"/><path d="M589.1609,524.7931 A9,9 0 0 0 574.2357 516.8346" fill="none" style="stroke:#181818;stroke-width:1.5;"/></g><!--reverse link DATA_API to REPO--><g id="link_DATA_API_REPO"><path d="M583.94,552.15 C597.19,581.65 624.16,641.7 642.41,682.34 " fill="none" id="DATA_API-backto-REPO" style="stroke:#181818;stroke-width:1.0;"/><path d="M572.9864,549.403 A9,9 0 0 0 588.416 542.4729" fill="none" style="stroke:#181818;stroke-width:1.5;"/></g><!--link DATA to DATA_API--><g id="link_DATA_DATA_API"><path d="M305.14,414.77 C323.85,428.65 345.67,443.4 367,454.48 C413.77,478.78 429.65,474.98 479,493.48 C506.42,503.76 537.8,516.57 557.27,524.64 " fill="none" id="DATA-to-DATA_API" style="stroke:#181818;stroke-width:1.0;"/><path d="M566.6394,519.7993 A9,9 0 0 0 560.1373 535.4141" fill="none" style="stroke:#181818;stroke-width:1.5;"/></g><!--link CTRL to SRV_API--><g id="link_CTRL_SRV_API"><path d="M464,767.14 C464,799.16 464,841.98 464,866.19 " fill="none" id="CTRL-to-SRV_API" style="stroke:#181818;stroke-width:1.0;"/><path d="M472.4572,872.9318 A9,9 0 0 0 455.5428 872.9318" fill="none" style="stroke:#181818;stroke-width:1.5;"/></g><!--reverse link SRV_API to SRV--><g id="link_SRV_API_SRV"><path d="M458.65,905.02 C449.88,934.66 432.22,994.36 420.25,1034.82 " fill="none" id="SRV_API-backto-SRV" style="stroke:#181818;stroke-width:1.0;"/><path d="M452.7566,896.1565 A9,9 0 0 0 468.9729 900.9658" fill="none" style="stroke:#181818;stroke-width:1.5;"/></g><!--reverse link DTO_API to SRV--><g id="link_DTO_API_SRV"><path d="M306.91,903.85 C324.04,933.07 359.68,993.82 383.73,1034.82 " fill="none" id="DTO_API-backto-SRV" style="stroke:#181818;stroke-width:1.0;"/><path d="M295.7501,902.542 A9,9 0 0 0 310.3429 893.9893" fill="none" style="stroke:#181818;stroke-width:1.5;"/></g><!--link CTRL to DTO_API--><g id="link_CTRL_DTO_API"><path d="M420.78,767.07 C407.39,779.86 392.59,794 379,806.96 C355.99,828.9 329.31,854.26 312.79,869.96 " fill="none" id="CTRL-to-DTO_API" style="stroke:#181818;stroke-width:1.0;"/><path d="M314.2041,880.2364 A9,9 0 0 0 302.5619 867.9662" fill="none" style="stroke:#181818;stroke-width:1.5;"/></g><!--link DTO to DTO_API--><g id="link_DTO_DTO_API"><path d="M265.19,767.14 C273.87,799.31 285.5,842.37 292.02,866.53 " fill="none" id="DTO-to-DTO_API" style="stroke:#181818;stroke-width:1.0;"/><path d="M302.2143,870.8363 A9,9 0 0 0 285.883 875.2397" fill="none" style="stroke:#181818;stroke-width:1.5;"/></g><!--link REPO to REPO_API--><g id="link_REPO_REPO_API"><path d="M664.12,767.14 C666.95,804.74 670.91,857.23 672.4,877.01 " fill="none" id="REPO-REPO_API" style="stroke:#181818;stroke-width:1.0;"/></g><!--reverse link REPO_API to SRV--><g id="link_REPO_API_SRV"><path d="M654.11,894.23 C623.95,906.33 563.74,932.5 519,964.96 C491.29,985.07 464.07,1012.19 443.52,1034.63 " fill="none" id="REPO_API-backto-SRV" style="stroke:#181818;stroke-width:1.0;"/><path d="M657.1503,883.5559 A9,9 0 0 0 663.3404 899.2971" fill="none" style="stroke:#181818;stroke-width:1.5;"/></g><!--link SRV to MODEL_API--><g id="link_SRV_MODEL_API"><path d="M408,1119.62 C408,1151.64 408,1194.46 408,1218.67 " fill="none" id="SRV-to-MODEL_API" style="stroke:#181818;stroke-width:1.0;"/><path d="M416.4572,1225.4118 A9,9 0 0 0 399.5428 1225.4118" fill="none" style="stroke:#181818;stroke-width:1.5;"/></g><!--link REPO to MODEL_API--><g id="link_REPO_MODEL_API"><path d="M638.13,767.37 C626.7,789.98 613.7,818.8 606,845.96 C567.69,981.03 648.49,1045.11 567,1159.44 C533,1207.15 461.53,1227.05 427.2,1234.11 " fill="none" id="REPO-to-MODEL_API" style="stroke:#181818;stroke-width:1.0;"/><path d="M422.3249,1243.8287 A9,9 0 0 0 419.1844 1227.2083" fill="none" style="stroke:#181818;stroke-width:1.5;"/></g><!--link MODEL_API to MODEL--><g id="link_MODEL_API_MODEL"><path d="M406.86,1247.43 C403.04,1274.22 390.49,1362.17 382.93,1415.14 " fill="none" id="MODEL_API-MODEL" style="stroke:#181818;stroke-width:1.0;"/></g><!--reverse link CTRL2 to ROUTE2--><g id="link_CTRL2_ROUTE2"><path d="M485.82,2234.81 C483.78,2270.06 480.77,2322.08 478.85,2355.31 " fill="none" id="CTRL2-backto-ROUTE2" style="stroke:#181818;stroke-width:1.0;stroke-dasharray:7.0,7.0;"/><polygon fill="#181818" points="486.16,2229.86,481.6531,2238.6171,485.8748,2234.8519,489.64,2239.0735,486.16,2229.86" style="stroke:#181818;stroke-width:1.0;"/></g><!--reverse link PERS2 to REPO2--><g id="link_PERS2_REPO2"><path d="M323.61,2349.36 C321.38,2314.07 318.1,2262.06 316.01,2228.86 " fill="none" id="PERS2-backto-REPO2" style="stroke:#181818;stroke-width:1.0;stroke-dasharray:7.0,7.0;"/><polygon fill="#181818" points="323.98,2354.31,327.4075,2345.0768,323.6663,2349.3198,319.4233,2345.5787,323.98,2354.31" style="stroke:#181818;stroke-width:1.0;"/></g><!--reverse link APP2 to CTRL2--><g id="link_APP2_CTRL2"><path d="M352.25,2040.76 C368.58,2056.54 387.61,2075.52 404,2093.4 C424.73,2116.01 446.77,2142.79 463.07,2163.18 " fill="none" id="APP2-backto-CTRL2" style="stroke:#181818;stroke-width:1.0;stroke-dasharray:7.0,7.0;"/><polygon fill="#181818" points="349.16,2037.82,352.8621,2046.9466,352.7592,2041.2907,358.4151,2041.1878,349.16,2037.82" style="stroke:#181818;stroke-width:1.0;"/></g><!--reverse link APP2 to REPO2--><g id="link_APP2_REPO2"><path d="M314,2042.57 C314,2077.82 314,2129.84 314,2163.07 " fill="none" id="APP2-backto-REPO2" style="stroke:#181818;stroke-width:1.0;stroke-dasharray:7.0,7.0;"/><polygon fill="#181818" points="314,2037.62,310,2046.62,314,2042.62,318,2046.62,314,2037.62" style="stroke:#181818;stroke-width:1.0;"/></g><!--reverse link AGG2 to APP2--><g id="link_AGG2_APP2"><path d="M187.24,1848.51 C202.68,1864.29 220.63,1883.27 236,1901.16 C255.42,1923.77 275.88,1950.55 290.97,1970.94 " fill="none" id="AGG2-backto-APP2" style="stroke:#181818;stroke-width:1.0;stroke-dasharray:7.0,7.0;"/><polygon fill="#181818" points="184.37,1845.57,187.8125,1854.7976,187.8696,1849.1411,193.5262,1849.1982,184.37,1845.57" style="stroke:#181818;stroke-width:1.0;"/></g><!--reverse link VO2 to APP2--><g id="link_VO2_APP2"><path d="M444.49,1848.59 C414.65,1883.86 369.63,1937.05 341.04,1970.83 " fill="none" id="VO2-backto-APP2" style="stroke:#181818;stroke-width:1.0;stroke-dasharray:7.0,7.0;"/><polygon fill="#181818" points="448.05,1845.38,439.1823,1849.6652,444.8196,1849.1964,445.2885,1854.8338,448.05,1845.38" style="stroke:#181818;stroke-width:1.0;"/></g><!--reverse link SRV2 to APP2--><g id="link_SRV2_APP2"><path d="M309.19,1850.33 C310.3,1885.58 311.94,1937.6 312.99,1970.83 " fill="none" id="SRV2-backto-APP2" style="stroke:#181818;stroke-width:1.0;stroke-dasharray:7.0,7.0;"/><polygon fill="#181818" points="309,1845.38,305.2847,1854.5012,309.1571,1850.3775,313.2807,1854.2499,309,1845.38" style="stroke:#181818;stroke-width:1.0;"/></g><!--reverse link IA2 to I2--><g id="link_IA2_I2"><path d="M213.0287,2252.8262 C213.135,2253.0509 213.2427,2253.2748 213.3518,2253.4979 C213.57,2253.9441 213.7937,2254.387 214.0233,2254.8264 C214.9414,2256.5841 215.9515,2258.2855 217.062,2259.9126 C219.2831,2263.1667 221.9063,2266.1238 225,2268.64 C279.39,2312.87 487.29,2239.42 540,2285.64 C544.2513,2289.3675 547.7439,2293.7163 550.6003,2298.4769 C550.9573,2299.072 551.3044,2299.6735 551.6419,2300.2811 C551.8106,2300.5849 551.9768,2300.8901 552.1407,2301.1969 " fill="none" id="IA2-backto-I2" style="stroke:#181818;stroke-width:1.0;stroke-dasharray:7.0,7.0;"/><polygon fill="#181818" points="213.0287,2252.8262,213.262,2262.6723,215.1671,2257.3459,220.4935,2259.251,213.0287,2252.8262" style="stroke:#181818;stroke-width:1.0;"/></g><!--reverse link UC2 to IA2--><g id="link_UC2_IA2"><path d="M205.2952,2061.0133 C205.2969,2061.3451 205.2987,2061.6777 205.3005,2062.011 C205.3075,2063.3444 205.3145,2064.6897 205.3217,2066.0455 C205.3788,2076.8919 205.4394,2088.4138 205.5,2099.935 C205.5152,2102.8153 205.5303,2105.6956 205.5454,2108.5653 C205.5464,2108.7446 205.5473,2108.9239 205.5482,2109.1032 " fill="none" id="UC2-backto-IA2" style="stroke:#181818;stroke-width:1.0;stroke-dasharray:7.0,7.0;"/><polygon fill="#181818" points="205.2952,2061.0133,201.3426,2070.0342,205.3215,2066.0132,209.3425,2069.9921,205.2952,2061.0133" style="stroke:#181818;stroke-width:1.0;"/></g><!--reverse link E2 to UC2--><g id="link_E2_UC2"><path d="M58.2222,1868.4766 C58.3159,1868.7157 58.4105,1868.9544 58.5058,1869.1929 C58.6964,1869.6698 58.8902,1870.1453 59.0871,1870.6192 C59.481,1871.5671 59.8875,1872.5088 60.3072,1873.4424 C61.9861,1877.1772 63.875,1880.785 66,1884.16 C76.6475,1901.075 90.4725,1916.8488 105.2663,1931.0184 C107.1155,1932.7896 108.9798,1934.5358 110.855,1936.256 " fill="none" id="E2-backto-UC2" style="stroke:#181818;stroke-width:1.0;stroke-dasharray:7.0,7.0;"/><polygon fill="#181818" points="58.2222,1868.4766,57.7837,1878.3157,60.0474,1873.1315,65.2316,1875.3953,58.2222,1868.4766" style="stroke:#181818;stroke-width:1.0;"/></g><!--reverse link FDL to I2--><g id="link_FDL_I2"><path d="M771.7096,438.7113 C771.7935,438.9656 771.8794,439.219 771.9673,439.4715 C772.1431,439.9766 772.3269,440.4782 772.519,440.9761 C772.9033,441.9717 773.3206,442.9522 773.7729,443.9152 C775.5822,447.767 777.9513,451.3388 781,454.48 C796.68,470.64 864.39,448.45 882,462.48 C907.51,482.8 904,499.87 904,532.48 C904,532.48 904,532.48 904,2197.02 C904,2283.885 819.0925,2331.3825 733.5213,2357.195 C690.7356,2370.1013 647.7841,2377.5863 615.197,2381.8603 C598.9035,2383.9973 585.2011,2385.3316 575.4062,2386.1395 C572.9575,2386.3415 570.7529,2386.5105 568.8132,2386.651 C568.3283,2386.6861 567.8599,2386.7194 567.4084,2386.7511 " fill="none" id="FDL-backto-I2" style="stroke:#181818;stroke-width:1.0;stroke-dasharray:7.0,7.0;"/><polygon fill="#181818" points="771.7096,438.7113,770.7313,448.5114,773.2764,443.4595,778.3284,446.0046,771.7096,438.7113" style="stroke:#181818;stroke-width:1.0;"/><text fill="#000000" font-family="sans-serif" font-size="20" lengthAdjust="spacing" textLength="102" x="905" y="1246.32">«manifest»</text></g><!--reverse link IAL to IA2--><g id="link_IAL_IA2"><path d="M777,791.3909 C777,791.6451 777,791.8997 777,792.1547 C777,796.2352 777,800.4217 777,804.6897 C777,813.2255 777,822.0868 777,831.0758 C777,849.0538 777,867.5425 777,884.96 C777,884.96 777,884.96 777,2004.78 C777,2089.18 487.55,2064.44 404,2076.4 C364.45,2082.06 254.5,2066.45 225,2093.4 C220.8263,2097.2138 217.392,2101.6275 214.5785,2106.4359 C214.2268,2107.0369 213.8849,2107.6441 213.5523,2108.2571 C213.3861,2108.5636 213.2222,2108.8715 213.0606,2109.1808 " fill="none" id="IAL-backto-IA2" style="stroke:#181818;stroke-width:1.0;stroke-dasharray:7.0,7.0;"/><polygon fill="#181818" points="777,791.3909,773,800.3909,777,796.3909,781,800.3909,777,791.3909" style="stroke:#181818;stroke-width:1.0;"/><text fill="#000000" font-family="sans-serif" font-size="20" lengthAdjust="spacing" textLength="102" x="778" y="1330.82">«manifest»</text></g><!--reverse link ABR to UC2--><g id="link_ABR_UC2"><path d="M559.2376,1088.773 C559.5965,1089.2552 559.9648,1089.7524 560.3418,1090.2642 C561.0958,1091.288 561.8849,1092.3704 562.7052,1093.5089 C569.2672,1102.6172 577.8206,1115.3181 586.3087,1130.3138 C603.285,1160.305 620,1199.475 620,1237.44 C620,1237.44 620,1237.44 620,1812.54 C620,1851.36 603.97,1865.37 570,1884.16 C536.32,1902.79 253,1875.85 224,1901.16 C219.74,1904.8775 216.2406,1909.2188 213.3792,1913.974 C213.0215,1914.5684 212.6738,1915.1692 212.3358,1915.7762 C212.1668,1916.0796 212.0003,1916.3846 211.8361,1916.6911 C211.754,1916.8443 211.6726,1916.9979 211.5917,1917.1518 " fill="none" id="ABR-backto-UC2" style="stroke:#181818;stroke-width:1.0;stroke-dasharray:7.0,7.0;"/><polygon fill="#181818" points="559.2376,1088.773,561.4028,1098.3809,562.2231,1092.7838,567.8201,1093.6041,559.2376,1088.773" style="stroke:#181818;stroke-width:1.0;"/><text fill="#000000" font-family="sans-serif" font-size="20" lengthAdjust="spacing" textLength="102" x="621" y="1465.56">«manifest»</text></g><!--reverse link EBR to E2--><g id="link_EBR_E2"><path d="M219.8901,1462.8173 C219.7647,1462.8836 219.638,1462.9507 219.5099,1463.0185 C219.2539,1463.1542 218.9928,1463.293 218.7265,1463.4348 C217.6616,1464.0022 216.5154,1464.6189 215.2938,1465.284 C212.8506,1466.6142 210.1053,1468.138 207.1031,1469.8491 C195.0944,1476.6931 178.975,1486.5313 161.6325,1498.9425 C126.9475,1523.765 87.37,1558.88 66,1600.92 C55.5675,1621.4425 49.1194,1644.5594 45.3263,1667.7508 C43.4297,1679.3465 42.1969,1690.9608 41.4616,1702.2788 C41.094,1707.9378 40.8508,1713.5227 40.7112,1718.9942 C40.6763,1720.362 40.6479,1721.7228 40.6256,1723.0759 C40.62,1723.4141 40.6149,1723.7519 40.6101,1724.0892 " fill="none" id="EBR-backto-E2" style="stroke:#181818;stroke-width:1.0;stroke-dasharray:7.0,7.0;"/><polygon fill="#181818" points="219.8901,1462.8173,210.064,1463.487,215.4697,1465.154,213.8027,1470.5596,219.8901,1462.8173" style="stroke:#181818;stroke-width:1.0;"/><text fill="#000000" font-family="sans-serif" font-size="20" lengthAdjust="spacing" textLength="102" x="90" y="1586.3">«manifest»</text></g><!--SRC=[ZLLBJzj04BxxLuo2rAQ70BLwG1L22hQ38f4cSWBNQkjieYsErrglgMZ5V-_ioru_IiaXCBFVlEURL4-iA8aWfvndJtGFUteWTIuNl91Rzfj2U1a4h91K74X6ORAAORvPJe1KwcyGPFnKye8MKZ-jI46Ez8IYHgpY5LnVDv2R6oqLah222fX6NpwXway0K78XMG4Jq6QRpvvgGqN5AaaBZEuYRy804SisgmYT2fxdwDLXebrw_rsbs076H19OyJtD6s0ytyqrKFayy7oFJYOBR0ZznSLJ1HyW5kmPiu1xyaA5jbd4zt1sTRd0ZyuVmEj3oclC_AY1wVfXb_HwO0nU-sPUeQR89DqkjxlaM_Hl1wygPyz7MrvJseZjQyzejpRetNeKtEtWl2nXIyKposXbUZZVmZPz7Ear-dC0_7y8I6d96qIQR4OWtgWGirh7oSXG1ok2KAzxPhZjR5lB-PwKiZlPvTnEzkfoEDbspPeLUzziLQKLaroycAt0Mj-UgSiLkvspZ4Z62xYjA-HDXUPrJYj3mTiKpbIkOzdwjdPYsWY7zRxWYMfKALX5ns8d9dOq6Zlc9oIvPLeSn-OSgF6z4Hg3uwXWDbCN833KcHd99uFIXEtxjAMw7iYiBcUjgc_OMmiz2MKnxJz1ptJQ70hmhLgb9biNPnD2dIE8whqn76eSHneZfr14ycKRVzPofdNYL1XSAr7LiCObtjMPgUYkUThWeshzyFF_Yn- -x-JR9LiM1q4gAUfCre9g1ePsAIp2PxSzYw7_hiujdY9tRCF-5W_fRedUYzEIktBaxiPn76Os6lOoV8klxafUF2218e9VJgCJU8Xw2NHEg_s5tOGZf6GIKxY8kA0NXcU6ZmDtnwEWHoATixkx43g0HvBN5DO_Vj9C6ipZkbFof9CDxbFeU6fQ3UTrUNvZMwNxOJLcI5flDReK7w8Lwil9c9ulgrGyKGSFbax4wGLgWaR2LWQgdKPAVA3wfVwAEtWY1JlG2XVIirF7llVOkb6tjVVOL9mCt_u2]--></g></svg>