<?xml version="1.0" encoding="UTF-8" standalone="no"?><svg xmlns="http://www.w3.org/2000/svg" xmlns:xlink="http://www.w3.org/1999/xlink" contentStyleType="text/css" height="2196px" preserveAspectRatio="none" style="width:821px;height:2196px;background:#FFFFFF;" version="1.1" viewBox="0 0 821 2196" width="821px" zoomAndPan="magnify"><defs/><g><!--MD5=[2e6c4d40f7a36dc343c195464ea87277]
cluster MDM--><g id="cluster_MDM"><rect fill="none" height="1255.55" rx="2.5" ry="2.5" style="stroke:#181818;stroke-width:1.0;" width="693" x="92" y="113"/><rect fill="none" height="10" style="stroke:#181818;stroke-width:1.0;" width="15" x="765" y="118"/><rect fill="none" height="2" style="stroke:#181818;stroke-width:1.0;" width="4" x="763" y="120"/><rect fill="none" height="2" style="stroke:#181818;stroke-width:1.0;" width="4" x="763" y="124"/><text fill="#000000" font-family="sans-serif" font-size="14" font-style="italic" lengthAdjust="spacing" textLength="84" x="396.5" y="140.9659">«component»</text><text fill="#000000" font-family="sans-serif" font-size="14" font-style="italic" lengthAdjust="spacing" textLength="102" x="387.5" y="160.0339">«container (C4)»</text><text fill="#000000" font-family="sans-serif" font-size="14" font-weight="bold" lengthAdjust="spacing" textLength="119" x="379" y="179.1018">MD Management</text></g><!--MD5=[159c2755bb169fb00d77bae842c8ead9]
cluster FDL--><g id="cluster_FDL"><path d="M258.5,244 L456.5,244 A3.75,3.75 0 0 1 459,246.5 L466,269.0679 L603.5,269.0679 A2.5,2.5 0 0 1 606,271.5679 L606,379.64 A2.5,2.5 0 0 1 603.5,382.14 L258.5,382.14 A2.5,2.5 0 0 1 256,379.64 L256,246.5 A2.5,2.5 0 0 1 258.5,244 " fill="#80FFFF" style="stroke:#000000;stroke-width:1.5;"/><line style="stroke:#000000;stroke-width:1.5;" x1="256" x2="466" y1="269.0679" y2="269.0679"/><text fill="#000000" font-family="sans-serif" font-size="14" font-weight="bold" lengthAdjust="spacing" textLength="197" x="260" y="260.9659">Frameworks &amp; Drivers Layer</text></g><!--MD5=[aca119a53751f38ea817accff55fafd5]
cluster IAL--><g id="cluster_IAL"><path d="M258.5,556.14 L430.5,556.14 A3.75,3.75 0 0 1 433,558.64 L440,581.2079 L603.5,581.2079 A2.5,2.5 0 0 1 606,583.7079 L606,691.78 A2.5,2.5 0 0 1 603.5,694.28 L258.5,694.28 A2.5,2.5 0 0 1 256,691.78 L256,558.64 A2.5,2.5 0 0 1 258.5,556.14 " fill="#80FF80" style="stroke:#000000;stroke-width:1.5;"/><line style="stroke:#000000;stroke-width:1.5;" x1="256" x2="440" y1="581.2079" y2="581.2079"/><text fill="#000000" font-family="sans-serif" font-size="14" font-weight="bold" lengthAdjust="spacing" textLength="171" x="260" y="573.1059">Interface Adapters Layer</text></g><!--MD5=[9de85a407736e3ab90414f1e29d4af1f]
cluster ABR--><g id="cluster_ABR"><path d="M242.5,868.28 L427.5,868.28 A3.75,3.75 0 0 1 430,870.78 L437,893.3479 L472.5,893.3479 A2.5,2.5 0 0 1 475,895.8479 L475,1003.91 A2.5,2.5 0 0 1 472.5,1006.41 L242.5,1006.41 A2.5,2.5 0 0 1 240,1003.91 L240,870.78 A2.5,2.5 0 0 1 242.5,868.28 " fill="#FF8080" style="stroke:#000000;stroke-width:1.5;"/><line style="stroke:#000000;stroke-width:1.5;" x1="240" x2="437" y1="893.3479" y2="893.3479"/><text fill="#000000" font-family="sans-serif" font-size="14" font-weight="bold" lengthAdjust="spacing" textLength="184" x="244" y="885.2459">Application Business Rules</text></g><!--MD5=[bc6196ffa6b091087e63eb801247653b]
cluster EBR--><g id="cluster_EBR"><path d="M159.5,1198.41 L336.5,1198.41 A3.75,3.75 0 0 1 339,1200.91 L346,1223.4779 L393.5,1223.4779 A2.5,2.5 0 0 1 396,1225.9779 L396,1334.05 A2.5,2.5 0 0 1 393.5,1336.55 L159.5,1336.55 A2.5,2.5 0 0 1 157,1334.05 L157,1200.91 A2.5,2.5 0 0 1 159.5,1198.41 " fill="#FFC080" style="stroke:#000000;stroke-width:1.5;"/><line style="stroke:#000000;stroke-width:1.5;" x1="157" x2="346" y1="1223.4779" y2="1223.4779"/><text fill="#000000" font-family="sans-serif" font-size="14" font-weight="bold" lengthAdjust="spacing" textLength="176" x="161" y="1215.3759">Enterprise Business Rules</text></g><!--MD5=[e35f41e978d6de55fa2589a44b0edb6f]
cluster MDM2--><g id="cluster_MDM2"><rect fill="none" height="779.27" rx="2.5" ry="2.5" style="stroke:#181818;stroke-width:1.0;" width="517" x="7" y="1411.55"/><rect fill="none" height="10" style="stroke:#181818;stroke-width:1.0;" width="15" x="504" y="1416.55"/><rect fill="none" height="2" style="stroke:#181818;stroke-width:1.0;" width="4" x="502" y="1418.55"/><rect fill="none" height="2" style="stroke:#181818;stroke-width:1.0;" width="4" x="502" y="1422.55"/><text fill="#000000" font-family="sans-serif" font-size="14" font-style="italic" lengthAdjust="spacing" textLength="84" x="223.5" y="1439.5159">«component»</text><text fill="#000000" font-family="sans-serif" font-size="14" font-style="italic" lengthAdjust="spacing" textLength="102" x="214.5" y="1458.5839">«container (C4)»</text><text fill="#000000" font-family="sans-serif" font-size="14" font-weight="bold" lengthAdjust="spacing" textLength="119" x="206" y="1477.6518">MD Management</text></g><!--MD5=[b4138c7388040015e598c4191cadac44]
cluster I2--><g id="cluster_I2"><path d="M204.5,2031.75 L302.5,2031.75 A3.75,3.75 0 0 1 305,2034.25 L312,2056.8179 L484.5,2056.8179 A2.5,2.5 0 0 1 487,2059.3179 L487,2156.32 A2.5,2.5 0 0 1 484.5,2158.82 L204.5,2158.82 A2.5,2.5 0 0 1 202,2156.32 L202,2034.25 A2.5,2.5 0 0 1 204.5,2031.75 " fill="none" style="stroke:#000000;stroke-width:1.5;"/><line style="stroke:#000000;stroke-width:1.5;" x1="202" x2="312" y1="2056.8179" y2="2056.8179"/><text fill="#000000" font-family="sans-serif" font-size="14" font-weight="bold" lengthAdjust="spacing" textLength="97" x="206" y="2048.7159">Infrastructure</text></g><!--MD5=[7ea21f4c0a0bcd5fe1d361107b663e8f]
cluster IA2--><g id="cluster_IA2"><path d="M175.5,1855.68 L305.5,1855.68 A3.75,3.75 0 0 1 308,1858.18 L315,1880.7479 L489.5,1880.7479 A2.5,2.5 0 0 1 492,1883.2479 L492,1980.25 A2.5,2.5 0 0 1 489.5,1982.75 L175.5,1982.75 A2.5,2.5 0 0 1 173,1980.25 L173,1858.18 A2.5,2.5 0 0 1 175.5,1855.68 " fill="none" style="stroke:#000000;stroke-width:1.5;"/><line style="stroke:#000000;stroke-width:1.5;" x1="173" x2="315" y1="1880.7479" y2="1880.7479"/><text fill="#000000" font-family="sans-serif" font-size="14" font-weight="bold" lengthAdjust="spacing" textLength="129" x="177" y="1872.6459">Interface Adapters</text></g><!--MD5=[186bec8ce08b25529cc2b55a948de528]
cluster UC2--><g id="cluster_UC2"><path d="M125.5,1679.62 L393.5,1679.62 A3.75,3.75 0 0 1 396,1682.12 L403,1704.6879 L403.5,1704.6879 A2.5,2.5 0 0 1 406,1707.1879 L406,1804.18 A2.5,2.5 0 0 1 403.5,1806.68 L125.5,1806.68 A2.5,2.5 0 0 1 123,1804.18 L123,1682.12 A2.5,2.5 0 0 1 125.5,1679.62 " fill="none" style="stroke:#000000;stroke-width:1.5;"/><line style="stroke:#000000;stroke-width:1.5;" x1="123" x2="403" y1="1704.6879" y2="1704.6879"/><text fill="#000000" font-family="sans-serif" font-size="14" font-weight="bold" lengthAdjust="spacing" textLength="267" x="127" y="1696.5859">Application Services/Use Case Services</text></g><!--MD5=[e4f7fae6ed58524ba242bb0b0d3be6b7]
cluster E2--><g id="cluster_E2"><path d="M41.5,1503.55 L192.5,1503.55 A3.75,3.75 0 0 1 195,1506.05 L202,1528.6179 L489.5,1528.6179 A2.5,2.5 0 0 1 492,1531.1179 L492,1628.12 A2.5,2.5 0 0 1 489.5,1630.62 L41.5,1630.62 A2.5,2.5 0 0 1 39,1628.12 L39,1506.05 A2.5,2.5 0 0 1 41.5,1503.55 " fill="none" style="stroke:#000000;stroke-width:1.5;"/><line style="stroke:#000000;stroke-width:1.5;" x1="39" x2="202" y1="1528.6179" y2="1528.6179"/><text fill="#000000" font-family="sans-serif" font-size="14" font-weight="bold" lengthAdjust="spacing" textLength="150" x="43" y="1520.5159">Entities/Core/Domain</text></g><text fill="#000000" font-family="sans-serif" font-size="14" lengthAdjust="spacing" textLength="4" x="340" y="90.898"> </text><rect fill="#F1F1F1" height="12" style="stroke:#181818;stroke-width:1.5;" width="12" x="336" y="107"/><text fill="#000000" font-family="sans-serif" font-size="14" lengthAdjust="spacing" textLength="103" x="474.5" y="90.898">Persistence API</text><rect fill="#F1F1F1" height="12" style="stroke:#181818;stroke-width:1.5;" width="12" x="520" y="107"/><!--MD5=[a4bef2a96bb219a766147d28812d6e12]
entity CTRL_API--><g id="elem_CTRL_API"><ellipse cx="333" cy="469.14" fill="#F1F1F1" rx="8" ry="8" style="stroke:#181818;stroke-width:0.5;"/><text fill="#000000" font-family="sans-serif" font-size="14" lengthAdjust="spacing" textLength="93" x="286.5" y="501.1059">Controller API</text></g><!--MD5=[b06a3a4d51b9328e4175a01932b95be7]
entity DATA_API--><g id="elem_DATA_API"><ellipse cx="481" cy="469.14" fill="#F1F1F1" rx="8" ry="8" style="stroke:#181818;stroke-width:0.5;"/><text fill="#000000" font-family="sans-serif" font-size="14" lengthAdjust="spacing" textLength="103" x="429.5" y="501.1059">Data Model API</text></g><!--MD5=[cf40c0765e2c1fb982c085ff59738cfe]
entity SRV_API--><g id="elem_SRV_API"><ellipse cx="194" cy="781.28" fill="#F1F1F1" rx="8" ry="8" style="stroke:#181818;stroke-width:0.5;"/><text fill="#000000" font-family="sans-serif" font-size="14" lengthAdjust="spacing" textLength="112" x="138" y="813.2459">App Services API</text></g><!--MD5=[03daee95c47d28e2008f8fcdb06be569]
entity DTO_API--><g id="elem_DTO_API"><ellipse cx="328" cy="781.28" fill="#F1F1F1" rx="8" ry="8" style="stroke:#181818;stroke-width:0.5;"/><text fill="#000000" font-family="sans-serif" font-size="14" lengthAdjust="spacing" textLength="55" x="300.5" y="813.2459">DTO API</text></g><!--MD5=[da0ef23a9c816bd8c7b91fae44b58d63]
entity REPO_API--><g id="elem_REPO_API"><ellipse cx="436" cy="781.28" fill="#F1F1F1" rx="8" ry="8" style="stroke:#181818;stroke-width:0.5;"/><text fill="#000000" font-family="sans-serif" font-size="14" lengthAdjust="spacing" textLength="60" x="406" y="813.2459">Repo API</text></g><!--MD5=[07a00e9f9694fcf0c9c28cac3f0a547a]
entity MODEL_API--><g id="elem_MODEL_API"><ellipse cx="348" cy="1093.41" fill="#F1F1F1" rx="8" ry="8" style="stroke:#181818;stroke-width:0.5;"/><text fill="#000000" font-family="sans-serif" font-size="14" lengthAdjust="spacing" textLength="68" x="314" y="1125.3759">Model API</text></g><!--MD5=[e024adea7d2e47c854f4aa7e60c9df0e]
entity PERSISTENCE_API--><g id="elem_PERSISTENCE_API"><ellipse cx="634" cy="469.14" fill="#F1F1F1" rx="8" ry="8" style="stroke:#181818;stroke-width:0.5;"/><text fill="#000000" font-family="sans-serif" font-size="14" lengthAdjust="spacing" textLength="103" x="582.5" y="501.1059">Persistence API</text></g><!--MD5=[c59df10ccd9e4ee939487a8f50ca79f9]
entity ROUTE--><g id="elem_ROUTE"><rect fill="#F1F1F1" height="68.1358" rx="2.5" ry="2.5" style="stroke:#181818;stroke-width:0.5;" width="124" x="280" y="290"/><rect fill="#F1F1F1" height="10" style="stroke:#181818;stroke-width:0.5;" width="15" x="384" y="295"/><rect fill="#F1F1F1" height="2" style="stroke:#181818;stroke-width:0.5;" width="4" x="382" y="297"/><rect fill="#F1F1F1" height="2" style="stroke:#181818;stroke-width:0.5;" width="4" x="382" y="301"/><text fill="#000000" font-family="sans-serif" font-size="14" font-style="italic" lengthAdjust="spacing" textLength="84" x="295" y="324.9659">«component»</text><text fill="#000000" font-family="sans-serif" font-size="14" lengthAdjust="spacing" textLength="53" x="310.5" y="344.0339">Routing</text></g><!--MD5=[141900e5f119eecb0c14f98536f119e1]
entity PERSISTENCE--><g id="elem_PERSISTENCE"><rect fill="#F1F1F1" height="68.1358" rx="2.5" ry="2.5" style="stroke:#181818;stroke-width:0.5;" width="124" x="439" y="290"/><rect fill="#F1F1F1" height="10" style="stroke:#181818;stroke-width:0.5;" width="15" x="543" y="295"/><rect fill="#F1F1F1" height="2" style="stroke:#181818;stroke-width:0.5;" width="4" x="541" y="297"/><rect fill="#F1F1F1" height="2" style="stroke:#181818;stroke-width:0.5;" width="4" x="541" y="301"/><text fill="#000000" font-family="sans-serif" font-size="14" font-style="italic" lengthAdjust="spacing" textLength="84" x="454" y="324.9659">«component»</text><text fill="#000000" font-family="sans-serif" font-size="14" lengthAdjust="spacing" textLength="77" x="457.5" y="344.0339">Persistence</text></g><!--MD5=[4c532a2f71ebde4f3db08a6bedb73265]
entity DATA--><g id="elem_DATA"><rect fill="#F1F1F1" height="68.1358" rx="2.5" ry="2.5" style="stroke:#181818;stroke-width:0.5;" width="124" x="108" y="290"/><rect fill="#F1F1F1" height="10" style="stroke:#181818;stroke-width:0.5;" width="15" x="212" y="295"/><rect fill="#F1F1F1" height="2" style="stroke:#181818;stroke-width:0.5;" width="4" x="210" y="297"/><rect fill="#F1F1F1" height="2" style="stroke:#181818;stroke-width:0.5;" width="4" x="210" y="301"/><text fill="#000000" font-family="sans-serif" font-size="14" font-style="italic" lengthAdjust="spacing" textLength="84" x="123" y="324.9659">«component»</text><text fill="#000000" font-family="sans-serif" font-size="14" lengthAdjust="spacing" textLength="77" x="126.5" y="344.0339">Data Model</text></g><!--MD5=[97de1061a0ab8445a0a4bfc3e13b8318]
entity DTO--><g id="elem_DTO"><rect fill="#F1F1F1" height="68.1358" rx="2.5" ry="2.5" style="stroke:#181818;stroke-width:0.5;" width="124" x="108" y="602.14"/><rect fill="#F1F1F1" height="10" style="stroke:#181818;stroke-width:0.5;" width="15" x="212" y="607.14"/><rect fill="#F1F1F1" height="2" style="stroke:#181818;stroke-width:0.5;" width="4" x="210" y="609.14"/><rect fill="#F1F1F1" height="2" style="stroke:#181818;stroke-width:0.5;" width="4" x="210" y="613.14"/><text fill="#000000" font-family="sans-serif" font-size="14" font-style="italic" lengthAdjust="spacing" textLength="84" x="123" y="637.1059">«component»</text><text fill="#000000" font-family="sans-serif" font-size="14" lengthAdjust="spacing" textLength="29" x="150.5" y="656.1739">DTO</text></g><!--MD5=[aa33919f6aea5790bca91aa1fa7cb365]
entity CTRL--><g id="elem_CTRL"><rect fill="#F1F1F1" height="68.1358" rx="2.5" ry="2.5" style="stroke:#181818;stroke-width:0.5;" width="124" x="280" y="602.14"/><rect fill="#F1F1F1" height="10" style="stroke:#181818;stroke-width:0.5;" width="15" x="384" y="607.14"/><rect fill="#F1F1F1" height="2" style="stroke:#181818;stroke-width:0.5;" width="4" x="382" y="609.14"/><rect fill="#F1F1F1" height="2" style="stroke:#181818;stroke-width:0.5;" width="4" x="382" y="613.14"/><text fill="#000000" font-family="sans-serif" font-size="14" font-style="italic" lengthAdjust="spacing" textLength="84" x="295" y="637.1059">«component»</text><text fill="#000000" font-family="sans-serif" font-size="14" lengthAdjust="spacing" textLength="67" x="303.5" y="656.1739">Controller</text></g><!--MD5=[48d60d0140106b47a7717fee6b6352b5]
entity REPO--><g id="elem_REPO"><rect fill="#F1F1F1" height="68.1358" rx="2.5" ry="2.5" style="stroke:#181818;stroke-width:0.5;" width="124" x="439" y="602.14"/><rect fill="#F1F1F1" height="10" style="stroke:#181818;stroke-width:0.5;" width="15" x="543" y="607.14"/><rect fill="#F1F1F1" height="2" style="stroke:#181818;stroke-width:0.5;" width="4" x="541" y="609.14"/><rect fill="#F1F1F1" height="2" style="stroke:#181818;stroke-width:0.5;" width="4" x="541" y="613.14"/><text fill="#000000" font-family="sans-serif" font-size="14" font-style="italic" lengthAdjust="spacing" textLength="84" x="454" y="637.1059">«component»</text><text fill="#000000" font-family="sans-serif" font-size="14" lengthAdjust="spacing" textLength="71" x="460.5" y="656.1739">Repository</text></g><!--MD5=[2ae9bfc662548d719b2d3e00ac63b9a4]
entity SRV--><g id="elem_SRV"><rect fill="#F1F1F1" height="68.1358" rx="2.5" ry="2.5" style="stroke:#181818;stroke-width:0.5;" width="168" x="264" y="914.28"/><rect fill="#F1F1F1" height="10" style="stroke:#181818;stroke-width:0.5;" width="15" x="412" y="919.28"/><rect fill="#F1F1F1" height="2" style="stroke:#181818;stroke-width:0.5;" width="4" x="410" y="921.28"/><rect fill="#F1F1F1" height="2" style="stroke:#181818;stroke-width:0.5;" width="4" x="410" y="925.28"/><text fill="#000000" font-family="sans-serif" font-size="14" font-style="italic" lengthAdjust="spacing" textLength="84" x="301" y="949.2459">«component»</text><text fill="#000000" font-family="sans-serif" font-size="14" lengthAdjust="spacing" textLength="128" x="279" y="968.3139">Application Service</text></g><!--MD5=[3fcccb19da09ca98d2d053148d8c1c3c]
entity MODEL--><g id="elem_MODEL"><rect fill="#F1F1F1" height="68.1358" rx="2.5" ry="2.5" style="stroke:#181818;stroke-width:0.5;" width="172" x="200" y="1244.41"/><rect fill="#F1F1F1" height="10" style="stroke:#181818;stroke-width:0.5;" width="15" x="352" y="1249.41"/><rect fill="#F1F1F1" height="2" style="stroke:#181818;stroke-width:0.5;" width="4" x="350" y="1251.41"/><rect fill="#F1F1F1" height="2" style="stroke:#181818;stroke-width:0.5;" width="4" x="350" y="1255.41"/><text fill="#000000" font-family="sans-serif" font-size="14" font-style="italic" lengthAdjust="spacing" textLength="84" x="239" y="1279.3759">«component»</text><text fill="#000000" font-family="sans-serif" font-size="14" lengthAdjust="spacing" textLength="132" x="215" y="1298.4439">Domain Model DDD</text></g><!--MD5=[6500c4890f74a4fd69e840d91d62b6df]
entity PERS2--><g id="elem_PERS2"><path d="M228,2077.75 L269,2077.75 A3.75,3.75 0 0 1 271.5,2080.25 L278.5,2098.75 L330,2098.75 A2.5,2.5 0 0 1 332.5,2101.25 L332.5,2132.3179 A2.5,2.5 0 0 1 330,2134.8179 L228,2134.8179 A2.5,2.5 0 0 1 225.5,2132.3179 L225.5,2080.25 A2.5,2.5 0 0 1 228,2077.75 " fill="#F1F1F1" style="stroke:#181818;stroke-width:0.5;"/><line style="stroke:#181818;stroke-width:0.5;" x1="225.5" x2="278.5" y1="2098.75" y2="2098.75"/><text fill="#000000" font-family="sans-serif" font-size="14" lengthAdjust="spacing" textLength="77" x="235.5" y="2120.7159">Persistence</text></g><!--MD5=[5bb4b7568649af4c68e3a547c0464e26]
entity ROUTE2--><g id="elem_ROUTE2"><path d="M370.5,2077.75 L411.5,2077.75 A3.75,3.75 0 0 1 414,2080.25 L421,2098.75 L441.5,2098.75 A2.5,2.5 0 0 1 444,2101.25 L444,2132.3179 A2.5,2.5 0 0 1 441.5,2134.8179 L370.5,2134.8179 A2.5,2.5 0 0 1 368,2132.3179 L368,2080.25 A2.5,2.5 0 0 1 370.5,2077.75 " fill="#F1F1F1" style="stroke:#181818;stroke-width:0.5;"/><line style="stroke:#181818;stroke-width:0.5;" x1="368" x2="421" y1="2098.75" y2="2098.75"/><text fill="#000000" font-family="sans-serif" font-size="14" lengthAdjust="spacing" textLength="46" x="378" y="2120.7159">Routes</text></g><!--MD5=[67fd00e86aae4ff110410100f2806075]
entity CTRL2--><g id="elem_CTRL2"><path d="M366.5,1901.68 L407.5,1901.68 A3.75,3.75 0 0 1 410,1904.18 L417,1922.68 L465.5,1922.68 A2.5,2.5 0 0 1 468,1925.18 L468,1956.2479 A2.5,2.5 0 0 1 465.5,1958.7479 L366.5,1958.7479 A2.5,2.5 0 0 1 364,1956.2479 L364,1904.18 A2.5,2.5 0 0 1 366.5,1901.68 " fill="#F1F1F1" style="stroke:#181818;stroke-width:0.5;"/><line style="stroke:#181818;stroke-width:0.5;" x1="364" x2="417" y1="1922.68" y2="1922.68"/><text fill="#000000" font-family="sans-serif" font-size="14" lengthAdjust="spacing" textLength="74" x="374" y="1944.6459">Controllers</text></g><!--MD5=[98a9dea37a40ebb85992f9149e351f5f]
entity REPO2--><g id="elem_REPO2"><path d="M219,1901.68 L260,1901.68 A3.75,3.75 0 0 1 262.5,1904.18 L269.5,1922.68 L327,1922.68 A2.5,2.5 0 0 1 329.5,1925.18 L329.5,1956.2479 A2.5,2.5 0 0 1 327,1958.7479 L219,1958.7479 A2.5,2.5 0 0 1 216.5,1956.2479 L216.5,1904.18 A2.5,2.5 0 0 1 219,1901.68 " fill="#F1F1F1" style="stroke:#181818;stroke-width:0.5;"/><line style="stroke:#181818;stroke-width:0.5;" x1="216.5" x2="269.5" y1="1922.68" y2="1922.68"/><text fill="#000000" font-family="sans-serif" font-size="14" lengthAdjust="spacing" textLength="83" x="226.5" y="1944.6459">Repositories</text></g><!--MD5=[dbc42000bf7b6a4d1057d5de689135b6]
entity APP2--><g id="elem_APP2"><path d="M218.5,1725.62 L259.5,1725.62 A3.75,3.75 0 0 1 262,1728.12 L269,1746.62 L329.5,1746.62 A2.5,2.5 0 0 1 332,1749.12 L332,1780.1879 A2.5,2.5 0 0 1 329.5,1782.6879 L218.5,1782.6879 A2.5,2.5 0 0 1 216,1780.1879 L216,1728.12 A2.5,2.5 0 0 1 218.5,1725.62 " fill="#F1F1F1" style="stroke:#181818;stroke-width:0.5;"/><line style="stroke:#181818;stroke-width:0.5;" x1="216" x2="269" y1="1746.62" y2="1746.62"/><text fill="#000000" font-family="sans-serif" font-size="14" lengthAdjust="spacing" textLength="86" x="226" y="1768.5859">App Services</text></g><!--MD5=[d5af5ecce5380ade1331a71c980c9fe7]
entity AGG2--><g id="elem_AGG2"><path d="M362.5,1549.55 L403.5,1549.55 A3.75,3.75 0 0 1 406,1552.05 L413,1570.55 L465.5,1570.55 A2.5,2.5 0 0 1 468,1573.05 L468,1604.1179 A2.5,2.5 0 0 1 465.5,1606.6179 L362.5,1606.6179 A2.5,2.5 0 0 1 360,1604.1179 L360,1552.05 A2.5,2.5 0 0 1 362.5,1549.55 " fill="#F1F1F1" style="stroke:#181818;stroke-width:0.5;"/><line style="stroke:#181818;stroke-width:0.5;" x1="360" x2="413" y1="1570.55" y2="1570.55"/><text fill="#000000" font-family="sans-serif" font-size="14" lengthAdjust="spacing" textLength="78" x="370" y="1592.5159">Aggregates</text></g><!--MD5=[0e9b032298eb1ada0f34e548f3755509]
entity VO2--><g id="elem_VO2"><path d="M205.5,1549.55 L246.5,1549.55 A3.75,3.75 0 0 1 249,1552.05 L256,1570.55 L322.5,1570.55 A2.5,2.5 0 0 1 325,1573.05 L325,1604.1179 A2.5,2.5 0 0 1 322.5,1606.6179 L205.5,1606.6179 A2.5,2.5 0 0 1 203,1604.1179 L203,1552.05 A2.5,2.5 0 0 1 205.5,1549.55 " fill="#F1F1F1" style="stroke:#181818;stroke-width:0.5;"/><line style="stroke:#181818;stroke-width:0.5;" x1="203" x2="256" y1="1570.55" y2="1570.55"/><text fill="#000000" font-family="sans-serif" font-size="14" lengthAdjust="spacing" textLength="92" x="213" y="1592.5159">Value Objects</text></g><!--MD5=[22b1754e4bd3c022705c8dbd937631a6]
entity SRV2--><g id="elem_SRV2"><path d="M85,1549.55 L126,1549.55 A3.75,3.75 0 0 1 128.5,1552.05 L135.5,1570.55 L165,1570.55 A2.5,2.5 0 0 1 167.5,1573.05 L167.5,1604.1179 A2.5,2.5 0 0 1 165,1606.6179 L85,1606.6179 A2.5,2.5 0 0 1 82.5,1604.1179 L82.5,1552.05 A2.5,2.5 0 0 1 85,1549.55 " fill="#F1F1F1" style="stroke:#181818;stroke-width:0.5;"/><line style="stroke:#181818;stroke-width:0.5;" x1="82.5" x2="135.5" y1="1570.55" y2="1570.55"/><text fill="#000000" font-family="sans-serif" font-size="14" lengthAdjust="spacing" textLength="55" x="92.5" y="1592.5159">Services</text></g><!--MD5=[645d8587175d8f7ad110cd370775931d]
entity API--><g id="elem_API"><ellipse cx="342" cy="14" fill="#F1F1F1" rx="8" ry="8" style="stroke:#181818;stroke-width:0.5;"/><text fill="#000000" font-family="sans-serif" font-size="14" lengthAdjust="spacing" textLength="49" x="317.5" y="45.9659">MD API</text></g><!--MD5=[2ea510de5e10cd426fcae22deb3306cf]
link API to P1--><g id="link_API_P1"><path d="M342,22.94 C342,42.13 342,90.62 342,106.72 " fill="none" id="API-P1" style="stroke:#181818;stroke-width:1.0;"/></g><!--MD5=[da324f6474440c0de80c5378560afad8]
link ROUTE to P1--><g id="link_ROUTE_P1"><path d="M342,289.67 C342,238.04 342,142.38 342,119.17 " fill="none" id="ROUTE-P1" style="stroke:#181818;stroke-width:1.0;"/></g><!--MD5=[c7a04672f1b525ba9a0a668ac5dd313d]
link PERSISTENCE to P2--><g id="link_PERSISTENCE_P2"><path d="M504.99,289.67 C511.17,238.04 522.61,142.38 525.38,119.17 " fill="none" id="PERSISTENCE-P2" style="stroke:#181818;stroke-width:1.0;"/></g><!--MD5=[934e026255d5cae9d466298be546a757]
link ROUTE to CTRL_API--><g id="link_ROUTE_CTRL_API"><path d="M339.89,358.62 C338.12,386.78 335.65,426.01 334.2,449.07 " fill="none" id="ROUTE-to-CTRL_API" style="stroke:#181818;stroke-width:1.0;"/><path d="M342.2239,456.2592 A9,9 0 0 0 325.3429 455.1966" fill="none" style="stroke:#181818;stroke-width:1.5;"/></g><!--MD5=[ca76bc6bb19337f1fa71853eed84ced7]
link CTRL_API to CTRL--><g id="link_CTRL_API_CTRL"><path d="M333.43,478.1 C334.63,500.06 338.03,562.46 340.17,601.69 " fill="none" id="CTRL_API-CTRL" style="stroke:#181818;stroke-width:1.0;"/></g><!--MD5=[66929118b1082372e90c93f635eb75bb]
link PERSISTENCE to PERSISTENCE_API--><g id="link_PERSISTENCE_PERSISTENCE_API"><path d="M530.7,358.36 C541.98,370.9 555.01,385.25 567,398.14 C588.31,421.06 614.02,447.62 626.49,460.44 " fill="none" id="PERSISTENCE-PERSISTENCE_API" style="stroke:#181818;stroke-width:1.0;"/></g><!--MD5=[ef53c018a4c5493882643bb6282f4e0c]
reverse link PERSISTENCE_API to REPO--><g id="link_PERSISTENCE_API_REPO"><path d="M617.53,485.9 C603.48,499.67 583.07,520.48 567,540.14 C550.98,559.74 534.74,583.08 522.38,601.73 " fill="none" id="PERSISTENCE_API-backto-REPO" style="stroke:#181818;stroke-width:1.0;"/><path d="M616.5458,475.0651 A9,9 0 0 0 628.3113 487.2172" fill="none" style="stroke:#181818;stroke-width:1.5;"/></g><!--MD5=[f8ace971a97d46ec283b778fd61d56cf]
link PERSISTENCE to DATA_API--><g id="link_PERSISTENCE_DATA_API"><path d="M496.31,358.62 C492.37,386.78 486.89,426.01 483.67,449.07 " fill="none" id="PERSISTENCE-to-DATA_API" style="stroke:#181818;stroke-width:1.0;"/><path d="M491.0996,456.9214 A9,9 0 0 0 474.3451 454.6005" fill="none" style="stroke:#181818;stroke-width:1.5;"/></g><!--MD5=[dfc9db31b468f3ce5066007fdb71a377]
reverse link DATA_API to REPO--><g id="link_DATA_API_REPO"><path d="M483.31,489.21 C486.64,516.69 492.84,567.82 496.94,601.69 " fill="none" id="DATA_API-backto-REPO" style="stroke:#181818;stroke-width:1.0;"/><path d="M474.1239,483.6721 A9,9 0 0 0 490.9158 481.6397" fill="none" style="stroke:#181818;stroke-width:1.5;"/></g><!--MD5=[bc1a25b422c4323256fbf946ce492877]
link DATA to DATA_API--><g id="link_DATA_DATA_API"><path d="M206.13,358.56 C222.73,372.47 243.31,387.75 264,398.14 C322.11,427.31 343.46,416.16 405,437.14 C424.78,443.88 446.83,453.07 462.07,459.69 " fill="none" id="DATA-to-DATA_API" style="stroke:#181818;stroke-width:1.0;"/><path d="M471.4433,454.5796 A9,9 0 0 0 464.623 470.0581" fill="none" style="stroke:#181818;stroke-width:1.5;"/></g><!--MD5=[81296158a87d58ec40d56dbab3fc4274]
link CTRL to SRV_API--><g id="link_CTRL_SRV_API"><path d="M313.63,670.42 C302.28,683.22 288.87,697.76 276,710.28 C254.91,730.78 228.81,752.49 211.8,766.2 " fill="none" id="CTRL-to-SRV_API" style="stroke:#181818;stroke-width:1.0;"/><path d="M211.8179,777.0093 A9,9 0 0 0 201.2486 763.8037" fill="none" style="stroke:#181818;stroke-width:1.5;"/></g><!--MD5=[c15049347ac90765e404d2283b7839c1]
reverse link SRV_API to SRV--><g id="link_SRV_API_SRV"><path d="M209.1,798.46 C233.95,825.1 283.99,878.73 316.73,913.83 " fill="none" id="SRV_API-backto-SRV" style="stroke:#181818;stroke-width:1.0;"/><path d="M198.3703,799.3571 A9,9 0 0 0 210.7462 787.8273" fill="none" style="stroke:#181818;stroke-width:1.5;"/></g><!--MD5=[8986e145bb4e345cfe731979d9f8de1b]
reverse link DTO_API to SRV--><g id="link_DTO_API_SRV"><path d="M330.31,801.35 C333.64,828.83 339.84,879.96 343.94,913.83 " fill="none" id="DTO_API-backto-SRV" style="stroke:#181818;stroke-width:1.0;"/><path d="M321.1239,795.8121 A9,9 0 0 0 337.9158 793.7797" fill="none" style="stroke:#181818;stroke-width:1.5;"/></g><!--MD5=[a7e070744c00e8b5382e17ef40fbc9dc]
link CTRL to DTO_API--><g id="link_CTRL_DTO_API"><path d="M338.72,670.75 C335.96,698.91 332.12,738.14 329.87,761.21 " fill="none" id="CTRL-to-DTO_API" style="stroke:#181818;stroke-width:1.0;"/><path d="M337.6262,768.6976 A9,9 0 0 0 320.7916 767.0552" fill="none" style="stroke:#181818;stroke-width:1.5;"/></g><!--MD5=[b9211db5413aa7321327bdf9c64a5720]
link DTO to DTO_API--><g id="link_DTO_DTO_API"><path d="M207.04,670.75 C239.88,700.49 286.34,742.55 311.03,764.91 " fill="none" id="DTO-to-DTO_API" style="stroke:#181818;stroke-width:1.0;"/><path d="M321.6253,763.095 A9,9 0 0 0 310.2714 775.6325" fill="none" style="stroke:#181818;stroke-width:1.5;"/></g><!--MD5=[a63abc9c1fa3fe15a1408bd634790c30]
link REPO to REPO_API--><g id="link_REPO_REPO_API"><path d="M485.76,670.75 C470.53,704.28 448.16,753.51 439.56,772.45 " fill="none" id="REPO-REPO_API" style="stroke:#181818;stroke-width:1.0;"/></g><!--MD5=[ce48b4950b5d6b8094bd5d8b93cc63cc]
reverse link REPO_API to SRV--><g id="link_REPO_API_SRV"><path d="M426.42,800.24 C411.92,827.44 384.17,879.5 365.87,913.83 " fill="none" id="REPO_API-backto-SRV" style="stroke:#181818;stroke-width:1.0;"/><path d="M422.1282,790.3129 A9,9 0 0 0 437.0588 798.2614" fill="none" style="stroke:#181818;stroke-width:1.5;"/></g><!--MD5=[3798ad7770e428ed0b3dec73fbcc5891]
link SRV to MODEL_API--><g id="link_SRV_MODEL_API"><path d="M348,982.89 C348,1011.05 348,1050.28 348,1073.34 " fill="none" id="SRV-to-MODEL_API" style="stroke:#181818;stroke-width:1.0;"/><path d="M356.4572,1079.9918 A9,9 0 0 0 339.5428 1079.9918" fill="none" style="stroke:#181818;stroke-width:1.5;"/></g><!--MD5=[aadfeffa343fca7a154fb3ff2e82a91e]
link REPO to MODEL_API--><g id="link_REPO_MODEL_API"><path d="M509.72,670.65 C526.23,741.83 554.39,910.92 483,1022.41 C456.85,1063.25 398.72,1081.52 367.97,1088.59 " fill="none" id="REPO-to-MODEL_API" style="stroke:#181818;stroke-width:1.0;"/><path d="M363.2022,1098.2331 A9,9 0 0 0 359.7225 1081.6804" fill="none" style="stroke:#181818;stroke-width:1.5;"/></g><!--MD5=[141f302c97e20ef427497abbf21a6232]
link MODEL_API to MODEL--><g id="link_MODEL_API_MODEL"><path d="M345.34,1102.28 C337.15,1126.44 312.05,1200.56 297.25,1244.28 " fill="none" id="MODEL_API-MODEL" style="stroke:#181818;stroke-width:1.0;"/></g><!--MD5=[f3255aa78368c4b64ac8a9adf1ac5ab1]
reverse link CTRL2 to ROUTE2--><g id="link_CTRL2_ROUTE2"><path d="M414.03,1965.51 C412.15,1998.25 409.35,2046.96 407.6,2077.39 " fill="none" id="CTRL2-backto-ROUTE2" style="stroke:#181818;stroke-width:1.0;stroke-dasharray:7.0,7.0;"/><polygon fill="#181818" points="414.31,1960.7,409.8031,1969.4571,414.0248,1965.6919,417.79,1969.9135,414.31,1960.7" style="stroke:#181818;stroke-width:1.0;"/></g><!--MD5=[d9b208adc94abc4a411ce7b991c2d77f]
reverse link PERS2 to REPO2--><g id="link_PERS2_REPO2"><path d="M277.82,2071.07 C276.69,2038.36 275.01,1989.64 273.96,1959.19 " fill="none" id="PERS2-backto-REPO2" style="stroke:#181818;stroke-width:1.0;stroke-dasharray:7.0,7.0;"/><polygon fill="#181818" points="277.99,2075.88,281.6793,2066.7482,277.8187,2070.8829,273.684,2067.0223,277.99,2075.88" style="stroke:#181818;stroke-width:1.0;"/></g><!--MD5=[dd3aef4f49356140044cb1df606cea56]
reverse link APP2 to CTRL2--><g id="link_APP2_CTRL2"><path d="M302.86,1787.71 C316.46,1803.27 332.78,1822.26 347,1839.68 C363.63,1860.06 381.75,1883.63 395.25,1901.48 " fill="none" id="APP2-backto-CTRL2" style="stroke:#181818;stroke-width:1.0;stroke-dasharray:7.0,7.0;"/><polygon fill="#181818" points="299.73,1784.13,302.6639,1793.5317,303.0296,1787.8867,308.6746,1788.2524,299.73,1784.13" style="stroke:#181818;stroke-width:1.0;"/></g><!--MD5=[d41f8c791ba931d8664bb2d964d51e6b]
reverse link APP2 to REPO2--><g id="link_APP2_REPO2"><path d="M273.8,1789.44 C273.61,1822.18 273.34,1870.9 273.16,1901.32 " fill="none" id="APP2-backto-REPO2" style="stroke:#181818;stroke-width:1.0;stroke-dasharray:7.0,7.0;"/><polygon fill="#181818" points="273.83,1784.63,269.7786,1793.607,273.8014,1789.6299,277.7785,1793.6527,273.83,1784.63" style="stroke:#181818;stroke-width:1.0;"/></g><!--MD5=[63bce26831956c4295a76b14576468ad]
reverse link AGG2 to APP2--><g id="link_AGG2_APP2"><path d="M387.73,1611.75 C361.4,1644.48 321.32,1694.32 296.44,1725.25 " fill="none" id="AGG2-backto-APP2" style="stroke:#181818;stroke-width:1.0;stroke-dasharray:7.0,7.0;"/><polygon fill="#181818" points="390.56,1608.23,381.8082,1612.7473,387.4313,1612.1302,388.0485,1617.7532,390.56,1608.23" style="stroke:#181818;stroke-width:1.0;"/></g><!--MD5=[c94d2a5f576b0f62215aeaf3eaf84944]
reverse link VO2 to APP2--><g id="link_VO2_APP2"><path d="M265.97,1613.37 C267.85,1646.11 270.65,1694.83 272.4,1725.25 " fill="none" id="VO2-backto-APP2" style="stroke:#181818;stroke-width:1.0;stroke-dasharray:7.0,7.0;"/><polygon fill="#181818" points="265.69,1608.56,262.21,1617.7735,265.9752,1613.5519,270.1969,1617.3171,265.69,1608.56" style="stroke:#181818;stroke-width:1.0;"/></g><!--MD5=[bf8018701a9ac4b91f2521fc653c8ae0]
reverse link SRV2 to APP2--><g id="link_SRV2_APP2"><path d="M151.52,1611.8 C161.7,1623.42 173.81,1636.19 186,1646.62 C196.49,1655.59 202.11,1653.98 212,1663.62 C230.69,1681.82 247.25,1706.41 258.54,1725.22 " fill="none" id="SRV2-backto-APP2" style="stroke:#181818;stroke-width:1.0;stroke-dasharray:7.0,7.0;"/><polygon fill="#181818" points="148.27,1608.04,151.1281,1617.465,151.5392,1611.8232,157.1811,1612.2343,148.27,1608.04" style="stroke:#181818;stroke-width:1.0;"/></g><!--MD5=[430532c2c0c9ea117fd0f34bf11380a4]
reverse link IA2 to I2--><g id="link_IA2_I2"><path d="M188.876,1982.9015 C188.9272,1983.0084 188.9788,1983.1152 189.0306,1983.2218 C189.4453,1984.0744 189.8801,1984.9159 190.3358,1985.744 C191.2472,1987.4002 192.2424,1989.003 193.3287,1990.5354 C195.5014,1993.6003 198.0388,1996.3838 201,1998.75 C246.06,2034.76 416.39,1978 460,2015.75 C463.7838,2019.0263 466.9241,2022.8519 469.522,2027.0421 C470.1715,2028.0896 470.7871,2029.16 471.3703,2030.2502 C471.5161,2030.5227 471.6599,2030.7965 471.8017,2031.0715 C471.8726,2031.209 471.943,2031.3468 472.0129,2031.4849 " fill="none" id="IA2-backto-I2" style="stroke:#181818;stroke-width:1.0;stroke-dasharray:7.0,7.0;"/><polygon fill="#181818" points="188.876,1982.9015,189.1565,1992.7464,191.036,1987.4109,196.3715,1989.2904,188.876,1982.9015" style="stroke:#181818;stroke-width:1.0;"/></g><!--MD5=[772a5d73a53f1de56b0c3345dbd26b20]
reverse link UC2 to IA2--><g id="link_UC2_IA2"><path d="M181,1807.5152 C181,1808.7352 181,1809.9662 181,1811.2067 C181,1821.1313 181,1831.6741 181,1842.2163 C181,1844.8518 181,1847.4873 181,1850.1131 C181,1851.426 181,1852.7365 181,1854.0434 C181,1854.3701 181,1854.6966 181,1855.0228 C181,1855.1859 181,1855.349 181,1855.512 " fill="none" id="UC2-backto-IA2" style="stroke:#181818;stroke-width:1.0;stroke-dasharray:7.0,7.0;"/><polygon fill="#181818" points="181,1807.5152,177,1816.5152,181,1812.5152,185,1816.5152,181,1807.5152" style="stroke:#181818;stroke-width:1.0;"/></g><!--MD5=[f2e35a328fa7ae75e0a465751074c4d8]
reverse link E2 to UC2--><g id="link_E2_UC2"><path d="M58.2774,1630.6964 C58.3213,1630.81 58.3655,1630.9235 58.4098,1631.037 C59.1187,1632.8525 59.87,1634.6522 60.6662,1636.4239 C62.2584,1639.9673 64.03,1643.3988 66,1646.62 C74.945,1661.245 86.4519,1675.1238 98.718,1687.7378 C104.851,1694.0448 111.1739,1700.0357 117.4612,1705.6456 C119.033,1707.0481 120.6026,1708.4267 122.1665,1709.7806 C122.362,1709.9498 122.5574,1710.1186 122.7527,1710.2871 " fill="none" id="E2-backto-UC2" style="stroke:#181818;stroke-width:1.0;stroke-dasharray:7.0,7.0;"/><polygon fill="#181818" points="58.2774,1630.6964,57.7965,1640.5335,60.0826,1635.3592,65.2569,1637.6452,58.2774,1630.6964" style="stroke:#181818;stroke-width:1.0;"/></g><!--MD5=[a4a8fa48e2e8b3afd565dfaea9c4d8f6]
reverse link FDL to I2--><g id="link_FDL_I2"><path d="M592.9851,382.3075 C593.0193,382.4233 593.0538,382.539 593.0888,382.6545 C593.1588,382.8855 593.2305,383.1158 593.304,383.3454 C593.8918,385.182 594.5923,386.9713 595.4189,388.6965 C597.0722,392.1467 599.23,395.34 602,398.14 C621.11,417.46 702.33,389.75 724,406.14 C747.32,423.78 746,438.9 746,468.14 C746,468.14 746,468.14 746,1931.22 C746,2001.495 680.29,2044.8825 614.0663,2070.765 C580.9544,2083.7062 547.7141,2092.2713 522.4948,2097.6328 C509.8852,2100.3136 499.2809,2102.1935 491.7005,2103.4192 C490.753,2103.5724 489.8527,2103.7154 489.0016,2103.8484 C488.5761,2103.9149 488.1629,2103.979 487.7622,2104.0406 C487.5619,2104.0714 487.3647,2104.1016 487.1707,2104.1311 " fill="none" id="FDL-backto-I2" style="stroke:#181818;stroke-width:1.0;stroke-dasharray:7.0,7.0;"/><polygon fill="#181818" points="592.9851,382.3075,591.6912,392.0709,594.3979,387.1037,599.3652,389.8105,592.9851,382.3075" style="stroke:#181818;stroke-width:1.0;"/><text fill="#000000" font-family="sans-serif" font-size="13" lengthAdjust="spacing" textLength="66" x="747" y="1098.807">«manifest»</text></g><!--MD5=[c25cf313fa7b3bee86483130f9a53ab4]
reverse link IAL to IA2--><g id="link_IAL_IA2"><path d="M606.1899,648.8592 C606.3492,649.0978 606.5103,649.3396 606.6731,649.5846 C606.9986,650.0747 607.331,650.5778 607.6698,651.0934 C613.0909,659.3444 620.1569,670.8338 627.1688,684.3575 C641.1925,711.405 655,746.59 655,780.28 C655,780.28 655,780.28 655,1755.15 C655,1894.86 485.79,1799.62 348,1822.68 C315.57,1828.11 225.44,1817.68 201,1839.68 C197.2713,1843.0375 194.1573,1846.9244 191.5634,1851.1595 C190.9149,1852.2183 190.299,1853.2988 189.714,1854.3983 C189.5677,1854.6732 189.4234,1854.9493 189.2811,1855.2265 C189.2099,1855.3651 189.1391,1855.5039 189.0689,1855.6431 " fill="none" id="IAL-backto-IA2" style="stroke:#181818;stroke-width:1.0;stroke-dasharray:7.0,7.0;"/><polygon fill="#181818" points="606.1899,648.8592,607.8619,658.5651,608.9668,653.0172,614.5147,654.1221,606.1899,648.8592" style="stroke:#181818;stroke-width:1.0;"/><text fill="#000000" font-family="sans-serif" font-size="13" lengthAdjust="spacing" textLength="66" x="656" y="1170.307">«manifest»</text></g><!--MD5=[e426ef46276d5a42cb337565f6c09be0]
reverse link ABR to UC2--><g id="link_ABR_UC2"><path d="M475.0003,958.7468 C475.3489,959.176 475.7064,959.6186 476.0725,960.0742 C476.8046,960.9855 477.5709,961.9493 478.3673,962.9633 C484.7391,971.0753 493.0444,982.4031 501.2863,995.8213 C517.77,1022.6575 534,1057.855 534,1092.41 C534,1092.41 534,1092.41 534,1579.08 C534,1616.43 516.83,1628.82 484,1646.62 C428.41,1676.74 247.92,1622.37 200,1663.62 C196.2063,1666.885 193.0584,1670.702 190.455,1674.8858 C189.8042,1675.9317 189.1874,1677.0006 188.603,1678.0895 C188.4569,1678.3617 188.3128,1678.6352 188.1708,1678.9099 C188.0997,1679.0472 188.0292,1679.1849 187.9592,1679.3228 " fill="none" id="ABR-backto-UC2" style="stroke:#181818;stroke-width:1.0;stroke-dasharray:7.0,7.0;"/><polygon fill="#181818" points="475.0003,958.7468,477.569,968.2548,478.1524,962.6282,483.7791,963.2115,475.0003,958.7468" style="stroke:#181818;stroke-width:1.0;"/><text fill="#000000" font-family="sans-serif" font-size="13" lengthAdjust="spacing" textLength="66" x="535" y="1283.877">«manifest»</text></g><!--MD5=[74c9eeddedded9e20e7e5047e13b6c12]
reverse link EBR to E2--><g id="link_EBR_E2"><path d="M156.9934,1286.3827 C156.899,1286.4667 156.8039,1286.5514 156.7082,1286.6367 C156.5166,1286.8075 156.3222,1286.981 156.1251,1287.1574 C155.7308,1287.5102 155.3254,1287.8742 154.9094,1288.2493 C154.0773,1288.9995 153.2027,1289.7939 152.2889,1290.6309 C144.9784,1297.3275 135.1606,1306.7563 124.5838,1318.135 C103.43,1340.8925 79.24,1371.45 66,1403.55 C58.7175,1421.2 53.8688,1440.6725 50.6969,1460.0016 C49.1109,1469.6661 47.9442,1479.2948 47.1021,1488.6418 C46.6811,1493.3154 46.3412,1497.9185 46.0706,1502.4205 C46.0537,1502.7019 46.037,1502.9829 46.0207,1503.2635 " fill="none" id="EBR-backto-E2" style="stroke:#181818;stroke-width:1.0;stroke-dasharray:7.0,7.0;"/><polygon fill="#181818" points="156.9934,1286.3827,147.6106,1289.3765,153.2578,1289.7062,152.9281,1295.3534,156.9934,1286.3827" style="stroke:#181818;stroke-width:1.0;"/><text fill="#000000" font-family="sans-serif" font-size="13" lengthAdjust="spacing" textLength="66" x="81" y="1391.447">«manifest»</text></g><!--MD5=[9211dc7bdf249c92c294bb7ac3191ffe]
@startuml lv-iv

interface "MD API" as API

component "MD Management" as MDM <<component>> <<container (C4)>> {
  portin " " as P1
  portin "Persistence API" as P2

  Interface "Controller API" as CTRL_API
  Interface "Data Model API" as DATA_API


  folder "Frameworks & Drivers Layer" as FDL #80FFFF {
    component "Routing" as ROUTE <<component>> {
    }
    component "Persistence" as PERSISTENCE <<component>> {
    }
  }

  component "Data Model" as DATA <<component>> {
  }
  component "DTO" as DTO <<component>> {
  }

  Interface "App Services API" AS SRV_API
  Interface "DTO API" AS DTO_API
  Interface "Repo API" AS REPO_API
  Interface "Model API" AS MODEL_API
  Interface "Persistence API" AS PERSISTENCE_API

  folder "Interface Adapters Layer" as IAL #80FF80 {
    component "Controller" as CTRL <<component>> {
    }
    component "Repository" as REPO <<component>> {
    }
  }

  folder "Application Business Rules" as ABR #FF8080 {
    component "Application Service" as SRV <<component>> {
    }
  }

  folder "Enterprise Business Rules" as EBR #FFC080 {
    component "Domain Model DDD" as MODEL <<component>> {
    }
  }
}

API - - P1

ROUTE - - - P1
PERSISTENCE - - P2

ROUTE - -( CTRL_API
CTRL -up- CTRL_API
PERSISTENCE - - PERSISTENCE_API
REPO -up-( PERSISTENCE_API 
PERSISTENCE - -( DATA_API 
REPO -up-( DATA_API 
DATA - -( DATA_API 

CTRL - -( SRV_API
SRV -up-( SRV_API
SRV -up-( DTO_API
CTRL - -( DTO_API
DTO - -( DTO_API

REPO - - REPO_API
SRV -up-( REPO_API 

SRV - -( MODEL_API 
REPO - -( MODEL_API 
MODEL -up- MODEL_API 

' - - - - - - - - - - - - - - - - - - - - -

component "MD Management" as MDM2 <<component>> <<container (C4)>> {
  folder Infrastructure as I2 {
    folder Persistence as PERS2
    folder Routes as ROUTE2
  }

  folder "Interface Adapters" as IA2 {
    folder Controllers as CTRL2
    folder Repositories as REPO2
  }

  folder "Application Services/Use Case Services" as UC2 {
    folder "App Services" as APP2
  }

  folder "Entities/Core/Domain" as E2 {
    folder "Aggregates" as AGG2 
    folder "Value Objects" as VO2
    folder "Services" as SRV2
  }
}

ROUTE2 .up.> CTRL2
REPO2 .up.> PERS2
CTRL2 .up.> APP2
REPO2 .up.> APP2
APP2 .up.> AGG2
APP2 .up.> VO2
APP2 .up.> SRV2

I2 .up.> IA2
IA2 .up.> UC2
UC2 .up.> E2

I2 .up.> FDL : <<manifest>>
IA2 .up.> IAL : <<manifest>>
UC2 .up.> ABR : <<manifest>>
E2 .up.> EBR : <<manifest>>

@enduml

@startuml lv-iv

interface "MD API" as API

component "MD Management" as MDM <<component>> <<container (C4)>> {
  portin " " as P1
  portin "Persistence API" as P2

  Interface "Controller API" as CTRL_API
  Interface "Data Model API" as DATA_API


  folder "Frameworks & Drivers Layer" as FDL #80FFFF {
    component "Routing" as ROUTE <<component>> {
    }
    component "Persistence" as PERSISTENCE <<component>> {
    }
  }

  component "Data Model" as DATA <<component>> {
  }
  component "DTO" as DTO <<component>> {
  }

  Interface "App Services API" AS SRV_API
  Interface "DTO API" AS DTO_API
  Interface "Repo API" AS REPO_API
  Interface "Model API" AS MODEL_API
  Interface "Persistence API" AS PERSISTENCE_API

  folder "Interface Adapters Layer" as IAL #80FF80 {
    component "Controller" as CTRL <<component>> {
    }
    component "Repository" as REPO <<component>> {
    }
  }

  folder "Application Business Rules" as ABR #FF8080 {
    component "Application Service" as SRV <<component>> {
    }
  }

  folder "Enterprise Business Rules" as EBR #FFC080 {
    component "Domain Model DDD" as MODEL <<component>> {
    }
  }
}

API - - P1

ROUTE - - - P1
PERSISTENCE - - P2

ROUTE - -( CTRL_API
CTRL -up- CTRL_API
PERSISTENCE - - PERSISTENCE_API
REPO -up-( PERSISTENCE_API 
PERSISTENCE - -( DATA_API 
REPO -up-( DATA_API 
DATA - -( DATA_API 

CTRL - -( SRV_API
SRV -up-( SRV_API
SRV -up-( DTO_API
CTRL - -( DTO_API
DTO - -( DTO_API

REPO - - REPO_API
SRV -up-( REPO_API 

SRV - -( MODEL_API 
REPO - -( MODEL_API 
MODEL -up- MODEL_API 


component "MD Management" as MDM2 <<component>> <<container (C4)>> {
  folder Infrastructure as I2 {
    folder Persistence as PERS2
    folder Routes as ROUTE2
  }

  folder "Interface Adapters" as IA2 {
    folder Controllers as CTRL2
    folder Repositories as REPO2
  }

  folder "Application Services/Use Case Services" as UC2 {
    folder "App Services" as APP2
  }

  folder "Entities/Core/Domain" as E2 {
    folder "Aggregates" as AGG2 
    folder "Value Objects" as VO2
    folder "Services" as SRV2
  }
}

ROUTE2 .up.> CTRL2
REPO2 .up.> PERS2
CTRL2 .up.> APP2
REPO2 .up.> APP2
APP2 .up.> AGG2
APP2 .up.> VO2
APP2 .up.> SRV2

I2 .up.> IA2
IA2 .up.> UC2
UC2 .up.> E2

I2 .up.> FDL : <<manifest>>
IA2 .up.> IAL : <<manifest>>
UC2 .up.> ABR : <<manifest>>
E2 .up.> EBR : <<manifest>>

@enduml

PlantUML version 1.2022.7(Mon Aug 22 18:01:30 WEST 2022)
(GPL source distribution)
Java Runtime: OpenJDK Runtime Environment
JVM: OpenJDK 64-Bit Server VM
Default Encoding: UTF-8
Language: en
Country: GB
--></g></svg>