<?xml version="1.0" encoding="UTF-8" standalone="no"?><svg xmlns="http://www.w3.org/2000/svg" xmlns:xlink="http://www.w3.org/1999/xlink" contentStyleType="text/css" height="2480px" preserveAspectRatio="none" style="width:1020px;height:2480px;background:#FFFFFF;" version="1.1" viewBox="0 0 1020 2480" width="1020px" zoomAndPan="magnify"><defs/><g><!--cluster MDM--><g id="cluster_MDM"><rect fill="none" height="1421" rx="2.5" ry="2.5" style="stroke:#181818;stroke-width:1.0;" width="857" x="157" y="133"/><rect fill="none" height="10" style="stroke:#181818;stroke-width:1.0;" width="15" x="994" y="138"/><rect fill="none" height="2" style="stroke:#181818;stroke-width:1.0;" width="4" x="992" y="140"/><rect fill="none" height="2" style="stroke:#181818;stroke-width:1.0;" width="4" x="992" y="144"/><text fill="#000000" font-family="sans-serif" font-size="20" font-style="italic" lengthAdjust="spacing" textLength="122" x="524.5" y="167.38">«component»</text><text fill="#000000" font-family="sans-serif" font-size="20" font-style="italic" lengthAdjust="spacing" textLength="122" x="524.5" y="194.62">«system (C4)»</text><text fill="#000000" font-family="sans-serif" font-size="20" font-weight="bold" lengthAdjust="spacing" textLength="169.5" x="500.75" y="221.8599">MD Management</text></g><!--cluster FDL--><g id="cluster_FDL"><path d="M361.5,276 L639.875,276 A3.75,3.75 0 0 1 642.375,278.5 L649.375,309.24 L782.5,309.24 A2.5,2.5 0 0 1 785,311.74 L785,435.5 A2.5,2.5 0 0 1 782.5,438 L361.5,438 A2.5,2.5 0 0 1 359,435.5 L359,278.5 A2.5,2.5 0 0 1 361.5,276 " fill="#80FFFF" style="stroke:#000000;stroke-width:1.5;"/><line style="stroke:#000000;stroke-width:1.5;" x1="359" x2="649.375" y1="309.24" y2="309.24"/><text fill="#000000" font-family="sans-serif" font-size="20" font-weight="bold" lengthAdjust="spacing" textLength="277.375" x="363" y="299.38">Frameworks &amp; Drivers Layer</text></g><!--cluster IAL--><g id="cluster_IAL"><path d="M361.5,628 L604.25,628 A3.75,3.75 0 0 1 606.75,630.5 L613.75,661.24 L782.5,661.24 A2.5,2.5 0 0 1 785,663.74 L785,787.5 A2.5,2.5 0 0 1 782.5,790 L361.5,790 A2.5,2.5 0 0 1 359,787.5 L359,630.5 A2.5,2.5 0 0 1 361.5,628 " fill="#80FF80" style="stroke:#000000;stroke-width:1.5;"/><line style="stroke:#000000;stroke-width:1.5;" x1="359" x2="613.75" y1="661.24" y2="661.24"/><text fill="#000000" font-family="sans-serif" font-size="20" font-weight="bold" lengthAdjust="spacing" textLength="241.75" x="363" y="651.38">Interface Adapters Layer</text></g><!--cluster ABR--><g id="cluster_ABR"><path d="M278.5,980 L541.5,980 A3.75,3.75 0 0 1 544,982.5 L551,1013.24 L556.5,1013.24 A2.5,2.5 0 0 1 559,1015.74 L559,1139.5 A2.5,2.5 0 0 1 556.5,1142 L278.5,1142 A2.5,2.5 0 0 1 276,1139.5 L276,982.5 A2.5,2.5 0 0 1 278.5,980 " fill="#FF8080" style="stroke:#000000;stroke-width:1.5;"/><line style="stroke:#000000;stroke-width:1.5;" x1="276" x2="551" y1="1013.24" y2="1013.24"/><text fill="#000000" font-family="sans-serif" font-size="20" font-weight="bold" lengthAdjust="spacing" textLength="262" x="280" y="1003.38">Application Business Rules</text></g><!--cluster EBR--><g id="cluster_EBR"><path d="M222.5,1360 L475.875,1360 A3.75,3.75 0 0 1 478.375,1362.5 L485.375,1393.24 L512.5,1393.24 A2.5,2.5 0 0 1 515,1395.74 L515,1519.5 A2.5,2.5 0 0 1 512.5,1522 L222.5,1522 A2.5,2.5 0 0 1 220,1519.5 L220,1362.5 A2.5,2.5 0 0 1 222.5,1360 " fill="#FFC080" style="stroke:#000000;stroke-width:1.5;"/><line style="stroke:#000000;stroke-width:1.5;" x1="220" x2="485.375" y1="1393.24" y2="1393.24"/><text fill="#000000" font-family="sans-serif" font-size="20" font-weight="bold" lengthAdjust="spacing" textLength="252.375" x="224" y="1383.38">Enterprise Business Rules</text></g><!--cluster MDM2--><g id="cluster_MDM2"><rect fill="none" height="867" rx="2.5" ry="2.5" style="stroke:#181818;stroke-width:1.0;" width="603" x="7" y="1607"/><rect fill="none" height="10" style="stroke:#181818;stroke-width:1.0;" width="15" x="590" y="1612"/><rect fill="none" height="2" style="stroke:#181818;stroke-width:1.0;" width="4" x="588" y="1614"/><rect fill="none" height="2" style="stroke:#181818;stroke-width:1.0;" width="4" x="588" y="1618"/><text fill="#000000" font-family="sans-serif" font-size="20" font-style="italic" lengthAdjust="spacing" textLength="122" x="247.5" y="1641.38">«component»</text><text fill="#000000" font-family="sans-serif" font-size="20" font-style="italic" lengthAdjust="spacing" textLength="122" x="247.5" y="1668.62">«system (C4)»</text><text fill="#000000" font-family="sans-serif" font-size="20" font-weight="bold" lengthAdjust="spacing" textLength="169.5" x="223.75" y="1695.8599">MD Management</text></g><!--cluster I2--><g id="cluster_I2"><path d="M231.5,2299 L371.25,2299 A3.75,3.75 0 0 1 373.75,2301.5 L380.75,2332.24 L560.5,2332.24 A2.5,2.5 0 0 1 563,2334.74 L563,2439.5 A2.5,2.5 0 0 1 560.5,2442 L231.5,2442 A2.5,2.5 0 0 1 229,2439.5 L229,2301.5 A2.5,2.5 0 0 1 231.5,2299 " fill="none" style="stroke:#000000;stroke-width:1.5;"/><line style="stroke:#000000;stroke-width:1.5;" x1="229" x2="380.75" y1="2332.24" y2="2332.24"/><text fill="#000000" font-family="sans-serif" font-size="20" font-weight="bold" lengthAdjust="spacing" textLength="138.75" x="233" y="2322.38">Infrastructure</text></g><!--cluster IA2--><g id="cluster_IA2"><path d="M199.5,2107 L384.125,2107 A3.75,3.75 0 0 1 386.625,2109.5 L393.625,2140.24 L575.5,2140.24 A2.5,2.5 0 0 1 578,2142.74 L578,2247.5 A2.5,2.5 0 0 1 575.5,2250 L199.5,2250 A2.5,2.5 0 0 1 197,2247.5 L197,2109.5 A2.5,2.5 0 0 1 199.5,2107 " fill="none" style="stroke:#000000;stroke-width:1.5;"/><line style="stroke:#000000;stroke-width:1.5;" x1="197" x2="393.625" y1="2140.24" y2="2140.24"/><text fill="#000000" font-family="sans-serif" font-size="20" font-weight="bold" lengthAdjust="spacing" textLength="183.625" x="201" y="2130.38">Interface Adapters</text></g><!--cluster UC2--><g id="cluster_UC2"><path d="M113.5,1915 L495.375,1915 A3.75,3.75 0 0 1 497.875,1917.5 L504.875,1948.24 L504.5,1948.24 A2.5,2.5 0 0 1 507,1950.74 L507,2055.5 A2.5,2.5 0 0 1 504.5,2058 L113.5,2058 A2.5,2.5 0 0 1 111,2055.5 L111,1917.5 A2.5,2.5 0 0 1 113.5,1915 " fill="none" style="stroke:#000000;stroke-width:1.5;"/><line style="stroke:#000000;stroke-width:1.5;" x1="111" x2="504.875" y1="1948.24" y2="1948.24"/><text fill="#000000" font-family="sans-serif" font-size="20" font-weight="bold" lengthAdjust="spacing" textLength="380.875" x="115" y="1938.38">Application Services/Use Case Services</text></g><!--cluster E2--><g id="cluster_E2"><path d="M41.5,1723 L255,1723 A3.75,3.75 0 0 1 257.5,1725.5 L264.5,1756.24 L575.5,1756.24 A2.5,2.5 0 0 1 578,1758.74 L578,1863.5 A2.5,2.5 0 0 1 575.5,1866 L41.5,1866 A2.5,2.5 0 0 1 39,1863.5 L39,1725.5 A2.5,2.5 0 0 1 41.5,1723 " fill="none" style="stroke:#000000;stroke-width:1.5;"/><line style="stroke:#000000;stroke-width:1.5;" x1="39" x2="264.5" y1="1756.24" y2="1756.24"/><text fill="#000000" font-family="sans-serif" font-size="20" font-weight="bold" lengthAdjust="spacing" textLength="212.5" x="43" y="1746.38">Entities/Core/Domain</text></g><text fill="#000000" font-family="sans-serif" font-size="20" lengthAdjust="spacing" textLength="5" x="479.5" y="109.14"> </text><rect fill="#F1F1F1" height="12" style="stroke:#181818;stroke-width:1.5;" width="12" x="476" y="127"/><text fill="#000000" font-family="sans-serif" font-size="20" lengthAdjust="spacing" textLength="144" x="563.5" y="109.14">Persistence API</text><rect fill="#F1F1F1" height="12" style="stroke:#181818;stroke-width:1.5;" width="12" x="629.5" y="127"/><!--entity CTRL_API--><g id="elem_CTRL_API"><ellipse cx="388" cy="533" fill="#F1F1F1" rx="8" ry="8" style="stroke:#181818;stroke-width:0.5;"/><text fill="#000000" font-family="sans-serif" font-size="20" lengthAdjust="spacing" textLength="130" x="323" y="571.38">Controller API</text></g><!--entity DATA_API--><g id="elem_DATA_API"><ellipse cx="576" cy="533" fill="#F1F1F1" rx="8" ry="8" style="stroke:#181818;stroke-width:0.5;"/><text fill="#000000" font-family="sans-serif" font-size="20" lengthAdjust="spacing" textLength="144" x="504" y="571.38">Data Model API</text></g><!--entity SRV_API--><g id="elem_SRV_API"><ellipse cx="464" cy="885" fill="#F1F1F1" rx="8" ry="8" style="stroke:#181818;stroke-width:0.5;"/><text fill="#000000" font-family="sans-serif" font-size="20" lengthAdjust="spacing" textLength="155" x="386.5" y="923.38">App Services API</text></g><!--entity DTO_API--><g id="elem_DTO_API"><ellipse cx="297" cy="885" fill="#F1F1F1" rx="8" ry="8" style="stroke:#181818;stroke-width:0.5;"/><text fill="#000000" font-family="sans-serif" font-size="20" lengthAdjust="spacing" textLength="79" x="257.5" y="923.38">DTO API</text></g><!--entity REPO_API--><g id="elem_REPO_API"><ellipse cx="673" cy="885" fill="#F1F1F1" rx="8" ry="8" style="stroke:#181818;stroke-width:0.5;"/><text fill="#000000" font-family="sans-serif" font-size="20" lengthAdjust="spacing" textLength="84" x="631" y="923.38">Repo API</text></g><!--entity MODEL_API--><g id="elem_MODEL_API"><ellipse cx="408" cy="1237" fill="#F1F1F1" rx="8" ry="8" style="stroke:#181818;stroke-width:0.5;"/><text fill="#000000" font-family="sans-serif" font-size="20" lengthAdjust="spacing" textLength="95" x="360.5" y="1275.38">Model API</text></g><!--entity PERSISTENCE_API--><g id="elem_PERSISTENCE_API"><ellipse cx="771" cy="533" fill="#F1F1F1" rx="8" ry="8" style="stroke:#181818;stroke-width:0.5;"/><text fill="#000000" font-family="sans-serif" font-size="20" lengthAdjust="spacing" textLength="144" x="699" y="571.38">Persistence API</text></g><!--entity ROUTE--><g id="elem_ROUTE"><rect fill="#F1F1F1" height="84.4799" rx="2.5" ry="2.5" style="stroke:#181818;stroke-width:0.5;" width="162" x="383" y="330"/><rect fill="#F1F1F1" height="10" style="stroke:#181818;stroke-width:0.5;" width="15" x="525" y="335"/><rect fill="#F1F1F1" height="2" style="stroke:#181818;stroke-width:0.5;" width="4" x="523" y="337"/><rect fill="#F1F1F1" height="2" style="stroke:#181818;stroke-width:0.5;" width="4" x="523" y="341"/><text fill="#000000" font-family="sans-serif" font-size="20" font-style="italic" lengthAdjust="spacing" textLength="122" x="398" y="371.38">«component»</text><text fill="#000000" font-family="sans-serif" font-size="20" lengthAdjust="spacing" textLength="72" x="423" y="398.62">Routing</text></g><!--entity PERSISTENCE--><g id="elem_PERSISTENCE"><rect fill="#F1F1F1" height="84.4799" rx="2.5" ry="2.5" style="stroke:#181818;stroke-width:0.5;" width="162" x="580" y="330"/><rect fill="#F1F1F1" height="10" style="stroke:#181818;stroke-width:0.5;" width="15" x="722" y="335"/><rect fill="#F1F1F1" height="2" style="stroke:#181818;stroke-width:0.5;" width="4" x="720" y="337"/><rect fill="#F1F1F1" height="2" style="stroke:#181818;stroke-width:0.5;" width="4" x="720" y="341"/><text fill="#000000" font-family="sans-serif" font-size="20" font-style="italic" lengthAdjust="spacing" textLength="122" x="595" y="371.38">«component»</text><text fill="#000000" font-family="sans-serif" font-size="20" lengthAdjust="spacing" textLength="107" x="602.5" y="398.62">Persistence</text></g><!--entity DATA--><g id="elem_DATA"><rect fill="#F1F1F1" height="84.4799" rx="2.5" ry="2.5" style="stroke:#181818;stroke-width:0.5;" width="162" x="173" y="330"/><rect fill="#F1F1F1" height="10" style="stroke:#181818;stroke-width:0.5;" width="15" x="315" y="335"/><rect fill="#F1F1F1" height="2" style="stroke:#181818;stroke-width:0.5;" width="4" x="313" y="337"/><rect fill="#F1F1F1" height="2" style="stroke:#181818;stroke-width:0.5;" width="4" x="313" y="341"/><text fill="#000000" font-family="sans-serif" font-size="20" font-style="italic" lengthAdjust="spacing" textLength="122" x="188" y="371.38">«component»</text><text fill="#000000" font-family="sans-serif" font-size="20" lengthAdjust="spacing" textLength="107" x="195.5" y="398.62">Data Model</text></g><!--entity DTO--><g id="elem_DTO"><rect fill="#F1F1F1" height="84.4799" rx="2.5" ry="2.5" style="stroke:#181818;stroke-width:0.5;" width="162" x="173" y="682"/><rect fill="#F1F1F1" height="10" style="stroke:#181818;stroke-width:0.5;" width="15" x="315" y="687"/><rect fill="#F1F1F1" height="2" style="stroke:#181818;stroke-width:0.5;" width="4" x="313" y="689"/><rect fill="#F1F1F1" height="2" style="stroke:#181818;stroke-width:0.5;" width="4" x="313" y="693"/><text fill="#000000" font-family="sans-serif" font-size="20" font-style="italic" lengthAdjust="spacing" textLength="122" x="188" y="723.38">«component»</text><text fill="#000000" font-family="sans-serif" font-size="20" lengthAdjust="spacing" textLength="42" x="228" y="750.62">DTO</text></g><!--entity CTRL--><g id="elem_CTRL"><rect fill="#F1F1F1" height="84.4799" rx="2.5" ry="2.5" style="stroke:#181818;stroke-width:0.5;" width="162" x="383" y="682"/><rect fill="#F1F1F1" height="10" style="stroke:#181818;stroke-width:0.5;" width="15" x="525" y="687"/><rect fill="#F1F1F1" height="2" style="stroke:#181818;stroke-width:0.5;" width="4" x="523" y="689"/><rect fill="#F1F1F1" height="2" style="stroke:#181818;stroke-width:0.5;" width="4" x="523" y="693"/><text fill="#000000" font-family="sans-serif" font-size="20" font-style="italic" lengthAdjust="spacing" textLength="122" x="398" y="723.38">«component»</text><text fill="#000000" font-family="sans-serif" font-size="20" lengthAdjust="spacing" textLength="93" x="412.5" y="750.62">Controller</text></g><!--entity REPO--><g id="elem_REPO"><rect fill="#F1F1F1" height="84.4799" rx="2.5" ry="2.5" style="stroke:#181818;stroke-width:0.5;" width="162" x="580" y="682"/><rect fill="#F1F1F1" height="10" style="stroke:#181818;stroke-width:0.5;" width="15" x="722" y="687"/><rect fill="#F1F1F1" height="2" style="stroke:#181818;stroke-width:0.5;" width="4" x="720" y="689"/><rect fill="#F1F1F1" height="2" style="stroke:#181818;stroke-width:0.5;" width="4" x="720" y="693"/><text fill="#000000" font-family="sans-serif" font-size="20" font-style="italic" lengthAdjust="spacing" textLength="122" x="595" y="723.38">«component»</text><text fill="#000000" font-family="sans-serif" font-size="20" lengthAdjust="spacing" textLength="99" x="606.5" y="750.62">Repository</text></g><!--entity SRV--><g id="elem_SRV"><rect fill="#F1F1F1" height="84.4799" rx="2.5" ry="2.5" style="stroke:#181818;stroke-width:0.5;" width="215" x="300.5" y="1034"/><rect fill="#F1F1F1" height="10" style="stroke:#181818;stroke-width:0.5;" width="15" x="495.5" y="1039"/><rect fill="#F1F1F1" height="2" style="stroke:#181818;stroke-width:0.5;" width="4" x="493.5" y="1041"/><rect fill="#F1F1F1" height="2" style="stroke:#181818;stroke-width:0.5;" width="4" x="493.5" y="1045"/><text fill="#000000" font-family="sans-serif" font-size="20" font-style="italic" lengthAdjust="spacing" textLength="122" x="342" y="1075.38">«component»</text><text fill="#000000" font-family="sans-serif" font-size="20" lengthAdjust="spacing" textLength="175" x="315.5" y="1102.62">Application Service</text></g><!--entity MODEL--><g id="elem_MODEL"><rect fill="#F1F1F1" height="84.4799" rx="2.5" ry="2.5" style="stroke:#181818;stroke-width:0.5;" width="227" x="263.5" y="1414"/><rect fill="#F1F1F1" height="10" style="stroke:#181818;stroke-width:0.5;" width="15" x="470.5" y="1419"/><rect fill="#F1F1F1" height="2" style="stroke:#181818;stroke-width:0.5;" width="4" x="468.5" y="1421"/><rect fill="#F1F1F1" height="2" style="stroke:#181818;stroke-width:0.5;" width="4" x="468.5" y="1425"/><text fill="#000000" font-family="sans-serif" font-size="20" font-style="italic" lengthAdjust="spacing" textLength="122" x="311" y="1455.38">«component»</text><text fill="#000000" font-family="sans-serif" font-size="20" lengthAdjust="spacing" textLength="187" x="278.5" y="1482.62">Domain Model DDD</text></g><!--entity PERS2--><g id="elem_PERS2"><path d="M256,2353 L297,2353 A3.75,3.75 0 0 1 299.5,2355.5 L306.5,2374 L388,2374 A2.5,2.5 0 0 1 390.5,2376.5 L390.5,2415.74 A2.5,2.5 0 0 1 388,2418.24 L256,2418.24 A2.5,2.5 0 0 1 253.5,2415.74 L253.5,2355.5 A2.5,2.5 0 0 1 256,2353 " fill="#F1F1F1" style="stroke:#181818;stroke-width:0.5;"/><line style="stroke:#181818;stroke-width:0.5;" x1="253.5" x2="306.5" y1="2374" y2="2374"/><text fill="#000000" font-family="sans-serif" font-size="20" lengthAdjust="spacing" textLength="107" x="263.5" y="2402.38">Persistence</text></g><!--entity ROUTE2--><g id="elem_ROUTE2"><path d="M428.5,2353 L469.5,2353 A3.75,3.75 0 0 1 472,2355.5 L479,2374 L517.5,2374 A2.5,2.5 0 0 1 520,2376.5 L520,2415.74 A2.5,2.5 0 0 1 517.5,2418.24 L428.5,2418.24 A2.5,2.5 0 0 1 426,2415.74 L426,2355.5 A2.5,2.5 0 0 1 428.5,2353 " fill="#F1F1F1" style="stroke:#181818;stroke-width:0.5;"/><line style="stroke:#181818;stroke-width:0.5;" x1="426" x2="479" y1="2374" y2="2374"/><text fill="#000000" font-family="sans-serif" font-size="20" lengthAdjust="spacing" textLength="64" x="436" y="2402.38">Routes</text></g><!--entity CTRL2--><g id="elem_CTRL2"><path d="M423,2161 L464,2161 A3.75,3.75 0 0 1 466.5,2163.5 L473.5,2182 L551,2182 A2.5,2.5 0 0 1 553.5,2184.5 L553.5,2223.74 A2.5,2.5 0 0 1 551,2226.24 L423,2226.24 A2.5,2.5 0 0 1 420.5,2223.74 L420.5,2163.5 A2.5,2.5 0 0 1 423,2161 " fill="#F1F1F1" style="stroke:#181818;stroke-width:0.5;"/><line style="stroke:#181818;stroke-width:0.5;" x1="420.5" x2="473.5" y1="2182" y2="2182"/><text fill="#000000" font-family="sans-serif" font-size="20" lengthAdjust="spacing" textLength="103" x="430.5" y="2210.38">Controllers</text></g><!--entity REPO2--><g id="elem_REPO2"><path d="M243,2161 L284,2161 A3.75,3.75 0 0 1 286.5,2163.5 L293.5,2182 L383,2182 A2.5,2.5 0 0 1 385.5,2184.5 L385.5,2223.74 A2.5,2.5 0 0 1 383,2226.24 L243,2226.24 A2.5,2.5 0 0 1 240.5,2223.74 L240.5,2163.5 A2.5,2.5 0 0 1 243,2161 " fill="#F1F1F1" style="stroke:#181818;stroke-width:0.5;"/><line style="stroke:#181818;stroke-width:0.5;" x1="240.5" x2="293.5" y1="2182" y2="2182"/><text fill="#000000" font-family="sans-serif" font-size="20" lengthAdjust="spacing" textLength="115" x="250.5" y="2210.38">Repositories</text></g><!--entity APP2--><g id="elem_APP2"><path d="M241.5,1969 L282.5,1969 A3.75,3.75 0 0 1 285,1971.5 L292,1990 L384.5,1990 A2.5,2.5 0 0 1 387,1992.5 L387,2031.74 A2.5,2.5 0 0 1 384.5,2034.24 L241.5,2034.24 A2.5,2.5 0 0 1 239,2031.74 L239,1971.5 A2.5,2.5 0 0 1 241.5,1969 " fill="#F1F1F1" style="stroke:#181818;stroke-width:0.5;"/><line style="stroke:#181818;stroke-width:0.5;" x1="239" x2="292" y1="1990" y2="1990"/><text fill="#000000" font-family="sans-serif" font-size="20" lengthAdjust="spacing" textLength="118" x="249" y="2018.38">App Services</text></g><!--entity AGG2--><g id="elem_AGG2"><path d="M85,1777 L126,1777 A3.75,3.75 0 0 1 128.5,1779.5 L135.5,1798 L217,1798 A2.5,2.5 0 0 1 219.5,1800.5 L219.5,1839.74 A2.5,2.5 0 0 1 217,1842.24 L85,1842.24 A2.5,2.5 0 0 1 82.5,1839.74 L82.5,1779.5 A2.5,2.5 0 0 1 85,1777 " fill="#F1F1F1" style="stroke:#181818;stroke-width:0.5;"/><line style="stroke:#181818;stroke-width:0.5;" x1="82.5" x2="135.5" y1="1798" y2="1798"/><text fill="#000000" font-family="sans-serif" font-size="20" lengthAdjust="spacing" textLength="107" x="92.5" y="1826.38">Aggregates</text></g><!--entity VO2--><g id="elem_VO2"><path d="M399,1777 L440,1777 A3.75,3.75 0 0 1 442.5,1779.5 L449.5,1798 L551,1798 A2.5,2.5 0 0 1 553.5,1800.5 L553.5,1839.74 A2.5,2.5 0 0 1 551,1842.24 L399,1842.24 A2.5,2.5 0 0 1 396.5,1839.74 L396.5,1779.5 A2.5,2.5 0 0 1 399,1777 " fill="#F1F1F1" style="stroke:#181818;stroke-width:0.5;"/><line style="stroke:#181818;stroke-width:0.5;" x1="396.5" x2="449.5" y1="1798" y2="1798"/><text fill="#000000" font-family="sans-serif" font-size="20" lengthAdjust="spacing" textLength="127" x="406.5" y="1826.38">Value Objects</text></g><!--entity SRV2--><g id="elem_SRV2"><path d="M257.5,1777 L298.5,1777 A3.75,3.75 0 0 1 301,1779.5 L308,1798 L358.5,1798 A2.5,2.5 0 0 1 361,1800.5 L361,1839.74 A2.5,2.5 0 0 1 358.5,1842.24 L257.5,1842.24 A2.5,2.5 0 0 1 255,1839.74 L255,1779.5 A2.5,2.5 0 0 1 257.5,1777 " fill="#F1F1F1" style="stroke:#181818;stroke-width:0.5;"/><line style="stroke:#181818;stroke-width:0.5;" x1="255" x2="308" y1="1798" y2="1798"/><text fill="#000000" font-family="sans-serif" font-size="20" lengthAdjust="spacing" textLength="76" x="265" y="1826.38">Services</text></g><!--entity API--><g id="elem_API"><ellipse cx="482" cy="14" fill="#F1F1F1" rx="8" ry="8" style="stroke:#181818;stroke-width:0.5;"/><text fill="#000000" font-family="sans-serif" font-size="20" lengthAdjust="spacing" textLength="70" x="447" y="52.38">MD API</text></g><!--link API to P1--><g id="link_API_P1"><path d="M482,22.68 C482,44.84 482,108.53 482,126.95 " fill="none" id="API-P1" style="stroke:#181818;stroke-width:1.0;"/></g><!--link ROUTE to P1--><g id="link_ROUTE_P1"><path d="M467.12,329.93 C471.64,270.37 479.69,164.41 481.59,139.4 " fill="none" id="ROUTE-P1" style="stroke:#181818;stroke-width:1.0;"/></g><!--link PERSISTENCE to P2--><g id="link_PERSISTENCE_P2"><path d="M656.63,329.61 C650.31,269.64 639.07,163.08 636.52,138.95 " fill="none" id="PERSISTENCE-P2" style="stroke:#181818;stroke-width:1.0;"/></g><!--link ROUTE to CTRL_API--><g id="link_ROUTE_CTRL_API"><path d="M444.23,414.36 C428.81,446.62 408.14,489.87 396.64,513.92 " fill="none" id="ROUTE-to-CTRL_API" style="stroke:#181818;stroke-width:1.0;"/><path d="M401.408,523.559 A9,9 0 0 0 386.1464 516.2663" fill="none" style="stroke:#181818;stroke-width:1.5;"/></g><!--link CTRL_API to CTRL--><g id="link_CTRL_API_CTRL"><path d="M391.07,541.64 C400.4,564.85 428.9,635.7 447.38,681.67 " fill="none" id="CTRL_API-CTRL" style="stroke:#181818;stroke-width:1.0;"/></g><!--link PERSISTENCE to PERSISTENCE_API--><g id="link_PERSISTENCE_PERSISTENCE_API"><path d="M689.61,414.36 C715.59,451.9 751.85,504.31 765.51,524.06 " fill="none" id="PERSISTENCE-PERSISTENCE_API" style="stroke:#181818;stroke-width:1.0;"/></g><!--reverse link PERSISTENCE_API to REPO--><g id="link_PERSISTENCE_API_REPO"><path d="M760.96,551.26 C743.89,580.58 708.78,640.91 685.05,681.67 " fill="none" id="PERSISTENCE_API-backto-REPO" style="stroke:#181818;stroke-width:1.0;"/><path d="M756.932,541.3575 A9,9 0 0 0 771.552 549.8637" fill="none" style="stroke:#181818;stroke-width:1.5;"/></g><!--link PERSISTENCE to DATA_API--><g id="link_PERSISTENCE_DATA_API"><path d="M638.89,414.36 C621.64,446.62 598.52,489.87 585.66,513.92 " fill="none" id="PERSISTENCE-to-DATA_API" style="stroke:#181818;stroke-width:1.0;"/><path d="M589.8693,523.9943 A9,9 0 0 0 574.9542 516.017" fill="none" style="stroke:#181818;stroke-width:1.5;"/></g><!--reverse link DATA_API to REPO--><g id="link_DATA_API_REPO"><path d="M584.11,552.04 C597.43,581.64 624.24,641.27 642.41,681.67 " fill="none" id="DATA_API-backto-REPO" style="stroke:#181818;stroke-width:1.0;"/><path d="M573.61,549.2968 A9,9 0 0 0 589.0356 542.3577" fill="none" style="stroke:#181818;stroke-width:1.5;"/></g><!--link DATA to DATA_API--><g id="link_DATA_DATA_API"><path d="M305.16,414.4 C323.86,428.24 345.68,442.94 367,454 C413.79,478.27 429.65,474.5 479,493 C506.16,503.18 537.22,515.85 556.72,523.93 " fill="none" id="DATA-to-DATA_API" style="stroke:#181818;stroke-width:1.0;"/><path d="M566.2345,518.7391 A9,9 0 0 0 559.7409 534.3574" fill="none" style="stroke:#181818;stroke-width:1.5;"/></g><!--link CTRL to SRV_API--><g id="link_CTRL_SRV_API"><path d="M464,766.36 C464,798.04 464,840.3 464,864.59 " fill="none" id="CTRL-to-SRV_API" style="stroke:#181818;stroke-width:1.0;"/><path d="M472.4572,871.4618 A9,9 0 0 0 455.5428 871.4618" fill="none" style="stroke:#181818;stroke-width:1.5;"/></g><!--reverse link SRV_API to SRV--><g id="link_SRV_API_SRV"><path d="M458.54,904.44 C449.73,934.17 432.16,993.45 420.25,1033.67 " fill="none" id="SRV_API-backto-SRV" style="stroke:#181818;stroke-width:1.0;"/><path d="M452.3266,895.6365 A9,9 0 0 0 468.5429 900.4458" fill="none" style="stroke:#181818;stroke-width:1.5;"/></g><!--reverse link DTO_API to SRV--><g id="link_DTO_API_SRV"><path d="M307.14,903.26 C324.36,932.58 359.79,992.91 383.73,1033.67 " fill="none" id="DTO_API-backto-SRV" style="stroke:#181818;stroke-width:1.0;"/><path d="M296.5201,901.882 A9,9 0 0 0 311.1129 893.3293" fill="none" style="stroke:#181818;stroke-width:1.5;"/></g><!--link CTRL to DTO_API--><g id="link_CTRL_DTO_API"><path d="M420.77,766.21 C407.38,778.97 392.58,793.07 379,806 C356.19,827.72 329.79,852.82 313.24,868.56 " fill="none" id="CTRL-to-DTO_API" style="stroke:#181818;stroke-width:1.0;"/><path d="M314.3083,879.2181 A9,9 0 0 0 302.6534 866.9599" fill="none" style="stroke:#181818;stroke-width:1.5;"/></g><!--link DTO to DTO_API--><g id="link_DTO_DTO_API"><path d="M265.19,766.36 C273.83,798.33 285.39,841.08 291.93,865.26 " fill="none" id="DTO-to-DTO_API" style="stroke:#181818;stroke-width:1.0;"/><path d="M301.8171,869.4161 A9,9 0 0 0 285.492 873.842" fill="none" style="stroke:#181818;stroke-width:1.5;"/></g><!--link REPO to REPO_API--><g id="link_REPO_REPO_API"><path d="M664.12,766.36 C666.95,803.9 670.91,856.31 672.4,876.06 " fill="none" id="REPO-REPO_API" style="stroke:#181818;stroke-width:1.0;"/></g><!--reverse link REPO_API to SRV--><g id="link_REPO_API_SRV"><path d="M653.86,893.48 C623.8,905.73 564.36,931.91 520,964 C492.16,984.14 464.7,1011.21 443.94,1033.57 " fill="none" id="REPO_API-backto-SRV" style="stroke:#181818;stroke-width:1.0;"/><path d="M656.7746,883.2177 A9,9 0 0 0 663.0482 898.9257" fill="none" style="stroke:#181818;stroke-width:1.5;"/></g><!--link SRV to MODEL_API--><g id="link_SRV_MODEL_API"><path d="M408,1118.36 C408,1150.04 408,1192.3 408,1216.59 " fill="none" id="SRV-to-MODEL_API" style="stroke:#181818;stroke-width:1.0;"/><path d="M416.4572,1223.4618 A9,9 0 0 0 399.5428 1223.4618" fill="none" style="stroke:#181818;stroke-width:1.5;"/></g><!--link REPO to MODEL_API--><g id="link_REPO_MODEL_API"><path d="M638.27,766.28 C626.81,788.89 613.74,817.77 606,845 C567.68,979.85 648.38,1043.85 567,1158 C533.14,1205.49 462.15,1225.43 427.66,1232.57 " fill="none" id="REPO-to-MODEL_API" style="stroke:#181818;stroke-width:1.0;"/><path d="M422.8258,1242.1022 A9,9 0 0 0 419.662 1225.4863" fill="none" style="stroke:#181818;stroke-width:1.5;"/></g><!--link MODEL_API to MODEL--><g id="link_MODEL_API_MODEL"><path d="M406.86,1245.98 C403.04,1272.74 390.49,1360.59 382.93,1413.5 " fill="none" id="MODEL_API-MODEL" style="stroke:#181818;stroke-width:1.0;"/></g><!--reverse link CTRL2 to ROUTE2--><g id="link_CTRL2_ROUTE2"><path d="M484.19,2232.68 C481.59,2267.88 477.79,2319.54 475.35,2352.59 " fill="none" id="CTRL2-backto-ROUTE2" style="stroke:#181818;stroke-width:1.0;stroke-dasharray:7.0,7.0;"/><polygon fill="#181818" points="484.55,2227.81,479.8924,2236.488,484.1785,2232.7962,487.8703,2237.0823,484.55,2227.81" style="stroke:#181818;stroke-width:1.0;"/></g><!--reverse link PERS2 to REPO2--><g id="link_PERS2_REPO2"><path d="M320.19,2346.21 C318.52,2310.98 316.07,2259.32 314.51,2226.3 " fill="none" id="PERS2-backto-REPO2" style="stroke:#181818;stroke-width:1.0;stroke-dasharray:7.0,7.0;"/><polygon fill="#181818" points="320.42,2351.08,324.0048,2341.9067,320.1917,2346.0852,316.0132,2342.2721,320.42,2351.08" style="stroke:#181818;stroke-width:1.0;"/></g><!--reverse link APP2 to CTRL2--><g id="link_APP2_CTRL2"><path d="M351.66,2038.83 C367.9,2054.51 386.75,2073.29 403,2091 C423.73,2113.58 445.77,2140.33 462.07,2160.7 " fill="none" id="APP2-backto-CTRL2" style="stroke:#181818;stroke-width:1.0;stroke-dasharray:7.0,7.0;"/><polygon fill="#181818" points="348.25,2035.54,351.9709,2044.659,351.8564,2039.0033,357.5121,2038.8888,348.25,2035.54" style="stroke:#181818;stroke-width:1.0;"/></g><!--reverse link APP2 to REPO2--><g id="link_APP2_REPO2"><path d="M313,2040.68 C313,2075.88 313,2127.54 313,2160.59 " fill="none" id="APP2-backto-REPO2" style="stroke:#181818;stroke-width:1.0;stroke-dasharray:7.0,7.0;"/><polygon fill="#181818" points="313,2035.82,309,2044.82,313,2040.82,317,2044.82,313,2035.82" style="stroke:#181818;stroke-width:1.0;"/></g><!--reverse link AGG2 to APP2--><g id="link_AGG2_APP2"><path d="M186.78,1846.48 C202.03,1862.25 219.78,1881.19 235,1899 C254.35,1921.64 274.81,1948.39 289.92,1968.74 " fill="none" id="AGG2-backto-APP2" style="stroke:#181818;stroke-width:1.0;stroke-dasharray:7.0,7.0;"/><polygon fill="#181818" points="183.6,1843.21,186.9862,1852.4584,187.0778,1846.8023,192.7339,1846.8939,183.6,1843.21" style="stroke:#181818;stroke-width:1.0;"/></g><!--reverse link VO2 to APP2--><g id="link_VO2_APP2"><path d="M443.93,1846.94 C413.9,1882.16 368.86,1934.99 340.2,1968.59 " fill="none" id="VO2-backto-APP2" style="stroke:#181818;stroke-width:1.0;stroke-dasharray:7.0,7.0;"/><polygon fill="#181818" points="446.9,1843.45,438.0151,1847.6994,443.6543,1847.2533,444.1004,1852.8926,446.9,1843.45" style="stroke:#181818;stroke-width:1.0;"/></g><!--reverse link SRV2 to APP2--><g id="link_SRV2_APP2"><path d="M309,1848.68 C309.93,1883.88 311.29,1935.54 312.16,1968.59 " fill="none" id="SRV2-backto-APP2" style="stroke:#181818;stroke-width:1.0;stroke-dasharray:7.0,7.0;"/><polygon fill="#181818" points="308.88,1843.81,305.1127,1852.9098,309.0085,1848.8083,313.11,1852.7042,308.88,1843.81" style="stroke:#181818;stroke-width:1.0;"/></g><!--reverse link IA2 to I2--><g id="link_IA2_I2"><path d="M212.0445,2250.2107 C212.1507,2250.4351 212.2583,2250.6586 212.3673,2250.8813 C212.5852,2251.3268 212.8088,2251.7691 213.0381,2252.2078 C213.9554,2253.9627 214.9643,2255.6614 216.0735,2257.2859 C218.2919,2260.535 220.9113,2263.4875 224,2266 C277.87,2309.81 483.8,2237.21 536,2283 C540.245,2286.7238 543.733,2291.0678 546.5859,2295.8232 C546.9426,2296.4176 547.2893,2297.0184 547.6263,2297.6253 C547.7948,2297.9287 547.9609,2298.2337 548.1246,2298.54 " fill="none" id="IA2-backto-I2" style="stroke:#181818;stroke-width:1.0;stroke-dasharray:7.0,7.0;"/><polygon fill="#181818" points="212.0445,2250.2107,212.2806,2260.0568,214.1841,2254.7298,219.5111,2256.6333,212.0445,2250.2107" style="stroke:#181818;stroke-width:1.0;"/></g><!--reverse link UC2 to IA2--><g id="link_UC2_IA2"><path d="M204.2952,2058.6619 C204.2969,2058.9933 204.2987,2059.3255 204.3005,2059.6584 C204.3075,2060.9901 204.3145,2062.3337 204.3217,2063.6878 C204.3788,2074.5206 204.4394,2086.0281 204.5,2097.535 C204.5152,2100.4117 204.5303,2103.2884 204.5454,2106.1545 C204.5464,2106.3336 204.5473,2106.5127 204.5482,2106.6918 " fill="none" id="UC2-backto-IA2" style="stroke:#181818;stroke-width:1.0;stroke-dasharray:7.0,7.0;"/><polygon fill="#181818" points="204.2952,2058.6619,200.3427,2067.6828,204.3215,2063.6618,208.3426,2067.6407,204.2952,2058.6619" style="stroke:#181818;stroke-width:1.0;"/></g><!--reverse link E2 to UC2--><g id="link_E2_UC2"><path d="M58.2476,1866.3333 C58.3411,1866.572 58.4354,1866.8105 58.5305,1867.0486 C58.7207,1867.5249 58.914,1867.9998 59.1104,1868.4732 C59.5033,1869.4199 59.9088,1870.3603 60.3273,1871.2929 C62.0014,1875.0233 63.8837,1878.6275 66,1882 C76.5775,1898.85 90.3063,1914.5831 104.9947,1928.7286 C106.8307,1930.4968 108.6818,1932.2402 110.5436,1933.9578 " fill="none" id="E2-backto-UC2" style="stroke:#181818;stroke-width:1.0;stroke-dasharray:7.0,7.0;"/><polygon fill="#181818" points="58.2476,1866.3333,57.8061,1876.1722,60.0714,1870.9888,65.2549,1873.2541,58.2476,1866.3333" style="stroke:#181818;stroke-width:1.0;"/></g><!--reverse link FDL to I2--><g id="link_FDL_I2"><path d="M771.7358,438.28 C771.8195,438.5335 771.9051,438.7861 771.9928,439.0379 C772.1681,439.5415 772.3514,440.0416 772.543,440.5379 C772.9262,441.5305 773.3424,442.508 773.7934,443.468 C775.5977,447.3081 777.96,450.8688 781,454 C796.68,470.15 864.39,447.97 882,462 C907.51,482.32 904,499.39 904,532 C904,532 904,532 904,2194.5 C904,2282.115 818.1075,2329.56 731.5437,2355.1288 C688.2619,2367.9131 644.8122,2375.2284 611.8473,2379.3614 C595.3649,2381.4279 581.5037,2382.6988 571.5953,2383.4599 C569.1182,2383.6502 566.8881,2383.8087 564.9259,2383.9397 C564.4354,2383.9725 563.9616,2384.0035 563.5048,2384.0329 " fill="none" id="FDL-backto-I2" style="stroke:#181818;stroke-width:1.0;stroke-dasharray:7.0,7.0;"/><polygon fill="#181818" points="771.7358,438.28,770.7584,448.0802,773.303,443.028,778.3552,445.5727,771.7358,438.28" style="stroke:#181818;stroke-width:1.0;"/><text fill="#000000" font-family="sans-serif" font-size="20" lengthAdjust="spacing" textLength="102" x="905" y="1244.88">«manifest»</text></g><!--reverse link IAL to IA2--><g id="link_IAL_IA2"><path d="M777,790.5753 C777,790.8291 777,791.0834 777,791.338 C777,795.4123 777,799.5925 777,803.8539 C777,812.3768 777,821.2245 777,830.1997 C777,848.15 777,866.61 777,884 C777,884 777,884 777,2002.5 C777,2087.12 486.77,2062.04 403,2074 C363.44,2079.65 253.5,2064.05 224,2091 C219.83,2094.8088 216.3986,2099.217 213.5871,2104.0196 C213.2357,2104.62 212.894,2105.2264 212.5617,2105.8387 C212.3955,2106.1448 212.2318,2106.4524 212.0703,2106.7613 " fill="none" id="IAL-backto-IA2" style="stroke:#181818;stroke-width:1.0;stroke-dasharray:7.0,7.0;"/><polygon fill="#181818" points="777,790.5753,773,799.5753,777,795.5753,781,799.5753,777,790.5753" style="stroke:#181818;stroke-width:1.0;"/><text fill="#000000" font-family="sans-serif" font-size="20" lengthAdjust="spacing" textLength="102" x="778" y="1329.38">«manifest»</text></g><!--reverse link ABR to UC2--><g id="link_ABR_UC2"><path d="M559.2376,1087.5571 C559.5965,1088.0386 559.9648,1088.535 560.3418,1089.046 C561.0958,1090.0681 561.8849,1091.1488 562.7052,1092.2855 C569.2672,1101.3791 577.8206,1114.0594 586.3087,1129.0313 C603.285,1158.975 620,1198.085 620,1236 C620,1236 620,1236 620,1810.5 C620,1849.28 603.94,1863.25 570,1882 C536.21,1900.67 252.09,1873.62 223,1899 C218.745,1902.7125 215.2495,1907.0481 212.3911,1911.7973 C212.0338,1912.391 211.6864,1912.9911 211.3488,1913.5973 C211.18,1913.9003 211.0136,1914.2049 210.8496,1914.511 C210.7676,1914.664 210.6862,1914.8174 210.6054,1914.9712 " fill="none" id="ABR-backto-UC2" style="stroke:#181818;stroke-width:1.0;stroke-dasharray:7.0,7.0;"/><polygon fill="#181818" points="559.2376,1087.5571,561.4101,1097.1634,562.2262,1091.5657,567.8238,1092.3817,559.2376,1087.5571" style="stroke:#181818;stroke-width:1.0;"/><text fill="#000000" font-family="sans-serif" font-size="20" lengthAdjust="spacing" textLength="102" x="621" y="1463.88">«manifest»</text></g><!--reverse link EBR to E2--><g id="link_EBR_E2"><path d="M219.8906,1461.128 C219.7652,1461.1941 219.6385,1461.261 219.5105,1461.3287 C219.2545,1461.4641 218.9934,1461.6025 218.7271,1461.744 C217.6623,1462.31 216.5162,1462.9252 215.2947,1463.5887 C212.8516,1464.9156 210.1065,1466.4359 207.1045,1468.1428 C195.0966,1474.9706 178.9781,1484.7862 161.6363,1497.1725 C126.9525,1521.945 87.375,1557 66,1599 C55.565,1619.505 49.115,1642.6056 45.3206,1665.7825 C43.4234,1677.3709 42.1902,1688.9784 41.4546,1700.2901 C41.0868,1705.9459 40.8435,1711.5278 40.7038,1716.9963 C40.6689,1718.3634 40.6405,1719.7235 40.6182,1721.0758 C40.6126,1721.4139 40.6074,1721.7515 40.6026,1722.0886 " fill="none" id="EBR-backto-E2" style="stroke:#181818;stroke-width:1.0;stroke-dasharray:7.0,7.0;"/><polygon fill="#181818" points="219.8906,1461.128,210.0639,1461.7881,215.4679,1463.4604,213.7957,1468.8644,219.8906,1461.128" style="stroke:#181818;stroke-width:1.0;"/><text fill="#000000" font-family="sans-serif" font-size="20" lengthAdjust="spacing" textLength="102" x="90" y="1584.38">«manifest»</text></g><!--SRC=[ZLLDRzim3BtxLn0fi6M7j9snGp4K1LpRAG8qI-2alGvQeWHQ7SkGv0xTqFy-Ih9i-MDTSqXBwb6a-FWO-SIAaWXooldkYUvXJm-aojMS5sh3VbC8BuE05OgA0zbHc2mJYDQB2H2f_mR1ZfzANj12cQCbASYHdj0qY6MoXElh1d9pWvPyaOgUO1f_-OJsdm2Wv4An0YPWOjQVFTUQ2iaGNs1gbtOT1eXOj2N5MAhWUKv5WuctsVrtNLy7c115OCdtD6-0IRID353VUU3v7Y-PpB4Rz1SNJn8-G2BOCrO1z-I52XCpJ-xXxEfoZXzJFu3NX8nNMFdH0BFLmpRjDS06lFR3l8VQHwRPPh7Pfj_YVr_mgclsxcYVrpnj9FQr5xHTMVHsDGhkTZ0gIzXGySnsLDeUHXlOP8yZlSRx703_7m8oMl86aQNh4OX75MAMgoGT8NKm8WZrkcV9RRbj8wCzALMNsKLKCtjrEMIs7RDcnDx7hNwfP8gB5piL-DQtENMrOhTpjYEAyG9kAyaAAZ6yogcq-hlDu4pNEbQj7ripPeAGhFSbJtMZIi4a7SkTsjpnQEw4dmYgrzAN98dT1Pg-Dr9ZSgGAPZEz0G8hdPcrV35eJzYUJrkf6q9cLJbhNVt0tbWO9dJ4j7y4lT1fioZ0ZsgTHcnTN5qG-fn0TEzjuD3ZDD84EOSMac_N-MUjPjfBd0kJ6oUw6jMumhi-ouhfckSDFkhM3p__N_VXE_PzFM6BuY28LABQgKfG8x-mdeWQuKkxtecXVwvtBUuXjsd3_WWFjLwhl9UdLRPqokxcSG9cTJPiPFYMMDsAl7X0zSG4lvp75F0GzmhexDNwjtKTZYYIAIpX8kQ2NbYHMJ4EhZiU1JqIvIwxkmkX0tWaUKLXzUCdtIcBULnrdZpfL8F353gHsbR3ULMUtzIjClseFPOauwyzvYa-n3ZqbxEnFD_MfNYcIHuid8di1Pf1Qs4h0zrEQwK-KFzCVyK1F9627QZ4QVJYzARl7RRNwCNQEsnUd0xF_W80]--></g></svg>