<?xml version="1.0" encoding="UTF-8" standalone="no"?><svg xmlns="http://www.w3.org/2000/svg" xmlns:xlink="http://www.w3.org/1999/xlink" contentStyleType="text/css" height="2356px" preserveAspectRatio="none" style="width:1079px;height:2356px;background:#FFFFFF;" version="1.1" viewBox="0 0 1079 2356" width="1079px" zoomAndPan="magnify"><defs/><g><!--cluster MDM--><g id="cluster_MDM"><rect fill="none" height="1349" rx="2.5" ry="2.5" style="stroke:#181818;stroke-width:1.0;" width="929" x="144" y="129"/><rect fill="none" height="10" style="stroke:#181818;stroke-width:1.0;" width="15" x="1053" y="134"/><rect fill="none" height="2" style="stroke:#181818;stroke-width:1.0;" width="4" x="1051" y="136"/><rect fill="none" height="2" style="stroke:#181818;stroke-width:1.0;" width="4" x="1051" y="140"/><text fill="#000000" font-family="sans-serif" font-size="20" font-style="italic" lengthAdjust="spacing" textLength="138" x="539.5" y="160.5645">«component»</text><text fill="#000000" font-family="sans-serif" font-size="20" font-style="italic" lengthAdjust="spacing" textLength="168" x="524.5" y="183.8457">«container (C4)»</text><text fill="#000000" font-family="sans-serif" font-size="20" font-weight="bold" lengthAdjust="spacing" textLength="193" x="512" y="207.127">MD Management</text></g><!--cluster FDL--><g id="cluster_FDL"><path d="M364.5,272 L690.5,272 A3.75,3.75 0 0 1 693,274.5 L700,301.2813 L817.5,301.2813 A2.5,2.5 0 0 1 820,303.7813 L820,420.5 A2.5,2.5 0 0 1 817.5,423 L364.5,423 A2.5,2.5 0 0 1 362,420.5 L362,274.5 A2.5,2.5 0 0 1 364.5,272 " fill="#80FFFF" style="stroke:#000000;stroke-width:1.5;"/><line style="stroke:#000000;stroke-width:1.5;" x1="362" x2="700" y1="301.2813" y2="301.2813"/><text fill="#000000" font-family="sans-serif" font-size="20" font-weight="bold" lengthAdjust="spacing" textLength="325" x="366" y="292.5645">Frameworks &amp; Drivers Layer</text></g><!--cluster IAL--><g id="cluster_IAL"><path d="M364.5,605 L650.5,605 A3.75,3.75 0 0 1 653,607.5 L660,634.2813 L817.5,634.2813 A2.5,2.5 0 0 1 820,636.7813 L820,753.5 A2.5,2.5 0 0 1 817.5,756 L364.5,756 A2.5,2.5 0 0 1 362,753.5 L362,607.5 A2.5,2.5 0 0 1 364.5,605 " fill="#80FF80" style="stroke:#000000;stroke-width:1.5;"/><line style="stroke:#000000;stroke-width:1.5;" x1="362" x2="660" y1="634.2813" y2="634.2813"/><text fill="#000000" font-family="sans-serif" font-size="20" font-weight="bold" lengthAdjust="spacing" textLength="285" x="366" y="625.5645">Interface Adapters Layer</text></g><!--cluster ABR--><g id="cluster_ABR"><path d="M267.5,938 L572.5,938 A3.75,3.75 0 0 1 575,940.5 L582,967.2813 L582.5,967.2813 A2.5,2.5 0 0 1 585,969.7813 L585,1086.5 A2.5,2.5 0 0 1 582.5,1089 L267.5,1089 A2.5,2.5 0 0 1 265,1086.5 L265,940.5 A2.5,2.5 0 0 1 267.5,938 " fill="#FF8080" style="stroke:#000000;stroke-width:1.5;"/><line style="stroke:#000000;stroke-width:1.5;" x1="265" x2="582" y1="967.2813" y2="967.2813"/><text fill="#000000" font-family="sans-serif" font-size="20" font-weight="bold" lengthAdjust="spacing" textLength="304" x="269" y="958.5645">Application Business Rules</text></g><!--cluster EBR--><g id="cluster_EBR"><path d="M221.5,1295 L517.5,1295 A3.75,3.75 0 0 1 520,1297.5 L527,1324.2813 L527.5,1324.2813 A2.5,2.5 0 0 1 530,1326.7813 L530,1443.5 A2.5,2.5 0 0 1 527.5,1446 L221.5,1446 A2.5,2.5 0 0 1 219,1443.5 L219,1297.5 A2.5,2.5 0 0 1 221.5,1295 " fill="#FFC080" style="stroke:#000000;stroke-width:1.5;"/><line style="stroke:#000000;stroke-width:1.5;" x1="219" x2="527" y1="1324.2813" y2="1324.2813"/><text fill="#000000" font-family="sans-serif" font-size="20" font-weight="bold" lengthAdjust="spacing" textLength="295" x="223" y="1315.5645">Enterprise Business Rules</text></g><!--cluster MDM2--><g id="cluster_MDM2"><rect fill="none" height="823" rx="2.5" ry="2.5" style="stroke:#181818;stroke-width:1.0;" width="628" x="7" y="1527"/><rect fill="none" height="10" style="stroke:#181818;stroke-width:1.0;" width="15" x="615" y="1532"/><rect fill="none" height="2" style="stroke:#181818;stroke-width:1.0;" width="4" x="613" y="1534"/><rect fill="none" height="2" style="stroke:#181818;stroke-width:1.0;" width="4" x="613" y="1538"/><text fill="#000000" font-family="sans-serif" font-size="20" font-style="italic" lengthAdjust="spacing" textLength="138" x="252" y="1558.5645">«component»</text><text fill="#000000" font-family="sans-serif" font-size="20" font-style="italic" lengthAdjust="spacing" textLength="168" x="237" y="1581.8457">«container (C4)»</text><text fill="#000000" font-family="sans-serif" font-size="20" font-weight="bold" lengthAdjust="spacing" textLength="193" x="224.5" y="1605.127">MD Management</text></g><!--cluster I2--><g id="cluster_I2"><path d="M243.5,2183 L404.5,2183 A3.75,3.75 0 0 1 407,2185.5 L414,2212.2813 L584.5,2212.2813 A2.5,2.5 0 0 1 587,2214.7813 L587,2315.5 A2.5,2.5 0 0 1 584.5,2318 L243.5,2318 A2.5,2.5 0 0 1 241,2315.5 L241,2185.5 A2.5,2.5 0 0 1 243.5,2183 " fill="none" style="stroke:#000000;stroke-width:1.5;"/><line style="stroke:#000000;stroke-width:1.5;" x1="241" x2="414" y1="2212.2813" y2="2212.2813"/><text fill="#000000" font-family="sans-serif" font-size="20" font-weight="bold" lengthAdjust="spacing" textLength="160" x="245" y="2203.5645">Infrastructure</text></g><!--cluster IA2--><g id="cluster_IA2"><path d="M210.5,1999 L425.5,1999 A3.75,3.75 0 0 1 428,2001.5 L435,2028.2813 L600.5,2028.2813 A2.5,2.5 0 0 1 603,2030.7813 L603,2131.5 A2.5,2.5 0 0 1 600.5,2134 L210.5,2134 A2.5,2.5 0 0 1 208,2131.5 L208,2001.5 A2.5,2.5 0 0 1 210.5,1999 " fill="none" style="stroke:#000000;stroke-width:1.5;"/><line style="stroke:#000000;stroke-width:1.5;" x1="208" x2="435" y1="2028.2813" y2="2028.2813"/><text fill="#000000" font-family="sans-serif" font-size="20" font-weight="bold" lengthAdjust="spacing" textLength="214" x="212" y="2019.5645">Interface Adapters</text></g><!--cluster UC2--><g id="cluster_UC2"><path d="M93.5,1815 L539.5,1815 A3.75,3.75 0 0 1 542,1817.5 L549,1844.2813 L549.5,1844.2813 A2.5,2.5 0 0 1 552,1846.7813 L552,1947.5 A2.5,2.5 0 0 1 549.5,1950 L93.5,1950 A2.5,2.5 0 0 1 91,1947.5 L91,1817.5 A2.5,2.5 0 0 1 93.5,1815 " fill="none" style="stroke:#000000;stroke-width:1.5;"/><line style="stroke:#000000;stroke-width:1.5;" x1="91" x2="549" y1="1844.2813" y2="1844.2813"/><text fill="#000000" font-family="sans-serif" font-size="20" font-weight="bold" lengthAdjust="spacing" textLength="445" x="95" y="1835.5645">Application Services/Use Case Services</text></g><!--cluster E2--><g id="cluster_E2"><path d="M41.5,1631 L284.5,1631 A3.75,3.75 0 0 1 287,1633.5 L294,1660.2813 L600.5,1660.2813 A2.5,2.5 0 0 1 603,1662.7813 L603,1763.5 A2.5,2.5 0 0 1 600.5,1766 L41.5,1766 A2.5,2.5 0 0 1 39,1763.5 L39,1633.5 A2.5,2.5 0 0 1 41.5,1631 " fill="none" style="stroke:#000000;stroke-width:1.5;"/><line style="stroke:#000000;stroke-width:1.5;" x1="39" x2="294" y1="1660.2813" y2="1660.2813"/><text fill="#000000" font-family="sans-serif" font-size="20" font-weight="bold" lengthAdjust="spacing" textLength="242" x="43" y="1651.5645">Entities/Core/Domain</text></g><text fill="#000000" font-family="sans-serif" font-size="20" lengthAdjust="spacing" textLength="6" x="499" y="106.2832"> </text><rect fill="#F1F1F1" height="12" style="stroke:#181818;stroke-width:1.5;" width="12" x="496" y="123"/><text fill="#000000" font-family="sans-serif" font-size="20" lengthAdjust="spacing" textLength="152" x="587.5" y="106.2832">Persistence API</text><rect fill="#F1F1F1" height="12" style="stroke:#181818;stroke-width:1.5;" width="12" x="657.5" y="123"/><!--entity CTRL_API--><g id="elem_CTRL_API"><ellipse cx="416" cy="514" fill="#F1F1F1" rx="8" ry="8" style="stroke:#181818;stroke-width:0.5;"/><text fill="#000000" font-family="sans-serif" font-size="20" lengthAdjust="spacing" textLength="137" x="347.5" y="549.5645">Controller API</text></g><!--entity DATA_API--><g id="elem_DATA_API"><ellipse cx="610" cy="514" fill="#F1F1F1" rx="8" ry="8" style="stroke:#181818;stroke-width:0.5;"/><text fill="#000000" font-family="sans-serif" font-size="20" lengthAdjust="spacing" textLength="151" x="534.5" y="549.5645">Data Model API</text></g><!--entity SRV_API--><g id="elem_SRV_API"><ellipse cx="475" cy="847" fill="#F1F1F1" rx="8" ry="8" style="stroke:#181818;stroke-width:0.5;"/><text fill="#000000" font-family="sans-serif" font-size="20" lengthAdjust="spacing" textLength="167" x="391.5" y="882.5645">App Services API</text></g><!--entity DTO_API--><g id="elem_DTO_API"><ellipse cx="301" cy="847" fill="#F1F1F1" rx="8" ry="8" style="stroke:#181818;stroke-width:0.5;"/><text fill="#000000" font-family="sans-serif" font-size="20" lengthAdjust="spacing" textLength="81" x="260.5" y="882.5645">DTO API</text></g><!--entity REPO_API--><g id="elem_REPO_API"><ellipse cx="699" cy="847" fill="#F1F1F1" rx="8" ry="8" style="stroke:#181818;stroke-width:0.5;"/><text fill="#000000" font-family="sans-serif" font-size="20" lengthAdjust="spacing" textLength="89" x="654.5" y="882.5645">Repo API</text></g><!--entity MODEL_API--><g id="elem_MODEL_API"><ellipse cx="423" cy="1180" fill="#F1F1F1" rx="8" ry="8" style="stroke:#181818;stroke-width:0.5;"/><text fill="#000000" font-family="sans-serif" font-size="20" lengthAdjust="spacing" textLength="98" x="374" y="1215.5645">Model API</text></g><!--entity PERSISTENCE_API--><g id="elem_PERSISTENCE_API"><ellipse cx="812" cy="514" fill="#F1F1F1" rx="8" ry="8" style="stroke:#181818;stroke-width:0.5;"/><text fill="#000000" font-family="sans-serif" font-size="20" lengthAdjust="spacing" textLength="152" x="736" y="549.5645">Persistence API</text></g><!--entity ROUTE--><g id="elem_ROUTE"><rect fill="#F1F1F1" height="76.5625" rx="2.5" ry="2.5" style="stroke:#181818;stroke-width:0.5;" width="178" x="386" y="322"/><rect fill="#F1F1F1" height="10" style="stroke:#181818;stroke-width:0.5;" width="15" x="544" y="327"/><rect fill="#F1F1F1" height="2" style="stroke:#181818;stroke-width:0.5;" width="4" x="542" y="329"/><rect fill="#F1F1F1" height="2" style="stroke:#181818;stroke-width:0.5;" width="4" x="542" y="333"/><text fill="#000000" font-family="sans-serif" font-size="20" font-style="italic" lengthAdjust="spacing" textLength="138" x="401" y="360.5645">«component»</text><text fill="#000000" font-family="sans-serif" font-size="20" lengthAdjust="spacing" textLength="79" x="430.5" y="383.8457">Routing</text></g><!--entity PERSISTENCE--><g id="elem_PERSISTENCE"><rect fill="#F1F1F1" height="76.5625" rx="2.5" ry="2.5" style="stroke:#181818;stroke-width:0.5;" width="178" x="599" y="322"/><rect fill="#F1F1F1" height="10" style="stroke:#181818;stroke-width:0.5;" width="15" x="757" y="327"/><rect fill="#F1F1F1" height="2" style="stroke:#181818;stroke-width:0.5;" width="4" x="755" y="329"/><rect fill="#F1F1F1" height="2" style="stroke:#181818;stroke-width:0.5;" width="4" x="755" y="333"/><text fill="#000000" font-family="sans-serif" font-size="20" font-style="italic" lengthAdjust="spacing" textLength="138" x="614" y="360.5645">«component»</text><text fill="#000000" font-family="sans-serif" font-size="20" lengthAdjust="spacing" textLength="114" x="626" y="383.8457">Persistence</text></g><!--entity DATA--><g id="elem_DATA"><rect fill="#F1F1F1" height="76.5625" rx="2.5" ry="2.5" style="stroke:#181818;stroke-width:0.5;" width="178" x="160" y="322"/><rect fill="#F1F1F1" height="10" style="stroke:#181818;stroke-width:0.5;" width="15" x="318" y="327"/><rect fill="#F1F1F1" height="2" style="stroke:#181818;stroke-width:0.5;" width="4" x="316" y="329"/><rect fill="#F1F1F1" height="2" style="stroke:#181818;stroke-width:0.5;" width="4" x="316" y="333"/><text fill="#000000" font-family="sans-serif" font-size="20" font-style="italic" lengthAdjust="spacing" textLength="138" x="175" y="360.5645">«component»</text><text fill="#000000" font-family="sans-serif" font-size="20" lengthAdjust="spacing" textLength="113" x="187.5" y="383.8457">Data Model</text></g><!--entity DTO--><g id="elem_DTO"><rect fill="#F1F1F1" height="76.5625" rx="2.5" ry="2.5" style="stroke:#181818;stroke-width:0.5;" width="178" x="160" y="655"/><rect fill="#F1F1F1" height="10" style="stroke:#181818;stroke-width:0.5;" width="15" x="318" y="660"/><rect fill="#F1F1F1" height="2" style="stroke:#181818;stroke-width:0.5;" width="4" x="316" y="662"/><rect fill="#F1F1F1" height="2" style="stroke:#181818;stroke-width:0.5;" width="4" x="316" y="666"/><text fill="#000000" font-family="sans-serif" font-size="20" font-style="italic" lengthAdjust="spacing" textLength="138" x="175" y="693.5645">«component»</text><text fill="#000000" font-family="sans-serif" font-size="20" lengthAdjust="spacing" textLength="43" x="222.5" y="716.8457">DTO</text></g><!--entity CTRL--><g id="elem_CTRL"><rect fill="#F1F1F1" height="76.5625" rx="2.5" ry="2.5" style="stroke:#181818;stroke-width:0.5;" width="178" x="386" y="655"/><rect fill="#F1F1F1" height="10" style="stroke:#181818;stroke-width:0.5;" width="15" x="544" y="660"/><rect fill="#F1F1F1" height="2" style="stroke:#181818;stroke-width:0.5;" width="4" x="542" y="662"/><rect fill="#F1F1F1" height="2" style="stroke:#181818;stroke-width:0.5;" width="4" x="542" y="666"/><text fill="#000000" font-family="sans-serif" font-size="20" font-style="italic" lengthAdjust="spacing" textLength="138" x="401" y="693.5645">«component»</text><text fill="#000000" font-family="sans-serif" font-size="20" lengthAdjust="spacing" textLength="99" x="420.5" y="716.8457">Controller</text></g><!--entity REPO--><g id="elem_REPO"><rect fill="#F1F1F1" height="76.5625" rx="2.5" ry="2.5" style="stroke:#181818;stroke-width:0.5;" width="178" x="599" y="655"/><rect fill="#F1F1F1" height="10" style="stroke:#181818;stroke-width:0.5;" width="15" x="757" y="660"/><rect fill="#F1F1F1" height="2" style="stroke:#181818;stroke-width:0.5;" width="4" x="755" y="662"/><rect fill="#F1F1F1" height="2" style="stroke:#181818;stroke-width:0.5;" width="4" x="755" y="666"/><text fill="#000000" font-family="sans-serif" font-size="20" font-style="italic" lengthAdjust="spacing" textLength="138" x="614" y="693.5645">«component»</text><text fill="#000000" font-family="sans-serif" font-size="20" lengthAdjust="spacing" textLength="106" x="630" y="716.8457">Repository</text></g><!--entity SRV--><g id="elem_SRV"><rect fill="#F1F1F1" height="76.5625" rx="2.5" ry="2.5" style="stroke:#181818;stroke-width:0.5;" width="233" x="306.5" y="988"/><rect fill="#F1F1F1" height="10" style="stroke:#181818;stroke-width:0.5;" width="15" x="519.5" y="993"/><rect fill="#F1F1F1" height="2" style="stroke:#181818;stroke-width:0.5;" width="4" x="517.5" y="995"/><rect fill="#F1F1F1" height="2" style="stroke:#181818;stroke-width:0.5;" width="4" x="517.5" y="999"/><text fill="#000000" font-family="sans-serif" font-size="20" font-style="italic" lengthAdjust="spacing" textLength="138" x="349" y="1026.5645">«component»</text><text fill="#000000" font-family="sans-serif" font-size="20" lengthAdjust="spacing" textLength="193" x="321.5" y="1049.8457">Application Service</text></g><!--entity MODEL--><g id="elem_MODEL"><rect fill="#F1F1F1" height="76.5625" rx="2.5" ry="2.5" style="stroke:#181818;stroke-width:0.5;" width="235" x="270.5" y="1345"/><rect fill="#F1F1F1" height="10" style="stroke:#181818;stroke-width:0.5;" width="15" x="485.5" y="1350"/><rect fill="#F1F1F1" height="2" style="stroke:#181818;stroke-width:0.5;" width="4" x="483.5" y="1352"/><rect fill="#F1F1F1" height="2" style="stroke:#181818;stroke-width:0.5;" width="4" x="483.5" y="1356"/><text fill="#000000" font-family="sans-serif" font-size="20" font-style="italic" lengthAdjust="spacing" textLength="138" x="314" y="1383.5645">«component»</text><text fill="#000000" font-family="sans-serif" font-size="20" lengthAdjust="spacing" textLength="195" x="285.5" y="1406.8457">Domain Model DDD</text></g><!--entity PERS2--><g id="elem_PERS2"><path d="M267.5,2233 L308.5,2233 A3.75,3.75 0 0 1 311,2235.5 L318,2254 L406.5,2254 A2.5,2.5 0 0 1 409,2256.5 L409,2291.7813 A2.5,2.5 0 0 1 406.5,2294.2813 L267.5,2294.2813 A2.5,2.5 0 0 1 265,2291.7813 L265,2235.5 A2.5,2.5 0 0 1 267.5,2233 " fill="#F1F1F1" style="stroke:#181818;stroke-width:0.5;"/><line style="stroke:#181818;stroke-width:0.5;" x1="265" x2="318" y1="2254" y2="2254"/><text fill="#000000" font-family="sans-serif" font-size="20" lengthAdjust="spacing" textLength="114" x="275" y="2279.5645">Persistence</text></g><!--entity ROUTE2--><g id="elem_ROUTE2"><path d="M447,2233 L488,2233 A3.75,3.75 0 0 1 490.5,2235.5 L497.5,2254 L541,2254 A2.5,2.5 0 0 1 543.5,2256.5 L543.5,2291.7813 A2.5,2.5 0 0 1 541,2294.2813 L447,2294.2813 A2.5,2.5 0 0 1 444.5,2291.7813 L444.5,2235.5 A2.5,2.5 0 0 1 447,2233 " fill="#F1F1F1" style="stroke:#181818;stroke-width:0.5;"/><line style="stroke:#181818;stroke-width:0.5;" x1="444.5" x2="497.5" y1="2254" y2="2254"/><text fill="#000000" font-family="sans-serif" font-size="20" lengthAdjust="spacing" textLength="69" x="454.5" y="2279.5645">Routes</text></g><!--entity CTRL2--><g id="elem_CTRL2"><path d="M442,2049 L483,2049 A3.75,3.75 0 0 1 485.5,2051.5 L492.5,2070 L576,2070 A2.5,2.5 0 0 1 578.5,2072.5 L578.5,2107.7813 A2.5,2.5 0 0 1 576,2110.2813 L442,2110.2813 A2.5,2.5 0 0 1 439.5,2107.7813 L439.5,2051.5 A2.5,2.5 0 0 1 442,2049 " fill="#F1F1F1" style="stroke:#181818;stroke-width:0.5;"/><line style="stroke:#181818;stroke-width:0.5;" x1="439.5" x2="492.5" y1="2070" y2="2070"/><text fill="#000000" font-family="sans-serif" font-size="20" lengthAdjust="spacing" textLength="109" x="449.5" y="2095.5645">Controllers</text></g><!--entity REPO2--><g id="elem_REPO2"><path d="M254,2049 L295,2049 A3.75,3.75 0 0 1 297.5,2051.5 L304.5,2070 L402,2070 A2.5,2.5 0 0 1 404.5,2072.5 L404.5,2107.7813 A2.5,2.5 0 0 1 402,2110.2813 L254,2110.2813 A2.5,2.5 0 0 1 251.5,2107.7813 L251.5,2051.5 A2.5,2.5 0 0 1 254,2049 " fill="#F1F1F1" style="stroke:#181818;stroke-width:0.5;"/><line style="stroke:#181818;stroke-width:0.5;" x1="251.5" x2="304.5" y1="2070" y2="2070"/><text fill="#000000" font-family="sans-serif" font-size="20" lengthAdjust="spacing" textLength="123" x="261.5" y="2095.5645">Repositories</text></g><!--entity APP2--><g id="elem_APP2"><path d="M252,1865 L293,1865 A3.75,3.75 0 0 1 295.5,1867.5 L302.5,1886 L406,1886 A2.5,2.5 0 0 1 408.5,1888.5 L408.5,1923.7813 A2.5,2.5 0 0 1 406,1926.2813 L252,1926.2813 A2.5,2.5 0 0 1 249.5,1923.7813 L249.5,1867.5 A2.5,2.5 0 0 1 252,1865 " fill="#F1F1F1" style="stroke:#181818;stroke-width:0.5;"/><line style="stroke:#181818;stroke-width:0.5;" x1="249.5" x2="302.5" y1="1886" y2="1886"/><text fill="#000000" font-family="sans-serif" font-size="20" lengthAdjust="spacing" textLength="129" x="259.5" y="1911.5645">App Services</text></g><!--entity AGG2--><g id="elem_AGG2"><path d="M85,1681 L126,1681 A3.75,3.75 0 0 1 128.5,1683.5 L135.5,1702 L225,1702 A2.5,2.5 0 0 1 227.5,1704.5 L227.5,1739.7813 A2.5,2.5 0 0 1 225,1742.2813 L85,1742.2813 A2.5,2.5 0 0 1 82.5,1739.7813 L82.5,1683.5 A2.5,2.5 0 0 1 85,1681 " fill="#F1F1F1" style="stroke:#181818;stroke-width:0.5;"/><line style="stroke:#181818;stroke-width:0.5;" x1="82.5" x2="135.5" y1="1702" y2="1702"/><text fill="#000000" font-family="sans-serif" font-size="20" lengthAdjust="spacing" textLength="115" x="92.5" y="1727.5645">Aggregates</text></g><!--entity VO2--><g id="elem_VO2"><path d="M413,1681 L454,1681 A3.75,3.75 0 0 1 456.5,1683.5 L463.5,1702 L577,1702 A2.5,2.5 0 0 1 579.5,1704.5 L579.5,1739.7813 A2.5,2.5 0 0 1 577,1742.2813 L413,1742.2813 A2.5,2.5 0 0 1 410.5,1739.7813 L410.5,1683.5 A2.5,2.5 0 0 1 413,1681 " fill="#F1F1F1" style="stroke:#181818;stroke-width:0.5;"/><line style="stroke:#181818;stroke-width:0.5;" x1="410.5" x2="463.5" y1="1702" y2="1702"/><text fill="#000000" font-family="sans-serif" font-size="20" lengthAdjust="spacing" textLength="139" x="420.5" y="1727.5645">Value Objects</text></g><!--entity SRV2--><g id="elem_SRV2"><path d="M265,1681 L306,1681 A3.75,3.75 0 0 1 308.5,1683.5 L315.5,1702 L373,1702 A2.5,2.5 0 0 1 375.5,1704.5 L375.5,1739.7813 A2.5,2.5 0 0 1 373,1742.2813 L265,1742.2813 A2.5,2.5 0 0 1 262.5,1739.7813 L262.5,1683.5 A2.5,2.5 0 0 1 265,1681 " fill="#F1F1F1" style="stroke:#181818;stroke-width:0.5;"/><line style="stroke:#181818;stroke-width:0.5;" x1="262.5" x2="315.5" y1="1702" y2="1702"/><text fill="#000000" font-family="sans-serif" font-size="20" lengthAdjust="spacing" textLength="83" x="272.5" y="1727.5645">Services</text></g><!--entity API--><g id="elem_API"><ellipse cx="502" cy="14" fill="#F1F1F1" rx="8" ry="8" style="stroke:#181818;stroke-width:0.5;"/><text fill="#000000" font-family="sans-serif" font-size="20" lengthAdjust="spacing" textLength="70" x="467" y="49.5645">MD API</text></g><!--link API to P1--><g id="link_API_P1"><path d="M502,23.13 C502,44.99 502,104.62 502,122.72 " fill="none" id="API-P1" style="stroke:#181818;stroke-width:1.0;"/></g><!--link ROUTE to P1--><g id="link_ROUTE_P1"><path d="M479.46,321.62 C486.2,264.33 498.5,159.71 501.39,135.22 " fill="none" id="ROUTE-P1" style="stroke:#181818;stroke-width:1.0;"/></g><!--link PERSISTENCE to P2--><g id="link_PERSISTENCE_P2"><path d="M684.04,321.62 C678.05,264.33 667.11,159.71 664.55,135.22 " fill="none" id="PERSISTENCE-P2" style="stroke:#181818;stroke-width:1.0;"/></g><!--link ROUTE to CTRL_API--><g id="link_ROUTE_CTRL_API"><path d="M460.26,399.34 C448.3,430.06 431.97,471.98 422.86,495.38 " fill="none" id="ROUTE-to-CTRL_API" style="stroke:#181818;stroke-width:1.0;"/><path d="M428.1177,505.1817 A9,9 0 0 0 412.357 499.0418" fill="none" style="stroke:#181818;stroke-width:1.5;"/></g><!--link CTRL_API to CTRL--><g id="link_CTRL_API_CTRL"><path d="M418.69,523.09 C426.29,545.94 448.28,612.11 462.42,654.66 " fill="none" id="CTRL_API-CTRL" style="stroke:#181818;stroke-width:1.0;"/></g><!--link PERSISTENCE to PERSISTENCE_API--><g id="link_PERSISTENCE_PERSISTENCE_API"><path d="M718.97,399.34 C748.09,434.92 789.53,485.54 805.43,504.98 " fill="none" id="PERSISTENCE-PERSISTENCE_API" style="stroke:#181818;stroke-width:1.0;"/></g><!--reverse link PERSISTENCE_API to REPO--><g id="link_PERSISTENCE_API_REPO"><path d="M800.6,531.32 C781.16,559.14 741.14,616.43 714.43,654.66 " fill="none" id="PERSISTENCE_API-backto-REPO" style="stroke:#181818;stroke-width:1.0;"/><path d="M797.6542,520.77 A9,9 0 0 0 811.5201 530.4568" fill="none" style="stroke:#181818;stroke-width:1.5;"/></g><!--link PERSISTENCE to DATA_API--><g id="link_PERSISTENCE_DATA_API"><path d="M668.52,399.34 C652.56,430.34 630.73,472.74 618.75,496.01 " fill="none" id="PERSISTENCE-to-DATA_API" style="stroke:#181818;stroke-width:1.0;"/><path d="M623.0571,506.1231 A9,9 0 0 0 608.0262 498.3661" fill="none" style="stroke:#181818;stroke-width:1.5;"/></g><!--reverse link DATA_API to REPO--><g id="link_DATA_API_REPO"><path d="M617.66,532.43 C630.05,560.63 654.79,616.93 671.37,654.66 " fill="none" id="DATA_API-backto-REPO" style="stroke:#181818;stroke-width:1.0;"/><path d="M607.0402,529.3047 A9,9 0 0 0 622.5315 522.5137" fill="none" style="stroke:#181818;stroke-width:1.5;"/></g><!--link DATA to DATA_API--><g id="link_DATA_DATA_API"><path d="M300.08,399.02 C320.97,413.06 345.86,428.2 370,439 C428.96,465.38 448.37,458.65 510,478 C538.71,487.01 571.56,498.8 591.54,506.13 " fill="none" id="DATA-to-DATA_API" style="stroke:#181818;stroke-width:1.0;"/><path d="M601.0212,500.6201 A9,9 0 0 0 595.1458 516.4814" fill="none" style="stroke:#181818;stroke-width:1.5;"/></g><!--link CTRL to SRV_API--><g id="link_CTRL_SRV_API"><path d="M475,732.34 C475,762.78 475,804.22 475,827.74 " fill="none" id="CTRL-to-SRV_API" style="stroke:#181818;stroke-width:1.0;"/><path d="M483.4572,834.9018 A9,9 0 0 0 466.5428 834.9018" fill="none" style="stroke:#181818;stroke-width:1.5;"/></g><!--reverse link SRV_API to SRV--><g id="link_SRV_API_SRV"><path d="M469.79,865.8 C461.49,894.13 445.09,950.09 434.08,987.66 " fill="none" id="SRV_API-backto-SRV" style="stroke:#181818;stroke-width:1.0;"/><path d="M463.6484,856.6647 A9,9 0 0 0 479.8797 861.423" fill="none" style="stroke:#181818;stroke-width:1.5;"/></g><!--reverse link DTO_API to SRV--><g id="link_DTO_API_SRV"><path d="M312.47,864.69 C331.68,892.64 370.83,949.6 397,987.66 " fill="none" id="DTO_API-backto-SRV" style="stroke:#181818;stroke-width:1.0;"/><path d="M301.3288,863.4136 A9,9 0 0 0 315.2748 853.8423" fill="none" style="stroke:#181818;stroke-width:1.5;"/></g><!--link CTRL to DTO_API--><g id="link_CTRL_DTO_API"><path d="M431.54,732.34 C394.82,764.31 344.17,808.42 318.07,831.14 " fill="none" id="CTRL-to-DTO_API" style="stroke:#181818;stroke-width:1.0;"/><path d="M318.0817,842.3431 A9,9 0 0 0 306.9845 829.5778" fill="none" style="stroke:#181818;stroke-width:1.5;"/></g><!--link DTO to DTO_API--><g id="link_DTO_DTO_API"><path d="M261.99,732.34 C272.53,763.06 286.92,804.98 294.95,828.38 " fill="none" id="DTO-to-DTO_API" style="stroke:#181818;stroke-width:1.0;"/><path d="M305.2439,832.3156 A9,9 0 0 0 289.2514 837.8236" fill="none" style="stroke:#181818;stroke-width:1.5;"/></g><!--link REPO to REPO_API--><g id="link_REPO_REPO_API"><path d="M690.75,732.34 C693.33,767.92 697.01,818.54 698.42,837.98 " fill="none" id="REPO-REPO_API" style="stroke:#181818;stroke-width:1.0;"/></g><!--reverse link REPO_API to SRV--><g id="link_REPO_API_SRV"><path d="M680.21,855.1 C650.18,866.85 590.09,892.03 544,922 C514.45,941.21 484.32,966.96 461.52,987.97 " fill="none" id="REPO_API-backto-SRV" style="stroke:#181818;stroke-width:1.0;"/><path d="M683.9259,844.6072 A9,9 0 0 0 689.9865 860.3986" fill="none" style="stroke:#181818;stroke-width:1.5;"/></g><!--link SRV to MODEL_API--><g id="link_SRV_MODEL_API"><path d="M423,1065.34 C423,1095.78 423,1137.22 423,1160.74 " fill="none" id="SRV-to-MODEL_API" style="stroke:#181818;stroke-width:1.0;"/><path d="M431.4572,1167.9018 A9,9 0 0 0 414.5428 1167.9018" fill="none" style="stroke:#181818;stroke-width:1.5;"/></g><!--link REPO to MODEL_API--><g id="link_REPO_MODEL_API"><path d="M665.13,732.25 C652.76,754.42 638.34,783.43 630,811 C591.89,937.06 671.94,999.58 593,1105 C555.92,1154.52 478.69,1171.4 442.5,1176.73 " fill="none" id="REPO-to-MODEL_API" style="stroke:#181818;stroke-width:1.0;"/><path d="M436.4629,1186.0594 A9,9 0 0 0 434.2401 1169.2916" fill="none" style="stroke:#181818;stroke-width:1.5;"/></g><!--link MODEL_API to MODEL--><g id="link_MODEL_API_MODEL"><path d="M421.58,1189.15 C417.1,1214.99 402.98,1296.27 394.54,1344.83 " fill="none" id="MODEL_API-MODEL" style="stroke:#181818;stroke-width:1.0;"/></g><!--reverse link CTRL2 to ROUTE2--><g id="link_CTRL2_ROUTE2"><path d="M506.12,2115.46 C503.31,2149.53 499.09,2200.75 496.44,2232.87 " fill="none" id="CTRL2-backto-ROUTE2" style="stroke:#181818;stroke-width:1.0;stroke-dasharray:7.0,7.0;"/><polygon fill="#181818" points="506.56,2110.15,501.8531,2118.8013,506.1601,2115.134,509.8274,2119.4411,506.56,2110.15" style="stroke:#181818;stroke-width:1.0;"/></g><!--reverse link PERS2 to REPO2--><g id="link_PERS2_REPO2"><path d="M335.27,2227.55 C333.59,2193.49 331.05,2142.27 329.47,2110.15 " fill="none" id="PERS2-backto-REPO2" style="stroke:#181818;stroke-width:1.0;stroke-dasharray:7.0,7.0;"/><polygon fill="#181818" points="335.53,2232.87,339.0887,2223.6865,335.2874,2227.8759,331.0981,2224.0747,335.53,2232.87" style="stroke:#181818;stroke-width:1.0;"/></g><!--reverse link APP2 to CTRL2--><g id="link_APP2_CTRL2"><path d="M366.2,1929.8 C383.48,1945.6 404.12,1964.93 422,1983 C443.14,2004.36 465.99,2029.53 482.96,2048.66 " fill="none" id="APP2-backto-CTRL2" style="stroke:#181818;stroke-width:1.0;stroke-dasharray:7.0,7.0;"/><polygon fill="#181818" points="362.34,1926.28,366.2984,1935.2984,366.0358,1929.6476,371.6866,1929.3851,362.34,1926.28" style="stroke:#181818;stroke-width:1.0;"/></g><!--reverse link APP2 to REPO2--><g id="link_APP2_REPO2"><path d="M328.81,1931.46 C328.62,1965.53 328.34,2016.75 328.16,2048.87 " fill="none" id="APP2-backto-REPO2" style="stroke:#181818;stroke-width:1.0;stroke-dasharray:7.0,7.0;"/><polygon fill="#181818" points="328.84,1926.15,324.7886,1935.127,328.8114,1931.1499,332.7885,1935.1727,328.84,1926.15" style="stroke:#181818;stroke-width:1.0;"/></g><!--reverse link AGG2 to APP2--><g id="link_AGG2_APP2"><path d="M191.52,1745.71 C208.45,1761.49 228.63,1780.84 246,1799 C266.34,1820.27 288.13,1845.44 304.28,1864.6 " fill="none" id="AGG2-backto-APP2" style="stroke:#181818;stroke-width:1.0;stroke-dasharray:7.0,7.0;"/><polygon fill="#181818" points="187.73,1742.2,191.579,1751.2656,191.3848,1745.6121,197.0383,1745.4179,187.73,1742.2" style="stroke:#181818;stroke-width:1.0;"/></g><!--reverse link VO2 to APP2--><g id="link_VO2_APP2"><path d="M464.26,1746.21 C433.2,1780.26 385.69,1832.35 356.03,1864.87 " fill="none" id="VO2-backto-APP2" style="stroke:#181818;stroke-width:1.0;stroke-dasharray:7.0,7.0;"/><polygon fill="#181818" points="467.96,1742.15,458.934,1746.091,464.5853,1745.8393,464.8369,1751.4906,467.96,1742.15" style="stroke:#181818;stroke-width:1.0;"/></g><!--reverse link SRV2 to APP2--><g id="link_SRV2_APP2"><path d="M320.92,1747.46 C322.79,1781.53 325.61,1832.75 327.37,1864.87 " fill="none" id="SRV2-backto-APP2" style="stroke:#181818;stroke-width:1.0;stroke-dasharray:7.0,7.0;"/><polygon fill="#181818" points="320.63,1742.15,317.1515,1751.3641,320.9161,1747.1418,325.1384,1750.9064,320.63,1742.15" style="stroke:#181818;stroke-width:1.0;"/></g><!--reverse link IA2 to I2--><g id="link_IA2_I2"><path d="M222.9548,2134.028 C223.3636,2134.9054 223.7936,2135.7711 224.2458,2136.6231 C225.1501,2138.3271 226.1432,2139.976 227.233,2141.5523 C229.4128,2144.705 231.98,2147.5675 235,2150 C291.32,2195.37 505.31,2119.68 560,2167 C564.0263,2170.485 567.3494,2174.5583 570.0814,2179.0223 C570.7645,2180.1383 571.4105,2181.2787 572.0214,2182.4405 C572.0978,2182.5857 572.1736,2182.7313 572.2489,2182.8772 " fill="none" id="IA2-backto-I2" style="stroke:#181818;stroke-width:1.0;stroke-dasharray:7.0,7.0;"/><polygon fill="#181818" points="222.9548,2134.028,223.1307,2143.8753,225.0668,2138.5601,230.382,2140.4961,222.9548,2134.028" style="stroke:#181818;stroke-width:1.0;"/></g><!--reverse link UC2 to IA2--><g id="link_UC2_IA2"><path d="M214.5904,1950.2976 C214.5939,1950.615 214.5974,1950.9332 214.6009,1951.2522 C214.6149,1952.5278 214.6291,1953.8148 214.6434,1955.1119 C214.7575,1965.4887 214.8788,1976.5116 215,1987.5338 C215.0303,1990.2893 215.0606,1993.0448 215.0908,1995.7902 C215.0984,1996.4765 215.1059,1997.1622 215.1135,1997.8471 C215.1172,1998.1896 215.121,1998.5318 215.1248,1998.8739 " fill="none" id="UC2-backto-IA2" style="stroke:#181818;stroke-width:1.0;stroke-dasharray:7.0,7.0;"/><polygon fill="#181818" points="214.5904,1950.2976,210.6896,1959.341,214.6454,1955.2973,218.6892,1959.253,214.5904,1950.2976" style="stroke:#181818;stroke-width:1.0;"/></g><!--reverse link E2 to UC2--><g id="link_E2_UC2"><path d="M57.807,1766.2687 C58.5532,1768.1181 59.3505,1769.9469 60.2027,1771.7418 C61.9069,1775.3317 63.83,1778.7863 66,1782 C71.6888,1790.4263 78.2183,1798.4822 85.2956,1806.1314 C87.0649,1808.0437 88.8684,1809.9305 90.7017,1811.7914 C91.6183,1812.7219 92.5423,1813.6458 93.4731,1814.5632 " fill="none" id="E2-backto-UC2" style="stroke:#181818;stroke-width:1.0;stroke-dasharray:7.0,7.0;"/><polygon fill="#181818" points="57.807,1766.2687,57.4648,1776.1116,59.6777,1770.9055,64.8838,1773.1184,57.807,1766.2687" style="stroke:#181818;stroke-width:1.0;"/></g><!--reverse link FDL to I2--><g id="link_FDL_I2"><path d="M806.844,423.2661 C807.4603,425.2167 808.196,427.1178 809.0654,428.9514 C810.8041,432.6188 813.0775,436.0163 816,439 C833.31,456.66 907.47,431.83 927,447 C951.42,465.97 949,482.08 949,513 C949,513 949,513 949,2080.5 C949,2171.415 857.94,2216.9175 766.1688,2239.69 C720.2831,2251.0763 674.2197,2256.78 639.272,2259.6366 C621.7982,2261.0648 607.1033,2261.7813 596.5991,2262.1404 C593.973,2262.2302 591.6089,2262.2976 589.5287,2262.3483 C589.0087,2262.3609 588.5064,2262.3726 588.0222,2262.3832 C587.7801,2262.3885 587.5425,2262.3936 587.3095,2262.3985 " fill="none" id="FDL-backto-I2" style="stroke:#181818;stroke-width:1.0;stroke-dasharray:7.0,7.0;"/><polygon fill="#181818" points="806.844,423.2661,805.7413,433.0531,808.3504,428.0338,813.3696,430.6429,806.844,423.2661" style="stroke:#181818;stroke-width:1.0;"/><text fill="#000000" font-family="sans-serif" font-size="20" lengthAdjust="spacing" textLength="112" x="950" y="1187.0645">«manifest»</text></g><!--reverse link IAL to IA2--><g id="link_IAL_IA2"><path d="M812,756.2577 C812,756.7397 812,757.2234 812,757.7087 C812,761.5908 812,765.5737 812,769.6341 C812,777.7549 812,786.1852 812,794.737 C812,811.8406 812,829.43 812,846 C812,846 812,846 812,1896.5 C812,1984.09 510.82,1954.34 424,1966 C382.21,1971.61 266.37,1954.81 235,1983 C231.0388,1986.5588 227.7647,1990.6877 225.0687,1995.1925 C224.3947,1996.3187 223.7568,1997.4684 223.1533,1998.6386 " fill="none" id="IAL-backto-IA2" style="stroke:#181818;stroke-width:1.0;stroke-dasharray:7.0,7.0;"/><polygon fill="#181818" points="812,756.2577,808,765.2577,812,761.2577,816,765.2577,812,756.2577" style="stroke:#181818;stroke-width:1.0;"/><text fill="#000000" font-family="sans-serif" font-size="20" lengthAdjust="spacing" textLength="112" x="813" y="1265.5645">«manifest»</text></g><!--reverse link ABR to UC2--><g id="link_ABR_UC2"><path d="M585.0567,1039.622 C585.2523,1039.8706 585.4501,1040.1226 585.65,1040.378 C586.0498,1040.8889 586.458,1041.4133 586.8741,1041.9511 C593.5313,1050.5553 602.2088,1062.5669 610.82,1076.7862 C628.0425,1105.225 645,1142.495 645,1179 C645,1179 645,1179 645,1712.5 C645,1750.55 628.45,1763.85 595,1782 C559.7,1801.15 264.56,1772.96 234,1799 C229.9388,1802.4613 226.5741,1806.5166 223.796,1810.9673 C223.1015,1812.08 222.4437,1813.2175 221.8208,1814.3765 C221.7429,1814.5214 221.6656,1814.6666 221.5888,1814.8121 " fill="none" id="ABR-backto-UC2" style="stroke:#181818;stroke-width:1.0;stroke-dasharray:7.0,7.0;"/><polygon fill="#181818" points="585.0567,1039.622,587.4791,1049.1683,588.1488,1043.5512,593.7659,1044.2209,585.0567,1039.622" style="stroke:#181818;stroke-width:1.0;"/><text fill="#000000" font-family="sans-serif" font-size="20" lengthAdjust="spacing" textLength="112" x="646" y="1390.5645">«manifest»</text></g><!--reverse link EBR to E2--><g id="link_EBR_E2"><path d="M218.9701,1388.3132 C218.8459,1388.3744 218.7204,1388.4363 218.5937,1388.4989 C218.3402,1388.6241 218.0815,1388.7522 217.8178,1388.8832 C216.7632,1389.407 215.6281,1389.9766 214.4181,1390.5914 C211.9982,1391.8209 209.2788,1393.2311 206.3044,1394.8169 C194.4069,1401.16 178.43,1410.3125 161.2225,1421.95 C126.8075,1445.225 87.47,1478.44 66,1519 C56.1525,1537.6025 50.0013,1558.6469 46.3233,1579.8047 C44.4843,1590.3836 43.2636,1600.9909 42.5084,1611.3354 C42.1308,1616.5077 41.8696,1621.6143 41.7056,1626.6189 C41.6646,1627.87 41.6297,1629.1148 41.6005,1630.3526 " fill="none" id="EBR-backto-E2" style="stroke:#181818;stroke-width:1.0;stroke-dasharray:7.0,7.0;"/><polygon fill="#181818" points="218.9701,1388.3132,209.1289,1388.7016,214.4847,1390.5225,212.6638,1395.8783,218.9701,1388.3132" style="stroke:#181818;stroke-width:1.0;"/><text fill="#000000" font-family="sans-serif" font-size="20" lengthAdjust="spacing" textLength="112" x="90" y="1505.5645">«manifest»</text></g><!--SRC=[ZLLBJzj04BxxLuo2rAQ70BLwG1L22hQ38f4cSWBNQkjieYsErrglgMZ5V-_ioru_IiaXCBFVlEURL4-iA8aWfvndJtGFUteWTIuNl91Rzfj2U1a4h91K74X6ORAAORvPJe1KwcyGPFnKye8MKZ-jI46Ez8IYHgpY5LnVDv2R6oqLah222fX6NpwXway0K78XMG4Jq6QRpvvgGqN5AaaBZEuYRy804SisgmYT2fxdwDLXebrw_rsbs076H19OyJtD6s0ytyqrKFayy7oFJYOBR0ZznSLJ1HyW5kmPiu1xyaA5jbd4zt1sTRd0ZyuVmEj3oclC_AY1wVfXb_HwO0nU-sPUeQR89DqkjxlaM_Hl1wygPyz7MrvJseZjQyzejpRetNeKtEtWl2nXIyKposXbUZZVmZPz7Ear-dC0_7y8I6d96qIQR4OWtgWGirh7oSXG1ok2KAzxPhZjR5lB-PwKiZlPvTnEzkfoEDbspPeLUzziLQKLaroycAt0Mj-UgSiLkvspZ4Z62xYjA-HDXUPrJYj3mTiKpbIkOzdwjdPYsWY7zRxWYMfKALX5ns8d9dOq6Zlc9oIvPLeSn-OSgF6z4Hg3uwXWDbCN833KcHd99uFIXEtxjAMw7iYiBcUjgc_OMmiz2MKnxJz1ptJQ70hmhLgb9biNPnD2dIE8whqn76eSHneZfr14ycKRVzPofdNYL1XSAr7LiCObtjMPgUYkUThWeshzyFF_Yn- -x-JR9LiM1q4gAUfCre9g1ePsAIp2PxSzYw7_hiujdY9tRCF-5W_fRedUYzEIktBaxiPn76Os6lOoV8klxafUF2218e9VJgCJU8Xw2NHEg_s5tOGZf6GIKxY8kA0NXcU6ZmDtnwEWHoATixkx43g0HvBN5DO_Vj9C6ipZkbFof9CDxbFeU6fQ3UTrUNvZMwNxOJLcI5flDReK7w8Lwil9c9ulgrGyKGSFbax4wGLgWaR2LWQgdKPAVA3wfVwAEtWY1JlG2XVIirF7llVOkb6tjVVOL9mCt_u2]--></g></svg>