<?xml version="1.0" encoding="UTF-8" standalone="no"?><svg xmlns="http://www.w3.org/2000/svg" xmlns:xlink="http://www.w3.org/1999/xlink" contentStyleType="text/css" height="497px" preserveAspectRatio="none" style="width:908px;height:497px;background:#FFFFFF;" version="1.1" viewBox="0 0 908 497" width="908px" zoomAndPan="magnify"><defs/><g><!--cluster Rob--><g id="cluster_Rob"><rect fill="none" height="371" rx="2.5" ry="2.5" style="stroke:#181818;stroke-width:1.0;" width="503" x="7" y="120"/><rect fill="none" height="10" style="stroke:#181818;stroke-width:1.0;" width="15" x="490" y="125"/><rect fill="none" height="2" style="stroke:#181818;stroke-width:1.0;" width="4" x="488" y="127"/><rect fill="none" height="2" style="stroke:#181818;stroke-width:1.0;" width="4" x="488" y="131"/><text fill="#000000" font-family="sans-serif" font-size="20" font-style="italic" lengthAdjust="spacing" textLength="122" x="197.5" y="154.38">«component»</text><text fill="#000000" font-family="sans-serif" font-size="20" font-style="italic" lengthAdjust="spacing" textLength="122" x="197.5" y="181.62">«system (C4)»</text><text fill="#000000" font-family="sans-serif" font-size="20" font-weight="bold" lengthAdjust="spacing" textLength="37.875" x="239.5625" y="208.8599">Rob</text></g><text fill="#000000" font-family="sans-serif" font-size="20" lengthAdjust="spacing" textLength="5" x="489.5" y="96.14"> </text><rect fill="#F1F1F1" height="12" style="stroke:#181818;stroke-width:1.5;" width="12" x="486" y="114"/><!--entity V--><g id="elem_V"><rect fill="#F1F1F1" height="84.4799" rx="2.5" ry="2.5" style="stroke:#181818;stroke-width:0.5;" width="289" x="109.5" y="391"/><rect fill="#F1F1F1" height="10" style="stroke:#181818;stroke-width:0.5;" width="15" x="378.5" y="396"/><rect fill="#F1F1F1" height="2" style="stroke:#181818;stroke-width:0.5;" width="4" x="376.5" y="398"/><rect fill="#F1F1F1" height="2" style="stroke:#181818;stroke-width:0.5;" width="4" x="376.5" y="402"/><text fill="#000000" font-family="sans-serif" font-size="20" font-style="italic" lengthAdjust="spacing" textLength="249" x="124.5" y="432.38">«component» «system (C4)»</text><text fill="#000000" font-family="sans-serif" font-size="20" lengthAdjust="spacing" textLength="116" x="191" y="459.62">Visualization</text></g><!--entity MDD--><g id="elem_MDD"><rect fill="#F1F1F1" height="84.4799" rx="2.5" ry="2.5" style="stroke:#181818;stroke-width:0.5;" width="289" x="23.5" y="247"/><rect fill="#F1F1F1" height="10" style="stroke:#181818;stroke-width:0.5;" width="15" x="292.5" y="252"/><rect fill="#F1F1F1" height="2" style="stroke:#181818;stroke-width:0.5;" width="4" x="290.5" y="254"/><rect fill="#F1F1F1" height="2" style="stroke:#181818;stroke-width:0.5;" width="4" x="290.5" y="258"/><text fill="#000000" font-family="sans-serif" font-size="20" font-style="italic" lengthAdjust="spacing" textLength="249" x="38.5" y="288.38">«component» «system (C4)»</text><text fill="#000000" font-family="sans-serif" font-size="20" lengthAdjust="spacing" textLength="110" x="108" y="315.62">MD Management</text></g><!--entity AUI--><g id="elem_AUI"><ellipse cx="75" cy="14" fill="#F1F1F1" rx="8" ry="8" style="stroke:#181818;stroke-width:0.5;"/><text fill="#000000" font-family="sans-serif" font-size="20" lengthAdjust="spacing" textLength="88" x="31" y="52.38">Admin UI</text></g><!--entity CUI--><g id="elem_CUI"><ellipse cx="266" cy="14" fill="#F1F1F1" rx="8" ry="8" style="stroke:#181818;stroke-width:0.5;"/><text fill="#000000" font-family="sans-serif" font-size="20" lengthAdjust="spacing" textLength="192" x="170" y="52.38">Campus Manager UI</text></g><!--entity FUI--><g id="elem_FUI"><ellipse cx="492" cy="14" fill="#F1F1F1" rx="8" ry="8" style="stroke:#181818;stroke-width:0.5;"/><text fill="#000000" font-family="sans-serif" font-size="20" lengthAdjust="spacing" textLength="159" x="412.5" y="52.38">Fleet Manager UI</text></g><!--entity TUI--><g id="elem_TUI"><ellipse cx="701" cy="14" fill="#F1F1F1" rx="8" ry="8" style="stroke:#181818;stroke-width:0.5;"/><text fill="#000000" font-family="sans-serif" font-size="20" lengthAdjust="spacing" textLength="158" x="622" y="52.38">Task Manager UI</text></g><!--entity UUI--><g id="elem_UUI"><ellipse cx="866" cy="14" fill="#F1F1F1" rx="8" ry="8" style="stroke:#181818;stroke-width:0.5;"/><text fill="#000000" font-family="sans-serif" font-size="20" lengthAdjust="spacing" textLength="71" x="830.5" y="52.38">User UI</text></g><!--link V to P1--><g id="link_V_P1"><path d="M398.73,405.44 C439.58,390.54 479.52,367.29 504,331 C549.95,262.88 505.86,152.28 494.51,126.5 " fill="none" id="V-P1" style="stroke:#181818;stroke-width:1.0;"/></g><!--link MDD to V--><g id="link_MDD_V"><path d="M193.11,331.45 C204.41,350.12 217.72,372.1 229.01,390.74 " fill="none" id="MDD-V" style="stroke:#181818;stroke-width:1.0;"/><path d="M208.6776,370.8174 A10,10 0 0 0 220.7749 363.4924" fill="none" style="stroke:#181818;stroke-width:1.5;"/><ellipse cx="211.0638" cy="361.1063" fill="#FFFFFF" rx="6" ry="6" style="stroke:#181818;stroke-width:1.5;"/></g><!--link AUI to P1--><g id="link_AUI_P1"><path d="M83.62,21.02 C96.41,29.67 121.45,45.49 145,54 C277,101.7 450.51,116.07 485.64,118.58 " fill="none" id="AUI-P1" style="stroke:#181818;stroke-width:1.0;"/></g><!--link CUI to P1--><g id="link_CUI_P1"><path d="M274.86,19.08 C311.91,36.13 453.98,101.51 485.7,116.1 " fill="none" id="CUI-P1" style="stroke:#181818;stroke-width:1.0;"/></g><!--link FUI to P1--><g id="link_FUI_P1"><path d="M492,22.82 C492,43.04 492,96.66 492,113.72 " fill="none" id="FUI-P1" style="stroke:#181818;stroke-width:1.0;"/></g><!--link TUI to P1--><g id="link_TUI_P1"><path d="M692.02,19.47 C656.7,37.04 527.86,101.16 498.14,115.94 " fill="none" id="TUI-P1" style="stroke:#181818;stroke-width:1.0;"/></g><!--link UUI to P1--><g id="link_UUI_P1"><path d="M857.24,22.22 C846.05,31.06 825.76,45.87 806,54 C688.62,102.29 531.25,116.12 498.23,118.57 " fill="none" id="UUI-P1" style="stroke:#181818;stroke-width:1.0;"/></g><!--SRC=[ZP2nQiCm48PtFSMXgHaCIUaO0i76aC5GMilxnRu4OKioFhdGbBvx5TCeiQTi_zt_wKCIjzhsEA3fNDrI0msTSEnyxgp_r1U2rxKGsdeQJbWJo7rZj0Lra80CUtLux58q_SXGeCKp3JSedKDvH-INJ3vdIkHsYPHpHF6zKg4IjJEzisGzo0ztbB3Tnirk5oR-Pay6NjAtLPX_143l1X_U8c6Il6z4s3rOAiqZTlg2NZix8TKJqj-5fSWWeozT4q-A8ikUaWIDg219hjUwdadMgmGg8SAF_s_JcFAOofXKJ7y0]--></g></svg>
