<?xml version="1.0" encoding="UTF-8" standalone="no"?><svg xmlns="http://www.w3.org/2000/svg" xmlns:xlink="http://www.w3.org/1999/xlink" contentStyleType="text/css" height="361px" preserveAspectRatio="none" style="width:989px;height:361px;background:#FFFFFF;" version="1.1" viewBox="0 0 989 361" width="989px" zoomAndPan="magnify"><defs/><g><rect fill="#FFFFFF" height="170.0001" style="stroke:#181818;stroke-width:1.0;" width="10" x="18" y="91.7999"/><rect fill="#FFFFFF" height="148.4001" style="stroke:#181818;stroke-width:1.0;" width="10" x="193" y="113.3999"/><rect fill="#FFFFFF" height="59.6" style="stroke:#181818;stroke-width:1.0;" width="10" x="511" y="143"/><rect fill="#FFFFFF" height="30" style="stroke:#181818;stroke-width:1.0;" width="10" x="794" y="172.6"/><line style="stroke:#181818;stroke-width:0.5;stroke-dasharray:5.0,5.0;" x1="23" x2="23" y1="81.7999" y2="279.8"/><line style="stroke:#181818;stroke-width:0.5;stroke-dasharray:5.0,5.0;" x1="197.5" x2="197.5" y1="81.7999" y2="279.8"/><line style="stroke:#181818;stroke-width:0.5;stroke-dasharray:5.0,5.0;" x1="515.5" x2="515.5" y1="81.7999" y2="279.8"/><line style="stroke:#181818;stroke-width:0.5;stroke-dasharray:5.0,5.0;" x1="799" x2="799" y1="81.7999" y2="279.8"/><line style="stroke:#181818;stroke-width:0.5;stroke-dasharray:5.0,5.0;" x1="929" x2="929" y1="81.7999" y2="279.8"/><text fill="#000000" font-family="sans-serif" font-size="14" lengthAdjust="spacing" textLength="30" x="5" y="78.0059">User</text><ellipse cx="23" cy="13.5" fill="#E2E2F0" rx="8" ry="8" style="stroke:#181818;stroke-width:0.5;"/><path d="M23,21.5 L23,48.5 M10,29.5 L36,29.5 M23,48.5 L10,63.5 M23,48.5 L36,63.5 " fill="none" style="stroke:#181818;stroke-width:0.5;"/><text fill="#000000" font-family="sans-serif" font-size="14" lengthAdjust="spacing" textLength="30" x="5" y="291.8059">User</text><ellipse cx="23" cy="304.0999" fill="#E2E2F0" rx="8" ry="8" style="stroke:#181818;stroke-width:0.5;"/><path d="M23,312.0999 L23,339.0999 M10,320.0999 L36,320.0999 M23,339.0999 L10,354.0999 M23,339.0999 L36,354.0999 " fill="none" style="stroke:#181818;stroke-width:0.5;"/><rect fill="#E2E2F0" height="49.6998" rx="2.5" ry="2.5" style="stroke:#181818;stroke-width:0.5;" width="107" x="144.5" y="31.1001"/><text fill="#000000" font-family="sans-serif" font-size="14" font-style="italic" lengthAdjust="spacing" textLength="93" x="151.5" y="53.5">«system (C4)»</text><text fill="#000000" font-family="sans-serif" font-size="14" lengthAdjust="spacing" textLength="79" x="158.5" y="70.0059">Visualization</text><rect fill="#E2E2F0" height="49.6998" rx="2.5" ry="2.5" style="stroke:#181818;stroke-width:0.5;" width="107" x="144.5" y="278.8"/><text fill="#000000" font-family="sans-serif" font-size="14" font-style="italic" lengthAdjust="spacing" textLength="93" x="151.5" y="301.1999">«system (C4)»</text><text fill="#000000" font-family="sans-serif" font-size="14" lengthAdjust="spacing" textLength="79" x="158.5" y="317.7059">Visualization</text><rect fill="#E2E2F0" height="49.6998" rx="2.5" ry="2.5" style="stroke:#181818;stroke-width:0.5;" width="107" x="462.5" y="31.1001"/><text fill="#000000" font-family="sans-serif" font-size="14" font-style="italic" lengthAdjust="spacing" textLength="93" x="469.5" y="53.5">«system (C4)»</text><text fill="#000000" font-family="sans-serif" font-size="14" lengthAdjust="spacing" textLength="32" x="500" y="70.0059">MDD</text><rect fill="#E2E2F0" height="49.6998" rx="2.5" ry="2.5" style="stroke:#181818;stroke-width:0.5;" width="107" x="462.5" y="278.8"/><text fill="#000000" font-family="sans-serif" font-size="14" font-style="italic" lengthAdjust="spacing" textLength="93" x="469.5" y="301.1999">«system (C4)»</text><text fill="#000000" font-family="sans-serif" font-size="14" lengthAdjust="spacing" textLength="32" x="500" y="317.7059">MDD</text><rect fill="#E2E2F0" height="49.6998" rx="2.5" ry="2.5" style="stroke:#181818;stroke-width:0.5;" width="134" x="732" y="31.1001"/><text fill="#000000" font-family="sans-serif" font-size="14" font-style="italic" lengthAdjust="spacing" textLength="93" x="752.5" y="53.5">«system (C4)»</text><text fill="#000000" font-family="sans-serif" font-size="14" lengthAdjust="spacing" textLength="120" x="739" y="70.0059">Tasks Master Data</text><rect fill="#E2E2F0" height="49.6998" rx="2.5" ry="2.5" style="stroke:#181818;stroke-width:0.5;" width="134" x="732" y="278.8"/><text fill="#000000" font-family="sans-serif" font-size="14" font-style="italic" lengthAdjust="spacing" textLength="93" x="752.5" y="301.1999">«system (C4)»</text><text fill="#000000" font-family="sans-serif" font-size="14" lengthAdjust="spacing" textLength="120" x="739" y="317.7059">Tasks Master Data</text><rect fill="#E2E2F0" height="49.6998" rx="2.5" ry="2.5" style="stroke:#181818;stroke-width:0.5;" width="107" x="876" y="31.1001"/><text fill="#000000" font-family="sans-serif" font-size="14" font-style="italic" lengthAdjust="spacing" textLength="93" x="883" y="53.5">«system (C4)»</text><text fill="#000000" font-family="sans-serif" font-size="14" lengthAdjust="spacing" textLength="55" x="902" y="70.0059">Planning</text><rect fill="#E2E2F0" height="49.6998" rx="2.5" ry="2.5" style="stroke:#181818;stroke-width:0.5;" width="107" x="876" y="278.8"/><text fill="#000000" font-family="sans-serif" font-size="14" font-style="italic" lengthAdjust="spacing" textLength="93" x="883" y="301.1999">«system (C4)»</text><text fill="#000000" font-family="sans-serif" font-size="14" lengthAdjust="spacing" textLength="55" x="902" y="317.7059">Planning</text><rect fill="#FFFFFF" height="170.0001" style="stroke:#181818;stroke-width:1.0;" width="10" x="18" y="91.7999"/><rect fill="#FFFFFF" height="148.4001" style="stroke:#181818;stroke-width:1.0;" width="10" x="193" y="113.3999"/><rect fill="#FFFFFF" height="59.6" style="stroke:#181818;stroke-width:1.0;" width="10" x="511" y="143"/><rect fill="#FFFFFF" height="30" style="stroke:#181818;stroke-width:1.0;" width="10" x="794" y="172.6"/><polygon fill="#181818" points="181,109.3999,191,113.3999,181,117.3999,185,113.3999" style="stroke:#181818;stroke-width:1.0;"/><line style="stroke:#181818;stroke-width:1.0;" x1="28" x2="187" y1="113.3999" y2="113.3999"/><text fill="#000000" font-family="sans-serif" font-size="13" font-weight="bold" lengthAdjust="spacing" textLength="7" x="35" y="107.8769">1</text><text fill="#000000" font-family="sans-serif" font-size="13" lengthAdjust="spacing" textLength="135" x="46" y="107.8769">requests a new request</text><polygon fill="#181818" points="499,139,509,143,499,147,503,143" style="stroke:#181818;stroke-width:1.0;"/><line style="stroke:#181818;stroke-width:1.0;" x1="203" x2="505" y1="143" y2="143"/><text fill="#000000" font-family="sans-serif" font-size="13" font-weight="bold" lengthAdjust="spacing" textLength="7" x="210" y="137.477">2</text><text fill="#000000" font-family="sans-serif" font-size="13" lengthAdjust="spacing" textLength="278" x="221" y="137.477">GET /task-requests?filter=state&amp;value=Pending</text><polygon fill="#181818" points="782,168.6,792,172.6,782,176.6,786,172.6" style="stroke:#181818;stroke-width:1.0;"/><line style="stroke:#181818;stroke-width:1.0;" x1="521" x2="788" y1="172.6" y2="172.6"/><text fill="#000000" font-family="sans-serif" font-size="13" font-weight="bold" lengthAdjust="spacing" textLength="7" x="528" y="167.077">3</text><text fill="#000000" font-family="sans-serif" font-size="13" lengthAdjust="spacing" textLength="243" x="539" y="167.077">Get /requests?filter=state&amp;value=Pending</text><polygon fill="#181818" points="214,228.2,204,232.2,214,236.2,210,232.2" style="stroke:#181818;stroke-width:1.0;"/><line style="stroke:#181818;stroke-width:1.0;stroke-dasharray:2.0,2.0;" x1="208" x2="515" y1="232.2" y2="232.2"/><text fill="#000000" font-family="sans-serif" font-size="13" font-weight="bold" lengthAdjust="spacing" textLength="7" x="220" y="226.677">4</text><text fill="#000000" font-family="sans-serif" font-size="13" lengthAdjust="spacing" textLength="106" x="231" y="226.677">200 OK (requests)</text><polygon fill="#181818" points="34,257.8,24,261.8,34,265.8,30,261.8" style="stroke:#181818;stroke-width:1.0;"/><line style="stroke:#181818;stroke-width:1.0;stroke-dasharray:2.0,2.0;" x1="28" x2="197" y1="261.8" y2="261.8"/><text fill="#000000" font-family="sans-serif" font-size="13" font-weight="bold" lengthAdjust="spacing" textLength="7" x="40" y="256.277">5</text><text fill="#000000" font-family="sans-serif" font-size="13" lengthAdjust="spacing" textLength="106" x="51" y="256.277">200 OK (requests)</text><!--MD5=[5ba9c557104ade044f498712e36b0676]
@startuml process-view
autonumber
actor TM as "User"
participant UI as "Visualization" <<system (C4)>>
participant MDD as "MDD" <<system (C4)>>
participant TMD as "Tasks Master Data" <<system (C4)>>
participant P as "Planning" <<system (C4)>>

activate TM

TM -> UI : requests a new request
activate UI

UI -> MDD : GET /task-requests?filter=state&value=Pending
activate MDD

MDD -> TMD : Get /requests?filter=state&value=Pending
activate TMD
deactivate MDD
deactivate TMD

MDD - -> UI : 200 OK (requests)
deactivate MDD

TM <- - UI : 200 OK (requests)
deactivate UI

deactivate TM

@enduml

PlantUML version 1.2022.7(Mon Aug 22 18:01:30 BST 2022)
(GPL source distribution)
Java Runtime: OpenJDK Runtime Environment
JVM: OpenJDK 64-Bit Server VM
Default Encoding: UTF-8
Language: en
Country: GB
--></g></svg>