<?xml version="1.0" encoding="UTF-8" standalone="no"?><svg xmlns="http://www.w3.org/2000/svg" xmlns:xlink="http://www.w3.org/1999/xlink" contentStyleType="text/css" height="451px" preserveAspectRatio="none" style="width:931px;height:451px;background:#FFFFFF;" version="1.1" viewBox="0 0 931 451" width="931px" zoomAndPan="magnify"><defs/><g><rect fill="#FFFFFF" height="239.4398" style="stroke:#181818;stroke-width:1.0;" width="10" x="85.5" y="102.24"/><rect fill="#FFFFFF" height="41.24" style="stroke:#181818;stroke-width:1.0;" width="10" x="673.125" y="135.4799"/><rect fill="#FFFFFF" height="123.7199" style="stroke:#181818;stroke-width:1.0;" width="10" x="673.125" y="217.9599"/><rect fill="#FFFFFF" height="41.24" style="stroke:#181818;stroke-width:1.0;" width="10" x="852.75" y="259.1999"/><line style="stroke:#181818;stroke-width:0.5;stroke-dasharray:5.0,5.0;" x1="90" x2="90" y1="92.24" y2="359.6798"/><line style="stroke:#181818;stroke-width:0.5;stroke-dasharray:5.0,5.0;" x1="678.125" x2="678.125" y1="92.24" y2="359.6798"/><line style="stroke:#181818;stroke-width:0.5;stroke-dasharray:5.0,5.0;" x1="857.75" x2="857.75" y1="92.24" y2="359.6798"/><text fill="#000000" font-family="sans-serif" font-size="20" lengthAdjust="spacing" textLength="165" x="5" y="86.38">Campus Manager</text><ellipse cx="90.5" cy="13.5" fill="#E2E2F0" rx="8" ry="8" style="stroke:#181818;stroke-width:0.5;"/><path d="M90.5,21.5 L90.5,48.5 M77.5,29.5 L103.5,29.5 M90.5,48.5 L77.5,63.5 M90.5,48.5 L103.5,63.5 " fill="none" style="stroke:#181818;stroke-width:0.5;"/><text fill="#000000" font-family="sans-serif" font-size="20" lengthAdjust="spacing" textLength="165" x="5" y="380.0598">Campus Manager</text><ellipse cx="90.5" cy="394.4198" fill="#E2E2F0" rx="8" ry="8" style="stroke:#181818;stroke-width:0.5;"/><path d="M90.5,402.4198 L90.5,429.4198 M77.5,410.4198 L103.5,410.4198 M90.5,429.4198 L77.5,444.4198 M90.5,429.4198 L103.5,444.4198 " fill="none" style="stroke:#181818;stroke-width:0.5;"/><rect fill="#E2E2F0" height="68.4799" rx="2.5" ry="2.5" style="stroke:#181818;stroke-width:0.5;" width="136" x="610.125" y="22.76"/><text fill="#000000" font-family="sans-serif" font-size="20" font-style="italic" lengthAdjust="spacing" textLength="122" x="617.125" y="51.14">«system (C4)»</text><text fill="#000000" font-family="sans-serif" font-size="20" lengthAdjust="spacing" textLength="116" x="620.125" y="78.38">Visualization</text><rect fill="#E2E2F0" height="68.4799" rx="2.5" ry="2.5" style="stroke:#181818;stroke-width:0.5;" width="136" x="610.125" y="358.6798"/><text fill="#000000" font-family="sans-serif" font-size="20" font-style="italic" lengthAdjust="spacing" textLength="122" x="617.125" y="387.0598">«system (C4)»</text><text fill="#000000" font-family="sans-serif" font-size="20" lengthAdjust="spacing" textLength="116" x="620.125" y="414.2998">Visualization</text><rect fill="#E2E2F0" height="68.4799" rx="2.5" ry="2.5" style="stroke:#181818;stroke-width:0.5;" width="136" x="789.75" y="22.76"/><text fill="#000000" font-family="sans-serif" font-size="20" font-style="italic" lengthAdjust="spacing" textLength="122" x="796.75" y="51.14">«system (C4)»</text><text fill="#000000" font-family="sans-serif" font-size="20" lengthAdjust="spacing" textLength="48" x="833.75" y="78.38">MDD</text><rect fill="#E2E2F0" height="68.4799" rx="2.5" ry="2.5" style="stroke:#181818;stroke-width:0.5;" width="136" x="789.75" y="358.6798"/><text fill="#000000" font-family="sans-serif" font-size="20" font-style="italic" lengthAdjust="spacing" textLength="122" x="796.75" y="387.0598">«system (C4)»</text><text fill="#000000" font-family="sans-serif" font-size="20" lengthAdjust="spacing" textLength="48" x="833.75" y="414.2998">MDD</text><rect fill="#FFFFFF" height="239.4398" style="stroke:#181818;stroke-width:1.0;" width="10" x="85.5" y="102.24"/><rect fill="#FFFFFF" height="41.24" style="stroke:#181818;stroke-width:1.0;" width="10" x="673.125" y="135.4799"/><rect fill="#FFFFFF" height="123.7199" style="stroke:#181818;stroke-width:1.0;" width="10" x="673.125" y="217.9599"/><rect fill="#FFFFFF" height="41.24" style="stroke:#181818;stroke-width:1.0;" width="10" x="852.75" y="259.1999"/><polygon fill="#181818" points="661.125,131.4799,671.125,135.4799,661.125,139.4799,665.125,135.4799" style="stroke:#181818;stroke-width:1.0;"/><line style="stroke:#181818;stroke-width:1.0;" x1="95.5" x2="667.125" y1="135.4799" y2="135.4799"/><text fill="#000000" font-family="sans-serif" font-size="20" font-weight="bold" lengthAdjust="spacing" textLength="11.625" x="102.5" y="127.62">1</text><text fill="#000000" font-family="sans-serif" font-size="20" lengthAdjust="spacing" textLength="202" x="118.125" y="127.62">asks to edit a building</text><polygon fill="#181818" points="106.5,172.7199,96.5,176.7199,106.5,180.7199,102.5,176.7199" style="stroke:#181818;stroke-width:1.0;"/><line style="stroke:#181818;stroke-width:1.0;stroke-dasharray:2.0,2.0;" x1="100.5" x2="677.125" y1="176.7199" y2="176.7199"/><text fill="#000000" font-family="sans-serif" font-size="20" font-weight="bold" lengthAdjust="spacing" textLength="11.625" x="112.5" y="168.8599">2</text><text fill="#000000" font-family="sans-serif" font-size="20" lengthAdjust="spacing" textLength="538" x="128.125" y="168.8599">asks for building data (name,description,max dimensions)</text><polygon fill="#181818" points="661.125,213.9599,671.125,217.9599,661.125,221.9599,665.125,217.9599" style="stroke:#181818;stroke-width:1.0;"/><line style="stroke:#181818;stroke-width:1.0;" x1="95.5" x2="667.125" y1="217.9599" y2="217.9599"/><text fill="#000000" font-family="sans-serif" font-size="20" font-weight="bold" lengthAdjust="spacing" textLength="11.625" x="102.5" y="210.0999">3</text><text fill="#000000" font-family="sans-serif" font-size="20" lengthAdjust="spacing" textLength="188" x="118.125" y="210.0999">inputs required data</text><polygon fill="#181818" points="840.75,255.1999,850.75,259.1999,840.75,263.1999,844.75,259.1999" style="stroke:#181818;stroke-width:1.0;"/><line style="stroke:#181818;stroke-width:1.0;" x1="683.125" x2="846.75" y1="259.1999" y2="259.1999"/><text fill="#000000" font-family="sans-serif" font-size="20" font-weight="bold" lengthAdjust="spacing" textLength="11.625" x="690.125" y="251.3399">4</text><text fill="#000000" font-family="sans-serif" font-size="20" lengthAdjust="spacing" textLength="135" x="705.75" y="251.3399">PUT /buildings</text><polygon fill="#181818" points="694.125,296.4398,684.125,300.4398,694.125,304.4398,690.125,300.4398" style="stroke:#181818;stroke-width:1.0;"/><line style="stroke:#181818;stroke-width:1.0;stroke-dasharray:2.0,2.0;" x1="688.125" x2="856.75" y1="300.4398" y2="300.4398"/><text fill="#000000" font-family="sans-serif" font-size="20" font-weight="bold" lengthAdjust="spacing" textLength="11.625" x="700.125" y="292.5799">5</text><text fill="#000000" font-family="sans-serif" font-size="20" lengthAdjust="spacing" textLength="78" x="715.75" y="292.5799">200 (OK)</text><polygon fill="#181818" points="101.5,337.6798,91.5,341.6798,101.5,345.6798,97.5,341.6798" style="stroke:#181818;stroke-width:1.0;"/><line style="stroke:#181818;stroke-width:1.0;stroke-dasharray:2.0,2.0;" x1="95.5" x2="677.125" y1="341.6798" y2="341.6798"/><text fill="#000000" font-family="sans-serif" font-size="20" font-weight="bold" lengthAdjust="spacing" textLength="11.625" x="107.5" y="333.8198">6</text><text fill="#000000" font-family="sans-serif" font-size="20" lengthAdjust="spacing" textLength="282" x="123.125" y="333.8198">returns confirmation message</text><!--SRC=[PP51Qm8n48Nl-HM39mMNYlGauaKHf4WBhRsFcr46DyasCocjlxx9mg9hJo7ac_VUlCY5VOiHNHFg2rcmTCBKw3PuVUShmNncC6dmoHqf6eErXWZhFQ30Q8skJG9xz7YcE39PHxdc5ht2OTSXdom96xwYSl0ZM2xbLvGSZDVFazLgCB7VRBgHVFu7Yp5_erBsDYRxLwjYiSWJ5m4DG9OL48w96yl-VECFkuvVLjNTm2alqQDWKH767XrDBKaTkIrXfmv_mB8ZB_ac4sFfKRFFa1jCAX3fAt4i7MR1OO2CPRXik82tmmSyzUPou_AhAKJLoyvdCnY_lWoS2pHO9vAcw0Ngu4ySNTSpE1B9N_8O-VwUQ_m3]--></g></svg>