<?xml version="1.0" encoding="UTF-8" standalone="no"?><svg xmlns="http://www.w3.org/2000/svg" xmlns:xlink="http://www.w3.org/1999/xlink" contentStyleType="text/css" height="682px" preserveAspectRatio="none" style="width:975px;height:682px;background:#FFFFFF;" version="1.1" viewBox="0 0 975 682" width="975px" zoomAndPan="magnify"><defs/><g><!--cluster LOCAL--><g id="cluster_LOCAL"><polygon fill="none" points="64,16,74,6,293,6,293,163.48,283,173.48,64,173.48,64,16" style="stroke:#181818;stroke-width:1.0;"/><line style="stroke:#181818;stroke-width:1.0;" x1="283" x2="293" y1="16" y2="6"/><line style="stroke:#181818;stroke-width:1.0;" x1="64" x2="283" y1="16" y2="16"/><line style="stroke:#181818;stroke-width:1.0;" x1="283" x2="283" y1="16" y2="173.48"/><text fill="#000000" font-family="sans-serif" font-size="20" font-weight="bold" lengthAdjust="spacing" textLength="109.875" x="119.5625" y="40.38">localhost: ?</text></g><!--cluster S1--><g id="cluster_S1"><polygon fill="none" points="16,314.48,26,304.48,471,304.48,471,631.94,461,641.94,16,641.94,16,314.48" style="stroke:#181818;stroke-width:1.0;"/><line style="stroke:#181818;stroke-width:1.0;" x1="461" x2="471" y1="314.48" y2="304.48"/><line style="stroke:#181818;stroke-width:1.0;" x1="16" x2="461" y1="314.48" y2="314.48"/><line style="stroke:#181818;stroke-width:1.0;" x1="461" x2="461" y1="314.48" y2="641.94"/><text fill="#000000" font-family="sans-serif" font-size="20" font-weight="bold" lengthAdjust="spacing" textLength="99.625" x="189.6875" y="338.86">Server 1: ?</text></g><!--cluster S2--><g id="cluster_S2"><polygon fill="none" points="511,260.48,521,250.48,958,250.48,958,655.94,948,665.94,511,665.94,511,260.48" style="stroke:#181818;stroke-width:1.0;"/><line style="stroke:#181818;stroke-width:1.0;" x1="948" x2="958" y1="260.48" y2="250.48"/><line style="stroke:#181818;stroke-width:1.0;" x1="511" x2="948" y1="260.48" y2="260.48"/><line style="stroke:#181818;stroke-width:1.0;" x1="948" x2="948" y1="260.48" y2="665.94"/><text fill="#000000" font-family="sans-serif" font-size="20" font-weight="bold" lengthAdjust="spacing" textLength="99.625" x="680.6875" y="284.86">Server 2: ?</text></g><!--cluster Visualization--><g id="cluster_Visualization"><path d="M734.5,317.48 L859.625,317.48 A3.75,3.75 0 0 1 862.125,319.98 L869.125,350.72 L923.5,350.72 A2.5,2.5 0 0 1 926,353.22 L926,631.44 A2.5,2.5 0 0 1 923.5,633.94 L734.5,633.94 A2.5,2.5 0 0 1 732,631.44 L732,319.98 A2.5,2.5 0 0 1 734.5,317.48 " fill="none" style="stroke:#000000;stroke-width:1.5;"/><line style="stroke:#000000;stroke-width:1.5;" x1="732" x2="869.125" y1="350.72" y2="350.72"/><text fill="#000000" font-family="sans-serif" font-size="20" font-weight="bold" lengthAdjust="spacing" textLength="124.125" x="736" y="340.86">Visualization</text></g><!--entity B--><g id="elem_B"><rect fill="#F1F1F1" height="84.4799" rx="2.5" ry="2.5" style="stroke:#181818;stroke-width:0.5;" width="162" x="107" y="65"/><rect fill="#F1F1F1" height="10" style="stroke:#181818;stroke-width:0.5;" width="15" x="249" y="70"/><rect fill="#F1F1F1" height="2" style="stroke:#181818;stroke-width:0.5;" width="4" x="247" y="72"/><rect fill="#F1F1F1" height="2" style="stroke:#181818;stroke-width:0.5;" width="4" x="247" y="76"/><text fill="#000000" font-family="sans-serif" font-size="20" font-style="italic" lengthAdjust="spacing" textLength="122" x="122" y="106.38">«component»</text><text fill="#000000" font-family="sans-serif" font-size="20" lengthAdjust="spacing" textLength="78" x="144" y="133.62">Browser</text></g><!--entity IMDM--><g id="elem_IMDM"><rect fill="#F1F1F1" height="84.4799" rx="2.5" ry="2.5" style="stroke:#181818;stroke-width:0.5;" width="202" x="245" y="533.46"/><rect fill="#F1F1F1" height="10" style="stroke:#181818;stroke-width:0.5;" width="15" x="427" y="538.46"/><rect fill="#F1F1F1" height="2" style="stroke:#181818;stroke-width:0.5;" width="4" x="425" y="540.46"/><rect fill="#F1F1F1" height="2" style="stroke:#181818;stroke-width:0.5;" width="4" x="425" y="544.46"/><text fill="#000000" font-family="sans-serif" font-size="20" font-style="italic" lengthAdjust="spacing" textLength="122" x="280" y="574.84">«component»</text><text fill="#000000" font-family="sans-serif" font-size="20" lengthAdjust="spacing" textLength="162" x="260" y="602.08">MD Management</text></g><!--entity AMDM--><g id="elem_AMDM"><rect fill="#F1F1F1" height="77.4799" rx="2.5" ry="2.5" style="stroke:#181818;stroke-width:0.5;" width="192" x="247" y="363.48"/><polygon fill="#F1F1F1" points="422,368.48,422,382.48,434,382.48,434,374.48,428,368.48,422,368.48" style="stroke:#181818;stroke-width:0.5;"/><line style="stroke:#181818;stroke-width:0.5;" x1="428" x2="428" y1="368.48" y2="374.48"/><line style="stroke:#181818;stroke-width:0.5;" x1="434" x2="428" y1="374.48" y2="374.48"/><text fill="#000000" font-family="sans-serif" font-size="20" font-style="italic" lengthAdjust="spacing" textLength="84" x="296" y="397.86">«artifact»</text><text fill="#000000" font-family="sans-serif" font-size="20" lengthAdjust="spacing" textLength="162" x="257" y="425.1">MD Management</text></g><!--entity IP--><g id="elem_IP"><rect fill="#F1F1F1" height="84.4799" rx="2.5" ry="2.5" style="stroke:#181818;stroke-width:0.5;" width="162" x="48" y="533.46"/><rect fill="#F1F1F1" height="10" style="stroke:#181818;stroke-width:0.5;" width="15" x="190" y="538.46"/><rect fill="#F1F1F1" height="2" style="stroke:#181818;stroke-width:0.5;" width="4" x="188" y="540.46"/><rect fill="#F1F1F1" height="2" style="stroke:#181818;stroke-width:0.5;" width="4" x="188" y="544.46"/><text fill="#000000" font-family="sans-serif" font-size="20" font-style="italic" lengthAdjust="spacing" textLength="122" x="63" y="574.84">«component»</text><text fill="#000000" font-family="sans-serif" font-size="20" lengthAdjust="spacing" textLength="81" x="83.5" y="602.08">Planning</text></g><!--entity AP--><g id="elem_AP"><rect fill="#F1F1F1" height="77.4799" rx="2.5" ry="2.5" style="stroke:#181818;stroke-width:0.5;" width="114" x="72" y="363.48"/><polygon fill="#F1F1F1" points="169,368.48,169,382.48,181,382.48,181,374.48,175,368.48,169,368.48" style="stroke:#181818;stroke-width:0.5;"/><line style="stroke:#181818;stroke-width:0.5;" x1="175" x2="175" y1="368.48" y2="374.48"/><line style="stroke:#181818;stroke-width:0.5;" x1="181" x2="175" y1="374.48" y2="374.48"/><text fill="#000000" font-family="sans-serif" font-size="20" font-style="italic" lengthAdjust="spacing" textLength="84" x="82" y="397.86">«artifact»</text><text fill="#000000" font-family="sans-serif" font-size="20" lengthAdjust="spacing" textLength="81" x="83.5" y="425.1">Planning</text></g><!--entity SERV--><g id="elem_SERV"><rect fill="#F1F1F1" height="84.4799" rx="2.5" ry="2.5" style="stroke:#181818;stroke-width:0.5;" width="162" x="554" y="359.98"/><rect fill="#F1F1F1" height="10" style="stroke:#181818;stroke-width:0.5;" width="15" x="696" y="364.98"/><rect fill="#F1F1F1" height="2" style="stroke:#181818;stroke-width:0.5;" width="4" x="694" y="366.98"/><rect fill="#F1F1F1" height="2" style="stroke:#181818;stroke-width:0.5;" width="4" x="694" y="370.98"/><text fill="#000000" font-family="sans-serif" font-size="20" font-style="italic" lengthAdjust="spacing" textLength="122" x="569" y="401.36">«component»</text><text fill="#000000" font-family="sans-serif" font-size="20" lengthAdjust="spacing" textLength="113" x="573.5" y="428.6">HTTP Server</text></g><!--entity AV--><g id="elem_AV"><rect fill="#F1F1F1" height="77.4799" rx="2.5" ry="2.5" style="stroke:#181818;stroke-width:0.5;" width="146" x="751" y="363.48"/><polygon fill="#F1F1F1" points="880,368.48,880,382.48,892,382.48,892,374.48,886,368.48,880,368.48" style="stroke:#181818;stroke-width:0.5;"/><line style="stroke:#181818;stroke-width:0.5;" x1="886" x2="886" y1="368.48" y2="374.48"/><line style="stroke:#181818;stroke-width:0.5;" x1="892" x2="886" y1="374.48" y2="374.48"/><text fill="#000000" font-family="sans-serif" font-size="20" font-style="italic" lengthAdjust="spacing" textLength="84" x="777" y="397.86">«artifact»</text><text fill="#000000" font-family="sans-serif" font-size="20" lengthAdjust="spacing" textLength="116" x="761" y="425.1">Visualization</text></g><!--entity IV--><g id="elem_IV"><rect fill="#F1F1F1" height="84.4799" rx="2.5" ry="2.5" style="stroke:#181818;stroke-width:0.5;" width="162" x="748" y="533.46"/><rect fill="#F1F1F1" height="10" style="stroke:#181818;stroke-width:0.5;" width="15" x="890" y="538.46"/><rect fill="#F1F1F1" height="2" style="stroke:#181818;stroke-width:0.5;" width="4" x="888" y="540.46"/><rect fill="#F1F1F1" height="2" style="stroke:#181818;stroke-width:0.5;" width="4" x="888" y="544.46"/><text fill="#000000" font-family="sans-serif" font-size="20" font-style="italic" lengthAdjust="spacing" textLength="122" x="763" y="574.84">«component»</text><text fill="#000000" font-family="sans-serif" font-size="20" lengthAdjust="spacing" textLength="116" x="766" y="602.08">Visualization</text></g><!--link LOCAL to S1--><g id="link_LOCAL_S1"><path d="M63.8755,128.2533 C63.8203,128.3953 63.7649,128.5378 63.7093,128.681 C63.487,129.2538 63.2615,129.8364 63.0331,130.4285 C62.5764,131.6129 62.1079,132.8355 61.6293,134.0942 C59.7147,139.1287 57.6362,144.7391 55.485,150.7788 C46.88,174.9375 37.11,205.965 32,234.48 C28.7775,252.4525 26.6569,271.6775 25.2909,290.45 C24.9495,295.1431 24.6551,299.808 24.4026,304.4179 " fill="none" id="LOCAL-S1" style="stroke:#181818;stroke-width:1.0;"/><text fill="#000000" font-family="sans-serif" font-size="20" lengthAdjust="spacing" textLength="55" x="42" y="219.86">http/s</text></g><!--link LOCAL to S2--><g id="link_LOCAL_S2"><path d="M79.4524,173.7609 C79.5135,173.8867 79.575,174.0123 79.6369,174.1376 C79.7607,174.3883 79.8861,174.6381 80.0132,174.8869 C80.2674,175.3844 80.5281,175.8781 80.7956,176.3675 C81.3307,177.3464 81.8927,178.3084 82.4829,179.2511 C84.8438,183.0219 87.6563,186.4838 91,189.48 C122.01,217.27 430.72,208.18 463,234.48 C477.915,246.63 488.8806,262.8981 496.9373,280.5216 C500.9657,289.3333 504.2668,298.4838 506.9708,307.6279 C508.3228,312.1999 509.5255,316.7702 510.5951,321.2958 C510.7288,321.8615 510.8605,322.4265 510.99,322.9907 " fill="none" id="LOCAL-S2" style="stroke:#181818;stroke-width:1.0;"/><text fill="#000000" font-family="sans-serif" font-size="20" lengthAdjust="spacing" textLength="55" x="441" y="219.86">http/s</text></g><!--link AV to IV--><g id="link_AV_IV"><path d="M825.11,441.28 C825.85,466.7 826.83,500.33 827.62,527.46 " fill="none" id="AV-to-IV" style="stroke:#181818;stroke-width:1.0;stroke-dasharray:7.0,7.0;"/><polygon fill="#181818" points="827.79,532.15,831.5313,523.0394,827.6472,527.152,823.5346,523.2679,827.79,532.15" style="stroke:#181818;stroke-width:1.0;"/><text fill="#000000" font-family="sans-serif" font-size="20" lengthAdjust="spacing" textLength="102" x="827" y="496.84">«manifest»</text></g><!--link AP to IP--><g id="link_AP_IP"><path d="M129,441.28 C129,466.7 129,500.33 129,527.46 " fill="none" id="AP-to-IP" style="stroke:#181818;stroke-width:1.0;stroke-dasharray:7.0,7.0;"/><polygon fill="#181818" points="129,532.15,133,523.15,129,527.15,125,523.15,129,532.15" style="stroke:#181818;stroke-width:1.0;"/><text fill="#000000" font-family="sans-serif" font-size="20" lengthAdjust="spacing" textLength="102" x="130" y="496.84">«manifest»</text></g><!--link AMDM to IMDM--><g id="link_AMDM_IMDM"><path d="M343.67,441.28 C344.11,466.7 344.7,500.33 345.17,527.46 " fill="none" id="AMDM-to-IMDM" style="stroke:#181818;stroke-width:1.0;stroke-dasharray:7.0,7.0;"/><polygon fill="#181818" points="345.27,532.15,349.1151,523.0828,345.1843,527.1507,341.1163,523.2199,345.27,532.15" style="stroke:#181818;stroke-width:1.0;"/><text fill="#000000" font-family="sans-serif" font-size="20" lengthAdjust="spacing" textLength="102" x="345" y="496.84">«manifest»</text></g><!--SRC=[XL9TQuCm57ttLrnyRxVwACLXruqLAfDPVBzeR8EQI99kqD7_lYJEpaPXBn9pFkuvIMHDMOS2suONDIcX91MU6_NAcSheXK3mw7cCbmHyJS3cnAKAuSa7bB1_VuxtyEq15BpjE2DCWRyH_4iIOGaRMAzlK1HPwjMx3eOP4Pz4m6hmorQkMRA511aUIQj_BMUNR9DPL_r1eMY5nQmkxdK3PImRpKiRP8ooOpyg_N_GdI1EvoQuTODRtS2j-tOufD3JUiRBH-vc06CA9aM7HQqhWfzJUSQ6Nb1HpdnhEixem2PeFWtwM-qkprIvosVEn4XjKnshVnEBXRdC44vATGzoj1dyRNewnN8P6SjGcxR8Q4MazlJqELeWdG3c4Yra5Wxu0m00]--></g></svg>