<?xml version="1.0" encoding="UTF-8" standalone="no"?><svg xmlns="http://www.w3.org/2000/svg" xmlns:xlink="http://www.w3.org/1999/xlink" contentStyleType="text/css" height="640px" preserveAspectRatio="none" style="width:1244px;height:640px;background:#FFFFFF;" version="1.1" viewBox="0 0 1244 640" width="1244px" zoomAndPan="magnify"><defs/><g><!--cluster LOCAL--><g id="cluster_LOCAL"><polygon fill="none" points="66,16,76,6,311,6,311,152,301,162,66,162,66,16" style="stroke:#181818;stroke-width:1.0;"/><line style="stroke:#181818;stroke-width:1.0;" x1="301" x2="311" y1="16" y2="6"/><line style="stroke:#181818;stroke-width:1.0;" x1="66" x2="301" y1="16" y2="16"/><line style="stroke:#181818;stroke-width:1.0;" x1="301" x2="301" y1="16" y2="162"/><text fill="#000000" font-family="sans-serif" font-size="20" font-weight="bold" lengthAdjust="spacing" textLength="131" x="119" y="37.5645">localhost: ?</text></g><!--cluster S1--><g id="cluster_S1"><polygon fill="none" points="16,295,26,285,708,285,708,589.5,698,599.5,16,599.5,16,295" style="stroke:#181818;stroke-width:1.0;"/><line style="stroke:#181818;stroke-width:1.0;" x1="698" x2="708" y1="295" y2="285"/><line style="stroke:#181818;stroke-width:1.0;" x1="16" x2="698" y1="295" y2="295"/><line style="stroke:#181818;stroke-width:1.0;" x1="698" x2="698" y1="295" y2="599.5"/><text fill="#000000" font-family="sans-serif" font-size="20" font-weight="bold" lengthAdjust="spacing" textLength="123" x="296.5" y="316.5645">Server 1: ?</text></g><!--cluster S2--><g id="cluster_S2"><polygon fill="none" points="748,245,758,235,1227,235,1227,613.5,1217,623.5,748,623.5,748,245" style="stroke:#181818;stroke-width:1.0;"/><line style="stroke:#181818;stroke-width:1.0;" x1="1217" x2="1227" y1="245" y2="235"/><line style="stroke:#181818;stroke-width:1.0;" x1="748" x2="1217" y1="245" y2="245"/><line style="stroke:#181818;stroke-width:1.0;" x1="1217" x2="1217" y1="245" y2="623.5"/><text fill="#000000" font-family="sans-serif" font-size="20" font-weight="bold" lengthAdjust="spacing" textLength="123" x="922" y="266.5645">Server 2: ?</text></g><!--cluster Visualization--><g id="cluster_Visualization"><path d="M987.5,298 L1135.5,298 A3.75,3.75 0 0 1 1138,300.5 L1145,327.2813 L1192.5,327.2813 A2.5,2.5 0 0 1 1195,329.7813 L1195,589 A2.5,2.5 0 0 1 1192.5,591.5 L987.5,591.5 A2.5,2.5 0 0 1 985,589 L985,300.5 A2.5,2.5 0 0 1 987.5,298 " fill="none" style="stroke:#000000;stroke-width:1.5;"/><line style="stroke:#000000;stroke-width:1.5;" x1="985" x2="1145" y1="327.2813" y2="327.2813"/><text fill="#000000" font-family="sans-serif" font-size="20" font-weight="bold" lengthAdjust="spacing" textLength="147" x="989" y="318.5645">Visualization</text></g><!--entity B--><g id="elem_B"><rect fill="#F1F1F1" height="76.5625" rx="2.5" ry="2.5" style="stroke:#181818;stroke-width:0.5;" width="178" x="109" y="61"/><rect fill="#F1F1F1" height="10" style="stroke:#181818;stroke-width:0.5;" width="15" x="267" y="66"/><rect fill="#F1F1F1" height="2" style="stroke:#181818;stroke-width:0.5;" width="4" x="265" y="68"/><rect fill="#F1F1F1" height="2" style="stroke:#181818;stroke-width:0.5;" width="4" x="265" y="72"/><text fill="#000000" font-family="sans-serif" font-size="20" font-style="italic" lengthAdjust="spacing" textLength="138" x="124" y="99.5645">«component»</text><text fill="#000000" font-family="sans-serif" font-size="20" lengthAdjust="spacing" textLength="81" x="152.5" y="122.8457">Browser</text></g><!--entity IMDM--><g id="elem_IMDM"><rect fill="#F1F1F1" height="76.5625" rx="2.5" ry="2.5" style="stroke:#181818;stroke-width:0.5;" width="210" x="474" y="498.5"/><rect fill="#F1F1F1" height="10" style="stroke:#181818;stroke-width:0.5;" width="15" x="664" y="503.5"/><rect fill="#F1F1F1" height="2" style="stroke:#181818;stroke-width:0.5;" width="4" x="662" y="505.5"/><rect fill="#F1F1F1" height="2" style="stroke:#181818;stroke-width:0.5;" width="4" x="662" y="509.5"/><text fill="#000000" font-family="sans-serif" font-size="20" font-style="italic" lengthAdjust="spacing" textLength="138" x="505" y="537.0645">«component»</text><text fill="#000000" font-family="sans-serif" font-size="20" lengthAdjust="spacing" textLength="170" x="489" y="560.3457">MD Management</text></g><!--entity AMDM--><g id="elem_AMDM"><rect fill="#F1F1F1" height="69.5625" rx="2.5" ry="2.5" style="stroke:#181818;stroke-width:0.5;" width="200" x="470" y="340"/><polygon fill="#F1F1F1" points="653,345,653,359,665,359,665,351,659,345,653,345" style="stroke:#181818;stroke-width:0.5;"/><line style="stroke:#181818;stroke-width:0.5;" x1="659" x2="659" y1="345" y2="351"/><line style="stroke:#181818;stroke-width:0.5;" x1="665" x2="659" y1="351" y2="351"/><text fill="#000000" font-family="sans-serif" font-size="20" font-style="italic" lengthAdjust="spacing" textLength="96" x="517" y="371.5645">«artifact»</text><text fill="#000000" font-family="sans-serif" font-size="20" lengthAdjust="spacing" textLength="170" x="480" y="394.8457">MD Management</text></g><!--entity IP--><g id="elem_IP"><rect fill="#F1F1F1" height="76.5625" rx="2.5" ry="2.5" style="stroke:#181818;stroke-width:0.5;" width="178" x="261" y="498.5"/><rect fill="#F1F1F1" height="10" style="stroke:#181818;stroke-width:0.5;" width="15" x="419" y="503.5"/><rect fill="#F1F1F1" height="2" style="stroke:#181818;stroke-width:0.5;" width="4" x="417" y="505.5"/><rect fill="#F1F1F1" height="2" style="stroke:#181818;stroke-width:0.5;" width="4" x="417" y="509.5"/><text fill="#000000" font-family="sans-serif" font-size="20" font-style="italic" lengthAdjust="spacing" textLength="138" x="276" y="537.0645">«component»</text><text fill="#000000" font-family="sans-serif" font-size="20" lengthAdjust="spacing" textLength="88" x="301" y="560.3457">Planning</text></g><!--entity AP--><g id="elem_AP"><rect fill="#F1F1F1" height="69.5625" rx="2.5" ry="2.5" style="stroke:#181818;stroke-width:0.5;" width="126" x="287" y="340"/><polygon fill="#F1F1F1" points="396,345,396,359,408,359,408,351,402,345,396,345" style="stroke:#181818;stroke-width:0.5;"/><line style="stroke:#181818;stroke-width:0.5;" x1="402" x2="402" y1="345" y2="351"/><line style="stroke:#181818;stroke-width:0.5;" x1="408" x2="402" y1="351" y2="351"/><text fill="#000000" font-family="sans-serif" font-size="20" font-style="italic" lengthAdjust="spacing" textLength="96" x="297" y="371.5645">«artifact»</text><text fill="#000000" font-family="sans-serif" font-size="20" lengthAdjust="spacing" textLength="88" x="301" y="394.8457">Planning</text></g><!--entity IMDT--><g id="elem_IMDT"><rect fill="#F1F1F1" height="76.5625" rx="2.5" ry="2.5" style="stroke:#181818;stroke-width:0.5;" width="178" x="48" y="498.5"/><rect fill="#F1F1F1" height="10" style="stroke:#181818;stroke-width:0.5;" width="15" x="206" y="503.5"/><rect fill="#F1F1F1" height="2" style="stroke:#181818;stroke-width:0.5;" width="4" x="204" y="505.5"/><rect fill="#F1F1F1" height="2" style="stroke:#181818;stroke-width:0.5;" width="4" x="204" y="509.5"/><text fill="#000000" font-family="sans-serif" font-size="20" font-style="italic" lengthAdjust="spacing" textLength="138" x="63" y="537.0645">«component»</text><text fill="#000000" font-family="sans-serif" font-size="20" lengthAdjust="spacing" textLength="94" x="85" y="560.3457">MD Tasks</text></g><!--entity AMDT--><g id="elem_AMDT"><rect fill="#F1F1F1" height="69.5625" rx="2.5" ry="2.5" style="stroke:#181818;stroke-width:0.5;" width="126" x="74" y="340"/><polygon fill="#F1F1F1" points="183,345,183,359,195,359,195,351,189,345,183,345" style="stroke:#181818;stroke-width:0.5;"/><line style="stroke:#181818;stroke-width:0.5;" x1="189" x2="189" y1="345" y2="351"/><line style="stroke:#181818;stroke-width:0.5;" x1="195" x2="189" y1="351" y2="351"/><text fill="#000000" font-family="sans-serif" font-size="20" font-style="italic" lengthAdjust="spacing" textLength="96" x="84" y="371.5645">«artifact»</text><text fill="#000000" font-family="sans-serif" font-size="20" lengthAdjust="spacing" textLength="94" x="85" y="394.8457">MD Tasks</text></g><!--entity SERV--><g id="elem_SERV"><rect fill="#F1F1F1" height="76.5625" rx="2.5" ry="2.5" style="stroke:#181818;stroke-width:0.5;" width="178" x="791" y="336.5"/><rect fill="#F1F1F1" height="10" style="stroke:#181818;stroke-width:0.5;" width="15" x="949" y="341.5"/><rect fill="#F1F1F1" height="2" style="stroke:#181818;stroke-width:0.5;" width="4" x="947" y="343.5"/><rect fill="#F1F1F1" height="2" style="stroke:#181818;stroke-width:0.5;" width="4" x="947" y="347.5"/><text fill="#000000" font-family="sans-serif" font-size="20" font-style="italic" lengthAdjust="spacing" textLength="138" x="806" y="375.0645">«component»</text><text fill="#000000" font-family="sans-serif" font-size="20" lengthAdjust="spacing" textLength="121" x="814.5" y="398.3457">HTTP Server</text></g><!--entity AV--><g id="elem_AV"><rect fill="#F1F1F1" height="69.5625" rx="2.5" ry="2.5" style="stroke:#181818;stroke-width:0.5;" width="159" x="1003.5" y="340"/><polygon fill="#F1F1F1" points="1145.5,345,1145.5,359,1157.5,359,1157.5,351,1151.5,345,1145.5,345" style="stroke:#181818;stroke-width:0.5;"/><line style="stroke:#181818;stroke-width:0.5;" x1="1151.5" x2="1151.5" y1="345" y2="351"/><line style="stroke:#181818;stroke-width:0.5;" x1="1157.5" x2="1151.5" y1="351" y2="351"/><text fill="#000000" font-family="sans-serif" font-size="20" font-style="italic" lengthAdjust="spacing" textLength="96" x="1030" y="371.5645">«artifact»</text><text fill="#000000" font-family="sans-serif" font-size="20" lengthAdjust="spacing" textLength="129" x="1013.5" y="394.8457">Visualization</text></g><!--entity IV--><g id="elem_IV"><rect fill="#F1F1F1" height="76.5625" rx="2.5" ry="2.5" style="stroke:#181818;stroke-width:0.5;" width="178" x="1001" y="498.5"/><rect fill="#F1F1F1" height="10" style="stroke:#181818;stroke-width:0.5;" width="15" x="1159" y="503.5"/><rect fill="#F1F1F1" height="2" style="stroke:#181818;stroke-width:0.5;" width="4" x="1157" y="505.5"/><rect fill="#F1F1F1" height="2" style="stroke:#181818;stroke-width:0.5;" width="4" x="1157" y="509.5"/><text fill="#000000" font-family="sans-serif" font-size="20" font-style="italic" lengthAdjust="spacing" textLength="138" x="1016" y="537.0645">«component»</text><text fill="#000000" font-family="sans-serif" font-size="20" lengthAdjust="spacing" textLength="129" x="1020.5" y="560.3457">Visualization</text></g><!--link LOCAL to S1--><g id="link_LOCAL_S1"><path d="M65.9816,118.0158 C65.0742,120.0825 64.1117,122.3014 63.1063,124.6558 C61.0955,129.3645 58.9128,134.6147 56.6538,140.2713 C47.6175,162.8975 37.36,192.025 32,219 C28.6925,235.65 26.5281,253.4925 25.1447,270.9322 C24.7988,275.2921 24.5018,279.6269 24.2479,283.9115 C24.232,284.1793 24.2163,284.4469 24.2008,284.7143 " fill="none" id="LOCAL-S1" style="stroke:#181818;stroke-width:1.0;"/><text fill="#000000" font-family="sans-serif" font-size="20" lengthAdjust="spacing" textLength="59" x="41" y="205.5645">http/s</text></g><!--link LOCAL to S2--><g id="link_LOCAL_S2"><path d="M81.0869,162.2141 C81.203,162.4546 81.3207,162.6942 81.44,162.9329 C82.3941,164.8423 83.4486,166.6924 84.6133,168.4642 C86.9427,172.0077 89.7125,175.2375 93,178 C144.75,221.49 646.01,178.32 700,219 C714.395,229.8475 725.0962,244.7431 733.05,261.0375 C737.0269,269.1847 740.3169,277.6816 743.0383,286.197 C744.399,290.4546 745.6175,294.717 746.7087,298.9425 C746.9815,299.9989 747.2464,301.053 747.5035,302.1042 C747.632,302.6297 747.7587,303.1546 747.8834,303.6786 " fill="none" id="LOCAL-S2" style="stroke:#181818;stroke-width:1.0;"/><text fill="#000000" font-family="sans-serif" font-size="20" lengthAdjust="spacing" textLength="59" x="679" y="205.5645">http/s</text></g><!--link AV to IV--><g id="link_AV_IV"><path d="M1084.5,410.32 C1085.56,434.6 1086.99,467.31 1088.13,493.28 " fill="none" id="AV-to-IV" style="stroke:#181818;stroke-width:1.0;stroke-dasharray:7.0,7.0;"/><polygon fill="#181818" points="1088.35,498.38,1091.9598,489.2165,1088.1353,493.3846,1083.9672,489.5601,1088.35,498.38" style="stroke:#181818;stroke-width:1.0;"/><text fill="#000000" font-family="sans-serif" font-size="20" lengthAdjust="spacing" textLength="112" x="1087" y="463.0645">«manifest»</text></g><!--link AP to IP--><g id="link_AP_IP"><path d="M350,410.32 C350,434.6 350,467.31 350,493.28 " fill="none" id="AP-to-IP" style="stroke:#181818;stroke-width:1.0;stroke-dasharray:7.0,7.0;"/><polygon fill="#181818" points="350,498.38,354,489.38,350,493.38,346,489.38,350,498.38" style="stroke:#181818;stroke-width:1.0;"/><text fill="#000000" font-family="sans-serif" font-size="20" lengthAdjust="spacing" textLength="112" x="351" y="463.0645">«manifest»</text></g><!--link AMDM to IMDM--><g id="link_AMDM_IMDM"><path d="M571.93,410.32 C573.3,434.6 575.14,467.31 576.6,493.28 " fill="none" id="AMDM-to-IMDM" style="stroke:#181818;stroke-width:1.0;stroke-dasharray:7.0,7.0;"/><polygon fill="#181818" points="576.88,498.38,580.3848,489.1759,576.6082,493.3874,572.3967,489.6108,576.88,498.38" style="stroke:#181818;stroke-width:1.0;"/><text fill="#000000" font-family="sans-serif" font-size="20" lengthAdjust="spacing" textLength="112" x="576" y="463.0645">«manifest»</text></g><!--link AMDT to IMDT--><g id="link_AMDT_IMDT"><path d="M137,410.32 C137,434.6 137,467.31 137,493.28 " fill="none" id="AMDT-to-IMDT" style="stroke:#181818;stroke-width:1.0;stroke-dasharray:7.0,7.0;"/><polygon fill="#181818" points="137,498.38,141,489.38,137,493.38,133,489.38,137,498.38" style="stroke:#181818;stroke-width:1.0;"/><text fill="#000000" font-family="sans-serif" font-size="20" lengthAdjust="spacing" textLength="112" x="138" y="463.0645">«manifest»</text></g><!--SRC=[ZLBVQuCm47xFNt7utcxrKOh3jXihL2Qh-7veR8EQY4atwEZ_lYJErghGlKZCz-E-kvmi6A-nmQeKQK4po6YEfrAz2Qxsx4p1VIQ4Yuo2embO7eLK7hmuW19s7-jW1py481LLBJZb2fnL8xubRInX1Slb5V9zIxsGIsUufyqNRM3H-UqNGxDm0o5oFD1A_rhEDjo4awxwWurYEQQJkg3LTPI-h5SlAf5pnWzjgUXneJj143ske9F5A0lPDHF_gvcR96Wbeoh3eRhNeRh3eRx7SGGjhMMyVYR3561CmUIeCItq8C59c3nXoSwecE2EDUsd7C0cQZ8E-jVSNPwnSfjCJCL8RQSwLhjvivbP6G-EIjLFidVftYw9JZ6V-yRIqwOLSfPJgJs9VYqBH2F0h8g5p64CnXqO3y5V]--></g></svg>