<?xml version="1.0" encoding="UTF-8" standalone="no"?><svg xmlns="http://www.w3.org/2000/svg" xmlns:xlink="http://www.w3.org/1999/xlink" contentStyleType="text/css" height="846px" preserveAspectRatio="none" style="width:1427px;height:846px;background:#FFFFFF;" version="1.1" viewBox="0 0 1427 846" width="1427px" zoomAndPan="magnify"><defs/><g><!--cluster RobDroneGo--><g id="cluster_RobDroneGo"><path d="M1080.5,7.2168 L1223.5,7.2168 A3.75,3.75 0 0 1 1226,9.7168 L1233,36.498 L1307.5,36.498 A2.5,2.5 0 0 1 1310,38.998 L1310,402.7168 A2.5,2.5 0 0 1 1307.5,405.2168 L1080.5,405.2168 A2.5,2.5 0 0 1 1078,402.7168 L1078,9.7168 A2.5,2.5 0 0 1 1080.5,7.2168 " fill="none" style="stroke:#000000;stroke-width:1.5;"/><line style="stroke:#000000;stroke-width:1.5;" x1="1078" x2="1233" y1="36.498" y2="36.498"/><text fill="#000000" font-family="sans-serif" font-size="20" font-weight="bold" lengthAdjust="spacing" textLength="142" x="1082" y="27.7813">RobDroneGo</text></g><!--cluster RobDroneGo System--><g id="cluster_RobDroneGo System"><rect fill="none" height="481.5" rx="2.5" ry="2.5" style="stroke:#181818;stroke-width:1.0;" width="1055" x="7" y="358.7168"/><rect fill="none" height="10" style="stroke:#181818;stroke-width:1.0;" width="15" x="1042" y="363.7168"/><rect fill="none" height="2" style="stroke:#181818;stroke-width:1.0;" width="4" x="1040" y="365.7168"/><rect fill="none" height="2" style="stroke:#181818;stroke-width:1.0;" width="4" x="1040" y="369.7168"/><text fill="#000000" font-family="sans-serif" font-size="20" font-style="italic" lengthAdjust="spacing" textLength="138" x="465.5" y="390.2813">«component»</text><text fill="#000000" font-family="sans-serif" font-size="20" font-style="italic" lengthAdjust="spacing" textLength="145" x="462" y="413.5625">«system (C4)»</text><text fill="#000000" font-family="sans-serif" font-size="20" font-weight="bold" lengthAdjust="spacing" textLength="233" x="418" y="436.8438">RobDroneGo System</text></g><!--entity PV--><g id="elem_PV"><path d="M1096,328.2168 L1137,328.2168 A3.75,3.75 0 0 1 1139.5,330.7168 L1146.5,349.2168 L1250,349.2168 A2.5,2.5 0 0 1 1252.5,351.7168 L1252.5,386.998 A2.5,2.5 0 0 1 1250,389.498 L1096,389.498 A2.5,2.5 0 0 1 1093.5,386.998 L1093.5,330.7168 A2.5,2.5 0 0 1 1096,328.2168 " fill="#F1F1F1" style="stroke:#181818;stroke-width:0.5;"/><line style="stroke:#181818;stroke-width:0.5;" x1="1093.5" x2="1146.5" y1="349.2168" y2="349.2168"/><text fill="#000000" font-family="sans-serif" font-size="20" lengthAdjust="spacing" textLength="129" x="1103.5" y="374.7813">Visualization</text></g><!--entity PMDM--><g id="elem_PMDM"><path d="M1096.5,176.7168 L1137.5,176.7168 A3.75,3.75 0 0 1 1140,179.2168 L1147,197.7168 L1291.5,197.7168 A2.5,2.5 0 0 1 1294,200.2168 L1294,235.498 A2.5,2.5 0 0 1 1291.5,237.998 L1096.5,237.998 A2.5,2.5 0 0 1 1094,235.498 L1094,179.2168 A2.5,2.5 0 0 1 1096.5,176.7168 " fill="#F1F1F1" style="stroke:#181818;stroke-width:0.5;"/><line style="stroke:#181818;stroke-width:0.5;" x1="1094" x2="1147" y1="197.7168" y2="197.7168"/><text fill="#000000" font-family="sans-serif" font-size="20" lengthAdjust="spacing" textLength="170" x="1104" y="223.2813">MD Management</text></g><!--entity PP--><g id="elem_PP"><path d="M1116.5,49.2168 L1157.5,49.2168 A3.75,3.75 0 0 1 1160,51.7168 L1167,70.2168 L1229.5,70.2168 A2.5,2.5 0 0 1 1232,72.7168 L1232,107.998 A2.5,2.5 0 0 1 1229.5,110.498 L1116.5,110.498 A2.5,2.5 0 0 1 1114,107.998 L1114,51.7168 A2.5,2.5 0 0 1 1116.5,49.2168 " fill="#F1F1F1" style="stroke:#181818;stroke-width:0.5;"/><line style="stroke:#181818;stroke-width:0.5;" x1="1114" x2="1167" y1="70.2168" y2="70.2168"/><text fill="#000000" font-family="sans-serif" font-size="20" lengthAdjust="spacing" textLength="88" x="1124" y="95.7813">Planning</text></g><text fill="#000000" font-family="sans-serif" font-size="20" lengthAdjust="spacing" textLength="6" x="616" y="336"> </text><rect fill="#F1F1F1" height="12" style="stroke:#181818;stroke-width:1.5;" width="12" x="613" y="352.7168"/><!--entity API--><g id="elem_API"><ellipse cx="575" cy="650.2168" fill="#F1F1F1" rx="8" ry="8" style="stroke:#181818;stroke-width:0.5;"/><text fill="#000000" font-family="sans-serif" font-size="20" lengthAdjust="spacing" textLength="171" x="489.5" y="685.7813">API-Management</text></g><!--entity PAPI--><g id="elem_PAPI"><ellipse cx="258" cy="650.2168" fill="#F1F1F1" rx="8" ry="8" style="stroke:#181818;stroke-width:0.5;"/><text fill="#000000" font-family="sans-serif" font-size="20" lengthAdjust="spacing" textLength="127" x="194.5" y="685.7813">API-Planning</text></g><!--entity V--><g id="elem_V"><rect fill="#F1F1F1" height="76.5625" rx="2.5" ry="2.5" style="stroke:#181818;stroke-width:0.5;" width="352" x="694" y="476.2168"/><rect fill="#F1F1F1" height="10" style="stroke:#181818;stroke-width:0.5;" width="15" x="1026" y="481.2168"/><rect fill="#F1F1F1" height="2" style="stroke:#181818;stroke-width:0.5;" width="4" x="1024" y="483.2168"/><rect fill="#F1F1F1" height="2" style="stroke:#181818;stroke-width:0.5;" width="4" x="1024" y="487.2168"/><text fill="#000000" font-family="sans-serif" font-size="20" font-style="italic" lengthAdjust="spacing" textLength="312" x="709" y="514.7813">«component» «container (C4)»</text><text fill="#000000" font-family="sans-serif" font-size="20" lengthAdjust="spacing" textLength="129" x="800.5" y="538.0625">Visualization</text></g><!--entity MDM--><g id="elem_MDM"><rect fill="#F1F1F1" height="76.5625" rx="2.5" ry="2.5" style="stroke:#181818;stroke-width:0.5;" width="352" x="399" y="747.2168"/><rect fill="#F1F1F1" height="10" style="stroke:#181818;stroke-width:0.5;" width="15" x="731" y="752.2168"/><rect fill="#F1F1F1" height="2" style="stroke:#181818;stroke-width:0.5;" width="4" x="729" y="754.2168"/><rect fill="#F1F1F1" height="2" style="stroke:#181818;stroke-width:0.5;" width="4" x="729" y="758.2168"/><text fill="#000000" font-family="sans-serif" font-size="20" font-style="italic" lengthAdjust="spacing" textLength="312" x="414" y="785.7813">«component» «container (C4)»</text><text fill="#000000" font-family="sans-serif" font-size="20" lengthAdjust="spacing" textLength="170" x="485" y="809.0625">MD Management</text></g><!--entity P--><g id="elem_P"><rect fill="#F1F1F1" height="76.5625" rx="2.5" ry="2.5" style="stroke:#181818;stroke-width:0.5;" width="352" x="23" y="476.2168"/><rect fill="#F1F1F1" height="10" style="stroke:#181818;stroke-width:0.5;" width="15" x="355" y="481.2168"/><rect fill="#F1F1F1" height="2" style="stroke:#181818;stroke-width:0.5;" width="4" x="353" y="483.2168"/><rect fill="#F1F1F1" height="2" style="stroke:#181818;stroke-width:0.5;" width="4" x="353" y="487.2168"/><text fill="#000000" font-family="sans-serif" font-size="20" font-style="italic" lengthAdjust="spacing" textLength="312" x="38" y="514.7813">«component» «container (C4)»</text><text fill="#000000" font-family="sans-serif" font-size="20" lengthAdjust="spacing" textLength="88" x="150" y="538.0625">Planning</text></g><!--entity AUI--><g id="elem_AUI"><ellipse cx="752" cy="207.2168" fill="#F1F1F1" rx="8" ry="8" style="stroke:#181818;stroke-width:0.5;"/><text fill="#000000" font-family="sans-serif" font-size="20" lengthAdjust="spacing" textLength="93" x="705.5" y="242.7813">Admin UI</text></g><!--entity CUI--><g id="elem_CUI"><ellipse cx="950" cy="207.2168" fill="#F1F1F1" rx="8" ry="8" style="stroke:#181818;stroke-width:0.5;"/><text fill="#000000" font-family="sans-serif" font-size="20" lengthAdjust="spacing" textLength="202" x="849" y="242.7813">Campus Manager UI</text></g><!--entity FUI--><g id="elem_FUI"><ellipse cx="230" cy="207.2168" fill="#F1F1F1" rx="8" ry="8" style="stroke:#181818;stroke-width:0.5;"/><text fill="#000000" font-family="sans-serif" font-size="20" lengthAdjust="spacing" textLength="170" x="145" y="242.7813">Fleet Manager UI</text></g><!--entity TUI--><g id="elem_TUI"><ellipse cx="449" cy="207.2168" fill="#F1F1F1" rx="8" ry="8" style="stroke:#181818;stroke-width:0.5;"/><text fill="#000000" font-family="sans-serif" font-size="20" lengthAdjust="spacing" textLength="166" x="366" y="242.7813">Task Manager UI</text></g><!--entity UUI--><g id="elem_UUI"><ellipse cx="619" cy="207.2168" fill="#F1F1F1" rx="8" ry="8" style="stroke:#181818;stroke-width:0.5;"/><text fill="#000000" font-family="sans-serif" font-size="20" lengthAdjust="spacing" textLength="72" x="583" y="242.7813">User UI</text></g><!--reverse link PMDM to PV--><g id="link_PMDM_PV"><path d="M1189.14,242.7868 C1185.52,268.5768 1180.62,303.4368 1177.18,327.9868 " fill="none" id="PMDM-backto-PV" style="stroke:#181818;stroke-width:1.0;stroke-dasharray:7.0,7.0;"/><polygon fill="#181818" points="1189.85,237.7568,1184.6309,246.1091,1189.1509,242.7077,1192.5523,247.2277,1189.85,237.7568" style="stroke:#181818;stroke-width:1.0;"/></g><!--reverse link PP to PMDM--><g id="link_PP_PMDM"><path d="M1178.86,115.7468 C1182.07,134.9268 1186.01,158.4468 1189.06,176.6868 " fill="none" id="PP-backto-PMDM" style="stroke:#181818;stroke-width:1.0;stroke-dasharray:7.0,7.0;"/><polygon fill="#181818" points="1177.98,110.4568,1175.5275,119.9954,1178.8089,115.3876,1183.4167,118.6691,1177.98,110.4568" style="stroke:#181818;stroke-width:1.0;"/></g><!--link V to P1--><g id="link_V_P1"><path d="M808.64,476.0668 C744.61,436.7868 650.12,378.8068 625.2,363.5268 " fill="none" id="V-P1" style="stroke:#181818;stroke-width:1.0;"/></g><!--link API to MDM--><g id="link_API_MDM"><path d="M575,659.5668 C575,676.6968 575,716.7168 575,746.9268 " fill="none" id="API-MDM" style="stroke:#181818;stroke-width:1.0;"/></g><!--link V to API--><g id="link_V_API"><path d="M787.04,553.2568 C720.37,583.4268 631.79,623.5168 593.7,640.7568 " fill="none" id="V-to-API" style="stroke:#181818;stroke-width:1.0;"/><path d="M590.6452,651.4186 A9,9 0 0 0 583.686 636.0021" fill="none" style="stroke:#181818;stroke-width:1.5;"/></g><!--link P to API--><g id="link_P_API"><path d="M304.74,553.2568 C392.81,584.5268 510.9,626.4568 556.21,642.5468 " fill="none" id="P-to-API" style="stroke:#181818;stroke-width:1.0;"/><path d="M565.5849,636.8971 A9,9 0 0 0 559.9327 652.8392" fill="none" style="stroke:#181818;stroke-width:1.5;"/></g><!--link P to PAPI--><g id="link_P_PAPI"><path d="M215.59,553.2568 C229.02,583.6468 246.89,624.0868 254.42,641.1168 " fill="none" id="P-PAPI" style="stroke:#181818;stroke-width:1.0;"/></g><!--reverse link PAPI to MDM--><g id="link_PAPI_MDM"><path d="M276.43,658.9768 C316.34,675.7868 413.04,716.5068 485.65,747.0868 " fill="none" id="PAPI-backto-MDM" style="stroke:#181818;stroke-width:1.0;"/><path d="M266.7001,664.0555 A9,9 0 0 0 273.2725 648.4702" fill="none" style="stroke:#181818;stroke-width:1.5;"/></g><!--link AUI to P1--><g id="link_AUI_P1"><path d="M744.85,216.2568 C720.78,243.3068 643.15,330.5668 623.53,352.6168 " fill="none" id="AUI-P1" style="stroke:#181818;stroke-width:1.0;"/></g><!--link CUI to P1--><g id="link_CUI_P1"><path d="M940.8,212.3668 C892.15,234.3468 665.48,336.7268 625.15,354.9368 " fill="none" id="CUI-P1" style="stroke:#181818;stroke-width:1.0;"/></g><!--link FUI to P1--><g id="link_FUI_P1"><path d="M239.23,211.7668 C293.31,232.5468 568.12,338.1668 612.84,355.3468 " fill="none" id="FUI-P1" style="stroke:#181818;stroke-width:1.0;"/></g><!--link TUI to P1--><g id="link_TUI_P1"><path d="M458.14,216.2568 C488.9,243.3068 588.13,330.5668 613.2,352.6168 " fill="none" id="TUI-P1" style="stroke:#181818;stroke-width:1.0;"/></g><!--link UUI to P1--><g id="link_UUI_P1"><path d="M619,216.2568 C619,243.3068 619,330.5668 619,352.6168 " fill="none" id="UUI-P1" style="stroke:#181818;stroke-width:1.0;"/></g><!--link PV to V--><g id="link_PV_V"><path d="M1116.4,389.2868 C1101.34,397.1068 1085.07,405.5168 1070,413.2168 C1030.76,433.2668 987.03,455.2768 950.5,473.5768 " fill="none" id="PV-to-V" style="stroke:#181818;stroke-width:1.0;stroke-dasharray:7.0,7.0;"/><polygon fill="#181818" points="945.62,476.0168,955.4575,475.5444,950.0864,473.7693,951.8615,468.3982,945.62,476.0168" style="stroke:#181818;stroke-width:1.0;"/><text fill="#000000" font-family="sans-serif" font-size="20" lengthAdjust="spacing" textLength="112" x="1054" y="440.7813">«manifest»</text></g><!--link PMDM to MDM--><g id="link_PMDM_MDM"><path d="M1234.43,237.7868 C1266.52,264.9568 1306,308.4268 1306,357.7168 C1306,357.7168 1306,357.7168 1306,651.2168 C1306,706.9768 972.6,748.3068 756.11,769.2768 " fill="none" id="PMDM-to-MDM" style="stroke:#181818;stroke-width:1.0;stroke-dasharray:7.0,7.0;"/><polygon fill="#181818" points="751.02,769.7668,760.3654,772.8753,755.9964,769.282,759.5897,764.913,751.02,769.7668" style="stroke:#181818;stroke-width:1.0;"/><text fill="#000000" font-family="sans-serif" font-size="20" lengthAdjust="spacing" textLength="112" x="1307" y="521.7813">«manifest»</text></g><!--link PP to P--><g id="link_PP_P"><path d="M1113.88,81.4568 C902.16,84.6868 190.7,100.7368 120,171.2168 C33.33,257.6168 50.41,337.1868 106,446.2168 C110.98,455.9968 118.12,464.6868 126.25,472.3068 " fill="none" id="PP-to-P" style="stroke:#181818;stroke-width:1.0;stroke-dasharray:7.0,7.0;"/><polygon fill="#181818" points="130.32,475.9568,126.3062,466.9629,126.6035,472.612,120.9545,472.9093,130.32,475.9568" style="stroke:#181818;stroke-width:1.0;"/><text fill="#000000" font-family="sans-serif" font-size="20" lengthAdjust="spacing" textLength="112" x="63" y="292.7813">«manifest»</text></g><!--SRC=[dPFFQuCm5CVl-IiUNjeTjDlOQPH2iJWy2B9Lxvd64ceICV6mZltlUucjyyTbL0A-lE-7v_kbFdFPq9QAMXLdLaB9AjhL9bBIVF0BW-T7GYfLbwm5xrrz7bebsPlou9i0uBb9ETSThVc56gwa1rH3cZlcXuoev009bVJ419Ecfv93ikJIcah9vQb7qYk0277yDWWmF471MUWYPBC2_vu7LXj2k3IihMZ1mDkNWal8OlVfVHQFjP2AfjFN4jeR54wXg6RCp9beoXofFi-HunJ9z9-KeKGA9HhilJJZES37bpPCUB3T3lfkXpVj_B0ENnxmRllNgDPWPHxqJNso_Ov7TQUnFviDkfRCT3GzWcUKtN8LyaLw1QuNvH9B76NeLc0KQBajRlZtX9fc_TyOTk5oN2lRBVjflsjyrnNhN3ihdLXzGsxekhyItA9ha72mei4w3bOsM0H_dY3OOUDUCJj19Q-OnbJxzRUAVS-rr2dftFyB]--></g></svg>