<?xml version="1.0" encoding="UTF-8" standalone="no"?><svg xmlns="http://www.w3.org/2000/svg" xmlns:xlink="http://www.w3.org/1999/xlink" contentStyleType="text/css" height="897px" preserveAspectRatio="none" style="width:1347px;height:897px;background:#FFFFFF;" version="1.1" viewBox="0 0 1347 897" width="1347px" zoomAndPan="magnify"><defs/><g><!--cluster RobDroneGo--><g id="cluster_RobDroneGo"><path d="M1023.65,8.36 L1151.9,8.36 A3.75,3.75 0 0 1 1154.4,10.86 L1161.4,41.6 L1242.65,41.6 A2.5,2.5 0 0 1 1245.15,44.1 L1245.15,427.86 A2.5,2.5 0 0 1 1242.65,430.36 L1023.65,430.36 A2.5,2.5 0 0 1 1021.15,427.86 L1021.15,10.86 A2.5,2.5 0 0 1 1023.65,8.36 " fill="none" style="stroke:#000000;stroke-width:1.5;"/><line style="stroke:#000000;stroke-width:1.5;" x1="1021.15" x2="1161.4" y1="41.6" y2="41.6"/><text fill="#000000" font-family="sans-serif" font-size="20" font-weight="bold" lengthAdjust="spacing" textLength="127.25" x="1025.15" y="31.74">RobDroneGo</text></g><!--cluster RobDroneGo System--><g id="cluster_RobDroneGo System"><rect fill="none" height="509.5" rx="2.5" ry="2.5" style="stroke:#181818;stroke-width:1.0;" width="946" x="59.15" y="381.86"/><rect fill="none" height="10" style="stroke:#181818;stroke-width:1.0;" width="15" x="985.15" y="386.86"/><rect fill="none" height="2" style="stroke:#181818;stroke-width:1.0;" width="4" x="983.15" y="388.86"/><rect fill="none" height="2" style="stroke:#181818;stroke-width:1.0;" width="4" x="983.15" y="392.86"/><text fill="#000000" font-family="sans-serif" font-size="20" font-style="italic" lengthAdjust="spacing" textLength="122" x="471.15" y="416.24">«component»</text><text fill="#000000" font-family="sans-serif" font-size="20" font-style="italic" lengthAdjust="spacing" textLength="122" x="471.15" y="443.4799">«system (C4)»</text><text fill="#000000" font-family="sans-serif" font-size="20" font-weight="bold" lengthAdjust="spacing" textLength="204" x="430.15" y="470.7199">RobDroneGo System</text></g><!--entity PV--><g id="elem_PV"><path d="M1039.65,349.36 L1080.65,349.36 A3.75,3.75 0 0 1 1083.15,351.86 L1090.15,370.36 L1180.65,370.36 A2.5,2.5 0 0 1 1183.15,372.86 L1183.15,412.1 A2.5,2.5 0 0 1 1180.65,414.6 L1039.65,414.6 A2.5,2.5 0 0 1 1037.15,412.1 L1037.15,351.86 A2.5,2.5 0 0 1 1039.65,349.36 " fill="#F1F1F1" style="stroke:#181818;stroke-width:0.5;"/><line style="stroke:#181818;stroke-width:0.5;" x1="1037.15" x2="1090.15" y1="370.36" y2="370.36"/><text fill="#000000" font-family="sans-serif" font-size="20" lengthAdjust="spacing" textLength="116" x="1047.15" y="398.74">Visualization</text></g><!--entity PMDM--><g id="elem_PMDM"><path d="M1039.65,187.86 L1080.65,187.86 A3.75,3.75 0 0 1 1083.15,190.36 L1090.15,208.86 L1226.65,208.86 A2.5,2.5 0 0 1 1229.15,211.36 L1229.15,250.6 A2.5,2.5 0 0 1 1226.65,253.1 L1039.65,253.1 A2.5,2.5 0 0 1 1037.15,250.6 L1037.15,190.36 A2.5,2.5 0 0 1 1039.65,187.86 " fill="#F1F1F1" style="stroke:#181818;stroke-width:0.5;"/><line style="stroke:#181818;stroke-width:0.5;" x1="1037.15" x2="1090.15" y1="208.86" y2="208.86"/><text fill="#000000" font-family="sans-serif" font-size="20" lengthAdjust="spacing" textLength="162" x="1047.15" y="237.24">MD Management</text></g><!--entity PP--><g id="elem_PP"><path d="M1060.15,54.36 L1101.15,54.36 A3.75,3.75 0 0 1 1103.65,56.86 L1110.65,75.36 L1166.15,75.36 A2.5,2.5 0 0 1 1168.65,77.86 L1168.65,117.1 A2.5,2.5 0 0 1 1166.15,119.6 L1060.15,119.6 A2.5,2.5 0 0 1 1057.65,117.1 L1057.65,56.86 A2.5,2.5 0 0 1 1060.15,54.36 " fill="#F1F1F1" style="stroke:#181818;stroke-width:0.5;"/><line style="stroke:#181818;stroke-width:0.5;" x1="1057.65" x2="1110.65" y1="75.36" y2="75.36"/><text fill="#000000" font-family="sans-serif" font-size="20" lengthAdjust="spacing" textLength="81" x="1067.65" y="103.74">Planning</text></g><text fill="#000000" font-family="sans-serif" font-size="20" lengthAdjust="spacing" textLength="5" x="574.65" y="358"> </text><rect fill="#F1F1F1" height="12" style="stroke:#181818;stroke-width:1.5;" width="12" x="571.15" y="375.86"/><!--entity API--><g id="elem_API"><ellipse cx="577.15" cy="690.36" fill="#F1F1F1" rx="8" ry="8" style="stroke:#181818;stroke-width:0.5;"/><text fill="#000000" font-family="sans-serif" font-size="20" lengthAdjust="spacing" textLength="162" x="496.15" y="728.74">API-Management</text></g><!--entity PAPI--><g id="elem_PAPI"><ellipse cx="283.15" cy="690.36" fill="#F1F1F1" rx="8" ry="8" style="stroke:#181818;stroke-width:0.5;"/><text fill="#000000" font-family="sans-serif" font-size="20" lengthAdjust="spacing" textLength="119" x="223.65" y="728.74">API-Planning</text></g><!--entity V--><g id="elem_V"><rect fill="#F1F1F1" height="84.4799" rx="2.5" ry="2.5" style="stroke:#181818;stroke-width:0.5;" width="312" x="677.15" y="505.36"/><rect fill="#F1F1F1" height="10" style="stroke:#181818;stroke-width:0.5;" width="15" x="969.15" y="510.36"/><rect fill="#F1F1F1" height="2" style="stroke:#181818;stroke-width:0.5;" width="4" x="967.15" y="512.36"/><rect fill="#F1F1F1" height="2" style="stroke:#181818;stroke-width:0.5;" width="4" x="967.15" y="516.36"/><text fill="#000000" font-family="sans-serif" font-size="20" font-style="italic" lengthAdjust="spacing" textLength="272" x="692.15" y="546.74">«component» «container (C4)»</text><text fill="#000000" font-family="sans-serif" font-size="20" lengthAdjust="spacing" textLength="116" x="770.15" y="573.9799">Visualization</text></g><!--entity MDM--><g id="elem_MDM"><rect fill="#F1F1F1" height="84.4799" rx="2.5" ry="2.5" style="stroke:#181818;stroke-width:0.5;" width="312" x="421.15" y="791.36"/><rect fill="#F1F1F1" height="10" style="stroke:#181818;stroke-width:0.5;" width="15" x="713.15" y="796.36"/><rect fill="#F1F1F1" height="2" style="stroke:#181818;stroke-width:0.5;" width="4" x="711.15" y="798.36"/><rect fill="#F1F1F1" height="2" style="stroke:#181818;stroke-width:0.5;" width="4" x="711.15" y="802.36"/><text fill="#000000" font-family="sans-serif" font-size="20" font-style="italic" lengthAdjust="spacing" textLength="272" x="436.15" y="832.74">«component» «container (C4)»</text><text fill="#000000" font-family="sans-serif" font-size="20" lengthAdjust="spacing" textLength="162" x="491.15" y="859.9799">MD Management</text></g><!--entity P--><g id="elem_P"><rect fill="#F1F1F1" height="84.4799" rx="2.5" ry="2.5" style="stroke:#181818;stroke-width:0.5;" width="312" x="75.15" y="505.36"/><rect fill="#F1F1F1" height="10" style="stroke:#181818;stroke-width:0.5;" width="15" x="367.15" y="510.36"/><rect fill="#F1F1F1" height="2" style="stroke:#181818;stroke-width:0.5;" width="4" x="365.15" y="512.36"/><rect fill="#F1F1F1" height="2" style="stroke:#181818;stroke-width:0.5;" width="4" x="365.15" y="516.36"/><text fill="#000000" font-family="sans-serif" font-size="20" font-style="italic" lengthAdjust="spacing" textLength="272" x="90.15" y="546.74">«component» «container (C4)»</text><text fill="#000000" font-family="sans-serif" font-size="20" lengthAdjust="spacing" textLength="81" x="185.65" y="573.9799">Planning</text></g><!--entity AUI--><g id="elem_AUI"><ellipse cx="707.15" cy="220.36" fill="#F1F1F1" rx="8" ry="8" style="stroke:#181818;stroke-width:0.5;"/><text fill="#000000" font-family="sans-serif" font-size="20" lengthAdjust="spacing" textLength="88" x="663.15" y="258.74">Admin UI</text></g><!--entity CUI--><g id="elem_CUI"><ellipse cx="898.15" cy="220.36" fill="#F1F1F1" rx="8" ry="8" style="stroke:#181818;stroke-width:0.5;"/><text fill="#000000" font-family="sans-serif" font-size="20" lengthAdjust="spacing" textLength="192" x="802.15" y="258.74">Campus Manager UI</text></g><!--entity FUI--><g id="elem_FUI"><ellipse cx="203.15" cy="220.36" fill="#F1F1F1" rx="8" ry="8" style="stroke:#181818;stroke-width:0.5;"/><text fill="#000000" font-family="sans-serif" font-size="20" lengthAdjust="spacing" textLength="159" x="123.65" y="258.74">Fleet Manager UI</text></g><!--entity TUI--><g id="elem_TUI"><ellipse cx="412.15" cy="220.36" fill="#F1F1F1" rx="8" ry="8" style="stroke:#181818;stroke-width:0.5;"/><text fill="#000000" font-family="sans-serif" font-size="20" lengthAdjust="spacing" textLength="158" x="333.15" y="258.74">Task Manager UI</text></g><!--entity UUI--><g id="elem_UUI"><ellipse cx="577.15" cy="220.36" fill="#F1F1F1" rx="8" ry="8" style="stroke:#181818;stroke-width:0.5;"/><text fill="#000000" font-family="sans-serif" font-size="20" lengthAdjust="spacing" textLength="71" x="541.65" y="258.74">User UI</text></g><!--reverse link PMDM to PV--><g id="link_PMDM_PV"><path d="M1127.63,259.64 C1123.69,286.96 1118.45,323.28 1114.74,349.02 " fill="none" id="PMDM-backto-PV" style="stroke:#181818;stroke-width:1.0;stroke-dasharray:7.0,7.0;"/><polygon fill="#181818" points="1128.33,254.75,1123.0873,263.0875,1127.6169,259.6989,1131.0055,264.2285,1128.33,254.75" style="stroke:#181818;stroke-width:1.0;"/></g><!--reverse link PP to PMDM--><g id="link_PP_PMDM"><path d="M1118.96,126.12 C1121.92,145.56 1125.47,168.9 1128.28,187.36 " fill="none" id="PP-backto-PMDM" style="stroke:#181818;stroke-width:1.0;stroke-dasharray:7.0,7.0;"/><polygon fill="#181818" points="1118.21,121.19,1115.6188,130.6919,1118.9671,126.1323,1123.5266,129.4806,1118.21,121.19" style="stroke:#181818;stroke-width:1.0;"/></g><!--link V to P1--><g id="link_V_P1"><path d="M768.17,504.86 C702.93,463.2 608.57,402.93 583.47,386.9 " fill="none" id="V-P1" style="stroke:#181818;stroke-width:1.0;"/></g><!--link API to MDM--><g id="link_API_MDM"><path d="M577.15,699.34 C577.15,716.71 577.15,758.92 577.15,791.17 " fill="none" id="API-MDM" style="stroke:#181818;stroke-width:1.0;"/></g><!--link V to API--><g id="link_V_API"><path d="M758.07,589.71 C701.87,620.67 629.14,660.72 595.59,679.2 " fill="none" id="V-to-API" style="stroke:#181818;stroke-width:1.0;"/><path d="M593.8951,689.7844 A9,9 0 0 0 585.7381 674.9667" fill="none" style="stroke:#181818;stroke-width:1.5;"/></g><!--link P to API--><g id="link_P_API"><path d="M332.62,589.71 C411.92,622.03 515.55,664.26 557.88,681.51 " fill="none" id="P-to-API" style="stroke:#181818;stroke-width:1.0;"/><path d="M567.2702,676.2064 A9,9 0 0 0 560.8884 691.8708" fill="none" style="stroke:#181818;stroke-width:1.5;"/></g><!--link P to PAPI--><g id="link_P_PAPI"><path d="M246.33,589.52 C258.26,621.87 273.89,664.26 280.26,681.53 " fill="none" id="P-PAPI" style="stroke:#181818;stroke-width:1.0;"/></g><!--reverse link PAPI to MDM--><g id="link_PAPI_MDM"><path d="M301.89,700.35 C339.2,718.24 424.79,759.29 490.7,790.9 " fill="none" id="PAPI-backto-MDM" style="stroke:#181818;stroke-width:1.0;"/><path d="M292.424,705.1863 A9,9 0 0 0 299.7457 689.9386" fill="none" style="stroke:#181818;stroke-width:1.5;"/></g><!--link AUI to P1--><g id="link_AUI_P1"><path d="M700.88,229.05 C678.15,256.93 600.46,352.25 581.4,375.64 " fill="none" id="AUI-P1" style="stroke:#181818;stroke-width:1.0;"/></g><!--link CUI to P1--><g id="link_CUI_P1"><path d="M889.23,225.79 C842.24,249.14 624.11,357.52 583.62,377.64 " fill="none" id="CUI-P1" style="stroke:#181818;stroke-width:1.0;"/></g><!--link FUI to P1--><g id="link_FUI_P1"><path d="M212.02,225.15 C263.79,247.22 525.98,359.04 570.67,378.1 " fill="none" id="FUI-P1" style="stroke:#181818;stroke-width:1.0;"/></g><!--link TUI to P1--><g id="link_TUI_P1"><path d="M420.1,229.05 C448.94,256.93 547.55,352.25 571.75,375.64 " fill="none" id="TUI-P1" style="stroke:#181818;stroke-width:1.0;"/></g><!--link UUI to P1--><g id="link_UUI_P1"><path d="M577.15,229.05 C577.15,256.93 577.15,352.25 577.15,375.64 " fill="none" id="UUI-P1" style="stroke:#181818;stroke-width:1.0;"/></g><!--link PV to V--><g id="link_PV_V"><path d="M1056.08,414.77 C1014.09,439.56 955.35,474.23 908.7,501.76 " fill="none" id="PV-to-V" style="stroke:#181818;stroke-width:1.0;stroke-dasharray:7.0,7.0;"/><polygon fill="#181818" points="904.67,504.14,914.4545,503.0161,908.9775,501.6012,910.3924,496.1241,904.67,504.14" style="stroke:#181818;stroke-width:1.0;"/><text fill="#000000" font-family="sans-serif" font-size="20" lengthAdjust="spacing" textLength="102" x="997.15" y="468.74">«manifest»</text></g><!--link PMDM to MDM--><g id="link_PMDM_MDM"><path d="M1169.46,253.26 C1199.11,283 1236.15,330.26 1236.15,380.86 C1236.15,380.86 1236.15,380.86 1236.15,691.36 C1236.15,792.63 934.78,821.42 739.64,829.44 " fill="none" id="PMDM-to-MDM" style="stroke:#181818;stroke-width:1.0;stroke-dasharray:7.0,7.0;"/><polygon fill="#181818" points="734.83,829.63,743.9827,833.2671,739.826,829.4302,743.6629,825.2735,734.83,829.63" style="stroke:#181818;stroke-width:1.0;"/><text fill="#000000" font-family="sans-serif" font-size="20" lengthAdjust="spacing" textLength="102" x="1237.15" y="555.24">«manifest»</text></g><!--link PP to P--><g id="link_PP_P"><path d="M1057.17,88.83 C854.28,92.9 165.85,111.69 98.15,180.36 C6,273.81 15.54,364.1 85.15,475.36 C91.26,485.14 99.16,493.6 108.1,500.93 " fill="none" id="PP-to-P" style="stroke:#181818;stroke-width:1.0;stroke-dasharray:7.0,7.0;"/><polygon fill="#181818" points="111.98,503.95,107.3381,495.2636,108.0355,500.8773,102.4219,501.5747,111.98,503.95" style="stroke:#181818;stroke-width:1.0;"/><text fill="#000000" font-family="sans-serif" font-size="20" lengthAdjust="spacing" textLength="102" x="35.15" y="312.74">«manifest»</text></g><!--SRC=[dPFFQuCm5CVl-IiUNjeTjDlOQPH2iJWy2B9Lxvd64ceICV6mZltlUucjyyTbL0A-lE-7v_kbFdFPq9QAMXLdLaB9AjhL9bBIVF0BW-T7GYfLbwm5xrrz7bebsPlou9i0uBb9ETSThVc56gwa1rH3cZlcXuoev009bVJ419Ecfv93ikJIcah9vQb7qYk0277yDWWmF471MUWYPBC2_vu7LXj2k3IihMZ1mDkNWal8OlVfVHQFjP2AfjFN4jeR54wXg6RCp9beoXofFi-HunJ9z9-KeKGA9HhilJJZES37bpPCUB3T3lfkXpVj_B0ENnxmRllNgDPWPHxqJNso_Ov7TQUnFviDkfRCT3GzWcUKtN8LyaLw1QuNvH9B76NeLc0KQBajRlZtX9fc_TyOTk5oN2lRBVjflsjyrnNhN3ihdLXzGsxekhyItA9ha72mei4w3bOsM0H_dY3OOUDUCJj19Q-OnbJxzRUAVS-rr2dftFyB]--></g></svg>