<?xml version="1.0" encoding="UTF-8" standalone="no"?><svg xmlns="http://www.w3.org/2000/svg" xmlns:xlink="http://www.w3.org/1999/xlink" contentStyleType="text/css" height="846px" preserveAspectRatio="none" style="width:1814px;height:846px;background:#FFFFFF;" version="1.1" viewBox="0 0 1814 846" width="1814px" zoomAndPan="magnify"><defs/><g><!--cluster RobDroneGo--><g id="cluster_RobDroneGo"><path d="M1467.5,7.2168 L1610.5,7.2168 A3.75,3.75 0 0 1 1613,9.7168 L1620,36.498 L1771.5,36.498 A2.5,2.5 0 0 1 1774,38.998 L1774,402.7168 A2.5,2.5 0 0 1 1771.5,405.2168 L1467.5,405.2168 A2.5,2.5 0 0 1 1465,402.7168 L1465,9.7168 A2.5,2.5 0 0 1 1467.5,7.2168 " fill="none" style="stroke:#000000;stroke-width:1.5;"/><line style="stroke:#000000;stroke-width:1.5;" x1="1465" x2="1620" y1="36.498" y2="36.498"/><text fill="#000000" font-family="sans-serif" font-size="20" font-weight="bold" lengthAdjust="spacing" textLength="142" x="1469" y="27.7813">RobDroneGo</text></g><!--cluster RobDroneGo System--><g id="cluster_RobDroneGo System"><rect fill="none" height="481.5" rx="2.5" ry="2.5" style="stroke:#181818;stroke-width:1.0;" width="1442" x="7" y="358.7168"/><rect fill="none" height="10" style="stroke:#181818;stroke-width:1.0;" width="15" x="1429" y="363.7168"/><rect fill="none" height="2" style="stroke:#181818;stroke-width:1.0;" width="4" x="1427" y="365.7168"/><rect fill="none" height="2" style="stroke:#181818;stroke-width:1.0;" width="4" x="1427" y="369.7168"/><text fill="#000000" font-family="sans-serif" font-size="20" font-style="italic" lengthAdjust="spacing" textLength="138" x="659" y="390.2813">«component»</text><text fill="#000000" font-family="sans-serif" font-size="20" font-style="italic" lengthAdjust="spacing" textLength="145" x="655.5" y="413.5625">«system (C4)»</text><text fill="#000000" font-family="sans-serif" font-size="20" font-weight="bold" lengthAdjust="spacing" textLength="233" x="611.5" y="436.8438">RobDroneGo System</text></g><!--entity PV--><g id="elem_PV"><path d="M1483,328.2168 L1524,328.2168 A3.75,3.75 0 0 1 1526.5,330.7168 L1533.5,349.2168 L1637,349.2168 A2.5,2.5 0 0 1 1639.5,351.7168 L1639.5,386.998 A2.5,2.5 0 0 1 1637,389.498 L1483,389.498 A2.5,2.5 0 0 1 1480.5,386.998 L1480.5,330.7168 A2.5,2.5 0 0 1 1483,328.2168 " fill="#F1F1F1" style="stroke:#181818;stroke-width:0.5;"/><line style="stroke:#181818;stroke-width:0.5;" x1="1480.5" x2="1533.5" y1="349.2168" y2="349.2168"/><text fill="#000000" font-family="sans-serif" font-size="20" lengthAdjust="spacing" textLength="129" x="1490.5" y="374.7813">Visualization</text></g><!--entity PMDM--><g id="elem_PMDM"><path d="M1560.5,176.7168 L1601.5,176.7168 A3.75,3.75 0 0 1 1604,179.2168 L1611,197.7168 L1755.5,197.7168 A2.5,2.5 0 0 1 1758,200.2168 L1758,235.498 A2.5,2.5 0 0 1 1755.5,237.998 L1560.5,237.998 A2.5,2.5 0 0 1 1558,235.498 L1558,179.2168 A2.5,2.5 0 0 1 1560.5,176.7168 " fill="#F1F1F1" style="stroke:#181818;stroke-width:0.5;"/><line style="stroke:#181818;stroke-width:0.5;" x1="1558" x2="1611" y1="197.7168" y2="197.7168"/><text fill="#000000" font-family="sans-serif" font-size="20" lengthAdjust="spacing" textLength="170" x="1568" y="223.2813">MD Management</text></g><!--entity PP--><g id="elem_PP"><path d="M1642.5,49.2168 L1683.5,49.2168 A3.75,3.75 0 0 1 1686,51.7168 L1693,70.2168 L1755.5,70.2168 A2.5,2.5 0 0 1 1758,72.7168 L1758,107.998 A2.5,2.5 0 0 1 1755.5,110.498 L1642.5,110.498 A2.5,2.5 0 0 1 1640,107.998 L1640,51.7168 A2.5,2.5 0 0 1 1642.5,49.2168 " fill="#F1F1F1" style="stroke:#181818;stroke-width:0.5;"/><line style="stroke:#181818;stroke-width:0.5;" x1="1640" x2="1693" y1="70.2168" y2="70.2168"/><text fill="#000000" font-family="sans-serif" font-size="20" lengthAdjust="spacing" textLength="88" x="1650" y="95.7813">Planning</text></g><!--entity PMDT--><g id="elem_PMDT"><path d="M1483.5,49.2168 L1524.5,49.2168 A3.75,3.75 0 0 1 1527,51.7168 L1534,70.2168 L1602.5,70.2168 A2.5,2.5 0 0 1 1605,72.7168 L1605,107.998 A2.5,2.5 0 0 1 1602.5,110.498 L1483.5,110.498 A2.5,2.5 0 0 1 1481,107.998 L1481,51.7168 A2.5,2.5 0 0 1 1483.5,49.2168 " fill="#F1F1F1" style="stroke:#181818;stroke-width:0.5;"/><line style="stroke:#181818;stroke-width:0.5;" x1="1481" x2="1534" y1="70.2168" y2="70.2168"/><text fill="#000000" font-family="sans-serif" font-size="20" lengthAdjust="spacing" textLength="94" x="1491" y="95.7813">MD Tasks</text></g><text fill="#000000" font-family="sans-serif" font-size="20" lengthAdjust="spacing" textLength="6" x="918" y="336"> </text><rect fill="#F1F1F1" height="12" style="stroke:#181818;stroke-width:1.5;" width="12" x="915" y="352.7168"/><!--entity API--><g id="elem_API"><ellipse cx="709" cy="650.2168" fill="#F1F1F1" rx="8" ry="8" style="stroke:#181818;stroke-width:0.5;"/><text fill="#000000" font-family="sans-serif" font-size="20" lengthAdjust="spacing" textLength="171" x="623.5" y="685.7813">API-Management</text></g><!--entity PAPI--><g id="elem_PAPI"><ellipse cx="510" cy="650.2168" fill="#F1F1F1" rx="8" ry="8" style="stroke:#181818;stroke-width:0.5;"/><text fill="#000000" font-family="sans-serif" font-size="20" lengthAdjust="spacing" textLength="127" x="446.5" y="685.7813">API-Planning</text></g><!--entity TAPI--><g id="elem_TAPI"><ellipse cx="336" cy="650.2168" fill="#F1F1F1" rx="8" ry="8" style="stroke:#181818;stroke-width:0.5;"/><text fill="#000000" font-family="sans-serif" font-size="20" lengthAdjust="spacing" textLength="95" x="288.5" y="685.7813">API-Tasks</text></g><!--entity V--><g id="elem_V"><rect fill="#F1F1F1" height="76.5625" rx="2.5" ry="2.5" style="stroke:#181818;stroke-width:0.5;" width="352" x="1081" y="476.2168"/><rect fill="#F1F1F1" height="10" style="stroke:#181818;stroke-width:0.5;" width="15" x="1413" y="481.2168"/><rect fill="#F1F1F1" height="2" style="stroke:#181818;stroke-width:0.5;" width="4" x="1411" y="483.2168"/><rect fill="#F1F1F1" height="2" style="stroke:#181818;stroke-width:0.5;" width="4" x="1411" y="487.2168"/><text fill="#000000" font-family="sans-serif" font-size="20" font-style="italic" lengthAdjust="spacing" textLength="312" x="1096" y="514.7813">«component» «container (C4)»</text><text fill="#000000" font-family="sans-serif" font-size="20" lengthAdjust="spacing" textLength="129" x="1187.5" y="538.0625">Visualization</text></g><!--entity MDM--><g id="elem_MDM"><rect fill="#F1F1F1" height="76.5625" rx="2.5" ry="2.5" style="stroke:#181818;stroke-width:0.5;" width="352" x="386" y="747.2168"/><rect fill="#F1F1F1" height="10" style="stroke:#181818;stroke-width:0.5;" width="15" x="718" y="752.2168"/><rect fill="#F1F1F1" height="2" style="stroke:#181818;stroke-width:0.5;" width="4" x="716" y="754.2168"/><rect fill="#F1F1F1" height="2" style="stroke:#181818;stroke-width:0.5;" width="4" x="716" y="758.2168"/><text fill="#000000" font-family="sans-serif" font-size="20" font-style="italic" lengthAdjust="spacing" textLength="312" x="401" y="785.7813">«component» «container (C4)»</text><text fill="#000000" font-family="sans-serif" font-size="20" lengthAdjust="spacing" textLength="170" x="472" y="809.0625">MD Management</text></g><!--entity P--><g id="elem_P"><rect fill="#F1F1F1" height="76.5625" rx="2.5" ry="2.5" style="stroke:#181818;stroke-width:0.5;" width="352" x="410" y="476.2168"/><rect fill="#F1F1F1" height="10" style="stroke:#181818;stroke-width:0.5;" width="15" x="742" y="481.2168"/><rect fill="#F1F1F1" height="2" style="stroke:#181818;stroke-width:0.5;" width="4" x="740" y="483.2168"/><rect fill="#F1F1F1" height="2" style="stroke:#181818;stroke-width:0.5;" width="4" x="740" y="487.2168"/><text fill="#000000" font-family="sans-serif" font-size="20" font-style="italic" lengthAdjust="spacing" textLength="312" x="425" y="514.7813">«component» «container (C4)»</text><text fill="#000000" font-family="sans-serif" font-size="20" lengthAdjust="spacing" textLength="88" x="537" y="538.0625">Planning</text></g><!--entity MDT--><g id="elem_MDT"><rect fill="#F1F1F1" height="76.5625" rx="2.5" ry="2.5" style="stroke:#181818;stroke-width:0.5;" width="352" x="23" y="476.2168"/><rect fill="#F1F1F1" height="10" style="stroke:#181818;stroke-width:0.5;" width="15" x="355" y="481.2168"/><rect fill="#F1F1F1" height="2" style="stroke:#181818;stroke-width:0.5;" width="4" x="353" y="483.2168"/><rect fill="#F1F1F1" height="2" style="stroke:#181818;stroke-width:0.5;" width="4" x="353" y="487.2168"/><text fill="#000000" font-family="sans-serif" font-size="20" font-style="italic" lengthAdjust="spacing" textLength="312" x="38" y="514.7813">«component» «container (C4)»</text><text fill="#000000" font-family="sans-serif" font-size="20" lengthAdjust="spacing" textLength="94" x="147" y="538.0625">MD Tasks</text></g><!--entity AUI--><g id="elem_AUI"><ellipse cx="921" cy="207.2168" fill="#F1F1F1" rx="8" ry="8" style="stroke:#181818;stroke-width:0.5;"/><text fill="#000000" font-family="sans-serif" font-size="20" lengthAdjust="spacing" textLength="93" x="874.5" y="242.7813">Admin UI</text></g><!--entity CUI--><g id="elem_CUI"><ellipse cx="1119" cy="207.2168" fill="#F1F1F1" rx="8" ry="8" style="stroke:#181818;stroke-width:0.5;"/><text fill="#000000" font-family="sans-serif" font-size="20" lengthAdjust="spacing" textLength="202" x="1018" y="242.7813">Campus Manager UI</text></g><!--entity FUI--><g id="elem_FUI"><ellipse cx="1356" cy="207.2168" fill="#F1F1F1" rx="8" ry="8" style="stroke:#181818;stroke-width:0.5;"/><text fill="#000000" font-family="sans-serif" font-size="20" lengthAdjust="spacing" textLength="170" x="1271" y="242.7813">Fleet Manager UI</text></g><!--entity TUI--><g id="elem_TUI"><ellipse cx="618" cy="207.2168" fill="#F1F1F1" rx="8" ry="8" style="stroke:#181818;stroke-width:0.5;"/><text fill="#000000" font-family="sans-serif" font-size="20" lengthAdjust="spacing" textLength="166" x="535" y="242.7813">Task Manager UI</text></g><!--entity UUI--><g id="elem_UUI"><ellipse cx="788" cy="207.2168" fill="#F1F1F1" rx="8" ry="8" style="stroke:#181818;stroke-width:0.5;"/><text fill="#000000" font-family="sans-serif" font-size="20" lengthAdjust="spacing" textLength="72" x="752" y="242.7813">User UI</text></g><!--reverse link PMDM to PV--><g id="link_PMDM_PV"><path d="M1635.76,242.1368 C1618.82,267.9868 1595.71,303.2368 1579.49,327.9868 " fill="none" id="PMDM-backto-PV" style="stroke:#181818;stroke-width:1.0;stroke-dasharray:7.0,7.0;"/><polygon fill="#181818" points="1638.64,237.7568,1630.3615,243.0922,1635.8995,241.9389,1637.0528,247.4769,1638.64,237.7568" style="stroke:#181818;stroke-width:1.0;"/></g><!--reverse link PP to PMDM--><g id="link_PP_PMDM"><path d="M1687.72,115.2568 C1681.42,134.5268 1673.66,158.2868 1667.65,176.6868 " fill="none" id="PP-backto-PMDM" style="stroke:#181818;stroke-width:1.0;stroke-dasharray:7.0,7.0;"/><polygon fill="#181818" points="1689.28,110.4568,1682.6722,117.76,1687.7203,115.2073,1690.273,120.2555,1689.28,110.4568" style="stroke:#181818;stroke-width:1.0;"/></g><!--link V to P1--><g id="link_V_P1"><path d="M1175.09,476.1768 C1087.37,435.9668 956.74,376.0968 927.12,362.5168 " fill="none" id="V-P1" style="stroke:#181818;stroke-width:1.0;"/></g><!--link API to MDM--><g id="link_API_MDM"><path d="M699.8,659.5668 C680.95,676.6968 636.88,716.7168 603.61,746.9268 " fill="none" id="API-MDM" style="stroke:#181818;stroke-width:1.0;"/></g><!--link V to API--><g id="link_V_API"><path d="M1102.89,553.2568 C968.75,585.9368 786.84,630.2568 728.12,644.5568 " fill="none" id="V-to-API" style="stroke:#181818;stroke-width:1.0;"/><path d="M723.0535,654.4945 A9,9 0 0 0 719.0477 638.0612" fill="none" style="stroke:#181818;stroke-width:1.5;"/></g><!--link P to API--><g id="link_P_API"><path d="M620.59,553.2568 C645.09,579.8468 676.68,614.1368 694.7,633.6968 " fill="none" id="P-to-API" style="stroke:#181818;stroke-width:1.0;"/><path d="M705.6698,633.1202 A9,9 0 0 0 693.2363 644.588" fill="none" style="stroke:#181818;stroke-width:1.5;"/></g><!--link P to PAPI--><g id="link_P_PAPI"><path d="M564.63,553.2568 C547.33,583.6468 524.3,624.0868 514.61,641.1168 " fill="none" id="P-PAPI" style="stroke:#181818;stroke-width:1.0;"/></g><!--reverse link PAPI to MDM--><g id="link_PAPI_MDM"><path d="M516.98,669.1468 C524.7,688.9568 537.35,721.4368 547.28,746.9268 " fill="none" id="PAPI-backto-MDM" style="stroke:#181818;stroke-width:1.0;"/><path d="M506.487,665.505 A9,9 0 0 0 522.2477 659.3651" fill="none" style="stroke:#181818;stroke-width:1.5;"/></g><!--link MDT to TAPI--><g id="link_MDT_TAPI"><path d="M237.53,553.2568 C268.71,583.6468 310.21,624.0868 327.69,641.1168 " fill="none" id="MDT-TAPI" style="stroke:#181818;stroke-width:1.0;"/></g><!--reverse link TAPI to MDM--><g id="link_TAPI_MDM"><path d="M353.9,661.7868 C384.71,679.9868 449.2,718.0868 498.27,747.0668 " fill="none" id="TAPI-backto-MDM" style="stroke:#181818;stroke-width:1.0;"/><path d="M343.4911,665.4645 A9,9 0 0 0 352.0903 650.899" fill="none" style="stroke:#181818;stroke-width:1.5;"/></g><!--link MDT to PAPI--><g id="link_MDT_PAPI"><path d="M286.46,553.2568 C357.38,583.6968 451.81,624.2368 491.35,641.2068 " fill="none" id="MDT-to-PAPI" style="stroke:#181818;stroke-width:1.0;"/><path d="M501.0872,636.1911 A9,9 0 0 0 494.4155 651.7342" fill="none" style="stroke:#181818;stroke-width:1.5;"/></g><!--link AUI to P1--><g id="link_AUI_P1"><path d="M921,216.2568 C921,243.3068 921,330.5668 921,352.6168 " fill="none" id="AUI-P1" style="stroke:#181818;stroke-width:1.0;"/></g><!--link CUI to P1--><g id="link_CUI_P1"><path d="M1109.98,215.0268 C1075.93,240.7368 955.75,331.4768 927.14,353.0768 " fill="none" id="CUI-P1" style="stroke:#181818;stroke-width:1.0;"/></g><!--link FUI to P1--><g id="link_FUI_P1"><path d="M1346.91,211.3368 C1289.21,231.1768 974.62,339.2868 927.03,355.6468 " fill="none" id="FUI-P1" style="stroke:#181818;stroke-width:1.0;"/></g><!--link TUI to P1--><g id="link_TUI_P1"><path d="M627.07,212.6868 C672.76,235.2368 877.04,336.0268 914.94,354.7268 " fill="none" id="TUI-P1" style="stroke:#181818;stroke-width:1.0;"/></g><!--link UUI to P1--><g id="link_UUI_P1"><path d="M795.15,216.2568 C819.22,243.3068 896.85,330.5668 916.47,352.6168 " fill="none" id="UUI-P1" style="stroke:#181818;stroke-width:1.0;"/></g><!--link PV to V--><g id="link_PV_V"><path d="M1503.4,389.2868 C1488.34,397.1068 1472.07,405.5168 1457,413.2168 C1417.76,433.2668 1374.03,455.2768 1337.5,473.5768 " fill="none" id="PV-to-V" style="stroke:#181818;stroke-width:1.0;stroke-dasharray:7.0,7.0;"/><polygon fill="#181818" points="1332.62,476.0168,1342.4575,475.5444,1337.0864,473.7693,1338.8615,468.3982,1332.62,476.0168" style="stroke:#181818;stroke-width:1.0;"/><text fill="#000000" font-family="sans-serif" font-size="20" lengthAdjust="spacing" textLength="112" x="1441" y="440.7813">«manifest»</text></g><!--link PMDM to MDM--><g id="link_PMDM_MDM"><path d="M1669.17,237.8068 C1679.41,267.6268 1693,315.1968 1693,357.7168 C1693,357.7168 1693,357.7168 1693,651.2168 C1693,745.6768 1062.81,773.4968 743.25,781.5368 " fill="none" id="PMDM-to-MDM" style="stroke:#181818;stroke-width:1.0;stroke-dasharray:7.0,7.0;"/><polygon fill="#181818" points="738.1,781.6668,747.1998,785.4341,743.0983,781.5383,746.9942,777.4368,738.1,781.6668" style="stroke:#181818;stroke-width:1.0;"/><text fill="#000000" font-family="sans-serif" font-size="20" lengthAdjust="spacing" textLength="112" x="1694" y="521.7813">«manifest»</text></g><!--link PP to P--><g id="link_PP_P"><path d="M1639.81,105.7268 C1634.19,107.4868 1628.53,109.0268 1623,110.2168 C1501.82,136.3568 597.87,84.7968 509,171.2168 C421.28,256.5168 441.28,336.7768 496,446.2168 C500.88,455.9768 507.91,464.6868 515.93,472.3468 " fill="none" id="PP-to-P" style="stroke:#181818;stroke-width:1.0;stroke-dasharray:7.0,7.0;"/><polygon fill="#181818" points="519.94,476.0268,516.018,466.9925,516.2578,472.6443,510.606,472.8841,519.94,476.0268" style="stroke:#181818;stroke-width:1.0;"/><text fill="#000000" font-family="sans-serif" font-size="20" lengthAdjust="spacing" textLength="112" x="452" y="292.7813">«manifest»</text></g><!--link PMDT to MDT--><g id="link_PMDT_MDT"><path d="M1480.74,80.0668 C1277.41,78.8368 635.4,82.2468 452,171.2168 C387.79,202.3668 373.28,218.0568 328,273.2168 C277.03,335.2968 237,420.6268 215.77,471.1868 " fill="none" id="PMDT-to-MDT" style="stroke:#181818;stroke-width:1.0;stroke-dasharray:7.0,7.0;"/><polygon fill="#181818" points="213.77,475.9668,220.9313,469.2054,215.6981,471.3535,213.55,466.1204,213.77,475.9668" style="stroke:#181818;stroke-width:1.0;"/><text fill="#000000" font-family="sans-serif" font-size="20" lengthAdjust="spacing" textLength="112" x="329" y="292.7813">«manifest»</text></g><!--SRC=[dLCzQyCm4DtrAmulIGSxRUbKGY0af7W8c5REhYPo4B4bOyb3K_hVUvA_xGmXnk2JtjFvtjsJlWYPiu9bgJfU-0bEF65bQdPAcYznvV3wJ4YYqXClmFjKtzj2IVwXFFWb0FWsq47eagNYoenGqWEc8JeupX_fiVPRs3F9pZpZqbIi_NO_vKKfarB8SqM9Qi8W3sNwefiKj6PW4k8oBeC02o1ur4MuHSXY1luZ3ymMX0XfU96m8mTlVSg4X3XqFr_7OH_Ri2mlTIsoQ4YR8McNScx6dDsGO-MDANH8YNK7nGYHeyfod8uq_Kd1ruysFFDWkMpnrGfNskt3VFFsX6lRlrmL1fLvKBNrnKuaxEcEGdyqFToQSeR3kqdfXaSh7DzUzLCp7IRb7z6WJ4XiGK-1Cr4lqTHlpXoFf1ggkZV7k9fEk3NjdKcigm_eNJiIMxzVvhvhlTsSkoWQH5NN6-gyML8BqI54EwZc4RHq_RDD6-tQYBPHt4O4xteGh71AxwWYOr8aNAEawYvQn7x7MEIGwCOPMf-XO-mV]--></g></svg>