<?xml version="1.0" encoding="UTF-8" standalone="no"?><svg xmlns="http://www.w3.org/2000/svg" xmlns:xlink="http://www.w3.org/1999/xlink" contentStyleType="text/css" height="788px" preserveAspectRatio="none" style="width:1076px;height:788px;background:#FFFFFF;" version="1.1" viewBox="0 0 1076 788" width="1076px" zoomAndPan="magnify"><defs/><g><!--MD5=[1478444cbd0d707d5292787239839939]
cluster RobDroneGo--><g id="cluster_RobDroneGo"><path d="M821.33,6.602 L910.33,6.602 A3.75,3.75 0 0 1 912.83,9.102 L919.83,31.6699 L996.33,31.6699 A2.5,2.5 0 0 1 998.83,34.1699 L998.83,376.242 A2.5,2.5 0 0 1 996.33,378.742 L821.33,378.742 A2.5,2.5 0 0 1 818.83,376.242 L818.83,9.102 A2.5,2.5 0 0 1 821.33,6.602 " fill="none" style="stroke:#000000;stroke-width:1.5;"/><line style="stroke:#000000;stroke-width:1.5;" x1="818.83" x2="919.83" y1="31.6699" y2="31.6699"/><text fill="#000000" font-family="sans-serif" font-size="14" font-weight="bold" lengthAdjust="spacing" textLength="88" x="822.83" y="23.5679">RobDroneGo</text></g><!--MD5=[0f6b1c88a3f80ad3092b4fe31cec549a]
cluster RobDroneGo System--><g id="cluster_RobDroneGo System"><rect fill="none" height="447.81" rx="2.5" ry="2.5" style="stroke:#181818;stroke-width:1.0;" width="720" x="82.83" y="334.202"/><rect fill="none" height="10" style="stroke:#181818;stroke-width:1.0;" width="15" x="782.83" y="339.202"/><rect fill="none" height="2" style="stroke:#181818;stroke-width:1.0;" width="4" x="780.83" y="341.202"/><rect fill="none" height="2" style="stroke:#181818;stroke-width:1.0;" width="4" x="780.83" y="345.202"/><text fill="#000000" font-family="sans-serif" font-size="14" font-style="italic" lengthAdjust="spacing" textLength="84" x="400.83" y="362.1679">«component»</text><text fill="#000000" font-family="sans-serif" font-size="14" font-style="italic" lengthAdjust="spacing" textLength="85" x="400.33" y="381.2358">«system (C4)»</text><text fill="#000000" font-family="sans-serif" font-size="14" font-weight="bold" lengthAdjust="spacing" textLength="143" x="371.33" y="400.3038">RobDroneGo System</text></g><!--MD5=[adee7018ee2606d8bc7c60fb772af90a]
entity PV--><g id="elem_PV"><path d="M836.83,305.672 L877.83,305.672 A3.75,3.75 0 0 1 880.33,308.172 L887.33,326.672 L946.83,326.672 A2.5,2.5 0 0 1 949.33,329.172 L949.33,360.2399 A2.5,2.5 0 0 1 946.83,362.7399 L836.83,362.7399 A2.5,2.5 0 0 1 834.33,360.2399 L834.33,308.172 A2.5,2.5 0 0 1 836.83,305.672 " fill="#F1F1F1" style="stroke:#181818;stroke-width:0.5;"/><line style="stroke:#181818;stroke-width:0.5;" x1="834.33" x2="887.33" y1="326.672" y2="326.672"/><text fill="#000000" font-family="sans-serif" font-size="14" lengthAdjust="spacing" textLength="85" x="844.33" y="348.6379">Visualization</text></g><!--MD5=[db4f8a7889d90caf420eb7e5902e98b8]
entity PMDM--><g id="elem_PMDM"><path d="M837.83,166.142 L878.83,166.142 A3.75,3.75 0 0 1 881.33,168.642 L888.33,187.142 L979.83,187.142 A2.5,2.5 0 0 1 982.33,189.642 L982.33,220.7099 A2.5,2.5 0 0 1 979.83,223.2099 L837.83,223.2099 A2.5,2.5 0 0 1 835.33,220.7099 L835.33,168.642 A2.5,2.5 0 0 1 837.83,166.142 " fill="#F1F1F1" style="stroke:#181818;stroke-width:0.5;"/><line style="stroke:#181818;stroke-width:0.5;" x1="835.33" x2="888.33" y1="187.142" y2="187.142"/><text fill="#000000" font-family="sans-serif" font-size="14" lengthAdjust="spacing" textLength="117" x="845.33" y="209.1079">MD Management</text></g><!--MD5=[c31a855ebeac6ee3d0a2de96cc45ec0c]
entity PP--><g id="elem_PP"><path d="M851.33,44.602 L892.33,44.602 A3.75,3.75 0 0 1 894.83,47.102 L901.83,65.602 L936.33,65.602 A2.5,2.5 0 0 1 938.83,68.102 L938.83,99.1699 A2.5,2.5 0 0 1 936.33,101.6699 L851.33,101.6699 A2.5,2.5 0 0 1 848.83,99.1699 L848.83,47.102 A2.5,2.5 0 0 1 851.33,44.602 " fill="#F1F1F1" style="stroke:#181818;stroke-width:0.5;"/><line style="stroke:#181818;stroke-width:0.5;" x1="848.83" x2="901.83" y1="65.602" y2="65.602"/><text fill="#000000" font-family="sans-serif" font-size="14" lengthAdjust="spacing" textLength="60" x="858.83" y="87.5679">Planning</text></g><text fill="#000000" font-family="sans-serif" font-size="14" lengthAdjust="spacing" textLength="4" x="462.83" y="312.1"> </text><rect fill="#F1F1F1" height="12" style="stroke:#181818;stroke-width:1.5;" width="12" x="458.83" y="328.202"/><!--MD5=[645d8587175d8f7ad110cd370775931d]
entity API--><g id="elem_API"><ellipse cx="480.83" cy="604.872" fill="#F1F1F1" rx="8" ry="8" style="stroke:#181818;stroke-width:0.5;"/><text fill="#000000" font-family="sans-serif" font-size="14" lengthAdjust="spacing" textLength="117" x="422.33" y="636.8379">API-Management</text></g><!--MD5=[f3fc39b189f3b1918fb2a3388e729573]
entity PAPI--><g id="elem_PAPI"><ellipse cx="252.83" cy="604.872" fill="#F1F1F1" rx="8" ry="8" style="stroke:#181818;stroke-width:0.5;"/><text fill="#000000" font-family="sans-serif" font-size="14" lengthAdjust="spacing" textLength="87" x="209.33" y="636.8379">API-Planning</text></g><!--MD5=[9c35c66068622dad62ecac52c54c307b]
entity V--><g id="elem_V"><rect fill="#F1F1F1" height="68.1358" rx="2.5" ry="2.5" style="stroke:#181818;stroke-width:0.5;" width="230" x="556.83" y="443.742"/><rect fill="#F1F1F1" height="10" style="stroke:#181818;stroke-width:0.5;" width="15" x="766.83" y="448.742"/><rect fill="#F1F1F1" height="2" style="stroke:#181818;stroke-width:0.5;" width="4" x="764.83" y="450.742"/><rect fill="#F1F1F1" height="2" style="stroke:#181818;stroke-width:0.5;" width="4" x="764.83" y="454.742"/><text fill="#000000" font-family="sans-serif" font-size="14" font-style="italic" lengthAdjust="spacing" textLength="190" x="571.83" y="478.7079">«component» «container (C4)»</text><text fill="#000000" font-family="sans-serif" font-size="14" lengthAdjust="spacing" textLength="85" x="624.33" y="497.7758">Visualization</text></g><!--MD5=[726927e6d83af89079991bbb6f485283]
entity MDM--><g id="elem_MDM"><rect fill="#F1F1F1" height="68.1358" rx="2.5" ry="2.5" style="stroke:#181818;stroke-width:0.5;" width="230" x="365.83" y="697.872"/><rect fill="#F1F1F1" height="10" style="stroke:#181818;stroke-width:0.5;" width="15" x="575.83" y="702.872"/><rect fill="#F1F1F1" height="2" style="stroke:#181818;stroke-width:0.5;" width="4" x="573.83" y="704.872"/><rect fill="#F1F1F1" height="2" style="stroke:#181818;stroke-width:0.5;" width="4" x="573.83" y="708.872"/><text fill="#000000" font-family="sans-serif" font-size="14" font-style="italic" lengthAdjust="spacing" textLength="190" x="380.83" y="732.8379">«component» «container (C4)»</text><text fill="#000000" font-family="sans-serif" font-size="14" lengthAdjust="spacing" textLength="117" x="417.33" y="751.9058">MD Management</text></g><!--MD5=[626ad08abde0879284d52f51a0eb42aa]
entity P--><g id="elem_P"><rect fill="#F1F1F1" height="68.1358" rx="2.5" ry="2.5" style="stroke:#181818;stroke-width:0.5;" width="230" x="98.83" y="443.742"/><rect fill="#F1F1F1" height="10" style="stroke:#181818;stroke-width:0.5;" width="15" x="308.83" y="448.742"/><rect fill="#F1F1F1" height="2" style="stroke:#181818;stroke-width:0.5;" width="4" x="306.83" y="450.742"/><rect fill="#F1F1F1" height="2" style="stroke:#181818;stroke-width:0.5;" width="4" x="306.83" y="454.742"/><text fill="#000000" font-family="sans-serif" font-size="14" font-style="italic" lengthAdjust="spacing" textLength="190" x="113.83" y="478.7079">«component» «container (C4)»</text><text fill="#000000" font-family="sans-serif" font-size="14" lengthAdjust="spacing" textLength="60" x="178.83" y="497.7758">Planning</text></g><!--MD5=[cfcafa412c0babcd780f6effe68cc082]
entity AUI--><g id="elem_AUI"><ellipse cx="571.83" cy="194.672" fill="#F1F1F1" rx="8" ry="8" style="stroke:#181818;stroke-width:0.5;"/><text fill="#000000" font-family="sans-serif" font-size="14" lengthAdjust="spacing" textLength="63" x="540.33" y="226.6379">Admin UI</text></g><!--MD5=[00a53cdc1199406b772e5950891343c5]
entity CUI--><g id="elem_CUI"><ellipse cx="722.83" cy="194.672" fill="#F1F1F1" rx="8" ry="8" style="stroke:#181818;stroke-width:0.5;"/><text fill="#000000" font-family="sans-serif" font-size="14" lengthAdjust="spacing" textLength="139" x="653.33" y="226.6379">Campus Manager UI</text></g><!--MD5=[2fdcfc5154486ff4bac96ea7d6266223]
entity FUI--><g id="elem_FUI"><ellipse cx="165.83" cy="194.672" fill="#F1F1F1" rx="8" ry="8" style="stroke:#181818;stroke-width:0.5;"/><text fill="#000000" font-family="sans-serif" font-size="14" lengthAdjust="spacing" textLength="116" x="107.83" y="226.6379">Fleet Manager UI</text></g><!--MD5=[1f8580275780bab29e0393918322d740]
entity TUI--><g id="elem_TUI"><ellipse cx="331.83" cy="194.672" fill="#F1F1F1" rx="8" ry="8" style="stroke:#181818;stroke-width:0.5;"/><text fill="#000000" font-family="sans-serif" font-size="14" lengthAdjust="spacing" textLength="114" x="274.83" y="226.6379">Task Manager UI</text></g><!--MD5=[f18335d2d2f1db8dfcacee575012285a]
entity UUI--><g id="elem_UUI"><ellipse cx="464.83" cy="194.672" fill="#F1F1F1" rx="8" ry="8" style="stroke:#181818;stroke-width:0.5;"/><text fill="#000000" font-family="sans-serif" font-size="14" lengthAdjust="spacing" textLength="50" x="439.83" y="226.6379">User UI</text></g><!--MD5=[04fcfbeb5fa9321add4dcca3a37effba]
reverse link PMDM to PV--><g id="link_PMDM_PV"><path d="M904.6,229.872 C901.72,253.172 897.96,283.612 895.26,305.412 " fill="none" id="PMDM-backto-PV" style="stroke:#181818;stroke-width:1.0;stroke-dasharray:7.0,7.0;"/><polygon fill="#181818" points="905.2,225.002,900.1265,233.4435,904.5868,229.9642,908.0661,234.4246,905.2,225.002" style="stroke:#181818;stroke-width:1.0;"/></g><!--MD5=[c550dadc13901071d6376fd104057d88]
reverse link PP to PMDM--><g id="link_PP_PMDM"><path d="M898.1,108.182 C900.39,126.432 903.18,148.622 905.34,165.822 " fill="none" id="PP-backto-PMDM" style="stroke:#181818;stroke-width:1.0;stroke-dasharray:7.0,7.0;"/><polygon fill="#181818" points="897.54,103.662,894.6772,113.0856,898.1549,108.624,902.6164,112.1018,897.54,103.662" style="stroke:#181818;stroke-width:1.0;"/></g><!--MD5=[4fa59f2fdf0883c2e7c14a7d031f2558]
link V to P1--><g id="link_V_P1"><path d="M622.82,443.282 C571.05,407.872 493.84,355.052 471.25,339.602 " fill="none" id="V-P1" style="stroke:#181818;stroke-width:1.0;"/></g><!--MD5=[7a01a35a3a611017fafa7b8abfabb847]
link API to MDM--><g id="link_API_MDM"><path d="M480.83,613.702 C480.83,630.122 480.83,669.002 480.83,697.502 " fill="none" id="API-MDM" style="stroke:#181818;stroke-width:1.0;"/></g><!--MD5=[3853e52ea2604b2435d339a66ba0a203]
link V to API--><g id="link_V_API"><path d="M620.65,512.322 C580.45,538.642 526.81,573.772 499.11,591.912 " fill="none" id="V-to-API" style="stroke:#181818;stroke-width:1.0;"/><path d="M498.0142,602.723 A9,9 0 0 0 488.7324 588.5827" fill="none" style="stroke:#181818;stroke-width:1.5;"/></g><!--MD5=[56a04dc363635fba468495a194212db5]
link P to API--><g id="link_P_API"><path d="M285.38,512.322 C345.04,540.272 425.9,578.142 462.04,595.072 " fill="none" id="P-to-API" style="stroke:#181818;stroke-width:1.0;"/><path d="M471.5402,590.1876 A9,9 0 0 0 464.3648 605.5047" fill="none" style="stroke:#181818;stroke-width:1.5;"/></g><!--MD5=[a84971207aa808810a508e9b35c238d8]
link P to PAPI--><g id="link_P_PAPI"><path d="M224.28,512.322 C233.22,540.982 245.41,580.072 250.47,596.322 " fill="none" id="P-PAPI" style="stroke:#181818;stroke-width:1.0;"/></g><!--MD5=[b14017d3dd34997ae4acf13b66d811a6]
reverse link PAPI to MDM--><g id="link_PAPI_MDM"><path d="M271.57,616.162 C303.61,633.732 370.24,670.282 419.75,697.442 " fill="none" id="PAPI-backto-MDM" style="stroke:#181818;stroke-width:1.0;"/><path d="M261.7131,620.396 A9,9 0 0 0 269.8617 605.5738" fill="none" style="stroke:#181818;stroke-width:1.5;"/></g><!--MD5=[1a596fe3bb89ea3f4253e71944a50120]
link AUI to P1--><g id="link_AUI_P1"><path d="M565.77,203.462 C546.32,228.462 485.75,306.312 469.1,327.712 " fill="none" id="AUI-P1" style="stroke:#181818;stroke-width:1.0;"/></g><!--MD5=[82aa52e761f2c7d4275711f0f6072f71]
link CUI to P1--><g id="link_CUI_P1"><path d="M713.95,200.402 C673.37,222.042 506.05,311.232 471.2,329.812 " fill="none" id="CUI-P1" style="stroke:#181818;stroke-width:1.0;"/></g><!--MD5=[234d85ca90cddf23b132216c62d6baee]
link FUI to P1--><g id="link_FUI_P1"><path d="M174.78,199.792 C219.67,220.442 419.71,312.452 458.36,330.232 " fill="none" id="FUI-P1" style="stroke:#181818;stroke-width:1.0;"/></g><!--MD5=[a7b2fb2017985076509f38a2e3f9adf9]
link TUI to P1--><g id="link_TUI_P1"><path d="M339.36,203.462 C363.54,228.462 438.82,306.312 459.52,327.712 " fill="none" id="TUI-P1" style="stroke:#181818;stroke-width:1.0;"/></g><!--MD5=[9b520fe73f8c4dca4b6c83d4978d7c54]
link UUI to P1--><g id="link_UUI_P1"><path d="M464.83,203.462 C464.83,228.462 464.83,306.312 464.83,327.712 " fill="none" id="UUI-P1" style="stroke:#181818;stroke-width:1.0;"/></g><!--MD5=[d60664ef25c74fc1c28883808ec86def]
link PV to V--><g id="link_PV_V"><path d="M848.36,363.182 C814.23,385.152 766.4,415.942 729.14,439.922 " fill="none" id="PV-to-V" style="stroke:#181818;stroke-width:1.0;stroke-dasharray:7.0,7.0;"/><polygon fill="#181818" points="724.99,442.592,734.7236,441.0899,729.1959,439.8882,730.3976,434.3604,724.99,442.592" style="stroke:#181818;stroke-width:1.0;"/><text fill="#000000" font-family="sans-serif" font-size="13" lengthAdjust="spacing" textLength="66" x="795.83" y="409.639">«manifest»</text></g><!--MD5=[0950e9d2ebcea8a222e5a8cf124ac425]
link PMDM to MDM--><g id="link_PMDM_MDM"><path d="M942.4,223.632 C969.04,249.122 1001.83,289.392 1001.83,333.202 C1001.83,333.202 1001.83,333.202 1001.83,605.872 C1001.83,687.592 756.44,716.052 602.48,725.862 " fill="none" id="PMDM-to-MDM" style="stroke:#181818;stroke-width:1.0;stroke-dasharray:7.0,7.0;"/><polygon fill="#181818" points="597.64,726.172,606.8738,729.5978,602.6301,725.8574,606.3705,721.6137,597.64,726.172" style="stroke:#181818;stroke-width:1.0;"/><text fill="#000000" font-family="sans-serif" font-size="13" lengthAdjust="spacing" textLength="66" x="1002.83" y="483.209">«manifest»</text></g><!--MD5=[69b8297db95194b99e563e6526bfc203]
link PP to P--><g id="link_PP_P"><path d="M848.48,75.732 C685.44,81.902 135.89,106.732 82.83,162.672 C6,243.672 14.36,319.892 74.83,413.742 C81.43,423.982 90.14,432.582 100,439.792 " fill="none" id="PP-to-P" style="stroke:#181818;stroke-width:1.0;stroke-dasharray:7.0,7.0;"/><polygon fill="#181818" points="104.01,442.582,98.913,434.1546,99.9078,439.7233,94.3391,440.7181,104.01,442.582" style="stroke:#181818;stroke-width:1.0;"/><text fill="#000000" font-family="sans-serif" font-size="13" lengthAdjust="spacing" textLength="66" x="30.83" y="271.569">«manifest»</text></g><!--MD5=[980c615c08313d6b7037eeadd74bd1fc]
@startuml lv-iv

folder "RobDroneGo" {
  
  folder "Visualization" as PV {
  }

  folder "MD Management" as PMDM {
  }

  folder "Planning" as PP {
  }
}


PMDM <.. PV
PP <.. PMDM

/' - - - - - - - - - - - - - - - - - - - - - - - - - - - - - - - - - - - - - - - - - - - - - - - - - - - - - '/

interface "Admin UI" as AUI
interface "Campus Manager UI" as CUI
interface "Fleet Manager UI" as FUI
interface "Task Manager UI" as TUI
interface "User UI" as UUI

component "RobDroneGo System" <<component>> <<system (C4)>> {
  portin " " as P1

  Interface "API-Management" as API
  Interface "API-Planning" as PAPI
  
  component "Visualization" as V <<component>> <<container (C4)>> {
  }

  component "MD Management" as MDM <<component>> <<container (C4)>> {
  }

  component "Planning" as P <<component>> <<container (C4)>> {
  }
}


V - - P1
MDM -up- API
V - -( API
P - -( API
P - - PAPI
MDM -up-( PAPI

AUI - - P1
CUI - - P1
FUI - - P1
TUI - - P1
UUI - - P1

PV ..> V : <<manifest>>
PMDM ..> MDM : <<manifest>>
PP ..> P : <<manifest>>

@enduml

@startuml lv-iv

folder "RobDroneGo" {
  
  folder "Visualization" as PV {
  }

  folder "MD Management" as PMDM {
  }

  folder "Planning" as PP {
  }
}


PMDM <.. PV
PP <.. PMDM


interface "Admin UI" as AUI
interface "Campus Manager UI" as CUI
interface "Fleet Manager UI" as FUI
interface "Task Manager UI" as TUI
interface "User UI" as UUI

component "RobDroneGo System" <<component>> <<system (C4)>> {
  portin " " as P1

  Interface "API-Management" as API
  Interface "API-Planning" as PAPI
  
  component "Visualization" as V <<component>> <<container (C4)>> {
  }

  component "MD Management" as MDM <<component>> <<container (C4)>> {
  }

  component "Planning" as P <<component>> <<container (C4)>> {
  }
}


V - - P1
MDM -up- API
V - -( API
P - -( API
P - - PAPI
MDM -up-( PAPI

AUI - - P1
CUI - - P1
FUI - - P1
TUI - - P1
UUI - - P1

PV ..> V : <<manifest>>
PMDM ..> MDM : <<manifest>>
PP ..> P : <<manifest>>

@enduml

PlantUML version 1.2022.7(Mon Aug 22 18:01:30 WEST 2022)
(GPL source distribution)
Java Runtime: OpenJDK Runtime Environment
JVM: OpenJDK 64-Bit Server VM
Default Encoding: UTF-8
Language: en
Country: GB
--></g></svg>