<?xml version="1.0" encoding="UTF-8" standalone="no"?><svg xmlns="http://www.w3.org/2000/svg" xmlns:xlink="http://www.w3.org/1999/xlink" contentStyleType="text/css" height="846px" preserveAspectRatio="none" style="width:1400px;height:846px;background:#FFFFFF;" version="1.1" viewBox="0 0 1400 846" width="1400px" zoomAndPan="magnify"><defs/><g><!--cluster RobDroneGo--><g id="cluster_RobDroneGo"><path d="M1053.89,7.2168 L1196.89,7.2168 A3.75,3.75 0 0 1 1199.39,9.7168 L1206.39,36.498 L1280.89,36.498 A2.5,2.5 0 0 1 1283.39,38.998 L1283.39,402.7168 A2.5,2.5 0 0 1 1280.89,405.2168 L1053.89,405.2168 A2.5,2.5 0 0 1 1051.39,402.7168 L1051.39,9.7168 A2.5,2.5 0 0 1 1053.89,7.2168 " fill="none" style="stroke:#000000;stroke-width:1.5;"/><line style="stroke:#000000;stroke-width:1.5;" x1="1051.39" x2="1206.39" y1="36.498" y2="36.498"/><text fill="#000000" font-family="sans-serif" font-size="20" font-weight="bold" lengthAdjust="spacing" textLength="142" x="1055.39" y="27.7813">RobDroneGo</text></g><!--cluster RobDroneGo System--><g id="cluster_RobDroneGo System"><rect fill="none" height="481.5" rx="2.5" ry="2.5" style="stroke:#181818;stroke-width:1.0;" width="1008" x="27.39" y="358.7168"/><rect fill="none" height="10" style="stroke:#181818;stroke-width:1.0;" width="15" x="1015.39" y="363.7168"/><rect fill="none" height="2" style="stroke:#181818;stroke-width:1.0;" width="4" x="1013.39" y="365.7168"/><rect fill="none" height="2" style="stroke:#181818;stroke-width:1.0;" width="4" x="1013.39" y="369.7168"/><text fill="#000000" font-family="sans-serif" font-size="20" font-style="italic" lengthAdjust="spacing" textLength="138" x="462.39" y="390.2813">«component»</text><text fill="#000000" font-family="sans-serif" font-size="20" font-style="italic" lengthAdjust="spacing" textLength="145" x="458.89" y="413.5625">«system (C4)»</text><text fill="#000000" font-family="sans-serif" font-size="20" font-weight="bold" lengthAdjust="spacing" textLength="233" x="414.89" y="436.8438">RobDroneGo System</text></g><!--entity PV--><g id="elem_PV"><path d="M1069.39,328.2168 L1110.39,328.2168 A3.75,3.75 0 0 1 1112.89,330.7168 L1119.89,349.2168 L1223.39,349.2168 A2.5,2.5 0 0 1 1225.89,351.7168 L1225.89,386.998 A2.5,2.5 0 0 1 1223.39,389.498 L1069.39,389.498 A2.5,2.5 0 0 1 1066.89,386.998 L1066.89,330.7168 A2.5,2.5 0 0 1 1069.39,328.2168 " fill="#F1F1F1" style="stroke:#181818;stroke-width:0.5;"/><line style="stroke:#181818;stroke-width:0.5;" x1="1066.89" x2="1119.89" y1="349.2168" y2="349.2168"/><text fill="#000000" font-family="sans-serif" font-size="20" lengthAdjust="spacing" textLength="129" x="1076.89" y="374.7813">Visualization</text></g><!--entity PMDM--><g id="elem_PMDM"><path d="M1069.89,176.7168 L1110.89,176.7168 A3.75,3.75 0 0 1 1113.39,179.2168 L1120.39,197.7168 L1264.89,197.7168 A2.5,2.5 0 0 1 1267.39,200.2168 L1267.39,235.498 A2.5,2.5 0 0 1 1264.89,237.998 L1069.89,237.998 A2.5,2.5 0 0 1 1067.39,235.498 L1067.39,179.2168 A2.5,2.5 0 0 1 1069.89,176.7168 " fill="#F1F1F1" style="stroke:#181818;stroke-width:0.5;"/><line style="stroke:#181818;stroke-width:0.5;" x1="1067.39" x2="1120.39" y1="197.7168" y2="197.7168"/><text fill="#000000" font-family="sans-serif" font-size="20" lengthAdjust="spacing" textLength="170" x="1077.39" y="223.2813">MD Management</text></g><!--entity PP--><g id="elem_PP"><path d="M1089.89,49.2168 L1130.89,49.2168 A3.75,3.75 0 0 1 1133.39,51.7168 L1140.39,70.2168 L1202.89,70.2168 A2.5,2.5 0 0 1 1205.39,72.7168 L1205.39,107.998 A2.5,2.5 0 0 1 1202.89,110.498 L1089.89,110.498 A2.5,2.5 0 0 1 1087.39,107.998 L1087.39,51.7168 A2.5,2.5 0 0 1 1089.89,49.2168 " fill="#F1F1F1" style="stroke:#181818;stroke-width:0.5;"/><line style="stroke:#181818;stroke-width:0.5;" x1="1087.39" x2="1140.39" y1="70.2168" y2="70.2168"/><text fill="#000000" font-family="sans-serif" font-size="20" lengthAdjust="spacing" textLength="88" x="1097.39" y="95.7813">Planning</text></g><text fill="#000000" font-family="sans-serif" font-size="20" lengthAdjust="spacing" textLength="6" x="589.39" y="336"> </text><rect fill="#F1F1F1" height="12" style="stroke:#181818;stroke-width:1.5;" width="12" x="586.39" y="352.7168"/><!--entity API--><g id="elem_API"><ellipse cx="575.39" cy="650.2168" fill="#F1F1F1" rx="8" ry="8" style="stroke:#181818;stroke-width:0.5;"/><text fill="#000000" font-family="sans-serif" font-size="20" lengthAdjust="spacing" textLength="171" x="489.89" y="685.7813">API-Management</text></g><!--entity PAPI--><g id="elem_PAPI"><ellipse cx="264.39" cy="650.2168" fill="#F1F1F1" rx="8" ry="8" style="stroke:#181818;stroke-width:0.5;"/><text fill="#000000" font-family="sans-serif" font-size="20" lengthAdjust="spacing" textLength="127" x="200.89" y="685.7813">API-Planning</text></g><!--entity V--><g id="elem_V"><rect fill="#F1F1F1" height="76.5625" rx="2.5" ry="2.5" style="stroke:#181818;stroke-width:0.5;" width="329" x="690.89" y="476.2168"/><rect fill="#F1F1F1" height="10" style="stroke:#181818;stroke-width:0.5;" width="15" x="999.89" y="481.2168"/><rect fill="#F1F1F1" height="2" style="stroke:#181818;stroke-width:0.5;" width="4" x="997.89" y="483.2168"/><rect fill="#F1F1F1" height="2" style="stroke:#181818;stroke-width:0.5;" width="4" x="997.89" y="487.2168"/><text fill="#000000" font-family="sans-serif" font-size="20" font-style="italic" lengthAdjust="spacing" textLength="289" x="705.89" y="514.7813">«component» «system (C4)»</text><text fill="#000000" font-family="sans-serif" font-size="20" lengthAdjust="spacing" textLength="129" x="785.89" y="538.0625">Visualization</text></g><!--entity MDM--><g id="elem_MDM"><rect fill="#F1F1F1" height="76.5625" rx="2.5" ry="2.5" style="stroke:#181818;stroke-width:0.5;" width="329" x="410.89" y="747.2168"/><rect fill="#F1F1F1" height="10" style="stroke:#181818;stroke-width:0.5;" width="15" x="719.89" y="752.2168"/><rect fill="#F1F1F1" height="2" style="stroke:#181818;stroke-width:0.5;" width="4" x="717.89" y="754.2168"/><rect fill="#F1F1F1" height="2" style="stroke:#181818;stroke-width:0.5;" width="4" x="717.89" y="758.2168"/><text fill="#000000" font-family="sans-serif" font-size="20" font-style="italic" lengthAdjust="spacing" textLength="289" x="425.89" y="785.7813">«component» «system (C4)»</text><text fill="#000000" font-family="sans-serif" font-size="20" lengthAdjust="spacing" textLength="170" x="485.39" y="809.0625">MD Management</text></g><!--entity P--><g id="elem_P"><rect fill="#F1F1F1" height="76.5625" rx="2.5" ry="2.5" style="stroke:#181818;stroke-width:0.5;" width="329" x="42.89" y="476.2168"/><rect fill="#F1F1F1" height="10" style="stroke:#181818;stroke-width:0.5;" width="15" x="351.89" y="481.2168"/><rect fill="#F1F1F1" height="2" style="stroke:#181818;stroke-width:0.5;" width="4" x="349.89" y="483.2168"/><rect fill="#F1F1F1" height="2" style="stroke:#181818;stroke-width:0.5;" width="4" x="349.89" y="487.2168"/><text fill="#000000" font-family="sans-serif" font-size="20" font-style="italic" lengthAdjust="spacing" textLength="289" x="57.89" y="514.7813">«component» «system (C4)»</text><text fill="#000000" font-family="sans-serif" font-size="20" lengthAdjust="spacing" textLength="88" x="158.39" y="538.0625">Planning</text></g><!--entity AUI--><g id="elem_AUI"><ellipse cx="725.39" cy="207.2168" fill="#F1F1F1" rx="8" ry="8" style="stroke:#181818;stroke-width:0.5;"/><text fill="#000000" font-family="sans-serif" font-size="20" lengthAdjust="spacing" textLength="93" x="678.89" y="242.7813">Admin UI</text></g><!--entity CUI--><g id="elem_CUI"><ellipse cx="923.39" cy="207.2168" fill="#F1F1F1" rx="8" ry="8" style="stroke:#181818;stroke-width:0.5;"/><text fill="#000000" font-family="sans-serif" font-size="20" lengthAdjust="spacing" textLength="202" x="822.39" y="242.7813">Campus Manager UI</text></g><!--entity FUI--><g id="elem_FUI"><ellipse cx="203.39" cy="207.2168" fill="#F1F1F1" rx="8" ry="8" style="stroke:#181818;stroke-width:0.5;"/><text fill="#000000" font-family="sans-serif" font-size="20" lengthAdjust="spacing" textLength="170" x="118.39" y="242.7813">Fleet Manager UI</text></g><!--entity TUI--><g id="elem_TUI"><ellipse cx="422.39" cy="207.2168" fill="#F1F1F1" rx="8" ry="8" style="stroke:#181818;stroke-width:0.5;"/><text fill="#000000" font-family="sans-serif" font-size="20" lengthAdjust="spacing" textLength="166" x="339.39" y="242.7813">Task Manager UI</text></g><!--entity UUI--><g id="elem_UUI"><ellipse cx="592.39" cy="207.2168" fill="#F1F1F1" rx="8" ry="8" style="stroke:#181818;stroke-width:0.5;"/><text fill="#000000" font-family="sans-serif" font-size="20" lengthAdjust="spacing" textLength="72" x="556.39" y="242.7813">User UI</text></g><!--reverse link PMDM to PV--><g id="link_PMDM_PV"><path d="M1162.53,242.7868 C1158.91,268.5768 1154.01,303.4368 1150.57,327.9868 " fill="none" id="PMDM-backto-PV" style="stroke:#181818;stroke-width:1.0;stroke-dasharray:7.0,7.0;"/><polygon fill="#181818" points="1163.24,237.7568,1158.0209,246.1091,1162.5409,242.7077,1165.9423,247.2277,1163.24,237.7568" style="stroke:#181818;stroke-width:1.0;"/></g><!--reverse link PP to PMDM--><g id="link_PP_PMDM"><path d="M1152.25,115.7468 C1155.46,134.9268 1159.4,158.4468 1162.45,176.6868 " fill="none" id="PP-backto-PMDM" style="stroke:#181818;stroke-width:1.0;stroke-dasharray:7.0,7.0;"/><polygon fill="#181818" points="1151.37,110.4568,1148.9175,119.9954,1152.1989,115.3876,1156.8067,118.6691,1151.37,110.4568" style="stroke:#181818;stroke-width:1.0;"/></g><!--link V to P1--><g id="link_V_P1"><path d="M791.1,476.0668 C724,436.7868 624.99,378.8068 598.89,363.5268 " fill="none" id="V-P1" style="stroke:#181818;stroke-width:1.0;"/></g><!--link API to MDM--><g id="link_API_MDM"><path d="M575.39,659.5668 C575.39,676.6968 575.39,716.7168 575.39,746.9268 " fill="none" id="API-MDM" style="stroke:#181818;stroke-width:1.0;"/></g><!--link V to API--><g id="link_V_API"><path d="M776.65,553.2568 C713.93,583.1568 630.79,622.8068 594.12,640.2868 " fill="none" id="V-to-API" style="stroke:#181818;stroke-width:1.0;"/><path d="M591.0995,651.0947 A9,9 0 0 0 583.8171 635.8283" fill="none" style="stroke:#181818;stroke-width:1.5;"/></g><!--link P to API--><g id="link_P_API"><path d="M310.88,553.2568 C396.9,584.4668 512.16,626.2768 556.72,642.4468 " fill="none" id="P-to-API" style="stroke:#181818;stroke-width:1.0;"/><path d="M566.2441,636.8968 A9,9 0 0 0 560.4695 652.795" fill="none" style="stroke:#181818;stroke-width:1.5;"/></g><!--link P to PAPI--><g id="link_P_PAPI"><path d="M223.42,553.2568 C236.39,583.6468 253.66,624.0868 260.93,641.1168 " fill="none" id="P-PAPI" style="stroke:#181818;stroke-width:1.0;"/></g><!--reverse link PAPI to MDM--><g id="link_PAPI_MDM"><path d="M282.89,659.1568 C322.29,676.0668 416.71,716.5968 487.69,747.0668 " fill="none" id="PAPI-backto-MDM" style="stroke:#181818;stroke-width:1.0;"/><path d="M273.1978,664.2028 A9,9 0 0 0 279.8608 648.6559" fill="none" style="stroke:#181818;stroke-width:1.5;"/></g><!--link AUI to P1--><g id="link_AUI_P1"><path d="M718.24,216.2568 C694.17,243.3068 616.54,330.5668 596.92,352.6168 " fill="none" id="AUI-P1" style="stroke:#181818;stroke-width:1.0;"/></g><!--link CUI to P1--><g id="link_CUI_P1"><path d="M914.19,212.3668 C865.54,234.3468 638.87,336.7268 598.54,354.9368 " fill="none" id="CUI-P1" style="stroke:#181818;stroke-width:1.0;"/></g><!--link FUI to P1--><g id="link_FUI_P1"><path d="M212.62,211.7668 C266.7,232.5468 541.51,338.1668 586.23,355.3468 " fill="none" id="FUI-P1" style="stroke:#181818;stroke-width:1.0;"/></g><!--link TUI to P1--><g id="link_TUI_P1"><path d="M431.53,216.2568 C462.29,243.3068 561.52,330.5668 586.59,352.6168 " fill="none" id="TUI-P1" style="stroke:#181818;stroke-width:1.0;"/></g><!--link UUI to P1--><g id="link_UUI_P1"><path d="M592.39,216.2568 C592.39,243.3068 592.39,330.5668 592.39,352.6168 " fill="none" id="UUI-P1" style="stroke:#181818;stroke-width:1.0;"/></g><!--link PV to V--><g id="link_PV_V"><path d="M1090.63,389.2268 C1045.29,413.2168 980.88,447.3068 930.92,473.7468 " fill="none" id="PV-to-V" style="stroke:#181818;stroke-width:1.0;stroke-dasharray:7.0,7.0;"/><polygon fill="#181818" points="926.44,476.1168,936.2658,475.4439,930.8596,473.7787,932.5248,468.3725,926.44,476.1168" style="stroke:#181818;stroke-width:1.0;"/><text fill="#000000" font-family="sans-serif" font-size="20" lengthAdjust="spacing" textLength="112" x="1027.39" y="440.7813">«manifest»</text></g><!--link PMDM to MDM--><g id="link_PMDM_MDM"><path d="M1207.82,237.7868 C1239.91,264.9568 1279.39,308.4268 1279.39,357.7168 C1279.39,357.7168 1279.39,357.7168 1279.39,651.2168 C1279.39,705.3868 953.53,747.6368 745.21,769.1168 " fill="none" id="PMDM-to-MDM" style="stroke:#181818;stroke-width:1.0;stroke-dasharray:7.0,7.0;"/><polygon fill="#181818" points="740,769.6568,749.3629,772.7122,744.9736,769.1438,748.5421,764.7544,740,769.6568" style="stroke:#181818;stroke-width:1.0;"/><text fill="#000000" font-family="sans-serif" font-size="20" lengthAdjust="spacing" textLength="112" x="1280.39" y="521.7813">«manifest»</text></g><!--link PP to P--><g id="link_PP_P"><path d="M1087.19,81.4368 C875.23,84.5968 162.94,100.4568 92.39,171.2168 C6,257.8668 16.19,341.4468 79.39,446.2168 C85.63,456.5668 94.05,465.4168 103.61,472.9568 " fill="none" id="PP-to-P" style="stroke:#181818;stroke-width:1.0;stroke-dasharray:7.0,7.0;"/><polygon fill="#181818" points="107.77,476.1068,103.0045,467.4877,103.782,473.0908,98.1789,473.8684,107.77,476.1068" style="stroke:#181818;stroke-width:1.0;"/><text fill="#000000" font-family="sans-serif" font-size="20" lengthAdjust="spacing" textLength="112" x="34.39" y="292.7813">«manifest»</text></g><!--SRC=[dPDDRuCm38Rl-HKMbtO7w3RjD5MLAYec3aXeBTop4gge944a7DPf_trEQ1aVbsuLKXs_ZuppskWpbpLjgAZKySmAA5X9syf4Ifezlp1uVYIaL5N16l3UrSUkKPAzAG- -200-DoddkgKLlr33bVI0QaXpntoJ0PNi8A6IdfXWqdHKialcN5fHARayTKXw1H0XZby70POdABW8KuIi5k3_vmUB5I5S6jQKzCZ0snQ2IyXYz-fj5W-ra8gwrTShD3Se74DHnPYPCj6OEL1zdYA7CPBfNob3YHoLgD5xQOPpWFsdDanui5xt-cQ39-toi0nV7l1i_QjLO_1c7dIcFbc_uy6zqzYVp0PJSsOycWx1Pz3TV1NoEzfpynzKcQ-Ac_oVwupxlQk0tRCSjycQP5_gjxNlpB39fOlIKTJvS4ENtP7WyboBX7qKzT6XZx8-8lZD1C46_Nh5rWILl6GQ- -ostYhsVwgbJacd-Hy0]--></g></svg>