<?xml version="1.0" encoding="UTF-8" standalone="no"?><svg xmlns="http://www.w3.org/2000/svg" xmlns:xlink="http://www.w3.org/1999/xlink" contentStyleType="text/css" height="897px" preserveAspectRatio="none" style="width:1343px;height:897px;background:#FFFFFF;" version="1.1" viewBox="0 0 1343 897" width="1343px" zoomAndPan="magnify"><defs/><g><!--cluster RobDroneGo--><g id="cluster_RobDroneGo"><path d="M1020.05,8.36 L1148.3,8.36 A3.75,3.75 0 0 1 1150.8,10.86 L1157.8,41.6 L1239.05,41.6 A2.5,2.5 0 0 1 1241.55,44.1 L1241.55,427.86 A2.5,2.5 0 0 1 1239.05,430.36 L1020.05,430.36 A2.5,2.5 0 0 1 1017.55,427.86 L1017.55,10.86 A2.5,2.5 0 0 1 1020.05,8.36 " fill="none" style="stroke:#000000;stroke-width:1.5;"/><line style="stroke:#000000;stroke-width:1.5;" x1="1017.55" x2="1157.8" y1="41.6" y2="41.6"/><text fill="#000000" font-family="sans-serif" font-size="20" font-weight="bold" lengthAdjust="spacing" textLength="127.25" x="1021.55" y="31.74">RobDroneGo</text></g><!--cluster RobDroneGo System--><g id="cluster_RobDroneGo System"><rect fill="none" height="509.5" rx="2.5" ry="2.5" style="stroke:#181818;stroke-width:1.0;" width="902" x="99.55" y="381.86"/><rect fill="none" height="10" style="stroke:#181818;stroke-width:1.0;" width="15" x="981.55" y="386.86"/><rect fill="none" height="2" style="stroke:#181818;stroke-width:1.0;" width="4" x="979.55" y="388.86"/><rect fill="none" height="2" style="stroke:#181818;stroke-width:1.0;" width="4" x="979.55" y="392.86"/><text fill="#000000" font-family="sans-serif" font-size="20" font-style="italic" lengthAdjust="spacing" textLength="122" x="489.55" y="416.24">«component»</text><text fill="#000000" font-family="sans-serif" font-size="20" font-style="italic" lengthAdjust="spacing" textLength="122" x="489.55" y="443.4799">«system (C4)»</text><text fill="#000000" font-family="sans-serif" font-size="20" font-weight="bold" lengthAdjust="spacing" textLength="204" x="448.55" y="470.7199">RobDroneGo System</text></g><!--entity PV--><g id="elem_PV"><path d="M1036.05,349.36 L1077.05,349.36 A3.75,3.75 0 0 1 1079.55,351.86 L1086.55,370.36 L1177.05,370.36 A2.5,2.5 0 0 1 1179.55,372.86 L1179.55,412.1 A2.5,2.5 0 0 1 1177.05,414.6 L1036.05,414.6 A2.5,2.5 0 0 1 1033.55,412.1 L1033.55,351.86 A2.5,2.5 0 0 1 1036.05,349.36 " fill="#F1F1F1" style="stroke:#181818;stroke-width:0.5;"/><line style="stroke:#181818;stroke-width:0.5;" x1="1033.55" x2="1086.55" y1="370.36" y2="370.36"/><text fill="#000000" font-family="sans-serif" font-size="20" lengthAdjust="spacing" textLength="116" x="1043.55" y="398.74">Visualization</text></g><!--entity PMDM--><g id="elem_PMDM"><path d="M1036.05,187.86 L1077.05,187.86 A3.75,3.75 0 0 1 1079.55,190.36 L1086.55,208.86 L1223.05,208.86 A2.5,2.5 0 0 1 1225.55,211.36 L1225.55,250.6 A2.5,2.5 0 0 1 1223.05,253.1 L1036.05,253.1 A2.5,2.5 0 0 1 1033.55,250.6 L1033.55,190.36 A2.5,2.5 0 0 1 1036.05,187.86 " fill="#F1F1F1" style="stroke:#181818;stroke-width:0.5;"/><line style="stroke:#181818;stroke-width:0.5;" x1="1033.55" x2="1086.55" y1="208.86" y2="208.86"/><text fill="#000000" font-family="sans-serif" font-size="20" lengthAdjust="spacing" textLength="162" x="1043.55" y="237.24">MD Management</text></g><!--entity PP--><g id="elem_PP"><path d="M1056.55,54.36 L1097.55,54.36 A3.75,3.75 0 0 1 1100.05,56.86 L1107.05,75.36 L1162.55,75.36 A2.5,2.5 0 0 1 1165.05,77.86 L1165.05,117.1 A2.5,2.5 0 0 1 1162.55,119.6 L1056.55,119.6 A2.5,2.5 0 0 1 1054.05,117.1 L1054.05,56.86 A2.5,2.5 0 0 1 1056.55,54.36 " fill="#F1F1F1" style="stroke:#181818;stroke-width:0.5;"/><line style="stroke:#181818;stroke-width:0.5;" x1="1054.05" x2="1107.05" y1="75.36" y2="75.36"/><text fill="#000000" font-family="sans-serif" font-size="20" lengthAdjust="spacing" textLength="81" x="1064.05" y="103.74">Planning</text></g><text fill="#000000" font-family="sans-serif" font-size="20" lengthAdjust="spacing" textLength="5" x="571.05" y="358"> </text><rect fill="#F1F1F1" height="12" style="stroke:#181818;stroke-width:1.5;" width="12" x="567.55" y="375.86"/><!--entity API--><g id="elem_API"><ellipse cx="597.55" cy="690.36" fill="#F1F1F1" rx="8" ry="8" style="stroke:#181818;stroke-width:0.5;"/><text fill="#000000" font-family="sans-serif" font-size="20" lengthAdjust="spacing" textLength="162" x="516.55" y="728.74">API-Management</text></g><!--entity PAPI--><g id="elem_PAPI"><ellipse cx="309.55" cy="690.36" fill="#F1F1F1" rx="8" ry="8" style="stroke:#181818;stroke-width:0.5;"/><text fill="#000000" font-family="sans-serif" font-size="20" lengthAdjust="spacing" textLength="119" x="250.05" y="728.74">API-Planning</text></g><!--entity V--><g id="elem_V"><rect fill="#F1F1F1" height="84.4799" rx="2.5" ry="2.5" style="stroke:#181818;stroke-width:0.5;" width="289" x="696.05" y="505.36"/><rect fill="#F1F1F1" height="10" style="stroke:#181818;stroke-width:0.5;" width="15" x="965.05" y="510.36"/><rect fill="#F1F1F1" height="2" style="stroke:#181818;stroke-width:0.5;" width="4" x="963.05" y="512.36"/><rect fill="#F1F1F1" height="2" style="stroke:#181818;stroke-width:0.5;" width="4" x="963.05" y="516.36"/><text fill="#000000" font-family="sans-serif" font-size="20" font-style="italic" lengthAdjust="spacing" textLength="249" x="711.05" y="546.74">«component» «system (C4)»</text><text fill="#000000" font-family="sans-serif" font-size="20" lengthAdjust="spacing" textLength="116" x="777.55" y="573.9799">Visualization</text></g><!--entity MDM--><g id="elem_MDM"><rect fill="#F1F1F1" height="84.4799" rx="2.5" ry="2.5" style="stroke:#181818;stroke-width:0.5;" width="289" x="453.05" y="791.36"/><rect fill="#F1F1F1" height="10" style="stroke:#181818;stroke-width:0.5;" width="15" x="722.05" y="796.36"/><rect fill="#F1F1F1" height="2" style="stroke:#181818;stroke-width:0.5;" width="4" x="720.05" y="798.36"/><rect fill="#F1F1F1" height="2" style="stroke:#181818;stroke-width:0.5;" width="4" x="720.05" y="802.36"/><text fill="#000000" font-family="sans-serif" font-size="20" font-style="italic" lengthAdjust="spacing" textLength="249" x="468.05" y="832.74">«component» «system (C4)»</text><text fill="#000000" font-family="sans-serif" font-size="20" lengthAdjust="spacing" textLength="162" x="511.55" y="859.9799">MD Management</text></g><!--entity P--><g id="elem_P"><rect fill="#F1F1F1" height="84.4799" rx="2.5" ry="2.5" style="stroke:#181818;stroke-width:0.5;" width="289" x="116.05" y="505.36"/><rect fill="#F1F1F1" height="10" style="stroke:#181818;stroke-width:0.5;" width="15" x="385.05" y="510.36"/><rect fill="#F1F1F1" height="2" style="stroke:#181818;stroke-width:0.5;" width="4" x="383.05" y="512.36"/><rect fill="#F1F1F1" height="2" style="stroke:#181818;stroke-width:0.5;" width="4" x="383.05" y="516.36"/><text fill="#000000" font-family="sans-serif" font-size="20" font-style="italic" lengthAdjust="spacing" textLength="249" x="131.05" y="546.74">«component» «system (C4)»</text><text fill="#000000" font-family="sans-serif" font-size="20" lengthAdjust="spacing" textLength="81" x="215.05" y="573.9799">Planning</text></g><!--entity AUI--><g id="elem_AUI"><ellipse cx="703.55" cy="220.36" fill="#F1F1F1" rx="8" ry="8" style="stroke:#181818;stroke-width:0.5;"/><text fill="#000000" font-family="sans-serif" font-size="20" lengthAdjust="spacing" textLength="88" x="659.55" y="258.74">Admin UI</text></g><!--entity CUI--><g id="elem_CUI"><ellipse cx="894.55" cy="220.36" fill="#F1F1F1" rx="8" ry="8" style="stroke:#181818;stroke-width:0.5;"/><text fill="#000000" font-family="sans-serif" font-size="20" lengthAdjust="spacing" textLength="192" x="798.55" y="258.74">Campus Manager UI</text></g><!--entity FUI--><g id="elem_FUI"><ellipse cx="199.55" cy="220.36" fill="#F1F1F1" rx="8" ry="8" style="stroke:#181818;stroke-width:0.5;"/><text fill="#000000" font-family="sans-serif" font-size="20" lengthAdjust="spacing" textLength="159" x="120.05" y="258.74">Fleet Manager UI</text></g><!--entity TUI--><g id="elem_TUI"><ellipse cx="408.55" cy="220.36" fill="#F1F1F1" rx="8" ry="8" style="stroke:#181818;stroke-width:0.5;"/><text fill="#000000" font-family="sans-serif" font-size="20" lengthAdjust="spacing" textLength="158" x="329.55" y="258.74">Task Manager UI</text></g><!--entity UUI--><g id="elem_UUI"><ellipse cx="573.55" cy="220.36" fill="#F1F1F1" rx="8" ry="8" style="stroke:#181818;stroke-width:0.5;"/><text fill="#000000" font-family="sans-serif" font-size="20" lengthAdjust="spacing" textLength="71" x="538.05" y="258.74">User UI</text></g><!--reverse link PMDM to PV--><g id="link_PMDM_PV"><path d="M1124.03,259.64 C1120.09,286.96 1114.85,323.28 1111.14,349.02 " fill="none" id="PMDM-backto-PV" style="stroke:#181818;stroke-width:1.0;stroke-dasharray:7.0,7.0;"/><polygon fill="#181818" points="1124.73,254.75,1119.4873,263.0875,1124.0169,259.6989,1127.4055,264.2285,1124.73,254.75" style="stroke:#181818;stroke-width:1.0;"/></g><!--reverse link PP to PMDM--><g id="link_PP_PMDM"><path d="M1115.36,126.12 C1118.32,145.56 1121.87,168.9 1124.68,187.36 " fill="none" id="PP-backto-PMDM" style="stroke:#181818;stroke-width:1.0;stroke-dasharray:7.0,7.0;"/><polygon fill="#181818" points="1114.61,121.19,1112.0188,130.6919,1115.3671,126.1323,1119.9266,129.4806,1114.61,121.19" style="stroke:#181818;stroke-width:1.0;"/></g><!--link V to P1--><g id="link_V_P1"><path d="M772.84,504.9 C704.57,463.09 605.67,402.53 579.88,386.74 " fill="none" id="V-P1" style="stroke:#181818;stroke-width:1.0;"/></g><!--link API to MDM--><g id="link_API_MDM"><path d="M597.55,699.34 C597.55,716.71 597.55,758.92 597.55,791.17 " fill="none" id="API-MDM" style="stroke:#181818;stroke-width:1.0;"/></g><!--link V to API--><g id="link_V_API"><path d="M769.28,589.71 C716.66,620.24 648.8,659.62 616.39,678.43 " fill="none" id="V-to-API" style="stroke:#181818;stroke-width:1.0;"/><path d="M614.7024,689.1855 A9,9 0 0 0 606.2248 674.5489" fill="none" style="stroke:#181818;stroke-width:1.5;"/></g><!--link P to API--><g id="link_P_API"><path d="M359.38,589.71 C436.45,621.96 537.12,664.08 578.51,681.4 " fill="none" id="P-to-API" style="stroke:#181818;stroke-width:1.0;"/><path d="M587.9813,676.1899 A9,9 0 0 0 581.4585 691.7961" fill="none" style="stroke:#181818;stroke-width:1.5;"/></g><!--link P to PAPI--><g id="link_P_PAPI"><path d="M274.85,589.52 C286.09,621.87 300.82,664.26 306.82,681.53 " fill="none" id="P-PAPI" style="stroke:#181818;stroke-width:1.0;"/></g><!--reverse link PAPI to MDM--><g id="link_PAPI_MDM"><path d="M328.79,700.78 C365.77,718.89 448.78,759.53 512.83,790.88 " fill="none" id="PAPI-backto-MDM" style="stroke:#181818;stroke-width:1.0;"/><path d="M318.8853,705.3492 A9,9 0 0 0 326.3238 690.1582" fill="none" style="stroke:#181818;stroke-width:1.5;"/></g><!--link AUI to P1--><g id="link_AUI_P1"><path d="M697.28,229.05 C674.55,256.93 596.86,352.25 577.8,375.64 " fill="none" id="AUI-P1" style="stroke:#181818;stroke-width:1.0;"/></g><!--link CUI to P1--><g id="link_CUI_P1"><path d="M885.62,225.79 C838.64,249.14 620.51,357.52 580.02,377.64 " fill="none" id="CUI-P1" style="stroke:#181818;stroke-width:1.0;"/></g><!--link FUI to P1--><g id="link_FUI_P1"><path d="M208.42,225.15 C260.19,247.22 522.38,359.04 567.07,378.1 " fill="none" id="FUI-P1" style="stroke:#181818;stroke-width:1.0;"/></g><!--link TUI to P1--><g id="link_TUI_P1"><path d="M416.5,229.05 C445.34,256.93 543.95,352.25 568.15,375.64 " fill="none" id="TUI-P1" style="stroke:#181818;stroke-width:1.0;"/></g><!--link UUI to P1--><g id="link_UUI_P1"><path d="M573.55,229.05 C573.55,256.93 573.55,352.25 573.55,375.64 " fill="none" id="UUI-P1" style="stroke:#181818;stroke-width:1.0;"/></g><!--link PV to V--><g id="link_PV_V"><path d="M1054.63,414.77 C1014.38,439.51 958.12,474.09 913.37,501.6 " fill="none" id="PV-to-V" style="stroke:#181818;stroke-width:1.0;stroke-dasharray:7.0,7.0;"/><polygon fill="#181818" points="909.27,504.12,919.0325,502.8189,913.5307,501.5035,914.8461,496.0017,909.27,504.12" style="stroke:#181818;stroke-width:1.0;"/><text fill="#000000" font-family="sans-serif" font-size="20" lengthAdjust="spacing" textLength="102" x="997.55" y="468.74">«manifest»</text></g><!--link PMDM to MDM--><g id="link_PMDM_MDM"><path d="M1165.86,253.26 C1195.51,283 1232.55,330.26 1232.55,380.86 C1232.55,380.86 1232.55,380.86 1232.55,691.36 C1232.55,790.04 936.61,819.7 748.79,828.59 " fill="none" id="PMDM-to-MDM" style="stroke:#181818;stroke-width:1.0;stroke-dasharray:7.0,7.0;"/><polygon fill="#181818" points="743.94,828.81,753.1133,832.3948,748.9348,828.5817,752.7479,824.4032,743.94,828.81" style="stroke:#181818;stroke-width:1.0;"/><text fill="#000000" font-family="sans-serif" font-size="20" lengthAdjust="spacing" textLength="102" x="1233.55" y="555.24">«manifest»</text></g><!--link PP to P--><g id="link_PP_P"><path d="M1053.85,88.71 C851.18,92.37 161.38,109.94 95.55,180.36 C6,276.15 18.97,366.15 91.55,475.36 C98.15,485.29 106.43,493.84 115.77,501.19 " fill="none" id="PP-to-P" style="stroke:#181818;stroke-width:1.0;stroke-dasharray:7.0,7.0;"/><polygon fill="#181818" points="119.54,504.02,114.74,495.42,115.54,501.02,109.94,501.82,119.54,504.02" style="stroke:#181818;stroke-width:1.0;"/><text fill="#000000" font-family="sans-serif" font-size="20" lengthAdjust="spacing" textLength="102" x="36.55" y="312.74">«manifest»</text></g><!--SRC=[dPDDRuCm38Rl-HKMbtO7w3RjD5MLAYec3aXeBTop4gge944a7DPf_trEQ1aVbsuLKXs_ZuppskWpbpLjgAZKySmAA5X9syf4Ifezlp1uVYIaL5N16l3UrSUkKPAzAG- -200-DoddkgKLlr33bVI0QaXpntoJ0PNi8A6IdfXWqdHKialcN5fHARayTKXw1H0XZby70POdABW8KuIi5k3_vmUB5I5S6jQKzCZ0snQ2IyXYz-fj5W-ra8gwrTShD3Se74DHnPYPCj6OEL1zdYA7CPBfNob3YHoLgD5xQOPpWFsdDanui5xt-cQ39-toi0nV7l1i_QjLO_1c7dIcFbc_uy6zqzYVp0PJSsOycWx1Pz3TV1NoEzfpynzKcQ-Ac_oVwupxlQk0tRCSjycQP5_gjxNlpB39fOlIKTJvS4ENtP7WyboBX7qKzT6XZx8-8lZD1C46_Nh5rWILl6GQ- -ostYhsVwgbJacd-Hy0]--></g></svg>