<?xml version="1.0" encoding="UTF-8" standalone="no"?><svg xmlns="http://www.w3.org/2000/svg" xmlns:xlink="http://www.w3.org/1999/xlink" contentStyleType="text/css" height="898px" preserveAspectRatio="none" style="width:1347px;height:898px;background:#FFFFFF;" version="1.1" viewBox="0 0 1347 898" width="1347px" zoomAndPan="magnify"><defs/><g><!--cluster RobDroneGo--><g id="cluster_RobDroneGo"><path d="M1023.71,8.36 L1151.96,8.36 A3.75,3.75 0 0 1 1154.46,10.86 L1161.46,41.6 L1242.71,41.6 A2.5,2.5 0 0 1 1245.21,44.1 L1245.21,428.34 A2.5,2.5 0 0 1 1242.71,430.84 L1023.71,430.84 A2.5,2.5 0 0 1 1021.21,428.34 L1021.21,10.86 A2.5,2.5 0 0 1 1023.71,8.36 " fill="none" style="stroke:#000000;stroke-width:1.5;"/><line style="stroke:#000000;stroke-width:1.5;" x1="1021.21" x2="1161.46" y1="41.6" y2="41.6"/><text fill="#000000" font-family="sans-serif" font-size="20" font-weight="bold" lengthAdjust="spacing" textLength="127.25" x="1025.21" y="31.74">RobDroneGo</text></g><!--cluster RobDroneGo System--><g id="cluster_RobDroneGo System"><rect fill="none" height="510.58" rx="2.5" ry="2.5" style="stroke:#181818;stroke-width:1.0;" width="946" x="59.21" y="382.22"/><rect fill="none" height="10" style="stroke:#181818;stroke-width:1.0;" width="15" x="985.21" y="387.22"/><rect fill="none" height="2" style="stroke:#181818;stroke-width:1.0;" width="4" x="983.21" y="389.22"/><rect fill="none" height="2" style="stroke:#181818;stroke-width:1.0;" width="4" x="983.21" y="393.22"/><text fill="#000000" font-family="sans-serif" font-size="20" font-style="italic" lengthAdjust="spacing" textLength="122" x="471.21" y="416.6">«component»</text><text fill="#000000" font-family="sans-serif" font-size="20" font-style="italic" lengthAdjust="spacing" textLength="122" x="471.21" y="443.8399">«system (C4)»</text><text fill="#000000" font-family="sans-serif" font-size="20" font-weight="bold" lengthAdjust="spacing" textLength="204" x="430.21" y="471.0799">RobDroneGo System</text></g><!--entity PV--><g id="elem_PV"><path d="M1039.71,349.6 L1080.71,349.6 A3.75,3.75 0 0 1 1083.21,352.1 L1090.21,370.6 L1180.71,370.6 A2.5,2.5 0 0 1 1183.21,373.1 L1183.21,412.34 A2.5,2.5 0 0 1 1180.71,414.84 L1039.71,414.84 A2.5,2.5 0 0 1 1037.21,412.34 L1037.21,352.1 A2.5,2.5 0 0 1 1039.71,349.6 " fill="#F1F1F1" style="stroke:#181818;stroke-width:0.5;"/><line style="stroke:#181818;stroke-width:0.5;" x1="1037.21" x2="1090.21" y1="370.6" y2="370.6"/><text fill="#000000" font-family="sans-serif" font-size="20" lengthAdjust="spacing" textLength="116" x="1047.21" y="398.98">Visualization</text></g><!--entity PMDM--><g id="elem_PMDM"><path d="M1039.71,187.98 L1080.71,187.98 A3.75,3.75 0 0 1 1083.21,190.48 L1090.21,208.98 L1226.71,208.98 A2.5,2.5 0 0 1 1229.21,211.48 L1229.21,250.72 A2.5,2.5 0 0 1 1226.71,253.22 L1039.71,253.22 A2.5,2.5 0 0 1 1037.21,250.72 L1037.21,190.48 A2.5,2.5 0 0 1 1039.71,187.98 " fill="#F1F1F1" style="stroke:#181818;stroke-width:0.5;"/><line style="stroke:#181818;stroke-width:0.5;" x1="1037.21" x2="1090.21" y1="208.98" y2="208.98"/><text fill="#000000" font-family="sans-serif" font-size="20" lengthAdjust="spacing" textLength="162" x="1047.21" y="237.36">MD Management</text></g><!--entity PP--><g id="elem_PP"><path d="M1060.21,54.36 L1101.21,54.36 A3.75,3.75 0 0 1 1103.71,56.86 L1110.71,75.36 L1166.21,75.36 A2.5,2.5 0 0 1 1168.71,77.86 L1168.71,117.1 A2.5,2.5 0 0 1 1166.21,119.6 L1060.21,119.6 A2.5,2.5 0 0 1 1057.71,117.1 L1057.71,56.86 A2.5,2.5 0 0 1 1060.21,54.36 " fill="#F1F1F1" style="stroke:#181818;stroke-width:0.5;"/><line style="stroke:#181818;stroke-width:0.5;" x1="1057.71" x2="1110.71" y1="75.36" y2="75.36"/><text fill="#000000" font-family="sans-serif" font-size="20" lengthAdjust="spacing" textLength="81" x="1067.71" y="103.74">Planning</text></g><text fill="#000000" font-family="sans-serif" font-size="20" lengthAdjust="spacing" textLength="5" x="574.71" y="358.36"> </text><rect fill="#F1F1F1" height="12" style="stroke:#181818;stroke-width:1.5;" width="12" x="571.21" y="376.22"/><!--entity API--><g id="elem_API"><ellipse cx="577.21" cy="691.32" fill="#F1F1F1" rx="8" ry="8" style="stroke:#181818;stroke-width:0.5;"/><text fill="#000000" font-family="sans-serif" font-size="20" lengthAdjust="spacing" textLength="162" x="496.21" y="729.7">API-Management</text></g><!--entity PAPI--><g id="elem_PAPI"><ellipse cx="283.21" cy="691.32" fill="#F1F1F1" rx="8" ry="8" style="stroke:#181818;stroke-width:0.5;"/><text fill="#000000" font-family="sans-serif" font-size="20" lengthAdjust="spacing" textLength="119" x="223.71" y="729.7">API-Planning</text></g><!--entity V--><g id="elem_V"><rect fill="#F1F1F1" height="84.4799" rx="2.5" ry="2.5" style="stroke:#181818;stroke-width:0.5;" width="312" x="677.21" y="505.84"/><rect fill="#F1F1F1" height="10" style="stroke:#181818;stroke-width:0.5;" width="15" x="969.21" y="510.84"/><rect fill="#F1F1F1" height="2" style="stroke:#181818;stroke-width:0.5;" width="4" x="967.21" y="512.84"/><rect fill="#F1F1F1" height="2" style="stroke:#181818;stroke-width:0.5;" width="4" x="967.21" y="516.84"/><text fill="#000000" font-family="sans-serif" font-size="20" font-style="italic" lengthAdjust="spacing" textLength="272" x="692.21" y="547.22">«component» «container (C4)»</text><text fill="#000000" font-family="sans-serif" font-size="20" lengthAdjust="spacing" textLength="116" x="770.21" y="574.4599">Visualization</text></g><!--entity MDM--><g id="elem_MDM"><rect fill="#F1F1F1" height="84.4799" rx="2.5" ry="2.5" style="stroke:#181818;stroke-width:0.5;" width="312" x="421.21" y="792.32"/><rect fill="#F1F1F1" height="10" style="stroke:#181818;stroke-width:0.5;" width="15" x="713.21" y="797.32"/><rect fill="#F1F1F1" height="2" style="stroke:#181818;stroke-width:0.5;" width="4" x="711.21" y="799.32"/><rect fill="#F1F1F1" height="2" style="stroke:#181818;stroke-width:0.5;" width="4" x="711.21" y="803.32"/><text fill="#000000" font-family="sans-serif" font-size="20" font-style="italic" lengthAdjust="spacing" textLength="272" x="436.21" y="833.7">«component» «container (C4)»</text><text fill="#000000" font-family="sans-serif" font-size="20" lengthAdjust="spacing" textLength="162" x="491.21" y="860.9399">MD Management</text></g><!--entity P--><g id="elem_P"><rect fill="#F1F1F1" height="84.4799" rx="2.5" ry="2.5" style="stroke:#181818;stroke-width:0.5;" width="312" x="75.21" y="505.84"/><rect fill="#F1F1F1" height="10" style="stroke:#181818;stroke-width:0.5;" width="15" x="367.21" y="510.84"/><rect fill="#F1F1F1" height="2" style="stroke:#181818;stroke-width:0.5;" width="4" x="365.21" y="512.84"/><rect fill="#F1F1F1" height="2" style="stroke:#181818;stroke-width:0.5;" width="4" x="365.21" y="516.84"/><text fill="#000000" font-family="sans-serif" font-size="20" font-style="italic" lengthAdjust="spacing" textLength="272" x="90.21" y="547.22">«component» «container (C4)»</text><text fill="#000000" font-family="sans-serif" font-size="20" lengthAdjust="spacing" textLength="81" x="185.71" y="574.4599">Planning</text></g><!--entity AUI--><g id="elem_AUI"><ellipse cx="707.21" cy="220.6" fill="#F1F1F1" rx="8" ry="8" style="stroke:#181818;stroke-width:0.5;"/><text fill="#000000" font-family="sans-serif" font-size="20" lengthAdjust="spacing" textLength="88" x="663.21" y="258.98">Admin UI</text></g><!--entity CUI--><g id="elem_CUI"><ellipse cx="898.21" cy="220.6" fill="#F1F1F1" rx="8" ry="8" style="stroke:#181818;stroke-width:0.5;"/><text fill="#000000" font-family="sans-serif" font-size="20" lengthAdjust="spacing" textLength="192" x="802.21" y="258.98">Campus Manager UI</text></g><!--entity FUI--><g id="elem_FUI"><ellipse cx="203.21" cy="220.6" fill="#F1F1F1" rx="8" ry="8" style="stroke:#181818;stroke-width:0.5;"/><text fill="#000000" font-family="sans-serif" font-size="20" lengthAdjust="spacing" textLength="159" x="123.71" y="258.98">Fleet Manager UI</text></g><!--entity TUI--><g id="elem_TUI"><ellipse cx="412.21" cy="220.6" fill="#F1F1F1" rx="8" ry="8" style="stroke:#181818;stroke-width:0.5;"/><text fill="#000000" font-family="sans-serif" font-size="20" lengthAdjust="spacing" textLength="158" x="333.21" y="258.98">Task Manager UI</text></g><!--entity UUI--><g id="elem_UUI"><ellipse cx="577.21" cy="220.6" fill="#F1F1F1" rx="8" ry="8" style="stroke:#181818;stroke-width:0.5;"/><text fill="#000000" font-family="sans-serif" font-size="20" lengthAdjust="spacing" textLength="71" x="541.71" y="258.98">User UI</text></g><!--reverse link PMDM to PV--><g id="link_PMDM_PV"><path d="M1127.79,259.22 C1123.84,286.64 1118.55,323.38 1114.8,349.36 " fill="none" id="PMDM-backto-PV" style="stroke:#181818;stroke-width:1.0;stroke-dasharray:7.0,7.0;"/><polygon fill="#181818" points="1128.61,254.52,1123.3639,262.8554,1127.8949,259.4686,1131.2817,263.9996,1128.61,254.52" style="stroke:#181818;stroke-width:1.0;"/></g><!--reverse link PP to PMDM--><g id="link_PP_PMDM"><path d="M1118.95,125.77 C1121.93,145.32 1125.51,168.93 1128.35,187.58 " fill="none" id="PP-backto-PMDM" style="stroke:#181818;stroke-width:1.0;stroke-dasharray:7.0,7.0;"/><polygon fill="#181818" points="1118.05,120.84,1115.4547,130.3408,1118.8049,125.7827,1123.363,129.1329,1118.05,120.84" style="stroke:#181818;stroke-width:1.0;"/></g><!--link V to P1--><g id="link_V_P1"><path d="M768.24,505.49 C703,463.73 608.64,403.34 583.54,387.27 " fill="none" id="V-P1" style="stroke:#181818;stroke-width:1.0;"/></g><!--link API to MDM--><g id="link_API_MDM"><path d="M577.21,700.32 C577.21,717.65 577.21,759.71 577.21,791.98 " fill="none" id="API-MDM" style="stroke:#181818;stroke-width:1.0;"/></g><!--link V to API--><g id="link_V_API"><path d="M757.79,590.69 C701.36,621.83 628.43,662.06 595.17,680.41 " fill="none" id="V-to-API" style="stroke:#181818;stroke-width:1.0;"/><path d="M593.6265,691.4712 A9,9 0 0 0 585.4409 676.6694" fill="none" style="stroke:#181818;stroke-width:1.5;"/></g><!--link P to API--><g id="link_P_API"><path d="M333.15,590.69 C412.6,623.12 516.23,665.43 558.27,682.59 " fill="none" id="P-to-API" style="stroke:#181818;stroke-width:1.0;"/><path d="M567.7721,677.7369 A9,9 0 0 0 561.3696 693.3928" fill="none" style="stroke:#181818;stroke-width:1.5;"/></g><!--link P to PAPI--><g id="link_P_PAPI"><path d="M246.53,590.69 C258.46,623.08 274.01,665.32 280.34,682.52 " fill="none" id="P-PAPI" style="stroke:#181818;stroke-width:1.0;"/></g><!--reverse link PAPI to MDM--><g id="link_PAPI_MDM"><path d="M301.46,701.09 C338.43,718.85 424.25,760.08 490.41,791.86 " fill="none" id="PAPI-backto-MDM" style="stroke:#181818;stroke-width:1.0;"/><path d="M292.124,705.5063 A9,9 0 0 0 299.4457 690.2586" fill="none" style="stroke:#181818;stroke-width:1.5;"/></g><!--link AUI to P1--><g id="link_AUI_P1"><path d="M700.94,229.3 C678.22,257.2 600.53,352.59 581.46,376 " fill="none" id="AUI-P1" style="stroke:#181818;stroke-width:1.0;"/></g><!--link CUI to P1--><g id="link_CUI_P1"><path d="M889.29,226.04 C842.31,249.4 624.17,357.87 583.69,378 " fill="none" id="CUI-P1" style="stroke:#181818;stroke-width:1.0;"/></g><!--link FUI to P1--><g id="link_FUI_P1"><path d="M212.09,225.39 C263.86,247.48 526.05,359.38 570.73,378.45 " fill="none" id="FUI-P1" style="stroke:#181818;stroke-width:1.0;"/></g><!--link TUI to P1--><g id="link_TUI_P1"><path d="M420.17,229.3 C449.01,257.2 547.62,352.59 571.82,376 " fill="none" id="TUI-P1" style="stroke:#181818;stroke-width:1.0;"/></g><!--link UUI to P1--><g id="link_UUI_P1"><path d="M577.21,229.3 C577.21,257.2 577.21,352.59 577.21,376 " fill="none" id="UUI-P1" style="stroke:#181818;stroke-width:1.0;"/></g><!--link PV to V--><g id="link_PV_V"><path d="M1056.15,415.2 C1014.14,440.05 955.39,474.81 908.74,502.4 " fill="none" id="PV-to-V" style="stroke:#181818;stroke-width:1.0;stroke-dasharray:7.0,7.0;"/><polygon fill="#181818" points="904.69,505.39,914.4729,504.2519,908.9938,502.8449,910.4007,497.3658,904.69,505.39" style="stroke:#181818;stroke-width:1.0;"/><text fill="#000000" font-family="sans-serif" font-size="20" lengthAdjust="spacing" textLength="102" x="997.21" y="469.22">«manifest»</text></g><!--link PMDM to MDM--><g id="link_PMDM_MDM"><path d="M1169.53,253.53 C1199.18,283.29 1236.21,330.6 1236.21,381.22 C1236.21,381.22 1236.21,381.22 1236.21,692.32 C1236.21,793.7 934.25,822.55 739.13,830.61 " fill="none" id="PMDM-to-MDM" style="stroke:#181818;stroke-width:1.0;stroke-dasharray:7.0,7.0;"/><polygon fill="#181818" points="734.39,830.84,743.5431,834.476,739.386,830.6396,743.2224,826.4825,734.39,830.84" style="stroke:#181818;stroke-width:1.0;"/><text fill="#000000" font-family="sans-serif" font-size="20" lengthAdjust="spacing" textLength="102" x="1237.21" y="555.96">«manifest»</text></g><!--link PP to P--><g id="link_PP_P"><path d="M1057.23,88.96 C854.35,93.05 165.92,111.93 98.21,180.6 C6,274.13 15.62,364.45 85.21,475.84 C91.44,485.81 99.51,494.42 108.66,501.85 " fill="none" id="PP-to-P" style="stroke:#181818;stroke-width:1.0;stroke-dasharray:7.0,7.0;"/><polygon fill="#181818" points="112.23,505.41,107.5881,496.7236,108.2855,502.3373,102.6719,503.0347,112.23,505.41" style="stroke:#181818;stroke-width:1.0;"/><text fill="#000000" font-family="sans-serif" font-size="20" lengthAdjust="spacing" textLength="102" x="35.21" y="312.98">«manifest»</text></g><!--SRC=[dPFFQuCm5CVl-IiUNjeTjDlOQPH2iJWy2B9Lxvd64ceICV6mZltlUucjyyTbL0A-lE-7v_kbFdFPq9QAMXLdLaB9AjhL9bBIVF0BW-T7GYfLbwm5xrrz7bebsPlou9i0uBb9ETSThVc56gwa1rH3cZlcXuoev009bVJ419Ecfv93ikJIcah9vQb7qYk0277yDWWmF471MUWYPBC2_vu7LXj2k3IihMZ1mDkNWal8OlVfVHQFjP2AfjFN4jeR54wXg6RCp9beoXofFi-HunJ9z9-KeKGA9HhilJJZES37bpPCUB3T3lfkXpVj_B0ENnxmRllNgDPWPHxqJNso_Ov7TQUnFviDkfRCT3GzWcUKtN8LyaLw1QuNvH9B76NeLc0KQBajRlZtX9fc_TyOTk5oN2lRBVjflsjyrnNhN3ihdLXzGsxekhyItA9ha72mei4w3bOsM0H_dY3OOUDUCJj19Q-OnbJxzRUAVS-rr2dftFyB]--></g></svg>