<?xml version="1.0" encoding="UTF-8" standalone="no"?><svg xmlns="http://www.w3.org/2000/svg" xmlns:xlink="http://www.w3.org/1999/xlink" contentStyleType="text/css" height="681px" preserveAspectRatio="none" style="width:975px;height:681px;background:#FFFFFF;" version="1.1" viewBox="0 0 975 681" width="975px" zoomAndPan="magnify"><defs/><g><!--cluster LOCAL--><g id="cluster_LOCAL"><polygon fill="none" points="64,16,74,6,293,6,293,163,283,173,64,173,64,16" style="stroke:#181818;stroke-width:1.0;"/><line style="stroke:#181818;stroke-width:1.0;" x1="283" x2="293" y1="16" y2="6"/><line style="stroke:#181818;stroke-width:1.0;" x1="64" x2="283" y1="16" y2="16"/><line style="stroke:#181818;stroke-width:1.0;" x1="283" x2="283" y1="16" y2="173"/><text fill="#000000" font-family="sans-serif" font-size="20" font-weight="bold" lengthAdjust="spacing" textLength="109.875" x="119.5625" y="40.38">localhost: ?</text></g><!--cluster S1--><g id="cluster_S1"><polygon fill="none" points="16,314,26,304,471,304,471,630.5,461,640.5,16,640.5,16,314" style="stroke:#181818;stroke-width:1.0;"/><line style="stroke:#181818;stroke-width:1.0;" x1="461" x2="471" y1="314" y2="304"/><line style="stroke:#181818;stroke-width:1.0;" x1="16" x2="461" y1="314" y2="314"/><line style="stroke:#181818;stroke-width:1.0;" x1="461" x2="461" y1="314" y2="640.5"/><text fill="#000000" font-family="sans-serif" font-size="20" font-weight="bold" lengthAdjust="spacing" textLength="99.625" x="189.6875" y="338.38">Server 1: ?</text></g><!--cluster S2--><g id="cluster_S2"><polygon fill="none" points="511,260,521,250,958,250,958,654.5,948,664.5,511,664.5,511,260" style="stroke:#181818;stroke-width:1.0;"/><line style="stroke:#181818;stroke-width:1.0;" x1="948" x2="958" y1="260" y2="250"/><line style="stroke:#181818;stroke-width:1.0;" x1="511" x2="948" y1="260" y2="260"/><line style="stroke:#181818;stroke-width:1.0;" x1="948" x2="948" y1="260" y2="664.5"/><text fill="#000000" font-family="sans-serif" font-size="20" font-weight="bold" lengthAdjust="spacing" textLength="99.625" x="680.6875" y="284.38">Server 2: ?</text></g><!--cluster Visualization--><g id="cluster_Visualization"><path d="M734.5,317 L859.625,317 A3.75,3.75 0 0 1 862.125,319.5 L869.125,350.24 L923.5,350.24 A2.5,2.5 0 0 1 926,352.74 L926,630 A2.5,2.5 0 0 1 923.5,632.5 L734.5,632.5 A2.5,2.5 0 0 1 732,630 L732,319.5 A2.5,2.5 0 0 1 734.5,317 " fill="none" style="stroke:#000000;stroke-width:1.5;"/><line style="stroke:#000000;stroke-width:1.5;" x1="732" x2="869.125" y1="350.24" y2="350.24"/><text fill="#000000" font-family="sans-serif" font-size="20" font-weight="bold" lengthAdjust="spacing" textLength="124.125" x="736" y="340.38">Visualization</text></g><!--entity B--><g id="elem_B"><rect fill="#F1F1F1" height="84.4799" rx="2.5" ry="2.5" style="stroke:#181818;stroke-width:0.5;" width="162" x="107" y="65"/><rect fill="#F1F1F1" height="10" style="stroke:#181818;stroke-width:0.5;" width="15" x="249" y="70"/><rect fill="#F1F1F1" height="2" style="stroke:#181818;stroke-width:0.5;" width="4" x="247" y="72"/><rect fill="#F1F1F1" height="2" style="stroke:#181818;stroke-width:0.5;" width="4" x="247" y="76"/><text fill="#000000" font-family="sans-serif" font-size="20" font-style="italic" lengthAdjust="spacing" textLength="122" x="122" y="106.38">«component»</text><text fill="#000000" font-family="sans-serif" font-size="20" lengthAdjust="spacing" textLength="78" x="144" y="133.62">Browser</text></g><!--entity IMDM--><g id="elem_IMDM"><rect fill="#F1F1F1" height="84.4799" rx="2.5" ry="2.5" style="stroke:#181818;stroke-width:0.5;" width="202" x="245" y="532.5"/><rect fill="#F1F1F1" height="10" style="stroke:#181818;stroke-width:0.5;" width="15" x="427" y="537.5"/><rect fill="#F1F1F1" height="2" style="stroke:#181818;stroke-width:0.5;" width="4" x="425" y="539.5"/><rect fill="#F1F1F1" height="2" style="stroke:#181818;stroke-width:0.5;" width="4" x="425" y="543.5"/><text fill="#000000" font-family="sans-serif" font-size="20" font-style="italic" lengthAdjust="spacing" textLength="122" x="280" y="573.88">«component»</text><text fill="#000000" font-family="sans-serif" font-size="20" lengthAdjust="spacing" textLength="162" x="260" y="601.12">MD Management</text></g><!--entity AMDM--><g id="elem_AMDM"><rect fill="#F1F1F1" height="77.4799" rx="2.5" ry="2.5" style="stroke:#181818;stroke-width:0.5;" width="192" x="247" y="363"/><polygon fill="#F1F1F1" points="422,368,422,382,434,382,434,374,428,368,422,368" style="stroke:#181818;stroke-width:0.5;"/><line style="stroke:#181818;stroke-width:0.5;" x1="428" x2="428" y1="368" y2="374"/><line style="stroke:#181818;stroke-width:0.5;" x1="434" x2="428" y1="374" y2="374"/><text fill="#000000" font-family="sans-serif" font-size="20" font-style="italic" lengthAdjust="spacing" textLength="84" x="296" y="397.38">«artifact»</text><text fill="#000000" font-family="sans-serif" font-size="20" lengthAdjust="spacing" textLength="162" x="257" y="424.62">MD Management</text></g><!--entity IP--><g id="elem_IP"><rect fill="#F1F1F1" height="84.4799" rx="2.5" ry="2.5" style="stroke:#181818;stroke-width:0.5;" width="162" x="48" y="532.5"/><rect fill="#F1F1F1" height="10" style="stroke:#181818;stroke-width:0.5;" width="15" x="190" y="537.5"/><rect fill="#F1F1F1" height="2" style="stroke:#181818;stroke-width:0.5;" width="4" x="188" y="539.5"/><rect fill="#F1F1F1" height="2" style="stroke:#181818;stroke-width:0.5;" width="4" x="188" y="543.5"/><text fill="#000000" font-family="sans-serif" font-size="20" font-style="italic" lengthAdjust="spacing" textLength="122" x="63" y="573.88">«component»</text><text fill="#000000" font-family="sans-serif" font-size="20" lengthAdjust="spacing" textLength="81" x="83.5" y="601.12">Planning</text></g><!--entity AP--><g id="elem_AP"><rect fill="#F1F1F1" height="77.4799" rx="2.5" ry="2.5" style="stroke:#181818;stroke-width:0.5;" width="114" x="72" y="363"/><polygon fill="#F1F1F1" points="169,368,169,382,181,382,181,374,175,368,169,368" style="stroke:#181818;stroke-width:0.5;"/><line style="stroke:#181818;stroke-width:0.5;" x1="175" x2="175" y1="368" y2="374"/><line style="stroke:#181818;stroke-width:0.5;" x1="181" x2="175" y1="374" y2="374"/><text fill="#000000" font-family="sans-serif" font-size="20" font-style="italic" lengthAdjust="spacing" textLength="84" x="82" y="397.38">«artifact»</text><text fill="#000000" font-family="sans-serif" font-size="20" lengthAdjust="spacing" textLength="81" x="83.5" y="424.62">Planning</text></g><!--entity SERV--><g id="elem_SERV"><rect fill="#F1F1F1" height="84.4799" rx="2.5" ry="2.5" style="stroke:#181818;stroke-width:0.5;" width="162" x="554" y="359.5"/><rect fill="#F1F1F1" height="10" style="stroke:#181818;stroke-width:0.5;" width="15" x="696" y="364.5"/><rect fill="#F1F1F1" height="2" style="stroke:#181818;stroke-width:0.5;" width="4" x="694" y="366.5"/><rect fill="#F1F1F1" height="2" style="stroke:#181818;stroke-width:0.5;" width="4" x="694" y="370.5"/><text fill="#000000" font-family="sans-serif" font-size="20" font-style="italic" lengthAdjust="spacing" textLength="122" x="569" y="400.88">«component»</text><text fill="#000000" font-family="sans-serif" font-size="20" lengthAdjust="spacing" textLength="113" x="573.5" y="428.12">HTTP Server</text></g><!--entity AV--><g id="elem_AV"><rect fill="#F1F1F1" height="77.4799" rx="2.5" ry="2.5" style="stroke:#181818;stroke-width:0.5;" width="146" x="751" y="363"/><polygon fill="#F1F1F1" points="880,368,880,382,892,382,892,374,886,368,880,368" style="stroke:#181818;stroke-width:0.5;"/><line style="stroke:#181818;stroke-width:0.5;" x1="886" x2="886" y1="368" y2="374"/><line style="stroke:#181818;stroke-width:0.5;" x1="892" x2="886" y1="374" y2="374"/><text fill="#000000" font-family="sans-serif" font-size="20" font-style="italic" lengthAdjust="spacing" textLength="84" x="777" y="397.38">«artifact»</text><text fill="#000000" font-family="sans-serif" font-size="20" lengthAdjust="spacing" textLength="116" x="761" y="424.62">Visualization</text></g><!--entity IV--><g id="elem_IV"><rect fill="#F1F1F1" height="84.4799" rx="2.5" ry="2.5" style="stroke:#181818;stroke-width:0.5;" width="162" x="748" y="532.5"/><rect fill="#F1F1F1" height="10" style="stroke:#181818;stroke-width:0.5;" width="15" x="890" y="537.5"/><rect fill="#F1F1F1" height="2" style="stroke:#181818;stroke-width:0.5;" width="4" x="888" y="539.5"/><rect fill="#F1F1F1" height="2" style="stroke:#181818;stroke-width:0.5;" width="4" x="888" y="543.5"/><text fill="#000000" font-family="sans-serif" font-size="20" font-style="italic" lengthAdjust="spacing" textLength="122" x="763" y="573.88">«component»</text><text fill="#000000" font-family="sans-serif" font-size="20" lengthAdjust="spacing" textLength="116" x="766" y="601.12">Visualization</text></g><!--link LOCAL to S1--><g id="link_LOCAL_S1"><path d="M63.8755,127.9753 C63.8203,128.117 63.7649,128.2592 63.7093,128.4022 C63.487,128.9738 63.2615,129.5552 63.0331,130.1462 C62.5764,131.3282 62.1079,132.5485 61.6293,133.8046 C59.7147,138.8291 57.6362,144.4284 55.485,150.4562 C46.88,174.5675 37.11,205.535 32,234 C28.7775,251.945 26.6569,271.1413 25.2909,289.8861 C24.9495,294.5723 24.6551,299.2303 24.4026,303.8335 " fill="none" id="LOCAL-S1" style="stroke:#181818;stroke-width:1.0;"/><text fill="#000000" font-family="sans-serif" font-size="20" lengthAdjust="spacing" textLength="55" x="42" y="219.38">http/s</text></g><!--link LOCAL to S2--><g id="link_LOCAL_S2"><path d="M79.4781,173.3271 C79.5391,173.4525 79.6005,173.5777 79.6623,173.7027 C79.7859,173.9526 79.9111,174.2017 80.038,174.4497 C80.2917,174.9458 80.552,175.438 80.819,175.926 C81.353,176.902 81.9139,177.8611 82.503,178.8011 C84.8591,182.5608 87.665,186.0125 91,189 C122.01,216.78 430.71,207.71 463,234 C477.9,246.1325 488.8581,262.3769 496.912,279.9745 C500.939,288.7734 504.2399,297.9105 506.9444,307.0412 C508.2967,311.6065 509.4999,316.1702 510.5702,320.6891 C510.704,321.254 510.8357,321.8182 510.9654,322.3816 " fill="none" id="LOCAL-S2" style="stroke:#181818;stroke-width:1.0;"/><text fill="#000000" font-family="sans-serif" font-size="20" lengthAdjust="spacing" textLength="55" x="441" y="219.38">http/s</text></g><!--link AV to IV--><g id="link_AV_IV"><path d="M825.11,440.45 C825.84,465.59 826.82,498.78 827.6,525.71 " fill="none" id="AV-to-IV" style="stroke:#181818;stroke-width:1.0;stroke-dasharray:7.0,7.0;"/><polygon fill="#181818" points="827.74,530.55,831.4553,521.4288,827.5829,525.5525,823.4593,521.6801,827.74,530.55" style="stroke:#181818;stroke-width:1.0;"/><text fill="#000000" font-family="sans-serif" font-size="20" lengthAdjust="spacing" textLength="102" x="827" y="495.88">«manifest»</text></g><!--link AP to IP--><g id="link_AP_IP"><path d="M129,440.45 C129,465.59 129,498.78 129,525.71 " fill="none" id="AP-to-IP" style="stroke:#181818;stroke-width:1.0;stroke-dasharray:7.0,7.0;"/><polygon fill="#181818" points="129,530.55,133,521.55,129,525.55,125,521.55,129,530.55" style="stroke:#181818;stroke-width:1.0;"/><text fill="#000000" font-family="sans-serif" font-size="20" lengthAdjust="spacing" textLength="102" x="130" y="495.88">«manifest»</text></g><!--link AMDM to IMDM--><g id="link_AMDM_IMDM"><path d="M343.67,440.45 C344.11,465.59 344.69,498.78 345.16,525.71 " fill="none" id="AMDM-to-IMDM" style="stroke:#181818;stroke-width:1.0;stroke-dasharray:7.0,7.0;"/><polygon fill="#181818" points="345.25,530.55,349.0951,521.4828,345.1643,525.5507,341.0963,521.6199,345.25,530.55" style="stroke:#181818;stroke-width:1.0;"/><text fill="#000000" font-family="sans-serif" font-size="20" lengthAdjust="spacing" textLength="102" x="345" y="495.88">«manifest»</text></g><!--SRC=[XL9TQuCm57ttLrnyRxVwACLXruqLAfDPVBzeR8EQI99kqD7_lYJEpaPXBn9pFkuvIMHDMOS2suONDIcX91MU6_NAcSheXK3mw7cCbmHyJS3cnAKAuSa7bB1_VuxtyEq15BpjE2DCWRyH_4iIOGaRMAzlK1HPwjMx3eOP4Pz4m6hmorQkMRA511aUIQj_BMUNR9DPL_r1eMY5nQmkxdK3PImRpKiRP8ooOpyg_N_GdI1EvoQuTODRtS2j-tOufD3JUiRBH-vc06CA9aM7HQqhWfzJUSQ6Nb1HpdnhEixem2PeFWtwM-qkprIvosVEn4XjKnshVnEBXRdC44vATGzoj1dyRNewnN8P6SjGcxR8Q4MazlJqELeWdG3c4Yra5Wxu0m00]--></g></svg>