<?xml version="1.0" encoding="UTF-8" standalone="no"?><svg xmlns="http://www.w3.org/2000/svg" xmlns:xlink="http://www.w3.org/1999/xlink" contentStyleType="text/css" height="536px" preserveAspectRatio="none" style="width:1709px;height:536px;background:#FFFFFF;" version="1.1" viewBox="0 0 1709 536" width="1709px" zoomAndPan="magnify"><defs/><g><rect fill="#FFFFFF" height="394.0938" style="stroke:#181818;stroke-width:1.0;" width="10" x="192" y="82.5625"/><rect fill="#FFFFFF" height="319.5313" style="stroke:#181818;stroke-width:1.0;" width="10" x="462" y="119.8438"/><rect fill="#FFFFFF" height="244.9688" style="stroke:#181818;stroke-width:1.0;" width="10" x="732" y="157.125"/><rect fill="#FFFFFF" height="37.2813" style="stroke:#181818;stroke-width:1.0;" width="10" x="1114" y="194.4063"/><rect fill="#FFFFFF" height="37.2813" style="stroke:#181818;stroke-width:1.0;" width="10" x="1275.5" y="309.5313"/><rect fill="none" height="119.125" style="stroke:#000000;stroke-width:1.5;" width="1065.5" x="638" y="246.6875"/><line style="stroke:#181818;stroke-width:0.5;stroke-dasharray:5.0,5.0;" x1="197" x2="197" y1="43.2813" y2="494.6563"/><line style="stroke:#181818;stroke-width:0.5;stroke-dasharray:5.0,5.0;" x1="467" x2="467" y1="43.2813" y2="494.6563"/><line style="stroke:#181818;stroke-width:0.5;stroke-dasharray:5.0,5.0;" x1="737" x2="737" y1="43.2813" y2="494.6563"/><line style="stroke:#181818;stroke-width:0.5;stroke-dasharray:5.0,5.0;" x1="933" x2="933" y1="43.2813" y2="494.6563"/><line style="stroke:#181818;stroke-width:0.5;stroke-dasharray:5.0,5.0;" x1="1119" x2="1119" y1="43.2813" y2="494.6563"/><line style="stroke:#181818;stroke-width:0.5;stroke-dasharray:5.0,5.0;" x1="1280" x2="1280" y1="43.2813" y2="494.6563"/><line style="stroke:#181818;stroke-width:0.5;stroke-dasharray:5.0,5.0;" x1="1549.5" x2="1549.5" y1="351.6719" y2="494.6563"/><rect fill="#E2E2F0" height="37.2813" rx="2.5" ry="2.5" style="stroke:#181818;stroke-width:0.5;" width="164" x="115" y="5"/><text fill="#000000" font-family="sans-serif" font-size="20" lengthAdjust="spacing" textLength="150" x="122" y="30.5645">:BuildingRoute</text><rect fill="#E2E2F0" height="37.2813" rx="2.5" ry="2.5" style="stroke:#181818;stroke-width:0.5;" width="164" x="115" y="493.6563"/><text fill="#000000" font-family="sans-serif" font-size="20" lengthAdjust="spacing" textLength="150" x="122" y="519.2207">:BuildingRoute</text><rect fill="#E2E2F0" height="37.2813" rx="2.5" ry="2.5" style="stroke:#181818;stroke-width:0.5;" width="204" x="365" y="5"/><text fill="#000000" font-family="sans-serif" font-size="20" lengthAdjust="spacing" textLength="190" x="372" y="30.5645">:BuildingController</text><rect fill="#E2E2F0" height="37.2813" rx="2.5" ry="2.5" style="stroke:#181818;stroke-width:0.5;" width="204" x="365" y="493.6563"/><text fill="#000000" font-family="sans-serif" font-size="20" lengthAdjust="spacing" textLength="190" x="372" y="519.2207">:BuildingController</text><rect fill="#E2E2F0" height="37.2813" rx="2.5" ry="2.5" style="stroke:#181818;stroke-width:0.5;" width="178" x="648" y="5"/><text fill="#000000" font-family="sans-serif" font-size="20" lengthAdjust="spacing" textLength="164" x="655" y="30.5645">:BuildingService</text><rect fill="#E2E2F0" height="37.2813" rx="2.5" ry="2.5" style="stroke:#181818;stroke-width:0.5;" width="178" x="648" y="493.6563"/><text fill="#000000" font-family="sans-serif" font-size="20" lengthAdjust="spacing" textLength="164" x="655" y="519.2207">:BuildingService</text><rect fill="#E2E2F0" height="37.2813" rx="2.5" ry="2.5" style="stroke:#181818;stroke-width:0.5;" width="195" x="836" y="5"/><text fill="#000000" font-family="sans-serif" font-size="20" lengthAdjust="spacing" textLength="181" x="843" y="30.5645">:building:Building</text><rect fill="#E2E2F0" height="37.2813" rx="2.5" ry="2.5" style="stroke:#181818;stroke-width:0.5;" width="195" x="836" y="493.6563"/><text fill="#000000" font-family="sans-serif" font-size="20" lengthAdjust="spacing" textLength="181" x="843" y="519.2207">:building:Building</text><rect fill="#E2E2F0" height="37.2813" rx="2.5" ry="2.5" style="stroke:#181818;stroke-width:0.5;" width="156" x="1041" y="5"/><text fill="#000000" font-family="sans-serif" font-size="20" lengthAdjust="spacing" textLength="142" x="1048" y="30.5645">:BuildingRepo</text><rect fill="#E2E2F0" height="37.2813" rx="2.5" ry="2.5" style="stroke:#181818;stroke-width:0.5;" width="156" x="1041" y="493.6563"/><text fill="#000000" font-family="sans-serif" font-size="20" lengthAdjust="spacing" textLength="142" x="1048" y="519.2207">:BuildingRepo</text><rect fill="#E2E2F0" height="37.2813" rx="2.5" ry="2.5" style="stroke:#181818;stroke-width:0.5;" width="147" x="1207" y="5"/><text fill="#000000" font-family="sans-serif" font-size="20" lengthAdjust="spacing" textLength="133" x="1214" y="30.5645">:BuildingMap</text><rect fill="#E2E2F0" height="37.2813" rx="2.5" ry="2.5" style="stroke:#181818;stroke-width:0.5;" width="147" x="1207" y="493.6563"/><text fill="#000000" font-family="sans-serif" font-size="20" lengthAdjust="spacing" textLength="133" x="1214" y="519.2207">:BuildingMap</text><rect fill="#E2E2F0" height="37.2813" rx="2.5" ry="2.5" style="stroke:#181818;stroke-width:0.5;" width="287" x="1406.5" y="493.6563"/><text fill="#000000" font-family="sans-serif" font-size="20" lengthAdjust="spacing" textLength="273" x="1413.5" y="519.2207">:buildingDTO:IBuildingDTO</text><rect fill="#FFFFFF" height="394.0938" style="stroke:#181818;stroke-width:1.0;" width="10" x="192" y="82.5625"/><rect fill="#FFFFFF" height="319.5313" style="stroke:#181818;stroke-width:1.0;" width="10" x="462" y="119.8438"/><rect fill="#FFFFFF" height="244.9688" style="stroke:#181818;stroke-width:1.0;" width="10" x="732" y="157.125"/><rect fill="#FFFFFF" height="37.2813" style="stroke:#181818;stroke-width:1.0;" width="10" x="1114" y="194.4063"/><rect fill="#FFFFFF" height="37.2813" style="stroke:#181818;stroke-width:1.0;" width="10" x="1275.5" y="309.5313"/><ellipse cx="4.5" cy="81.8125" fill="none" rx="4" ry="4" style="stroke:#181818;stroke-width:1.5;"/><polygon fill="#181818" points="180,78.5625,190,82.5625,180,86.5625,184,82.5625" style="stroke:#181818;stroke-width:1.0;"/><line style="stroke:#181818;stroke-width:1.0;" x1="9" x2="186" y1="82.5625" y2="82.5625"/><text fill="#000000" font-family="sans-serif" font-size="20" font-weight="bold" lengthAdjust="spacing" textLength="14" x="12" y="75.8457">1</text><text fill="#000000" font-family="sans-serif" font-size="20" lengthAdjust="spacing" textLength="147" x="30" y="75.8457">GET /buildings</text><polygon fill="#181818" points="450,115.8438,460,119.8438,450,123.8438,454,119.8438" style="stroke:#181818;stroke-width:1.0;"/><line style="stroke:#181818;stroke-width:1.0;" x1="202" x2="456" y1="119.8438" y2="119.8438"/><text fill="#000000" font-family="sans-serif" font-size="20" font-weight="bold" lengthAdjust="spacing" textLength="14" x="209" y="113.127">2</text><text fill="#000000" font-family="sans-serif" font-size="20" lengthAdjust="spacing" textLength="143" x="227" y="113.127">getBuildings()</text><polygon fill="#181818" points="720,153.125,730,157.125,720,161.125,724,157.125" style="stroke:#181818;stroke-width:1.0;"/><line style="stroke:#181818;stroke-width:1.0;" x1="472" x2="726" y1="157.125" y2="157.125"/><text fill="#000000" font-family="sans-serif" font-size="20" font-weight="bold" lengthAdjust="spacing" textLength="14" x="479" y="150.4082">3</text><text fill="#000000" font-family="sans-serif" font-size="20" lengthAdjust="spacing" textLength="143" x="497" y="150.4082">getBuildings()</text><polygon fill="#181818" points="1102,190.4063,1112,194.4063,1102,198.4063,1106,194.4063" style="stroke:#181818;stroke-width:1.0;"/><line style="stroke:#181818;stroke-width:1.0;" x1="742" x2="1108" y1="194.4063" y2="194.4063"/><text fill="#000000" font-family="sans-serif" font-size="20" font-weight="bold" lengthAdjust="spacing" textLength="14" x="749" y="187.6895">4</text><text fill="#000000" font-family="sans-serif" font-size="20" lengthAdjust="spacing" textLength="81" x="767" y="187.6895">findAll()</text><polygon fill="#181818" points="753,227.6875,743,231.6875,753,235.6875,749,231.6875" style="stroke:#181818;stroke-width:1.0;"/><line style="stroke:#181818;stroke-width:1.0;stroke-dasharray:2.0,2.0;" x1="747" x2="1118" y1="231.6875" y2="231.6875"/><text fill="#000000" font-family="sans-serif" font-size="20" font-weight="bold" lengthAdjust="spacing" textLength="14" x="759" y="224.9707">5</text><text fill="#000000" font-family="sans-serif" font-size="20" lengthAdjust="spacing" textLength="93" x="777" y="224.9707">buildings</text><path d="M638,246.6875 L732,246.6875 L732,261.9688 L722,271.9688 L638,271.9688 L638,246.6875 " fill="#EEEEEE" style="stroke:#000000;stroke-width:1.5;"/><rect fill="none" height="119.125" style="stroke:#000000;stroke-width:1.5;" width="1065.5" x="638" y="246.6875"/><text fill="#000000" font-family="sans-serif" font-size="20" font-weight="bold" lengthAdjust="spacing" textLength="49" x="653" y="266.252">loop</text><text fill="#000000" font-family="sans-serif" font-size="20" font-weight="bold" lengthAdjust="spacing" textLength="203" x="747" y="267.252">[foreach building]</text><polygon fill="#181818" points="1263.5,305.5313,1273.5,309.5313,1263.5,313.5313,1267.5,309.5313" style="stroke:#181818;stroke-width:1.0;"/><line style="stroke:#181818;stroke-width:1.0;" x1="742" x2="1269.5" y1="309.5313" y2="309.5313"/><text fill="#000000" font-family="sans-serif" font-size="20" font-weight="bold" lengthAdjust="spacing" textLength="14" x="749" y="302.8145">6</text><text fill="#000000" font-family="sans-serif" font-size="20" lengthAdjust="spacing" textLength="154" x="767" y="302.8145">toDto(building)</text><polygon fill="#181818" points="1394.5,342.8125,1404.5,346.8125,1394.5,350.8125,1398.5,346.8125" style="stroke:#181818;stroke-width:1.0;"/><line style="stroke:#181818;stroke-width:1.0;" x1="1280.5" x2="1400.5" y1="346.8125" y2="346.8125"/><text fill="#000000" font-family="sans-serif" font-size="20" font-weight="bold" lengthAdjust="spacing" textLength="14" x="1287.5" y="340.0957">7</text><text fill="#000000" font-family="sans-serif" font-size="20" lengthAdjust="spacing" textLength="79" x="1305.5" y="340.0957">create()</text><rect fill="#E2E2F0" height="37.2813" rx="2.5" ry="2.5" style="stroke:#181818;stroke-width:0.5;" width="287" x="1406.5" y="317.5313"/><text fill="#000000" font-family="sans-serif" font-size="20" lengthAdjust="spacing" textLength="273" x="1413.5" y="343.0957">:buildingDTO:IBuildingDTO</text><polygon fill="#181818" points="483,398.0938,473,402.0938,483,406.0938,479,402.0938" style="stroke:#181818;stroke-width:1.0;"/><line style="stroke:#181818;stroke-width:1.0;stroke-dasharray:2.0,2.0;" x1="477" x2="736" y1="402.0938" y2="402.0938"/><text fill="#000000" font-family="sans-serif" font-size="20" font-weight="bold" lengthAdjust="spacing" textLength="14" x="489" y="395.377">8</text><text fill="#000000" font-family="sans-serif" font-size="20" lengthAdjust="spacing" textLength="218" x="507" y="395.377">sucess(buildingsDTO)</text><polygon fill="#181818" points="213,435.375,203,439.375,213,443.375,209,439.375" style="stroke:#181818;stroke-width:1.0;"/><line style="stroke:#181818;stroke-width:1.0;stroke-dasharray:2.0,2.0;" x1="207" x2="466" y1="439.375" y2="439.375"/><text fill="#000000" font-family="sans-serif" font-size="20" font-weight="bold" lengthAdjust="spacing" textLength="14" x="219" y="432.6582">9</text><text fill="#000000" font-family="sans-serif" font-size="20" lengthAdjust="spacing" textLength="218" x="237" y="432.6582">sucess(buildingsDTO)</text><polygon fill="#181818" points="11,472.6563,1,476.6563,11,480.6563,7,476.6563" style="stroke:#181818;stroke-width:1.0;"/><line style="stroke:#181818;stroke-width:1.0;stroke-dasharray:2.0,2.0;" x1="5" x2="196" y1="476.6563" y2="476.6563"/><text fill="#000000" font-family="sans-serif" font-size="20" font-weight="bold" lengthAdjust="spacing" textLength="28" x="17" y="469.9395">10</text><text fill="#000000" font-family="sans-serif" font-size="20" lengthAdjust="spacing" textLength="74" x="49" y="469.9395">200 OK</text><!--SRC=[XP5FRy8m3CNl-HGM9q2gXZXMqwRnPnCQgAYKtKDhM4H8gYRbi4y_9uMsGPhMM_r-VhPVp5ceabVy8dL-nW8AFF9QsdUjx4xy84mdZDTMg_fom8eHQKKkIguifCa-Mm8tC8XdjP25KATKrnO70JNFqdK8pScwqb9Y5PAxz2i4TrXTHVxWDzklrek6EzoujY4aq-KsULWFInqocxTjY6nu6HABB0cdKI5UpRgV0MElEdgvnH73npA3fpji6C-jk7ABZSvOWn7lWudXXFPkPeQZ3dSoymonBfg_KLAP8zmIxkOOZa8LRrBs8QSmBqUjORTbWI4ejIxXg2igVxSO0_fkWrnmCLYzi7furqSUQ8q8yGM7KWT5DHvJJqwc5eSDt9lhS5H5SqcNZwbpDAQTOSXcr5_N7T_4r7k3_vfykCzHr3PC9nD8FeCO_7Fz0W00]--></g></svg>
