<?xml version="1.0" encoding="UTF-8" standalone="no"?><svg xmlns="http://www.w3.org/2000/svg" xmlns:xlink="http://www.w3.org/1999/xlink" contentStyleType="text/css" height="592px" preserveAspectRatio="none" style="width:1577px;height:592px;background:#FFFFFF;" version="1.1" viewBox="0 0 1577 592" width="1577px" zoomAndPan="magnify"><defs/><g><rect fill="#FFFFFF" height="437.6397" style="stroke:#181818;stroke-width:1.0;" width="10" x="176.625" y="90.4799"/><rect fill="#FFFFFF" height="355.1598" style="stroke:#181818;stroke-width:1.0;" width="10" x="428.25" y="131.7199"/><rect fill="#FFFFFF" height="272.6798" style="stroke:#181818;stroke-width:1.0;" width="10" x="679.875" y="172.9599"/><rect fill="#FFFFFF" height="41.24" style="stroke:#181818;stroke-width:1.0;" width="10" x="1026.375" y="214.1999"/><rect fill="#FFFFFF" height="41.24" style="stroke:#181818;stroke-width:1.0;" width="10" x="1175.375" y="345.1598"/><rect fill="none" height="134.9599" style="stroke:#000000;stroke-width:1.5;" width="976.625" x="594.375" y="270.4398"/><line style="stroke:#181818;stroke-width:0.5;stroke-dasharray:5.0,5.0;" x1="181.125" x2="181.125" y1="47.24" y2="546.1197"/><line style="stroke:#181818;stroke-width:0.5;stroke-dasharray:5.0,5.0;" x1="433.25" x2="433.25" y1="47.24" y2="546.1197"/><line style="stroke:#181818;stroke-width:0.5;stroke-dasharray:5.0,5.0;" x1="684.375" x2="684.375" y1="47.24" y2="546.1197"/><line style="stroke:#181818;stroke-width:0.5;stroke-dasharray:5.0,5.0;" x1="862.375" x2="862.375" y1="47.24" y2="546.1197"/><line style="stroke:#181818;stroke-width:0.5;stroke-dasharray:5.0,5.0;" x1="1031.375" x2="1031.375" y1="47.24" y2="546.1197"/><line style="stroke:#181818;stroke-width:0.5;stroke-dasharray:5.0,5.0;" x1="1180.375" x2="1180.375" y1="47.24" y2="546.1197"/><line style="stroke:#181818;stroke-width:0.5;stroke-dasharray:5.0,5.0;" x1="1428" x2="1428" y1="389.2798" y2="546.1197"/><rect fill="#E2E2F0" height="41.24" rx="2.5" ry="2.5" style="stroke:#181818;stroke-width:0.5;" width="149" x="107.125" y="5"/><text fill="#000000" font-family="sans-serif" font-size="20" lengthAdjust="spacing" textLength="135" x="114.125" y="33.38">:BuildingRoute</text><rect fill="#E2E2F0" height="41.24" rx="2.5" ry="2.5" style="stroke:#181818;stroke-width:0.5;" width="149" x="107.125" y="545.1197"/><text fill="#000000" font-family="sans-serif" font-size="20" lengthAdjust="spacing" textLength="135" x="114.125" y="573.4997">:BuildingRoute</text><rect fill="#E2E2F0" height="41.24" rx="2.5" ry="2.5" style="stroke:#181818;stroke-width:0.5;" width="188" x="339.25" y="5"/><text fill="#000000" font-family="sans-serif" font-size="20" lengthAdjust="spacing" textLength="174" x="346.25" y="33.38">:BuildingController</text><rect fill="#E2E2F0" height="41.24" rx="2.5" ry="2.5" style="stroke:#181818;stroke-width:0.5;" width="188" x="339.25" y="545.1197"/><text fill="#000000" font-family="sans-serif" font-size="20" lengthAdjust="spacing" textLength="174" x="346.25" y="573.4997">:BuildingController</text><rect fill="#E2E2F0" height="41.24" rx="2.5" ry="2.5" style="stroke:#181818;stroke-width:0.5;" width="161" x="604.375" y="5"/><text fill="#000000" font-family="sans-serif" font-size="20" lengthAdjust="spacing" textLength="147" x="611.375" y="33.38">:BuildingService</text><rect fill="#E2E2F0" height="41.24" rx="2.5" ry="2.5" style="stroke:#181818;stroke-width:0.5;" width="161" x="604.375" y="545.1197"/><text fill="#000000" font-family="sans-serif" font-size="20" lengthAdjust="spacing" textLength="147" x="611.375" y="573.4997">:BuildingService</text><rect fill="#E2E2F0" height="41.24" rx="2.5" ry="2.5" style="stroke:#181818;stroke-width:0.5;" width="175" x="775.375" y="5"/><text fill="#000000" font-family="sans-serif" font-size="20" lengthAdjust="spacing" textLength="161" x="782.375" y="33.38">:building:Building</text><rect fill="#E2E2F0" height="41.24" rx="2.5" ry="2.5" style="stroke:#181818;stroke-width:0.5;" width="175" x="775.375" y="545.1197"/><text fill="#000000" font-family="sans-serif" font-size="20" lengthAdjust="spacing" textLength="161" x="782.375" y="573.4997">:building:Building</text><rect fill="#E2E2F0" height="41.24" rx="2.5" ry="2.5" style="stroke:#181818;stroke-width:0.5;" width="142" x="960.375" y="5"/><text fill="#000000" font-family="sans-serif" font-size="20" lengthAdjust="spacing" textLength="128" x="967.375" y="33.38">:BuildingRepo</text><rect fill="#E2E2F0" height="41.24" rx="2.5" ry="2.5" style="stroke:#181818;stroke-width:0.5;" width="142" x="960.375" y="545.1197"/><text fill="#000000" font-family="sans-serif" font-size="20" lengthAdjust="spacing" textLength="128" x="967.375" y="573.4997">:BuildingRepo</text><rect fill="#E2E2F0" height="41.24" rx="2.5" ry="2.5" style="stroke:#181818;stroke-width:0.5;" width="136" x="1112.375" y="5"/><text fill="#000000" font-family="sans-serif" font-size="20" lengthAdjust="spacing" textLength="122" x="1119.375" y="33.38">:BuildingMap</text><rect fill="#E2E2F0" height="41.24" rx="2.5" ry="2.5" style="stroke:#181818;stroke-width:0.5;" width="136" x="1112.375" y="545.1197"/><text fill="#000000" font-family="sans-serif" font-size="20" lengthAdjust="spacing" textLength="122" x="1119.375" y="573.4997">:BuildingMap</text><rect fill="#E2E2F0" height="41.24" rx="2.5" ry="2.5" style="stroke:#181818;stroke-width:0.5;" width="266" x="1295" y="545.1197"/><text fill="#000000" font-family="sans-serif" font-size="20" lengthAdjust="spacing" textLength="252" x="1302" y="573.4997">:buildingDTO:IBuildingDTO</text><rect fill="#FFFFFF" height="437.6397" style="stroke:#181818;stroke-width:1.0;" width="10" x="176.625" y="90.4799"/><rect fill="#FFFFFF" height="355.1598" style="stroke:#181818;stroke-width:1.0;" width="10" x="428.25" y="131.7199"/><rect fill="#FFFFFF" height="272.6798" style="stroke:#181818;stroke-width:1.0;" width="10" x="679.875" y="172.9599"/><rect fill="#FFFFFF" height="41.24" style="stroke:#181818;stroke-width:1.0;" width="10" x="1026.375" y="214.1999"/><rect fill="#FFFFFF" height="41.24" style="stroke:#181818;stroke-width:1.0;" width="10" x="1175.375" y="345.1598"/><ellipse cx="4.5" cy="89.7299" fill="none" rx="4" ry="4" style="stroke:#181818;stroke-width:1.5;"/><polygon fill="#181818" points="164.625,86.4799,174.625,90.4799,164.625,94.4799,168.625,90.4799" style="stroke:#181818;stroke-width:1.0;"/><line style="stroke:#181818;stroke-width:1.0;" x1="9" x2="170.625" y1="90.4799" y2="90.4799"/><text fill="#000000" font-family="sans-serif" font-size="20" font-weight="bold" lengthAdjust="spacing" textLength="11.625" x="12" y="82.62">1</text><text fill="#000000" font-family="sans-serif" font-size="20" lengthAdjust="spacing" textLength="134" x="27.625" y="82.62">GET /buildings</text><polygon fill="#181818" points="416.25,127.7199,426.25,131.7199,416.25,135.7199,420.25,131.7199" style="stroke:#181818;stroke-width:1.0;"/><line style="stroke:#181818;stroke-width:1.0;" x1="186.625" x2="422.25" y1="131.7199" y2="131.7199"/><text fill="#000000" font-family="sans-serif" font-size="20" font-weight="bold" lengthAdjust="spacing" textLength="11.625" x="193.625" y="123.8599">2</text><text fill="#000000" font-family="sans-serif" font-size="20" lengthAdjust="spacing" textLength="125" x="209.25" y="123.8599">listBuildings()</text><polygon fill="#181818" points="667.875,168.9599,677.875,172.9599,667.875,176.9599,671.875,172.9599" style="stroke:#181818;stroke-width:1.0;"/><line style="stroke:#181818;stroke-width:1.0;" x1="438.25" x2="673.875" y1="172.9599" y2="172.9599"/><text fill="#000000" font-family="sans-serif" font-size="20" font-weight="bold" lengthAdjust="spacing" textLength="11.625" x="445.25" y="165.0999">3</text><text fill="#000000" font-family="sans-serif" font-size="20" lengthAdjust="spacing" textLength="128" x="460.875" y="165.0999">getBuildings()</text><polygon fill="#181818" points="1014.375,210.1999,1024.375,214.1999,1014.375,218.1999,1018.375,214.1999" style="stroke:#181818;stroke-width:1.0;"/><line style="stroke:#181818;stroke-width:1.0;" x1="689.875" x2="1020.375" y1="214.1999" y2="214.1999"/><text fill="#000000" font-family="sans-serif" font-size="20" font-weight="bold" lengthAdjust="spacing" textLength="11.625" x="696.875" y="206.3399">4</text><text fill="#000000" font-family="sans-serif" font-size="20" lengthAdjust="spacing" textLength="71" x="712.5" y="206.3399">findAll()</text><polygon fill="#181818" points="700.875,251.4398,690.875,255.4398,700.875,259.4398,696.875,255.4398" style="stroke:#181818;stroke-width:1.0;"/><line style="stroke:#181818;stroke-width:1.0;stroke-dasharray:2.0,2.0;" x1="694.875" x2="1030.375" y1="255.4398" y2="255.4398"/><text fill="#000000" font-family="sans-serif" font-size="20" font-weight="bold" lengthAdjust="spacing" textLength="11.625" x="706.875" y="247.5799">5</text><text fill="#000000" font-family="sans-serif" font-size="20" lengthAdjust="spacing" textLength="85" x="722.5" y="247.5799">buildings</text><path d="M594.375,270.4398 L682.875,270.4398 L682.875,289.6798 L672.875,299.6798 L594.375,299.6798 L594.375,270.4398 " fill="#EEEEEE" style="stroke:#000000;stroke-width:1.5;"/><rect fill="none" height="134.9599" style="stroke:#000000;stroke-width:1.5;" width="976.625" x="594.375" y="270.4398"/><text fill="#000000" font-family="sans-serif" font-size="20" font-weight="bold" lengthAdjust="spacing" textLength="43.5" x="609.375" y="292.8198">loop</text><text fill="#000000" font-family="sans-serif" font-size="20" font-weight="bold" lengthAdjust="spacing" textLength="175.625" x="697.875" y="293.8198">[foreach building]</text><polygon fill="#181818" points="1163.375,341.1598,1173.375,345.1598,1163.375,349.1598,1167.375,345.1598" style="stroke:#181818;stroke-width:1.0;"/><line style="stroke:#181818;stroke-width:1.0;" x1="689.875" x2="1169.375" y1="345.1598" y2="345.1598"/><text fill="#000000" font-family="sans-serif" font-size="20" font-weight="bold" lengthAdjust="spacing" textLength="11.625" x="696.875" y="337.2998">6</text><text fill="#000000" font-family="sans-serif" font-size="20" lengthAdjust="spacing" textLength="140" x="712.5" y="337.2998">toDto(building)</text><polygon fill="#181818" points="1283,382.3997,1293,386.3997,1283,390.3997,1287,386.3997" style="stroke:#181818;stroke-width:1.0;"/><line style="stroke:#181818;stroke-width:1.0;" x1="1180.375" x2="1289" y1="386.3997" y2="386.3997"/><text fill="#000000" font-family="sans-serif" font-size="20" font-weight="bold" lengthAdjust="spacing" textLength="11.625" x="1187.375" y="378.5398">7</text><text fill="#000000" font-family="sans-serif" font-size="20" lengthAdjust="spacing" textLength="70" x="1203" y="378.5398">create()</text><rect fill="#E2E2F0" height="41.24" rx="2.5" ry="2.5" style="stroke:#181818;stroke-width:0.5;" width="266" x="1295" y="353.1598"/><text fill="#000000" font-family="sans-serif" font-size="20" lengthAdjust="spacing" textLength="252" x="1302" y="381.5398">:buildingDTO:IBuildingDTO</text><polygon fill="#181818" points="449.25,441.6397,439.25,445.6397,449.25,449.6397,445.25,445.6397" style="stroke:#181818;stroke-width:1.0;"/><line style="stroke:#181818;stroke-width:1.0;stroke-dasharray:2.0,2.0;" x1="443.25" x2="683.875" y1="445.6397" y2="445.6397"/><text fill="#000000" font-family="sans-serif" font-size="20" font-weight="bold" lengthAdjust="spacing" textLength="11.625" x="455.25" y="437.7797">8</text><text fill="#000000" font-family="sans-serif" font-size="20" lengthAdjust="spacing" textLength="202" x="470.875" y="437.7797">sucess(buildingsDTO)</text><polygon fill="#181818" points="197.625,482.8797,187.625,486.8797,197.625,490.8797,193.625,486.8797" style="stroke:#181818;stroke-width:1.0;"/><line style="stroke:#181818;stroke-width:1.0;stroke-dasharray:2.0,2.0;" x1="191.625" x2="432.25" y1="486.8797" y2="486.8797"/><text fill="#000000" font-family="sans-serif" font-size="20" font-weight="bold" lengthAdjust="spacing" textLength="11.625" x="203.625" y="479.0197">9</text><text fill="#000000" font-family="sans-serif" font-size="20" lengthAdjust="spacing" textLength="202" x="219.25" y="479.0197">sucess(buildingsDTO)</text><polygon fill="#181818" points="11,524.1197,1,528.1197,11,532.1197,7,528.1197" style="stroke:#181818;stroke-width:1.0;"/><line style="stroke:#181818;stroke-width:1.0;stroke-dasharray:2.0,2.0;" x1="5" x2="180.625" y1="528.1197" y2="528.1197"/><text fill="#000000" font-family="sans-serif" font-size="20" font-weight="bold" lengthAdjust="spacing" textLength="23.25" x="17" y="520.2597">10</text><text fill="#000000" font-family="sans-serif" font-size="20" lengthAdjust="spacing" textLength="66" x="44.25" y="520.2597">200 OK</text><!--SRC=[XP5FRy8m3CNl-HGM9q2gXZX6qwRnPnCQgAYKtKDhM4HegYRbi4y_9uMsGPFMM_r-VhPVp5aMfQZ4HUdiZ3daU1Irik-wi3lvWp2TC55RNTIN0rQCI2ipMOh2GXBlqoK80mC-gwNAPN5AT6rn453pD5c7q9oiAwqKLY6vIxv2S8VLLMOFVhFzQhrekCEDQnj2CbbkuuVriDGXitdRXiX6b26nIEDm6XNuQjRz31XxrT7BBGuE7yiKdkwmOIApyYeiDZfZ3KQy3uQ3aiRUtSnmrF5EPnuYs6N3uOH_ewGoHxWjtD4SZhB8tvJgGqvXNevQmsxD74DGQLt2KLTK_cun1lJT1hdaE5Yzi7furqSUQ8q8yGM7KWTbDHvJJqQc5eSDt9lhS2povf8k85DdQ4mxmv3DgB-kExw9gVS8_pNvS9-Zg6sOJYOGVmOn-FVw1G00]--></g></svg>