<?xml version="1.0" encoding="UTF-8" standalone="no"?><svg xmlns="http://www.w3.org/2000/svg" xmlns:xlink="http://www.w3.org/1999/xlink" contentStyleType="text/css" height="409px" preserveAspectRatio="none" style="width:800px;height:409px;background:#FFFFFF;" version="1.1" viewBox="0 0 800 409" width="800px" zoomAndPan="magnify"><defs/><g><rect fill="#FFFFFF" height="266.6875" style="stroke:#181818;stroke-width:1.0;" width="10" x="538" y="82.5625"/><rect fill="#FFFFFF" height="28" style="stroke:#181818;stroke-width:1.0;" width="10" x="543" y="202.4063"/><rect fill="#FFFFFF" height="37.2813" style="stroke:#181818;stroke-width:1.0;" width="10" x="768" y="119.8438"/><rect fill="#FFFFFF" height="37.2813" style="stroke:#181818;stroke-width:1.0;" width="10" x="768" y="274.6875"/><line style="stroke:#181818;stroke-width:0.5;stroke-dasharray:5.0,5.0;" x1="542.5" x2="542.5" y1="43.2813" y2="367.25"/><line style="stroke:#181818;stroke-width:0.5;stroke-dasharray:5.0,5.0;" x1="772.5" x2="772.5" y1="43.2813" y2="367.25"/><rect fill="#E2E2F0" height="37.2813" rx="2.5" ry="2.5" style="stroke:#181818;stroke-width:0.5;" width="41" x="522.5" y="5"/><text fill="#000000" font-family="sans-serif" font-size="20" lengthAdjust="spacing" textLength="27" x="529.5" y="30.5645">BE</text><rect fill="#E2E2F0" height="37.2813" rx="2.5" ry="2.5" style="stroke:#181818;stroke-width:0.5;" width="41" x="522.5" y="366.25"/><text fill="#000000" font-family="sans-serif" font-size="20" lengthAdjust="spacing" textLength="27" x="529.5" y="391.8145">BE</text><rect fill="#E2E2F0" height="37.2813" rx="2.5" ry="2.5" style="stroke:#181818;stroke-width:0.5;" width="43" x="751.5" y="5"/><text fill="#000000" font-family="sans-serif" font-size="20" lengthAdjust="spacing" textLength="29" x="758.5" y="30.5645">DB</text><rect fill="#E2E2F0" height="37.2813" rx="2.5" ry="2.5" style="stroke:#181818;stroke-width:0.5;" width="43" x="751.5" y="366.25"/><text fill="#000000" font-family="sans-serif" font-size="20" lengthAdjust="spacing" textLength="29" x="758.5" y="391.8145">DB</text><rect fill="#FFFFFF" height="266.6875" style="stroke:#181818;stroke-width:1.0;" width="10" x="538" y="82.5625"/><rect fill="#FFFFFF" height="28" style="stroke:#181818;stroke-width:1.0;" width="10" x="543" y="202.4063"/><rect fill="#FFFFFF" height="37.2813" style="stroke:#181818;stroke-width:1.0;" width="10" x="768" y="119.8438"/><rect fill="#FFFFFF" height="37.2813" style="stroke:#181818;stroke-width:1.0;" width="10" x="768" y="274.6875"/><ellipse cx="4.5" cy="81.8125" fill="none" rx="4" ry="4" style="stroke:#181818;stroke-width:1.5;"/><polygon fill="#181818" points="526,78.5625,536,82.5625,526,86.5625,530,82.5625" style="stroke:#181818;stroke-width:1.0;"/><line style="stroke:#181818;stroke-width:1.0;" x1="9" x2="532" y1="82.5625" y2="82.5625"/><text fill="#000000" font-family="sans-serif" font-size="20" font-weight="bold" lengthAdjust="spacing" textLength="14" x="12" y="75.8457">1</text><text fill="#000000" font-family="sans-serif" font-size="20" lengthAdjust="spacing" textLength="493" x="30" y="75.8457">PATCH /buildings/:buildingCode/floors/:floorCode</text><polygon fill="#181818" points="756,115.8438,766,119.8438,756,123.8438,760,119.8438" style="stroke:#181818;stroke-width:1.0;"/><line style="stroke:#181818;stroke-width:1.0;" x1="548" x2="762" y1="119.8438" y2="119.8438"/><text fill="#000000" font-family="sans-serif" font-size="20" font-weight="bold" lengthAdjust="spacing" textLength="14" x="555" y="113.127">2</text><text fill="#000000" font-family="sans-serif" font-size="20" lengthAdjust="spacing" textLength="84" x="573" y="113.127">get floor</text><polygon fill="#181818" points="559,153.125,549,157.125,559,161.125,555,157.125" style="stroke:#181818;stroke-width:1.0;"/><line style="stroke:#181818;stroke-width:1.0;stroke-dasharray:2.0,2.0;" x1="553" x2="772" y1="157.125" y2="157.125"/><text fill="#000000" font-family="sans-serif" font-size="20" font-weight="bold" lengthAdjust="spacing" textLength="14" x="565" y="150.4082">3</text><text fill="#000000" font-family="sans-serif" font-size="20" lengthAdjust="spacing" textLength="45" x="583" y="150.4082">floor</text><line style="stroke:#181818;stroke-width:1.0;" x1="553" x2="595" y1="194.4063" y2="194.4063"/><line style="stroke:#181818;stroke-width:1.0;" x1="595" x2="595" y1="194.4063" y2="207.4063"/><line style="stroke:#181818;stroke-width:1.0;" x1="554" x2="595" y1="207.4063" y2="207.4063"/><polygon fill="#181818" points="564,203.4063,554,207.4063,564,211.4063,560,207.4063" style="stroke:#181818;stroke-width:1.0;"/><text fill="#000000" font-family="sans-serif" font-size="20" font-weight="bold" lengthAdjust="spacing" textLength="14" x="560" y="187.6895">4</text><text fill="#000000" font-family="sans-serif" font-size="20" lengthAdjust="spacing" textLength="188" x="578" y="187.6895">uploadMap to floor</text><polygon fill="#181818" points="756,270.6875,766,274.6875,756,278.6875,760,274.6875" style="stroke:#181818;stroke-width:1.0;"/><line style="stroke:#181818;stroke-width:1.0;" x1="548" x2="762" y1="274.6875" y2="274.6875"/><text fill="#000000" font-family="sans-serif" font-size="20" font-weight="bold" lengthAdjust="spacing" textLength="14" x="555" y="267.9707">5</text><text fill="#000000" font-family="sans-serif" font-size="20" lengthAdjust="spacing" textLength="122" x="573" y="267.9707">update floor</text><polygon fill="#181818" points="559,307.9688,549,311.9688,559,315.9688,555,311.9688" style="stroke:#181818;stroke-width:1.0;"/><line style="stroke:#181818;stroke-width:1.0;stroke-dasharray:2.0,2.0;" x1="553" x2="772" y1="311.9688" y2="311.9688"/><text fill="#000000" font-family="sans-serif" font-size="20" font-weight="bold" lengthAdjust="spacing" textLength="14" x="565" y="305.252">6</text><text fill="#000000" font-family="sans-serif" font-size="20" lengthAdjust="spacing" textLength="45" x="583" y="305.252">floor</text><polygon fill="#181818" points="11,345.25,1,349.25,11,353.25,7,349.25" style="stroke:#181818;stroke-width:1.0;"/><line style="stroke:#181818;stroke-width:1.0;stroke-dasharray:2.0,2.0;" x1="5" x2="542" y1="349.25" y2="349.25"/><text fill="#000000" font-family="sans-serif" font-size="20" font-weight="bold" lengthAdjust="spacing" textLength="14" x="17" y="342.5332">7</text><text fill="#000000" font-family="sans-serif" font-size="20" lengthAdjust="spacing" textLength="74" x="35" y="342.5332">200 OK</text><!--SRC=[dOt1Zi8m34Jl-GghzweLnse58XI4X5QB13zWce0YGXorpXxuUjm2ed3aPFlDUAOxkn2nnOkdvcmD67l4v7b5WNVkQc5IAanC8LqEjbNYPDUuY851Bm4xoFGoUyEr7d2jCwLcb4zxNmMmdUyNQoWEoNdZmgahgkUw86EBeoTg1Gwp9meRTl_8LlwLaWn9akWAJfPXSBqSjLOYvS-kkshiM7ya37gAdj3yOWIcpoWf6ptADMfEqVJmY_AVFB-haxA4lyr7nGq0]--></g></svg>