<?xml version="1.0" encoding="UTF-8" standalone="no"?><svg xmlns="http://www.w3.org/2000/svg" xmlns:xlink="http://www.w3.org/1999/xlink" contentStyleType="text/css" height="445px" preserveAspectRatio="none" style="width:753px;height:445px;background:#FFFFFF;" version="1.1" viewBox="0 0 753 445" width="753px" zoomAndPan="magnify"><defs/><g><rect fill="#FFFFFF" height="290.4398" style="stroke:#181818;stroke-width:1.0;" width="10" x="503.625" y="90.4799"/><rect fill="#FFFFFF" height="28" style="stroke:#181818;stroke-width:1.0;" width="10" x="508.625" y="222.1999"/><rect fill="#FFFFFF" height="41.24" style="stroke:#181818;stroke-width:1.0;" width="10" x="721.25" y="131.7199"/><rect fill="#FFFFFF" height="41.24" style="stroke:#181818;stroke-width:1.0;" width="10" x="721.25" y="298.4398"/><line style="stroke:#181818;stroke-width:0.5;stroke-dasharray:5.0,5.0;" x1="508.625" x2="508.625" y1="47.24" y2="398.9198"/><line style="stroke:#181818;stroke-width:0.5;stroke-dasharray:5.0,5.0;" x1="726.25" x2="726.25" y1="47.24" y2="398.9198"/><rect fill="#E2E2F0" height="41.24" rx="2.5" ry="2.5" style="stroke:#181818;stroke-width:0.5;" width="38" x="489.625" y="5"/><text fill="#000000" font-family="sans-serif" font-size="20" lengthAdjust="spacing" textLength="24" x="496.625" y="33.38">BE</text><rect fill="#E2E2F0" height="41.24" rx="2.5" ry="2.5" style="stroke:#181818;stroke-width:0.5;" width="38" x="489.625" y="397.9198"/><text fill="#000000" font-family="sans-serif" font-size="20" lengthAdjust="spacing" textLength="24" x="496.625" y="426.2998">BE</text><rect fill="#E2E2F0" height="41.24" rx="2.5" ry="2.5" style="stroke:#181818;stroke-width:0.5;" width="42" x="705.25" y="5"/><text fill="#000000" font-family="sans-serif" font-size="20" lengthAdjust="spacing" textLength="28" x="712.25" y="33.38">DB</text><rect fill="#E2E2F0" height="41.24" rx="2.5" ry="2.5" style="stroke:#181818;stroke-width:0.5;" width="42" x="705.25" y="397.9198"/><text fill="#000000" font-family="sans-serif" font-size="20" lengthAdjust="spacing" textLength="28" x="712.25" y="426.2998">DB</text><rect fill="#FFFFFF" height="290.4398" style="stroke:#181818;stroke-width:1.0;" width="10" x="503.625" y="90.4799"/><rect fill="#FFFFFF" height="28" style="stroke:#181818;stroke-width:1.0;" width="10" x="508.625" y="222.1999"/><rect fill="#FFFFFF" height="41.24" style="stroke:#181818;stroke-width:1.0;" width="10" x="721.25" y="131.7199"/><rect fill="#FFFFFF" height="41.24" style="stroke:#181818;stroke-width:1.0;" width="10" x="721.25" y="298.4398"/><ellipse cx="4.5" cy="89.7299" fill="none" rx="4" ry="4" style="stroke:#181818;stroke-width:1.5;"/><polygon fill="#181818" points="491.625,86.4799,501.625,90.4799,491.625,94.4799,495.625,90.4799" style="stroke:#181818;stroke-width:1.0;"/><line style="stroke:#181818;stroke-width:1.0;" x1="9" x2="497.625" y1="90.4799" y2="90.4799"/><text fill="#000000" font-family="sans-serif" font-size="20" font-weight="bold" lengthAdjust="spacing" textLength="11.625" x="12" y="82.62">1</text><text fill="#000000" font-family="sans-serif" font-size="20" lengthAdjust="spacing" textLength="461" x="27.625" y="82.62">PATCH /buildings/:buildingCode/floors/:floorCode</text><polygon fill="#181818" points="709.25,127.7199,719.25,131.7199,709.25,135.7199,713.25,131.7199" style="stroke:#181818;stroke-width:1.0;"/><line style="stroke:#181818;stroke-width:1.0;" x1="513.625" x2="715.25" y1="131.7199" y2="131.7199"/><text fill="#000000" font-family="sans-serif" font-size="20" font-weight="bold" lengthAdjust="spacing" textLength="11.625" x="520.625" y="123.8599">2</text><text fill="#000000" font-family="sans-serif" font-size="20" lengthAdjust="spacing" textLength="79" x="536.25" y="123.8599">get floor</text><polygon fill="#181818" points="524.625,168.9599,514.625,172.9599,524.625,176.9599,520.625,172.9599" style="stroke:#181818;stroke-width:1.0;"/><line style="stroke:#181818;stroke-width:1.0;stroke-dasharray:2.0,2.0;" x1="518.625" x2="725.25" y1="172.9599" y2="172.9599"/><text fill="#000000" font-family="sans-serif" font-size="20" font-weight="bold" lengthAdjust="spacing" textLength="11.625" x="530.625" y="165.0999">3</text><text fill="#000000" font-family="sans-serif" font-size="20" lengthAdjust="spacing" textLength="44" x="546.25" y="165.0999">floor</text><line style="stroke:#181818;stroke-width:1.0;" x1="518.625" x2="560.625" y1="214.1999" y2="214.1999"/><line style="stroke:#181818;stroke-width:1.0;" x1="560.625" x2="560.625" y1="214.1999" y2="227.1999"/><line style="stroke:#181818;stroke-width:1.0;" x1="519.625" x2="560.625" y1="227.1999" y2="227.1999"/><polygon fill="#181818" points="529.625,223.1999,519.625,227.1999,529.625,231.1999,525.625,227.1999" style="stroke:#181818;stroke-width:1.0;"/><text fill="#000000" font-family="sans-serif" font-size="20" font-weight="bold" lengthAdjust="spacing" textLength="11.625" x="525.625" y="206.3399">4</text><text fill="#000000" font-family="sans-serif" font-size="20" lengthAdjust="spacing" textLength="178" x="541.25" y="206.3399">uploadMap to floor</text><polygon fill="#181818" points="709.25,294.4398,719.25,298.4398,709.25,302.4398,713.25,298.4398" style="stroke:#181818;stroke-width:1.0;"/><line style="stroke:#181818;stroke-width:1.0;" x1="513.625" x2="715.25" y1="298.4398" y2="298.4398"/><text fill="#000000" font-family="sans-serif" font-size="20" font-weight="bold" lengthAdjust="spacing" textLength="11.625" x="520.625" y="290.5799">5</text><text fill="#000000" font-family="sans-serif" font-size="20" lengthAdjust="spacing" textLength="114" x="536.25" y="290.5799">update floor</text><polygon fill="#181818" points="524.625,335.6798,514.625,339.6798,524.625,343.6798,520.625,339.6798" style="stroke:#181818;stroke-width:1.0;"/><line style="stroke:#181818;stroke-width:1.0;stroke-dasharray:2.0,2.0;" x1="518.625" x2="725.25" y1="339.6798" y2="339.6798"/><text fill="#000000" font-family="sans-serif" font-size="20" font-weight="bold" lengthAdjust="spacing" textLength="11.625" x="530.625" y="331.8198">6</text><text fill="#000000" font-family="sans-serif" font-size="20" lengthAdjust="spacing" textLength="44" x="546.25" y="331.8198">floor</text><polygon fill="#181818" points="11,376.9198,1,380.9198,11,384.9198,7,380.9198" style="stroke:#181818;stroke-width:1.0;"/><line style="stroke:#181818;stroke-width:1.0;stroke-dasharray:2.0,2.0;" x1="5" x2="507.625" y1="380.9198" y2="380.9198"/><text fill="#000000" font-family="sans-serif" font-size="20" font-weight="bold" lengthAdjust="spacing" textLength="11.625" x="17" y="373.0598">7</text><text fill="#000000" font-family="sans-serif" font-size="20" lengthAdjust="spacing" textLength="66" x="32.625" y="373.0598">200 OK</text><!--SRC=[dOt1Zi8m34Jl-GghzweLnse58XI4X5QB13zWce0YGXorpXxuUjm2ed3aPFlDUAOxkn2nnOkdvcmD67l4v7b5WNVkQc5IAanC8LqEjbNYPDUuY851Bm4xoFGoUyEr7d2jCwLcb4zxNmMmdUyNQoWEoNdZmgahgkUw86EBeoTg1Gwp9meRTl_8LlwLaWn9akWAJfPXSBqSjLOYvS-kkshiM7ya37gAdj3yOWIcpoWf6ptADMfEqVJmY_AVFB-haxA4lyr7nGq0]--></g></svg>