<?xml version="1.0" encoding="UTF-8" standalone="no"?><svg xmlns="http://www.w3.org/2000/svg" xmlns:xlink="http://www.w3.org/1999/xlink" contentStyleType="text/css" height="392px" preserveAspectRatio="none" style="width:237px;height:392px;background:#FFFFFF;" version="1.1" viewBox="0 0 237 392" width="237px" zoomAndPan="magnify"><defs/><g><!--cluster RobDroneGo System--><g id="cluster_RobDroneGo System"><path d="M8.5,8.36 L213.5,8.36 A3.75,3.75 0 0 1 216,10.86 L223,41.6 L227.5,41.6 A2.5,2.5 0 0 1 230,44.1 L230,382.86 A2.5,2.5 0 0 1 227.5,385.36 L8.5,385.36 A2.5,2.5 0 0 1 6,382.86 L6,10.86 A2.5,2.5 0 0 1 8.5,8.36 " fill="none" style="stroke:#000000;stroke-width:1.5;"/><line style="stroke:#000000;stroke-width:1.5;" x1="6" x2="223" y1="41.6" y2="41.6"/><text fill="#000000" font-family="sans-serif" font-size="20" font-weight="bold" lengthAdjust="spacing" textLength="204" x="10" y="31.74">RobDroneGo System</text></g><!--entity V--><g id="elem_V"><path d="M47.5,304.36 L88.5,304.36 A3.75,3.75 0 0 1 91,306.86 L98,325.36 L188.5,325.36 A2.5,2.5 0 0 1 191,327.86 L191,367.1 A2.5,2.5 0 0 1 188.5,369.6 L47.5,369.6 A2.5,2.5 0 0 1 45,367.1 L45,306.86 A2.5,2.5 0 0 1 47.5,304.36 " fill="#F1F1F1" style="stroke:#181818;stroke-width:0.5;"/><line style="stroke:#181818;stroke-width:0.5;" x1="45" x2="98" y1="325.36" y2="325.36"/><text fill="#000000" font-family="sans-serif" font-size="20" lengthAdjust="spacing" textLength="116" x="55" y="353.74">Visualization</text></g><!--entity MDM--><g id="elem_MDM"><path d="M24.5,179.36 L65.5,179.36 A3.75,3.75 0 0 1 68,181.86 L75,200.36 L211.5,200.36 A2.5,2.5 0 0 1 214,202.86 L214,242.1 A2.5,2.5 0 0 1 211.5,244.6 L24.5,244.6 A2.5,2.5 0 0 1 22,242.1 L22,181.86 A2.5,2.5 0 0 1 24.5,179.36 " fill="#F1F1F1" style="stroke:#181818;stroke-width:0.5;"/><line style="stroke:#181818;stroke-width:0.5;" x1="22" x2="75" y1="200.36" y2="200.36"/><text fill="#000000" font-family="sans-serif" font-size="20" lengthAdjust="spacing" textLength="162" x="32" y="228.74">MD Management</text></g><!--entity P--><g id="elem_P"><path d="M65,54.36 L106,54.36 A3.75,3.75 0 0 1 108.5,56.86 L115.5,75.36 L171,75.36 A2.5,2.5 0 0 1 173.5,77.86 L173.5,117.1 A2.5,2.5 0 0 1 171,119.6 L65,119.6 A2.5,2.5 0 0 1 62.5,117.1 L62.5,56.86 A2.5,2.5 0 0 1 65,54.36 " fill="#F1F1F1" style="stroke:#181818;stroke-width:0.5;"/><line style="stroke:#181818;stroke-width:0.5;" x1="62.5" x2="115.5" y1="75.36" y2="75.36"/><text fill="#000000" font-family="sans-serif" font-size="20" lengthAdjust="spacing" textLength="81" x="72.5" y="103.74">Planning</text></g><!--reverse link MDM to V--><g id="link_MDM_V"><path d="M118,250.99 C118,268 118,287.82 118,304.02 " fill="none" id="MDM-backto-V" style="stroke:#181818;stroke-width:1.0;stroke-dasharray:7.0,7.0;"/><polygon fill="#181818" points="118,246.37,114,255.37,118,251.37,122,255.37,118,246.37" style="stroke:#181818;stroke-width:1.0;"/></g><!--reverse link P to MDM--><g id="link_P_MDM"><path d="M118,125.99 C118,143 118,162.82 118,179.02 " fill="none" id="P-backto-MDM" style="stroke:#181818;stroke-width:1.0;stroke-dasharray:7.0,7.0;"/><polygon fill="#181818" points="118,121.37,114,130.37,118,126.37,122,130.37,118,121.37" style="stroke:#181818;stroke-width:1.0;"/></g><!--SRC=[PSp12eCm30RWUvuYz05axBnZsKu5cU0zqoZ5ceYj1nrxztLbXy4WyFFpVoHENXPQQGxQJTnZpmDj8LrLKkCFnlC9OA5kef7HtFLXLnM-AJPxJ3mRV09Yla53pokQriUDWZyeUHM35B4jv0K_o5bq9FdZp98ASjRzipgGY9UnYFgxPm4VVQagRA4kcJky0G00]--></g></svg>