<?xml version="1.0" encoding="UTF-8" standalone="no"?><svg xmlns="http://www.w3.org/2000/svg" xmlns:xlink="http://www.w3.org/1999/xlink" contentStyleType="text/css" height="393px" preserveAspectRatio="none" style="width:237px;height:393px;background:#FFFFFF;" version="1.1" viewBox="0 0 237 393" width="237px" zoomAndPan="magnify"><defs/><g><!--cluster RobDroneGo System--><g id="cluster_RobDroneGo System"><path d="M8.5,8.36 L213.5,8.36 A3.75,3.75 0 0 1 216,10.86 L223,41.6 L227.5,41.6 A2.5,2.5 0 0 1 230,44.1 L230,383.58 A2.5,2.5 0 0 1 227.5,386.08 L8.5,386.08 A2.5,2.5 0 0 1 6,383.58 L6,10.86 A2.5,2.5 0 0 1 8.5,8.36 " fill="none" style="stroke:#000000;stroke-width:1.5;"/><line style="stroke:#000000;stroke-width:1.5;" x1="6" x2="223" y1="41.6" y2="41.6"/><text fill="#000000" font-family="sans-serif" font-size="20" font-weight="bold" lengthAdjust="spacing" textLength="204" x="10" y="31.74">RobDroneGo System</text></g><!--entity V--><g id="elem_V"><path d="M47.5,304.84 L88.5,304.84 A3.75,3.75 0 0 1 91,307.34 L98,325.84 L188.5,325.84 A2.5,2.5 0 0 1 191,328.34 L191,367.58 A2.5,2.5 0 0 1 188.5,370.08 L47.5,370.08 A2.5,2.5 0 0 1 45,367.58 L45,307.34 A2.5,2.5 0 0 1 47.5,304.84 " fill="#F1F1F1" style="stroke:#181818;stroke-width:0.5;"/><line style="stroke:#181818;stroke-width:0.5;" x1="45" x2="98" y1="325.84" y2="325.84"/><text fill="#000000" font-family="sans-serif" font-size="20" lengthAdjust="spacing" textLength="116" x="55" y="354.22">Visualization</text></g><!--entity MDM--><g id="elem_MDM"><path d="M24.5,179.6 L65.5,179.6 A3.75,3.75 0 0 1 68,182.1 L75,200.6 L211.5,200.6 A2.5,2.5 0 0 1 214,203.1 L214,242.34 A2.5,2.5 0 0 1 211.5,244.84 L24.5,244.84 A2.5,2.5 0 0 1 22,242.34 L22,182.1 A2.5,2.5 0 0 1 24.5,179.6 " fill="#F1F1F1" style="stroke:#181818;stroke-width:0.5;"/><line style="stroke:#181818;stroke-width:0.5;" x1="22" x2="75" y1="200.6" y2="200.6"/><text fill="#000000" font-family="sans-serif" font-size="20" lengthAdjust="spacing" textLength="162" x="32" y="228.98">MD Management</text></g><!--entity P--><g id="elem_P"><path d="M65,54.36 L106,54.36 A3.75,3.75 0 0 1 108.5,56.86 L115.5,75.36 L171,75.36 A2.5,2.5 0 0 1 173.5,77.86 L173.5,117.1 A2.5,2.5 0 0 1 171,119.6 L65,119.6 A2.5,2.5 0 0 1 62.5,117.1 L62.5,56.86 A2.5,2.5 0 0 1 65,54.36 " fill="#F1F1F1" style="stroke:#181818;stroke-width:0.5;"/><line style="stroke:#181818;stroke-width:0.5;" x1="62.5" x2="115.5" y1="75.36" y2="75.36"/><text fill="#000000" font-family="sans-serif" font-size="20" lengthAdjust="spacing" textLength="81" x="72.5" y="103.74">Planning</text></g><!--reverse link MDM to V--><g id="link_MDM_V"><path d="M118,250.97 C118,268.12 118,288.18 118,304.56 " fill="none" id="MDM-backto-V" style="stroke:#181818;stroke-width:1.0;stroke-dasharray:7.0,7.0;"/><polygon fill="#181818" points="118,246.28,114,255.28,118,251.28,122,255.28,118,246.28" style="stroke:#181818;stroke-width:1.0;"/></g><!--reverse link P to MDM--><g id="link_P_MDM"><path d="M118,125.73 C118,142.88 118,162.94 118,179.32 " fill="none" id="P-backto-MDM" style="stroke:#181818;stroke-width:1.0;stroke-dasharray:7.0,7.0;"/><polygon fill="#181818" points="118,121.04,114,130.04,118,126.04,122,130.04,118,121.04" style="stroke:#181818;stroke-width:1.0;"/></g><!--SRC=[PSp12eCm30RWUvuYz05axBnZsKu5cU0zqoZ5ceYj1nrxztLbXy4WyFFpVoHENXPQQGxQJTnZpmDj8LrLKkCFnlC9OA5kef7HtFLXLnM-AJPxJ3mRV09Yla53pokQriUDWZyeUHM35B4jv0K_o5bq9FdZp98ASjRzipgGY9UnYFgxPm4VVQagRA4kcJky0G00]--></g></svg>