<?xml version="1.0" encoding="UTF-8" standalone="no"?><svg xmlns="http://www.w3.org/2000/svg" xmlns:xlink="http://www.w3.org/1999/xlink" contentStyleType="text/css" height="555px" preserveAspectRatio="none" style="width:943px;height:555px;background:#FFFFFF;" version="1.1" viewBox="0 0 943 555" width="943px" zoomAndPan="magnify"><defs/><g><!--cluster RobDroneGo System--><g id="cluster_RobDroneGo System"><rect fill="none" height="433" rx="2.5" ry="2.5" style="stroke:#181818;stroke-width:1.0;" width="522" x="7" y="116"/><rect fill="none" height="10" style="stroke:#181818;stroke-width:1.0;" width="15" x="509" y="121"/><rect fill="none" height="2" style="stroke:#181818;stroke-width:1.0;" width="4" x="507" y="123"/><rect fill="none" height="2" style="stroke:#181818;stroke-width:1.0;" width="4" x="507" y="127"/><text fill="#000000" font-family="sans-serif" font-size="20" font-style="italic" lengthAdjust="spacing" textLength="138" x="199" y="147.5645">«component»</text><text fill="#000000" font-family="sans-serif" font-size="20" font-style="italic" lengthAdjust="spacing" textLength="145" x="195.5" y="170.8457">«system (C4)»</text><text fill="#000000" font-family="sans-serif" font-size="20" font-weight="bold" lengthAdjust="spacing" textLength="233" x="151.5" y="194.127">RobDroneGo System</text></g><text fill="#000000" font-family="sans-serif" font-size="20" lengthAdjust="spacing" textLength="6" x="508" y="93.2832"> </text><rect fill="#F1F1F1" height="12" style="stroke:#181818;stroke-width:1.5;" width="12" x="505" y="110"/><!--entity V--><g id="elem_V"><rect fill="#F1F1F1" height="76.5625" rx="2.5" ry="2.5" style="stroke:#181818;stroke-width:0.5;" width="329" x="22.5" y="456"/><rect fill="#F1F1F1" height="10" style="stroke:#181818;stroke-width:0.5;" width="15" x="331.5" y="461"/><rect fill="#F1F1F1" height="2" style="stroke:#181818;stroke-width:0.5;" width="4" x="329.5" y="463"/><rect fill="#F1F1F1" height="2" style="stroke:#181818;stroke-width:0.5;" width="4" x="329.5" y="467"/><text fill="#000000" font-family="sans-serif" font-size="20" font-style="italic" lengthAdjust="spacing" textLength="289" x="37.5" y="494.5645">«component» «system (C4)»</text><text fill="#000000" font-family="sans-serif" font-size="20" lengthAdjust="spacing" textLength="129" x="117.5" y="517.8457">Visualization</text></g><!--entity MDM--><g id="elem_MDM"><rect fill="#F1F1F1" height="76.5625" rx="2.5" ry="2.5" style="stroke:#181818;stroke-width:0.5;" width="329" x="22.5" y="319"/><rect fill="#F1F1F1" height="10" style="stroke:#181818;stroke-width:0.5;" width="15" x="331.5" y="324"/><rect fill="#F1F1F1" height="2" style="stroke:#181818;stroke-width:0.5;" width="4" x="329.5" y="326"/><rect fill="#F1F1F1" height="2" style="stroke:#181818;stroke-width:0.5;" width="4" x="329.5" y="330"/><text fill="#000000" font-family="sans-serif" font-size="20" font-style="italic" lengthAdjust="spacing" textLength="289" x="37.5" y="357.5645">«component» «system (C4)»</text><text fill="#000000" font-family="sans-serif" font-size="20" lengthAdjust="spacing" textLength="170" x="97" y="380.8457">MD Management</text></g><!--entity P--><g id="elem_P"><rect fill="#F1F1F1" height="76.5625" rx="2.5" ry="2.5" style="stroke:#181818;stroke-width:0.5;" width="329" x="22.5" y="182"/><rect fill="#F1F1F1" height="10" style="stroke:#181818;stroke-width:0.5;" width="15" x="331.5" y="187"/><rect fill="#F1F1F1" height="2" style="stroke:#181818;stroke-width:0.5;" width="4" x="329.5" y="189"/><rect fill="#F1F1F1" height="2" style="stroke:#181818;stroke-width:0.5;" width="4" x="329.5" y="193"/><text fill="#000000" font-family="sans-serif" font-size="20" font-style="italic" lengthAdjust="spacing" textLength="289" x="37.5" y="220.5645">«component» «system (C4)»</text><text fill="#000000" font-family="sans-serif" font-size="20" lengthAdjust="spacing" textLength="88" x="138" y="243.8457">Planning</text></g><!--entity AUI--><g id="elem_AUI"><ellipse cx="76" cy="14" fill="#F1F1F1" rx="8" ry="8" style="stroke:#181818;stroke-width:0.5;"/><text fill="#000000" font-family="sans-serif" font-size="20" lengthAdjust="spacing" textLength="93" x="29.5" y="49.5645">Admin UI</text></g><!--entity CUI--><g id="elem_CUI"><ellipse cx="274" cy="14" fill="#F1F1F1" rx="8" ry="8" style="stroke:#181818;stroke-width:0.5;"/><text fill="#000000" font-family="sans-serif" font-size="20" lengthAdjust="spacing" textLength="202" x="173" y="49.5645">Campus Manager UI</text></g><!--entity FUI--><g id="elem_FUI"><ellipse cx="511" cy="14" fill="#F1F1F1" rx="8" ry="8" style="stroke:#181818;stroke-width:0.5;"/><text fill="#000000" font-family="sans-serif" font-size="20" lengthAdjust="spacing" textLength="170" x="426" y="49.5645">Fleet Manager UI</text></g><!--entity TUI--><g id="elem_TUI"><ellipse cx="730" cy="14" fill="#F1F1F1" rx="8" ry="8" style="stroke:#181818;stroke-width:0.5;"/><text fill="#000000" font-family="sans-serif" font-size="20" lengthAdjust="spacing" textLength="166" x="647" y="49.5645">Task Manager UI</text></g><!--entity UUI--><g id="elem_UUI"><ellipse cx="900" cy="14" fill="#F1F1F1" rx="8" ry="8" style="stroke:#181818;stroke-width:0.5;"/><text fill="#000000" font-family="sans-serif" font-size="20" lengthAdjust="spacing" textLength="72" x="864" y="49.5645">User UI</text></g><!--link MDM to V--><g id="link_MDM_V"><path d="M187,396.11 C187,412.93 187,432.87 187,450.3 " fill="none" id="MDM-to-V" style="stroke:#181818;stroke-width:1.0;stroke-dasharray:7.0,7.0;"/><polygon fill="#181818" points="187,455.63,191,446.63,187,450.63,183,446.63,187,455.63" style="stroke:#181818;stroke-width:1.0;"/></g><!--reverse link P to MDM--><g id="link_P_MDM"><path d="M187,264.42 C187,281.83 187,301.77 187,318.63 " fill="none" id="P-backto-MDM" style="stroke:#181818;stroke-width:1.0;stroke-dasharray:7.0,7.0;"/><polygon fill="#181818" points="187,259.11,183.0257,268.1214,187.0143,264.11,191.0257,268.0985,187,259.11" style="stroke:#181818;stroke-width:1.0;"/></g><!--link AUI to P1--><g id="link_AUI_P1"><path d="M85.43,20.63 C98.86,28.41 124.48,42.34 148,50 C288.02,95.6 469.45,111.73 504.86,114.54 " fill="none" id="AUI-P1" style="stroke:#181818;stroke-width:1.0;"/></g><!--link CUI to P1--><g id="link_CUI_P1"><path d="M283,18.8 C321.56,35.07 472.29,98.67 504.8,112.38 " fill="none" id="CUI-P1" style="stroke:#181818;stroke-width:1.0;"/></g><!--link FUI to P1--><g id="link_FUI_P1"><path d="M511,23.18 C511,42.96 511,92.95 511,109.55 " fill="none" id="FUI-P1" style="stroke:#181818;stroke-width:1.0;"/></g><!--link TUI to P1--><g id="link_TUI_P1"><path d="M720.87,19.17 C684.12,35.95 547.53,98.32 517.05,112.24 " fill="none" id="TUI-P1" style="stroke:#181818;stroke-width:1.0;"/></g><!--link UUI to P1--><g id="link_UUI_P1"><path d="M890.96,21.45 C879.44,29.37 858.67,42.64 839,50 C714.5,96.62 550.28,111.85 517.02,114.54 " fill="none" id="UUI-P1" style="stroke:#181818;stroke-width:1.0;"/></g><!--SRC=[dP5FQuD04CNlyoa6BsaFaRRq68IWM78GGgFUfxe9Y-wikEkXAVtk7MrhOqwXi8Styzx-Pl-uHdD7FPdMLesgiLP76bgVMlO7VLRuz02WsQl-I9N2O5iRpLZi0YI7ss9twSLaki5XHamdrV-6ucKeRPNorvbqcSd9DTUHV1aft9zLY0MLDPrbnHw3L_kMzA9VB1xUdLScmCrczgD8AZVryIv-lfVw0n0xstkvMO0JSly8qfDrWIsr6wZLP_BQyfGgR-1-mfAI9JytCr9Eb2p9_i7PjyIi-VHzt9i0We2L77gz7cV2E3SC8on1jeVXr5i9IkmIGFvsLF8GyQpIMUMpAcRr1G00]--></g></svg>