<?xml version="1.0" encoding="UTF-8" standalone="no"?><svg xmlns="http://www.w3.org/2000/svg" xmlns:xlink="http://www.w3.org/1999/xlink" contentStyleType="text/css" height="375px" preserveAspectRatio="none" style="width:262px;height:375px;background:#FFFFFF;" version="1.1" viewBox="0 0 262 375" width="262px" zoomAndPan="magnify"><defs/><g><!--cluster RobDroneGo System--><g id="cluster_RobDroneGo System"><path d="M8.5,7.2168 L242.5,7.2168 A3.75,3.75 0 0 1 245,9.7168 L252,36.498 L252.5,36.498 A2.5,2.5 0 0 1 255,38.998 L255,365.7168 A2.5,2.5 0 0 1 252.5,368.2168 L8.5,368.2168 A2.5,2.5 0 0 1 6,365.7168 L6,9.7168 A2.5,2.5 0 0 1 8.5,7.2168 " fill="none" style="stroke:#000000;stroke-width:1.5;"/><line style="stroke:#000000;stroke-width:1.5;" x1="6" x2="252" y1="36.498" y2="36.498"/><text fill="#000000" font-family="sans-serif" font-size="20" font-weight="bold" lengthAdjust="spacing" textLength="233" x="10" y="27.7813">RobDroneGo System</text></g><!--entity V--><g id="elem_V"><path d="M53,291.2168 L94,291.2168 A3.75,3.75 0 0 1 96.5,293.7168 L103.5,312.2168 L207,312.2168 A2.5,2.5 0 0 1 209.5,314.7168 L209.5,349.998 A2.5,2.5 0 0 1 207,352.498 L53,352.498 A2.5,2.5 0 0 1 50.5,349.998 L50.5,293.7168 A2.5,2.5 0 0 1 53,291.2168 " fill="#F1F1F1" style="stroke:#181818;stroke-width:0.5;"/><line style="stroke:#181818;stroke-width:0.5;" x1="50.5" x2="103.5" y1="312.2168" y2="312.2168"/><text fill="#000000" font-family="sans-serif" font-size="20" lengthAdjust="spacing" textLength="129" x="60.5" y="337.7813">Visualization</text></g><!--entity MDM--><g id="elem_MDM"><path d="M32.5,170.2168 L73.5,170.2168 A3.75,3.75 0 0 1 76,172.7168 L83,191.2168 L227.5,191.2168 A2.5,2.5 0 0 1 230,193.7168 L230,228.998 A2.5,2.5 0 0 1 227.5,231.498 L32.5,231.498 A2.5,2.5 0 0 1 30,228.998 L30,172.7168 A2.5,2.5 0 0 1 32.5,170.2168 " fill="#F1F1F1" style="stroke:#181818;stroke-width:0.5;"/><line style="stroke:#181818;stroke-width:0.5;" x1="30" x2="83" y1="191.2168" y2="191.2168"/><text fill="#000000" font-family="sans-serif" font-size="20" lengthAdjust="spacing" textLength="170" x="40" y="216.7813">MD Management</text></g><!--entity P--><g id="elem_P"><path d="M73.5,49.2168 L114.5,49.2168 A3.75,3.75 0 0 1 117,51.7168 L124,70.2168 L186.5,70.2168 A2.5,2.5 0 0 1 189,72.7168 L189,107.998 A2.5,2.5 0 0 1 186.5,110.498 L73.5,110.498 A2.5,2.5 0 0 1 71,107.998 L71,51.7168 A2.5,2.5 0 0 1 73.5,49.2168 " fill="#F1F1F1" style="stroke:#181818;stroke-width:0.5;"/><line style="stroke:#181818;stroke-width:0.5;" x1="71" x2="124" y1="70.2168" y2="70.2168"/><text fill="#000000" font-family="sans-serif" font-size="20" lengthAdjust="spacing" textLength="88" x="81" y="95.7813">Planning</text></g><!--reverse link MDM to V--><g id="link_MDM_V"><path d="M130,236.6768 C130,253.9168 130,274.4868 130,290.9568 " fill="none" id="MDM-backto-V" style="stroke:#181818;stroke-width:1.0;stroke-dasharray:7.0,7.0;"/><polygon fill="#181818" points="130,231.4368,126,240.4368,130,236.4368,134,240.4368,130,231.4368" style="stroke:#181818;stroke-width:1.0;"/></g><!--reverse link P to MDM--><g id="link_P_MDM"><path d="M130,115.6768 C130,132.9168 130,153.4868 130,169.9568 " fill="none" id="P-backto-MDM" style="stroke:#181818;stroke-width:1.0;stroke-dasharray:7.0,7.0;"/><polygon fill="#181818" points="130,110.4368,126,119.4368,130,115.4368,134,119.4368,130,110.4368" style="stroke:#181818;stroke-width:1.0;"/></g><!--SRC=[PSp12eCm30RWUvuYz05axBnZsKu5cU0zqoZ5ceYj1nrxztLbXy4WyFFpVoHENXPQQGxQJTnZpmDj8LrLKkCFnlC9OA5kef7HtFLXLnM-AJPxJ3mRV09Yla53pokQriUDWZyeUHM35B4jv0K_o5bq9FdZp98ASjRzipgGY9UnYFgxPm4VVQagRA4kcJky0G00]--></g></svg>