<?xml version="1.0" encoding="UTF-8" standalone="no"?><svg xmlns="http://www.w3.org/2000/svg" xmlns:xlink="http://www.w3.org/1999/xlink" contentStyleType="text/css" height="580px" preserveAspectRatio="none" style="width:883px;height:580px;background:#FFFFFF;" version="1.1" viewBox="0 0 883 580" width="883px" zoomAndPan="magnify"><defs/><g><!--cluster RobDroneGo System--><g id="cluster_RobDroneGo System"><rect fill="none" height="454" rx="2.5" ry="2.5" style="stroke:#181818;stroke-width:1.0;" width="469" x="16" y="120"/><rect fill="none" height="10" style="stroke:#181818;stroke-width:1.0;" width="15" x="465" y="125"/><rect fill="none" height="2" style="stroke:#181818;stroke-width:1.0;" width="4" x="463" y="127"/><rect fill="none" height="2" style="stroke:#181818;stroke-width:1.0;" width="4" x="463" y="131"/><text fill="#000000" font-family="sans-serif" font-size="20" font-style="italic" lengthAdjust="spacing" textLength="122" x="189.5" y="154.38">«component»</text><text fill="#000000" font-family="sans-serif" font-size="20" font-style="italic" lengthAdjust="spacing" textLength="122" x="189.5" y="181.62">«system (C4)»</text><text fill="#000000" font-family="sans-serif" font-size="20" font-weight="bold" lengthAdjust="spacing" textLength="204" x="148.5" y="208.8599">RobDroneGo System</text></g><text fill="#000000" font-family="sans-serif" font-size="20" lengthAdjust="spacing" textLength="5" x="464.5" y="96.14"> </text><rect fill="#F1F1F1" height="12" style="stroke:#181818;stroke-width:1.5;" width="12" x="461" y="114"/><!--entity V--><g id="elem_V"><rect fill="#F1F1F1" height="84.4799" rx="2.5" ry="2.5" style="stroke:#181818;stroke-width:0.5;" width="289" x="32.5" y="474"/><rect fill="#F1F1F1" height="10" style="stroke:#181818;stroke-width:0.5;" width="15" x="301.5" y="479"/><rect fill="#F1F1F1" height="2" style="stroke:#181818;stroke-width:0.5;" width="4" x="299.5" y="481"/><rect fill="#F1F1F1" height="2" style="stroke:#181818;stroke-width:0.5;" width="4" x="299.5" y="485"/><text fill="#000000" font-family="sans-serif" font-size="20" font-style="italic" lengthAdjust="spacing" textLength="249" x="47.5" y="515.38">«component» «system (C4)»</text><text fill="#000000" font-family="sans-serif" font-size="20" lengthAdjust="spacing" textLength="116" x="114" y="542.62">Visualization</text></g><!--entity MDM--><g id="elem_MDM"><rect fill="#F1F1F1" height="84.4799" rx="2.5" ry="2.5" style="stroke:#181818;stroke-width:0.5;" width="289" x="32.5" y="330"/><rect fill="#F1F1F1" height="10" style="stroke:#181818;stroke-width:0.5;" width="15" x="301.5" y="335"/><rect fill="#F1F1F1" height="2" style="stroke:#181818;stroke-width:0.5;" width="4" x="299.5" y="337"/><rect fill="#F1F1F1" height="2" style="stroke:#181818;stroke-width:0.5;" width="4" x="299.5" y="341"/><text fill="#000000" font-family="sans-serif" font-size="20" font-style="italic" lengthAdjust="spacing" textLength="249" x="47.5" y="371.38">«component» «system (C4)»</text><text fill="#000000" font-family="sans-serif" font-size="20" lengthAdjust="spacing" textLength="162" x="91" y="398.62">MD Management</text></g><!--entity P--><g id="elem_P"><rect fill="#F1F1F1" height="84.4799" rx="2.5" ry="2.5" style="stroke:#181818;stroke-width:0.5;" width="289" x="32.5" y="186"/><rect fill="#F1F1F1" height="10" style="stroke:#181818;stroke-width:0.5;" width="15" x="301.5" y="191"/><rect fill="#F1F1F1" height="2" style="stroke:#181818;stroke-width:0.5;" width="4" x="299.5" y="193"/><rect fill="#F1F1F1" height="2" style="stroke:#181818;stroke-width:0.5;" width="4" x="299.5" y="197"/><text fill="#000000" font-family="sans-serif" font-size="20" font-style="italic" lengthAdjust="spacing" textLength="249" x="47.5" y="227.38">«component» «system (C4)»</text><text fill="#000000" font-family="sans-serif" font-size="20" lengthAdjust="spacing" textLength="81" x="131.5" y="254.62">Planning</text></g><!--entity AUI--><g id="elem_AUI"><ellipse cx="50" cy="14" fill="#F1F1F1" rx="8" ry="8" style="stroke:#181818;stroke-width:0.5;"/><text fill="#000000" font-family="sans-serif" font-size="20" lengthAdjust="spacing" textLength="88" x="6" y="52.38">Admin UI</text></g><!--entity CUI--><g id="elem_CUI"><ellipse cx="241" cy="14" fill="#F1F1F1" rx="8" ry="8" style="stroke:#181818;stroke-width:0.5;"/><text fill="#000000" font-family="sans-serif" font-size="20" lengthAdjust="spacing" textLength="192" x="145" y="52.38">Campus Manager UI</text></g><!--entity FUI--><g id="elem_FUI"><ellipse cx="467" cy="14" fill="#F1F1F1" rx="8" ry="8" style="stroke:#181818;stroke-width:0.5;"/><text fill="#000000" font-family="sans-serif" font-size="20" lengthAdjust="spacing" textLength="159" x="387.5" y="52.38">Fleet Manager UI</text></g><!--entity TUI--><g id="elem_TUI"><ellipse cx="676" cy="14" fill="#F1F1F1" rx="8" ry="8" style="stroke:#181818;stroke-width:0.5;"/><text fill="#000000" font-family="sans-serif" font-size="20" lengthAdjust="spacing" textLength="158" x="597" y="52.38">Task Manager UI</text></g><!--entity UUI--><g id="elem_UUI"><ellipse cx="841" cy="14" fill="#F1F1F1" rx="8" ry="8" style="stroke:#181818;stroke-width:0.5;"/><text fill="#000000" font-family="sans-serif" font-size="20" lengthAdjust="spacing" textLength="71" x="805.5" y="52.38">User UI</text></g><!--link MDM to V--><g id="link_MDM_V"><path d="M177,414.45 C177,431.08 177,450.33 177,467.51 " fill="none" id="MDM-to-V" style="stroke:#181818;stroke-width:1.0;stroke-dasharray:7.0,7.0;"/><polygon fill="#181818" points="177,472.23,181,463.23,177,467.23,173,463.23,177,472.23" style="stroke:#181818;stroke-width:1.0;"/></g><!--reverse link P to MDM--><g id="link_P_MDM"><path d="M177,276.69 C177,293.89 177,313.14 177,329.74 " fill="none" id="P-backto-MDM" style="stroke:#181818;stroke-width:1.0;stroke-dasharray:7.0,7.0;"/><polygon fill="#181818" points="177,271.97,173,280.97,177,276.97,181,280.97,177,271.97" style="stroke:#181818;stroke-width:1.0;"/></g><!--link AUI to P1--><g id="link_AUI_P1"><path d="M58.62,21.02 C71.41,29.67 96.45,45.49 120,54 C252,101.7 425.51,116.07 460.64,118.58 " fill="none" id="AUI-P1" style="stroke:#181818;stroke-width:1.0;"/></g><!--link CUI to P1--><g id="link_CUI_P1"><path d="M249.86,19.08 C286.91,36.13 428.98,101.51 460.7,116.1 " fill="none" id="CUI-P1" style="stroke:#181818;stroke-width:1.0;"/></g><!--link FUI to P1--><g id="link_FUI_P1"><path d="M467,22.82 C467,43.04 467,96.66 467,113.72 " fill="none" id="FUI-P1" style="stroke:#181818;stroke-width:1.0;"/></g><!--link TUI to P1--><g id="link_TUI_P1"><path d="M667.02,19.47 C631.7,37.04 502.86,101.16 473.14,115.94 " fill="none" id="TUI-P1" style="stroke:#181818;stroke-width:1.0;"/></g><!--link UUI to P1--><g id="link_UUI_P1"><path d="M832.24,22.22 C821.05,31.06 800.76,45.87 781,54 C663.62,102.29 506.25,116.12 473.23,118.57 " fill="none" id="UUI-P1" style="stroke:#181818;stroke-width:1.0;"/></g><!--SRC=[dP5FQuD04CNlyoa6BsaFaRRq68IWM78GGgFUfxe9Y-wikEkXAVtk7MrhOqwXi8Styzx-Pl-uHdD7FPdMLesgiLP76bgVMlO7VLRuz02WsQl-I9N2O5iRpLZi0YI7ss9twSLaki5XHamdrV-6ucKeRPNorvbqcSd9DTUHV1aft9zLY0MLDPrbnHw3L_kMzA9VB1xUdLScmCrczgD8AZVryIv-lfVw0n0xstkvMO0JSly8qfDrWIsr6wZLP_BQyfGgR-1-mfAI9JytCr9Eb2p9_i7PjyIi-VHzt9i0We2L77gz7cV2E3SC8on1jeVXr5i9IkmIGFvsLF8GyQpIMUMpAcRr1G00]--></g></svg>