<?xml version="1.0" encoding="UTF-8" standalone="no"?><svg xmlns="http://www.w3.org/2000/svg" xmlns:xlink="http://www.w3.org/1999/xlink" contentStyleType="text/css" height="829px" preserveAspectRatio="none" style="width:1496px;height:829px;background:#FFFFFF;" version="1.1" viewBox="0 0 1496 829" width="1496px" zoomAndPan="magnify"><defs/><g><rect fill="#DDDDDD" height="817.3195" style="stroke:#181818;stroke-width:0.5;" width="742" x="562.125" y="6"/><text fill="#000000" font-family="sans-serif" font-size="20" font-weight="bold" lengthAdjust="spacing" textLength="128.875" x="868.6875" y="27.38">«system (C4»</text><text fill="#000000" font-family="sans-serif" font-size="20" font-weight="bold" lengthAdjust="spacing" textLength="124.125" x="871.0625" y="54.62">Visualization</text><rect fill="#FFFFE0" height="817.3195" style="stroke:#181818;stroke-width:0.5;" width="184" x="1306.125" y="6"/><text fill="#000000" font-family="sans-serif" font-size="20" font-weight="bold" lengthAdjust="spacing" textLength="135.5" x="1330.375" y="27.38">«system (C4)»</text><text fill="#000000" font-family="sans-serif" font-size="20" font-weight="bold" lengthAdjust="spacing" textLength="169.5" x="1313.375" y="54.62">MD Management</text><rect fill="#FFFFFF" height="571.1197" style="stroke:#181818;stroke-width:1.0;" width="10" x="67.5" y="143.9599"/><rect fill="#FFFFFF" height="41.24" style="stroke:#181818;stroke-width:1.0;" width="10" x="649.125" y="177.1999"/><rect fill="#FFFFFF" height="455.3997" style="stroke:#181818;stroke-width:1.0;" width="10" x="649.125" y="259.6798"/><rect fill="#FFFFFF" height="372.9198" style="stroke:#181818;stroke-width:1.0;" width="10" x="835.125" y="300.9198"/><rect fill="#FFFFFF" height="28" style="stroke:#181818;stroke-width:1.0;" width="10" x="840.125" y="350.1598"/><rect fill="#FFFFFF" height="206.1999" style="stroke:#181818;stroke-width:1.0;" width="10" x="1021.125" y="426.3997"/><rect fill="#FFFFFF" height="123.7199" style="stroke:#181818;stroke-width:1.0;" width="10" x="1207.125" y="467.6397"/><rect fill="#FFFFFF" height="41.24" style="stroke:#181818;stroke-width:1.0;" width="10" x="1393.125" y="508.8797"/><line style="stroke:#181818;stroke-width:0.5;stroke-dasharray:5.0,5.0;" x1="72" x2="72" y1="133.9599" y2="733.0796"/><line style="stroke:#181818;stroke-width:0.5;stroke-dasharray:5.0,5.0;" x1="654.125" x2="654.125" y1="133.9599" y2="733.0796"/><line style="stroke:#181818;stroke-width:0.5;stroke-dasharray:5.0,5.0;" x1="840.125" x2="840.125" y1="133.9599" y2="733.0796"/><line style="stroke:#181818;stroke-width:0.5;stroke-dasharray:5.0,5.0;" x1="1026.125" x2="1026.125" y1="133.9599" y2="733.0796"/><line style="stroke:#181818;stroke-width:0.5;stroke-dasharray:5.0,5.0;" x1="1212.125" x2="1212.125" y1="133.9599" y2="733.0796"/><line style="stroke:#181818;stroke-width:0.5;stroke-dasharray:5.0,5.0;" x1="1398.125" x2="1398.125" y1="133.9599" y2="733.0796"/><text fill="#000000" font-family="sans-serif" font-size="20" lengthAdjust="spacing" textLength="129" x="5" y="128.0999">Administrator</text><ellipse cx="72.5" cy="55.2199" fill="#E2E2F0" rx="8" ry="8" style="stroke:#181818;stroke-width:0.5;"/><path d="M72.5,63.2199 L72.5,90.2199 M59.5,71.2199 L85.5,71.2199 M72.5,90.2199 L59.5,105.2199 M72.5,90.2199 L85.5,105.2199 " fill="none" style="stroke:#181818;stroke-width:0.5;"/><text fill="#000000" font-family="sans-serif" font-size="20" lengthAdjust="spacing" textLength="129" x="5" y="753.4596">Administrator</text><ellipse cx="72.5" cy="767.8195" fill="#E2E2F0" rx="8" ry="8" style="stroke:#181818;stroke-width:0.5;"/><path d="M72.5,775.8195 L72.5,802.8195 M59.5,783.8195 L85.5,783.8195 M72.5,802.8195 L59.5,817.8195 M72.5,802.8195 L85.5,817.8195 " fill="none" style="stroke:#181818;stroke-width:0.5;"/><rect fill="#E2E2F0" height="68.4799" rx="2.5" ry="2.5" style="stroke:#181818;stroke-width:0.5;" width="176" x="566.125" y="64.4799"/><text fill="#000000" font-family="sans-serif" font-size="20" font-style="italic" lengthAdjust="spacing" textLength="162" x="573.125" y="92.8599">«component (C4)»</text><text fill="#000000" font-family="sans-serif" font-size="20" lengthAdjust="spacing" textLength="137" x="585.625" y="120.0999">UI Component</text><rect fill="#E2E2F0" height="68.4799" rx="2.5" ry="2.5" style="stroke:#181818;stroke-width:0.5;" width="176" x="566.125" y="732.0796"/><text fill="#000000" font-family="sans-serif" font-size="20" font-style="italic" lengthAdjust="spacing" textLength="162" x="573.125" y="760.4596">«component (C4)»</text><text fill="#000000" font-family="sans-serif" font-size="20" lengthAdjust="spacing" textLength="137" x="585.625" y="787.6995">UI Component</text><rect fill="#E2E2F0" height="68.4799" rx="2.5" ry="2.5" style="stroke:#181818;stroke-width:0.5;" width="176" x="752.125" y="64.4799"/><text fill="#000000" font-family="sans-serif" font-size="20" font-style="italic" lengthAdjust="spacing" textLength="162" x="759.125" y="92.8599">«component (C4)»</text><text fill="#000000" font-family="sans-serif" font-size="20" lengthAdjust="spacing" textLength="70" x="805.125" y="120.0999">Module</text><rect fill="#E2E2F0" height="68.4799" rx="2.5" ry="2.5" style="stroke:#181818;stroke-width:0.5;" width="176" x="752.125" y="732.0796"/><text fill="#000000" font-family="sans-serif" font-size="20" font-style="italic" lengthAdjust="spacing" textLength="162" x="759.125" y="760.4596">«component (C4)»</text><text fill="#000000" font-family="sans-serif" font-size="20" lengthAdjust="spacing" textLength="70" x="805.125" y="787.6995">Module</text><rect fill="#E2E2F0" height="68.4799" rx="2.5" ry="2.5" style="stroke:#181818;stroke-width:0.5;" width="176" x="938.125" y="64.4799"/><text fill="#000000" font-family="sans-serif" font-size="20" font-style="italic" lengthAdjust="spacing" textLength="162" x="945.125" y="92.8599">«component (C4)»</text><text fill="#000000" font-family="sans-serif" font-size="20" lengthAdjust="spacing" textLength="66" x="993.125" y="120.0999">Service</text><rect fill="#E2E2F0" height="68.4799" rx="2.5" ry="2.5" style="stroke:#181818;stroke-width:0.5;" width="176" x="938.125" y="732.0796"/><text fill="#000000" font-family="sans-serif" font-size="20" font-style="italic" lengthAdjust="spacing" textLength="162" x="945.125" y="760.4596">«component (C4)»</text><text fill="#000000" font-family="sans-serif" font-size="20" lengthAdjust="spacing" textLength="66" x="993.125" y="787.6995">Service</text><rect fill="#E2E2F0" height="68.4799" rx="2.5" ry="2.5" style="stroke:#181818;stroke-width:0.5;" width="176" x="1124.125" y="64.4799"/><text fill="#000000" font-family="sans-serif" font-size="20" font-style="italic" lengthAdjust="spacing" textLength="162" x="1131.125" y="92.8599">«component (C4)»</text><text fill="#000000" font-family="sans-serif" font-size="20" lengthAdjust="spacing" textLength="49" x="1187.625" y="120.0999">HTTP</text><rect fill="#E2E2F0" height="68.4799" rx="2.5" ry="2.5" style="stroke:#181818;stroke-width:0.5;" width="176" x="1124.125" y="732.0796"/><text fill="#000000" font-family="sans-serif" font-size="20" font-style="italic" lengthAdjust="spacing" textLength="162" x="1131.125" y="760.4596">«component (C4)»</text><text fill="#000000" font-family="sans-serif" font-size="20" lengthAdjust="spacing" textLength="49" x="1187.625" y="787.6995">HTTP</text><rect fill="#E2E2F0" height="68.4799" rx="2.5" ry="2.5" style="stroke:#181818;stroke-width:0.5;" width="176" x="1310.125" y="64.4799"/><text fill="#000000" font-family="sans-serif" font-size="20" font-style="italic" lengthAdjust="spacing" textLength="162" x="1317.125" y="92.8599">«component (C4)»</text><text fill="#000000" font-family="sans-serif" font-size="20" lengthAdjust="spacing" textLength="162" x="1317.125" y="120.0999">MD Management</text><rect fill="#E2E2F0" height="68.4799" rx="2.5" ry="2.5" style="stroke:#181818;stroke-width:0.5;" width="176" x="1310.125" y="732.0796"/><text fill="#000000" font-family="sans-serif" font-size="20" font-style="italic" lengthAdjust="spacing" textLength="162" x="1317.125" y="760.4596">«component (C4)»</text><text fill="#000000" font-family="sans-serif" font-size="20" lengthAdjust="spacing" textLength="162" x="1317.125" y="787.6995">MD Management</text><rect fill="#FFFFFF" height="571.1197" style="stroke:#181818;stroke-width:1.0;" width="10" x="67.5" y="143.9599"/><rect fill="#FFFFFF" height="41.24" style="stroke:#181818;stroke-width:1.0;" width="10" x="649.125" y="177.1999"/><rect fill="#FFFFFF" height="455.3997" style="stroke:#181818;stroke-width:1.0;" width="10" x="649.125" y="259.6798"/><rect fill="#FFFFFF" height="372.9198" style="stroke:#181818;stroke-width:1.0;" width="10" x="835.125" y="300.9198"/><rect fill="#FFFFFF" height="28" style="stroke:#181818;stroke-width:1.0;" width="10" x="840.125" y="350.1598"/><rect fill="#FFFFFF" height="206.1999" style="stroke:#181818;stroke-width:1.0;" width="10" x="1021.125" y="426.3997"/><rect fill="#FFFFFF" height="123.7199" style="stroke:#181818;stroke-width:1.0;" width="10" x="1207.125" y="467.6397"/><rect fill="#FFFFFF" height="41.24" style="stroke:#181818;stroke-width:1.0;" width="10" x="1393.125" y="508.8797"/><polygon fill="#181818" points="637.125,173.1999,647.125,177.1999,637.125,181.1999,641.125,177.1999" style="stroke:#181818;stroke-width:1.0;"/><line style="stroke:#181818;stroke-width:1.0;" x1="77.5" x2="643.125" y1="177.1999" y2="177.1999"/><text fill="#000000" font-family="sans-serif" font-size="20" font-weight="bold" lengthAdjust="spacing" textLength="11.625" x="84.5" y="169.3399">1</text><text fill="#000000" font-family="sans-serif" font-size="20" lengthAdjust="spacing" textLength="235" x="100.125" y="169.3399">asks to create a new user</text><polygon fill="#181818" points="88.5,214.4398,78.5,218.4398,88.5,222.4398,84.5,218.4398" style="stroke:#181818;stroke-width:1.0;"/><line style="stroke:#181818;stroke-width:1.0;stroke-dasharray:2.0,2.0;" x1="82.5" x2="653.125" y1="218.4398" y2="218.4398"/><text fill="#000000" font-family="sans-serif" font-size="20" font-weight="bold" lengthAdjust="spacing" textLength="11.625" x="94.5" y="210.5799">2</text><text fill="#000000" font-family="sans-serif" font-size="20" lengthAdjust="spacing" textLength="532" x="110.125" y="210.5799">asks user's personal data, including his role in the system</text><polygon fill="#181818" points="637.125,255.6798,647.125,259.6798,637.125,263.6798,641.125,259.6798" style="stroke:#181818;stroke-width:1.0;"/><line style="stroke:#181818;stroke-width:1.0;" x1="77.5" x2="643.125" y1="259.6798" y2="259.6798"/><text fill="#000000" font-family="sans-serif" font-size="20" font-weight="bold" lengthAdjust="spacing" textLength="11.625" x="84.5" y="251.8198">3</text><text fill="#000000" font-family="sans-serif" font-size="20" lengthAdjust="spacing" textLength="188" x="100.125" y="251.8198">inputs required data</text><polygon fill="#181818" points="823.125,296.9198,833.125,300.9198,823.125,304.9198,827.125,300.9198" style="stroke:#181818;stroke-width:1.0;"/><line style="stroke:#181818;stroke-width:1.0;" x1="659.125" x2="829.125" y1="300.9198" y2="300.9198"/><text fill="#000000" font-family="sans-serif" font-size="20" font-weight="bold" lengthAdjust="spacing" textLength="11.625" x="666.125" y="293.0598">4</text><text fill="#000000" font-family="sans-serif" font-size="20" lengthAdjust="spacing" textLength="104" x="681.75" y="293.0598">create user</text><line style="stroke:#181818;stroke-width:1.0;" x1="850.125" x2="892.125" y1="342.1598" y2="342.1598"/><line style="stroke:#181818;stroke-width:1.0;" x1="892.125" x2="892.125" y1="342.1598" y2="355.1598"/><line style="stroke:#181818;stroke-width:1.0;" x1="851.125" x2="892.125" y1="355.1598" y2="355.1598"/><polygon fill="#181818" points="861.125,351.1598,851.125,355.1598,861.125,359.1598,857.125,355.1598" style="stroke:#181818;stroke-width:1.0;"/><text fill="#000000" font-family="sans-serif" font-size="20" font-weight="bold" lengthAdjust="spacing" textLength="11.625" x="857.125" y="334.2998">5</text><text fill="#000000" font-family="sans-serif" font-size="20" lengthAdjust="spacing" textLength="118" x="872.75" y="334.2998">validate user</text><polygon fill="#181818" points="1009.125,422.3997,1019.125,426.3997,1009.125,430.3997,1013.125,426.3997" style="stroke:#181818;stroke-width:1.0;"/><line style="stroke:#181818;stroke-width:1.0;" x1="845.125" x2="1015.125" y1="426.3997" y2="426.3997"/><text fill="#000000" font-family="sans-serif" font-size="20" font-weight="bold" lengthAdjust="spacing" textLength="11.625" x="852.125" y="418.5398">6</text><text fill="#000000" font-family="sans-serif" font-size="20" lengthAdjust="spacing" textLength="104" x="867.75" y="418.5398">create user</text><polygon fill="#181818" points="1195.125,463.6397,1205.125,467.6397,1195.125,471.6397,1199.125,467.6397" style="stroke:#181818;stroke-width:1.0;"/><line style="stroke:#181818;stroke-width:1.0;" x1="1031.125" x2="1201.125" y1="467.6397" y2="467.6397"/><text fill="#000000" font-family="sans-serif" font-size="20" font-weight="bold" lengthAdjust="spacing" textLength="11.625" x="1038.125" y="459.7797">7</text><text fill="#000000" font-family="sans-serif" font-size="20" lengthAdjust="spacing" textLength="111" x="1053.75" y="459.7797">post('/user')</text><polygon fill="#181818" points="1381.125,504.8797,1391.125,508.8797,1381.125,512.8797,1385.125,508.8797" style="stroke:#181818;stroke-width:1.0;"/><line style="stroke:#181818;stroke-width:1.0;" x1="1217.125" x2="1387.125" y1="508.8797" y2="508.8797"/><text fill="#000000" font-family="sans-serif" font-size="20" font-weight="bold" lengthAdjust="spacing" textLength="11.625" x="1224.125" y="501.0197">8</text><text fill="#000000" font-family="sans-serif" font-size="20" lengthAdjust="spacing" textLength="103" x="1239.75" y="501.0197">POST /user</text><polygon fill="#181818" points="1228.125,546.1197,1218.125,550.1197,1228.125,554.1197,1224.125,550.1197" style="stroke:#181818;stroke-width:1.0;"/><line style="stroke:#181818;stroke-width:1.0;stroke-dasharray:2.0,2.0;" x1="1222.125" x2="1397.125" y1="550.1197" y2="550.1197"/><text fill="#000000" font-family="sans-serif" font-size="20" font-weight="bold" lengthAdjust="spacing" textLength="11.625" x="1234.125" y="542.2597">9</text><text fill="#000000" font-family="sans-serif" font-size="20" lengthAdjust="spacing" textLength="123" x="1249.75" y="542.2597">201 (Created)</text><polygon fill="#181818" points="1042.125,587.3596,1032.125,591.3596,1042.125,595.3596,1038.125,591.3596" style="stroke:#181818;stroke-width:1.0;"/><line style="stroke:#181818;stroke-width:1.0;stroke-dasharray:2.0,2.0;" x1="1036.125" x2="1211.125" y1="591.3596" y2="591.3596"/><text fill="#000000" font-family="sans-serif" font-size="20" font-weight="bold" lengthAdjust="spacing" textLength="23.25" x="1048.125" y="583.4997">10</text><text fill="#000000" font-family="sans-serif" font-size="20" lengthAdjust="spacing" textLength="41" x="1075.375" y="583.4997">user</text><polygon fill="#181818" points="856.125,628.5996,846.125,632.5996,856.125,636.5996,852.125,632.5996" style="stroke:#181818;stroke-width:1.0;"/><line style="stroke:#181818;stroke-width:1.0;stroke-dasharray:2.0,2.0;" x1="850.125" x2="1025.125" y1="632.5996" y2="632.5996"/><text fill="#000000" font-family="sans-serif" font-size="20" font-weight="bold" lengthAdjust="spacing" textLength="23.25" x="862.125" y="624.7396">11</text><text fill="#000000" font-family="sans-serif" font-size="20" lengthAdjust="spacing" textLength="41" x="889.375" y="624.7396">user</text><polygon fill="#181818" points="670.125,669.8396,660.125,673.8396,670.125,677.8396,666.125,673.8396" style="stroke:#181818;stroke-width:1.0;"/><line style="stroke:#181818;stroke-width:1.0;stroke-dasharray:2.0,2.0;" x1="664.125" x2="839.125" y1="673.8396" y2="673.8396"/><text fill="#000000" font-family="sans-serif" font-size="20" font-weight="bold" lengthAdjust="spacing" textLength="23.25" x="676.125" y="665.9796">12</text><text fill="#000000" font-family="sans-serif" font-size="20" lengthAdjust="spacing" textLength="41" x="703.375" y="665.9796">user</text><polygon fill="#181818" points="83.5,711.0796,73.5,715.0796,83.5,719.0796,79.5,715.0796" style="stroke:#181818;stroke-width:1.0;"/><line style="stroke:#181818;stroke-width:1.0;stroke-dasharray:2.0,2.0;" x1="77.5" x2="653.125" y1="715.0796" y2="715.0796"/><text fill="#000000" font-family="sans-serif" font-size="20" font-weight="bold" lengthAdjust="spacing" textLength="23.25" x="89.5" y="707.2196">13</text><text fill="#000000" font-family="sans-serif" font-size="20" lengthAdjust="spacing" textLength="282" x="116.75" y="707.2196">returns confirmation message</text><!--SRC=[ZLDTQzj047o_Nx6u3ucX9cdean42OrDQg4YetK2WBnVTnZuitQdtuQJvzTqzHOfi9P0N8TtEpCtkhFnUcqOwMLUstAC2XGyoLk6RDM6jdn6kBeMCmPfOtwCJlaF3giLjy2aiAhqrDPgGPIKzqUKvj2z2o39O1ujL0TB3PA5gRRGFJjBfHDpR9vXacV_d0zPmlloQvt_ChVPHLlfP1ctDv5LI0D3DGPUwaIR0ihX9ahz_mDBMZJK4cm31km_McuvenVKgqGghOeKV8An_tIR26jr1bnzXVDziMclyyYOUZGBgNOm7CEK952ief95RhBkUNaRmwQVUxi8TLfLzFEthPS9ZxhkNKpJw80DoEa9mHBCyZNLEIdiFmKBfa04I33v2z1HeJo9WIyfcio6BKMSU6dJU6bc1aa5-1ctAAYfjjh3J7foja8uWx13QteN2iN9lXtOk1gBXtwWTxoXf7ZjX7C4vtNdd-jWlbGINUzI1baozZHkOuS-EnwlmZZgL19S9bUAVGsDzE3-xIEEO3eRDPI4IYArGctEukLvluEB41uN2rTchvDNb5menNQ-cHoOvm5QojvdK1fZstkIn7y4fXhj8lVQJFqMaSHodxZ14PpoKrZneLwVV5chqdfPm5ElmWDVkFm00]--></g></svg>