<?xml version="1.0" encoding="UTF-8" standalone="no"?><svg xmlns="http://www.w3.org/2000/svg" xmlns:xlink="http://www.w3.org/1999/xlink" contentStyleType="text/css" height="711px" preserveAspectRatio="none" style="width:1423px;height:711px;background:#FFFFFF;" version="1.1" viewBox="0 0 1423 711" width="1423px" zoomAndPan="magnify"><defs/><g><rect fill="#FFFFE0" height="699.3195" style="stroke:#181818;stroke-width:0.5;" width="164.375" x="1253.5" y="6"/><text fill="#000000" font-family="sans-serif" font-size="20" font-weight="bold" lengthAdjust="spacing" textLength="158.375" x="1256.5" y="27.38">«container (C4)»</text><text fill="#000000" font-family="sans-serif" font-size="20" font-weight="bold" lengthAdjust="spacing" textLength="86" x="1256.5" y="54.62">Planning</text><rect fill="#FFFFFF" height="437.6397" style="stroke:#181818;stroke-width:1.0;" width="10" x="268.625" y="177.1999"/><rect fill="#FFFFFF" height="355.1598" style="stroke:#181818;stroke-width:1.0;" width="10" x="488.25" y="218.4398"/><rect fill="#FFFFFF" height="272.6798" style="stroke:#181818;stroke-width:1.0;" width="10" x="707.875" y="259.6798"/><rect fill="#FFFFFF" height="41.24" style="stroke:#181818;stroke-width:1.0;" width="10" x="992.875" y="431.8797"/><rect fill="#FFFFFF" height="41.24" style="stroke:#181818;stroke-width:1.0;" width="10" x="1330.6875" y="300.9198"/><rect fill="none" height="134.9599" style="stroke:#000000;stroke-width:1.5;" width="597.125" x="660.375" y="357.1598"/><line style="stroke:#181818;stroke-width:0.5;stroke-dasharray:5.0,5.0;" x1="273.125" x2="273.125" y1="133.9599" y2="632.8396"/><line style="stroke:#181818;stroke-width:0.5;stroke-dasharray:5.0,5.0;" x1="493.25" x2="493.25" y1="133.9599" y2="632.8396"/><line style="stroke:#181818;stroke-width:0.5;stroke-dasharray:5.0,5.0;" x1="712.375" x2="712.375" y1="133.9599" y2="632.8396"/><line style="stroke:#181818;stroke-width:0.5;stroke-dasharray:5.0,5.0;" x1="815.375" x2="815.375" y1="133.9599" y2="632.8396"/><line style="stroke:#181818;stroke-width:0.5;stroke-dasharray:5.0,5.0;" x1="909.375" x2="909.375" y1="133.9599" y2="632.8396"/><line style="stroke:#181818;stroke-width:0.5;stroke-dasharray:5.0,5.0;" x1="997.375" x2="997.375" y1="133.9599" y2="632.8396"/><line style="stroke:#181818;stroke-width:0.5;stroke-dasharray:5.0,5.0;" x1="1179.5" x2="1179.5" y1="475.9997" y2="632.8396"/><line style="stroke:#181818;stroke-width:0.5;stroke-dasharray:5.0,5.0;" x1="1335.6875" x2="1335.6875" y1="133.9599" y2="632.8396"/><rect fill="#E2E2F0" height="41.24" rx="2.5" ry="2.5" style="stroke:#181818;stroke-width:0.5;" width="73" x="237.125" y="91.7199"/><text fill="#000000" font-family="sans-serif" font-size="20" lengthAdjust="spacing" textLength="59" x="244.125" y="120.0999">:Route</text><rect fill="#E2E2F0" height="41.24" rx="2.5" ry="2.5" style="stroke:#181818;stroke-width:0.5;" width="73" x="237.125" y="631.8396"/><text fill="#000000" font-family="sans-serif" font-size="20" lengthAdjust="spacing" textLength="59" x="244.125" y="660.2196">:Route</text><rect fill="#E2E2F0" height="41.24" rx="2.5" ry="2.5" style="stroke:#181818;stroke-width:0.5;" width="112" x="437.25" y="91.7199"/><text fill="#000000" font-family="sans-serif" font-size="20" lengthAdjust="spacing" textLength="98" x="444.25" y="120.0999">:Controller</text><rect fill="#E2E2F0" height="41.24" rx="2.5" ry="2.5" style="stroke:#181818;stroke-width:0.5;" width="112" x="437.25" y="631.8396"/><text fill="#000000" font-family="sans-serif" font-size="20" lengthAdjust="spacing" textLength="98" x="444.25" y="660.2196">:Controller</text><rect fill="#E2E2F0" height="41.24" rx="2.5" ry="2.5" style="stroke:#181818;stroke-width:0.5;" width="85" x="670.375" y="91.7199"/><text fill="#000000" font-family="sans-serif" font-size="20" lengthAdjust="spacing" textLength="71" x="677.375" y="120.0999">:Service</text><rect fill="#E2E2F0" height="41.24" rx="2.5" ry="2.5" style="stroke:#181818;stroke-width:0.5;" width="85" x="670.375" y="631.8396"/><text fill="#000000" font-family="sans-serif" font-size="20" lengthAdjust="spacing" textLength="71" x="677.375" y="660.2196">:Service</text><rect fill="#E2E2F0" height="41.24" rx="2.5" ry="2.5" style="stroke:#181818;stroke-width:0.5;" width="101" x="765.375" y="91.7199"/><text fill="#000000" font-family="sans-serif" font-size="20" lengthAdjust="spacing" textLength="87" x="772.375" y="120.0999">task:Task</text><rect fill="#E2E2F0" height="41.24" rx="2.5" ry="2.5" style="stroke:#181818;stroke-width:0.5;" width="101" x="765.375" y="631.8396"/><text fill="#000000" font-family="sans-serif" font-size="20" lengthAdjust="spacing" textLength="87" x="772.375" y="660.2196">task:Task</text><rect fill="#E2E2F0" height="41.24" rx="2.5" ry="2.5" style="stroke:#181818;stroke-width:0.5;" width="66" x="876.375" y="91.7199"/><text fill="#000000" font-family="sans-serif" font-size="20" lengthAdjust="spacing" textLength="52" x="883.375" y="120.0999">:Repo</text><rect fill="#E2E2F0" height="41.24" rx="2.5" ry="2.5" style="stroke:#181818;stroke-width:0.5;" width="66" x="876.375" y="631.8396"/><text fill="#000000" font-family="sans-serif" font-size="20" lengthAdjust="spacing" textLength="52" x="883.375" y="660.2196">:Repo</text><rect fill="#E2E2F0" height="41.24" rx="2.5" ry="2.5" style="stroke:#181818;stroke-width:0.5;" width="91" x="952.375" y="91.7199"/><text fill="#000000" font-family="sans-serif" font-size="20" lengthAdjust="spacing" textLength="77" x="959.375" y="120.0999">:Mapper</text><rect fill="#E2E2F0" height="41.24" rx="2.5" ry="2.5" style="stroke:#181818;stroke-width:0.5;" width="91" x="952.375" y="631.8396"/><text fill="#000000" font-family="sans-serif" font-size="20" lengthAdjust="spacing" textLength="77" x="959.375" y="660.2196">:Mapper</text><rect fill="#E2E2F0" height="41.24" rx="2.5" ry="2.5" style="stroke:#181818;stroke-width:0.5;" width="135" x="1112.5" y="631.8396"/><text fill="#000000" font-family="sans-serif" font-size="20" lengthAdjust="spacing" textLength="121" x="1119.5" y="660.2196">dto:TaskDTO</text><rect fill="#E2E2F0" height="68.4799" rx="2.5" ry="2.5" style="stroke:#181818;stroke-width:0.5;" width="136" x="1267.6875" y="64.4799"/><text fill="#000000" font-family="sans-serif" font-size="20" font-style="italic" lengthAdjust="spacing" textLength="122" x="1274.6875" y="92.8599">«component»</text><text fill="#000000" font-family="sans-serif" font-size="20" lengthAdjust="spacing" textLength="81" x="1295.1875" y="120.0999">Planning</text><rect fill="#E2E2F0" height="68.4799" rx="2.5" ry="2.5" style="stroke:#181818;stroke-width:0.5;" width="136" x="1267.6875" y="631.8396"/><text fill="#000000" font-family="sans-serif" font-size="20" font-style="italic" lengthAdjust="spacing" textLength="122" x="1274.6875" y="660.2196">«component»</text><text fill="#000000" font-family="sans-serif" font-size="20" lengthAdjust="spacing" textLength="81" x="1295.1875" y="687.4596">Planning</text><rect fill="#FFFFFF" height="437.6397" style="stroke:#181818;stroke-width:1.0;" width="10" x="268.625" y="177.1999"/><rect fill="#FFFFFF" height="355.1598" style="stroke:#181818;stroke-width:1.0;" width="10" x="488.25" y="218.4398"/><rect fill="#FFFFFF" height="272.6798" style="stroke:#181818;stroke-width:1.0;" width="10" x="707.875" y="259.6798"/><rect fill="#FFFFFF" height="41.24" style="stroke:#181818;stroke-width:1.0;" width="10" x="992.875" y="431.8797"/><rect fill="#FFFFFF" height="41.24" style="stroke:#181818;stroke-width:1.0;" width="10" x="1330.6875" y="300.9198"/><ellipse cx="4.5" cy="176.4499" fill="none" rx="4" ry="4" style="stroke:#181818;stroke-width:1.5;"/><polygon fill="#181818" points="256.625,173.1999,266.625,177.1999,256.625,181.1999,260.625,177.1999" style="stroke:#181818;stroke-width:1.0;"/><line style="stroke:#181818;stroke-width:1.0;" x1="9" x2="262.625" y1="177.1999" y2="177.1999"/><text fill="#000000" font-family="sans-serif" font-size="20" font-weight="bold" lengthAdjust="spacing" textLength="11.625" x="12" y="169.3399">1</text><text fill="#000000" font-family="sans-serif" font-size="20" lengthAdjust="spacing" textLength="226" x="27.625" y="169.3399">GET /requests/sequence</text><polygon fill="#181818" points="476.25,214.4398,486.25,218.4398,476.25,222.4398,480.25,218.4398" style="stroke:#181818;stroke-width:1.0;"/><line style="stroke:#181818;stroke-width:1.0;" x1="278.625" x2="482.25" y1="218.4398" y2="218.4398"/><text fill="#000000" font-family="sans-serif" font-size="20" font-weight="bold" lengthAdjust="spacing" textLength="11.625" x="285.625" y="210.5799">2</text><text fill="#000000" font-family="sans-serif" font-size="20" lengthAdjust="spacing" textLength="175" x="301.25" y="210.5799">getTaskSequence()</text><polygon fill="#181818" points="695.875,255.6798,705.875,259.6798,695.875,263.6798,699.875,259.6798" style="stroke:#181818;stroke-width:1.0;"/><line style="stroke:#181818;stroke-width:1.0;" x1="498.25" x2="701.875" y1="259.6798" y2="259.6798"/><text fill="#000000" font-family="sans-serif" font-size="20" font-weight="bold" lengthAdjust="spacing" textLength="11.625" x="505.25" y="251.8198">3</text><text fill="#000000" font-family="sans-serif" font-size="20" lengthAdjust="spacing" textLength="175" x="520.875" y="251.8198">getTaskSequence()</text><polygon fill="#181818" points="1318.6875,296.9198,1328.6875,300.9198,1318.6875,304.9198,1322.6875,300.9198" style="stroke:#181818;stroke-width:1.0;"/><line style="stroke:#181818;stroke-width:1.0;" x1="717.875" x2="1324.6875" y1="300.9198" y2="300.9198"/><text fill="#000000" font-family="sans-serif" font-size="20" font-weight="bold" lengthAdjust="spacing" textLength="11.625" x="724.875" y="293.0598">4</text><text fill="#000000" font-family="sans-serif" font-size="20" lengthAdjust="spacing" textLength="138" x="740.5" y="293.0598">GET /sequence</text><polygon fill="#181818" points="728.875,338.1598,718.875,342.1598,728.875,346.1598,724.875,342.1598" style="stroke:#181818;stroke-width:1.0;"/><line style="stroke:#181818;stroke-width:1.0;stroke-dasharray:2.0,2.0;" x1="722.875" x2="1334.6875" y1="342.1598" y2="342.1598"/><text fill="#000000" font-family="sans-serif" font-size="20" font-weight="bold" lengthAdjust="spacing" textLength="11.625" x="734.875" y="334.2998">5</text><text fill="#000000" font-family="sans-serif" font-size="20" lengthAdjust="spacing" textLength="89" x="750.5" y="334.2998">sequence</text><path d="M660.375,357.1598 L748.875,357.1598 L748.875,376.3997 L738.875,386.3997 L660.375,386.3997 L660.375,357.1598 " fill="#EEEEEE" style="stroke:#000000;stroke-width:1.5;"/><rect fill="none" height="134.9599" style="stroke:#000000;stroke-width:1.5;" width="597.125" x="660.375" y="357.1598"/><text fill="#000000" font-family="sans-serif" font-size="20" font-weight="bold" lengthAdjust="spacing" textLength="43.5" x="675.375" y="379.5398">loop</text><text fill="#000000" font-family="sans-serif" font-size="20" font-weight="bold" lengthAdjust="spacing" textLength="137.125" x="763.875" y="380.5398">[foreach task]</text><polygon fill="#181818" points="980.875,427.8797,990.875,431.8797,980.875,435.8797,984.875,431.8797" style="stroke:#181818;stroke-width:1.0;"/><line style="stroke:#181818;stroke-width:1.0;" x1="717.875" x2="986.875" y1="431.8797" y2="431.8797"/><text fill="#000000" font-family="sans-serif" font-size="20" font-weight="bold" lengthAdjust="spacing" textLength="11.625" x="724.875" y="424.0197">6</text><text fill="#000000" font-family="sans-serif" font-size="20" lengthAdjust="spacing" textLength="104" x="740.5" y="424.0197">toDto(task)</text><polygon fill="#181818" points="1100.5,469.1197,1110.5,473.1197,1100.5,477.1197,1104.5,473.1197" style="stroke:#181818;stroke-width:1.0;"/><line style="stroke:#181818;stroke-width:1.0;" x1="997.875" x2="1106.5" y1="473.1197" y2="473.1197"/><text fill="#000000" font-family="sans-serif" font-size="20" font-weight="bold" lengthAdjust="spacing" textLength="11.625" x="1004.875" y="465.2597">7</text><text fill="#000000" font-family="sans-serif" font-size="20" lengthAdjust="spacing" textLength="70" x="1020.5" y="465.2597">create()</text><rect fill="#E2E2F0" height="41.24" rx="2.5" ry="2.5" style="stroke:#181818;stroke-width:0.5;" width="135" x="1112.5" y="439.8797"/><text fill="#000000" font-family="sans-serif" font-size="20" lengthAdjust="spacing" textLength="121" x="1119.5" y="468.2597">dto:TaskDTO</text><polygon fill="#181818" points="509.25,528.3596,499.25,532.3596,509.25,536.3596,505.25,532.3596" style="stroke:#181818;stroke-width:1.0;"/><line style="stroke:#181818;stroke-width:1.0;stroke-dasharray:2.0,2.0;" x1="503.25" x2="711.875" y1="532.3596" y2="532.3596"/><text fill="#000000" font-family="sans-serif" font-size="20" font-weight="bold" lengthAdjust="spacing" textLength="11.625" x="515.25" y="524.4997">8</text><text fill="#000000" font-family="sans-serif" font-size="20" lengthAdjust="spacing" textLength="124" x="530.875" y="524.4997">sucess(tasks)</text><polygon fill="#181818" points="289.625,569.5996,279.625,573.5996,289.625,577.5996,285.625,573.5996" style="stroke:#181818;stroke-width:1.0;"/><line style="stroke:#181818;stroke-width:1.0;stroke-dasharray:2.0,2.0;" x1="283.625" x2="492.25" y1="573.5996" y2="573.5996"/><text fill="#000000" font-family="sans-serif" font-size="20" font-weight="bold" lengthAdjust="spacing" textLength="11.625" x="295.625" y="565.7396">9</text><text fill="#000000" font-family="sans-serif" font-size="20" lengthAdjust="spacing" textLength="124" x="311.25" y="565.7396">sucess(tasks)</text><polygon fill="#181818" points="11,610.8396,1,614.8396,11,618.8396,7,614.8396" style="stroke:#181818;stroke-width:1.0;"/><line style="stroke:#181818;stroke-width:1.0;stroke-dasharray:2.0,2.0;" x1="5" x2="272.625" y1="614.8396" y2="614.8396"/><text fill="#000000" font-family="sans-serif" font-size="20" font-weight="bold" lengthAdjust="spacing" textLength="23.25" x="17" y="606.9796">10</text><text fill="#000000" font-family="sans-serif" font-size="20" lengthAdjust="spacing" textLength="66" x="44.25" y="606.9796">200 OK</text><!--SRC=[VP51Qzj048Nl-oi6vM87J4peIHY5rdPAgOE5h0GAlMoaYRDOtb5tHsdfh- -ird6abFOYjFk-cNdxnX-CRRNJnuQg0zPGuvFk6huboplp6-5whdJ7PBlZ8peb99lAjDeo5DlxSWtQGv8Mr34c8tLP5fieBgMLewP1DoPsnKC4TkXUJFMk_jFzbysgrrdxGrhAPmmKwtnxceujZRMxZtcKxdJRlf-xAcDTpTItbNEYr2FzWcIngCIiDXOTJ9OVfbdstUQDjjROVGAYecLqMNQnCVjd_ePDGpyLmB1x73mgecDBLYgpJA6jGIOfTKEpx9HW2f_N9Lmv_D6XPt_bmu-jKEcApOjcZ9nI4PUwFjiKziZ1_-x4JwPl5O5GFIPu2Fg_j00gGBCiVtNpjucyHnQpMM3ESeq3e25guOcSt3r3M9ja4_ls6qc1QSKq2SfKf7EbY78CY92oZijBOIjfmy4cm618G2N4QFSj2jzLw7tVsK-7fiBJOWw3lFz9zx794y_azNmEswz39ExY3m00]--></g></svg>