<?xml version="1.0" encoding="UTF-8" standalone="no"?><svg xmlns="http://www.w3.org/2000/svg" xmlns:xlink="http://www.w3.org/1999/xlink" contentStyleType="text/css" height="829px" preserveAspectRatio="none" style="width:1718px;height:829px;background:#FFFFFF;" version="1.1" viewBox="0 0 1718 829" width="1718px" zoomAndPan="magnify"><defs/><g><rect fill="#DDDDDD" height="817.3195" style="stroke:#181818;stroke-width:0.5;" width="939.875" x="586.125" y="6"/><text fill="#000000" font-family="sans-serif" font-size="20" font-weight="bold" lengthAdjust="spacing" textLength="128.875" x="991.625" y="27.38">«system (C4»</text><text fill="#000000" font-family="sans-serif" font-size="20" font-weight="bold" lengthAdjust="spacing" textLength="124.125" x="994" y="54.62">Visualization</text><rect fill="#FFFFE0" height="817.3195" style="stroke:#181818;stroke-width:0.5;" width="184" x="1528" y="6"/><text fill="#000000" font-family="sans-serif" font-size="20" font-weight="bold" lengthAdjust="spacing" textLength="135.5" x="1552.25" y="27.38">«system (C4)»</text><text fill="#000000" font-family="sans-serif" font-size="20" font-weight="bold" lengthAdjust="spacing" textLength="169.5" x="1535.25" y="54.62">MD Management</text><rect fill="#FFFFFF" height="571.1197" style="stroke:#181818;stroke-width:1.0;" width="10" x="85.5" y="143.9599"/><rect fill="#FFFFFF" height="41.24" style="stroke:#181818;stroke-width:1.0;" width="10" x="673.125" y="177.1999"/><rect fill="#FFFFFF" height="455.3997" style="stroke:#181818;stroke-width:1.0;" width="10" x="673.125" y="259.6798"/><rect fill="#FFFFFF" height="372.9198" style="stroke:#181818;stroke-width:1.0;" width="10" x="888.75" y="300.9198"/><rect fill="#FFFFFF" height="28" style="stroke:#181818;stroke-width:1.0;" width="10" x="893.75" y="350.1598"/><rect fill="#FFFFFF" height="206.1999" style="stroke:#181818;stroke-width:1.0;" width="10" x="1104.375" y="426.3997"/><rect fill="#FFFFFF" height="123.7199" style="stroke:#181818;stroke-width:1.0;" width="10" x="1429" y="467.6397"/><rect fill="#FFFFFF" height="41.24" style="stroke:#181818;stroke-width:1.0;" width="10" x="1615" y="508.8797"/><line style="stroke:#181818;stroke-width:0.5;stroke-dasharray:5.0,5.0;" x1="90" x2="90" y1="133.9599" y2="733.0796"/><line style="stroke:#181818;stroke-width:0.5;stroke-dasharray:5.0,5.0;" x1="678.125" x2="678.125" y1="133.9599" y2="733.0796"/><line style="stroke:#181818;stroke-width:0.5;stroke-dasharray:5.0,5.0;" x1="893.75" x2="893.75" y1="133.9599" y2="733.0796"/><line style="stroke:#181818;stroke-width:0.5;stroke-dasharray:5.0,5.0;" x1="1109.375" x2="1109.375" y1="133.9599" y2="733.0796"/><line style="stroke:#181818;stroke-width:0.5;stroke-dasharray:5.0,5.0;" x1="1434" x2="1434" y1="133.9599" y2="733.0796"/><line style="stroke:#181818;stroke-width:0.5;stroke-dasharray:5.0,5.0;" x1="1620" x2="1620" y1="133.9599" y2="733.0796"/><text fill="#000000" font-family="sans-serif" font-size="20" lengthAdjust="spacing" textLength="165" x="5" y="128.0999">Campus Manager</text><ellipse cx="90.5" cy="55.2199" fill="#E2E2F0" rx="8" ry="8" style="stroke:#181818;stroke-width:0.5;"/><path d="M90.5,63.2199 L90.5,90.2199 M77.5,71.2199 L103.5,71.2199 M90.5,90.2199 L77.5,105.2199 M90.5,90.2199 L103.5,105.2199 " fill="none" style="stroke:#181818;stroke-width:0.5;"/><text fill="#000000" font-family="sans-serif" font-size="20" lengthAdjust="spacing" textLength="165" x="5" y="753.4596">Campus Manager</text><ellipse cx="90.5" cy="767.8195" fill="#E2E2F0" rx="8" ry="8" style="stroke:#181818;stroke-width:0.5;"/><path d="M90.5,775.8195 L90.5,802.8195 M77.5,783.8195 L103.5,783.8195 M90.5,802.8195 L77.5,817.8195 M90.5,802.8195 L103.5,817.8195 " fill="none" style="stroke:#181818;stroke-width:0.5;"/><rect fill="#E2E2F0" height="68.4799" rx="2.5" ry="2.5" style="stroke:#181818;stroke-width:0.5;" width="176" x="590.125" y="64.4799"/><text fill="#000000" font-family="sans-serif" font-size="20" font-style="italic" lengthAdjust="spacing" textLength="162" x="597.125" y="92.8599">«component (C4)»</text><text fill="#000000" font-family="sans-serif" font-size="20" lengthAdjust="spacing" textLength="137" x="609.625" y="120.0999">UI Component</text><rect fill="#E2E2F0" height="68.4799" rx="2.5" ry="2.5" style="stroke:#181818;stroke-width:0.5;" width="176" x="590.125" y="732.0796"/><text fill="#000000" font-family="sans-serif" font-size="20" font-style="italic" lengthAdjust="spacing" textLength="162" x="597.125" y="760.4596">«component (C4)»</text><text fill="#000000" font-family="sans-serif" font-size="20" lengthAdjust="spacing" textLength="137" x="609.625" y="787.6995">UI Component</text><rect fill="#E2E2F0" height="68.4799" rx="2.5" ry="2.5" style="stroke:#181818;stroke-width:0.5;" width="176" x="805.75" y="64.4799"/><text fill="#000000" font-family="sans-serif" font-size="20" font-style="italic" lengthAdjust="spacing" textLength="162" x="812.75" y="92.8599">«component (C4)»</text><text fill="#000000" font-family="sans-serif" font-size="20" lengthAdjust="spacing" textLength="70" x="858.75" y="120.0999">Module</text><rect fill="#E2E2F0" height="68.4799" rx="2.5" ry="2.5" style="stroke:#181818;stroke-width:0.5;" width="176" x="805.75" y="732.0796"/><text fill="#000000" font-family="sans-serif" font-size="20" font-style="italic" lengthAdjust="spacing" textLength="162" x="812.75" y="760.4596">«component (C4)»</text><text fill="#000000" font-family="sans-serif" font-size="20" lengthAdjust="spacing" textLength="70" x="858.75" y="787.6995">Module</text><rect fill="#E2E2F0" height="68.4799" rx="2.5" ry="2.5" style="stroke:#181818;stroke-width:0.5;" width="176" x="1021.375" y="64.4799"/><text fill="#000000" font-family="sans-serif" font-size="20" font-style="italic" lengthAdjust="spacing" textLength="162" x="1028.375" y="92.8599">«component (C4)»</text><text fill="#000000" font-family="sans-serif" font-size="20" lengthAdjust="spacing" textLength="66" x="1076.375" y="120.0999">Service</text><rect fill="#E2E2F0" height="68.4799" rx="2.5" ry="2.5" style="stroke:#181818;stroke-width:0.5;" width="176" x="1021.375" y="732.0796"/><text fill="#000000" font-family="sans-serif" font-size="20" font-style="italic" lengthAdjust="spacing" textLength="162" x="1028.375" y="760.4596">«component (C4)»</text><text fill="#000000" font-family="sans-serif" font-size="20" lengthAdjust="spacing" textLength="66" x="1076.375" y="787.6995">Service</text><rect fill="#E2E2F0" height="68.4799" rx="2.5" ry="2.5" style="stroke:#181818;stroke-width:0.5;" width="176" x="1346" y="64.4799"/><text fill="#000000" font-family="sans-serif" font-size="20" font-style="italic" lengthAdjust="spacing" textLength="162" x="1353" y="92.8599">«component (C4)»</text><text fill="#000000" font-family="sans-serif" font-size="20" lengthAdjust="spacing" textLength="49" x="1409.5" y="120.0999">HTTP</text><rect fill="#E2E2F0" height="68.4799" rx="2.5" ry="2.5" style="stroke:#181818;stroke-width:0.5;" width="176" x="1346" y="732.0796"/><text fill="#000000" font-family="sans-serif" font-size="20" font-style="italic" lengthAdjust="spacing" textLength="162" x="1353" y="760.4596">«component (C4)»</text><text fill="#000000" font-family="sans-serif" font-size="20" lengthAdjust="spacing" textLength="49" x="1409.5" y="787.6995">HTTP</text><rect fill="#E2E2F0" height="68.4799" rx="2.5" ry="2.5" style="stroke:#181818;stroke-width:0.5;" width="176" x="1532" y="64.4799"/><text fill="#000000" font-family="sans-serif" font-size="20" font-style="italic" lengthAdjust="spacing" textLength="162" x="1539" y="92.8599">«component (C4)»</text><text fill="#000000" font-family="sans-serif" font-size="20" lengthAdjust="spacing" textLength="162" x="1539" y="120.0999">MD Management</text><rect fill="#E2E2F0" height="68.4799" rx="2.5" ry="2.5" style="stroke:#181818;stroke-width:0.5;" width="176" x="1532" y="732.0796"/><text fill="#000000" font-family="sans-serif" font-size="20" font-style="italic" lengthAdjust="spacing" textLength="162" x="1539" y="760.4596">«component (C4)»</text><text fill="#000000" font-family="sans-serif" font-size="20" lengthAdjust="spacing" textLength="162" x="1539" y="787.6995">MD Management</text><rect fill="#FFFFFF" height="571.1197" style="stroke:#181818;stroke-width:1.0;" width="10" x="85.5" y="143.9599"/><rect fill="#FFFFFF" height="41.24" style="stroke:#181818;stroke-width:1.0;" width="10" x="673.125" y="177.1999"/><rect fill="#FFFFFF" height="455.3997" style="stroke:#181818;stroke-width:1.0;" width="10" x="673.125" y="259.6798"/><rect fill="#FFFFFF" height="372.9198" style="stroke:#181818;stroke-width:1.0;" width="10" x="888.75" y="300.9198"/><rect fill="#FFFFFF" height="28" style="stroke:#181818;stroke-width:1.0;" width="10" x="893.75" y="350.1598"/><rect fill="#FFFFFF" height="206.1999" style="stroke:#181818;stroke-width:1.0;" width="10" x="1104.375" y="426.3997"/><rect fill="#FFFFFF" height="123.7199" style="stroke:#181818;stroke-width:1.0;" width="10" x="1429" y="467.6397"/><rect fill="#FFFFFF" height="41.24" style="stroke:#181818;stroke-width:1.0;" width="10" x="1615" y="508.8797"/><polygon fill="#181818" points="661.125,173.1999,671.125,177.1999,661.125,181.1999,665.125,177.1999" style="stroke:#181818;stroke-width:1.0;"/><line style="stroke:#181818;stroke-width:1.0;" x1="95.5" x2="667.125" y1="177.1999" y2="177.1999"/><text fill="#000000" font-family="sans-serif" font-size="20" font-weight="bold" lengthAdjust="spacing" textLength="11.625" x="102.5" y="169.3399">1</text><text fill="#000000" font-family="sans-serif" font-size="20" lengthAdjust="spacing" textLength="202" x="118.125" y="169.3399">asks to edit a building</text><polygon fill="#181818" points="106.5,214.4398,96.5,218.4398,106.5,222.4398,102.5,218.4398" style="stroke:#181818;stroke-width:1.0;"/><line style="stroke:#181818;stroke-width:1.0;stroke-dasharray:2.0,2.0;" x1="100.5" x2="677.125" y1="218.4398" y2="218.4398"/><text fill="#000000" font-family="sans-serif" font-size="20" font-weight="bold" lengthAdjust="spacing" textLength="11.625" x="112.5" y="210.5799">2</text><text fill="#000000" font-family="sans-serif" font-size="20" lengthAdjust="spacing" textLength="538" x="128.125" y="210.5799">asks for building data (name,description,max dimensions)</text><polygon fill="#181818" points="661.125,255.6798,671.125,259.6798,661.125,263.6798,665.125,259.6798" style="stroke:#181818;stroke-width:1.0;"/><line style="stroke:#181818;stroke-width:1.0;" x1="95.5" x2="667.125" y1="259.6798" y2="259.6798"/><text fill="#000000" font-family="sans-serif" font-size="20" font-weight="bold" lengthAdjust="spacing" textLength="11.625" x="102.5" y="251.8198">3</text><text fill="#000000" font-family="sans-serif" font-size="20" lengthAdjust="spacing" textLength="188" x="118.125" y="251.8198">inputs required data</text><polygon fill="#181818" points="876.75,296.9198,886.75,300.9198,876.75,304.9198,880.75,300.9198" style="stroke:#181818;stroke-width:1.0;"/><line style="stroke:#181818;stroke-width:1.0;" x1="683.125" x2="882.75" y1="300.9198" y2="300.9198"/><text fill="#000000" font-family="sans-serif" font-size="20" font-weight="bold" lengthAdjust="spacing" textLength="11.625" x="690.125" y="293.0598">4</text><text fill="#000000" font-family="sans-serif" font-size="20" lengthAdjust="spacing" textLength="171" x="705.75" y="293.0598">updates a building</text><line style="stroke:#181818;stroke-width:1.0;" x1="903.75" x2="945.75" y1="342.1598" y2="342.1598"/><line style="stroke:#181818;stroke-width:1.0;" x1="945.75" x2="945.75" y1="342.1598" y2="355.1598"/><line style="stroke:#181818;stroke-width:1.0;" x1="904.75" x2="945.75" y1="355.1598" y2="355.1598"/><polygon fill="#181818" points="914.75,351.1598,904.75,355.1598,914.75,359.1598,910.75,355.1598" style="stroke:#181818;stroke-width:1.0;"/><text fill="#000000" font-family="sans-serif" font-size="20" font-weight="bold" lengthAdjust="spacing" textLength="11.625" x="910.75" y="334.2998">5</text><text fill="#000000" font-family="sans-serif" font-size="20" lengthAdjust="spacing" textLength="128" x="926.375" y="334.2998">validates data</text><polygon fill="#181818" points="1092.375,422.3997,1102.375,426.3997,1092.375,430.3997,1096.375,426.3997" style="stroke:#181818;stroke-width:1.0;"/><line style="stroke:#181818;stroke-width:1.0;" x1="898.75" x2="1098.375" y1="426.3997" y2="426.3997"/><text fill="#000000" font-family="sans-serif" font-size="20" font-weight="bold" lengthAdjust="spacing" textLength="11.625" x="905.75" y="418.5398">6</text><text fill="#000000" font-family="sans-serif" font-size="20" lengthAdjust="spacing" textLength="171" x="921.375" y="418.5398">updates a building</text><polygon fill="#181818" points="1417,463.6397,1427,467.6397,1417,471.6397,1421,467.6397" style="stroke:#181818;stroke-width:1.0;"/><line style="stroke:#181818;stroke-width:1.0;" x1="1114.375" x2="1423" y1="467.6397" y2="467.6397"/><text fill="#000000" font-family="sans-serif" font-size="20" font-weight="bold" lengthAdjust="spacing" textLength="11.625" x="1121.375" y="459.7797">7</text><text fill="#000000" font-family="sans-serif" font-size="20" lengthAdjust="spacing" textLength="280" x="1137" y="459.7797">put('/buildings/:buildingCode')</text><polygon fill="#181818" points="1603,504.8797,1613,508.8797,1603,512.8797,1607,508.8797" style="stroke:#181818;stroke-width:1.0;"/><line style="stroke:#181818;stroke-width:1.0;" x1="1439" x2="1609" y1="508.8797" y2="508.8797"/><text fill="#000000" font-family="sans-serif" font-size="20" font-weight="bold" lengthAdjust="spacing" textLength="11.625" x="1446" y="501.0197">8</text><text fill="#000000" font-family="sans-serif" font-size="20" lengthAdjust="spacing" textLength="128" x="1461.625" y="501.0197">put /buildings</text><polygon fill="#181818" points="1450,546.1197,1440,550.1197,1450,554.1197,1446,550.1197" style="stroke:#181818;stroke-width:1.0;"/><line style="stroke:#181818;stroke-width:1.0;stroke-dasharray:2.0,2.0;" x1="1444" x2="1619" y1="550.1197" y2="550.1197"/><text fill="#000000" font-family="sans-serif" font-size="20" font-weight="bold" lengthAdjust="spacing" textLength="11.625" x="1456" y="542.2597">9</text><text fill="#000000" font-family="sans-serif" font-size="20" lengthAdjust="spacing" textLength="78" x="1471.625" y="542.2597">200 (OK)</text><polygon fill="#181818" points="1125.375,587.3596,1115.375,591.3596,1125.375,595.3596,1121.375,591.3596" style="stroke:#181818;stroke-width:1.0;"/><line style="stroke:#181818;stroke-width:1.0;stroke-dasharray:2.0,2.0;" x1="1119.375" x2="1433" y1="591.3596" y2="591.3596"/><text fill="#000000" font-family="sans-serif" font-size="20" font-weight="bold" lengthAdjust="spacing" textLength="23.25" x="1131.375" y="583.4997">10</text><text fill="#000000" font-family="sans-serif" font-size="20" lengthAdjust="spacing" textLength="153" x="1158.625" y="583.4997">updatedBuilding</text><polygon fill="#181818" points="909.75,628.5996,899.75,632.5996,909.75,636.5996,905.75,632.5996" style="stroke:#181818;stroke-width:1.0;"/><line style="stroke:#181818;stroke-width:1.0;stroke-dasharray:2.0,2.0;" x1="903.75" x2="1108.375" y1="632.5996" y2="632.5996"/><text fill="#000000" font-family="sans-serif" font-size="20" font-weight="bold" lengthAdjust="spacing" textLength="23.25" x="915.75" y="624.7396">11</text><text fill="#000000" font-family="sans-serif" font-size="20" lengthAdjust="spacing" textLength="153" x="943" y="624.7396">updatedBuilding</text><polygon fill="#181818" points="694.125,669.8396,684.125,673.8396,694.125,677.8396,690.125,673.8396" style="stroke:#181818;stroke-width:1.0;"/><line style="stroke:#181818;stroke-width:1.0;stroke-dasharray:2.0,2.0;" x1="688.125" x2="892.75" y1="673.8396" y2="673.8396"/><text fill="#000000" font-family="sans-serif" font-size="20" font-weight="bold" lengthAdjust="spacing" textLength="23.25" x="700.125" y="665.9796">12</text><text fill="#000000" font-family="sans-serif" font-size="20" lengthAdjust="spacing" textLength="153" x="727.375" y="665.9796">updatedBuilding</text><polygon fill="#181818" points="101.5,711.0796,91.5,715.0796,101.5,719.0796,97.5,715.0796" style="stroke:#181818;stroke-width:1.0;"/><line style="stroke:#181818;stroke-width:1.0;stroke-dasharray:2.0,2.0;" x1="95.5" x2="677.125" y1="715.0796" y2="715.0796"/><text fill="#000000" font-family="sans-serif" font-size="20" font-weight="bold" lengthAdjust="spacing" textLength="23.25" x="107.5" y="707.2196">13</text><text fill="#000000" font-family="sans-serif" font-size="20" lengthAdjust="spacing" textLength="282" x="134.75" y="707.2196">returns confirmation message</text><!--SRC=[ZPDRYzim48NVzIi6zs4JsB1XwLC8XjQXjBHcboQxKEYBOarI4KjoTKdJ_VKToN7YNBhiYv7DTsQEpepTHkg6MwvgKsrGWC0L3xN_PBIVonU4-p7ZmHiTr18jSnqDivPRuCv_gELQAzH-EgteYJRFeJqmnYjlB1GbS0TPmLKJ79HSypNQZ2tD3hBfrFrr7XKCYlTv_bC_InTuBL-ubqPdnv8CW3fxMSc6Qqyb7rFDfozG6DKOJLW6X7SliTxmGbO-p9AiD2BK-0R1_Fjp4ipHRcNr5iNdnQAr5WzNUTG2wExiCe1XJA2SxIDItPts4Rpx9jU__0-iQ_Fd_5wpDk9BxN-RqsZabdkaA1cZ2Oto5Eg4wcmSU0Cef0SEoo1h8VMwBtXCYkber9UiQD8T389x3WFD5TuAT9MLJPpdhU8x49BCENfpGoRmekh11wrQy0ui_WxInjMaagSc8aTu7Ee4GaC0kgkEYM2HEi1RMh4MFwqQmPwddYukmkjDY62H8ZZjm0J8_-3chYFTtQGx5aRWpR0tWoXWBCcYHvfcKiDHtFCuAraaHiT6z-Cn31w-dkGPiNt5C_lYO-UzXxSEal-pIA_YyR8fcSEuNe5ZZASBOz47gnrKHg-aLUbd1uNEqUfUBCNf1_OF]--></g></svg>