<?xml version="1.0" encoding="UTF-8" standalone="no"?><svg xmlns="http://www.w3.org/2000/svg" xmlns:xlink="http://www.w3.org/1999/xlink" contentStyleType="text/css" height="758px" preserveAspectRatio="none" style="width:1880px;height:758px;background:#FFFFFF;" version="1.1" viewBox="0 0 1880 758" width="1880px" zoomAndPan="magnify"><defs/><g><rect fill="#DDDDDD" height="746.0625" style="stroke:#181818;stroke-width:0.5;" width="1036" x="627" y="6"/><text fill="#000000" font-family="sans-serif" font-size="20" font-weight="bold" lengthAdjust="spacing" textLength="153" x="1068.5" y="24.5645">«system (C4»</text><text fill="#000000" font-family="sans-serif" font-size="20" font-weight="bold" lengthAdjust="spacing" textLength="147" x="1071.5" y="47.8457">Visualization</text><rect fill="#FFFFE0" height="746.0625" style="stroke:#181818;stroke-width:0.5;" width="209" x="1665" y="6"/><text fill="#000000" font-family="sans-serif" font-size="20" font-weight="bold" lengthAdjust="spacing" textLength="162" x="1688.5" y="24.5645">«system (C4)»</text><text fill="#000000" font-family="sans-serif" font-size="20" font-weight="bold" lengthAdjust="spacing" textLength="193" x="1673" y="47.8457">MD Management</text><rect fill="#FFFFFF" height="519.6563" style="stroke:#181818;stroke-width:1.0;" width="10" x="90.5" y="128.125"/><rect fill="#FFFFFF" height="37.2813" style="stroke:#181818;stroke-width:1.0;" width="10" x="726.5" y="157.4063"/><rect fill="#FFFFFF" height="415.8125" style="stroke:#181818;stroke-width:1.0;" width="10" x="726.5" y="231.9688"/><rect fill="#FFFFFF" height="341.25" style="stroke:#181818;stroke-width:1.0;" width="10" x="961.5" y="269.25"/><rect fill="#FFFFFF" height="28" style="stroke:#181818;stroke-width:1.0;" width="10" x="966.5" y="314.5313"/><rect fill="#FFFFFF" height="186.4063" style="stroke:#181818;stroke-width:1.0;" width="10" x="1196.5" y="386.8125"/><rect fill="#FFFFFF" height="111.8438" style="stroke:#181818;stroke-width:1.0;" width="10" x="1553.5" y="424.0938"/><rect fill="#FFFFFF" height="37.2813" style="stroke:#181818;stroke-width:1.0;" width="10" x="1764.5" y="461.375"/><line style="stroke:#181818;stroke-width:0.5;stroke-dasharray:5.0,5.0;" x1="95" x2="95" y1="118.125" y2="665.7813"/><line style="stroke:#181818;stroke-width:0.5;stroke-dasharray:5.0,5.0;" x1="731" x2="731" y1="118.125" y2="665.7813"/><line style="stroke:#181818;stroke-width:0.5;stroke-dasharray:5.0,5.0;" x1="966" x2="966" y1="118.125" y2="665.7813"/><line style="stroke:#181818;stroke-width:0.5;stroke-dasharray:5.0,5.0;" x1="1201" x2="1201" y1="118.125" y2="665.7813"/><line style="stroke:#181818;stroke-width:0.5;stroke-dasharray:5.0,5.0;" x1="1558" x2="1558" y1="118.125" y2="665.7813"/><line style="stroke:#181818;stroke-width:0.5;stroke-dasharray:5.0,5.0;" x1="1769" x2="1769" y1="118.125" y2="665.7813"/><text fill="#000000" font-family="sans-serif" font-size="20" lengthAdjust="spacing" textLength="175" x="5" y="113.4082">Campus Manager</text><ellipse cx="95.5" cy="43.3438" fill="#E2E2F0" rx="8" ry="8" style="stroke:#181818;stroke-width:0.5;"/><path d="M95.5,51.3438 L95.5,78.3438 M82.5,59.3438 L108.5,59.3438 M95.5,78.3438 L82.5,93.3438 M95.5,78.3438 L108.5,93.3438 " fill="none" style="stroke:#181818;stroke-width:0.5;"/><text fill="#000000" font-family="sans-serif" font-size="20" lengthAdjust="spacing" textLength="175" x="5" y="683.3457">Campus Manager</text><ellipse cx="95.5" cy="696.5625" fill="#E2E2F0" rx="8" ry="8" style="stroke:#181818;stroke-width:0.5;"/><path d="M95.5,704.5625 L95.5,731.5625 M82.5,712.5625 L108.5,712.5625 M95.5,731.5625 L82.5,746.5625 M95.5,731.5625 L108.5,746.5625 " fill="none" style="stroke:#181818;stroke-width:0.5;"/><rect fill="#E2E2F0" height="60.5625" rx="2.5" ry="2.5" style="stroke:#181818;stroke-width:0.5;" width="201" x="631" y="56.5625"/><text fill="#000000" font-family="sans-serif" font-size="20" font-style="italic" lengthAdjust="spacing" textLength="187" x="638" y="82.127">«component (C4)»</text><text fill="#000000" font-family="sans-serif" font-size="20" lengthAdjust="spacing" textLength="144" x="659.5" y="105.4082">UI Component</text><rect fill="#E2E2F0" height="60.5625" rx="2.5" ry="2.5" style="stroke:#181818;stroke-width:0.5;" width="201" x="631" y="664.7813"/><text fill="#000000" font-family="sans-serif" font-size="20" font-style="italic" lengthAdjust="spacing" textLength="187" x="638" y="690.3457">«component (C4)»</text><text fill="#000000" font-family="sans-serif" font-size="20" lengthAdjust="spacing" textLength="144" x="659.5" y="713.627">UI Component</text><rect fill="#E2E2F0" height="60.5625" rx="2.5" ry="2.5" style="stroke:#181818;stroke-width:0.5;" width="201" x="866" y="56.5625"/><text fill="#000000" font-family="sans-serif" font-size="20" font-style="italic" lengthAdjust="spacing" textLength="187" x="873" y="82.127">«component (C4)»</text><text fill="#000000" font-family="sans-serif" font-size="20" lengthAdjust="spacing" textLength="73" x="930" y="105.4082">Module</text><rect fill="#E2E2F0" height="60.5625" rx="2.5" ry="2.5" style="stroke:#181818;stroke-width:0.5;" width="201" x="866" y="664.7813"/><text fill="#000000" font-family="sans-serif" font-size="20" font-style="italic" lengthAdjust="spacing" textLength="187" x="873" y="690.3457">«component (C4)»</text><text fill="#000000" font-family="sans-serif" font-size="20" lengthAdjust="spacing" textLength="73" x="930" y="713.627">Module</text><rect fill="#E2E2F0" height="60.5625" rx="2.5" ry="2.5" style="stroke:#181818;stroke-width:0.5;" width="201" x="1101" y="56.5625"/><text fill="#000000" font-family="sans-serif" font-size="20" font-style="italic" lengthAdjust="spacing" textLength="187" x="1108" y="82.127">«component (C4)»</text><text fill="#000000" font-family="sans-serif" font-size="20" lengthAdjust="spacing" textLength="73" x="1165" y="105.4082">Service</text><rect fill="#E2E2F0" height="60.5625" rx="2.5" ry="2.5" style="stroke:#181818;stroke-width:0.5;" width="201" x="1101" y="664.7813"/><text fill="#000000" font-family="sans-serif" font-size="20" font-style="italic" lengthAdjust="spacing" textLength="187" x="1108" y="690.3457">«component (C4)»</text><text fill="#000000" font-family="sans-serif" font-size="20" lengthAdjust="spacing" textLength="73" x="1165" y="713.627">Service</text><rect fill="#E2E2F0" height="60.5625" rx="2.5" ry="2.5" style="stroke:#181818;stroke-width:0.5;" width="201" x="1458" y="56.5625"/><text fill="#000000" font-family="sans-serif" font-size="20" font-style="italic" lengthAdjust="spacing" textLength="187" x="1465" y="82.127">«component (C4)»</text><text fill="#000000" font-family="sans-serif" font-size="20" lengthAdjust="spacing" textLength="51" x="1533" y="105.4082">HTTP</text><rect fill="#E2E2F0" height="60.5625" rx="2.5" ry="2.5" style="stroke:#181818;stroke-width:0.5;" width="201" x="1458" y="664.7813"/><text fill="#000000" font-family="sans-serif" font-size="20" font-style="italic" lengthAdjust="spacing" textLength="187" x="1465" y="690.3457">«component (C4)»</text><text fill="#000000" font-family="sans-serif" font-size="20" lengthAdjust="spacing" textLength="51" x="1533" y="713.627">HTTP</text><rect fill="#E2E2F0" height="60.5625" rx="2.5" ry="2.5" style="stroke:#181818;stroke-width:0.5;" width="201" x="1669" y="56.5625"/><text fill="#000000" font-family="sans-serif" font-size="20" font-style="italic" lengthAdjust="spacing" textLength="187" x="1676" y="82.127">«component (C4)»</text><text fill="#000000" font-family="sans-serif" font-size="20" lengthAdjust="spacing" textLength="170" x="1684.5" y="105.4082">MD Management</text><rect fill="#E2E2F0" height="60.5625" rx="2.5" ry="2.5" style="stroke:#181818;stroke-width:0.5;" width="201" x="1669" y="664.7813"/><text fill="#000000" font-family="sans-serif" font-size="20" font-style="italic" lengthAdjust="spacing" textLength="187" x="1676" y="690.3457">«component (C4)»</text><text fill="#000000" font-family="sans-serif" font-size="20" lengthAdjust="spacing" textLength="170" x="1684.5" y="713.627">MD Management</text><rect fill="#FFFFFF" height="519.6563" style="stroke:#181818;stroke-width:1.0;" width="10" x="90.5" y="128.125"/><rect fill="#FFFFFF" height="37.2813" style="stroke:#181818;stroke-width:1.0;" width="10" x="726.5" y="157.4063"/><rect fill="#FFFFFF" height="415.8125" style="stroke:#181818;stroke-width:1.0;" width="10" x="726.5" y="231.9688"/><rect fill="#FFFFFF" height="341.25" style="stroke:#181818;stroke-width:1.0;" width="10" x="961.5" y="269.25"/><rect fill="#FFFFFF" height="28" style="stroke:#181818;stroke-width:1.0;" width="10" x="966.5" y="314.5313"/><rect fill="#FFFFFF" height="186.4063" style="stroke:#181818;stroke-width:1.0;" width="10" x="1196.5" y="386.8125"/><rect fill="#FFFFFF" height="111.8438" style="stroke:#181818;stroke-width:1.0;" width="10" x="1553.5" y="424.0938"/><rect fill="#FFFFFF" height="37.2813" style="stroke:#181818;stroke-width:1.0;" width="10" x="1764.5" y="461.375"/><polygon fill="#181818" points="714.5,153.4063,724.5,157.4063,714.5,161.4063,718.5,157.4063" style="stroke:#181818;stroke-width:1.0;"/><line style="stroke:#181818;stroke-width:1.0;" x1="100.5" x2="720.5" y1="157.4063" y2="157.4063"/><text fill="#000000" font-family="sans-serif" font-size="20" font-weight="bold" lengthAdjust="spacing" textLength="14" x="107.5" y="150.6895">1</text><text fill="#000000" font-family="sans-serif" font-size="20" lengthAdjust="spacing" textLength="222" x="125.5" y="150.6895">asks to edit a building</text><polygon fill="#181818" points="111.5,190.6875,101.5,194.6875,111.5,198.6875,107.5,194.6875" style="stroke:#181818;stroke-width:1.0;"/><line style="stroke:#181818;stroke-width:1.0;stroke-dasharray:2.0,2.0;" x1="105.5" x2="730.5" y1="194.6875" y2="194.6875"/><text fill="#000000" font-family="sans-serif" font-size="20" font-weight="bold" lengthAdjust="spacing" textLength="14" x="117.5" y="187.9707">2</text><text fill="#000000" font-family="sans-serif" font-size="20" lengthAdjust="spacing" textLength="584" x="135.5" y="187.9707">asks for building data (name,description,max dimensions)</text><polygon fill="#181818" points="714.5,227.9688,724.5,231.9688,714.5,235.9688,718.5,231.9688" style="stroke:#181818;stroke-width:1.0;"/><line style="stroke:#181818;stroke-width:1.0;" x1="100.5" x2="720.5" y1="231.9688" y2="231.9688"/><text fill="#000000" font-family="sans-serif" font-size="20" font-weight="bold" lengthAdjust="spacing" textLength="14" x="107.5" y="225.252">3</text><text fill="#000000" font-family="sans-serif" font-size="20" lengthAdjust="spacing" textLength="205" x="125.5" y="225.252">inputs required data</text><polygon fill="#181818" points="949.5,265.25,959.5,269.25,949.5,273.25,953.5,269.25" style="stroke:#181818;stroke-width:1.0;"/><line style="stroke:#181818;stroke-width:1.0;" x1="736.5" x2="955.5" y1="269.25" y2="269.25"/><text fill="#000000" font-family="sans-serif" font-size="20" font-weight="bold" lengthAdjust="spacing" textLength="14" x="743.5" y="262.5332">4</text><text fill="#000000" font-family="sans-serif" font-size="20" lengthAdjust="spacing" textLength="188" x="761.5" y="262.5332">updates a building</text><line style="stroke:#181818;stroke-width:1.0;" x1="976.5" x2="1018.5" y1="306.5313" y2="306.5313"/><line style="stroke:#181818;stroke-width:1.0;" x1="1018.5" x2="1018.5" y1="306.5313" y2="319.5313"/><line style="stroke:#181818;stroke-width:1.0;" x1="977.5" x2="1018.5" y1="319.5313" y2="319.5313"/><polygon fill="#181818" points="987.5,315.5313,977.5,319.5313,987.5,323.5313,983.5,319.5313" style="stroke:#181818;stroke-width:1.0;"/><text fill="#000000" font-family="sans-serif" font-size="20" font-weight="bold" lengthAdjust="spacing" textLength="14" x="983.5" y="299.8145">5</text><text fill="#000000" font-family="sans-serif" font-size="20" lengthAdjust="spacing" textLength="141" x="1001.5" y="299.8145">validates data</text><polygon fill="#181818" points="1184.5,382.8125,1194.5,386.8125,1184.5,390.8125,1188.5,386.8125" style="stroke:#181818;stroke-width:1.0;"/><line style="stroke:#181818;stroke-width:1.0;" x1="971.5" x2="1190.5" y1="386.8125" y2="386.8125"/><text fill="#000000" font-family="sans-serif" font-size="20" font-weight="bold" lengthAdjust="spacing" textLength="14" x="978.5" y="380.0957">6</text><text fill="#000000" font-family="sans-serif" font-size="20" lengthAdjust="spacing" textLength="188" x="996.5" y="380.0957">updates a building</text><polygon fill="#181818" points="1541.5,420.0938,1551.5,424.0938,1541.5,428.0938,1545.5,424.0938" style="stroke:#181818;stroke-width:1.0;"/><line style="stroke:#181818;stroke-width:1.0;" x1="1206.5" x2="1547.5" y1="424.0938" y2="424.0938"/><text fill="#000000" font-family="sans-serif" font-size="20" font-weight="bold" lengthAdjust="spacing" textLength="14" x="1213.5" y="417.377">7</text><text fill="#000000" font-family="sans-serif" font-size="20" lengthAdjust="spacing" textLength="310" x="1231.5" y="417.377">put('/buildings/:buildingCode')</text><polygon fill="#181818" points="1752.5,457.375,1762.5,461.375,1752.5,465.375,1756.5,461.375" style="stroke:#181818;stroke-width:1.0;"/><line style="stroke:#181818;stroke-width:1.0;" x1="1563.5" x2="1758.5" y1="461.375" y2="461.375"/><text fill="#000000" font-family="sans-serif" font-size="20" font-weight="bold" lengthAdjust="spacing" textLength="14" x="1570.5" y="454.6582">8</text><text fill="#000000" font-family="sans-serif" font-size="20" lengthAdjust="spacing" textLength="140" x="1588.5" y="454.6582">put /buildings</text><polygon fill="#181818" points="1574.5,494.6563,1564.5,498.6563,1574.5,502.6563,1570.5,498.6563" style="stroke:#181818;stroke-width:1.0;"/><line style="stroke:#181818;stroke-width:1.0;stroke-dasharray:2.0,2.0;" x1="1568.5" x2="1768.5" y1="498.6563" y2="498.6563"/><text fill="#000000" font-family="sans-serif" font-size="20" font-weight="bold" lengthAdjust="spacing" textLength="14" x="1580.5" y="491.9395">9</text><text fill="#000000" font-family="sans-serif" font-size="20" lengthAdjust="spacing" textLength="90" x="1598.5" y="491.9395">200 (OK)</text><polygon fill="#181818" points="1217.5,531.9375,1207.5,535.9375,1217.5,539.9375,1213.5,535.9375" style="stroke:#181818;stroke-width:1.0;"/><line style="stroke:#181818;stroke-width:1.0;stroke-dasharray:2.0,2.0;" x1="1211.5" x2="1557.5" y1="535.9375" y2="535.9375"/><text fill="#000000" font-family="sans-serif" font-size="20" font-weight="bold" lengthAdjust="spacing" textLength="28" x="1223.5" y="529.2207">10</text><text fill="#000000" font-family="sans-serif" font-size="20" lengthAdjust="spacing" textLength="168" x="1255.5" y="529.2207">updatedBuilding</text><polygon fill="#181818" points="982.5,569.2188,972.5,573.2188,982.5,577.2188,978.5,573.2188" style="stroke:#181818;stroke-width:1.0;"/><line style="stroke:#181818;stroke-width:1.0;stroke-dasharray:2.0,2.0;" x1="976.5" x2="1200.5" y1="573.2188" y2="573.2188"/><text fill="#000000" font-family="sans-serif" font-size="20" font-weight="bold" lengthAdjust="spacing" textLength="28" x="988.5" y="566.502">11</text><text fill="#000000" font-family="sans-serif" font-size="20" lengthAdjust="spacing" textLength="168" x="1020.5" y="566.502">updatedBuilding</text><polygon fill="#181818" points="747.5,606.5,737.5,610.5,747.5,614.5,743.5,610.5" style="stroke:#181818;stroke-width:1.0;"/><line style="stroke:#181818;stroke-width:1.0;stroke-dasharray:2.0,2.0;" x1="741.5" x2="965.5" y1="610.5" y2="610.5"/><text fill="#000000" font-family="sans-serif" font-size="20" font-weight="bold" lengthAdjust="spacing" textLength="28" x="753.5" y="603.7832">12</text><text fill="#000000" font-family="sans-serif" font-size="20" lengthAdjust="spacing" textLength="168" x="785.5" y="603.7832">updatedBuilding</text><polygon fill="#181818" points="106.5,643.7813,96.5,647.7813,106.5,651.7813,102.5,647.7813" style="stroke:#181818;stroke-width:1.0;"/><line style="stroke:#181818;stroke-width:1.0;stroke-dasharray:2.0,2.0;" x1="100.5" x2="730.5" y1="647.7813" y2="647.7813"/><text fill="#000000" font-family="sans-serif" font-size="20" font-weight="bold" lengthAdjust="spacing" textLength="28" x="112.5" y="641.0645">13</text><text fill="#000000" font-family="sans-serif" font-size="20" lengthAdjust="spacing" textLength="301" x="144.5" y="641.0645">returns confirmation message</text><!--SRC=[ZPDRYzim48NVzIi6zs4JsB1XwLC8XjQXjBHcboQxKEYBOarI4KjoTKdJ_VKToN7YNBhiYv7DTsQEpepTHkg6MwvgKsrGWC0L3xN_PBIVonU4-p7ZmHiTr18jSnqDivPRuCv_gELQAzH-EgteYJRFeJqmnYjlB1GbS0TPmLKJ79HSypNQZ2tD3hBfrFrr7XKCYlTv_bC_InTuBL-ubqPdnv8CW3fxMSc6Qqyb7rFDfozG6DKOJLW6X7SliTxmGbO-p9AiD2BK-0R1_Fjp4ipHRcNr5iNdnQAr5WzNUTG2wExiCe1XJA2SxIDItPts4Rpx9jU__0-iQ_Fd_5wpDk9BxN-RqsZabdkaA1cZ2Oto5Eg4wcmSU0Cef0SEoo1h8VMwBtXCYkber9UiQD8T389x3WFD5TuAT9MLJPpdhU8x49BCENfpGoRmekh11wrQy0ui_WxInjMaagSc8aTu7Ee4GaC0kgkEYM2HEi1RMh4MFwqQmPwddYukmkjDY62H8ZZjm0J8_-3chYFTtQGx5aRWpR0tWoXWBCcYHvfcKiDHtFCuAraaHiT6z-Cn31w-dkGPiNt5C_lYO-UzXxSEal-pIA_YyR8fcSEuNe5ZZASBOz47gnrKHg-aLUbd1uNEqUfUBCNf1_OF]--></g></svg>