<?xml version="1.0" encoding="UTF-8" standalone="no"?><svg xmlns="http://www.w3.org/2000/svg" xmlns:xlink="http://www.w3.org/1999/xlink" contentStyleType="text/css" height="447px" preserveAspectRatio="none" style="width:1193px;height:447px;background:#FFFFFF;" version="1.1" viewBox="0 0 1193 447" width="1193px" zoomAndPan="magnify"><defs/><g><rect fill="#ADD8E6" height="435.5156" style="stroke:#181818;stroke-width:0.5;" width="995.5" x="191.5" y="6"/><text fill="#000000" font-family="sans-serif" font-size="13" font-weight="bold" lengthAdjust="spacing" textLength="149" x="614.75" y="18.0669">&lt;&lt;container (C4)&gt;&gt;</text><text fill="#000000" font-family="sans-serif" font-size="13" font-weight="bold" lengthAdjust="spacing" textLength="71" x="614.75" y="33.1997">MD Tasks</text><rect fill="#FFFFFF" height="286.5234" style="stroke:#181818;stroke-width:1.0;" width="10" x="221" y="102.6953"/><rect fill="#FFFFFF" height="228.2578" style="stroke:#181818;stroke-width:1.0;" width="10" x="439" y="131.8281"/><rect fill="#FFFFFF" height="169.9922" style="stroke:#181818;stroke-width:1.0;" width="10" x="657" y="160.9609"/><rect fill="#FFFFFF" height="99.5625" style="stroke:#181818;stroke-width:1.0;" width="10" x="963" y="190.0938"/><line style="stroke:#181818;stroke-width:0.5;stroke-dasharray:5.0,5.0;" x1="225.5" x2="225.5" y1="71.5625" y2="407.2188"/><line style="stroke:#181818;stroke-width:0.5;stroke-dasharray:5.0,5.0;" x1="444" x2="444" y1="71.5625" y2="407.2188"/><line style="stroke:#181818;stroke-width:0.5;stroke-dasharray:5.0,5.0;" x1="661.5" x2="661.5" y1="71.5625" y2="407.2188"/><line style="stroke:#181818;stroke-width:0.5;stroke-dasharray:5.0,5.0;" x1="866" x2="866" y1="299.1719" y2="407.2188"/><line style="stroke:#181818;stroke-width:0.5;stroke-dasharray:5.0,5.0;" x1="968" x2="968" y1="71.5625" y2="407.2188"/><line style="stroke:#181818;stroke-width:0.5;stroke-dasharray:5.0,5.0;" x1="1117" x2="1117" y1="228.7422" y2="407.2188"/><rect fill="#E2E2F0" height="30.2969" rx="2.5" ry="2.5" style="stroke:#181818;stroke-width:0.5;" width="61" x="195.5" y="40.2656"/><text fill="#000000" font-family="sans-serif" font-size="14" lengthAdjust="spacing" textLength="47" x="202.5" y="60.2607">:Route</text><rect fill="#E2E2F0" height="30.2969" rx="2.5" ry="2.5" style="stroke:#181818;stroke-width:0.5;" width="61" x="195.5" y="406.2188"/><text fill="#000000" font-family="sans-serif" font-size="14" lengthAdjust="spacing" textLength="47" x="202.5" y="426.2139">:Route</text><rect fill="#E2E2F0" height="30.2969" rx="2.5" ry="2.5" style="stroke:#181818;stroke-width:0.5;" width="86" x="401" y="40.2656"/><text fill="#000000" font-family="sans-serif" font-size="14" lengthAdjust="spacing" textLength="72" x="408" y="60.2607">:Controller</text><rect fill="#E2E2F0" height="30.2969" rx="2.5" ry="2.5" style="stroke:#181818;stroke-width:0.5;" width="86" x="401" y="406.2188"/><text fill="#000000" font-family="sans-serif" font-size="14" lengthAdjust="spacing" textLength="72" x="408" y="426.2139">:Controller</text><rect fill="#E2E2F0" height="30.2969" rx="2.5" ry="2.5" style="stroke:#181818;stroke-width:0.5;" width="69" x="627.5" y="40.2656"/><text fill="#000000" font-family="sans-serif" font-size="14" lengthAdjust="spacing" textLength="55" x="634.5" y="60.2607">:Service</text><rect fill="#E2E2F0" height="30.2969" rx="2.5" ry="2.5" style="stroke:#181818;stroke-width:0.5;" width="69" x="627.5" y="406.2188"/><text fill="#000000" font-family="sans-serif" font-size="14" lengthAdjust="spacing" textLength="55" x="634.5" y="426.2139">:Service</text><rect fill="#E2E2F0" height="30.2969" rx="2.5" ry="2.5" style="stroke:#181818;stroke-width:0.5;" width="127" x="803" y="406.2188"/><text fill="#000000" font-family="sans-serif" font-size="14" lengthAdjust="spacing" textLength="113" x="810" y="426.2139">dto:requestDTO</text><rect fill="#E2E2F0" height="30.2969" rx="2.5" ry="2.5" style="stroke:#181818;stroke-width:0.5;" width="56" x="940" y="40.2656"/><text fill="#000000" font-family="sans-serif" font-size="14" lengthAdjust="spacing" textLength="42" x="947" y="60.2607">:Repo</text><rect fill="#E2E2F0" height="30.2969" rx="2.5" ry="2.5" style="stroke:#181818;stroke-width:0.5;" width="56" x="940" y="406.2188"/><text fill="#000000" font-family="sans-serif" font-size="14" lengthAdjust="spacing" textLength="42" x="947" y="426.2139">:Repo</text><rect fill="#E2E2F0" height="30.2969" rx="2.5" ry="2.5" style="stroke:#181818;stroke-width:0.5;" width="132" x="1051" y="406.2188"/><text fill="#000000" font-family="sans-serif" font-size="14" lengthAdjust="spacing" textLength="118" x="1058" y="426.2139">request:Request</text><rect fill="#FFFFFF" height="286.5234" style="stroke:#181818;stroke-width:1.0;" width="10" x="221" y="102.6953"/><rect fill="#FFFFFF" height="228.2578" style="stroke:#181818;stroke-width:1.0;" width="10" x="439" y="131.8281"/><rect fill="#FFFFFF" height="169.9922" style="stroke:#181818;stroke-width:1.0;" width="10" x="657" y="160.9609"/><rect fill="#FFFFFF" height="99.5625" style="stroke:#181818;stroke-width:1.0;" width="10" x="963" y="190.0938"/><ellipse cx="4.5" cy="101.9453" fill="none" rx="4" ry="4" style="stroke:#181818;stroke-width:1.5;"/><polygon fill="#181818" points="209,98.6953,219,102.6953,209,106.6953,213,102.6953" style="stroke:#181818;stroke-width:1.0;"/><line style="stroke:#181818;stroke-width:1.0;" x1="9" x2="215" y1="102.6953" y2="102.6953"/><text fill="#000000" font-family="sans-serif" font-size="13" font-weight="bold" lengthAdjust="spacing" textLength="9" x="12" y="97.6294">1</text><text fill="#000000" font-family="sans-serif" font-size="13" lengthAdjust="spacing" textLength="181" x="25" y="97.6294">POST /requests/pick-delivery</text><polygon fill="#181818" points="427,127.8281,437,131.8281,427,135.8281,431,131.8281" style="stroke:#181818;stroke-width:1.0;"/><line style="stroke:#181818;stroke-width:1.0;" x1="231" x2="433" y1="131.8281" y2="131.8281"/><text fill="#000000" font-family="sans-serif" font-size="13" font-weight="bold" lengthAdjust="spacing" textLength="9" x="238" y="126.7622">2</text><text fill="#000000" font-family="sans-serif" font-size="13" lengthAdjust="spacing" textLength="176" x="251" y="126.7622">create(requestPickDelivery)</text><polygon fill="#181818" points="645,156.9609,655,160.9609,645,164.9609,649,160.9609" style="stroke:#181818;stroke-width:1.0;"/><line style="stroke:#181818;stroke-width:1.0;" x1="449" x2="651" y1="160.9609" y2="160.9609"/><text fill="#000000" font-family="sans-serif" font-size="13" font-weight="bold" lengthAdjust="spacing" textLength="9" x="456" y="155.895">3</text><text fill="#000000" font-family="sans-serif" font-size="13" lengthAdjust="spacing" textLength="176" x="469" y="155.895">create(requestPickDelivery)</text><polygon fill="#181818" points="951,186.0938,961,190.0938,951,194.0938,955,190.0938" style="stroke:#181818;stroke-width:1.0;"/><line style="stroke:#181818;stroke-width:1.0;" x1="667" x2="957" y1="190.0938" y2="190.0938"/><text fill="#000000" font-family="sans-serif" font-size="13" font-weight="bold" lengthAdjust="spacing" textLength="9" x="674" y="185.0278">4</text><text fill="#000000" font-family="sans-serif" font-size="13" lengthAdjust="spacing" textLength="176" x="687" y="185.0278">create(requestPickDelivery)</text><polygon fill="#181818" points="1039,215.2266,1049,219.2266,1039,223.2266,1043,219.2266" style="stroke:#181818;stroke-width:1.0;"/><line style="stroke:#181818;stroke-width:1.0;" x1="973" x2="1045" y1="219.2266" y2="219.2266"/><text fill="#000000" font-family="sans-serif" font-size="13" font-weight="bold" lengthAdjust="spacing" textLength="9" x="980" y="214.1606">5</text><text fill="#000000" font-family="sans-serif" font-size="13" lengthAdjust="spacing" textLength="41" x="993" y="214.1606">create</text><rect fill="#E2E2F0" height="30.2969" rx="2.5" ry="2.5" style="stroke:#181818;stroke-width:0.5;" width="132" x="1051" y="198.0938"/><text fill="#000000" font-family="sans-serif" font-size="14" lengthAdjust="spacing" textLength="118" x="1058" y="218.0889">request:Request</text><polygon fill="#181818" points="678,256.5234,668,260.5234,678,264.5234,674,260.5234" style="stroke:#181818;stroke-width:1.0;"/><line style="stroke:#181818;stroke-width:1.0;stroke-dasharray:2.0,2.0;" x1="672" x2="962" y1="260.5234" y2="260.5234"/><text fill="#000000" font-family="sans-serif" font-size="13" font-weight="bold" lengthAdjust="spacing" textLength="9" x="684" y="255.4575">6</text><text fill="#000000" font-family="sans-serif" font-size="13" lengthAdjust="spacing" textLength="49" x="697" y="255.4575">request</text><polygon fill="#181818" points="791,285.6563,801,289.6563,791,293.6563,795,289.6563" style="stroke:#181818;stroke-width:1.0;"/><line style="stroke:#181818;stroke-width:1.0;stroke-dasharray:2.0,2.0;" x1="667" x2="797" y1="289.6563" y2="289.6563"/><text fill="#000000" font-family="sans-serif" font-size="13" font-weight="bold" lengthAdjust="spacing" textLength="9" x="674" y="284.5903">7</text><text fill="#000000" font-family="sans-serif" font-size="13" lengthAdjust="spacing" textLength="99" x="687" y="284.5903">create(reqDTO)</text><rect fill="#E2E2F0" height="30.2969" rx="2.5" ry="2.5" style="stroke:#181818;stroke-width:0.5;" width="127" x="803" y="268.5234"/><text fill="#000000" font-family="sans-serif" font-size="14" lengthAdjust="spacing" textLength="113" x="810" y="288.5186">dto:requestDTO</text><polygon fill="#181818" points="460,326.9531,450,330.9531,460,334.9531,456,330.9531" style="stroke:#181818;stroke-width:1.0;"/><line style="stroke:#181818;stroke-width:1.0;stroke-dasharray:2.0,2.0;" x1="454" x2="661" y1="330.9531" y2="330.9531"/><text fill="#000000" font-family="sans-serif" font-size="13" font-weight="bold" lengthAdjust="spacing" textLength="9" x="466" y="325.8872">8</text><text fill="#000000" font-family="sans-serif" font-size="13" lengthAdjust="spacing" textLength="102" x="479" y="325.8872">sucess(reqDTO)</text><polygon fill="#181818" points="242,356.0859,232,360.0859,242,364.0859,238,360.0859" style="stroke:#181818;stroke-width:1.0;"/><line style="stroke:#181818;stroke-width:1.0;stroke-dasharray:2.0,2.0;" x1="236" x2="443" y1="360.0859" y2="360.0859"/><text fill="#000000" font-family="sans-serif" font-size="13" font-weight="bold" lengthAdjust="spacing" textLength="9" x="248" y="355.02">9</text><text fill="#000000" font-family="sans-serif" font-size="13" lengthAdjust="spacing" textLength="102" x="261" y="355.02">sucess(reqDTO)</text><polygon fill="#181818" points="11,385.2188,1,389.2188,11,393.2188,7,389.2188" style="stroke:#181818;stroke-width:1.0;"/><line style="stroke:#181818;stroke-width:1.0;stroke-dasharray:2.0,2.0;" x1="5" x2="225" y1="389.2188" y2="389.2188"/><text fill="#000000" font-family="sans-serif" font-size="13" font-weight="bold" lengthAdjust="spacing" textLength="18" x="17" y="384.1528">10</text><text fill="#000000" font-family="sans-serif" font-size="13" lengthAdjust="spacing" textLength="46" x="39" y="384.1528">201 OK</text><!--MD5=[1d86e2684b4b8202ccd9e5ac5e33ff3f]
@startuml process-view
autonumber

box "<<container (C4)>>\nMD Tasks" <<center>>#LightBlue
  participant ROUTE as ":Route"
  participant MDTCTRL as ":Controller"
  participant MDTSRV as ":Service"
  participant MDTDTO as "dto:requestDTO"
  participant MDTREPO as ":Repo"
  participant BUILD as "request:Request"
end box

?o-> ROUTE : POST /requests/pick-delivery
activate ROUTE

ROUTE -> MDTCTRL : create(requestPickDelivery)
activate MDTCTRL

MDTCTRL -> MDTSRV : create(requestPickDelivery)
activate MDTSRV

MDTSRV -> MDTREPO : create(requestPickDelivery)
activate MDTREPO

MDTREPO -> BUILD** : create

MDTREPO - -> MDTSRV : request

MDTSRV - -> MDTDTO** : create(reqDTO)
deactivate MDTDTO
deactivate MDTREPO

MDTSRV - -> MDTCTRL : sucess(reqDTO)
deactivate MDTSRV

MDTCTRL - -> ROUTE : sucess(reqDTO)
deactivate MDTCTRL
<- - ROUTE : 201 OK
deactivate ROUTE

@enduml

PlantUML version 1.2022.7(Mon Aug 22 18:01:30 WEST 2022)
(GPL source distribution)
Java Runtime: OpenJDK Runtime Environment
JVM: OpenJDK 64-Bit Server VM
Default Encoding: UTF-8
Language: en
Country: US
--></g></svg>