<?xml version="1.0" encoding="UTF-8" standalone="no"?><svg xmlns="http://www.w3.org/2000/svg" xmlns:xlink="http://www.w3.org/1999/xlink" contentStyleType="text/css" height="590px" preserveAspectRatio="none" style="width:1121px;height:590px;background:#FFFFFF;" version="1.1" viewBox="0 0 1121 590" width="1121px" zoomAndPan="magnify"><defs/><g><rect fill="#FFFFE0" height="578.1197" style="stroke:#181818;stroke-width:0.5;" width="965.375" x="150.125" y="6"/><text fill="#000000" font-family="sans-serif" font-size="20" font-weight="bold" lengthAdjust="spacing" textLength="158.375" x="548.0625" y="27.38">«container (C4)»</text><text fill="#000000" font-family="sans-serif" font-size="20" font-weight="bold" lengthAdjust="spacing" textLength="169.5" x="548.0625" y="54.62">MD Management</text><rect fill="#FFFFFF" height="370.9198" style="stroke:#181818;stroke-width:1.0;" width="10" x="185.625" y="149.9599"/><rect fill="#FFFFFF" height="288.4398" style="stroke:#181818;stroke-width:1.0;" width="10" x="381.25" y="191.1999"/><rect fill="#FFFFFF" height="205.9599" style="stroke:#181818;stroke-width:1.0;" width="10" x="576.875" y="232.4398"/><rect fill="#FFFFFF" height="72.24" style="stroke:#181818;stroke-width:1.0;" width="10" x="887.875" y="283.6798"/><rect fill="#FFFFFF" height="71.24" style="stroke:#181818;stroke-width:1.0;" width="10" x="1073.5" y="325.9198"/><line style="stroke:#181818;stroke-width:0.5;stroke-dasharray:5.0,5.0;" x1="190.125" x2="190.125" y1="106.7199" y2="538.8797"/><line style="stroke:#181818;stroke-width:0.5;stroke-dasharray:5.0,5.0;" x1="386.25" x2="386.25" y1="106.7199" y2="538.8797"/><line style="stroke:#181818;stroke-width:0.5;stroke-dasharray:5.0,5.0;" x1="581.375" x2="581.375" y1="106.7199" y2="538.8797"/><line style="stroke:#181818;stroke-width:0.5;stroke-dasharray:5.0,5.0;" x1="716.375" x2="716.375" y1="106.7199" y2="538.8797"/><line style="stroke:#181818;stroke-width:0.5;stroke-dasharray:5.0,5.0;" x1="892.375" x2="892.375" y1="276.5598" y2="538.8797"/><line style="stroke:#181818;stroke-width:0.5;stroke-dasharray:5.0,5.0;" x1="1078.5" x2="1078.5" y1="106.7199" y2="538.8797"/><rect fill="#E2E2F0" height="41.24" rx="2.5" ry="2.5" style="stroke:#181818;stroke-width:0.5;" width="73" x="154.125" y="64.4799"/><text fill="#000000" font-family="sans-serif" font-size="20" lengthAdjust="spacing" textLength="59" x="161.125" y="92.8599">:Route</text><rect fill="#E2E2F0" height="41.24" rx="2.5" ry="2.5" style="stroke:#181818;stroke-width:0.5;" width="73" x="154.125" y="537.8797"/><text fill="#000000" font-family="sans-serif" font-size="20" lengthAdjust="spacing" textLength="59" x="161.125" y="566.2597">:Route</text><rect fill="#E2E2F0" height="41.24" rx="2.5" ry="2.5" style="stroke:#181818;stroke-width:0.5;" width="112" x="330.25" y="64.4799"/><text fill="#000000" font-family="sans-serif" font-size="20" lengthAdjust="spacing" textLength="98" x="337.25" y="92.8599">:Controller</text><rect fill="#E2E2F0" height="41.24" rx="2.5" ry="2.5" style="stroke:#181818;stroke-width:0.5;" width="112" x="330.25" y="537.8797"/><text fill="#000000" font-family="sans-serif" font-size="20" lengthAdjust="spacing" textLength="98" x="337.25" y="566.2597">:Controller</text><rect fill="#E2E2F0" height="41.24" rx="2.5" ry="2.5" style="stroke:#181818;stroke-width:0.5;" width="85" x="539.375" y="64.4799"/><text fill="#000000" font-family="sans-serif" font-size="20" lengthAdjust="spacing" textLength="71" x="546.375" y="92.8599">:Service</text><rect fill="#E2E2F0" height="41.24" rx="2.5" ry="2.5" style="stroke:#181818;stroke-width:0.5;" width="85" x="539.375" y="537.8797"/><text fill="#000000" font-family="sans-serif" font-size="20" lengthAdjust="spacing" textLength="71" x="546.375" y="566.2597">:Service</text><rect fill="#E2E2F0" height="41.24" rx="2.5" ry="2.5" style="stroke:#181818;stroke-width:0.5;" width="165" x="634.375" y="64.4799"/><text fill="#000000" font-family="sans-serif" font-size="20" lengthAdjust="spacing" textLength="151" x="641.375" y="92.8599">request:Request</text><rect fill="#E2E2F0" height="41.24" rx="2.5" ry="2.5" style="stroke:#181818;stroke-width:0.5;" width="165" x="634.375" y="537.8797"/><text fill="#000000" font-family="sans-serif" font-size="20" lengthAdjust="spacing" textLength="151" x="641.375" y="566.2597">request:Request</text><rect fill="#E2E2F0" height="41.24" rx="2.5" ry="2.5" style="stroke:#181818;stroke-width:0.5;" width="167" x="809.375" y="537.8797"/><text fill="#000000" font-family="sans-serif" font-size="20" lengthAdjust="spacing" textLength="153" x="816.375" y="566.2597">dto:RequestDTO</text><rect fill="#E2E2F0" height="41.24" rx="2.5" ry="2.5" style="stroke:#181818;stroke-width:0.5;" width="66" x="1045.5" y="64.4799"/><text fill="#000000" font-family="sans-serif" font-size="20" lengthAdjust="spacing" textLength="52" x="1052.5" y="92.8599">:Repo</text><rect fill="#E2E2F0" height="41.24" rx="2.5" ry="2.5" style="stroke:#181818;stroke-width:0.5;" width="66" x="1045.5" y="537.8797"/><text fill="#000000" font-family="sans-serif" font-size="20" lengthAdjust="spacing" textLength="52" x="1052.5" y="566.2597">:Repo</text><rect fill="#FFFFFF" height="370.9198" style="stroke:#181818;stroke-width:1.0;" width="10" x="185.625" y="149.9599"/><rect fill="#FFFFFF" height="288.4398" style="stroke:#181818;stroke-width:1.0;" width="10" x="381.25" y="191.1999"/><rect fill="#FFFFFF" height="205.9599" style="stroke:#181818;stroke-width:1.0;" width="10" x="576.875" y="232.4398"/><rect fill="#FFFFFF" height="72.24" style="stroke:#181818;stroke-width:1.0;" width="10" x="887.875" y="283.6798"/><rect fill="#FFFFFF" height="71.24" style="stroke:#181818;stroke-width:1.0;" width="10" x="1073.5" y="325.9198"/><ellipse cx="4.5" cy="149.2099" fill="none" rx="4" ry="4" style="stroke:#181818;stroke-width:1.5;"/><polygon fill="#181818" points="173.625,145.9599,183.625,149.9599,173.625,153.9599,177.625,149.9599" style="stroke:#181818;stroke-width:1.0;"/><line style="stroke:#181818;stroke-width:1.0;" x1="9" x2="179.625" y1="149.9599" y2="149.9599"/><text fill="#000000" font-family="sans-serif" font-size="20" font-weight="bold" lengthAdjust="spacing" textLength="11.625" x="12" y="142.0999">1</text><text fill="#000000" font-family="sans-serif" font-size="20" lengthAdjust="spacing" textLength="143" x="27.625" y="142.0999">POST /requests</text><polygon fill="#181818" points="369.25,187.1999,379.25,191.1999,369.25,195.1999,373.25,191.1999" style="stroke:#181818;stroke-width:1.0;"/><line style="stroke:#181818;stroke-width:1.0;" x1="195.625" x2="375.25" y1="191.1999" y2="191.1999"/><text fill="#000000" font-family="sans-serif" font-size="20" font-weight="bold" lengthAdjust="spacing" textLength="11.625" x="202.625" y="183.3399">2</text><text fill="#000000" font-family="sans-serif" font-size="20" lengthAdjust="spacing" textLength="141" x="218.25" y="183.3399">create(request)</text><polygon fill="#181818" points="564.875,228.4398,574.875,232.4398,564.875,236.4398,568.875,232.4398" style="stroke:#181818;stroke-width:1.0;"/><line style="stroke:#181818;stroke-width:1.0;" x1="391.25" x2="570.875" y1="232.4398" y2="232.4398"/><text fill="#000000" font-family="sans-serif" font-size="20" font-weight="bold" lengthAdjust="spacing" textLength="11.625" x="398.25" y="224.5799">3</text><text fill="#000000" font-family="sans-serif" font-size="20" lengthAdjust="spacing" textLength="141" x="413.875" y="224.5799">create(request)</text><polygon fill="#181818" points="797.375,269.6798,807.375,273.6798,797.375,277.6798,801.375,273.6798" style="stroke:#181818;stroke-width:1.0;"/><line style="stroke:#181818;stroke-width:1.0;" x1="586.875" x2="803.375" y1="273.6798" y2="273.6798"/><text fill="#000000" font-family="sans-serif" font-size="20" font-weight="bold" lengthAdjust="spacing" textLength="11.625" x="593.875" y="265.8198">4</text><text fill="#000000" font-family="sans-serif" font-size="20" lengthAdjust="spacing" textLength="141" x="609.5" y="265.8198">create(request)</text><rect fill="#E2E2F0" height="41.24" rx="2.5" ry="2.5" style="stroke:#181818;stroke-width:0.5;" width="167" x="809.375" y="240.4398"/><text fill="#000000" font-family="sans-serif" font-size="20" lengthAdjust="spacing" textLength="153" x="816.375" y="268.8198">dto:RequestDTO</text><polygon fill="#181818" points="1061.5,321.9198,1071.5,325.9198,1061.5,329.9198,1065.5,325.9198" style="stroke:#181818;stroke-width:1.0;"/><line style="stroke:#181818;stroke-width:1.0;" x1="897.875" x2="1067.5" y1="325.9198" y2="325.9198"/><text fill="#000000" font-family="sans-serif" font-size="20" font-weight="bold" lengthAdjust="spacing" textLength="11.625" x="904.875" y="318.0598">5</text><text fill="#000000" font-family="sans-serif" font-size="20" lengthAdjust="spacing" textLength="141" x="920.5" y="318.0598">create(request)</text><polygon fill="#181818" points="597.875,393.1598,587.875,397.1598,597.875,401.1598,593.875,397.1598" style="stroke:#181818;stroke-width:1.0;"/><line style="stroke:#181818;stroke-width:1.0;stroke-dasharray:2.0,2.0;" x1="591.875" x2="1077.5" y1="397.1598" y2="397.1598"/><text fill="#000000" font-family="sans-serif" font-size="20" font-weight="bold" lengthAdjust="spacing" textLength="11.625" x="603.875" y="389.2998">6</text><text fill="#000000" font-family="sans-serif" font-size="20" lengthAdjust="spacing" textLength="146" x="619.5" y="389.2998">sucess(request)</text><polygon fill="#181818" points="402.25,434.3997,392.25,438.3997,402.25,442.3997,398.25,438.3997" style="stroke:#181818;stroke-width:1.0;"/><line style="stroke:#181818;stroke-width:1.0;stroke-dasharray:2.0,2.0;" x1="396.25" x2="580.875" y1="438.3997" y2="438.3997"/><text fill="#000000" font-family="sans-serif" font-size="20" font-weight="bold" lengthAdjust="spacing" textLength="11.625" x="408.25" y="430.5398">7</text><text fill="#000000" font-family="sans-serif" font-size="20" lengthAdjust="spacing" textLength="146" x="423.875" y="430.5398">sucess(request)</text><polygon fill="#181818" points="206.625,475.6397,196.625,479.6397,206.625,483.6397,202.625,479.6397" style="stroke:#181818;stroke-width:1.0;"/><line style="stroke:#181818;stroke-width:1.0;stroke-dasharray:2.0,2.0;" x1="200.625" x2="385.25" y1="479.6397" y2="479.6397"/><text fill="#000000" font-family="sans-serif" font-size="20" font-weight="bold" lengthAdjust="spacing" textLength="11.625" x="212.625" y="471.7797">8</text><text fill="#000000" font-family="sans-serif" font-size="20" lengthAdjust="spacing" textLength="146" x="228.25" y="471.7797">sucess(request)</text><polygon fill="#181818" points="11,516.8797,1,520.8797,11,524.8797,7,520.8797" style="stroke:#181818;stroke-width:1.0;"/><line style="stroke:#181818;stroke-width:1.0;stroke-dasharray:2.0,2.0;" x1="5" x2="189.625" y1="520.8797" y2="520.8797"/><text fill="#000000" font-family="sans-serif" font-size="20" font-weight="bold" lengthAdjust="spacing" textLength="11.625" x="17" y="513.0197">9</text><text fill="#000000" font-family="sans-serif" font-size="20" lengthAdjust="spacing" textLength="66" x="32.625" y="513.0197">201 OK</text><!--SRC=[VT1TIyCm50RW-_Ch3lLc6nJdyAgC2cuJn8sEjXC4RxBsECEwPARf57-zITfzLUXLeEzpclEct7AnPuhj2fbjASUSFbXLw2SfTC9_2KT3O9MMejgjIS5Q_g0t7cScPLoGmjxalX-6xs8nnGKJR4Cx4jf3Gyn9AWnlvdppgT-eAEGt89ghDC_udWcDSRHAPyXAz89OLfgyLZv9utaTJynzIXO5gRP9ujUQ9AGEFFltZyVLytpgXAAlYaeTnFNPXjCqSYpNyaZCfxQAPykesPZsqWCIEPet0O07wOTDem2NKPBYRNDZ2IpJ_C0qrJb0pOnt3GFC59cqr_Z-sTiSm2cZRTSER680Qmmrgmy6NTW00DlPRcrBTLYRGqxNisx8FsrLLXcLvNduWhlnUh5pvGvlUzILBrwqmxj76ll-oOw6TnYzNAtWtlqF]--></g></svg>