<?xml version="1.0" encoding="UTF-8" standalone="no"?><svg xmlns="http://www.w3.org/2000/svg" xmlns:xlink="http://www.w3.org/1999/xlink" contentStyleType="text/css" height="694px" preserveAspectRatio="none" style="width:1641px;height:694px;background:#FFFFFF;" version="1.1" viewBox="0 0 1641 694" width="1641px" zoomAndPan="magnify"><defs/><g><rect fill="#90EE90" height="682.8396" style="stroke:#181818;stroke-width:0.5;" width="309.75" x="150.125" y="6"/><text fill="#000000" font-family="sans-serif" font-size="20" font-weight="bold" lengthAdjust="spacing" textLength="158.375" x="220.25" y="27.38">«container (C4)»</text><text fill="#000000" font-family="sans-serif" font-size="20" font-weight="bold" lengthAdjust="spacing" textLength="169.5" x="220.25" y="54.62">MD Management</text><rect fill="#ADD8E6" height="682.8396" style="stroke:#181818;stroke-width:0.5;" width="1068" x="567.5" y="6"/><text fill="#000000" font-family="sans-serif" font-size="20" font-weight="bold" lengthAdjust="spacing" textLength="158.375" x="1022.3125" y="27.38">«container (C4)»</text><text fill="#000000" font-family="sans-serif" font-size="20" font-weight="bold" lengthAdjust="spacing" textLength="95.375" x="1022.3125" y="54.62">MD Tasks</text><rect fill="#FFFFFF" height="475.6397" style="stroke:#181818;stroke-width:1.0;" width="10" x="185.625" y="149.9599"/><rect fill="#FFFFFF" height="393.1598" style="stroke:#181818;stroke-width:1.0;" width="10" x="394.875" y="191.1999"/><rect fill="#FFFFFF" height="310.6798" style="stroke:#181818;stroke-width:1.0;" width="10" x="622.5" y="232.4398"/><rect fill="#FFFFFF" height="228.1999" style="stroke:#181818;stroke-width:1.0;" width="10" x="850.125" y="273.6798"/><rect fill="#FFFFFF" height="42.24" style="stroke:#181818;stroke-width:1.0;" width="10" x="1047.75" y="418.3997"/><rect fill="#FFFFFF" height="145.7199" style="stroke:#181818;stroke-width:1.0;" width="10" x="1358.875" y="314.9198"/><line style="stroke:#181818;stroke-width:0.5;stroke-dasharray:5.0,5.0;" x1="190.125" x2="190.125" y1="106.7199" y2="643.5996"/><line style="stroke:#181818;stroke-width:0.5;stroke-dasharray:5.0,5.0;" x1="399.875" x2="399.875" y1="106.7199" y2="643.5996"/><line style="stroke:#181818;stroke-width:0.5;stroke-dasharray:5.0,5.0;" x1="627.5" x2="627.5" y1="106.7199" y2="643.5996"/><line style="stroke:#181818;stroke-width:0.5;stroke-dasharray:5.0,5.0;" x1="854.625" x2="854.625" y1="106.7199" y2="643.5996"/><line style="stroke:#181818;stroke-width:0.5;stroke-dasharray:5.0,5.0;" x1="1052.25" x2="1052.25" y1="411.2798" y2="643.5996"/><line style="stroke:#181818;stroke-width:0.5;stroke-dasharray:5.0,5.0;" x1="1363.875" x2="1363.875" y1="106.7199" y2="643.5996"/><line style="stroke:#181818;stroke-width:0.5;stroke-dasharray:5.0,5.0;" x1="1548.5" x2="1548.5" y1="359.0398" y2="643.5996"/><rect fill="#E2E2F0" height="41.24" rx="2.5" ry="2.5" style="stroke:#181818;stroke-width:0.5;" width="73" x="154.125" y="64.4799"/><text fill="#000000" font-family="sans-serif" font-size="20" lengthAdjust="spacing" textLength="59" x="161.125" y="92.8599">:Route</text><rect fill="#E2E2F0" height="41.24" rx="2.5" ry="2.5" style="stroke:#181818;stroke-width:0.5;" width="73" x="154.125" y="642.5996"/><text fill="#000000" font-family="sans-serif" font-size="20" lengthAdjust="spacing" textLength="59" x="161.125" y="670.9796">:Route</text><rect fill="#E2E2F0" height="41.24" rx="2.5" ry="2.5" style="stroke:#181818;stroke-width:0.5;" width="112" x="343.875" y="64.4799"/><text fill="#000000" font-family="sans-serif" font-size="20" lengthAdjust="spacing" textLength="98" x="350.875" y="92.8599">:Controller</text><rect fill="#E2E2F0" height="41.24" rx="2.5" ry="2.5" style="stroke:#181818;stroke-width:0.5;" width="112" x="343.875" y="642.5996"/><text fill="#000000" font-family="sans-serif" font-size="20" lengthAdjust="spacing" textLength="98" x="350.875" y="670.9796">:Controller</text><rect fill="#E2E2F0" height="41.24" rx="2.5" ry="2.5" style="stroke:#181818;stroke-width:0.5;" width="112" x="571.5" y="64.4799"/><text fill="#000000" font-family="sans-serif" font-size="20" lengthAdjust="spacing" textLength="98" x="578.5" y="92.8599">:Controller</text><rect fill="#E2E2F0" height="41.24" rx="2.5" ry="2.5" style="stroke:#181818;stroke-width:0.5;" width="112" x="571.5" y="642.5996"/><text fill="#000000" font-family="sans-serif" font-size="20" lengthAdjust="spacing" textLength="98" x="578.5" y="670.9796">:Controller</text><rect fill="#E2E2F0" height="41.24" rx="2.5" ry="2.5" style="stroke:#181818;stroke-width:0.5;" width="85" x="812.625" y="64.4799"/><text fill="#000000" font-family="sans-serif" font-size="20" lengthAdjust="spacing" textLength="71" x="819.625" y="92.8599">:Service</text><rect fill="#E2E2F0" height="41.24" rx="2.5" ry="2.5" style="stroke:#181818;stroke-width:0.5;" width="85" x="812.625" y="642.5996"/><text fill="#000000" font-family="sans-serif" font-size="20" lengthAdjust="spacing" textLength="71" x="819.625" y="670.9796">:Service</text><rect fill="#E2E2F0" height="41.24" rx="2.5" ry="2.5" style="stroke:#181818;stroke-width:0.5;" width="163" x="971.25" y="642.5996"/><text fill="#000000" font-family="sans-serif" font-size="20" lengthAdjust="spacing" textLength="149" x="978.25" y="670.9796">dto:requestDTO</text><rect fill="#E2E2F0" height="41.24" rx="2.5" ry="2.5" style="stroke:#181818;stroke-width:0.5;" width="66" x="1330.875" y="64.4799"/><text fill="#000000" font-family="sans-serif" font-size="20" lengthAdjust="spacing" textLength="52" x="1337.875" y="92.8599">:Repo</text><rect fill="#E2E2F0" height="41.24" rx="2.5" ry="2.5" style="stroke:#181818;stroke-width:0.5;" width="66" x="1330.875" y="642.5996"/><text fill="#000000" font-family="sans-serif" font-size="20" lengthAdjust="spacing" textLength="52" x="1337.875" y="670.9796">:Repo</text><rect fill="#E2E2F0" height="41.24" rx="2.5" ry="2.5" style="stroke:#181818;stroke-width:0.5;" width="165" x="1466.5" y="642.5996"/><text fill="#000000" font-family="sans-serif" font-size="20" lengthAdjust="spacing" textLength="151" x="1473.5" y="670.9796">request:Request</text><rect fill="#FFFFFF" height="475.6397" style="stroke:#181818;stroke-width:1.0;" width="10" x="185.625" y="149.9599"/><rect fill="#FFFFFF" height="393.1598" style="stroke:#181818;stroke-width:1.0;" width="10" x="394.875" y="191.1999"/><rect fill="#FFFFFF" height="310.6798" style="stroke:#181818;stroke-width:1.0;" width="10" x="622.5" y="232.4398"/><rect fill="#FFFFFF" height="228.1999" style="stroke:#181818;stroke-width:1.0;" width="10" x="850.125" y="273.6798"/><rect fill="#FFFFFF" height="42.24" style="stroke:#181818;stroke-width:1.0;" width="10" x="1047.75" y="418.3997"/><rect fill="#FFFFFF" height="145.7199" style="stroke:#181818;stroke-width:1.0;" width="10" x="1358.875" y="314.9198"/><ellipse cx="4.5" cy="149.2099" fill="none" rx="4" ry="4" style="stroke:#181818;stroke-width:1.5;"/><polygon fill="#181818" points="173.625,145.9599,183.625,149.9599,173.625,153.9599,177.625,149.9599" style="stroke:#181818;stroke-width:1.0;"/><line style="stroke:#181818;stroke-width:1.0;" x1="9" x2="179.625" y1="149.9599" y2="149.9599"/><text fill="#000000" font-family="sans-serif" font-size="20" font-weight="bold" lengthAdjust="spacing" textLength="11.625" x="12" y="142.0999">1</text><text fill="#000000" font-family="sans-serif" font-size="20" lengthAdjust="spacing" textLength="143" x="27.625" y="142.0999">POST /requests</text><polygon fill="#181818" points="382.875,187.1999,392.875,191.1999,382.875,195.1999,386.875,191.1999" style="stroke:#181818;stroke-width:1.0;"/><line style="stroke:#181818;stroke-width:1.0;" x1="195.625" x2="388.875" y1="191.1999" y2="191.1999"/><text fill="#000000" font-family="sans-serif" font-size="20" font-weight="bold" lengthAdjust="spacing" textLength="11.625" x="202.625" y="183.3399">2</text><text fill="#000000" font-family="sans-serif" font-size="20" lengthAdjust="spacing" textLength="141" x="218.25" y="183.3399">create(request)</text><polygon fill="#181818" points="610.5,228.4398,620.5,232.4398,610.5,236.4398,614.5,232.4398" style="stroke:#181818;stroke-width:1.0;"/><line style="stroke:#181818;stroke-width:1.0;" x1="404.875" x2="616.5" y1="232.4398" y2="232.4398"/><text fill="#000000" font-family="sans-serif" font-size="20" font-weight="bold" lengthAdjust="spacing" textLength="11.625" x="411.875" y="224.5799">3</text><text fill="#000000" font-family="sans-serif" font-size="20" lengthAdjust="spacing" textLength="183" x="427.5" y="224.5799">create(requestDTO)</text><polygon fill="#181818" points="838.125,269.6798,848.125,273.6798,838.125,277.6798,842.125,273.6798" style="stroke:#181818;stroke-width:1.0;"/><line style="stroke:#181818;stroke-width:1.0;" x1="632.5" x2="844.125" y1="273.6798" y2="273.6798"/><text fill="#000000" font-family="sans-serif" font-size="20" font-weight="bold" lengthAdjust="spacing" textLength="11.625" x="639.5" y="265.8198">4</text><text fill="#000000" font-family="sans-serif" font-size="20" lengthAdjust="spacing" textLength="183" x="655.125" y="265.8198">create(requestDTO)</text><polygon fill="#181818" points="1346.875,310.9198,1356.875,314.9198,1346.875,318.9198,1350.875,314.9198" style="stroke:#181818;stroke-width:1.0;"/><line style="stroke:#181818;stroke-width:1.0;" x1="860.125" x2="1352.875" y1="314.9198" y2="314.9198"/><text fill="#000000" font-family="sans-serif" font-size="20" font-weight="bold" lengthAdjust="spacing" textLength="11.625" x="867.125" y="307.0598">5</text><text fill="#000000" font-family="sans-serif" font-size="20" lengthAdjust="spacing" textLength="183" x="882.75" y="307.0598">create(requestDTO)</text><polygon fill="#181818" points="1454.5,352.1598,1464.5,356.1598,1454.5,360.1598,1458.5,356.1598" style="stroke:#181818;stroke-width:1.0;"/><line style="stroke:#181818;stroke-width:1.0;" x1="1368.875" x2="1460.5" y1="356.1598" y2="356.1598"/><text fill="#000000" font-family="sans-serif" font-size="20" font-weight="bold" lengthAdjust="spacing" textLength="11.625" x="1375.875" y="348.2998">6</text><text fill="#000000" font-family="sans-serif" font-size="20" lengthAdjust="spacing" textLength="58" x="1391.5" y="348.2998">create</text><rect fill="#E2E2F0" height="41.24" rx="2.5" ry="2.5" style="stroke:#181818;stroke-width:0.5;" width="165" x="1466.5" y="322.9198"/><text fill="#000000" font-family="sans-serif" font-size="20" lengthAdjust="spacing" textLength="151" x="1473.5" y="351.2998">request:Request</text><polygon fill="#181818" points="1145.25,404.3997,1135.25,408.3997,1145.25,412.3997,1141.25,408.3997" style="stroke:#181818;stroke-width:1.0;"/><line style="stroke:#181818;stroke-width:1.0;stroke-dasharray:2.0,2.0;" x1="1139.25" x2="1357.875" y1="408.3997" y2="408.3997"/><text fill="#000000" font-family="sans-serif" font-size="20" font-weight="bold" lengthAdjust="spacing" textLength="11.625" x="1151.25" y="400.5398">7</text><text fill="#000000" font-family="sans-serif" font-size="20" lengthAdjust="spacing" textLength="185" x="1166.875" y="400.5398">createDTO(reqDTO)</text><rect fill="#E2E2F0" height="41.24" rx="2.5" ry="2.5" style="stroke:#181818;stroke-width:0.5;" width="163" x="971.25" y="375.1598"/><text fill="#000000" font-family="sans-serif" font-size="20" lengthAdjust="spacing" textLength="149" x="978.25" y="403.5398">dto:requestDTO</text><polygon fill="#181818" points="871.125,456.6397,861.125,460.6397,871.125,464.6397,867.125,460.6397" style="stroke:#181818;stroke-width:1.0;"/><line style="stroke:#181818;stroke-width:1.0;stroke-dasharray:2.0,2.0;" x1="865.125" x2="1051.75" y1="460.6397" y2="460.6397"/><text fill="#000000" font-family="sans-serif" font-size="20" font-weight="bold" lengthAdjust="spacing" textLength="11.625" x="877.125" y="452.7797">8</text><text fill="#000000" font-family="sans-serif" font-size="20" lengthAdjust="spacing" textLength="148" x="892.75" y="452.7797">sucess(reqDTO)</text><polygon fill="#181818" points="643.5,497.8797,633.5,501.8797,643.5,505.8797,639.5,501.8797" style="stroke:#181818;stroke-width:1.0;"/><line style="stroke:#181818;stroke-width:1.0;stroke-dasharray:2.0,2.0;" x1="637.5" x2="854.125" y1="501.8797" y2="501.8797"/><text fill="#000000" font-family="sans-serif" font-size="20" font-weight="bold" lengthAdjust="spacing" textLength="11.625" x="649.5" y="494.0197">9</text><text fill="#000000" font-family="sans-serif" font-size="20" lengthAdjust="spacing" textLength="148" x="665.125" y="494.0197">sucess(reqDTO)</text><polygon fill="#181818" points="415.875,539.1197,405.875,543.1197,415.875,547.1197,411.875,543.1197" style="stroke:#181818;stroke-width:1.0;"/><line style="stroke:#181818;stroke-width:1.0;stroke-dasharray:2.0,2.0;" x1="409.875" x2="626.5" y1="543.1197" y2="543.1197"/><text fill="#000000" font-family="sans-serif" font-size="20" font-weight="bold" lengthAdjust="spacing" textLength="23.25" x="421.875" y="535.2597">10</text><text fill="#000000" font-family="sans-serif" font-size="20" lengthAdjust="spacing" textLength="148" x="449.125" y="535.2597">sucess(reqDTO)</text><polygon fill="#181818" points="206.625,580.3596,196.625,584.3596,206.625,588.3596,202.625,584.3596" style="stroke:#181818;stroke-width:1.0;"/><line style="stroke:#181818;stroke-width:1.0;stroke-dasharray:2.0,2.0;" x1="200.625" x2="398.875" y1="584.3596" y2="584.3596"/><text fill="#000000" font-family="sans-serif" font-size="20" font-weight="bold" lengthAdjust="spacing" textLength="23.25" x="212.625" y="576.4997">11</text><text fill="#000000" font-family="sans-serif" font-size="20" lengthAdjust="spacing" textLength="148" x="239.875" y="576.4997">sucess(reqDTO)</text><polygon fill="#181818" points="11,621.5996,1,625.5996,11,629.5996,7,625.5996" style="stroke:#181818;stroke-width:1.0;"/><line style="stroke:#181818;stroke-width:1.0;stroke-dasharray:2.0,2.0;" x1="5" x2="189.625" y1="625.5996" y2="625.5996"/><text fill="#000000" font-family="sans-serif" font-size="20" font-weight="bold" lengthAdjust="spacing" textLength="23.25" x="17" y="617.7396">12</text><text fill="#000000" font-family="sans-serif" font-size="20" lengthAdjust="spacing" textLength="66" x="44.25" y="617.7396">201 OK</text><!--SRC=[XP91Ru8m5CVl_HGDkwW9cJCx4SCInItB91Z4dNQfyEQ8sBgsc6MVVWyA3C6v4w7z_VhU-xTgd_8Za-oGYNWF2KtWdUMPVXHShzDle9CnORaMF3ziGPAj-ABMT1hZBaivI3gOtmzTzutx7lKPPpiu0DSMHGI_85ttPfdkFlIJ1E24KgoaqpWzCgvf66oY1MMAMaueSWrMPtyUXKlVymmnnufIP1b8Ym1FA3P2hdOJCRLN_KPcMGwTEhuN5QNwTNhOEdmrr1haAOtX0k95GOaaMZWIFdDG6fSkWE5Y5LJ3mr5qWTdcUMachmv1glosfdyGjbk5wD1Li8xeRGKhmcATdfW6iq-8mP2lGtLeB061GQKCVvKA8QHcKQipwceuMykiA49gt9X5RF-A29LU0HkjJEXVhw1AiSJHBACRZHgJ9D3cyO0MRYhXMal0lw9Qhr9j5bTijoTJUGnADKw_tlbAqt4vwbcuLq-g4pB9djtbLSzSINEPhKVpjrQ_WQbjD_HaV4U3bpPb7jSF]--></g></svg>