<?xml version="1.0" encoding="UTF-8" standalone="no"?><svg xmlns="http://www.w3.org/2000/svg" xmlns:xlink="http://www.w3.org/1999/xlink" contentStyleType="text/css" height="631px" preserveAspectRatio="none" style="width:1756px;height:631px;background:#FFFFFF;" version="1.1" viewBox="0 0 1756 631" width="1756px" zoomAndPan="magnify"><defs/><g><rect fill="#90EE90" height="619.5" style="stroke:#181818;stroke-width:0.5;" width="332" x="158" y="6"/><text fill="#000000" font-family="sans-serif" font-size="20" font-weight="bold" lengthAdjust="spacing" textLength="189" x="227.5" y="24.5645">«container (C4)»</text><text fill="#000000" font-family="sans-serif" font-size="20" font-weight="bold" lengthAdjust="spacing" textLength="193" x="227.5" y="47.8457">MD Management</text><rect fill="#ADD8E6" height="619.5" style="stroke:#181818;stroke-width:0.5;" width="1143.5" x="607" y="6"/><text fill="#000000" font-family="sans-serif" font-size="20" font-weight="bold" lengthAdjust="spacing" textLength="189" x="1084.25" y="24.5645">«container (C4)»</text><text fill="#000000" font-family="sans-serif" font-size="20" font-weight="bold" lengthAdjust="spacing" textLength="109" x="1084.25" y="47.8457">MD Tasks</text><rect fill="#FFFFFF" height="432.0938" style="stroke:#181818;stroke-width:1.0;" width="10" x="197" y="134.125"/><rect fill="#FFFFFF" height="357.5313" style="stroke:#181818;stroke-width:1.0;" width="10" x="421" y="171.4063"/><rect fill="#FFFFFF" height="282.9688" style="stroke:#181818;stroke-width:1.0;" width="10" x="666" y="208.6875"/><rect fill="#FFFFFF" height="208.4063" style="stroke:#181818;stroke-width:1.0;" width="10" x="911" y="245.9688"/><rect fill="#FFFFFF" height="38.2813" style="stroke:#181818;stroke-width:1.0;" width="10" x="1121" y="378.8125"/><rect fill="#FFFFFF" height="133.8438" style="stroke:#181818;stroke-width:1.0;" width="10" x="1452.5" y="283.25"/><line style="stroke:#181818;stroke-width:0.5;stroke-dasharray:5.0,5.0;" x1="202" x2="202" y1="94.8438" y2="584.2188"/><line style="stroke:#181818;stroke-width:0.5;stroke-dasharray:5.0,5.0;" x1="426" x2="426" y1="94.8438" y2="584.2188"/><line style="stroke:#181818;stroke-width:0.5;stroke-dasharray:5.0,5.0;" x1="671" x2="671" y1="94.8438" y2="584.2188"/><line style="stroke:#181818;stroke-width:0.5;stroke-dasharray:5.0,5.0;" x1="916" x2="916" y1="94.8438" y2="584.2188"/><line style="stroke:#181818;stroke-width:0.5;stroke-dasharray:5.0,5.0;" x1="1125.5" x2="1125.5" y1="373.6719" y2="584.2188"/><line style="stroke:#181818;stroke-width:0.5;stroke-dasharray:5.0,5.0;" x1="1457.5" x2="1457.5" y1="94.8438" y2="584.2188"/><line style="stroke:#181818;stroke-width:0.5;stroke-dasharray:5.0,5.0;" x1="1656.5" x2="1656.5" y1="325.3906" y2="584.2188"/><rect fill="#E2E2F0" height="37.2813" rx="2.5" ry="2.5" style="stroke:#181818;stroke-width:0.5;" width="80" x="162" y="56.5625"/><text fill="#000000" font-family="sans-serif" font-size="20" lengthAdjust="spacing" textLength="66" x="169" y="82.127">:Route</text><rect fill="#E2E2F0" height="37.2813" rx="2.5" ry="2.5" style="stroke:#181818;stroke-width:0.5;" width="80" x="162" y="583.2188"/><text fill="#000000" font-family="sans-serif" font-size="20" lengthAdjust="spacing" textLength="66" x="169" y="608.7832">:Route</text><rect fill="#E2E2F0" height="37.2813" rx="2.5" ry="2.5" style="stroke:#181818;stroke-width:0.5;" width="120" x="366" y="56.5625"/><text fill="#000000" font-family="sans-serif" font-size="20" lengthAdjust="spacing" textLength="106" x="373" y="82.127">:Controller</text><rect fill="#E2E2F0" height="37.2813" rx="2.5" ry="2.5" style="stroke:#181818;stroke-width:0.5;" width="120" x="366" y="583.2188"/><text fill="#000000" font-family="sans-serif" font-size="20" lengthAdjust="spacing" textLength="106" x="373" y="608.7832">:Controller</text><rect fill="#E2E2F0" height="37.2813" rx="2.5" ry="2.5" style="stroke:#181818;stroke-width:0.5;" width="120" x="611" y="56.5625"/><text fill="#000000" font-family="sans-serif" font-size="20" lengthAdjust="spacing" textLength="106" x="618" y="82.127">:Controller</text><rect fill="#E2E2F0" height="37.2813" rx="2.5" ry="2.5" style="stroke:#181818;stroke-width:0.5;" width="120" x="611" y="583.2188"/><text fill="#000000" font-family="sans-serif" font-size="20" lengthAdjust="spacing" textLength="106" x="618" y="608.7832">:Controller</text><rect fill="#E2E2F0" height="37.2813" rx="2.5" ry="2.5" style="stroke:#181818;stroke-width:0.5;" width="94" x="869" y="56.5625"/><text fill="#000000" font-family="sans-serif" font-size="20" lengthAdjust="spacing" textLength="80" x="876" y="82.127">:Service</text><rect fill="#E2E2F0" height="37.2813" rx="2.5" ry="2.5" style="stroke:#181818;stroke-width:0.5;" width="94" x="869" y="583.2188"/><text fill="#000000" font-family="sans-serif" font-size="20" lengthAdjust="spacing" textLength="80" x="876" y="608.7832">:Service</text><rect fill="#E2E2F0" height="37.2813" rx="2.5" ry="2.5" style="stroke:#181818;stroke-width:0.5;" width="173" x="1039.5" y="583.2188"/><text fill="#000000" font-family="sans-serif" font-size="20" lengthAdjust="spacing" textLength="159" x="1046.5" y="608.7832">dto:requestDTO</text><rect fill="#E2E2F0" height="37.2813" rx="2.5" ry="2.5" style="stroke:#181818;stroke-width:0.5;" width="72" x="1421.5" y="56.5625"/><text fill="#000000" font-family="sans-serif" font-size="20" lengthAdjust="spacing" textLength="58" x="1428.5" y="82.127">:Repo</text><rect fill="#E2E2F0" height="37.2813" rx="2.5" ry="2.5" style="stroke:#181818;stroke-width:0.5;" width="72" x="1421.5" y="583.2188"/><text fill="#000000" font-family="sans-serif" font-size="20" lengthAdjust="spacing" textLength="58" x="1428.5" y="608.7832">:Repo</text><rect fill="#E2E2F0" height="37.2813" rx="2.5" ry="2.5" style="stroke:#181818;stroke-width:0.5;" width="179" x="1567.5" y="583.2188"/><text fill="#000000" font-family="sans-serif" font-size="20" lengthAdjust="spacing" textLength="165" x="1574.5" y="608.7832">request:Request</text><rect fill="#FFFFFF" height="432.0938" style="stroke:#181818;stroke-width:1.0;" width="10" x="197" y="134.125"/><rect fill="#FFFFFF" height="357.5313" style="stroke:#181818;stroke-width:1.0;" width="10" x="421" y="171.4063"/><rect fill="#FFFFFF" height="282.9688" style="stroke:#181818;stroke-width:1.0;" width="10" x="666" y="208.6875"/><rect fill="#FFFFFF" height="208.4063" style="stroke:#181818;stroke-width:1.0;" width="10" x="911" y="245.9688"/><rect fill="#FFFFFF" height="38.2813" style="stroke:#181818;stroke-width:1.0;" width="10" x="1121" y="378.8125"/><rect fill="#FFFFFF" height="133.8438" style="stroke:#181818;stroke-width:1.0;" width="10" x="1452.5" y="283.25"/><ellipse cx="4.5" cy="133.375" fill="none" rx="4" ry="4" style="stroke:#181818;stroke-width:1.5;"/><polygon fill="#181818" points="185,130.125,195,134.125,185,138.125,189,134.125" style="stroke:#181818;stroke-width:1.0;"/><line style="stroke:#181818;stroke-width:1.0;" x1="9" x2="191" y1="134.125" y2="134.125"/><text fill="#000000" font-family="sans-serif" font-size="20" font-weight="bold" lengthAdjust="spacing" textLength="14" x="12" y="127.4082">1</text><text fill="#000000" font-family="sans-serif" font-size="20" lengthAdjust="spacing" textLength="152" x="30" y="127.4082">POST /requests</text><polygon fill="#181818" points="409,167.4063,419,171.4063,409,175.4063,413,171.4063" style="stroke:#181818;stroke-width:1.0;"/><line style="stroke:#181818;stroke-width:1.0;" x1="207" x2="415" y1="171.4063" y2="171.4063"/><text fill="#000000" font-family="sans-serif" font-size="20" font-weight="bold" lengthAdjust="spacing" textLength="14" x="214" y="164.6895">2</text><text fill="#000000" font-family="sans-serif" font-size="20" lengthAdjust="spacing" textLength="155" x="232" y="164.6895">create(request)</text><polygon fill="#181818" points="654,204.6875,664,208.6875,654,212.6875,658,208.6875" style="stroke:#181818;stroke-width:1.0;"/><line style="stroke:#181818;stroke-width:1.0;" x1="431" x2="660" y1="208.6875" y2="208.6875"/><text fill="#000000" font-family="sans-serif" font-size="20" font-weight="bold" lengthAdjust="spacing" textLength="14" x="438" y="201.9707">3</text><text fill="#000000" font-family="sans-serif" font-size="20" lengthAdjust="spacing" textLength="198" x="456" y="201.9707">create(requestDTO)</text><polygon fill="#181818" points="899,241.9688,909,245.9688,899,249.9688,903,245.9688" style="stroke:#181818;stroke-width:1.0;"/><line style="stroke:#181818;stroke-width:1.0;" x1="676" x2="905" y1="245.9688" y2="245.9688"/><text fill="#000000" font-family="sans-serif" font-size="20" font-weight="bold" lengthAdjust="spacing" textLength="14" x="683" y="239.252">4</text><text fill="#000000" font-family="sans-serif" font-size="20" lengthAdjust="spacing" textLength="198" x="701" y="239.252">create(requestDTO)</text><polygon fill="#181818" points="1440.5,279.25,1450.5,283.25,1440.5,287.25,1444.5,283.25" style="stroke:#181818;stroke-width:1.0;"/><line style="stroke:#181818;stroke-width:1.0;" x1="921" x2="1446.5" y1="283.25" y2="283.25"/><text fill="#000000" font-family="sans-serif" font-size="20" font-weight="bold" lengthAdjust="spacing" textLength="14" x="928" y="276.5332">5</text><text fill="#000000" font-family="sans-serif" font-size="20" lengthAdjust="spacing" textLength="198" x="946" y="276.5332">create(requestDTO)</text><polygon fill="#181818" points="1555.5,316.5313,1565.5,320.5313,1555.5,324.5313,1559.5,320.5313" style="stroke:#181818;stroke-width:1.0;"/><line style="stroke:#181818;stroke-width:1.0;" x1="1462.5" x2="1561.5" y1="320.5313" y2="320.5313"/><text fill="#000000" font-family="sans-serif" font-size="20" font-weight="bold" lengthAdjust="spacing" textLength="14" x="1469.5" y="313.8145">6</text><text fill="#000000" font-family="sans-serif" font-size="20" lengthAdjust="spacing" textLength="63" x="1487.5" y="313.8145">create</text><rect fill="#E2E2F0" height="37.2813" rx="2.5" ry="2.5" style="stroke:#181818;stroke-width:0.5;" width="179" x="1567.5" y="291.25"/><text fill="#000000" font-family="sans-serif" font-size="20" lengthAdjust="spacing" textLength="165" x="1574.5" y="316.8145">request:Request</text><polygon fill="#181818" points="1223.5,364.8125,1213.5,368.8125,1223.5,372.8125,1219.5,368.8125" style="stroke:#181818;stroke-width:1.0;"/><line style="stroke:#181818;stroke-width:1.0;stroke-dasharray:2.0,2.0;" x1="1217.5" x2="1451.5" y1="368.8125" y2="368.8125"/><text fill="#000000" font-family="sans-serif" font-size="20" font-weight="bold" lengthAdjust="spacing" textLength="14" x="1229.5" y="362.0957">7</text><text fill="#000000" font-family="sans-serif" font-size="20" lengthAdjust="spacing" textLength="198" x="1247.5" y="362.0957">createDTO(reqDTO)</text><rect fill="#E2E2F0" height="37.2813" rx="2.5" ry="2.5" style="stroke:#181818;stroke-width:0.5;" width="173" x="1039.5" y="339.5313"/><text fill="#000000" font-family="sans-serif" font-size="20" lengthAdjust="spacing" textLength="159" x="1046.5" y="365.0957">dto:requestDTO</text><polygon fill="#181818" points="932,413.0938,922,417.0938,932,421.0938,928,417.0938" style="stroke:#181818;stroke-width:1.0;"/><line style="stroke:#181818;stroke-width:1.0;stroke-dasharray:2.0,2.0;" x1="926" x2="1125" y1="417.0938" y2="417.0938"/><text fill="#000000" font-family="sans-serif" font-size="20" font-weight="bold" lengthAdjust="spacing" textLength="14" x="938" y="410.377">8</text><text fill="#000000" font-family="sans-serif" font-size="20" lengthAdjust="spacing" textLength="158" x="956" y="410.377">sucess(reqDTO)</text><polygon fill="#181818" points="687,450.375,677,454.375,687,458.375,683,454.375" style="stroke:#181818;stroke-width:1.0;"/><line style="stroke:#181818;stroke-width:1.0;stroke-dasharray:2.0,2.0;" x1="681" x2="915" y1="454.375" y2="454.375"/><text fill="#000000" font-family="sans-serif" font-size="20" font-weight="bold" lengthAdjust="spacing" textLength="14" x="693" y="447.6582">9</text><text fill="#000000" font-family="sans-serif" font-size="20" lengthAdjust="spacing" textLength="158" x="711" y="447.6582">sucess(reqDTO)</text><polygon fill="#181818" points="442,487.6563,432,491.6563,442,495.6563,438,491.6563" style="stroke:#181818;stroke-width:1.0;"/><line style="stroke:#181818;stroke-width:1.0;stroke-dasharray:2.0,2.0;" x1="436" x2="670" y1="491.6563" y2="491.6563"/><text fill="#000000" font-family="sans-serif" font-size="20" font-weight="bold" lengthAdjust="spacing" textLength="28" x="448" y="484.9395">10</text><text fill="#000000" font-family="sans-serif" font-size="20" lengthAdjust="spacing" textLength="158" x="480" y="484.9395">sucess(reqDTO)</text><polygon fill="#181818" points="218,524.9375,208,528.9375,218,532.9375,214,528.9375" style="stroke:#181818;stroke-width:1.0;"/><line style="stroke:#181818;stroke-width:1.0;stroke-dasharray:2.0,2.0;" x1="212" x2="425" y1="528.9375" y2="528.9375"/><text fill="#000000" font-family="sans-serif" font-size="20" font-weight="bold" lengthAdjust="spacing" textLength="28" x="224" y="522.2207">11</text><text fill="#000000" font-family="sans-serif" font-size="20" lengthAdjust="spacing" textLength="158" x="256" y="522.2207">sucess(reqDTO)</text><polygon fill="#181818" points="11,562.2188,1,566.2188,11,570.2188,7,566.2188" style="stroke:#181818;stroke-width:1.0;"/><line style="stroke:#181818;stroke-width:1.0;stroke-dasharray:2.0,2.0;" x1="5" x2="201" y1="566.2188" y2="566.2188"/><text fill="#000000" font-family="sans-serif" font-size="20" font-weight="bold" lengthAdjust="spacing" textLength="28" x="17" y="559.502">12</text><text fill="#000000" font-family="sans-serif" font-size="20" lengthAdjust="spacing" textLength="74" x="49" y="559.502">201 OK</text><!--SRC=[XP91Ru8m5CVl_HGDkwW9cJCx4SCInItB91Z4dNQfyEQ8sBgsc6MVVWyA3C6v4w7z_VhU-xTgd_8Za-oGYNWF2KtWdUMPVXHShzDle9CnORaMF3ziGPAj-ABMT1hZBaivI3gOtmzTzutx7lKPPpiu0DSMHGI_85ttPfdkFlIJ1E24KgoaqpWzCgvf66oY1MMAMaueSWrMPtyUXKlVymmnnufIP1b8Ym1FA3P2hdOJCRLN_KPcMGwTEhuN5QNwTNhOEdmrr1haAOtX0k95GOaaMZWIFdDG6fSkWE5Y5LJ3mr5qWTdcUMachmv1glosfdyGjbk5wD1Li8xeRGKhmcATdfW6iq-8mP2lGtLeB061GQKCVvKA8QHcKQipwceuMykiA49gt9X5RF-A29LU0HkjJEXVhw1AiSJHBACRZHgJ9D3cyO0MRYhXMal0lw9Qhr9j5bTijoTJUGnADKw_tlbAqt4vwbcuLq-g4pB9djtbLSzSINEPhKVpjrQ_WQbjD_HaV4U3bpPb7jSF]--></g></svg>