<?xml version="1.0" encoding="UTF-8" standalone="no"?><svg xmlns="http://www.w3.org/2000/svg" xmlns:xlink="http://www.w3.org/1999/xlink" contentStyleType="text/css" height="703px" preserveAspectRatio="none" style="width:959px;height:703px;background:#FFFFFF;" version="1.1" viewBox="0 0 959 703" width="959px" zoomAndPan="magnify"><defs/><g><rect fill="#FFFFFF" height="520.4001" style="stroke:#181818;stroke-width:1.0;" width="10" x="33" y="91.7999"/><rect fill="#FFFFFF" height="88.8" style="stroke:#181818;stroke-width:1.0;" width="10" x="216" y="138"/><rect fill="#FFFFFF" height="148.0001" style="stroke:#181818;stroke-width:1.0;" width="10" x="216" y="256.4"/><rect fill="#FFFFFF" height="148.0001" style="stroke:#181818;stroke-width:1.0;" width="10" x="216" y="449.2"/><rect fill="#FFFFFF" height="29.6" style="stroke:#181818;stroke-width:1.0;" width="10" x="505" y="167.6"/><rect fill="#FFFFFF" height="88.8" style="stroke:#181818;stroke-width:1.0;" width="10" x="505" y="286"/><rect fill="#FFFFFF" height="88.8" style="stroke:#181818;stroke-width:1.0;" width="10" x="505" y="478.8"/><rect fill="#FFFFFF" height="29.6" style="stroke:#181818;stroke-width:1.0;" width="10" x="764" y="315.6"/><rect fill="#FFFFFF" height="29.6" style="stroke:#181818;stroke-width:1.0;" width="10" x="764" y="508.4"/><rect fill="none" height="506.4001" style="stroke:#000000;stroke-width:1.5;" width="836" x="10" y="98.7999"/><line style="stroke:#181818;stroke-width:0.5;stroke-dasharray:5.0,5.0;" x1="38" x2="38" y1="81.7999" y2="622.2001"/><line style="stroke:#181818;stroke-width:0.5;stroke-dasharray:5.0,5.0;" x1="220.5" x2="220.5" y1="81.7999" y2="622.2001"/><line style="stroke:#181818;stroke-width:0.5;stroke-dasharray:5.0,5.0;" x1="509.5" x2="509.5" y1="81.7999" y2="622.2001"/><line style="stroke:#181818;stroke-width:0.5;stroke-dasharray:5.0,5.0;" x1="769" x2="769" y1="81.7999" y2="622.2001"/><line style="stroke:#181818;stroke-width:0.5;stroke-dasharray:5.0,5.0;" x1="899" x2="899" y1="81.7999" y2="622.2001"/><text fill="#000000" font-family="sans-serif" font-size="14" lengthAdjust="spacing" textLength="30" x="20" y="78.0059">User</text><ellipse cx="38" cy="13.5" fill="#E2E2F0" rx="8" ry="8" style="stroke:#181818;stroke-width:0.5;"/><path d="M38,21.5 L38,48.5 M25,29.5 L51,29.5 M38,48.5 L25,63.5 M38,48.5 L51,63.5 " fill="none" style="stroke:#181818;stroke-width:0.5;"/><text fill="#000000" font-family="sans-serif" font-size="14" lengthAdjust="spacing" textLength="30" x="20" y="634.206">User</text><ellipse cx="38" cy="646.5" fill="#E2E2F0" rx="8" ry="8" style="stroke:#181818;stroke-width:0.5;"/><path d="M38,654.5 L38,681.5 M25,662.5 L51,662.5 M38,681.5 L25,696.5 M38,681.5 L51,696.5 " fill="none" style="stroke:#181818;stroke-width:0.5;"/><rect fill="#E2E2F0" height="49.6998" rx="2.5" ry="2.5" style="stroke:#181818;stroke-width:0.5;" width="107" x="167.5" y="31.1001"/><text fill="#000000" font-family="sans-serif" font-size="14" font-style="italic" lengthAdjust="spacing" textLength="93" x="174.5" y="53.5">«system (C4)»</text><text fill="#000000" font-family="sans-serif" font-size="14" lengthAdjust="spacing" textLength="79" x="181.5" y="70.0059">Visualization</text><rect fill="#E2E2F0" height="49.6998" rx="2.5" ry="2.5" style="stroke:#181818;stroke-width:0.5;" width="107" x="167.5" y="621.2001"/><text fill="#000000" font-family="sans-serif" font-size="14" font-style="italic" lengthAdjust="spacing" textLength="93" x="174.5" y="643.6">«system (C4)»</text><text fill="#000000" font-family="sans-serif" font-size="14" lengthAdjust="spacing" textLength="79" x="181.5" y="660.1059">Visualization</text><rect fill="#E2E2F0" height="49.6998" rx="2.5" ry="2.5" style="stroke:#181818;stroke-width:0.5;" width="107" x="456.5" y="31.1001"/><text fill="#000000" font-family="sans-serif" font-size="14" font-style="italic" lengthAdjust="spacing" textLength="93" x="463.5" y="53.5">«system (C4)»</text><text fill="#000000" font-family="sans-serif" font-size="14" lengthAdjust="spacing" textLength="32" x="494" y="70.0059">MDD</text><rect fill="#E2E2F0" height="49.6998" rx="2.5" ry="2.5" style="stroke:#181818;stroke-width:0.5;" width="107" x="456.5" y="621.2001"/><text fill="#000000" font-family="sans-serif" font-size="14" font-style="italic" lengthAdjust="spacing" textLength="93" x="463.5" y="643.6">«system (C4)»</text><text fill="#000000" font-family="sans-serif" font-size="14" lengthAdjust="spacing" textLength="32" x="494" y="660.1059">MDD</text><rect fill="#E2E2F0" height="49.6998" rx="2.5" ry="2.5" style="stroke:#181818;stroke-width:0.5;" width="134" x="702" y="31.1001"/><text fill="#000000" font-family="sans-serif" font-size="14" font-style="italic" lengthAdjust="spacing" textLength="93" x="722.5" y="53.5">«system (C4)»</text><text fill="#000000" font-family="sans-serif" font-size="14" lengthAdjust="spacing" textLength="120" x="709" y="70.0059">Tasks Master Data</text><rect fill="#E2E2F0" height="49.6998" rx="2.5" ry="2.5" style="stroke:#181818;stroke-width:0.5;" width="134" x="702" y="621.2001"/><text fill="#000000" font-family="sans-serif" font-size="14" font-style="italic" lengthAdjust="spacing" textLength="93" x="722.5" y="643.6">«system (C4)»</text><text fill="#000000" font-family="sans-serif" font-size="14" lengthAdjust="spacing" textLength="120" x="709" y="660.1059">Tasks Master Data</text><rect fill="#E2E2F0" height="49.6998" rx="2.5" ry="2.5" style="stroke:#181818;stroke-width:0.5;" width="107" x="846" y="31.1001"/><text fill="#000000" font-family="sans-serif" font-size="14" font-style="italic" lengthAdjust="spacing" textLength="93" x="853" y="53.5">«system (C4)»</text><text fill="#000000" font-family="sans-serif" font-size="14" lengthAdjust="spacing" textLength="55" x="872" y="70.0059">Planning</text><rect fill="#E2E2F0" height="49.6998" rx="2.5" ry="2.5" style="stroke:#181818;stroke-width:0.5;" width="107" x="846" y="621.2001"/><text fill="#000000" font-family="sans-serif" font-size="14" font-style="italic" lengthAdjust="spacing" textLength="93" x="853" y="643.6">«system (C4)»</text><text fill="#000000" font-family="sans-serif" font-size="14" lengthAdjust="spacing" textLength="55" x="872" y="660.1059">Planning</text><rect fill="#FFFFFF" height="520.4001" style="stroke:#181818;stroke-width:1.0;" width="10" x="33" y="91.7999"/><rect fill="#FFFFFF" height="88.8" style="stroke:#181818;stroke-width:1.0;" width="10" x="216" y="138"/><rect fill="#FFFFFF" height="148.0001" style="stroke:#181818;stroke-width:1.0;" width="10" x="216" y="256.4"/><rect fill="#FFFFFF" height="148.0001" style="stroke:#181818;stroke-width:1.0;" width="10" x="216" y="449.2"/><rect fill="#FFFFFF" height="29.6" style="stroke:#181818;stroke-width:1.0;" width="10" x="505" y="167.6"/><rect fill="#FFFFFF" height="88.8" style="stroke:#181818;stroke-width:1.0;" width="10" x="505" y="286"/><rect fill="#FFFFFF" height="88.8" style="stroke:#181818;stroke-width:1.0;" width="10" x="505" y="478.8"/><rect fill="#FFFFFF" height="29.6" style="stroke:#181818;stroke-width:1.0;" width="10" x="764" y="315.6"/><rect fill="#FFFFFF" height="29.6" style="stroke:#181818;stroke-width:1.0;" width="10" x="764" y="508.4"/><path d="M10,98.7999 L70,98.7999 L70,106.3999 L60,116.3999 L10,116.3999 L10,98.7999 " fill="#EEEEEE" style="stroke:#000000;stroke-width:1.5;"/><rect fill="none" height="506.4001" style="stroke:#000000;stroke-width:1.5;" width="836" x="10" y="98.7999"/><text fill="#000000" font-family="sans-serif" font-size="13" font-weight="bold" lengthAdjust="spacing" textLength="15" x="25" y="111.8769">alt</text><text fill="#000000" font-family="sans-serif" font-size="11" font-weight="bold" lengthAdjust="spacing" textLength="100" x="85" y="111.0189">[approves request]</text><polygon fill="#181818" points="204,134,214,138,204,142,208,138" style="stroke:#181818;stroke-width:1.0;"/><line style="stroke:#181818;stroke-width:1.0;" x1="43" x2="210" y1="138" y2="138"/><text fill="#000000" font-family="sans-serif" font-size="13" font-weight="bold" lengthAdjust="spacing" textLength="7" x="50" y="132.477">1</text><text fill="#000000" font-family="sans-serif" font-size="13" lengthAdjust="spacing" textLength="111" x="61" y="132.477">approves a request</text><polygon fill="#181818" points="493,163.6,503,167.6,493,171.6,497,167.6" style="stroke:#181818;stroke-width:1.0;"/><line style="stroke:#181818;stroke-width:1.0;" x1="226" x2="499" y1="167.6" y2="167.6"/><text fill="#000000" font-family="sans-serif" font-size="13" font-weight="bold" lengthAdjust="spacing" textLength="7" x="233" y="162.077">2</text><text fill="#000000" font-family="sans-serif" font-size="13" lengthAdjust="spacing" textLength="249" x="244" y="162.077">GET /robots?filter=task&amp;value={task_type}</text><polygon fill="#181818" points="237,193.2,227,197.2,237,201.2,233,197.2" style="stroke:#181818;stroke-width:1.0;"/><line style="stroke:#181818;stroke-width:1.0;stroke-dasharray:2.0,2.0;" x1="231" x2="509" y1="197.2" y2="197.2"/><text fill="#000000" font-family="sans-serif" font-size="13" font-weight="bold" lengthAdjust="spacing" textLength="7" x="243" y="191.677">3</text><text fill="#000000" font-family="sans-serif" font-size="13" lengthAdjust="spacing" textLength="92" x="254" y="191.677">200 OK (robots)</text><polygon fill="#181818" points="54,222.8,44,226.8,54,230.8,50,226.8" style="stroke:#181818;stroke-width:1.0;"/><line style="stroke:#181818;stroke-width:1.0;stroke-dasharray:2.0,2.0;" x1="48" x2="220" y1="226.8" y2="226.8"/><text fill="#000000" font-family="sans-serif" font-size="13" font-weight="bold" lengthAdjust="spacing" textLength="7" x="60" y="221.277">4</text><text fill="#000000" font-family="sans-serif" font-size="13" lengthAdjust="spacing" textLength="137" x="71" y="221.277">asks to select the robot</text><polygon fill="#181818" points="54,252.4,44,256.4,54,260.4,50,256.4" style="stroke:#181818;stroke-width:1.0;"/><line style="stroke:#181818;stroke-width:1.0;" x1="48" x2="215" y1="256.4" y2="256.4"/><text fill="#000000" font-family="sans-serif" font-size="13" font-weight="bold" lengthAdjust="spacing" textLength="7" x="60" y="250.877">5</text><text fill="#000000" font-family="sans-serif" font-size="13" lengthAdjust="spacing" textLength="143" x="71" y="250.877">selects the desired robot</text><polygon fill="#181818" points="493,282,503,286,493,290,497,286" style="stroke:#181818;stroke-width:1.0;"/><line style="stroke:#181818;stroke-width:1.0;" x1="226" x2="499" y1="286" y2="286"/><text fill="#000000" font-family="sans-serif" font-size="13" font-weight="bold" lengthAdjust="spacing" textLength="7" x="233" y="280.477">6</text><text fill="#000000" font-family="sans-serif" font-size="13" lengthAdjust="spacing" textLength="248" x="244" y="280.477">PATCH /task-requests/{id}/accept {robotId}</text><polygon fill="#181818" points="752,311.6,762,315.6,752,319.6,756,315.6" style="stroke:#181818;stroke-width:1.0;"/><line style="stroke:#181818;stroke-width:1.0;" x1="515" x2="758" y1="315.6" y2="315.6"/><text fill="#000000" font-family="sans-serif" font-size="13" font-weight="bold" lengthAdjust="spacing" textLength="7" x="522" y="310.077">7</text><text fill="#000000" font-family="sans-serif" font-size="13" lengthAdjust="spacing" textLength="219" x="533" y="310.077">PATCH /requests/{id}/accept {robotId}</text><polygon fill="#181818" points="526,341.2001,516,345.2001,526,349.2001,522,345.2001" style="stroke:#181818;stroke-width:1.0;"/><line style="stroke:#181818;stroke-width:1.0;stroke-dasharray:2.0,2.0;" x1="520" x2="768" y1="345.2001" y2="345.2001"/><text fill="#000000" font-family="sans-serif" font-size="13" font-weight="bold" lengthAdjust="spacing" textLength="7" x="532" y="339.677">8</text><text fill="#000000" font-family="sans-serif" font-size="13" lengthAdjust="spacing" textLength="128" x="543" y="339.677">200 OK (task request)</text><polygon fill="#181818" points="237,370.8001,227,374.8001,237,378.8001,233,374.8001" style="stroke:#181818;stroke-width:1.0;"/><line style="stroke:#181818;stroke-width:1.0;stroke-dasharray:2.0,2.0;" x1="231" x2="509" y1="374.8001" y2="374.8001"/><text fill="#000000" font-family="sans-serif" font-size="13" font-weight="bold" lengthAdjust="spacing" textLength="7" x="243" y="369.2771">9</text><text fill="#000000" font-family="sans-serif" font-size="13" lengthAdjust="spacing" textLength="128" x="254" y="369.2771">200 OK (task request)</text><polygon fill="#181818" points="54,400.4001,44,404.4001,54,408.4001,50,404.4001" style="stroke:#181818;stroke-width:1.0;"/><line style="stroke:#181818;stroke-width:1.0;stroke-dasharray:2.0,2.0;" x1="48" x2="220" y1="404.4001" y2="404.4001"/><text fill="#000000" font-family="sans-serif" font-size="13" font-weight="bold" lengthAdjust="spacing" textLength="14" x="60" y="398.8771">10</text><text fill="#000000" font-family="sans-serif" font-size="13" lengthAdjust="spacing" textLength="128" x="78" y="398.8771">200 OK (task request)</text><line style="stroke:#000000;stroke-width:1.0;stroke-dasharray:2.0,2.0;" x1="10" x2="846" y1="413.4001" y2="413.4001"/><text fill="#000000" font-family="sans-serif" font-size="11" font-weight="bold" lengthAdjust="spacing" textLength="86" x="15" y="423.619">[rejects request]</text><polygon fill="#181818" points="54,445.2,44,449.2,54,453.2,50,449.2" style="stroke:#181818;stroke-width:1.0;"/><line style="stroke:#181818;stroke-width:1.0;" x1="48" x2="215" y1="449.2" y2="449.2"/><text fill="#000000" font-family="sans-serif" font-size="13" font-weight="bold" lengthAdjust="spacing" textLength="14" x="60" y="443.677">11</text><text fill="#000000" font-family="sans-serif" font-size="13" lengthAdjust="spacing" textLength="97" x="78" y="443.677">rejects a request</text><polygon fill="#181818" points="493,474.8,503,478.8,493,482.8,497,478.8" style="stroke:#181818;stroke-width:1.0;"/><line style="stroke:#181818;stroke-width:1.0;" x1="226" x2="499" y1="478.8" y2="478.8"/><text fill="#000000" font-family="sans-serif" font-size="13" font-weight="bold" lengthAdjust="spacing" textLength="14" x="233" y="473.277">12</text><text fill="#000000" font-family="sans-serif" font-size="13" lengthAdjust="spacing" textLength="189" x="251" y="473.277">PATCH /task-requests/{id}/reject</text><polygon fill="#181818" points="752,504.4,762,508.4,752,512.4,756,508.4" style="stroke:#181818;stroke-width:1.0;"/><line style="stroke:#181818;stroke-width:1.0;" x1="515" x2="758" y1="508.4" y2="508.4"/><text fill="#000000" font-family="sans-serif" font-size="13" font-weight="bold" lengthAdjust="spacing" textLength="14" x="522" y="502.877">13</text><text fill="#000000" font-family="sans-serif" font-size="13" lengthAdjust="spacing" textLength="160" x="540" y="502.877">PATCH /requests/{id}/reject</text><polygon fill="#181818" points="526,534,516,538,526,542,522,538" style="stroke:#181818;stroke-width:1.0;"/><line style="stroke:#181818;stroke-width:1.0;stroke-dasharray:2.0,2.0;" x1="520" x2="768" y1="538" y2="538"/><text fill="#000000" font-family="sans-serif" font-size="13" font-weight="bold" lengthAdjust="spacing" textLength="14" x="532" y="532.477">14</text><text fill="#000000" font-family="sans-serif" font-size="13" lengthAdjust="spacing" textLength="128" x="550" y="532.477">200 OK (task request)</text><polygon fill="#181818" points="237,563.6,227,567.6,237,571.6,233,567.6" style="stroke:#181818;stroke-width:1.0;"/><line style="stroke:#181818;stroke-width:1.0;stroke-dasharray:2.0,2.0;" x1="231" x2="509" y1="567.6" y2="567.6"/><text fill="#000000" font-family="sans-serif" font-size="13" font-weight="bold" lengthAdjust="spacing" textLength="14" x="243" y="562.077">15</text><text fill="#000000" font-family="sans-serif" font-size="13" lengthAdjust="spacing" textLength="128" x="261" y="562.077">200 OK (task request)</text><polygon fill="#181818" points="54,593.2001,44,597.2001,54,601.2001,50,597.2001" style="stroke:#181818;stroke-width:1.0;"/><line style="stroke:#181818;stroke-width:1.0;stroke-dasharray:2.0,2.0;" x1="48" x2="220" y1="597.2001" y2="597.2001"/><text fill="#000000" font-family="sans-serif" font-size="13" font-weight="bold" lengthAdjust="spacing" textLength="14" x="60" y="591.6771">16</text><text fill="#000000" font-family="sans-serif" font-size="13" lengthAdjust="spacing" textLength="128" x="78" y="591.6771">200 OK (task request)</text><!--MD5=[258d9d8b26d58d04b6555dd6d44973da]
@startuml process-view
autonumber
actor TM as "User"
participant UI as "Visualization" <<system (C4)>>
participant MDD as "MDD" <<system (C4)>>
participant TMD as "Tasks Master Data" <<system (C4)>>
participant P as "Planning" <<system (C4)>>

activate TM

alt approves request
  TM -> UI : approves a request
  activate UI

  UI -> MDD : GET /robots?filter=task&value={task_type}
  activate MDD

  UI <- - MDD : 200 OK (robots)
  deactivate MDD

  TM <- - UI : asks to select the robot
  deactivate UI

  UI -> TM : selects the desired robot
  activate UI

  UI -> MDD : PATCH /task-requests/{id}/accept {robotId}
  activate MDD

  MDD -> TMD : PATCH /requests/{id}/accept {robotId}
  activate TMD

  MDD <- - TMD : 200 OK (task request)
  deactivate TMD

  UI <- - MDD : 200 OK (task request)
  deactivate MDD

  TM <- - UI : 200 OK (task request)
  deactivate UI
else rejects request
  UI -> TM : rejects a request
  activate UI

  UI -> MDD : PATCH /task-requests/{id}/reject
  activate MDD

  MDD -> TMD : PATCH /requests/{id}/reject
  activate TMD

  MDD <- - TMD : 200 OK (task request)
  deactivate TMD

  UI <- - MDD : 200 OK (task request)
  deactivate MDD

  TM <- - UI : 200 OK (task request)
  deactivate UI
end

deactivate TM

@enduml

PlantUML version 1.2022.7(Mon Aug 22 18:01:30 BST 2022)
(GPL source distribution)
Java Runtime: OpenJDK Runtime Environment
JVM: OpenJDK 64-Bit Server VM
Default Encoding: UTF-8
Language: en
Country: GB
--></g></svg>