<?xml version="1.0" encoding="UTF-8" standalone="no"?><svg xmlns="http://www.w3.org/2000/svg" xmlns:xlink="http://www.w3.org/1999/xlink" contentStyleType="text/css" height="1203px" preserveAspectRatio="none" style="width:1365px;height:1203px;background:#FFFFFF;" version="1.1" viewBox="0 0 1365 1203" width="1365px" zoomAndPan="magnify"><defs/><g><!--cluster MDM--><g id="cluster_MDM"><rect fill="none" height="1069" rx="2.5" ry="2.5" style="stroke:#181818;stroke-width:1.0;" width="934" x="7" y="128"/><rect fill="none" height="10" style="stroke:#181818;stroke-width:1.0;" width="15" x="921" y="133"/><rect fill="none" height="2" style="stroke:#181818;stroke-width:1.0;" width="4" x="919" y="135"/><rect fill="none" height="2" style="stroke:#181818;stroke-width:1.0;" width="4" x="919" y="139"/><text fill="#000000" font-family="sans-serif" font-size="20" font-style="italic" lengthAdjust="spacing" textLength="138" x="405" y="159.5645">«component»</text><text fill="#000000" font-family="sans-serif" font-size="20" font-style="italic" lengthAdjust="spacing" textLength="168" x="390" y="182.8457">«container (C4)»</text><text fill="#000000" font-family="sans-serif" font-size="20" font-weight="bold" lengthAdjust="spacing" textLength="193" x="377.5" y="206.127">MD Management</text></g><!--cluster Frameworks & Drivers Layer--><g id="cluster_Frameworks &amp; Drivers Layer"><path d="M222.5,231 L548.5,231 A3.75,3.75 0 0 1 551,233.5 L558,260.2813 L640.5,260.2813 A2.5,2.5 0 0 1 643,262.7813 L643,363.5 A2.5,2.5 0 0 1 640.5,366 L222.5,366 A2.5,2.5 0 0 1 220,363.5 L220,233.5 A2.5,2.5 0 0 1 222.5,231 " fill="#80FFFF" style="stroke:#000000;stroke-width:1.5;"/><line style="stroke:#000000;stroke-width:1.5;" x1="220" x2="558" y1="260.2813" y2="260.2813"/><text fill="#000000" font-family="sans-serif" font-size="20" font-weight="bold" lengthAdjust="spacing" textLength="325" x="224" y="251.5645">Frameworks &amp; Drivers Layer</text></g><!--cluster Interface Adapters Layer--><g id="cluster_Interface Adapters Layer"><path d="M240.5,500 L526.5,500 A3.75,3.75 0 0 1 529,502.5 L536,529.2813 L658.5,529.2813 A2.5,2.5 0 0 1 661,531.7813 L661,632.5 A2.5,2.5 0 0 1 658.5,635 L240.5,635 A2.5,2.5 0 0 1 238,632.5 L238,502.5 A2.5,2.5 0 0 1 240.5,500 " fill="#80FF80" style="stroke:#000000;stroke-width:1.5;"/><line style="stroke:#000000;stroke-width:1.5;" x1="238" x2="536" y1="529.2813" y2="529.2813"/><text fill="#000000" font-family="sans-serif" font-size="20" font-weight="bold" lengthAdjust="spacing" textLength="285" x="242" y="520.5645">Interface Adapters Layer</text></g><!--cluster Application Business Rules--><g id="cluster_Application Business Rules"><path d="M498.5,769 L803.5,769 A3.75,3.75 0 0 1 806,771.5 L813,798.2813 L813.5,798.2813 A2.5,2.5 0 0 1 816,800.7813 L816,901.5 A2.5,2.5 0 0 1 813.5,904 L498.5,904 A2.5,2.5 0 0 1 496,901.5 L496,771.5 A2.5,2.5 0 0 1 498.5,769 " fill="#FF8080" style="stroke:#000000;stroke-width:1.5;"/><line style="stroke:#000000;stroke-width:1.5;" x1="496" x2="813" y1="798.2813" y2="798.2813"/><text fill="#000000" font-family="sans-serif" font-size="20" font-weight="bold" lengthAdjust="spacing" textLength="304" x="500" y="789.5645">Application Business Rules</text></g><!--cluster Enterprise Business Rules--><g id="cluster_Enterprise Business Rules"><path d="M316.5,1038 L612.5,1038 A3.75,3.75 0 0 1 615,1040.5 L622,1067.2813 L622.5,1067.2813 A2.5,2.5 0 0 1 625,1069.7813 L625,1170.5 A2.5,2.5 0 0 1 622.5,1173 L316.5,1173 A2.5,2.5 0 0 1 314,1170.5 L314,1040.5 A2.5,2.5 0 0 1 316.5,1038 " fill="#FFC080" style="stroke:#000000;stroke-width:1.5;"/><line style="stroke:#000000;stroke-width:1.5;" x1="314" x2="622" y1="1067.2813" y2="1067.2813"/><text fill="#000000" font-family="sans-serif" font-size="20" font-weight="bold" lengthAdjust="spacing" textLength="295" x="318" y="1058.5645">Enterprise Business Rules</text></g><text fill="#000000" font-family="sans-serif" font-size="20" lengthAdjust="spacing" textLength="6" x="535" y="105.2832"> </text><rect fill="#F1F1F1" height="12" style="stroke:#181818;stroke-width:1.5;" width="12" x="532" y="122"/><text fill="#000000" font-family="sans-serif" font-size="20" lengthAdjust="spacing" textLength="152" x="579.5" y="105.2832">Persistence API</text><rect fill="#F1F1F1" height="12" style="stroke:#181818;stroke-width:1.5;" width="12" x="649.5" y="122"/><text fill="#000000" font-family="sans-serif" font-size="20" lengthAdjust="spacing" textLength="6" x="891" y="1008.5645"> </text><rect fill="#F1F1F1" height="12" style="stroke:#181818;stroke-width:1.5;" width="12" x="888" y="978"/><text fill="#000000" font-family="sans-serif" font-size="20" lengthAdjust="spacing" textLength="6" x="938" y="1008.5645"> </text><rect fill="#F1F1F1" height="12" style="stroke:#181818;stroke-width:1.5;" width="12" x="935" y="978"/><!--entity CTRL_API--><g id="elem_CTRL_API"><ellipse cx="550" cy="446" fill="#F1F1F1" rx="8" ry="8" style="stroke:#181818;stroke-width:0.5;"/><text fill="#000000" font-family="sans-serif" font-size="20" lengthAdjust="spacing" textLength="137" x="481.5" y="481.5645">Controller API</text></g><!--entity DATA_API--><g id="elem_DATA_API"><ellipse cx="141" cy="446" fill="#F1F1F1" rx="8" ry="8" style="stroke:#181818;stroke-width:0.5;"/><text fill="#000000" font-family="sans-serif" font-size="20" lengthAdjust="spacing" textLength="151" x="65.5" y="481.5645">Data Model API</text></g><!--entity SRV_API--><g id="elem_SRV_API"><ellipse cx="602" cy="715" fill="#F1F1F1" rx="8" ry="8" style="stroke:#181818;stroke-width:0.5;"/><text fill="#000000" font-family="sans-serif" font-size="20" lengthAdjust="spacing" textLength="167" x="518.5" y="750.5645">App Services API</text></g><!--entity DTO_API--><g id="elem_DTO_API"><ellipse cx="776" cy="715" fill="#F1F1F1" rx="8" ry="8" style="stroke:#181818;stroke-width:0.5;"/><text fill="#000000" font-family="sans-serif" font-size="20" lengthAdjust="spacing" textLength="81" x="735.5" y="750.5645">DTO API</text></g><!--entity REPO_API--><g id="elem_REPO_API"><ellipse cx="424" cy="715" fill="#F1F1F1" rx="8" ry="8" style="stroke:#181818;stroke-width:0.5;"/><text fill="#000000" font-family="sans-serif" font-size="20" lengthAdjust="spacing" textLength="89" x="379.5" y="750.5645">Repo API</text></g><!--entity MODEL_API--><g id="elem_MODEL_API"><ellipse cx="469" cy="984" fill="#F1F1F1" rx="8" ry="8" style="stroke:#181818;stroke-width:0.5;"/><text fill="#000000" font-family="sans-serif" font-size="20" lengthAdjust="spacing" textLength="98" x="420" y="1019.5645">Model API</text></g><!--entity PERSISTENCE_API--><g id="elem_PERSISTENCE_API"><ellipse cx="343" cy="446" fill="#F1F1F1" rx="8" ry="8" style="stroke:#181818;stroke-width:0.5;"/><text fill="#000000" font-family="sans-serif" font-size="20" lengthAdjust="spacing" textLength="152" x="267" y="481.5645">Persistence API</text></g><!--entity ROUTE--><g id="elem_ROUTE"><rect fill="#F1F1F1" height="76.5625" rx="2.5" ry="2.5" style="stroke:#181818;stroke-width:0.5;" width="178" x="449" y="273"/><rect fill="#F1F1F1" height="10" style="stroke:#181818;stroke-width:0.5;" width="15" x="607" y="278"/><rect fill="#F1F1F1" height="2" style="stroke:#181818;stroke-width:0.5;" width="4" x="605" y="280"/><rect fill="#F1F1F1" height="2" style="stroke:#181818;stroke-width:0.5;" width="4" x="605" y="284"/><text fill="#000000" font-family="sans-serif" font-size="20" font-style="italic" lengthAdjust="spacing" textLength="138" x="464" y="311.5645">«component»</text><text fill="#000000" font-family="sans-serif" font-size="20" lengthAdjust="spacing" textLength="79" x="493.5" y="334.8457">Routing</text></g><!--entity PERSISTENCE--><g id="elem_PERSISTENCE"><rect fill="#F1F1F1" height="76.5625" rx="2.5" ry="2.5" style="stroke:#181818;stroke-width:0.5;" width="178" x="236" y="273"/><rect fill="#F1F1F1" height="10" style="stroke:#181818;stroke-width:0.5;" width="15" x="394" y="278"/><rect fill="#F1F1F1" height="2" style="stroke:#181818;stroke-width:0.5;" width="4" x="392" y="280"/><rect fill="#F1F1F1" height="2" style="stroke:#181818;stroke-width:0.5;" width="4" x="392" y="284"/><text fill="#000000" font-family="sans-serif" font-size="20" font-style="italic" lengthAdjust="spacing" textLength="138" x="251" y="311.5645">«component»</text><text fill="#000000" font-family="sans-serif" font-size="20" lengthAdjust="spacing" textLength="114" x="263" y="334.8457">Persistence</text></g><!--entity DATA--><g id="elem_DATA"><rect fill="#F1F1F1" height="76.5625" rx="2.5" ry="2.5" style="stroke:#181818;stroke-width:0.5;" width="178" x="23" y="273"/><rect fill="#F1F1F1" height="10" style="stroke:#181818;stroke-width:0.5;" width="15" x="181" y="278"/><rect fill="#F1F1F1" height="2" style="stroke:#181818;stroke-width:0.5;" width="4" x="179" y="280"/><rect fill="#F1F1F1" height="2" style="stroke:#181818;stroke-width:0.5;" width="4" x="179" y="284"/><text fill="#000000" font-family="sans-serif" font-size="20" font-style="italic" lengthAdjust="spacing" textLength="138" x="38" y="311.5645">«component»</text><text fill="#000000" font-family="sans-serif" font-size="20" lengthAdjust="spacing" textLength="113" x="50.5" y="334.8457">Data Model</text></g><!--entity DTO--><g id="elem_DTO"><rect fill="#F1F1F1" height="76.5625" rx="2.5" ry="2.5" style="stroke:#181818;stroke-width:0.5;" width="178" x="687" y="542"/><rect fill="#F1F1F1" height="10" style="stroke:#181818;stroke-width:0.5;" width="15" x="845" y="547"/><rect fill="#F1F1F1" height="2" style="stroke:#181818;stroke-width:0.5;" width="4" x="843" y="549"/><rect fill="#F1F1F1" height="2" style="stroke:#181818;stroke-width:0.5;" width="4" x="843" y="553"/><text fill="#000000" font-family="sans-serif" font-size="20" font-style="italic" lengthAdjust="spacing" textLength="138" x="702" y="580.5645">«component»</text><text fill="#000000" font-family="sans-serif" font-size="20" lengthAdjust="spacing" textLength="43" x="749.5" y="603.8457">DTO</text></g><!--entity CTRL--><g id="elem_CTRL"><rect fill="#F1F1F1" height="76.5625" rx="2.5" ry="2.5" style="stroke:#181818;stroke-width:0.5;" width="178" x="467" y="542"/><rect fill="#F1F1F1" height="10" style="stroke:#181818;stroke-width:0.5;" width="15" x="625" y="547"/><rect fill="#F1F1F1" height="2" style="stroke:#181818;stroke-width:0.5;" width="4" x="623" y="549"/><rect fill="#F1F1F1" height="2" style="stroke:#181818;stroke-width:0.5;" width="4" x="623" y="553"/><text fill="#000000" font-family="sans-serif" font-size="20" font-style="italic" lengthAdjust="spacing" textLength="138" x="482" y="580.5645">«component»</text><text fill="#000000" font-family="sans-serif" font-size="20" lengthAdjust="spacing" textLength="99" x="501.5" y="603.8457">Controller</text></g><!--entity REPO--><g id="elem_REPO"><rect fill="#F1F1F1" height="76.5625" rx="2.5" ry="2.5" style="stroke:#181818;stroke-width:0.5;" width="178" x="254" y="542"/><rect fill="#F1F1F1" height="10" style="stroke:#181818;stroke-width:0.5;" width="15" x="412" y="547"/><rect fill="#F1F1F1" height="2" style="stroke:#181818;stroke-width:0.5;" width="4" x="410" y="549"/><rect fill="#F1F1F1" height="2" style="stroke:#181818;stroke-width:0.5;" width="4" x="410" y="553"/><text fill="#000000" font-family="sans-serif" font-size="20" font-style="italic" lengthAdjust="spacing" textLength="138" x="269" y="580.5645">«component»</text><text fill="#000000" font-family="sans-serif" font-size="20" lengthAdjust="spacing" textLength="106" x="285" y="603.8457">Repository</text></g><!--entity SRV--><g id="elem_SRV"><rect fill="#F1F1F1" height="76.5625" rx="2.5" ry="2.5" style="stroke:#181818;stroke-width:0.5;" width="233" x="539.5" y="811"/><rect fill="#F1F1F1" height="10" style="stroke:#181818;stroke-width:0.5;" width="15" x="752.5" y="816"/><rect fill="#F1F1F1" height="2" style="stroke:#181818;stroke-width:0.5;" width="4" x="750.5" y="818"/><rect fill="#F1F1F1" height="2" style="stroke:#181818;stroke-width:0.5;" width="4" x="750.5" y="822"/><text fill="#000000" font-family="sans-serif" font-size="20" font-style="italic" lengthAdjust="spacing" textLength="138" x="582" y="849.5645">«component»</text><text fill="#000000" font-family="sans-serif" font-size="20" lengthAdjust="spacing" textLength="193" x="554.5" y="872.8457">Application Service</text></g><!--entity MODEL--><g id="elem_MODEL"><rect fill="#F1F1F1" height="76.5625" rx="2.5" ry="2.5" style="stroke:#181818;stroke-width:0.5;" width="235" x="351.5" y="1080"/><rect fill="#F1F1F1" height="10" style="stroke:#181818;stroke-width:0.5;" width="15" x="566.5" y="1085"/><rect fill="#F1F1F1" height="2" style="stroke:#181818;stroke-width:0.5;" width="4" x="564.5" y="1087"/><rect fill="#F1F1F1" height="2" style="stroke:#181818;stroke-width:0.5;" width="4" x="564.5" y="1091"/><text fill="#000000" font-family="sans-serif" font-size="20" font-style="italic" lengthAdjust="spacing" textLength="138" x="395" y="1118.5645">«component»</text><text fill="#000000" font-family="sans-serif" font-size="20" lengthAdjust="spacing" textLength="195" x="366.5" y="1141.8457">Domain Model DDD</text></g><!--entity API--><g id="elem_API"><ellipse cx="538" cy="14" fill="#F1F1F1" rx="8" ry="8" style="stroke:#181818;stroke-width:0.5;"/><text fill="#000000" font-family="sans-serif" font-size="20" lengthAdjust="spacing" textLength="70" x="503" y="49.5645">MD API</text></g><!--entity FS--><g id="elem_FS"><ellipse cx="1043" cy="1118.5" fill="#F1F1F1" rx="8" ry="8" style="stroke:#181818;stroke-width:0.5;"/><text fill="#000000" font-family="sans-serif" font-size="20" lengthAdjust="spacing" textLength="145" x="970.5" y="1154.0645">Filesystem API</text></g><!--entity GA--><g id="elem_GA"><ellipse cx="1262" cy="1118.5" fill="#F1F1F1" rx="8" ry="8" style="stroke:#181818;stroke-width:0.5;"/><text fill="#000000" font-family="sans-serif" font-size="20" lengthAdjust="spacing" textLength="192" x="1166" y="1154.0645">Google OAuth2 API</text></g><!--link API to P1--><g id="link_API_P1"><path d="M538,23.05 C538,44.72 538,103.83 538,121.77 " fill="none" id="API-P1" style="stroke:#181818;stroke-width:1.0;"/></g><!--link ROUTE to P1--><g id="link_ROUTE_P1"><path d="M538,272.88 C538,227.35 538,154.29 538,134.24 " fill="none" id="ROUTE-P1" style="stroke:#181818;stroke-width:1.0;"/></g><!--link PERSISTENCE to P2--><g id="link_PERSISTENCE_P2"><path d="M360.46,272.87 C380.13,253.61 405.85,230.95 432,215 C510.95,166.85 621.42,137.54 649.37,130.6 " fill="none" id="PERSISTENCE-P2" style="stroke:#181818;stroke-width:1.0;"/></g><!--link P3 to FS--><g id="link_P3_FS"><path d="M896.96,990.35 C901.1,997.55 909.12,1010.55 918,1020 C951.77,1055.91 999.48,1089.3 1025.09,1106.12 " fill="none" id="P3-to-FS" style="stroke:#181818;stroke-width:1.0;"/><path d="M1035.7451,1102.9462 A9,9 0 0 0 1026.5643 1117.1523" fill="none" style="stroke:#181818;stroke-width:1.5;"/></g><!--link P4 to GA--><g id="link_P4_GA"><path d="M947.17,985.48 C972.34,987.62 1069.3,997.66 1141,1030 C1182.49,1048.71 1223.98,1082.91 1245.96,1102.56 " fill="none" id="P4-to-GA" style="stroke:#181818;stroke-width:1.0;"/><path d="M1256.8021,1100.9819 A9,9 0 0 0 1245.423 1113.4965" fill="none" style="stroke:#181818;stroke-width:1.5;"/></g><!--link ROUTE to CTRL_API--><g id="link_ROUTE_CTRL_API"><path d="M541.41,350.11 C543.68,375.19 546.56,407.03 548.34,426.71 " fill="none" id="ROUTE-to-CTRL_API" style="stroke:#181818;stroke-width:1.0;"/><path d="M557.3908,432.9125 A9,9 0 0 0 540.547 434.4569" fill="none" style="stroke:#181818;stroke-width:1.5;"/></g><!--link CTRL_API to CTRL--><g id="link_CTRL_API_CTRL"><path d="M550.38,455.29 C551.14,472.29 552.94,512.01 554.3,541.99 " fill="none" id="CTRL_API-CTRL" style="stroke:#181818;stroke-width:1.0;"/></g><!--link PERSISTENCE to PERSISTENCE_API--><g id="link_PERSISTENCE_PERSISTENCE_API"><path d="M330.11,350.11 C334.18,380.11 339.58,419.79 341.88,436.75 " fill="none" id="PERSISTENCE-PERSISTENCE_API" style="stroke:#181818;stroke-width:1.0;"/></g><!--reverse link PERSISTENCE_API to REPO--><g id="link_PERSISTENCE_API_REPO"><path d="M343,465.35 C343,485.06 343,516.93 343,541.99 " fill="none" id="PERSISTENCE_API-backto-REPO" style="stroke:#181818;stroke-width:1.0;"/><path d="M334.5428,458.3682 A9,9 0 0 0 351.4572 458.3682" fill="none" style="stroke:#181818;stroke-width:1.5;"/></g><!--link PERSISTENCE to DATA_API--><g id="link_PERSISTENCE_DATA_API"><path d="M272.77,350.11 C234.35,377.78 184.47,413.69 158.49,432.41 " fill="none" id="PERSISTENCE-to-DATA_API" style="stroke:#181818;stroke-width:1.0;"/><path d="M157.4999,443.5444 A9,9 0 0 0 147.616 429.8182" fill="none" style="stroke:#181818;stroke-width:1.5;"/></g><!--reverse link DATA_API to REPO--><g id="link_DATA_API_REPO"><path d="M158.57,458.52 C186.56,476.89 242.51,513.59 285.48,541.77 " fill="none" id="DATA_API-backto-REPO" style="stroke:#181818;stroke-width:1.0;"/><path d="M148.1324,461.7993 A9,9 0 0 0 157.4142 447.659" fill="none" style="stroke:#181818;stroke-width:1.5;"/></g><!--link DATA to DATA_API--><g id="link_DATA_DATA_API"><path d="M120.23,350.11 C125.72,375.19 132.69,407.03 137,426.71 " fill="none" id="DATA-to-DATA_API" style="stroke:#181818;stroke-width:1.0;"/><path d="M146.7916,431.9317 A9,9 0 0 0 130.2697 435.5549" fill="none" style="stroke:#181818;stroke-width:1.5;"/></g><!--link CTRL to SRV_API--><g id="link_CTRL_SRV_API"><path d="M569.06,619.11 C577.84,644.42 589.03,676.63 595.84,696.26 " fill="none" id="CTRL-to-SRV_API" style="stroke:#181818;stroke-width:1.0;"/><path d="M606.1159,700.0635 A9,9 0 0 0 590.1409 705.6221" fill="none" style="stroke:#181818;stroke-width:1.5;"/></g><!--reverse link SRV_API to SRV--><g id="link_SRV_API_SRV"><path d="M609.25,733.8 C617.27,753.46 630.4,785.69 640.71,810.99 " fill="none" id="SRV_API-backto-SRV" style="stroke:#181818;stroke-width:1.0;"/><path d="M598.7092,730.3316 A9,9 0 0 0 614.3736 723.9498" fill="none" style="stroke:#181818;stroke-width:1.5;"/></g><!--reverse link DTO_API to SRV--><g id="link_DTO_API_SRV"><path d="M761.58,731.92 C743.97,751.36 713.62,784.87 689.97,810.99 " fill="none" id="DTO_API-backto-SRV" style="stroke:#181818;stroke-width:1.0;"/><path d="M760.1583,720.8867 A9,9 0 0 0 772.6849 732.2526" fill="none" style="stroke:#181818;stroke-width:1.5;"/></g><!--link SRV to P3--><g id="link_SRV_P3"><path d="M725.57,888.03 C742.2,896.4 760.05,904.89 777,912 C823.26,931.42 849.35,911.71 884,948 C891.86,956.23 893.61,970.19 893.96,977.75 " fill="none" id="SRV-P3" style="stroke:#181818;stroke-width:1.0;"/></g><!--link SRV to P4--><g id="link_SRV_P4"><path d="M723.6,888.16 C740.69,896.75 759.25,905.32 777,912 C837.53,934.79 865.35,910.44 918,948 C928.77,955.69 935.85,970.13 939.05,977.84 " fill="none" id="SRV-P4" style="stroke:#181818;stroke-width:1.0;"/></g><!--link CTRL to DTO_API--><g id="link_CTRL_DTO_API"><path d="M611.63,619.26 C623.83,627.27 636.77,635.55 649,643 C687.11,666.21 733.1,691.2 757.95,704.46 " fill="none" id="CTRL-to-DTO_API" style="stroke:#181818;stroke-width:1.0;"/><path d="M768.1971,700.3182 A9,9 0 0 0 760.2486 715.2488" fill="none" style="stroke:#181818;stroke-width:1.5;"/></g><!--link DTO to DTO_API--><g id="link_DTO_DTO_API"><path d="M776,619.11 C776,644.19 776,676.03 776,695.71 " fill="none" id="DTO-to-DTO_API" style="stroke:#181818;stroke-width:1.0;"/><path d="M784.4572,702.6718 A9,9 0 0 0 767.5428 702.6718" fill="none" style="stroke:#181818;stroke-width:1.5;"/></g><!--link REPO to REPO_API--><g id="link_REPO_REPO_API"><path d="M365.99,619.11 C384.33,649.11 408.59,688.79 418.96,705.75 " fill="none" id="REPO-REPO_API" style="stroke:#181818;stroke-width:1.0;"/></g><!--reverse link REPO_API to SRV--><g id="link_REPO_API_SRV"><path d="M442.13,726.52 C455.97,734.19 475.71,744.35 494,751 C512.03,757.56 518.57,752.97 536,761 C563.75,773.79 591.52,793.49 613.35,810.96 " fill="none" id="REPO_API-backto-SRV" style="stroke:#181818;stroke-width:1.0;"/><path d="M431.7097,730.3457 A9,9 0 0 0 440.0469 715.6288" fill="none" style="stroke:#181818;stroke-width:1.5;"/></g><!--link SRV to MODEL_API--><g id="link_SRV_MODEL_API"><path d="M602.91,888.11 C563.7,915.9 512.74,952.01 486.42,970.65 " fill="none" id="SRV-to-MODEL_API" style="stroke:#181818;stroke-width:1.0;"/><path d="M485.6135,981.5974 A9,9 0 0 0 475.828 967.801" fill="none" style="stroke:#181818;stroke-width:1.5;"/></g><!--link REPO to MODEL_API--><g id="link_REPO_MODEL_API"><path d="M341.56,619.22 C341.2,654.03 343.08,706.85 355,751 C378.19,836.91 433.85,928.92 457.77,966.04 " fill="none" id="REPO-to-MODEL_API" style="stroke:#181818;stroke-width:1.0;"/><path d="M468.7652,967.4264 A9,9 0 0 0 454.6066 976.6803" fill="none" style="stroke:#181818;stroke-width:1.5;"/></g><!--link MODEL_API to MODEL--><g id="link_MODEL_API_MODEL"><path d="M469,993.29 C469,1010.29 469,1050.01 469,1079.99 " fill="none" id="MODEL_API-MODEL" style="stroke:#181818;stroke-width:1.0;"/></g><!--SRC=[ZLHDZvim4BtpAqQfLD43KfhDOG-hbMWWgqXBWu3sMhdWf5O08sEsIglzxntR0Hn2LvjBxE6z-NgUQK-iReWWLSdp4osWe0VIbNBBQvcoFnHMIyUHl079uIUNabTGC45poNZjEAoML1n8Jc4H1U37kmMGLltRNxQifEsvbRGQ4DlK1ZnnVYmfxFrE_beDc2VVSN9UDRocjTJ-8rAJ8wtmgW5H4C73mm1vVDItMX9MKm7kPlq9JNyTW8OBoMfOWAR5dorJJ4NBCBKQy-W3nwiBW7To8DtDsDOE6dTZ7HiCBdXPOlJUroPBdd-eVbm10o89HBoWvG0C_CpNGENpmCi2dIosA0lzpSMfXOyG2FQ2sS8pELEnW0_toot-T840LgCIJ97LH-qrsN_BmacJ3E5rIhCwOQeBatINPk7NpVyTlAfaBHzZNKDDCzpN2IdR6tIsdmLVjyvl6aYfU64vRKtp_1JIvFjCaz5V3y3pBI2X3HyGIHZFG2oD41FjWt16pPitX52hUqRLKTIHwHUaaLD9xvUtaeuFQtXKxnDLbTWooSNPF0Siycqn-oInpINBYPfo-DArE54jqZiSP4nJ9JcNfaswQAJ3eZplYnggrZI2jNGkw6OsQC0h7FZBD0L1O5Q3KkgDc1WLLG7FKzl0CLFYcPlzxfLbvSHtU73LpehN-gGsKyznnn7NidXTuuscgRF9gz1wA8Ox_GGJgZii2B1Per7FsZNkaX3Q-lbGGXZYhQKV4MtnrCBhJ-lHKGzIisNVBpbvunYDZdiJ9cGykkCWzSLSsunwkfEMzHy0]--></g></svg>