<?xml version="1.0" encoding="UTF-8" standalone="no"?><svg xmlns="http://www.w3.org/2000/svg" xmlns:xlink="http://www.w3.org/1999/xlink" contentStyleType="text/css" height="1270px" preserveAspectRatio="none" style="width:997px;height:1270px;background:#FFFFFF;" version="1.1" viewBox="0 0 997 1270" width="997px" zoomAndPan="magnify"><defs/><g><!--cluster MDM--><g id="cluster_MDM"><rect fill="none" height="1132.92" rx="2.5" ry="2.5" style="stroke:#181818;stroke-width:1.0;" width="815" x="7" y="132"/><rect fill="none" height="10" style="stroke:#181818;stroke-width:1.0;" width="15" x="802" y="137"/><rect fill="none" height="2" style="stroke:#181818;stroke-width:1.0;" width="4" x="800" y="139"/><rect fill="none" height="2" style="stroke:#181818;stroke-width:1.0;" width="4" x="800" y="143"/><text fill="#000000" font-family="sans-serif" font-size="20" font-style="italic" lengthAdjust="spacing" textLength="122" x="353.5" y="166.38">«component»</text><text fill="#000000" font-family="sans-serif" font-size="20" font-style="italic" lengthAdjust="spacing" textLength="145" x="342" y="193.62">«container (C4)»</text><text fill="#000000" font-family="sans-serif" font-size="20" font-weight="bold" lengthAdjust="spacing" textLength="169.5" x="329.75" y="220.8599">MD Management</text></g><!--cluster Frameworks & Drivers Layer--><g id="cluster_Frameworks &amp; Drivers Layer"><path d="M206.5,235 L484.875,235 A3.75,3.75 0 0 1 487.375,237.5 L494.375,268.24 L592.5,268.24 A2.5,2.5 0 0 1 595,270.74 L595,378.98 A2.5,2.5 0 0 1 592.5,381.48 L206.5,381.48 A2.5,2.5 0 0 1 204,378.98 L204,237.5 A2.5,2.5 0 0 1 206.5,235 " fill="#80FFFF" style="stroke:#000000;stroke-width:1.5;"/><line style="stroke:#000000;stroke-width:1.5;" x1="204" x2="494.375" y1="268.24" y2="268.24"/><text fill="#000000" font-family="sans-serif" font-size="20" font-weight="bold" lengthAdjust="spacing" textLength="277.375" x="208" y="258.38">Frameworks &amp; Drivers Layer</text></g><!--cluster Interface Adapters Layer--><g id="cluster_Interface Adapters Layer"><path d="M206.5,521.48 L449.25,521.48 A3.75,3.75 0 0 1 451.75,523.98 L458.75,554.72 L592.5,554.72 A2.5,2.5 0 0 1 595,557.22 L595,665.46 A2.5,2.5 0 0 1 592.5,667.96 L206.5,667.96 A2.5,2.5 0 0 1 204,665.46 L204,523.98 A2.5,2.5 0 0 1 206.5,521.48 " fill="#80FF80" style="stroke:#000000;stroke-width:1.5;"/><line style="stroke:#000000;stroke-width:1.5;" x1="204" x2="458.75" y1="554.72" y2="554.72"/><text fill="#000000" font-family="sans-serif" font-size="20" font-weight="bold" lengthAdjust="spacing" textLength="241.75" x="208" y="544.86">Interface Adapters Layer</text></g><!--cluster Application Business Rules--><g id="cluster_Application Business Rules"><path d="M376.5,807.96 L639.5,807.96 A3.75,3.75 0 0 1 642,810.46 L649,841.2 L649.5,841.2 A2.5,2.5 0 0 1 652,843.7 L652,951.94 A2.5,2.5 0 0 1 649.5,954.44 L376.5,954.44 A2.5,2.5 0 0 1 374,951.94 L374,810.46 A2.5,2.5 0 0 1 376.5,807.96 " fill="#FF8080" style="stroke:#000000;stroke-width:1.5;"/><line style="stroke:#000000;stroke-width:1.5;" x1="374" x2="649" y1="841.2" y2="841.2"/><text fill="#000000" font-family="sans-serif" font-size="20" font-weight="bold" lengthAdjust="spacing" textLength="262" x="378" y="831.34">Application Business Rules</text></g><!--cluster Enterprise Business Rules--><g id="cluster_Enterprise Business Rules"><path d="M253.5,1094.44 L506.875,1094.44 A3.75,3.75 0 0 1 509.375,1096.94 L516.375,1127.68 L516.5,1127.68 A2.5,2.5 0 0 1 519,1130.18 L519,1238.42 A2.5,2.5 0 0 1 516.5,1240.92 L253.5,1240.92 A2.5,2.5 0 0 1 251,1238.42 L251,1096.94 A2.5,2.5 0 0 1 253.5,1094.44 " fill="#FFC080" style="stroke:#000000;stroke-width:1.5;"/><line style="stroke:#000000;stroke-width:1.5;" x1="251" x2="516.375" y1="1127.68" y2="1127.68"/><text fill="#000000" font-family="sans-serif" font-size="20" font-weight="bold" lengthAdjust="spacing" textLength="252.375" x="255" y="1117.82">Enterprise Business Rules</text></g><text fill="#000000" font-family="sans-serif" font-size="20" lengthAdjust="spacing" textLength="5" x="495.5" y="108.14"> </text><rect fill="#F1F1F1" height="12" style="stroke:#181818;stroke-width:1.5;" width="12" x="492" y="126"/><text fill="#000000" font-family="sans-serif" font-size="20" lengthAdjust="spacing" textLength="144" x="538.5" y="108.14">Persistence API</text><rect fill="#F1F1F1" height="12" style="stroke:#181818;stroke-width:1.5;" width="12" x="604.5" y="126"/><text fill="#000000" font-family="sans-serif" font-size="20" lengthAdjust="spacing" textLength="5" x="819.5" y="441.62"> </text><rect fill="#F1F1F1" height="12" style="stroke:#181818;stroke-width:1.5;" width="12" x="816" y="459.48"/><!--entity CTRL_API--><g id="elem_CTRL_API"><ellipse cx="498" cy="465.48" fill="#F1F1F1" rx="8" ry="8" style="stroke:#181818;stroke-width:0.5;"/><text fill="#000000" font-family="sans-serif" font-size="20" lengthAdjust="spacing" textLength="130" x="433" y="503.86">Controller API</text></g><!--entity DATA_API--><g id="elem_DATA_API"><ellipse cx="106" cy="465.48" fill="#F1F1F1" rx="8" ry="8" style="stroke:#181818;stroke-width:0.5;"/><text fill="#000000" font-family="sans-serif" font-size="20" lengthAdjust="spacing" textLength="144" x="34" y="503.86">Data Model API</text></g><!--entity SRV_API--><g id="elem_SRV_API"><ellipse cx="513" cy="751.96" fill="#F1F1F1" rx="8" ry="8" style="stroke:#181818;stroke-width:0.5;"/><text fill="#000000" font-family="sans-serif" font-size="20" lengthAdjust="spacing" textLength="155" x="435.5" y="790.34">App Services API</text></g><!--entity DTO_API--><g id="elem_DTO_API"><ellipse cx="680" cy="751.96" fill="#F1F1F1" rx="8" ry="8" style="stroke:#181818;stroke-width:0.5;"/><text fill="#000000" font-family="sans-serif" font-size="20" lengthAdjust="spacing" textLength="79" x="640.5" y="790.34">DTO API</text></g><!--entity REPO_API--><g id="elem_REPO_API"><ellipse cx="343" cy="751.96" fill="#F1F1F1" rx="8" ry="8" style="stroke:#181818;stroke-width:0.5;"/><text fill="#000000" font-family="sans-serif" font-size="20" lengthAdjust="spacing" textLength="84" x="301" y="790.34">Repo API</text></g><!--entity MODEL_API--><g id="elem_MODEL_API"><ellipse cx="385" cy="1038.44" fill="#F1F1F1" rx="8" ry="8" style="stroke:#181818;stroke-width:0.5;"/><text fill="#000000" font-family="sans-serif" font-size="20" lengthAdjust="spacing" textLength="95" x="337.5" y="1076.82">Model API</text></g><!--entity PERSISTENCE_API--><g id="elem_PERSISTENCE_API"><ellipse cx="301" cy="465.48" fill="#F1F1F1" rx="8" ry="8" style="stroke:#181818;stroke-width:0.5;"/><text fill="#000000" font-family="sans-serif" font-size="20" lengthAdjust="spacing" textLength="144" x="229" y="503.86">Persistence API</text></g><!--entity ROUTE--><g id="elem_ROUTE"><rect fill="#F1F1F1" height="84.4799" rx="2.5" ry="2.5" style="stroke:#181818;stroke-width:0.5;" width="162" x="417" y="281"/><rect fill="#F1F1F1" height="10" style="stroke:#181818;stroke-width:0.5;" width="15" x="559" y="286"/><rect fill="#F1F1F1" height="2" style="stroke:#181818;stroke-width:0.5;" width="4" x="557" y="288"/><rect fill="#F1F1F1" height="2" style="stroke:#181818;stroke-width:0.5;" width="4" x="557" y="292"/><text fill="#000000" font-family="sans-serif" font-size="20" font-style="italic" lengthAdjust="spacing" textLength="122" x="432" y="322.38">«component»</text><text fill="#000000" font-family="sans-serif" font-size="20" lengthAdjust="spacing" textLength="72" x="457" y="349.62">Routing</text></g><!--entity PERSISTENCE--><g id="elem_PERSISTENCE"><rect fill="#F1F1F1" height="84.4799" rx="2.5" ry="2.5" style="stroke:#181818;stroke-width:0.5;" width="162" x="220" y="281"/><rect fill="#F1F1F1" height="10" style="stroke:#181818;stroke-width:0.5;" width="15" x="362" y="286"/><rect fill="#F1F1F1" height="2" style="stroke:#181818;stroke-width:0.5;" width="4" x="360" y="288"/><rect fill="#F1F1F1" height="2" style="stroke:#181818;stroke-width:0.5;" width="4" x="360" y="292"/><text fill="#000000" font-family="sans-serif" font-size="20" font-style="italic" lengthAdjust="spacing" textLength="122" x="235" y="322.38">«component»</text><text fill="#000000" font-family="sans-serif" font-size="20" lengthAdjust="spacing" textLength="107" x="242.5" y="349.62">Persistence</text></g><!--entity DATA--><g id="elem_DATA"><rect fill="#F1F1F1" height="84.4799" rx="2.5" ry="2.5" style="stroke:#181818;stroke-width:0.5;" width="162" x="23" y="281"/><rect fill="#F1F1F1" height="10" style="stroke:#181818;stroke-width:0.5;" width="15" x="165" y="286"/><rect fill="#F1F1F1" height="2" style="stroke:#181818;stroke-width:0.5;" width="4" x="163" y="288"/><rect fill="#F1F1F1" height="2" style="stroke:#181818;stroke-width:0.5;" width="4" x="163" y="292"/><text fill="#000000" font-family="sans-serif" font-size="20" font-style="italic" lengthAdjust="spacing" textLength="122" x="38" y="322.38">«component»</text><text fill="#000000" font-family="sans-serif" font-size="20" lengthAdjust="spacing" textLength="107" x="45.5" y="349.62">Data Model</text></g><!--entity DTO--><g id="elem_DTO"><rect fill="#F1F1F1" height="84.4799" rx="2.5" ry="2.5" style="stroke:#181818;stroke-width:0.5;" width="162" x="614" y="567.48"/><rect fill="#F1F1F1" height="10" style="stroke:#181818;stroke-width:0.5;" width="15" x="756" y="572.48"/><rect fill="#F1F1F1" height="2" style="stroke:#181818;stroke-width:0.5;" width="4" x="754" y="574.48"/><rect fill="#F1F1F1" height="2" style="stroke:#181818;stroke-width:0.5;" width="4" x="754" y="578.48"/><text fill="#000000" font-family="sans-serif" font-size="20" font-style="italic" lengthAdjust="spacing" textLength="122" x="629" y="608.86">«component»</text><text fill="#000000" font-family="sans-serif" font-size="20" lengthAdjust="spacing" textLength="42" x="669" y="636.1">DTO</text></g><!--entity CTRL--><g id="elem_CTRL"><rect fill="#F1F1F1" height="84.4799" rx="2.5" ry="2.5" style="stroke:#181818;stroke-width:0.5;" width="162" x="417" y="567.48"/><rect fill="#F1F1F1" height="10" style="stroke:#181818;stroke-width:0.5;" width="15" x="559" y="572.48"/><rect fill="#F1F1F1" height="2" style="stroke:#181818;stroke-width:0.5;" width="4" x="557" y="574.48"/><rect fill="#F1F1F1" height="2" style="stroke:#181818;stroke-width:0.5;" width="4" x="557" y="578.48"/><text fill="#000000" font-family="sans-serif" font-size="20" font-style="italic" lengthAdjust="spacing" textLength="122" x="432" y="608.86">«component»</text><text fill="#000000" font-family="sans-serif" font-size="20" lengthAdjust="spacing" textLength="93" x="446.5" y="636.1">Controller</text></g><!--entity REPO--><g id="elem_REPO"><rect fill="#F1F1F1" height="84.4799" rx="2.5" ry="2.5" style="stroke:#181818;stroke-width:0.5;" width="162" x="220" y="567.48"/><rect fill="#F1F1F1" height="10" style="stroke:#181818;stroke-width:0.5;" width="15" x="362" y="572.48"/><rect fill="#F1F1F1" height="2" style="stroke:#181818;stroke-width:0.5;" width="4" x="360" y="574.48"/><rect fill="#F1F1F1" height="2" style="stroke:#181818;stroke-width:0.5;" width="4" x="360" y="578.48"/><text fill="#000000" font-family="sans-serif" font-size="20" font-style="italic" lengthAdjust="spacing" textLength="122" x="235" y="608.86">«component»</text><text fill="#000000" font-family="sans-serif" font-size="20" lengthAdjust="spacing" textLength="99" x="246.5" y="636.1">Repository</text></g><!--entity SRV--><g id="elem_SRV"><rect fill="#F1F1F1" height="84.4799" rx="2.5" ry="2.5" style="stroke:#181818;stroke-width:0.5;" width="215" x="405.5" y="853.96"/><rect fill="#F1F1F1" height="10" style="stroke:#181818;stroke-width:0.5;" width="15" x="600.5" y="858.96"/><rect fill="#F1F1F1" height="2" style="stroke:#181818;stroke-width:0.5;" width="4" x="598.5" y="860.96"/><rect fill="#F1F1F1" height="2" style="stroke:#181818;stroke-width:0.5;" width="4" x="598.5" y="864.96"/><text fill="#000000" font-family="sans-serif" font-size="20" font-style="italic" lengthAdjust="spacing" textLength="122" x="447" y="895.34">«component»</text><text fill="#000000" font-family="sans-serif" font-size="20" lengthAdjust="spacing" textLength="175" x="420.5" y="922.58">Application Service</text></g><!--entity MODEL--><g id="elem_MODEL"><rect fill="#F1F1F1" height="84.4799" rx="2.5" ry="2.5" style="stroke:#181818;stroke-width:0.5;" width="227" x="271.5" y="1140.44"/><rect fill="#F1F1F1" height="10" style="stroke:#181818;stroke-width:0.5;" width="15" x="478.5" y="1145.44"/><rect fill="#F1F1F1" height="2" style="stroke:#181818;stroke-width:0.5;" width="4" x="476.5" y="1147.44"/><rect fill="#F1F1F1" height="2" style="stroke:#181818;stroke-width:0.5;" width="4" x="476.5" y="1151.44"/><text fill="#000000" font-family="sans-serif" font-size="20" font-style="italic" lengthAdjust="spacing" textLength="122" x="319" y="1181.82">«component»</text><text fill="#000000" font-family="sans-serif" font-size="20" lengthAdjust="spacing" textLength="187" x="286.5" y="1209.06">Domain Model DDD</text></g><!--entity API--><g id="elem_API"><ellipse cx="498" cy="14" fill="#F1F1F1" rx="8" ry="8" style="stroke:#181818;stroke-width:0.5;"/><text fill="#000000" font-family="sans-serif" font-size="20" lengthAdjust="spacing" textLength="70" x="463" y="52.38">MD API</text></g><!--entity FS--><g id="elem_FS"><ellipse cx="923" cy="609.72" fill="#F1F1F1" rx="8" ry="8" style="stroke:#181818;stroke-width:0.5;"/><text fill="#000000" font-family="sans-serif" font-size="20" lengthAdjust="spacing" textLength="135" x="855.5" y="648.1">Filesystem API</text></g><!--link API to P1--><g id="link_API_P1"><path d="M498,22.97 C498,45.09 498,106.79 498,125.53 " fill="none" id="API-P1" style="stroke:#181818;stroke-width:1.0;"/></g><!--link ROUTE to P1--><g id="link_ROUTE_P1"><path d="M498,280.51 C498,232.91 498,159 498,138.46 " fill="none" id="ROUTE-P1" style="stroke:#181818;stroke-width:1.0;"/></g><!--link PERSISTENCE to P2--><g id="link_PERSISTENCE_P2"><path d="M333.6,280.73 C351.47,260.07 375.04,235.95 400,219 C472.64,169.65 577.97,141.22 604.67,134.54 " fill="none" id="PERSISTENCE-P2" style="stroke:#181818;stroke-width:1.0;"/></g><!--link P3 to FS--><g id="link_P3_FS"><path d="M825.84,471.88 C839.88,491.66 888.83,560.6 911.42,592.41 " fill="none" id="P3-to-FS" style="stroke:#181818;stroke-width:1.0;"/><path d="M922.6188,592.5805 A9,9 0 0 0 908.8337 602.3821" fill="none" style="stroke:#181818;stroke-width:1.5;"/></g><!--link ROUTE to CTRL_API--><g id="link_ROUTE_CTRL_API"><path d="M498,365.94 C498,392.41 498,425.4 498,445.7 " fill="none" id="ROUTE-to-CTRL_API" style="stroke:#181818;stroke-width:1.0;"/><path d="M506.4572,452.4418 A9,9 0 0 0 489.5428 452.4418" fill="none" style="stroke:#181818;stroke-width:1.5;"/></g><!--link CTRL_API to CTRL--><g id="link_CTRL_API_CTRL"><path d="M498,474.13 C498,491.38 498,534.38 498,567.18 " fill="none" id="CTRL_API-CTRL" style="stroke:#181818;stroke-width:1.0;"/></g><!--link PERSISTENCE to PERSISTENCE_API--><g id="link_PERSISTENCE_PERSISTENCE_API"><path d="M301,365.94 C301,397.91 301,439.37 301,456.52 " fill="none" id="PERSISTENCE-PERSISTENCE_API" style="stroke:#181818;stroke-width:1.0;"/></g><!--reverse link PERSISTENCE_API to REPO--><g id="link_PERSISTENCE_API_REPO"><path d="M301,485.12 C301,505.86 301,540.02 301,567.18 " fill="none" id="PERSISTENCE_API-backto-REPO" style="stroke:#181818;stroke-width:1.0;"/><path d="M292.5428,478.2082 A9,9 0 0 0 309.4572 478.2082" fill="none" style="stroke:#181818;stroke-width:1.5;"/></g><!--link PERSISTENCE to DATA_API--><g id="link_PERSISTENCE_DATA_API"><path d="M247.84,365.77 C237.37,373.75 226.4,381.95 216,389.48 C184.16,412.53 146.08,438.05 124.1,452.59 " fill="none" id="PERSISTENCE-to-DATA_API" style="stroke:#181818;stroke-width:1.0;"/><path d="M123.1806,463.9924 A9,9 0 0 0 113.882 449.8632" fill="none" style="stroke:#181818;stroke-width:1.5;"/></g><!--reverse link DATA_API to REPO--><g id="link_DATA_API_REPO"><path d="M123.57,479.3 C150.49,498.93 203.13,537.33 244.11,567.22 " fill="none" id="DATA_API-backto-REPO" style="stroke:#181818;stroke-width:1.0;"/><path d="M113.3842,481.6041 A9,9 0 0 0 123.3659 467.9489" fill="none" style="stroke:#181818;stroke-width:1.5;"/></g><!--link DATA to DATA_API--><g id="link_DATA_DATA_API"><path d="M104.59,365.94 C104.97,392.41 105.44,425.4 105.73,445.7 " fill="none" id="DATA-to-DATA_API" style="stroke:#181818;stroke-width:1.0;"/><path d="M114.3024,452.3213 A9,9 0 0 0 97.3897 452.5629" fill="none" style="stroke:#181818;stroke-width:1.5;"/></g><!--link CTRL to SRV_API--><g id="link_CTRL_SRV_API"><path d="M502.46,652.42 C505.29,678.89 508.82,711.88 510.99,732.18 " fill="none" id="CTRL-to-SRV_API" style="stroke:#181818;stroke-width:1.0;"/><path d="M520.235,738.0461 A9,9 0 0 0 503.415 739.8319" fill="none" style="stroke:#181818;stroke-width:1.5;"/></g><!--reverse link SRV_API to SRV--><g id="link_SRV_API_SRV"><path d="M513,771.6 C513,792.34 513,826.5 513,853.66 " fill="none" id="SRV_API-backto-SRV" style="stroke:#181818;stroke-width:1.0;"/><path d="M504.5428,764.6882 A9,9 0 0 0 521.4572 764.6882" fill="none" style="stroke:#181818;stroke-width:1.5;"/></g><!--reverse link DTO_API to SRV--><g id="link_DTO_API_SRV"><path d="M662.72,767.68 C639.1,787.8 595.76,824.71 561.77,853.66 " fill="none" id="DTO_API-backto-SRV" style="stroke:#181818;stroke-width:1.0;"/><path d="M662.1927,756.1678 A9,9 0 0 0 673.1606 769.0442" fill="none" style="stroke:#181818;stroke-width:1.5;"/></g><!--link SRV to P3--><g id="link_SRV_P3"><path d="M620.92,886.71 C685.8,875.49 763.9,849.91 807,791.96 C826.88,765.24 822.88,512.24 822.11,471.89 " fill="none" id="SRV-P3" style="stroke:#181818;stroke-width:1.0;"/></g><!--link CTRL to DTO_API--><g id="link_CTRL_DTO_API"><path d="M552.11,652.42 C589.84,681.48 637.74,718.39 662.85,737.75 " fill="none" id="CTRL-to-DTO_API" style="stroke:#181818;stroke-width:1.0;"/><path d="M673.0249,735.6724 A9,9 0 0 0 662.6991 749.0693" fill="none" style="stroke:#181818;stroke-width:1.5;"/></g><!--link DTO to DTO_API--><g id="link_DTO_DTO_API"><path d="M690.54,652.42 C687.71,678.89 684.18,711.88 682.01,732.18 " fill="none" id="DTO-to-DTO_API" style="stroke:#181818;stroke-width:1.0;"/><path d="M689.585,739.8319 A9,9 0 0 0 672.765 738.0461" fill="none" style="stroke:#181818;stroke-width:1.5;"/></g><!--link REPO to REPO_API--><g id="link_REPO_REPO_API"><path d="M313.49,652.42 C323.06,684.39 335.48,725.85 340.62,743 " fill="none" id="REPO-REPO_API" style="stroke:#181818;stroke-width:1.0;"/></g><!--reverse link REPO_API to SRV--><g id="link_REPO_API_SRV"><path d="M360.35,766.51 C372.18,775.82 388.14,788.5 402,799.96 C422.94,817.27 445.77,836.75 465.24,853.56 " fill="none" id="REPO_API-backto-SRV" style="stroke:#181818;stroke-width:1.0;"/><path d="M350.0843,768.4248 A9,9 0 0 0 360.5205 755.1137" fill="none" style="stroke:#181818;stroke-width:1.5;"/></g><!--link SRV to MODEL_API--><g id="link_SRV_MODEL_API"><path d="M474.94,938.9 C449.64,966.62 417.81,1001.49 399.6,1021.44 " fill="none" id="SRV-to-MODEL_API" style="stroke:#181818;stroke-width:1.0;"/><path d="M401.5848,1031.9001 A9,9 0 0 0 389.0812 1020.509" fill="none" style="stroke:#181818;stroke-width:1.5;"/></g><!--link REPO to MODEL_API--><g id="link_REPO_MODEL_API"><path d="M287.12,652.4 C276.75,689.33 265.95,744.57 276,791.96 C295.36,883.27 351.09,981.88 374.47,1020.54 " fill="none" id="REPO-to-MODEL_API" style="stroke:#181818;stroke-width:1.0;"/><path d="M385.7513,1021.7554 A9,9 0 0 0 371.331 1030.596" fill="none" style="stroke:#181818;stroke-width:1.5;"/></g><!--link MODEL_API to MODEL--><g id="link_MODEL_API_MODEL"><path d="M385,1047.09 C385,1064.34 385,1107.34 385,1140.14 " fill="none" id="MODEL_API-MODEL" style="stroke:#181818;stroke-width:1.0;"/></g><!--SRC=[ZLHTRvim57tdLrnbqiGUaB9q3tseAj50f4XbGS3sEhdWL5R0HiRfb4tvxxks0pY4LSrBu7BE_Je-xWwCjqIIfXRbWLPGqJqvrceZkChP7mghfUSfqO8Iy2AK4WrKJD9ICS4zZt55vPwK51P9166wNG3fzB_xPSDgsfqwHPi1iSazhnHDApZbod0JmiahRV3L098eWOU70VBuQDwu8enJ2VxwsnSC_VK0MY4Lux00Gqk_Eg6KoevXMOvDz8NJrGKWZceWtNaOt8uDhx6G57MDbNhUkiYUV-cvhe0HKGGIKT5w04PX4HgWphaNTOL95XjSB_qjvA63pn19zeQTmJCvKRc0J_VB3VxCC03EKZ9iaV5NapNR_IZYoK8iuJobELFRwU8it-P5_7tz_mHdtQoJOvnhc6c6UvwGYfr55xjPyFNgmhQ5dCetLjBEBY_C8Sz-pYmPy_K0VBu5PBGL0oABqnc8en5YabqKpwXvSruGwcpFgZgAEZB3YhHgAkdzybRIyM0DX-fZekeHEwQ4FDdZW4E-BsRV9AwvPYNHReMdOuVkwP1-H4DYcxh9kJPTqaKZKnRb-LZLMA-cbQoZSqNNiqKZqQ2vBswAeiXU0rgfTsfYLLG5Wa0xtxCk2UoRU-vrPEMbT_ZWcxjdWFgZiuqQmR4Dnj0qn-Gm61aqmvz-WWdL7-u5S5bZq5Zi6dTf26EzBVJ-BV4sqZl3H09zfmtq_fCsalj-wIGOFJEcwqFOXiteZwxfHxYEMQdC_fpeFm00]--></g></svg>