<?xml version="1.0" encoding="UTF-8" standalone="no"?><svg xmlns="http://www.w3.org/2000/svg" xmlns:xlink="http://www.w3.org/1999/xlink" contentStyleType="text/css" height="345px" preserveAspectRatio="none" style="width:1153px;height:345px;background:#FFFFFF;" version="1.1" viewBox="0 0 1153 345" width="1153px" zoomAndPan="magnify"><defs/><g><rect fill="#FFFFFF" height="141.125" style="stroke:#181818;stroke-width:1.0;" width="10" x="90.5" y="98.2813"/><rect fill="#FFFFFF" height="111.8438" style="stroke:#181818;stroke-width:1.0;" width="10" x="400.5" y="127.5625"/><rect fill="#FFFFFF" height="37.2813" style="stroke:#181818;stroke-width:1.0;" width="10" x="893.5" y="164.8438"/><line style="stroke:#181818;stroke-width:0.5;stroke-dasharray:5.0,5.0;" x1="95" x2="95" y1="88.2813" y2="257.4063"/><line style="stroke:#181818;stroke-width:0.5;stroke-dasharray:5.0,5.0;" x1="405" x2="405" y1="88.2813" y2="257.4063"/><line style="stroke:#181818;stroke-width:0.5;stroke-dasharray:5.0,5.0;" x1="898" x2="898" y1="88.2813" y2="257.4063"/><line style="stroke:#181818;stroke-width:0.5;stroke-dasharray:5.0,5.0;" x1="1067" x2="1067" y1="88.2813" y2="257.4063"/><text fill="#000000" font-family="sans-serif" font-size="20" lengthAdjust="spacing" textLength="175" x="5" y="83.5645">Campus Manager</text><ellipse cx="95.5" cy="13.5" fill="#E2E2F0" rx="8" ry="8" style="stroke:#181818;stroke-width:0.5;"/><path d="M95.5,21.5 L95.5,48.5 M82.5,29.5 L108.5,29.5 M95.5,48.5 L82.5,63.5 M95.5,48.5 L108.5,63.5 " fill="none" style="stroke:#181818;stroke-width:0.5;"/><text fill="#000000" font-family="sans-serif" font-size="20" lengthAdjust="spacing" textLength="175" x="5" y="274.9707">Campus Manager</text><ellipse cx="95.5" cy="288.1875" fill="#E2E2F0" rx="8" ry="8" style="stroke:#181818;stroke-width:0.5;"/><path d="M95.5,296.1875 L95.5,323.1875 M82.5,304.1875 L108.5,304.1875 M95.5,323.1875 L82.5,338.1875 M95.5,323.1875 L108.5,338.1875 " fill="none" style="stroke:#181818;stroke-width:0.5;"/><rect fill="#E2E2F0" height="60.5625" rx="2.5" ry="2.5" style="stroke:#181818;stroke-width:0.5;" width="159" x="326" y="26.7188"/><text fill="#000000" font-family="sans-serif" font-size="20" font-style="italic" lengthAdjust="spacing" textLength="145" x="333" y="52.2832">«system (C4)»</text><text fill="#000000" font-family="sans-serif" font-size="20" lengthAdjust="spacing" textLength="129" x="341" y="75.5645">Visualization</text><rect fill="#E2E2F0" height="60.5625" rx="2.5" ry="2.5" style="stroke:#181818;stroke-width:0.5;" width="159" x="326" y="256.4063"/><text fill="#000000" font-family="sans-serif" font-size="20" font-style="italic" lengthAdjust="spacing" textLength="145" x="333" y="281.9707">«system (C4)»</text><text fill="#000000" font-family="sans-serif" font-size="20" lengthAdjust="spacing" textLength="129" x="341" y="305.252">Visualization</text><rect fill="#E2E2F0" height="60.5625" rx="2.5" ry="2.5" style="stroke:#181818;stroke-width:0.5;" width="159" x="819" y="26.7188"/><text fill="#000000" font-family="sans-serif" font-size="20" font-style="italic" lengthAdjust="spacing" textLength="145" x="826" y="52.2832">«system (C4)»</text><text fill="#000000" font-family="sans-serif" font-size="20" lengthAdjust="spacing" textLength="47" x="875" y="75.5645">MDD</text><rect fill="#E2E2F0" height="60.5625" rx="2.5" ry="2.5" style="stroke:#181818;stroke-width:0.5;" width="159" x="819" y="256.4063"/><text fill="#000000" font-family="sans-serif" font-size="20" font-style="italic" lengthAdjust="spacing" textLength="145" x="826" y="281.9707">«system (C4)»</text><text fill="#000000" font-family="sans-serif" font-size="20" lengthAdjust="spacing" textLength="47" x="875" y="305.252">MDD</text><rect fill="#E2E2F0" height="60.5625" rx="2.5" ry="2.5" style="stroke:#181818;stroke-width:0.5;" width="159" x="988" y="26.7188"/><text fill="#000000" font-family="sans-serif" font-size="20" font-style="italic" lengthAdjust="spacing" textLength="145" x="995" y="52.2832">«system (C4)»</text><text fill="#000000" font-family="sans-serif" font-size="20" lengthAdjust="spacing" textLength="88" x="1023.5" y="75.5645">Planning</text><rect fill="#E2E2F0" height="60.5625" rx="2.5" ry="2.5" style="stroke:#181818;stroke-width:0.5;" width="159" x="988" y="256.4063"/><text fill="#000000" font-family="sans-serif" font-size="20" font-style="italic" lengthAdjust="spacing" textLength="145" x="995" y="281.9707">«system (C4)»</text><text fill="#000000" font-family="sans-serif" font-size="20" lengthAdjust="spacing" textLength="88" x="1023.5" y="305.252">Planning</text><rect fill="#FFFFFF" height="141.125" style="stroke:#181818;stroke-width:1.0;" width="10" x="90.5" y="98.2813"/><rect fill="#FFFFFF" height="111.8438" style="stroke:#181818;stroke-width:1.0;" width="10" x="400.5" y="127.5625"/><rect fill="#FFFFFF" height="37.2813" style="stroke:#181818;stroke-width:1.0;" width="10" x="893.5" y="164.8438"/><polygon fill="#181818" points="388.5,123.5625,398.5,127.5625,388.5,131.5625,392.5,127.5625" style="stroke:#181818;stroke-width:1.0;"/><line style="stroke:#181818;stroke-width:1.0;" x1="100.5" x2="394.5" y1="127.5625" y2="127.5625"/><text fill="#000000" font-family="sans-serif" font-size="20" font-weight="bold" lengthAdjust="spacing" textLength="14" x="107.5" y="120.8457">1</text><text fill="#000000" font-family="sans-serif" font-size="20" lengthAdjust="spacing" textLength="263" x="125.5" y="120.8457">asks to create a new room</text><polygon fill="#181818" points="881.5,160.8438,891.5,164.8438,881.5,168.8438,885.5,164.8438" style="stroke:#181818;stroke-width:1.0;"/><line style="stroke:#181818;stroke-width:1.0;" x1="410.5" x2="887.5" y1="164.8438" y2="164.8438"/><text fill="#000000" font-family="sans-serif" font-size="20" font-weight="bold" lengthAdjust="spacing" textLength="14" x="417.5" y="158.127">2</text><text fill="#000000" font-family="sans-serif" font-size="20" lengthAdjust="spacing" textLength="446" x="435.5" y="158.127">POST /buildings/:building/floors/:floor/rooms</text><polygon fill="#181818" points="421.5,198.125,411.5,202.125,421.5,206.125,417.5,202.125" style="stroke:#181818;stroke-width:1.0;"/><line style="stroke:#181818;stroke-width:1.0;stroke-dasharray:2.0,2.0;" x1="415.5" x2="897.5" y1="202.125" y2="202.125"/><text fill="#000000" font-family="sans-serif" font-size="20" font-weight="bold" lengthAdjust="spacing" textLength="14" x="427.5" y="195.4082">3</text><text fill="#000000" font-family="sans-serif" font-size="20" lengthAdjust="spacing" textLength="113" x="445.5" y="195.4082">201 (room)</text><polygon fill="#181818" points="106.5,235.4063,96.5,239.4063,106.5,243.4063,102.5,239.4063" style="stroke:#181818;stroke-width:1.0;"/><line style="stroke:#181818;stroke-width:1.0;stroke-dasharray:2.0,2.0;" x1="100.5" x2="404.5" y1="239.4063" y2="239.4063"/><text fill="#000000" font-family="sans-serif" font-size="20" font-weight="bold" lengthAdjust="spacing" textLength="14" x="112.5" y="232.6895">4</text><text fill="#000000" font-family="sans-serif" font-size="20" lengthAdjust="spacing" textLength="130" x="130.5" y="232.6895">returns room</text><!--SRC=[VOyzQyCm48Pt_Oh3Kp8Ofw6JCLuI2XbC3McwN-nB49PFHZgrDB- -aaD8Gg6JlfxtlKT-q3oXmz7ORg0UUZfXCF9cMVRwGh1UAGnYEOn7SafX9zR1fW7qa6rmd8A71XdFv38LUqHtUa8MEEncv5FxW4PVKBJb3AhA_tYX4HQRrsLTFoMQxNQEnFL_i9snrY2pvlDVThRKNoWKHPMAidcTVCgO6po8XSvHUaLW-WPdxNXF77PAHJOcaay9xVl-0ufZqAQFmtnHthR5oLZhuiMy5gd5tsjYMAM2_3PwlNg1HOAMggSdB0bMUNx574bmxAzI3s3IUZZ6V_q2]--></g></svg>