<?xml version="1.0" encoding="UTF-8" standalone="no"?><svg xmlns="http://www.w3.org/2000/svg" xmlns:xlink="http://www.w3.org/1999/xlink" contentStyleType="text/css" height="494px" preserveAspectRatio="none" style="width:1365px;height:494px;background:#FFFFFF;" version="1.1" viewBox="0 0 1365 494" width="1365px" zoomAndPan="magnify"><defs/><g><rect fill="#FFFFFF" height="290.25" style="stroke:#181818;stroke-width:1.0;" width="10" x="90.5" y="98.2813"/><rect fill="#FFFFFF" height="111.8438" style="stroke:#181818;stroke-width:1.0;" width="10" x="780.5" y="127.5625"/><rect fill="#FFFFFF" height="111.8438" style="stroke:#181818;stroke-width:1.0;" width="10" x="780.5" y="276.6875"/><rect fill="#FFFFFF" height="37.2813" style="stroke:#181818;stroke-width:1.0;" width="10" x="1105.5" y="164.8438"/><rect fill="#FFFFFF" height="37.2813" style="stroke:#181818;stroke-width:1.0;" width="10" x="1105.5" y="313.9688"/><line style="stroke:#181818;stroke-width:0.5;stroke-dasharray:5.0,5.0;" x1="95" x2="95" y1="88.2813" y2="406.5313"/><line style="stroke:#181818;stroke-width:0.5;stroke-dasharray:5.0,5.0;" x1="785" x2="785" y1="88.2813" y2="406.5313"/><line style="stroke:#181818;stroke-width:0.5;stroke-dasharray:5.0,5.0;" x1="1110" x2="1110" y1="88.2813" y2="406.5313"/><line style="stroke:#181818;stroke-width:0.5;stroke-dasharray:5.0,5.0;" x1="1279" x2="1279" y1="88.2813" y2="406.5313"/><text fill="#000000" font-family="sans-serif" font-size="20" lengthAdjust="spacing" textLength="175" x="5" y="83.5645">Campus Manager</text><ellipse cx="95.5" cy="13.5" fill="#E2E2F0" rx="8" ry="8" style="stroke:#181818;stroke-width:0.5;"/><path d="M95.5,21.5 L95.5,48.5 M82.5,29.5 L108.5,29.5 M95.5,48.5 L82.5,63.5 M95.5,48.5 L108.5,63.5 " fill="none" style="stroke:#181818;stroke-width:0.5;"/><text fill="#000000" font-family="sans-serif" font-size="20" lengthAdjust="spacing" textLength="175" x="5" y="424.0957">Campus Manager</text><ellipse cx="95.5" cy="437.3125" fill="#E2E2F0" rx="8" ry="8" style="stroke:#181818;stroke-width:0.5;"/><path d="M95.5,445.3125 L95.5,472.3125 M82.5,453.3125 L108.5,453.3125 M95.5,472.3125 L82.5,487.3125 M95.5,472.3125 L108.5,487.3125 " fill="none" style="stroke:#181818;stroke-width:0.5;"/><rect fill="#E2E2F0" height="60.5625" rx="2.5" ry="2.5" style="stroke:#181818;stroke-width:0.5;" width="159" x="706" y="26.7188"/><text fill="#000000" font-family="sans-serif" font-size="20" font-style="italic" lengthAdjust="spacing" textLength="145" x="713" y="52.2832">«system (C4)»</text><text fill="#000000" font-family="sans-serif" font-size="20" lengthAdjust="spacing" textLength="129" x="721" y="75.5645">Visualization</text><rect fill="#E2E2F0" height="60.5625" rx="2.5" ry="2.5" style="stroke:#181818;stroke-width:0.5;" width="159" x="706" y="405.5313"/><text fill="#000000" font-family="sans-serif" font-size="20" font-style="italic" lengthAdjust="spacing" textLength="145" x="713" y="431.0957">«system (C4)»</text><text fill="#000000" font-family="sans-serif" font-size="20" lengthAdjust="spacing" textLength="129" x="721" y="454.377">Visualization</text><rect fill="#E2E2F0" height="60.5625" rx="2.5" ry="2.5" style="stroke:#181818;stroke-width:0.5;" width="159" x="1031" y="26.7188"/><text fill="#000000" font-family="sans-serif" font-size="20" font-style="italic" lengthAdjust="spacing" textLength="145" x="1038" y="52.2832">«system (C4)»</text><text fill="#000000" font-family="sans-serif" font-size="20" lengthAdjust="spacing" textLength="47" x="1087" y="75.5645">MDD</text><rect fill="#E2E2F0" height="60.5625" rx="2.5" ry="2.5" style="stroke:#181818;stroke-width:0.5;" width="159" x="1031" y="405.5313"/><text fill="#000000" font-family="sans-serif" font-size="20" font-style="italic" lengthAdjust="spacing" textLength="145" x="1038" y="431.0957">«system (C4)»</text><text fill="#000000" font-family="sans-serif" font-size="20" lengthAdjust="spacing" textLength="47" x="1087" y="454.377">MDD</text><rect fill="#E2E2F0" height="60.5625" rx="2.5" ry="2.5" style="stroke:#181818;stroke-width:0.5;" width="159" x="1200" y="26.7188"/><text fill="#000000" font-family="sans-serif" font-size="20" font-style="italic" lengthAdjust="spacing" textLength="145" x="1207" y="52.2832">«system (C4)»</text><text fill="#000000" font-family="sans-serif" font-size="20" lengthAdjust="spacing" textLength="88" x="1235.5" y="75.5645">Planning</text><rect fill="#E2E2F0" height="60.5625" rx="2.5" ry="2.5" style="stroke:#181818;stroke-width:0.5;" width="159" x="1200" y="405.5313"/><text fill="#000000" font-family="sans-serif" font-size="20" font-style="italic" lengthAdjust="spacing" textLength="145" x="1207" y="431.0957">«system (C4)»</text><text fill="#000000" font-family="sans-serif" font-size="20" lengthAdjust="spacing" textLength="88" x="1235.5" y="454.377">Planning</text><rect fill="#FFFFFF" height="290.25" style="stroke:#181818;stroke-width:1.0;" width="10" x="90.5" y="98.2813"/><rect fill="#FFFFFF" height="111.8438" style="stroke:#181818;stroke-width:1.0;" width="10" x="780.5" y="127.5625"/><rect fill="#FFFFFF" height="111.8438" style="stroke:#181818;stroke-width:1.0;" width="10" x="780.5" y="276.6875"/><rect fill="#FFFFFF" height="37.2813" style="stroke:#181818;stroke-width:1.0;" width="10" x="1105.5" y="164.8438"/><rect fill="#FFFFFF" height="37.2813" style="stroke:#181818;stroke-width:1.0;" width="10" x="1105.5" y="313.9688"/><polygon fill="#181818" points="768.5,123.5625,778.5,127.5625,768.5,131.5625,772.5,127.5625" style="stroke:#181818;stroke-width:1.0;"/><line style="stroke:#181818;stroke-width:1.0;" x1="100.5" x2="774.5" y1="127.5625" y2="127.5625"/><text fill="#000000" font-family="sans-serif" font-size="20" font-weight="bold" lengthAdjust="spacing" textLength="14" x="107.5" y="120.8457">1</text><text fill="#000000" font-family="sans-serif" font-size="20" lengthAdjust="spacing" textLength="233" x="125.5" y="120.8457">asks to edit an elevator</text><polygon fill="#181818" points="1093.5,160.8438,1103.5,164.8438,1093.5,168.8438,1097.5,164.8438" style="stroke:#181818;stroke-width:1.0;"/><line style="stroke:#181818;stroke-width:1.0;" x1="790.5" x2="1099.5" y1="164.8438" y2="164.8438"/><text fill="#000000" font-family="sans-serif" font-size="20" font-weight="bold" lengthAdjust="spacing" textLength="14" x="797.5" y="158.127">2</text><text fill="#000000" font-family="sans-serif" font-size="20" lengthAdjust="spacing" textLength="278" x="815.5" y="158.127">GET /buildings/:id/elevators</text><polygon fill="#181818" points="801.5,198.125,791.5,202.125,801.5,206.125,797.5,202.125" style="stroke:#181818;stroke-width:1.0;"/><line style="stroke:#181818;stroke-width:1.0;stroke-dasharray:2.0,2.0;" x1="795.5" x2="1109.5" y1="202.125" y2="202.125"/><text fill="#000000" font-family="sans-serif" font-size="20" font-weight="bold" lengthAdjust="spacing" textLength="14" x="807.5" y="195.4082">3</text><text fill="#000000" font-family="sans-serif" font-size="20" lengthAdjust="spacing" textLength="142" x="825.5" y="195.4082">200 (elevator)</text><polygon fill="#181818" points="111.5,235.4063,101.5,239.4063,111.5,243.4063,107.5,239.4063" style="stroke:#181818;stroke-width:1.0;"/><line style="stroke:#181818;stroke-width:1.0;stroke-dasharray:2.0,2.0;" x1="105.5" x2="784.5" y1="239.4063" y2="239.4063"/><text fill="#000000" font-family="sans-serif" font-size="20" font-weight="bold" lengthAdjust="spacing" textLength="14" x="117.5" y="232.6895">4</text><text fill="#000000" font-family="sans-serif" font-size="20" lengthAdjust="spacing" textLength="200" x="135.5" y="232.6895">shows elevator data</text><polygon fill="#181818" points="768.5,272.6875,778.5,276.6875,768.5,280.6875,772.5,276.6875" style="stroke:#181818;stroke-width:1.0;"/><line style="stroke:#181818;stroke-width:1.0;" x1="100.5" x2="774.5" y1="276.6875" y2="276.6875"/><text fill="#000000" font-family="sans-serif" font-size="20" font-weight="bold" lengthAdjust="spacing" textLength="14" x="107.5" y="269.9707">5</text><text fill="#000000" font-family="sans-serif" font-size="20" lengthAdjust="spacing" textLength="643" x="125.5" y="269.9707">gives new elevator data (brand,serial number,description,floors)</text><polygon fill="#181818" points="1093.5,309.9688,1103.5,313.9688,1093.5,317.9688,1097.5,313.9688" style="stroke:#181818;stroke-width:1.0;"/><line style="stroke:#181818;stroke-width:1.0;" x1="790.5" x2="1099.5" y1="313.9688" y2="313.9688"/><text fill="#000000" font-family="sans-serif" font-size="20" font-weight="bold" lengthAdjust="spacing" textLength="14" x="797.5" y="307.252">6</text><text fill="#000000" font-family="sans-serif" font-size="20" lengthAdjust="spacing" textLength="276" x="815.5" y="307.252">PUT /buildings/:id/elevators</text><polygon fill="#181818" points="801.5,347.25,791.5,351.25,801.5,355.25,797.5,351.25" style="stroke:#181818;stroke-width:1.0;"/><line style="stroke:#181818;stroke-width:1.0;stroke-dasharray:2.0,2.0;" x1="795.5" x2="1109.5" y1="351.25" y2="351.25"/><text fill="#000000" font-family="sans-serif" font-size="20" font-weight="bold" lengthAdjust="spacing" textLength="14" x="807.5" y="344.5332">7</text><text fill="#000000" font-family="sans-serif" font-size="20" lengthAdjust="spacing" textLength="90" x="825.5" y="344.5332">200 (OK)</text><polygon fill="#181818" points="106.5,384.5313,96.5,388.5313,106.5,392.5313,102.5,388.5313" style="stroke:#181818;stroke-width:1.0;"/><line style="stroke:#181818;stroke-width:1.0;stroke-dasharray:2.0,2.0;" x1="100.5" x2="784.5" y1="388.5313" y2="388.5313"/><text fill="#000000" font-family="sans-serif" font-size="20" font-weight="bold" lengthAdjust="spacing" textLength="14" x="112.5" y="381.8145">8</text><text fill="#000000" font-family="sans-serif" font-size="20" lengthAdjust="spacing" textLength="301" x="130.5" y="381.8145">returns confirmation message</text><!--SRC=[dPB1QW8n48RlUOh1auAB8Zs9UD6sI94AhRsFcz4EPfCbarNgqtTsnUgsuA6d4FZ-vFkJaJtx4YCMBkHxic1fYvLBJy6dDpuHZ8O6gnHyLMme6eDv2X5cIq21pWoBiX9OeiSTnOxHSnBdNA9Fi5uqo0TBXOvFc3Zu3amcyYM92kZE7dhJQIkndC-RYAxtmLM3hHnwptxtbsqi-O29LDGObSscjSzOStk1580i9q0Fv4Yn4A-1zS8egNnjCuRdntSOR2fsLc-ImPZju9AHQqXPK_FPvPxHS0ZT2zWpbbfeRJJ9iZCgd-4eFo9WCU4jhpwt1NPy805FntO2kfk8tlQ58gE3ysVrBKaUkQnVlhzrGPLxhQAjfglr_vk-ljpl62bLqGlamMyv5iqiG44YEZQ_ozxkzVU-0G00]--></g></svg>