<?xml version="1.0" encoding="UTF-8" standalone="no"?><svg xmlns="http://www.w3.org/2000/svg" xmlns:xlink="http://www.w3.org/1999/xlink" contentStyleType="text/css" height="536px" preserveAspectRatio="none" style="width:2590px;height:536px;background:#FFFFFF;" version="1.1" viewBox="0 0 2590 536" width="2590px" zoomAndPan="magnify"><defs/><g><rect fill="#FFFFFF" height="394.0938" style="stroke:#181818;stroke-width:1.0;" width="10" x="588" y="82.5625"/><rect fill="#FFFFFF" height="319.5313" style="stroke:#181818;stroke-width:1.0;" width="10" x="1055" y="119.8438"/><rect fill="#FFFFFF" height="244.9688" style="stroke:#181818;stroke-width:1.0;" width="10" x="1522" y="157.125"/><rect fill="#FFFFFF" height="37.2813" style="stroke:#181818;stroke-width:1.0;" width="10" x="1995" y="194.4063"/><rect fill="#FFFFFF" height="37.2813" style="stroke:#181818;stroke-width:1.0;" width="10" x="2156.5" y="309.5313"/><rect fill="none" height="119.125" style="stroke:#000000;stroke-width:1.5;" width="1156.5" x="1428" y="246.6875"/><line style="stroke:#181818;stroke-width:0.5;stroke-dasharray:5.0,5.0;" x1="593" x2="593" y1="43.2813" y2="494.6563"/><line style="stroke:#181818;stroke-width:0.5;stroke-dasharray:5.0,5.0;" x1="1060" x2="1060" y1="43.2813" y2="494.6563"/><line style="stroke:#181818;stroke-width:0.5;stroke-dasharray:5.0,5.0;" x1="1527" x2="1527" y1="43.2813" y2="494.6563"/><line style="stroke:#181818;stroke-width:0.5;stroke-dasharray:5.0,5.0;" x1="1723" x2="1723" y1="43.2813" y2="494.6563"/><line style="stroke:#181818;stroke-width:0.5;stroke-dasharray:5.0,5.0;" x1="2000" x2="2000" y1="43.2813" y2="494.6563"/><line style="stroke:#181818;stroke-width:0.5;stroke-dasharray:5.0,5.0;" x1="2161" x2="2161" y1="43.2813" y2="494.6563"/><line style="stroke:#181818;stroke-width:0.5;stroke-dasharray:5.0,5.0;" x1="2430.5" x2="2430.5" y1="351.6719" y2="494.6563"/><rect fill="#E2E2F0" height="37.2813" rx="2.5" ry="2.5" style="stroke:#181818;stroke-width:0.5;" width="164" x="511" y="5"/><text fill="#000000" font-family="sans-serif" font-size="20" lengthAdjust="spacing" textLength="150" x="518" y="30.5645">:BuildingRoute</text><rect fill="#E2E2F0" height="37.2813" rx="2.5" ry="2.5" style="stroke:#181818;stroke-width:0.5;" width="164" x="511" y="493.6563"/><text fill="#000000" font-family="sans-serif" font-size="20" lengthAdjust="spacing" textLength="150" x="518" y="519.2207">:BuildingRoute</text><rect fill="#E2E2F0" height="37.2813" rx="2.5" ry="2.5" style="stroke:#181818;stroke-width:0.5;" width="204" x="958" y="5"/><text fill="#000000" font-family="sans-serif" font-size="20" lengthAdjust="spacing" textLength="190" x="965" y="30.5645">:BuildingController</text><rect fill="#E2E2F0" height="37.2813" rx="2.5" ry="2.5" style="stroke:#181818;stroke-width:0.5;" width="204" x="958" y="493.6563"/><text fill="#000000" font-family="sans-serif" font-size="20" lengthAdjust="spacing" textLength="190" x="965" y="519.2207">:BuildingController</text><rect fill="#E2E2F0" height="37.2813" rx="2.5" ry="2.5" style="stroke:#181818;stroke-width:0.5;" width="178" x="1438" y="5"/><text fill="#000000" font-family="sans-serif" font-size="20" lengthAdjust="spacing" textLength="164" x="1445" y="30.5645">:BuildingService</text><rect fill="#E2E2F0" height="37.2813" rx="2.5" ry="2.5" style="stroke:#181818;stroke-width:0.5;" width="178" x="1438" y="493.6563"/><text fill="#000000" font-family="sans-serif" font-size="20" lengthAdjust="spacing" textLength="164" x="1445" y="519.2207">:BuildingService</text><rect fill="#E2E2F0" height="37.2813" rx="2.5" ry="2.5" style="stroke:#181818;stroke-width:0.5;" width="195" x="1626" y="5"/><text fill="#000000" font-family="sans-serif" font-size="20" lengthAdjust="spacing" textLength="181" x="1633" y="30.5645">:building:Building</text><rect fill="#E2E2F0" height="37.2813" rx="2.5" ry="2.5" style="stroke:#181818;stroke-width:0.5;" width="195" x="1626" y="493.6563"/><text fill="#000000" font-family="sans-serif" font-size="20" lengthAdjust="spacing" textLength="181" x="1633" y="519.2207">:building:Building</text><rect fill="#E2E2F0" height="37.2813" rx="2.5" ry="2.5" style="stroke:#181818;stroke-width:0.5;" width="156" x="1922" y="5"/><text fill="#000000" font-family="sans-serif" font-size="20" lengthAdjust="spacing" textLength="142" x="1929" y="30.5645">:BuildingRepo</text><rect fill="#E2E2F0" height="37.2813" rx="2.5" ry="2.5" style="stroke:#181818;stroke-width:0.5;" width="156" x="1922" y="493.6563"/><text fill="#000000" font-family="sans-serif" font-size="20" lengthAdjust="spacing" textLength="142" x="1929" y="519.2207">:BuildingRepo</text><rect fill="#E2E2F0" height="37.2813" rx="2.5" ry="2.5" style="stroke:#181818;stroke-width:0.5;" width="147" x="2088" y="5"/><text fill="#000000" font-family="sans-serif" font-size="20" lengthAdjust="spacing" textLength="133" x="2095" y="30.5645">:BuildingMap</text><rect fill="#E2E2F0" height="37.2813" rx="2.5" ry="2.5" style="stroke:#181818;stroke-width:0.5;" width="147" x="2088" y="493.6563"/><text fill="#000000" font-family="sans-serif" font-size="20" lengthAdjust="spacing" textLength="133" x="2095" y="519.2207">:BuildingMap</text><rect fill="#E2E2F0" height="37.2813" rx="2.5" ry="2.5" style="stroke:#181818;stroke-width:0.5;" width="287" x="2287.5" y="493.6563"/><text fill="#000000" font-family="sans-serif" font-size="20" lengthAdjust="spacing" textLength="273" x="2294.5" y="519.2207">:buildingDTO:IBuildingDTO</text><rect fill="#FFFFFF" height="394.0938" style="stroke:#181818;stroke-width:1.0;" width="10" x="588" y="82.5625"/><rect fill="#FFFFFF" height="319.5313" style="stroke:#181818;stroke-width:1.0;" width="10" x="1055" y="119.8438"/><rect fill="#FFFFFF" height="244.9688" style="stroke:#181818;stroke-width:1.0;" width="10" x="1522" y="157.125"/><rect fill="#FFFFFF" height="37.2813" style="stroke:#181818;stroke-width:1.0;" width="10" x="1995" y="194.4063"/><rect fill="#FFFFFF" height="37.2813" style="stroke:#181818;stroke-width:1.0;" width="10" x="2156.5" y="309.5313"/><ellipse cx="4.5" cy="81.8125" fill="none" rx="4" ry="4" style="stroke:#181818;stroke-width:1.5;"/><polygon fill="#181818" points="576,78.5625,586,82.5625,576,86.5625,580,82.5625" style="stroke:#181818;stroke-width:1.0;"/><line style="stroke:#181818;stroke-width:1.0;" x1="9" x2="582" y1="82.5625" y2="82.5625"/><text fill="#000000" font-family="sans-serif" font-size="20" font-weight="bold" lengthAdjust="spacing" textLength="14" x="12" y="75.8457">1</text><text fill="#000000" font-family="sans-serif" font-size="20" lengthAdjust="spacing" textLength="543" x="30" y="75.8457">GET /buildings?minFloors={min}&amp;maxFloors={max}</text><polygon fill="#181818" points="1043,115.8438,1053,119.8438,1043,123.8438,1047,119.8438" style="stroke:#181818;stroke-width:1.0;"/><line style="stroke:#181818;stroke-width:1.0;" x1="598" x2="1049" y1="119.8438" y2="119.8438"/><text fill="#000000" font-family="sans-serif" font-size="20" font-weight="bold" lengthAdjust="spacing" textLength="14" x="605" y="113.127">2</text><text fill="#000000" font-family="sans-serif" font-size="20" lengthAdjust="spacing" textLength="420" x="623" y="113.127">getBuildingsWithMinMaxFloors(min, max)</text><polygon fill="#181818" points="1510,153.125,1520,157.125,1510,161.125,1514,157.125" style="stroke:#181818;stroke-width:1.0;"/><line style="stroke:#181818;stroke-width:1.0;" x1="1065" x2="1516" y1="157.125" y2="157.125"/><text fill="#000000" font-family="sans-serif" font-size="20" font-weight="bold" lengthAdjust="spacing" textLength="14" x="1072" y="150.4082">3</text><text fill="#000000" font-family="sans-serif" font-size="20" lengthAdjust="spacing" textLength="420" x="1090" y="150.4082">getBuildingsWithMinMaxFloors(min, max)</text><polygon fill="#181818" points="1983,190.4063,1993,194.4063,1983,198.4063,1987,194.4063" style="stroke:#181818;stroke-width:1.0;"/><line style="stroke:#181818;stroke-width:1.0;" x1="1532" x2="1989" y1="194.4063" y2="194.4063"/><text fill="#000000" font-family="sans-serif" font-size="20" font-weight="bold" lengthAdjust="spacing" textLength="14" x="1539" y="187.6895">4</text><text fill="#000000" font-family="sans-serif" font-size="20" lengthAdjust="spacing" textLength="426" x="1557" y="187.6895">findBuildingsWithMinMaxFloors(min, max)</text><polygon fill="#181818" points="1543,227.6875,1533,231.6875,1543,235.6875,1539,231.6875" style="stroke:#181818;stroke-width:1.0;"/><line style="stroke:#181818;stroke-width:1.0;stroke-dasharray:2.0,2.0;" x1="1537" x2="1999" y1="231.6875" y2="231.6875"/><text fill="#000000" font-family="sans-serif" font-size="20" font-weight="bold" lengthAdjust="spacing" textLength="14" x="1549" y="224.9707">5</text><text fill="#000000" font-family="sans-serif" font-size="20" lengthAdjust="spacing" textLength="93" x="1567" y="224.9707">buildings</text><path d="M1428,246.6875 L1522,246.6875 L1522,261.9688 L1512,271.9688 L1428,271.9688 L1428,246.6875 " fill="#EEEEEE" style="stroke:#000000;stroke-width:1.5;"/><rect fill="none" height="119.125" style="stroke:#000000;stroke-width:1.5;" width="1156.5" x="1428" y="246.6875"/><text fill="#000000" font-family="sans-serif" font-size="20" font-weight="bold" lengthAdjust="spacing" textLength="49" x="1443" y="266.252">loop</text><text fill="#000000" font-family="sans-serif" font-size="20" font-weight="bold" lengthAdjust="spacing" textLength="203" x="1537" y="267.252">[foreach building]</text><polygon fill="#181818" points="2144.5,305.5313,2154.5,309.5313,2144.5,313.5313,2148.5,309.5313" style="stroke:#181818;stroke-width:1.0;"/><line style="stroke:#181818;stroke-width:1.0;" x1="1532" x2="2150.5" y1="309.5313" y2="309.5313"/><text fill="#000000" font-family="sans-serif" font-size="20" font-weight="bold" lengthAdjust="spacing" textLength="14" x="1539" y="302.8145">6</text><text fill="#000000" font-family="sans-serif" font-size="20" lengthAdjust="spacing" textLength="154" x="1557" y="302.8145">toDto(building)</text><polygon fill="#181818" points="2275.5,342.8125,2285.5,346.8125,2275.5,350.8125,2279.5,346.8125" style="stroke:#181818;stroke-width:1.0;"/><line style="stroke:#181818;stroke-width:1.0;" x1="2161.5" x2="2281.5" y1="346.8125" y2="346.8125"/><text fill="#000000" font-family="sans-serif" font-size="20" font-weight="bold" lengthAdjust="spacing" textLength="14" x="2168.5" y="340.0957">7</text><text fill="#000000" font-family="sans-serif" font-size="20" lengthAdjust="spacing" textLength="79" x="2186.5" y="340.0957">create()</text><rect fill="#E2E2F0" height="37.2813" rx="2.5" ry="2.5" style="stroke:#181818;stroke-width:0.5;" width="287" x="2287.5" y="317.5313"/><text fill="#000000" font-family="sans-serif" font-size="20" lengthAdjust="spacing" textLength="273" x="2294.5" y="343.0957">:buildingDTO:IBuildingDTO</text><polygon fill="#181818" points="1076,398.0938,1066,402.0938,1076,406.0938,1072,402.0938" style="stroke:#181818;stroke-width:1.0;"/><line style="stroke:#181818;stroke-width:1.0;stroke-dasharray:2.0,2.0;" x1="1070" x2="1526" y1="402.0938" y2="402.0938"/><text fill="#000000" font-family="sans-serif" font-size="20" font-weight="bold" lengthAdjust="spacing" textLength="14" x="1082" y="395.377">8</text><text fill="#000000" font-family="sans-serif" font-size="20" lengthAdjust="spacing" textLength="229" x="1100" y="395.377">success(buildingsDTO)</text><polygon fill="#181818" points="609,435.375,599,439.375,609,443.375,605,439.375" style="stroke:#181818;stroke-width:1.0;"/><line style="stroke:#181818;stroke-width:1.0;stroke-dasharray:2.0,2.0;" x1="603" x2="1059" y1="439.375" y2="439.375"/><text fill="#000000" font-family="sans-serif" font-size="20" font-weight="bold" lengthAdjust="spacing" textLength="14" x="615" y="432.6582">9</text><text fill="#000000" font-family="sans-serif" font-size="20" lengthAdjust="spacing" textLength="229" x="633" y="432.6582">success(buildingsDTO)</text><polygon fill="#181818" points="11,472.6563,1,476.6563,11,480.6563,7,476.6563" style="stroke:#181818;stroke-width:1.0;"/><line style="stroke:#181818;stroke-width:1.0;stroke-dasharray:2.0,2.0;" x1="5" x2="592" y1="476.6563" y2="476.6563"/><text fill="#000000" font-family="sans-serif" font-size="20" font-weight="bold" lengthAdjust="spacing" textLength="28" x="17" y="469.9395">10</text><text fill="#000000" font-family="sans-serif" font-size="20" lengthAdjust="spacing" textLength="74" x="49" y="469.9395">200 OK</text><!--SRC=[bP5FRu8m68Vl_HIDXqNDo8n7icdclyLCWa7SpXMgDa9BQ35cYzzzRujKwsMH4vJdzxJzlVB0U45AacSYET0KftHBgapD15ShzaDnluT8fGIlyWqj4P2A9QmWNE4eNCTJJ2Hk-QEAPIdZkqXKYhOSQXn72nSQWxeKMKPBbrn5NowuekMH9NU-qNg-cDJSviBPW4j6qsLuTpnQ29S9tfSk4f329IPnwEu62_vyTFre8JGKtk1IXuy_fZ5-QM0vp1cVPKAKykqNNizFEJdPRt8w8v8eTYIArdc4QWtuJ74-tb7LR2Q_cTe7Z0UDeWt6PmoQpbMZOyXamQ4hVLm1AQIJ-bAwGnzl6KyVKkWSCc7F7iDsWbBgWg0fy5QKiBot6CBmN8wXn-HZ9IPAj9l_7GDO4I1cGQEGWC5qkv19GAfekuPlzjKuvMbzpslRiaeIAgNTH8AdStjUtKtTxit8_qsPeRnwdatqUpqSVZf5cF7_0G00]--></g></svg>