<?xml version="1.0" encoding="UTF-8" standalone="no"?><svg xmlns="http://www.w3.org/2000/svg" xmlns:xlink="http://www.w3.org/1999/xlink" contentStyleType="text/css" height="592px" preserveAspectRatio="none" style="width:2383px;height:592px;background:#FFFFFF;" version="1.1" viewBox="0 0 2383 592" width="2383px" zoomAndPan="magnify"><defs/><g><rect fill="#FFFFFF" height="437.6397" style="stroke:#181818;stroke-width:1.0;" width="10" x="522.625" y="90.4799"/><rect fill="#FFFFFF" height="355.1598" style="stroke:#181818;stroke-width:1.0;" width="10" x="957.25" y="131.7199"/><rect fill="#FFFFFF" height="272.6798" style="stroke:#181818;stroke-width:1.0;" width="10" x="1391.875" y="172.9599"/><rect fill="#FFFFFF" height="41.24" style="stroke:#181818;stroke-width:1.0;" width="10" x="1832.5" y="214.1999"/><rect fill="#FFFFFF" height="41.24" style="stroke:#181818;stroke-width:1.0;" width="10" x="1981.5" y="345.1598"/><rect fill="none" height="134.9599" style="stroke:#000000;stroke-width:1.5;" width="1070.75" x="1306.375" y="270.4398"/><line style="stroke:#181818;stroke-width:0.5;stroke-dasharray:5.0,5.0;" x1="527.125" x2="527.125" y1="47.24" y2="546.1197"/><line style="stroke:#181818;stroke-width:0.5;stroke-dasharray:5.0,5.0;" x1="962.25" x2="962.25" y1="47.24" y2="546.1197"/><line style="stroke:#181818;stroke-width:0.5;stroke-dasharray:5.0,5.0;" x1="1396.375" x2="1396.375" y1="47.24" y2="546.1197"/><line style="stroke:#181818;stroke-width:0.5;stroke-dasharray:5.0,5.0;" x1="1574.375" x2="1574.375" y1="47.24" y2="546.1197"/><line style="stroke:#181818;stroke-width:0.5;stroke-dasharray:5.0,5.0;" x1="1837.5" x2="1837.5" y1="47.24" y2="546.1197"/><line style="stroke:#181818;stroke-width:0.5;stroke-dasharray:5.0,5.0;" x1="1986.5" x2="1986.5" y1="47.24" y2="546.1197"/><line style="stroke:#181818;stroke-width:0.5;stroke-dasharray:5.0,5.0;" x1="2234.125" x2="2234.125" y1="389.2798" y2="546.1197"/><rect fill="#E2E2F0" height="41.24" rx="2.5" ry="2.5" style="stroke:#181818;stroke-width:0.5;" width="149" x="453.125" y="5"/><text fill="#000000" font-family="sans-serif" font-size="20" lengthAdjust="spacing" textLength="135" x="460.125" y="33.38">:BuildingRoute</text><rect fill="#E2E2F0" height="41.24" rx="2.5" ry="2.5" style="stroke:#181818;stroke-width:0.5;" width="149" x="453.125" y="545.1197"/><text fill="#000000" font-family="sans-serif" font-size="20" lengthAdjust="spacing" textLength="135" x="460.125" y="573.4997">:BuildingRoute</text><rect fill="#E2E2F0" height="41.24" rx="2.5" ry="2.5" style="stroke:#181818;stroke-width:0.5;" width="188" x="868.25" y="5"/><text fill="#000000" font-family="sans-serif" font-size="20" lengthAdjust="spacing" textLength="174" x="875.25" y="33.38">:BuildingController</text><rect fill="#E2E2F0" height="41.24" rx="2.5" ry="2.5" style="stroke:#181818;stroke-width:0.5;" width="188" x="868.25" y="545.1197"/><text fill="#000000" font-family="sans-serif" font-size="20" lengthAdjust="spacing" textLength="174" x="875.25" y="573.4997">:BuildingController</text><rect fill="#E2E2F0" height="41.24" rx="2.5" ry="2.5" style="stroke:#181818;stroke-width:0.5;" width="161" x="1316.375" y="5"/><text fill="#000000" font-family="sans-serif" font-size="20" lengthAdjust="spacing" textLength="147" x="1323.375" y="33.38">:BuildingService</text><rect fill="#E2E2F0" height="41.24" rx="2.5" ry="2.5" style="stroke:#181818;stroke-width:0.5;" width="161" x="1316.375" y="545.1197"/><text fill="#000000" font-family="sans-serif" font-size="20" lengthAdjust="spacing" textLength="147" x="1323.375" y="573.4997">:BuildingService</text><rect fill="#E2E2F0" height="41.24" rx="2.5" ry="2.5" style="stroke:#181818;stroke-width:0.5;" width="175" x="1487.375" y="5"/><text fill="#000000" font-family="sans-serif" font-size="20" lengthAdjust="spacing" textLength="161" x="1494.375" y="33.38">:building:Building</text><rect fill="#E2E2F0" height="41.24" rx="2.5" ry="2.5" style="stroke:#181818;stroke-width:0.5;" width="175" x="1487.375" y="545.1197"/><text fill="#000000" font-family="sans-serif" font-size="20" lengthAdjust="spacing" textLength="161" x="1494.375" y="573.4997">:building:Building</text><rect fill="#E2E2F0" height="41.24" rx="2.5" ry="2.5" style="stroke:#181818;stroke-width:0.5;" width="142" x="1766.5" y="5"/><text fill="#000000" font-family="sans-serif" font-size="20" lengthAdjust="spacing" textLength="128" x="1773.5" y="33.38">:BuildingRepo</text><rect fill="#E2E2F0" height="41.24" rx="2.5" ry="2.5" style="stroke:#181818;stroke-width:0.5;" width="142" x="1766.5" y="545.1197"/><text fill="#000000" font-family="sans-serif" font-size="20" lengthAdjust="spacing" textLength="128" x="1773.5" y="573.4997">:BuildingRepo</text><rect fill="#E2E2F0" height="41.24" rx="2.5" ry="2.5" style="stroke:#181818;stroke-width:0.5;" width="136" x="1918.5" y="5"/><text fill="#000000" font-family="sans-serif" font-size="20" lengthAdjust="spacing" textLength="122" x="1925.5" y="33.38">:BuildingMap</text><rect fill="#E2E2F0" height="41.24" rx="2.5" ry="2.5" style="stroke:#181818;stroke-width:0.5;" width="136" x="1918.5" y="545.1197"/><text fill="#000000" font-family="sans-serif" font-size="20" lengthAdjust="spacing" textLength="122" x="1925.5" y="573.4997">:BuildingMap</text><rect fill="#E2E2F0" height="41.24" rx="2.5" ry="2.5" style="stroke:#181818;stroke-width:0.5;" width="266" x="2101.125" y="545.1197"/><text fill="#000000" font-family="sans-serif" font-size="20" lengthAdjust="spacing" textLength="252" x="2108.125" y="573.4997">:buildingDTO:IBuildingDTO</text><rect fill="#FFFFFF" height="437.6397" style="stroke:#181818;stroke-width:1.0;" width="10" x="522.625" y="90.4799"/><rect fill="#FFFFFF" height="355.1598" style="stroke:#181818;stroke-width:1.0;" width="10" x="957.25" y="131.7199"/><rect fill="#FFFFFF" height="272.6798" style="stroke:#181818;stroke-width:1.0;" width="10" x="1391.875" y="172.9599"/><rect fill="#FFFFFF" height="41.24" style="stroke:#181818;stroke-width:1.0;" width="10" x="1832.5" y="214.1999"/><rect fill="#FFFFFF" height="41.24" style="stroke:#181818;stroke-width:1.0;" width="10" x="1981.5" y="345.1598"/><ellipse cx="4.5" cy="89.7299" fill="none" rx="4" ry="4" style="stroke:#181818;stroke-width:1.5;"/><polygon fill="#181818" points="510.625,86.4799,520.625,90.4799,510.625,94.4799,514.625,90.4799" style="stroke:#181818;stroke-width:1.0;"/><line style="stroke:#181818;stroke-width:1.0;" x1="9" x2="516.625" y1="90.4799" y2="90.4799"/><text fill="#000000" font-family="sans-serif" font-size="20" font-weight="bold" lengthAdjust="spacing" textLength="11.625" x="12" y="82.62">1</text><text fill="#000000" font-family="sans-serif" font-size="20" lengthAdjust="spacing" textLength="480" x="27.625" y="82.62">GET /buildings?minFloors={min}&amp;maxFloors={max}</text><polygon fill="#181818" points="945.25,127.7199,955.25,131.7199,945.25,135.7199,949.25,131.7199" style="stroke:#181818;stroke-width:1.0;"/><line style="stroke:#181818;stroke-width:1.0;" x1="532.625" x2="951.25" y1="131.7199" y2="131.7199"/><text fill="#000000" font-family="sans-serif" font-size="20" font-weight="bold" lengthAdjust="spacing" textLength="11.625" x="539.625" y="123.8599">2</text><text fill="#000000" font-family="sans-serif" font-size="20" lengthAdjust="spacing" textLength="390" x="555.25" y="123.8599">getBuildingsWithMinMaxFloors(min, max)</text><polygon fill="#181818" points="1379.875,168.9599,1389.875,172.9599,1379.875,176.9599,1383.875,172.9599" style="stroke:#181818;stroke-width:1.0;"/><line style="stroke:#181818;stroke-width:1.0;" x1="967.25" x2="1385.875" y1="172.9599" y2="172.9599"/><text fill="#000000" font-family="sans-serif" font-size="20" font-weight="bold" lengthAdjust="spacing" textLength="11.625" x="974.25" y="165.0999">3</text><text fill="#000000" font-family="sans-serif" font-size="20" lengthAdjust="spacing" textLength="390" x="989.875" y="165.0999">getBuildingsWithMinMaxFloors(min, max)</text><polygon fill="#181818" points="1820.5,210.1999,1830.5,214.1999,1820.5,218.1999,1824.5,214.1999" style="stroke:#181818;stroke-width:1.0;"/><line style="stroke:#181818;stroke-width:1.0;" x1="1401.875" x2="1826.5" y1="214.1999" y2="214.1999"/><text fill="#000000" font-family="sans-serif" font-size="20" font-weight="bold" lengthAdjust="spacing" textLength="11.625" x="1408.875" y="206.3399">4</text><text fill="#000000" font-family="sans-serif" font-size="20" lengthAdjust="spacing" textLength="396" x="1424.5" y="206.3399">findBuildingsWithMinMaxFloors(min, max)</text><polygon fill="#181818" points="1412.875,251.4398,1402.875,255.4398,1412.875,259.4398,1408.875,255.4398" style="stroke:#181818;stroke-width:1.0;"/><line style="stroke:#181818;stroke-width:1.0;" x1="1406.875" x2="1836.5" y1="255.4398" y2="255.4398"/><text fill="#000000" font-family="sans-serif" font-size="20" font-weight="bold" lengthAdjust="spacing" textLength="11.625" x="1418.875" y="247.5799">5</text><text fill="#000000" font-family="sans-serif" font-size="20" lengthAdjust="spacing" textLength="85" x="1434.5" y="247.5799">buildings</text><path d="M1306.375,270.4398 L1394.875,270.4398 L1394.875,289.6798 L1384.875,299.6798 L1306.375,299.6798 L1306.375,270.4398 " fill="#EEEEEE" style="stroke:#000000;stroke-width:1.5;"/><rect fill="none" height="134.9599" style="stroke:#000000;stroke-width:1.5;" width="1070.75" x="1306.375" y="270.4398"/><text fill="#000000" font-family="sans-serif" font-size="20" font-weight="bold" lengthAdjust="spacing" textLength="43.5" x="1321.375" y="292.8198">loop</text><text fill="#000000" font-family="sans-serif" font-size="20" font-weight="bold" lengthAdjust="spacing" textLength="175.625" x="1409.875" y="293.8198">[foreach building]</text><polygon fill="#181818" points="1969.5,341.1598,1979.5,345.1598,1969.5,349.1598,1973.5,345.1598" style="stroke:#181818;stroke-width:1.0;"/><line style="stroke:#181818;stroke-width:1.0;" x1="1401.875" x2="1975.5" y1="345.1598" y2="345.1598"/><text fill="#000000" font-family="sans-serif" font-size="20" font-weight="bold" lengthAdjust="spacing" textLength="11.625" x="1408.875" y="337.2998">6</text><text fill="#000000" font-family="sans-serif" font-size="20" lengthAdjust="spacing" textLength="140" x="1424.5" y="337.2998">toDto(building)</text><polygon fill="#181818" points="2089.125,382.3997,2099.125,386.3997,2089.125,390.3997,2093.125,386.3997" style="stroke:#181818;stroke-width:1.0;"/><line style="stroke:#181818;stroke-width:1.0;" x1="1986.5" x2="2095.125" y1="386.3997" y2="386.3997"/><text fill="#000000" font-family="sans-serif" font-size="20" font-weight="bold" lengthAdjust="spacing" textLength="11.625" x="1993.5" y="378.5398">7</text><text fill="#000000" font-family="sans-serif" font-size="20" lengthAdjust="spacing" textLength="70" x="2009.125" y="378.5398">create()</text><rect fill="#E2E2F0" height="41.24" rx="2.5" ry="2.5" style="stroke:#181818;stroke-width:0.5;" width="266" x="2101.125" y="353.1598"/><text fill="#000000" font-family="sans-serif" font-size="20" lengthAdjust="spacing" textLength="252" x="2108.125" y="381.5398">:buildingDTO:IBuildingDTO</text><polygon fill="#181818" points="978.25,441.6397,968.25,445.6397,978.25,449.6397,974.25,445.6397" style="stroke:#181818;stroke-width:1.0;"/><line style="stroke:#181818;stroke-width:1.0;stroke-dasharray:2.0,2.0;" x1="972.25" x2="1395.875" y1="445.6397" y2="445.6397"/><text fill="#000000" font-family="sans-serif" font-size="20" font-weight="bold" lengthAdjust="spacing" textLength="11.625" x="984.25" y="437.7797">8</text><text fill="#000000" font-family="sans-serif" font-size="20" lengthAdjust="spacing" textLength="202" x="999.875" y="437.7797">sucess(buildingsDTO)</text><polygon fill="#181818" points="543.625,482.8797,533.625,486.8797,543.625,490.8797,539.625,486.8797" style="stroke:#181818;stroke-width:1.0;"/><line style="stroke:#181818;stroke-width:1.0;stroke-dasharray:2.0,2.0;" x1="537.625" x2="961.25" y1="486.8797" y2="486.8797"/><text fill="#000000" font-family="sans-serif" font-size="20" font-weight="bold" lengthAdjust="spacing" textLength="11.625" x="549.625" y="479.0197">9</text><text fill="#000000" font-family="sans-serif" font-size="20" lengthAdjust="spacing" textLength="202" x="565.25" y="479.0197">sucess(buildingsDTO)</text><polygon fill="#181818" points="11,524.1197,1,528.1197,11,532.1197,7,528.1197" style="stroke:#181818;stroke-width:1.0;"/><line style="stroke:#181818;stroke-width:1.0;stroke-dasharray:2.0,2.0;" x1="5" x2="526.625" y1="528.1197" y2="528.1197"/><text fill="#000000" font-family="sans-serif" font-size="20" font-weight="bold" lengthAdjust="spacing" textLength="23.25" x="17" y="520.2597">10</text><text fill="#000000" font-family="sans-serif" font-size="20" lengthAdjust="spacing" textLength="66" x="44.25" y="520.2597">200 OK</text><!--SRC=[bP5FRy8W68VlV0hYOT5bPiPZiytCVukPJKsjsnbRL68B3L1ZjlZTzq8jYfV5dbhw_1xWzwezuoMHfCX5kgSPpkY6LBcU2gwNx8VYVW-HIWjU5Mig4P2QfQmaNECuMYKJJ1Hk1SEAvHdZsrXKchOyQfJ4SnyQWLgAFAVI9vVnbmykgJomzCOtNCtcuvfRdpaNyCbuieXkZaTBuJFX-y97GbBwn3Y9_DrW8PWDBnyjX0QY-tQk8y0VamG_Dx0Q58nFSo6aUls5rzD3GOxkcnnFYAIQ7OYcTHwXMWC-Mro0jrGtcwblfdSXus6ZQ8Fn2OEcSz6O6B9PS9XAxrT02fcakPJfCC0RnhEx52Q7RDYTmbM2CkfpO2dnHaXOtZaCONZEfp1J2h0MOotQpV-E1Pm84BjWK4Z0N1uV8PE2LDDs3L_jQt3Ai_gQbx9LbLAbt1uAD9thuvfcwcwl1lvVo4xafTjrWNwlXwDFhmOx-py0]--></g></svg>