<?xml version="1.0" encoding="UTF-8" standalone="no"?><svg xmlns="http://www.w3.org/2000/svg" xmlns:xlink="http://www.w3.org/1999/xlink" contentStyleType="text/css" height="600px" preserveAspectRatio="none" style="width:3407px;height:600px;background:#FFFFFF;" version="1.1" viewBox="0 0 3407 600" width="3407px" zoomAndPan="magnify"><defs/><g><rect fill="#FFFFFF" height="457.6563" style="stroke:#181818;stroke-width:1.0;" width="10" x="909" y="82.5625"/><rect fill="#FFFFFF" height="383.0938" style="stroke:#181818;stroke-width:1.0;" width="10" x="1603" y="119.8438"/><rect fill="#FFFFFF" height="308.5313" style="stroke:#181818;stroke-width:1.0;" width="10" x="2297" y="157.125"/><rect fill="#FFFFFF" height="37.2813" style="stroke:#181818;stroke-width:1.0;" width="10" x="2897" y="194.4063"/><rect fill="#FFFFFF" height="111.8438" style="stroke:#181818;stroke-width:1.0;" width="10" x="3105" y="309.5313"/><rect fill="#FFFFFF" height="37.2813" style="stroke:#181818;stroke-width:1.0;" width="10" x="3303" y="346.8125"/><rect fill="none" height="182.6875" style="stroke:#000000;stroke-width:1.5;" width="1208" x="2193.5" y="246.6875"/><line style="stroke:#181818;stroke-width:0.5;stroke-dasharray:5.0,5.0;" x1="913.5" x2="913.5" y1="43.2813" y2="558.2188"/><line style="stroke:#181818;stroke-width:0.5;stroke-dasharray:5.0,5.0;" x1="1607.5" x2="1607.5" y1="43.2813" y2="558.2188"/><line style="stroke:#181818;stroke-width:0.5;stroke-dasharray:5.0,5.0;" x1="2301.5" x2="2301.5" y1="43.2813" y2="558.2188"/><line style="stroke:#181818;stroke-width:0.5;stroke-dasharray:5.0,5.0;" x1="2472.5" x2="2472.5" y1="43.2813" y2="558.2188"/><line style="stroke:#181818;stroke-width:0.5;stroke-dasharray:5.0,5.0;" x1="2902" x2="2902" y1="43.2813" y2="558.2188"/><line style="stroke:#181818;stroke-width:0.5;stroke-dasharray:5.0,5.0;" x1="3110" x2="3110" y1="43.2813" y2="558.2188"/><line style="stroke:#181818;stroke-width:0.5;stroke-dasharray:5.0,5.0;" x1="3307.5" x2="3307.5" y1="43.2813" y2="558.2188"/><rect fill="#E2E2F0" height="37.2813" rx="2.5" ry="2.5" style="stroke:#181818;stroke-width:0.5;" width="183" x="822.5" y="5"/><text fill="#000000" font-family="sans-serif" font-size="20" lengthAdjust="spacing" textLength="169" x="829.5" y="30.5645">:ConnectorRoute</text><rect fill="#E2E2F0" height="37.2813" rx="2.5" ry="2.5" style="stroke:#181818;stroke-width:0.5;" width="183" x="822.5" y="557.2188"/><text fill="#000000" font-family="sans-serif" font-size="20" lengthAdjust="spacing" textLength="169" x="829.5" y="582.7832">:ConnectorRoute</text><rect fill="#E2E2F0" height="37.2813" rx="2.5" ry="2.5" style="stroke:#181818;stroke-width:0.5;" width="223" x="1496.5" y="5"/><text fill="#000000" font-family="sans-serif" font-size="20" lengthAdjust="spacing" textLength="209" x="1503.5" y="30.5645">:ConnectorController</text><rect fill="#E2E2F0" height="37.2813" rx="2.5" ry="2.5" style="stroke:#181818;stroke-width:0.5;" width="223" x="1496.5" y="557.2188"/><text fill="#000000" font-family="sans-serif" font-size="20" lengthAdjust="spacing" textLength="209" x="1503.5" y="582.7832">:ConnectorController</text><rect fill="#E2E2F0" height="37.2813" rx="2.5" ry="2.5" style="stroke:#181818;stroke-width:0.5;" width="197" x="2203.5" y="5"/><text fill="#000000" font-family="sans-serif" font-size="20" lengthAdjust="spacing" textLength="183" x="2210.5" y="30.5645">:ConnectorService</text><rect fill="#E2E2F0" height="37.2813" rx="2.5" ry="2.5" style="stroke:#181818;stroke-width:0.5;" width="197" x="2203.5" y="557.2188"/><text fill="#000000" font-family="sans-serif" font-size="20" lengthAdjust="spacing" textLength="183" x="2210.5" y="582.7832">:ConnectorService</text><rect fill="#E2E2F0" height="37.2813" rx="2.5" ry="2.5" style="stroke:#181818;stroke-width:0.5;" width="124" x="2410.5" y="5"/><text fill="#000000" font-family="sans-serif" font-size="20" lengthAdjust="spacing" textLength="110" x="2417.5" y="30.5645">:Connector</text><rect fill="#E2E2F0" height="37.2813" rx="2.5" ry="2.5" style="stroke:#181818;stroke-width:0.5;" width="124" x="2410.5" y="557.2188"/><text fill="#000000" font-family="sans-serif" font-size="20" lengthAdjust="spacing" textLength="110" x="2417.5" y="582.7832">:Connector</text><rect fill="#E2E2F0" height="37.2813" rx="2.5" ry="2.5" style="stroke:#181818;stroke-width:0.5;" width="230" x="2787" y="5"/><text fill="#000000" font-family="sans-serif" font-size="20" lengthAdjust="spacing" textLength="216" x="2794" y="30.5645">:ConnectorRepository</text><rect fill="#E2E2F0" height="37.2813" rx="2.5" ry="2.5" style="stroke:#181818;stroke-width:0.5;" width="230" x="2787" y="557.2188"/><text fill="#000000" font-family="sans-serif" font-size="20" lengthAdjust="spacing" textLength="216" x="2794" y="582.7832">:ConnectorRepository</text><rect fill="#E2E2F0" height="37.2813" rx="2.5" ry="2.5" style="stroke:#181818;stroke-width:0.5;" width="166" x="3027" y="5"/><text fill="#000000" font-family="sans-serif" font-size="20" lengthAdjust="spacing" textLength="152" x="3034" y="30.5645">:ConnectorMap</text><rect fill="#E2E2F0" height="37.2813" rx="2.5" ry="2.5" style="stroke:#181818;stroke-width:0.5;" width="166" x="3027" y="557.2188"/><text fill="#000000" font-family="sans-serif" font-size="20" lengthAdjust="spacing" textLength="152" x="3034" y="582.7832">:ConnectorMap</text><rect fill="#E2E2F0" height="37.2813" rx="2.5" ry="2.5" style="stroke:#181818;stroke-width:0.5;" width="167" x="3224.5" y="5"/><text fill="#000000" font-family="sans-serif" font-size="20" lengthAdjust="spacing" textLength="153" x="3231.5" y="30.5645">:ConnectorDTO</text><rect fill="#E2E2F0" height="37.2813" rx="2.5" ry="2.5" style="stroke:#181818;stroke-width:0.5;" width="167" x="3224.5" y="557.2188"/><text fill="#000000" font-family="sans-serif" font-size="20" lengthAdjust="spacing" textLength="153" x="3231.5" y="582.7832">:ConnectorDTO</text><rect fill="#FFFFFF" height="457.6563" style="stroke:#181818;stroke-width:1.0;" width="10" x="909" y="82.5625"/><rect fill="#FFFFFF" height="383.0938" style="stroke:#181818;stroke-width:1.0;" width="10" x="1603" y="119.8438"/><rect fill="#FFFFFF" height="308.5313" style="stroke:#181818;stroke-width:1.0;" width="10" x="2297" y="157.125"/><rect fill="#FFFFFF" height="37.2813" style="stroke:#181818;stroke-width:1.0;" width="10" x="2897" y="194.4063"/><rect fill="#FFFFFF" height="111.8438" style="stroke:#181818;stroke-width:1.0;" width="10" x="3105" y="309.5313"/><rect fill="#FFFFFF" height="37.2813" style="stroke:#181818;stroke-width:1.0;" width="10" x="3303" y="346.8125"/><ellipse cx="4.5" cy="81.8125" fill="none" rx="4" ry="4" style="stroke:#181818;stroke-width:1.5;"/><polygon fill="#181818" points="897,78.5625,907,82.5625,897,86.5625,901,82.5625" style="stroke:#181818;stroke-width:1.0;"/><line style="stroke:#181818;stroke-width:1.0;" x1="9" x2="903" y1="82.5625" y2="82.5625"/><text fill="#000000" font-family="sans-serif" font-size="20" font-weight="bold" lengthAdjust="spacing" textLength="14" x="12" y="75.8457">1</text><text fill="#000000" font-family="sans-serif" font-size="20" lengthAdjust="spacing" textLength="864" x="30" y="75.8457">GET /connectors?building1Code={building1Code}&amp;building1Code={building1Code}</text><polygon fill="#181818" points="1591,115.8438,1601,119.8438,1591,123.8438,1595,119.8438" style="stroke:#181818;stroke-width:1.0;"/><line style="stroke:#181818;stroke-width:1.0;" x1="919" x2="1597" y1="119.8438" y2="119.8438"/><text fill="#000000" font-family="sans-serif" font-size="20" font-weight="bold" lengthAdjust="spacing" textLength="14" x="926" y="113.127">2</text><text fill="#000000" font-family="sans-serif" font-size="20" lengthAdjust="spacing" textLength="647" x="944" y="113.127">listConnectorsBetweenBuildings(building1Code, building2Code)</text><polygon fill="#181818" points="2285,153.125,2295,157.125,2285,161.125,2289,157.125" style="stroke:#181818;stroke-width:1.0;"/><line style="stroke:#181818;stroke-width:1.0;" x1="1613" x2="2291" y1="157.125" y2="157.125"/><text fill="#000000" font-family="sans-serif" font-size="20" font-weight="bold" lengthAdjust="spacing" textLength="14" x="1620" y="150.4082">3</text><text fill="#000000" font-family="sans-serif" font-size="20" lengthAdjust="spacing" textLength="647" x="1638" y="150.4082">listConnectorsBetweenBuildings(building1Code, building2Code)</text><polygon fill="#181818" points="2885,190.4063,2895,194.4063,2885,198.4063,2889,194.4063" style="stroke:#181818;stroke-width:1.0;"/><line style="stroke:#181818;stroke-width:1.0;" x1="2307" x2="2891" y1="194.4063" y2="194.4063"/><text fill="#000000" font-family="sans-serif" font-size="20" font-weight="bold" lengthAdjust="spacing" textLength="14" x="2314" y="187.6895">4</text><text fill="#000000" font-family="sans-serif" font-size="20" lengthAdjust="spacing" textLength="553" x="2332" y="187.6895">findByFloorOfBuildings(building1Code, building2Code)</text><polygon fill="#181818" points="2318,227.6875,2308,231.6875,2318,235.6875,2314,231.6875" style="stroke:#181818;stroke-width:1.0;"/><line style="stroke:#181818;stroke-width:1.0;stroke-dasharray:2.0,2.0;" x1="2312" x2="2901" y1="231.6875" y2="231.6875"/><text fill="#000000" font-family="sans-serif" font-size="20" font-weight="bold" lengthAdjust="spacing" textLength="14" x="2324" y="224.9707">5</text><text fill="#000000" font-family="sans-serif" font-size="20" lengthAdjust="spacing" textLength="119" x="2342" y="224.9707">Connector[]</text><path d="M2193.5,246.6875 L2287.5,246.6875 L2287.5,261.9688 L2277.5,271.9688 L2193.5,271.9688 L2193.5,246.6875 " fill="#EEEEEE" style="stroke:#000000;stroke-width:1.5;"/><rect fill="none" height="182.6875" style="stroke:#000000;stroke-width:1.5;" width="1208" x="2193.5" y="246.6875"/><text fill="#000000" font-family="sans-serif" font-size="20" font-weight="bold" lengthAdjust="spacing" textLength="49" x="2208.5" y="266.252">loop</text><text fill="#000000" font-family="sans-serif" font-size="20" font-weight="bold" lengthAdjust="spacing" textLength="233" x="2302.5" y="267.252">[for each connector]</text><polygon fill="#181818" points="3093,305.5313,3103,309.5313,3093,313.5313,3097,309.5313" style="stroke:#181818;stroke-width:1.0;"/><line style="stroke:#181818;stroke-width:1.0;" x1="2307" x2="3099" y1="309.5313" y2="309.5313"/><text fill="#000000" font-family="sans-serif" font-size="20" font-weight="bold" lengthAdjust="spacing" textLength="14" x="2314" y="302.8145">6</text><text fill="#000000" font-family="sans-serif" font-size="20" lengthAdjust="spacing" textLength="228" x="2332" y="302.8145">mapToDTO(connector)</text><polygon fill="#181818" points="3291,342.8125,3301,346.8125,3291,350.8125,3295,346.8125" style="stroke:#181818;stroke-width:1.0;"/><line style="stroke:#181818;stroke-width:1.0;" x1="3115" x2="3297" y1="346.8125" y2="346.8125"/><text fill="#000000" font-family="sans-serif" font-size="20" font-weight="bold" lengthAdjust="spacing" textLength="14" x="3122" y="340.0957">7</text><text fill="#000000" font-family="sans-serif" font-size="20" lengthAdjust="spacing" textLength="79" x="3140" y="340.0957">create()</text><polygon fill="#181818" points="3126,380.0938,3116,384.0938,3126,388.0938,3122,384.0938" style="stroke:#181818;stroke-width:1.0;"/><line style="stroke:#181818;stroke-width:1.0;stroke-dasharray:2.0,2.0;" x1="3120" x2="3307" y1="384.0938" y2="384.0938"/><text fill="#000000" font-family="sans-serif" font-size="20" font-weight="bold" lengthAdjust="spacing" textLength="14" x="3132" y="377.377">8</text><text fill="#000000" font-family="sans-serif" font-size="20" lengthAdjust="spacing" textLength="146" x="3150" y="377.377">ConnectorDTO</text><polygon fill="#181818" points="2318,417.375,2308,421.375,2318,425.375,2314,421.375" style="stroke:#181818;stroke-width:1.0;"/><line style="stroke:#181818;stroke-width:1.0;stroke-dasharray:2.0,2.0;" x1="2312" x2="3109" y1="421.375" y2="421.375"/><text fill="#000000" font-family="sans-serif" font-size="20" font-weight="bold" lengthAdjust="spacing" textLength="14" x="2324" y="414.6582">9</text><text fill="#000000" font-family="sans-serif" font-size="20" lengthAdjust="spacing" textLength="162" x="2342" y="414.6582">ConnectorDTO[]</text><polygon fill="#181818" points="1624,461.6563,1614,465.6563,1624,469.6563,1620,465.6563" style="stroke:#181818;stroke-width:1.0;"/><line style="stroke:#181818;stroke-width:1.0;stroke-dasharray:2.0,2.0;" x1="1618" x2="2301" y1="465.6563" y2="465.6563"/><text fill="#000000" font-family="sans-serif" font-size="20" font-weight="bold" lengthAdjust="spacing" textLength="28" x="1630" y="458.9395">10</text><text fill="#000000" font-family="sans-serif" font-size="20" lengthAdjust="spacing" textLength="162" x="1662" y="458.9395">ConnectorDTO[]</text><polygon fill="#181818" points="930,498.9375,920,502.9375,930,506.9375,926,502.9375" style="stroke:#181818;stroke-width:1.0;"/><line style="stroke:#181818;stroke-width:1.0;stroke-dasharray:2.0,2.0;" x1="924" x2="1607" y1="502.9375" y2="502.9375"/><text fill="#000000" font-family="sans-serif" font-size="20" font-weight="bold" lengthAdjust="spacing" textLength="28" x="936" y="496.2207">11</text><text fill="#000000" font-family="sans-serif" font-size="20" lengthAdjust="spacing" textLength="109" x="968" y="496.2207">FloorDTO[]</text><polygon fill="#181818" points="11,536.2188,1,540.2188,11,544.2188,7,540.2188" style="stroke:#181818;stroke-width:1.0;"/><line style="stroke:#181818;stroke-width:1.0;stroke-dasharray:2.0,2.0;" x1="5" x2="913" y1="540.2188" y2="540.2188"/><text fill="#000000" font-family="sans-serif" font-size="20" font-weight="bold" lengthAdjust="spacing" textLength="28" x="17" y="533.502">12</text><text fill="#000000" font-family="sans-serif" font-size="20" lengthAdjust="spacing" textLength="361" x="49" y="533.502">200 OK (list of connectorss as JSON)</text><!--SRC=[fPDDRzim38Rl-XL43aC2r5YQex4kMDAqG3_c8l5s6NPGRReLwaY697VeXlttKlvGPBSRKFHaIthvl1H9cGSXAwxvlbJP0-QGOy7hqfufQNVYDy9YpdXjbQptjwWP8waLcQYujB1DlgKRu0OcyLf9YPbLUgjgYvE1R9rkhqOg-h5QbINgeNJtVJrIxb0_Ycn479iEJxURcsIS5LRA2Ffv6gLs_ULc9BtcrL1pcevfj3DXRAcYprq9OZZVfF0nwmLcULkBCXVoxdYjSZpvCrZ-_V3VKyOpAnwvnHRE67GkPDUKCePI6EkpCIkqln3bggEOwO1t1FrouPOpmda3XtDyQC5au1hmRdxWGBpM01gqgvZhJWo5aFdgwQnKIYV5Mz01tA5wUeED_0ryzZz-Te8SNusZ12eeb0OwlWVVmVxOfzrCIWnxNgMA-Z_rofbN7ifAsWC0sbXYk4cA8TD8ekai4FX8KeI1BY0wc8S36AY2cmtYMzkN9I6HhyeWkicxtUq-AFDWFZv5qRzP0QThUZkrBgWRswRRVKJewyQGF9sqVr2B-HoIIvYwKGHL73fZZ7kD5xlawuo5FMtUoZC0]--></g></svg>