<?xml version="1.0" encoding="UTF-8" standalone="no"?><svg xmlns="http://www.w3.org/2000/svg" xmlns:xlink="http://www.w3.org/1999/xlink" contentStyleType="text/css" height="663px" preserveAspectRatio="none" style="width:3115px;height:663px;background:#FFFFFF;" version="1.1" viewBox="0 0 3115 663" width="3115px" zoomAndPan="magnify"><defs/><g><rect fill="#FFFFFF" height="509.1197" style="stroke:#181818;stroke-width:1.0;" width="10" x="809.625" y="90.4799"/><rect fill="#FFFFFF" height="426.6397" style="stroke:#181818;stroke-width:1.0;" width="10" x="1445.25" y="131.7199"/><rect fill="#FFFFFF" height="344.1598" style="stroke:#181818;stroke-width:1.0;" width="10" x="2080.875" y="172.9599"/><rect fill="#FFFFFF" height="41.24" style="stroke:#181818;stroke-width:1.0;" width="10" x="2630.5" y="214.1999"/><rect fill="#FFFFFF" height="123.7199" style="stroke:#181818;stroke-width:1.0;" width="10" x="2826.5" y="345.1598"/><rect fill="#FFFFFF" height="41.24" style="stroke:#181818;stroke-width:1.0;" width="10" x="3015.125" y="386.3997"/><rect fill="none" height="206.4398" style="stroke:#000000;stroke-width:1.5;" width="1124.25" x="1984.875" y="270.4398"/><line style="stroke:#181818;stroke-width:0.5;stroke-dasharray:5.0,5.0;" x1="814.625" x2="814.625" y1="47.24" y2="617.5996"/><line style="stroke:#181818;stroke-width:0.5;stroke-dasharray:5.0,5.0;" x1="1449.75" x2="1449.75" y1="47.24" y2="617.5996"/><line style="stroke:#181818;stroke-width:0.5;stroke-dasharray:5.0,5.0;" x1="2085.875" x2="2085.875" y1="47.24" y2="617.5996"/><line style="stroke:#181818;stroke-width:0.5;stroke-dasharray:5.0,5.0;" x1="2244.875" x2="2244.875" y1="47.24" y2="617.5996"/><line style="stroke:#181818;stroke-width:0.5;stroke-dasharray:5.0,5.0;" x1="2635" x2="2635" y1="47.24" y2="617.5996"/><line style="stroke:#181818;stroke-width:0.5;stroke-dasharray:5.0,5.0;" x1="2831" x2="2831" y1="47.24" y2="617.5996"/><line style="stroke:#181818;stroke-width:0.5;stroke-dasharray:5.0,5.0;" x1="3020.125" x2="3020.125" y1="47.24" y2="617.5996"/><rect fill="#E2E2F0" height="41.24" rx="2.5" ry="2.5" style="stroke:#181818;stroke-width:0.5;" width="170" x="729.625" y="5"/><text fill="#000000" font-family="sans-serif" font-size="20" lengthAdjust="spacing" textLength="156" x="736.625" y="33.38">:ConnectorRoute</text><rect fill="#E2E2F0" height="41.24" rx="2.5" ry="2.5" style="stroke:#181818;stroke-width:0.5;" width="170" x="729.625" y="616.5996"/><text fill="#000000" font-family="sans-serif" font-size="20" lengthAdjust="spacing" textLength="156" x="736.625" y="644.9796">:ConnectorRoute</text><rect fill="#E2E2F0" height="41.24" rx="2.5" ry="2.5" style="stroke:#181818;stroke-width:0.5;" width="209" x="1345.75" y="5"/><text fill="#000000" font-family="sans-serif" font-size="20" lengthAdjust="spacing" textLength="195" x="1352.75" y="33.38">:ConnectorController</text><rect fill="#E2E2F0" height="41.24" rx="2.5" ry="2.5" style="stroke:#181818;stroke-width:0.5;" width="209" x="1345.75" y="616.5996"/><text fill="#000000" font-family="sans-serif" font-size="20" lengthAdjust="spacing" textLength="195" x="1352.75" y="644.9796">:ConnectorController</text><rect fill="#E2E2F0" height="41.24" rx="2.5" ry="2.5" style="stroke:#181818;stroke-width:0.5;" width="182" x="1994.875" y="5"/><text fill="#000000" font-family="sans-serif" font-size="20" lengthAdjust="spacing" textLength="168" x="2001.875" y="33.38">:ConnectorService</text><rect fill="#E2E2F0" height="41.24" rx="2.5" ry="2.5" style="stroke:#181818;stroke-width:0.5;" width="182" x="1994.875" y="616.5996"/><text fill="#000000" font-family="sans-serif" font-size="20" lengthAdjust="spacing" textLength="168" x="2001.875" y="644.9796">:ConnectorService</text><rect fill="#E2E2F0" height="41.24" rx="2.5" ry="2.5" style="stroke:#181818;stroke-width:0.5;" width="116" x="2186.875" y="5"/><text fill="#000000" font-family="sans-serif" font-size="20" lengthAdjust="spacing" textLength="102" x="2193.875" y="33.38">:Connector</text><rect fill="#E2E2F0" height="41.24" rx="2.5" ry="2.5" style="stroke:#181818;stroke-width:0.5;" width="116" x="2186.875" y="616.5996"/><text fill="#000000" font-family="sans-serif" font-size="20" lengthAdjust="spacing" textLength="102" x="2193.875" y="644.9796">:Connector</text><rect fill="#E2E2F0" height="41.24" rx="2.5" ry="2.5" style="stroke:#181818;stroke-width:0.5;" width="215" x="2528" y="5"/><text fill="#000000" font-family="sans-serif" font-size="20" lengthAdjust="spacing" textLength="201" x="2535" y="33.38">:ConnectorRepository</text><rect fill="#E2E2F0" height="41.24" rx="2.5" ry="2.5" style="stroke:#181818;stroke-width:0.5;" width="215" x="2528" y="616.5996"/><text fill="#000000" font-family="sans-serif" font-size="20" lengthAdjust="spacing" textLength="201" x="2535" y="644.9796">:ConnectorRepository</text><rect fill="#E2E2F0" height="41.24" rx="2.5" ry="2.5" style="stroke:#181818;stroke-width:0.5;" width="157" x="2753" y="5"/><text fill="#000000" font-family="sans-serif" font-size="20" lengthAdjust="spacing" textLength="143" x="2760" y="33.38">:ConnectorMap</text><rect fill="#E2E2F0" height="41.24" rx="2.5" ry="2.5" style="stroke:#181818;stroke-width:0.5;" width="157" x="2753" y="616.5996"/><text fill="#000000" font-family="sans-serif" font-size="20" lengthAdjust="spacing" textLength="143" x="2760" y="644.9796">:ConnectorMap</text><rect fill="#E2E2F0" height="41.24" rx="2.5" ry="2.5" style="stroke:#181818;stroke-width:0.5;" width="158" x="2941.125" y="5"/><text fill="#000000" font-family="sans-serif" font-size="20" lengthAdjust="spacing" textLength="144" x="2948.125" y="33.38">:ConnectorDTO</text><rect fill="#E2E2F0" height="41.24" rx="2.5" ry="2.5" style="stroke:#181818;stroke-width:0.5;" width="158" x="2941.125" y="616.5996"/><text fill="#000000" font-family="sans-serif" font-size="20" lengthAdjust="spacing" textLength="144" x="2948.125" y="644.9796">:ConnectorDTO</text><rect fill="#FFFFFF" height="509.1197" style="stroke:#181818;stroke-width:1.0;" width="10" x="809.625" y="90.4799"/><rect fill="#FFFFFF" height="426.6397" style="stroke:#181818;stroke-width:1.0;" width="10" x="1445.25" y="131.7199"/><rect fill="#FFFFFF" height="344.1598" style="stroke:#181818;stroke-width:1.0;" width="10" x="2080.875" y="172.9599"/><rect fill="#FFFFFF" height="41.24" style="stroke:#181818;stroke-width:1.0;" width="10" x="2630.5" y="214.1999"/><rect fill="#FFFFFF" height="123.7199" style="stroke:#181818;stroke-width:1.0;" width="10" x="2826.5" y="345.1598"/><rect fill="#FFFFFF" height="41.24" style="stroke:#181818;stroke-width:1.0;" width="10" x="3015.125" y="386.3997"/><ellipse cx="4.5" cy="89.7299" fill="none" rx="4" ry="4" style="stroke:#181818;stroke-width:1.5;"/><polygon fill="#181818" points="797.625,86.4799,807.625,90.4799,797.625,94.4799,801.625,90.4799" style="stroke:#181818;stroke-width:1.0;"/><line style="stroke:#181818;stroke-width:1.0;" x1="9" x2="803.625" y1="90.4799" y2="90.4799"/><text fill="#000000" font-family="sans-serif" font-size="20" font-weight="bold" lengthAdjust="spacing" textLength="11.625" x="12" y="82.62">1</text><text fill="#000000" font-family="sans-serif" font-size="20" lengthAdjust="spacing" textLength="767" x="27.625" y="82.62">GET /connectors?building1Code={building1Code}&amp;building1Code={building1Code}</text><polygon fill="#181818" points="1433.25,127.7199,1443.25,131.7199,1433.25,135.7199,1437.25,131.7199" style="stroke:#181818;stroke-width:1.0;"/><line style="stroke:#181818;stroke-width:1.0;" x1="819.625" x2="1439.25" y1="131.7199" y2="131.7199"/><text fill="#000000" font-family="sans-serif" font-size="20" font-weight="bold" lengthAdjust="spacing" textLength="11.625" x="826.625" y="123.8599">2</text><text fill="#000000" font-family="sans-serif" font-size="20" lengthAdjust="spacing" textLength="591" x="842.25" y="123.8599">listConnectorsBetweenBuildings(building1Code, building2Code)</text><polygon fill="#181818" points="2068.875,168.9599,2078.875,172.9599,2068.875,176.9599,2072.875,172.9599" style="stroke:#181818;stroke-width:1.0;"/><line style="stroke:#181818;stroke-width:1.0;" x1="1455.25" x2="2074.875" y1="172.9599" y2="172.9599"/><text fill="#000000" font-family="sans-serif" font-size="20" font-weight="bold" lengthAdjust="spacing" textLength="11.625" x="1462.25" y="165.0999">3</text><text fill="#000000" font-family="sans-serif" font-size="20" lengthAdjust="spacing" textLength="591" x="1477.875" y="165.0999">listConnectorsBetweenBuildings(building1Code, building2Code)</text><polygon fill="#181818" points="2618.5,210.1999,2628.5,214.1999,2618.5,218.1999,2622.5,214.1999" style="stroke:#181818;stroke-width:1.0;"/><line style="stroke:#181818;stroke-width:1.0;" x1="2090.875" x2="2624.5" y1="214.1999" y2="214.1999"/><text fill="#000000" font-family="sans-serif" font-size="20" font-weight="bold" lengthAdjust="spacing" textLength="11.625" x="2097.875" y="206.3399">4</text><text fill="#000000" font-family="sans-serif" font-size="20" lengthAdjust="spacing" textLength="505" x="2113.5" y="206.3399">findByFloorOfBuildings(building1Code, building2Code)</text><polygon fill="#181818" points="2101.875,251.4398,2091.875,255.4398,2101.875,259.4398,2097.875,255.4398" style="stroke:#181818;stroke-width:1.0;"/><line style="stroke:#181818;stroke-width:1.0;stroke-dasharray:2.0,2.0;" x1="2095.875" x2="2634.5" y1="255.4398" y2="255.4398"/><text fill="#000000" font-family="sans-serif" font-size="20" font-weight="bold" lengthAdjust="spacing" textLength="11.625" x="2107.875" y="247.5799">5</text><text fill="#000000" font-family="sans-serif" font-size="20" lengthAdjust="spacing" textLength="111" x="2123.5" y="247.5799">Connector[]</text><path d="M1984.875,270.4398 L2073.375,270.4398 L2073.375,289.6798 L2063.375,299.6798 L1984.875,299.6798 L1984.875,270.4398 " fill="#EEEEEE" style="stroke:#000000;stroke-width:1.5;"/><rect fill="none" height="206.4398" style="stroke:#000000;stroke-width:1.5;" width="1124.25" x="1984.875" y="270.4398"/><text fill="#000000" font-family="sans-serif" font-size="20" font-weight="bold" lengthAdjust="spacing" textLength="43.5" x="1999.875" y="292.8198">loop</text><text fill="#000000" font-family="sans-serif" font-size="20" font-weight="bold" lengthAdjust="spacing" textLength="200.25" x="2088.375" y="293.8198">[for each connector]</text><polygon fill="#181818" points="2814.5,341.1598,2824.5,345.1598,2814.5,349.1598,2818.5,345.1598" style="stroke:#181818;stroke-width:1.0;"/><line style="stroke:#181818;stroke-width:1.0;" x1="2090.875" x2="2820.5" y1="345.1598" y2="345.1598"/><text fill="#000000" font-family="sans-serif" font-size="20" font-weight="bold" lengthAdjust="spacing" textLength="11.625" x="2097.875" y="337.2998">6</text><text fill="#000000" font-family="sans-serif" font-size="20" lengthAdjust="spacing" textLength="213" x="2113.5" y="337.2998">mapToDTO(connector)</text><polygon fill="#181818" points="3003.125,382.3997,3013.125,386.3997,3003.125,390.3997,3007.125,386.3997" style="stroke:#181818;stroke-width:1.0;"/><line style="stroke:#181818;stroke-width:1.0;" x1="2836.5" x2="3009.125" y1="386.3997" y2="386.3997"/><text fill="#000000" font-family="sans-serif" font-size="20" font-weight="bold" lengthAdjust="spacing" textLength="11.625" x="2843.5" y="378.5398">7</text><text fill="#000000" font-family="sans-serif" font-size="20" lengthAdjust="spacing" textLength="70" x="2859.125" y="378.5398">create()</text><polygon fill="#181818" points="2847.5,423.6397,2837.5,427.6397,2847.5,431.6397,2843.5,427.6397" style="stroke:#181818;stroke-width:1.0;"/><line style="stroke:#181818;stroke-width:1.0;stroke-dasharray:2.0,2.0;" x1="2841.5" x2="3019.125" y1="427.6397" y2="427.6397"/><text fill="#000000" font-family="sans-serif" font-size="20" font-weight="bold" lengthAdjust="spacing" textLength="11.625" x="2853.5" y="419.7797">8</text><text fill="#000000" font-family="sans-serif" font-size="20" lengthAdjust="spacing" textLength="139" x="2869.125" y="419.7797">ConnectorDTO</text><polygon fill="#181818" points="2101.875,464.8797,2091.875,468.8797,2101.875,472.8797,2097.875,468.8797" style="stroke:#181818;stroke-width:1.0;"/><line style="stroke:#181818;stroke-width:1.0;stroke-dasharray:2.0,2.0;" x1="2095.875" x2="2830.5" y1="468.8797" y2="468.8797"/><text fill="#000000" font-family="sans-serif" font-size="20" font-weight="bold" lengthAdjust="spacing" textLength="11.625" x="2107.875" y="461.0197">9</text><text fill="#000000" font-family="sans-serif" font-size="20" lengthAdjust="spacing" textLength="153" x="2123.5" y="461.0197">ConnectorDTO[]</text><polygon fill="#181818" points="1466.25,513.1197,1456.25,517.1197,1466.25,521.1197,1462.25,517.1197" style="stroke:#181818;stroke-width:1.0;"/><line style="stroke:#181818;stroke-width:1.0;stroke-dasharray:2.0,2.0;" x1="1460.25" x2="2084.875" y1="517.1197" y2="517.1197"/><text fill="#000000" font-family="sans-serif" font-size="20" font-weight="bold" lengthAdjust="spacing" textLength="23.25" x="1472.25" y="509.2597">10</text><text fill="#000000" font-family="sans-serif" font-size="20" lengthAdjust="spacing" textLength="153" x="1499.5" y="509.2597">ConnectorDTO[]</text><polygon fill="#181818" points="830.625,554.3596,820.625,558.3596,830.625,562.3596,826.625,558.3596" style="stroke:#181818;stroke-width:1.0;"/><line style="stroke:#181818;stroke-width:1.0;stroke-dasharray:2.0,2.0;" x1="824.625" x2="1449.25" y1="558.3596" y2="558.3596"/><text fill="#000000" font-family="sans-serif" font-size="20" font-weight="bold" lengthAdjust="spacing" textLength="23.25" x="836.625" y="550.4997">11</text><text fill="#000000" font-family="sans-serif" font-size="20" lengthAdjust="spacing" textLength="103" x="863.875" y="550.4997">FloorDTO[]</text><polygon fill="#181818" points="11,595.5996,1,599.5996,11,603.5996,7,599.5996" style="stroke:#181818;stroke-width:1.0;"/><line style="stroke:#181818;stroke-width:1.0;stroke-dasharray:2.0,2.0;" x1="5" x2="813.625" y1="599.5996" y2="599.5996"/><text fill="#000000" font-family="sans-serif" font-size="20" font-weight="bold" lengthAdjust="spacing" textLength="23.25" x="17" y="591.7396">12</text><text fill="#000000" font-family="sans-serif" font-size="20" lengthAdjust="spacing" textLength="331" x="44.25" y="591.7396">200 OK (list of connectorss as JSON)</text><!--SRC=[fPDDRzim38Rl-XL43aC2r5YQex4kMDAqG3_c8l5s6NPGRReLwaY697VeXlttKlvGPBSRKFHaIthvl1H9cGSXAwxvlbJP0-QGOy7hqfufQNVYDy9YpdXjbQptjwWP8waLcQYujB1DlgKRu0OcyLf9YPbLUgjgYvE1R9rkhqOg-h5QbINgeNJtVJrIxb0_Ycn479iEJxURcsIS5LRA2Ffv6gLs_ULc9BtcrL1pcevfj3DXRAcYprq9OZZVfF0nwmLcULkBCXVoxdYjSZpvCrZ-_V3VKyOpAnwvnHRE67GkPDUKCePI6EkpCIkqln3bggEOwO1t1FrouPOpmda3XtDyQC5au1hmRdxWGBpM01gqgvZhJWo5aFdgwQnKIYV5Mz01tA5wUeED_0ryzZz-Te8SNusZ12eeb0OwlWVVmVxOfzrCIWnxNgMA-Z_rofbN7ifAsWC0sbXYk4cA8TD8ekai4FX8KeI1BY0wc8S36AY2cmtYMzkN9I6HhyeWkicxtUq-AFDWFZv5qRzP0QThUZkrBgWRswRRVKJewyQGF9sqVr2B-HoIIvYwKGHL73fZZ7kD5xlawuo5FMtUoZC0]--></g></svg>