<?xml version="1.0" encoding="UTF-8" standalone="no"?><svg xmlns="http://www.w3.org/2000/svg" xmlns:xlink="http://www.w3.org/1999/xlink" contentStyleType="text/css" height="360px" preserveAspectRatio="none" style="width:1199px;height:360px;background:#FFFFFF;" version="1.1" viewBox="0 0 1199 360" width="1199px" zoomAndPan="magnify"><defs/><g><rect fill="#FFFFFF" height="206.1999" style="stroke:#181818;stroke-width:1.0;" width="10" x="809.625" y="90.4799"/><rect fill="#FFFFFF" height="41.24" style="stroke:#181818;stroke-width:1.0;" width="10" x="1137.25" y="131.7199"/><rect fill="#FFFFFF" height="41.24" style="stroke:#181818;stroke-width:1.0;" width="10" x="1137.25" y="214.1999"/><line style="stroke:#181818;stroke-width:0.5;stroke-dasharray:5.0,5.0;" x1="814.625" x2="814.625" y1="47.24" y2="314.6798"/><line style="stroke:#181818;stroke-width:0.5;stroke-dasharray:5.0,5.0;" x1="1142.25" x2="1142.25" y1="47.24" y2="314.6798"/><rect fill="#E2E2F0" height="41.24" rx="2.5" ry="2.5" style="stroke:#181818;stroke-width:0.5;" width="94" x="767.625" y="5"/><text fill="#000000" font-family="sans-serif" font-size="20" lengthAdjust="spacing" textLength="80" x="774.625" y="33.38">Backend</text><rect fill="#E2E2F0" height="41.24" rx="2.5" ry="2.5" style="stroke:#181818;stroke-width:0.5;" width="94" x="767.625" y="313.6798"/><text fill="#000000" font-family="sans-serif" font-size="20" lengthAdjust="spacing" textLength="80" x="774.625" y="342.0598">Backend</text><rect fill="#E2E2F0" height="41.24" rx="2.5" ry="2.5" style="stroke:#181818;stroke-width:0.5;" width="102" x="1091.25" y="5"/><text fill="#000000" font-family="sans-serif" font-size="20" lengthAdjust="spacing" textLength="88" x="1098.25" y="33.38">Database</text><rect fill="#E2E2F0" height="41.24" rx="2.5" ry="2.5" style="stroke:#181818;stroke-width:0.5;" width="102" x="1091.25" y="313.6798"/><text fill="#000000" font-family="sans-serif" font-size="20" lengthAdjust="spacing" textLength="88" x="1098.25" y="342.0598">Database</text><rect fill="#FFFFFF" height="206.1999" style="stroke:#181818;stroke-width:1.0;" width="10" x="809.625" y="90.4799"/><rect fill="#FFFFFF" height="41.24" style="stroke:#181818;stroke-width:1.0;" width="10" x="1137.25" y="131.7199"/><rect fill="#FFFFFF" height="41.24" style="stroke:#181818;stroke-width:1.0;" width="10" x="1137.25" y="214.1999"/><ellipse cx="4.5" cy="89.7299" fill="none" rx="4" ry="4" style="stroke:#181818;stroke-width:1.5;"/><polygon fill="#181818" points="797.625,86.4799,807.625,90.4799,797.625,94.4799,801.625,90.4799" style="stroke:#181818;stroke-width:1.0;"/><line style="stroke:#181818;stroke-width:1.0;" x1="9" x2="803.625" y1="90.4799" y2="90.4799"/><text fill="#000000" font-family="sans-serif" font-size="20" font-weight="bold" lengthAdjust="spacing" textLength="11.625" x="12" y="82.62">1</text><text fill="#000000" font-family="sans-serif" font-size="20" lengthAdjust="spacing" textLength="767" x="27.625" y="82.62">GET /connectors?building1Code={building1Code}&amp;building2Code={building2Code}</text><polygon fill="#181818" points="1125.25,127.7199,1135.25,131.7199,1125.25,135.7199,1129.25,131.7199" style="stroke:#181818;stroke-width:1.0;"/><line style="stroke:#181818;stroke-width:1.0;" x1="819.625" x2="1131.25" y1="131.7199" y2="131.7199"/><text fill="#000000" font-family="sans-serif" font-size="20" font-weight="bold" lengthAdjust="spacing" textLength="11.625" x="826.625" y="123.8599">2</text><text fill="#000000" font-family="sans-serif" font-size="20" lengthAdjust="spacing" textLength="169" x="842.25" y="123.8599">get building floors</text><polygon fill="#181818" points="830.625,168.9599,820.625,172.9599,830.625,176.9599,826.625,172.9599" style="stroke:#181818;stroke-width:1.0;"/><line style="stroke:#181818;stroke-width:1.0;stroke-dasharray:2.0,2.0;" x1="824.625" x2="1141.25" y1="172.9599" y2="172.9599"/><text fill="#000000" font-family="sans-serif" font-size="20" font-weight="bold" lengthAdjust="spacing" textLength="11.625" x="836.625" y="165.0999">3</text><text fill="#000000" font-family="sans-serif" font-size="20" lengthAdjust="spacing" textLength="54" x="852.25" y="165.0999">floors</text><polygon fill="#181818" points="1125.25,210.1999,1135.25,214.1999,1125.25,218.1999,1129.25,214.1999" style="stroke:#181818;stroke-width:1.0;"/><line style="stroke:#181818;stroke-width:1.0;" x1="819.625" x2="1131.25" y1="214.1999" y2="214.1999"/><text fill="#000000" font-family="sans-serif" font-size="20" font-weight="bold" lengthAdjust="spacing" textLength="11.625" x="826.625" y="206.3399">4</text><text fill="#000000" font-family="sans-serif" font-size="20" lengthAdjust="spacing" textLength="283" x="842.25" y="206.3399">get connectors between floors</text><polygon fill="#181818" points="830.625,251.4398,820.625,255.4398,830.625,259.4398,826.625,255.4398" style="stroke:#181818;stroke-width:1.0;"/><line style="stroke:#181818;stroke-width:1.0;stroke-dasharray:2.0,2.0;" x1="824.625" x2="1141.25" y1="255.4398" y2="255.4398"/><text fill="#000000" font-family="sans-serif" font-size="20" font-weight="bold" lengthAdjust="spacing" textLength="11.625" x="836.625" y="247.5799">5</text><text fill="#000000" font-family="sans-serif" font-size="20" lengthAdjust="spacing" textLength="104" x="852.25" y="247.5799">connectors</text><polygon fill="#181818" points="11,292.6798,1,296.6798,11,300.6798,7,296.6798" style="stroke:#181818;stroke-width:1.0;"/><line style="stroke:#181818;stroke-width:1.0;stroke-dasharray:2.0,2.0;" x1="5" x2="813.625" y1="296.6798" y2="296.6798"/><text fill="#000000" font-family="sans-serif" font-size="20" font-weight="bold" lengthAdjust="spacing" textLength="11.625" x="17" y="288.8198">6</text><text fill="#000000" font-family="sans-serif" font-size="20" lengthAdjust="spacing" textLength="66" x="32.625" y="288.8198">200 OK</text><!--SRC=[XOynRy9G38Ht_mehGxUe8IDgGGgX30mToXzmtZFeYU274WUaLlpt6aeKmjBnTD_TsUq-o94QEjJHxTcZvorrjNv4qQ_mpPXdG9r6wGuLDm26Qd3XIA9OB95QJ0goeFXav9N5pIj9gQAM4u1vJ6VNo1HNoms-kYZ2JcFJpgikr3x8RhA8djz_HlBoqijyxDxa1SXfE96oDGDOkstOz1HthDYZkAsZxGniMO11QN_FtVRy23oN3VTYnNfcblzgXyHpzLkQ_Y5vbk7d-j6sDtu1]--></g></svg>