<?xml version="1.0" encoding="UTF-8" standalone="no"?><svg xmlns="http://www.w3.org/2000/svg" xmlns:xlink="http://www.w3.org/1999/xlink" contentStyleType="text/css" height="1111px" preserveAspectRatio="none" style="width:657px;height:1111px;background:#FFFFFF;" version="1.1" viewBox="0 0 657 1111" width="657px" zoomAndPan="magnify"><defs/><g><!--MD5=[2e6c4d40f7a36dc343c195464ea87277]
cluster MDM--><g id="cluster_MDM"><rect fill="none" height="993.54" rx="2.5" ry="2.5" style="stroke:#181818;stroke-width:1.0;" width="644" x="7" y="112"/><rect fill="none" height="10" style="stroke:#181818;stroke-width:1.0;" width="15" x="631" y="117"/><rect fill="none" height="2" style="stroke:#181818;stroke-width:1.0;" width="4" x="629" y="119"/><rect fill="none" height="2" style="stroke:#181818;stroke-width:1.0;" width="4" x="629" y="123"/><text fill="#000000" font-family="sans-serif" font-size="14" font-style="italic" lengthAdjust="spacing" textLength="84" x="287" y="139.9659">«component»</text><text fill="#000000" font-family="sans-serif" font-size="14" font-style="italic" lengthAdjust="spacing" textLength="102" x="278" y="159.0339">«container (C4)»</text><text fill="#000000" font-family="sans-serif" font-size="14" font-weight="bold" lengthAdjust="spacing" textLength="119" x="269.5" y="178.1018">MD Management</text></g><!--MD5=[be42953593190ea3859e665fa0790cc9]
cluster Frameworks & Drivers Layer--><g id="cluster_Frameworks &amp; Drivers Layer"><path d="M168.5,203 L366.5,203 A3.75,3.75 0 0 1 369,205.5 L376,228.0679 L478.5,228.0679 A2.5,2.5 0 0 1 481,230.5679 L481,322.63 A2.5,2.5 0 0 1 478.5,325.13 L168.5,325.13 A2.5,2.5 0 0 1 166,322.63 L166,205.5 A2.5,2.5 0 0 1 168.5,203 " fill="#80FFFF" style="stroke:#000000;stroke-width:1.5;"/><line style="stroke:#000000;stroke-width:1.5;" x1="166" x2="376" y1="228.0679" y2="228.0679"/><text fill="#000000" font-family="sans-serif" font-size="14" font-weight="bold" lengthAdjust="spacing" textLength="197" x="170" y="219.9659">Frameworks &amp; Drivers Layer</text></g><!--MD5=[25deb2d1fce5dd98d4c0c0d14c16086b]
cluster Interface Adapters Layer--><g id="cluster_Interface Adapters Layer"><path d="M168.5,455.13 L340.5,455.13 A3.75,3.75 0 0 1 343,457.63 L350,480.1979 L478.5,480.1979 A2.5,2.5 0 0 1 481,482.6979 L481,574.77 A2.5,2.5 0 0 1 478.5,577.27 L168.5,577.27 A2.5,2.5 0 0 1 166,574.77 L166,457.63 A2.5,2.5 0 0 1 168.5,455.13 " fill="#80FF80" style="stroke:#000000;stroke-width:1.5;"/><line style="stroke:#000000;stroke-width:1.5;" x1="166" x2="350" y1="480.1979" y2="480.1979"/><text fill="#000000" font-family="sans-serif" font-size="14" font-weight="bold" lengthAdjust="spacing" textLength="171" x="170" y="472.0959">Interface Adapters Layer</text></g><!--MD5=[b8393d82f2444e332493eabe5d0dc1af]
cluster Application Business Rules--><g id="cluster_Application Business Rules"><path d="M259.5,707.27 L444.5,707.27 A3.75,3.75 0 0 1 447,709.77 L454,732.3379 L454.5,732.3379 A2.5,2.5 0 0 1 457,734.8379 L457,826.9 A2.5,2.5 0 0 1 454.5,829.4 L259.5,829.4 A2.5,2.5 0 0 1 257,826.9 L257,709.77 A2.5,2.5 0 0 1 259.5,707.27 " fill="#FF8080" style="stroke:#000000;stroke-width:1.5;"/><line style="stroke:#000000;stroke-width:1.5;" x1="257" x2="454" y1="732.3379" y2="732.3379"/><text fill="#000000" font-family="sans-serif" font-size="14" font-weight="bold" lengthAdjust="spacing" textLength="184" x="261" y="724.2359">Application Business Rules</text></g><!--MD5=[fdded0eb0050d8dc91ab4a1c8d8f2292]
cluster Enterprise Business Rules--><g id="cluster_Enterprise Business Rules"><path d="M174.5,959.4 L351.5,959.4 A3.75,3.75 0 0 1 354,961.9 L361,984.4679 L373.5,984.4679 A2.5,2.5 0 0 1 376,986.9679 L376,1079.04 A2.5,2.5 0 0 1 373.5,1081.54 L174.5,1081.54 A2.5,2.5 0 0 1 172,1079.04 L172,961.9 A2.5,2.5 0 0 1 174.5,959.4 " fill="#FFC080" style="stroke:#000000;stroke-width:1.5;"/><line style="stroke:#000000;stroke-width:1.5;" x1="172" x2="361" y1="984.4679" y2="984.4679"/><text fill="#000000" font-family="sans-serif" font-size="14" font-weight="bold" lengthAdjust="spacing" textLength="176" x="176" y="976.3659">Enterprise Business Rules</text></g><text fill="#000000" font-family="sans-serif" font-size="14" lengthAdjust="spacing" textLength="4" x="401" y="89.898"> </text><rect fill="#F1F1F1" height="12" style="stroke:#181818;stroke-width:1.5;" width="12" x="397" y="106"/><text fill="#000000" font-family="sans-serif" font-size="14" lengthAdjust="spacing" textLength="103" x="398.5" y="89.898">Persistence API</text><rect fill="#F1F1F1" height="12" style="stroke:#181818;stroke-width:1.5;" width="12" x="444" y="106"/><!--MD5=[a4bef2a96bb219a766147d28812d6e12]
entity CTRL_API--><g id="elem_CTRL_API"><ellipse cx="403" cy="401.13" fill="#F1F1F1" rx="8" ry="8" style="stroke:#181818;stroke-width:0.5;"/><text fill="#000000" font-family="sans-serif" font-size="14" lengthAdjust="spacing" textLength="93" x="356.5" y="433.0959">Controller API</text></g><!--MD5=[b06a3a4d51b9328e4175a01932b95be7]
entity DATA_API--><g id="elem_DATA_API"><ellipse cx="91" cy="401.13" fill="#F1F1F1" rx="8" ry="8" style="stroke:#181818;stroke-width:0.5;"/><text fill="#000000" font-family="sans-serif" font-size="14" lengthAdjust="spacing" textLength="103" x="39.5" y="433.0959">Data Model API</text></g><!--MD5=[cf40c0765e2c1fb982c085ff59738cfe]
entity SRV_API--><g id="elem_SRV_API"><ellipse cx="403" cy="653.27" fill="#F1F1F1" rx="8" ry="8" style="stroke:#181818;stroke-width:0.5;"/><text fill="#000000" font-family="sans-serif" font-size="14" lengthAdjust="spacing" textLength="112" x="347" y="685.2359">App Services API</text></g><!--MD5=[03daee95c47d28e2008f8fcdb06be569]
entity DTO_API--><g id="elem_DTO_API"><ellipse cx="537" cy="653.27" fill="#F1F1F1" rx="8" ry="8" style="stroke:#181818;stroke-width:0.5;"/><text fill="#000000" font-family="sans-serif" font-size="14" lengthAdjust="spacing" textLength="55" x="509.5" y="685.2359">DTO API</text></g><!--MD5=[da0ef23a9c816bd8c7b91fae44b58d63]
entity REPO_API--><g id="elem_REPO_API"><ellipse cx="266" cy="653.27" fill="#F1F1F1" rx="8" ry="8" style="stroke:#181818;stroke-width:0.5;"/><text fill="#000000" font-family="sans-serif" font-size="14" lengthAdjust="spacing" textLength="60" x="236" y="685.2359">Repo API</text></g><!--MD5=[07a00e9f9694fcf0c9c28cac3f0a547a]
entity MODEL_API--><g id="elem_MODEL_API"><ellipse cx="274" cy="905.4" fill="#F1F1F1" rx="8" ry="8" style="stroke:#181818;stroke-width:0.5;"/><text fill="#000000" font-family="sans-serif" font-size="14" lengthAdjust="spacing" textLength="68" x="240" y="937.3659">Model API</text></g><!--MD5=[e024adea7d2e47c854f4aa7e60c9df0e]
entity PERSISTENCE_API--><g id="elem_PERSISTENCE_API"><ellipse cx="244" cy="401.13" fill="#F1F1F1" rx="8" ry="8" style="stroke:#181818;stroke-width:0.5;"/><text fill="#000000" font-family="sans-serif" font-size="14" lengthAdjust="spacing" textLength="103" x="192.5" y="433.0959">Persistence API</text></g><!--MD5=[c59df10ccd9e4ee939487a8f50ca79f9]
entity ROUTE--><g id="elem_ROUTE"><rect fill="#F1F1F1" height="68.1358" rx="2.5" ry="2.5" style="stroke:#181818;stroke-width:0.5;" width="124" x="341" y="241"/><rect fill="#F1F1F1" height="10" style="stroke:#181818;stroke-width:0.5;" width="15" x="445" y="246"/><rect fill="#F1F1F1" height="2" style="stroke:#181818;stroke-width:0.5;" width="4" x="443" y="248"/><rect fill="#F1F1F1" height="2" style="stroke:#181818;stroke-width:0.5;" width="4" x="443" y="252"/><text fill="#000000" font-family="sans-serif" font-size="14" font-style="italic" lengthAdjust="spacing" textLength="84" x="356" y="275.9659">«component»</text><text fill="#000000" font-family="sans-serif" font-size="14" lengthAdjust="spacing" textLength="53" x="371.5" y="295.0339">Routing</text></g><!--MD5=[141900e5f119eecb0c14f98536f119e1]
entity PERSISTENCE--><g id="elem_PERSISTENCE"><rect fill="#F1F1F1" height="68.1358" rx="2.5" ry="2.5" style="stroke:#181818;stroke-width:0.5;" width="124" x="182" y="241"/><rect fill="#F1F1F1" height="10" style="stroke:#181818;stroke-width:0.5;" width="15" x="286" y="246"/><rect fill="#F1F1F1" height="2" style="stroke:#181818;stroke-width:0.5;" width="4" x="284" y="248"/><rect fill="#F1F1F1" height="2" style="stroke:#181818;stroke-width:0.5;" width="4" x="284" y="252"/><text fill="#000000" font-family="sans-serif" font-size="14" font-style="italic" lengthAdjust="spacing" textLength="84" x="197" y="275.9659">«component»</text><text fill="#000000" font-family="sans-serif" font-size="14" lengthAdjust="spacing" textLength="77" x="200.5" y="295.0339">Persistence</text></g><!--MD5=[4c532a2f71ebde4f3db08a6bedb73265]
entity DATA--><g id="elem_DATA"><rect fill="#F1F1F1" height="68.1358" rx="2.5" ry="2.5" style="stroke:#181818;stroke-width:0.5;" width="124" x="23" y="241"/><rect fill="#F1F1F1" height="10" style="stroke:#181818;stroke-width:0.5;" width="15" x="127" y="246"/><rect fill="#F1F1F1" height="2" style="stroke:#181818;stroke-width:0.5;" width="4" x="125" y="248"/><rect fill="#F1F1F1" height="2" style="stroke:#181818;stroke-width:0.5;" width="4" x="125" y="252"/><text fill="#000000" font-family="sans-serif" font-size="14" font-style="italic" lengthAdjust="spacing" textLength="84" x="38" y="275.9659">«component»</text><text fill="#000000" font-family="sans-serif" font-size="14" lengthAdjust="spacing" textLength="77" x="41.5" y="295.0339">Data Model</text></g><!--MD5=[97de1061a0ab8445a0a4bfc3e13b8318]
entity DTO--><g id="elem_DTO"><rect fill="#F1F1F1" height="68.1358" rx="2.5" ry="2.5" style="stroke:#181818;stroke-width:0.5;" width="124" x="500" y="493.13"/><rect fill="#F1F1F1" height="10" style="stroke:#181818;stroke-width:0.5;" width="15" x="604" y="498.13"/><rect fill="#F1F1F1" height="2" style="stroke:#181818;stroke-width:0.5;" width="4" x="602" y="500.13"/><rect fill="#F1F1F1" height="2" style="stroke:#181818;stroke-width:0.5;" width="4" x="602" y="504.13"/><text fill="#000000" font-family="sans-serif" font-size="14" font-style="italic" lengthAdjust="spacing" textLength="84" x="515" y="528.0959">«component»</text><text fill="#000000" font-family="sans-serif" font-size="14" lengthAdjust="spacing" textLength="29" x="542.5" y="547.1639">DTO</text></g><!--MD5=[aa33919f6aea5790bca91aa1fa7cb365]
entity CTRL--><g id="elem_CTRL"><rect fill="#F1F1F1" height="68.1358" rx="2.5" ry="2.5" style="stroke:#181818;stroke-width:0.5;" width="124" x="341" y="493.13"/><rect fill="#F1F1F1" height="10" style="stroke:#181818;stroke-width:0.5;" width="15" x="445" y="498.13"/><rect fill="#F1F1F1" height="2" style="stroke:#181818;stroke-width:0.5;" width="4" x="443" y="500.13"/><rect fill="#F1F1F1" height="2" style="stroke:#181818;stroke-width:0.5;" width="4" x="443" y="504.13"/><text fill="#000000" font-family="sans-serif" font-size="14" font-style="italic" lengthAdjust="spacing" textLength="84" x="356" y="528.0959">«component»</text><text fill="#000000" font-family="sans-serif" font-size="14" lengthAdjust="spacing" textLength="67" x="364.5" y="547.1639">Controller</text></g><!--MD5=[48d60d0140106b47a7717fee6b6352b5]
entity REPO--><g id="elem_REPO"><rect fill="#F1F1F1" height="68.1358" rx="2.5" ry="2.5" style="stroke:#181818;stroke-width:0.5;" width="124" x="182" y="493.13"/><rect fill="#F1F1F1" height="10" style="stroke:#181818;stroke-width:0.5;" width="15" x="286" y="498.13"/><rect fill="#F1F1F1" height="2" style="stroke:#181818;stroke-width:0.5;" width="4" x="284" y="500.13"/><rect fill="#F1F1F1" height="2" style="stroke:#181818;stroke-width:0.5;" width="4" x="284" y="504.13"/><text fill="#000000" font-family="sans-serif" font-size="14" font-style="italic" lengthAdjust="spacing" textLength="84" x="197" y="528.0959">«component»</text><text fill="#000000" font-family="sans-serif" font-size="14" lengthAdjust="spacing" textLength="71" x="203.5" y="547.1639">Repository</text></g><!--MD5=[2ae9bfc662548d719b2d3e00ac63b9a4]
entity SRV--><g id="elem_SRV"><rect fill="#F1F1F1" height="68.1358" rx="2.5" ry="2.5" style="stroke:#181818;stroke-width:0.5;" width="168" x="273" y="745.27"/><rect fill="#F1F1F1" height="10" style="stroke:#181818;stroke-width:0.5;" width="15" x="421" y="750.27"/><rect fill="#F1F1F1" height="2" style="stroke:#181818;stroke-width:0.5;" width="4" x="419" y="752.27"/><rect fill="#F1F1F1" height="2" style="stroke:#181818;stroke-width:0.5;" width="4" x="419" y="756.27"/><text fill="#000000" font-family="sans-serif" font-size="14" font-style="italic" lengthAdjust="spacing" textLength="84" x="310" y="780.2359">«component»</text><text fill="#000000" font-family="sans-serif" font-size="14" lengthAdjust="spacing" textLength="128" x="288" y="799.3039">Application Service</text></g><!--MD5=[3fcccb19da09ca98d2d053148d8c1c3c]
entity MODEL--><g id="elem_MODEL"><rect fill="#F1F1F1" height="68.1358" rx="2.5" ry="2.5" style="stroke:#181818;stroke-width:0.5;" width="172" x="188" y="997.4"/><rect fill="#F1F1F1" height="10" style="stroke:#181818;stroke-width:0.5;" width="15" x="340" y="1002.4"/><rect fill="#F1F1F1" height="2" style="stroke:#181818;stroke-width:0.5;" width="4" x="338" y="1004.4"/><rect fill="#F1F1F1" height="2" style="stroke:#181818;stroke-width:0.5;" width="4" x="338" y="1008.4"/><text fill="#000000" font-family="sans-serif" font-size="14" font-style="italic" lengthAdjust="spacing" textLength="84" x="227" y="1032.3659">«component»</text><text fill="#000000" font-family="sans-serif" font-size="14" lengthAdjust="spacing" textLength="132" x="203" y="1051.4339">Domain Model DDD</text></g><!--MD5=[645d8587175d8f7ad110cd370775931d]
entity API--><g id="elem_API"><ellipse cx="403" cy="14" fill="#F1F1F1" rx="8" ry="8" style="stroke:#181818;stroke-width:0.5;"/><text fill="#000000" font-family="sans-serif" font-size="14" lengthAdjust="spacing" textLength="49" x="378.5" y="45.9659">MD API</text></g><!--MD5=[2ea510de5e10cd426fcae22deb3306cf]
link API to P1--><g id="link_API_P1"><path d="M403,22.85 C403,41.84 403,89.83 403,105.76 " fill="none" id="API-P1" style="stroke:#181818;stroke-width:1.0;"/></g><!--MD5=[da324f6474440c0de80c5378560afad8]
link ROUTE to P1--><g id="link_ROUTE_P1"><path d="M403,240.84 C403,200.97 403,137.13 403,118.36 " fill="none" id="ROUTE-P1" style="stroke:#181818;stroke-width:1.0;"/></g><!--MD5=[c7a04672f1b525ba9a0a668ac5dd313d]
link PERSISTENCE to P2--><g id="link_PERSISTENCE_P2"><path d="M270.44,240.83 C285.12,223.58 304.36,202.86 324,187 C365.64,153.37 424.24,124.9 443.55,115.93 " fill="none" id="PERSISTENCE-P2" style="stroke:#181818;stroke-width:1.0;"/></g><!--MD5=[934e026255d5cae9d466298be546a757]
link ROUTE to CTRL_API--><g id="link_ROUTE_CTRL_API"><path d="M403,309.31 C403,332.17 403,361.74 403,380.82 " fill="none" id="ROUTE-to-CTRL_API" style="stroke:#181818;stroke-width:1.0;"/><path d="M411.4572,387.5518 A9,9 0 0 0 394.5428 387.5518" fill="none" style="stroke:#181818;stroke-width:1.5;"/></g><!--MD5=[ca76bc6bb19337f1fa71853eed84ced7]
link CTRL_API to CTRL--><g id="link_CTRL_API_CTRL"><path d="M403,409.89 C403,426.13 403,464.5 403,492.75 " fill="none" id="CTRL_API-CTRL" style="stroke:#181818;stroke-width:1.0;"/></g><!--MD5=[66929118b1082372e90c93f635eb75bb]
link PERSISTENCE to PERSISTENCE_API--><g id="link_PERSISTENCE_PERSISTENCE_API"><path d="M244,309.31 C244,337.45 244,375.74 244,392.14 " fill="none" id="PERSISTENCE-PERSISTENCE_API" style="stroke:#181818;stroke-width:1.0;"/></g><!--MD5=[ef53c018a4c5493882643bb6282f4e0c]
reverse link PERSISTENCE_API to REPO--><g id="link_PERSISTENCE_API_REPO"><path d="M244,421.15 C244,440.16 244,469.8 244,492.75 " fill="none" id="PERSISTENCE_API-backto-REPO" style="stroke:#181818;stroke-width:1.0;"/><path d="M235.5428,414.4882 A9,9 0 0 0 252.4572 414.4882" fill="none" style="stroke:#181818;stroke-width:1.5;"/></g><!--MD5=[f8ace971a97d46ec283b778fd61d56cf]
link PERSISTENCE to DATA_API--><g id="link_PERSISTENCE_DATA_API"><path d="M205.92,309.63 C196.86,317.44 187.15,325.66 178,333.13 C154.54,352.28 126.7,373.46 108.95,386.78 " fill="none" id="PERSISTENCE-to-DATA_API" style="stroke:#181818;stroke-width:1.0;"/><path d="M108.507,397.6639 A9,9 0 0 0 98.3854 384.1121" fill="none" style="stroke:#181818;stroke-width:1.5;"/></g><!--MD5=[dfc9db31b468f3ce5066007fdb71a377]
reverse link DATA_API to REPO--><g id="link_DATA_API_REPO"><path d="M108.54,416.36 C131.37,434.87 171.97,467.79 202.79,492.78 " fill="none" id="DATA_API-backto-REPO" style="stroke:#181818;stroke-width:1.0;"/><path d="M97.9054,418.6181 A9,9 0 0 0 108.557 405.4787" fill="none" style="stroke:#181818;stroke-width:1.5;"/></g><!--MD5=[bc1a25b422c4323256fbf946ce492877]
link DATA to DATA_API--><g id="link_DATA_DATA_API"><path d="M86.61,309.31 C87.71,332.17 89.14,361.74 90.07,380.82 " fill="none" id="DATA-to-DATA_API" style="stroke:#181818;stroke-width:1.0;"/><path d="M98.8377,387.1446 A9,9 0 0 0 81.9432 387.9663" fill="none" style="stroke:#181818;stroke-width:1.5;"/></g><!--MD5=[81296158a87d58ec40d56dbab3fc4274]
link CTRL to SRV_API--><g id="link_CTRL_SRV_API"><path d="M403,561.45 C403,584.31 403,613.87 403,632.95 " fill="none" id="CTRL-to-SRV_API" style="stroke:#181818;stroke-width:1.0;"/><path d="M411.4572,639.6818 A9,9 0 0 0 394.5428 639.6818" fill="none" style="stroke:#181818;stroke-width:1.5;"/></g><!--MD5=[c15049347ac90765e404d2283b7839c1]
reverse link SRV_API to SRV--><g id="link_SRV_API_SRV"><path d="M396.15,672.74 C389.11,691.73 377.99,721.71 369.4,744.89 " fill="none" id="SRV_API-backto-SRV" style="stroke:#181818;stroke-width:1.0;"/><path d="M390.6001,663.3988 A9,9 0 0 0 406.4614 669.2742" fill="none" style="stroke:#181818;stroke-width:1.5;"/></g><!--MD5=[8986e145bb4e345cfe731979d9f8de1b]
reverse link DTO_API to SRV--><g id="link_DTO_API_SRV"><path d="M518.86,666.77 C492.54,684.91 442.8,719.19 405.38,744.99 " fill="none" id="DTO_API-backto-SRV" style="stroke:#181818;stroke-width:1.0;"/><path d="M519.7403,655.8875 A9,9 0 0 0 529.3279 669.8222" fill="none" style="stroke:#181818;stroke-width:1.5;"/></g><!--MD5=[a7e070744c00e8b5382e17ef40fbc9dc]
link CTRL to DTO_API--><g id="link_CTRL_DTO_API"><path d="M438.91,561.45 C465.26,585.85 499.86,617.88 520.14,636.66 " fill="none" id="CTRL-to-DTO_API" style="stroke:#181818;stroke-width:1.0;"/><path d="M530.756,634.9567 A9,9 0 0 0 519.2511 647.3558" fill="none" style="stroke:#181818;stroke-width:1.5;"/></g><!--MD5=[b9211db5413aa7321327bdf9c64a5720]
link DTO to DTO_API--><g id="link_DTO_DTO_API"><path d="M555.3,561.45 C550.67,584.42 544.68,614.16 540.84,633.23 " fill="none" id="DTO-to-DTO_API" style="stroke:#181818;stroke-width:1.0;"/><path d="M547.8078,641.4377 A9,9 0 0 0 531.2246 638.1065" fill="none" style="stroke:#181818;stroke-width:1.5;"/></g><!--MD5=[a63abc9c1fa3fe15a1408bd634790c30]
link REPO to REPO_API--><g id="link_REPO_REPO_API"><path d="M249.9,561.45 C254.88,589.59 261.67,627.87 264.58,644.28 " fill="none" id="REPO-REPO_API" style="stroke:#181818;stroke-width:1.0;"/></g><!--MD5=[ce48b4950b5d6b8094bd5d8b93cc63cc]
reverse link REPO_API to SRV--><g id="link_REPO_API_SRV"><path d="M278.37,671.14 C292.21,690.01 314.98,721.05 332.47,744.89 " fill="none" id="REPO_API-backto-SRV" style="stroke:#181818;stroke-width:1.0;"/><path d="M267.5938,670.7359 A9,9 0 0 0 281.2291 660.727" fill="none" style="stroke:#181818;stroke-width:1.5;"/></g><!--MD5=[3798ad7770e428ed0b3dec73fbcc5891]
link SRV to MODEL_API--><g id="link_SRV_MODEL_API"><path d="M334.76,813.58 C318.95,837.21 298.35,868.01 285.66,886.98 " fill="none" id="SRV-to-MODEL_API" style="stroke:#181818;stroke-width:1.0;"/><path d="M288.9318,897.2904 A9,9 0 0 0 274.8692 887.8912" fill="none" style="stroke:#181818;stroke-width:1.5;"/></g><!--MD5=[aadfeffa343fca7a154fb3ff2e82a91e]
link REPO to MODEL_API--><g id="link_REPO_MODEL_API"><path d="M229.08,561.49 C222.08,578.92 214.52,600.83 211,621.27 C193.6,722.41 243.83,841.94 265.04,886.5 " fill="none" id="REPO-to-MODEL_API" style="stroke:#181818;stroke-width:1.0;"/><path d="M275.5401,888.7442 A9,9 0 0 0 260.3396 896.1632" fill="none" style="stroke:#181818;stroke-width:1.5;"/></g><!--MD5=[141f302c97e20ef427497abbf21a6232]
link MODEL_API to MODEL--><g id="link_MODEL_API_MODEL"><path d="M274,914.17 C274,930.4 274,968.77 274,997.02 " fill="none" id="MODEL_API-MODEL" style="stroke:#181818;stroke-width:1.0;"/></g><!--MD5=[5bc33ef0193d7e36a957f468c22251e7]
@startuml logical-view

top to bottom direction

interface "MD API" as API

component "MD Management" as MDM <<component>> <<container (C4)>> {
  portin " " as P1
  portin "Persistence API" as P2

  Interface "Controller API" as CTRL_API
  Interface "Data Model API" as DATA_API


  folder "Frameworks & Drivers Layer" #80FFFF {
    component "Routing" as ROUTE <<component>> {
    }
    component "Persistence" as PERSISTENCE <<component>> {
    }
  }

  component "Data Model" as DATA <<component>> {
  }
  component "DTO" as DTO <<component>> {
  }

  Interface "App Services API" AS SRV_API
  Interface "DTO API" AS DTO_API
  Interface "Repo API" AS REPO_API
  Interface "Model API" AS MODEL_API
  Interface "Persistence API" AS PERSISTENCE_API

  folder "Interface Adapters Layer" #80FF80 {
    component "Controller" as CTRL <<component>> {
    }
    component "Repository" as REPO <<component>> {
    }
  }

  folder "Application Business Rules" #FF8080 {
    component "Application Service" as SRV <<component>> {
    }
  }

  folder "Enterprise Business Rules" #FFC080 {
    component "Domain Model DDD" as MODEL <<component>> {
    }
  }
}

API - - P1

ROUTE - - - P1
PERSISTENCE - - P2

ROUTE - -( CTRL_API
CTRL -up- CTRL_API
PERSISTENCE - - PERSISTENCE_API
REPO -up-( PERSISTENCE_API 
PERSISTENCE - -( DATA_API 
REPO -up-( DATA_API 
DATA - -( DATA_API 

CTRL - -( SRV_API
SRV -up-( SRV_API
SRV -up-( DTO_API
CTRL - -( DTO_API
DTO - -( DTO_API

REPO - - REPO_API
SRV -up-( REPO_API 

SRV - -( MODEL_API 
REPO - -( MODEL_API 
MODEL -up- MODEL_API 

@enduml

PlantUML version 1.2022.7(Mon Aug 22 18:01:30 WEST 2022)
(GPL source distribution)
Java Runtime: OpenJDK Runtime Environment
JVM: OpenJDK 64-Bit Server VM
Default Encoding: UTF-8
Language: en
Country: GB
--></g></svg>