<?xml version="1.0" encoding="UTF-8" standalone="no"?><svg xmlns="http://www.w3.org/2000/svg" xmlns:xlink="http://www.w3.org/1999/xlink" contentStyleType="text/css" height="1169px" preserveAspectRatio="none" style="width:995px;height:1169px;background:#FFFFFF;" version="1.1" viewBox="0 0 995 1169" width="995px" zoomAndPan="magnify"><defs/><g><!--cluster MDD--><g id="cluster_MDD"><rect fill="none" height="1030" rx="2.5" ry="2.5" style="stroke:#181818;stroke-width:1.0;" width="982" x="7" y="133"/><rect fill="none" height="10" style="stroke:#181818;stroke-width:1.0;" width="15" x="969" y="138"/><rect fill="none" height="2" style="stroke:#181818;stroke-width:1.0;" width="4" x="967" y="140"/><rect fill="none" height="2" style="stroke:#181818;stroke-width:1.0;" width="4" x="967" y="144"/><text fill="#000000" font-family="sans-serif" font-size="20" font-style="italic" lengthAdjust="spacing" textLength="122" x="437" y="167.38">«component»</text><text fill="#000000" font-family="sans-serif" font-size="20" font-style="italic" lengthAdjust="spacing" textLength="122" x="437" y="194.62">«system (C4)»</text><text fill="#000000" font-family="sans-serif" font-size="20" font-weight="bold" lengthAdjust="spacing" textLength="115.625" x="440.1875" y="221.8599">MD Devices</text></g><!--cluster Frameworks & Drivers Layer--><g id="cluster_Frameworks &amp; Drivers Layer"><path d="M576.5,268 L854.875,268 A3.75,3.75 0 0 1 857.375,270.5 L864.375,301.24 L962.5,301.24 A2.5,2.5 0 0 1 965,303.74 L965,411.5 A2.5,2.5 0 0 1 962.5,414 L576.5,414 A2.5,2.5 0 0 1 574,411.5 L574,270.5 A2.5,2.5 0 0 1 576.5,268 " fill="#80FFFF" style="stroke:#000000;stroke-width:1.5;"/><line style="stroke:#000000;stroke-width:1.5;" x1="574" x2="864.375" y1="301.24" y2="301.24"/><text fill="#000000" font-family="sans-serif" font-size="20" font-weight="bold" lengthAdjust="spacing" textLength="277.375" x="578" y="291.38">Frameworks &amp; Drivers Layer</text></g><!--cluster Interface Adapters Layer--><g id="cluster_Interface Adapters Layer"><path d="M452.5,489 L695.25,489 A3.75,3.75 0 0 1 697.75,491.5 L704.75,522.24 L838.5,522.24 A2.5,2.5 0 0 1 841,524.74 L841,632.5 A2.5,2.5 0 0 1 838.5,635 L452.5,635 A2.5,2.5 0 0 1 450,632.5 L450,491.5 A2.5,2.5 0 0 1 452.5,489 " fill="#80FF80" style="stroke:#000000;stroke-width:1.5;"/><line style="stroke:#000000;stroke-width:1.5;" x1="450" x2="704.75" y1="522.24" y2="522.24"/><text fill="#000000" font-family="sans-serif" font-size="20" font-weight="bold" lengthAdjust="spacing" textLength="241.75" x="454" y="512.38">Interface Adapters Layer</text></g><!--cluster Application Business Rules--><g id="cluster_Application Business Rules"><path d="M500.5,772 L763.5,772 A3.75,3.75 0 0 1 766,774.5 L773,805.24 L773.5,805.24 A2.5,2.5 0 0 1 776,807.74 L776,915.5 A2.5,2.5 0 0 1 773.5,918 L500.5,918 A2.5,2.5 0 0 1 498,915.5 L498,774.5 A2.5,2.5 0 0 1 500.5,772 " fill="#FF8080" style="stroke:#000000;stroke-width:1.5;"/><line style="stroke:#000000;stroke-width:1.5;" x1="498" x2="773" y1="805.24" y2="805.24"/><text fill="#000000" font-family="sans-serif" font-size="20" font-weight="bold" lengthAdjust="spacing" textLength="262" x="502" y="795.38">Application Business Rules</text></g><!--cluster Enterprise Business Rules--><g id="cluster_Enterprise Business Rules"><path d="M505.5,993 L758.875,993 A3.75,3.75 0 0 1 761.375,995.5 L768.375,1026.24 L768.5,1026.24 A2.5,2.5 0 0 1 771,1028.74 L771,1136.5 A2.5,2.5 0 0 1 768.5,1139 L505.5,1139 A2.5,2.5 0 0 1 503,1136.5 L503,995.5 A2.5,2.5 0 0 1 505.5,993 " fill="#FFC080" style="stroke:#000000;stroke-width:1.5;"/><line style="stroke:#000000;stroke-width:1.5;" x1="503" x2="768.375" y1="1026.24" y2="1026.24"/><text fill="#000000" font-family="sans-serif" font-size="20" font-weight="bold" lengthAdjust="spacing" textLength="252.375" x="507" y="1016.38">Enterprise Business Rules</text></g><text fill="#000000" font-family="sans-serif" font-size="20" lengthAdjust="spacing" textLength="5" x="828.5" y="109.14"> </text><rect fill="#F1F1F1" height="12" style="stroke:#181818;stroke-width:1.5;" width="12" x="825" y="127"/><text fill="#000000" font-family="sans-serif" font-size="20" lengthAdjust="spacing" textLength="144" x="598.5" y="109.14">Persistence API</text><rect fill="#F1F1F1" height="12" style="stroke:#181818;stroke-width:1.5;" width="12" x="664.5" y="127"/><!--entity ROUTE--><g id="elem_ROUTE"><rect fill="#F1F1F1" height="84.4799" rx="2.5" ry="2.5" style="stroke:#181818;stroke-width:0.5;" width="162" x="787" y="314"/><rect fill="#F1F1F1" height="10" style="stroke:#181818;stroke-width:0.5;" width="15" x="929" y="319"/><rect fill="#F1F1F1" height="2" style="stroke:#181818;stroke-width:0.5;" width="4" x="927" y="321"/><rect fill="#F1F1F1" height="2" style="stroke:#181818;stroke-width:0.5;" width="4" x="927" y="325"/><text fill="#000000" font-family="sans-serif" font-size="20" font-style="italic" lengthAdjust="spacing" textLength="122" x="802" y="355.38">«component»</text><text fill="#000000" font-family="sans-serif" font-size="20" lengthAdjust="spacing" textLength="72" x="827" y="382.62">Routing</text></g><!--entity PERSISTENCE--><g id="elem_PERSISTENCE"><rect fill="#F1F1F1" height="84.4799" rx="2.5" ry="2.5" style="stroke:#181818;stroke-width:0.5;" width="162" x="590" y="314"/><rect fill="#F1F1F1" height="10" style="stroke:#181818;stroke-width:0.5;" width="15" x="732" y="319"/><rect fill="#F1F1F1" height="2" style="stroke:#181818;stroke-width:0.5;" width="4" x="730" y="321"/><rect fill="#F1F1F1" height="2" style="stroke:#181818;stroke-width:0.5;" width="4" x="730" y="325"/><text fill="#000000" font-family="sans-serif" font-size="20" font-style="italic" lengthAdjust="spacing" textLength="122" x="605" y="355.38">«component»</text><text fill="#000000" font-family="sans-serif" font-size="20" lengthAdjust="spacing" textLength="107" x="612.5" y="382.62">Persistence</text></g><!--entity DATA--><g id="elem_DATA"><rect fill="#F1F1F1" height="84.4799" rx="2.5" ry="2.5" style="stroke:#181818;stroke-width:0.5;" width="162" x="220" y="314"/><rect fill="#F1F1F1" height="10" style="stroke:#181818;stroke-width:0.5;" width="15" x="362" y="319"/><rect fill="#F1F1F1" height="2" style="stroke:#181818;stroke-width:0.5;" width="4" x="360" y="321"/><rect fill="#F1F1F1" height="2" style="stroke:#181818;stroke-width:0.5;" width="4" x="360" y="325"/><text fill="#000000" font-family="sans-serif" font-size="20" font-style="italic" lengthAdjust="spacing" textLength="122" x="235" y="355.38">«component»</text><text fill="#000000" font-family="sans-serif" font-size="20" lengthAdjust="spacing" textLength="107" x="242.5" y="382.62">Data Model</text></g><!--entity DTO--><g id="elem_DTO"><rect fill="#F1F1F1" height="84.4799" rx="2.5" ry="2.5" style="stroke:#181818;stroke-width:0.5;" width="162" x="23" y="314"/><rect fill="#F1F1F1" height="10" style="stroke:#181818;stroke-width:0.5;" width="15" x="165" y="319"/><rect fill="#F1F1F1" height="2" style="stroke:#181818;stroke-width:0.5;" width="4" x="163" y="321"/><rect fill="#F1F1F1" height="2" style="stroke:#181818;stroke-width:0.5;" width="4" x="163" y="325"/><text fill="#000000" font-family="sans-serif" font-size="20" font-style="italic" lengthAdjust="spacing" textLength="122" x="38" y="355.38">«component»</text><text fill="#000000" font-family="sans-serif" font-size="20" lengthAdjust="spacing" textLength="42" x="78" y="382.62">DTO</text></g><!--entity CTRL--><g id="elem_CTRL"><rect fill="#F1F1F1" height="84.4799" rx="2.5" ry="2.5" style="stroke:#181818;stroke-width:0.5;" width="162" x="663" y="535"/><rect fill="#F1F1F1" height="10" style="stroke:#181818;stroke-width:0.5;" width="15" x="805" y="540"/><rect fill="#F1F1F1" height="2" style="stroke:#181818;stroke-width:0.5;" width="4" x="803" y="542"/><rect fill="#F1F1F1" height="2" style="stroke:#181818;stroke-width:0.5;" width="4" x="803" y="546"/><text fill="#000000" font-family="sans-serif" font-size="20" font-style="italic" lengthAdjust="spacing" textLength="122" x="678" y="576.38">«component»</text><text fill="#000000" font-family="sans-serif" font-size="20" lengthAdjust="spacing" textLength="93" x="692.5" y="603.62">Controller</text></g><!--entity REPO--><g id="elem_REPO"><rect fill="#F1F1F1" height="84.4799" rx="2.5" ry="2.5" style="stroke:#181818;stroke-width:0.5;" width="162" x="466" y="535"/><rect fill="#F1F1F1" height="10" style="stroke:#181818;stroke-width:0.5;" width="15" x="608" y="540"/><rect fill="#F1F1F1" height="2" style="stroke:#181818;stroke-width:0.5;" width="4" x="606" y="542"/><rect fill="#F1F1F1" height="2" style="stroke:#181818;stroke-width:0.5;" width="4" x="606" y="546"/><text fill="#000000" font-family="sans-serif" font-size="20" font-style="italic" lengthAdjust="spacing" textLength="122" x="481" y="576.38">«component»</text><text fill="#000000" font-family="sans-serif" font-size="20" lengthAdjust="spacing" textLength="99" x="492.5" y="603.62">Repository</text></g><!--entity SRV--><g id="elem_SRV"><rect fill="#F1F1F1" height="84.4799" rx="2.5" ry="2.5" style="stroke:#181818;stroke-width:0.5;" width="215" x="529.5" y="818"/><rect fill="#F1F1F1" height="10" style="stroke:#181818;stroke-width:0.5;" width="15" x="724.5" y="823"/><rect fill="#F1F1F1" height="2" style="stroke:#181818;stroke-width:0.5;" width="4" x="722.5" y="825"/><rect fill="#F1F1F1" height="2" style="stroke:#181818;stroke-width:0.5;" width="4" x="722.5" y="829"/><text fill="#000000" font-family="sans-serif" font-size="20" font-style="italic" lengthAdjust="spacing" textLength="122" x="571" y="859.38">«component»</text><text fill="#000000" font-family="sans-serif" font-size="20" lengthAdjust="spacing" textLength="175" x="544.5" y="886.62">Application Service</text></g><!--entity MODEL--><g id="elem_MODEL"><rect fill="#F1F1F1" height="84.4799" rx="2.5" ry="2.5" style="stroke:#181818;stroke-width:0.5;" width="227" x="523.5" y="1039"/><rect fill="#F1F1F1" height="10" style="stroke:#181818;stroke-width:0.5;" width="15" x="730.5" y="1044"/><rect fill="#F1F1F1" height="2" style="stroke:#181818;stroke-width:0.5;" width="4" x="728.5" y="1046"/><rect fill="#F1F1F1" height="2" style="stroke:#181818;stroke-width:0.5;" width="4" x="728.5" y="1050"/><text fill="#000000" font-family="sans-serif" font-size="20" font-style="italic" lengthAdjust="spacing" textLength="122" x="571" y="1080.38">«component»</text><text fill="#000000" font-family="sans-serif" font-size="20" lengthAdjust="spacing" textLength="187" x="538.5" y="1107.62">Domain Model DDD</text></g><!--entity API--><g id="elem_API"><ellipse cx="831" cy="14" fill="#F1F1F1" rx="8" ry="8" style="stroke:#181818;stroke-width:0.5;"/><text fill="#000000" font-family="sans-serif" font-size="20" lengthAdjust="spacing" textLength="70" x="796" y="52.38">MD API</text></g><!--link API to P1--><g id="link_API_P1"><path d="M831,22.68 C831,44.84 831,108.53 831,126.95 " fill="none" id="API-P1" style="stroke:#181818;stroke-width:1.0;"/></g><!--link ROUTE to P1--><g id="link_ROUTE_P1"><path d="M861.09,313.76 C851.77,258.09 835.88,163.13 831.91,139.46 " fill="none" id="ROUTE-P1" style="stroke:#181818;stroke-width:1.0;"/></g><!--link PERSISTENCE to P2--><g id="link_PERSISTENCE_P2"><path d="M671,313.6 C671,257.22 671,160.74 671,138.62 " fill="none" id="PERSISTENCE-P2" style="stroke:#181818;stroke-width:1.0;"/></g><!--link ROUTE to CTRL--><g id="link_ROUTE_CTRL"><path d="M844.53,398.45 C822.41,437.51 789.46,495.71 767.37,534.72 " fill="none" id="ROUTE-CTRL" style="stroke:#181818;stroke-width:1.0;"/><text fill="#000000" font-family="sans-serif" font-size="20" lengthAdjust="spacing" textLength="130" x="832" y="459.38">Controller API</text><path d="M815.5759,463.9345 A10,10 0 0 0 803.2695 456.9666" fill="none" style="stroke:#181818;stroke-width:1.5;"/><ellipse cx="805.9388" cy="466.6038" fill="#FFFFFF" rx="6" ry="6" style="stroke:#181818;stroke-width:1.5;"/></g><!--link PERSISTENCE to REPO--><g id="link_PERSISTENCE_REPO"><path d="M627.29,398.33 C614.84,407.79 600.65,416.63 586,422 C569.08,428.2 436.43,416.95 424,430 C391.78,463.85 432.37,504.7 475.33,534.58 " fill="none" id="PERSISTENCE-REPO" style="stroke:#181818;stroke-width:1.0;"/><text fill="#000000" font-family="sans-serif" font-size="20" lengthAdjust="spacing" textLength="144" x="432" y="459.38">Persistence API</text><path d="M576.9273,417.7945 A10,10 0 0 0 581.7945 431.0727" fill="none" style="stroke:#181818;stroke-width:1.5;"/><ellipse cx="586" cy="422" fill="#FFFFFF" rx="6" ry="6" style="stroke:#181818;stroke-width:1.5;"/></g><!--link PERSISTENCE to REPO--><g id="link_PERSISTENCE_REPO"><path d="M647.53,398.45 C625.41,437.51 592.46,495.71 570.37,534.72 " fill="none" id="PERSISTENCE-REPO-1" style="stroke:#181818;stroke-width:1.0;"/><text fill="#000000" font-family="sans-serif" font-size="20" lengthAdjust="spacing" textLength="144" x="635" y="459.38">Data Model API</text><ellipse cx="608.9388" cy="466.6038" fill="#FFFFFF" rx="10" ry="10" style="stroke:#FFFFFF;stroke-width:1.0;"/><path d="M599.3016,469.273 A10,10 0 0 0 611.608 476.2409" fill="none" style="stroke:#181818;stroke-width:1.5;"/><path d="M618.5759,463.9345 A10,10 0 0 0 606.2695 456.9666" fill="none" style="stroke:#181818;stroke-width:1.5;"/><ellipse cx="608.9388" cy="466.6038" fill="#FFFFFF" rx="6" ry="6" style="stroke:#181818;stroke-width:1.5;"/></g><!--link CTRL to SRV--><g id="link_CTRL_SRV"><path d="M704.39,619.4 C689.41,637.33 673.66,659.37 664,682 C645.26,725.88 639.29,780.78 637.51,817.7 " fill="none" id="CTRL-SRV" style="stroke:#181818;stroke-width:1.0;"/><text fill="#000000" font-family="sans-serif" font-size="20" lengthAdjust="spacing" textLength="155" x="672" y="711.38">App Services API</text><path d="M673.2794,678.2727 A10,10 0 0 0 660.2727 672.7206" fill="none" style="stroke:#181818;stroke-width:1.5;"/><ellipse cx="664" cy="682" fill="#FFFFFF" rx="6" ry="6" style="stroke:#181818;stroke-width:1.5;"/></g><!--link CTRL to SRV--><g id="link_CTRL_SRV"><path d="M798.58,619.35 C829.67,648.22 858.83,688.05 839,725 C817.16,765.7 776.92,796.13 738.07,817.62 " fill="none" id="CTRL-SRV-1" style="stroke:#181818;stroke-width:1.0;"/><text fill="#000000" font-family="sans-serif" font-size="20" lengthAdjust="spacing" textLength="79" x="853" y="711.38">DTO API</text><ellipse cx="794.9137" cy="778.5138" fill="#FFFFFF" rx="10" ry="10" style="stroke:#FFFFFF;stroke-width:1.0;"/><path d="M784.9372,777.8296 A10,10 0 0 0 794.2296 788.4903" fill="none" style="stroke:#181818;stroke-width:1.5;"/><path d="M804.8903,779.1979 A10,10 0 0 0 795.5979 768.5372" fill="none" style="stroke:#181818;stroke-width:1.5;"/><ellipse cx="794.9137" cy="778.5138" fill="#FFFFFF" rx="6" ry="6" style="stroke:#181818;stroke-width:1.5;"/></g><!--link REPO to SRV--><g id="link_REPO_SRV"><path d="M515.11,619.41 C496.29,649.16 478.84,690.03 494,725 C510.3,762.62 542.94,794.51 572.92,817.73 " fill="none" id="REPO-SRV" style="stroke:#181818;stroke-width:1.0;"/><text fill="#000000" font-family="sans-serif" font-size="20" lengthAdjust="spacing" textLength="84" x="502" y="711.38">Repo API</text><path d="M490.3248,734.3002 A10,10 0 0 0 503.3002 728.6752" fill="none" style="stroke:#181818;stroke-width:1.5;"/><ellipse cx="494" cy="725" fill="#FFFFFF" rx="6" ry="6" style="stroke:#181818;stroke-width:1.5;"/></g><!--link SRV to MODEL--><g id="link_SRV_MODEL"><path d="M637,902.45 C637,941.51 637,999.71 637,1038.72 " fill="none" id="SRV-MODEL" style="stroke:#181818;stroke-width:1.0;"/><text fill="#000000" font-family="sans-serif" font-size="20" lengthAdjust="spacing" textLength="95" x="645" y="963.38">Model API</text><path d="M644.0711,963.5327 A10,10 0 0 0 629.9289 963.5327" fill="none" style="stroke:#181818;stroke-width:1.5;"/><ellipse cx="637" cy="970.6038" fill="#FFFFFF" rx="6" ry="6" style="stroke:#181818;stroke-width:1.5;"/></g><!--SRC=[ZLDDQzj04BthLmmA5FiWK4qFmOI0gfN1O5T2KdhVIEEoMDAAtNMAM_pVkn_OsQXAY7GGi_DctkZj6tbamqW5xJlU7B655W_qrAaD7rJ5_Y2iuY1GV0J5uPahnNjecS16CJu40HiKYWDj4C8zWQJOXa2b-GP1m_kH3pWecoBumXgKDhqd11uURld7Hnt9irJOmoBzjjJntm1Wv4An0KBz9XKKNxsZ0eLa6ZzetYjdiGequi2x5WM46_q_-9kBeuGlG0HxqHMmesSK8TpTnnlzM180RyoIdtJxNxPTcJ_LsMHALt2PbddJk4coijfMTVOZVR_1nGphzI1KKTZp5ZlRWYHrCbDxcHJLkKFN-IpOqsDxkwUafQEQgd4V_wz6gWqWUDSPa2P9wtBtEJrA7BbaYekpKp8hyezrk0wPZ6F76cgS1TzFaWqeTVcfCxQvCqFEZUaNLIYCoonjLVxy76jcf1a5apX7ciwI4jvJRKHxOK08SRREIRRxW5EpQhD251ap1yvWaOjyovYJrIs_Y2Cd_HfUByGks9kQU1aveTSmMOwtk8K7VFMSMrXBOmWZAzuQjBHNITrENn7B6yHOpsHioyXB61EujYQsl-7qMNkK_m00]--></g></svg>