<?xml version="1.0" encoding="UTF-8" standalone="no"?><svg xmlns="http://www.w3.org/2000/svg" xmlns:xlink="http://www.w3.org/1999/xlink" contentStyleType="text/css" height="1148px" preserveAspectRatio="none" style="width:2932px;height:1148px;background:#FFFFFF;" version="1.1" viewBox="0 0 2932 1148" width="2932px" zoomAndPan="magnify"><defs/><g><rect fill="#DDDDDD" height="1136.7188" style="stroke:#181818;stroke-width:0.5;" width="1434" x="674.5" y="6"/><text fill="#000000" font-family="sans-serif" font-size="20" font-weight="bold" lengthAdjust="spacing" textLength="189" x="1297" y="24.5645">«container (C4)»</text><text fill="#000000" font-family="sans-serif" font-size="20" font-weight="bold" lengthAdjust="spacing" textLength="147" x="1318" y="47.8457">Visualization</text><rect fill="#FFFFE0" height="1136.7188" style="stroke:#181818;stroke-width:0.5;" width="213" x="2713.5" y="6"/><text fill="#000000" font-family="sans-serif" font-size="20" font-weight="bold" lengthAdjust="spacing" textLength="189" x="2725.5" y="24.5645">«container (C4)»</text><text fill="#000000" font-family="sans-serif" font-size="20" font-weight="bold" lengthAdjust="spacing" textLength="193" x="2723.5" y="47.8457">MD Management</text><rect fill="#FFFFFF" height="918.3125" style="stroke:#181818;stroke-width:1.0;" width="10" x="105.5" y="128.125"/><rect fill="#FFFFFF" height="37.2813" style="stroke:#181818;stroke-width:1.0;" width="10" x="752.5" y="157.4063"/><rect fill="#FFFFFF" height="815.4688" style="stroke:#181818;stroke-width:1.0;" width="10" x="752.5" y="231.9688"/><rect fill="#FFFFFF" height="301.5313" style="stroke:#181818;stroke-width:1.0;" width="10" x="1127.5" y="269.25"/><rect fill="#FFFFFF" height="174.4063" style="stroke:#181818;stroke-width:1.0;" width="10" x="1127.5" y="608.0625"/><rect fill="#FFFFFF" height="174.4063" style="stroke:#181818;stroke-width:1.0;" width="10" x="1127.5" y="819.75"/><rect fill="#FFFFFF" height="226.9688" style="stroke:#181818;stroke-width:1.0;" width="10" x="1716.5" y="306.5313"/><rect fill="#FFFFFF" height="137.125" style="stroke:#181818;stroke-width:1.0;" width="10" x="1716.5" y="608.0625"/><rect fill="#FFFFFF" height="137.125" style="stroke:#181818;stroke-width:1.0;" width="10" x="1716.5" y="819.75"/><rect fill="#FFFFFF" height="152.4063" style="stroke:#181818;stroke-width:1.0;" width="10" x="2023.5" y="343.8125"/><rect fill="#FFFFFF" height="99.8438" style="stroke:#181818;stroke-width:1.0;" width="10" x="2023.5" y="608.0625"/><rect fill="#FFFFFF" height="99.8438" style="stroke:#181818;stroke-width:1.0;" width="10" x="2023.5" y="819.75"/><rect fill="#FFFFFF" height="77.8438" style="stroke:#181818;stroke-width:1.0;" width="10" x="2815" y="381.0938"/><rect fill="#FFFFFF" height="62.5625" style="stroke:#181818;stroke-width:1.0;" width="10" x="2815" y="608.0625"/><rect fill="#FFFFFF" height="62.5625" style="stroke:#181818;stroke-width:1.0;" width="10" x="2815" y="819.75"/><rect fill="none" height="643.3438" style="stroke:#000000;stroke-width:1.5;" width="2896" x="10" y="396.0938"/><line style="stroke:#181818;stroke-width:0.5;stroke-dasharray:5.0,5.0;" x1="110" x2="110" y1="118.125" y2="1056.4375"/><line style="stroke:#181818;stroke-width:0.5;stroke-dasharray:5.0,5.0;" x1="757.5" x2="757.5" y1="118.125" y2="1056.4375"/><line style="stroke:#181818;stroke-width:0.5;stroke-dasharray:5.0,5.0;" x1="1132.5" x2="1132.5" y1="118.125" y2="1056.4375"/><line style="stroke:#181818;stroke-width:0.5;stroke-dasharray:5.0,5.0;" x1="1721.5" x2="1721.5" y1="118.125" y2="1056.4375"/><line style="stroke:#181818;stroke-width:0.5;stroke-dasharray:5.0,5.0;" x1="2028.5" x2="2028.5" y1="118.125" y2="1056.4375"/><line style="stroke:#181818;stroke-width:0.5;stroke-dasharray:5.0,5.0;" x1="2820" x2="2820" y1="118.125" y2="1056.4375"/><text fill="#000000" font-family="sans-serif" font-size="20" lengthAdjust="spacing" textLength="175" x="20" y="113.4082">Campus Manager</text><ellipse cx="110.5" cy="43.3438" fill="#E2E2F0" rx="8" ry="8" style="stroke:#181818;stroke-width:0.5;"/><path d="M110.5,51.3438 L110.5,78.3438 M97.5,59.3438 L123.5,59.3438 M110.5,78.3438 L97.5,93.3438 M110.5,78.3438 L123.5,93.3438 " fill="none" style="stroke:#181818;stroke-width:0.5;"/><text fill="#000000" font-family="sans-serif" font-size="20" lengthAdjust="spacing" textLength="175" x="20" y="1074.002">Campus Manager</text><ellipse cx="110.5" cy="1087.2188" fill="#E2E2F0" rx="8" ry="8" style="stroke:#181818;stroke-width:0.5;"/><path d="M110.5,1095.2188 L110.5,1122.2188 M97.5,1103.2188 L123.5,1103.2188 M110.5,1122.2188 L97.5,1137.2188 M110.5,1122.2188 L123.5,1137.2188 " fill="none" style="stroke:#181818;stroke-width:0.5;"/><rect fill="#E2E2F0" height="60.5625" rx="2.5" ry="2.5" style="stroke:#181818;stroke-width:0.5;" width="158" x="678.5" y="56.5625"/><text fill="#000000" font-family="sans-serif" font-size="20" font-style="italic" lengthAdjust="spacing" textLength="138" x="688.5" y="82.127">«component»</text><text fill="#000000" font-family="sans-serif" font-size="20" lengthAdjust="spacing" textLength="144" x="685.5" y="105.4082">UI Component</text><rect fill="#E2E2F0" height="60.5625" rx="2.5" ry="2.5" style="stroke:#181818;stroke-width:0.5;" width="158" x="678.5" y="1055.4375"/><text fill="#000000" font-family="sans-serif" font-size="20" font-style="italic" lengthAdjust="spacing" textLength="138" x="688.5" y="1081.002">«component»</text><text fill="#000000" font-family="sans-serif" font-size="20" lengthAdjust="spacing" textLength="144" x="685.5" y="1104.2832">UI Component</text><rect fill="#E2E2F0" height="60.5625" rx="2.5" ry="2.5" style="stroke:#181818;stroke-width:0.5;" width="152" x="1056.5" y="56.5625"/><text fill="#000000" font-family="sans-serif" font-size="20" font-style="italic" lengthAdjust="spacing" textLength="138" x="1063.5" y="82.127">«component»</text><text fill="#000000" font-family="sans-serif" font-size="20" lengthAdjust="spacing" textLength="73" x="1096" y="105.4082">Module</text><rect fill="#E2E2F0" height="60.5625" rx="2.5" ry="2.5" style="stroke:#181818;stroke-width:0.5;" width="152" x="1056.5" y="1055.4375"/><text fill="#000000" font-family="sans-serif" font-size="20" font-style="italic" lengthAdjust="spacing" textLength="138" x="1063.5" y="1081.002">«component»</text><text fill="#000000" font-family="sans-serif" font-size="20" lengthAdjust="spacing" textLength="73" x="1096" y="1104.2832">Module</text><rect fill="#E2E2F0" height="60.5625" rx="2.5" ry="2.5" style="stroke:#181818;stroke-width:0.5;" width="152" x="1645.5" y="56.5625"/><text fill="#000000" font-family="sans-serif" font-size="20" font-style="italic" lengthAdjust="spacing" textLength="138" x="1652.5" y="82.127">«component»</text><text fill="#000000" font-family="sans-serif" font-size="20" lengthAdjust="spacing" textLength="73" x="1685" y="105.4082">Service</text><rect fill="#E2E2F0" height="60.5625" rx="2.5" ry="2.5" style="stroke:#181818;stroke-width:0.5;" width="152" x="1645.5" y="1055.4375"/><text fill="#000000" font-family="sans-serif" font-size="20" font-style="italic" lengthAdjust="spacing" textLength="138" x="1652.5" y="1081.002">«component»</text><text fill="#000000" font-family="sans-serif" font-size="20" lengthAdjust="spacing" textLength="73" x="1685" y="1104.2832">Service</text><rect fill="#E2E2F0" height="60.5625" rx="2.5" ry="2.5" style="stroke:#181818;stroke-width:0.5;" width="152" x="1952.5" y="56.5625"/><text fill="#000000" font-family="sans-serif" font-size="20" font-style="italic" lengthAdjust="spacing" textLength="138" x="1959.5" y="82.127">«component»</text><text fill="#000000" font-family="sans-serif" font-size="20" lengthAdjust="spacing" textLength="51" x="2003" y="105.4082">HTTP</text><rect fill="#E2E2F0" height="60.5625" rx="2.5" ry="2.5" style="stroke:#181818;stroke-width:0.5;" width="152" x="1952.5" y="1055.4375"/><text fill="#000000" font-family="sans-serif" font-size="20" font-style="italic" lengthAdjust="spacing" textLength="138" x="1959.5" y="1081.002">«component»</text><text fill="#000000" font-family="sans-serif" font-size="20" lengthAdjust="spacing" textLength="51" x="2003" y="1104.2832">HTTP</text><rect fill="#E2E2F0" height="60.5625" rx="2.5" ry="2.5" style="stroke:#181818;stroke-width:0.5;" width="152" x="2744" y="56.5625"/><text fill="#000000" font-family="sans-serif" font-size="20" font-style="italic" lengthAdjust="spacing" textLength="138" x="2751" y="82.127">«component»</text><text fill="#000000" font-family="sans-serif" font-size="20" lengthAdjust="spacing" textLength="59" x="2790.5" y="105.4082">Route</text><rect fill="#E2E2F0" height="60.5625" rx="2.5" ry="2.5" style="stroke:#181818;stroke-width:0.5;" width="152" x="2744" y="1055.4375"/><text fill="#000000" font-family="sans-serif" font-size="20" font-style="italic" lengthAdjust="spacing" textLength="138" x="2751" y="1081.002">«component»</text><text fill="#000000" font-family="sans-serif" font-size="20" lengthAdjust="spacing" textLength="59" x="2790.5" y="1104.2832">Route</text><rect fill="#FFFFFF" height="918.3125" style="stroke:#181818;stroke-width:1.0;" width="10" x="105.5" y="128.125"/><rect fill="#FFFFFF" height="37.2813" style="stroke:#181818;stroke-width:1.0;" width="10" x="752.5" y="157.4063"/><rect fill="#FFFFFF" height="815.4688" style="stroke:#181818;stroke-width:1.0;" width="10" x="752.5" y="231.9688"/><rect fill="#FFFFFF" height="301.5313" style="stroke:#181818;stroke-width:1.0;" width="10" x="1127.5" y="269.25"/><rect fill="#FFFFFF" height="174.4063" style="stroke:#181818;stroke-width:1.0;" width="10" x="1127.5" y="608.0625"/><rect fill="#FFFFFF" height="174.4063" style="stroke:#181818;stroke-width:1.0;" width="10" x="1127.5" y="819.75"/><rect fill="#FFFFFF" height="226.9688" style="stroke:#181818;stroke-width:1.0;" width="10" x="1716.5" y="306.5313"/><rect fill="#FFFFFF" height="137.125" style="stroke:#181818;stroke-width:1.0;" width="10" x="1716.5" y="608.0625"/><rect fill="#FFFFFF" height="137.125" style="stroke:#181818;stroke-width:1.0;" width="10" x="1716.5" y="819.75"/><rect fill="#FFFFFF" height="152.4063" style="stroke:#181818;stroke-width:1.0;" width="10" x="2023.5" y="343.8125"/><rect fill="#FFFFFF" height="99.8438" style="stroke:#181818;stroke-width:1.0;" width="10" x="2023.5" y="608.0625"/><rect fill="#FFFFFF" height="99.8438" style="stroke:#181818;stroke-width:1.0;" width="10" x="2023.5" y="819.75"/><rect fill="#FFFFFF" height="77.8438" style="stroke:#181818;stroke-width:1.0;" width="10" x="2815" y="381.0938"/><rect fill="#FFFFFF" height="62.5625" style="stroke:#181818;stroke-width:1.0;" width="10" x="2815" y="608.0625"/><rect fill="#FFFFFF" height="62.5625" style="stroke:#181818;stroke-width:1.0;" width="10" x="2815" y="819.75"/><polygon fill="#181818" points="740.5,153.4063,750.5,157.4063,740.5,161.4063,744.5,157.4063" style="stroke:#181818;stroke-width:1.0;"/><line style="stroke:#181818;stroke-width:1.0;" x1="115.5" x2="746.5" y1="157.4063" y2="157.4063"/><text fill="#000000" font-family="sans-serif" font-size="20" font-weight="bold" lengthAdjust="spacing" textLength="14" x="122.5" y="150.6895">1</text><text fill="#000000" font-family="sans-serif" font-size="20" lengthAdjust="spacing" textLength="449" x="140.5" y="150.6895">wants to list connectors between 2 buildings</text><polygon fill="#181818" points="126.5,190.6875,116.5,194.6875,126.5,198.6875,122.5,194.6875" style="stroke:#181818;stroke-width:1.0;"/><line style="stroke:#181818;stroke-width:1.0;stroke-dasharray:2.0,2.0;" x1="120.5" x2="756.5" y1="194.6875" y2="194.6875"/><text fill="#000000" font-family="sans-serif" font-size="20" font-weight="bold" lengthAdjust="spacing" textLength="14" x="132.5" y="187.9707">2</text><text fill="#000000" font-family="sans-serif" font-size="20" lengthAdjust="spacing" textLength="338" x="150.5" y="187.9707">asks for the buildings 1 &amp; 2 codes</text><polygon fill="#181818" points="740.5,227.9688,750.5,231.9688,740.5,235.9688,744.5,231.9688" style="stroke:#181818;stroke-width:1.0;"/><line style="stroke:#181818;stroke-width:1.0;" x1="115.5" x2="746.5" y1="231.9688" y2="231.9688"/><text fill="#000000" font-family="sans-serif" font-size="20" font-weight="bold" lengthAdjust="spacing" textLength="14" x="122.5" y="225.252">3</text><text fill="#000000" font-family="sans-serif" font-size="20" lengthAdjust="spacing" textLength="157" x="140.5" y="225.252">inserts the data</text><polygon fill="#181818" points="1115.5,265.25,1125.5,269.25,1115.5,273.25,1119.5,269.25" style="stroke:#181818;stroke-width:1.0;"/><line style="stroke:#181818;stroke-width:1.0;" x1="762.5" x2="1121.5" y1="269.25" y2="269.25"/><text fill="#000000" font-family="sans-serif" font-size="20" font-weight="bold" lengthAdjust="spacing" textLength="14" x="769.5" y="262.5332">4</text><text fill="#000000" font-family="sans-serif" font-size="20" lengthAdjust="spacing" textLength="328" x="787.5" y="262.5332">getConnectorsBetweenBuildings</text><polygon fill="#181818" points="1704.5,302.5313,1714.5,306.5313,1704.5,310.5313,1708.5,306.5313" style="stroke:#181818;stroke-width:1.0;"/><line style="stroke:#181818;stroke-width:1.0;" x1="1137.5" x2="1710.5" y1="306.5313" y2="306.5313"/><text fill="#000000" font-family="sans-serif" font-size="20" font-weight="bold" lengthAdjust="spacing" textLength="14" x="1144.5" y="299.8145">5</text><text fill="#000000" font-family="sans-serif" font-size="20" lengthAdjust="spacing" textLength="542" x="1162.5" y="299.8145">getConnectorsBetweenBuildings(building1,building2)</text><polygon fill="#181818" points="2011.5,339.8125,2021.5,343.8125,2011.5,347.8125,2015.5,343.8125" style="stroke:#181818;stroke-width:1.0;"/><line style="stroke:#181818;stroke-width:1.0;" x1="1726.5" x2="2017.5" y1="343.8125" y2="343.8125"/><text fill="#000000" font-family="sans-serif" font-size="20" font-weight="bold" lengthAdjust="spacing" textLength="14" x="1733.5" y="337.0957">6</text><text fill="#000000" font-family="sans-serif" font-size="20" lengthAdjust="spacing" textLength="76" x="1751.5" y="337.0957">get(url)</text><polygon fill="#181818" points="2803,377.0938,2813,381.0938,2803,385.0938,2807,381.0938" style="stroke:#181818;stroke-width:1.0;"/><line style="stroke:#181818;stroke-width:1.0;" x1="2033.5" x2="2809" y1="381.0938" y2="381.0938"/><text fill="#000000" font-family="sans-serif" font-size="20" font-weight="bold" lengthAdjust="spacing" textLength="14" x="2040.5" y="374.377">7</text><text fill="#000000" font-family="sans-serif" font-size="20" lengthAdjust="spacing" textLength="718" x="2058.5" y="374.377">GET /connectors?buildingCodes[]={code1}&amp;buildingCodes[]={code2}</text><path d="M10,396.0938 L86,396.0938 L86,411.375 L76,421.375 L10,421.375 L10,396.0938 " fill="#EEEEEE" style="stroke:#000000;stroke-width:1.5;"/><rect fill="none" height="643.3438" style="stroke:#000000;stroke-width:1.5;" width="2896" x="10" y="396.0938"/><text fill="#000000" font-family="sans-serif" font-size="20" font-weight="bold" lengthAdjust="spacing" textLength="31" x="25" y="415.6582">alt</text><text fill="#000000" font-family="sans-serif" font-size="20" font-weight="bold" lengthAdjust="spacing" textLength="544" x="101" y="416.6582">[there are connectors between those buildings]</text><polygon fill="#181818" points="2044.5,454.9375,2034.5,458.9375,2044.5,462.9375,2040.5,458.9375" style="stroke:#181818;stroke-width:1.0;"/><line style="stroke:#181818;stroke-width:1.0;stroke-dasharray:2.0,2.0;" x1="2038.5" x2="2819" y1="458.9375" y2="458.9375"/><text fill="#000000" font-family="sans-serif" font-size="20" font-weight="bold" lengthAdjust="spacing" textLength="14" x="2050.5" y="452.2207">8</text><text fill="#000000" font-family="sans-serif" font-size="20" lengthAdjust="spacing" textLength="74" x="2068.5" y="452.2207">200 OK</text><polygon fill="#181818" points="1737.5,492.2188,1727.5,496.2188,1737.5,500.2188,1733.5,496.2188" style="stroke:#181818;stroke-width:1.0;"/><line style="stroke:#181818;stroke-width:1.0;stroke-dasharray:2.0,2.0;" x1="1731.5" x2="2027.5" y1="496.2188" y2="496.2188"/><text fill="#000000" font-family="sans-serif" font-size="20" font-weight="bold" lengthAdjust="spacing" textLength="14" x="1743.5" y="489.502">9</text><text fill="#000000" font-family="sans-serif" font-size="20" lengthAdjust="spacing" textLength="171" x="1761.5" y="489.502">list of connectors</text><polygon fill="#181818" points="1148.5,529.5,1138.5,533.5,1148.5,537.5,1144.5,533.5" style="stroke:#181818;stroke-width:1.0;"/><line style="stroke:#181818;stroke-width:1.0;stroke-dasharray:2.0,2.0;" x1="1142.5" x2="1720.5" y1="533.5" y2="533.5"/><text fill="#000000" font-family="sans-serif" font-size="20" font-weight="bold" lengthAdjust="spacing" textLength="28" x="1154.5" y="526.7832">10</text><text fill="#000000" font-family="sans-serif" font-size="20" lengthAdjust="spacing" textLength="171" x="1186.5" y="526.7832">list of connectors</text><polygon fill="#181818" points="773.5,566.7813,763.5,570.7813,773.5,574.7813,769.5,570.7813" style="stroke:#181818;stroke-width:1.0;"/><line style="stroke:#181818;stroke-width:1.0;stroke-dasharray:2.0,2.0;" x1="767.5" x2="1131.5" y1="570.7813" y2="570.7813"/><text fill="#000000" font-family="sans-serif" font-size="20" font-weight="bold" lengthAdjust="spacing" textLength="28" x="779.5" y="564.0645">11</text><text fill="#000000" font-family="sans-serif" font-size="20" lengthAdjust="spacing" textLength="171" x="811.5" y="564.0645">list of connectors</text><polygon fill="#181818" points="126.5,604.0625,116.5,608.0625,126.5,612.0625,122.5,608.0625" style="stroke:#181818;stroke-width:1.0;"/><line style="stroke:#181818;stroke-width:1.0;stroke-dasharray:2.0,2.0;" x1="120.5" x2="751.5" y1="608.0625" y2="608.0625"/><text fill="#000000" font-family="sans-serif" font-size="20" font-weight="bold" lengthAdjust="spacing" textLength="28" x="132.5" y="601.3457">12</text><text fill="#000000" font-family="sans-serif" font-size="20" lengthAdjust="spacing" textLength="137" x="164.5" y="601.3457">shows the list</text><line style="stroke:#000000;stroke-width:1.0;stroke-dasharray:2.0,2.0;" x1="10" x2="2906" y1="617.0625" y2="617.0625"/><text fill="#000000" font-family="sans-serif" font-size="20" font-weight="bold" lengthAdjust="spacing" textLength="360" x="15" y="635.627">[a building code does not exist]</text><polygon fill="#181818" points="2044.5,666.625,2034.5,670.625,2044.5,674.625,2040.5,670.625" style="stroke:#181818;stroke-width:1.0;"/><line style="stroke:#181818;stroke-width:1.0;stroke-dasharray:2.0,2.0;" x1="2038.5" x2="2819" y1="670.625" y2="670.625"/><text fill="#000000" font-family="sans-serif" font-size="20" font-weight="bold" lengthAdjust="spacing" textLength="28" x="2050.5" y="663.9082">13</text><text fill="#000000" font-family="sans-serif" font-size="20" lengthAdjust="spacing" textLength="172" x="2082.5" y="663.9082">400 Bad Request</text><polygon fill="#181818" points="1737.5,703.9063,1727.5,707.9063,1737.5,711.9063,1733.5,707.9063" style="stroke:#181818;stroke-width:1.0;"/><line style="stroke:#181818;stroke-width:1.0;stroke-dasharray:2.0,2.0;" x1="1731.5" x2="2027.5" y1="707.9063" y2="707.9063"/><text fill="#000000" font-family="sans-serif" font-size="20" font-weight="bold" lengthAdjust="spacing" textLength="28" x="1743.5" y="701.1895">14</text><text fill="#000000" font-family="sans-serif" font-size="20" lengthAdjust="spacing" textLength="48" x="1775.5" y="701.1895">error</text><polygon fill="#181818" points="1148.5,741.1875,1138.5,745.1875,1148.5,749.1875,1144.5,745.1875" style="stroke:#181818;stroke-width:1.0;"/><line style="stroke:#181818;stroke-width:1.0;stroke-dasharray:2.0,2.0;" x1="1142.5" x2="1720.5" y1="745.1875" y2="745.1875"/><text fill="#000000" font-family="sans-serif" font-size="20" font-weight="bold" lengthAdjust="spacing" textLength="28" x="1154.5" y="738.4707">15</text><text fill="#000000" font-family="sans-serif" font-size="20" lengthAdjust="spacing" textLength="48" x="1186.5" y="738.4707">error</text><polygon fill="#181818" points="773.5,778.4688,763.5,782.4688,773.5,786.4688,769.5,782.4688" style="stroke:#181818;stroke-width:1.0;"/><line style="stroke:#181818;stroke-width:1.0;stroke-dasharray:2.0,2.0;" x1="767.5" x2="1131.5" y1="782.4688" y2="782.4688"/><text fill="#000000" font-family="sans-serif" font-size="20" font-weight="bold" lengthAdjust="spacing" textLength="28" x="779.5" y="775.752">16</text><text fill="#000000" font-family="sans-serif" font-size="20" lengthAdjust="spacing" textLength="48" x="811.5" y="775.752">error</text><polygon fill="#181818" points="126.5,815.75,116.5,819.75,126.5,823.75,122.5,819.75" style="stroke:#181818;stroke-width:1.0;"/><line style="stroke:#181818;stroke-width:1.0;stroke-dasharray:2.0,2.0;" x1="120.5" x2="751.5" y1="819.75" y2="819.75"/><text fill="#000000" font-family="sans-serif" font-size="20" font-weight="bold" lengthAdjust="spacing" textLength="28" x="132.5" y="813.0332">17</text><text fill="#000000" font-family="sans-serif" font-size="20" lengthAdjust="spacing" textLength="581" x="164.5" y="813.0332">shows error message "One/both buildings does not exist."</text><line style="stroke:#000000;stroke-width:1.0;stroke-dasharray:2.0,2.0;" x1="10" x2="2906" y1="828.75" y2="828.75"/><text fill="#000000" font-family="sans-serif" font-size="20" font-weight="bold" lengthAdjust="spacing" textLength="589" x="15" y="847.3145">[there are not connectors between those buildings]</text><polygon fill="#181818" points="2044.5,878.3125,2034.5,882.3125,2044.5,886.3125,2040.5,882.3125" style="stroke:#181818;stroke-width:1.0;"/><line style="stroke:#181818;stroke-width:1.0;stroke-dasharray:2.0,2.0;" x1="2038.5" x2="2819" y1="882.3125" y2="882.3125"/><text fill="#000000" font-family="sans-serif" font-size="20" font-weight="bold" lengthAdjust="spacing" textLength="28" x="2050.5" y="875.5957">18</text><text fill="#000000" font-family="sans-serif" font-size="20" lengthAdjust="spacing" textLength="74" x="2082.5" y="875.5957">200 OK</text><polygon fill="#181818" points="1737.5,915.5938,1727.5,919.5938,1737.5,923.5938,1733.5,919.5938" style="stroke:#181818;stroke-width:1.0;"/><line style="stroke:#181818;stroke-width:1.0;stroke-dasharray:2.0,2.0;" x1="1731.5" x2="2027.5" y1="919.5938" y2="919.5938"/><text fill="#000000" font-family="sans-serif" font-size="20" font-weight="bold" lengthAdjust="spacing" textLength="28" x="1743.5" y="912.877">19</text><text fill="#000000" font-family="sans-serif" font-size="20" lengthAdjust="spacing" textLength="241" x="1775.5" y="912.877">empty list of connectors</text><polygon fill="#181818" points="1148.5,952.875,1138.5,956.875,1148.5,960.875,1144.5,956.875" style="stroke:#181818;stroke-width:1.0;"/><line style="stroke:#181818;stroke-width:1.0;stroke-dasharray:2.0,2.0;" x1="1142.5" x2="1720.5" y1="956.875" y2="956.875"/><text fill="#000000" font-family="sans-serif" font-size="20" font-weight="bold" lengthAdjust="spacing" textLength="28" x="1154.5" y="950.1582">20</text><text fill="#000000" font-family="sans-serif" font-size="20" lengthAdjust="spacing" textLength="241" x="1186.5" y="950.1582">empty list of connectors</text><polygon fill="#181818" points="773.5,990.1563,763.5,994.1563,773.5,998.1563,769.5,994.1563" style="stroke:#181818;stroke-width:1.0;"/><line style="stroke:#181818;stroke-width:1.0;stroke-dasharray:2.0,2.0;" x1="767.5" x2="1131.5" y1="994.1563" y2="994.1563"/><text fill="#000000" font-family="sans-serif" font-size="20" font-weight="bold" lengthAdjust="spacing" textLength="28" x="779.5" y="987.4395">21</text><text fill="#000000" font-family="sans-serif" font-size="20" lengthAdjust="spacing" textLength="241" x="811.5" y="987.4395">empty list of connectors</text><polygon fill="#181818" points="126.5,1027.4375,116.5,1031.4375,126.5,1035.4375,122.5,1031.4375" style="stroke:#181818;stroke-width:1.0;"/><line style="stroke:#181818;stroke-width:1.0;stroke-dasharray:2.0,2.0;" x1="120.5" x2="751.5" y1="1031.4375" y2="1031.4375"/><text fill="#000000" font-family="sans-serif" font-size="20" font-weight="bold" lengthAdjust="spacing" textLength="28" x="132.5" y="1024.7207">22</text><text fill="#000000" font-family="sans-serif" font-size="20" lengthAdjust="spacing" textLength="447" x="164.5" y="1024.7207">shows message "Could not find connectors."</text><!--SRC=[hPJFRjD04CRl-nIZ85MjH6WRzLIL8EeMZC0AIjDA23Xix4cowdetxAwRjAXFn2DmwvCnkqvYvmzDa3WayjhVV3Fpcx7jhL1ZRdWkTNgB6MGuu8LqxxHoL-81eNN4UE6qAl8-6cRdQhWeTJsSkhTI35MEofsTfVIFfjs6ye8ndZfj84g0MsX4F1yN5XAk-11DWx6-daBZwLTAoRXGQ60_EZbu-lrDtGXRS2aUk1DQDQ0oPW2KtubKZBbo40NVwmyGwNoi5Oc2U7vOqvTr93eh93wllBeflQ_Gt8bqYpWEqhZN-xogGvK1TVbCgv1Sp8XuX51lziKdCHovBoYbdgnax7QkUvSXQrSN3l-QblYBE-wGHi0OZQ7P9cQdC24F2qw35DO15QNG3yf27zq4KK4B-eMGcL13M_C85cVDPl3WzjR2WARhHbYfuHZsA3hL6LgMuKhiBBrG5eqlW28pxlXo2gzAI3L45oqgEoyBEr-lYXeBndvYMuBsvsKUlvnVjGug9t9WpDkGMrnwxHT6rXGnOx5_Mk8_XVUNFJYiyBsPkqQ-_Q_VN__q78uVzpRURprMni6GnYMTXs8GEFqspCMDjAtHfgs8mq3c1RMEZg3paMxNqC-y8H3oOjzR6BmUr78i1yK-e1ns2NPRG807K6P8TWX8WhpQ9plIat8bV2H3IOtoHQjXeo3JQ45f1pZr6e1QlRL3KZ_umch71OrbS2S4xfndqCKV1GRhRGJH66ssGDkWMUEqGRCPJH12ZjRInm8Q7OM7VUr6jNTl6S-hHWcnMYZ_QAUb-czOTzv7pCVk_j-tShUmTUOxXMqUms80aIva5fWE17rlAnSFNcLiwVENi3y0]--></g></svg>