<?xml version="1.0" encoding="UTF-8" standalone="no"?><svg xmlns="http://www.w3.org/2000/svg" xmlns:xlink="http://www.w3.org/1999/xlink" contentStyleType="text/css" height="971px" preserveAspectRatio="none" style="width:1800px;height:971px;background:#FFFFFF;" version="1.1" viewBox="0 0 1800 971" width="1800px" zoomAndPan="magnify"><defs/><g><rect fill="#DDDDDD" height="959.8179" style="stroke:#181818;stroke-width:0.5;" width="903.5" x="422.5" y="6"/><text fill="#000000" font-family="sans-serif" font-size="13" font-weight="bold" lengthAdjust="spacing" textLength="107" x="820.75" y="19.897">«container (C4)»</text><text fill="#000000" font-family="sans-serif" font-size="13" font-weight="bold" lengthAdjust="spacing" textLength="84" x="832.25" y="37.603">Visualization</text><rect fill="#FFFFE0" height="959.8179" style="stroke:#181818;stroke-width:0.5;" width="126" x="1668" y="6"/><text fill="#000000" font-family="sans-serif" font-size="13" font-weight="bold" lengthAdjust="spacing" textLength="107" x="1677.5" y="19.897">«container (C4)»</text><text fill="#000000" font-family="sans-serif" font-size="13" font-weight="bold" lengthAdjust="spacing" textLength="114" x="1674" y="37.603">MD Management</text><rect fill="#FFFFFF" height="765.2022" style="stroke:#181818;stroke-width:1.0;" width="10" x="78" y="108.5479"/><rect fill="#FFFFFF" height="31.706" style="stroke:#181818;stroke-width:1.0;" width="10" x="477" y="132.2539"/><rect fill="#FFFFFF" height="679.0841" style="stroke:#181818;stroke-width:1.0;" width="10" x="477" y="195.6659"/><rect fill="#FFFFFF" height="248.6481" style="stroke:#181818;stroke-width:1.0;" width="10" x="713" y="227.3719"/><rect fill="#FFFFFF" height="143.806" style="stroke:#181818;stroke-width:1.0;" width="10" x="713" y="507.7261"/><rect fill="#FFFFFF" height="143.806" style="stroke:#181818;stroke-width:1.0;" width="10" x="713" y="683.2381"/><rect fill="#FFFFFF" height="185.2361" style="stroke:#181818;stroke-width:1.0;" width="10" x="1072" y="259.0779"/><rect fill="#FFFFFF" height="112.0999" style="stroke:#181818;stroke-width:1.0;" width="10" x="1072" y="507.7261"/><rect fill="#FFFFFF" height="112.0999" style="stroke:#181818;stroke-width:1.0;" width="10" x="1072" y="683.2381"/><rect fill="#FFFFFF" height="121.8241" style="stroke:#181818;stroke-width:1.0;" width="10" x="1268" y="290.784"/><rect fill="#FFFFFF" height="80.3939" style="stroke:#181818;stroke-width:1.0;" width="10" x="1268" y="507.7261"/><rect fill="#FFFFFF" height="80.3939" style="stroke:#181818;stroke-width:1.0;" width="10" x="1268" y="683.2381"/><rect fill="#FFFFFF" height="58.412" style="stroke:#181818;stroke-width:1.0;" width="10" x="1726" y="322.49"/><rect fill="#FFFFFF" height="48.6879" style="stroke:#181818;stroke-width:1.0;" width="10" x="1726" y="507.7261"/><rect fill="#FFFFFF" height="48.6879" style="stroke:#181818;stroke-width:1.0;" width="10" x="1726" y="683.2381"/><rect fill="none" height="529.26" style="stroke:#000000;stroke-width:1.5;" width="1780" x="10" y="337.49"/><line style="stroke:#181818;stroke-width:0.5;stroke-dasharray:5.0,5.0;" x1="83" x2="83" y1="98.5479" y2="883.75"/><line style="stroke:#181818;stroke-width:0.5;stroke-dasharray:5.0,5.0;" x1="481.5" x2="481.5" y1="98.5479" y2="883.75"/><line style="stroke:#181818;stroke-width:0.5;stroke-dasharray:5.0,5.0;" x1="718" x2="718" y1="98.5479" y2="883.75"/><line style="stroke:#181818;stroke-width:0.5;stroke-dasharray:5.0,5.0;" x1="1077" x2="1077" y1="98.5479" y2="883.75"/><line style="stroke:#181818;stroke-width:0.5;stroke-dasharray:5.0,5.0;" x1="1273" x2="1273" y1="98.5479" y2="883.75"/><line style="stroke:#181818;stroke-width:0.5;stroke-dasharray:5.0,5.0;" x1="1731" x2="1731" y1="98.5479" y2="883.75"/><text fill="#000000" font-family="sans-serif" font-size="14" lengthAdjust="spacing" textLength="120" x="20" y="94.4459">Campus Manager</text><ellipse cx="83" cy="27.9799" fill="#E2E2F0" rx="8" ry="8" style="stroke:#181818;stroke-width:0.5;"/><path d="M83,35.9799 L83,62.9799 M70,43.9799 L96,43.9799 M83,62.9799 L70,77.9799 M83,62.9799 L96,77.9799 " fill="none" style="stroke:#181818;stroke-width:0.5;"/><text fill="#000000" font-family="sans-serif" font-size="14" lengthAdjust="spacing" textLength="120" x="20" y="897.716">Campus Manager</text><ellipse cx="83" cy="910.3179" fill="#E2E2F0" rx="8" ry="8" style="stroke:#181818;stroke-width:0.5;"/><path d="M83,918.3179 L83,945.3179 M70,926.3179 L96,926.3179 M83,945.3179 L70,960.3179 M83,945.3179 L96,960.3179 " fill="none" style="stroke:#181818;stroke-width:0.5;"/><rect fill="#E2E2F0" height="52.1358" rx="2.5" ry="2.5" style="stroke:#181818;stroke-width:0.5;" width="111" x="426.5" y="45.412"/><text fill="#000000" font-family="sans-serif" font-size="14" font-style="italic" lengthAdjust="spacing" textLength="84" x="440" y="67.378">«component»</text><text fill="#000000" font-family="sans-serif" font-size="14" lengthAdjust="spacing" textLength="97" x="433.5" y="86.4459">UI Component</text><rect fill="#E2E2F0" height="52.1358" rx="2.5" ry="2.5" style="stroke:#181818;stroke-width:0.5;" width="111" x="426.5" y="882.75"/><text fill="#000000" font-family="sans-serif" font-size="14" font-style="italic" lengthAdjust="spacing" textLength="84" x="440" y="904.716">«component»</text><text fill="#000000" font-family="sans-serif" font-size="14" lengthAdjust="spacing" textLength="97" x="433.5" y="923.7839">UI Component</text><rect fill="#E2E2F0" height="52.1358" rx="2.5" ry="2.5" style="stroke:#181818;stroke-width:0.5;" width="98" x="669" y="45.412"/><text fill="#000000" font-family="sans-serif" font-size="14" font-style="italic" lengthAdjust="spacing" textLength="84" x="676" y="67.378">«component»</text><text fill="#000000" font-family="sans-serif" font-size="14" lengthAdjust="spacing" textLength="51" x="692.5" y="86.4459">Module</text><rect fill="#E2E2F0" height="52.1358" rx="2.5" ry="2.5" style="stroke:#181818;stroke-width:0.5;" width="98" x="669" y="882.75"/><text fill="#000000" font-family="sans-serif" font-size="14" font-style="italic" lengthAdjust="spacing" textLength="84" x="676" y="904.716">«component»</text><text fill="#000000" font-family="sans-serif" font-size="14" lengthAdjust="spacing" textLength="51" x="692.5" y="923.7839">Module</text><rect fill="#E2E2F0" height="52.1358" rx="2.5" ry="2.5" style="stroke:#181818;stroke-width:0.5;" width="98" x="1028" y="45.412"/><text fill="#000000" font-family="sans-serif" font-size="14" font-style="italic" lengthAdjust="spacing" textLength="84" x="1035" y="67.378">«component»</text><text fill="#000000" font-family="sans-serif" font-size="14" lengthAdjust="spacing" textLength="48" x="1053" y="86.4459">Service</text><rect fill="#E2E2F0" height="52.1358" rx="2.5" ry="2.5" style="stroke:#181818;stroke-width:0.5;" width="98" x="1028" y="882.75"/><text fill="#000000" font-family="sans-serif" font-size="14" font-style="italic" lengthAdjust="spacing" textLength="84" x="1035" y="904.716">«component»</text><text fill="#000000" font-family="sans-serif" font-size="14" lengthAdjust="spacing" textLength="48" x="1053" y="923.7839">Service</text><rect fill="#E2E2F0" height="52.1358" rx="2.5" ry="2.5" style="stroke:#181818;stroke-width:0.5;" width="98" x="1224" y="45.412"/><text fill="#000000" font-family="sans-serif" font-size="14" font-style="italic" lengthAdjust="spacing" textLength="84" x="1231" y="67.378">«component»</text><text fill="#000000" font-family="sans-serif" font-size="14" lengthAdjust="spacing" textLength="34" x="1256" y="86.4459">HTTP</text><rect fill="#E2E2F0" height="52.1358" rx="2.5" ry="2.5" style="stroke:#181818;stroke-width:0.5;" width="98" x="1224" y="882.75"/><text fill="#000000" font-family="sans-serif" font-size="14" font-style="italic" lengthAdjust="spacing" textLength="84" x="1231" y="904.716">«component»</text><text fill="#000000" font-family="sans-serif" font-size="14" lengthAdjust="spacing" textLength="34" x="1256" y="923.7839">HTTP</text><rect fill="#E2E2F0" height="52.1358" rx="2.5" ry="2.5" style="stroke:#181818;stroke-width:0.5;" width="98" x="1682" y="45.412"/><text fill="#000000" font-family="sans-serif" font-size="14" font-style="italic" lengthAdjust="spacing" textLength="84" x="1689" y="67.378">«component»</text><text fill="#000000" font-family="sans-serif" font-size="14" lengthAdjust="spacing" textLength="39" x="1711.5" y="86.4459">Route</text><rect fill="#E2E2F0" height="52.1358" rx="2.5" ry="2.5" style="stroke:#181818;stroke-width:0.5;" width="98" x="1682" y="882.75"/><text fill="#000000" font-family="sans-serif" font-size="14" font-style="italic" lengthAdjust="spacing" textLength="84" x="1689" y="904.716">«component»</text><text fill="#000000" font-family="sans-serif" font-size="14" lengthAdjust="spacing" textLength="39" x="1711.5" y="923.7839">Route</text><rect fill="#FFFFFF" height="765.2022" style="stroke:#181818;stroke-width:1.0;" width="10" x="78" y="108.5479"/><rect fill="#FFFFFF" height="31.706" style="stroke:#181818;stroke-width:1.0;" width="10" x="477" y="132.2539"/><rect fill="#FFFFFF" height="679.0841" style="stroke:#181818;stroke-width:1.0;" width="10" x="477" y="195.6659"/><rect fill="#FFFFFF" height="248.6481" style="stroke:#181818;stroke-width:1.0;" width="10" x="713" y="227.3719"/><rect fill="#FFFFFF" height="143.806" style="stroke:#181818;stroke-width:1.0;" width="10" x="713" y="507.7261"/><rect fill="#FFFFFF" height="143.806" style="stroke:#181818;stroke-width:1.0;" width="10" x="713" y="683.2381"/><rect fill="#FFFFFF" height="185.2361" style="stroke:#181818;stroke-width:1.0;" width="10" x="1072" y="259.0779"/><rect fill="#FFFFFF" height="112.0999" style="stroke:#181818;stroke-width:1.0;" width="10" x="1072" y="507.7261"/><rect fill="#FFFFFF" height="112.0999" style="stroke:#181818;stroke-width:1.0;" width="10" x="1072" y="683.2381"/><rect fill="#FFFFFF" height="121.8241" style="stroke:#181818;stroke-width:1.0;" width="10" x="1268" y="290.784"/><rect fill="#FFFFFF" height="80.3939" style="stroke:#181818;stroke-width:1.0;" width="10" x="1268" y="507.7261"/><rect fill="#FFFFFF" height="80.3939" style="stroke:#181818;stroke-width:1.0;" width="10" x="1268" y="683.2381"/><rect fill="#FFFFFF" height="58.412" style="stroke:#181818;stroke-width:1.0;" width="10" x="1726" y="322.49"/><rect fill="#FFFFFF" height="48.6879" style="stroke:#181818;stroke-width:1.0;" width="10" x="1726" y="507.7261"/><rect fill="#FFFFFF" height="48.6879" style="stroke:#181818;stroke-width:1.0;" width="10" x="1726" y="683.2381"/><polygon fill="#181818" points="465,128.2539,475,132.2539,465,136.2539,469,132.2539" style="stroke:#181818;stroke-width:1.0;"/><line style="stroke:#181818;stroke-width:1.0;" x1="88" x2="471" y1="132.2539" y2="132.2539"/><text fill="#000000" font-family="sans-serif" font-size="13" font-weight="bold" lengthAdjust="spacing" textLength="7" x="95" y="126.4449">1</text><text fill="#000000" font-family="sans-serif" font-size="13" lengthAdjust="spacing" textLength="265" x="106" y="126.4449">wants to list connectors between 2 buildings</text><polygon fill="#181818" points="99,159.9599,89,163.9599,99,167.9599,95,163.9599" style="stroke:#181818;stroke-width:1.0;"/><line style="stroke:#181818;stroke-width:1.0;stroke-dasharray:2.0,2.0;" x1="93" x2="481" y1="163.9599" y2="163.9599"/><text fill="#000000" font-family="sans-serif" font-size="13" font-weight="bold" lengthAdjust="spacing" textLength="7" x="105" y="158.1509">2</text><text fill="#000000" font-family="sans-serif" font-size="13" lengthAdjust="spacing" textLength="198" x="116" y="158.1509">asks for the buildings 1 &amp; 2 codes</text><polygon fill="#181818" points="465,191.6659,475,195.6659,465,199.6659,469,195.6659" style="stroke:#181818;stroke-width:1.0;"/><line style="stroke:#181818;stroke-width:1.0;" x1="88" x2="471" y1="195.6659" y2="195.6659"/><text fill="#000000" font-family="sans-serif" font-size="13" font-weight="bold" lengthAdjust="spacing" textLength="7" x="95" y="189.8569">3</text><text fill="#000000" font-family="sans-serif" font-size="13" lengthAdjust="spacing" textLength="93" x="106" y="189.8569">inserts the data</text><polygon fill="#181818" points="701,223.3719,711,227.3719,701,231.3719,705,227.3719" style="stroke:#181818;stroke-width:1.0;"/><line style="stroke:#181818;stroke-width:1.0;" x1="487" x2="707" y1="227.3719" y2="227.3719"/><text fill="#000000" font-family="sans-serif" font-size="13" font-weight="bold" lengthAdjust="spacing" textLength="7" x="494" y="221.5629">4</text><text fill="#000000" font-family="sans-serif" font-size="13" lengthAdjust="spacing" textLength="196" x="505" y="221.5629">getConnectorsBetweenBuildings</text><polygon fill="#181818" points="1060,255.0779,1070,259.0779,1060,263.0779,1064,259.0779" style="stroke:#181818;stroke-width:1.0;"/><line style="stroke:#181818;stroke-width:1.0;" x1="723" x2="1066" y1="259.0779" y2="259.0779"/><text fill="#000000" font-family="sans-serif" font-size="13" font-weight="bold" lengthAdjust="spacing" textLength="7" x="730" y="253.2689">5</text><text fill="#000000" font-family="sans-serif" font-size="13" lengthAdjust="spacing" textLength="319" x="741" y="253.2689">getConnectorsBetweenBuildings(building1,building2)</text><polygon fill="#181818" points="1256,286.784,1266,290.784,1256,294.784,1260,290.784" style="stroke:#181818;stroke-width:1.0;"/><line style="stroke:#181818;stroke-width:1.0;" x1="1082" x2="1262" y1="290.784" y2="290.784"/><text fill="#000000" font-family="sans-serif" font-size="13" font-weight="bold" lengthAdjust="spacing" textLength="7" x="1089" y="284.975">6</text><text fill="#000000" font-family="sans-serif" font-size="13" lengthAdjust="spacing" textLength="44" x="1100" y="284.975">get(url)</text><polygon fill="#181818" points="1714,318.49,1724,322.49,1714,326.49,1718,322.49" style="stroke:#181818;stroke-width:1.0;"/><line style="stroke:#181818;stroke-width:1.0;" x1="1278" x2="1720" y1="322.49" y2="322.49"/><text fill="#000000" font-family="sans-serif" font-size="13" font-weight="bold" lengthAdjust="spacing" textLength="7" x="1285" y="316.681">7</text><text fill="#000000" font-family="sans-serif" font-size="13" lengthAdjust="spacing" textLength="408" x="1296" y="316.681">GET /connectors?buildingCodes[]={code1}&amp;buildingCodes[]={code2}</text><path d="M10,337.49 L73,337.49 L73,347.196 L63,357.196 L10,357.196 L10,337.49 " fill="#EEEEEE" style="stroke:#000000;stroke-width:1.5;"/><rect fill="none" height="529.26" style="stroke:#000000;stroke-width:1.5;" width="1780" x="10" y="337.49"/><text fill="#000000" font-family="sans-serif" font-size="13" font-weight="bold" lengthAdjust="spacing" textLength="18" x="25" y="352.387">alt</text><text fill="#000000" font-family="sans-serif" font-size="11" font-weight="bold" lengthAdjust="spacing" textLength="264" x="88" y="351.2489">[there are connectors between those buildings]</text><polygon fill="#181818" points="1289,376.902,1279,380.902,1289,384.902,1285,380.902" style="stroke:#181818;stroke-width:1.0;"/><line style="stroke:#181818;stroke-width:1.0;stroke-dasharray:2.0,2.0;" x1="1283" x2="1730" y1="380.902" y2="380.902"/><text fill="#000000" font-family="sans-serif" font-size="13" font-weight="bold" lengthAdjust="spacing" textLength="7" x="1295" y="375.093">8</text><text fill="#000000" font-family="sans-serif" font-size="13" lengthAdjust="spacing" textLength="42" x="1306" y="375.093">200 OK</text><polygon fill="#181818" points="1093,408.608,1083,412.608,1093,416.608,1089,412.608" style="stroke:#181818;stroke-width:1.0;"/><line style="stroke:#181818;stroke-width:1.0;stroke-dasharray:2.0,2.0;" x1="1087" x2="1272" y1="412.608" y2="412.608"/><text fill="#000000" font-family="sans-serif" font-size="13" font-weight="bold" lengthAdjust="spacing" textLength="7" x="1099" y="406.799">9</text><text fill="#000000" font-family="sans-serif" font-size="13" lengthAdjust="spacing" textLength="102" x="1110" y="406.799">list of connectors</text><polygon fill="#181818" points="734,440.314,724,444.314,734,448.314,730,444.314" style="stroke:#181818;stroke-width:1.0;"/><line style="stroke:#181818;stroke-width:1.0;stroke-dasharray:2.0,2.0;" x1="728" x2="1076" y1="444.314" y2="444.314"/><text fill="#000000" font-family="sans-serif" font-size="13" font-weight="bold" lengthAdjust="spacing" textLength="14" x="740" y="438.505">10</text><text fill="#000000" font-family="sans-serif" font-size="13" lengthAdjust="spacing" textLength="102" x="758" y="438.505">list of connectors</text><polygon fill="#181818" points="498,472.0201,488,476.0201,498,480.0201,494,476.0201" style="stroke:#181818;stroke-width:1.0;"/><line style="stroke:#181818;stroke-width:1.0;stroke-dasharray:2.0,2.0;" x1="492" x2="717" y1="476.0201" y2="476.0201"/><text fill="#000000" font-family="sans-serif" font-size="13" font-weight="bold" lengthAdjust="spacing" textLength="14" x="504" y="470.2111">11</text><text fill="#000000" font-family="sans-serif" font-size="13" lengthAdjust="spacing" textLength="102" x="522" y="470.2111">list of connectors</text><polygon fill="#181818" points="99,503.7261,89,507.7261,99,511.7261,95,507.7261" style="stroke:#181818;stroke-width:1.0;"/><line style="stroke:#181818;stroke-width:1.0;stroke-dasharray:2.0,2.0;" x1="93" x2="476" y1="507.7261" y2="507.7261"/><text fill="#000000" font-family="sans-serif" font-size="13" font-weight="bold" lengthAdjust="spacing" textLength="14" x="105" y="501.9171">12</text><text fill="#000000" font-family="sans-serif" font-size="13" lengthAdjust="spacing" textLength="81" x="123" y="501.9171">shows the list</text><line style="stroke:#000000;stroke-width:1.0;stroke-dasharray:2.0,2.0;" x1="10" x2="1790" y1="516.7261" y2="516.7261"/><text fill="#000000" font-family="sans-serif" font-size="11" font-weight="bold" lengthAdjust="spacing" textLength="172" x="15" y="528.485">[a building code does not exist]</text><polygon fill="#181818" points="1289,552.414,1279,556.414,1289,560.414,1285,556.414" style="stroke:#181818;stroke-width:1.0;"/><line style="stroke:#181818;stroke-width:1.0;stroke-dasharray:2.0,2.0;" x1="1283" x2="1730" y1="556.414" y2="556.414"/><text fill="#000000" font-family="sans-serif" font-size="13" font-weight="bold" lengthAdjust="spacing" textLength="14" x="1295" y="550.605">13</text><text fill="#000000" font-family="sans-serif" font-size="13" lengthAdjust="spacing" textLength="99" x="1313" y="550.605">400 Bad Request</text><polygon fill="#181818" points="1093,584.12,1083,588.12,1093,592.12,1089,588.12" style="stroke:#181818;stroke-width:1.0;"/><line style="stroke:#181818;stroke-width:1.0;stroke-dasharray:2.0,2.0;" x1="1087" x2="1272" y1="588.12" y2="588.12"/><text fill="#000000" font-family="sans-serif" font-size="13" font-weight="bold" lengthAdjust="spacing" textLength="14" x="1099" y="582.311">14</text><text fill="#000000" font-family="sans-serif" font-size="13" lengthAdjust="spacing" textLength="30" x="1117" y="582.311">error</text><polygon fill="#181818" points="734,615.826,724,619.826,734,623.826,730,619.826" style="stroke:#181818;stroke-width:1.0;"/><line style="stroke:#181818;stroke-width:1.0;stroke-dasharray:2.0,2.0;" x1="728" x2="1076" y1="619.826" y2="619.826"/><text fill="#000000" font-family="sans-serif" font-size="13" font-weight="bold" lengthAdjust="spacing" textLength="14" x="740" y="614.017">15</text><text fill="#000000" font-family="sans-serif" font-size="13" lengthAdjust="spacing" textLength="30" x="758" y="614.017">error</text><polygon fill="#181818" points="498,647.532,488,651.532,498,655.532,494,651.532" style="stroke:#181818;stroke-width:1.0;"/><line style="stroke:#181818;stroke-width:1.0;stroke-dasharray:2.0,2.0;" x1="492" x2="717" y1="651.532" y2="651.532"/><text fill="#000000" font-family="sans-serif" font-size="13" font-weight="bold" lengthAdjust="spacing" textLength="14" x="504" y="645.723">16</text><text fill="#000000" font-family="sans-serif" font-size="13" lengthAdjust="spacing" textLength="30" x="522" y="645.723">error</text><polygon fill="#181818" points="99,679.2381,89,683.2381,99,687.2381,95,683.2381" style="stroke:#181818;stroke-width:1.0;"/><line style="stroke:#181818;stroke-width:1.0;stroke-dasharray:2.0,2.0;" x1="93" x2="476" y1="683.2381" y2="683.2381"/><text fill="#000000" font-family="sans-serif" font-size="13" font-weight="bold" lengthAdjust="spacing" textLength="14" x="105" y="677.429">17</text><text fill="#000000" font-family="sans-serif" font-size="13" lengthAdjust="spacing" textLength="347" x="123" y="677.429">shows error message "One/both buildings does not exist."</text><line style="stroke:#000000;stroke-width:1.0;stroke-dasharray:2.0,2.0;" x1="10" x2="1790" y1="692.2381" y2="692.2381"/><text fill="#000000" font-family="sans-serif" font-size="11" font-weight="bold" lengthAdjust="spacing" textLength="286" x="15" y="703.997">[there are not connectors between those buildings]</text><polygon fill="#181818" points="1289,727.926,1279,731.926,1289,735.926,1285,731.926" style="stroke:#181818;stroke-width:1.0;"/><line style="stroke:#181818;stroke-width:1.0;stroke-dasharray:2.0,2.0;" x1="1283" x2="1730" y1="731.926" y2="731.926"/><text fill="#000000" font-family="sans-serif" font-size="13" font-weight="bold" lengthAdjust="spacing" textLength="14" x="1295" y="726.117">18</text><text fill="#000000" font-family="sans-serif" font-size="13" lengthAdjust="spacing" textLength="42" x="1313" y="726.117">200 OK</text><polygon fill="#181818" points="1093,759.632,1083,763.632,1093,767.632,1089,763.632" style="stroke:#181818;stroke-width:1.0;"/><line style="stroke:#181818;stroke-width:1.0;stroke-dasharray:2.0,2.0;" x1="1087" x2="1272" y1="763.632" y2="763.632"/><text fill="#000000" font-family="sans-serif" font-size="13" font-weight="bold" lengthAdjust="spacing" textLength="14" x="1099" y="757.823">19</text><text fill="#000000" font-family="sans-serif" font-size="13" lengthAdjust="spacing" textLength="144" x="1117" y="757.823">empty list of connectors</text><polygon fill="#181818" points="734,791.338,724,795.338,734,799.338,730,795.338" style="stroke:#181818;stroke-width:1.0;"/><line style="stroke:#181818;stroke-width:1.0;stroke-dasharray:2.0,2.0;" x1="728" x2="1076" y1="795.338" y2="795.338"/><text fill="#000000" font-family="sans-serif" font-size="13" font-weight="bold" lengthAdjust="spacing" textLength="14" x="740" y="789.529">20</text><text fill="#000000" font-family="sans-serif" font-size="13" lengthAdjust="spacing" textLength="144" x="758" y="789.529">empty list of connectors</text><polygon fill="#181818" points="498,823.044,488,827.044,498,831.044,494,827.044" style="stroke:#181818;stroke-width:1.0;"/><line style="stroke:#181818;stroke-width:1.0;stroke-dasharray:2.0,2.0;" x1="492" x2="717" y1="827.044" y2="827.044"/><text fill="#000000" font-family="sans-serif" font-size="13" font-weight="bold" lengthAdjust="spacing" textLength="14" x="504" y="821.235">21</text><text fill="#000000" font-family="sans-serif" font-size="13" lengthAdjust="spacing" textLength="144" x="522" y="821.235">empty list of connectors</text><polygon fill="#181818" points="99,854.75,89,858.75,99,862.75,95,858.75" style="stroke:#181818;stroke-width:1.0;"/><line style="stroke:#181818;stroke-width:1.0;stroke-dasharray:2.0,2.0;" x1="93" x2="476" y1="858.75" y2="858.75"/><text fill="#000000" font-family="sans-serif" font-size="13" font-weight="bold" lengthAdjust="spacing" textLength="14" x="105" y="852.941">22</text><text fill="#000000" font-family="sans-serif" font-size="13" lengthAdjust="spacing" textLength="265" x="123" y="852.941">shows message "Could not find connectors."</text><!--MD5=[cd68a0bfe80b746e3914ba59a83e2cc8]
@startuml process-view
autonumber
skinparam DefaultTextAlignment<<center>> center

actor CM as "Campus Manager"

box "«container (C4)»\nVisualization" <<center>>
  participant C as "UI Component" <<component>>
  participant M as "Module" <<component>>
  participant SVC as "Service" <<component>>
  participant H as "HTTP" <<component>>
end box

box "«container (C4)»\n MD Management " <<center>>#LightYellow
  participant ROUTE as "Route" <<component>>
end box

activate CM

CM -> C : wants to list connectors between 2 buildings
activate C

CM <- - C : asks for the buildings 1 & 2 codes
deactivate C

CM -> C : inserts the data
activate C

C -> M : getConnectorsBetweenBuildings
activate M

M -> SVC : getConnectorsBetweenBuildings(building1,building2)
activate SVC

SVC -> H : get(url)
activate H

H -> ROUTE : GET /connectors?buildingCodes[]={code1}&buildingCodes[]={code2}
activate ROUTE

alt there are connectors between those buildings
  H <- - ROUTE : 200 OK
  deactivate ROUTE

  SVC <- - H : list of connectors
  deactivate H

  M <- - SVC : list of connectors
  deactivate SVC

  C <- - M : list of connectors
  deactivate M

  CM <- - C : shows the list
else a building code does not exist
  activate H
  activate M
  activate SVC
  activate ROUTE

  H <- - ROUTE : 400 Bad Request
  deactivate ROUTE

  SVC <- - H : error
  deactivate H

  M <- - SVC : error
  deactivate SVC

  C <- - M : error
  deactivate M

  CM <- - C : shows error message "One/both buildings does not exist."
else there are not connectors between those buildings
  activate H
  activate M
  activate SVC
  activate ROUTE

  H <- - ROUTE : 200 OK
  deactivate ROUTE

  SVC <- - H : empty list of connectors
  deactivate H

  M <- - SVC : empty list of connectors
  deactivate SVC

  C <- - M : empty list of connectors
  deactivate M

  CM <- - C : shows message "Could not find connectors."
end

deactivate CM

@enduml

PlantUML version 1.2022.7(Mon Aug 22 18:01:30 WEST 2022)
(GPL source distribution)
Java Runtime: OpenJDK Runtime Environment
JVM: OpenJDK 64-Bit Server VM
Default Encoding: UTF-8
Language: en
Country: GB
--></g></svg>