<?xml version="1.0" encoding="UTF-8" standalone="no"?><svg xmlns="http://www.w3.org/2000/svg" xmlns:xlink="http://www.w3.org/1999/xlink" contentStyleType="text/css" height="941px" preserveAspectRatio="none" style="width:2032px;height:941px;background:#FFFFFF;" version="1.1" viewBox="0 0 2032 941" width="2032px" zoomAndPan="magnify"><defs/><g><rect fill="#DDDDDD" height="929.5194" style="stroke:#181818;stroke-width:0.5;" width="765.625" x="572.25" y="6"/><text fill="#000000" font-family="sans-serif" font-size="20" font-weight="bold" lengthAdjust="spacing" textLength="158.375" x="875.875" y="27.38">«container (C4)»</text><text fill="#000000" font-family="sans-serif" font-size="20" font-weight="bold" lengthAdjust="spacing" textLength="124.125" x="893" y="54.62">Visualization</text><rect fill="#FFFFE0" height="929.5194" style="stroke:#181818;stroke-width:0.5;" width="185.5" x="1840.5" y="6"/><text fill="#000000" font-family="sans-serif" font-size="20" font-weight="bold" lengthAdjust="spacing" textLength="158.375" x="1854.0625" y="27.38">«container (C4)»</text><text fill="#000000" font-family="sans-serif" font-size="20" font-weight="bold" lengthAdjust="spacing" textLength="169.5" x="1848.5" y="54.62">MD Management</text><rect fill="#FFFFFF" height="691.3195" style="stroke:#181818;stroke-width:1.0;" width="10" x="100.5" y="143.9599"/><rect fill="#FFFFFF" height="41.24" style="stroke:#181818;stroke-width:1.0;" width="10" x="702.75" y="177.1999"/><rect fill="#FFFFFF" height="576.5996" style="stroke:#181818;stroke-width:1.0;" width="10" x="702.75" y="259.6798"/><rect fill="#FFFFFF" height="172.1999" style="stroke:#181818;stroke-width:1.0;" width="10" x="1240.375" y="300.9198"/><rect fill="#FFFFFF" height="111.7199" style="stroke:#181818;stroke-width:1.0;" width="10" x="1240.375" y="514.3596"/><rect fill="#FFFFFF" height="111.7199" style="stroke:#181818;stroke-width:1.0;" width="10" x="1240.375" y="667.3195"/><rect fill="#FFFFFF" height="89.7199" style="stroke:#181818;stroke-width:1.0;" width="10" x="1928.25" y="342.1598"/><rect fill="#FFFFFF" height="70.4799" style="stroke:#181818;stroke-width:1.0;" width="10" x="1928.25" y="514.3596"/><rect fill="#FFFFFF" height="70.4799" style="stroke:#181818;stroke-width:1.0;" width="10" x="1928.25" y="667.3195"/><rect fill="none" height="471.1197" style="stroke:#000000;stroke-width:1.5;" width="2015.75" x="10" y="357.1598"/><line style="stroke:#181818;stroke-width:0.5;stroke-dasharray:5.0,5.0;" x1="105" x2="105" y1="133.9599" y2="845.2794"/><line style="stroke:#181818;stroke-width:0.5;stroke-dasharray:5.0,5.0;" x1="707.25" x2="707.25" y1="133.9599" y2="845.2794"/><line style="stroke:#181818;stroke-width:0.5;stroke-dasharray:5.0,5.0;" x1="1244.875" x2="1244.875" y1="133.9599" y2="845.2794"/><line style="stroke:#181818;stroke-width:0.5;stroke-dasharray:5.0,5.0;" x1="1932.75" x2="1932.75" y1="133.9599" y2="845.2794"/><text fill="#000000" font-family="sans-serif" font-size="20" lengthAdjust="spacing" textLength="165" x="20" y="128.0999">Campus Manager</text><ellipse cx="105.5" cy="55.2199" fill="#E2E2F0" rx="8" ry="8" style="stroke:#181818;stroke-width:0.5;"/><path d="M105.5,63.2199 L105.5,90.2199 M92.5,71.2199 L118.5,71.2199 M105.5,90.2199 L92.5,105.2199 M105.5,90.2199 L118.5,105.2199 " fill="none" style="stroke:#181818;stroke-width:0.5;"/><text fill="#000000" font-family="sans-serif" font-size="20" lengthAdjust="spacing" textLength="165" x="20" y="865.6594">Campus Manager</text><ellipse cx="105.5" cy="880.0194" fill="#E2E2F0" rx="8" ry="8" style="stroke:#181818;stroke-width:0.5;"/><path d="M105.5,888.0194 L105.5,915.0194 M92.5,896.0194 L118.5,896.0194 M105.5,915.0194 L92.5,930.0194 M105.5,915.0194 L118.5,930.0194 " fill="none" style="stroke:#181818;stroke-width:0.5;"/><rect fill="#E2E2F0" height="68.4799" rx="2.5" ry="2.5" style="stroke:#181818;stroke-width:0.5;" width="263" x="576.25" y="64.4799"/><text fill="#000000" font-family="sans-serif" font-size="20" font-style="italic" lengthAdjust="spacing" textLength="122" x="646.75" y="92.8599">«component»</text><text fill="#000000" font-family="sans-serif" font-size="20" lengthAdjust="spacing" textLength="249" x="583.25" y="120.0999">ListConnectorsComponent</text><rect fill="#E2E2F0" height="68.4799" rx="2.5" ry="2.5" style="stroke:#181818;stroke-width:0.5;" width="263" x="576.25" y="844.2794"/><text fill="#000000" font-family="sans-serif" font-size="20" font-style="italic" lengthAdjust="spacing" textLength="122" x="646.75" y="872.6594">«component»</text><text fill="#000000" font-family="sans-serif" font-size="20" lengthAdjust="spacing" textLength="249" x="583.25" y="899.8994">ListConnectorsComponent</text><rect fill="#E2E2F0" height="68.4799" rx="2.5" ry="2.5" style="stroke:#181818;stroke-width:0.5;" width="177" x="1156.875" y="64.4799"/><text fill="#000000" font-family="sans-serif" font-size="20" font-style="italic" lengthAdjust="spacing" textLength="122" x="1184.375" y="92.8599">«component»</text><text fill="#000000" font-family="sans-serif" font-size="20" lengthAdjust="spacing" textLength="163" x="1163.875" y="120.0999">ConnectorService</text><rect fill="#E2E2F0" height="68.4799" rx="2.5" ry="2.5" style="stroke:#181818;stroke-width:0.5;" width="177" x="1156.875" y="844.2794"/><text fill="#000000" font-family="sans-serif" font-size="20" font-style="italic" lengthAdjust="spacing" textLength="122" x="1184.375" y="872.6594">«component»</text><text fill="#000000" font-family="sans-serif" font-size="20" lengthAdjust="spacing" textLength="163" x="1163.875" y="899.8994">ConnectorService</text><rect fill="#E2E2F0" height="68.4799" rx="2.5" ry="2.5" style="stroke:#181818;stroke-width:0.5;" width="165" x="1850.75" y="64.4799"/><text fill="#000000" font-family="sans-serif" font-size="20" font-style="italic" lengthAdjust="spacing" textLength="122" x="1872.25" y="92.8599">«component»</text><text fill="#000000" font-family="sans-serif" font-size="20" lengthAdjust="spacing" textLength="151" x="1857.75" y="120.0999">ConnectorRoute</text><rect fill="#E2E2F0" height="68.4799" rx="2.5" ry="2.5" style="stroke:#181818;stroke-width:0.5;" width="165" x="1850.75" y="844.2794"/><text fill="#000000" font-family="sans-serif" font-size="20" font-style="italic" lengthAdjust="spacing" textLength="122" x="1872.25" y="872.6594">«component»</text><text fill="#000000" font-family="sans-serif" font-size="20" lengthAdjust="spacing" textLength="151" x="1857.75" y="899.8994">ConnectorRoute</text><rect fill="#FFFFFF" height="691.3195" style="stroke:#181818;stroke-width:1.0;" width="10" x="100.5" y="143.9599"/><rect fill="#FFFFFF" height="41.24" style="stroke:#181818;stroke-width:1.0;" width="10" x="702.75" y="177.1999"/><rect fill="#FFFFFF" height="576.5996" style="stroke:#181818;stroke-width:1.0;" width="10" x="702.75" y="259.6798"/><rect fill="#FFFFFF" height="172.1999" style="stroke:#181818;stroke-width:1.0;" width="10" x="1240.375" y="300.9198"/><rect fill="#FFFFFF" height="111.7199" style="stroke:#181818;stroke-width:1.0;" width="10" x="1240.375" y="514.3596"/><rect fill="#FFFFFF" height="111.7199" style="stroke:#181818;stroke-width:1.0;" width="10" x="1240.375" y="667.3195"/><rect fill="#FFFFFF" height="89.7199" style="stroke:#181818;stroke-width:1.0;" width="10" x="1928.25" y="342.1598"/><rect fill="#FFFFFF" height="70.4799" style="stroke:#181818;stroke-width:1.0;" width="10" x="1928.25" y="514.3596"/><rect fill="#FFFFFF" height="70.4799" style="stroke:#181818;stroke-width:1.0;" width="10" x="1928.25" y="667.3195"/><polygon fill="#181818" points="690.75,173.1999,700.75,177.1999,690.75,181.1999,694.75,177.1999" style="stroke:#181818;stroke-width:1.0;"/><line style="stroke:#181818;stroke-width:1.0;" x1="110.5" x2="696.75" y1="177.1999" y2="177.1999"/><text fill="#000000" font-family="sans-serif" font-size="20" font-weight="bold" lengthAdjust="spacing" textLength="11.625" x="117.5" y="169.3399">1</text><text fill="#000000" font-family="sans-serif" font-size="20" lengthAdjust="spacing" textLength="412" x="133.125" y="169.3399">wants to list connectors between 2 buildings</text><polygon fill="#181818" points="121.5,214.4398,111.5,218.4398,121.5,222.4398,117.5,218.4398" style="stroke:#181818;stroke-width:1.0;"/><line style="stroke:#181818;stroke-width:1.0;stroke-dasharray:2.0,2.0;" x1="115.5" x2="706.75" y1="218.4398" y2="218.4398"/><text fill="#000000" font-family="sans-serif" font-size="20" font-weight="bold" lengthAdjust="spacing" textLength="11.625" x="127.5" y="210.5799">2</text><text fill="#000000" font-family="sans-serif" font-size="20" lengthAdjust="spacing" textLength="311" x="143.125" y="210.5799">asks for the buildings 1 &amp; 2 codes</text><polygon fill="#181818" points="690.75,255.6798,700.75,259.6798,690.75,263.6798,694.75,259.6798" style="stroke:#181818;stroke-width:1.0;"/><line style="stroke:#181818;stroke-width:1.0;" x1="110.5" x2="696.75" y1="259.6798" y2="259.6798"/><text fill="#000000" font-family="sans-serif" font-size="20" font-weight="bold" lengthAdjust="spacing" textLength="11.625" x="117.5" y="251.8198">3</text><text fill="#000000" font-family="sans-serif" font-size="20" lengthAdjust="spacing" textLength="144" x="133.125" y="251.8198">inserts the data</text><polygon fill="#181818" points="1228.375,296.9198,1238.375,300.9198,1228.375,304.9198,1232.375,300.9198" style="stroke:#181818;stroke-width:1.0;"/><line style="stroke:#181818;stroke-width:1.0;" x1="712.75" x2="1234.375" y1="300.9198" y2="300.9198"/><text fill="#000000" font-family="sans-serif" font-size="20" font-weight="bold" lengthAdjust="spacing" textLength="11.625" x="719.75" y="293.0598">4</text><text fill="#000000" font-family="sans-serif" font-size="20" lengthAdjust="spacing" textLength="493" x="735.375" y="293.0598">getConnectorsBetweenBuildings(building1,building2)</text><polygon fill="#181818" points="1916.25,338.1598,1926.25,342.1598,1916.25,346.1598,1920.25,342.1598" style="stroke:#181818;stroke-width:1.0;"/><line style="stroke:#181818;stroke-width:1.0;" x1="1250.375" x2="1922.25" y1="342.1598" y2="342.1598"/><text fill="#000000" font-family="sans-serif" font-size="20" font-weight="bold" lengthAdjust="spacing" textLength="11.625" x="1257.375" y="334.2998">5</text><text fill="#000000" font-family="sans-serif" font-size="20" lengthAdjust="spacing" textLength="637" x="1273" y="334.2998">GET /connectors?buildingCodes[]={code1}&amp;buildingCodes[]={code2}</text><path d="M10,357.1598 L79.875,357.1598 L79.875,376.3997 L69.875,386.3997 L10,386.3997 L10,357.1598 " fill="#EEEEEE" style="stroke:#000000;stroke-width:1.5;"/><rect fill="none" height="471.1197" style="stroke:#000000;stroke-width:1.5;" width="2015.75" x="10" y="357.1598"/><text fill="#000000" font-family="sans-serif" font-size="20" font-weight="bold" lengthAdjust="spacing" textLength="24.875" x="25" y="379.5398">alt</text><text fill="#000000" font-family="sans-serif" font-size="20" font-weight="bold" lengthAdjust="spacing" textLength="464.625" x="94.875" y="380.5398">[there are connectors between those buildings]</text><polygon fill="#181818" points="1261.375,427.8797,1251.375,431.8797,1261.375,435.8797,1257.375,431.8797" style="stroke:#181818;stroke-width:1.0;"/><line style="stroke:#181818;stroke-width:1.0;stroke-dasharray:2.0,2.0;" x1="1255.375" x2="1932.25" y1="431.8797" y2="431.8797"/><text fill="#000000" font-family="sans-serif" font-size="20" font-weight="bold" lengthAdjust="spacing" textLength="11.625" x="1267.375" y="424.0197">6</text><text fill="#000000" font-family="sans-serif" font-size="20" lengthAdjust="spacing" textLength="66" x="1283" y="424.0197">200 OK</text><polygon fill="#181818" points="723.75,469.1197,713.75,473.1197,723.75,477.1197,719.75,473.1197" style="stroke:#181818;stroke-width:1.0;"/><line style="stroke:#181818;stroke-width:1.0;stroke-dasharray:2.0,2.0;" x1="717.75" x2="1244.375" y1="473.1197" y2="473.1197"/><text fill="#000000" font-family="sans-serif" font-size="20" font-weight="bold" lengthAdjust="spacing" textLength="11.625" x="729.75" y="465.2597">7</text><text fill="#000000" font-family="sans-serif" font-size="20" lengthAdjust="spacing" textLength="160" x="745.375" y="465.2597">list of connectors</text><polygon fill="#181818" points="121.5,510.3596,111.5,514.3596,121.5,518.3596,117.5,514.3596" style="stroke:#181818;stroke-width:1.0;"/><line style="stroke:#181818;stroke-width:1.0;stroke-dasharray:2.0,2.0;" x1="115.5" x2="701.75" y1="514.3596" y2="514.3596"/><text fill="#000000" font-family="sans-serif" font-size="20" font-weight="bold" lengthAdjust="spacing" textLength="11.625" x="127.5" y="506.4997">8</text><text fill="#000000" font-family="sans-serif" font-size="20" lengthAdjust="spacing" textLength="127" x="143.125" y="506.4997">shows the list</text><line style="stroke:#000000;stroke-width:1.0;stroke-dasharray:2.0,2.0;" x1="10" x2="2025.75" y1="523.3596" y2="523.3596"/><text fill="#000000" font-family="sans-serif" font-size="20" font-weight="bold" lengthAdjust="spacing" textLength="306.875" x="15" y="544.7396">[a building code does not exist]</text><polygon fill="#181818" points="1261.375,580.8396,1251.375,584.8396,1261.375,588.8396,1257.375,584.8396" style="stroke:#181818;stroke-width:1.0;"/><line style="stroke:#181818;stroke-width:1.0;stroke-dasharray:2.0,2.0;" x1="1255.375" x2="1932.25" y1="584.8396" y2="584.8396"/><text fill="#000000" font-family="sans-serif" font-size="20" font-weight="bold" lengthAdjust="spacing" textLength="11.625" x="1267.375" y="576.9796">9</text><text fill="#000000" font-family="sans-serif" font-size="20" lengthAdjust="spacing" textLength="154" x="1283" y="576.9796">400 Bad Request</text><polygon fill="#181818" points="723.75,622.0796,713.75,626.0796,723.75,630.0796,719.75,626.0796" style="stroke:#181818;stroke-width:1.0;"/><line style="stroke:#181818;stroke-width:1.0;stroke-dasharray:2.0,2.0;" x1="717.75" x2="1244.375" y1="626.0796" y2="626.0796"/><text fill="#000000" font-family="sans-serif" font-size="20" font-weight="bold" lengthAdjust="spacing" textLength="23.25" x="729.75" y="618.2196">10</text><text fill="#000000" font-family="sans-serif" font-size="20" lengthAdjust="spacing" textLength="47" x="757" y="618.2196">error</text><polygon fill="#181818" points="121.5,663.3195,111.5,667.3195,121.5,671.3195,117.5,667.3195" style="stroke:#181818;stroke-width:1.0;"/><line style="stroke:#181818;stroke-width:1.0;stroke-dasharray:2.0,2.0;" x1="115.5" x2="701.75" y1="667.3195" y2="667.3195"/><text fill="#000000" font-family="sans-serif" font-size="20" font-weight="bold" lengthAdjust="spacing" textLength="23.25" x="127.5" y="659.4596">11</text><text fill="#000000" font-family="sans-serif" font-size="20" lengthAdjust="spacing" textLength="541" x="154.75" y="659.4596">shows error message "One/both buildings does not exist."</text><line style="stroke:#000000;stroke-width:1.0;stroke-dasharray:2.0,2.0;" x1="10" x2="2025.75" y1="676.3195" y2="676.3195"/><text fill="#000000" font-family="sans-serif" font-size="20" font-weight="bold" lengthAdjust="spacing" textLength="502.5" x="15" y="697.6995">[there are not connectors between those buildings]</text><polygon fill="#181818" points="1261.375,733.7995,1251.375,737.7995,1261.375,741.7995,1257.375,737.7995" style="stroke:#181818;stroke-width:1.0;"/><line style="stroke:#181818;stroke-width:1.0;stroke-dasharray:2.0,2.0;" x1="1255.375" x2="1932.25" y1="737.7995" y2="737.7995"/><text fill="#000000" font-family="sans-serif" font-size="20" font-weight="bold" lengthAdjust="spacing" textLength="23.25" x="1267.375" y="729.9395">12</text><text fill="#000000" font-family="sans-serif" font-size="20" lengthAdjust="spacing" textLength="66" x="1294.625" y="729.9395">200 OK</text><polygon fill="#181818" points="723.75,775.0395,713.75,779.0395,723.75,783.0395,719.75,779.0395" style="stroke:#181818;stroke-width:1.0;"/><line style="stroke:#181818;stroke-width:1.0;stroke-dasharray:2.0,2.0;" x1="717.75" x2="1244.375" y1="779.0395" y2="779.0395"/><text fill="#000000" font-family="sans-serif" font-size="20" font-weight="bold" lengthAdjust="spacing" textLength="23.25" x="729.75" y="771.1795">13</text><text fill="#000000" font-family="sans-serif" font-size="20" lengthAdjust="spacing" textLength="224" x="757" y="771.1795">empty list of connectors</text><polygon fill="#181818" points="121.5,816.2794,111.5,820.2794,121.5,824.2794,117.5,820.2794" style="stroke:#181818;stroke-width:1.0;"/><line style="stroke:#181818;stroke-width:1.0;stroke-dasharray:2.0,2.0;" x1="115.5" x2="701.75" y1="820.2794" y2="820.2794"/><text fill="#000000" font-family="sans-serif" font-size="20" font-weight="bold" lengthAdjust="spacing" textLength="23.25" x="127.5" y="812.4195">14</text><text fill="#000000" font-family="sans-serif" font-size="20" lengthAdjust="spacing" textLength="415" x="154.75" y="812.4195">shows message "Could not find connectors."</text><!--SRC=[dLFTRjem5BxtKnnbKjLAOmNKAyIOHjhjOaMLW5MQjbsO-00MYSrifx1EVQ8zmkxwP3js24bOjx5T12NaVBydjYkfrjpmBDN92WK8dFCyTM-qSXDvZz1jCvuxhV9iXeRPSXekYxafRjthL2vKXihr-mdzeXaCeBXXZ2TE6uX7m2r4CS_MkOKHLto19c9ifhSGFNvFI8nBXGPEuukpnn-VrAsqEK_bFNTIgmWgOWP0-aucSisLWpZmNalhOgqKUZ4Rwsoj5Sq7NFdm2tHoMu3tm0cQEvdW8GgL0FBv1xCmkjnbyYL0tUwpQxbOkW-Ofdfpe3- -UJ-zQZeOwzpzNf-gb7VS8RN963NQ6b3y7co8p8BJa58BaEnhW1cw3QA2BinocGgf5hR64IZwhLRWu7PbOKwBSakifg439uHEj43B11vWT_9IMJJU0245TxmfuQTyqJrOO6r5myBQi5GwBJKxpykxxbd5H0oCUHfYAshhmTkhAPnNQL-LkDYx_VZvvJTlk_DmykJ_tOUAF11Ikwdp6Gm2f-k96jrIsrevj4tlo3TOMkgsst3pZbxKkjgn0nIZHHTXKtfUKsc2Gbw0seBiKc-AZZsMOKfM-DvCM148ZHQKTe1RFmFGuAizxZqT1hYW04CkO8nVSWmKVqk2ncXpdFam2XbQImS5eXk5vpFjbhNFhHdWHLJ4h9RYNnsrc7yEVlJcC5kxh_-zlttuMEUf27dcaevtnUD3Ay4Qfst4VW80]--></g></svg>