<?xml version="1.0" encoding="UTF-8" standalone="no"?><svg xmlns="http://www.w3.org/2000/svg" xmlns:xlink="http://www.w3.org/1999/xlink" contentStyleType="text/css" height="850px" preserveAspectRatio="none" style="width:2238px;height:850px;background:#FFFFFF;" version="1.1" viewBox="0 0 2238 850" width="2238px" zoomAndPan="magnify"><defs/><g><rect fill="#DDDDDD" height="838.4688" style="stroke:#181818;stroke-width:0.5;" width="831.5" x="614" y="6"/><text fill="#000000" font-family="sans-serif" font-size="20" font-weight="bold" lengthAdjust="spacing" textLength="189" x="935.25" y="24.5645">«container (C4)»</text><text fill="#000000" font-family="sans-serif" font-size="20" font-weight="bold" lengthAdjust="spacing" textLength="147" x="956.25" y="47.8457">Visualization</text><rect fill="#FFFFE0" height="838.4688" style="stroke:#181818;stroke-width:0.5;" width="213" x="2019.5" y="6"/><text fill="#000000" font-family="sans-serif" font-size="20" font-weight="bold" lengthAdjust="spacing" textLength="189" x="2031.5" y="24.5645">«container (C4)»</text><text fill="#000000" font-family="sans-serif" font-size="20" font-weight="bold" lengthAdjust="spacing" textLength="193" x="2029.5" y="47.8457">MD Management</text><rect fill="#FFFFFF" height="620.0625" style="stroke:#181818;stroke-width:1.0;" width="10" x="105.5" y="128.125"/><rect fill="#FFFFFF" height="37.2813" style="stroke:#181818;stroke-width:1.0;" width="10" x="752.5" y="157.4063"/><rect fill="#FFFFFF" height="517.2188" style="stroke:#181818;stroke-width:1.0;" width="10" x="752.5" y="231.9688"/><rect fill="#FFFFFF" height="152.4063" style="stroke:#181818;stroke-width:1.0;" width="10" x="1341.5" y="269.25"/><rect fill="#FFFFFF" height="99.8438" style="stroke:#181818;stroke-width:1.0;" width="10" x="1341.5" y="458.9375"/><rect fill="#FFFFFF" height="99.8438" style="stroke:#181818;stroke-width:1.0;" width="10" x="1341.5" y="596.0625"/><rect fill="#FFFFFF" height="77.8438" style="stroke:#181818;stroke-width:1.0;" width="10" x="2121" y="306.5313"/><rect fill="#FFFFFF" height="62.5625" style="stroke:#181818;stroke-width:1.0;" width="10" x="2121" y="458.9375"/><rect fill="#FFFFFF" height="62.5625" style="stroke:#181818;stroke-width:1.0;" width="10" x="2121" y="596.0625"/><rect fill="none" height="419.6563" style="stroke:#000000;stroke-width:1.5;" width="2214" x="10" y="321.5313"/><line style="stroke:#181818;stroke-width:0.5;stroke-dasharray:5.0,5.0;" x1="110" x2="110" y1="118.125" y2="758.1875"/><line style="stroke:#181818;stroke-width:0.5;stroke-dasharray:5.0,5.0;" x1="757" x2="757" y1="118.125" y2="758.1875"/><line style="stroke:#181818;stroke-width:0.5;stroke-dasharray:5.0,5.0;" x1="1346.5" x2="1346.5" y1="118.125" y2="758.1875"/><line style="stroke:#181818;stroke-width:0.5;stroke-dasharray:5.0,5.0;" x1="2126" x2="2126" y1="118.125" y2="758.1875"/><text fill="#000000" font-family="sans-serif" font-size="20" lengthAdjust="spacing" textLength="175" x="20" y="113.4082">Campus Manager</text><ellipse cx="110.5" cy="43.3438" fill="#E2E2F0" rx="8" ry="8" style="stroke:#181818;stroke-width:0.5;"/><path d="M110.5,51.3438 L110.5,78.3438 M97.5,59.3438 L123.5,59.3438 M110.5,78.3438 L97.5,93.3438 M110.5,78.3438 L123.5,93.3438 " fill="none" style="stroke:#181818;stroke-width:0.5;"/><text fill="#000000" font-family="sans-serif" font-size="20" lengthAdjust="spacing" textLength="175" x="20" y="775.752">Campus Manager</text><ellipse cx="110.5" cy="788.9688" fill="#E2E2F0" rx="8" ry="8" style="stroke:#181818;stroke-width:0.5;"/><path d="M110.5,796.9688 L110.5,823.9688 M97.5,804.9688 L123.5,804.9688 M110.5,823.9688 L97.5,838.9688 M110.5,823.9688 L123.5,838.9688 " fill="none" style="stroke:#181818;stroke-width:0.5;"/><rect fill="#E2E2F0" height="60.5625" rx="2.5" ry="2.5" style="stroke:#181818;stroke-width:0.5;" width="279" x="618" y="56.5625"/><text fill="#000000" font-family="sans-serif" font-size="20" font-style="italic" lengthAdjust="spacing" textLength="138" x="688.5" y="82.127">«component»</text><text fill="#000000" font-family="sans-serif" font-size="20" lengthAdjust="spacing" textLength="265" x="625" y="105.4082">ListConnectorsComponent</text><rect fill="#E2E2F0" height="60.5625" rx="2.5" ry="2.5" style="stroke:#181818;stroke-width:0.5;" width="279" x="618" y="757.1875"/><text fill="#000000" font-family="sans-serif" font-size="20" font-style="italic" lengthAdjust="spacing" textLength="138" x="688.5" y="782.752">«component»</text><text fill="#000000" font-family="sans-serif" font-size="20" lengthAdjust="spacing" textLength="265" x="625" y="806.0332">ListConnectorsComponent</text><rect fill="#E2E2F0" height="60.5625" rx="2.5" ry="2.5" style="stroke:#181818;stroke-width:0.5;" width="190" x="1251.5" y="56.5625"/><text fill="#000000" font-family="sans-serif" font-size="20" font-style="italic" lengthAdjust="spacing" textLength="138" x="1277.5" y="82.127">«component»</text><text fill="#000000" font-family="sans-serif" font-size="20" lengthAdjust="spacing" textLength="176" x="1258.5" y="105.4082">ConnectorService</text><rect fill="#E2E2F0" height="60.5625" rx="2.5" ry="2.5" style="stroke:#181818;stroke-width:0.5;" width="190" x="1251.5" y="757.1875"/><text fill="#000000" font-family="sans-serif" font-size="20" font-style="italic" lengthAdjust="spacing" textLength="138" x="1277.5" y="782.752">«component»</text><text fill="#000000" font-family="sans-serif" font-size="20" lengthAdjust="spacing" textLength="176" x="1258.5" y="806.0332">ConnectorService</text><rect fill="#E2E2F0" height="60.5625" rx="2.5" ry="2.5" style="stroke:#181818;stroke-width:0.5;" width="176" x="2038" y="56.5625"/><text fill="#000000" font-family="sans-serif" font-size="20" font-style="italic" lengthAdjust="spacing" textLength="138" x="2057" y="82.127">«component»</text><text fill="#000000" font-family="sans-serif" font-size="20" lengthAdjust="spacing" textLength="162" x="2045" y="105.4082">ConnectorRoute</text><rect fill="#E2E2F0" height="60.5625" rx="2.5" ry="2.5" style="stroke:#181818;stroke-width:0.5;" width="176" x="2038" y="757.1875"/><text fill="#000000" font-family="sans-serif" font-size="20" font-style="italic" lengthAdjust="spacing" textLength="138" x="2057" y="782.752">«component»</text><text fill="#000000" font-family="sans-serif" font-size="20" lengthAdjust="spacing" textLength="162" x="2045" y="806.0332">ConnectorRoute</text><rect fill="#FFFFFF" height="620.0625" style="stroke:#181818;stroke-width:1.0;" width="10" x="105.5" y="128.125"/><rect fill="#FFFFFF" height="37.2813" style="stroke:#181818;stroke-width:1.0;" width="10" x="752.5" y="157.4063"/><rect fill="#FFFFFF" height="517.2188" style="stroke:#181818;stroke-width:1.0;" width="10" x="752.5" y="231.9688"/><rect fill="#FFFFFF" height="152.4063" style="stroke:#181818;stroke-width:1.0;" width="10" x="1341.5" y="269.25"/><rect fill="#FFFFFF" height="99.8438" style="stroke:#181818;stroke-width:1.0;" width="10" x="1341.5" y="458.9375"/><rect fill="#FFFFFF" height="99.8438" style="stroke:#181818;stroke-width:1.0;" width="10" x="1341.5" y="596.0625"/><rect fill="#FFFFFF" height="77.8438" style="stroke:#181818;stroke-width:1.0;" width="10" x="2121" y="306.5313"/><rect fill="#FFFFFF" height="62.5625" style="stroke:#181818;stroke-width:1.0;" width="10" x="2121" y="458.9375"/><rect fill="#FFFFFF" height="62.5625" style="stroke:#181818;stroke-width:1.0;" width="10" x="2121" y="596.0625"/><polygon fill="#181818" points="740.5,153.4063,750.5,157.4063,740.5,161.4063,744.5,157.4063" style="stroke:#181818;stroke-width:1.0;"/><line style="stroke:#181818;stroke-width:1.0;" x1="115.5" x2="746.5" y1="157.4063" y2="157.4063"/><text fill="#000000" font-family="sans-serif" font-size="20" font-weight="bold" lengthAdjust="spacing" textLength="14" x="122.5" y="150.6895">1</text><text fill="#000000" font-family="sans-serif" font-size="20" lengthAdjust="spacing" textLength="449" x="140.5" y="150.6895">wants to list connectors between 2 buildings</text><polygon fill="#181818" points="126.5,190.6875,116.5,194.6875,126.5,198.6875,122.5,194.6875" style="stroke:#181818;stroke-width:1.0;"/><line style="stroke:#181818;stroke-width:1.0;stroke-dasharray:2.0,2.0;" x1="120.5" x2="756.5" y1="194.6875" y2="194.6875"/><text fill="#000000" font-family="sans-serif" font-size="20" font-weight="bold" lengthAdjust="spacing" textLength="14" x="132.5" y="187.9707">2</text><text fill="#000000" font-family="sans-serif" font-size="20" lengthAdjust="spacing" textLength="338" x="150.5" y="187.9707">asks for the buildings 1 &amp; 2 codes</text><polygon fill="#181818" points="740.5,227.9688,750.5,231.9688,740.5,235.9688,744.5,231.9688" style="stroke:#181818;stroke-width:1.0;"/><line style="stroke:#181818;stroke-width:1.0;" x1="115.5" x2="746.5" y1="231.9688" y2="231.9688"/><text fill="#000000" font-family="sans-serif" font-size="20" font-weight="bold" lengthAdjust="spacing" textLength="14" x="122.5" y="225.252">3</text><text fill="#000000" font-family="sans-serif" font-size="20" lengthAdjust="spacing" textLength="157" x="140.5" y="225.252">inserts the data</text><polygon fill="#181818" points="1329.5,265.25,1339.5,269.25,1329.5,273.25,1333.5,269.25" style="stroke:#181818;stroke-width:1.0;"/><line style="stroke:#181818;stroke-width:1.0;" x1="762.5" x2="1335.5" y1="269.25" y2="269.25"/><text fill="#000000" font-family="sans-serif" font-size="20" font-weight="bold" lengthAdjust="spacing" textLength="14" x="769.5" y="262.5332">4</text><text fill="#000000" font-family="sans-serif" font-size="20" lengthAdjust="spacing" textLength="542" x="787.5" y="262.5332">getConnectorsBetweenBuildings(building1,building2)</text><polygon fill="#181818" points="2109,302.5313,2119,306.5313,2109,310.5313,2113,306.5313" style="stroke:#181818;stroke-width:1.0;"/><line style="stroke:#181818;stroke-width:1.0;" x1="1351.5" x2="2115" y1="306.5313" y2="306.5313"/><text fill="#000000" font-family="sans-serif" font-size="20" font-weight="bold" lengthAdjust="spacing" textLength="14" x="1358.5" y="299.8145">5</text><text fill="#000000" font-family="sans-serif" font-size="20" lengthAdjust="spacing" textLength="718" x="1376.5" y="299.8145">GET /connectors?buildingCodes[]={code1}&amp;buildingCodes[]={code2}</text><path d="M10,321.5313 L86,321.5313 L86,336.8125 L76,346.8125 L10,346.8125 L10,321.5313 " fill="#EEEEEE" style="stroke:#000000;stroke-width:1.5;"/><rect fill="none" height="419.6563" style="stroke:#000000;stroke-width:1.5;" width="2214" x="10" y="321.5313"/><text fill="#000000" font-family="sans-serif" font-size="20" font-weight="bold" lengthAdjust="spacing" textLength="31" x="25" y="341.0957">alt</text><text fill="#000000" font-family="sans-serif" font-size="20" font-weight="bold" lengthAdjust="spacing" textLength="544" x="101" y="342.0957">[there are connectors between those buildings]</text><polygon fill="#181818" points="1362.5,380.375,1352.5,384.375,1362.5,388.375,1358.5,384.375" style="stroke:#181818;stroke-width:1.0;"/><line style="stroke:#181818;stroke-width:1.0;stroke-dasharray:2.0,2.0;" x1="1356.5" x2="2125" y1="384.375" y2="384.375"/><text fill="#000000" font-family="sans-serif" font-size="20" font-weight="bold" lengthAdjust="spacing" textLength="14" x="1368.5" y="377.6582">6</text><text fill="#000000" font-family="sans-serif" font-size="20" lengthAdjust="spacing" textLength="74" x="1386.5" y="377.6582">200 OK</text><polygon fill="#181818" points="773.5,417.6563,763.5,421.6563,773.5,425.6563,769.5,421.6563" style="stroke:#181818;stroke-width:1.0;"/><line style="stroke:#181818;stroke-width:1.0;stroke-dasharray:2.0,2.0;" x1="767.5" x2="1345.5" y1="421.6563" y2="421.6563"/><text fill="#000000" font-family="sans-serif" font-size="20" font-weight="bold" lengthAdjust="spacing" textLength="14" x="779.5" y="414.9395">7</text><text fill="#000000" font-family="sans-serif" font-size="20" lengthAdjust="spacing" textLength="171" x="797.5" y="414.9395">list of connectors</text><polygon fill="#181818" points="126.5,454.9375,116.5,458.9375,126.5,462.9375,122.5,458.9375" style="stroke:#181818;stroke-width:1.0;"/><line style="stroke:#181818;stroke-width:1.0;stroke-dasharray:2.0,2.0;" x1="120.5" x2="751.5" y1="458.9375" y2="458.9375"/><text fill="#000000" font-family="sans-serif" font-size="20" font-weight="bold" lengthAdjust="spacing" textLength="14" x="132.5" y="452.2207">8</text><text fill="#000000" font-family="sans-serif" font-size="20" lengthAdjust="spacing" textLength="137" x="150.5" y="452.2207">shows the list</text><line style="stroke:#000000;stroke-width:1.0;stroke-dasharray:2.0,2.0;" x1="10" x2="2224" y1="467.9375" y2="467.9375"/><text fill="#000000" font-family="sans-serif" font-size="20" font-weight="bold" lengthAdjust="spacing" textLength="360" x="15" y="486.502">[a building code does not exist]</text><polygon fill="#181818" points="1362.5,517.5,1352.5,521.5,1362.5,525.5,1358.5,521.5" style="stroke:#181818;stroke-width:1.0;"/><line style="stroke:#181818;stroke-width:1.0;stroke-dasharray:2.0,2.0;" x1="1356.5" x2="2125" y1="521.5" y2="521.5"/><text fill="#000000" font-family="sans-serif" font-size="20" font-weight="bold" lengthAdjust="spacing" textLength="14" x="1368.5" y="514.7832">9</text><text fill="#000000" font-family="sans-serif" font-size="20" lengthAdjust="spacing" textLength="172" x="1386.5" y="514.7832">400 Bad Request</text><polygon fill="#181818" points="773.5,554.7813,763.5,558.7813,773.5,562.7813,769.5,558.7813" style="stroke:#181818;stroke-width:1.0;"/><line style="stroke:#181818;stroke-width:1.0;stroke-dasharray:2.0,2.0;" x1="767.5" x2="1345.5" y1="558.7813" y2="558.7813"/><text fill="#000000" font-family="sans-serif" font-size="20" font-weight="bold" lengthAdjust="spacing" textLength="28" x="779.5" y="552.0645">10</text><text fill="#000000" font-family="sans-serif" font-size="20" lengthAdjust="spacing" textLength="48" x="811.5" y="552.0645">error</text><polygon fill="#181818" points="126.5,592.0625,116.5,596.0625,126.5,600.0625,122.5,596.0625" style="stroke:#181818;stroke-width:1.0;"/><line style="stroke:#181818;stroke-width:1.0;stroke-dasharray:2.0,2.0;" x1="120.5" x2="751.5" y1="596.0625" y2="596.0625"/><text fill="#000000" font-family="sans-serif" font-size="20" font-weight="bold" lengthAdjust="spacing" textLength="28" x="132.5" y="589.3457">11</text><text fill="#000000" font-family="sans-serif" font-size="20" lengthAdjust="spacing" textLength="581" x="164.5" y="589.3457">shows error message "One/both buildings does not exist."</text><line style="stroke:#000000;stroke-width:1.0;stroke-dasharray:2.0,2.0;" x1="10" x2="2224" y1="605.0625" y2="605.0625"/><text fill="#000000" font-family="sans-serif" font-size="20" font-weight="bold" lengthAdjust="spacing" textLength="589" x="15" y="623.627">[there are not connectors between those buildings]</text><polygon fill="#181818" points="1362.5,654.625,1352.5,658.625,1362.5,662.625,1358.5,658.625" style="stroke:#181818;stroke-width:1.0;"/><line style="stroke:#181818;stroke-width:1.0;stroke-dasharray:2.0,2.0;" x1="1356.5" x2="2125" y1="658.625" y2="658.625"/><text fill="#000000" font-family="sans-serif" font-size="20" font-weight="bold" lengthAdjust="spacing" textLength="28" x="1368.5" y="651.9082">12</text><text fill="#000000" font-family="sans-serif" font-size="20" lengthAdjust="spacing" textLength="74" x="1400.5" y="651.9082">200 OK</text><polygon fill="#181818" points="773.5,691.9063,763.5,695.9063,773.5,699.9063,769.5,695.9063" style="stroke:#181818;stroke-width:1.0;"/><line style="stroke:#181818;stroke-width:1.0;stroke-dasharray:2.0,2.0;" x1="767.5" x2="1345.5" y1="695.9063" y2="695.9063"/><text fill="#000000" font-family="sans-serif" font-size="20" font-weight="bold" lengthAdjust="spacing" textLength="28" x="779.5" y="689.1895">13</text><text fill="#000000" font-family="sans-serif" font-size="20" lengthAdjust="spacing" textLength="241" x="811.5" y="689.1895">empty list of connectors</text><polygon fill="#181818" points="126.5,729.1875,116.5,733.1875,126.5,737.1875,122.5,733.1875" style="stroke:#181818;stroke-width:1.0;"/><line style="stroke:#181818;stroke-width:1.0;stroke-dasharray:2.0,2.0;" x1="120.5" x2="751.5" y1="733.1875" y2="733.1875"/><text fill="#000000" font-family="sans-serif" font-size="20" font-weight="bold" lengthAdjust="spacing" textLength="28" x="132.5" y="726.4707">14</text><text fill="#000000" font-family="sans-serif" font-size="20" lengthAdjust="spacing" textLength="447" x="164.5" y="726.4707">shows message "Could not find connectors."</text><!--SRC=[dLFTRjem5BxtKnnbKjLAOmNKAyIOHjhjOaMLW5MQjbsO-00MYSrifx1EVQ8zmkxwP3js24bOjx5T12NaVBydjYkfrjpmBDN92WK8dFCyTM-qSXDvZz1jCvuxhV9iXeRPSXekYxafRjthL2vKXihr-mdzeXaCeBXXZ2TE6uX7m2r4CS_MkOKHLto19c9ifhSGFNvFI8nBXGPEuukpnn-VrAsqEK_bFNTIgmWgOWP0-aucSisLWpZmNalhOgqKUZ4Rwsoj5Sq7NFdm2tHoMu3tm0cQEvdW8GgL0FBv1xCmkjnbyYL0tUwpQxbOkW-Ofdfpe3- -UJ-zQZeOwzpzNf-gb7VS8RN963NQ6b3y7co8p8BJa58BaEnhW1cw3QA2BinocGgf5hR64IZwhLRWu7PbOKwBSakifg439uHEj43B11vWT_9IMJJU0245TxmfuQTyqJrOO6r5myBQi5GwBJKxpykxxbd5H0oCUHfYAshhmTkhAPnNQL-LkDYx_VZvvJTlk_DmykJ_tOUAF11Ikwdp6Gm2f-k96jrIsrevj4tlo3TOMkgsst3pZbxKkjgn0nIZHHTXKtfUKsc2Gbw0seBiKc-AZZsMOKfM-DvCM148ZHQKTe1RFmFGuAizxZqT1hYW04CkO8nVSWmKVqk2ncXpdFam2XbQImS5eXk5vpFjbhNFhHdWHLJ4h9RYNnsrc7yEVlJcC5kxh_-zlttuMEUf27dcaevtnUD3Ay4Qfst4VW80]--></g></svg>