<?xml version="1.0" encoding="UTF-8" standalone="no"?><svg xmlns="http://www.w3.org/2000/svg" xmlns:xlink="http://www.w3.org/1999/xlink" contentStyleType="text/css" height="1271px" preserveAspectRatio="none" style="width:2680px;height:1271px;background:#FFFFFF;" version="1.1" viewBox="0 0 2680 1271" width="2680px" zoomAndPan="magnify"><defs/><g><rect fill="#DDDDDD" height="1259.4392" style="stroke:#181818;stroke-width:0.5;" width="1323" x="628.25" y="6"/><text fill="#000000" font-family="sans-serif" font-size="20" font-weight="bold" lengthAdjust="spacing" textLength="158.375" x="1210.5625" y="27.38">«container (C4)»</text><text fill="#000000" font-family="sans-serif" font-size="20" font-weight="bold" lengthAdjust="spacing" textLength="124.125" x="1227.6875" y="54.62">Visualization</text><rect fill="#FFFFE0" height="1259.4392" style="stroke:#181818;stroke-width:0.5;" width="185.5" x="2488.875" y="6"/><text fill="#000000" font-family="sans-serif" font-size="20" font-weight="bold" lengthAdjust="spacing" textLength="158.375" x="2502.4375" y="27.38">«container (C4)»</text><text fill="#000000" font-family="sans-serif" font-size="20" font-weight="bold" lengthAdjust="spacing" textLength="169.5" x="2496.875" y="54.62">MD Management</text><rect fill="#FFFFFF" height="1021.2393" style="stroke:#181818;stroke-width:1.0;" width="10" x="100.5" y="143.9599"/><rect fill="#FFFFFF" height="41.24" style="stroke:#181818;stroke-width:1.0;" width="10" x="702.75" y="177.1999"/><rect fill="#FFFFFF" height="906.5194" style="stroke:#181818;stroke-width:1.0;" width="10" x="702.75" y="259.6798"/><rect fill="#FFFFFF" height="337.1598" style="stroke:#181818;stroke-width:1.0;" width="10" x="1051.375" y="300.9198"/><rect fill="#FFFFFF" height="194.1999" style="stroke:#181818;stroke-width:1.0;" width="10" x="1051.375" y="679.3195"/><rect fill="#FFFFFF" height="194.1999" style="stroke:#181818;stroke-width:1.0;" width="10" x="1051.375" y="914.7594"/><rect fill="#FFFFFF" height="254.6798" style="stroke:#181818;stroke-width:1.0;" width="10" x="1589" y="342.1598"/><rect fill="#FFFFFF" height="152.9599" style="stroke:#181818;stroke-width:1.0;" width="10" x="1589" y="679.3195"/><rect fill="#FFFFFF" height="152.9599" style="stroke:#181818;stroke-width:1.0;" width="10" x="1589" y="914.7594"/><rect fill="#FFFFFF" height="172.1999" style="stroke:#181818;stroke-width:1.0;" width="10" x="1874.25" y="383.3997"/><rect fill="#FFFFFF" height="111.7199" style="stroke:#181818;stroke-width:1.0;" width="10" x="1874.25" y="679.3195"/><rect fill="#FFFFFF" height="111.7199" style="stroke:#181818;stroke-width:1.0;" width="10" x="1874.25" y="914.7594"/><rect fill="#FFFFFF" height="89.7199" style="stroke:#181818;stroke-width:1.0;" width="10" x="2576.625" y="424.6397"/><rect fill="#FFFFFF" height="70.4799" style="stroke:#181818;stroke-width:1.0;" width="10" x="2576.625" y="679.3195"/><rect fill="#FFFFFF" height="70.4799" style="stroke:#181818;stroke-width:1.0;" width="10" x="2576.625" y="914.7594"/><rect fill="none" height="718.5595" style="stroke:#000000;stroke-width:1.5;" width="2649.625" x="10" y="439.6397"/><line style="stroke:#181818;stroke-width:0.5;stroke-dasharray:5.0,5.0;" x1="105" x2="105" y1="133.9599" y2="1175.1992"/><line style="stroke:#181818;stroke-width:0.5;stroke-dasharray:5.0,5.0;" x1="707.25" x2="707.25" y1="133.9599" y2="1175.1992"/><line style="stroke:#181818;stroke-width:0.5;stroke-dasharray:5.0,5.0;" x1="1056.375" x2="1056.375" y1="133.9599" y2="1175.1992"/><line style="stroke:#181818;stroke-width:0.5;stroke-dasharray:5.0,5.0;" x1="1594" x2="1594" y1="133.9599" y2="1175.1992"/><line style="stroke:#181818;stroke-width:0.5;stroke-dasharray:5.0,5.0;" x1="1879.25" x2="1879.25" y1="133.9599" y2="1175.1992"/><line style="stroke:#181818;stroke-width:0.5;stroke-dasharray:5.0,5.0;" x1="2581.625" x2="2581.625" y1="133.9599" y2="1175.1992"/><text fill="#000000" font-family="sans-serif" font-size="20" lengthAdjust="spacing" textLength="165" x="20" y="128.0999">Campus Manager</text><ellipse cx="105.5" cy="55.2199" fill="#E2E2F0" rx="8" ry="8" style="stroke:#181818;stroke-width:0.5;"/><path d="M105.5,63.2199 L105.5,90.2199 M92.5,71.2199 L118.5,71.2199 M105.5,90.2199 L92.5,105.2199 M105.5,90.2199 L118.5,105.2199 " fill="none" style="stroke:#181818;stroke-width:0.5;"/><text fill="#000000" font-family="sans-serif" font-size="20" lengthAdjust="spacing" textLength="165" x="20" y="1195.5792">Campus Manager</text><ellipse cx="105.5" cy="1209.9392" fill="#E2E2F0" rx="8" ry="8" style="stroke:#181818;stroke-width:0.5;"/><path d="M105.5,1217.9392 L105.5,1244.9392 M92.5,1225.9392 L118.5,1225.9392 M105.5,1244.9392 L92.5,1259.9392 M105.5,1244.9392 L118.5,1259.9392 " fill="none" style="stroke:#181818;stroke-width:0.5;"/><rect fill="#E2E2F0" height="68.4799" rx="2.5" ry="2.5" style="stroke:#181818;stroke-width:0.5;" width="151" x="632.25" y="64.4799"/><text fill="#000000" font-family="sans-serif" font-size="20" font-style="italic" lengthAdjust="spacing" textLength="122" x="646.75" y="92.8599">«component»</text><text fill="#000000" font-family="sans-serif" font-size="20" lengthAdjust="spacing" textLength="137" x="639.25" y="120.0999">UI Component</text><rect fill="#E2E2F0" height="68.4799" rx="2.5" ry="2.5" style="stroke:#181818;stroke-width:0.5;" width="151" x="632.25" y="1174.1992"/><text fill="#000000" font-family="sans-serif" font-size="20" font-style="italic" lengthAdjust="spacing" textLength="122" x="646.75" y="1202.5792">«component»</text><text fill="#000000" font-family="sans-serif" font-size="20" lengthAdjust="spacing" textLength="137" x="639.25" y="1229.8192">UI Component</text><rect fill="#E2E2F0" height="68.4799" rx="2.5" ry="2.5" style="stroke:#181818;stroke-width:0.5;" width="136" x="988.375" y="64.4799"/><text fill="#000000" font-family="sans-serif" font-size="20" font-style="italic" lengthAdjust="spacing" textLength="122" x="995.375" y="92.8599">«component»</text><text fill="#000000" font-family="sans-serif" font-size="20" lengthAdjust="spacing" textLength="70" x="1021.375" y="120.0999">Module</text><rect fill="#E2E2F0" height="68.4799" rx="2.5" ry="2.5" style="stroke:#181818;stroke-width:0.5;" width="136" x="988.375" y="1174.1992"/><text fill="#000000" font-family="sans-serif" font-size="20" font-style="italic" lengthAdjust="spacing" textLength="122" x="995.375" y="1202.5792">«component»</text><text fill="#000000" font-family="sans-serif" font-size="20" lengthAdjust="spacing" textLength="70" x="1021.375" y="1229.8192">Module</text><rect fill="#E2E2F0" height="68.4799" rx="2.5" ry="2.5" style="stroke:#181818;stroke-width:0.5;" width="136" x="1526" y="64.4799"/><text fill="#000000" font-family="sans-serif" font-size="20" font-style="italic" lengthAdjust="spacing" textLength="122" x="1533" y="92.8599">«component»</text><text fill="#000000" font-family="sans-serif" font-size="20" lengthAdjust="spacing" textLength="66" x="1561" y="120.0999">Service</text><rect fill="#E2E2F0" height="68.4799" rx="2.5" ry="2.5" style="stroke:#181818;stroke-width:0.5;" width="136" x="1526" y="1174.1992"/><text fill="#000000" font-family="sans-serif" font-size="20" font-style="italic" lengthAdjust="spacing" textLength="122" x="1533" y="1202.5792">«component»</text><text fill="#000000" font-family="sans-serif" font-size="20" lengthAdjust="spacing" textLength="66" x="1561" y="1229.8192">Service</text><rect fill="#E2E2F0" height="68.4799" rx="2.5" ry="2.5" style="stroke:#181818;stroke-width:0.5;" width="136" x="1811.25" y="64.4799"/><text fill="#000000" font-family="sans-serif" font-size="20" font-style="italic" lengthAdjust="spacing" textLength="122" x="1818.25" y="92.8599">«component»</text><text fill="#000000" font-family="sans-serif" font-size="20" lengthAdjust="spacing" textLength="49" x="1854.75" y="120.0999">HTTP</text><rect fill="#E2E2F0" height="68.4799" rx="2.5" ry="2.5" style="stroke:#181818;stroke-width:0.5;" width="136" x="1811.25" y="1174.1992"/><text fill="#000000" font-family="sans-serif" font-size="20" font-style="italic" lengthAdjust="spacing" textLength="122" x="1818.25" y="1202.5792">«component»</text><text fill="#000000" font-family="sans-serif" font-size="20" lengthAdjust="spacing" textLength="49" x="1854.75" y="1229.8192">HTTP</text><rect fill="#E2E2F0" height="68.4799" rx="2.5" ry="2.5" style="stroke:#181818;stroke-width:0.5;" width="136" x="2513.625" y="64.4799"/><text fill="#000000" font-family="sans-serif" font-size="20" font-style="italic" lengthAdjust="spacing" textLength="122" x="2520.625" y="92.8599">«component»</text><text fill="#000000" font-family="sans-serif" font-size="20" lengthAdjust="spacing" textLength="54" x="2554.625" y="120.0999">Route</text><rect fill="#E2E2F0" height="68.4799" rx="2.5" ry="2.5" style="stroke:#181818;stroke-width:0.5;" width="136" x="2513.625" y="1174.1992"/><text fill="#000000" font-family="sans-serif" font-size="20" font-style="italic" lengthAdjust="spacing" textLength="122" x="2520.625" y="1202.5792">«component»</text><text fill="#000000" font-family="sans-serif" font-size="20" lengthAdjust="spacing" textLength="54" x="2554.625" y="1229.8192">Route</text><rect fill="#FFFFFF" height="1021.2393" style="stroke:#181818;stroke-width:1.0;" width="10" x="100.5" y="143.9599"/><rect fill="#FFFFFF" height="41.24" style="stroke:#181818;stroke-width:1.0;" width="10" x="702.75" y="177.1999"/><rect fill="#FFFFFF" height="906.5194" style="stroke:#181818;stroke-width:1.0;" width="10" x="702.75" y="259.6798"/><rect fill="#FFFFFF" height="337.1598" style="stroke:#181818;stroke-width:1.0;" width="10" x="1051.375" y="300.9198"/><rect fill="#FFFFFF" height="194.1999" style="stroke:#181818;stroke-width:1.0;" width="10" x="1051.375" y="679.3195"/><rect fill="#FFFFFF" height="194.1999" style="stroke:#181818;stroke-width:1.0;" width="10" x="1051.375" y="914.7594"/><rect fill="#FFFFFF" height="254.6798" style="stroke:#181818;stroke-width:1.0;" width="10" x="1589" y="342.1598"/><rect fill="#FFFFFF" height="152.9599" style="stroke:#181818;stroke-width:1.0;" width="10" x="1589" y="679.3195"/><rect fill="#FFFFFF" height="152.9599" style="stroke:#181818;stroke-width:1.0;" width="10" x="1589" y="914.7594"/><rect fill="#FFFFFF" height="172.1999" style="stroke:#181818;stroke-width:1.0;" width="10" x="1874.25" y="383.3997"/><rect fill="#FFFFFF" height="111.7199" style="stroke:#181818;stroke-width:1.0;" width="10" x="1874.25" y="679.3195"/><rect fill="#FFFFFF" height="111.7199" style="stroke:#181818;stroke-width:1.0;" width="10" x="1874.25" y="914.7594"/><rect fill="#FFFFFF" height="89.7199" style="stroke:#181818;stroke-width:1.0;" width="10" x="2576.625" y="424.6397"/><rect fill="#FFFFFF" height="70.4799" style="stroke:#181818;stroke-width:1.0;" width="10" x="2576.625" y="679.3195"/><rect fill="#FFFFFF" height="70.4799" style="stroke:#181818;stroke-width:1.0;" width="10" x="2576.625" y="914.7594"/><polygon fill="#181818" points="690.75,173.1999,700.75,177.1999,690.75,181.1999,694.75,177.1999" style="stroke:#181818;stroke-width:1.0;"/><line style="stroke:#181818;stroke-width:1.0;" x1="110.5" x2="696.75" y1="177.1999" y2="177.1999"/><text fill="#000000" font-family="sans-serif" font-size="20" font-weight="bold" lengthAdjust="spacing" textLength="11.625" x="117.5" y="169.3399">1</text><text fill="#000000" font-family="sans-serif" font-size="20" lengthAdjust="spacing" textLength="412" x="133.125" y="169.3399">wants to list connectors between 2 buildings</text><polygon fill="#181818" points="121.5,214.4398,111.5,218.4398,121.5,222.4398,117.5,218.4398" style="stroke:#181818;stroke-width:1.0;"/><line style="stroke:#181818;stroke-width:1.0;stroke-dasharray:2.0,2.0;" x1="115.5" x2="706.75" y1="218.4398" y2="218.4398"/><text fill="#000000" font-family="sans-serif" font-size="20" font-weight="bold" lengthAdjust="spacing" textLength="11.625" x="127.5" y="210.5799">2</text><text fill="#000000" font-family="sans-serif" font-size="20" lengthAdjust="spacing" textLength="311" x="143.125" y="210.5799">asks for the buildings 1 &amp; 2 codes</text><polygon fill="#181818" points="690.75,255.6798,700.75,259.6798,690.75,263.6798,694.75,259.6798" style="stroke:#181818;stroke-width:1.0;"/><line style="stroke:#181818;stroke-width:1.0;" x1="110.5" x2="696.75" y1="259.6798" y2="259.6798"/><text fill="#000000" font-family="sans-serif" font-size="20" font-weight="bold" lengthAdjust="spacing" textLength="11.625" x="117.5" y="251.8198">3</text><text fill="#000000" font-family="sans-serif" font-size="20" lengthAdjust="spacing" textLength="144" x="133.125" y="251.8198">inserts the data</text><polygon fill="#181818" points="1039.375,296.9198,1049.375,300.9198,1039.375,304.9198,1043.375,300.9198" style="stroke:#181818;stroke-width:1.0;"/><line style="stroke:#181818;stroke-width:1.0;" x1="712.75" x2="1045.375" y1="300.9198" y2="300.9198"/><text fill="#000000" font-family="sans-serif" font-size="20" font-weight="bold" lengthAdjust="spacing" textLength="11.625" x="719.75" y="293.0598">4</text><text fill="#000000" font-family="sans-serif" font-size="20" lengthAdjust="spacing" textLength="304" x="735.375" y="293.0598">getConnectorsBetweenBuildings</text><polygon fill="#181818" points="1577,338.1598,1587,342.1598,1577,346.1598,1581,342.1598" style="stroke:#181818;stroke-width:1.0;"/><line style="stroke:#181818;stroke-width:1.0;" x1="1061.375" x2="1583" y1="342.1598" y2="342.1598"/><text fill="#000000" font-family="sans-serif" font-size="20" font-weight="bold" lengthAdjust="spacing" textLength="11.625" x="1068.375" y="334.2998">5</text><text fill="#000000" font-family="sans-serif" font-size="20" lengthAdjust="spacing" textLength="493" x="1084" y="334.2998">getConnectorsBetweenBuildings(building1,building2)</text><polygon fill="#181818" points="1862.25,379.3997,1872.25,383.3997,1862.25,387.3997,1866.25,383.3997" style="stroke:#181818;stroke-width:1.0;"/><line style="stroke:#181818;stroke-width:1.0;" x1="1599" x2="1868.25" y1="383.3997" y2="383.3997"/><text fill="#000000" font-family="sans-serif" font-size="20" font-weight="bold" lengthAdjust="spacing" textLength="11.625" x="1606" y="375.5398">6</text><text fill="#000000" font-family="sans-serif" font-size="20" lengthAdjust="spacing" textLength="67" x="1621.625" y="375.5398">get(url)</text><polygon fill="#181818" points="2564.625,420.6397,2574.625,424.6397,2564.625,428.6397,2568.625,424.6397" style="stroke:#181818;stroke-width:1.0;"/><line style="stroke:#181818;stroke-width:1.0;" x1="1884.25" x2="2570.625" y1="424.6397" y2="424.6397"/><text fill="#000000" font-family="sans-serif" font-size="20" font-weight="bold" lengthAdjust="spacing" textLength="11.625" x="1891.25" y="416.7797">7</text><text fill="#000000" font-family="sans-serif" font-size="20" lengthAdjust="spacing" textLength="637" x="1906.875" y="416.7797">GET /connectors?buildingCodes[]={code1}&amp;buildingCodes[]={code2}</text><path d="M10,439.6397 L79.875,439.6397 L79.875,458.8797 L69.875,468.8797 L10,468.8797 L10,439.6397 " fill="#EEEEEE" style="stroke:#000000;stroke-width:1.5;"/><rect fill="none" height="718.5595" style="stroke:#000000;stroke-width:1.5;" width="2649.625" x="10" y="439.6397"/><text fill="#000000" font-family="sans-serif" font-size="20" font-weight="bold" lengthAdjust="spacing" textLength="24.875" x="25" y="462.0197">alt</text><text fill="#000000" font-family="sans-serif" font-size="20" font-weight="bold" lengthAdjust="spacing" textLength="464.625" x="94.875" y="463.0197">[there are connectors between those buildings]</text><polygon fill="#181818" points="1895.25,510.3596,1885.25,514.3596,1895.25,518.3596,1891.25,514.3596" style="stroke:#181818;stroke-width:1.0;"/><line style="stroke:#181818;stroke-width:1.0;stroke-dasharray:2.0,2.0;" x1="1889.25" x2="2580.625" y1="514.3596" y2="514.3596"/><text fill="#000000" font-family="sans-serif" font-size="20" font-weight="bold" lengthAdjust="spacing" textLength="11.625" x="1901.25" y="506.4997">8</text><text fill="#000000" font-family="sans-serif" font-size="20" lengthAdjust="spacing" textLength="66" x="1916.875" y="506.4997">200 OK</text><polygon fill="#181818" points="1610,551.5996,1600,555.5996,1610,559.5996,1606,555.5996" style="stroke:#181818;stroke-width:1.0;"/><line style="stroke:#181818;stroke-width:1.0;stroke-dasharray:2.0,2.0;" x1="1604" x2="1878.25" y1="555.5996" y2="555.5996"/><text fill="#000000" font-family="sans-serif" font-size="20" font-weight="bold" lengthAdjust="spacing" textLength="11.625" x="1616" y="547.7396">9</text><text fill="#000000" font-family="sans-serif" font-size="20" lengthAdjust="spacing" textLength="160" x="1631.625" y="547.7396">list of connectors</text><polygon fill="#181818" points="1072.375,592.8396,1062.375,596.8396,1072.375,600.8396,1068.375,596.8396" style="stroke:#181818;stroke-width:1.0;"/><line style="stroke:#181818;stroke-width:1.0;stroke-dasharray:2.0,2.0;" x1="1066.375" x2="1593" y1="596.8396" y2="596.8396"/><text fill="#000000" font-family="sans-serif" font-size="20" font-weight="bold" lengthAdjust="spacing" textLength="23.25" x="1078.375" y="588.9796">10</text><text fill="#000000" font-family="sans-serif" font-size="20" lengthAdjust="spacing" textLength="160" x="1105.625" y="588.9796">list of connectors</text><polygon fill="#181818" points="723.75,634.0796,713.75,638.0796,723.75,642.0796,719.75,638.0796" style="stroke:#181818;stroke-width:1.0;"/><line style="stroke:#181818;stroke-width:1.0;stroke-dasharray:2.0,2.0;" x1="717.75" x2="1055.375" y1="638.0796" y2="638.0796"/><text fill="#000000" font-family="sans-serif" font-size="20" font-weight="bold" lengthAdjust="spacing" textLength="23.25" x="729.75" y="630.2196">11</text><text fill="#000000" font-family="sans-serif" font-size="20" lengthAdjust="spacing" textLength="160" x="757" y="630.2196">list of connectors</text><polygon fill="#181818" points="121.5,675.3195,111.5,679.3195,121.5,683.3195,117.5,679.3195" style="stroke:#181818;stroke-width:1.0;"/><line style="stroke:#181818;stroke-width:1.0;stroke-dasharray:2.0,2.0;" x1="115.5" x2="701.75" y1="679.3195" y2="679.3195"/><text fill="#000000" font-family="sans-serif" font-size="20" font-weight="bold" lengthAdjust="spacing" textLength="23.25" x="127.5" y="671.4596">12</text><text fill="#000000" font-family="sans-serif" font-size="20" lengthAdjust="spacing" textLength="127" x="154.75" y="671.4596">shows the list</text><line style="stroke:#000000;stroke-width:1.0;stroke-dasharray:2.0,2.0;" x1="10" x2="2659.625" y1="688.3195" y2="688.3195"/><text fill="#000000" font-family="sans-serif" font-size="20" font-weight="bold" lengthAdjust="spacing" textLength="306.875" x="15" y="709.6995">[a building code does not exist]</text><polygon fill="#181818" points="1895.25,745.7995,1885.25,749.7995,1895.25,753.7995,1891.25,749.7995" style="stroke:#181818;stroke-width:1.0;"/><line style="stroke:#181818;stroke-width:1.0;stroke-dasharray:2.0,2.0;" x1="1889.25" x2="2580.625" y1="749.7995" y2="749.7995"/><text fill="#000000" font-family="sans-serif" font-size="20" font-weight="bold" lengthAdjust="spacing" textLength="23.25" x="1901.25" y="741.9395">13</text><text fill="#000000" font-family="sans-serif" font-size="20" lengthAdjust="spacing" textLength="154" x="1928.5" y="741.9395">400 Bad Request</text><polygon fill="#181818" points="1610,787.0395,1600,791.0395,1610,795.0395,1606,791.0395" style="stroke:#181818;stroke-width:1.0;"/><line style="stroke:#181818;stroke-width:1.0;stroke-dasharray:2.0,2.0;" x1="1604" x2="1878.25" y1="791.0395" y2="791.0395"/><text fill="#000000" font-family="sans-serif" font-size="20" font-weight="bold" lengthAdjust="spacing" textLength="23.25" x="1616" y="783.1795">14</text><text fill="#000000" font-family="sans-serif" font-size="20" lengthAdjust="spacing" textLength="47" x="1643.25" y="783.1795">error</text><polygon fill="#181818" points="1072.375,828.2794,1062.375,832.2794,1072.375,836.2794,1068.375,832.2794" style="stroke:#181818;stroke-width:1.0;"/><line style="stroke:#181818;stroke-width:1.0;stroke-dasharray:2.0,2.0;" x1="1066.375" x2="1593" y1="832.2794" y2="832.2794"/><text fill="#000000" font-family="sans-serif" font-size="20" font-weight="bold" lengthAdjust="spacing" textLength="23.25" x="1078.375" y="824.4195">15</text><text fill="#000000" font-family="sans-serif" font-size="20" lengthAdjust="spacing" textLength="47" x="1105.625" y="824.4195">error</text><polygon fill="#181818" points="723.75,869.5194,713.75,873.5194,723.75,877.5194,719.75,873.5194" style="stroke:#181818;stroke-width:1.0;"/><line style="stroke:#181818;stroke-width:1.0;stroke-dasharray:2.0,2.0;" x1="717.75" x2="1055.375" y1="873.5194" y2="873.5194"/><text fill="#000000" font-family="sans-serif" font-size="20" font-weight="bold" lengthAdjust="spacing" textLength="23.25" x="729.75" y="865.6594">16</text><text fill="#000000" font-family="sans-serif" font-size="20" lengthAdjust="spacing" textLength="47" x="757" y="865.6594">error</text><polygon fill="#181818" points="121.5,910.7594,111.5,914.7594,121.5,918.7594,117.5,914.7594" style="stroke:#181818;stroke-width:1.0;"/><line style="stroke:#181818;stroke-width:1.0;stroke-dasharray:2.0,2.0;" x1="115.5" x2="701.75" y1="914.7594" y2="914.7594"/><text fill="#000000" font-family="sans-serif" font-size="20" font-weight="bold" lengthAdjust="spacing" textLength="23.25" x="127.5" y="906.8994">17</text><text fill="#000000" font-family="sans-serif" font-size="20" lengthAdjust="spacing" textLength="541" x="154.75" y="906.8994">shows error message "One/both buildings does not exist."</text><line style="stroke:#000000;stroke-width:1.0;stroke-dasharray:2.0,2.0;" x1="10" x2="2659.625" y1="923.7594" y2="923.7594"/><text fill="#000000" font-family="sans-serif" font-size="20" font-weight="bold" lengthAdjust="spacing" textLength="502.5" x="15" y="945.1394">[there are not connectors between those buildings]</text><polygon fill="#181818" points="1895.25,981.2393,1885.25,985.2393,1895.25,989.2393,1891.25,985.2393" style="stroke:#181818;stroke-width:1.0;"/><line style="stroke:#181818;stroke-width:1.0;stroke-dasharray:2.0,2.0;" x1="1889.25" x2="2580.625" y1="985.2393" y2="985.2393"/><text fill="#000000" font-family="sans-serif" font-size="20" font-weight="bold" lengthAdjust="spacing" textLength="23.25" x="1901.25" y="977.3794">18</text><text fill="#000000" font-family="sans-serif" font-size="20" lengthAdjust="spacing" textLength="66" x="1928.5" y="977.3794">200 OK</text><polygon fill="#181818" points="1610,1022.4793,1600,1026.4793,1610,1030.4793,1606,1026.4793" style="stroke:#181818;stroke-width:1.0;"/><line style="stroke:#181818;stroke-width:1.0;stroke-dasharray:2.0,2.0;" x1="1604" x2="1878.25" y1="1026.4793" y2="1026.4793"/><text fill="#000000" font-family="sans-serif" font-size="20" font-weight="bold" lengthAdjust="spacing" textLength="23.25" x="1616" y="1018.6193">19</text><text fill="#000000" font-family="sans-serif" font-size="20" lengthAdjust="spacing" textLength="224" x="1643.25" y="1018.6193">empty list of connectors</text><polygon fill="#181818" points="1072.375,1063.7193,1062.375,1067.7193,1072.375,1071.7193,1068.375,1067.7193" style="stroke:#181818;stroke-width:1.0;"/><line style="stroke:#181818;stroke-width:1.0;stroke-dasharray:2.0,2.0;" x1="1066.375" x2="1593" y1="1067.7193" y2="1067.7193"/><text fill="#000000" font-family="sans-serif" font-size="20" font-weight="bold" lengthAdjust="spacing" textLength="23.25" x="1078.375" y="1059.8593">20</text><text fill="#000000" font-family="sans-serif" font-size="20" lengthAdjust="spacing" textLength="224" x="1105.625" y="1059.8593">empty list of connectors</text><polygon fill="#181818" points="723.75,1104.9593,713.75,1108.9593,723.75,1112.9593,719.75,1108.9593" style="stroke:#181818;stroke-width:1.0;"/><line style="stroke:#181818;stroke-width:1.0;stroke-dasharray:2.0,2.0;" x1="717.75" x2="1055.375" y1="1108.9593" y2="1108.9593"/><text fill="#000000" font-family="sans-serif" font-size="20" font-weight="bold" lengthAdjust="spacing" textLength="23.25" x="729.75" y="1101.0993">21</text><text fill="#000000" font-family="sans-serif" font-size="20" lengthAdjust="spacing" textLength="224" x="757" y="1101.0993">empty list of connectors</text><polygon fill="#181818" points="121.5,1146.1992,111.5,1150.1992,121.5,1154.1992,117.5,1150.1992" style="stroke:#181818;stroke-width:1.0;"/><line style="stroke:#181818;stroke-width:1.0;stroke-dasharray:2.0,2.0;" x1="115.5" x2="701.75" y1="1150.1992" y2="1150.1992"/><text fill="#000000" font-family="sans-serif" font-size="20" font-weight="bold" lengthAdjust="spacing" textLength="23.25" x="127.5" y="1142.3393">22</text><text fill="#000000" font-family="sans-serif" font-size="20" lengthAdjust="spacing" textLength="415" x="154.75" y="1142.3393">shows message "Could not find connectors."</text><!--SRC=[hPJFRjD04CRl-nIZ85MjH6WRzLIL8EeMZC0AIjDA23Xix4cowdetxAwRjAXFn2DmwvCnkqvYvmzDa3WayjhVV3Fpcx7jhL1ZRdWkTNgB6MGuu8LqxxHoL-81eNN4UE6qAl8-6cRdQhWeTJsSkhTI35MEofsTfVIFfjs6ye8ndZfj84g0MsX4F1yN5XAk-11DWx6-daBZwLTAoRXGQ60_EZbu-lrDtGXRS2aUk1DQDQ0oPW2KtubKZBbo40NVwmyGwNoi5Oc2U7vOqvTr93eh93wllBeflQ_Gt8bqYpWEqhZN-xogGvK1TVbCgv1Sp8XuX51lziKdCHovBoYbdgnax7QkUvSXQrSN3l-QblYBE-wGHi0OZQ7P9cQdC24F2qw35DO15QNG3yf27zq4KK4B-eMGcL13M_C85cVDPl3WzjR2WARhHbYfuHZsA3hL6LgMuKhiBBrG5eqlW28pxlXo2gzAI3L45oqgEoyBEr-lYXeBndvYMuBsvsKUlvnVjGug9t9WpDkGMrnwxHT6rXGnOx5_Mk8_XVUNFJYiyBsPkqQ-_Q_VN__q78uVzpRURprMni6GnYMTXs8GEFqspCMDjAtHfgs8mq3c1RMEZg3paMxNqC-y8H3oOjzR6BmUr78i1yK-e1ns2NPRG807K6P8TWX8WhpQ9plIat8bV2H3IOtoHQjXeo3JQ45f1pZr6e1QlRL3KZ_umch71OrbS2S4xfndqCKV1GRhRGJH66ssGDkWMUEqGRCPJH12ZjRInm8Q7OM7VUr6jNTl6S-hHWcnMYZ_QAUb-czOTzv7pCVk_j-tShUmTUOxXMqUms80aIva5fWE17rlAnSFNcLiwVENi3y0]--></g></svg>