<?xml version="1.0" encoding="UTF-8" standalone="no"?><svg xmlns="http://www.w3.org/2000/svg" xmlns:xlink="http://www.w3.org/1999/xlink" contentStyleType="text/css" height="600px" preserveAspectRatio="none" style="width:2493px;height:600px;background:#FFFFFF;" version="1.1" viewBox="0 0 2493 600" width="2493px" zoomAndPan="magnify"><defs/><g><rect fill="#FFFFFF" height="457.6563" style="stroke:#181818;stroke-width:1.0;" width="10" x="665" y="82.5625"/><rect fill="#FFFFFF" height="383.0938" style="stroke:#181818;stroke-width:1.0;" width="10" x="1112" y="119.8438"/><rect fill="#FFFFFF" height="308.5313" style="stroke:#181818;stroke-width:1.0;" width="10" x="1559" y="157.125"/><rect fill="#FFFFFF" height="37.2813" style="stroke:#181818;stroke-width:1.0;" width="10" x="2115" y="194.4063"/><rect fill="#FFFFFF" height="111.8438" style="stroke:#181818;stroke-width:1.0;" width="10" x="2270" y="309.5313"/><rect fill="#FFFFFF" height="37.2813" style="stroke:#181818;stroke-width:1.0;" width="10" x="2415" y="346.8125"/><rect fill="none" height="182.6875" style="stroke:#000000;stroke-width:1.5;" width="1005" x="1482" y="246.6875"/><line style="stroke:#181818;stroke-width:0.5;stroke-dasharray:5.0,5.0;" x1="670" x2="670" y1="43.2813" y2="558.2188"/><line style="stroke:#181818;stroke-width:0.5;stroke-dasharray:5.0,5.0;" x1="1117" x2="1117" y1="43.2813" y2="558.2188"/><line style="stroke:#181818;stroke-width:0.5;stroke-dasharray:5.0,5.0;" x1="1564" x2="1564" y1="43.2813" y2="558.2188"/><line style="stroke:#181818;stroke-width:0.5;stroke-dasharray:5.0,5.0;" x1="1681" x2="1681" y1="43.2813" y2="558.2188"/><line style="stroke:#181818;stroke-width:0.5;stroke-dasharray:5.0,5.0;" x1="2119.5" x2="2119.5" y1="43.2813" y2="558.2188"/><line style="stroke:#181818;stroke-width:0.5;stroke-dasharray:5.0,5.0;" x1="2274.5" x2="2274.5" y1="43.2813" y2="558.2188"/><line style="stroke:#181818;stroke-width:0.5;stroke-dasharray:5.0,5.0;" x1="2420" x2="2420" y1="43.2813" y2="558.2188"/><rect fill="#E2E2F0" height="37.2813" rx="2.5" ry="2.5" style="stroke:#181818;stroke-width:0.5;" width="130" x="605" y="5"/><text fill="#000000" font-family="sans-serif" font-size="20" lengthAdjust="spacing" textLength="116" x="612" y="30.5645">:FloorRoute</text><rect fill="#E2E2F0" height="37.2813" rx="2.5" ry="2.5" style="stroke:#181818;stroke-width:0.5;" width="130" x="605" y="557.2188"/><text fill="#000000" font-family="sans-serif" font-size="20" lengthAdjust="spacing" textLength="116" x="612" y="582.7832">:FloorRoute</text><rect fill="#E2E2F0" height="37.2813" rx="2.5" ry="2.5" style="stroke:#181818;stroke-width:0.5;" width="170" x="1032" y="5"/><text fill="#000000" font-family="sans-serif" font-size="20" lengthAdjust="spacing" textLength="156" x="1039" y="30.5645">:FloorController</text><rect fill="#E2E2F0" height="37.2813" rx="2.5" ry="2.5" style="stroke:#181818;stroke-width:0.5;" width="170" x="1032" y="557.2188"/><text fill="#000000" font-family="sans-serif" font-size="20" lengthAdjust="spacing" textLength="156" x="1039" y="582.7832">:FloorController</text><rect fill="#E2E2F0" height="37.2813" rx="2.5" ry="2.5" style="stroke:#181818;stroke-width:0.5;" width="144" x="1492" y="5"/><text fill="#000000" font-family="sans-serif" font-size="20" lengthAdjust="spacing" textLength="130" x="1499" y="30.5645">:FloorService</text><rect fill="#E2E2F0" height="37.2813" rx="2.5" ry="2.5" style="stroke:#181818;stroke-width:0.5;" width="144" x="1492" y="557.2188"/><text fill="#000000" font-family="sans-serif" font-size="20" lengthAdjust="spacing" textLength="130" x="1499" y="582.7832">:FloorService</text><rect fill="#E2E2F0" height="37.2813" rx="2.5" ry="2.5" style="stroke:#181818;stroke-width:0.5;" width="71" x="1646" y="5"/><text fill="#000000" font-family="sans-serif" font-size="20" lengthAdjust="spacing" textLength="57" x="1653" y="30.5645">:Floor</text><rect fill="#E2E2F0" height="37.2813" rx="2.5" ry="2.5" style="stroke:#181818;stroke-width:0.5;" width="71" x="1646" y="557.2188"/><text fill="#000000" font-family="sans-serif" font-size="20" lengthAdjust="spacing" textLength="57" x="1653" y="582.7832">:Floor</text><rect fill="#E2E2F0" height="37.2813" rx="2.5" ry="2.5" style="stroke:#181818;stroke-width:0.5;" width="177" x="2031.5" y="5"/><text fill="#000000" font-family="sans-serif" font-size="20" lengthAdjust="spacing" textLength="163" x="2038.5" y="30.5645">:FloorRepository</text><rect fill="#E2E2F0" height="37.2813" rx="2.5" ry="2.5" style="stroke:#181818;stroke-width:0.5;" width="177" x="2031.5" y="557.2188"/><text fill="#000000" font-family="sans-serif" font-size="20" lengthAdjust="spacing" textLength="163" x="2038.5" y="582.7832">:FloorRepository</text><rect fill="#E2E2F0" height="37.2813" rx="2.5" ry="2.5" style="stroke:#181818;stroke-width:0.5;" width="113" x="2218.5" y="5"/><text fill="#000000" font-family="sans-serif" font-size="20" lengthAdjust="spacing" textLength="99" x="2225.5" y="30.5645">:FloorMap</text><rect fill="#E2E2F0" height="37.2813" rx="2.5" ry="2.5" style="stroke:#181818;stroke-width:0.5;" width="113" x="2218.5" y="557.2188"/><text fill="#000000" font-family="sans-serif" font-size="20" lengthAdjust="spacing" textLength="99" x="2225.5" y="582.7832">:FloorMap</text><rect fill="#E2E2F0" height="37.2813" rx="2.5" ry="2.5" style="stroke:#181818;stroke-width:0.5;" width="114" x="2363" y="5"/><text fill="#000000" font-family="sans-serif" font-size="20" lengthAdjust="spacing" textLength="100" x="2370" y="30.5645">:FloorDTO</text><rect fill="#E2E2F0" height="37.2813" rx="2.5" ry="2.5" style="stroke:#181818;stroke-width:0.5;" width="114" x="2363" y="557.2188"/><text fill="#000000" font-family="sans-serif" font-size="20" lengthAdjust="spacing" textLength="100" x="2370" y="582.7832">:FloorDTO</text><rect fill="#FFFFFF" height="457.6563" style="stroke:#181818;stroke-width:1.0;" width="10" x="665" y="82.5625"/><rect fill="#FFFFFF" height="383.0938" style="stroke:#181818;stroke-width:1.0;" width="10" x="1112" y="119.8438"/><rect fill="#FFFFFF" height="308.5313" style="stroke:#181818;stroke-width:1.0;" width="10" x="1559" y="157.125"/><rect fill="#FFFFFF" height="37.2813" style="stroke:#181818;stroke-width:1.0;" width="10" x="2115" y="194.4063"/><rect fill="#FFFFFF" height="111.8438" style="stroke:#181818;stroke-width:1.0;" width="10" x="2270" y="309.5313"/><rect fill="#FFFFFF" height="37.2813" style="stroke:#181818;stroke-width:1.0;" width="10" x="2415" y="346.8125"/><ellipse cx="4.5" cy="81.8125" fill="none" rx="4" ry="4" style="stroke:#181818;stroke-width:1.5;"/><polygon fill="#181818" points="653,78.5625,663,82.5625,653,86.5625,657,82.5625" style="stroke:#181818;stroke-width:1.0;"/><line style="stroke:#181818;stroke-width:1.0;" x1="9" x2="659" y1="82.5625" y2="82.5625"/><text fill="#000000" font-family="sans-serif" font-size="20" font-weight="bold" lengthAdjust="spacing" textLength="14" x="12" y="75.8457">1</text><text fill="#000000" font-family="sans-serif" font-size="20" lengthAdjust="spacing" textLength="620" x="30" y="75.8457">GET /floors?buildingCode={buildingCode}&amp;filter=connectors</text><polygon fill="#181818" points="1100,115.8438,1110,119.8438,1100,123.8438,1104,119.8438" style="stroke:#181818;stroke-width:1.0;"/><line style="stroke:#181818;stroke-width:1.0;" x1="675" x2="1106" y1="119.8438" y2="119.8438"/><text fill="#000000" font-family="sans-serif" font-size="20" font-weight="bold" lengthAdjust="spacing" textLength="14" x="682" y="113.127">2</text><text fill="#000000" font-family="sans-serif" font-size="20" lengthAdjust="spacing" textLength="400" x="700" y="113.127">listFloorsWithConnectors(buildingCode)</text><polygon fill="#181818" points="1547,153.125,1557,157.125,1547,161.125,1551,157.125" style="stroke:#181818;stroke-width:1.0;"/><line style="stroke:#181818;stroke-width:1.0;" x1="1122" x2="1553" y1="157.125" y2="157.125"/><text fill="#000000" font-family="sans-serif" font-size="20" font-weight="bold" lengthAdjust="spacing" textLength="14" x="1129" y="150.4082">3</text><text fill="#000000" font-family="sans-serif" font-size="20" lengthAdjust="spacing" textLength="400" x="1147" y="150.4082">listFloorsWithConnectors(buildingCode)</text><polygon fill="#181818" points="2103,190.4063,2113,194.4063,2103,198.4063,2107,194.4063" style="stroke:#181818;stroke-width:1.0;"/><line style="stroke:#181818;stroke-width:1.0;" x1="1569" x2="2109" y1="194.4063" y2="194.4063"/><text fill="#000000" font-family="sans-serif" font-size="20" font-weight="bold" lengthAdjust="spacing" textLength="14" x="1576" y="187.6895">4</text><text fill="#000000" font-family="sans-serif" font-size="20" lengthAdjust="spacing" textLength="509" x="1594" y="187.6895">findByBuildingCodeWithConnectors(buildingCode)</text><polygon fill="#181818" points="1580,227.6875,1570,231.6875,1580,235.6875,1576,231.6875" style="stroke:#181818;stroke-width:1.0;"/><line style="stroke:#181818;stroke-width:1.0;stroke-dasharray:2.0,2.0;" x1="1574" x2="2119" y1="231.6875" y2="231.6875"/><text fill="#000000" font-family="sans-serif" font-size="20" font-weight="bold" lengthAdjust="spacing" textLength="14" x="1586" y="224.9707">5</text><text fill="#000000" font-family="sans-serif" font-size="20" lengthAdjust="spacing" textLength="66" x="1604" y="224.9707">Floor[]</text><path d="M1482,246.6875 L1576,246.6875 L1576,261.9688 L1566,271.9688 L1482,271.9688 L1482,246.6875 " fill="#EEEEEE" style="stroke:#000000;stroke-width:1.5;"/><rect fill="none" height="182.6875" style="stroke:#000000;stroke-width:1.5;" width="1005" x="1482" y="246.6875"/><text fill="#000000" font-family="sans-serif" font-size="20" font-weight="bold" lengthAdjust="spacing" textLength="49" x="1497" y="266.252">loop</text><text fill="#000000" font-family="sans-serif" font-size="20" font-weight="bold" lengthAdjust="spacing" textLength="173" x="1591" y="267.252">[for each floor]</text><polygon fill="#181818" points="2258,305.5313,2268,309.5313,2258,313.5313,2262,309.5313" style="stroke:#181818;stroke-width:1.0;"/><line style="stroke:#181818;stroke-width:1.0;" x1="1569" x2="2264" y1="309.5313" y2="309.5313"/><text fill="#000000" font-family="sans-serif" font-size="20" font-weight="bold" lengthAdjust="spacing" textLength="14" x="1576" y="302.8145">6</text><text fill="#000000" font-family="sans-serif" font-size="20" lengthAdjust="spacing" textLength="204" x="1594" y="302.8145">mapToDTOs(Floor[])</text><polygon fill="#181818" points="2403,342.8125,2413,346.8125,2403,350.8125,2407,346.8125" style="stroke:#181818;stroke-width:1.0;"/><line style="stroke:#181818;stroke-width:1.0;" x1="2280" x2="2409" y1="346.8125" y2="346.8125"/><text fill="#000000" font-family="sans-serif" font-size="20" font-weight="bold" lengthAdjust="spacing" textLength="14" x="2287" y="340.0957">7</text><text fill="#000000" font-family="sans-serif" font-size="20" lengthAdjust="spacing" textLength="79" x="2305" y="340.0957">create()</text><polygon fill="#181818" points="2291,380.0938,2281,384.0938,2291,388.0938,2287,384.0938" style="stroke:#181818;stroke-width:1.0;"/><line style="stroke:#181818;stroke-width:1.0;stroke-dasharray:2.0,2.0;" x1="2285" x2="2419" y1="384.0938" y2="384.0938"/><text fill="#000000" font-family="sans-serif" font-size="20" font-weight="bold" lengthAdjust="spacing" textLength="14" x="2297" y="377.377">8</text><text fill="#000000" font-family="sans-serif" font-size="20" lengthAdjust="spacing" textLength="93" x="2315" y="377.377">FloorDTO</text><polygon fill="#181818" points="1580,417.375,1570,421.375,1580,425.375,1576,421.375" style="stroke:#181818;stroke-width:1.0;"/><line style="stroke:#181818;stroke-width:1.0;stroke-dasharray:2.0,2.0;" x1="1574" x2="2274" y1="421.375" y2="421.375"/><text fill="#000000" font-family="sans-serif" font-size="20" font-weight="bold" lengthAdjust="spacing" textLength="14" x="1586" y="414.6582">9</text><text fill="#000000" font-family="sans-serif" font-size="20" lengthAdjust="spacing" textLength="109" x="1604" y="414.6582">FloorDTO[]</text><polygon fill="#181818" points="1133,461.6563,1123,465.6563,1133,469.6563,1129,465.6563" style="stroke:#181818;stroke-width:1.0;"/><line style="stroke:#181818;stroke-width:1.0;stroke-dasharray:2.0,2.0;" x1="1127" x2="1563" y1="465.6563" y2="465.6563"/><text fill="#000000" font-family="sans-serif" font-size="20" font-weight="bold" lengthAdjust="spacing" textLength="28" x="1139" y="458.9395">10</text><text fill="#000000" font-family="sans-serif" font-size="20" lengthAdjust="spacing" textLength="109" x="1171" y="458.9395">FloorDTO[]</text><polygon fill="#181818" points="686,498.9375,676,502.9375,686,506.9375,682,502.9375" style="stroke:#181818;stroke-width:1.0;"/><line style="stroke:#181818;stroke-width:1.0;stroke-dasharray:2.0,2.0;" x1="680" x2="1116" y1="502.9375" y2="502.9375"/><text fill="#000000" font-family="sans-serif" font-size="20" font-weight="bold" lengthAdjust="spacing" textLength="28" x="692" y="496.2207">11</text><text fill="#000000" font-family="sans-serif" font-size="20" lengthAdjust="spacing" textLength="109" x="724" y="496.2207">FloorDTO[]</text><polygon fill="#181818" points="11,536.2188,1,540.2188,11,544.2188,7,540.2188" style="stroke:#181818;stroke-width:1.0;"/><line style="stroke:#181818;stroke-width:1.0;stroke-dasharray:2.0,2.0;" x1="5" x2="669" y1="540.2188" y2="540.2188"/><text fill="#000000" font-family="sans-serif" font-size="20" font-weight="bold" lengthAdjust="spacing" textLength="28" x="17" y="533.502">12</text><text fill="#000000" font-family="sans-serif" font-size="20" lengthAdjust="spacing" textLength="296" x="49" y="533.502">200 OK (list of floors as JSON)</text><!--SRC=[bPDDJyCm38Rl-HNM3cWxL4mxLi34oeR4rwQjm05noDgKHUkIAacH0F7VITAkSz0anAbA_RwF7TlHMouggkYkbDcMvP2pWjQbcKbXLloJmMX8Q6sag7ThfWYnKiCpNb5XO3b_JAT0DVJYMIcbMihQi5uWITBb7L8abgfaMJ8LobPF2LAjc7hdsIyIJXH6bjF575V1AgcvaUeZbCtkBnT8Ta-hC7wLOeezzGWPo-YYlMOCrzCKJWiNrEDrpSkSYxT4vkpy2v- -JmfU6gRECoa4osmTcj3Cy7TgM8CY15gcXVi6nL1oRNnU_SpD9kciVOmUM6E7SaP7WWPXKQw9_o0XbdKsAF0GTsVNqnWABlB9nmGv_uGYh8FikHuOTLNw2bzUss3EZdgife92Ah3X3VZExqDTeNwgCUnebKexCzrloODEsA6TzE27nceHRl0nP8fPKN-019tJAh3H6Q93xls-80MwKE1jKePTi8Ak4O7JrzlyRJzCv6ZaPr5qd8COxMIRTNE6Tjy21zBxhRBvd7I_zwFX4EQtq7UR1R9e1g7TMxbPpHy614_Fx_SF]--></g></svg>