<?xml version="1.0" encoding="UTF-8" standalone="no"?><svg xmlns="http://www.w3.org/2000/svg" xmlns:xlink="http://www.w3.org/1999/xlink" contentStyleType="text/css" height="663px" preserveAspectRatio="none" style="width:2300px;height:663px;background:#FFFFFF;" version="1.1" viewBox="0 0 2300 663" width="2300px" zoomAndPan="magnify"><defs/><g><rect fill="#FFFFFF" height="509.1197" style="stroke:#181818;stroke-width:1.0;" width="10" x="600.625" y="90.4799"/><rect fill="#FFFFFF" height="426.6397" style="stroke:#181818;stroke-width:1.0;" width="10" x="1014.25" y="131.7199"/><rect fill="#FFFFFF" height="344.1598" style="stroke:#181818;stroke-width:1.0;" width="10" x="1427.875" y="172.9599"/><rect fill="#FFFFFF" height="41.24" style="stroke:#181818;stroke-width:1.0;" width="10" x="1940.5" y="214.1999"/><rect fill="#FFFFFF" height="123.7199" style="stroke:#181818;stroke-width:1.0;" width="10" x="2086.5" y="345.1598"/><rect fill="#FFFFFF" height="41.24" style="stroke:#181818;stroke-width:1.0;" width="10" x="2225.125" y="386.3997"/><rect fill="none" height="206.4398" style="stroke:#000000;stroke-width:1.5;" width="937.25" x="1356.875" y="270.4398"/><line style="stroke:#181818;stroke-width:0.5;stroke-dasharray:5.0,5.0;" x1="605.625" x2="605.625" y1="47.24" y2="617.5996"/><line style="stroke:#181818;stroke-width:0.5;stroke-dasharray:5.0,5.0;" x1="1018.75" x2="1018.75" y1="47.24" y2="617.5996"/><line style="stroke:#181818;stroke-width:0.5;stroke-dasharray:5.0,5.0;" x1="1432.875" x2="1432.875" y1="47.24" y2="617.5996"/><line style="stroke:#181818;stroke-width:0.5;stroke-dasharray:5.0,5.0;" x1="1541.875" x2="1541.875" y1="47.24" y2="617.5996"/><line style="stroke:#181818;stroke-width:0.5;stroke-dasharray:5.0,5.0;" x1="1945" x2="1945" y1="47.24" y2="617.5996"/><line style="stroke:#181818;stroke-width:0.5;stroke-dasharray:5.0,5.0;" x1="2091" x2="2091" y1="47.24" y2="617.5996"/><line style="stroke:#181818;stroke-width:0.5;stroke-dasharray:5.0,5.0;" x1="2230.125" x2="2230.125" y1="47.24" y2="617.5996"/><rect fill="#E2E2F0" height="41.24" rx="2.5" ry="2.5" style="stroke:#181818;stroke-width:0.5;" width="120" x="545.625" y="5"/><text fill="#000000" font-family="sans-serif" font-size="20" lengthAdjust="spacing" textLength="106" x="552.625" y="33.38">:FloorRoute</text><rect fill="#E2E2F0" height="41.24" rx="2.5" ry="2.5" style="stroke:#181818;stroke-width:0.5;" width="120" x="545.625" y="616.5996"/><text fill="#000000" font-family="sans-serif" font-size="20" lengthAdjust="spacing" textLength="106" x="552.625" y="644.9796">:FloorRoute</text><rect fill="#E2E2F0" height="41.24" rx="2.5" ry="2.5" style="stroke:#181818;stroke-width:0.5;" width="159" x="939.75" y="5"/><text fill="#000000" font-family="sans-serif" font-size="20" lengthAdjust="spacing" textLength="145" x="946.75" y="33.38">:FloorController</text><rect fill="#E2E2F0" height="41.24" rx="2.5" ry="2.5" style="stroke:#181818;stroke-width:0.5;" width="159" x="939.75" y="616.5996"/><text fill="#000000" font-family="sans-serif" font-size="20" lengthAdjust="spacing" textLength="145" x="946.75" y="644.9796">:FloorController</text><rect fill="#E2E2F0" height="41.24" rx="2.5" ry="2.5" style="stroke:#181818;stroke-width:0.5;" width="132" x="1366.875" y="5"/><text fill="#000000" font-family="sans-serif" font-size="20" lengthAdjust="spacing" textLength="118" x="1373.875" y="33.38">:FloorService</text><rect fill="#E2E2F0" height="41.24" rx="2.5" ry="2.5" style="stroke:#181818;stroke-width:0.5;" width="132" x="1366.875" y="616.5996"/><text fill="#000000" font-family="sans-serif" font-size="20" lengthAdjust="spacing" textLength="118" x="1373.875" y="644.9796">:FloorService</text><rect fill="#E2E2F0" height="41.24" rx="2.5" ry="2.5" style="stroke:#181818;stroke-width:0.5;" width="66" x="1508.875" y="5"/><text fill="#000000" font-family="sans-serif" font-size="20" lengthAdjust="spacing" textLength="52" x="1515.875" y="33.38">:Floor</text><rect fill="#E2E2F0" height="41.24" rx="2.5" ry="2.5" style="stroke:#181818;stroke-width:0.5;" width="66" x="1508.875" y="616.5996"/><text fill="#000000" font-family="sans-serif" font-size="20" lengthAdjust="spacing" textLength="52" x="1515.875" y="644.9796">:Floor</text><rect fill="#E2E2F0" height="41.24" rx="2.5" ry="2.5" style="stroke:#181818;stroke-width:0.5;" width="165" x="1863" y="5"/><text fill="#000000" font-family="sans-serif" font-size="20" lengthAdjust="spacing" textLength="151" x="1870" y="33.38">:FloorRepository</text><rect fill="#E2E2F0" height="41.24" rx="2.5" ry="2.5" style="stroke:#181818;stroke-width:0.5;" width="165" x="1863" y="616.5996"/><text fill="#000000" font-family="sans-serif" font-size="20" lengthAdjust="spacing" textLength="151" x="1870" y="644.9796">:FloorRepository</text><rect fill="#E2E2F0" height="41.24" rx="2.5" ry="2.5" style="stroke:#181818;stroke-width:0.5;" width="107" x="2038" y="5"/><text fill="#000000" font-family="sans-serif" font-size="20" lengthAdjust="spacing" textLength="93" x="2045" y="33.38">:FloorMap</text><rect fill="#E2E2F0" height="41.24" rx="2.5" ry="2.5" style="stroke:#181818;stroke-width:0.5;" width="107" x="2038" y="616.5996"/><text fill="#000000" font-family="sans-serif" font-size="20" lengthAdjust="spacing" textLength="93" x="2045" y="644.9796">:FloorMap</text><rect fill="#E2E2F0" height="41.24" rx="2.5" ry="2.5" style="stroke:#181818;stroke-width:0.5;" width="108" x="2176.125" y="5"/><text fill="#000000" font-family="sans-serif" font-size="20" lengthAdjust="spacing" textLength="94" x="2183.125" y="33.38">:FloorDTO</text><rect fill="#E2E2F0" height="41.24" rx="2.5" ry="2.5" style="stroke:#181818;stroke-width:0.5;" width="108" x="2176.125" y="616.5996"/><text fill="#000000" font-family="sans-serif" font-size="20" lengthAdjust="spacing" textLength="94" x="2183.125" y="644.9796">:FloorDTO</text><rect fill="#FFFFFF" height="509.1197" style="stroke:#181818;stroke-width:1.0;" width="10" x="600.625" y="90.4799"/><rect fill="#FFFFFF" height="426.6397" style="stroke:#181818;stroke-width:1.0;" width="10" x="1014.25" y="131.7199"/><rect fill="#FFFFFF" height="344.1598" style="stroke:#181818;stroke-width:1.0;" width="10" x="1427.875" y="172.9599"/><rect fill="#FFFFFF" height="41.24" style="stroke:#181818;stroke-width:1.0;" width="10" x="1940.5" y="214.1999"/><rect fill="#FFFFFF" height="123.7199" style="stroke:#181818;stroke-width:1.0;" width="10" x="2086.5" y="345.1598"/><rect fill="#FFFFFF" height="41.24" style="stroke:#181818;stroke-width:1.0;" width="10" x="2225.125" y="386.3997"/><ellipse cx="4.5" cy="89.7299" fill="none" rx="4" ry="4" style="stroke:#181818;stroke-width:1.5;"/><polygon fill="#181818" points="588.625,86.4799,598.625,90.4799,588.625,94.4799,592.625,90.4799" style="stroke:#181818;stroke-width:1.0;"/><line style="stroke:#181818;stroke-width:1.0;" x1="9" x2="594.625" y1="90.4799" y2="90.4799"/><text fill="#000000" font-family="sans-serif" font-size="20" font-weight="bold" lengthAdjust="spacing" textLength="11.625" x="12" y="82.62">1</text><text fill="#000000" font-family="sans-serif" font-size="20" lengthAdjust="spacing" textLength="558" x="27.625" y="82.62">GET /floors?buildingCode={buildingCode}&amp;filter=connectors</text><polygon fill="#181818" points="1002.25,127.7199,1012.25,131.7199,1002.25,135.7199,1006.25,131.7199" style="stroke:#181818;stroke-width:1.0;"/><line style="stroke:#181818;stroke-width:1.0;" x1="610.625" x2="1008.25" y1="131.7199" y2="131.7199"/><text fill="#000000" font-family="sans-serif" font-size="20" font-weight="bold" lengthAdjust="spacing" textLength="11.625" x="617.625" y="123.8599">2</text><text fill="#000000" font-family="sans-serif" font-size="20" lengthAdjust="spacing" textLength="369" x="633.25" y="123.8599">listFloorsWithConnectors(buildingCode)</text><polygon fill="#181818" points="1415.875,168.9599,1425.875,172.9599,1415.875,176.9599,1419.875,172.9599" style="stroke:#181818;stroke-width:1.0;"/><line style="stroke:#181818;stroke-width:1.0;" x1="1024.25" x2="1421.875" y1="172.9599" y2="172.9599"/><text fill="#000000" font-family="sans-serif" font-size="20" font-weight="bold" lengthAdjust="spacing" textLength="11.625" x="1031.25" y="165.0999">3</text><text fill="#000000" font-family="sans-serif" font-size="20" lengthAdjust="spacing" textLength="369" x="1046.875" y="165.0999">listFloorsWithConnectors(buildingCode)</text><polygon fill="#181818" points="1928.5,210.1999,1938.5,214.1999,1928.5,218.1999,1932.5,214.1999" style="stroke:#181818;stroke-width:1.0;"/><line style="stroke:#181818;stroke-width:1.0;" x1="1437.875" x2="1934.5" y1="214.1999" y2="214.1999"/><text fill="#000000" font-family="sans-serif" font-size="20" font-weight="bold" lengthAdjust="spacing" textLength="11.625" x="1444.875" y="206.3399">4</text><text fill="#000000" font-family="sans-serif" font-size="20" lengthAdjust="spacing" textLength="468" x="1460.5" y="206.3399">findByBuildingCodeWithConnectors(buildingCode)</text><polygon fill="#181818" points="1448.875,251.4398,1438.875,255.4398,1448.875,259.4398,1444.875,255.4398" style="stroke:#181818;stroke-width:1.0;"/><line style="stroke:#181818;stroke-width:1.0;stroke-dasharray:2.0,2.0;" x1="1442.875" x2="1944.5" y1="255.4398" y2="255.4398"/><text fill="#000000" font-family="sans-serif" font-size="20" font-weight="bold" lengthAdjust="spacing" textLength="11.625" x="1454.875" y="247.5799">5</text><text fill="#000000" font-family="sans-serif" font-size="20" lengthAdjust="spacing" textLength="61" x="1470.5" y="247.5799">Floor[]</text><path d="M1356.875,270.4398 L1445.375,270.4398 L1445.375,289.6798 L1435.375,299.6798 L1356.875,299.6798 L1356.875,270.4398 " fill="#EEEEEE" style="stroke:#000000;stroke-width:1.5;"/><rect fill="none" height="206.4398" style="stroke:#000000;stroke-width:1.5;" width="937.25" x="1356.875" y="270.4398"/><text fill="#000000" font-family="sans-serif" font-size="20" font-weight="bold" lengthAdjust="spacing" textLength="43.5" x="1371.875" y="292.8198">loop</text><text fill="#000000" font-family="sans-serif" font-size="20" font-weight="bold" lengthAdjust="spacing" textLength="147.75" x="1460.375" y="293.8198">[for each floor]</text><polygon fill="#181818" points="2074.5,341.1598,2084.5,345.1598,2074.5,349.1598,2078.5,345.1598" style="stroke:#181818;stroke-width:1.0;"/><line style="stroke:#181818;stroke-width:1.0;" x1="1437.875" x2="2080.5" y1="345.1598" y2="345.1598"/><text fill="#000000" font-family="sans-serif" font-size="20" font-weight="bold" lengthAdjust="spacing" textLength="11.625" x="1444.875" y="337.2998">6</text><text fill="#000000" font-family="sans-serif" font-size="20" lengthAdjust="spacing" textLength="190" x="1460.5" y="337.2998">mapToDTOs(Floor[])</text><polygon fill="#181818" points="2213.125,382.3997,2223.125,386.3997,2213.125,390.3997,2217.125,386.3997" style="stroke:#181818;stroke-width:1.0;"/><line style="stroke:#181818;stroke-width:1.0;" x1="2096.5" x2="2219.125" y1="386.3997" y2="386.3997"/><text fill="#000000" font-family="sans-serif" font-size="20" font-weight="bold" lengthAdjust="spacing" textLength="11.625" x="2103.5" y="378.5398">7</text><text fill="#000000" font-family="sans-serif" font-size="20" lengthAdjust="spacing" textLength="70" x="2119.125" y="378.5398">create()</text><polygon fill="#181818" points="2107.5,423.6397,2097.5,427.6397,2107.5,431.6397,2103.5,427.6397" style="stroke:#181818;stroke-width:1.0;"/><line style="stroke:#181818;stroke-width:1.0;stroke-dasharray:2.0,2.0;" x1="2101.5" x2="2229.125" y1="427.6397" y2="427.6397"/><text fill="#000000" font-family="sans-serif" font-size="20" font-weight="bold" lengthAdjust="spacing" textLength="11.625" x="2113.5" y="419.7797">8</text><text fill="#000000" font-family="sans-serif" font-size="20" lengthAdjust="spacing" textLength="89" x="2129.125" y="419.7797">FloorDTO</text><polygon fill="#181818" points="1448.875,464.8797,1438.875,468.8797,1448.875,472.8797,1444.875,468.8797" style="stroke:#181818;stroke-width:1.0;"/><line style="stroke:#181818;stroke-width:1.0;stroke-dasharray:2.0,2.0;" x1="1442.875" x2="2090.5" y1="468.8797" y2="468.8797"/><text fill="#000000" font-family="sans-serif" font-size="20" font-weight="bold" lengthAdjust="spacing" textLength="11.625" x="1454.875" y="461.0197">9</text><text fill="#000000" font-family="sans-serif" font-size="20" lengthAdjust="spacing" textLength="103" x="1470.5" y="461.0197">FloorDTO[]</text><polygon fill="#181818" points="1035.25,513.1197,1025.25,517.1197,1035.25,521.1197,1031.25,517.1197" style="stroke:#181818;stroke-width:1.0;"/><line style="stroke:#181818;stroke-width:1.0;stroke-dasharray:2.0,2.0;" x1="1029.25" x2="1431.875" y1="517.1197" y2="517.1197"/><text fill="#000000" font-family="sans-serif" font-size="20" font-weight="bold" lengthAdjust="spacing" textLength="23.25" x="1041.25" y="509.2597">10</text><text fill="#000000" font-family="sans-serif" font-size="20" lengthAdjust="spacing" textLength="103" x="1068.5" y="509.2597">FloorDTO[]</text><polygon fill="#181818" points="621.625,554.3596,611.625,558.3596,621.625,562.3596,617.625,558.3596" style="stroke:#181818;stroke-width:1.0;"/><line style="stroke:#181818;stroke-width:1.0;stroke-dasharray:2.0,2.0;" x1="615.625" x2="1018.25" y1="558.3596" y2="558.3596"/><text fill="#000000" font-family="sans-serif" font-size="20" font-weight="bold" lengthAdjust="spacing" textLength="23.25" x="627.625" y="550.4997">11</text><text fill="#000000" font-family="sans-serif" font-size="20" lengthAdjust="spacing" textLength="103" x="654.875" y="550.4997">FloorDTO[]</text><polygon fill="#181818" points="11,595.5996,1,599.5996,11,603.5996,7,599.5996" style="stroke:#181818;stroke-width:1.0;"/><line style="stroke:#181818;stroke-width:1.0;stroke-dasharray:2.0,2.0;" x1="5" x2="604.625" y1="599.5996" y2="599.5996"/><text fill="#000000" font-family="sans-serif" font-size="20" font-weight="bold" lengthAdjust="spacing" textLength="23.25" x="17" y="591.7396">12</text><text fill="#000000" font-family="sans-serif" font-size="20" lengthAdjust="spacing" textLength="271" x="44.25" y="591.7396">200 OK (list of floors as JSON)</text><!--SRC=[bPDDJyCm38Rl-HNM3cWxL4mxLi34oeR4rwQjm05noDgKHUkIAacH0F7VITAkSz0anAbA_RwF7TlHMouggkYkbDcMvP2pWjQbcKbXLloJmMX8Q6sag7ThfWYnKiCpNb5XO3b_JAT0DVJYMIcbMihQi5uWITBb7L8abgfaMJ8LobPF2LAjc7hdsIyIJXH6bjF575V1AgcvaUeZbCtkBnT8Ta-hC7wLOeezzGWPo-YYlMOCrzCKJWiNrEDrpSkSYxT4vkpy2v- -JmfU6gRECoa4osmTcj3Cy7TgM8CY15gcXVi6nL1oRNnU_SpD9kciVOmUM6E7SaP7WWPXKQw9_o0XbdKsAF0GTsVNqnWABlB9nmGv_uGYh8FikHuOTLNw2bzUss3EZdgife92Ah3X3VZExqDTeNwgCUnebKexCzrloODEsA6TzE27nceHRl0nP8fPKN-019tJAh3H6Q93xls-80MwKE1jKePTi8Ak4O7JrzlyRJzCv6ZaPr5qd8COxMIRTNE6Tjy21zBxhRBvd7I_zwFX4EQtq7UR1R9e1g7TMxbPpHy614_Fx_SF]--></g></svg>