<?xml version="1.0" encoding="UTF-8" standalone="no"?><svg xmlns="http://www.w3.org/2000/svg" xmlns:xlink="http://www.w3.org/1999/xlink" contentStyleType="text/css" height="541px" preserveAspectRatio="none" style="width:1216px;height:541px;background:#FFFFFF;" version="1.1" viewBox="0 0 1216 541" width="1216px" zoomAndPan="magnify"><defs/><g><rect fill="#DDDDDD" height="529.1197" style="stroke:#181818;stroke-width:0.5;" width="650.125" x="560.625" y="6"/><text fill="#000000" font-family="sans-serif" font-size="20" font-weight="bold" lengthAdjust="spacing" textLength="135.5" x="817.9375" y="27.38">«system (C4)»</text><text fill="#000000" font-family="sans-serif" font-size="20" font-weight="bold" lengthAdjust="spacing" textLength="127.25" x="822.0625" y="54.62">RobDroneGo</text><rect fill="#FFFFFF" height="290.9198" style="stroke:#181818;stroke-width:1.0;" width="10" x="100.5" y="143.9599"/><rect fill="#FFFFFF" height="242.6798" style="stroke:#181818;stroke-width:1.0;" width="10" x="639.125" y="177.1999"/><rect fill="#FFFFFF" height="41.24" style="stroke:#181818;stroke-width:1.0;" width="10" x="1113.75" y="218.4398"/><rect fill="none" height="153.1999" style="stroke:#000000;stroke-width:1.5;" width="723.625" x="10" y="274.6798"/><line style="stroke:#181818;stroke-width:0.5;stroke-dasharray:5.0,5.0;" x1="105" x2="105" y1="133.9599" y2="444.8797"/><line style="stroke:#181818;stroke-width:0.5;stroke-dasharray:5.0,5.0;" x1="643.625" x2="643.625" y1="133.9599" y2="444.8797"/><line style="stroke:#181818;stroke-width:0.5;stroke-dasharray:5.0,5.0;" x1="1118.75" x2="1118.75" y1="133.9599" y2="444.8797"/><text fill="#000000" font-family="sans-serif" font-size="20" lengthAdjust="spacing" textLength="165" x="20" y="128.0999">Campus Manager</text><ellipse cx="105.5" cy="55.2199" fill="#E2E2F0" rx="8" ry="8" style="stroke:#181818;stroke-width:0.5;"/><path d="M105.5,63.2199 L105.5,90.2199 M92.5,71.2199 L118.5,71.2199 M105.5,90.2199 L92.5,105.2199 M105.5,90.2199 L118.5,105.2199 " fill="none" style="stroke:#181818;stroke-width:0.5;"/><text fill="#000000" font-family="sans-serif" font-size="20" lengthAdjust="spacing" textLength="165" x="20" y="465.2597">Campus Manager</text><ellipse cx="105.5" cy="479.6197" fill="#E2E2F0" rx="8" ry="8" style="stroke:#181818;stroke-width:0.5;"/><path d="M105.5,487.6197 L105.5,514.6197 M92.5,495.6197 L118.5,495.6197 M105.5,514.6197 L92.5,529.6197 M105.5,514.6197 L118.5,529.6197 " fill="none" style="stroke:#181818;stroke-width:0.5;"/><rect fill="#E2E2F0" height="68.4799" rx="2.5" ry="2.5" style="stroke:#181818;stroke-width:0.5;" width="159" x="564.625" y="64.4799"/><text fill="#000000" font-family="sans-serif" font-size="20" font-style="italic" lengthAdjust="spacing" textLength="145" x="571.625" y="92.8599">«container (C4)»</text><text fill="#000000" font-family="sans-serif" font-size="20" lengthAdjust="spacing" textLength="116" x="586.125" y="120.0999">Visualization</text><rect fill="#E2E2F0" height="68.4799" rx="2.5" ry="2.5" style="stroke:#181818;stroke-width:0.5;" width="159" x="564.625" y="443.8797"/><text fill="#000000" font-family="sans-serif" font-size="20" font-style="italic" lengthAdjust="spacing" textLength="145" x="571.625" y="472.2597">«container (C4)»</text><text fill="#000000" font-family="sans-serif" font-size="20" lengthAdjust="spacing" textLength="116" x="586.125" y="499.4997">Visualization</text><rect fill="#E2E2F0" height="68.4799" rx="2.5" ry="2.5" style="stroke:#181818;stroke-width:0.5;" width="176" x="1030.75" y="64.4799"/><text fill="#000000" font-family="sans-serif" font-size="20" font-style="italic" lengthAdjust="spacing" textLength="145" x="1046.25" y="92.8599">«container (C4)»</text><text fill="#000000" font-family="sans-serif" font-size="20" lengthAdjust="spacing" textLength="162" x="1037.75" y="120.0999">MD Management</text><rect fill="#E2E2F0" height="68.4799" rx="2.5" ry="2.5" style="stroke:#181818;stroke-width:0.5;" width="176" x="1030.75" y="443.8797"/><text fill="#000000" font-family="sans-serif" font-size="20" font-style="italic" lengthAdjust="spacing" textLength="145" x="1046.25" y="472.2597">«container (C4)»</text><text fill="#000000" font-family="sans-serif" font-size="20" lengthAdjust="spacing" textLength="162" x="1037.75" y="499.4997">MD Management</text><rect fill="#FFFFFF" height="290.9198" style="stroke:#181818;stroke-width:1.0;" width="10" x="100.5" y="143.9599"/><rect fill="#FFFFFF" height="242.6798" style="stroke:#181818;stroke-width:1.0;" width="10" x="639.125" y="177.1999"/><rect fill="#FFFFFF" height="41.24" style="stroke:#181818;stroke-width:1.0;" width="10" x="1113.75" y="218.4398"/><polygon fill="#181818" points="627.125,173.1999,637.125,177.1999,627.125,181.1999,631.125,177.1999" style="stroke:#181818;stroke-width:1.0;"/><line style="stroke:#181818;stroke-width:1.0;" x1="110.5" x2="633.125" y1="177.1999" y2="177.1999"/><text fill="#000000" font-family="sans-serif" font-size="20" font-weight="bold" lengthAdjust="spacing" textLength="11.625" x="117.5" y="169.3399">1</text><text fill="#000000" font-family="sans-serif" font-size="20" lengthAdjust="spacing" textLength="494" x="133.125" y="169.3399">wants to list floors with connectors to other buildings</text><polygon fill="#181818" points="1101.75,214.4398,1111.75,218.4398,1101.75,222.4398,1105.75,218.4398" style="stroke:#181818;stroke-width:1.0;"/><line style="stroke:#181818;stroke-width:1.0;" x1="649.125" x2="1107.75" y1="218.4398" y2="218.4398"/><text fill="#000000" font-family="sans-serif" font-size="20" font-weight="bold" lengthAdjust="spacing" textLength="11.625" x="656.125" y="210.5799">2</text><text fill="#000000" font-family="sans-serif" font-size="20" lengthAdjust="spacing" textLength="430" x="671.75" y="210.5799">GET /buildings/{code}/floors?filter=connectors</text><polygon fill="#181818" points="660.125,255.6798,650.125,259.6798,660.125,263.6798,656.125,259.6798" style="stroke:#181818;stroke-width:1.0;"/><line style="stroke:#181818;stroke-width:1.0;stroke-dasharray:2.0,2.0;" x1="654.125" x2="1117.75" y1="259.6798" y2="259.6798"/><text fill="#000000" font-family="sans-serif" font-size="20" font-weight="bold" lengthAdjust="spacing" textLength="11.625" x="666.125" y="251.8198">3</text><text fill="#000000" font-family="sans-serif" font-size="20" lengthAdjust="spacing" textLength="66" x="681.75" y="251.8198">200 OK</text><path d="M10,274.6798 L79.875,274.6798 L79.875,293.9198 L69.875,303.9198 L10,303.9198 L10,274.6798 " fill="#EEEEEE" style="stroke:#000000;stroke-width:1.5;"/><rect fill="none" height="153.1999" style="stroke:#000000;stroke-width:1.5;" width="723.625" x="10" y="274.6798"/><text fill="#000000" font-family="sans-serif" font-size="20" font-weight="bold" lengthAdjust="spacing" textLength="24.875" x="25" y="297.0598">alt</text><text fill="#000000" font-family="sans-serif" font-size="20" font-weight="bold" lengthAdjust="spacing" textLength="261.625" x="94.875" y="298.0598">[there are floors in the list]</text><polygon fill="#181818" points="121.5,345.3997,111.5,349.3997,121.5,353.3997,117.5,349.3997" style="stroke:#181818;stroke-width:1.0;"/><line style="stroke:#181818;stroke-width:1.0;stroke-dasharray:2.0,2.0;" x1="115.5" x2="638.125" y1="349.3997" y2="349.3997"/><text fill="#000000" font-family="sans-serif" font-size="20" font-weight="bold" lengthAdjust="spacing" textLength="11.625" x="127.5" y="341.5398">4</text><text fill="#000000" font-family="sans-serif" font-size="20" lengthAdjust="spacing" textLength="186" x="143.125" y="341.5398">shows the floors list</text><line style="stroke:#000000;stroke-width:1.0;stroke-dasharray:2.0,2.0;" x1="10" x2="733.625" y1="358.3997" y2="358.3997"/><text fill="#000000" font-family="sans-serif" font-size="20" font-weight="bold" lengthAdjust="spacing" textLength="170" x="15" y="379.7797">[the list is empty]</text><polygon fill="#181818" points="121.5,415.8797,111.5,419.8797,121.5,423.8797,117.5,419.8797" style="stroke:#181818;stroke-width:1.0;"/><line style="stroke:#181818;stroke-width:1.0;stroke-dasharray:2.0,2.0;" x1="115.5" x2="643.125" y1="419.8797" y2="419.8797"/><text fill="#000000" font-family="sans-serif" font-size="20" font-weight="bold" lengthAdjust="spacing" textLength="11.625" x="127.5" y="412.0197">5</text><text fill="#000000" font-family="sans-serif" font-size="20" lengthAdjust="spacing" textLength="373" x="143.125" y="412.0197">shows error message "No floors found."</text><!--SRC=[RPBFRXD13CRlynJMNWg7aAZYL8KWb41LeO04BISkarqdiJexZiPUqXRnH3m2jpuPdjcqII27_JVp-UVlMu_SKjpuvDl0zIqsqE3ITq4_SDIlz81mFdA-KuvTky3av4aDirvtZNVwBj0gjXXrFAxjZcaoWVx5ELyh9vZEmGjKKzzkEe6vZtw5gN9kmNTGFVwMUr5iuSNqzSl7Fz_Z5rxC4aUyv0hsI0TWdPLgslYeS7DLaDz8EX_emIjnB78pxYbYAhZ_okQpKcQFtaMsVR8COmDchoIW7rxHGZXdGGQJtFi2jeOJK8P0eh0Cp4bWIxe6OqNCkSiswzgeYuv2Gt4bUzxDbND6CfwvkO3BzzSmV9ODVzRSuAzXptsxf60_uSsUlCVCPyuo6cWy6FIayz48Fd-qnGQFL3ueP3C8tgwTOufvhOIm2ikNCIMWh7ahPNCdtMdE3hav10R1PmYG0BORlNT5UcWWVv_qUVQFqwF2tE6KCKp9JbQB8ZP6g3xnayqbTx5vLHtdDufDrBc39PldNm00]--></g></svg>