<?xml version="1.0" encoding="UTF-8" standalone="no"?><svg xmlns="http://www.w3.org/2000/svg" xmlns:xlink="http://www.w3.org/1999/xlink" contentStyleType="text/css" height="489px" preserveAspectRatio="none" style="width:1314px;height:489px;background:#FFFFFF;" version="1.1" viewBox="0 0 1314 489" width="1314px" zoomAndPan="magnify"><defs/><g><rect fill="#DDDDDD" height="477.6563" style="stroke:#181818;stroke-width:0.5;" width="713" x="595.5" y="6"/><text fill="#000000" font-family="sans-serif" font-size="20" font-weight="bold" lengthAdjust="spacing" textLength="162" x="871" y="24.5645">«system (C4)»</text><text fill="#000000" font-family="sans-serif" font-size="20" font-weight="bold" lengthAdjust="spacing" textLength="142" x="881" y="47.8457">RobDroneGo</text><rect fill="#FFFFFF" height="259.25" style="stroke:#181818;stroke-width:1.0;" width="10" x="105.5" y="128.125"/><rect fill="#FFFFFF" height="214.9688" style="stroke:#181818;stroke-width:1.0;" width="10" x="685.5" y="157.4063"/><rect fill="#FFFFFF" height="37.2813" style="stroke:#181818;stroke-width:1.0;" width="10" x="1207.5" y="194.6875"/><rect fill="none" height="133.4063" style="stroke:#000000;stroke-width:1.5;" width="781.5" x="10" y="246.9688"/><line style="stroke:#181818;stroke-width:0.5;stroke-dasharray:5.0,5.0;" x1="110" x2="110" y1="118.125" y2="397.375"/><line style="stroke:#181818;stroke-width:0.5;stroke-dasharray:5.0,5.0;" x1="690.5" x2="690.5" y1="118.125" y2="397.375"/><line style="stroke:#181818;stroke-width:0.5;stroke-dasharray:5.0,5.0;" x1="1212.5" x2="1212.5" y1="118.125" y2="397.375"/><text fill="#000000" font-family="sans-serif" font-size="20" lengthAdjust="spacing" textLength="175" x="20" y="113.4082">Campus Manager</text><ellipse cx="110.5" cy="43.3438" fill="#E2E2F0" rx="8" ry="8" style="stroke:#181818;stroke-width:0.5;"/><path d="M110.5,51.3438 L110.5,78.3438 M97.5,59.3438 L123.5,59.3438 M110.5,78.3438 L97.5,93.3438 M110.5,78.3438 L123.5,93.3438 " fill="none" style="stroke:#181818;stroke-width:0.5;"/><text fill="#000000" font-family="sans-serif" font-size="20" lengthAdjust="spacing" textLength="175" x="20" y="414.9395">Campus Manager</text><ellipse cx="110.5" cy="428.1563" fill="#E2E2F0" rx="8" ry="8" style="stroke:#181818;stroke-width:0.5;"/><path d="M110.5,436.1563 L110.5,463.1563 M97.5,444.1563 L123.5,444.1563 M110.5,463.1563 L97.5,478.1563 M110.5,463.1563 L123.5,478.1563 " fill="none" style="stroke:#181818;stroke-width:0.5;"/><rect fill="#E2E2F0" height="60.5625" rx="2.5" ry="2.5" style="stroke:#181818;stroke-width:0.5;" width="182" x="599.5" y="56.5625"/><text fill="#000000" font-family="sans-serif" font-size="20" font-style="italic" lengthAdjust="spacing" textLength="168" x="606.5" y="82.127">«container (C4)»</text><text fill="#000000" font-family="sans-serif" font-size="20" lengthAdjust="spacing" textLength="129" x="626" y="105.4082">Visualization</text><rect fill="#E2E2F0" height="60.5625" rx="2.5" ry="2.5" style="stroke:#181818;stroke-width:0.5;" width="182" x="599.5" y="396.375"/><text fill="#000000" font-family="sans-serif" font-size="20" font-style="italic" lengthAdjust="spacing" textLength="168" x="606.5" y="421.9395">«container (C4)»</text><text fill="#000000" font-family="sans-serif" font-size="20" lengthAdjust="spacing" textLength="129" x="626" y="445.2207">Visualization</text><rect fill="#E2E2F0" height="60.5625" rx="2.5" ry="2.5" style="stroke:#181818;stroke-width:0.5;" width="184" x="1120.5" y="56.5625"/><text fill="#000000" font-family="sans-serif" font-size="20" font-style="italic" lengthAdjust="spacing" textLength="168" x="1128.5" y="82.127">«container (C4)»</text><text fill="#000000" font-family="sans-serif" font-size="20" lengthAdjust="spacing" textLength="170" x="1127.5" y="105.4082">MD Management</text><rect fill="#E2E2F0" height="60.5625" rx="2.5" ry="2.5" style="stroke:#181818;stroke-width:0.5;" width="184" x="1120.5" y="396.375"/><text fill="#000000" font-family="sans-serif" font-size="20" font-style="italic" lengthAdjust="spacing" textLength="168" x="1128.5" y="421.9395">«container (C4)»</text><text fill="#000000" font-family="sans-serif" font-size="20" lengthAdjust="spacing" textLength="170" x="1127.5" y="445.2207">MD Management</text><rect fill="#FFFFFF" height="259.25" style="stroke:#181818;stroke-width:1.0;" width="10" x="105.5" y="128.125"/><rect fill="#FFFFFF" height="214.9688" style="stroke:#181818;stroke-width:1.0;" width="10" x="685.5" y="157.4063"/><rect fill="#FFFFFF" height="37.2813" style="stroke:#181818;stroke-width:1.0;" width="10" x="1207.5" y="194.6875"/><polygon fill="#181818" points="673.5,153.4063,683.5,157.4063,673.5,161.4063,677.5,157.4063" style="stroke:#181818;stroke-width:1.0;"/><line style="stroke:#181818;stroke-width:1.0;" x1="115.5" x2="679.5" y1="157.4063" y2="157.4063"/><text fill="#000000" font-family="sans-serif" font-size="20" font-weight="bold" lengthAdjust="spacing" textLength="14" x="122.5" y="150.6895">1</text><text fill="#000000" font-family="sans-serif" font-size="20" lengthAdjust="spacing" textLength="533" x="140.5" y="150.6895">wants to list floors with connectors to other buildings</text><polygon fill="#181818" points="1195.5,190.6875,1205.5,194.6875,1195.5,198.6875,1199.5,194.6875" style="stroke:#181818;stroke-width:1.0;"/><line style="stroke:#181818;stroke-width:1.0;" x1="695.5" x2="1201.5" y1="194.6875" y2="194.6875"/><text fill="#000000" font-family="sans-serif" font-size="20" font-weight="bold" lengthAdjust="spacing" textLength="14" x="702.5" y="187.9707">2</text><text fill="#000000" font-family="sans-serif" font-size="20" lengthAdjust="spacing" textLength="475" x="720.5" y="187.9707">GET /buildings/{code}/floors?filter=connectors</text><polygon fill="#181818" points="706.5,227.9688,696.5,231.9688,706.5,235.9688,702.5,231.9688" style="stroke:#181818;stroke-width:1.0;"/><line style="stroke:#181818;stroke-width:1.0;stroke-dasharray:2.0,2.0;" x1="700.5" x2="1211.5" y1="231.9688" y2="231.9688"/><text fill="#000000" font-family="sans-serif" font-size="20" font-weight="bold" lengthAdjust="spacing" textLength="14" x="712.5" y="225.252">3</text><text fill="#000000" font-family="sans-serif" font-size="20" lengthAdjust="spacing" textLength="74" x="730.5" y="225.252">200 OK</text><path d="M10,246.9688 L86,246.9688 L86,262.25 L76,272.25 L10,272.25 L10,246.9688 " fill="#EEEEEE" style="stroke:#000000;stroke-width:1.5;"/><rect fill="none" height="133.4063" style="stroke:#000000;stroke-width:1.5;" width="781.5" x="10" y="246.9688"/><text fill="#000000" font-family="sans-serif" font-size="20" font-weight="bold" lengthAdjust="spacing" textLength="31" x="25" y="266.5332">alt</text><text fill="#000000" font-family="sans-serif" font-size="20" font-weight="bold" lengthAdjust="spacing" textLength="314" x="101" y="267.5332">[there are floors in the list]</text><polygon fill="#181818" points="126.5,305.8125,116.5,309.8125,126.5,313.8125,122.5,309.8125" style="stroke:#181818;stroke-width:1.0;"/><line style="stroke:#181818;stroke-width:1.0;stroke-dasharray:2.0,2.0;" x1="120.5" x2="684.5" y1="309.8125" y2="309.8125"/><text fill="#000000" font-family="sans-serif" font-size="20" font-weight="bold" lengthAdjust="spacing" textLength="14" x="132.5" y="303.0957">4</text><text fill="#000000" font-family="sans-serif" font-size="20" lengthAdjust="spacing" textLength="198" x="150.5" y="303.0957">shows the floors list</text><line style="stroke:#000000;stroke-width:1.0;stroke-dasharray:2.0,2.0;" x1="10" x2="791.5" y1="318.8125" y2="318.8125"/><text fill="#000000" font-family="sans-serif" font-size="20" font-weight="bold" lengthAdjust="spacing" textLength="204" x="15" y="337.377">[the list is empty]</text><polygon fill="#181818" points="126.5,368.375,116.5,372.375,126.5,376.375,122.5,372.375" style="stroke:#181818;stroke-width:1.0;"/><line style="stroke:#181818;stroke-width:1.0;stroke-dasharray:2.0,2.0;" x1="120.5" x2="689.5" y1="372.375" y2="372.375"/><text fill="#000000" font-family="sans-serif" font-size="20" font-weight="bold" lengthAdjust="spacing" textLength="14" x="132.5" y="365.6582">5</text><text fill="#000000" font-family="sans-serif" font-size="20" lengthAdjust="spacing" textLength="395" x="150.5" y="365.6582">shows error message "No floors found."</text><!--SRC=[RPBFRXD13CRlynJMNWg7aAZYL8KWb41LeO04BISkarqdiJexZiPUqXRnH3m2jpuPdjcqII27_JVp-UVlMu_SKjpuvDl0zIqsqE3ITq4_SDIlz81mFdA-KuvTky3av4aDirvtZNVwBj0gjXXrFAxjZcaoWVx5ELyh9vZEmGjKKzzkEe6vZtw5gN9kmNTGFVwMUr5iuSNqzSl7Fz_Z5rxC4aUyv0hsI0TWdPLgslYeS7DLaDz8EX_emIjnB78pxYbYAhZ_okQpKcQFtaMsVR8COmDchoIW7rxHGZXdGGQJtFi2jeOJK8P0eh0Cp4bWIxe6OqNCkSiswzgeYuv2Gt4bUzxDbND6CfwvkO3BzzSmV9ODVzRSuAzXptsxf60_uSsUlCVCPyuo6cWy6FIayz48Fd-qnGQFL3ueP3C8tgwTOufvhOIm2ikNCIMWh7ahPNCdtMdE3hav10R1PmYG0BORlNT5UcWWVv_qUVQFqwF2tE6KCKp9JbQB8ZP6g3xnayqbTx5vLHtdDufDrBc39PldNm00]--></g></svg>