<?xml version="1.0" encoding="UTF-8" standalone="no"?><svg xmlns="http://www.w3.org/2000/svg" xmlns:xlink="http://www.w3.org/1999/xlink" contentStyleType="text/css" height="301px" preserveAspectRatio="none" style="width:381px;height:301px;background:#FFFFFF;" version="1.1" viewBox="0 0 381 301" width="381px" zoomAndPan="magnify"><defs/><g><rect fill="#FFFFFF" height="110.4001" style="stroke:#181818;stroke-width:1.0;" width="10" x="49" y="91.7999"/><rect fill="#FFFFFF" height="29.6" style="stroke:#181818;stroke-width:1.0;" width="10" x="296" y="113.3999"/><rect fill="#FFFFFF" height="29.6" style="stroke:#181818;stroke-width:1.0;" width="10" x="296" y="172.6"/><line style="stroke:#181818;stroke-width:0.5;stroke-dasharray:5.0,5.0;" x1="54" x2="54" y1="81.7999" y2="220.2"/><line style="stroke:#181818;stroke-width:0.5;stroke-dasharray:5.0,5.0;" x1="300.5" x2="300.5" y1="81.7999" y2="220.2"/><text fill="#000000" font-family="sans-serif" font-size="14" lengthAdjust="spacing" textLength="92" x="5" y="78.0059">Task Manager</text><ellipse cx="54" cy="13.5" fill="#E2E2F0" rx="8" ry="8" style="stroke:#181818;stroke-width:0.5;"/><path d="M54,21.5 L54,48.5 M41,29.5 L67,29.5 M54,48.5 L41,63.5 M54,48.5 L67,63.5 " fill="none" style="stroke:#181818;stroke-width:0.5;"/><text fill="#000000" font-family="sans-serif" font-size="14" lengthAdjust="spacing" textLength="92" x="5" y="232.2059">Task Manager</text><ellipse cx="54" cy="244.4999" fill="#E2E2F0" rx="8" ry="8" style="stroke:#181818;stroke-width:0.5;"/><path d="M54,252.4999 L54,279.4999 M41,260.4999 L67,260.4999 M54,279.4999 L41,294.4999 M54,279.4999 L67,294.4999 " fill="none" style="stroke:#181818;stroke-width:0.5;"/><rect fill="#E2E2F0" height="49.6998" rx="2.5" ry="2.5" style="stroke:#181818;stroke-width:0.5;" width="149" x="226.5" y="31.1001"/><text fill="#000000" font-family="sans-serif" font-size="14" font-style="italic" lengthAdjust="spacing" textLength="93" x="254.5" y="53.5">«system (C4)»</text><text fill="#000000" font-family="sans-serif" font-size="14" lengthAdjust="spacing" textLength="135" x="233.5" y="70.0059">RobDroneGo System</text><rect fill="#E2E2F0" height="49.6998" rx="2.5" ry="2.5" style="stroke:#181818;stroke-width:0.5;" width="149" x="226.5" y="219.2"/><text fill="#000000" font-family="sans-serif" font-size="14" font-style="italic" lengthAdjust="spacing" textLength="93" x="254.5" y="241.5999">«system (C4)»</text><text fill="#000000" font-family="sans-serif" font-size="14" lengthAdjust="spacing" textLength="135" x="233.5" y="258.1058">RobDroneGo System</text><rect fill="#FFFFFF" height="110.4001" style="stroke:#181818;stroke-width:1.0;" width="10" x="49" y="91.7999"/><rect fill="#FFFFFF" height="29.6" style="stroke:#181818;stroke-width:1.0;" width="10" x="296" y="113.3999"/><rect fill="#FFFFFF" height="29.6" style="stroke:#181818;stroke-width:1.0;" width="10" x="296" y="172.6"/><polygon fill="#181818" points="284,109.3999,294,113.3999,284,117.3999,288,113.3999" style="stroke:#181818;stroke-width:1.0;"/><line style="stroke:#181818;stroke-width:1.0;" x1="59" x2="290" y1="113.3999" y2="113.3999"/><text fill="#000000" font-family="sans-serif" font-size="13" font-weight="bold" lengthAdjust="spacing" textLength="7" x="66" y="107.8769">1</text><text fill="#000000" font-family="sans-serif" font-size="13" lengthAdjust="spacing" textLength="93" x="77" y="107.8769">approves a task</text><polygon fill="#181818" points="70,139,60,143,70,147,66,143" style="stroke:#181818;stroke-width:1.0;"/><line style="stroke:#181818;stroke-width:1.0;stroke-dasharray:2.0,2.0;" x1="64" x2="300" y1="143" y2="143"/><text fill="#000000" font-family="sans-serif" font-size="13" font-weight="bold" lengthAdjust="spacing" textLength="7" x="76" y="137.477">2</text><text fill="#000000" font-family="sans-serif" font-size="13" lengthAdjust="spacing" textLength="195" x="87" y="137.477">asks to assign a robot to the task</text><polygon fill="#181818" points="284,168.6,294,172.6,284,176.6,288,172.6" style="stroke:#181818;stroke-width:1.0;"/><line style="stroke:#181818;stroke-width:1.0;" x1="59" x2="290" y1="172.6" y2="172.6"/><text fill="#000000" font-family="sans-serif" font-size="13" font-weight="bold" lengthAdjust="spacing" textLength="7" x="66" y="167.077">3</text><text fill="#000000" font-family="sans-serif" font-size="13" lengthAdjust="spacing" textLength="143" x="77" y="167.077">selects the desired robot</text><polygon fill="#181818" points="65,198.2,55,202.2,65,206.2,61,202.2" style="stroke:#181818;stroke-width:1.0;"/><line style="stroke:#181818;stroke-width:1.0;stroke-dasharray:2.0,2.0;" x1="59" x2="300" y1="202.2" y2="202.2"/><text fill="#000000" font-family="sans-serif" font-size="13" font-weight="bold" lengthAdjust="spacing" textLength="7" x="71" y="196.677">4</text><text fill="#000000" font-family="sans-serif" font-size="13" lengthAdjust="spacing" textLength="202" x="82" y="196.677">returns the sucess of the operation</text><!--MD5=[48102e6947e2f7238abcb692b95c6b77]
@startuml process-view
autonumber

actor TM as "Task Manager"
participant SYS as "RobDroneGo System" <<system (C4)>>

activate TM

TM -> SYS : approves a task
activate SYS

TM <- - SYS : asks to assign a robot to the task
deactivate SYS

TM -> SYS : selects the desired robot
activate SYS

TM <- - SYS : returns the sucess of the operation
deactivate SYS

deactivate TM

@enduml

PlantUML version 1.2022.7(Mon Aug 22 18:01:30 BST 2022)
(GPL source distribution)
Java Runtime: OpenJDK Runtime Environment
JVM: OpenJDK 64-Bit Server VM
Default Encoding: UTF-8
Language: en
Country: GB
--></g></svg>