<?xml version="1.0" encoding="UTF-8" standalone="no"?><svg xmlns="http://www.w3.org/2000/svg" xmlns:xlink="http://www.w3.org/1999/xlink" contentStyleType="text/css" height="536px" preserveAspectRatio="none" style="width:584px;height:536px;background:#FFFFFF;" version="1.1" viewBox="0 0 584 536" width="584px" zoomAndPan="magnify"><defs/><g><rect fill="#FFFFFF" height="332.1598" style="stroke:#181818;stroke-width:1.0;" width="10" x="83.5" y="102.24"/><rect fill="#FFFFFF" height="41.24" style="stroke:#181818;stroke-width:1.0;" width="10" x="458.125" y="183.9599"/><rect fill="#FFFFFF" height="41.24" style="stroke:#181818;stroke-width:1.0;" width="10" x="458.125" y="266.4398"/><rect fill="#FFFFFF" height="41.24" style="stroke:#181818;stroke-width:1.0;" width="10" x="458.125" y="378.1598"/><rect fill="none" height="318.1598" style="stroke:#000000;stroke-width:1.5;" width="567.125" x="10" y="109.24"/><line style="stroke:#181818;stroke-width:0.5;stroke-dasharray:5.0,5.0;" x1="88" x2="88" y1="92.24" y2="444.3997"/><line style="stroke:#181818;stroke-width:0.5;stroke-dasharray:5.0,5.0;" x1="463.125" x2="463.125" y1="92.24" y2="444.3997"/><text fill="#000000" font-family="sans-serif" font-size="20" lengthAdjust="spacing" textLength="131" x="20" y="86.38">Task Manager</text><ellipse cx="88.5" cy="13.5" fill="#E2E2F0" rx="8" ry="8" style="stroke:#181818;stroke-width:0.5;"/><path d="M88.5,21.5 L88.5,48.5 M75.5,29.5 L101.5,29.5 M88.5,48.5 L75.5,63.5 M88.5,48.5 L101.5,63.5 " fill="none" style="stroke:#181818;stroke-width:0.5;"/><text fill="#000000" font-family="sans-serif" font-size="20" lengthAdjust="spacing" textLength="131" x="20" y="464.7797">Task Manager</text><ellipse cx="88.5" cy="479.1397" fill="#E2E2F0" rx="8" ry="8" style="stroke:#181818;stroke-width:0.5;"/><path d="M88.5,487.1397 L88.5,514.1397 M75.5,495.1397 L101.5,495.1397 M88.5,514.1397 L75.5,529.1397 M88.5,514.1397 L101.5,529.1397 " fill="none" style="stroke:#181818;stroke-width:0.5;"/><rect fill="#E2E2F0" height="68.4799" rx="2.5" ry="2.5" style="stroke:#181818;stroke-width:0.5;" width="208" x="359.125" y="22.76"/><text fill="#000000" font-family="sans-serif" font-size="20" font-style="italic" lengthAdjust="spacing" textLength="122" x="402.125" y="51.14">«system (C4)»</text><text fill="#000000" font-family="sans-serif" font-size="20" lengthAdjust="spacing" textLength="194" x="366.125" y="78.38">RobDroneGo System</text><rect fill="#E2E2F0" height="68.4799" rx="2.5" ry="2.5" style="stroke:#181818;stroke-width:0.5;" width="208" x="359.125" y="443.3997"/><text fill="#000000" font-family="sans-serif" font-size="20" font-style="italic" lengthAdjust="spacing" textLength="122" x="402.125" y="471.7797">«system (C4)»</text><text fill="#000000" font-family="sans-serif" font-size="20" lengthAdjust="spacing" textLength="194" x="366.125" y="499.0197">RobDroneGo System</text><rect fill="#FFFFFF" height="332.1598" style="stroke:#181818;stroke-width:1.0;" width="10" x="83.5" y="102.24"/><rect fill="#FFFFFF" height="41.24" style="stroke:#181818;stroke-width:1.0;" width="10" x="458.125" y="183.9599"/><rect fill="#FFFFFF" height="41.24" style="stroke:#181818;stroke-width:1.0;" width="10" x="458.125" y="266.4398"/><rect fill="#FFFFFF" height="41.24" style="stroke:#181818;stroke-width:1.0;" width="10" x="458.125" y="378.1598"/><path d="M10,109.24 L79.875,109.24 L79.875,128.4799 L69.875,138.4799 L10,138.4799 L10,109.24 " fill="#EEEEEE" style="stroke:#000000;stroke-width:1.5;"/><rect fill="none" height="318.1598" style="stroke:#000000;stroke-width:1.5;" width="567.125" x="10" y="109.24"/><text fill="#000000" font-family="sans-serif" font-size="20" font-weight="bold" lengthAdjust="spacing" textLength="24.875" x="25" y="131.62">alt</text><text fill="#000000" font-family="sans-serif" font-size="20" font-weight="bold" lengthAdjust="spacing" textLength="152.75" x="94.875" y="132.62">[approves task]</text><polygon fill="#181818" points="446.125,179.9599,456.125,183.9599,446.125,187.9599,450.125,183.9599" style="stroke:#181818;stroke-width:1.0;"/><line style="stroke:#181818;stroke-width:1.0;" x1="93.5" x2="452.125" y1="183.9599" y2="183.9599"/><text fill="#000000" font-family="sans-serif" font-size="20" font-weight="bold" lengthAdjust="spacing" textLength="11.625" x="100.5" y="176.0999">1</text><text fill="#000000" font-family="sans-serif" font-size="20" lengthAdjust="spacing" textLength="146" x="116.125" y="176.0999">approves a task</text><polygon fill="#181818" points="104.5,221.1999,94.5,225.1999,104.5,229.1999,100.5,225.1999" style="stroke:#181818;stroke-width:1.0;"/><line style="stroke:#181818;stroke-width:1.0;stroke-dasharray:2.0,2.0;" x1="98.5" x2="462.125" y1="225.1999" y2="225.1999"/><text fill="#000000" font-family="sans-serif" font-size="20" font-weight="bold" lengthAdjust="spacing" textLength="11.625" x="110.5" y="217.3399">2</text><text fill="#000000" font-family="sans-serif" font-size="20" lengthAdjust="spacing" textLength="306" x="126.125" y="217.3399">asks to assign a robot to the task</text><polygon fill="#181818" points="446.125,262.4398,456.125,266.4398,446.125,270.4398,450.125,266.4398" style="stroke:#181818;stroke-width:1.0;"/><line style="stroke:#181818;stroke-width:1.0;" x1="93.5" x2="452.125" y1="266.4398" y2="266.4398"/><text fill="#000000" font-family="sans-serif" font-size="20" font-weight="bold" lengthAdjust="spacing" textLength="11.625" x="100.5" y="258.5799">3</text><text fill="#000000" font-family="sans-serif" font-size="20" lengthAdjust="spacing" textLength="229" x="116.125" y="258.5799">selects the desired robot</text><polygon fill="#181818" points="104.5,303.6798,94.5,307.6798,104.5,311.6798,100.5,307.6798" style="stroke:#181818;stroke-width:1.0;"/><line style="stroke:#181818;stroke-width:1.0;stroke-dasharray:2.0,2.0;" x1="98.5" x2="462.125" y1="307.6798" y2="307.6798"/><text fill="#000000" font-family="sans-serif" font-size="20" font-weight="bold" lengthAdjust="spacing" textLength="11.625" x="110.5" y="299.8198">4</text><text fill="#000000" font-family="sans-serif" font-size="20" lengthAdjust="spacing" textLength="325" x="126.125" y="299.8198">returns the sucess of the operation</text><line style="stroke:#000000;stroke-width:1.0;stroke-dasharray:2.0,2.0;" x1="10" x2="577.125" y1="316.6798" y2="316.6798"/><text fill="#000000" font-family="sans-serif" font-size="20" font-weight="bold" lengthAdjust="spacing" textLength="128.125" x="15" y="338.0598">[rejects task]</text><polygon fill="#181818" points="446.125,374.1598,456.125,378.1598,446.125,382.1598,450.125,378.1598" style="stroke:#181818;stroke-width:1.0;"/><line style="stroke:#181818;stroke-width:1.0;" x1="93.5" x2="452.125" y1="378.1598" y2="378.1598"/><text fill="#000000" font-family="sans-serif" font-size="20" font-weight="bold" lengthAdjust="spacing" textLength="11.625" x="100.5" y="370.2998">5</text><text fill="#000000" font-family="sans-serif" font-size="20" lengthAdjust="spacing" textLength="122" x="116.125" y="370.2998">rejects a task</text><polygon fill="#181818" points="104.5,415.3997,94.5,419.3997,104.5,423.3997,100.5,419.3997" style="stroke:#181818;stroke-width:1.0;"/><line style="stroke:#181818;stroke-width:1.0;stroke-dasharray:2.0,2.0;" x1="98.5" x2="462.125" y1="419.3997" y2="419.3997"/><text fill="#000000" font-family="sans-serif" font-size="20" font-weight="bold" lengthAdjust="spacing" textLength="11.625" x="110.5" y="411.5398">6</text><text fill="#000000" font-family="sans-serif" font-size="20" lengthAdjust="spacing" textLength="325" x="126.125" y="411.5398">returns the sucess of the operation</text><!--SRC=[dP4nJyGm38Nt_0gh4moL4692LHSGDzr2Rs5qKzyHsiPLx9u4lnvVgXv8d0HYIcA_zxt4aJx42HEE0_kUEkXeZ_EWJnor2Hy4jpSEP-KuZoqbvz0h9zXj0GMA7KeFMunue5GuesZmOSAeqBmqMV7CxMFYI1k6vbsKnWAgIl8EhXxkhkiw8yCHbOngXq41fodnaGJK-0vEQMMTaVTVFLoxPxi9tAAkodALIsyOjbN28PefSSjwgkWhhOIEBZ3EYK83UPLiw4X2iY5boc_PYNHESJ7Ax4a4U9zFF5523HmlXDCWPDQt9VFd0DRMtzx_hpjGx9pxLhD_-GG0]--></g></svg>