<?xml version="1.0" encoding="UTF-8" standalone="no"?><svg xmlns="http://www.w3.org/2000/svg" xmlns:xlink="http://www.w3.org/1999/xlink" contentStyleType="text/css" height="492px" preserveAspectRatio="none" style="width:621px;height:492px;background:#FFFFFF;" version="1.1" viewBox="0 0 621 492" width="621px" zoomAndPan="magnify"><defs/><g><rect fill="#FFFFFF" height="296.5313" style="stroke:#181818;stroke-width:1.0;" width="10" x="87.5" y="98.2813"/><rect fill="#FFFFFF" height="37.2813" style="stroke:#181818;stroke-width:1.0;" width="10" x="488.5" y="168.125"/><rect fill="#FFFFFF" height="37.2813" style="stroke:#181818;stroke-width:1.0;" width="10" x="488.5" y="242.6875"/><rect fill="#FFFFFF" height="37.2813" style="stroke:#181818;stroke-width:1.0;" width="10" x="488.5" y="342.5313"/><rect fill="none" height="282.5313" style="stroke:#000000;stroke-width:1.5;" width="604" x="10" y="105.2813"/><line style="stroke:#181818;stroke-width:0.5;stroke-dasharray:5.0,5.0;" x1="92" x2="92" y1="88.2813" y2="404.8125"/><line style="stroke:#181818;stroke-width:0.5;stroke-dasharray:5.0,5.0;" x1="493" x2="493" y1="88.2813" y2="404.8125"/><text fill="#000000" font-family="sans-serif" font-size="20" lengthAdjust="spacing" textLength="139" x="20" y="83.5645">Task Manager</text><ellipse cx="92.5" cy="13.5" fill="#E2E2F0" rx="8" ry="8" style="stroke:#181818;stroke-width:0.5;"/><path d="M92.5,21.5 L92.5,48.5 M79.5,29.5 L105.5,29.5 M92.5,48.5 L79.5,63.5 M92.5,48.5 L105.5,63.5 " fill="none" style="stroke:#181818;stroke-width:0.5;"/><text fill="#000000" font-family="sans-serif" font-size="20" lengthAdjust="spacing" textLength="139" x="20" y="422.377">Task Manager</text><ellipse cx="92.5" cy="435.5938" fill="#E2E2F0" rx="8" ry="8" style="stroke:#181818;stroke-width:0.5;"/><path d="M92.5,443.5938 L92.5,470.5938 M79.5,451.5938 L105.5,451.5938 M92.5,470.5938 L79.5,485.5938 M92.5,470.5938 L105.5,485.5938 " fill="none" style="stroke:#181818;stroke-width:0.5;"/><rect fill="#E2E2F0" height="60.5625" rx="2.5" ry="2.5" style="stroke:#181818;stroke-width:0.5;" width="221" x="383" y="26.7188"/><text fill="#000000" font-family="sans-serif" font-size="20" font-style="italic" lengthAdjust="spacing" textLength="145" x="421" y="52.2832">«system (C4)»</text><text fill="#000000" font-family="sans-serif" font-size="20" lengthAdjust="spacing" textLength="207" x="390" y="75.5645">RobDroneGo System</text><rect fill="#E2E2F0" height="60.5625" rx="2.5" ry="2.5" style="stroke:#181818;stroke-width:0.5;" width="221" x="383" y="403.8125"/><text fill="#000000" font-family="sans-serif" font-size="20" font-style="italic" lengthAdjust="spacing" textLength="145" x="421" y="429.377">«system (C4)»</text><text fill="#000000" font-family="sans-serif" font-size="20" lengthAdjust="spacing" textLength="207" x="390" y="452.6582">RobDroneGo System</text><rect fill="#FFFFFF" height="296.5313" style="stroke:#181818;stroke-width:1.0;" width="10" x="87.5" y="98.2813"/><rect fill="#FFFFFF" height="37.2813" style="stroke:#181818;stroke-width:1.0;" width="10" x="488.5" y="168.125"/><rect fill="#FFFFFF" height="37.2813" style="stroke:#181818;stroke-width:1.0;" width="10" x="488.5" y="242.6875"/><rect fill="#FFFFFF" height="37.2813" style="stroke:#181818;stroke-width:1.0;" width="10" x="488.5" y="342.5313"/><path d="M10,105.2813 L86,105.2813 L86,120.5625 L76,130.5625 L10,130.5625 L10,105.2813 " fill="#EEEEEE" style="stroke:#000000;stroke-width:1.5;"/><rect fill="none" height="282.5313" style="stroke:#000000;stroke-width:1.5;" width="604" x="10" y="105.2813"/><text fill="#000000" font-family="sans-serif" font-size="20" font-weight="bold" lengthAdjust="spacing" textLength="31" x="25" y="124.8457">alt</text><text fill="#000000" font-family="sans-serif" font-size="20" font-weight="bold" lengthAdjust="spacing" textLength="179" x="101" y="125.8457">[approves task]</text><polygon fill="#181818" points="476.5,164.125,486.5,168.125,476.5,172.125,480.5,168.125" style="stroke:#181818;stroke-width:1.0;"/><line style="stroke:#181818;stroke-width:1.0;" x1="97.5" x2="482.5" y1="168.125" y2="168.125"/><text fill="#000000" font-family="sans-serif" font-size="20" font-weight="bold" lengthAdjust="spacing" textLength="14" x="104.5" y="161.4082">1</text><text fill="#000000" font-family="sans-serif" font-size="20" lengthAdjust="spacing" textLength="157" x="122.5" y="161.4082">approves a task</text><polygon fill="#181818" points="108.5,201.4063,98.5,205.4063,108.5,209.4063,104.5,205.4063" style="stroke:#181818;stroke-width:1.0;"/><line style="stroke:#181818;stroke-width:1.0;stroke-dasharray:2.0,2.0;" x1="102.5" x2="492.5" y1="205.4063" y2="205.4063"/><text fill="#000000" font-family="sans-serif" font-size="20" font-weight="bold" lengthAdjust="spacing" textLength="14" x="114.5" y="198.6895">2</text><text fill="#000000" font-family="sans-serif" font-size="20" lengthAdjust="spacing" textLength="330" x="132.5" y="198.6895">asks to assign a robot to the task</text><polygon fill="#181818" points="476.5,238.6875,486.5,242.6875,476.5,246.6875,480.5,242.6875" style="stroke:#181818;stroke-width:1.0;"/><line style="stroke:#181818;stroke-width:1.0;" x1="97.5" x2="482.5" y1="242.6875" y2="242.6875"/><text fill="#000000" font-family="sans-serif" font-size="20" font-weight="bold" lengthAdjust="spacing" textLength="14" x="104.5" y="235.9707">3</text><text fill="#000000" font-family="sans-serif" font-size="20" lengthAdjust="spacing" textLength="247" x="122.5" y="235.9707">selects the desired robot</text><polygon fill="#181818" points="108.5,275.9688,98.5,279.9688,108.5,283.9688,104.5,279.9688" style="stroke:#181818;stroke-width:1.0;"/><line style="stroke:#181818;stroke-width:1.0;stroke-dasharray:2.0,2.0;" x1="102.5" x2="492.5" y1="279.9688" y2="279.9688"/><text fill="#000000" font-family="sans-serif" font-size="20" font-weight="bold" lengthAdjust="spacing" textLength="14" x="114.5" y="273.252">4</text><text fill="#000000" font-family="sans-serif" font-size="20" lengthAdjust="spacing" textLength="349" x="132.5" y="273.252">returns the sucess of the operation</text><line style="stroke:#000000;stroke-width:1.0;stroke-dasharray:2.0,2.0;" x1="10" x2="614" y1="288.9688" y2="288.9688"/><text fill="#000000" font-family="sans-serif" font-size="20" font-weight="bold" lengthAdjust="spacing" textLength="153" x="15" y="307.5332">[rejects task]</text><polygon fill="#181818" points="476.5,338.5313,486.5,342.5313,476.5,346.5313,480.5,342.5313" style="stroke:#181818;stroke-width:1.0;"/><line style="stroke:#181818;stroke-width:1.0;" x1="97.5" x2="482.5" y1="342.5313" y2="342.5313"/><text fill="#000000" font-family="sans-serif" font-size="20" font-weight="bold" lengthAdjust="spacing" textLength="14" x="104.5" y="335.8145">5</text><text fill="#000000" font-family="sans-serif" font-size="20" lengthAdjust="spacing" textLength="133" x="122.5" y="335.8145">rejects a task</text><polygon fill="#181818" points="108.5,375.8125,98.5,379.8125,108.5,383.8125,104.5,379.8125" style="stroke:#181818;stroke-width:1.0;"/><line style="stroke:#181818;stroke-width:1.0;stroke-dasharray:2.0,2.0;" x1="102.5" x2="492.5" y1="379.8125" y2="379.8125"/><text fill="#000000" font-family="sans-serif" font-size="20" font-weight="bold" lengthAdjust="spacing" textLength="14" x="114.5" y="373.0957">6</text><text fill="#000000" font-family="sans-serif" font-size="20" lengthAdjust="spacing" textLength="349" x="132.5" y="373.0957">returns the sucess of the operation</text><!--SRC=[dP4nJyGm38Nt_0gh4moL4692LHSGDzr2Rs5qKzyHsiPLx9u4lnvVgXv8d0HYIcA_zxt4aJx42HEE0_kUEkXeZ_EWJnor2Hy4jpSEP-KuZoqbvz0h9zXj0GMA7KeFMunue5GuesZmOSAeqBmqMV7CxMFYI1k6vbsKnWAgIl8EhXxkhkiw8yCHbOngXq41fodnaGJK-0vEQMMTaVTVFLoxPxi9tAAkodALIsyOjbN28PefSSjwgkWhhOIEBZ3EYK83UPLiw4X2iY5boc_PYNHESJ7Ax4a4U9zFF5523HmlXDCWPDQt9VFd0DRMtzx_hpjGx9pxLhD_-GG0]--></g></svg>