<?xml version="1.0" encoding="UTF-8" standalone="no"?><svg xmlns="http://www.w3.org/2000/svg" xmlns:xlink="http://www.w3.org/1999/xlink" contentStyleType="text/css" height="601px" preserveAspectRatio="none" style="width:1324px;height:601px;background:#FFFFFF;" version="1.1" viewBox="0 0 1324 601" width="1324px" zoomAndPan="magnify"><defs/><g><rect fill="#DDDDDD" height="589.5" style="stroke:#181818;stroke-width:0.5;" width="603" x="708.5" y="6"/><text fill="#000000" font-family="sans-serif" font-size="20" font-weight="bold" lengthAdjust="spacing" textLength="162" x="929" y="24.5645">«system (C4)»</text><text fill="#000000" font-family="sans-serif" font-size="20" font-weight="bold" lengthAdjust="spacing" textLength="142" x="939" y="47.8457">RobDroneGo</text><rect fill="#FFFFFF" height="371.0938" style="stroke:#181818;stroke-width:1.0;" width="10" x="105.5" y="128.125"/><rect fill="#FFFFFF" height="37.2813" style="stroke:#181818;stroke-width:1.0;" width="10" x="798.5" y="157.4063"/><rect fill="#FFFFFF" height="252.25" style="stroke:#181818;stroke-width:1.0;" width="10" x="798.5" y="231.9688"/><rect fill="#FFFFFF" height="77.8438" style="stroke:#181818;stroke-width:1.0;" width="10" x="1210.5" y="269.25"/><rect fill="#FFFFFF" height="62.5625" style="stroke:#181818;stroke-width:1.0;" width="10" x="1210.5" y="384.375"/><rect fill="none" height="207.9688" style="stroke:#000000;stroke-width:1.5;" width="1307.5" x="10" y="284.25"/><line style="stroke:#181818;stroke-width:0.5;stroke-dasharray:5.0,5.0;" x1="110" x2="110" y1="118.125" y2="509.2188"/><line style="stroke:#181818;stroke-width:0.5;stroke-dasharray:5.0,5.0;" x1="803.5" x2="803.5" y1="118.125" y2="509.2188"/><line style="stroke:#181818;stroke-width:0.5;stroke-dasharray:5.0,5.0;" x1="1215.5" x2="1215.5" y1="118.125" y2="509.2188"/><text fill="#000000" font-family="sans-serif" font-size="20" lengthAdjust="spacing" textLength="175" x="20" y="113.4082">Campus Manager</text><ellipse cx="110.5" cy="43.3438" fill="#E2E2F0" rx="8" ry="8" style="stroke:#181818;stroke-width:0.5;"/><path d="M110.5,51.3438 L110.5,78.3438 M97.5,59.3438 L123.5,59.3438 M110.5,78.3438 L97.5,93.3438 M110.5,78.3438 L123.5,93.3438 " fill="none" style="stroke:#181818;stroke-width:0.5;"/><text fill="#000000" font-family="sans-serif" font-size="20" lengthAdjust="spacing" textLength="175" x="20" y="526.7832">Campus Manager</text><ellipse cx="110.5" cy="540" fill="#E2E2F0" rx="8" ry="8" style="stroke:#181818;stroke-width:0.5;"/><path d="M110.5,548 L110.5,575 M97.5,556 L123.5,556 M110.5,575 L97.5,590 M110.5,575 L123.5,590 " fill="none" style="stroke:#181818;stroke-width:0.5;"/><rect fill="#E2E2F0" height="60.5625" rx="2.5" ry="2.5" style="stroke:#181818;stroke-width:0.5;" width="182" x="712.5" y="56.5625"/><text fill="#000000" font-family="sans-serif" font-size="20" font-style="italic" lengthAdjust="spacing" textLength="168" x="719.5" y="82.127">«container (C4)»</text><text fill="#000000" font-family="sans-serif" font-size="20" lengthAdjust="spacing" textLength="129" x="739" y="105.4082">Visualization</text><rect fill="#E2E2F0" height="60.5625" rx="2.5" ry="2.5" style="stroke:#181818;stroke-width:0.5;" width="182" x="712.5" y="508.2188"/><text fill="#000000" font-family="sans-serif" font-size="20" font-style="italic" lengthAdjust="spacing" textLength="168" x="719.5" y="533.7832">«container (C4)»</text><text fill="#000000" font-family="sans-serif" font-size="20" lengthAdjust="spacing" textLength="129" x="739" y="557.0645">Visualization</text><rect fill="#E2E2F0" height="60.5625" rx="2.5" ry="2.5" style="stroke:#181818;stroke-width:0.5;" width="184" x="1123.5" y="56.5625"/><text fill="#000000" font-family="sans-serif" font-size="20" font-style="italic" lengthAdjust="spacing" textLength="168" x="1131.5" y="82.127">«container (C4)»</text><text fill="#000000" font-family="sans-serif" font-size="20" lengthAdjust="spacing" textLength="170" x="1130.5" y="105.4082">MD Management</text><rect fill="#E2E2F0" height="60.5625" rx="2.5" ry="2.5" style="stroke:#181818;stroke-width:0.5;" width="184" x="1123.5" y="508.2188"/><text fill="#000000" font-family="sans-serif" font-size="20" font-style="italic" lengthAdjust="spacing" textLength="168" x="1131.5" y="533.7832">«container (C4)»</text><text fill="#000000" font-family="sans-serif" font-size="20" lengthAdjust="spacing" textLength="170" x="1130.5" y="557.0645">MD Management</text><rect fill="#FFFFFF" height="371.0938" style="stroke:#181818;stroke-width:1.0;" width="10" x="105.5" y="128.125"/><rect fill="#FFFFFF" height="37.2813" style="stroke:#181818;stroke-width:1.0;" width="10" x="798.5" y="157.4063"/><rect fill="#FFFFFF" height="252.25" style="stroke:#181818;stroke-width:1.0;" width="10" x="798.5" y="231.9688"/><rect fill="#FFFFFF" height="77.8438" style="stroke:#181818;stroke-width:1.0;" width="10" x="1210.5" y="269.25"/><rect fill="#FFFFFF" height="62.5625" style="stroke:#181818;stroke-width:1.0;" width="10" x="1210.5" y="384.375"/><polygon fill="#181818" points="786.5,153.4063,796.5,157.4063,786.5,161.4063,790.5,157.4063" style="stroke:#181818;stroke-width:1.0;"/><line style="stroke:#181818;stroke-width:1.0;" x1="115.5" x2="792.5" y1="157.4063" y2="157.4063"/><text fill="#000000" font-family="sans-serif" font-size="20" font-weight="bold" lengthAdjust="spacing" textLength="14" x="122.5" y="150.6895">1</text><text fill="#000000" font-family="sans-serif" font-size="20" lengthAdjust="spacing" textLength="255" x="140.5" y="150.6895">wants to edit a connector</text><polygon fill="#181818" points="126.5,190.6875,116.5,194.6875,126.5,198.6875,122.5,194.6875" style="stroke:#181818;stroke-width:1.0;"/><line style="stroke:#181818;stroke-width:1.0;stroke-dasharray:2.0,2.0;" x1="120.5" x2="802.5" y1="194.6875" y2="194.6875"/><text fill="#000000" font-family="sans-serif" font-size="20" font-weight="bold" lengthAdjust="spacing" textLength="14" x="132.5" y="187.9707">2</text><text fill="#000000" font-family="sans-serif" font-size="20" lengthAdjust="spacing" textLength="300" x="150.5" y="187.9707">asks for the floors 1 &amp; 2 codes</text><polygon fill="#181818" points="786.5,227.9688,796.5,231.9688,786.5,235.9688,790.5,231.9688" style="stroke:#181818;stroke-width:1.0;"/><line style="stroke:#181818;stroke-width:1.0;" x1="115.5" x2="792.5" y1="231.9688" y2="231.9688"/><text fill="#000000" font-family="sans-serif" font-size="20" font-weight="bold" lengthAdjust="spacing" textLength="14" x="122.5" y="225.252">3</text><text fill="#000000" font-family="sans-serif" font-size="20" lengthAdjust="spacing" textLength="157" x="140.5" y="225.252">inserts the data</text><polygon fill="#181818" points="1198.5,265.25,1208.5,269.25,1198.5,273.25,1202.5,269.25" style="stroke:#181818;stroke-width:1.0;"/><line style="stroke:#181818;stroke-width:1.0;" x1="808.5" x2="1204.5" y1="269.25" y2="269.25"/><text fill="#000000" font-family="sans-serif" font-size="20" font-weight="bold" lengthAdjust="spacing" textLength="14" x="815.5" y="262.5332">4</text><text fill="#000000" font-family="sans-serif" font-size="20" lengthAdjust="spacing" textLength="271" x="833.5" y="262.5332">PATCH /connectors/{code}</text><text fill="#000000" font-family="sans-serif" font-size="20" lengthAdjust="spacing" textLength="71" x="1127.5" y="262.5332">{data}</text><path d="M10,284.25 L86,284.25 L86,299.5313 L76,309.5313 L10,309.5313 L10,284.25 " fill="#EEEEEE" style="stroke:#000000;stroke-width:1.5;"/><rect fill="none" height="207.9688" style="stroke:#000000;stroke-width:1.5;" width="1307.5" x="10" y="284.25"/><text fill="#000000" font-family="sans-serif" font-size="20" font-weight="bold" lengthAdjust="spacing" textLength="31" x="25" y="303.8145">alt</text><text fill="#000000" font-family="sans-serif" font-size="20" font-weight="bold" lengthAdjust="spacing" textLength="335" x="101" y="304.8145">[the connector gets updated]</text><polygon fill="#181818" points="819.5,343.0938,809.5,347.0938,819.5,351.0938,815.5,347.0938" style="stroke:#181818;stroke-width:1.0;"/><line style="stroke:#181818;stroke-width:1.0;stroke-dasharray:2.0,2.0;" x1="813.5" x2="1214.5" y1="347.0938" y2="347.0938"/><text fill="#000000" font-family="sans-serif" font-size="20" font-weight="bold" lengthAdjust="spacing" textLength="14" x="825.5" y="340.377">5</text><text fill="#000000" font-family="sans-serif" font-size="20" lengthAdjust="spacing" textLength="74" x="843.5" y="340.377">200 OK</text><polygon fill="#181818" points="126.5,380.375,116.5,384.375,126.5,388.375,122.5,384.375" style="stroke:#181818;stroke-width:1.0;"/><line style="stroke:#181818;stroke-width:1.0;stroke-dasharray:2.0,2.0;" x1="120.5" x2="797.5" y1="384.375" y2="384.375"/><text fill="#000000" font-family="sans-serif" font-size="20" font-weight="bold" lengthAdjust="spacing" textLength="14" x="132.5" y="377.6582">6</text><text fill="#000000" font-family="sans-serif" font-size="20" lengthAdjust="spacing" textLength="364" x="150.5" y="377.6582">informs the success of the operation</text><line style="stroke:#000000;stroke-width:1.0;stroke-dasharray:2.0,2.0;" x1="10" x2="1317.5" y1="393.375" y2="393.375"/><text fill="#000000" font-family="sans-serif" font-size="20" font-weight="bold" lengthAdjust="spacing" textLength="497" x="15" y="411.9395">[there is a connector between those floors]</text><polygon fill="#181818" points="819.5,442.9375,809.5,446.9375,819.5,450.9375,815.5,446.9375" style="stroke:#181818;stroke-width:1.0;"/><line style="stroke:#181818;stroke-width:1.0;stroke-dasharray:2.0,2.0;" x1="813.5" x2="1214.5" y1="446.9375" y2="446.9375"/><text fill="#000000" font-family="sans-serif" font-size="20" font-weight="bold" lengthAdjust="spacing" textLength="14" x="825.5" y="440.2207">7</text><text fill="#000000" font-family="sans-serif" font-size="20" lengthAdjust="spacing" textLength="172" x="843.5" y="440.2207">400 Bad Request</text><polygon fill="#181818" points="126.5,480.2188,116.5,484.2188,126.5,488.2188,122.5,484.2188" style="stroke:#181818;stroke-width:1.0;"/><line style="stroke:#181818;stroke-width:1.0;stroke-dasharray:2.0,2.0;" x1="120.5" x2="802.5" y1="484.2188" y2="484.2188"/><text fill="#000000" font-family="sans-serif" font-size="20" font-weight="bold" lengthAdjust="spacing" textLength="14" x="132.5" y="477.502">8</text><text fill="#000000" font-family="sans-serif" font-size="20" lengthAdjust="spacing" textLength="641" x="150.5" y="477.502">shows error message "A connector exists between those floors."</text><!--SRC=[XLBDRjD04BxlKtpo0S4XD4GzLL6aD15GeGXKMawzREn9kegzQtR69BJg4_48tFfa7Q-LnYcLkDZUzVSxkxnnlhRHLcN8DrIWe9LjIlaOl7ntTuJHqDX6Wc-g9KN3UpJc7UwATZ8jtTfNv6KyplL9SJ91zs6CpIL4p1QmZ6ncgxfXBAotQugPCSkmG_RuXt-pK8MtizDtZtzl_6LOpcFmz2baE4WQG9t5vQwsNd1zaIH_E6viwUwikE0JN8DRvoackNzeYtcYwQjBqSP-bKQ-WCPB3TmlAwGbZD4YWqdhVOQjoZ4aW0edi505JstR0-Fw8Z76Wq57iRnXh7GUSajObI54nWUymKZ91R4fw2LrR-OyKspjb5XOiSSU2b6WTZh3j-dLx3DEdiFmoNsh_N0Zk6-93mVcOgxbIacQptYiIMsQMh5KwEnKkesVj4V38Rv-qSrUpbO4w9TqNXjMNLHkyfoO4LPf6MgAwQ0CbKpjLYGuxWyFIv8jaTUVWVT3KeU-uN6gKqrrRWjSqi-6MFuNZs_3ba4ngbUbsVGE89ls0j3EiOxWjHplisDrdRrU4zC_DxqaJm00]--></g></svg>