<?xml version="1.0" encoding="UTF-8" standalone="no"?><svg xmlns="http://www.w3.org/2000/svg" xmlns:xlink="http://www.w3.org/1999/xlink" contentStyleType="text/css" height="929px" preserveAspectRatio="none" style="width:2918px;height:929px;background:#FFFFFF;" version="1.1" viewBox="0 0 2918 929" width="2918px" zoomAndPan="magnify"><defs/><g><rect fill="#FFFFFF" height="775.0796" style="stroke:#181818;stroke-width:1.0;" width="10" x="293.625" y="90.4799"/><rect fill="#FFFFFF" height="692.5996" style="stroke:#181818;stroke-width:1.0;" width="10" x="526.25" y="131.7199"/><rect fill="#FFFFFF" height="610.1197" style="stroke:#181818;stroke-width:1.0;" width="10" x="773.875" y="172.9599"/><rect fill="#FFFFFF" height="41.24" style="stroke:#181818;stroke-width:1.0;" width="10" x="1105.5" y="214.1999"/><rect fill="#FFFFFF" height="299.4398" style="stroke:#181818;stroke-width:1.0;" width="10" x="1368" y="348.9198"/><rect fill="#FFFFFF" height="41.24" style="stroke:#181818;stroke-width:1.0;" width="10" x="1680.25" y="390.1598"/><rect fill="#FFFFFF" height="41.24" style="stroke:#181818;stroke-width:1.0;" width="10" x="1680.25" y="554.8797"/><rect fill="#FFFFFF" height="41.24" style="stroke:#181818;stroke-width:1.0;" width="10" x="1680.25" y="689.5996"/><rect fill="#FFFFFF" height="30" style="stroke:#181818;stroke-width:1.0;" width="10" x="2330.375" y="483.6397"/><line style="stroke:#181818;stroke-width:0.5;stroke-dasharray:5.0,5.0;" x1="298.625" x2="298.625" y1="47.24" y2="883.5595"/><line style="stroke:#181818;stroke-width:0.5;stroke-dasharray:5.0,5.0;" x1="530.75" x2="530.75" y1="47.24" y2="883.5595"/><line style="stroke:#181818;stroke-width:0.5;stroke-dasharray:5.0,5.0;" x1="778.875" x2="778.875" y1="47.24" y2="883.5595"/><line style="stroke:#181818;stroke-width:0.5;stroke-dasharray:5.0,5.0;" x1="1110.5" x2="1110.5" y1="47.24" y2="883.5595"/><line style="stroke:#181818;stroke-width:0.5;stroke-dasharray:5.0,5.0;" x1="1248.5" x2="1248.5" y1="299.5598" y2="883.5595"/><line style="stroke:#181818;stroke-width:0.5;stroke-dasharray:5.0,5.0;" x1="1372.5" x2="1372.5" y1="47.24" y2="883.5595"/><line style="stroke:#181818;stroke-width:0.5;stroke-dasharray:5.0,5.0;" x1="1684.75" x2="1684.75" y1="47.24" y2="883.5595"/><line style="stroke:#181818;stroke-width:0.5;stroke-dasharray:5.0,5.0;" x1="1966.875" x2="1966.875" y1="434.2798" y2="883.5595"/><line style="stroke:#181818;stroke-width:0.5;stroke-dasharray:5.0,5.0;" x1="2334.875" x2="2334.875" y1="47.24" y2="883.5595"/><line style="stroke:#181818;stroke-width:0.5;stroke-dasharray:5.0,5.0;" x1="2614.875" x2="2614.875" y1="598.9997" y2="883.5595"/><line style="stroke:#181818;stroke-width:0.5;stroke-dasharray:5.0,5.0;" x1="2807.875" x2="2807.875" y1="733.7196" y2="883.5595"/><rect fill="#E2E2F0" height="41.24" rx="2.5" ry="2.5" style="stroke:#181818;stroke-width:0.5;" width="120" x="238.625" y="5"/><text fill="#000000" font-family="sans-serif" font-size="20" lengthAdjust="spacing" textLength="106" x="245.625" y="33.38">:FloorRoute</text><rect fill="#E2E2F0" height="41.24" rx="2.5" ry="2.5" style="stroke:#181818;stroke-width:0.5;" width="120" x="238.625" y="882.5595"/><text fill="#000000" font-family="sans-serif" font-size="20" lengthAdjust="spacing" textLength="106" x="245.625" y="910.9395">:FloorRoute</text><rect fill="#E2E2F0" height="41.24" rx="2.5" ry="2.5" style="stroke:#181818;stroke-width:0.5;" width="159" x="451.75" y="5"/><text fill="#000000" font-family="sans-serif" font-size="20" lengthAdjust="spacing" textLength="145" x="458.75" y="33.38">:FloorController</text><rect fill="#E2E2F0" height="41.24" rx="2.5" ry="2.5" style="stroke:#181818;stroke-width:0.5;" width="159" x="451.75" y="882.5595"/><text fill="#000000" font-family="sans-serif" font-size="20" lengthAdjust="spacing" textLength="145" x="458.75" y="910.9395">:FloorController</text><rect fill="#E2E2F0" height="41.24" rx="2.5" ry="2.5" style="stroke:#181818;stroke-width:0.5;" width="132" x="712.875" y="5"/><text fill="#000000" font-family="sans-serif" font-size="20" lengthAdjust="spacing" textLength="118" x="719.875" y="33.38">:FloorService</text><rect fill="#E2E2F0" height="41.24" rx="2.5" ry="2.5" style="stroke:#181818;stroke-width:0.5;" width="132" x="712.875" y="882.5595"/><text fill="#000000" font-family="sans-serif" font-size="20" lengthAdjust="spacing" textLength="118" x="719.875" y="910.9395">:FloorService</text><rect fill="#E2E2F0" height="41.24" rx="2.5" ry="2.5" style="stroke:#181818;stroke-width:0.5;" width="142" x="1039.5" y="5"/><text fill="#000000" font-family="sans-serif" font-size="20" lengthAdjust="spacing" textLength="128" x="1046.5" y="33.38">:BuildingRepo</text><rect fill="#E2E2F0" height="41.24" rx="2.5" ry="2.5" style="stroke:#181818;stroke-width:0.5;" width="142" x="1039.5" y="882.5595"/><text fill="#000000" font-family="sans-serif" font-size="20" lengthAdjust="spacing" textLength="128" x="1046.5" y="910.9395">:BuildingRepo</text><rect fill="#E2E2F0" height="41.24" rx="2.5" ry="2.5" style="stroke:#181818;stroke-width:0.5;" width="115" x="1191.5" y="882.5595"/><text fill="#000000" font-family="sans-serif" font-size="20" lengthAdjust="spacing" textLength="101" x="1198.5" y="910.9395">:floor:Floor</text><rect fill="#E2E2F0" height="41.24" rx="2.5" ry="2.5" style="stroke:#181818;stroke-width:0.5;" width="113" x="1316.5" y="5"/><text fill="#000000" font-family="sans-serif" font-size="20" lengthAdjust="spacing" textLength="99" x="1323.5" y="33.38">:FloorRepo</text><rect fill="#E2E2F0" height="41.24" rx="2.5" ry="2.5" style="stroke:#181818;stroke-width:0.5;" width="113" x="1316.5" y="882.5595"/><text fill="#000000" font-family="sans-serif" font-size="20" lengthAdjust="spacing" textLength="99" x="1323.5" y="910.9395">:FloorRepo</text><rect fill="#E2E2F0" height="41.24" rx="2.5" ry="2.5" style="stroke:#181818;stroke-width:0.5;" width="107" x="1631.75" y="5"/><text fill="#000000" font-family="sans-serif" font-size="20" lengthAdjust="spacing" textLength="93" x="1638.75" y="33.38">:FloorMap</text><rect fill="#E2E2F0" height="41.24" rx="2.5" ry="2.5" style="stroke:#181818;stroke-width:0.5;" width="107" x="1631.75" y="882.5595"/><text fill="#000000" font-family="sans-serif" font-size="20" lengthAdjust="spacing" textLength="93" x="1638.75" y="910.9395">:FloorMap</text><rect fill="#E2E2F0" height="41.24" rx="2.5" ry="2.5" style="stroke:#181818;stroke-width:0.5;" width="334" x="1799.875" y="882.5595"/><text fill="#000000" font-family="sans-serif" font-size="20" lengthAdjust="spacing" textLength="320" x="1806.875" y="910.9395">FloorPersistence:IFloorPersistence</text><rect fill="#E2E2F0" height="41.24" rx="2.5" ry="2.5" style="stroke:#181818;stroke-width:0.5;" width="383" x="2143.875" y="5"/><text fill="#000000" font-family="sans-serif" font-size="20" lengthAdjust="spacing" textLength="369" x="2150.875" y="33.38">:Model&lt;IFloorPersistence &amp; Document&gt;</text><rect fill="#E2E2F0" height="41.24" rx="2.5" ry="2.5" style="stroke:#181818;stroke-width:0.5;" width="383" x="2143.875" y="882.5595"/><text fill="#000000" font-family="sans-serif" font-size="20" lengthAdjust="spacing" textLength="369" x="2150.875" y="910.9395">:Model&lt;IFloorPersistence &amp; Document&gt;</text><rect fill="#E2E2F0" height="41.24" rx="2.5" ry="2.5" style="stroke:#181818;stroke-width:0.5;" width="157" x="2536.875" y="882.5595"/><text fill="#000000" font-family="sans-serif" font-size="20" lengthAdjust="spacing" textLength="143" x="2543.875" y="910.9395">:newFloor:Floor</text><rect fill="#E2E2F0" height="41.24" rx="2.5" ry="2.5" style="stroke:#181818;stroke-width:0.5;" width="209" x="2703.875" y="882.5595"/><text fill="#000000" font-family="sans-serif" font-size="20" lengthAdjust="spacing" textLength="195" x="2710.875" y="910.9395">:FloorDTO:IFloorDTO</text><rect fill="#FFFFFF" height="775.0796" style="stroke:#181818;stroke-width:1.0;" width="10" x="293.625" y="90.4799"/><rect fill="#FFFFFF" height="692.5996" style="stroke:#181818;stroke-width:1.0;" width="10" x="526.25" y="131.7199"/><rect fill="#FFFFFF" height="610.1197" style="stroke:#181818;stroke-width:1.0;" width="10" x="773.875" y="172.9599"/><rect fill="#FFFFFF" height="41.24" style="stroke:#181818;stroke-width:1.0;" width="10" x="1105.5" y="214.1999"/><rect fill="#FFFFFF" height="299.4398" style="stroke:#181818;stroke-width:1.0;" width="10" x="1368" y="348.9198"/><rect fill="#FFFFFF" height="41.24" style="stroke:#181818;stroke-width:1.0;" width="10" x="1680.25" y="390.1598"/><rect fill="#FFFFFF" height="41.24" style="stroke:#181818;stroke-width:1.0;" width="10" x="1680.25" y="554.8797"/><rect fill="#FFFFFF" height="41.24" style="stroke:#181818;stroke-width:1.0;" width="10" x="1680.25" y="689.5996"/><rect fill="#FFFFFF" height="30" style="stroke:#181818;stroke-width:1.0;" width="10" x="2330.375" y="483.6397"/><ellipse cx="4.5" cy="89.7299" fill="none" rx="4" ry="4" style="stroke:#181818;stroke-width:1.5;"/><polygon fill="#181818" points="281.625,86.4799,291.625,90.4799,281.625,94.4799,285.625,90.4799" style="stroke:#181818;stroke-width:1.0;"/><line style="stroke:#181818;stroke-width:1.0;" x1="9" x2="287.625" y1="90.4799" y2="90.4799"/><text fill="#000000" font-family="sans-serif" font-size="20" font-weight="bold" lengthAdjust="spacing" textLength="11.625" x="12" y="82.62">1</text><text fill="#000000" font-family="sans-serif" font-size="20" lengthAdjust="spacing" textLength="251" x="27.625" y="82.62">POST /:buildingCode/floors</text><polygon fill="#181818" points="514.25,127.7199,524.25,131.7199,514.25,135.7199,518.25,131.7199" style="stroke:#181818;stroke-width:1.0;"/><line style="stroke:#181818;stroke-width:1.0;" x1="303.625" x2="520.25" y1="131.7199" y2="131.7199"/><text fill="#000000" font-family="sans-serif" font-size="20" font-weight="bold" lengthAdjust="spacing" textLength="11.625" x="310.625" y="123.8599">2</text><text fill="#000000" font-family="sans-serif" font-size="20" lengthAdjust="spacing" textLength="188" x="326.25" y="123.8599">createFloor(request)</text><polygon fill="#181818" points="761.875,168.9599,771.875,172.9599,761.875,176.9599,765.875,172.9599" style="stroke:#181818;stroke-width:1.0;"/><line style="stroke:#181818;stroke-width:1.0;" x1="536.25" x2="767.875" y1="172.9599" y2="172.9599"/><text fill="#000000" font-family="sans-serif" font-size="20" font-weight="bold" lengthAdjust="spacing" textLength="11.625" x="543.25" y="165.0999">3</text><text fill="#000000" font-family="sans-serif" font-size="20" lengthAdjust="spacing" textLength="203" x="558.875" y="165.0999">createFloor(floorDTO)</text><polygon fill="#181818" points="1093.5,210.1999,1103.5,214.1999,1093.5,218.1999,1097.5,214.1999" style="stroke:#181818;stroke-width:1.0;"/><line style="stroke:#181818;stroke-width:1.0;" x1="783.875" x2="1099.5" y1="214.1999" y2="214.1999"/><text fill="#000000" font-family="sans-serif" font-size="20" font-weight="bold" lengthAdjust="spacing" textLength="11.625" x="790.875" y="206.3399">4</text><text fill="#000000" font-family="sans-serif" font-size="20" lengthAdjust="spacing" textLength="287" x="806.5" y="206.3399">findByDomainId(buildingCode)</text><polygon fill="#181818" points="794.875,251.4398,784.875,255.4398,794.875,259.4398,790.875,255.4398" style="stroke:#181818;stroke-width:1.0;"/><line style="stroke:#181818;stroke-width:1.0;stroke-dasharray:2.0,2.0;" x1="788.875" x2="1109.5" y1="255.4398" y2="255.4398"/><text fill="#000000" font-family="sans-serif" font-size="20" font-weight="bold" lengthAdjust="spacing" textLength="11.625" x="800.875" y="247.5799">5</text><text fill="#000000" font-family="sans-serif" font-size="20" lengthAdjust="spacing" textLength="75" x="816.5" y="247.5799">building</text><polygon fill="#181818" points="1179.5,292.6798,1189.5,296.6798,1179.5,300.6798,1183.5,296.6798" style="stroke:#181818;stroke-width:1.0;"/><line style="stroke:#181818;stroke-width:1.0;" x1="783.875" x2="1185.5" y1="296.6798" y2="296.6798"/><text fill="#000000" font-family="sans-serif" font-size="20" font-weight="bold" lengthAdjust="spacing" textLength="11.625" x="790.875" y="288.8198">6</text><text fill="#000000" font-family="sans-serif" font-size="20" lengthAdjust="spacing" textLength="70" x="806.5" y="288.8198">create()</text><rect fill="#E2E2F0" height="41.24" rx="2.5" ry="2.5" style="stroke:#181818;stroke-width:0.5;" width="115" x="1191.5" y="263.4398"/><text fill="#000000" font-family="sans-serif" font-size="20" lengthAdjust="spacing" textLength="101" x="1198.5" y="291.8198">:floor:Floor</text><polygon fill="#181818" points="1356,344.9198,1366,348.9198,1356,352.9198,1360,348.9198" style="stroke:#181818;stroke-width:1.0;"/><line style="stroke:#181818;stroke-width:1.0;" x1="783.875" x2="1362" y1="348.9198" y2="348.9198"/><text fill="#000000" font-family="sans-serif" font-size="20" font-weight="bold" lengthAdjust="spacing" textLength="11.625" x="790.875" y="341.0598">7</text><text fill="#000000" font-family="sans-serif" font-size="20" lengthAdjust="spacing" textLength="98" x="806.5" y="341.0598">save(floor)</text><polygon fill="#181818" points="1668.25,386.1598,1678.25,390.1598,1668.25,394.1598,1672.25,390.1598" style="stroke:#181818;stroke-width:1.0;"/><line style="stroke:#181818;stroke-width:1.0;" x1="1378" x2="1674.25" y1="390.1598" y2="390.1598"/><text fill="#000000" font-family="sans-serif" font-size="20" font-weight="bold" lengthAdjust="spacing" textLength="11.625" x="1385" y="382.2998">8</text><text fill="#000000" font-family="sans-serif" font-size="20" lengthAdjust="spacing" textLength="172" x="1400.625" y="382.2998">toPersitence(floor)</text><polygon fill="#181818" points="1787.875,427.3997,1797.875,431.3997,1787.875,435.3997,1791.875,431.3997" style="stroke:#181818;stroke-width:1.0;"/><line style="stroke:#181818;stroke-width:1.0;" x1="1685.25" x2="1793.875" y1="431.3997" y2="431.3997"/><text fill="#000000" font-family="sans-serif" font-size="20" font-weight="bold" lengthAdjust="spacing" textLength="11.625" x="1692.25" y="423.5398">9</text><text fill="#000000" font-family="sans-serif" font-size="20" lengthAdjust="spacing" textLength="70" x="1707.875" y="423.5398">create()</text><rect fill="#E2E2F0" height="41.24" rx="2.5" ry="2.5" style="stroke:#181818;stroke-width:0.5;" width="334" x="1799.875" y="398.1598"/><text fill="#000000" font-family="sans-serif" font-size="20" lengthAdjust="spacing" textLength="320" x="1806.875" y="426.5398">FloorPersistence:IFloorPersistence</text><polygon fill="#181818" points="2318.375,479.6397,2328.375,483.6397,2318.375,487.6397,2322.375,483.6397" style="stroke:#181818;stroke-width:1.0;"/><line style="stroke:#181818;stroke-width:1.0;" x1="1378" x2="2324.375" y1="483.6397" y2="483.6397"/><text fill="#000000" font-family="sans-serif" font-size="20" font-weight="bold" lengthAdjust="spacing" textLength="23.25" x="1385" y="475.7797">10</text><text fill="#000000" font-family="sans-serif" font-size="20" lengthAdjust="spacing" textLength="221" x="1412.25" y="475.7797">create(floorPersistence)</text><polygon fill="#181818" points="1668.25,550.8797,1678.25,554.8797,1668.25,558.8797,1672.25,554.8797" style="stroke:#181818;stroke-width:1.0;"/><line style="stroke:#181818;stroke-width:1.0;" x1="1378" x2="1674.25" y1="554.8797" y2="554.8797"/><text fill="#000000" font-family="sans-serif" font-size="20" font-weight="bold" lengthAdjust="spacing" textLength="23.25" x="1385" y="547.0197">11</text><text fill="#000000" font-family="sans-serif" font-size="20" lengthAdjust="spacing" textLength="256" x="1412.25" y="547.0197">toDomain(floorPersistence)</text><polygon fill="#181818" points="2524.875,592.1197,2534.875,596.1197,2524.875,600.1197,2528.875,596.1197" style="stroke:#181818;stroke-width:1.0;"/><line style="stroke:#181818;stroke-width:1.0;" x1="1685.25" x2="2530.875" y1="596.1197" y2="596.1197"/><text fill="#000000" font-family="sans-serif" font-size="20" font-weight="bold" lengthAdjust="spacing" textLength="23.25" x="1692.25" y="588.2597">12</text><text fill="#000000" font-family="sans-serif" font-size="20" lengthAdjust="spacing" textLength="70" x="1719.5" y="588.2597">create()</text><rect fill="#E2E2F0" height="41.24" rx="2.5" ry="2.5" style="stroke:#181818;stroke-width:0.5;" width="157" x="2536.875" y="562.8797"/><text fill="#000000" font-family="sans-serif" font-size="20" lengthAdjust="spacing" textLength="143" x="2543.875" y="591.2597">:newFloor:Floor</text><polygon fill="#181818" points="794.875,644.3596,784.875,648.3596,794.875,652.3596,790.875,648.3596" style="stroke:#181818;stroke-width:1.0;"/><line style="stroke:#181818;stroke-width:1.0;stroke-dasharray:2.0,2.0;" x1="788.875" x2="1372" y1="648.3596" y2="648.3596"/><text fill="#000000" font-family="sans-serif" font-size="20" font-weight="bold" lengthAdjust="spacing" textLength="23.25" x="800.875" y="640.4997">13</text><text fill="#000000" font-family="sans-serif" font-size="20" lengthAdjust="spacing" textLength="86" x="828.125" y="640.4997">newFloor</text><polygon fill="#181818" points="1668.25,685.5996,1678.25,689.5996,1668.25,693.5996,1672.25,689.5996" style="stroke:#181818;stroke-width:1.0;"/><line style="stroke:#181818;stroke-width:1.0;" x1="783.875" x2="1674.25" y1="689.5996" y2="689.5996"/><text fill="#000000" font-family="sans-serif" font-size="20" font-weight="bold" lengthAdjust="spacing" textLength="23.25" x="790.875" y="681.7396">14</text><text fill="#000000" font-family="sans-serif" font-size="20" lengthAdjust="spacing" textLength="151" x="818.125" y="681.7396">toDto(newFloor)</text><polygon fill="#181818" points="2691.875,726.8396,2701.875,730.8396,2691.875,734.8396,2695.875,730.8396" style="stroke:#181818;stroke-width:1.0;"/><line style="stroke:#181818;stroke-width:1.0;" x1="1685.25" x2="2697.875" y1="730.8396" y2="730.8396"/><text fill="#000000" font-family="sans-serif" font-size="20" font-weight="bold" lengthAdjust="spacing" textLength="23.25" x="1692.25" y="722.9796">15</text><text fill="#000000" font-family="sans-serif" font-size="20" lengthAdjust="spacing" textLength="70" x="1719.5" y="722.9796">create()</text><rect fill="#E2E2F0" height="41.24" rx="2.5" ry="2.5" style="stroke:#181818;stroke-width:0.5;" width="209" x="2703.875" y="697.5996"/><text fill="#000000" font-family="sans-serif" font-size="20" lengthAdjust="spacing" textLength="195" x="2710.875" y="725.9796">:FloorDTO:IFloorDTO</text><polygon fill="#181818" points="547.25,779.0796,537.25,783.0796,547.25,787.0796,543.25,783.0796" style="stroke:#181818;stroke-width:1.0;"/><line style="stroke:#181818;stroke-width:1.0;stroke-dasharray:2.0,2.0;" x1="541.25" x2="777.875" y1="783.0796" y2="783.0796"/><text fill="#000000" font-family="sans-serif" font-size="20" font-weight="bold" lengthAdjust="spacing" textLength="23.25" x="553.25" y="775.2196">16</text><text fill="#000000" font-family="sans-serif" font-size="20" lengthAdjust="spacing" textLength="161" x="580.5" y="775.2196">sucess(floorDTO)</text><polygon fill="#181818" points="314.625,820.3195,304.625,824.3195,314.625,828.3195,310.625,824.3195" style="stroke:#181818;stroke-width:1.0;"/><line style="stroke:#181818;stroke-width:1.0;stroke-dasharray:2.0,2.0;" x1="308.625" x2="530.25" y1="824.3195" y2="824.3195"/><text fill="#000000" font-family="sans-serif" font-size="20" font-weight="bold" lengthAdjust="spacing" textLength="23.25" x="320.625" y="816.4596">17</text><text fill="#000000" font-family="sans-serif" font-size="20" lengthAdjust="spacing" textLength="161" x="347.875" y="816.4596">sucess(floorDTO)</text><polygon fill="#181818" points="11,861.5595,1,865.5595,11,869.5595,7,865.5595" style="stroke:#181818;stroke-width:1.0;"/><line style="stroke:#181818;stroke-width:1.0;stroke-dasharray:2.0,2.0;" x1="5" x2="297.625" y1="865.5595" y2="865.5595"/><text fill="#000000" font-family="sans-serif" font-size="20" font-weight="bold" lengthAdjust="spacing" textLength="23.25" x="17" y="857.6995">18</text><text fill="#000000" font-family="sans-serif" font-size="20" lengthAdjust="spacing" textLength="111" x="44.25" y="857.6995">201 Created</text><!--SRC=[ZPDHRzem58NV_Iii7YfQ2RNhOrHr6WGc96YYXExTJMucgy5cjiEq_VhPro7OeKDz0_ixnyVN9_gTYmDJRD_AwXrgMaF3kjQif30b_mlqyO6mpaZHxTz04KiQNl434uOMsUjkIPccasJLIgaAsHcOHCXYLsm2Oc5DbMnRK35M5Zy2gWHrvDN8gLZcsVnrlKdNBzyzE-zuMtFniu23ZDdL9iiA3pNEqDjU-eNPBqost_9WVyiEyNQ-B4hSn-qSbERQWAWWMOzNHhvPkkndifKrj4yNFBsXgQowFGZp76jVS09UBE3twd-NItVXtUo_FfJzDI7agvmzzu-Nq3mhT_G-UUk7kR2Hxd5ech3Ay2Cpu5b2lCHgyLKJMYcmksWyLV2h0srkpo874IIjmZrmB6ZwF872GiI1BbtusWbjkAZdVrAvProiwsaODj278X8vp8O89ocfuMDT7m0hT7StX9xUXj7iicP7y9SO9S2J7UWAb50ZyMNnOIzuYn27MThrAJulIEYumHRxCt3Dg3oXkoCZ6rmOv_DZlMfqZkaR-8cWmyHFFHrF_3JF8OQHqnFxyTcsBLSFHiDpFNLNWTP1qGBSLSrtC_WKhWcmpK-psG0_FdoX2mnIHpV3J-KV]--></g></svg>