<?xml version="1.0" encoding="UTF-8" standalone="no"?><svg xmlns="http://www.w3.org/2000/svg" xmlns:xlink="http://www.w3.org/1999/xlink" contentStyleType="text/css" height="850px" preserveAspectRatio="none" style="width:3151px;height:850px;background:#FFFFFF;" version="1.1" viewBox="0 0 3151 850" width="3151px" zoomAndPan="magnify"><defs/><g><rect fill="#FFFFFF" height="707.7813" style="stroke:#181818;stroke-width:1.0;" width="10" x="333" y="82.5625"/><rect fill="#FFFFFF" height="633.2188" style="stroke:#181818;stroke-width:1.0;" width="10" x="585" y="119.8438"/><rect fill="#FFFFFF" height="558.6563" style="stroke:#181818;stroke-width:1.0;" width="10" x="849" y="157.125"/><rect fill="#FFFFFF" height="37.2813" style="stroke:#181818;stroke-width:1.0;" width="10" x="1207" y="194.4063"/><rect fill="#FFFFFF" height="275.6875" style="stroke:#181818;stroke-width:1.0;" width="10" x="1489" y="317.25"/><rect fill="#FFFFFF" height="37.2813" style="stroke:#181818;stroke-width:1.0;" width="10" x="1823" y="354.5313"/><rect fill="#FFFFFF" height="37.2813" style="stroke:#181818;stroke-width:1.0;" width="10" x="1823" y="507.375"/><rect fill="#FFFFFF" height="37.2813" style="stroke:#181818;stroke-width:1.0;" width="10" x="1823" y="630.2188"/><rect fill="#FFFFFF" height="30" style="stroke:#181818;stroke-width:1.0;" width="10" x="2522" y="440.0938"/><line style="stroke:#181818;stroke-width:0.5;stroke-dasharray:5.0,5.0;" x1="338" x2="338" y1="43.2813" y2="808.3438"/><line style="stroke:#181818;stroke-width:0.5;stroke-dasharray:5.0,5.0;" x1="590" x2="590" y1="43.2813" y2="808.3438"/><line style="stroke:#181818;stroke-width:0.5;stroke-dasharray:5.0,5.0;" x1="854" x2="854" y1="43.2813" y2="808.3438"/><line style="stroke:#181818;stroke-width:0.5;stroke-dasharray:5.0,5.0;" x1="1212" x2="1212" y1="43.2813" y2="808.3438"/><line style="stroke:#181818;stroke-width:0.5;stroke-dasharray:5.0,5.0;" x1="1361" x2="1361" y1="273.8281" y2="808.3438"/><line style="stroke:#181818;stroke-width:0.5;stroke-dasharray:5.0,5.0;" x1="1494" x2="1494" y1="43.2813" y2="808.3438"/><line style="stroke:#181818;stroke-width:0.5;stroke-dasharray:5.0,5.0;" x1="1827.5" x2="1827.5" y1="43.2813" y2="808.3438"/><line style="stroke:#181818;stroke-width:0.5;stroke-dasharray:5.0,5.0;" x1="2131" x2="2131" y1="396.6719" y2="808.3438"/><line style="stroke:#181818;stroke-width:0.5;stroke-dasharray:5.0,5.0;" x1="2527" x2="2527" y1="43.2813" y2="808.3438"/><line style="stroke:#181818;stroke-width:0.5;stroke-dasharray:5.0,5.0;" x1="2830" x2="2830" y1="549.5156" y2="808.3438"/><line style="stroke:#181818;stroke-width:0.5;stroke-dasharray:5.0,5.0;" x1="3035" x2="3035" y1="672.3594" y2="808.3438"/><rect fill="#E2E2F0" height="37.2813" rx="2.5" ry="2.5" style="stroke:#181818;stroke-width:0.5;" width="130" x="273" y="5"/><text fill="#000000" font-family="sans-serif" font-size="20" lengthAdjust="spacing" textLength="116" x="280" y="30.5645">:FloorRoute</text><rect fill="#E2E2F0" height="37.2813" rx="2.5" ry="2.5" style="stroke:#181818;stroke-width:0.5;" width="130" x="273" y="807.3438"/><text fill="#000000" font-family="sans-serif" font-size="20" lengthAdjust="spacing" textLength="116" x="280" y="832.9082">:FloorRoute</text><rect fill="#E2E2F0" height="37.2813" rx="2.5" ry="2.5" style="stroke:#181818;stroke-width:0.5;" width="170" x="505" y="5"/><text fill="#000000" font-family="sans-serif" font-size="20" lengthAdjust="spacing" textLength="156" x="512" y="30.5645">:FloorController</text><rect fill="#E2E2F0" height="37.2813" rx="2.5" ry="2.5" style="stroke:#181818;stroke-width:0.5;" width="170" x="505" y="807.3438"/><text fill="#000000" font-family="sans-serif" font-size="20" lengthAdjust="spacing" textLength="156" x="512" y="832.9082">:FloorController</text><rect fill="#E2E2F0" height="37.2813" rx="2.5" ry="2.5" style="stroke:#181818;stroke-width:0.5;" width="144" x="782" y="5"/><text fill="#000000" font-family="sans-serif" font-size="20" lengthAdjust="spacing" textLength="130" x="789" y="30.5645">:FloorService</text><rect fill="#E2E2F0" height="37.2813" rx="2.5" ry="2.5" style="stroke:#181818;stroke-width:0.5;" width="144" x="782" y="807.3438"/><text fill="#000000" font-family="sans-serif" font-size="20" lengthAdjust="spacing" textLength="130" x="789" y="832.9082">:FloorService</text><rect fill="#E2E2F0" height="37.2813" rx="2.5" ry="2.5" style="stroke:#181818;stroke-width:0.5;" width="156" x="1134" y="5"/><text fill="#000000" font-family="sans-serif" font-size="20" lengthAdjust="spacing" textLength="142" x="1141" y="30.5645">:BuildingRepo</text><rect fill="#E2E2F0" height="37.2813" rx="2.5" ry="2.5" style="stroke:#181818;stroke-width:0.5;" width="156" x="1134" y="807.3438"/><text fill="#000000" font-family="sans-serif" font-size="20" lengthAdjust="spacing" textLength="142" x="1141" y="832.9082">:BuildingRepo</text><rect fill="#E2E2F0" height="37.2813" rx="2.5" ry="2.5" style="stroke:#181818;stroke-width:0.5;" width="123" x="1300" y="807.3438"/><text fill="#000000" font-family="sans-serif" font-size="20" lengthAdjust="spacing" textLength="109" x="1307" y="832.9082">:floor:Floor</text><rect fill="#E2E2F0" height="37.2813" rx="2.5" ry="2.5" style="stroke:#181818;stroke-width:0.5;" width="122" x="1433" y="5"/><text fill="#000000" font-family="sans-serif" font-size="20" lengthAdjust="spacing" textLength="108" x="1440" y="30.5645">:FloorRepo</text><rect fill="#E2E2F0" height="37.2813" rx="2.5" ry="2.5" style="stroke:#181818;stroke-width:0.5;" width="122" x="1433" y="807.3438"/><text fill="#000000" font-family="sans-serif" font-size="20" lengthAdjust="spacing" textLength="108" x="1440" y="832.9082">:FloorRepo</text><rect fill="#E2E2F0" height="37.2813" rx="2.5" ry="2.5" style="stroke:#181818;stroke-width:0.5;" width="113" x="1771.5" y="5"/><text fill="#000000" font-family="sans-serif" font-size="20" lengthAdjust="spacing" textLength="99" x="1778.5" y="30.5645">:FloorMap</text><rect fill="#E2E2F0" height="37.2813" rx="2.5" ry="2.5" style="stroke:#181818;stroke-width:0.5;" width="113" x="1771.5" y="807.3438"/><text fill="#000000" font-family="sans-serif" font-size="20" lengthAdjust="spacing" textLength="99" x="1778.5" y="832.9082">:FloorMap</text><rect fill="#E2E2F0" height="37.2813" rx="2.5" ry="2.5" style="stroke:#181818;stroke-width:0.5;" width="355" x="1954" y="807.3438"/><text fill="#000000" font-family="sans-serif" font-size="20" lengthAdjust="spacing" textLength="341" x="1961" y="832.9082">FloorPersistence:IFloorPersistence</text><rect fill="#E2E2F0" height="37.2813" rx="2.5" ry="2.5" style="stroke:#181818;stroke-width:0.5;" width="416" x="2319" y="5"/><text fill="#000000" font-family="sans-serif" font-size="20" lengthAdjust="spacing" textLength="402" x="2326" y="30.5645">:Model&lt;IFloorPersistence &amp; Document&gt;</text><rect fill="#E2E2F0" height="37.2813" rx="2.5" ry="2.5" style="stroke:#181818;stroke-width:0.5;" width="416" x="2319" y="807.3438"/><text fill="#000000" font-family="sans-serif" font-size="20" lengthAdjust="spacing" textLength="402" x="2326" y="832.9082">:Model&lt;IFloorPersistence &amp; Document&gt;</text><rect fill="#E2E2F0" height="37.2813" rx="2.5" ry="2.5" style="stroke:#181818;stroke-width:0.5;" width="170" x="2745" y="807.3438"/><text fill="#000000" font-family="sans-serif" font-size="20" lengthAdjust="spacing" textLength="156" x="2752" y="832.9082">:newFloor:Floor</text><rect fill="#E2E2F0" height="37.2813" rx="2.5" ry="2.5" style="stroke:#181818;stroke-width:0.5;" width="220" x="2925" y="807.3438"/><text fill="#000000" font-family="sans-serif" font-size="20" lengthAdjust="spacing" textLength="206" x="2932" y="832.9082">:FloorDTO:IFloorDTO</text><rect fill="#FFFFFF" height="707.7813" style="stroke:#181818;stroke-width:1.0;" width="10" x="333" y="82.5625"/><rect fill="#FFFFFF" height="633.2188" style="stroke:#181818;stroke-width:1.0;" width="10" x="585" y="119.8438"/><rect fill="#FFFFFF" height="558.6563" style="stroke:#181818;stroke-width:1.0;" width="10" x="849" y="157.125"/><rect fill="#FFFFFF" height="37.2813" style="stroke:#181818;stroke-width:1.0;" width="10" x="1207" y="194.4063"/><rect fill="#FFFFFF" height="275.6875" style="stroke:#181818;stroke-width:1.0;" width="10" x="1489" y="317.25"/><rect fill="#FFFFFF" height="37.2813" style="stroke:#181818;stroke-width:1.0;" width="10" x="1823" y="354.5313"/><rect fill="#FFFFFF" height="37.2813" style="stroke:#181818;stroke-width:1.0;" width="10" x="1823" y="507.375"/><rect fill="#FFFFFF" height="37.2813" style="stroke:#181818;stroke-width:1.0;" width="10" x="1823" y="630.2188"/><rect fill="#FFFFFF" height="30" style="stroke:#181818;stroke-width:1.0;" width="10" x="2522" y="440.0938"/><ellipse cx="4.5" cy="81.8125" fill="none" rx="4" ry="4" style="stroke:#181818;stroke-width:1.5;"/><polygon fill="#181818" points="321,78.5625,331,82.5625,321,86.5625,325,82.5625" style="stroke:#181818;stroke-width:1.0;"/><line style="stroke:#181818;stroke-width:1.0;" x1="9" x2="327" y1="82.5625" y2="82.5625"/><text fill="#000000" font-family="sans-serif" font-size="20" font-weight="bold" lengthAdjust="spacing" textLength="14" x="12" y="75.8457">1</text><text fill="#000000" font-family="sans-serif" font-size="20" lengthAdjust="spacing" textLength="288" x="30" y="75.8457">POST /{buildingCode}/floors</text><polygon fill="#181818" points="573,115.8438,583,119.8438,573,123.8438,577,119.8438" style="stroke:#181818;stroke-width:1.0;"/><line style="stroke:#181818;stroke-width:1.0;" x1="343" x2="579" y1="119.8438" y2="119.8438"/><text fill="#000000" font-family="sans-serif" font-size="20" font-weight="bold" lengthAdjust="spacing" textLength="14" x="350" y="113.127">2</text><text fill="#000000" font-family="sans-serif" font-size="20" lengthAdjust="spacing" textLength="205" x="368" y="113.127">createFloor(request)</text><polygon fill="#181818" points="837,153.125,847,157.125,837,161.125,841,157.125" style="stroke:#181818;stroke-width:1.0;"/><line style="stroke:#181818;stroke-width:1.0;" x1="595" x2="843" y1="157.125" y2="157.125"/><text fill="#000000" font-family="sans-serif" font-size="20" font-weight="bold" lengthAdjust="spacing" textLength="14" x="602" y="150.4082">3</text><text fill="#000000" font-family="sans-serif" font-size="20" lengthAdjust="spacing" textLength="217" x="620" y="150.4082">createFloor(floorDTO)</text><polygon fill="#181818" points="1195,190.4063,1205,194.4063,1195,198.4063,1199,194.4063" style="stroke:#181818;stroke-width:1.0;"/><line style="stroke:#181818;stroke-width:1.0;" x1="859" x2="1201" y1="194.4063" y2="194.4063"/><text fill="#000000" font-family="sans-serif" font-size="20" font-weight="bold" lengthAdjust="spacing" textLength="14" x="866" y="187.6895">4</text><text fill="#000000" font-family="sans-serif" font-size="20" lengthAdjust="spacing" textLength="311" x="884" y="187.6895">findByDomainId(buildingCode)</text><polygon fill="#181818" points="870,227.6875,860,231.6875,870,235.6875,866,231.6875" style="stroke:#181818;stroke-width:1.0;"/><line style="stroke:#181818;stroke-width:1.0;stroke-dasharray:2.0,2.0;" x1="864" x2="1211" y1="231.6875" y2="231.6875"/><text fill="#000000" font-family="sans-serif" font-size="20" font-weight="bold" lengthAdjust="spacing" textLength="14" x="876" y="224.9707">5</text><text fill="#000000" font-family="sans-serif" font-size="20" lengthAdjust="spacing" textLength="83" x="894" y="224.9707">building</text><polygon fill="#181818" points="1288,264.9688,1298,268.9688,1288,272.9688,1292,268.9688" style="stroke:#181818;stroke-width:1.0;"/><line style="stroke:#181818;stroke-width:1.0;" x1="859" x2="1294" y1="268.9688" y2="268.9688"/><text fill="#000000" font-family="sans-serif" font-size="20" font-weight="bold" lengthAdjust="spacing" textLength="14" x="866" y="262.252">6</text><text fill="#000000" font-family="sans-serif" font-size="20" lengthAdjust="spacing" textLength="79" x="884" y="262.252">create()</text><rect fill="#E2E2F0" height="37.2813" rx="2.5" ry="2.5" style="stroke:#181818;stroke-width:0.5;" width="123" x="1300" y="239.6875"/><text fill="#000000" font-family="sans-serif" font-size="20" lengthAdjust="spacing" textLength="109" x="1307" y="265.252">:floor:Floor</text><polygon fill="#181818" points="1477,313.25,1487,317.25,1477,321.25,1481,317.25" style="stroke:#181818;stroke-width:1.0;"/><line style="stroke:#181818;stroke-width:1.0;" x1="859" x2="1483" y1="317.25" y2="317.25"/><text fill="#000000" font-family="sans-serif" font-size="20" font-weight="bold" lengthAdjust="spacing" textLength="14" x="866" y="310.5332">7</text><text fill="#000000" font-family="sans-serif" font-size="20" lengthAdjust="spacing" textLength="106" x="884" y="310.5332">save(floor)</text><polygon fill="#181818" points="1811,350.5313,1821,354.5313,1811,358.5313,1815,354.5313" style="stroke:#181818;stroke-width:1.0;"/><line style="stroke:#181818;stroke-width:1.0;" x1="1499" x2="1817" y1="354.5313" y2="354.5313"/><text fill="#000000" font-family="sans-serif" font-size="20" font-weight="bold" lengthAdjust="spacing" textLength="14" x="1506" y="347.8145">8</text><text fill="#000000" font-family="sans-serif" font-size="20" lengthAdjust="spacing" textLength="185" x="1524" y="347.8145">toPersitence(floor)</text><polygon fill="#181818" points="1942,387.8125,1952,391.8125,1942,395.8125,1946,391.8125" style="stroke:#181818;stroke-width:1.0;"/><line style="stroke:#181818;stroke-width:1.0;" x1="1828" x2="1948" y1="391.8125" y2="391.8125"/><text fill="#000000" font-family="sans-serif" font-size="20" font-weight="bold" lengthAdjust="spacing" textLength="14" x="1835" y="385.0957">9</text><text fill="#000000" font-family="sans-serif" font-size="20" lengthAdjust="spacing" textLength="79" x="1853" y="385.0957">create()</text><rect fill="#E2E2F0" height="37.2813" rx="2.5" ry="2.5" style="stroke:#181818;stroke-width:0.5;" width="355" x="1954" y="362.5313"/><text fill="#000000" font-family="sans-serif" font-size="20" lengthAdjust="spacing" textLength="341" x="1961" y="388.0957">FloorPersistence:IFloorPersistence</text><polygon fill="#181818" points="2510,436.0938,2520,440.0938,2510,444.0938,2514,440.0938" style="stroke:#181818;stroke-width:1.0;"/><line style="stroke:#181818;stroke-width:1.0;" x1="1499" x2="2516" y1="440.0938" y2="440.0938"/><text fill="#000000" font-family="sans-serif" font-size="20" font-weight="bold" lengthAdjust="spacing" textLength="28" x="1506" y="433.377">10</text><text fill="#000000" font-family="sans-serif" font-size="20" lengthAdjust="spacing" textLength="238" x="1538" y="433.377">create(floorPersistence)</text><polygon fill="#181818" points="1811,503.375,1821,507.375,1811,511.375,1815,507.375" style="stroke:#181818;stroke-width:1.0;"/><line style="stroke:#181818;stroke-width:1.0;" x1="1499" x2="1817" y1="507.375" y2="507.375"/><text fill="#000000" font-family="sans-serif" font-size="20" font-weight="bold" lengthAdjust="spacing" textLength="28" x="1506" y="500.6582">11</text><text fill="#000000" font-family="sans-serif" font-size="20" lengthAdjust="spacing" textLength="273" x="1538" y="500.6582">toDomain(floorPersistence)</text><polygon fill="#181818" points="2733,540.6563,2743,544.6563,2733,548.6563,2737,544.6563" style="stroke:#181818;stroke-width:1.0;"/><line style="stroke:#181818;stroke-width:1.0;" x1="1828" x2="2739" y1="544.6563" y2="544.6563"/><text fill="#000000" font-family="sans-serif" font-size="20" font-weight="bold" lengthAdjust="spacing" textLength="28" x="1835" y="537.9395">12</text><text fill="#000000" font-family="sans-serif" font-size="20" lengthAdjust="spacing" textLength="79" x="1867" y="537.9395">create()</text><rect fill="#E2E2F0" height="37.2813" rx="2.5" ry="2.5" style="stroke:#181818;stroke-width:0.5;" width="170" x="2745" y="515.375"/><text fill="#000000" font-family="sans-serif" font-size="20" lengthAdjust="spacing" textLength="156" x="2752" y="540.9395">:newFloor:Floor</text><polygon fill="#181818" points="870,588.9375,860,592.9375,870,596.9375,866,592.9375" style="stroke:#181818;stroke-width:1.0;"/><line style="stroke:#181818;stroke-width:1.0;stroke-dasharray:2.0,2.0;" x1="864" x2="1493" y1="592.9375" y2="592.9375"/><text fill="#000000" font-family="sans-serif" font-size="20" font-weight="bold" lengthAdjust="spacing" textLength="28" x="876" y="586.2207">13</text><text fill="#000000" font-family="sans-serif" font-size="20" lengthAdjust="spacing" textLength="92" x="908" y="586.2207">newFloor</text><polygon fill="#181818" points="1811,626.2188,1821,630.2188,1811,634.2188,1815,630.2188" style="stroke:#181818;stroke-width:1.0;"/><line style="stroke:#181818;stroke-width:1.0;" x1="859" x2="1817" y1="630.2188" y2="630.2188"/><text fill="#000000" font-family="sans-serif" font-size="20" font-weight="bold" lengthAdjust="spacing" textLength="28" x="866" y="623.502">14</text><text fill="#000000" font-family="sans-serif" font-size="20" lengthAdjust="spacing" textLength="163" x="898" y="623.502">toDto(newFloor)</text><polygon fill="#181818" points="2913,663.5,2923,667.5,2913,671.5,2917,667.5" style="stroke:#181818;stroke-width:1.0;"/><line style="stroke:#181818;stroke-width:1.0;" x1="1828" x2="2919" y1="667.5" y2="667.5"/><text fill="#000000" font-family="sans-serif" font-size="20" font-weight="bold" lengthAdjust="spacing" textLength="28" x="1835" y="660.7832">15</text><text fill="#000000" font-family="sans-serif" font-size="20" lengthAdjust="spacing" textLength="79" x="1867" y="660.7832">create()</text><rect fill="#E2E2F0" height="37.2813" rx="2.5" ry="2.5" style="stroke:#181818;stroke-width:0.5;" width="220" x="2925" y="638.2188"/><text fill="#000000" font-family="sans-serif" font-size="20" lengthAdjust="spacing" textLength="206" x="2932" y="663.7832">:FloorDTO:IFloorDTO</text><polygon fill="#181818" points="606,711.7813,596,715.7813,606,719.7813,602,715.7813" style="stroke:#181818;stroke-width:1.0;"/><line style="stroke:#181818;stroke-width:1.0;stroke-dasharray:2.0,2.0;" x1="600" x2="853" y1="715.7813" y2="715.7813"/><text fill="#000000" font-family="sans-serif" font-size="20" font-weight="bold" lengthAdjust="spacing" textLength="28" x="612" y="709.0645">16</text><text fill="#000000" font-family="sans-serif" font-size="20" lengthAdjust="spacing" textLength="170" x="644" y="709.0645">sucess(floorDTO)</text><polygon fill="#181818" points="354,749.0625,344,753.0625,354,757.0625,350,753.0625" style="stroke:#181818;stroke-width:1.0;"/><line style="stroke:#181818;stroke-width:1.0;stroke-dasharray:2.0,2.0;" x1="348" x2="589" y1="753.0625" y2="753.0625"/><text fill="#000000" font-family="sans-serif" font-size="20" font-weight="bold" lengthAdjust="spacing" textLength="28" x="360" y="746.3457">17</text><text fill="#000000" font-family="sans-serif" font-size="20" lengthAdjust="spacing" textLength="170" x="392" y="746.3457">sucess(floorDTO)</text><polygon fill="#181818" points="11,786.3438,1,790.3438,11,794.3438,7,790.3438" style="stroke:#181818;stroke-width:1.0;"/><line style="stroke:#181818;stroke-width:1.0;stroke-dasharray:2.0,2.0;" x1="5" x2="337" y1="790.3438" y2="790.3438"/><text fill="#000000" font-family="sans-serif" font-size="20" font-weight="bold" lengthAdjust="spacing" textLength="28" x="17" y="783.627">18</text><text fill="#000000" font-family="sans-serif" font-size="20" lengthAdjust="spacing" textLength="124" x="49" y="783.627">201 Created</text><!--SRC=[ZPDHRzem58NV_Iii7YPQ2RNhOrHr6WGc96YYXExTJMucgy5cjiEqJVlliwz3i4E7zWRsTuwFhq_q6nS7fjY-bTKRrBI6XdMjMKbXIluBwCCzOPsHejk_WYAMDBpY1oOCBRANtP8oJIV9gfLI5R8pC8cGnQxO1CJ2cYhPjg1Yh2o-1bG9wiYhaLEnpBFvotgJhf-_U7RUyRRcubi11ncpgqsM5HvgdA6tlVGBir-OR3_dmVwM7UBjV5cKk8_REIZDjG5HGR8UhunyitJPpsGhQsWVBtZwWQQowlOWp5EiVSO9UB607wj_NIxTXNUp__fGzjU4a4zozjG_NaBphDpHkz-l_J0NDjAVEvoQ9gmo_CWCU9WGhx5YVDQ4LWhiBZfF5NplG9kRiyX114chS2yS2ve-KA2m476WYnS-Tq8RBkhvprJk6HVhUXgc3VIXY4GEio72IKfgU5_N1y0EtTuEeQStOJIxhDaH_2L62V1a1xe69TH8V5fysGlU8iHXbdQ5YiyB4ZfkiCK23LmpQa_exiZ81XV6-VnOhngTO_eA_aVGOUAdeeudVfhd4CF8wObz_spRbgi7e-6vdhghGEkWQ07kgkQx6NmBrmJOviVPR80VxZ_I1GQfevlXf_8N]--></g></svg>