<?xml version="1.0" encoding="UTF-8" standalone="no"?><svg xmlns="http://www.w3.org/2000/svg" xmlns:xlink="http://www.w3.org/1999/xlink" contentStyleType="text/css" height="929px" preserveAspectRatio="none" style="width:2929px;height:929px;background:#FFFFFF;" version="1.1" viewBox="0 0 2929 929" width="2929px" zoomAndPan="magnify"><defs/><g><rect fill="#FFFFFF" height="775.0796" style="stroke:#181818;stroke-width:1.0;" width="10" x="304.625" y="90.4799"/><rect fill="#FFFFFF" height="692.5996" style="stroke:#181818;stroke-width:1.0;" width="10" x="537.25" y="131.7199"/><rect fill="#FFFFFF" height="610.1197" style="stroke:#181818;stroke-width:1.0;" width="10" x="784.875" y="172.9599"/><rect fill="#FFFFFF" height="41.24" style="stroke:#181818;stroke-width:1.0;" width="10" x="1116.5" y="214.1999"/><rect fill="#FFFFFF" height="299.4398" style="stroke:#181818;stroke-width:1.0;" width="10" x="1379" y="348.9198"/><rect fill="#FFFFFF" height="41.24" style="stroke:#181818;stroke-width:1.0;" width="10" x="1691.25" y="390.1598"/><rect fill="#FFFFFF" height="41.24" style="stroke:#181818;stroke-width:1.0;" width="10" x="1691.25" y="554.8797"/><rect fill="#FFFFFF" height="41.24" style="stroke:#181818;stroke-width:1.0;" width="10" x="1691.25" y="689.5996"/><rect fill="#FFFFFF" height="30" style="stroke:#181818;stroke-width:1.0;" width="10" x="2341.375" y="483.6397"/><line style="stroke:#181818;stroke-width:0.5;stroke-dasharray:5.0,5.0;" x1="309.625" x2="309.625" y1="47.24" y2="883.5595"/><line style="stroke:#181818;stroke-width:0.5;stroke-dasharray:5.0,5.0;" x1="541.75" x2="541.75" y1="47.24" y2="883.5595"/><line style="stroke:#181818;stroke-width:0.5;stroke-dasharray:5.0,5.0;" x1="789.875" x2="789.875" y1="47.24" y2="883.5595"/><line style="stroke:#181818;stroke-width:0.5;stroke-dasharray:5.0,5.0;" x1="1121.5" x2="1121.5" y1="47.24" y2="883.5595"/><line style="stroke:#181818;stroke-width:0.5;stroke-dasharray:5.0,5.0;" x1="1259.5" x2="1259.5" y1="299.5598" y2="883.5595"/><line style="stroke:#181818;stroke-width:0.5;stroke-dasharray:5.0,5.0;" x1="1383.5" x2="1383.5" y1="47.24" y2="883.5595"/><line style="stroke:#181818;stroke-width:0.5;stroke-dasharray:5.0,5.0;" x1="1695.75" x2="1695.75" y1="47.24" y2="883.5595"/><line style="stroke:#181818;stroke-width:0.5;stroke-dasharray:5.0,5.0;" x1="1977.875" x2="1977.875" y1="434.2798" y2="883.5595"/><line style="stroke:#181818;stroke-width:0.5;stroke-dasharray:5.0,5.0;" x1="2345.875" x2="2345.875" y1="47.24" y2="883.5595"/><line style="stroke:#181818;stroke-width:0.5;stroke-dasharray:5.0,5.0;" x1="2625.875" x2="2625.875" y1="598.9997" y2="883.5595"/><line style="stroke:#181818;stroke-width:0.5;stroke-dasharray:5.0,5.0;" x1="2818.875" x2="2818.875" y1="733.7196" y2="883.5595"/><rect fill="#E2E2F0" height="41.24" rx="2.5" ry="2.5" style="stroke:#181818;stroke-width:0.5;" width="120" x="249.625" y="5"/><text fill="#000000" font-family="sans-serif" font-size="20" lengthAdjust="spacing" textLength="106" x="256.625" y="33.38">:FloorRoute</text><rect fill="#E2E2F0" height="41.24" rx="2.5" ry="2.5" style="stroke:#181818;stroke-width:0.5;" width="120" x="249.625" y="882.5595"/><text fill="#000000" font-family="sans-serif" font-size="20" lengthAdjust="spacing" textLength="106" x="256.625" y="910.9395">:FloorRoute</text><rect fill="#E2E2F0" height="41.24" rx="2.5" ry="2.5" style="stroke:#181818;stroke-width:0.5;" width="159" x="462.75" y="5"/><text fill="#000000" font-family="sans-serif" font-size="20" lengthAdjust="spacing" textLength="145" x="469.75" y="33.38">:FloorController</text><rect fill="#E2E2F0" height="41.24" rx="2.5" ry="2.5" style="stroke:#181818;stroke-width:0.5;" width="159" x="462.75" y="882.5595"/><text fill="#000000" font-family="sans-serif" font-size="20" lengthAdjust="spacing" textLength="145" x="469.75" y="910.9395">:FloorController</text><rect fill="#E2E2F0" height="41.24" rx="2.5" ry="2.5" style="stroke:#181818;stroke-width:0.5;" width="132" x="723.875" y="5"/><text fill="#000000" font-family="sans-serif" font-size="20" lengthAdjust="spacing" textLength="118" x="730.875" y="33.38">:FloorService</text><rect fill="#E2E2F0" height="41.24" rx="2.5" ry="2.5" style="stroke:#181818;stroke-width:0.5;" width="132" x="723.875" y="882.5595"/><text fill="#000000" font-family="sans-serif" font-size="20" lengthAdjust="spacing" textLength="118" x="730.875" y="910.9395">:FloorService</text><rect fill="#E2E2F0" height="41.24" rx="2.5" ry="2.5" style="stroke:#181818;stroke-width:0.5;" width="142" x="1050.5" y="5"/><text fill="#000000" font-family="sans-serif" font-size="20" lengthAdjust="spacing" textLength="128" x="1057.5" y="33.38">:BuildingRepo</text><rect fill="#E2E2F0" height="41.24" rx="2.5" ry="2.5" style="stroke:#181818;stroke-width:0.5;" width="142" x="1050.5" y="882.5595"/><text fill="#000000" font-family="sans-serif" font-size="20" lengthAdjust="spacing" textLength="128" x="1057.5" y="910.9395">:BuildingRepo</text><rect fill="#E2E2F0" height="41.24" rx="2.5" ry="2.5" style="stroke:#181818;stroke-width:0.5;" width="115" x="1202.5" y="882.5595"/><text fill="#000000" font-family="sans-serif" font-size="20" lengthAdjust="spacing" textLength="101" x="1209.5" y="910.9395">:floor:Floor</text><rect fill="#E2E2F0" height="41.24" rx="2.5" ry="2.5" style="stroke:#181818;stroke-width:0.5;" width="113" x="1327.5" y="5"/><text fill="#000000" font-family="sans-serif" font-size="20" lengthAdjust="spacing" textLength="99" x="1334.5" y="33.38">:FloorRepo</text><rect fill="#E2E2F0" height="41.24" rx="2.5" ry="2.5" style="stroke:#181818;stroke-width:0.5;" width="113" x="1327.5" y="882.5595"/><text fill="#000000" font-family="sans-serif" font-size="20" lengthAdjust="spacing" textLength="99" x="1334.5" y="910.9395">:FloorRepo</text><rect fill="#E2E2F0" height="41.24" rx="2.5" ry="2.5" style="stroke:#181818;stroke-width:0.5;" width="107" x="1642.75" y="5"/><text fill="#000000" font-family="sans-serif" font-size="20" lengthAdjust="spacing" textLength="93" x="1649.75" y="33.38">:FloorMap</text><rect fill="#E2E2F0" height="41.24" rx="2.5" ry="2.5" style="stroke:#181818;stroke-width:0.5;" width="107" x="1642.75" y="882.5595"/><text fill="#000000" font-family="sans-serif" font-size="20" lengthAdjust="spacing" textLength="93" x="1649.75" y="910.9395">:FloorMap</text><rect fill="#E2E2F0" height="41.24" rx="2.5" ry="2.5" style="stroke:#181818;stroke-width:0.5;" width="334" x="1810.875" y="882.5595"/><text fill="#000000" font-family="sans-serif" font-size="20" lengthAdjust="spacing" textLength="320" x="1817.875" y="910.9395">FloorPersistence:IFloorPersistence</text><rect fill="#E2E2F0" height="41.24" rx="2.5" ry="2.5" style="stroke:#181818;stroke-width:0.5;" width="383" x="2154.875" y="5"/><text fill="#000000" font-family="sans-serif" font-size="20" lengthAdjust="spacing" textLength="369" x="2161.875" y="33.38">:Model&lt;IFloorPersistence &amp; Document&gt;</text><rect fill="#E2E2F0" height="41.24" rx="2.5" ry="2.5" style="stroke:#181818;stroke-width:0.5;" width="383" x="2154.875" y="882.5595"/><text fill="#000000" font-family="sans-serif" font-size="20" lengthAdjust="spacing" textLength="369" x="2161.875" y="910.9395">:Model&lt;IFloorPersistence &amp; Document&gt;</text><rect fill="#E2E2F0" height="41.24" rx="2.5" ry="2.5" style="stroke:#181818;stroke-width:0.5;" width="157" x="2547.875" y="882.5595"/><text fill="#000000" font-family="sans-serif" font-size="20" lengthAdjust="spacing" textLength="143" x="2554.875" y="910.9395">:newFloor:Floor</text><rect fill="#E2E2F0" height="41.24" rx="2.5" ry="2.5" style="stroke:#181818;stroke-width:0.5;" width="209" x="2714.875" y="882.5595"/><text fill="#000000" font-family="sans-serif" font-size="20" lengthAdjust="spacing" textLength="195" x="2721.875" y="910.9395">:FloorDTO:IFloorDTO</text><rect fill="#FFFFFF" height="775.0796" style="stroke:#181818;stroke-width:1.0;" width="10" x="304.625" y="90.4799"/><rect fill="#FFFFFF" height="692.5996" style="stroke:#181818;stroke-width:1.0;" width="10" x="537.25" y="131.7199"/><rect fill="#FFFFFF" height="610.1197" style="stroke:#181818;stroke-width:1.0;" width="10" x="784.875" y="172.9599"/><rect fill="#FFFFFF" height="41.24" style="stroke:#181818;stroke-width:1.0;" width="10" x="1116.5" y="214.1999"/><rect fill="#FFFFFF" height="299.4398" style="stroke:#181818;stroke-width:1.0;" width="10" x="1379" y="348.9198"/><rect fill="#FFFFFF" height="41.24" style="stroke:#181818;stroke-width:1.0;" width="10" x="1691.25" y="390.1598"/><rect fill="#FFFFFF" height="41.24" style="stroke:#181818;stroke-width:1.0;" width="10" x="1691.25" y="554.8797"/><rect fill="#FFFFFF" height="41.24" style="stroke:#181818;stroke-width:1.0;" width="10" x="1691.25" y="689.5996"/><rect fill="#FFFFFF" height="30" style="stroke:#181818;stroke-width:1.0;" width="10" x="2341.375" y="483.6397"/><ellipse cx="4.5" cy="89.7299" fill="none" rx="4" ry="4" style="stroke:#181818;stroke-width:1.5;"/><polygon fill="#181818" points="292.625,86.4799,302.625,90.4799,292.625,94.4799,296.625,90.4799" style="stroke:#181818;stroke-width:1.0;"/><line style="stroke:#181818;stroke-width:1.0;" x1="9" x2="298.625" y1="90.4799" y2="90.4799"/><text fill="#000000" font-family="sans-serif" font-size="20" font-weight="bold" lengthAdjust="spacing" textLength="11.625" x="12" y="82.62">1</text><text fill="#000000" font-family="sans-serif" font-size="20" lengthAdjust="spacing" textLength="262" x="27.625" y="82.62">POST /{buildingCode}/floors</text><polygon fill="#181818" points="525.25,127.7199,535.25,131.7199,525.25,135.7199,529.25,131.7199" style="stroke:#181818;stroke-width:1.0;"/><line style="stroke:#181818;stroke-width:1.0;" x1="314.625" x2="531.25" y1="131.7199" y2="131.7199"/><text fill="#000000" font-family="sans-serif" font-size="20" font-weight="bold" lengthAdjust="spacing" textLength="11.625" x="321.625" y="123.8599">2</text><text fill="#000000" font-family="sans-serif" font-size="20" lengthAdjust="spacing" textLength="188" x="337.25" y="123.8599">createFloor(request)</text><polygon fill="#181818" points="772.875,168.9599,782.875,172.9599,772.875,176.9599,776.875,172.9599" style="stroke:#181818;stroke-width:1.0;"/><line style="stroke:#181818;stroke-width:1.0;" x1="547.25" x2="778.875" y1="172.9599" y2="172.9599"/><text fill="#000000" font-family="sans-serif" font-size="20" font-weight="bold" lengthAdjust="spacing" textLength="11.625" x="554.25" y="165.0999">3</text><text fill="#000000" font-family="sans-serif" font-size="20" lengthAdjust="spacing" textLength="203" x="569.875" y="165.0999">createFloor(floorDTO)</text><polygon fill="#181818" points="1104.5,210.1999,1114.5,214.1999,1104.5,218.1999,1108.5,214.1999" style="stroke:#181818;stroke-width:1.0;"/><line style="stroke:#181818;stroke-width:1.0;" x1="794.875" x2="1110.5" y1="214.1999" y2="214.1999"/><text fill="#000000" font-family="sans-serif" font-size="20" font-weight="bold" lengthAdjust="spacing" textLength="11.625" x="801.875" y="206.3399">4</text><text fill="#000000" font-family="sans-serif" font-size="20" lengthAdjust="spacing" textLength="287" x="817.5" y="206.3399">findByDomainId(buildingCode)</text><polygon fill="#181818" points="805.875,251.4398,795.875,255.4398,805.875,259.4398,801.875,255.4398" style="stroke:#181818;stroke-width:1.0;"/><line style="stroke:#181818;stroke-width:1.0;stroke-dasharray:2.0,2.0;" x1="799.875" x2="1120.5" y1="255.4398" y2="255.4398"/><text fill="#000000" font-family="sans-serif" font-size="20" font-weight="bold" lengthAdjust="spacing" textLength="11.625" x="811.875" y="247.5799">5</text><text fill="#000000" font-family="sans-serif" font-size="20" lengthAdjust="spacing" textLength="75" x="827.5" y="247.5799">building</text><polygon fill="#181818" points="1190.5,292.6798,1200.5,296.6798,1190.5,300.6798,1194.5,296.6798" style="stroke:#181818;stroke-width:1.0;"/><line style="stroke:#181818;stroke-width:1.0;" x1="794.875" x2="1196.5" y1="296.6798" y2="296.6798"/><text fill="#000000" font-family="sans-serif" font-size="20" font-weight="bold" lengthAdjust="spacing" textLength="11.625" x="801.875" y="288.8198">6</text><text fill="#000000" font-family="sans-serif" font-size="20" lengthAdjust="spacing" textLength="70" x="817.5" y="288.8198">create()</text><rect fill="#E2E2F0" height="41.24" rx="2.5" ry="2.5" style="stroke:#181818;stroke-width:0.5;" width="115" x="1202.5" y="263.4398"/><text fill="#000000" font-family="sans-serif" font-size="20" lengthAdjust="spacing" textLength="101" x="1209.5" y="291.8198">:floor:Floor</text><polygon fill="#181818" points="1367,344.9198,1377,348.9198,1367,352.9198,1371,348.9198" style="stroke:#181818;stroke-width:1.0;"/><line style="stroke:#181818;stroke-width:1.0;" x1="794.875" x2="1373" y1="348.9198" y2="348.9198"/><text fill="#000000" font-family="sans-serif" font-size="20" font-weight="bold" lengthAdjust="spacing" textLength="11.625" x="801.875" y="341.0598">7</text><text fill="#000000" font-family="sans-serif" font-size="20" lengthAdjust="spacing" textLength="98" x="817.5" y="341.0598">save(floor)</text><polygon fill="#181818" points="1679.25,386.1598,1689.25,390.1598,1679.25,394.1598,1683.25,390.1598" style="stroke:#181818;stroke-width:1.0;"/><line style="stroke:#181818;stroke-width:1.0;" x1="1389" x2="1685.25" y1="390.1598" y2="390.1598"/><text fill="#000000" font-family="sans-serif" font-size="20" font-weight="bold" lengthAdjust="spacing" textLength="11.625" x="1396" y="382.2998">8</text><text fill="#000000" font-family="sans-serif" font-size="20" lengthAdjust="spacing" textLength="172" x="1411.625" y="382.2998">toPersitence(floor)</text><polygon fill="#181818" points="1798.875,427.3997,1808.875,431.3997,1798.875,435.3997,1802.875,431.3997" style="stroke:#181818;stroke-width:1.0;"/><line style="stroke:#181818;stroke-width:1.0;" x1="1696.25" x2="1804.875" y1="431.3997" y2="431.3997"/><text fill="#000000" font-family="sans-serif" font-size="20" font-weight="bold" lengthAdjust="spacing" textLength="11.625" x="1703.25" y="423.5398">9</text><text fill="#000000" font-family="sans-serif" font-size="20" lengthAdjust="spacing" textLength="70" x="1718.875" y="423.5398">create()</text><rect fill="#E2E2F0" height="41.24" rx="2.5" ry="2.5" style="stroke:#181818;stroke-width:0.5;" width="334" x="1810.875" y="398.1598"/><text fill="#000000" font-family="sans-serif" font-size="20" lengthAdjust="spacing" textLength="320" x="1817.875" y="426.5398">FloorPersistence:IFloorPersistence</text><polygon fill="#181818" points="2329.375,479.6397,2339.375,483.6397,2329.375,487.6397,2333.375,483.6397" style="stroke:#181818;stroke-width:1.0;"/><line style="stroke:#181818;stroke-width:1.0;" x1="1389" x2="2335.375" y1="483.6397" y2="483.6397"/><text fill="#000000" font-family="sans-serif" font-size="20" font-weight="bold" lengthAdjust="spacing" textLength="23.25" x="1396" y="475.7797">10</text><text fill="#000000" font-family="sans-serif" font-size="20" lengthAdjust="spacing" textLength="221" x="1423.25" y="475.7797">create(floorPersistence)</text><polygon fill="#181818" points="1679.25,550.8797,1689.25,554.8797,1679.25,558.8797,1683.25,554.8797" style="stroke:#181818;stroke-width:1.0;"/><line style="stroke:#181818;stroke-width:1.0;" x1="1389" x2="1685.25" y1="554.8797" y2="554.8797"/><text fill="#000000" font-family="sans-serif" font-size="20" font-weight="bold" lengthAdjust="spacing" textLength="23.25" x="1396" y="547.0197">11</text><text fill="#000000" font-family="sans-serif" font-size="20" lengthAdjust="spacing" textLength="256" x="1423.25" y="547.0197">toDomain(floorPersistence)</text><polygon fill="#181818" points="2535.875,592.1197,2545.875,596.1197,2535.875,600.1197,2539.875,596.1197" style="stroke:#181818;stroke-width:1.0;"/><line style="stroke:#181818;stroke-width:1.0;" x1="1696.25" x2="2541.875" y1="596.1197" y2="596.1197"/><text fill="#000000" font-family="sans-serif" font-size="20" font-weight="bold" lengthAdjust="spacing" textLength="23.25" x="1703.25" y="588.2597">12</text><text fill="#000000" font-family="sans-serif" font-size="20" lengthAdjust="spacing" textLength="70" x="1730.5" y="588.2597">create()</text><rect fill="#E2E2F0" height="41.24" rx="2.5" ry="2.5" style="stroke:#181818;stroke-width:0.5;" width="157" x="2547.875" y="562.8797"/><text fill="#000000" font-family="sans-serif" font-size="20" lengthAdjust="spacing" textLength="143" x="2554.875" y="591.2597">:newFloor:Floor</text><polygon fill="#181818" points="805.875,644.3596,795.875,648.3596,805.875,652.3596,801.875,648.3596" style="stroke:#181818;stroke-width:1.0;"/><line style="stroke:#181818;stroke-width:1.0;stroke-dasharray:2.0,2.0;" x1="799.875" x2="1383" y1="648.3596" y2="648.3596"/><text fill="#000000" font-family="sans-serif" font-size="20" font-weight="bold" lengthAdjust="spacing" textLength="23.25" x="811.875" y="640.4997">13</text><text fill="#000000" font-family="sans-serif" font-size="20" lengthAdjust="spacing" textLength="86" x="839.125" y="640.4997">newFloor</text><polygon fill="#181818" points="1679.25,685.5996,1689.25,689.5996,1679.25,693.5996,1683.25,689.5996" style="stroke:#181818;stroke-width:1.0;"/><line style="stroke:#181818;stroke-width:1.0;" x1="794.875" x2="1685.25" y1="689.5996" y2="689.5996"/><text fill="#000000" font-family="sans-serif" font-size="20" font-weight="bold" lengthAdjust="spacing" textLength="23.25" x="801.875" y="681.7396">14</text><text fill="#000000" font-family="sans-serif" font-size="20" lengthAdjust="spacing" textLength="151" x="829.125" y="681.7396">toDto(newFloor)</text><polygon fill="#181818" points="2702.875,726.8396,2712.875,730.8396,2702.875,734.8396,2706.875,730.8396" style="stroke:#181818;stroke-width:1.0;"/><line style="stroke:#181818;stroke-width:1.0;" x1="1696.25" x2="2708.875" y1="730.8396" y2="730.8396"/><text fill="#000000" font-family="sans-serif" font-size="20" font-weight="bold" lengthAdjust="spacing" textLength="23.25" x="1703.25" y="722.9796">15</text><text fill="#000000" font-family="sans-serif" font-size="20" lengthAdjust="spacing" textLength="70" x="1730.5" y="722.9796">create()</text><rect fill="#E2E2F0" height="41.24" rx="2.5" ry="2.5" style="stroke:#181818;stroke-width:0.5;" width="209" x="2714.875" y="697.5996"/><text fill="#000000" font-family="sans-serif" font-size="20" lengthAdjust="spacing" textLength="195" x="2721.875" y="725.9796">:FloorDTO:IFloorDTO</text><polygon fill="#181818" points="558.25,779.0796,548.25,783.0796,558.25,787.0796,554.25,783.0796" style="stroke:#181818;stroke-width:1.0;"/><line style="stroke:#181818;stroke-width:1.0;stroke-dasharray:2.0,2.0;" x1="552.25" x2="788.875" y1="783.0796" y2="783.0796"/><text fill="#000000" font-family="sans-serif" font-size="20" font-weight="bold" lengthAdjust="spacing" textLength="23.25" x="564.25" y="775.2196">16</text><text fill="#000000" font-family="sans-serif" font-size="20" lengthAdjust="spacing" textLength="161" x="591.5" y="775.2196">sucess(floorDTO)</text><polygon fill="#181818" points="325.625,820.3195,315.625,824.3195,325.625,828.3195,321.625,824.3195" style="stroke:#181818;stroke-width:1.0;"/><line style="stroke:#181818;stroke-width:1.0;stroke-dasharray:2.0,2.0;" x1="319.625" x2="541.25" y1="824.3195" y2="824.3195"/><text fill="#000000" font-family="sans-serif" font-size="20" font-weight="bold" lengthAdjust="spacing" textLength="23.25" x="331.625" y="816.4596">17</text><text fill="#000000" font-family="sans-serif" font-size="20" lengthAdjust="spacing" textLength="161" x="358.875" y="816.4596">sucess(floorDTO)</text><polygon fill="#181818" points="11,861.5595,1,865.5595,11,869.5595,7,865.5595" style="stroke:#181818;stroke-width:1.0;"/><line style="stroke:#181818;stroke-width:1.0;stroke-dasharray:2.0,2.0;" x1="5" x2="308.625" y1="865.5595" y2="865.5595"/><text fill="#000000" font-family="sans-serif" font-size="20" font-weight="bold" lengthAdjust="spacing" textLength="23.25" x="17" y="857.6995">18</text><text fill="#000000" font-family="sans-serif" font-size="20" lengthAdjust="spacing" textLength="111" x="44.25" y="857.6995">201 Created</text><!--SRC=[ZPDHRzem58NV_Iii7YPQ2RNhOrHr6WGc96YYXExTJMucgy5cjiEqJVlliwz3i4E7zWRsTuwFhq_q6nS7fjY-bTKRrBI6XdMjMKbXIluBwCCzOPsHejk_WYAMDBpY1oOCBRANtP8oJIV9gfLI5R8pC8cGnQxO1CJ2cYhPjg1Yh2o-1bG9wiYhaLEnpBFvotgJhf-_U7RUyRRcubi11ncpgqsM5HvgdA6tlVGBir-OR3_dmVwM7UBjV5cKk8_REIZDjG5HGR8UhunyitJPpsGhQsWVBtZwWQQowlOWp5EiVSO9UB607wj_NIxTXNUp__fGzjU4a4zozjG_NaBphDpHkz-l_J0NDjAVEvoQ9gmo_CWCU9WGhx5YVDQ4LWhiBZfF5NplG9kRiyX114chS2yS2ve-KA2m476WYnS-Tq8RBkhvprJk6HVhUXgc3VIXY4GEio72IKfgU5_N1y0EtTuEeQStOJIxhDaH_2L62V1a1xe69TH8V5fysGlU8iHXbdQ5YiyB4ZfkiCK23LmpQa_exiZ81XV6-VnOhngTO_eA_aVGOUAdeeudVfhd4CF8wObz_spRbgi7e-6vdhghGEkWQ07kgkQx6NmBrmJOviVPR80VxZ_I1GQfevlXf_8N]--></g></svg>