<?xml version="1.0" encoding="UTF-8" standalone="no"?><svg xmlns="http://www.w3.org/2000/svg" xmlns:xlink="http://www.w3.org/1999/xlink" contentStyleType="text/css" height="724px" preserveAspectRatio="none" style="width:2061px;height:724px;background:#FFFFFF;" version="1.1" viewBox="0 0 2061 724" width="2061px" zoomAndPan="magnify"><defs/><g><rect fill="#FFFFFF" height="603.9141" style="stroke:#181818;stroke-width:1.0;" width="10" x="120" y="67.4297"/><rect fill="#FFFFFF" height="545.6484" style="stroke:#181818;stroke-width:1.0;" width="10" x="293" y="96.5625"/><rect fill="#FFFFFF" height="487.3828" style="stroke:#181818;stroke-width:1.0;" width="10" x="472" y="125.6953"/><rect fill="#FFFFFF" height="29.1328" style="stroke:#181818;stroke-width:1.0;" width="10" x="706" y="154.8281"/><rect fill="#FFFFFF" height="259.125" style="stroke:#181818;stroke-width:1.0;" width="10" x="914.5" y="254.3906"/><rect fill="#FFFFFF" height="30" style="stroke:#181818;stroke-width:1.0;" width="10" x="1140.5" y="283.5234"/><rect fill="#FFFFFF" height="29.1328" style="stroke:#181818;stroke-width:1.0;" width="10" x="1140.5" y="443.0859"/><rect fill="#FFFFFF" height="29.1328" style="stroke:#181818;stroke-width:1.0;" width="10" x="1140.5" y="542.6484"/><rect fill="#FFFFFF" height="30" style="stroke:#181818;stroke-width:1.0;" width="10" x="1604" y="383.9531"/><line style="stroke:#181818;stroke-width:0.5;stroke-dasharray:5.0,5.0;" x1="124.5" x2="124.5" y1="36.2969" y2="689.3438"/><line style="stroke:#181818;stroke-width:0.5;stroke-dasharray:5.0,5.0;" x1="298" x2="298" y1="36.2969" y2="689.3438"/><line style="stroke:#181818;stroke-width:0.5;stroke-dasharray:5.0,5.0;" x1="476.5" x2="476.5" y1="36.2969" y2="689.3438"/><line style="stroke:#181818;stroke-width:0.5;stroke-dasharray:5.0,5.0;" x1="710.5" x2="710.5" y1="36.2969" y2="689.3438"/><line style="stroke:#181818;stroke-width:0.5;stroke-dasharray:5.0,5.0;" x1="820.5" x2="820.5" y1="222.6094" y2="689.3438"/><line style="stroke:#181818;stroke-width:0.5;stroke-dasharray:5.0,5.0;" x1="919.5" x2="919.5" y1="36.2969" y2="689.3438"/><line style="stroke:#181818;stroke-width:0.5;stroke-dasharray:5.0,5.0;" x1="1145.5" x2="1145.5" y1="36.2969" y2="689.3438"/><line style="stroke:#181818;stroke-width:0.5;stroke-dasharray:5.0,5.0;" x1="1323.5" x2="1323.5" y1="352.1719" y2="689.3438"/><line style="stroke:#181818;stroke-width:0.5;stroke-dasharray:5.0,5.0;" x1="1608.5" x2="1608.5" y1="36.2969" y2="689.3438"/><line style="stroke:#181818;stroke-width:0.5;stroke-dasharray:5.0,5.0;" x1="1827.5" x2="1827.5" y1="481.7344" y2="689.3438"/><line style="stroke:#181818;stroke-width:0.5;stroke-dasharray:5.0,5.0;" x1="1976.5" x2="1976.5" y1="581.2969" y2="689.3438"/><rect fill="#E2E2F0" height="30.2969" rx="2.5" ry="2.5" style="stroke:#181818;stroke-width:0.5;" width="95" x="77.5" y="5"/><text fill="#000000" font-family="sans-serif" font-size="14" lengthAdjust="spacing" textLength="81" x="84.5" y="24.9951">:FloorRoute</text><rect fill="#E2E2F0" height="30.2969" rx="2.5" ry="2.5" style="stroke:#181818;stroke-width:0.5;" width="95" x="77.5" y="688.3438"/><text fill="#000000" font-family="sans-serif" font-size="14" lengthAdjust="spacing" textLength="81" x="84.5" y="708.3389">:FloorRoute</text><rect fill="#E2E2F0" height="30.2969" rx="2.5" ry="2.5" style="stroke:#181818;stroke-width:0.5;" width="120" x="238" y="5"/><text fill="#000000" font-family="sans-serif" font-size="14" lengthAdjust="spacing" textLength="106" x="245" y="24.9951">:FloorController</text><rect fill="#E2E2F0" height="30.2969" rx="2.5" ry="2.5" style="stroke:#181818;stroke-width:0.5;" width="120" x="238" y="688.3438"/><text fill="#000000" font-family="sans-serif" font-size="14" lengthAdjust="spacing" textLength="106" x="245" y="708.3389">:FloorController</text><rect fill="#E2E2F0" height="30.2969" rx="2.5" ry="2.5" style="stroke:#181818;stroke-width:0.5;" width="103" x="425.5" y="5"/><text fill="#000000" font-family="sans-serif" font-size="14" lengthAdjust="spacing" textLength="89" x="432.5" y="24.9951">:FloorService</text><rect fill="#E2E2F0" height="30.2969" rx="2.5" ry="2.5" style="stroke:#181818;stroke-width:0.5;" width="103" x="425.5" y="688.3438"/><text fill="#000000" font-family="sans-serif" font-size="14" lengthAdjust="spacing" textLength="89" x="432.5" y="708.3389">:FloorService</text><rect fill="#E2E2F0" height="30.2969" rx="2.5" ry="2.5" style="stroke:#181818;stroke-width:0.5;" width="111" x="655.5" y="5"/><text fill="#000000" font-family="sans-serif" font-size="14" lengthAdjust="spacing" textLength="97" x="662.5" y="24.9951">:BuildingRepo</text><rect fill="#E2E2F0" height="30.2969" rx="2.5" ry="2.5" style="stroke:#181818;stroke-width:0.5;" width="111" x="655.5" y="688.3438"/><text fill="#000000" font-family="sans-serif" font-size="14" lengthAdjust="spacing" textLength="97" x="662.5" y="708.3389">:BuildingRepo</text><rect fill="#E2E2F0" height="30.2969" rx="2.5" ry="2.5" style="stroke:#181818;stroke-width:0.5;" width="88" x="776.5" y="688.3438"/><text fill="#000000" font-family="sans-serif" font-size="14" lengthAdjust="spacing" textLength="74" x="783.5" y="708.3389">:floor:Floor</text><rect fill="#E2E2F0" height="30.2969" rx="2.5" ry="2.5" style="stroke:#181818;stroke-width:0.5;" width="90" x="874.5" y="5"/><text fill="#000000" font-family="sans-serif" font-size="14" lengthAdjust="spacing" textLength="76" x="881.5" y="24.9951">:FloorRepo</text><rect fill="#E2E2F0" height="30.2969" rx="2.5" ry="2.5" style="stroke:#181818;stroke-width:0.5;" width="90" x="874.5" y="688.3438"/><text fill="#000000" font-family="sans-serif" font-size="14" lengthAdjust="spacing" textLength="76" x="881.5" y="708.3389">:FloorRepo</text><rect fill="#E2E2F0" height="30.2969" rx="2.5" ry="2.5" style="stroke:#181818;stroke-width:0.5;" width="82" x="1104.5" y="5"/><text fill="#000000" font-family="sans-serif" font-size="14" lengthAdjust="spacing" textLength="68" x="1111.5" y="24.9951">:FloorMap</text><rect fill="#E2E2F0" height="30.2969" rx="2.5" ry="2.5" style="stroke:#181818;stroke-width:0.5;" width="82" x="1104.5" y="688.3438"/><text fill="#000000" font-family="sans-serif" font-size="14" lengthAdjust="spacing" textLength="68" x="1111.5" y="708.3389">:FloorMap</text><rect fill="#E2E2F0" height="30.2969" rx="2.5" ry="2.5" style="stroke:#181818;stroke-width:0.5;" width="254" x="1196.5" y="688.3438"/><text fill="#000000" font-family="sans-serif" font-size="14" lengthAdjust="spacing" textLength="240" x="1203.5" y="708.3389">FloorPersistence:IFloorPersistence</text><rect fill="#E2E2F0" height="30.2969" rx="2.5" ry="2.5" style="stroke:#181818;stroke-width:0.5;" width="297" x="1460.5" y="5"/><text fill="#000000" font-family="sans-serif" font-size="14" lengthAdjust="spacing" textLength="283" x="1467.5" y="24.9951">:Model&lt;IFloorPersistence &amp; Document&gt;</text><rect fill="#E2E2F0" height="30.2969" rx="2.5" ry="2.5" style="stroke:#181818;stroke-width:0.5;" width="297" x="1460.5" y="688.3438"/><text fill="#000000" font-family="sans-serif" font-size="14" lengthAdjust="spacing" textLength="283" x="1467.5" y="708.3389">:Model&lt;IFloorPersistence &amp; Document&gt;</text><rect fill="#E2E2F0" height="30.2969" rx="2.5" ry="2.5" style="stroke:#181818;stroke-width:0.5;" width="121" x="1767.5" y="688.3438"/><text fill="#000000" font-family="sans-serif" font-size="14" lengthAdjust="spacing" textLength="107" x="1774.5" y="708.3389">:newFloor:Floor</text><rect fill="#E2E2F0" height="30.2969" rx="2.5" ry="2.5" style="stroke:#181818;stroke-width:0.5;" width="157" x="1898.5" y="688.3438"/><text fill="#000000" font-family="sans-serif" font-size="14" lengthAdjust="spacing" textLength="143" x="1905.5" y="708.3389">:FloorDTO:IFloorDTO</text><rect fill="#FFFFFF" height="603.9141" style="stroke:#181818;stroke-width:1.0;" width="10" x="120" y="67.4297"/><rect fill="#FFFFFF" height="545.6484" style="stroke:#181818;stroke-width:1.0;" width="10" x="293" y="96.5625"/><rect fill="#FFFFFF" height="487.3828" style="stroke:#181818;stroke-width:1.0;" width="10" x="472" y="125.6953"/><rect fill="#FFFFFF" height="29.1328" style="stroke:#181818;stroke-width:1.0;" width="10" x="706" y="154.8281"/><rect fill="#FFFFFF" height="259.125" style="stroke:#181818;stroke-width:1.0;" width="10" x="914.5" y="254.3906"/><rect fill="#FFFFFF" height="30" style="stroke:#181818;stroke-width:1.0;" width="10" x="1140.5" y="283.5234"/><rect fill="#FFFFFF" height="29.1328" style="stroke:#181818;stroke-width:1.0;" width="10" x="1140.5" y="443.0859"/><rect fill="#FFFFFF" height="29.1328" style="stroke:#181818;stroke-width:1.0;" width="10" x="1140.5" y="542.6484"/><rect fill="#FFFFFF" height="30" style="stroke:#181818;stroke-width:1.0;" width="10" x="1604" y="383.9531"/><ellipse cx="7.5" cy="66.6797" fill="none" rx="4" ry="4" style="stroke:#181818;stroke-width:1.5;"/><polygon fill="#181818" points="108,63.4297,118,67.4297,108,71.4297,112,67.4297" style="stroke:#181818;stroke-width:1.0;"/><line style="stroke:#181818;stroke-width:1.0;" x1="12" x2="114" y1="67.4297" y2="67.4297"/><text fill="#000000" font-family="sans-serif" font-size="13" font-weight="bold" lengthAdjust="spacing" textLength="9" x="15" y="62.3638">1</text><text fill="#000000" font-family="sans-serif" font-size="13" lengthAdjust="spacing" textLength="77" x="28" y="62.3638">POST /floors</text><polygon fill="#181818" points="281,92.5625,291,96.5625,281,100.5625,285,96.5625" style="stroke:#181818;stroke-width:1.0;"/><line style="stroke:#181818;stroke-width:1.0;" x1="130" x2="287" y1="96.5625" y2="96.5625"/><text fill="#000000" font-family="sans-serif" font-size="13" font-weight="bold" lengthAdjust="spacing" textLength="9" x="137" y="91.4966">2</text><text fill="#000000" font-family="sans-serif" font-size="13" lengthAdjust="spacing" textLength="131" x="150" y="91.4966">createFloor(request)</text><polygon fill="#181818" points="460,121.6953,470,125.6953,460,129.6953,464,125.6953" style="stroke:#181818;stroke-width:1.0;"/><line style="stroke:#181818;stroke-width:1.0;" x1="303" x2="466" y1="125.6953" y2="125.6953"/><text fill="#000000" font-family="sans-serif" font-size="13" font-weight="bold" lengthAdjust="spacing" textLength="9" x="310" y="120.6294">3</text><text fill="#000000" font-family="sans-serif" font-size="13" lengthAdjust="spacing" textLength="137" x="323" y="120.6294">createFloor(floorDTO)</text><polygon fill="#181818" points="694,150.8281,704,154.8281,694,158.8281,698,154.8281" style="stroke:#181818;stroke-width:1.0;"/><line style="stroke:#181818;stroke-width:1.0;" x1="482" x2="700" y1="154.8281" y2="154.8281"/><text fill="#000000" font-family="sans-serif" font-size="13" font-weight="bold" lengthAdjust="spacing" textLength="9" x="489" y="149.7622">4</text><text fill="#000000" font-family="sans-serif" font-size="13" lengthAdjust="spacing" textLength="192" x="502" y="149.7622">findByDomainId(buildingCode)</text><polygon fill="#181818" points="493,179.9609,483,183.9609,493,187.9609,489,183.9609" style="stroke:#181818;stroke-width:1.0;"/><line style="stroke:#181818;stroke-width:1.0;stroke-dasharray:2.0,2.0;" x1="487" x2="710" y1="183.9609" y2="183.9609"/><text fill="#000000" font-family="sans-serif" font-size="13" font-weight="bold" lengthAdjust="spacing" textLength="9" x="499" y="178.895">5</text><text fill="#000000" font-family="sans-serif" font-size="13" lengthAdjust="spacing" textLength="49" x="512" y="178.895">building</text><polygon fill="#181818" points="764.5,209.0938,774.5,213.0938,764.5,217.0938,768.5,213.0938" style="stroke:#181818;stroke-width:1.0;"/><line style="stroke:#181818;stroke-width:1.0;" x1="482" x2="770.5" y1="213.0938" y2="213.0938"/><text fill="#000000" font-family="sans-serif" font-size="13" font-weight="bold" lengthAdjust="spacing" textLength="9" x="489" y="208.0278">6</text><text fill="#000000" font-family="sans-serif" font-size="13" lengthAdjust="spacing" textLength="51" x="502" y="208.0278">create()</text><rect fill="#E2E2F0" height="30.2969" rx="2.5" ry="2.5" style="stroke:#181818;stroke-width:0.5;" width="88" x="776.5" y="191.9609"/><text fill="#000000" font-family="sans-serif" font-size="14" lengthAdjust="spacing" textLength="74" x="783.5" y="211.9561">:floor:Floor</text><polygon fill="#181818" points="902.5,250.3906,912.5,254.3906,902.5,258.3906,906.5,254.3906" style="stroke:#181818;stroke-width:1.0;"/><line style="stroke:#181818;stroke-width:1.0;" x1="482" x2="908.5" y1="254.3906" y2="254.3906"/><text fill="#000000" font-family="sans-serif" font-size="13" font-weight="bold" lengthAdjust="spacing" textLength="9" x="489" y="249.3247">7</text><text fill="#000000" font-family="sans-serif" font-size="13" lengthAdjust="spacing" textLength="68" x="502" y="249.3247">save(floor)</text><polygon fill="#181818" points="1128.5,279.5234,1138.5,283.5234,1128.5,287.5234,1132.5,283.5234" style="stroke:#181818;stroke-width:1.0;"/><line style="stroke:#181818;stroke-width:1.0;" x1="924.5" x2="1134.5" y1="283.5234" y2="283.5234"/><text fill="#000000" font-family="sans-serif" font-size="13" font-weight="bold" lengthAdjust="spacing" textLength="9" x="931.5" y="278.4575">8</text><text fill="#000000" font-family="sans-serif" font-size="13" lengthAdjust="spacing" textLength="118" x="944.5" y="278.4575">toPersitence(floor)</text><polygon fill="#181818" points="1184.5,338.6563,1194.5,342.6563,1184.5,346.6563,1188.5,342.6563" style="stroke:#181818;stroke-width:1.0;"/><line style="stroke:#181818;stroke-width:1.0;" x1="924.5" x2="1190.5" y1="342.6563" y2="342.6563"/><text fill="#000000" font-family="sans-serif" font-size="13" font-weight="bold" lengthAdjust="spacing" textLength="9" x="931.5" y="337.5903">9</text><text fill="#000000" font-family="sans-serif" font-size="13" lengthAdjust="spacing" textLength="51" x="944.5" y="337.5903">create()</text><rect fill="#E2E2F0" height="30.2969" rx="2.5" ry="2.5" style="stroke:#181818;stroke-width:0.5;" width="254" x="1196.5" y="321.5234"/><text fill="#000000" font-family="sans-serif" font-size="14" lengthAdjust="spacing" textLength="240" x="1203.5" y="341.5186">FloorPersistence:IFloorPersistence</text><polygon fill="#181818" points="1592,379.9531,1602,383.9531,1592,387.9531,1596,383.9531" style="stroke:#181818;stroke-width:1.0;"/><line style="stroke:#181818;stroke-width:1.0;" x1="924.5" x2="1598" y1="383.9531" y2="383.9531"/><text fill="#000000" font-family="sans-serif" font-size="13" font-weight="bold" lengthAdjust="spacing" textLength="18" x="931.5" y="378.8872">10</text><text fill="#000000" font-family="sans-serif" font-size="13" lengthAdjust="spacing" textLength="153" x="953.5" y="378.8872">create(floorPersistence)</text><polygon fill="#181818" points="1128.5,439.0859,1138.5,443.0859,1128.5,447.0859,1132.5,443.0859" style="stroke:#181818;stroke-width:1.0;"/><line style="stroke:#181818;stroke-width:1.0;" x1="924.5" x2="1134.5" y1="443.0859" y2="443.0859"/><text fill="#000000" font-family="sans-serif" font-size="13" font-weight="bold" lengthAdjust="spacing" textLength="18" x="931.5" y="438.02">11</text><text fill="#000000" font-family="sans-serif" font-size="13" lengthAdjust="spacing" textLength="175" x="953.5" y="438.02">toDomain(floorPersistence)</text><polygon fill="#181818" points="1755.5,468.2188,1765.5,472.2188,1755.5,476.2188,1759.5,472.2188" style="stroke:#181818;stroke-width:1.0;"/><line style="stroke:#181818;stroke-width:1.0;" x1="1145.5" x2="1761.5" y1="472.2188" y2="472.2188"/><text fill="#000000" font-family="sans-serif" font-size="13" font-weight="bold" lengthAdjust="spacing" textLength="18" x="1152.5" y="467.1528">12</text><text fill="#000000" font-family="sans-serif" font-size="13" lengthAdjust="spacing" textLength="51" x="1174.5" y="467.1528">create()</text><rect fill="#E2E2F0" height="30.2969" rx="2.5" ry="2.5" style="stroke:#181818;stroke-width:0.5;" width="121" x="1767.5" y="451.0859"/><text fill="#000000" font-family="sans-serif" font-size="14" lengthAdjust="spacing" textLength="107" x="1774.5" y="471.0811">:newFloor:Floor</text><polygon fill="#181818" points="493,509.5156,483,513.5156,493,517.5156,489,513.5156" style="stroke:#181818;stroke-width:1.0;"/><line style="stroke:#181818;stroke-width:1.0;stroke-dasharray:2.0,2.0;" x1="487" x2="918.5" y1="513.5156" y2="513.5156"/><text fill="#000000" font-family="sans-serif" font-size="13" font-weight="bold" lengthAdjust="spacing" textLength="18" x="499" y="508.4497">13</text><text fill="#000000" font-family="sans-serif" font-size="13" lengthAdjust="spacing" textLength="56" x="521" y="508.4497">newFloor</text><polygon fill="#181818" points="1128.5,538.6484,1138.5,542.6484,1128.5,546.6484,1132.5,542.6484" style="stroke:#181818;stroke-width:1.0;"/><line style="stroke:#181818;stroke-width:1.0;" x1="482" x2="1134.5" y1="542.6484" y2="542.6484"/><text fill="#000000" font-family="sans-serif" font-size="13" font-weight="bold" lengthAdjust="spacing" textLength="18" x="489" y="537.5825">14</text><text fill="#000000" font-family="sans-serif" font-size="13" lengthAdjust="spacing" textLength="102" x="511" y="537.5825">toDto(newFloor)</text><polygon fill="#181818" points="1886.5,567.7813,1896.5,571.7813,1886.5,575.7813,1890.5,571.7813" style="stroke:#181818;stroke-width:1.0;"/><line style="stroke:#181818;stroke-width:1.0;" x1="1145.5" x2="1892.5" y1="571.7813" y2="571.7813"/><text fill="#000000" font-family="sans-serif" font-size="13" font-weight="bold" lengthAdjust="spacing" textLength="18" x="1152.5" y="566.7153">15</text><text fill="#000000" font-family="sans-serif" font-size="13" lengthAdjust="spacing" textLength="51" x="1174.5" y="566.7153">create()</text><rect fill="#E2E2F0" height="30.2969" rx="2.5" ry="2.5" style="stroke:#181818;stroke-width:0.5;" width="157" x="1898.5" y="550.6484"/><text fill="#000000" font-family="sans-serif" font-size="14" lengthAdjust="spacing" textLength="143" x="1905.5" y="570.6436">:FloorDTO:IFloorDTO</text><polygon fill="#181818" points="314,609.0781,304,613.0781,314,617.0781,310,613.0781" style="stroke:#181818;stroke-width:1.0;"/><line style="stroke:#181818;stroke-width:1.0;stroke-dasharray:2.0,2.0;" x1="308" x2="476" y1="613.0781" y2="613.0781"/><text fill="#000000" font-family="sans-serif" font-size="13" font-weight="bold" lengthAdjust="spacing" textLength="18" x="320" y="608.0122">16</text><text fill="#000000" font-family="sans-serif" font-size="13" lengthAdjust="spacing" textLength="109" x="342" y="608.0122">sucess(floorDTO)</text><polygon fill="#181818" points="141,638.2109,131,642.2109,141,646.2109,137,642.2109" style="stroke:#181818;stroke-width:1.0;"/><line style="stroke:#181818;stroke-width:1.0;stroke-dasharray:2.0,2.0;" x1="135" x2="297" y1="642.2109" y2="642.2109"/><text fill="#000000" font-family="sans-serif" font-size="13" font-weight="bold" lengthAdjust="spacing" textLength="18" x="147" y="637.145">17</text><text fill="#000000" font-family="sans-serif" font-size="13" lengthAdjust="spacing" textLength="109" x="169" y="637.145">sucess(floorDTO)</text><polygon fill="#181818" points="11,667.3438,1,671.3438,11,675.3438,7,671.3438" style="stroke:#181818;stroke-width:1.0;"/><line style="stroke:#181818;stroke-width:1.0;stroke-dasharray:2.0,2.0;" x1="5" x2="124" y1="671.3438" y2="671.3438"/><text fill="#000000" font-family="sans-serif" font-size="13" font-weight="bold" lengthAdjust="spacing" textLength="18" x="17" y="666.2778">18</text><text fill="#000000" font-family="sans-serif" font-size="13" lengthAdjust="spacing" textLength="79" x="39" y="666.2778">201 Created</text><!--MD5=[d81a1da29791a96786039674a16648a0]
@startuml process-view
autonumber
participant ROUTE as ":FloorRoute"
participant CTRL as ":FloorController"
participant SRV as ":FloorService"
participant REPOBUILDING as ":BuildingRepo"
participant FLOOR as ":floor:Floor"
participant REPO as ":FloorRepo"
participant MAP as ":FloorMap"
participant PERS as "FloorPersistence:IFloorPersistence"
participant MODEL as ":Model<IFloorPersistence & Document>"
participant NBUILD as ":newFloor:Floor"
participant DTO as ":FloorDTO:IFloorDTO"

?o-> ROUTE : POST /floors
activate ROUTE

ROUTE -> CTRL : createFloor(request)
activate CTRL
CTRL -> SRV : createFloor(floorDTO)
activate SRV
SRV -> REPOBUILDING : findByDomainId(buildingCode)
activate REPOBUILDING
REPOBUILDING - -> SRV : building
deactivate REPOBUILDING
SRV -> FLOOR** : create()
SRV -> REPO : save(floor)
activate REPO
REPO -> MAP : toPersitence(floor)
activate MAP
deactivate MAP
REPO -> PERS** : create()
REPO -> MODEL : create(floorPersistence)
activate MODEL
deactivate MODEL
REPO -> MAP : toDomain(floorPersistence)
activate MAP
MAP -> NBUILD** : create()
deactivate MAP
REPO - -> SRV : newFloor
deactivate REPO
SRV -> MAP : toDto(newFloor)
activate MAP
MAP -> DTO** : create()
deactivate MAP
SRV - -> CTRL : sucess(floorDTO)
deactivate SRV
CTRL - -> ROUTE : sucess(floorDTO)
deactivate CTRL
<- - ROUTE : 201 Created
deactivate ROUTE

@enduml

PlantUML version 1.2022.7(Mon Aug 22 18:01:30 WEST 2022)
(GPL source distribution)
Java Runtime: OpenJDK Runtime Environment
JVM: OpenJDK 64-Bit Server VM
Default Encoding: UTF-8
Language: en
Country: US
--></g></svg>