<?xml version="1.0" encoding="UTF-8" standalone="no"?><svg xmlns="http://www.w3.org/2000/svg" xmlns:xlink="http://www.w3.org/1999/xlink" contentStyleType="text/css" height="880px" preserveAspectRatio="none" style="width:2933px;height:880px;background:#FFFFFF;" version="1.1" viewBox="0 0 2933 880" width="2933px" zoomAndPan="magnify"><defs/><g><rect fill="#FFFFFF" height="737.7813" style="stroke:#181818;stroke-width:1.0;" width="10" x="175" y="82.5625"/><rect fill="#FFFFFF" height="663.2188" style="stroke:#181818;stroke-width:1.0;" width="10" x="427" y="119.8438"/><rect fill="#FFFFFF" height="588.6563" style="stroke:#181818;stroke-width:1.0;" width="10" x="691" y="157.125"/><rect fill="#FFFFFF" height="37.2813" style="stroke:#181818;stroke-width:1.0;" width="10" x="1049" y="194.4063"/><rect fill="#FFFFFF" height="305.6875" style="stroke:#181818;stroke-width:1.0;" width="10" x="1331" y="317.25"/><rect fill="#FFFFFF" height="30" style="stroke:#181818;stroke-width:1.0;" width="10" x="1665" y="354.5313"/><rect fill="#FFFFFF" height="37.2813" style="stroke:#181818;stroke-width:1.0;" width="10" x="1665" y="537.375"/><rect fill="#FFFFFF" height="37.2813" style="stroke:#181818;stroke-width:1.0;" width="10" x="1665" y="660.2188"/><rect fill="#FFFFFF" height="30" style="stroke:#181818;stroke-width:1.0;" width="10" x="2304.5" y="470.0938"/><line style="stroke:#181818;stroke-width:0.5;stroke-dasharray:5.0,5.0;" x1="180" x2="180" y1="43.2813" y2="838.3438"/><line style="stroke:#181818;stroke-width:0.5;stroke-dasharray:5.0,5.0;" x1="432" x2="432" y1="43.2813" y2="838.3438"/><line style="stroke:#181818;stroke-width:0.5;stroke-dasharray:5.0,5.0;" x1="696" x2="696" y1="43.2813" y2="838.3438"/><line style="stroke:#181818;stroke-width:0.5;stroke-dasharray:5.0,5.0;" x1="1054" x2="1054" y1="43.2813" y2="838.3438"/><line style="stroke:#181818;stroke-width:0.5;stroke-dasharray:5.0,5.0;" x1="1203" x2="1203" y1="273.8281" y2="838.3438"/><line style="stroke:#181818;stroke-width:0.5;stroke-dasharray:5.0,5.0;" x1="1336" x2="1336" y1="43.2813" y2="838.3438"/><line style="stroke:#181818;stroke-width:0.5;stroke-dasharray:5.0,5.0;" x1="1669.5" x2="1669.5" y1="43.2813" y2="838.3438"/><line style="stroke:#181818;stroke-width:0.5;stroke-dasharray:5.0,5.0;" x1="1913.5" x2="1913.5" y1="426.6719" y2="838.3438"/><line style="stroke:#181818;stroke-width:0.5;stroke-dasharray:5.0,5.0;" x1="2309.5" x2="2309.5" y1="43.2813" y2="838.3438"/><line style="stroke:#181818;stroke-width:0.5;stroke-dasharray:5.0,5.0;" x1="2612.5" x2="2612.5" y1="579.5156" y2="838.3438"/><line style="stroke:#181818;stroke-width:0.5;stroke-dasharray:5.0,5.0;" x1="2817.5" x2="2817.5" y1="702.3594" y2="838.3438"/><rect fill="#E2E2F0" height="37.2813" rx="2.5" ry="2.5" style="stroke:#181818;stroke-width:0.5;" width="130" x="115" y="5"/><text fill="#000000" font-family="sans-serif" font-size="20" lengthAdjust="spacing" textLength="116" x="122" y="30.5645">:FloorRoute</text><rect fill="#E2E2F0" height="37.2813" rx="2.5" ry="2.5" style="stroke:#181818;stroke-width:0.5;" width="130" x="115" y="837.3438"/><text fill="#000000" font-family="sans-serif" font-size="20" lengthAdjust="spacing" textLength="116" x="122" y="862.9082">:FloorRoute</text><rect fill="#E2E2F0" height="37.2813" rx="2.5" ry="2.5" style="stroke:#181818;stroke-width:0.5;" width="170" x="347" y="5"/><text fill="#000000" font-family="sans-serif" font-size="20" lengthAdjust="spacing" textLength="156" x="354" y="30.5645">:FloorController</text><rect fill="#E2E2F0" height="37.2813" rx="2.5" ry="2.5" style="stroke:#181818;stroke-width:0.5;" width="170" x="347" y="837.3438"/><text fill="#000000" font-family="sans-serif" font-size="20" lengthAdjust="spacing" textLength="156" x="354" y="862.9082">:FloorController</text><rect fill="#E2E2F0" height="37.2813" rx="2.5" ry="2.5" style="stroke:#181818;stroke-width:0.5;" width="144" x="624" y="5"/><text fill="#000000" font-family="sans-serif" font-size="20" lengthAdjust="spacing" textLength="130" x="631" y="30.5645">:FloorService</text><rect fill="#E2E2F0" height="37.2813" rx="2.5" ry="2.5" style="stroke:#181818;stroke-width:0.5;" width="144" x="624" y="837.3438"/><text fill="#000000" font-family="sans-serif" font-size="20" lengthAdjust="spacing" textLength="130" x="631" y="862.9082">:FloorService</text><rect fill="#E2E2F0" height="37.2813" rx="2.5" ry="2.5" style="stroke:#181818;stroke-width:0.5;" width="156" x="976" y="5"/><text fill="#000000" font-family="sans-serif" font-size="20" lengthAdjust="spacing" textLength="142" x="983" y="30.5645">:BuildingRepo</text><rect fill="#E2E2F0" height="37.2813" rx="2.5" ry="2.5" style="stroke:#181818;stroke-width:0.5;" width="156" x="976" y="837.3438"/><text fill="#000000" font-family="sans-serif" font-size="20" lengthAdjust="spacing" textLength="142" x="983" y="862.9082">:BuildingRepo</text><rect fill="#E2E2F0" height="37.2813" rx="2.5" ry="2.5" style="stroke:#181818;stroke-width:0.5;" width="123" x="1142" y="837.3438"/><text fill="#000000" font-family="sans-serif" font-size="20" lengthAdjust="spacing" textLength="109" x="1149" y="862.9082">:floor:Floor</text><rect fill="#E2E2F0" height="37.2813" rx="2.5" ry="2.5" style="stroke:#181818;stroke-width:0.5;" width="122" x="1275" y="5"/><text fill="#000000" font-family="sans-serif" font-size="20" lengthAdjust="spacing" textLength="108" x="1282" y="30.5645">:FloorRepo</text><rect fill="#E2E2F0" height="37.2813" rx="2.5" ry="2.5" style="stroke:#181818;stroke-width:0.5;" width="122" x="1275" y="837.3438"/><text fill="#000000" font-family="sans-serif" font-size="20" lengthAdjust="spacing" textLength="108" x="1282" y="862.9082">:FloorRepo</text><rect fill="#E2E2F0" height="37.2813" rx="2.5" ry="2.5" style="stroke:#181818;stroke-width:0.5;" width="113" x="1613.5" y="5"/><text fill="#000000" font-family="sans-serif" font-size="20" lengthAdjust="spacing" textLength="99" x="1620.5" y="30.5645">:FloorMap</text><rect fill="#E2E2F0" height="37.2813" rx="2.5" ry="2.5" style="stroke:#181818;stroke-width:0.5;" width="113" x="1613.5" y="837.3438"/><text fill="#000000" font-family="sans-serif" font-size="20" lengthAdjust="spacing" textLength="99" x="1620.5" y="862.9082">:FloorMap</text><rect fill="#E2E2F0" height="37.2813" rx="2.5" ry="2.5" style="stroke:#181818;stroke-width:0.5;" width="355" x="1736.5" y="837.3438"/><text fill="#000000" font-family="sans-serif" font-size="20" lengthAdjust="spacing" textLength="341" x="1743.5" y="862.9082">FloorPersistence:IFloorPersistence</text><rect fill="#E2E2F0" height="37.2813" rx="2.5" ry="2.5" style="stroke:#181818;stroke-width:0.5;" width="416" x="2101.5" y="5"/><text fill="#000000" font-family="sans-serif" font-size="20" lengthAdjust="spacing" textLength="402" x="2108.5" y="30.5645">:Model&lt;IFloorPersistence &amp; Document&gt;</text><rect fill="#E2E2F0" height="37.2813" rx="2.5" ry="2.5" style="stroke:#181818;stroke-width:0.5;" width="416" x="2101.5" y="837.3438"/><text fill="#000000" font-family="sans-serif" font-size="20" lengthAdjust="spacing" textLength="402" x="2108.5" y="862.9082">:Model&lt;IFloorPersistence &amp; Document&gt;</text><rect fill="#E2E2F0" height="37.2813" rx="2.5" ry="2.5" style="stroke:#181818;stroke-width:0.5;" width="170" x="2527.5" y="837.3438"/><text fill="#000000" font-family="sans-serif" font-size="20" lengthAdjust="spacing" textLength="156" x="2534.5" y="862.9082">:newFloor:Floor</text><rect fill="#E2E2F0" height="37.2813" rx="2.5" ry="2.5" style="stroke:#181818;stroke-width:0.5;" width="220" x="2707.5" y="837.3438"/><text fill="#000000" font-family="sans-serif" font-size="20" lengthAdjust="spacing" textLength="206" x="2714.5" y="862.9082">:FloorDTO:IFloorDTO</text><rect fill="#FFFFFF" height="737.7813" style="stroke:#181818;stroke-width:1.0;" width="10" x="175" y="82.5625"/><rect fill="#FFFFFF" height="663.2188" style="stroke:#181818;stroke-width:1.0;" width="10" x="427" y="119.8438"/><rect fill="#FFFFFF" height="588.6563" style="stroke:#181818;stroke-width:1.0;" width="10" x="691" y="157.125"/><rect fill="#FFFFFF" height="37.2813" style="stroke:#181818;stroke-width:1.0;" width="10" x="1049" y="194.4063"/><rect fill="#FFFFFF" height="305.6875" style="stroke:#181818;stroke-width:1.0;" width="10" x="1331" y="317.25"/><rect fill="#FFFFFF" height="30" style="stroke:#181818;stroke-width:1.0;" width="10" x="1665" y="354.5313"/><rect fill="#FFFFFF" height="37.2813" style="stroke:#181818;stroke-width:1.0;" width="10" x="1665" y="537.375"/><rect fill="#FFFFFF" height="37.2813" style="stroke:#181818;stroke-width:1.0;" width="10" x="1665" y="660.2188"/><rect fill="#FFFFFF" height="30" style="stroke:#181818;stroke-width:1.0;" width="10" x="2304.5" y="470.0938"/><ellipse cx="13.5" cy="81.8125" fill="none" rx="4" ry="4" style="stroke:#181818;stroke-width:1.5;"/><polygon fill="#181818" points="163,78.5625,173,82.5625,163,86.5625,167,82.5625" style="stroke:#181818;stroke-width:1.0;"/><line style="stroke:#181818;stroke-width:1.0;" x1="18" x2="169" y1="82.5625" y2="82.5625"/><text fill="#000000" font-family="sans-serif" font-size="20" font-weight="bold" lengthAdjust="spacing" textLength="14" x="21" y="75.8457">1</text><text fill="#000000" font-family="sans-serif" font-size="20" lengthAdjust="spacing" textLength="121" x="39" y="75.8457">POST /floors</text><polygon fill="#181818" points="415,115.8438,425,119.8438,415,123.8438,419,119.8438" style="stroke:#181818;stroke-width:1.0;"/><line style="stroke:#181818;stroke-width:1.0;" x1="185" x2="421" y1="119.8438" y2="119.8438"/><text fill="#000000" font-family="sans-serif" font-size="20" font-weight="bold" lengthAdjust="spacing" textLength="14" x="192" y="113.127">2</text><text fill="#000000" font-family="sans-serif" font-size="20" lengthAdjust="spacing" textLength="205" x="210" y="113.127">createFloor(request)</text><polygon fill="#181818" points="679,153.125,689,157.125,679,161.125,683,157.125" style="stroke:#181818;stroke-width:1.0;"/><line style="stroke:#181818;stroke-width:1.0;" x1="437" x2="685" y1="157.125" y2="157.125"/><text fill="#000000" font-family="sans-serif" font-size="20" font-weight="bold" lengthAdjust="spacing" textLength="14" x="444" y="150.4082">3</text><text fill="#000000" font-family="sans-serif" font-size="20" lengthAdjust="spacing" textLength="217" x="462" y="150.4082">createFloor(floorDTO)</text><polygon fill="#181818" points="1037,190.4063,1047,194.4063,1037,198.4063,1041,194.4063" style="stroke:#181818;stroke-width:1.0;"/><line style="stroke:#181818;stroke-width:1.0;" x1="701" x2="1043" y1="194.4063" y2="194.4063"/><text fill="#000000" font-family="sans-serif" font-size="20" font-weight="bold" lengthAdjust="spacing" textLength="14" x="708" y="187.6895">4</text><text fill="#000000" font-family="sans-serif" font-size="20" lengthAdjust="spacing" textLength="311" x="726" y="187.6895">findByDomainId(buildingCode)</text><polygon fill="#181818" points="712,227.6875,702,231.6875,712,235.6875,708,231.6875" style="stroke:#181818;stroke-width:1.0;"/><line style="stroke:#181818;stroke-width:1.0;stroke-dasharray:2.0,2.0;" x1="706" x2="1053" y1="231.6875" y2="231.6875"/><text fill="#000000" font-family="sans-serif" font-size="20" font-weight="bold" lengthAdjust="spacing" textLength="14" x="718" y="224.9707">5</text><text fill="#000000" font-family="sans-serif" font-size="20" lengthAdjust="spacing" textLength="83" x="736" y="224.9707">building</text><polygon fill="#181818" points="1130,264.9688,1140,268.9688,1130,272.9688,1134,268.9688" style="stroke:#181818;stroke-width:1.0;"/><line style="stroke:#181818;stroke-width:1.0;" x1="701" x2="1136" y1="268.9688" y2="268.9688"/><text fill="#000000" font-family="sans-serif" font-size="20" font-weight="bold" lengthAdjust="spacing" textLength="14" x="708" y="262.252">6</text><text fill="#000000" font-family="sans-serif" font-size="20" lengthAdjust="spacing" textLength="79" x="726" y="262.252">create()</text><rect fill="#E2E2F0" height="37.2813" rx="2.5" ry="2.5" style="stroke:#181818;stroke-width:0.5;" width="123" x="1142" y="239.6875"/><text fill="#000000" font-family="sans-serif" font-size="20" lengthAdjust="spacing" textLength="109" x="1149" y="265.252">:floor:Floor</text><polygon fill="#181818" points="1319,313.25,1329,317.25,1319,321.25,1323,317.25" style="stroke:#181818;stroke-width:1.0;"/><line style="stroke:#181818;stroke-width:1.0;" x1="701" x2="1325" y1="317.25" y2="317.25"/><text fill="#000000" font-family="sans-serif" font-size="20" font-weight="bold" lengthAdjust="spacing" textLength="14" x="708" y="310.5332">7</text><text fill="#000000" font-family="sans-serif" font-size="20" lengthAdjust="spacing" textLength="106" x="726" y="310.5332">save(floor)</text><polygon fill="#181818" points="1653,350.5313,1663,354.5313,1653,358.5313,1657,354.5313" style="stroke:#181818;stroke-width:1.0;"/><line style="stroke:#181818;stroke-width:1.0;" x1="1341" x2="1659" y1="354.5313" y2="354.5313"/><text fill="#000000" font-family="sans-serif" font-size="20" font-weight="bold" lengthAdjust="spacing" textLength="14" x="1348" y="347.8145">8</text><text fill="#000000" font-family="sans-serif" font-size="20" lengthAdjust="spacing" textLength="185" x="1366" y="347.8145">toPersitence(floor)</text><polygon fill="#181818" points="1724.5,417.8125,1734.5,421.8125,1724.5,425.8125,1728.5,421.8125" style="stroke:#181818;stroke-width:1.0;"/><line style="stroke:#181818;stroke-width:1.0;" x1="1341" x2="1730.5" y1="421.8125" y2="421.8125"/><text fill="#000000" font-family="sans-serif" font-size="20" font-weight="bold" lengthAdjust="spacing" textLength="14" x="1348" y="415.0957">9</text><text fill="#000000" font-family="sans-serif" font-size="20" lengthAdjust="spacing" textLength="79" x="1366" y="415.0957">create()</text><rect fill="#E2E2F0" height="37.2813" rx="2.5" ry="2.5" style="stroke:#181818;stroke-width:0.5;" width="355" x="1736.5" y="392.5313"/><text fill="#000000" font-family="sans-serif" font-size="20" lengthAdjust="spacing" textLength="341" x="1743.5" y="418.0957">FloorPersistence:IFloorPersistence</text><polygon fill="#181818" points="2292.5,466.0938,2302.5,470.0938,2292.5,474.0938,2296.5,470.0938" style="stroke:#181818;stroke-width:1.0;"/><line style="stroke:#181818;stroke-width:1.0;" x1="1341" x2="2298.5" y1="470.0938" y2="470.0938"/><text fill="#000000" font-family="sans-serif" font-size="20" font-weight="bold" lengthAdjust="spacing" textLength="28" x="1348" y="463.377">10</text><text fill="#000000" font-family="sans-serif" font-size="20" lengthAdjust="spacing" textLength="238" x="1380" y="463.377">create(floorPersistence)</text><polygon fill="#181818" points="1653,533.375,1663,537.375,1653,541.375,1657,537.375" style="stroke:#181818;stroke-width:1.0;"/><line style="stroke:#181818;stroke-width:1.0;" x1="1341" x2="1659" y1="537.375" y2="537.375"/><text fill="#000000" font-family="sans-serif" font-size="20" font-weight="bold" lengthAdjust="spacing" textLength="28" x="1348" y="530.6582">11</text><text fill="#000000" font-family="sans-serif" font-size="20" lengthAdjust="spacing" textLength="273" x="1380" y="530.6582">toDomain(floorPersistence)</text><polygon fill="#181818" points="2515.5,570.6563,2525.5,574.6563,2515.5,578.6563,2519.5,574.6563" style="stroke:#181818;stroke-width:1.0;"/><line style="stroke:#181818;stroke-width:1.0;" x1="1670" x2="2521.5" y1="574.6563" y2="574.6563"/><text fill="#000000" font-family="sans-serif" font-size="20" font-weight="bold" lengthAdjust="spacing" textLength="28" x="1677" y="567.9395">12</text><text fill="#000000" font-family="sans-serif" font-size="20" lengthAdjust="spacing" textLength="79" x="1709" y="567.9395">create()</text><rect fill="#E2E2F0" height="37.2813" rx="2.5" ry="2.5" style="stroke:#181818;stroke-width:0.5;" width="170" x="2527.5" y="545.375"/><text fill="#000000" font-family="sans-serif" font-size="20" lengthAdjust="spacing" textLength="156" x="2534.5" y="570.9395">:newFloor:Floor</text><polygon fill="#181818" points="712,618.9375,702,622.9375,712,626.9375,708,622.9375" style="stroke:#181818;stroke-width:1.0;"/><line style="stroke:#181818;stroke-width:1.0;stroke-dasharray:2.0,2.0;" x1="706" x2="1335" y1="622.9375" y2="622.9375"/><text fill="#000000" font-family="sans-serif" font-size="20" font-weight="bold" lengthAdjust="spacing" textLength="28" x="718" y="616.2207">13</text><text fill="#000000" font-family="sans-serif" font-size="20" lengthAdjust="spacing" textLength="92" x="750" y="616.2207">newFloor</text><polygon fill="#181818" points="1653,656.2188,1663,660.2188,1653,664.2188,1657,660.2188" style="stroke:#181818;stroke-width:1.0;"/><line style="stroke:#181818;stroke-width:1.0;" x1="701" x2="1659" y1="660.2188" y2="660.2188"/><text fill="#000000" font-family="sans-serif" font-size="20" font-weight="bold" lengthAdjust="spacing" textLength="28" x="708" y="653.502">14</text><text fill="#000000" font-family="sans-serif" font-size="20" lengthAdjust="spacing" textLength="163" x="740" y="653.502">toDto(newFloor)</text><polygon fill="#181818" points="2695.5,693.5,2705.5,697.5,2695.5,701.5,2699.5,697.5" style="stroke:#181818;stroke-width:1.0;"/><line style="stroke:#181818;stroke-width:1.0;" x1="1670" x2="2701.5" y1="697.5" y2="697.5"/><text fill="#000000" font-family="sans-serif" font-size="20" font-weight="bold" lengthAdjust="spacing" textLength="28" x="1677" y="690.7832">15</text><text fill="#000000" font-family="sans-serif" font-size="20" lengthAdjust="spacing" textLength="79" x="1709" y="690.7832">create()</text><rect fill="#E2E2F0" height="37.2813" rx="2.5" ry="2.5" style="stroke:#181818;stroke-width:0.5;" width="220" x="2707.5" y="668.2188"/><text fill="#000000" font-family="sans-serif" font-size="20" lengthAdjust="spacing" textLength="206" x="2714.5" y="693.7832">:FloorDTO:IFloorDTO</text><polygon fill="#181818" points="448,741.7813,438,745.7813,448,749.7813,444,745.7813" style="stroke:#181818;stroke-width:1.0;"/><line style="stroke:#181818;stroke-width:1.0;stroke-dasharray:2.0,2.0;" x1="442" x2="695" y1="745.7813" y2="745.7813"/><text fill="#000000" font-family="sans-serif" font-size="20" font-weight="bold" lengthAdjust="spacing" textLength="28" x="454" y="739.0645">16</text><text fill="#000000" font-family="sans-serif" font-size="20" lengthAdjust="spacing" textLength="170" x="486" y="739.0645">sucess(floorDTO)</text><polygon fill="#181818" points="196,779.0625,186,783.0625,196,787.0625,192,783.0625" style="stroke:#181818;stroke-width:1.0;"/><line style="stroke:#181818;stroke-width:1.0;stroke-dasharray:2.0,2.0;" x1="190" x2="431" y1="783.0625" y2="783.0625"/><text fill="#000000" font-family="sans-serif" font-size="20" font-weight="bold" lengthAdjust="spacing" textLength="28" x="202" y="776.3457">17</text><text fill="#000000" font-family="sans-serif" font-size="20" lengthAdjust="spacing" textLength="170" x="234" y="776.3457">sucess(floorDTO)</text><polygon fill="#181818" points="11,816.3438,1,820.3438,11,824.3438,7,820.3438" style="stroke:#181818;stroke-width:1.0;"/><line style="stroke:#181818;stroke-width:1.0;stroke-dasharray:2.0,2.0;" x1="5" x2="179" y1="820.3438" y2="820.3438"/><text fill="#000000" font-family="sans-serif" font-size="20" font-weight="bold" lengthAdjust="spacing" textLength="28" x="17" y="813.627">18</text><text fill="#000000" font-family="sans-serif" font-size="20" lengthAdjust="spacing" textLength="124" x="49" y="813.627">201 Created</text><!--SRC=[VLF1Zjem4BtxAomE5RiIwdQFqMghGg12WasKiBrxaqbbRR2fxL2rNrzxd6JjGBaHptjltimyz3iN9wROiPNLEzIqXePrhTb8OKh-5-ZZ0s6TaQ8xle4Y5cbunKzC65fahuSrPPhEaaqhfIfaPs0MGLQ7OXSWLbPKoRO55SFAuaU0Aa6TUJLHAjPvjdpTxjBjotUFNNQyhRduMS19njZDBiiA3sgSe9Uzr0kzNuZil-L1VSzESJbV5oNMiPo3qbmR41Kas-dBH3TBr_rEzhA6zka2Jp_HL5RT4OHvZhalk05F5l1xyx_XqaCuc_tgJTbVCqA-oiLpVxo4vbbve9znJPgmol0pC-2hX7YGHUCT4refi5MKcYlurO4sTnya1oA8j0ntqfZGz0u2XWKH1tH-mlicjE6YNlv9vP5niQtdR_sjLtPZ0JyaaKXXCLeOgAI6wxpU08Rc_duqFRyBhTbdpSxWXvWumCuEw2AJK2FnbdZA2xo5X4RSvy1sYOhxZxeOcR7GJF8IoZjar00VfWRzNcyAMMCERKa-TB6pgoECAn-YELtviD3HXf7p0NkzjutBpSOe-95FtLMWTP2q0EwoviCPfFyM0UFyj5YCuCU7BtI5HkfeClol_0C0]--></g></svg>