<svg xmlns="http://www.w3.org/2000/svg" version="1.1" xmlns:xlink="http://www.w3.org/1999/xlink" xmlns:svgjs="http://svgjs.dev/svgjs" width="1500" height="1500" viewBox="0 0 1500 1500"><rect width="1500" height="1500" fill="#000000"></rect><g transform="matrix(0.6666666666666666,0,0,0.6666666666666666,249.39393939393938,683.2760324739793)"><svg viewBox="0 0 396 53" data-background-color="#9dc0d7" preserveAspectRatio="xMidYMid meet" height="200" width="1500" xmlns="http://www.w3.org/2000/svg" xmlns:xlink="http://www.w3.org/1999/xlink"><g id="tight-bounds" transform="matrix(1,0,0,1,0.2400000000000091,0.02277709159326946)"><svg viewBox="0 0 395.52 52.95444581681345" height="52.95444581681345" width="395.52"><g><svg viewBox="0 0 469.04586916457635 62.798503398755386" height="52.95444581681345" width="395.52"><g transform="matrix(1,0,0,1,73.52586916457635,8.679098516036383)"><svg viewBox="0 0 395.52 45.44030636668262" height="45.44030636668262" width="395.52"><g id="textblocktransform"><svg viewBox="0 0 395.52 45.44030636668262" height="45.44030636668262" width="395.52" id="textblock"><g><svg viewBox="0 0 395.52 45.44030636668262" height="45.44030636668262" width="395.52"><g transform="matrix(1,0,0,1,0,0)"><svg width="395.52" viewBox="3.5 -35.5 313.33 36" height="45.44030636668262" data-palette-color="#0a0a0a"><path d="M11.2 0L4.75 0Q4.2 0 3.85-0.38 3.5-0.75 3.5-1.25L3.5-1.25 3.5-33.75Q3.5-34.3 3.85-34.65 4.2-35 4.75-35L4.75-35 18.35-35Q24.85-35 28.55-32.02 32.25-29.05 32.25-23.6L32.25-23.6Q32.25-20.05 30.55-17.6 28.85-15.15 26.05-13.9L26.05-13.9 32.9-1.6Q33.05-1.3 33.05-1.05L33.05-1.05Q33.05-0.65 32.73-0.33 32.4 0 32 0L32 0 25.35 0Q24.4 0 23.95-0.48 23.5-0.95 23.3-1.35L23.3-1.35 17.6-12.35 12.5-12.35 12.5-1.25Q12.5-0.75 12.13-0.38 11.75 0 11.2 0L11.2 0ZM12.5-28.05L12.5-19.45 18.25-19.45Q20.6-19.45 21.78-20.6 22.95-21.75 22.95-23.7L22.95-23.7Q22.95-25.65 21.83-26.85 20.7-28.05 18.25-28.05L18.25-28.05 12.5-28.05ZM49.8 0.5L49.8 0.5Q45.6 0.5 42.72-0.85 39.85-2.2 38.32-4.73 36.8-7.25 36.6-10.75L36.6-10.75Q36.55-11.75 36.55-13.03 36.55-14.3 36.6-15.25L36.6-15.25Q36.8-18.8 38.4-21.3 40-23.8 42.87-25.15 45.75-26.5 49.8-26.5L49.8-26.5Q53.9-26.5 56.77-25.15 59.65-23.8 61.25-21.3 62.85-18.8 63.05-15.25L63.05-15.25Q63.1-14.3 63.1-13.03 63.1-11.75 63.05-10.75L63.05-10.75Q62.85-7.25 61.32-4.73 59.8-2.2 56.92-0.85 54.05 0.5 49.8 0.5ZM49.8-5.6L49.8-5.6Q52.05-5.6 53.07-6.95 54.1-8.3 54.25-11L54.25-11Q54.3-11.75 54.3-13 54.3-14.25 54.25-15L54.25-15Q54.1-17.65 53.07-19.03 52.05-20.4 49.8-20.4L49.8-20.4Q47.65-20.4 46.57-19.03 45.5-17.65 45.4-15L45.4-15Q45.35-14.25 45.35-13 45.35-11.75 45.4-11L45.4-11Q45.5-8.3 46.57-6.95 47.65-5.6 49.8-5.6ZM83.95 0.5L83.95 0.5Q81.2 0.5 79.3-0.45 77.4-1.4 76.2-2.85L76.2-2.85 76.2-1.25Q76.2-0.75 75.82-0.38 75.45 0 74.95 0L74.95 0 69.3 0Q68.75 0 68.4-0.38 68.05-0.75 68.05-1.25L68.05-1.25 68.05-34.25Q68.05-34.8 68.4-35.15 68.75-35.5 69.3-35.5L69.3-35.5 75.4-35.5Q75.95-35.5 76.3-35.15 76.65-34.8 76.65-34.25L76.65-34.25 76.65-23.55Q77.9-24.85 79.7-25.68 81.5-26.5 83.95-26.5L83.95-26.5Q86.45-26.5 88.37-25.68 90.3-24.85 91.65-23.33 93-21.8 93.75-19.63 94.5-17.45 94.6-14.8L94.6-14.8Q94.65-13.8 94.65-13.03 94.65-12.25 94.6-11.25L94.6-11.25Q94.5-8.45 93.75-6.28 93-4.1 91.62-2.58 90.25-1.05 88.35-0.28 86.45 0.5 83.95 0.5ZM81.25-6.2L81.25-6.2Q82.95-6.2 83.9-6.9 84.85-7.6 85.27-8.8 85.7-10 85.8-11.45L85.8-11.45Q85.9-13 85.8-14.55L85.8-14.55Q85.7-16 85.27-17.2 84.85-18.4 83.9-19.1 82.95-19.8 81.25-19.8L81.25-19.8Q79.7-19.8 78.7-19.13 77.7-18.45 77.2-17.38 76.7-16.3 76.65-15.05L76.65-15.05Q76.6-14.1 76.6-13.2 76.6-12.3 76.65-11.3L76.65-11.3Q76.75-9.95 77.2-8.8 77.65-7.65 78.65-6.93 79.65-6.2 81.25-6.2ZM114.64 0L101.39 0Q100.84 0 100.49-0.38 100.14-0.75 100.14-1.25L100.14-1.25 100.14-33.75Q100.14-34.3 100.49-34.65 100.84-35 101.39-35L101.39-35 114.39-35Q119.29-35 122.74-33.43 126.19-31.85 128.04-28.83 129.89-25.8 130.04-21.35L130.04-21.35Q130.09-19.15 130.09-17.5 130.09-15.85 130.04-13.7L130.04-13.7Q129.84-9.05 128.07-6 126.29-2.95 122.92-1.48 119.54 0 114.64 0L114.64 0ZM109.14-27.8L109.14-7.2 114.39-7.2Q116.54-7.2 117.97-7.88 119.39-8.55 120.12-10 120.84-11.45 120.89-13.8L120.89-13.8Q120.99-15.25 121.02-16.4 121.04-17.55 121.02-18.7 120.99-19.85 120.89-21.25L120.89-21.25Q120.79-24.65 119.12-26.23 117.44-27.8 114.14-27.8L114.14-27.8 109.14-27.8ZM142.84 0L136.64 0Q136.09 0 135.74-0.38 135.39-0.75 135.39-1.25L135.39-1.25 135.39-24.75Q135.39-25.25 135.74-25.63 136.09-26 136.64-26L136.64-26 142.39-26Q142.94-26 143.32-25.63 143.69-25.25 143.69-24.75L143.69-24.75 143.69-22.75Q144.99-24.3 146.87-25.15 148.74-26 151.09-26L151.09-26 153.29-26Q153.84-26 154.19-25.65 154.54-25.3 154.54-24.75L154.54-24.75 154.54-19.6Q154.54-19.1 154.19-18.73 153.84-18.35 153.29-18.35L153.29-18.35 148.44-18.35Q146.39-18.35 145.27-17.23 144.14-16.1 144.14-14.05L144.14-14.05 144.14-1.25Q144.14-0.75 143.77-0.38 143.39 0 142.84 0L142.84 0ZM170.39 0.5L170.39 0.5Q166.19 0.5 163.31-0.85 160.44-2.2 158.91-4.73 157.39-7.25 157.19-10.75L157.19-10.75Q157.14-11.75 157.14-13.03 157.14-14.3 157.19-15.25L157.19-15.25Q157.39-18.8 158.99-21.3 160.59-23.8 163.46-25.15 166.34-26.5 170.39-26.5L170.39-26.5Q174.49-26.5 177.36-25.15 180.24-23.8 181.84-21.3 183.44-18.8 183.64-15.25L183.64-15.25Q183.69-14.3 183.69-13.03 183.69-11.75 183.64-10.75L183.64-10.75Q183.44-7.25 181.91-4.73 180.39-2.2 177.51-0.85 174.64 0.5 170.39 0.5ZM170.39-5.6L170.39-5.6Q172.64-5.6 173.66-6.95 174.69-8.3 174.84-11L174.84-11Q174.89-11.75 174.89-13 174.89-14.25 174.84-15L174.84-15Q174.69-17.65 173.66-19.03 172.64-20.4 170.39-20.4L170.39-20.4Q168.24-20.4 167.16-19.03 166.09-17.65 165.99-15L165.99-15Q165.94-14.25 165.94-13 165.94-11.75 165.99-11L165.99-11Q166.09-8.3 167.16-6.95 168.24-5.6 170.39-5.6ZM196.14 0L189.89 0Q189.34 0 188.99-0.38 188.64-0.75 188.64-1.25L188.64-1.25 188.64-24.75Q188.64-25.3 188.99-25.65 189.34-26 189.89-26L189.89-26 195.64-26Q196.19-26 196.56-25.65 196.94-25.3 196.94-24.75L196.94-24.75 196.94-22.85Q198.19-24.4 200.29-25.45 202.39-26.5 205.24-26.5L205.24-26.5Q208.14-26.5 210.36-25.2 212.59-23.9 213.86-21.4 215.14-18.9 215.14-15.2L215.14-15.2 215.14-1.25Q215.14-0.75 214.79-0.38 214.44 0 213.89 0L213.89 0 207.59 0Q207.09 0 206.71-0.38 206.34-0.75 206.34-1.25L206.34-1.25 206.34-14.9Q206.34-17.25 205.21-18.53 204.09-19.8 201.89-19.8L201.89-19.8Q199.84-19.8 198.61-18.53 197.39-17.25 197.39-14.9L197.39-14.9 197.39-1.25Q197.39-0.75 197.01-0.38 196.64 0 196.14 0L196.14 0ZM232.78 0.5L232.78 0.5Q226.88 0.5 223.38-2.7 219.88-5.9 219.73-12.2L219.73-12.2Q219.73-12.55 219.73-13.1 219.73-13.65 219.73-13.95L219.73-13.95Q219.88-17.9 221.51-20.73 223.13-23.55 226.01-25.03 228.88-26.5 232.73-26.5L232.73-26.5Q237.13-26.5 240.01-24.75 242.88-23 244.33-20 245.78-17 245.78-13.15L245.78-13.15 245.78-11.95Q245.78-11.4 245.43-11.05 245.08-10.7 244.53-10.7L244.53-10.7 228.53-10.7Q228.53-10.65 228.53-10.55 228.53-10.45 228.53-10.35L228.53-10.35Q228.58-8.9 229.06-7.7 229.53-6.5 230.46-5.8 231.38-5.1 232.73-5.1L232.73-5.1Q233.73-5.1 234.41-5.43 235.08-5.75 235.53-6.18 235.98-6.6 236.23-6.9L236.23-6.9Q236.68-7.45 236.96-7.58 237.23-7.7 237.83-7.7L237.83-7.7 244.03-7.7Q244.53-7.7 244.86-7.4 245.18-7.1 245.13-6.6L245.13-6.6Q245.08-5.75 244.28-4.55 243.48-3.35 241.96-2.18 240.43-1 238.13-0.25 235.83 0.5 232.78 0.5ZM228.53-15.75L228.53-15.65 236.98-15.65 236.98-15.75Q236.98-17.4 236.51-18.57 236.03-19.75 235.06-20.4 234.08-21.05 232.73-21.05L232.73-21.05Q231.43-21.05 230.48-20.4 229.53-19.75 229.03-18.57 228.53-17.4 228.53-15.75L228.53-15.75ZM265.48 0.5L265.48 0.5Q260.73 0.5 257.31-1.07 253.88-2.65 252.01-5.68 250.13-8.7 249.93-13.05L249.93-13.05Q249.88-15.2 249.88-17.63 249.88-20.05 249.93-22.25L249.93-22.25Q250.13-26.5 252.03-29.45 253.93-32.4 257.38-33.95 260.83-35.5 265.48-35.5L265.48-35.5Q269.23-35.5 272.13-34.58 275.03-33.65 277.01-32.1 278.98-30.55 280.03-28.7 281.08-26.85 281.13-25.05L281.13-25.05Q281.13-24.6 280.81-24.3 280.48-24 280.03-24L280.03-24 272.73-24Q272.18-24 271.91-24.18 271.63-24.35 271.43-24.7L271.43-24.7Q271.08-25.45 270.41-26.28 269.73-27.1 268.56-27.7 267.38-28.3 265.48-28.3L265.48-28.3Q262.68-28.3 261.03-26.8 259.38-25.3 259.23-22L259.23-22Q259.08-17.7 259.23-13.3L259.23-13.3Q259.38-9.8 261.08-8.25 262.78-6.7 265.63-6.7L265.63-6.7Q267.48-6.7 268.96-7.35 270.43-8 271.28-9.38 272.13-10.75 272.13-12.9L272.13-12.9 272.13-13.85 267.43-13.85Q266.88-13.85 266.53-14.23 266.18-14.6 266.18-15.15L266.18-15.15 266.18-18.85Q266.18-19.4 266.53-19.78 266.88-20.15 267.43-20.15L267.43-20.15 280.03-20.15Q280.58-20.15 280.93-19.78 281.28-19.4 281.28-18.85L281.28-18.85 281.28-13.15Q281.28-8.85 279.33-5.8 277.38-2.75 273.81-1.13 270.23 0.5 265.48 0.5ZM301.33 0.5L301.33 0.5Q296.73 0.5 293.33-1 289.93-2.5 288.03-5.53 286.13-8.55 285.93-13.1L285.93-13.1Q285.88-15.25 285.88-17.43 285.88-19.6 285.93-21.75L285.93-21.75Q286.13-26.25 288.05-29.33 289.98-32.4 293.4-33.95 296.83-35.5 301.33-35.5L301.33-35.5Q305.88-35.5 309.28-33.95 312.68-32.4 314.63-29.33 316.58-26.25 316.73-21.75L316.73-21.75Q316.83-19.6 316.83-17.43 316.83-15.25 316.73-13.1L316.73-13.1Q316.58-8.55 314.65-5.53 312.73-2.5 309.33-1 305.93 0.5 301.33 0.5ZM301.33-6.7L301.33-6.7Q303.98-6.7 305.65-8.3 307.33-9.9 307.43-13.4L307.43-13.4Q307.53-15.6 307.53-17.55 307.53-19.5 307.43-21.6L307.43-21.6Q307.33-23.95 306.55-25.43 305.78-26.9 304.43-27.6 303.08-28.3 301.33-28.3L301.33-28.3Q299.63-28.3 298.28-27.6 296.93-26.9 296.13-25.43 295.33-23.95 295.23-21.6L295.23-21.6Q295.18-19.5 295.18-17.55 295.18-15.6 295.23-13.4L295.23-13.4Q295.38-9.9 297.05-8.3 298.73-6.7 301.33-6.7Z" opacity="1" transform="matrix(1,0,0,1,0,0)" fill="#ffffff" class="wordmark-text-0" data-fill-palette-color="primary" id="text-0"></path></svg></g></svg></g></svg></g></svg></g><g><svg viewBox="0 0 62.798503398755386 62.798503398755386" height="62.798503398755386" width="62.798503398755386"><g data-palette-color="#0a0a0a"><rect width="17.164924262326473" height="62.798503398755386" fill="#ffffff" stroke="transparent" data-fill-palette-color="accent" x="0" fill-opacity="0.5"></rect><rect width="17.164924262326473" height="62.798503398755386" fill="#ffffff" stroke="transparent" data-fill-palette-color="accent" x="20.932834466251794" fill-opacity="0.75"></rect><rect width="17.164924262326473" height="62.798503398755386" fill="#ffffff" stroke="transparent" data-fill-palette-color="accent" x="41.86566893250359" fill-opacity="1"></rect></g></svg></g></svg></g><defs></defs></svg><rect width="395.52" height="52.95444581681345" fill="none" stroke="none" visibility="hidden"></rect></g></svg></g></svg>