<?xml version="1.0" encoding="UTF-8" standalone="no"?><svg xmlns="http://www.w3.org/2000/svg" xmlns:xlink="http://www.w3.org/1999/xlink" contentStyleType="text/css" height="603px" preserveAspectRatio="none" style="width:1485px;height:603px;background:#FFFFFF;" version="1.1" viewBox="0 0 1485 603" width="1485px" zoomAndPan="magnify"><defs/><g><rect fill="#DDDDDD" height="591.2188" style="stroke:#181818;stroke-width:0.5;" width="940" x="293" y="6"/><text fill="#000000" font-family="sans-serif" font-size="20" font-weight="bold" lengthAdjust="spacing" textLength="189" x="668.5" y="24.5645">«container (C4)»</text><text fill="#000000" font-family="sans-serif" font-size="20" font-weight="bold" lengthAdjust="spacing" textLength="156" x="685" y="47.8457">Visualization)</text><rect fill="#FFFFE0" height="591.2188" style="stroke:#181818;stroke-width:0.5;" width="209" x="1270" y="6"/><text fill="#000000" font-family="sans-serif" font-size="20" font-weight="bold" lengthAdjust="spacing" textLength="189" x="1280" y="24.5645">«container (C4)»</text><text fill="#000000" font-family="sans-serif" font-size="20" font-weight="bold" lengthAdjust="spacing" textLength="193" x="1278" y="47.8457">MD Management</text><rect fill="#FFFFFF" height="364.8125" style="stroke:#181818;stroke-width:1.0;" width="10" x="74.5" y="128.125"/><rect fill="#FFFFFF" height="335.5313" style="stroke:#181818;stroke-width:1.0;" width="10" x="392.5" y="157.4063"/><rect fill="#FFFFFF" height="260.9688" style="stroke:#181818;stroke-width:1.0;" width="10" x="603.5" y="194.6875"/><rect fill="#FFFFFF" height="186.4063" style="stroke:#181818;stroke-width:1.0;" width="10" x="863.5" y="231.9688"/><rect fill="#FFFFFF" height="111.8438" style="stroke:#181818;stroke-width:1.0;" width="10" x="1123.5" y="269.25"/><rect fill="#FFFFFF" height="37.2813" style="stroke:#181818;stroke-width:1.0;" width="10" x="1369.5" y="306.5313"/><line style="stroke:#181818;stroke-width:0.5;stroke-dasharray:5.0,5.0;" x1="79" x2="79" y1="118.125" y2="510.9375"/><line style="stroke:#181818;stroke-width:0.5;stroke-dasharray:5.0,5.0;" x1="397" x2="397" y1="118.125" y2="510.9375"/><line style="stroke:#181818;stroke-width:0.5;stroke-dasharray:5.0,5.0;" x1="608" x2="608" y1="118.125" y2="510.9375"/><line style="stroke:#181818;stroke-width:0.5;stroke-dasharray:5.0,5.0;" x1="868" x2="868" y1="118.125" y2="510.9375"/><line style="stroke:#181818;stroke-width:0.5;stroke-dasharray:5.0,5.0;" x1="1128" x2="1128" y1="118.125" y2="510.9375"/><line style="stroke:#181818;stroke-width:0.5;stroke-dasharray:5.0,5.0;" x1="1374" x2="1374" y1="118.125" y2="510.9375"/><text fill="#000000" font-family="sans-serif" font-size="20" lengthAdjust="spacing" textLength="143" x="5" y="113.4082">Fleet Manager</text><ellipse cx="79.5" cy="43.3438" fill="#E2E2F0" rx="8" ry="8" style="stroke:#181818;stroke-width:0.5;"/><path d="M79.5,51.3438 L79.5,78.3438 M66.5,59.3438 L92.5,59.3438 M79.5,78.3438 L66.5,93.3438 M79.5,78.3438 L92.5,93.3438 " fill="none" style="stroke:#181818;stroke-width:0.5;"/><text fill="#000000" font-family="sans-serif" font-size="20" lengthAdjust="spacing" textLength="143" x="5" y="528.502">Fleet Manager</text><ellipse cx="79.5" cy="541.7188" fill="#E2E2F0" rx="8" ry="8" style="stroke:#181818;stroke-width:0.5;"/><path d="M79.5,549.7188 L79.5,576.7188 M66.5,557.7188 L92.5,557.7188 M79.5,576.7188 L66.5,591.7188 M79.5,576.7188 L92.5,591.7188 " fill="none" style="stroke:#181818;stroke-width:0.5;"/><rect fill="#E2E2F0" height="60.5625" rx="2.5" ry="2.5" style="stroke:#181818;stroke-width:0.5;" width="201" x="297" y="56.5625"/><text fill="#000000" font-family="sans-serif" font-size="20" font-style="italic" lengthAdjust="spacing" textLength="187" x="304" y="82.127">«component (C4)»</text><text fill="#000000" font-family="sans-serif" font-size="20" lengthAdjust="spacing" textLength="144" x="325.5" y="105.4082">UI Component</text><rect fill="#E2E2F0" height="60.5625" rx="2.5" ry="2.5" style="stroke:#181818;stroke-width:0.5;" width="201" x="297" y="509.9375"/><text fill="#000000" font-family="sans-serif" font-size="20" font-style="italic" lengthAdjust="spacing" textLength="187" x="304" y="535.502">«component (C4)»</text><text fill="#000000" font-family="sans-serif" font-size="20" lengthAdjust="spacing" textLength="144" x="325.5" y="558.7832">UI Component</text><rect fill="#E2E2F0" height="60.5625" rx="2.5" ry="2.5" style="stroke:#181818;stroke-width:0.5;" width="201" x="508" y="56.5625"/><text fill="#000000" font-family="sans-serif" font-size="20" font-style="italic" lengthAdjust="spacing" textLength="187" x="515" y="82.127">«component (C4)»</text><text fill="#000000" font-family="sans-serif" font-size="20" lengthAdjust="spacing" textLength="73" x="572" y="105.4082">Module</text><rect fill="#E2E2F0" height="60.5625" rx="2.5" ry="2.5" style="stroke:#181818;stroke-width:0.5;" width="201" x="508" y="509.9375"/><text fill="#000000" font-family="sans-serif" font-size="20" font-style="italic" lengthAdjust="spacing" textLength="187" x="515" y="535.502">«component (C4)»</text><text fill="#000000" font-family="sans-serif" font-size="20" lengthAdjust="spacing" textLength="73" x="572" y="558.7832">Module</text><rect fill="#E2E2F0" height="60.5625" rx="2.5" ry="2.5" style="stroke:#181818;stroke-width:0.5;" width="201" x="768" y="56.5625"/><text fill="#000000" font-family="sans-serif" font-size="20" font-style="italic" lengthAdjust="spacing" textLength="187" x="775" y="82.127">«component (C4)»</text><text fill="#000000" font-family="sans-serif" font-size="20" lengthAdjust="spacing" textLength="73" x="832" y="105.4082">Service</text><rect fill="#E2E2F0" height="60.5625" rx="2.5" ry="2.5" style="stroke:#181818;stroke-width:0.5;" width="201" x="768" y="509.9375"/><text fill="#000000" font-family="sans-serif" font-size="20" font-style="italic" lengthAdjust="spacing" textLength="187" x="775" y="535.502">«component (C4)»</text><text fill="#000000" font-family="sans-serif" font-size="20" lengthAdjust="spacing" textLength="73" x="832" y="558.7832">Service</text><rect fill="#E2E2F0" height="60.5625" rx="2.5" ry="2.5" style="stroke:#181818;stroke-width:0.5;" width="201" x="1028" y="56.5625"/><text fill="#000000" font-family="sans-serif" font-size="20" font-style="italic" lengthAdjust="spacing" textLength="187" x="1035" y="82.127">«component (C4)»</text><text fill="#000000" font-family="sans-serif" font-size="20" lengthAdjust="spacing" textLength="51" x="1103" y="105.4082">HTTP</text><rect fill="#E2E2F0" height="60.5625" rx="2.5" ry="2.5" style="stroke:#181818;stroke-width:0.5;" width="201" x="1028" y="509.9375"/><text fill="#000000" font-family="sans-serif" font-size="20" font-style="italic" lengthAdjust="spacing" textLength="187" x="1035" y="535.502">«component (C4)»</text><text fill="#000000" font-family="sans-serif" font-size="20" lengthAdjust="spacing" textLength="51" x="1103" y="558.7832">HTTP</text><rect fill="#E2E2F0" height="60.5625" rx="2.5" ry="2.5" style="stroke:#181818;stroke-width:0.5;" width="201" x="1274" y="56.5625"/><text fill="#000000" font-family="sans-serif" font-size="20" font-style="italic" lengthAdjust="spacing" textLength="187" x="1281" y="82.127">«component (C4)»</text><text fill="#000000" font-family="sans-serif" font-size="20" lengthAdjust="spacing" textLength="132" x="1308.5" y="105.4082">Device Route</text><rect fill="#E2E2F0" height="60.5625" rx="2.5" ry="2.5" style="stroke:#181818;stroke-width:0.5;" width="201" x="1274" y="509.9375"/><text fill="#000000" font-family="sans-serif" font-size="20" font-style="italic" lengthAdjust="spacing" textLength="187" x="1281" y="535.502">«component (C4)»</text><text fill="#000000" font-family="sans-serif" font-size="20" lengthAdjust="spacing" textLength="132" x="1308.5" y="558.7832">Device Route</text><rect fill="#FFFFFF" height="364.8125" style="stroke:#181818;stroke-width:1.0;" width="10" x="74.5" y="128.125"/><rect fill="#FFFFFF" height="335.5313" style="stroke:#181818;stroke-width:1.0;" width="10" x="392.5" y="157.4063"/><rect fill="#FFFFFF" height="260.9688" style="stroke:#181818;stroke-width:1.0;" width="10" x="603.5" y="194.6875"/><rect fill="#FFFFFF" height="186.4063" style="stroke:#181818;stroke-width:1.0;" width="10" x="863.5" y="231.9688"/><rect fill="#FFFFFF" height="111.8438" style="stroke:#181818;stroke-width:1.0;" width="10" x="1123.5" y="269.25"/><rect fill="#FFFFFF" height="37.2813" style="stroke:#181818;stroke-width:1.0;" width="10" x="1369.5" y="306.5313"/><polygon fill="#181818" points="380.5,153.4063,390.5,157.4063,380.5,161.4063,384.5,157.4063" style="stroke:#181818;stroke-width:1.0;"/><line style="stroke:#181818;stroke-width:1.0;" x1="84.5" x2="386.5" y1="157.4063" y2="157.4063"/><text fill="#000000" font-family="sans-serif" font-size="20" font-weight="bold" lengthAdjust="spacing" textLength="14" x="91.5" y="150.6895">1</text><text fill="#000000" font-family="sans-serif" font-size="20" lengthAdjust="spacing" textLength="205" x="109.5" y="150.6895">asks to list all robots</text><polygon fill="#181818" points="591.5,190.6875,601.5,194.6875,591.5,198.6875,595.5,194.6875" style="stroke:#181818;stroke-width:1.0;"/><line style="stroke:#181818;stroke-width:1.0;" x1="402.5" x2="597.5" y1="194.6875" y2="194.6875"/><text fill="#000000" font-family="sans-serif" font-size="20" font-weight="bold" lengthAdjust="spacing" textLength="14" x="409.5" y="187.9707">2</text><text fill="#000000" font-family="sans-serif" font-size="20" lengthAdjust="spacing" textLength="30" x="427.5" y="187.9707">list</text><polygon fill="#181818" points="851.5,227.9688,861.5,231.9688,851.5,235.9688,855.5,231.9688" style="stroke:#181818;stroke-width:1.0;"/><line style="stroke:#181818;stroke-width:1.0;" x1="613.5" x2="857.5" y1="231.9688" y2="231.9688"/><text fill="#000000" font-family="sans-serif" font-size="20" font-weight="bold" lengthAdjust="spacing" textLength="14" x="620.5" y="225.252">3</text><text fill="#000000" font-family="sans-serif" font-size="20" lengthAdjust="spacing" textLength="213" x="638.5" y="225.252">get all devices robots</text><polygon fill="#181818" points="1111.5,265.25,1121.5,269.25,1111.5,273.25,1115.5,269.25" style="stroke:#181818;stroke-width:1.0;"/><line style="stroke:#181818;stroke-width:1.0;" x1="873.5" x2="1117.5" y1="269.25" y2="269.25"/><text fill="#000000" font-family="sans-serif" font-size="20" font-weight="bold" lengthAdjust="spacing" textLength="14" x="880.5" y="262.5332">4</text><text fill="#000000" font-family="sans-serif" font-size="20" lengthAdjust="spacing" textLength="213" x="898.5" y="262.5332">get('/devices/robots')</text><polygon fill="#181818" points="1357.5,302.5313,1367.5,306.5313,1357.5,310.5313,1361.5,306.5313" style="stroke:#181818;stroke-width:1.0;"/><line style="stroke:#181818;stroke-width:1.0;" x1="1133.5" x2="1363.5" y1="306.5313" y2="306.5313"/><text fill="#000000" font-family="sans-serif" font-size="20" font-weight="bold" lengthAdjust="spacing" textLength="14" x="1140.5" y="299.8145">5</text><text fill="#000000" font-family="sans-serif" font-size="20" lengthAdjust="spacing" textLength="199" x="1158.5" y="299.8145">GET /devices/robots</text><polygon fill="#181818" points="1144.5,339.8125,1134.5,343.8125,1144.5,347.8125,1140.5,343.8125" style="stroke:#181818;stroke-width:1.0;"/><line style="stroke:#181818;stroke-width:1.0;stroke-dasharray:2.0,2.0;" x1="1138.5" x2="1373.5" y1="343.8125" y2="343.8125"/><text fill="#000000" font-family="sans-serif" font-size="20" font-weight="bold" lengthAdjust="spacing" textLength="14" x="1150.5" y="337.0957">6</text><text fill="#000000" font-family="sans-serif" font-size="20" lengthAdjust="spacing" textLength="124" x="1168.5" y="337.0957">200 (robots)</text><polygon fill="#181818" points="884.5,377.0938,874.5,381.0938,884.5,385.0938,880.5,381.0938" style="stroke:#181818;stroke-width:1.0;"/><line style="stroke:#181818;stroke-width:1.0;stroke-dasharray:2.0,2.0;" x1="878.5" x2="1127.5" y1="381.0938" y2="381.0938"/><text fill="#000000" font-family="sans-serif" font-size="20" font-weight="bold" lengthAdjust="spacing" textLength="14" x="890.5" y="374.377">7</text><text fill="#000000" font-family="sans-serif" font-size="20" lengthAdjust="spacing" textLength="63" x="908.5" y="374.377">robots</text><polygon fill="#181818" points="624.5,414.375,614.5,418.375,624.5,422.375,620.5,418.375" style="stroke:#181818;stroke-width:1.0;"/><line style="stroke:#181818;stroke-width:1.0;stroke-dasharray:2.0,2.0;" x1="618.5" x2="867.5" y1="418.375" y2="418.375"/><text fill="#000000" font-family="sans-serif" font-size="20" font-weight="bold" lengthAdjust="spacing" textLength="14" x="630.5" y="411.6582">8</text><text fill="#000000" font-family="sans-serif" font-size="20" lengthAdjust="spacing" textLength="63" x="648.5" y="411.6582">robots</text><polygon fill="#181818" points="413.5,451.6563,403.5,455.6563,413.5,459.6563,409.5,455.6563" style="stroke:#181818;stroke-width:1.0;"/><line style="stroke:#181818;stroke-width:1.0;stroke-dasharray:2.0,2.0;" x1="407.5" x2="607.5" y1="455.6563" y2="455.6563"/><text fill="#000000" font-family="sans-serif" font-size="20" font-weight="bold" lengthAdjust="spacing" textLength="14" x="419.5" y="448.9395">9</text><text fill="#000000" font-family="sans-serif" font-size="20" lengthAdjust="spacing" textLength="63" x="437.5" y="448.9395">robots</text><polygon fill="#181818" points="90.5,488.9375,80.5,492.9375,90.5,496.9375,86.5,492.9375" style="stroke:#181818;stroke-width:1.0;"/><line style="stroke:#181818;stroke-width:1.0;stroke-dasharray:2.0,2.0;" x1="84.5" x2="396.5" y1="492.9375" y2="492.9375"/><text fill="#000000" font-family="sans-serif" font-size="20" font-weight="bold" lengthAdjust="spacing" textLength="28" x="96.5" y="486.2207">10</text><text fill="#000000" font-family="sans-serif" font-size="20" lengthAdjust="spacing" textLength="252" x="128.5" y="486.2207">returns all devices robots</text><!--SRC=[ZP51J-Cm48Nl_XMZSA0zL5I8KrL5GWq5929Mj8k4j1StcUrQTUpAdh28NxzZEsspBI0kaHr_xytC6xzHPYkTRBIjDbX3ZRzbgsbk3ItKEyBbMCYMh6cR5JhXTpGKYLlY6rrhjJOD6ffEA_wYotD81o5aHTR1l0Jf8PjhH89I6hb6bucLVOECDLnAAeCE1hEhOPx_Ci_AjrAhTqdAcc5si1K0N9rKfRRI4CpA7z7tvptCRBErXh4CWcDtwHoFPELZ4MMbhLkDtn0idfwZO87kLLNVKTmjbwcrSFYGHrC31o0-Jw4ikgYQtLXT2cSFQls7Nb1h-_Tuj28bNM1e59viI_XrULwGUfM4l2CXU4-ZFCOwOPkD1xAWbIUGMeEpAql-861CYC2o94GwIUW1u9yYFF1xI702QqnETUpEdpWo9GB9WXXWL0pEBph-8l7dmrxNWHCYqg4D7dy2jpTBEDBqcYfA4R3HeSZbU0o3n0r5ZV-XdVL-XCwkHwKEOjlx84wfC5hCOf_lAHFo2YkOZaOx1gbrndyKMayN5z6xyoR_0G00]--></g></svg>