<?xml version="1.0" encoding="UTF-8" standalone="no"?><svg xmlns="http://www.w3.org/2000/svg" xmlns:xlink="http://www.w3.org/1999/xlink" contentStyleType="text/css" height="601px" preserveAspectRatio="none" style="width:1478px;height:601px;background:#FFFFFF;" version="1.1" viewBox="0 0 1478 601" width="1478px" zoomAndPan="magnify"><defs/><g><rect fill="#DDDDDD" height="589.5" style="stroke:#181818;stroke-width:0.5;" width="653" x="812.5" y="6"/><text fill="#000000" font-family="sans-serif" font-size="20" font-weight="bold" lengthAdjust="spacing" textLength="162" x="1058" y="24.5645">«system (C4)»</text><text fill="#000000" font-family="sans-serif" font-size="20" font-weight="bold" lengthAdjust="spacing" textLength="142" x="1068" y="47.8457">RobDroneGo</text><rect fill="#FFFFFF" height="371.0938" style="stroke:#181818;stroke-width:1.0;" width="10" x="105.5" y="128.125"/><rect fill="#FFFFFF" height="37.2813" style="stroke:#181818;stroke-width:1.0;" width="10" x="902.5" y="157.4063"/><rect fill="#FFFFFF" height="252.25" style="stroke:#181818;stroke-width:1.0;" width="10" x="902.5" y="231.9688"/><rect fill="#FFFFFF" height="77.8438" style="stroke:#181818;stroke-width:1.0;" width="10" x="1364.5" y="269.25"/><rect fill="#FFFFFF" height="62.5625" style="stroke:#181818;stroke-width:1.0;" width="10" x="1364.5" y="384.375"/><rect fill="none" height="207.9688" style="stroke:#000000;stroke-width:1.5;" width="1461.5" x="10" y="284.25"/><line style="stroke:#181818;stroke-width:0.5;stroke-dasharray:5.0,5.0;" x1="110" x2="110" y1="118.125" y2="509.2188"/><line style="stroke:#181818;stroke-width:0.5;stroke-dasharray:5.0,5.0;" x1="907.5" x2="907.5" y1="118.125" y2="509.2188"/><line style="stroke:#181818;stroke-width:0.5;stroke-dasharray:5.0,5.0;" x1="1369.5" x2="1369.5" y1="118.125" y2="509.2188"/><text fill="#000000" font-family="sans-serif" font-size="20" lengthAdjust="spacing" textLength="175" x="20" y="113.4082">Campus Manager</text><ellipse cx="110.5" cy="43.3438" fill="#E2E2F0" rx="8" ry="8" style="stroke:#181818;stroke-width:0.5;"/><path d="M110.5,51.3438 L110.5,78.3438 M97.5,59.3438 L123.5,59.3438 M110.5,78.3438 L97.5,93.3438 M110.5,78.3438 L123.5,93.3438 " fill="none" style="stroke:#181818;stroke-width:0.5;"/><text fill="#000000" font-family="sans-serif" font-size="20" lengthAdjust="spacing" textLength="175" x="20" y="526.7832">Campus Manager</text><ellipse cx="110.5" cy="540" fill="#E2E2F0" rx="8" ry="8" style="stroke:#181818;stroke-width:0.5;"/><path d="M110.5,548 L110.5,575 M97.5,556 L123.5,556 M110.5,575 L97.5,590 M110.5,575 L123.5,590 " fill="none" style="stroke:#181818;stroke-width:0.5;"/><rect fill="#E2E2F0" height="60.5625" rx="2.5" ry="2.5" style="stroke:#181818;stroke-width:0.5;" width="182" x="816.5" y="56.5625"/><text fill="#000000" font-family="sans-serif" font-size="20" font-style="italic" lengthAdjust="spacing" textLength="168" x="823.5" y="82.127">«container (C4)»</text><text fill="#000000" font-family="sans-serif" font-size="20" lengthAdjust="spacing" textLength="129" x="843" y="105.4082">Visualization</text><rect fill="#E2E2F0" height="60.5625" rx="2.5" ry="2.5" style="stroke:#181818;stroke-width:0.5;" width="182" x="816.5" y="508.2188"/><text fill="#000000" font-family="sans-serif" font-size="20" font-style="italic" lengthAdjust="spacing" textLength="168" x="823.5" y="533.7832">«container (C4)»</text><text fill="#000000" font-family="sans-serif" font-size="20" lengthAdjust="spacing" textLength="129" x="843" y="557.0645">Visualization</text><rect fill="#E2E2F0" height="60.5625" rx="2.5" ry="2.5" style="stroke:#181818;stroke-width:0.5;" width="184" x="1277.5" y="56.5625"/><text fill="#000000" font-family="sans-serif" font-size="20" font-style="italic" lengthAdjust="spacing" textLength="168" x="1285.5" y="82.127">«container (C4)»</text><text fill="#000000" font-family="sans-serif" font-size="20" lengthAdjust="spacing" textLength="170" x="1284.5" y="105.4082">MD Management</text><rect fill="#E2E2F0" height="60.5625" rx="2.5" ry="2.5" style="stroke:#181818;stroke-width:0.5;" width="184" x="1277.5" y="508.2188"/><text fill="#000000" font-family="sans-serif" font-size="20" font-style="italic" lengthAdjust="spacing" textLength="168" x="1285.5" y="533.7832">«container (C4)»</text><text fill="#000000" font-family="sans-serif" font-size="20" lengthAdjust="spacing" textLength="170" x="1284.5" y="557.0645">MD Management</text><rect fill="#FFFFFF" height="371.0938" style="stroke:#181818;stroke-width:1.0;" width="10" x="105.5" y="128.125"/><rect fill="#FFFFFF" height="37.2813" style="stroke:#181818;stroke-width:1.0;" width="10" x="902.5" y="157.4063"/><rect fill="#FFFFFF" height="252.25" style="stroke:#181818;stroke-width:1.0;" width="10" x="902.5" y="231.9688"/><rect fill="#FFFFFF" height="77.8438" style="stroke:#181818;stroke-width:1.0;" width="10" x="1364.5" y="269.25"/><rect fill="#FFFFFF" height="62.5625" style="stroke:#181818;stroke-width:1.0;" width="10" x="1364.5" y="384.375"/><polygon fill="#181818" points="890.5,153.4063,900.5,157.4063,890.5,161.4063,894.5,157.4063" style="stroke:#181818;stroke-width:1.0;"/><line style="stroke:#181818;stroke-width:1.0;" x1="115.5" x2="896.5" y1="157.4063" y2="157.4063"/><text fill="#000000" font-family="sans-serif" font-size="20" font-weight="bold" lengthAdjust="spacing" textLength="14" x="122.5" y="150.6895">1</text><text fill="#000000" font-family="sans-serif" font-size="20" lengthAdjust="spacing" textLength="405" x="140.5" y="150.6895">wants to create an elevator in a building</text><polygon fill="#181818" points="126.5,190.6875,116.5,194.6875,126.5,198.6875,122.5,194.6875" style="stroke:#181818;stroke-width:1.0;"/><line style="stroke:#181818;stroke-width:1.0;stroke-dasharray:2.0,2.0;" x1="120.5" x2="906.5" y1="194.6875" y2="194.6875"/><text fill="#000000" font-family="sans-serif" font-size="20" font-weight="bold" lengthAdjust="spacing" textLength="14" x="132.5" y="187.9707">2</text><text fill="#000000" font-family="sans-serif" font-size="20" lengthAdjust="spacing" textLength="745" x="150.5" y="187.9707">asks for the code, model, brand, serial number, description &amp; floors served</text><polygon fill="#181818" points="890.5,227.9688,900.5,231.9688,890.5,235.9688,894.5,231.9688" style="stroke:#181818;stroke-width:1.0;"/><line style="stroke:#181818;stroke-width:1.0;" x1="115.5" x2="896.5" y1="231.9688" y2="231.9688"/><text fill="#000000" font-family="sans-serif" font-size="20" font-weight="bold" lengthAdjust="spacing" textLength="14" x="122.5" y="225.252">3</text><text fill="#000000" font-family="sans-serif" font-size="20" lengthAdjust="spacing" textLength="157" x="140.5" y="225.252">inserts the data</text><polygon fill="#181818" points="1352.5,265.25,1362.5,269.25,1352.5,273.25,1356.5,269.25" style="stroke:#181818;stroke-width:1.0;"/><line style="stroke:#181818;stroke-width:1.0;" x1="912.5" x2="1358.5" y1="269.25" y2="269.25"/><text fill="#000000" font-family="sans-serif" font-size="20" font-weight="bold" lengthAdjust="spacing" textLength="14" x="919.5" y="262.5332">4</text><text fill="#000000" font-family="sans-serif" font-size="20" lengthAdjust="spacing" textLength="415" x="937.5" y="262.5332">POST /buildings/{code}/elevators {data}</text><path d="M10,284.25 L86,284.25 L86,299.5313 L76,309.5313 L10,309.5313 L10,284.25 " fill="#EEEEEE" style="stroke:#000000;stroke-width:1.5;"/><rect fill="none" height="207.9688" style="stroke:#000000;stroke-width:1.5;" width="1461.5" x="10" y="284.25"/><text fill="#000000" font-family="sans-serif" font-size="20" font-weight="bold" lengthAdjust="spacing" textLength="31" x="25" y="303.8145">alt</text><text fill="#000000" font-family="sans-serif" font-size="20" font-weight="bold" lengthAdjust="spacing" textLength="309" x="101" y="304.8145">[a new elevator is created]</text><polygon fill="#181818" points="923.5,343.0938,913.5,347.0938,923.5,351.0938,919.5,347.0938" style="stroke:#181818;stroke-width:1.0;"/><line style="stroke:#181818;stroke-width:1.0;stroke-dasharray:2.0,2.0;" x1="917.5" x2="1368.5" y1="347.0938" y2="347.0938"/><text fill="#000000" font-family="sans-serif" font-size="20" font-weight="bold" lengthAdjust="spacing" textLength="14" x="929.5" y="340.377">5</text><text fill="#000000" font-family="sans-serif" font-size="20" lengthAdjust="spacing" textLength="124" x="947.5" y="340.377">201 Created</text><polygon fill="#181818" points="126.5,380.375,116.5,384.375,126.5,388.375,122.5,384.375" style="stroke:#181818;stroke-width:1.0;"/><line style="stroke:#181818;stroke-width:1.0;stroke-dasharray:2.0,2.0;" x1="120.5" x2="901.5" y1="384.375" y2="384.375"/><text fill="#000000" font-family="sans-serif" font-size="20" font-weight="bold" lengthAdjust="spacing" textLength="14" x="132.5" y="377.6582">6</text><text fill="#000000" font-family="sans-serif" font-size="20" lengthAdjust="spacing" textLength="364" x="150.5" y="377.6582">informs the success of the operation</text><line style="stroke:#000000;stroke-width:1.0;stroke-dasharray:2.0,2.0;" x1="10" x2="1471.5" y1="393.375" y2="393.375"/><text fill="#000000" font-family="sans-serif" font-size="20" font-weight="bold" lengthAdjust="spacing" textLength="516" x="15" y="411.9395">[there is an evelator with the specified code]</text><polygon fill="#181818" points="923.5,442.9375,913.5,446.9375,923.5,450.9375,919.5,446.9375" style="stroke:#181818;stroke-width:1.0;"/><line style="stroke:#181818;stroke-width:1.0;stroke-dasharray:2.0,2.0;" x1="917.5" x2="1368.5" y1="446.9375" y2="446.9375"/><text fill="#000000" font-family="sans-serif" font-size="20" font-weight="bold" lengthAdjust="spacing" textLength="14" x="929.5" y="440.2207">7</text><text fill="#000000" font-family="sans-serif" font-size="20" lengthAdjust="spacing" textLength="172" x="947.5" y="440.2207">400 Bad Request</text><polygon fill="#181818" points="126.5,480.2188,116.5,484.2188,126.5,488.2188,122.5,484.2188" style="stroke:#181818;stroke-width:1.0;"/><line style="stroke:#181818;stroke-width:1.0;stroke-dasharray:2.0,2.0;" x1="120.5" x2="906.5" y1="484.2188" y2="484.2188"/><text fill="#000000" font-family="sans-serif" font-size="20" font-weight="bold" lengthAdjust="spacing" textLength="14" x="132.5" y="477.502">8</text><text fill="#000000" font-family="sans-serif" font-size="20" lengthAdjust="spacing" textLength="571" x="150.5" y="477.502">shows error message "An elevator with that code exists."</text><!--SRC=[XLBDRXCn4BxxAKPxG20b95GzLL6aDX6eXmZK7qvSPjUJn8hNNZpU9BJg4_48tFfaZBqDsG1IBzuVV_Fzp0nlZ6imO6rzjI4DcfROslZHktXh7WZEnWhRw5rRbnGK7z0mxt1tj8-NrgnSJIvE9fMS5APJw5wKmYhw0BC584Cnmxff6HReS4MXKAhqUoYUV_8FZbJ3szdvk-TVtzoDB-V1E_ha2pXIAW1HZgOo3Re8zzUPyglX5grvm6Yyot0nZiPHo7J_b2tckKmUdOja-xzbv3I8lPp0R36IX51AWWodIVi2TaB743rKWT8rEY1BWfIynW52sHghZLiT6UwlCyDaEEmea3SCIy77DK7bDGsWbjCEe0pez02OWa4BNVC7CXkkWcbIL7W3I-jzu8JPabQQ_fOv63LE8CcgY6YCUEf780AKVbp0by-tTp0wsERHOxBqD3gaOdXCvK_7-iLSscEZP7MqwwNdbvveQRxmfxnPu6py0MP_RdgE4n50lpN6IL_gpZItLKNCu9VvqpSKyhWLMQRqAr3IJ0FOaiqMTYQkkzg6AhCqijWfZ8ZqDK_TdO_7S8KQRkXxInnVSyXhlsEW44Ik5dkoJ51SzfRWnGF6B0sqDnpvVN7AAoEGJLFzyScU_GO0]--></g></svg>