<?xml version="1.0" encoding="UTF-8" standalone="no"?><svg xmlns="http://www.w3.org/2000/svg" xmlns:xlink="http://www.w3.org/1999/xlink" contentStyleType="text/css" height="510px" preserveAspectRatio="none" style="width:930px;height:510px;background:#FFFFFF;" version="1.1" viewBox="0 0 930 510" width="930px" zoomAndPan="magnify"><defs/><g><rect fill="#DDDDDD" height="498.9518" style="stroke:#181818;stroke-width:0.5;" width="410.5" x="507" y="6"/><text fill="#000000" font-family="sans-serif" font-size="13" font-weight="bold" lengthAdjust="spacing" textLength="88" x="668.25" y="19.897">«system (C4)»</text><text fill="#000000" font-family="sans-serif" font-size="13" font-weight="bold" lengthAdjust="spacing" textLength="83" x="670.75" y="37.603">RobDroneGo</text><rect fill="#FFFFFF" height="304.336" style="stroke:#181818;stroke-width:1.0;" width="10" x="78" y="108.5479"/><rect fill="#FFFFFF" height="31.706" style="stroke:#181818;stroke-width:1.0;" width="10" x="564" y="132.2539"/><rect fill="#FFFFFF" height="202.218" style="stroke:#181818;stroke-width:1.0;" width="10" x="564" y="195.6659"/><rect fill="#FFFFFF" height="58.412" style="stroke:#181818;stroke-width:1.0;" width="10" x="843" y="227.3719"/><rect fill="#FFFFFF" height="48.6879" style="stroke:#181818;stroke-width:1.0;" width="10" x="843" y="317.49"/><rect fill="none" height="163.512" style="stroke:#000000;stroke-width:1.5;" width="913.5" x="10" y="242.3719"/><line style="stroke:#181818;stroke-width:0.5;stroke-dasharray:5.0,5.0;" x1="83" x2="83" y1="98.5479" y2="422.8839"/><line style="stroke:#181818;stroke-width:0.5;stroke-dasharray:5.0,5.0;" x1="569" x2="569" y1="98.5479" y2="422.8839"/><line style="stroke:#181818;stroke-width:0.5;stroke-dasharray:5.0,5.0;" x1="847.5" x2="847.5" y1="98.5479" y2="422.8839"/><text fill="#000000" font-family="sans-serif" font-size="14" lengthAdjust="spacing" textLength="120" x="20" y="94.4459">Campus Manager</text><ellipse cx="83" cy="27.9799" fill="#E2E2F0" rx="8" ry="8" style="stroke:#181818;stroke-width:0.5;"/><path d="M83,35.9799 L83,62.9799 M70,43.9799 L96,43.9799 M83,62.9799 L70,77.9799 M83,62.9799 L96,77.9799 " fill="none" style="stroke:#181818;stroke-width:0.5;"/><text fill="#000000" font-family="sans-serif" font-size="14" lengthAdjust="spacing" textLength="120" x="20" y="436.8498">Campus Manager</text><ellipse cx="83" cy="449.4518" fill="#E2E2F0" rx="8" ry="8" style="stroke:#181818;stroke-width:0.5;"/><path d="M83,457.4518 L83,484.4518 M70,465.4518 L96,465.4518 M83,484.4518 L70,499.4518 M83,484.4518 L96,499.4518 " fill="none" style="stroke:#181818;stroke-width:0.5;"/><rect fill="#E2E2F0" height="52.1358" rx="2.5" ry="2.5" style="stroke:#181818;stroke-width:0.5;" width="116" x="511" y="45.412"/><text fill="#000000" font-family="sans-serif" font-size="14" font-style="italic" lengthAdjust="spacing" textLength="102" x="518" y="67.378">«container (C4)»</text><text fill="#000000" font-family="sans-serif" font-size="14" lengthAdjust="spacing" textLength="85" x="526.5" y="86.4459">Visualization</text><rect fill="#E2E2F0" height="52.1358" rx="2.5" ry="2.5" style="stroke:#181818;stroke-width:0.5;" width="116" x="511" y="421.8839"/><text fill="#000000" font-family="sans-serif" font-size="14" font-style="italic" lengthAdjust="spacing" textLength="102" x="518" y="443.8498">«container (C4)»</text><text fill="#000000" font-family="sans-serif" font-size="14" lengthAdjust="spacing" textLength="85" x="526.5" y="462.9178">Visualization</text><rect fill="#E2E2F0" height="52.1358" rx="2.5" ry="2.5" style="stroke:#181818;stroke-width:0.5;" width="131" x="782.5" y="45.412"/><text fill="#000000" font-family="sans-serif" font-size="14" font-style="italic" lengthAdjust="spacing" textLength="102" x="797" y="67.378">«container (C4)»</text><text fill="#000000" font-family="sans-serif" font-size="14" lengthAdjust="spacing" textLength="117" x="789.5" y="86.4459">MD Management</text><rect fill="#E2E2F0" height="52.1358" rx="2.5" ry="2.5" style="stroke:#181818;stroke-width:0.5;" width="131" x="782.5" y="421.8839"/><text fill="#000000" font-family="sans-serif" font-size="14" font-style="italic" lengthAdjust="spacing" textLength="102" x="797" y="443.8498">«container (C4)»</text><text fill="#000000" font-family="sans-serif" font-size="14" lengthAdjust="spacing" textLength="117" x="789.5" y="462.9178">MD Management</text><rect fill="#FFFFFF" height="304.336" style="stroke:#181818;stroke-width:1.0;" width="10" x="78" y="108.5479"/><rect fill="#FFFFFF" height="31.706" style="stroke:#181818;stroke-width:1.0;" width="10" x="564" y="132.2539"/><rect fill="#FFFFFF" height="202.218" style="stroke:#181818;stroke-width:1.0;" width="10" x="564" y="195.6659"/><rect fill="#FFFFFF" height="58.412" style="stroke:#181818;stroke-width:1.0;" width="10" x="843" y="227.3719"/><rect fill="#FFFFFF" height="48.6879" style="stroke:#181818;stroke-width:1.0;" width="10" x="843" y="317.49"/><polygon fill="#181818" points="552,128.2539,562,132.2539,552,136.2539,556,132.2539" style="stroke:#181818;stroke-width:1.0;"/><line style="stroke:#181818;stroke-width:1.0;" x1="88" x2="558" y1="132.2539" y2="132.2539"/><text fill="#000000" font-family="sans-serif" font-size="13" font-weight="bold" lengthAdjust="spacing" textLength="7" x="95" y="126.4449">1</text><text fill="#000000" font-family="sans-serif" font-size="13" lengthAdjust="spacing" textLength="238" x="106" y="126.4449">wants to create an elevator in a building</text><polygon fill="#181818" points="99,159.9599,89,163.9599,99,167.9599,95,163.9599" style="stroke:#181818;stroke-width:1.0;"/><line style="stroke:#181818;stroke-width:1.0;stroke-dasharray:2.0,2.0;" x1="93" x2="568" y1="163.9599" y2="163.9599"/><text fill="#000000" font-family="sans-serif" font-size="13" font-weight="bold" lengthAdjust="spacing" textLength="7" x="105" y="158.1509">2</text><text fill="#000000" font-family="sans-serif" font-size="13" lengthAdjust="spacing" textLength="441" x="116" y="158.1509">asks for the code, model, brand, serial number, description &amp; floors served</text><polygon fill="#181818" points="552,191.6659,562,195.6659,552,199.6659,556,195.6659" style="stroke:#181818;stroke-width:1.0;"/><line style="stroke:#181818;stroke-width:1.0;" x1="88" x2="558" y1="195.6659" y2="195.6659"/><text fill="#000000" font-family="sans-serif" font-size="13" font-weight="bold" lengthAdjust="spacing" textLength="7" x="95" y="189.8569">3</text><text fill="#000000" font-family="sans-serif" font-size="13" lengthAdjust="spacing" textLength="93" x="106" y="189.8569">inserts the data</text><polygon fill="#181818" points="831,223.3719,841,227.3719,831,231.3719,835,227.3719" style="stroke:#181818;stroke-width:1.0;"/><line style="stroke:#181818;stroke-width:1.0;" x1="574" x2="837" y1="227.3719" y2="227.3719"/><text fill="#000000" font-family="sans-serif" font-size="13" font-weight="bold" lengthAdjust="spacing" textLength="7" x="581" y="221.5629">4</text><text fill="#000000" font-family="sans-serif" font-size="13" lengthAdjust="spacing" textLength="239" x="592" y="221.5629">POST /buildings/{code}/elevators {data}</text><path d="M10,242.3719 L73,242.3719 L73,252.0779 L63,262.0779 L10,262.0779 L10,242.3719 " fill="#EEEEEE" style="stroke:#000000;stroke-width:1.5;"/><rect fill="none" height="163.512" style="stroke:#000000;stroke-width:1.5;" width="913.5" x="10" y="242.3719"/><text fill="#000000" font-family="sans-serif" font-size="13" font-weight="bold" lengthAdjust="spacing" textLength="18" x="25" y="257.2689">alt</text><text fill="#000000" font-family="sans-serif" font-size="11" font-weight="bold" lengthAdjust="spacing" textLength="149" x="88" y="256.1308">[a new elevator is created]</text><polygon fill="#181818" points="585,281.784,575,285.784,585,289.784,581,285.784" style="stroke:#181818;stroke-width:1.0;"/><line style="stroke:#181818;stroke-width:1.0;stroke-dasharray:2.0,2.0;" x1="579" x2="847" y1="285.784" y2="285.784"/><text fill="#000000" font-family="sans-serif" font-size="13" font-weight="bold" lengthAdjust="spacing" textLength="7" x="591" y="279.975">5</text><text fill="#000000" font-family="sans-serif" font-size="13" lengthAdjust="spacing" textLength="71" x="602" y="279.975">201 Created</text><polygon fill="#181818" points="99,313.49,89,317.49,99,321.49,95,317.49" style="stroke:#181818;stroke-width:1.0;"/><line style="stroke:#181818;stroke-width:1.0;stroke-dasharray:2.0,2.0;" x1="93" x2="563" y1="317.49" y2="317.49"/><text fill="#000000" font-family="sans-serif" font-size="13" font-weight="bold" lengthAdjust="spacing" textLength="7" x="105" y="311.681">6</text><text fill="#000000" font-family="sans-serif" font-size="13" lengthAdjust="spacing" textLength="217" x="116" y="311.681">informs the success of the operation</text><line style="stroke:#000000;stroke-width:1.0;stroke-dasharray:2.0,2.0;" x1="10" x2="923.5" y1="326.49" y2="326.49"/><text fill="#000000" font-family="sans-serif" font-size="11" font-weight="bold" lengthAdjust="spacing" textLength="248" x="15" y="338.2489">[there is an evelator with the specified code]</text><polygon fill="#181818" points="585,362.1779,575,366.1779,585,370.1779,581,366.1779" style="stroke:#181818;stroke-width:1.0;"/><line style="stroke:#181818;stroke-width:1.0;stroke-dasharray:2.0,2.0;" x1="579" x2="847" y1="366.1779" y2="366.1779"/><text fill="#000000" font-family="sans-serif" font-size="13" font-weight="bold" lengthAdjust="spacing" textLength="7" x="591" y="360.3689">7</text><text fill="#000000" font-family="sans-serif" font-size="13" lengthAdjust="spacing" textLength="99" x="602" y="360.3689">400 Bad Request</text><polygon fill="#181818" points="99,393.8839,89,397.8839,99,401.8839,95,397.8839" style="stroke:#181818;stroke-width:1.0;"/><line style="stroke:#181818;stroke-width:1.0;stroke-dasharray:2.0,2.0;" x1="93" x2="568" y1="397.8839" y2="397.8839"/><text fill="#000000" font-family="sans-serif" font-size="13" font-weight="bold" lengthAdjust="spacing" textLength="7" x="105" y="392.0749">8</text><text fill="#000000" font-family="sans-serif" font-size="13" lengthAdjust="spacing" textLength="337" x="116" y="392.0749">shows error message "An elevator with that code exists."</text><!--MD5=[419f39ce7a449a55f37fc470b6edac99]
@startuml process-view
autonumber
skinparam DefaultTextAlignment<<center>> center

actor CM as "Campus Manager"

box "«system (C4)»\nRobDroneGo" <<center>>
  participant UI as "Visualization" <<container (C4)>>
  participant MD as "MD Management" <<container (C4)>>
end box

activate CM

CM -> UI : wants to create an elevator in a building
activate UI

CM <- - UI : asks for the code, model, brand, serial number, description & floors served
deactivate UI

CM -> UI : inserts the data
activate UI

UI -> MD : POST /buildings/{code}/elevators {data}
activate MD

alt a new elevator is created
  UI <- - MD : 201 Created
  deactivate MD

  CM <- - UI : informs the success of the operation
else there is an evelator with the specified code
  activate MD
  UI <- - MD : 400 Bad Request
  deactivate MD

  CM <- - UI : shows error message "An elevator with that code exists."
  deactivate UI
end

deactivate CM

@enduml

PlantUML version 1.2022.7(Mon Aug 22 18:01:30 WEST 2022)
(GPL source distribution)
Java Runtime: OpenJDK Runtime Environment
JVM: OpenJDK 64-Bit Server VM
Default Encoding: UTF-8
Language: en
Country: GB
--></g></svg>