<?xml version="1.0" encoding="UTF-8" standalone="no"?><svg xmlns="http://www.w3.org/2000/svg" xmlns:xlink="http://www.w3.org/1999/xlink" contentStyleType="text/css" height="1120px" preserveAspectRatio="none" style="width:1806px;height:1120px;background:#FFFFFF;" version="1.1" viewBox="0 0 1806 1120" width="1806px" zoomAndPan="magnify"><defs/><g><rect fill="#DDDDDD" height="1108.2393" style="stroke:#181818;stroke-width:0.5;" width="783.625" x="737.25" y="6"/><text fill="#000000" font-family="sans-serif" font-size="20" font-weight="bold" lengthAdjust="spacing" textLength="158.375" x="1049.875" y="27.38">«container (C4)»</text><text fill="#000000" font-family="sans-serif" font-size="20" font-weight="bold" lengthAdjust="spacing" textLength="124.125" x="1067" y="54.62">Visualization</text><rect fill="#FFFFE0" height="1108.2393" style="stroke:#181818;stroke-width:0.5;" width="185.5" x="1614.5" y="6"/><text fill="#000000" font-family="sans-serif" font-size="20" font-weight="bold" lengthAdjust="spacing" textLength="158.375" x="1628.0625" y="27.38">«container (C4)»</text><text fill="#000000" font-family="sans-serif" font-size="20" font-weight="bold" lengthAdjust="spacing" textLength="169.5" x="1622.5" y="54.62">MD Management</text><rect fill="#FFFFFF" height="870.0395" style="stroke:#181818;stroke-width:1.0;" width="10" x="100.5" y="143.9599"/><rect fill="#FFFFFF" height="41.24" style="stroke:#181818;stroke-width:1.0;" width="10" x="811.75" y="177.1999"/><rect fill="#FFFFFF" height="739.3195" style="stroke:#181818;stroke-width:1.0;" width="10" x="811.75" y="259.6798"/><rect fill="#FFFFFF" height="421.3997" style="stroke:#181818;stroke-width:1.0;" width="10" x="1035" y="300.9198"/><rect fill="#FFFFFF" height="28" style="stroke:#181818;stroke-width:1.0;" width="10" x="1040" y="350.1598"/><rect fill="#FFFFFF" height="194.1999" style="stroke:#181818;stroke-width:1.0;" width="10" x="1035" y="763.5595"/><rect fill="#FFFFFF" height="254.6798" style="stroke:#181818;stroke-width:1.0;" width="10" x="1252.625" y="426.3997"/><rect fill="#FFFFFF" height="152.9599" style="stroke:#181818;stroke-width:1.0;" width="10" x="1252.625" y="763.5595"/><rect fill="#FFFFFF" height="172.1999" style="stroke:#181818;stroke-width:1.0;" width="10" x="1443.875" y="467.6397"/><rect fill="#FFFFFF" height="111.7199" style="stroke:#181818;stroke-width:1.0;" width="10" x="1443.875" y="763.5595"/><rect fill="#FFFFFF" height="89.7199" style="stroke:#181818;stroke-width:1.0;" width="10" x="1702.25" y="508.8797"/><rect fill="#FFFFFF" height="70.4799" style="stroke:#181818;stroke-width:1.0;" width="10" x="1702.25" y="763.5595"/><rect fill="none" height="483.1197" style="stroke:#000000;stroke-width:1.5;" width="1775.25" x="10" y="523.8797"/><line style="stroke:#181818;stroke-width:0.5;stroke-dasharray:5.0,5.0;" x1="105" x2="105" y1="133.9599" y2="1023.9994"/><line style="stroke:#181818;stroke-width:0.5;stroke-dasharray:5.0,5.0;" x1="816.25" x2="816.25" y1="133.9599" y2="1023.9994"/><line style="stroke:#181818;stroke-width:0.5;stroke-dasharray:5.0,5.0;" x1="1040" x2="1040" y1="133.9599" y2="1023.9994"/><line style="stroke:#181818;stroke-width:0.5;stroke-dasharray:5.0,5.0;" x1="1257.625" x2="1257.625" y1="133.9599" y2="1023.9994"/><line style="stroke:#181818;stroke-width:0.5;stroke-dasharray:5.0,5.0;" x1="1448.875" x2="1448.875" y1="133.9599" y2="1023.9994"/><line style="stroke:#181818;stroke-width:0.5;stroke-dasharray:5.0,5.0;" x1="1707.25" x2="1707.25" y1="133.9599" y2="1023.9994"/><text fill="#000000" font-family="sans-serif" font-size="20" lengthAdjust="spacing" textLength="165" x="20" y="128.0999">Campus Manager</text><ellipse cx="105.5" cy="55.2199" fill="#E2E2F0" rx="8" ry="8" style="stroke:#181818;stroke-width:0.5;"/><path d="M105.5,63.2199 L105.5,90.2199 M92.5,71.2199 L118.5,71.2199 M105.5,90.2199 L92.5,105.2199 M105.5,90.2199 L118.5,105.2199 " fill="none" style="stroke:#181818;stroke-width:0.5;"/><text fill="#000000" font-family="sans-serif" font-size="20" lengthAdjust="spacing" textLength="165" x="20" y="1044.3794">Campus Manager</text><ellipse cx="105.5" cy="1058.7393" fill="#E2E2F0" rx="8" ry="8" style="stroke:#181818;stroke-width:0.5;"/><path d="M105.5,1066.7393 L105.5,1093.7393 M92.5,1074.7393 L118.5,1074.7393 M105.5,1093.7393 L92.5,1108.7393 M105.5,1093.7393 L118.5,1108.7393 " fill="none" style="stroke:#181818;stroke-width:0.5;"/><rect fill="#E2E2F0" height="68.4799" rx="2.5" ry="2.5" style="stroke:#181818;stroke-width:0.5;" width="151" x="741.25" y="64.4799"/><text fill="#000000" font-family="sans-serif" font-size="20" font-style="italic" lengthAdjust="spacing" textLength="122" x="755.75" y="92.8599">«component»</text><text fill="#000000" font-family="sans-serif" font-size="20" lengthAdjust="spacing" textLength="137" x="748.25" y="120.0999">UI Component</text><rect fill="#E2E2F0" height="68.4799" rx="2.5" ry="2.5" style="stroke:#181818;stroke-width:0.5;" width="151" x="741.25" y="1022.9994"/><text fill="#000000" font-family="sans-serif" font-size="20" font-style="italic" lengthAdjust="spacing" textLength="122" x="755.75" y="1051.3794">«component»</text><text fill="#000000" font-family="sans-serif" font-size="20" lengthAdjust="spacing" textLength="137" x="748.25" y="1078.6193">UI Component</text><rect fill="#E2E2F0" height="68.4799" rx="2.5" ry="2.5" style="stroke:#181818;stroke-width:0.5;" width="136" x="972" y="64.4799"/><text fill="#000000" font-family="sans-serif" font-size="20" font-style="italic" lengthAdjust="spacing" textLength="122" x="979" y="92.8599">«component»</text><text fill="#000000" font-family="sans-serif" font-size="20" lengthAdjust="spacing" textLength="70" x="1005" y="120.0999">Module</text><rect fill="#E2E2F0" height="68.4799" rx="2.5" ry="2.5" style="stroke:#181818;stroke-width:0.5;" width="136" x="972" y="1022.9994"/><text fill="#000000" font-family="sans-serif" font-size="20" font-style="italic" lengthAdjust="spacing" textLength="122" x="979" y="1051.3794">«component»</text><text fill="#000000" font-family="sans-serif" font-size="20" lengthAdjust="spacing" textLength="70" x="1005" y="1078.6193">Module</text><rect fill="#E2E2F0" height="68.4799" rx="2.5" ry="2.5" style="stroke:#181818;stroke-width:0.5;" width="136" x="1189.625" y="64.4799"/><text fill="#000000" font-family="sans-serif" font-size="20" font-style="italic" lengthAdjust="spacing" textLength="122" x="1196.625" y="92.8599">«component»</text><text fill="#000000" font-family="sans-serif" font-size="20" lengthAdjust="spacing" textLength="66" x="1224.625" y="120.0999">Service</text><rect fill="#E2E2F0" height="68.4799" rx="2.5" ry="2.5" style="stroke:#181818;stroke-width:0.5;" width="136" x="1189.625" y="1022.9994"/><text fill="#000000" font-family="sans-serif" font-size="20" font-style="italic" lengthAdjust="spacing" textLength="122" x="1196.625" y="1051.3794">«component»</text><text fill="#000000" font-family="sans-serif" font-size="20" lengthAdjust="spacing" textLength="66" x="1224.625" y="1078.6193">Service</text><rect fill="#E2E2F0" height="68.4799" rx="2.5" ry="2.5" style="stroke:#181818;stroke-width:0.5;" width="136" x="1380.875" y="64.4799"/><text fill="#000000" font-family="sans-serif" font-size="20" font-style="italic" lengthAdjust="spacing" textLength="122" x="1387.875" y="92.8599">«component»</text><text fill="#000000" font-family="sans-serif" font-size="20" lengthAdjust="spacing" textLength="49" x="1424.375" y="120.0999">HTTP</text><rect fill="#E2E2F0" height="68.4799" rx="2.5" ry="2.5" style="stroke:#181818;stroke-width:0.5;" width="136" x="1380.875" y="1022.9994"/><text fill="#000000" font-family="sans-serif" font-size="20" font-style="italic" lengthAdjust="spacing" textLength="122" x="1387.875" y="1051.3794">«component»</text><text fill="#000000" font-family="sans-serif" font-size="20" lengthAdjust="spacing" textLength="49" x="1424.375" y="1078.6193">HTTP</text><rect fill="#E2E2F0" height="68.4799" rx="2.5" ry="2.5" style="stroke:#181818;stroke-width:0.5;" width="136" x="1639.25" y="64.4799"/><text fill="#000000" font-family="sans-serif" font-size="20" font-style="italic" lengthAdjust="spacing" textLength="122" x="1646.25" y="92.8599">«component»</text><text fill="#000000" font-family="sans-serif" font-size="20" lengthAdjust="spacing" textLength="54" x="1680.25" y="120.0999">Route</text><rect fill="#E2E2F0" height="68.4799" rx="2.5" ry="2.5" style="stroke:#181818;stroke-width:0.5;" width="136" x="1639.25" y="1022.9994"/><text fill="#000000" font-family="sans-serif" font-size="20" font-style="italic" lengthAdjust="spacing" textLength="122" x="1646.25" y="1051.3794">«component»</text><text fill="#000000" font-family="sans-serif" font-size="20" lengthAdjust="spacing" textLength="54" x="1680.25" y="1078.6193">Route</text><rect fill="#FFFFFF" height="870.0395" style="stroke:#181818;stroke-width:1.0;" width="10" x="100.5" y="143.9599"/><rect fill="#FFFFFF" height="41.24" style="stroke:#181818;stroke-width:1.0;" width="10" x="811.75" y="177.1999"/><rect fill="#FFFFFF" height="739.3195" style="stroke:#181818;stroke-width:1.0;" width="10" x="811.75" y="259.6798"/><rect fill="#FFFFFF" height="421.3997" style="stroke:#181818;stroke-width:1.0;" width="10" x="1035" y="300.9198"/><rect fill="#FFFFFF" height="28" style="stroke:#181818;stroke-width:1.0;" width="10" x="1040" y="350.1598"/><rect fill="#FFFFFF" height="194.1999" style="stroke:#181818;stroke-width:1.0;" width="10" x="1035" y="763.5595"/><rect fill="#FFFFFF" height="254.6798" style="stroke:#181818;stroke-width:1.0;" width="10" x="1252.625" y="426.3997"/><rect fill="#FFFFFF" height="152.9599" style="stroke:#181818;stroke-width:1.0;" width="10" x="1252.625" y="763.5595"/><rect fill="#FFFFFF" height="172.1999" style="stroke:#181818;stroke-width:1.0;" width="10" x="1443.875" y="467.6397"/><rect fill="#FFFFFF" height="111.7199" style="stroke:#181818;stroke-width:1.0;" width="10" x="1443.875" y="763.5595"/><rect fill="#FFFFFF" height="89.7199" style="stroke:#181818;stroke-width:1.0;" width="10" x="1702.25" y="508.8797"/><rect fill="#FFFFFF" height="70.4799" style="stroke:#181818;stroke-width:1.0;" width="10" x="1702.25" y="763.5595"/><polygon fill="#181818" points="799.75,173.1999,809.75,177.1999,799.75,181.1999,803.75,177.1999" style="stroke:#181818;stroke-width:1.0;"/><line style="stroke:#181818;stroke-width:1.0;" x1="110.5" x2="805.75" y1="177.1999" y2="177.1999"/><text fill="#000000" font-family="sans-serif" font-size="20" font-weight="bold" lengthAdjust="spacing" textLength="11.625" x="117.5" y="169.3399">1</text><text fill="#000000" font-family="sans-serif" font-size="20" lengthAdjust="spacing" textLength="364" x="133.125" y="169.3399">wants to create a new robot to the fleet</text><polygon fill="#181818" points="121.5,214.4398,111.5,218.4398,121.5,222.4398,117.5,218.4398" style="stroke:#181818;stroke-width:1.0;"/><line style="stroke:#181818;stroke-width:1.0;stroke-dasharray:2.0,2.0;" x1="115.5" x2="815.75" y1="218.4398" y2="218.4398"/><text fill="#000000" font-family="sans-serif" font-size="20" font-weight="bold" lengthAdjust="spacing" textLength="11.625" x="127.5" y="210.5799">2</text><text fill="#000000" font-family="sans-serif" font-size="20" lengthAdjust="spacing" textLength="647" x="143.125" y="210.5799">asks for the code, nickname, model code, serial number &amp; description</text><polygon fill="#181818" points="799.75,255.6798,809.75,259.6798,799.75,263.6798,803.75,259.6798" style="stroke:#181818;stroke-width:1.0;"/><line style="stroke:#181818;stroke-width:1.0;" x1="110.5" x2="805.75" y1="259.6798" y2="259.6798"/><text fill="#000000" font-family="sans-serif" font-size="20" font-weight="bold" lengthAdjust="spacing" textLength="11.625" x="117.5" y="251.8198">3</text><text fill="#000000" font-family="sans-serif" font-size="20" lengthAdjust="spacing" textLength="144" x="133.125" y="251.8198">inserts the data</text><polygon fill="#181818" points="1023,296.9198,1033,300.9198,1023,304.9198,1027,300.9198" style="stroke:#181818;stroke-width:1.0;"/><line style="stroke:#181818;stroke-width:1.0;" x1="821.75" x2="1029" y1="300.9198" y2="300.9198"/><text fill="#000000" font-family="sans-serif" font-size="20" font-weight="bold" lengthAdjust="spacing" textLength="11.625" x="828.75" y="293.0598">4</text><text fill="#000000" font-family="sans-serif" font-size="20" lengthAdjust="spacing" textLength="120" x="844.375" y="293.0598">createDevice</text><line style="stroke:#181818;stroke-width:1.0;" x1="1050" x2="1092" y1="342.1598" y2="342.1598"/><line style="stroke:#181818;stroke-width:1.0;" x1="1092" x2="1092" y1="342.1598" y2="355.1598"/><line style="stroke:#181818;stroke-width:1.0;" x1="1051" x2="1092" y1="355.1598" y2="355.1598"/><polygon fill="#181818" points="1061,351.1598,1051,355.1598,1061,359.1598,1057,355.1598" style="stroke:#181818;stroke-width:1.0;"/><text fill="#000000" font-family="sans-serif" font-size="20" font-weight="bold" lengthAdjust="spacing" textLength="11.625" x="1057" y="334.2998">5</text><text fill="#000000" font-family="sans-serif" font-size="20" lengthAdjust="spacing" textLength="128" x="1072.625" y="334.2998">validates data</text><polygon fill="#181818" points="1240.625,422.3997,1250.625,426.3997,1240.625,430.3997,1244.625,426.3997" style="stroke:#181818;stroke-width:1.0;"/><line style="stroke:#181818;stroke-width:1.0;" x1="1045" x2="1246.625" y1="426.3997" y2="426.3997"/><text fill="#000000" font-family="sans-serif" font-size="20" font-weight="bold" lengthAdjust="spacing" textLength="11.625" x="1052" y="418.5398">6</text><text fill="#000000" font-family="sans-serif" font-size="20" lengthAdjust="spacing" textLength="173" x="1067.625" y="418.5398">createDevice(data)</text><polygon fill="#181818" points="1431.875,463.6397,1441.875,467.6397,1431.875,471.6397,1435.875,467.6397" style="stroke:#181818;stroke-width:1.0;"/><line style="stroke:#181818;stroke-width:1.0;" x1="1262.625" x2="1437.875" y1="467.6397" y2="467.6397"/><text fill="#000000" font-family="sans-serif" font-size="20" font-weight="bold" lengthAdjust="spacing" textLength="11.625" x="1269.625" y="459.7797">7</text><text fill="#000000" font-family="sans-serif" font-size="20" lengthAdjust="spacing" textLength="124" x="1285.25" y="459.7797">post(url,data)</text><polygon fill="#181818" points="1690.25,504.8797,1700.25,508.8797,1690.25,512.8797,1694.25,508.8797" style="stroke:#181818;stroke-width:1.0;"/><line style="stroke:#181818;stroke-width:1.0;" x1="1453.875" x2="1696.25" y1="508.8797" y2="508.8797"/><text fill="#000000" font-family="sans-serif" font-size="20" font-weight="bold" lengthAdjust="spacing" textLength="11.625" x="1460.875" y="501.0197">8</text><text fill="#000000" font-family="sans-serif" font-size="20" lengthAdjust="spacing" textLength="193" x="1476.5" y="501.0197">POST /devices {data}</text><path d="M10,523.8797 L79.875,523.8797 L79.875,543.1197 L69.875,553.1197 L10,553.1197 L10,523.8797 " fill="#EEEEEE" style="stroke:#000000;stroke-width:1.5;"/><rect fill="none" height="483.1197" style="stroke:#000000;stroke-width:1.5;" width="1775.25" x="10" y="523.8797"/><text fill="#000000" font-family="sans-serif" font-size="20" font-weight="bold" lengthAdjust="spacing" textLength="24.875" x="25" y="546.2597">alt</text><text fill="#000000" font-family="sans-serif" font-size="20" font-weight="bold" lengthAdjust="spacing" textLength="232.5" x="94.875" y="547.2597">[a new robot is created]</text><polygon fill="#181818" points="1464.875,594.5996,1454.875,598.5996,1464.875,602.5996,1460.875,598.5996" style="stroke:#181818;stroke-width:1.0;"/><line style="stroke:#181818;stroke-width:1.0;stroke-dasharray:2.0,2.0;" x1="1458.875" x2="1706.25" y1="598.5996" y2="598.5996"/><text fill="#000000" font-family="sans-serif" font-size="20" font-weight="bold" lengthAdjust="spacing" textLength="11.625" x="1470.875" y="590.7396">9</text><text fill="#000000" font-family="sans-serif" font-size="20" lengthAdjust="spacing" textLength="111" x="1486.5" y="590.7396">201 Created</text><polygon fill="#181818" points="1273.625,635.8396,1263.625,639.8396,1273.625,643.8396,1269.625,639.8396" style="stroke:#181818;stroke-width:1.0;"/><line style="stroke:#181818;stroke-width:1.0;stroke-dasharray:2.0,2.0;" x1="1267.625" x2="1447.875" y1="639.8396" y2="639.8396"/><text fill="#000000" font-family="sans-serif" font-size="20" font-weight="bold" lengthAdjust="spacing" textLength="23.25" x="1279.625" y="631.9796">10</text><text fill="#000000" font-family="sans-serif" font-size="20" lengthAdjust="spacing" textLength="130" x="1306.875" y="631.9796">the new robot</text><polygon fill="#181818" points="1056,677.0796,1046,681.0796,1056,685.0796,1052,681.0796" style="stroke:#181818;stroke-width:1.0;"/><line style="stroke:#181818;stroke-width:1.0;stroke-dasharray:2.0,2.0;" x1="1050" x2="1256.625" y1="681.0796" y2="681.0796"/><text fill="#000000" font-family="sans-serif" font-size="20" font-weight="bold" lengthAdjust="spacing" textLength="23.25" x="1062" y="673.2196">11</text><text fill="#000000" font-family="sans-serif" font-size="20" lengthAdjust="spacing" textLength="130" x="1089.25" y="673.2196">the new robot</text><polygon fill="#181818" points="832.75,718.3195,822.75,722.3195,832.75,726.3195,828.75,722.3195" style="stroke:#181818;stroke-width:1.0;"/><line style="stroke:#181818;stroke-width:1.0;stroke-dasharray:2.0,2.0;" x1="826.75" x2="1039" y1="722.3195" y2="722.3195"/><text fill="#000000" font-family="sans-serif" font-size="20" font-weight="bold" lengthAdjust="spacing" textLength="23.25" x="838.75" y="714.4596">12</text><text fill="#000000" font-family="sans-serif" font-size="20" lengthAdjust="spacing" textLength="162" x="866" y="714.4596">success message</text><polygon fill="#181818" points="121.5,759.5595,111.5,763.5595,121.5,767.5595,117.5,763.5595" style="stroke:#181818;stroke-width:1.0;"/><line style="stroke:#181818;stroke-width:1.0;stroke-dasharray:2.0,2.0;" x1="115.5" x2="810.75" y1="763.5595" y2="763.5595"/><text fill="#000000" font-family="sans-serif" font-size="20" font-weight="bold" lengthAdjust="spacing" textLength="23.25" x="127.5" y="755.6995">13</text><text fill="#000000" font-family="sans-serif" font-size="20" lengthAdjust="spacing" textLength="340" x="154.75" y="755.6995">informs the success of the operation</text><line style="stroke:#000000;stroke-width:1.0;stroke-dasharray:2.0,2.0;" x1="10" x2="1785.25" y1="772.5595" y2="772.5595"/><text fill="#000000" font-family="sans-serif" font-size="20" font-weight="bold" lengthAdjust="spacing" textLength="390.875" x="15" y="793.9395">[there is a robot with the specified data]</text><polygon fill="#181818" points="1464.875,830.0395,1454.875,834.0395,1464.875,838.0395,1460.875,834.0395" style="stroke:#181818;stroke-width:1.0;"/><line style="stroke:#181818;stroke-width:1.0;stroke-dasharray:2.0,2.0;" x1="1458.875" x2="1706.25" y1="834.0395" y2="834.0395"/><text fill="#000000" font-family="sans-serif" font-size="20" font-weight="bold" lengthAdjust="spacing" textLength="23.25" x="1470.875" y="826.1795">14</text><text fill="#000000" font-family="sans-serif" font-size="20" lengthAdjust="spacing" textLength="154" x="1498.125" y="826.1795">400 Bad Request</text><polygon fill="#181818" points="1273.625,871.2794,1263.625,875.2794,1273.625,879.2794,1269.625,875.2794" style="stroke:#181818;stroke-width:1.0;"/><line style="stroke:#181818;stroke-width:1.0;stroke-dasharray:2.0,2.0;" x1="1267.625" x2="1447.875" y1="875.2794" y2="875.2794"/><text fill="#000000" font-family="sans-serif" font-size="20" font-weight="bold" lengthAdjust="spacing" textLength="23.25" x="1279.625" y="867.4195">15</text><text fill="#000000" font-family="sans-serif" font-size="20" lengthAdjust="spacing" textLength="47" x="1306.875" y="867.4195">error</text><polygon fill="#181818" points="1056,912.5194,1046,916.5194,1056,920.5194,1052,916.5194" style="stroke:#181818;stroke-width:1.0;"/><line style="stroke:#181818;stroke-width:1.0;stroke-dasharray:2.0,2.0;" x1="1050" x2="1256.625" y1="916.5194" y2="916.5194"/><text fill="#000000" font-family="sans-serif" font-size="20" font-weight="bold" lengthAdjust="spacing" textLength="23.25" x="1062" y="908.6594">16</text><text fill="#000000" font-family="sans-serif" font-size="20" lengthAdjust="spacing" textLength="47" x="1089.25" y="908.6594">error</text><polygon fill="#181818" points="832.75,953.7594,822.75,957.7594,832.75,961.7594,828.75,957.7594" style="stroke:#181818;stroke-width:1.0;"/><line style="stroke:#181818;stroke-width:1.0;stroke-dasharray:2.0,2.0;" x1="826.75" x2="1039" y1="957.7594" y2="957.7594"/><text fill="#000000" font-family="sans-serif" font-size="20" font-weight="bold" lengthAdjust="spacing" textLength="23.25" x="838.75" y="949.8994">17</text><text fill="#000000" font-family="sans-serif" font-size="20" lengthAdjust="spacing" textLength="47" x="866" y="949.8994">error</text><polygon fill="#181818" points="121.5,994.9994,111.5,998.9994,121.5,1002.9994,117.5,998.9994" style="stroke:#181818;stroke-width:1.0;"/><line style="stroke:#181818;stroke-width:1.0;stroke-dasharray:2.0,2.0;" x1="115.5" x2="815.75" y1="998.9994" y2="998.9994"/><text fill="#000000" font-family="sans-serif" font-size="20" font-weight="bold" lengthAdjust="spacing" textLength="23.25" x="127.5" y="991.1394">18</text><text fill="#000000" font-family="sans-serif" font-size="20" lengthAdjust="spacing" textLength="650" x="154.75" y="991.1394">shows error message "A device with the specified data already exists."</text><!--SRC=[ZPHHQzim4CVVzIcE34OApPQLFfLGwDmD3sPQahGms8jgNneHMV8aESawzeds4VRMJxQJ52TssgPxCPRzk__T_Uzikn2gueQNKkSBBA306Q-b-woLcuW7X9CXuxNJgYxlq33Rq70PkIcktOKKzwf4vKQZdAvepiyXtZ36SwSD91bm2xs4brLj8UEAtwFfCNQdrz1x_9DJCYuK6kWdfqUFVx-hMs5hBiK3TqAh7ko46G3bTo8N5LSEag1xymKINLPQ4HJWvl24ZtLakgWb7YOdjr5xWcOfybVWDA3fT7gzpw4gWBeyq2fabnj7l8NGRlRDLt4_TzzGIhtQopY-kfb-2bd7kdRuObhoNoovGne1OpI6mJbvTWOhqh3WDEG6_LiE2bTWz9rs_gcR8ymaecl5X_3HO13YkLrOcD5aFPdh0ez1YNoXU4bt9Ptbvgb58xY4k3xmbjRBvaPKVgoim3trJN52KPGlZxGBxdYt24zbHCNABz5FPqTGbrb3B6c3A1xjdahMpjm4-7btHVi-wcWNHWHZ7YCw9RRIrlLh8u_tk9Inr3DnH6TmVJMPmliYQ5huvUdVEpfGD2VfEaCGTbDBGODFW- -Dtidm0oJRTwrMDb8GUl4HlaflubQsowUUZJEDtHzWG_C0KTURQ-kSsh5GqeLsjqjdWTsjYr2qAsMSQ1EeP-6eApJXAsSeBVf71dttV6F4IhXvZAim5pFXVr5-cW2jFbg7h7tmLRUEMuEwXfuEX_2H5p367pLQzn-ceZ7Ql6BcCymJ4vzXzgspSxso4MoyXju5n7LwoHtWaXQa-0cu5jRPTxrkZiJ_7rZd-ylOFm00]--></g></svg>