<?xml version="1.0" encoding="UTF-8" standalone="no"?><svg xmlns="http://www.w3.org/2000/svg" xmlns:xlink="http://www.w3.org/1999/xlink" contentStyleType="text/css" height="1017px" preserveAspectRatio="none" style="width:1969px;height:1017px;background:#FFFFFF;" version="1.1" viewBox="0 0 1969 1017" width="1969px" zoomAndPan="magnify"><defs/><g><rect fill="#DDDDDD" height="1005.3125" style="stroke:#181818;stroke-width:0.5;" width="845" x="800.5" y="6"/><text fill="#000000" font-family="sans-serif" font-size="20" font-weight="bold" lengthAdjust="spacing" textLength="189" x="1128.5" y="24.5645">«container (C4)»</text><text fill="#000000" font-family="sans-serif" font-size="20" font-weight="bold" lengthAdjust="spacing" textLength="147" x="1149.5" y="47.8457">Visualization</text><rect fill="#FFFFE0" height="1005.3125" style="stroke:#181818;stroke-width:0.5;" width="213" x="1750.5" y="6"/><text fill="#000000" font-family="sans-serif" font-size="20" font-weight="bold" lengthAdjust="spacing" textLength="189" x="1762.5" y="24.5645">«container (C4)»</text><text fill="#000000" font-family="sans-serif" font-size="20" font-weight="bold" lengthAdjust="spacing" textLength="193" x="1760.5" y="47.8457">MD Management</text><rect fill="#FFFFFF" height="786.9063" style="stroke:#181818;stroke-width:1.0;" width="10" x="105.5" y="128.125"/><rect fill="#FFFFFF" height="37.2813" style="stroke:#181818;stroke-width:1.0;" width="10" x="878.5" y="157.4063"/><rect fill="#FFFFFF" height="668.0625" style="stroke:#181818;stroke-width:1.0;" width="10" x="878.5" y="231.9688"/><rect fill="#FFFFFF" height="381.8125" style="stroke:#181818;stroke-width:1.0;" width="10" x="1116.5" y="269.25"/><rect fill="#FFFFFF" height="28" style="stroke:#181818;stroke-width:1.0;" width="10" x="1121.5" y="314.5313"/><rect fill="#FFFFFF" height="174.4063" style="stroke:#181818;stroke-width:1.0;" width="10" x="1116.5" y="688.3438"/><rect fill="#FFFFFF" height="226.9688" style="stroke:#181818;stroke-width:1.0;" width="10" x="1354.5" y="386.8125"/><rect fill="#FFFFFF" height="137.125" style="stroke:#181818;stroke-width:1.0;" width="10" x="1354.5" y="688.3438"/><rect fill="#FFFFFF" height="152.4063" style="stroke:#181818;stroke-width:1.0;" width="10" x="1560.5" y="424.0938"/><rect fill="#FFFFFF" height="99.8438" style="stroke:#181818;stroke-width:1.0;" width="10" x="1560.5" y="688.3438"/><rect fill="#FFFFFF" height="77.8438" style="stroke:#181818;stroke-width:1.0;" width="10" x="1852" y="461.375"/><rect fill="#FFFFFF" height="62.5625" style="stroke:#181818;stroke-width:1.0;" width="10" x="1852" y="688.3438"/><rect fill="none" height="431.6563" style="stroke:#000000;stroke-width:1.5;" width="1933" x="10" y="476.375"/><line style="stroke:#181818;stroke-width:0.5;stroke-dasharray:5.0,5.0;" x1="110" x2="110" y1="118.125" y2="925.0313"/><line style="stroke:#181818;stroke-width:0.5;stroke-dasharray:5.0,5.0;" x1="883.5" x2="883.5" y1="118.125" y2="925.0313"/><line style="stroke:#181818;stroke-width:0.5;stroke-dasharray:5.0,5.0;" x1="1121.5" x2="1121.5" y1="118.125" y2="925.0313"/><line style="stroke:#181818;stroke-width:0.5;stroke-dasharray:5.0,5.0;" x1="1359.5" x2="1359.5" y1="118.125" y2="925.0313"/><line style="stroke:#181818;stroke-width:0.5;stroke-dasharray:5.0,5.0;" x1="1565.5" x2="1565.5" y1="118.125" y2="925.0313"/><line style="stroke:#181818;stroke-width:0.5;stroke-dasharray:5.0,5.0;" x1="1857" x2="1857" y1="118.125" y2="925.0313"/><text fill="#000000" font-family="sans-serif" font-size="20" lengthAdjust="spacing" textLength="175" x="20" y="113.4082">Campus Manager</text><ellipse cx="110.5" cy="43.3438" fill="#E2E2F0" rx="8" ry="8" style="stroke:#181818;stroke-width:0.5;"/><path d="M110.5,51.3438 L110.5,78.3438 M97.5,59.3438 L123.5,59.3438 M110.5,78.3438 L97.5,93.3438 M110.5,78.3438 L123.5,93.3438 " fill="none" style="stroke:#181818;stroke-width:0.5;"/><text fill="#000000" font-family="sans-serif" font-size="20" lengthAdjust="spacing" textLength="175" x="20" y="942.5957">Campus Manager</text><ellipse cx="110.5" cy="955.8125" fill="#E2E2F0" rx="8" ry="8" style="stroke:#181818;stroke-width:0.5;"/><path d="M110.5,963.8125 L110.5,990.8125 M97.5,971.8125 L123.5,971.8125 M110.5,990.8125 L97.5,1005.8125 M110.5,990.8125 L123.5,1005.8125 " fill="none" style="stroke:#181818;stroke-width:0.5;"/><rect fill="#E2E2F0" height="60.5625" rx="2.5" ry="2.5" style="stroke:#181818;stroke-width:0.5;" width="158" x="804.5" y="56.5625"/><text fill="#000000" font-family="sans-serif" font-size="20" font-style="italic" lengthAdjust="spacing" textLength="138" x="814.5" y="82.127">«component»</text><text fill="#000000" font-family="sans-serif" font-size="20" lengthAdjust="spacing" textLength="144" x="811.5" y="105.4082">UI Component</text><rect fill="#E2E2F0" height="60.5625" rx="2.5" ry="2.5" style="stroke:#181818;stroke-width:0.5;" width="158" x="804.5" y="924.0313"/><text fill="#000000" font-family="sans-serif" font-size="20" font-style="italic" lengthAdjust="spacing" textLength="138" x="814.5" y="949.5957">«component»</text><text fill="#000000" font-family="sans-serif" font-size="20" lengthAdjust="spacing" textLength="144" x="811.5" y="972.877">UI Component</text><rect fill="#E2E2F0" height="60.5625" rx="2.5" ry="2.5" style="stroke:#181818;stroke-width:0.5;" width="152" x="1045.5" y="56.5625"/><text fill="#000000" font-family="sans-serif" font-size="20" font-style="italic" lengthAdjust="spacing" textLength="138" x="1052.5" y="82.127">«component»</text><text fill="#000000" font-family="sans-serif" font-size="20" lengthAdjust="spacing" textLength="73" x="1085" y="105.4082">Module</text><rect fill="#E2E2F0" height="60.5625" rx="2.5" ry="2.5" style="stroke:#181818;stroke-width:0.5;" width="152" x="1045.5" y="924.0313"/><text fill="#000000" font-family="sans-serif" font-size="20" font-style="italic" lengthAdjust="spacing" textLength="138" x="1052.5" y="949.5957">«component»</text><text fill="#000000" font-family="sans-serif" font-size="20" lengthAdjust="spacing" textLength="73" x="1085" y="972.877">Module</text><rect fill="#E2E2F0" height="60.5625" rx="2.5" ry="2.5" style="stroke:#181818;stroke-width:0.5;" width="152" x="1283.5" y="56.5625"/><text fill="#000000" font-family="sans-serif" font-size="20" font-style="italic" lengthAdjust="spacing" textLength="138" x="1290.5" y="82.127">«component»</text><text fill="#000000" font-family="sans-serif" font-size="20" lengthAdjust="spacing" textLength="73" x="1323" y="105.4082">Service</text><rect fill="#E2E2F0" height="60.5625" rx="2.5" ry="2.5" style="stroke:#181818;stroke-width:0.5;" width="152" x="1283.5" y="924.0313"/><text fill="#000000" font-family="sans-serif" font-size="20" font-style="italic" lengthAdjust="spacing" textLength="138" x="1290.5" y="949.5957">«component»</text><text fill="#000000" font-family="sans-serif" font-size="20" lengthAdjust="spacing" textLength="73" x="1323" y="972.877">Service</text><rect fill="#E2E2F0" height="60.5625" rx="2.5" ry="2.5" style="stroke:#181818;stroke-width:0.5;" width="152" x="1489.5" y="56.5625"/><text fill="#000000" font-family="sans-serif" font-size="20" font-style="italic" lengthAdjust="spacing" textLength="138" x="1496.5" y="82.127">«component»</text><text fill="#000000" font-family="sans-serif" font-size="20" lengthAdjust="spacing" textLength="51" x="1540" y="105.4082">HTTP</text><rect fill="#E2E2F0" height="60.5625" rx="2.5" ry="2.5" style="stroke:#181818;stroke-width:0.5;" width="152" x="1489.5" y="924.0313"/><text fill="#000000" font-family="sans-serif" font-size="20" font-style="italic" lengthAdjust="spacing" textLength="138" x="1496.5" y="949.5957">«component»</text><text fill="#000000" font-family="sans-serif" font-size="20" lengthAdjust="spacing" textLength="51" x="1540" y="972.877">HTTP</text><rect fill="#E2E2F0" height="60.5625" rx="2.5" ry="2.5" style="stroke:#181818;stroke-width:0.5;" width="152" x="1781" y="56.5625"/><text fill="#000000" font-family="sans-serif" font-size="20" font-style="italic" lengthAdjust="spacing" textLength="138" x="1788" y="82.127">«component»</text><text fill="#000000" font-family="sans-serif" font-size="20" lengthAdjust="spacing" textLength="59" x="1827.5" y="105.4082">Route</text><rect fill="#E2E2F0" height="60.5625" rx="2.5" ry="2.5" style="stroke:#181818;stroke-width:0.5;" width="152" x="1781" y="924.0313"/><text fill="#000000" font-family="sans-serif" font-size="20" font-style="italic" lengthAdjust="spacing" textLength="138" x="1788" y="949.5957">«component»</text><text fill="#000000" font-family="sans-serif" font-size="20" lengthAdjust="spacing" textLength="59" x="1827.5" y="972.877">Route</text><rect fill="#FFFFFF" height="786.9063" style="stroke:#181818;stroke-width:1.0;" width="10" x="105.5" y="128.125"/><rect fill="#FFFFFF" height="37.2813" style="stroke:#181818;stroke-width:1.0;" width="10" x="878.5" y="157.4063"/><rect fill="#FFFFFF" height="668.0625" style="stroke:#181818;stroke-width:1.0;" width="10" x="878.5" y="231.9688"/><rect fill="#FFFFFF" height="381.8125" style="stroke:#181818;stroke-width:1.0;" width="10" x="1116.5" y="269.25"/><rect fill="#FFFFFF" height="28" style="stroke:#181818;stroke-width:1.0;" width="10" x="1121.5" y="314.5313"/><rect fill="#FFFFFF" height="174.4063" style="stroke:#181818;stroke-width:1.0;" width="10" x="1116.5" y="688.3438"/><rect fill="#FFFFFF" height="226.9688" style="stroke:#181818;stroke-width:1.0;" width="10" x="1354.5" y="386.8125"/><rect fill="#FFFFFF" height="137.125" style="stroke:#181818;stroke-width:1.0;" width="10" x="1354.5" y="688.3438"/><rect fill="#FFFFFF" height="152.4063" style="stroke:#181818;stroke-width:1.0;" width="10" x="1560.5" y="424.0938"/><rect fill="#FFFFFF" height="99.8438" style="stroke:#181818;stroke-width:1.0;" width="10" x="1560.5" y="688.3438"/><rect fill="#FFFFFF" height="77.8438" style="stroke:#181818;stroke-width:1.0;" width="10" x="1852" y="461.375"/><rect fill="#FFFFFF" height="62.5625" style="stroke:#181818;stroke-width:1.0;" width="10" x="1852" y="688.3438"/><polygon fill="#181818" points="866.5,153.4063,876.5,157.4063,866.5,161.4063,870.5,157.4063" style="stroke:#181818;stroke-width:1.0;"/><line style="stroke:#181818;stroke-width:1.0;" x1="115.5" x2="872.5" y1="157.4063" y2="157.4063"/><text fill="#000000" font-family="sans-serif" font-size="20" font-weight="bold" lengthAdjust="spacing" textLength="14" x="122.5" y="150.6895">1</text><text fill="#000000" font-family="sans-serif" font-size="20" lengthAdjust="spacing" textLength="396" x="140.5" y="150.6895">wants to create a new robot to the fleet</text><polygon fill="#181818" points="126.5,190.6875,116.5,194.6875,126.5,198.6875,122.5,194.6875" style="stroke:#181818;stroke-width:1.0;"/><line style="stroke:#181818;stroke-width:1.0;stroke-dasharray:2.0,2.0;" x1="120.5" x2="882.5" y1="194.6875" y2="194.6875"/><text fill="#000000" font-family="sans-serif" font-size="20" font-weight="bold" lengthAdjust="spacing" textLength="14" x="132.5" y="187.9707">2</text><text fill="#000000" font-family="sans-serif" font-size="20" lengthAdjust="spacing" textLength="700" x="150.5" y="187.9707">asks for the code, nickname, model code, serial number &amp; description</text><polygon fill="#181818" points="866.5,227.9688,876.5,231.9688,866.5,235.9688,870.5,231.9688" style="stroke:#181818;stroke-width:1.0;"/><line style="stroke:#181818;stroke-width:1.0;" x1="115.5" x2="872.5" y1="231.9688" y2="231.9688"/><text fill="#000000" font-family="sans-serif" font-size="20" font-weight="bold" lengthAdjust="spacing" textLength="14" x="122.5" y="225.252">3</text><text fill="#000000" font-family="sans-serif" font-size="20" lengthAdjust="spacing" textLength="157" x="140.5" y="225.252">inserts the data</text><polygon fill="#181818" points="1104.5,265.25,1114.5,269.25,1104.5,273.25,1108.5,269.25" style="stroke:#181818;stroke-width:1.0;"/><line style="stroke:#181818;stroke-width:1.0;" x1="888.5" x2="1110.5" y1="269.25" y2="269.25"/><text fill="#000000" font-family="sans-serif" font-size="20" font-weight="bold" lengthAdjust="spacing" textLength="14" x="895.5" y="262.5332">4</text><text fill="#000000" font-family="sans-serif" font-size="20" lengthAdjust="spacing" textLength="130" x="913.5" y="262.5332">createDevice</text><line style="stroke:#181818;stroke-width:1.0;" x1="1131.5" x2="1173.5" y1="306.5313" y2="306.5313"/><line style="stroke:#181818;stroke-width:1.0;" x1="1173.5" x2="1173.5" y1="306.5313" y2="319.5313"/><line style="stroke:#181818;stroke-width:1.0;" x1="1132.5" x2="1173.5" y1="319.5313" y2="319.5313"/><polygon fill="#181818" points="1142.5,315.5313,1132.5,319.5313,1142.5,323.5313,1138.5,319.5313" style="stroke:#181818;stroke-width:1.0;"/><text fill="#000000" font-family="sans-serif" font-size="20" font-weight="bold" lengthAdjust="spacing" textLength="14" x="1138.5" y="299.8145">5</text><text fill="#000000" font-family="sans-serif" font-size="20" lengthAdjust="spacing" textLength="141" x="1156.5" y="299.8145">validates data</text><polygon fill="#181818" points="1342.5,382.8125,1352.5,386.8125,1342.5,390.8125,1346.5,386.8125" style="stroke:#181818;stroke-width:1.0;"/><line style="stroke:#181818;stroke-width:1.0;" x1="1126.5" x2="1348.5" y1="386.8125" y2="386.8125"/><text fill="#000000" font-family="sans-serif" font-size="20" font-weight="bold" lengthAdjust="spacing" textLength="14" x="1133.5" y="380.0957">6</text><text fill="#000000" font-family="sans-serif" font-size="20" lengthAdjust="spacing" textLength="191" x="1151.5" y="380.0957">createDevice(data)</text><polygon fill="#181818" points="1548.5,420.0938,1558.5,424.0938,1548.5,428.0938,1552.5,424.0938" style="stroke:#181818;stroke-width:1.0;"/><line style="stroke:#181818;stroke-width:1.0;" x1="1364.5" x2="1554.5" y1="424.0938" y2="424.0938"/><text fill="#000000" font-family="sans-serif" font-size="20" font-weight="bold" lengthAdjust="spacing" textLength="14" x="1371.5" y="417.377">7</text><text fill="#000000" font-family="sans-serif" font-size="20" lengthAdjust="spacing" textLength="137" x="1389.5" y="417.377">post(url,data)</text><polygon fill="#181818" points="1840,457.375,1850,461.375,1840,465.375,1844,461.375" style="stroke:#181818;stroke-width:1.0;"/><line style="stroke:#181818;stroke-width:1.0;" x1="1570.5" x2="1846" y1="461.375" y2="461.375"/><text fill="#000000" font-family="sans-serif" font-size="20" font-weight="bold" lengthAdjust="spacing" textLength="14" x="1577.5" y="454.6582">8</text><text fill="#000000" font-family="sans-serif" font-size="20" lengthAdjust="spacing" textLength="218" x="1595.5" y="454.6582">POST /devices {data}</text><path d="M10,476.375 L86,476.375 L86,491.6563 L76,501.6563 L10,501.6563 L10,476.375 " fill="#EEEEEE" style="stroke:#000000;stroke-width:1.5;"/><rect fill="none" height="431.6563" style="stroke:#000000;stroke-width:1.5;" width="1933" x="10" y="476.375"/><text fill="#000000" font-family="sans-serif" font-size="20" font-weight="bold" lengthAdjust="spacing" textLength="31" x="25" y="495.9395">alt</text><text fill="#000000" font-family="sans-serif" font-size="20" font-weight="bold" lengthAdjust="spacing" textLength="275" x="101" y="496.9395">[a new robot is created]</text><polygon fill="#181818" points="1581.5,535.2188,1571.5,539.2188,1581.5,543.2188,1577.5,539.2188" style="stroke:#181818;stroke-width:1.0;"/><line style="stroke:#181818;stroke-width:1.0;stroke-dasharray:2.0,2.0;" x1="1575.5" x2="1856" y1="539.2188" y2="539.2188"/><text fill="#000000" font-family="sans-serif" font-size="20" font-weight="bold" lengthAdjust="spacing" textLength="14" x="1587.5" y="532.502">9</text><text fill="#000000" font-family="sans-serif" font-size="20" lengthAdjust="spacing" textLength="124" x="1605.5" y="532.502">201 Created</text><polygon fill="#181818" points="1375.5,572.5,1365.5,576.5,1375.5,580.5,1371.5,576.5" style="stroke:#181818;stroke-width:1.0;"/><line style="stroke:#181818;stroke-width:1.0;stroke-dasharray:2.0,2.0;" x1="1369.5" x2="1564.5" y1="576.5" y2="576.5"/><text fill="#000000" font-family="sans-serif" font-size="20" font-weight="bold" lengthAdjust="spacing" textLength="28" x="1381.5" y="569.7832">10</text><text fill="#000000" font-family="sans-serif" font-size="20" lengthAdjust="spacing" textLength="140" x="1413.5" y="569.7832">the new robot</text><polygon fill="#181818" points="1137.5,609.7813,1127.5,613.7813,1137.5,617.7813,1133.5,613.7813" style="stroke:#181818;stroke-width:1.0;"/><line style="stroke:#181818;stroke-width:1.0;stroke-dasharray:2.0,2.0;" x1="1131.5" x2="1358.5" y1="613.7813" y2="613.7813"/><text fill="#000000" font-family="sans-serif" font-size="20" font-weight="bold" lengthAdjust="spacing" textLength="28" x="1143.5" y="607.0645">11</text><text fill="#000000" font-family="sans-serif" font-size="20" lengthAdjust="spacing" textLength="140" x="1175.5" y="607.0645">the new robot</text><polygon fill="#181818" points="899.5,647.0625,889.5,651.0625,899.5,655.0625,895.5,651.0625" style="stroke:#181818;stroke-width:1.0;"/><line style="stroke:#181818;stroke-width:1.0;stroke-dasharray:2.0,2.0;" x1="893.5" x2="1120.5" y1="651.0625" y2="651.0625"/><text fill="#000000" font-family="sans-serif" font-size="20" font-weight="bold" lengthAdjust="spacing" textLength="28" x="905.5" y="644.3457">12</text><text fill="#000000" font-family="sans-serif" font-size="20" lengthAdjust="spacing" textLength="172" x="937.5" y="644.3457">success message</text><polygon fill="#181818" points="126.5,684.3438,116.5,688.3438,126.5,692.3438,122.5,688.3438" style="stroke:#181818;stroke-width:1.0;"/><line style="stroke:#181818;stroke-width:1.0;stroke-dasharray:2.0,2.0;" x1="120.5" x2="877.5" y1="688.3438" y2="688.3438"/><text fill="#000000" font-family="sans-serif" font-size="20" font-weight="bold" lengthAdjust="spacing" textLength="28" x="132.5" y="681.627">13</text><text fill="#000000" font-family="sans-serif" font-size="20" lengthAdjust="spacing" textLength="364" x="164.5" y="681.627">informs the success of the operation</text><line style="stroke:#000000;stroke-width:1.0;stroke-dasharray:2.0,2.0;" x1="10" x2="1943" y1="697.3438" y2="697.3438"/><text fill="#000000" font-family="sans-serif" font-size="20" font-weight="bold" lengthAdjust="spacing" textLength="466" x="15" y="715.9082">[there is a robot with the specified data]</text><polygon fill="#181818" points="1581.5,746.9063,1571.5,750.9063,1581.5,754.9063,1577.5,750.9063" style="stroke:#181818;stroke-width:1.0;"/><line style="stroke:#181818;stroke-width:1.0;stroke-dasharray:2.0,2.0;" x1="1575.5" x2="1856" y1="750.9063" y2="750.9063"/><text fill="#000000" font-family="sans-serif" font-size="20" font-weight="bold" lengthAdjust="spacing" textLength="28" x="1587.5" y="744.1895">14</text><text fill="#000000" font-family="sans-serif" font-size="20" lengthAdjust="spacing" textLength="172" x="1619.5" y="744.1895">400 Bad Request</text><polygon fill="#181818" points="1375.5,784.1875,1365.5,788.1875,1375.5,792.1875,1371.5,788.1875" style="stroke:#181818;stroke-width:1.0;"/><line style="stroke:#181818;stroke-width:1.0;stroke-dasharray:2.0,2.0;" x1="1369.5" x2="1564.5" y1="788.1875" y2="788.1875"/><text fill="#000000" font-family="sans-serif" font-size="20" font-weight="bold" lengthAdjust="spacing" textLength="28" x="1381.5" y="781.4707">15</text><text fill="#000000" font-family="sans-serif" font-size="20" lengthAdjust="spacing" textLength="48" x="1413.5" y="781.4707">error</text><polygon fill="#181818" points="1137.5,821.4688,1127.5,825.4688,1137.5,829.4688,1133.5,825.4688" style="stroke:#181818;stroke-width:1.0;"/><line style="stroke:#181818;stroke-width:1.0;stroke-dasharray:2.0,2.0;" x1="1131.5" x2="1358.5" y1="825.4688" y2="825.4688"/><text fill="#000000" font-family="sans-serif" font-size="20" font-weight="bold" lengthAdjust="spacing" textLength="28" x="1143.5" y="818.752">16</text><text fill="#000000" font-family="sans-serif" font-size="20" lengthAdjust="spacing" textLength="48" x="1175.5" y="818.752">error</text><polygon fill="#181818" points="899.5,858.75,889.5,862.75,899.5,866.75,895.5,862.75" style="stroke:#181818;stroke-width:1.0;"/><line style="stroke:#181818;stroke-width:1.0;stroke-dasharray:2.0,2.0;" x1="893.5" x2="1120.5" y1="862.75" y2="862.75"/><text fill="#000000" font-family="sans-serif" font-size="20" font-weight="bold" lengthAdjust="spacing" textLength="28" x="905.5" y="856.0332">17</text><text fill="#000000" font-family="sans-serif" font-size="20" lengthAdjust="spacing" textLength="48" x="937.5" y="856.0332">error</text><polygon fill="#181818" points="126.5,896.0313,116.5,900.0313,126.5,904.0313,122.5,900.0313" style="stroke:#181818;stroke-width:1.0;"/><line style="stroke:#181818;stroke-width:1.0;stroke-dasharray:2.0,2.0;" x1="120.5" x2="882.5" y1="900.0313" y2="900.0313"/><text fill="#000000" font-family="sans-serif" font-size="20" font-weight="bold" lengthAdjust="spacing" textLength="28" x="132.5" y="893.3145">18</text><text fill="#000000" font-family="sans-serif" font-size="20" lengthAdjust="spacing" textLength="707" x="164.5" y="893.3145">shows error message "A device with the specified data already exists."</text><!--SRC=[ZPHHQzim4CVVzIcE34OApPQLFfLGwDmD3sPQahGms8jgNneHMV8aESawzeds4VRMJxQJ52TssgPxCPRzk__T_Uzikn2gueQNKkSBBA306Q-b-woLcuW7X9CXuxNJgYxlq33Rq70PkIcktOKKzwf4vKQZdAvepiyXtZ36SwSD91bm2xs4brLj8UEAtwFfCNQdrz1x_9DJCYuK6kWdfqUFVx-hMs5hBiK3TqAh7ko46G3bTo8N5LSEag1xymKINLPQ4HJWvl24ZtLakgWb7YOdjr5xWcOfybVWDA3fT7gzpw4gWBeyq2fabnj7l8NGRlRDLt4_TzzGIhtQopY-kfb-2bd7kdRuObhoNoovGne1OpI6mJbvTWOhqh3WDEG6_LiE2bTWz9rs_gcR8ymaecl5X_3HO13YkLrOcD5aFPdh0ez1YNoXU4bt9Ptbvgb58xY4k3xmbjRBvaPKVgoim3trJN52KPGlZxGBxdYt24zbHCNABz5FPqTGbrb3B6c3A1xjdahMpjm4-7btHVi-wcWNHWHZ7YCw9RRIrlLh8u_tk9Inr3DnH6TmVJMPmliYQ5huvUdVEpfGD2VfEaCGTbDBGODFW- -Dtidm0oJRTwrMDb8GUl4HlaflubQsowUUZJEDtHzWG_C0KTURQ-kSsh5GqeLsjqjdWTsjYr2qAsMSQ1EeP-6eApJXAsSeBVf71dttV6F4IhXvZAim5pFXVr5-cW2jFbg7h7tmLRUEMuEwXfuEX_2H5p367pLQzn-ceZ7Ql6BcCymJ4vzXzgspSxso4MoyXju5n7LwoHtWaXQa-0cu5jRPTxrkZiJ_7rZd-ylOFm00]--></g></svg>