<?xml version="1.0" encoding="UTF-8" standalone="no"?><svg xmlns="http://www.w3.org/2000/svg" xmlns:xlink="http://www.w3.org/1999/xlink" contentStyleType="text/css" height="577px" preserveAspectRatio="none" style="width:1833px;height:577px;background:#FFFFFF;" version="1.1" viewBox="0 0 1833 577" width="1833px" zoomAndPan="magnify"><defs/><g><rect fill="#FFFFFF" height="423.1598" style="stroke:#181818;stroke-width:1.0;" width="10" x="285.25" y="90.4799"/><rect fill="#FFFFFF" height="340.6798" style="stroke:#181818;stroke-width:1.0;" width="10" x="562.875" y="131.7199"/><rect fill="#FFFFFF" height="258.1999" style="stroke:#181818;stroke-width:1.0;" width="10" x="840.5" y="172.9599"/><rect fill="#FFFFFF" height="30" style="stroke:#181818;stroke-width:1.0;" width="10" x="1337.125" y="266.4398"/><rect fill="#FFFFFF" height="41.24" style="stroke:#181818;stroke-width:1.0;" width="10" x="1472.125" y="337.6798"/><line style="stroke:#181818;stroke-width:0.5;stroke-dasharray:5.0,5.0;" x1="289.75" x2="289.75" y1="47.24" y2="531.6397"/><line style="stroke:#181818;stroke-width:0.5;stroke-dasharray:5.0,5.0;" x1="567.875" x2="567.875" y1="47.24" y2="531.6397"/><line style="stroke:#181818;stroke-width:0.5;stroke-dasharray:5.0,5.0;" x1="845" x2="845" y1="47.24" y2="531.6397"/><line style="stroke:#181818;stroke-width:0.5;stroke-dasharray:5.0,5.0;" x1="1195.125" x2="1195.125" y1="217.0799" y2="531.6397"/><line style="stroke:#181818;stroke-width:0.5;stroke-dasharray:5.0,5.0;" x1="1342.125" x2="1342.125" y1="47.24" y2="531.6397"/><line style="stroke:#181818;stroke-width:0.5;stroke-dasharray:5.0,5.0;" x1="1477.125" x2="1477.125" y1="47.24" y2="531.6397"/><line style="stroke:#181818;stroke-width:0.5;stroke-dasharray:5.0,5.0;" x1="1709.75" x2="1709.75" y1="381.7998" y2="531.6397"/><rect fill="#E2E2F0" height="41.24" rx="2.5" ry="2.5" style="stroke:#181818;stroke-width:0.5;" width="135" x="222.75" y="5"/><text fill="#000000" font-family="sans-serif" font-size="20" lengthAdjust="spacing" textLength="121" x="229.75" y="33.38">:DeviceRoute</text><rect fill="#E2E2F0" height="41.24" rx="2.5" ry="2.5" style="stroke:#181818;stroke-width:0.5;" width="135" x="222.75" y="530.6397"/><text fill="#000000" font-family="sans-serif" font-size="20" lengthAdjust="spacing" textLength="121" x="229.75" y="559.0197">:DeviceRoute</text><rect fill="#E2E2F0" height="41.24" rx="2.5" ry="2.5" style="stroke:#181818;stroke-width:0.5;" width="174" x="480.875" y="5"/><text fill="#000000" font-family="sans-serif" font-size="20" lengthAdjust="spacing" textLength="160" x="487.875" y="33.38">:DeviceController</text><rect fill="#E2E2F0" height="41.24" rx="2.5" ry="2.5" style="stroke:#181818;stroke-width:0.5;" width="174" x="480.875" y="530.6397"/><text fill="#000000" font-family="sans-serif" font-size="20" lengthAdjust="spacing" textLength="160" x="487.875" y="559.0197">:DeviceController</text><rect fill="#E2E2F0" height="41.24" rx="2.5" ry="2.5" style="stroke:#181818;stroke-width:0.5;" width="147" x="772" y="5"/><text fill="#000000" font-family="sans-serif" font-size="20" lengthAdjust="spacing" textLength="133" x="779" y="33.38">:DeviceService</text><rect fill="#E2E2F0" height="41.24" rx="2.5" ry="2.5" style="stroke:#181818;stroke-width:0.5;" width="147" x="772" y="530.6397"/><text fill="#000000" font-family="sans-serif" font-size="20" lengthAdjust="spacing" textLength="133" x="779" y="559.0197">:DeviceService</text><rect fill="#E2E2F0" height="41.24" rx="2.5" ry="2.5" style="stroke:#181818;stroke-width:0.5;" width="145" x="1123.125" y="530.6397"/><text fill="#000000" font-family="sans-serif" font-size="20" lengthAdjust="spacing" textLength="131" x="1130.125" y="559.0197">:device:Device</text><rect fill="#E2E2F0" height="41.24" rx="2.5" ry="2.5" style="stroke:#181818;stroke-width:0.5;" width="128" x="1278.125" y="5"/><text fill="#000000" font-family="sans-serif" font-size="20" lengthAdjust="spacing" textLength="114" x="1285.125" y="33.38">:DeviceRepo</text><rect fill="#E2E2F0" height="41.24" rx="2.5" ry="2.5" style="stroke:#181818;stroke-width:0.5;" width="128" x="1278.125" y="530.6397"/><text fill="#000000" font-family="sans-serif" font-size="20" lengthAdjust="spacing" textLength="114" x="1285.125" y="559.0197">:DeviceRepo</text><rect fill="#E2E2F0" height="41.24" rx="2.5" ry="2.5" style="stroke:#181818;stroke-width:0.5;" width="122" x="1416.125" y="5"/><text fill="#000000" font-family="sans-serif" font-size="20" lengthAdjust="spacing" textLength="108" x="1423.125" y="33.38">:DeviceMap</text><rect fill="#E2E2F0" height="41.24" rx="2.5" ry="2.5" style="stroke:#181818;stroke-width:0.5;" width="122" x="1416.125" y="530.6397"/><text fill="#000000" font-family="sans-serif" font-size="20" lengthAdjust="spacing" textLength="108" x="1423.125" y="559.0197">:DeviceMap</text><rect fill="#E2E2F0" height="41.24" rx="2.5" ry="2.5" style="stroke:#181818;stroke-width:0.5;" width="236" x="1591.75" y="530.6397"/><text fill="#000000" font-family="sans-serif" font-size="20" lengthAdjust="spacing" textLength="222" x="1598.75" y="559.0197">:deviceDTO:IDeviceDTO</text><rect fill="#FFFFFF" height="423.1598" style="stroke:#181818;stroke-width:1.0;" width="10" x="285.25" y="90.4799"/><rect fill="#FFFFFF" height="340.6798" style="stroke:#181818;stroke-width:1.0;" width="10" x="562.875" y="131.7199"/><rect fill="#FFFFFF" height="258.1999" style="stroke:#181818;stroke-width:1.0;" width="10" x="840.5" y="172.9599"/><rect fill="#FFFFFF" height="30" style="stroke:#181818;stroke-width:1.0;" width="10" x="1337.125" y="266.4398"/><rect fill="#FFFFFF" height="41.24" style="stroke:#181818;stroke-width:1.0;" width="10" x="1472.125" y="337.6798"/><ellipse cx="116.125" cy="89.7299" fill="none" rx="4" ry="4" style="stroke:#181818;stroke-width:1.5;"/><polygon fill="#181818" points="273.25,86.4799,283.25,90.4799,273.25,94.4799,277.25,90.4799" style="stroke:#181818;stroke-width:1.0;"/><line style="stroke:#181818;stroke-width:1.0;" x1="120.625" x2="279.25" y1="90.4799" y2="90.4799"/><text fill="#000000" font-family="sans-serif" font-size="20" font-weight="bold" lengthAdjust="spacing" textLength="11.625" x="123.625" y="82.62">1</text><text fill="#000000" font-family="sans-serif" font-size="20" lengthAdjust="spacing" textLength="131" x="139.25" y="82.62">POST /devices</text><polygon fill="#181818" points="550.875,127.7199,560.875,131.7199,550.875,135.7199,554.875,131.7199" style="stroke:#181818;stroke-width:1.0;"/><line style="stroke:#181818;stroke-width:1.0;" x1="295.25" x2="556.875" y1="131.7199" y2="131.7199"/><text fill="#000000" font-family="sans-serif" font-size="20" font-weight="bold" lengthAdjust="spacing" textLength="11.625" x="302.25" y="123.8599">2</text><text fill="#000000" font-family="sans-serif" font-size="20" lengthAdjust="spacing" textLength="233" x="317.875" y="123.8599">createDevice(deviceDTO)</text><polygon fill="#181818" points="828.5,168.9599,838.5,172.9599,828.5,176.9599,832.5,172.9599" style="stroke:#181818;stroke-width:1.0;"/><line style="stroke:#181818;stroke-width:1.0;" x1="572.875" x2="834.5" y1="172.9599" y2="172.9599"/><text fill="#000000" font-family="sans-serif" font-size="20" font-weight="bold" lengthAdjust="spacing" textLength="11.625" x="579.875" y="165.0999">3</text><text fill="#000000" font-family="sans-serif" font-size="20" lengthAdjust="spacing" textLength="233" x="595.5" y="165.0999">createDevice(deviceDTO)</text><polygon fill="#181818" points="1111.125,210.1999,1121.125,214.1999,1111.125,218.1999,1115.125,214.1999" style="stroke:#181818;stroke-width:1.0;"/><line style="stroke:#181818;stroke-width:1.0;" x1="850.5" x2="1117.125" y1="214.1999" y2="214.1999"/><text fill="#000000" font-family="sans-serif" font-size="20" font-weight="bold" lengthAdjust="spacing" textLength="11.625" x="857.5" y="206.3399">4</text><text fill="#000000" font-family="sans-serif" font-size="20" lengthAdjust="spacing" textLength="233" x="873.125" y="206.3399">createDevice(deviceDTO)</text><rect fill="#E2E2F0" height="41.24" rx="2.5" ry="2.5" style="stroke:#181818;stroke-width:0.5;" width="145" x="1123.125" y="180.9599"/><text fill="#000000" font-family="sans-serif" font-size="20" lengthAdjust="spacing" textLength="131" x="1130.125" y="209.3399">:device:Device</text><polygon fill="#181818" points="1325.125,262.4398,1335.125,266.4398,1325.125,270.4398,1329.125,266.4398" style="stroke:#181818;stroke-width:1.0;"/><line style="stroke:#181818;stroke-width:1.0;" x1="850.5" x2="1331.125" y1="266.4398" y2="266.4398"/><text fill="#000000" font-family="sans-serif" font-size="20" font-weight="bold" lengthAdjust="spacing" textLength="11.625" x="857.5" y="258.5799">5</text><text fill="#000000" font-family="sans-serif" font-size="20" lengthAdjust="spacing" textLength="113" x="873.125" y="258.5799">save(device)</text><polygon fill="#181818" points="1460.125,333.6798,1470.125,337.6798,1460.125,341.6798,1464.125,337.6798" style="stroke:#181818;stroke-width:1.0;"/><line style="stroke:#181818;stroke-width:1.0;" x1="850.5" x2="1466.125" y1="337.6798" y2="337.6798"/><text fill="#000000" font-family="sans-serif" font-size="20" font-weight="bold" lengthAdjust="spacing" textLength="11.625" x="857.5" y="329.8198">6</text><text fill="#000000" font-family="sans-serif" font-size="20" lengthAdjust="spacing" textLength="124" x="873.125" y="329.8198">toDto(device)</text><polygon fill="#181818" points="1579.75,374.9198,1589.75,378.9198,1579.75,382.9198,1583.75,378.9198" style="stroke:#181818;stroke-width:1.0;"/><line style="stroke:#181818;stroke-width:1.0;" x1="1477.125" x2="1585.75" y1="378.9198" y2="378.9198"/><text fill="#000000" font-family="sans-serif" font-size="20" font-weight="bold" lengthAdjust="spacing" textLength="11.625" x="1484.125" y="371.0598">7</text><text fill="#000000" font-family="sans-serif" font-size="20" lengthAdjust="spacing" textLength="70" x="1499.75" y="371.0598">create()</text><rect fill="#E2E2F0" height="41.24" rx="2.5" ry="2.5" style="stroke:#181818;stroke-width:0.5;" width="236" x="1591.75" y="345.6798"/><text fill="#000000" font-family="sans-serif" font-size="20" lengthAdjust="spacing" textLength="222" x="1598.75" y="374.0598">:deviceDTO:IDeviceDTO</text><polygon fill="#181818" points="583.875,427.1598,573.875,431.1598,583.875,435.1598,579.875,431.1598" style="stroke:#181818;stroke-width:1.0;"/><line style="stroke:#181818;stroke-width:1.0;stroke-dasharray:2.0,2.0;" x1="577.875" x2="844.5" y1="431.1598" y2="431.1598"/><text fill="#000000" font-family="sans-serif" font-size="20" font-weight="bold" lengthAdjust="spacing" textLength="11.625" x="589.875" y="423.2998">8</text><text fill="#000000" font-family="sans-serif" font-size="20" lengthAdjust="spacing" textLength="59" x="605.5" y="423.2998">device</text><polygon fill="#181818" points="306.25,468.3997,296.25,472.3997,306.25,476.3997,302.25,472.3997" style="stroke:#181818;stroke-width:1.0;"/><line style="stroke:#181818;stroke-width:1.0;stroke-dasharray:2.0,2.0;" x1="300.25" x2="566.875" y1="472.3997" y2="472.3997"/><text fill="#000000" font-family="sans-serif" font-size="20" font-weight="bold" lengthAdjust="spacing" textLength="11.625" x="312.25" y="464.5398">9</text><text fill="#000000" font-family="sans-serif" font-size="20" lengthAdjust="spacing" textLength="59" x="327.875" y="464.5398">device</text><polygon fill="#181818" points="11,509.6397,1,513.6397,11,517.6397,7,513.6397" style="stroke:#181818;stroke-width:1.0;"/><line style="stroke:#181818;stroke-width:1.0;stroke-dasharray:2.0,2.0;" x1="5" x2="289.25" y1="513.6397" y2="513.6397"/><text fill="#000000" font-family="sans-serif" font-size="20" font-weight="bold" lengthAdjust="spacing" textLength="23.25" x="17" y="505.7797">10</text><text fill="#000000" font-family="sans-serif" font-size="20" lengthAdjust="spacing" textLength="239" x="44.25" y="505.7797">201 Created (device JSON)</text><!--SRC=[ZP5FQyCm3CNl_XIYfxOGrlLendPe66omPIoz3yzHmJI9W-Fai4y_kyuVkIbZDrlwlIVnr9vLtGWZgbBBCnPGu4bqfNtMjStL3y9-nqHdTTrLtsYO8wsIgX6r1QCxYo1QMF4KUoNnqnTM4IETZT5bYOQ2XwaQqoqQtwPe7aenL-2CXVT0tyA-33OwMjFzOx0I3GNUH7DbP3KTbXup_fAEpnLZJpfv7EBWy97bHxWBPCk4jAeNhd5fim0vcWJ3GHfqI71SJpCsitYc6H4wcp6nVtWCA1ibJXsmxVOF-O8ESN9eHJ-2P0XXM84toyJHvyx1wjJgfPLhCW_uoLQJ9TSRQksnoV8ws61AyJ456YCvtb90edz8aWdSx-xXS5cdW65tUCspzsYtSFDV]--></g></svg>