<?xml version="1.0" encoding="UTF-8" standalone="no"?><svg xmlns="http://www.w3.org/2000/svg" xmlns:xlink="http://www.w3.org/1999/xlink" contentStyleType="text/css" height="530px" preserveAspectRatio="none" style="width:1994px;height:530px;background:#FFFFFF;" version="1.1" viewBox="0 0 1994 530" width="1994px" zoomAndPan="magnify"><defs/><g><rect fill="#FFFFFF" height="387.5313" style="stroke:#181818;stroke-width:1.0;" width="10" x="318" y="82.5625"/><rect fill="#FFFFFF" height="312.9688" style="stroke:#181818;stroke-width:1.0;" width="10" x="619" y="119.8438"/><rect fill="#FFFFFF" height="238.4063" style="stroke:#181818;stroke-width:1.0;" width="10" x="920" y="157.125"/><rect fill="#FFFFFF" height="30" style="stroke:#181818;stroke-width:1.0;" width="10" x="1460.5" y="242.6875"/><rect fill="#FFFFFF" height="37.2813" style="stroke:#181818;stroke-width:1.0;" width="10" x="1605" y="309.9688"/><line style="stroke:#181818;stroke-width:0.5;stroke-dasharray:5.0,5.0;" x1="322.5" x2="322.5" y1="43.2813" y2="488.0938"/><line style="stroke:#181818;stroke-width:0.5;stroke-dasharray:5.0,5.0;" x1="623.5" x2="623.5" y1="43.2813" y2="488.0938"/><line style="stroke:#181818;stroke-width:0.5;stroke-dasharray:5.0,5.0;" x1="924.5" x2="924.5" y1="43.2813" y2="488.0938"/><line style="stroke:#181818;stroke-width:0.5;stroke-dasharray:5.0,5.0;" x1="1306" x2="1306" y1="199.2656" y2="488.0938"/><line style="stroke:#181818;stroke-width:0.5;stroke-dasharray:5.0,5.0;" x1="1465" x2="1465" y1="43.2813" y2="488.0938"/><line style="stroke:#181818;stroke-width:0.5;stroke-dasharray:5.0,5.0;" x1="1610" x2="1610" y1="43.2813" y2="488.0938"/><line style="stroke:#181818;stroke-width:0.5;stroke-dasharray:5.0,5.0;" x1="1862" x2="1862" y1="352.1094" y2="488.0938"/><rect fill="#E2E2F0" height="37.2813" rx="2.5" ry="2.5" style="stroke:#181818;stroke-width:0.5;" width="147" x="249.5" y="5"/><text fill="#000000" font-family="sans-serif" font-size="20" lengthAdjust="spacing" textLength="133" x="256.5" y="30.5645">:DeviceRoute</text><rect fill="#E2E2F0" height="37.2813" rx="2.5" ry="2.5" style="stroke:#181818;stroke-width:0.5;" width="147" x="249.5" y="487.0938"/><text fill="#000000" font-family="sans-serif" font-size="20" lengthAdjust="spacing" textLength="133" x="256.5" y="512.6582">:DeviceRoute</text><rect fill="#E2E2F0" height="37.2813" rx="2.5" ry="2.5" style="stroke:#181818;stroke-width:0.5;" width="187" x="530.5" y="5"/><text fill="#000000" font-family="sans-serif" font-size="20" lengthAdjust="spacing" textLength="173" x="537.5" y="30.5645">:DeviceController</text><rect fill="#E2E2F0" height="37.2813" rx="2.5" ry="2.5" style="stroke:#181818;stroke-width:0.5;" width="187" x="530.5" y="487.0938"/><text fill="#000000" font-family="sans-serif" font-size="20" lengthAdjust="spacing" textLength="173" x="537.5" y="512.6582">:DeviceController</text><rect fill="#E2E2F0" height="37.2813" rx="2.5" ry="2.5" style="stroke:#181818;stroke-width:0.5;" width="161" x="844.5" y="5"/><text fill="#000000" font-family="sans-serif" font-size="20" lengthAdjust="spacing" textLength="147" x="851.5" y="30.5645">:DeviceService</text><rect fill="#E2E2F0" height="37.2813" rx="2.5" ry="2.5" style="stroke:#181818;stroke-width:0.5;" width="161" x="844.5" y="487.0938"/><text fill="#000000" font-family="sans-serif" font-size="20" lengthAdjust="spacing" textLength="147" x="851.5" y="512.6582">:DeviceService</text><rect fill="#E2E2F0" height="37.2813" rx="2.5" ry="2.5" style="stroke:#181818;stroke-width:0.5;" width="160" x="1226" y="487.0938"/><text fill="#000000" font-family="sans-serif" font-size="20" lengthAdjust="spacing" textLength="146" x="1233" y="512.6582">:device:Device</text><rect fill="#E2E2F0" height="37.2813" rx="2.5" ry="2.5" style="stroke:#181818;stroke-width:0.5;" width="139" x="1396" y="5"/><text fill="#000000" font-family="sans-serif" font-size="20" lengthAdjust="spacing" textLength="125" x="1403" y="30.5645">:DeviceRepo</text><rect fill="#E2E2F0" height="37.2813" rx="2.5" ry="2.5" style="stroke:#181818;stroke-width:0.5;" width="139" x="1396" y="487.0938"/><text fill="#000000" font-family="sans-serif" font-size="20" lengthAdjust="spacing" textLength="125" x="1403" y="512.6582">:DeviceRepo</text><rect fill="#E2E2F0" height="37.2813" rx="2.5" ry="2.5" style="stroke:#181818;stroke-width:0.5;" width="130" x="1545" y="5"/><text fill="#000000" font-family="sans-serif" font-size="20" lengthAdjust="spacing" textLength="116" x="1552" y="30.5645">:DeviceMap</text><rect fill="#E2E2F0" height="37.2813" rx="2.5" ry="2.5" style="stroke:#181818;stroke-width:0.5;" width="130" x="1545" y="487.0938"/><text fill="#000000" font-family="sans-serif" font-size="20" lengthAdjust="spacing" textLength="116" x="1552" y="512.6582">:DeviceMap</text><rect fill="#E2E2F0" height="37.2813" rx="2.5" ry="2.5" style="stroke:#181818;stroke-width:0.5;" width="252" x="1736" y="487.0938"/><text fill="#000000" font-family="sans-serif" font-size="20" lengthAdjust="spacing" textLength="238" x="1743" y="512.6582">:deviceDTO:IDeviceDTO</text><rect fill="#FFFFFF" height="387.5313" style="stroke:#181818;stroke-width:1.0;" width="10" x="318" y="82.5625"/><rect fill="#FFFFFF" height="312.9688" style="stroke:#181818;stroke-width:1.0;" width="10" x="619" y="119.8438"/><rect fill="#FFFFFF" height="238.4063" style="stroke:#181818;stroke-width:1.0;" width="10" x="920" y="157.125"/><rect fill="#FFFFFF" height="30" style="stroke:#181818;stroke-width:1.0;" width="10" x="1460.5" y="242.6875"/><rect fill="#FFFFFF" height="37.2813" style="stroke:#181818;stroke-width:1.0;" width="10" x="1605" y="309.9688"/><ellipse cx="136.5" cy="81.8125" fill="none" rx="4" ry="4" style="stroke:#181818;stroke-width:1.5;"/><polygon fill="#181818" points="306,78.5625,316,82.5625,306,86.5625,310,82.5625" style="stroke:#181818;stroke-width:1.0;"/><line style="stroke:#181818;stroke-width:1.0;" x1="141" x2="312" y1="82.5625" y2="82.5625"/><text fill="#000000" font-family="sans-serif" font-size="20" font-weight="bold" lengthAdjust="spacing" textLength="14" x="144" y="75.8457">1</text><text fill="#000000" font-family="sans-serif" font-size="20" lengthAdjust="spacing" textLength="141" x="162" y="75.8457">POST /devices</text><polygon fill="#181818" points="607,115.8438,617,119.8438,607,123.8438,611,119.8438" style="stroke:#181818;stroke-width:1.0;"/><line style="stroke:#181818;stroke-width:1.0;" x1="328" x2="613" y1="119.8438" y2="119.8438"/><text fill="#000000" font-family="sans-serif" font-size="20" font-weight="bold" lengthAdjust="spacing" textLength="14" x="335" y="113.127">2</text><text fill="#000000" font-family="sans-serif" font-size="20" lengthAdjust="spacing" textLength="254" x="353" y="113.127">createDevice(deviceDTO)</text><polygon fill="#181818" points="908,153.125,918,157.125,908,161.125,912,157.125" style="stroke:#181818;stroke-width:1.0;"/><line style="stroke:#181818;stroke-width:1.0;" x1="629" x2="914" y1="157.125" y2="157.125"/><text fill="#000000" font-family="sans-serif" font-size="20" font-weight="bold" lengthAdjust="spacing" textLength="14" x="636" y="150.4082">3</text><text fill="#000000" font-family="sans-serif" font-size="20" lengthAdjust="spacing" textLength="254" x="654" y="150.4082">createDevice(deviceDTO)</text><polygon fill="#181818" points="1214,190.4063,1224,194.4063,1214,198.4063,1218,194.4063" style="stroke:#181818;stroke-width:1.0;"/><line style="stroke:#181818;stroke-width:1.0;" x1="930" x2="1220" y1="194.4063" y2="194.4063"/><text fill="#000000" font-family="sans-serif" font-size="20" font-weight="bold" lengthAdjust="spacing" textLength="14" x="937" y="187.6895">4</text><text fill="#000000" font-family="sans-serif" font-size="20" lengthAdjust="spacing" textLength="254" x="955" y="187.6895">createDevice(deviceDTO)</text><rect fill="#E2E2F0" height="37.2813" rx="2.5" ry="2.5" style="stroke:#181818;stroke-width:0.5;" width="160" x="1226" y="165.125"/><text fill="#000000" font-family="sans-serif" font-size="20" lengthAdjust="spacing" textLength="146" x="1233" y="190.6895">:device:Device</text><polygon fill="#181818" points="1448.5,238.6875,1458.5,242.6875,1448.5,246.6875,1452.5,242.6875" style="stroke:#181818;stroke-width:1.0;"/><line style="stroke:#181818;stroke-width:1.0;" x1="930" x2="1454.5" y1="242.6875" y2="242.6875"/><text fill="#000000" font-family="sans-serif" font-size="20" font-weight="bold" lengthAdjust="spacing" textLength="14" x="937" y="235.9707">5</text><text fill="#000000" font-family="sans-serif" font-size="20" lengthAdjust="spacing" textLength="126" x="955" y="235.9707">save(device)</text><polygon fill="#181818" points="1593,305.9688,1603,309.9688,1593,313.9688,1597,309.9688" style="stroke:#181818;stroke-width:1.0;"/><line style="stroke:#181818;stroke-width:1.0;" x1="930" x2="1599" y1="309.9688" y2="309.9688"/><text fill="#000000" font-family="sans-serif" font-size="20" font-weight="bold" lengthAdjust="spacing" textLength="14" x="937" y="303.252">6</text><text fill="#000000" font-family="sans-serif" font-size="20" lengthAdjust="spacing" textLength="136" x="955" y="303.252">toDto(device)</text><polygon fill="#181818" points="1724,343.25,1734,347.25,1724,351.25,1728,347.25" style="stroke:#181818;stroke-width:1.0;"/><line style="stroke:#181818;stroke-width:1.0;" x1="1610" x2="1730" y1="347.25" y2="347.25"/><text fill="#000000" font-family="sans-serif" font-size="20" font-weight="bold" lengthAdjust="spacing" textLength="14" x="1617" y="340.5332">7</text><text fill="#000000" font-family="sans-serif" font-size="20" lengthAdjust="spacing" textLength="79" x="1635" y="340.5332">create()</text><rect fill="#E2E2F0" height="37.2813" rx="2.5" ry="2.5" style="stroke:#181818;stroke-width:0.5;" width="252" x="1736" y="317.9688"/><text fill="#000000" font-family="sans-serif" font-size="20" lengthAdjust="spacing" textLength="238" x="1743" y="343.5332">:deviceDTO:IDeviceDTO</text><polygon fill="#181818" points="640,391.5313,630,395.5313,640,399.5313,636,395.5313" style="stroke:#181818;stroke-width:1.0;"/><line style="stroke:#181818;stroke-width:1.0;stroke-dasharray:2.0,2.0;" x1="634" x2="924" y1="395.5313" y2="395.5313"/><text fill="#000000" font-family="sans-serif" font-size="20" font-weight="bold" lengthAdjust="spacing" textLength="14" x="646" y="388.8145">8</text><text fill="#000000" font-family="sans-serif" font-size="20" lengthAdjust="spacing" textLength="65" x="664" y="388.8145">device</text><polygon fill="#181818" points="339,428.8125,329,432.8125,339,436.8125,335,432.8125" style="stroke:#181818;stroke-width:1.0;"/><line style="stroke:#181818;stroke-width:1.0;stroke-dasharray:2.0,2.0;" x1="333" x2="623" y1="432.8125" y2="432.8125"/><text fill="#000000" font-family="sans-serif" font-size="20" font-weight="bold" lengthAdjust="spacing" textLength="14" x="345" y="426.0957">9</text><text fill="#000000" font-family="sans-serif" font-size="20" lengthAdjust="spacing" textLength="65" x="363" y="426.0957">device</text><polygon fill="#181818" points="11,466.0938,1,470.0938,11,474.0938,7,470.0938" style="stroke:#181818;stroke-width:1.0;"/><line style="stroke:#181818;stroke-width:1.0;stroke-dasharray:2.0,2.0;" x1="5" x2="322" y1="470.0938" y2="470.0938"/><text fill="#000000" font-family="sans-serif" font-size="20" font-weight="bold" lengthAdjust="spacing" textLength="28" x="17" y="463.377">10</text><text fill="#000000" font-family="sans-serif" font-size="20" lengthAdjust="spacing" textLength="267" x="49" y="463.377">201 Created (device JSON)</text><!--SRC=[ZP5FQyCm3CNl_XIYfxOGrlLendPe66omPIoz3yzHmJI9W-Fai4y_kyuVkIbZDrlwlIVnr9vLtGWZgbBBCnPGu4bqfNtMjStL3y9-nqHdTTrLtsYO8wsIgX6r1QCxYo1QMF4KUoNnqnTM4IETZT5bYOQ2XwaQqoqQtwPe7aenL-2CXVT0tyA-33OwMjFzOx0I3GNUH7DbP3KTbXup_fAEpnLZJpfv7EBWy97bHxWBPCk4jAeNhd5fim0vcWJ3GHfqI71SJpCsitYc6H4wcp6nVtWCA1ibJXsmxVOF-O8ESN9eHJ-2P0XXM84toyJHvyx1wjJgfPLhCW_uoLQJ9TSRQksnoV8ws61AyJ456YCvtb90edz8aWdSx-xXS5cdW65tUCspzsYtSFDV]--></g></svg>