<?xml version="1.0" encoding="UTF-8" standalone="no"?><svg xmlns="http://www.w3.org/2000/svg" xmlns:xlink="http://www.w3.org/1999/xlink" contentStyleType="text/css" height="877px" preserveAspectRatio="none" style="width:3540px;height:877px;background:#FFFFFF;" version="1.1" viewBox="0 0 3540 877" width="3540px" zoomAndPan="magnify"><defs/><g><rect fill="#FFFFFF" height="722.5996" style="stroke:#181818;stroke-width:1.0;" width="10" x="157.25" y="90.4799"/><rect fill="#FFFFFF" height="640.1197" style="stroke:#181818;stroke-width:1.0;" width="10" x="508.875" y="131.7199"/><rect fill="#FFFFFF" height="557.6397" style="stroke:#181818;stroke-width:1.0;" width="10" x="902.5" y="172.9599"/><rect fill="#FFFFFF" height="329.4398" style="stroke:#181818;stroke-width:1.0;" width="10" x="1381.125" y="266.4398"/><rect fill="#FFFFFF" height="30" style="stroke:#181818;stroke-width:1.0;" width="10" x="1754.75" y="307.6798"/><rect fill="#FFFFFF" height="41.24" style="stroke:#181818;stroke-width:1.0;" width="10" x="1754.75" y="502.3997"/><rect fill="#FFFFFF" height="41.24" style="stroke:#181818;stroke-width:1.0;" width="10" x="1754.75" y="637.1197"/><rect fill="#FFFFFF" height="30" style="stroke:#181818;stroke-width:1.0;" width="10" x="2569.75" y="431.1598"/><line style="stroke:#181818;stroke-width:0.5;stroke-dasharray:5.0,5.0;" x1="161.75" x2="161.75" y1="47.24" y2="831.0796"/><line style="stroke:#181818;stroke-width:0.5;stroke-dasharray:5.0,5.0;" x1="513.875" x2="513.875" y1="47.24" y2="831.0796"/><line style="stroke:#181818;stroke-width:0.5;stroke-dasharray:5.0,5.0;" x1="907" x2="907" y1="47.24" y2="831.0796"/><line style="stroke:#181818;stroke-width:0.5;stroke-dasharray:5.0,5.0;" x1="1152.125" x2="1152.125" y1="217.0799" y2="831.0796"/><line style="stroke:#181818;stroke-width:0.5;stroke-dasharray:5.0,5.0;" x1="1386.125" x2="1386.125" y1="47.24" y2="831.0796"/><line style="stroke:#181818;stroke-width:0.5;stroke-dasharray:5.0,5.0;" x1="1759.75" x2="1759.75" y1="47.24" y2="831.0796"/><line style="stroke:#181818;stroke-width:0.5;stroke-dasharray:5.0,5.0;" x1="2097.75" x2="2097.75" y1="381.7998" y2="831.0796"/><line style="stroke:#181818;stroke-width:0.5;stroke-dasharray:5.0,5.0;" x1="2574.75" x2="2574.75" y1="47.24" y2="831.0796"/><line style="stroke:#181818;stroke-width:0.5;stroke-dasharray:5.0,5.0;" x1="2963.75" x2="2963.75" y1="546.5197" y2="831.0796"/><line style="stroke:#181818;stroke-width:0.5;stroke-dasharray:5.0,5.0;" x1="3301.75" x2="3301.75" y1="681.2397" y2="831.0796"/><line style="stroke:#181818;stroke-width:0.5;stroke-dasharray:5.0,5.0;" x1="3510.75" x2="3510.75" y1="47.24" y2="831.0796"/><rect fill="#E2E2F0" height="41.24" rx="2.5" ry="2.5" style="stroke:#181818;stroke-width:0.5;" width="193" x="65.75" y="5"/><text fill="#000000" font-family="sans-serif" font-size="20" lengthAdjust="spacing" textLength="179" x="72.75" y="33.38">:DeviceModelRoute</text><rect fill="#E2E2F0" height="41.24" rx="2.5" ry="2.5" style="stroke:#181818;stroke-width:0.5;" width="193" x="65.75" y="830.0796"/><text fill="#000000" font-family="sans-serif" font-size="20" lengthAdjust="spacing" textLength="179" x="72.75" y="858.4596">:DeviceModelRoute</text><rect fill="#E2E2F0" height="41.24" rx="2.5" ry="2.5" style="stroke:#181818;stroke-width:0.5;" width="232" x="397.875" y="5"/><text fill="#000000" font-family="sans-serif" font-size="20" lengthAdjust="spacing" textLength="218" x="404.875" y="33.38">:DeviceModelController</text><rect fill="#E2E2F0" height="41.24" rx="2.5" ry="2.5" style="stroke:#181818;stroke-width:0.5;" width="232" x="397.875" y="830.0796"/><text fill="#000000" font-family="sans-serif" font-size="20" lengthAdjust="spacing" textLength="218" x="404.875" y="858.4596">:DeviceModelController</text><rect fill="#E2E2F0" height="41.24" rx="2.5" ry="2.5" style="stroke:#181818;stroke-width:0.5;" width="205" x="805" y="5"/><text fill="#000000" font-family="sans-serif" font-size="20" lengthAdjust="spacing" textLength="191" x="812" y="33.38">:DeviceModelService</text><rect fill="#E2E2F0" height="41.24" rx="2.5" ry="2.5" style="stroke:#181818;stroke-width:0.5;" width="205" x="805" y="830.0796"/><text fill="#000000" font-family="sans-serif" font-size="20" lengthAdjust="spacing" textLength="191" x="812" y="858.4596">:DeviceModelService</text><rect fill="#E2E2F0" height="41.24" rx="2.5" ry="2.5" style="stroke:#181818;stroke-width:0.5;" width="261" x="1022.125" y="830.0796"/><text fill="#000000" font-family="sans-serif" font-size="20" lengthAdjust="spacing" textLength="247" x="1029.125" y="858.4596">:deviceModel:DeviceModel</text><rect fill="#E2E2F0" height="41.24" rx="2.5" ry="2.5" style="stroke:#181818;stroke-width:0.5;" width="186" x="1293.125" y="5"/><text fill="#000000" font-family="sans-serif" font-size="20" lengthAdjust="spacing" textLength="172" x="1300.125" y="33.38">:DeviceModelRepo</text><rect fill="#E2E2F0" height="41.24" rx="2.5" ry="2.5" style="stroke:#181818;stroke-width:0.5;" width="186" x="1293.125" y="830.0796"/><text fill="#000000" font-family="sans-serif" font-size="20" lengthAdjust="spacing" textLength="172" x="1300.125" y="858.4596">:DeviceModelRepo</text><rect fill="#E2E2F0" height="41.24" rx="2.5" ry="2.5" style="stroke:#181818;stroke-width:0.5;" width="180" x="1669.75" y="5"/><text fill="#000000" font-family="sans-serif" font-size="20" lengthAdjust="spacing" textLength="166" x="1676.75" y="33.38">:DeviceModelMap</text><rect fill="#E2E2F0" height="41.24" rx="2.5" ry="2.5" style="stroke:#181818;stroke-width:0.5;" width="180" x="1669.75" y="830.0796"/><text fill="#000000" font-family="sans-serif" font-size="20" lengthAdjust="spacing" textLength="166" x="1676.75" y="858.4596">:DeviceModelMap</text><rect fill="#E2E2F0" height="41.24" rx="2.5" ry="2.5" style="stroke:#181818;stroke-width:0.5;" width="477" x="1859.75" y="830.0796"/><text fill="#000000" font-family="sans-serif" font-size="20" lengthAdjust="spacing" textLength="463" x="1866.75" y="858.4596">deviceModelPersistence:IDeviceModelPersistence</text><rect fill="#E2E2F0" height="41.24" rx="2.5" ry="2.5" style="stroke:#181818;stroke-width:0.5;" width="456" x="2346.75" y="5"/><text fill="#000000" font-family="sans-serif" font-size="20" lengthAdjust="spacing" textLength="442" x="2353.75" y="33.38">:Model&lt;IDeviceModelPersistence &amp; Document&gt;</text><rect fill="#E2E2F0" height="41.24" rx="2.5" ry="2.5" style="stroke:#181818;stroke-width:0.5;" width="456" x="2346.75" y="830.0796"/><text fill="#000000" font-family="sans-serif" font-size="20" lengthAdjust="spacing" textLength="442" x="2353.75" y="858.4596">:Model&lt;IDeviceModelPersistence &amp; Document&gt;</text><rect fill="#E2E2F0" height="41.24" rx="2.5" ry="2.5" style="stroke:#181818;stroke-width:0.5;" width="303" x="2812.75" y="830.0796"/><text fill="#000000" font-family="sans-serif" font-size="20" lengthAdjust="spacing" textLength="289" x="2819.75" y="858.4596">:newDeviceModel:DeviceModel</text><rect fill="#E2E2F0" height="41.24" rx="2.5" ry="2.5" style="stroke:#181818;stroke-width:0.5;" width="352" x="3125.75" y="830.0796"/><text fill="#000000" font-family="sans-serif" font-size="20" lengthAdjust="spacing" textLength="338" x="3132.75" y="858.4596">:deviceModelDTO:IDeviceModelDTO</text><rect fill="#E2E2F0" height="41.24" rx="2.5" ry="2.5" style="stroke:#181818;stroke-width:0.5;" width="47" x="3487.75" y="5"/><text fill="#000000" font-family="sans-serif" font-size="20" lengthAdjust="spacing" textLength="33" x="3494.75" y="33.38">SYS</text><rect fill="#E2E2F0" height="41.24" rx="2.5" ry="2.5" style="stroke:#181818;stroke-width:0.5;" width="47" x="3487.75" y="830.0796"/><text fill="#000000" font-family="sans-serif" font-size="20" lengthAdjust="spacing" textLength="33" x="3494.75" y="858.4596">SYS</text><rect fill="#FFFFFF" height="722.5996" style="stroke:#181818;stroke-width:1.0;" width="10" x="157.25" y="90.4799"/><rect fill="#FFFFFF" height="640.1197" style="stroke:#181818;stroke-width:1.0;" width="10" x="508.875" y="131.7199"/><rect fill="#FFFFFF" height="557.6397" style="stroke:#181818;stroke-width:1.0;" width="10" x="902.5" y="172.9599"/><rect fill="#FFFFFF" height="329.4398" style="stroke:#181818;stroke-width:1.0;" width="10" x="1381.125" y="266.4398"/><rect fill="#FFFFFF" height="30" style="stroke:#181818;stroke-width:1.0;" width="10" x="1754.75" y="307.6798"/><rect fill="#FFFFFF" height="41.24" style="stroke:#181818;stroke-width:1.0;" width="10" x="1754.75" y="502.3997"/><rect fill="#FFFFFF" height="41.24" style="stroke:#181818;stroke-width:1.0;" width="10" x="1754.75" y="637.1197"/><rect fill="#FFFFFF" height="30" style="stroke:#181818;stroke-width:1.0;" width="10" x="2569.75" y="431.1598"/><ellipse cx="3267.125" cy="89.7299" fill="none" rx="4" ry="4" style="stroke:#181818;stroke-width:1.5;"/><polygon fill="#181818" points="3499.25,86.4799,3509.25,90.4799,3499.25,94.4799,3503.25,90.4799" style="stroke:#181818;stroke-width:1.0;"/><line style="stroke:#181818;stroke-width:1.0;" x1="3271.625" x2="3505.25" y1="90.4799" y2="90.4799"/><text fill="#000000" font-family="sans-serif" font-size="20" font-weight="bold" lengthAdjust="spacing" textLength="11.625" x="3274.625" y="82.62">1</text><text fill="#000000" font-family="sans-serif" font-size="20" lengthAdjust="spacing" textLength="196" x="3290.25" y="82.62">POST /device-models</text><polygon fill="#181818" points="496.875,127.7199,506.875,131.7199,496.875,135.7199,500.875,131.7199" style="stroke:#181818;stroke-width:1.0;"/><line style="stroke:#181818;stroke-width:1.0;" x1="167.25" x2="502.875" y1="131.7199" y2="131.7199"/><text fill="#000000" font-family="sans-serif" font-size="20" font-weight="bold" lengthAdjust="spacing" textLength="11.625" x="174.25" y="123.8599">2</text><text fill="#000000" font-family="sans-serif" font-size="20" lengthAdjust="spacing" textLength="307" x="189.875" y="123.8599">createDeviceModel(elevatorDTO)</text><polygon fill="#181818" points="890.5,168.9599,900.5,172.9599,890.5,176.9599,894.5,172.9599" style="stroke:#181818;stroke-width:1.0;"/><line style="stroke:#181818;stroke-width:1.0;" x1="518.875" x2="896.5" y1="172.9599" y2="172.9599"/><text fill="#000000" font-family="sans-serif" font-size="20" font-weight="bold" lengthAdjust="spacing" textLength="11.625" x="525.875" y="165.0999">3</text><text fill="#000000" font-family="sans-serif" font-size="20" lengthAdjust="spacing" textLength="349" x="541.5" y="165.0999">createDeviceModel(deviceModelDTO)</text><polygon fill="#181818" points="1010.125,210.1999,1020.125,214.1999,1010.125,218.1999,1014.125,214.1999" style="stroke:#181818;stroke-width:1.0;"/><line style="stroke:#181818;stroke-width:1.0;" x1="912.5" x2="1016.125" y1="214.1999" y2="214.1999"/><text fill="#000000" font-family="sans-serif" font-size="20" font-weight="bold" lengthAdjust="spacing" textLength="11.625" x="919.5" y="206.3399">4</text><text fill="#000000" font-family="sans-serif" font-size="20" lengthAdjust="spacing" textLength="70" x="935.125" y="206.3399">create()</text><rect fill="#E2E2F0" height="41.24" rx="2.5" ry="2.5" style="stroke:#181818;stroke-width:0.5;" width="261" x="1022.125" y="180.9599"/><text fill="#000000" font-family="sans-serif" font-size="20" lengthAdjust="spacing" textLength="247" x="1029.125" y="209.3399">:deviceModel:DeviceModel</text><polygon fill="#181818" points="1369.125,262.4398,1379.125,266.4398,1369.125,270.4398,1373.125,266.4398" style="stroke:#181818;stroke-width:1.0;"/><line style="stroke:#181818;stroke-width:1.0;" x1="912.5" x2="1375.125" y1="266.4398" y2="266.4398"/><text fill="#000000" font-family="sans-serif" font-size="20" font-weight="bold" lengthAdjust="spacing" textLength="11.625" x="919.5" y="258.5799">5</text><text fill="#000000" font-family="sans-serif" font-size="20" lengthAdjust="spacing" textLength="171" x="935.125" y="258.5799">save(deviceModel)</text><polygon fill="#181818" points="1742.75,303.6798,1752.75,307.6798,1742.75,311.6798,1746.75,307.6798" style="stroke:#181818;stroke-width:1.0;"/><line style="stroke:#181818;stroke-width:1.0;" x1="1391.125" x2="1748.75" y1="307.6798" y2="307.6798"/><text fill="#000000" font-family="sans-serif" font-size="20" font-weight="bold" lengthAdjust="spacing" textLength="11.625" x="1398.125" y="299.8198">6</text><text fill="#000000" font-family="sans-serif" font-size="20" lengthAdjust="spacing" textLength="245" x="1413.75" y="299.8198">toPersitence(deviceModel)</text><polygon fill="#181818" points="1847.75,374.9198,1857.75,378.9198,1847.75,382.9198,1851.75,378.9198" style="stroke:#181818;stroke-width:1.0;"/><line style="stroke:#181818;stroke-width:1.0;" x1="1391.125" x2="1853.75" y1="378.9198" y2="378.9198"/><text fill="#000000" font-family="sans-serif" font-size="20" font-weight="bold" lengthAdjust="spacing" textLength="11.625" x="1398.125" y="371.0598">7</text><text fill="#000000" font-family="sans-serif" font-size="20" lengthAdjust="spacing" textLength="70" x="1413.75" y="371.0598">create()</text><rect fill="#E2E2F0" height="41.24" rx="2.5" ry="2.5" style="stroke:#181818;stroke-width:0.5;" width="477" x="1859.75" y="345.6798"/><text fill="#000000" font-family="sans-serif" font-size="20" lengthAdjust="spacing" textLength="463" x="1866.75" y="374.0598">deviceModelPersistence:IDeviceModelPersistence</text><polygon fill="#181818" points="2557.75,427.1598,2567.75,431.1598,2557.75,435.1598,2561.75,431.1598" style="stroke:#181818;stroke-width:1.0;"/><line style="stroke:#181818;stroke-width:1.0;" x1="1391.125" x2="2563.75" y1="431.1598" y2="431.1598"/><text fill="#000000" font-family="sans-serif" font-size="20" font-weight="bold" lengthAdjust="spacing" textLength="11.625" x="1398.125" y="423.2998">8</text><text fill="#000000" font-family="sans-serif" font-size="20" lengthAdjust="spacing" textLength="294" x="1413.75" y="423.2998">create(deviceModelPersistence)</text><polygon fill="#181818" points="1742.75,498.3997,1752.75,502.3997,1742.75,506.3997,1746.75,502.3997" style="stroke:#181818;stroke-width:1.0;"/><line style="stroke:#181818;stroke-width:1.0;" x1="1391.125" x2="1748.75" y1="502.3997" y2="502.3997"/><text fill="#000000" font-family="sans-serif" font-size="20" font-weight="bold" lengthAdjust="spacing" textLength="11.625" x="1398.125" y="494.5398">9</text><text fill="#000000" font-family="sans-serif" font-size="20" lengthAdjust="spacing" textLength="329" x="1413.75" y="494.5398">toDomain(deviceModelPersistence)</text><polygon fill="#181818" points="2800.75,539.6397,2810.75,543.6397,2800.75,547.6397,2804.75,543.6397" style="stroke:#181818;stroke-width:1.0;"/><line style="stroke:#181818;stroke-width:1.0;" x1="1759.75" x2="2806.75" y1="543.6397" y2="543.6397"/><text fill="#000000" font-family="sans-serif" font-size="20" font-weight="bold" lengthAdjust="spacing" textLength="23.25" x="1766.75" y="535.7797">10</text><text fill="#000000" font-family="sans-serif" font-size="20" lengthAdjust="spacing" textLength="70" x="1794" y="535.7797">create()</text><rect fill="#E2E2F0" height="41.24" rx="2.5" ry="2.5" style="stroke:#181818;stroke-width:0.5;" width="303" x="2812.75" y="510.3997"/><text fill="#000000" font-family="sans-serif" font-size="20" lengthAdjust="spacing" textLength="289" x="2819.75" y="538.7797">:newDeviceModel:DeviceModel</text><polygon fill="#181818" points="923.5,591.8797,913.5,595.8797,923.5,599.8797,919.5,595.8797" style="stroke:#181818;stroke-width:1.0;"/><line style="stroke:#181818;stroke-width:1.0;stroke-dasharray:2.0,2.0;" x1="917.5" x2="1385.125" y1="595.8797" y2="595.8797"/><text fill="#000000" font-family="sans-serif" font-size="20" font-weight="bold" lengthAdjust="spacing" textLength="23.25" x="929.5" y="588.0197">11</text><text fill="#000000" font-family="sans-serif" font-size="20" lengthAdjust="spacing" textLength="159" x="956.75" y="588.0197">newDeviceModel</text><polygon fill="#181818" points="1742.75,633.1197,1752.75,637.1197,1742.75,641.1197,1746.75,637.1197" style="stroke:#181818;stroke-width:1.0;"/><line style="stroke:#181818;stroke-width:1.0;" x1="912.5" x2="1748.75" y1="637.1197" y2="637.1197"/><text fill="#000000" font-family="sans-serif" font-size="20" font-weight="bold" lengthAdjust="spacing" textLength="23.25" x="919.5" y="629.2597">12</text><text fill="#000000" font-family="sans-serif" font-size="20" lengthAdjust="spacing" textLength="224" x="946.75" y="629.2597">toDto(newDeviceModel)</text><polygon fill="#181818" points="3113.75,674.3596,3123.75,678.3596,3113.75,682.3596,3117.75,678.3596" style="stroke:#181818;stroke-width:1.0;"/><line style="stroke:#181818;stroke-width:1.0;" x1="1759.75" x2="3119.75" y1="678.3596" y2="678.3596"/><text fill="#000000" font-family="sans-serif" font-size="20" font-weight="bold" lengthAdjust="spacing" textLength="23.25" x="1766.75" y="670.4997">13</text><text fill="#000000" font-family="sans-serif" font-size="20" lengthAdjust="spacing" textLength="70" x="1794" y="670.4997">create()</text><rect fill="#E2E2F0" height="41.24" rx="2.5" ry="2.5" style="stroke:#181818;stroke-width:0.5;" width="352" x="3125.75" y="645.1197"/><text fill="#000000" font-family="sans-serif" font-size="20" lengthAdjust="spacing" textLength="338" x="3132.75" y="673.4997">:deviceModelDTO:IDeviceModelDTO</text><polygon fill="#181818" points="529.875,726.5996,519.875,730.5996,529.875,734.5996,525.875,730.5996" style="stroke:#181818;stroke-width:1.0;"/><line style="stroke:#181818;stroke-width:1.0;stroke-dasharray:2.0,2.0;" x1="523.875" x2="906.5" y1="730.5996" y2="730.5996"/><text fill="#000000" font-family="sans-serif" font-size="20" font-weight="bold" lengthAdjust="spacing" textLength="23.25" x="535.875" y="722.7396">14</text><text fill="#000000" font-family="sans-serif" font-size="20" lengthAdjust="spacing" textLength="234" x="563.125" y="722.7396">sucess(deviceModelDTO)</text><polygon fill="#181818" points="178.25,767.8396,168.25,771.8396,178.25,775.8396,174.25,771.8396" style="stroke:#181818;stroke-width:1.0;"/><line style="stroke:#181818;stroke-width:1.0;stroke-dasharray:2.0,2.0;" x1="172.25" x2="512.875" y1="771.8396" y2="771.8396"/><text fill="#000000" font-family="sans-serif" font-size="20" font-weight="bold" lengthAdjust="spacing" textLength="23.25" x="184.25" y="763.9796">15</text><text fill="#000000" font-family="sans-serif" font-size="20" lengthAdjust="spacing" textLength="234" x="211.5" y="763.9796">sucess(deviceModelDTO)</text><polygon fill="#181818" points="11,809.0796,1,813.0796,11,817.0796,7,813.0796" style="stroke:#181818;stroke-width:1.0;"/><line style="stroke:#181818;stroke-width:1.0;stroke-dasharray:2.0,2.0;" x1="5" x2="161.25" y1="813.0796" y2="813.0796"/><text fill="#000000" font-family="sans-serif" font-size="20" font-weight="bold" lengthAdjust="spacing" textLength="23.25" x="17" y="805.2196">16</text><text fill="#000000" font-family="sans-serif" font-size="20" lengthAdjust="spacing" textLength="111" x="44.25" y="805.2196">201 Created</text><!--SRC=[ZP9HRu8m58NV-oiQ7nPTGkPy9CPb4vQOg13G9Nliu2uX0YMqk6I_Vkr5iHLSV8FsE_UUtdl48IihLhCYvya1Kfh2Dsjo-SvB6MU_G6TJmXh9owRuWfeeKcP9Lh5IqYZOxtpA11sv7Xop13OyXJpYZOIH1IvtqRh7BLM3ckSvr3OSHnyzDePQVzlWstwrzbeqlQ2cpEOZFmpwRg7YDhPv3NlKXbKs5FfHZ9JHEOHQP492cO2xyWRFhpe5dd-Q2uBp6ohwG3sUD0MKSc5Ns1epAE77ksSCtYxe3KsTMPRL_uYG5-uiQFmPKvU6GRoZJwt2AJGY24jaTcGIsXmGqiP1IN3TBargKBT6rJ7ae0IyLkKd5xd62MfqExNz8Qbjrb0h0T4YfSLXF3vs-l7aV8EhTwbWHp0h6MKqGH1Jk8w0IoN77U0ARgWKI5AmViyrT49iBrrrN7jtCPmWiudchJPuS6tMumNBoZlAAPDQewJRWOaDFgTRZ1qo4yO1diRTMP9yR2k6VQYD_ci2orw29Pe4XEX5mX3fKBI9qil7NDuZmoJE7QUJpARFT8ccKkkj6FW_]--></g></svg>