<?xml version="1.0" encoding="UTF-8" standalone="no"?><svg xmlns="http://www.w3.org/2000/svg" xmlns:xlink="http://www.w3.org/1999/xlink" contentStyleType="text/css" height="3979px" preserveAspectRatio="none" style="width:1321px;height:3979px;background:#FFFFFF;" version="1.1" viewBox="0 0 1321 3979" width="1321px" zoomAndPan="magnify"><defs/><g><!--cluster campus--><g id="cluster_campus"><rect fill="none" height="3174" rx="2.5" ry="2.5" style="stroke:#181818;stroke-width:1.0;" width="1100" x="215" y="8.36"/><text fill="#000000" font-family="sans-serif" font-size="20" font-weight="bold" lengthAdjust="spacing" textLength="183.75" x="673.125" y="31.74">Campus Managing</text></g><!--cluster fleet--><g id="cluster_fleet"><rect fill="none" height="767" rx="2.5" ry="2.5" style="stroke:#181818;stroke-width:1.0;" width="871" x="329.5" y="3206.36"/><text fill="#000000" font-family="sans-serif" font-size="20" font-weight="bold" lengthAdjust="spacing" textLength="150.125" x="689.9375" y="3229.74">Fleet Managing</text></g><g id="elem_createBuilding"><ellipse cx="764.9462" cy="113.5492" fill="#ADD8E6" rx="281.4462" ry="58.6892" style="stroke:#00008B;stroke-width:0.5;"/><text fill="#000000" font-family="sans-serif" font-size="20" font-weight="bold" lengthAdjust="spacing" textLength="527.875" x="499.704" y="120.3436">150. As a campus manager, I want to create a building</text></g><g id="elem_editBuilding"><ellipse cx="764.9435" cy="275.5487" fill="#ADD8E6" rx="328.9435" ry="68.1887" style="stroke:#00008B;stroke-width:0.5;"/><text fill="#000000" font-family="sans-serif" font-size="20" font-weight="bold" lengthAdjust="spacing" textLength="625.5" x="452.1935" y="281.3087">160. As a campus manager, I want to edit a building information</text></g><g id="elem_listBuildings"><ellipse cx="764.9505" cy="436.5501" fill="#ADD8E6" rx="276.4505" ry="57.6901" style="stroke:#00008B;stroke-width:0.5;"/><text fill="#000000" font-family="sans-serif" font-size="20" font-weight="bold" lengthAdjust="spacing" textLength="517.5" x="504.529" y="443.6098">170. As a campus manager, I want to list all buildings</text></g><g id="elem_listBuildingsWithFloors"><ellipse cx="765.1338" cy="638.5868" fill="#ADD8E6" rx="534.1338" ry="109.2268" style="stroke:#00008B;stroke-width:0.5;"/><text fill="#000000" font-family="sans-serif" font-size="20" font-weight="bold" lengthAdjust="spacing" textLength="1041.5" x="244.3838" y="644.3468">180. As a campus manager, I want to list all buildings with given minimum and maximum number of floors</text></g><g id="elem_createFloor"><ellipse cx="765.1569" cy="856.1914" fill="#ADD8E6" rx="354.6569" ry="73.3314" style="stroke:#00008B;stroke-width:0.5;"/><text fill="#000000" font-family="sans-serif" font-size="20" font-weight="bold" lengthAdjust="spacing" textLength="678" x="426.1569" y="861.9514">190. As a campus manager, I want to create a floor in a given building</text></g><g id="elem_editFloor"><ellipse cx="765.1759" cy="1038.4952" fill="#ADD8E6" rx="353.6759" ry="73.1352" style="stroke:#00008B;stroke-width:0.5;"/><text fill="#000000" font-family="sans-serif" font-size="20" font-weight="bold" lengthAdjust="spacing" textLength="676" x="427.1759" y="1044.2552">200. As a campus manager, I want to edit information of a given floor</text></g><g id="elem_listFloors"><ellipse cx="765.2326" cy="1220.2065" fill="#ADD8E6" rx="357.2326" ry="73.8465" style="stroke:#00008B;stroke-width:0.5;"/><text fill="#000000" font-family="sans-serif" font-size="20" font-weight="bold" lengthAdjust="spacing" textLength="678.25" x="423.6076" y="1225.9665">210. As a campus manager, I want to list all floors for a given building</text></g><g id="elem_listFloorsWithConnections"><ellipse cx="765.1896" cy="1417.1979" fill="#ADD8E6" rx="427.1896" ry="87.8379" style="stroke:#00008B;stroke-width:0.5;"/><text fill="#000000" font-family="sans-serif" font-size="20" font-weight="bold" lengthAdjust="spacing" textLength="825.375" x="352.5021" y="1422.9579">220. As a campus manager, I want to list all floors with connection to other buildings</text></g><g id="elem_loadFloorMap"><ellipse cx="765.234" cy="1609.3068" fill="#ADD8E6" rx="332.734" ry="68.9468" style="stroke:#00008B;stroke-width:0.5;"/><text fill="#000000" font-family="sans-serif" font-size="20" font-weight="bold" lengthAdjust="spacing" textLength="633.25" x="448.609" y="1615.0668">230. As a campus manager, I want to load a map for a given floor</text></g><g id="elem_createConnection"><ellipse cx="765.1699" cy="1791.394" fill="#ADD8E6" rx="378.1699" ry="78.034" style="stroke:#00008B;stroke-width:0.5;"/><text fill="#000000" font-family="sans-serif" font-size="20" font-weight="bold" lengthAdjust="spacing" textLength="725.875" x="402.2324" y="1797.154">240. As a campus manager, I want to create a connection between 2 floors</text></g><g id="elem_editConnection"><ellipse cx="764.753" cy="1980.5106" fill="#ADD8E6" rx="366.253" ry="75.6506" style="stroke:#00008B;stroke-width:0.5;"/><text fill="#000000" font-family="sans-serif" font-size="20" font-weight="bold" lengthAdjust="spacing" textLength="701.625" x="413.9405" y="1986.2706">250. As a campus manager, I want to edit a connection between 2 floors</text></g><g id="elem_listBuildingsConnections"><ellipse cx="765.1645" cy="2174.1929" fill="#ADD8E6" rx="402.1645" ry="82.8329" style="stroke:#00008B;stroke-width:0.5;"/><text fill="#000000" font-family="sans-serif" font-size="20" font-weight="bold" lengthAdjust="spacing" textLength="774.625" x="377.852" y="2179.9529">260. As a campus manager, I want to list all the connection between 2 buildings</text></g><g id="elem_createElevator"><ellipse cx="765.0436" cy="2352.2687" fill="#ADD8E6" rx="287.5436" ry="59.9087" style="stroke:#00008B;stroke-width:0.5;"/><text fill="#000000" font-family="sans-serif" font-size="20" font-weight="bold" lengthAdjust="spacing" textLength="540.5" x="493.9179" y="2358.7392">270. As a campus manager, I want to create an elevator</text></g><g id="elem_editElevator"><ellipse cx="764.8496" cy="2505.4299" fill="#ADD8E6" rx="275.8496" ry="57.5699" style="stroke:#00008B;stroke-width:0.5;"/><text fill="#000000" font-family="sans-serif" font-size="20" font-weight="bold" lengthAdjust="spacing" textLength="516.25" x="505.0079" y="2512.5215">280. As a campus manager, I want to edit an elevator</text></g><g id="elem_listElevators"><ellipse cx="765.0539" cy="2678.5708" fill="#ADD8E6" rx="389.0539" ry="80.2108" style="stroke:#00008B;stroke-width:0.5;"/><text fill="#000000" font-family="sans-serif" font-size="20" font-weight="bold" lengthAdjust="spacing" textLength="748" x="391.0539" y="2684.3308">290. As a campus manager, I want to list all the elevators for a given building</text></g><g id="elem_listFloorsReachableByElevator"><ellipse cx="764.8977" cy="2891.5395" fill="#ADD8E6" rx="478.8977" ry="98.1795" style="stroke:#00008B;stroke-width:0.5;"/><text fill="#000000" font-family="sans-serif" font-size="20" font-weight="bold" lengthAdjust="spacing" textLength="930" x="299.8977" y="2897.2995">300. As a campus manager, I want to list all the floors reachable by elevator for a given building</text></g><g id="elem_createRoom"><ellipse cx="765.1675" cy="3095.5935" fill="#ADD8E6" rx="341.6675" ry="70.7335" style="stroke:#00008B;stroke-width:0.5;"/><text fill="#000000" font-family="sans-serif" font-size="20" font-weight="bold" lengthAdjust="spacing" textLength="651.5" x="439.4175" y="3101.3535">310. As a campus manager, I want to create a room in a given floor</text></g><g id="elem_createRobotType"><ellipse cx="764.857" cy="3339.1314" fill="#ADD8E6" rx="419.357" ry="86.2714" style="stroke:#00008B;stroke-width:0.5;"/><text fill="#000000" font-family="sans-serif" font-size="20" font-weight="bold" lengthAdjust="spacing" textLength="809.5" x="360.107" y="3344.8914">350. As a fleet manager, I want to create a new robot type and assign specific tasks</text></g><g id="elem_createRobot"><ellipse cx="765.1006" cy="3535.2801" fill="#ADD8E6" rx="357.6006" ry="73.9201" style="stroke:#00008B;stroke-width:0.5;"/><text fill="#000000" font-family="sans-serif" font-size="20" font-weight="bold" lengthAdjust="spacing" textLength="684" x="423.1006" y="3541.0401">360. As a fleet manager, I want to create a new robot with a given type</text></g><g id="elem_disableRobot"><ellipse cx="765.093" cy="3698.1786" fill="#ADD8E6" rx="257.093" ry="53.8186" style="stroke:#00008B;stroke-width:0.5;"/><text fill="#000000" font-family="sans-serif" font-size="20" font-weight="bold" lengthAdjust="spacing" textLength="477" x="523.593" y="3706.1186">370. As a fleet manager, I want to disable a robot</text></g><g id="elem_searchRobot"><ellipse cx="764.9879" cy="3872.2576" fill="#ADD8E6" rx="409.9879" ry="84.3976" style="stroke:#00008B;stroke-width:0.5;"/><text fill="#000000" font-family="sans-serif" font-size="20" font-weight="bold" lengthAdjust="spacing" textLength="790.5" x="369.7379" y="3878.0176">370. As a fleet manager, I want to search robots for a specific designation or task</text></g><!--entity Fleet--><g id="elem_Fleet"><ellipse cx="88.5" cy="3581.36" fill="#F1F1F1" rx="8" ry="8" style="stroke:#181818;stroke-width:0.5;"/><path d="M88.5,3589.36 L88.5,3616.36 M75.5,3597.36 L101.5,3597.36 M88.5,3616.36 L75.5,3631.36 M88.5,3616.36 L101.5,3631.36 " fill="none" style="stroke:#181818;stroke-width:0.5;"/><text fill="#000000" font-family="sans-serif" font-size="20" lengthAdjust="spacing" textLength="132" x="22.5" y="3654.24">Fleet Manager</text></g><!--entity Campus--><g id="elem_Campus"><ellipse cx="88.5" cy="1574.36" fill="#F1F1F1" rx="8" ry="8" style="stroke:#181818;stroke-width:0.5;"/><path d="M88.5,1582.36 L88.5,1609.36 M75.5,1590.36 L101.5,1590.36 M88.5,1609.36 L75.5,1624.36 M88.5,1609.36 L101.5,1624.36 " fill="none" style="stroke:#181818;stroke-width:0.5;"/><text fill="#000000" font-family="sans-serif" font-size="20" lengthAdjust="spacing" textLength="165" x="6" y="1647.24">Campus Manager</text></g><!--link Campus to createBuilding--><g id="link_Campus_createBuilding"><path d="M89.93,1565.41 C92.59,1336.96 110.03,291.62 207,189.36 C285.1,107 407.2,83.78 517.2,82.98 " fill="none" id="Campus-to-createBuilding" style="stroke:#00008B;stroke-width:1.0;"/><polygon fill="#00008B" points="521.91,82.96,512.8986,78.9857,516.91,82.9743,512.9215,86.9857,521.91,82.96" style="stroke:#00008B;stroke-width:1.0;"/></g><!--link Campus to editBuilding--><g id="link_Campus_editBuilding"><path d="M90.49,1565.65 C95.66,1354.97 122.67,450.84 207,361.36 C268.11,296.51 356.23,266.92 444.4,255.7 " fill="none" id="Campus-to-editBuilding" style="stroke:#00008B;stroke-width:1.0;"/><polygon fill="#00008B" points="449.25,255.11,439.8264,252.2472,444.288,255.7249,440.8102,260.1864,449.25,255.11" style="stroke:#00008B;stroke-width:1.0;"/></g><!--link Campus to listBuildings--><g id="link_Campus_listBuildings"><path d="M91.05,1565.46 C98.36,1370.38 132.17,588.26 207,511.36 C287.06,429.09 411.18,406.6 521.94,406.31 " fill="none" id="Campus-to-listBuildings" style="stroke:#00008B;stroke-width:1.0;"/><polygon fill="#00008B" points="526.7,406.32,517.7,402.32,521.7,406.32,517.7,410.32,526.7,406.32" style="stroke:#00008B;stroke-width:1.0;"/></g><!--link Campus to listBuildingsWithFloors--><g id="link_Campus_listBuildingsWithFloors"><path d="M89.29,1565.61 C89.48,1409.64 98.29,883.83 207,765.36 C233.02,737.01 263.94,714.33 297.69,696.26 " fill="none" id="Campus-to-listBuildingsWithFloors" style="stroke:#00008B;stroke-width:1.0;"/><polygon fill="#00008B" points="301.79,694.11,291.9625,694.7581,297.3645,696.437,295.6856,701.839,301.79,694.11" style="stroke:#00008B;stroke-width:1.0;"/></g><!--link Campus to createFloor--><g id="link_Campus_createFloor"><path d="M90.89,1565.59 C96.09,1432.16 118.81,1034.35 207,947.36 C260.52,894.57 331.98,865.25 405.83,850.07 " fill="none" id="Campus-to-createFloor" style="stroke:#00008B;stroke-width:1.0;"/><polygon fill="#00008B" points="410.58,849.12,400.9679,846.9735,405.6782,850.1061,402.5456,854.8164,410.58,849.12" style="stroke:#00008B;stroke-width:1.0;"/></g><!--link Campus to editFloor--><g id="link_Campus_editFloor"><path d="M94.06,1565.64 C106.13,1458.63 142.51,1187.92 207,1128.36 C261.59,1077.94 332.75,1049.5 405.85,1034.44 " fill="none" id="Campus-to-editFloor" style="stroke:#00008B;stroke-width:1.0;"/><polygon fill="#00008B" points="410.54,1033.5,400.9291,1031.3481,405.6376,1034.4833,402.5024,1039.1919,410.54,1033.5" style="stroke:#00008B;stroke-width:1.0;"/></g><!--link Campus to listFloors--><g id="link_Campus_listFloors"><path d="M93.46,1565.53 C101.92,1499.39 127.99,1375.07 207,1311.36 C262.44,1266.66 331.3,1240 401.48,1224.75 " fill="none" id="Campus-to-listFloors" style="stroke:#00008B;stroke-width:1.0;"/><polygon fill="#00008B" points="406.36,1223.72,396.7302,1221.6542,401.4666,1224.7472,398.3737,1229.4836,406.36,1223.72" style="stroke:#00008B;stroke-width:1.0;"/></g><!--link Campus to listFloorsWithConnections--><g id="link_Campus_listFloorsWithConnections"><path d="M138.42,1565.4 C158.42,1549.58 182.58,1533.03 207,1522.36 C264.44,1497.27 327.78,1478.17 390.52,1463.62 " fill="none" id="Campus-to-listFloorsWithConnections" style="stroke:#00008B;stroke-width:1.0;"/><polygon fill="#00008B" points="395.12,1462.57,385.4547,1460.6775,390.2459,1463.6849,387.2385,1468.4761,395.12,1462.57" style="stroke:#00008B;stroke-width:1.0;"/></g><!--link Campus to loadFloorMap--><g id="link_Campus_loadFloorMap"><path d="M171.2,1609.36 C235.89,1609.36 330.91,1609.36 426,1609.36 " fill="none" id="Campus-to-loadFloorMap" style="stroke:#00008B;stroke-width:1.0;"/><polygon fill="#00008B" points="430.75,1609.36,421.75,1605.36,425.75,1609.36,421.75,1613.36,430.75,1609.36" style="stroke:#00008B;stroke-width:1.0;"/></g><!--link Campus to createConnection--><g id="link_Campus_createConnection"><path d="M138.7,1653.23 C158.64,1668.82 182.68,1685.04 207,1695.36 C272.46,1723.13 345.49,1742.87 416.56,1756.91 " fill="none" id="Campus-to-createConnection" style="stroke:#00008B;stroke-width:1.0;"/><polygon fill="#00008B" points="421.06,1757.78,412.9938,1752.1288,416.1527,1756.8214,411.4601,1759.9804,421.06,1757.78" style="stroke:#00008B;stroke-width:1.0;"/></g><!--link Campus to editConnection--><g id="link_Campus_editConnection"><path d="M94.99,1653.22 C105.25,1715.45 133.41,1828.25 207,1886.36 C260.79,1928.84 326.73,1955.13 394.17,1970.9 " fill="none" id="Campus-to-editConnection" style="stroke:#00008B;stroke-width:1.0;"/><polygon fill="#00008B" points="398.8,1971.96,390.9185,1966.0539,393.9259,1970.8451,389.1347,1973.8525,398.8,1971.96" style="stroke:#00008B;stroke-width:1.0;"/></g><!--link Campus to listBuildingsConnections--><g id="link_Campus_listBuildingsConnections"><path d="M94.55,1653 C107.5,1757.13 145.27,2015.73 207,2073.36 C250.67,2114.13 305,2141.23 362.48,2158.86 " fill="none" id="Campus-to-listBuildingsConnections" style="stroke:#00008B;stroke-width:1.0;"/><polygon fill="#00008B" points="366.96,2160.21,359.4977,2153.7823,362.1728,2158.7667,357.1885,2161.4418,366.96,2160.21" style="stroke:#00008B;stroke-width:1.0;"/></g><!--link Campus to createElevator--><g id="link_Campus_createElevator"><path d="M90.76,1652.95 C95.57,1786.76 117.36,2187.87 207,2274.36 C283.14,2347.83 394.61,2373.07 497.87,2377.76 " fill="none" id="Campus-to-createElevator" style="stroke:#00008B;stroke-width:1.0;"/><polygon fill="#00008B" points="502.83,2377.97,494.0095,2373.5883,497.8346,2377.7559,493.667,2381.581,502.83,2377.97" style="stroke:#00008B;stroke-width:1.0;"/></g><!--link Campus to editElevator--><g id="link_Campus_editElevator"><path d="M89.14,1653.26 C88.85,1807.26 96.36,2319.46 207,2429.36 C287.03,2508.85 408.32,2532.06 517.31,2533.6 " fill="none" id="Campus-to-editElevator" style="stroke:#00008B;stroke-width:1.0;"/><polygon fill="#00008B" points="522.29,2533.65,513.3246,2529.573,517.2902,2533.6071,513.256,2537.5727,522.29,2533.65" style="stroke:#00008B;stroke-width:1.0;"/></g><!--link Campus to listElevators--><g id="link_Campus_listElevators"><path d="M91.77,1653.18 C101.51,1833.51 142.25,2512.03 207,2580.36 C250.92,2626.7 308.46,2655.83 369.88,2673.49 " fill="none" id="Campus-to-listElevators" style="stroke:#00008B;stroke-width:1.0;"/><polygon fill="#00008B" points="374.38,2674.75,366.8029,2668.4581,369.5676,2673.3934,364.6323,2676.158,374.38,2674.75" style="stroke:#00008B;stroke-width:1.0;"/></g><!--link Campus to listFloorsReachableByElevator--><g id="link_Campus_listFloorsReachableByElevator"><path d="M90.89,1653.11 C97.73,1854.98 130.47,2690.35 207,2775.36 C236.96,2808.64 273.79,2833.78 314.1,2852.6 " fill="none" id="Campus-to-listFloorsReachableByElevator" style="stroke:#00008B;stroke-width:1.0;"/><polygon fill="#00008B" points="318.17,2854.47,311.6319,2847.1043,313.6182,2852.401,308.3215,2854.3872,318.17,2854.47" style="stroke:#00008B;stroke-width:1.0;"/></g><!--link Campus to createRoom--><g id="link_Campus_createRoom"><path d="M90.04,1653.3 C93.22,1879.38 112.78,2904.84 207,3006.36 C263.65,3067.4 344.12,3097.7 426.34,3110.96 " fill="none" id="Campus-to-createRoom" style="stroke:#00008B;stroke-width:1.0;"/><polygon fill="#00008B" points="431.27,3111.73,422.9945,3106.39,426.3298,3110.959,421.7608,3114.2943,431.27,3111.73" style="stroke:#00008B;stroke-width:1.0;"/></g><!--link Fleet to createRobotType--><g id="link_Fleet_createRobotType"><path d="M107.4,3572.37 C126.13,3532.2 159.45,3474.47 207,3443.36 C255.55,3411.6 311.29,3388.95 368.33,3372.9 " fill="none" id="Fleet-to-createRobotType" style="stroke:#00008B;stroke-width:1.0;"/><polygon fill="#00008B" points="373.11,3371.58,363.3713,3370.1109,368.2892,3372.9064,365.4936,3377.8243,373.11,3371.58" style="stroke:#00008B;stroke-width:1.0;"/></g><!--link Fleet to createRobot--><g id="link_Fleet_createRobot"><path d="M154.79,3608.52 C223.82,3600.23 337.87,3586.53 448.73,3573.22 " fill="none" id="Fleet-to-createRobot" style="stroke:#00008B;stroke-width:1.0;"/><polygon fill="#00008B" points="453.52,3572.65,444.1056,3569.7572,448.556,3573.2491,445.0641,3577.6996,453.52,3572.65" style="stroke:#00008B;stroke-width:1.0;"/></g><!--link Fleet to disableRobot--><g id="link_Fleet_disableRobot"><path d="M154.79,3624.3 C242.09,3634.91 401.38,3654.28 535.19,3670.54 " fill="none" id="Fleet-to-disableRobot" style="stroke:#00008B;stroke-width:1.0;"/><polygon fill="#00008B" points="540.04,3671.13,531.5841,3666.0804,535.076,3670.5309,530.6256,3674.0228,540.04,3671.13" style="stroke:#00008B;stroke-width:1.0;"/></g><!--link Fleet to searchRobot--><g id="link_Fleet_searchRobot"><path d="M111.13,3660.14 C131.05,3695.65 164,3743.99 207,3770.36 C258.45,3801.91 317.26,3824.19 376.93,3839.84 " fill="none" id="Fleet-to-searchRobot" style="stroke:#00008B;stroke-width:1.0;"/><polygon fill="#00008B" points="381.62,3841.05,373.8968,3834.9383,376.7769,3839.8071,371.9082,3842.6872,381.62,3841.05" style="stroke:#00008B;stroke-width:1.0;"/></g><!--SRC=[dLR9Rjim4BthAmOvDuMNPZqKYDC6AD1SqW8zqz989aoH1ad5TOl-UxbOCYdHiHMVZ3V3zsRXSAJMb6-893KJ-HeBAB0a3TDFWkiVz0_2R99bglM1Hc5E5CBV3CnlGV9r9KN3YqV1X8Jlj5hf1MlGMuKiK7hB5oBNdU51Ih5Du4vJxnYQewp8_cNP_HD3rF1CEAbGtWDHu93i_f7KcqP55Wzb6SDIWnOWRJHGK8cvfe9dcVr3U6NuByBZb5SNzdpkCPjQc-R5z6ho4HuKaDPQUy4Fy0ssX3kTN2BHQ5oM3ML5n-RGnHwAEAzFSs91TS08b9T2riJcuTYjFSbzSvgRKMMu6UlObQEqS4kf8ixRzt32bkeLLFGLETIKqxgfWV327Fxj_lEcNg84KKB9X92967uPWYTdYwAv6z4HHssAP_xwI18jSXAXmcnoPd-2fjWyMWqdsdLfI3yTKKvV6p0wWnIWgzYmIBFPU0tNhrnmxiV5kWYzCYqQNXClQFlpsFd7-lCpz0KfZ4DDDb5wX-fP1wVqJ3OH-QSHDo18Q8bwYqPX5juuxtX88nAwEdjGJybOjoCYroDQPVgHbdfZb8-rwERyAd90Xgz4xnlZuQzxA2AzFRTYFKeB9WdlHbQdPKtFJ5UTLYigoNmoKcm_EQOS-OeipLvPxhe0tjRt4_JI7bpiKidFfoCkkXIY3b-wmnnvbnTZjoirM8B1ScrZAnqKhS1vDmNU-5OG7BScaAKmw6w3xhqdIj6AWzfWJakQWoPghQAuZFjFunrfNhz7qxrWRVusWBvC975pKgAWodMLU7x7jiVUGwUGo7pbkThhsPMbG5kc_IwHhafEpn_oSgPx- - -MoylF_G-Cm19z70HulE6F6OArEr3powmdDG23dPH4-uiZT0hV_85yy8BsOaXRZhw30-Pk_7gyAJn-Fv8PfWPxeEacClD36ABjF2Gj0HfTnGCStfZ_]--></g></svg>