<?xml version="1.0" encoding="UTF-8" standalone="no"?><svg xmlns="http://www.w3.org/2000/svg" xmlns:xlink="http://www.w3.org/1999/xlink" contentStyleType="text/css" height="664px" preserveAspectRatio="none" style="width:1131px;height:664px;background:#FFFFFF;" version="1.1" viewBox="0 0 1131 664" width="1131px" zoomAndPan="magnify"><defs/><g><rect fill="#DDDDDD" height="652.8396" style="stroke:#181818;stroke-width:0.5;" width="448.125" x="670.625" y="6"/><text fill="#000000" font-family="sans-serif" font-size="20" font-weight="bold" lengthAdjust="spacing" textLength="135.5" x="826.9375" y="27.38">«system (C4)»</text><text fill="#000000" font-family="sans-serif" font-size="20" font-weight="bold" lengthAdjust="spacing" textLength="127.25" x="831.0625" y="54.62">RobDroneGo</text><rect fill="#FFFFFF" height="414.6397" style="stroke:#181818;stroke-width:1.0;" width="10" x="100.5" y="143.9599"/><rect fill="#FFFFFF" height="41.24" style="stroke:#181818;stroke-width:1.0;" width="10" x="749.125" y="177.1999"/><rect fill="#FFFFFF" height="283.9198" style="stroke:#181818;stroke-width:1.0;" width="10" x="749.125" y="259.6798"/><rect fill="#FFFFFF" height="89.7199" style="stroke:#181818;stroke-width:1.0;" width="10" x="1021.75" y="300.9198"/><rect fill="#FFFFFF" height="70.4799" style="stroke:#181818;stroke-width:1.0;" width="10" x="1021.75" y="431.8797"/><rect fill="none" height="235.6798" style="stroke:#000000;stroke-width:1.5;" width="1114.75" x="10" y="315.9198"/><line style="stroke:#181818;stroke-width:0.5;stroke-dasharray:5.0,5.0;" x1="105" x2="105" y1="133.9599" y2="568.5996"/><line style="stroke:#181818;stroke-width:0.5;stroke-dasharray:5.0,5.0;" x1="753.625" x2="753.625" y1="133.9599" y2="568.5996"/><line style="stroke:#181818;stroke-width:0.5;stroke-dasharray:5.0,5.0;" x1="1026.75" x2="1026.75" y1="133.9599" y2="568.5996"/><text fill="#000000" font-family="sans-serif" font-size="20" lengthAdjust="spacing" textLength="165" x="20" y="128.0999">Campus Manager</text><ellipse cx="105.5" cy="55.2199" fill="#E2E2F0" rx="8" ry="8" style="stroke:#181818;stroke-width:0.5;"/><path d="M105.5,63.2199 L105.5,90.2199 M92.5,71.2199 L118.5,71.2199 M105.5,90.2199 L92.5,105.2199 M105.5,90.2199 L118.5,105.2199 " fill="none" style="stroke:#181818;stroke-width:0.5;"/><text fill="#000000" font-family="sans-serif" font-size="20" lengthAdjust="spacing" textLength="165" x="20" y="588.9796">Campus Manager</text><ellipse cx="105.5" cy="603.3396" fill="#E2E2F0" rx="8" ry="8" style="stroke:#181818;stroke-width:0.5;"/><path d="M105.5,611.3396 L105.5,638.3396 M92.5,619.3396 L118.5,619.3396 M105.5,638.3396 L92.5,653.3396 M105.5,638.3396 L118.5,653.3396 " fill="none" style="stroke:#181818;stroke-width:0.5;"/><rect fill="#E2E2F0" height="68.4799" rx="2.5" ry="2.5" style="stroke:#181818;stroke-width:0.5;" width="159" x="674.625" y="64.4799"/><text fill="#000000" font-family="sans-serif" font-size="20" font-style="italic" lengthAdjust="spacing" textLength="145" x="681.625" y="92.8599">«container (C4)»</text><text fill="#000000" font-family="sans-serif" font-size="20" lengthAdjust="spacing" textLength="116" x="696.125" y="120.0999">Visualization</text><rect fill="#E2E2F0" height="68.4799" rx="2.5" ry="2.5" style="stroke:#181818;stroke-width:0.5;" width="159" x="674.625" y="567.5996"/><text fill="#000000" font-family="sans-serif" font-size="20" font-style="italic" lengthAdjust="spacing" textLength="145" x="681.625" y="595.9796">«container (C4)»</text><text fill="#000000" font-family="sans-serif" font-size="20" lengthAdjust="spacing" textLength="116" x="696.125" y="623.2196">Visualization</text><rect fill="#E2E2F0" height="68.4799" rx="2.5" ry="2.5" style="stroke:#181818;stroke-width:0.5;" width="176" x="938.75" y="64.4799"/><text fill="#000000" font-family="sans-serif" font-size="20" font-style="italic" lengthAdjust="spacing" textLength="145" x="954.25" y="92.8599">«container (C4)»</text><text fill="#000000" font-family="sans-serif" font-size="20" lengthAdjust="spacing" textLength="162" x="945.75" y="120.0999">MD Management</text><rect fill="#E2E2F0" height="68.4799" rx="2.5" ry="2.5" style="stroke:#181818;stroke-width:0.5;" width="176" x="938.75" y="567.5996"/><text fill="#000000" font-family="sans-serif" font-size="20" font-style="italic" lengthAdjust="spacing" textLength="145" x="954.25" y="595.9796">«container (C4)»</text><text fill="#000000" font-family="sans-serif" font-size="20" lengthAdjust="spacing" textLength="162" x="945.75" y="623.2196">MD Management</text><rect fill="#FFFFFF" height="414.6397" style="stroke:#181818;stroke-width:1.0;" width="10" x="100.5" y="143.9599"/><rect fill="#FFFFFF" height="41.24" style="stroke:#181818;stroke-width:1.0;" width="10" x="749.125" y="177.1999"/><rect fill="#FFFFFF" height="283.9198" style="stroke:#181818;stroke-width:1.0;" width="10" x="749.125" y="259.6798"/><rect fill="#FFFFFF" height="89.7199" style="stroke:#181818;stroke-width:1.0;" width="10" x="1021.75" y="300.9198"/><rect fill="#FFFFFF" height="70.4799" style="stroke:#181818;stroke-width:1.0;" width="10" x="1021.75" y="431.8797"/><polygon fill="#181818" points="737.125,173.1999,747.125,177.1999,737.125,181.1999,741.125,177.1999" style="stroke:#181818;stroke-width:1.0;"/><line style="stroke:#181818;stroke-width:1.0;" x1="110.5" x2="743.125" y1="177.1999" y2="177.1999"/><text fill="#000000" font-family="sans-serif" font-size="20" font-weight="bold" lengthAdjust="spacing" textLength="11.625" x="117.5" y="169.3399">1</text><text fill="#000000" font-family="sans-serif" font-size="20" lengthAdjust="spacing" textLength="258" x="133.125" y="169.3399">wants to create a connector</text><polygon fill="#181818" points="121.5,214.4398,111.5,218.4398,121.5,222.4398,117.5,218.4398" style="stroke:#181818;stroke-width:1.0;"/><line style="stroke:#181818;stroke-width:1.0;stroke-dasharray:2.0,2.0;" x1="115.5" x2="753.125" y1="218.4398" y2="218.4398"/><text fill="#000000" font-family="sans-serif" font-size="20" font-weight="bold" lengthAdjust="spacing" textLength="11.625" x="127.5" y="210.5799">2</text><text fill="#000000" font-family="sans-serif" font-size="20" lengthAdjust="spacing" textLength="434" x="143.125" y="210.5799">asks for the connector code, floors 1 &amp; 2 codes</text><polygon fill="#181818" points="737.125,255.6798,747.125,259.6798,737.125,263.6798,741.125,259.6798" style="stroke:#181818;stroke-width:1.0;"/><line style="stroke:#181818;stroke-width:1.0;" x1="110.5" x2="743.125" y1="259.6798" y2="259.6798"/><text fill="#000000" font-family="sans-serif" font-size="20" font-weight="bold" lengthAdjust="spacing" textLength="11.625" x="117.5" y="251.8198">3</text><text fill="#000000" font-family="sans-serif" font-size="20" lengthAdjust="spacing" textLength="144" x="133.125" y="251.8198">inserts the data</text><polygon fill="#181818" points="1009.75,296.9198,1019.75,300.9198,1009.75,304.9198,1013.75,300.9198" style="stroke:#181818;stroke-width:1.0;"/><line style="stroke:#181818;stroke-width:1.0;" x1="759.125" x2="1015.75" y1="300.9198" y2="300.9198"/><text fill="#000000" font-family="sans-serif" font-size="20" font-weight="bold" lengthAdjust="spacing" textLength="11.625" x="766.125" y="293.0598">4</text><text fill="#000000" font-family="sans-serif" font-size="20" lengthAdjust="spacing" textLength="228" x="781.75" y="293.0598">POST /connectors {data}</text><path d="M10,315.9198 L79.875,315.9198 L79.875,335.1598 L69.875,345.1598 L10,345.1598 L10,315.9198 " fill="#EEEEEE" style="stroke:#000000;stroke-width:1.5;"/><rect fill="none" height="235.6798" style="stroke:#000000;stroke-width:1.5;" width="1114.75" x="10" y="315.9198"/><text fill="#000000" font-family="sans-serif" font-size="20" font-weight="bold" lengthAdjust="spacing" textLength="24.875" x="25" y="338.2998">alt</text><text fill="#000000" font-family="sans-serif" font-size="20" font-weight="bold" lengthAdjust="spacing" textLength="278" x="94.875" y="339.2998">[a new connector is created]</text><polygon fill="#181818" points="770.125,386.6397,760.125,390.6397,770.125,394.6397,766.125,390.6397" style="stroke:#181818;stroke-width:1.0;"/><line style="stroke:#181818;stroke-width:1.0;stroke-dasharray:2.0,2.0;" x1="764.125" x2="1025.75" y1="390.6397" y2="390.6397"/><text fill="#000000" font-family="sans-serif" font-size="20" font-weight="bold" lengthAdjust="spacing" textLength="11.625" x="776.125" y="382.7797">5</text><text fill="#000000" font-family="sans-serif" font-size="20" lengthAdjust="spacing" textLength="111" x="791.75" y="382.7797">201 Created</text><polygon fill="#181818" points="121.5,427.8797,111.5,431.8797,121.5,435.8797,117.5,431.8797" style="stroke:#181818;stroke-width:1.0;"/><line style="stroke:#181818;stroke-width:1.0;stroke-dasharray:2.0,2.0;" x1="115.5" x2="748.125" y1="431.8797" y2="431.8797"/><text fill="#000000" font-family="sans-serif" font-size="20" font-weight="bold" lengthAdjust="spacing" textLength="11.625" x="127.5" y="424.0197">6</text><text fill="#000000" font-family="sans-serif" font-size="20" lengthAdjust="spacing" textLength="340" x="143.125" y="424.0197">informs the success of the operation</text><line style="stroke:#000000;stroke-width:1.0;stroke-dasharray:2.0,2.0;" x1="10" x2="1124.75" y1="440.8797" y2="440.8797"/><text fill="#000000" font-family="sans-serif" font-size="20" font-weight="bold" lengthAdjust="spacing" textLength="422.125" x="15" y="462.2597">[there is a connector between those floors]</text><polygon fill="#181818" points="770.125,498.3596,760.125,502.3596,770.125,506.3596,766.125,502.3596" style="stroke:#181818;stroke-width:1.0;"/><line style="stroke:#181818;stroke-width:1.0;stroke-dasharray:2.0,2.0;" x1="764.125" x2="1025.75" y1="502.3596" y2="502.3596"/><text fill="#000000" font-family="sans-serif" font-size="20" font-weight="bold" lengthAdjust="spacing" textLength="11.625" x="776.125" y="494.4997">7</text><text fill="#000000" font-family="sans-serif" font-size="20" lengthAdjust="spacing" textLength="154" x="791.75" y="494.4997">400 Bad Request</text><polygon fill="#181818" points="121.5,539.5996,111.5,543.5996,121.5,547.5996,117.5,543.5996" style="stroke:#181818;stroke-width:1.0;"/><line style="stroke:#181818;stroke-width:1.0;stroke-dasharray:2.0,2.0;" x1="115.5" x2="753.125" y1="543.5996" y2="543.5996"/><text fill="#000000" font-family="sans-serif" font-size="20" font-weight="bold" lengthAdjust="spacing" textLength="11.625" x="127.5" y="535.7396">8</text><text fill="#000000" font-family="sans-serif" font-size="20" lengthAdjust="spacing" textLength="599" x="143.125" y="535.7396">shows error message "A connector exists between those floors."</text><!--SRC=[XL9BRjim4Dtp50zQ12rGDuwHLM0OI6qaoC9eaKzNtOobSK9O8bqELRifUg8UeRkSB4EgYUKcG3OIFs_UPpYoicvDWPhQbokkKF6IsZgUUHUlx3rZD3JKHk_QPi71o1CQimvtpTjuMjjRrx2But6fNmwJ2Rg5CLH67p2TWmJ5b9frAvYJeriEXJ4BlqNny4T-IkG6xwR7xn_-VdENVZ4Btl6vBx2ZD80gHrlQDRc8cujC-TLAIxMzfsYzot0rJjPno7GlokQpNAQ_paMo_MePkmfgBoUmFoYoXZ16WmmcIVi46wKJH8yoSBecA8VZb7TNStEHQyQ3GLT4iX8ijIFnZdTuNLNy0SlQ-o0umW56-KXCnVzJFSbR9noI0IMgADA-fa8Kg2bFyENprJKEdxK4lnByzmu_dsd8Ece0nvkUAIl_ebNQGoLC8JBZQ7Y4wVDDps9Y0lfvhTEmJUTIsh9a4VXbtlerX_ngXclXT1GuQVRwY0N73RFJIw-GhZ-gq1VSjtOy7E8JLRZaxorBVCkUtFcDW4DGhKQzwK2WEEqPuAqLRV9hFZuM- -pQTfqPqtyodPX7]--></g></svg>