<?xml version="1.0" encoding="UTF-8" standalone="no"?><svg xmlns="http://www.w3.org/2000/svg" xmlns:xlink="http://www.w3.org/1999/xlink" contentStyleType="text/css" height="915px" preserveAspectRatio="none" style="width:2244px;height:915px;background:#FFFFFF;" version="1.1" viewBox="0 0 2244 915" width="2244px" zoomAndPan="magnify"><defs/><g><rect fill="#FFFFFF" height="761.0796" style="stroke:#181818;stroke-width:1.0;" width="10" x="346.25" y="90.4799"/><rect fill="#FFFFFF" height="678.5996" style="stroke:#181818;stroke-width:1.0;" width="10" x="693.875" y="131.7199"/><rect fill="#FFFFFF" height="596.1197" style="stroke:#181818;stroke-width:1.0;" width="10" x="1041.5" y="172.9599"/><rect fill="#FFFFFF" height="277.4398" style="stroke:#181818;stroke-width:1.0;" width="10" x="1373.125" y="214.1999"/><rect fill="#FFFFFF" height="112.4799" style="stroke:#181818;stroke-width:1.0;" width="10" x="1373.125" y="615.3596"/><rect fill="#FFFFFF" height="30" style="stroke:#181818;stroke-width:1.0;" width="10" x="1607.75" y="420.3997"/><rect fill="#FFFFFF" height="41.24" style="stroke:#181818;stroke-width:1.0;" width="10" x="1758.25" y="255.4398"/><rect fill="#FFFFFF" height="41.24" style="stroke:#181818;stroke-width:1.0;" width="10" x="1758.25" y="337.9198"/><rect fill="#FFFFFF" height="41.24" style="stroke:#181818;stroke-width:1.0;" width="10" x="1958.25" y="532.8797"/><rect fill="#FFFFFF" height="30" style="stroke:#181818;stroke-width:1.0;" width="10" x="2154.75" y="656.5996"/><line style="stroke:#181818;stroke-width:0.5;stroke-dasharray:5.0,5.0;" x1="351.25" x2="351.25" y1="47.24" y2="869.5595"/><line style="stroke:#181818;stroke-width:0.5;stroke-dasharray:5.0,5.0;" x1="698.375" x2="698.375" y1="47.24" y2="869.5595"/><line style="stroke:#181818;stroke-width:0.5;stroke-dasharray:5.0,5.0;" x1="1046.5" x2="1046.5" y1="47.24" y2="869.5595"/><line style="stroke:#181818;stroke-width:0.5;stroke-dasharray:5.0,5.0;" x1="1377.625" x2="1377.625" y1="47.24" y2="869.5595"/><line style="stroke:#181818;stroke-width:0.5;stroke-dasharray:5.0,5.0;" x1="1612.75" x2="1612.75" y1="47.24" y2="869.5595"/><line style="stroke:#181818;stroke-width:0.5;stroke-dasharray:5.0,5.0;" x1="1762.75" x2="1762.75" y1="47.24" y2="869.5595"/><line style="stroke:#181818;stroke-width:0.5;stroke-dasharray:5.0,5.0;" x1="1962.75" x2="1962.75" y1="47.24" y2="869.5595"/><line style="stroke:#181818;stroke-width:0.5;stroke-dasharray:5.0,5.0;" x1="2159.75" x2="2159.75" y1="47.24" y2="869.5595"/><rect fill="#E2E2F0" height="41.24" rx="2.5" ry="2.5" style="stroke:#181818;stroke-width:0.5;" width="170" x="266.25" y="5"/><text fill="#000000" font-family="sans-serif" font-size="20" lengthAdjust="spacing" textLength="156" x="273.25" y="33.38">:ConnectorRoute</text><rect fill="#E2E2F0" height="41.24" rx="2.5" ry="2.5" style="stroke:#181818;stroke-width:0.5;" width="170" x="266.25" y="868.5595"/><text fill="#000000" font-family="sans-serif" font-size="20" lengthAdjust="spacing" textLength="156" x="273.25" y="896.9395">:ConnectorRoute</text><rect fill="#E2E2F0" height="41.24" rx="2.5" ry="2.5" style="stroke:#181818;stroke-width:0.5;" width="209" x="594.375" y="5"/><text fill="#000000" font-family="sans-serif" font-size="20" lengthAdjust="spacing" textLength="195" x="601.375" y="33.38">:ConnectorController</text><rect fill="#E2E2F0" height="41.24" rx="2.5" ry="2.5" style="stroke:#181818;stroke-width:0.5;" width="209" x="594.375" y="868.5595"/><text fill="#000000" font-family="sans-serif" font-size="20" lengthAdjust="spacing" textLength="195" x="601.375" y="896.9395">:ConnectorController</text><rect fill="#E2E2F0" height="41.24" rx="2.5" ry="2.5" style="stroke:#181818;stroke-width:0.5;" width="182" x="955.5" y="5"/><text fill="#000000" font-family="sans-serif" font-size="20" lengthAdjust="spacing" textLength="168" x="962.5" y="33.38">:ConnectorService</text><rect fill="#E2E2F0" height="41.24" rx="2.5" ry="2.5" style="stroke:#181818;stroke-width:0.5;" width="182" x="955.5" y="868.5595"/><text fill="#000000" font-family="sans-serif" font-size="20" lengthAdjust="spacing" textLength="168" x="962.5" y="896.9395">:ConnectorService</text><rect fill="#E2E2F0" height="41.24" rx="2.5" ry="2.5" style="stroke:#181818;stroke-width:0.5;" width="157" x="1299.625" y="5"/><text fill="#000000" font-family="sans-serif" font-size="20" lengthAdjust="spacing" textLength="143" x="1306.625" y="33.38">:ConnectorMap</text><rect fill="#E2E2F0" height="41.24" rx="2.5" ry="2.5" style="stroke:#181818;stroke-width:0.5;" width="157" x="1299.625" y="868.5595"/><text fill="#000000" font-family="sans-serif" font-size="20" lengthAdjust="spacing" textLength="143" x="1306.625" y="896.9395">:ConnectorMap</text><rect fill="#E2E2F0" height="41.24" rx="2.5" ry="2.5" style="stroke:#181818;stroke-width:0.5;" width="116" x="1554.75" y="5"/><text fill="#000000" font-family="sans-serif" font-size="20" lengthAdjust="spacing" textLength="102" x="1561.75" y="33.38">:Connector</text><rect fill="#E2E2F0" height="41.24" rx="2.5" ry="2.5" style="stroke:#181818;stroke-width:0.5;" width="116" x="1554.75" y="868.5595"/><text fill="#000000" font-family="sans-serif" font-size="20" lengthAdjust="spacing" textLength="102" x="1561.75" y="896.9395">:Connector</text><rect fill="#E2E2F0" height="41.24" rx="2.5" ry="2.5" style="stroke:#181818;stroke-width:0.5;" width="165" x="1680.75" y="5"/><text fill="#000000" font-family="sans-serif" font-size="20" lengthAdjust="spacing" textLength="151" x="1687.75" y="33.38">:FloorRepository</text><rect fill="#E2E2F0" height="41.24" rx="2.5" ry="2.5" style="stroke:#181818;stroke-width:0.5;" width="165" x="1680.75" y="868.5595"/><text fill="#000000" font-family="sans-serif" font-size="20" lengthAdjust="spacing" textLength="151" x="1687.75" y="896.9395">:FloorRepository</text><rect fill="#E2E2F0" height="41.24" rx="2.5" ry="2.5" style="stroke:#181818;stroke-width:0.5;" width="215" x="1855.75" y="5"/><text fill="#000000" font-family="sans-serif" font-size="20" lengthAdjust="spacing" textLength="201" x="1862.75" y="33.38">:ConnectorRepository</text><rect fill="#E2E2F0" height="41.24" rx="2.5" ry="2.5" style="stroke:#181818;stroke-width:0.5;" width="215" x="1855.75" y="868.5595"/><text fill="#000000" font-family="sans-serif" font-size="20" lengthAdjust="spacing" textLength="201" x="1862.75" y="896.9395">:ConnectorRepository</text><rect fill="#E2E2F0" height="41.24" rx="2.5" ry="2.5" style="stroke:#181818;stroke-width:0.5;" width="158" x="2080.75" y="5"/><text fill="#000000" font-family="sans-serif" font-size="20" lengthAdjust="spacing" textLength="144" x="2087.75" y="33.38">:ConnectorDTO</text><rect fill="#E2E2F0" height="41.24" rx="2.5" ry="2.5" style="stroke:#181818;stroke-width:0.5;" width="158" x="2080.75" y="868.5595"/><text fill="#000000" font-family="sans-serif" font-size="20" lengthAdjust="spacing" textLength="144" x="2087.75" y="896.9395">:ConnectorDTO</text><rect fill="#FFFFFF" height="761.0796" style="stroke:#181818;stroke-width:1.0;" width="10" x="346.25" y="90.4799"/><rect fill="#FFFFFF" height="678.5996" style="stroke:#181818;stroke-width:1.0;" width="10" x="693.875" y="131.7199"/><rect fill="#FFFFFF" height="596.1197" style="stroke:#181818;stroke-width:1.0;" width="10" x="1041.5" y="172.9599"/><rect fill="#FFFFFF" height="277.4398" style="stroke:#181818;stroke-width:1.0;" width="10" x="1373.125" y="214.1999"/><rect fill="#FFFFFF" height="112.4799" style="stroke:#181818;stroke-width:1.0;" width="10" x="1373.125" y="615.3596"/><rect fill="#FFFFFF" height="30" style="stroke:#181818;stroke-width:1.0;" width="10" x="1607.75" y="420.3997"/><rect fill="#FFFFFF" height="41.24" style="stroke:#181818;stroke-width:1.0;" width="10" x="1758.25" y="255.4398"/><rect fill="#FFFFFF" height="41.24" style="stroke:#181818;stroke-width:1.0;" width="10" x="1758.25" y="337.9198"/><rect fill="#FFFFFF" height="41.24" style="stroke:#181818;stroke-width:1.0;" width="10" x="1958.25" y="532.8797"/><rect fill="#FFFFFF" height="30" style="stroke:#181818;stroke-width:1.0;" width="10" x="2154.75" y="656.5996"/><ellipse cx="142.125" cy="89.7299" fill="none" rx="4" ry="4" style="stroke:#181818;stroke-width:1.5;"/><polygon fill="#181818" points="334.25,86.4799,344.25,90.4799,334.25,94.4799,338.25,90.4799" style="stroke:#181818;stroke-width:1.0;"/><line style="stroke:#181818;stroke-width:1.0;" x1="146.625" x2="340.25" y1="90.4799" y2="90.4799"/><text fill="#000000" font-family="sans-serif" font-size="20" font-weight="bold" lengthAdjust="spacing" textLength="11.625" x="149.625" y="82.62">1</text><text fill="#000000" font-family="sans-serif" font-size="20" lengthAdjust="spacing" textLength="166" x="165.25" y="82.62">POST /connectors</text><polygon fill="#181818" points="681.875,127.7199,691.875,131.7199,681.875,135.7199,685.875,131.7199" style="stroke:#181818;stroke-width:1.0;"/><line style="stroke:#181818;stroke-width:1.0;" x1="356.25" x2="687.875" y1="131.7199" y2="131.7199"/><text fill="#000000" font-family="sans-serif" font-size="20" font-weight="bold" lengthAdjust="spacing" textLength="11.625" x="363.25" y="123.8599">2</text><text fill="#000000" font-family="sans-serif" font-size="20" lengthAdjust="spacing" textLength="303" x="378.875" y="123.8599">createConnector(connectorDTO)</text><polygon fill="#181818" points="1029.5,168.9599,1039.5,172.9599,1029.5,176.9599,1033.5,172.9599" style="stroke:#181818;stroke-width:1.0;"/><line style="stroke:#181818;stroke-width:1.0;" x1="703.875" x2="1035.5" y1="172.9599" y2="172.9599"/><text fill="#000000" font-family="sans-serif" font-size="20" font-weight="bold" lengthAdjust="spacing" textLength="11.625" x="710.875" y="165.0999">3</text><text fill="#000000" font-family="sans-serif" font-size="20" lengthAdjust="spacing" textLength="303" x="726.5" y="165.0999">createConnector(connectorDTO)</text><polygon fill="#181818" points="1361.125,210.1999,1371.125,214.1999,1361.125,218.1999,1365.125,214.1999" style="stroke:#181818;stroke-width:1.0;"/><line style="stroke:#181818;stroke-width:1.0;" x1="1051.5" x2="1367.125" y1="214.1999" y2="214.1999"/><text fill="#000000" font-family="sans-serif" font-size="20" font-weight="bold" lengthAdjust="spacing" textLength="11.625" x="1058.5" y="206.3399">4</text><text fill="#000000" font-family="sans-serif" font-size="20" lengthAdjust="spacing" textLength="287" x="1074.125" y="206.3399">mapToDomain(connectorDTO)</text><polygon fill="#181818" points="1746.25,251.4398,1756.25,255.4398,1746.25,259.4398,1750.25,255.4398" style="stroke:#181818;stroke-width:1.0;"/><line style="stroke:#181818;stroke-width:1.0;" x1="1383.125" x2="1752.25" y1="255.4398" y2="255.4398"/><text fill="#000000" font-family="sans-serif" font-size="20" font-weight="bold" lengthAdjust="spacing" textLength="11.625" x="1390.125" y="247.5799">5</text><text fill="#000000" font-family="sans-serif" font-size="20" lengthAdjust="spacing" textLength="222" x="1405.75" y="247.5799">findByCode(floor1Code)</text><polygon fill="#181818" points="1394.125,292.6798,1384.125,296.6798,1394.125,300.6798,1390.125,296.6798" style="stroke:#181818;stroke-width:1.0;"/><line style="stroke:#181818;stroke-width:1.0;stroke-dasharray:2.0,2.0;" x1="1388.125" x2="1762.25" y1="296.6798" y2="296.6798"/><text fill="#000000" font-family="sans-serif" font-size="20" font-weight="bold" lengthAdjust="spacing" textLength="11.625" x="1400.125" y="288.8198">6</text><text fill="#000000" font-family="sans-serif" font-size="20" lengthAdjust="spacing" textLength="55" x="1415.75" y="288.8198">floor1</text><polygon fill="#181818" points="1746.25,333.9198,1756.25,337.9198,1746.25,341.9198,1750.25,337.9198" style="stroke:#181818;stroke-width:1.0;"/><line style="stroke:#181818;stroke-width:1.0;" x1="1383.125" x2="1752.25" y1="337.9198" y2="337.9198"/><text fill="#000000" font-family="sans-serif" font-size="20" font-weight="bold" lengthAdjust="spacing" textLength="11.625" x="1390.125" y="330.0598">7</text><text fill="#000000" font-family="sans-serif" font-size="20" lengthAdjust="spacing" textLength="222" x="1405.75" y="330.0598">findByCode(floor2Code)</text><polygon fill="#181818" points="1394.125,375.1598,1384.125,379.1598,1394.125,383.1598,1390.125,379.1598" style="stroke:#181818;stroke-width:1.0;"/><line style="stroke:#181818;stroke-width:1.0;stroke-dasharray:2.0,2.0;" x1="1388.125" x2="1762.25" y1="379.1598" y2="379.1598"/><text fill="#000000" font-family="sans-serif" font-size="20" font-weight="bold" lengthAdjust="spacing" textLength="11.625" x="1400.125" y="371.2998">8</text><text fill="#000000" font-family="sans-serif" font-size="20" lengthAdjust="spacing" textLength="55" x="1415.75" y="371.2998">floor2</text><polygon fill="#181818" points="1595.75,416.3997,1605.75,420.3997,1595.75,424.3997,1599.75,420.3997" style="stroke:#181818;stroke-width:1.0;"/><line style="stroke:#181818;stroke-width:1.0;" x1="1383.125" x2="1601.75" y1="420.3997" y2="420.3997"/><text fill="#000000" font-family="sans-serif" font-size="20" font-weight="bold" lengthAdjust="spacing" textLength="11.625" x="1390.125" y="412.5398">9</text><text fill="#000000" font-family="sans-serif" font-size="20" lengthAdjust="spacing" textLength="190" x="1405.75" y="412.5398">create(floor1, floor2)</text><polygon fill="#181818" points="1062.5,487.6397,1052.5,491.6397,1062.5,495.6397,1058.5,491.6397" style="stroke:#181818;stroke-width:1.0;"/><line style="stroke:#181818;stroke-width:1.0;stroke-dasharray:2.0,2.0;" x1="1056.5" x2="1377.125" y1="491.6397" y2="491.6397"/><text fill="#000000" font-family="sans-serif" font-size="20" font-weight="bold" lengthAdjust="spacing" textLength="23.25" x="1068.5" y="483.7797">10</text><text fill="#000000" font-family="sans-serif" font-size="20" lengthAdjust="spacing" textLength="97" x="1095.75" y="483.7797">Connector</text><polygon fill="#181818" points="1946.25,528.8797,1956.25,532.8797,1946.25,536.8797,1950.25,532.8797" style="stroke:#181818;stroke-width:1.0;"/><line style="stroke:#181818;stroke-width:1.0;" x1="1051.5" x2="1952.25" y1="532.8797" y2="532.8797"/><text fill="#000000" font-family="sans-serif" font-size="20" font-weight="bold" lengthAdjust="spacing" textLength="23.25" x="1058.5" y="525.0197">11</text><text fill="#000000" font-family="sans-serif" font-size="20" lengthAdjust="spacing" textLength="148" x="1085.75" y="525.0197">save(connector)</text><polygon fill="#181818" points="1062.5,570.1197,1052.5,574.1197,1062.5,578.1197,1058.5,574.1197" style="stroke:#181818;stroke-width:1.0;"/><line style="stroke:#181818;stroke-width:1.0;stroke-dasharray:2.0,2.0;" x1="1056.5" x2="1962.25" y1="574.1197" y2="574.1197"/><text fill="#000000" font-family="sans-serif" font-size="20" font-weight="bold" lengthAdjust="spacing" textLength="23.25" x="1068.5" y="566.2597">12</text><text fill="#000000" font-family="sans-serif" font-size="20" lengthAdjust="spacing" textLength="97" x="1095.75" y="566.2597">Connector</text><polygon fill="#181818" points="1361.125,611.3596,1371.125,615.3596,1361.125,619.3596,1365.125,615.3596" style="stroke:#181818;stroke-width:1.0;"/><line style="stroke:#181818;stroke-width:1.0;" x1="1051.5" x2="1367.125" y1="615.3596" y2="615.3596"/><text fill="#000000" font-family="sans-serif" font-size="20" font-weight="bold" lengthAdjust="spacing" textLength="23.25" x="1058.5" y="607.4997">13</text><text fill="#000000" font-family="sans-serif" font-size="20" lengthAdjust="spacing" textLength="213" x="1085.75" y="607.4997">mapToDTO(connector)</text><polygon fill="#181818" points="2142.75,652.5996,2152.75,656.5996,2142.75,660.5996,2146.75,656.5996" style="stroke:#181818;stroke-width:1.0;"/><line style="stroke:#181818;stroke-width:1.0;" x1="1383.125" x2="2148.75" y1="656.5996" y2="656.5996"/><text fill="#000000" font-family="sans-serif" font-size="20" font-weight="bold" lengthAdjust="spacing" textLength="23.25" x="1390.125" y="648.7396">14</text><text fill="#000000" font-family="sans-serif" font-size="20" lengthAdjust="spacing" textLength="70" x="1417.375" y="648.7396">create()</text><polygon fill="#181818" points="1062.5,723.8396,1052.5,727.8396,1062.5,731.8396,1058.5,727.8396" style="stroke:#181818;stroke-width:1.0;"/><line style="stroke:#181818;stroke-width:1.0;stroke-dasharray:2.0,2.0;" x1="1056.5" x2="1377.125" y1="727.8396" y2="727.8396"/><text fill="#000000" font-family="sans-serif" font-size="20" font-weight="bold" lengthAdjust="spacing" textLength="23.25" x="1068.5" y="719.9796">15</text><text fill="#000000" font-family="sans-serif" font-size="20" lengthAdjust="spacing" textLength="139" x="1095.75" y="719.9796">ConnectorDTO</text><polygon fill="#181818" points="714.875,765.0796,704.875,769.0796,714.875,773.0796,710.875,769.0796" style="stroke:#181818;stroke-width:1.0;"/><line style="stroke:#181818;stroke-width:1.0;stroke-dasharray:2.0,2.0;" x1="708.875" x2="1045.5" y1="769.0796" y2="769.0796"/><text fill="#000000" font-family="sans-serif" font-size="20" font-weight="bold" lengthAdjust="spacing" textLength="23.25" x="720.875" y="761.2196">16</text><text fill="#000000" font-family="sans-serif" font-size="20" lengthAdjust="spacing" textLength="139" x="748.125" y="761.2196">ConnectorDTO</text><polygon fill="#181818" points="367.25,806.3195,357.25,810.3195,367.25,814.3195,363.25,810.3195" style="stroke:#181818;stroke-width:1.0;"/><line style="stroke:#181818;stroke-width:1.0;stroke-dasharray:2.0,2.0;" x1="361.25" x2="697.875" y1="810.3195" y2="810.3195"/><text fill="#000000" font-family="sans-serif" font-size="20" font-weight="bold" lengthAdjust="spacing" textLength="23.25" x="373.25" y="802.4596">17</text><text fill="#000000" font-family="sans-serif" font-size="20" lengthAdjust="spacing" textLength="139" x="400.5" y="802.4596">ConnectorDTO</text><polygon fill="#181818" points="11,847.5595,1,851.5595,11,855.5595,7,851.5595" style="stroke:#181818;stroke-width:1.0;"/><line style="stroke:#181818;stroke-width:1.0;stroke-dasharray:2.0,2.0;" x1="5" x2="350.25" y1="851.5595" y2="851.5595"/><text fill="#000000" font-family="sans-serif" font-size="20" font-weight="bold" lengthAdjust="spacing" textLength="23.25" x="17" y="843.6995">18</text><text fill="#000000" font-family="sans-serif" font-size="20" lengthAdjust="spacing" textLength="300" x="44.25" y="843.6995">200 OK (ConnectorDTO as JSON)</text><!--SRC=[fPHVJuCm5CNV-obkzhGbBiuz4gDHnXxKoJBGzmfTqenH0cN9_FJstqhfS6fy8-tldDwUosspesM5QxmlMBOZEUHaYzk2Brd94_f9O3v3kEMiRFSVf4P8e9ncjC8bXqtybaQ06nW58IjBad5MRrZBoQY7XUdcnQF41wzPKP2wZoRleKScf3xGp7TSFQmzReMhFkCNrjzTRg9rh8bbmKJPf68D5TYnptLOTyDlq4Ngas9bXD0zczwPg09OnqaArzc9Q13EE3rWJZI141XKQ5Hk0MGr4VlMT9mvzXF1MmV9ImFGIk4Wu_pPmB4G0kq0IYkBa547iCTLoXPiZsave7UB4Fp90hHQkEYu0zZICdyyXYmduwsC_KP-JYnkNHHlbutFxNJQ6Icr9NBYINzTmVnV5Sp_K45aMs7kVcKy1awFXdoZpbCsHnPZkcDxYyv4RZzCIyq56dmWNI_F6jcx_-ay8xrmddlteLyeZI-SgOhrSvDpPPCRo4hi3wKbbt_CgzCEHgRcIEhq89t9796P73sywYWzlPx6FKQEAm1IkPhdOJwRGVmCOrSb7vMd97wT83TczLfy0G00]--></g></svg>