<?xml version="1.0" encoding="UTF-8" standalone="no"?><svg xmlns="http://www.w3.org/2000/svg" xmlns:xlink="http://www.w3.org/1999/xlink" contentStyleType="text/css" height="254px" preserveAspectRatio="none" style="width:511px;height:254px;background:#FFFFFF;" version="1.1" viewBox="0 0 511 254" width="511px" zoomAndPan="magnify"><defs/><g><rect fill="#FFFFFF" height="111.8438" style="stroke:#181818;stroke-width:1.0;" width="10" x="221" y="82.5625"/><rect fill="#FFFFFF" height="37.2813" style="stroke:#181818;stroke-width:1.0;" width="10" x="479" y="119.8438"/><line style="stroke:#181818;stroke-width:0.5;stroke-dasharray:5.0,5.0;" x1="225.5" x2="225.5" y1="43.2813" y2="212.4063"/><line style="stroke:#181818;stroke-width:0.5;stroke-dasharray:5.0,5.0;" x1="483.5" x2="483.5" y1="43.2813" y2="212.4063"/><rect fill="#E2E2F0" height="37.2813" rx="2.5" ry="2.5" style="stroke:#181818;stroke-width:0.5;" width="41" x="205.5" y="5"/><text fill="#000000" font-family="sans-serif" font-size="20" lengthAdjust="spacing" textLength="27" x="212.5" y="30.5645">BE</text><rect fill="#E2E2F0" height="37.2813" rx="2.5" ry="2.5" style="stroke:#181818;stroke-width:0.5;" width="41" x="205.5" y="211.4063"/><text fill="#000000" font-family="sans-serif" font-size="20" lengthAdjust="spacing" textLength="27" x="212.5" y="236.9707">BE</text><rect fill="#E2E2F0" height="37.2813" rx="2.5" ry="2.5" style="stroke:#181818;stroke-width:0.5;" width="43" x="462.5" y="5"/><text fill="#000000" font-family="sans-serif" font-size="20" lengthAdjust="spacing" textLength="29" x="469.5" y="30.5645">DB</text><rect fill="#E2E2F0" height="37.2813" rx="2.5" ry="2.5" style="stroke:#181818;stroke-width:0.5;" width="43" x="462.5" y="211.4063"/><text fill="#000000" font-family="sans-serif" font-size="20" lengthAdjust="spacing" textLength="29" x="469.5" y="236.9707">DB</text><rect fill="#FFFFFF" height="111.8438" style="stroke:#181818;stroke-width:1.0;" width="10" x="221" y="82.5625"/><rect fill="#FFFFFF" height="37.2813" style="stroke:#181818;stroke-width:1.0;" width="10" x="479" y="119.8438"/><ellipse cx="4.5" cy="81.8125" fill="none" rx="4" ry="4" style="stroke:#181818;stroke-width:1.5;"/><polygon fill="#181818" points="209,78.5625,219,82.5625,209,86.5625,213,82.5625" style="stroke:#181818;stroke-width:1.0;"/><line style="stroke:#181818;stroke-width:1.0;" x1="9" x2="215" y1="82.5625" y2="82.5625"/><text fill="#000000" font-family="sans-serif" font-size="20" font-weight="bold" lengthAdjust="spacing" textLength="14" x="12" y="75.8457">1</text><text fill="#000000" font-family="sans-serif" font-size="20" lengthAdjust="spacing" textLength="176" x="30" y="75.8457">POST /connectors</text><polygon fill="#181818" points="467,115.8438,477,119.8438,467,123.8438,471,119.8438" style="stroke:#181818;stroke-width:1.0;"/><line style="stroke:#181818;stroke-width:1.0;" x1="231" x2="473" y1="119.8438" y2="119.8438"/><text fill="#000000" font-family="sans-serif" font-size="20" font-weight="bold" lengthAdjust="spacing" textLength="14" x="238" y="113.127">2</text><text fill="#000000" font-family="sans-serif" font-size="20" lengthAdjust="spacing" textLength="211" x="256" y="113.127">insert new connector</text><polygon fill="#181818" points="242,153.125,232,157.125,242,161.125,238,157.125" style="stroke:#181818;stroke-width:1.0;"/><line style="stroke:#181818;stroke-width:1.0;" x1="236" x2="483" y1="157.125" y2="157.125"/><text fill="#000000" font-family="sans-serif" font-size="20" font-weight="bold" lengthAdjust="spacing" textLength="14" x="248" y="150.4082">3</text><text fill="#000000" font-family="sans-serif" font-size="20" lengthAdjust="spacing" textLength="77" x="266" y="150.4082">success</text><polygon fill="#181818" points="11,190.4063,1,194.4063,11,198.4063,7,194.4063" style="stroke:#181818;stroke-width:1.0;"/><line style="stroke:#181818;stroke-width:1.0;stroke-dasharray:2.0,2.0;" x1="5" x2="225" y1="194.4063" y2="194.4063"/><text fill="#000000" font-family="sans-serif" font-size="20" font-weight="bold" lengthAdjust="spacing" textLength="14" x="17" y="187.6895">4</text><text fill="#000000" font-family="sans-serif" font-size="20" lengthAdjust="spacing" textLength="124" x="35" y="187.6895">201 Created</text><!--SRC=[LSrD2i8m40NW_PnYwBvOkooY45kt2lK2CHaXj2ObcIXuUaV5dsxV-zvC6foVTDINCPY1B5ewwppoBdZktPsmha1d3ZvVJXH193lZ9kqPLOSwOQ6wOXQtwXMtgW3OX7BzT0qUzlqH5oPuJuP3JA0DkwjcaXf0Y41PDkXyeiZewOPV_SEj0X3skPgoCPGIM9g9LLc- -xfQuZQIvFRVoCi7]--></g></svg>