<?xml version="1.0" encoding="UTF-8" standalone="no"?><svg xmlns="http://www.w3.org/2000/svg" xmlns:xlink="http://www.w3.org/1999/xlink" contentStyleType="text/css" height="727px" preserveAspectRatio="none" style="width:1564px;height:727px;background:#FFFFFF;" version="1.1" viewBox="0 0 1564 727" width="1564px" zoomAndPan="magnify"><defs/><g><rect fill="#FFFFFF" height="599.0023" style="stroke:#181818;stroke-width:1.0;" width="10" x="229" y="72.7739"/><rect fill="#FFFFFF" height="535.5902" style="stroke:#181818;stroke-width:1.0;" width="10" x="464" y="104.4799"/><rect fill="#FFFFFF" height="472.1782" style="stroke:#181818;stroke-width:1.0;" width="10" x="699" y="136.186"/><rect fill="#FFFFFF" height="220.2361" style="stroke:#181818;stroke-width:1.0;" width="10" x="923" y="167.892"/><rect fill="#FFFFFF" height="93.412" style="stroke:#181818;stroke-width:1.0;" width="10" x="923" y="483.2461"/><rect fill="#FFFFFF" height="30" style="stroke:#181818;stroke-width:1.0;" width="10" x="1084" y="326.4221"/><rect fill="#FFFFFF" height="31.706" style="stroke:#181818;stroke-width:1.0;" width="10" x="1198.5" y="199.598"/><rect fill="#FFFFFF" height="31.706" style="stroke:#181818;stroke-width:1.0;" width="10" x="1198.5" y="263.01"/><rect fill="#FFFFFF" height="31.706" style="stroke:#181818;stroke-width:1.0;" width="10" x="1348.5" y="419.8341"/><rect fill="#FFFFFF" height="30" style="stroke:#181818;stroke-width:1.0;" width="10" x="1495.5" y="514.9521"/><line style="stroke:#181818;stroke-width:0.5;stroke-dasharray:5.0,5.0;" x1="234" x2="234" y1="39.0679" y2="689.7762"/><line style="stroke:#181818;stroke-width:0.5;stroke-dasharray:5.0,5.0;" x1="469" x2="469" y1="39.0679" y2="689.7762"/><line style="stroke:#181818;stroke-width:0.5;stroke-dasharray:5.0,5.0;" x1="703.5" x2="703.5" y1="39.0679" y2="689.7762"/><line style="stroke:#181818;stroke-width:0.5;stroke-dasharray:5.0,5.0;" x1="927.5" x2="927.5" y1="39.0679" y2="689.7762"/><line style="stroke:#181818;stroke-width:0.5;stroke-dasharray:5.0,5.0;" x1="1088.5" x2="1088.5" y1="39.0679" y2="689.7762"/><line style="stroke:#181818;stroke-width:0.5;stroke-dasharray:5.0,5.0;" x1="1203.5" x2="1203.5" y1="39.0679" y2="689.7762"/><line style="stroke:#181818;stroke-width:0.5;stroke-dasharray:5.0,5.0;" x1="1353.5" x2="1353.5" y1="39.0679" y2="689.7762"/><line style="stroke:#181818;stroke-width:0.5;stroke-dasharray:5.0,5.0;" x1="1500.5" x2="1500.5" y1="39.0679" y2="689.7762"/><rect fill="#E2E2F0" height="33.0679" rx="2.5" ry="2.5" style="stroke:#181818;stroke-width:0.5;" width="126" x="171" y="5"/><text fill="#000000" font-family="sans-serif" font-size="14" lengthAdjust="spacing" textLength="112" x="178" y="26.9659">:ConnectorRoute</text><rect fill="#E2E2F0" height="33.0679" rx="2.5" ry="2.5" style="stroke:#181818;stroke-width:0.5;" width="126" x="171" y="688.7762"/><text fill="#000000" font-family="sans-serif" font-size="14" lengthAdjust="spacing" textLength="112" x="178" y="710.7421">:ConnectorRoute</text><rect fill="#E2E2F0" height="33.0679" rx="2.5" ry="2.5" style="stroke:#181818;stroke-width:0.5;" width="154" x="392" y="5"/><text fill="#000000" font-family="sans-serif" font-size="14" lengthAdjust="spacing" textLength="140" x="399" y="26.9659">:ConnectorController</text><rect fill="#E2E2F0" height="33.0679" rx="2.5" ry="2.5" style="stroke:#181818;stroke-width:0.5;" width="154" x="392" y="688.7762"/><text fill="#000000" font-family="sans-serif" font-size="14" lengthAdjust="spacing" textLength="140" x="399" y="710.7421">:ConnectorController</text><rect fill="#E2E2F0" height="33.0679" rx="2.5" ry="2.5" style="stroke:#181818;stroke-width:0.5;" width="135" x="636.5" y="5"/><text fill="#000000" font-family="sans-serif" font-size="14" lengthAdjust="spacing" textLength="121" x="643.5" y="26.9659">:ConnectorService</text><rect fill="#E2E2F0" height="33.0679" rx="2.5" ry="2.5" style="stroke:#181818;stroke-width:0.5;" width="135" x="636.5" y="688.7762"/><text fill="#000000" font-family="sans-serif" font-size="14" lengthAdjust="spacing" textLength="121" x="643.5" y="710.7421">:ConnectorService</text><rect fill="#E2E2F0" height="33.0679" rx="2.5" ry="2.5" style="stroke:#181818;stroke-width:0.5;" width="117" x="869.5" y="5"/><text fill="#000000" font-family="sans-serif" font-size="14" lengthAdjust="spacing" textLength="103" x="876.5" y="26.9659">:ConnectorMap</text><rect fill="#E2E2F0" height="33.0679" rx="2.5" ry="2.5" style="stroke:#181818;stroke-width:0.5;" width="117" x="869.5" y="688.7762"/><text fill="#000000" font-family="sans-serif" font-size="14" lengthAdjust="spacing" textLength="103" x="876.5" y="710.7421">:ConnectorMap</text><rect fill="#E2E2F0" height="33.0679" rx="2.5" ry="2.5" style="stroke:#181818;stroke-width:0.5;" width="87" x="1045.5" y="5"/><text fill="#000000" font-family="sans-serif" font-size="14" lengthAdjust="spacing" textLength="73" x="1052.5" y="26.9659">:Connector</text><rect fill="#E2E2F0" height="33.0679" rx="2.5" ry="2.5" style="stroke:#181818;stroke-width:0.5;" width="87" x="1045.5" y="688.7762"/><text fill="#000000" font-family="sans-serif" font-size="14" lengthAdjust="spacing" textLength="73" x="1052.5" y="710.7421">:Connector</text><rect fill="#E2E2F0" height="33.0679" rx="2.5" ry="2.5" style="stroke:#181818;stroke-width:0.5;" width="122" x="1142.5" y="5"/><text fill="#000000" font-family="sans-serif" font-size="14" lengthAdjust="spacing" textLength="108" x="1149.5" y="26.9659">:FloorRepository</text><rect fill="#E2E2F0" height="33.0679" rx="2.5" ry="2.5" style="stroke:#181818;stroke-width:0.5;" width="122" x="1142.5" y="688.7762"/><text fill="#000000" font-family="sans-serif" font-size="14" lengthAdjust="spacing" textLength="108" x="1149.5" y="710.7421">:FloorRepository</text><rect fill="#E2E2F0" height="33.0679" rx="2.5" ry="2.5" style="stroke:#181818;stroke-width:0.5;" width="158" x="1274.5" y="5"/><text fill="#000000" font-family="sans-serif" font-size="14" lengthAdjust="spacing" textLength="144" x="1281.5" y="26.9659">:ConnectorRepository</text><rect fill="#E2E2F0" height="33.0679" rx="2.5" ry="2.5" style="stroke:#181818;stroke-width:0.5;" width="158" x="1274.5" y="688.7762"/><text fill="#000000" font-family="sans-serif" font-size="14" lengthAdjust="spacing" textLength="144" x="1281.5" y="710.7421">:ConnectorRepository</text><rect fill="#E2E2F0" height="33.0679" rx="2.5" ry="2.5" style="stroke:#181818;stroke-width:0.5;" width="116" x="1442.5" y="5"/><text fill="#000000" font-family="sans-serif" font-size="14" lengthAdjust="spacing" textLength="102" x="1449.5" y="26.9659">:ConnectorDTO</text><rect fill="#E2E2F0" height="33.0679" rx="2.5" ry="2.5" style="stroke:#181818;stroke-width:0.5;" width="116" x="1442.5" y="688.7762"/><text fill="#000000" font-family="sans-serif" font-size="14" lengthAdjust="spacing" textLength="102" x="1449.5" y="710.7421">:ConnectorDTO</text><rect fill="#FFFFFF" height="599.0023" style="stroke:#181818;stroke-width:1.0;" width="10" x="229" y="72.7739"/><rect fill="#FFFFFF" height="535.5902" style="stroke:#181818;stroke-width:1.0;" width="10" x="464" y="104.4799"/><rect fill="#FFFFFF" height="472.1782" style="stroke:#181818;stroke-width:1.0;" width="10" x="699" y="136.186"/><rect fill="#FFFFFF" height="220.2361" style="stroke:#181818;stroke-width:1.0;" width="10" x="923" y="167.892"/><rect fill="#FFFFFF" height="93.412" style="stroke:#181818;stroke-width:1.0;" width="10" x="923" y="483.2461"/><rect fill="#FFFFFF" height="30" style="stroke:#181818;stroke-width:1.0;" width="10" x="1084" y="326.4221"/><rect fill="#FFFFFF" height="31.706" style="stroke:#181818;stroke-width:1.0;" width="10" x="1198.5" y="199.598"/><rect fill="#FFFFFF" height="31.706" style="stroke:#181818;stroke-width:1.0;" width="10" x="1198.5" y="263.01"/><rect fill="#FFFFFF" height="31.706" style="stroke:#181818;stroke-width:1.0;" width="10" x="1348.5" y="419.8341"/><rect fill="#FFFFFF" height="30" style="stroke:#181818;stroke-width:1.0;" width="10" x="1495.5" y="514.9521"/><ellipse cx="88.5" cy="72.0239" fill="none" rx="4" ry="4" style="stroke:#181818;stroke-width:1.5;"/><polygon fill="#181818" points="217,68.7739,227,72.7739,217,76.7739,221,72.7739" style="stroke:#181818;stroke-width:1.0;"/><line style="stroke:#181818;stroke-width:1.0;" x1="93" x2="223" y1="72.7739" y2="72.7739"/><text fill="#000000" font-family="sans-serif" font-size="13" font-weight="bold" lengthAdjust="spacing" textLength="7" x="96" y="66.9649">1</text><text fill="#000000" font-family="sans-serif" font-size="13" lengthAdjust="spacing" textLength="107" x="107" y="66.9649">POST /connectors</text><polygon fill="#181818" points="452,100.4799,462,104.4799,452,108.4799,456,104.4799" style="stroke:#181818;stroke-width:1.0;"/><line style="stroke:#181818;stroke-width:1.0;" x1="239" x2="458" y1="104.4799" y2="104.4799"/><text fill="#000000" font-family="sans-serif" font-size="13" font-weight="bold" lengthAdjust="spacing" textLength="7" x="246" y="98.6709">2</text><text fill="#000000" font-family="sans-serif" font-size="13" lengthAdjust="spacing" textLength="195" x="257" y="98.6709">createConnector(connectorDTO)</text><polygon fill="#181818" points="687,132.186,697,136.186,687,140.186,691,136.186" style="stroke:#181818;stroke-width:1.0;"/><line style="stroke:#181818;stroke-width:1.0;" x1="474" x2="693" y1="136.186" y2="136.186"/><text fill="#000000" font-family="sans-serif" font-size="13" font-weight="bold" lengthAdjust="spacing" textLength="7" x="481" y="130.377">3</text><text fill="#000000" font-family="sans-serif" font-size="13" lengthAdjust="spacing" textLength="195" x="492" y="130.377">createConnector(connectorDTO)</text><polygon fill="#181818" points="911,163.892,921,167.892,911,171.892,915,167.892" style="stroke:#181818;stroke-width:1.0;"/><line style="stroke:#181818;stroke-width:1.0;" x1="709" x2="917" y1="167.892" y2="167.892"/><text fill="#000000" font-family="sans-serif" font-size="13" font-weight="bold" lengthAdjust="spacing" textLength="7" x="716" y="162.083">4</text><text fill="#000000" font-family="sans-serif" font-size="13" lengthAdjust="spacing" textLength="184" x="727" y="162.083">mapToDomain(connectorDTO)</text><polygon fill="#181818" points="1186.5,195.598,1196.5,199.598,1186.5,203.598,1190.5,199.598" style="stroke:#181818;stroke-width:1.0;"/><line style="stroke:#181818;stroke-width:1.0;" x1="933" x2="1192.5" y1="199.598" y2="199.598"/><text fill="#000000" font-family="sans-serif" font-size="13" font-weight="bold" lengthAdjust="spacing" textLength="7" x="940" y="193.789">5</text><text fill="#000000" font-family="sans-serif" font-size="13" lengthAdjust="spacing" textLength="143" x="951" y="193.789">findByCode(floor1Code)</text><polygon fill="#181818" points="944,227.304,934,231.304,944,235.304,940,231.304" style="stroke:#181818;stroke-width:1.0;"/><line style="stroke:#181818;stroke-width:1.0;stroke-dasharray:2.0,2.0;" x1="938" x2="1202.5" y1="231.304" y2="231.304"/><text fill="#000000" font-family="sans-serif" font-size="13" font-weight="bold" lengthAdjust="spacing" textLength="7" x="950" y="225.495">6</text><text fill="#000000" font-family="sans-serif" font-size="13" lengthAdjust="spacing" textLength="35" x="961" y="225.495">floor1</text><polygon fill="#181818" points="1186.5,259.01,1196.5,263.01,1186.5,267.01,1190.5,263.01" style="stroke:#181818;stroke-width:1.0;"/><line style="stroke:#181818;stroke-width:1.0;" x1="933" x2="1192.5" y1="263.01" y2="263.01"/><text fill="#000000" font-family="sans-serif" font-size="13" font-weight="bold" lengthAdjust="spacing" textLength="7" x="940" y="257.201">7</text><text fill="#000000" font-family="sans-serif" font-size="13" lengthAdjust="spacing" textLength="143" x="951" y="257.201">findByCode(floor2Code)</text><polygon fill="#181818" points="944,290.716,934,294.716,944,298.716,940,294.716" style="stroke:#181818;stroke-width:1.0;"/><line style="stroke:#181818;stroke-width:1.0;stroke-dasharray:2.0,2.0;" x1="938" x2="1202.5" y1="294.716" y2="294.716"/><text fill="#000000" font-family="sans-serif" font-size="13" font-weight="bold" lengthAdjust="spacing" textLength="7" x="950" y="288.907">8</text><text fill="#000000" font-family="sans-serif" font-size="13" lengthAdjust="spacing" textLength="35" x="961" y="288.907">floor2</text><polygon fill="#181818" points="1072,322.4221,1082,326.4221,1072,330.4221,1076,326.4221" style="stroke:#181818;stroke-width:1.0;"/><line style="stroke:#181818;stroke-width:1.0;" x1="933" x2="1078" y1="326.4221" y2="326.4221"/><text fill="#000000" font-family="sans-serif" font-size="13" font-weight="bold" lengthAdjust="spacing" textLength="7" x="940" y="320.6131">9</text><text fill="#000000" font-family="sans-serif" font-size="13" lengthAdjust="spacing" textLength="121" x="951" y="320.6131">create(floor1, floor2)</text><polygon fill="#181818" points="720,384.1281,710,388.1281,720,392.1281,716,388.1281" style="stroke:#181818;stroke-width:1.0;"/><line style="stroke:#181818;stroke-width:1.0;stroke-dasharray:2.0,2.0;" x1="714" x2="927" y1="388.1281" y2="388.1281"/><text fill="#000000" font-family="sans-serif" font-size="13" font-weight="bold" lengthAdjust="spacing" textLength="14" x="726" y="382.3191">10</text><text fill="#000000" font-family="sans-serif" font-size="13" lengthAdjust="spacing" textLength="63" x="744" y="382.3191">Connector</text><polygon fill="#181818" points="1336.5,415.8341,1346.5,419.8341,1336.5,423.8341,1340.5,419.8341" style="stroke:#181818;stroke-width:1.0;"/><line style="stroke:#181818;stroke-width:1.0;" x1="709" x2="1342.5" y1="419.8341" y2="419.8341"/><text fill="#000000" font-family="sans-serif" font-size="13" font-weight="bold" lengthAdjust="spacing" textLength="14" x="716" y="414.0251">11</text><text fill="#000000" font-family="sans-serif" font-size="13" lengthAdjust="spacing" textLength="96" x="734" y="414.0251">save(connector)</text><polygon fill="#181818" points="720,447.5401,710,451.5401,720,455.5401,716,451.5401" style="stroke:#181818;stroke-width:1.0;"/><line style="stroke:#181818;stroke-width:1.0;stroke-dasharray:2.0,2.0;" x1="714" x2="1352.5" y1="451.5401" y2="451.5401"/><text fill="#000000" font-family="sans-serif" font-size="13" font-weight="bold" lengthAdjust="spacing" textLength="14" x="726" y="445.7311">12</text><text fill="#000000" font-family="sans-serif" font-size="13" lengthAdjust="spacing" textLength="63" x="744" y="445.7311">Connector</text><polygon fill="#181818" points="911,479.2461,921,483.2461,911,487.2461,915,483.2461" style="stroke:#181818;stroke-width:1.0;"/><line style="stroke:#181818;stroke-width:1.0;" x1="709" x2="917" y1="483.2461" y2="483.2461"/><text fill="#000000" font-family="sans-serif" font-size="13" font-weight="bold" lengthAdjust="spacing" textLength="14" x="716" y="477.4371">13</text><text fill="#000000" font-family="sans-serif" font-size="13" lengthAdjust="spacing" textLength="137" x="734" y="477.4371">mapToDTO(connector)</text><polygon fill="#181818" points="1483.5,510.9521,1493.5,514.9521,1483.5,518.9521,1487.5,514.9521" style="stroke:#181818;stroke-width:1.0;"/><line style="stroke:#181818;stroke-width:1.0;" x1="933" x2="1489.5" y1="514.9521" y2="514.9521"/><text fill="#000000" font-family="sans-serif" font-size="13" font-weight="bold" lengthAdjust="spacing" textLength="14" x="940" y="509.1431">14</text><text fill="#000000" font-family="sans-serif" font-size="13" lengthAdjust="spacing" textLength="45" x="958" y="509.1431">create()</text><polygon fill="#181818" points="720,572.6582,710,576.6582,720,580.6582,716,576.6582" style="stroke:#181818;stroke-width:1.0;"/><line style="stroke:#181818;stroke-width:1.0;stroke-dasharray:2.0,2.0;" x1="714" x2="927" y1="576.6582" y2="576.6582"/><text fill="#000000" font-family="sans-serif" font-size="13" font-weight="bold" lengthAdjust="spacing" textLength="14" x="726" y="570.8492">15</text><text fill="#000000" font-family="sans-serif" font-size="13" lengthAdjust="spacing" textLength="89" x="744" y="570.8492">ConnectorDTO</text><polygon fill="#181818" points="485,604.3642,475,608.3642,485,612.3642,481,608.3642" style="stroke:#181818;stroke-width:1.0;"/><line style="stroke:#181818;stroke-width:1.0;stroke-dasharray:2.0,2.0;" x1="479" x2="703" y1="608.3642" y2="608.3642"/><text fill="#000000" font-family="sans-serif" font-size="13" font-weight="bold" lengthAdjust="spacing" textLength="14" x="491" y="602.5552">16</text><text fill="#000000" font-family="sans-serif" font-size="13" lengthAdjust="spacing" textLength="89" x="509" y="602.5552">ConnectorDTO</text><polygon fill="#181818" points="250,636.0702,240,640.0702,250,644.0702,246,640.0702" style="stroke:#181818;stroke-width:1.0;"/><line style="stroke:#181818;stroke-width:1.0;stroke-dasharray:2.0,2.0;" x1="244" x2="468" y1="640.0702" y2="640.0702"/><text fill="#000000" font-family="sans-serif" font-size="13" font-weight="bold" lengthAdjust="spacing" textLength="14" x="256" y="634.2612">17</text><text fill="#000000" font-family="sans-serif" font-size="13" lengthAdjust="spacing" textLength="89" x="274" y="634.2612">ConnectorDTO</text><polygon fill="#181818" points="11,667.7762,1,671.7762,11,675.7762,7,671.7762" style="stroke:#181818;stroke-width:1.0;"/><line style="stroke:#181818;stroke-width:1.0;stroke-dasharray:2.0,2.0;" x1="5" x2="233" y1="671.7762" y2="671.7762"/><text fill="#000000" font-family="sans-serif" font-size="13" font-weight="bold" lengthAdjust="spacing" textLength="14" x="17" y="665.9672">18</text><text fill="#000000" font-family="sans-serif" font-size="13" lengthAdjust="spacing" textLength="192" x="35" y="665.9672">200 OK (ConnectorDTO as JSON)</text><!--MD5=[8eacd60dbc9ff660bd538ec092263628]
@startuml us10-level3_processes
autonumber

participant ROUTE as ":ConnectorRoute"
participant CTRL as ":ConnectorController"
participant SVC as ":ConnectorService"
participant CMAP as ":ConnectorMap"
participant E as ":Connector"
participant FREPO as ":FloorRepository"
participant REPO as ":ConnectorRepository"
participant DTO as ":ConnectorDTO"

?o-> ROUTE : POST /connectors
activate ROUTE

  ROUTE -> CTRL : createConnector(connectorDTO)
  activate CTRL

    CTRL -> SVC : createConnector(connectorDTO)
    activate SVC

      SVC -> CMAP : mapToDomain(connectorDTO)
      activate CMAP

        CMAP -> FREPO : findByCode(floor1Code)
        activate FREPO
          CMAP <- - FREPO : floor1
        deactivate FREPO

        CMAP -> FREPO : findByCode(floor2Code)
        activate FREPO
          CMAP <- - FREPO : floor2
        deactivate FREPO

        CMAP -> E : create(floor1, floor2)
        activate E
        deactivate E

        SVC <- - CMAP : Connector
      deactivate CMAP

      SVC -> REPO : save(connector)
      activate REPO
        SVC <- - REPO : Connector
      deactivate REPO

      SVC -> CMAP : mapToDTO(connector)
      activate CMAP
        CMAP -> DTO : create()
        activate DTO
        deactivate DTO

        SVC <- - CMAP : ConnectorDTO
      deactivate CMAP

    CTRL <- - SVC : ConnectorDTO
    deactivate SVC

  ROUTE <- - CTRL : ConnectorDTO
  deactivate CTRL
  
<- - ROUTE : 200 OK (ConnectorDTO as JSON)
deactivate ROUTE

@enduml

PlantUML version 1.2022.7(Mon Aug 22 18:01:30 WEST 2022)
(GPL source distribution)
Java Runtime: OpenJDK Runtime Environment
JVM: OpenJDK 64-Bit Server VM
Default Encoding: UTF-8
Language: en
Country: GB
--></g></svg>