<?xml version="1.0" encoding="UTF-8" standalone="no"?><svg xmlns="http://www.w3.org/2000/svg" xmlns:xlink="http://www.w3.org/1999/xlink" contentStyleType="text/css" height="836px" preserveAspectRatio="none" style="width:2405px;height:836px;background:#FFFFFF;" version="1.1" viewBox="0 0 2405 836" width="2405px" zoomAndPan="magnify"><defs/><g><rect fill="#FFFFFF" height="693.7813" style="stroke:#181818;stroke-width:1.0;" width="10" x="377" y="82.5625"/><rect fill="#FFFFFF" height="619.2188" style="stroke:#181818;stroke-width:1.0;" width="10" x="749" y="119.8438"/><rect fill="#FFFFFF" height="544.6563" style="stroke:#181818;stroke-width:1.0;" width="10" x="1121" y="157.125"/><rect fill="#FFFFFF" height="253.6875" style="stroke:#181818;stroke-width:1.0;" width="10" x="1474" y="194.4063"/><rect fill="#FFFFFF" height="104.5625" style="stroke:#181818;stroke-width:1.0;" width="10" x="1474" y="559.9375"/><rect fill="#FFFFFF" height="30" style="stroke:#181818;stroke-width:1.0;" width="10" x="1728" y="380.8125"/><rect fill="#FFFFFF" height="37.2813" style="stroke:#181818;stroke-width:1.0;" width="10" x="1888.5" y="231.6875"/><rect fill="#FFFFFF" height="37.2813" style="stroke:#181818;stroke-width:1.0;" width="10" x="1888.5" y="306.25"/><rect fill="#FFFFFF" height="37.2813" style="stroke:#181818;stroke-width:1.0;" width="10" x="2102" y="485.375"/><rect fill="#FFFFFF" height="30" style="stroke:#181818;stroke-width:1.0;" width="10" x="2310.5" y="597.2188"/><line style="stroke:#181818;stroke-width:0.5;stroke-dasharray:5.0,5.0;" x1="381.5" x2="381.5" y1="43.2813" y2="794.3438"/><line style="stroke:#181818;stroke-width:0.5;stroke-dasharray:5.0,5.0;" x1="753.5" x2="753.5" y1="43.2813" y2="794.3438"/><line style="stroke:#181818;stroke-width:0.5;stroke-dasharray:5.0,5.0;" x1="1125.5" x2="1125.5" y1="43.2813" y2="794.3438"/><line style="stroke:#181818;stroke-width:0.5;stroke-dasharray:5.0,5.0;" x1="1479" x2="1479" y1="43.2813" y2="794.3438"/><line style="stroke:#181818;stroke-width:0.5;stroke-dasharray:5.0,5.0;" x1="1733" x2="1733" y1="43.2813" y2="794.3438"/><line style="stroke:#181818;stroke-width:0.5;stroke-dasharray:5.0,5.0;" x1="1893" x2="1893" y1="43.2813" y2="794.3438"/><line style="stroke:#181818;stroke-width:0.5;stroke-dasharray:5.0,5.0;" x1="2107" x2="2107" y1="43.2813" y2="794.3438"/><line style="stroke:#181818;stroke-width:0.5;stroke-dasharray:5.0,5.0;" x1="2315" x2="2315" y1="43.2813" y2="794.3438"/><rect fill="#E2E2F0" height="37.2813" rx="2.5" ry="2.5" style="stroke:#181818;stroke-width:0.5;" width="183" x="290.5" y="5"/><text fill="#000000" font-family="sans-serif" font-size="20" lengthAdjust="spacing" textLength="169" x="297.5" y="30.5645">:ConnectorRoute</text><rect fill="#E2E2F0" height="37.2813" rx="2.5" ry="2.5" style="stroke:#181818;stroke-width:0.5;" width="183" x="290.5" y="793.3438"/><text fill="#000000" font-family="sans-serif" font-size="20" lengthAdjust="spacing" textLength="169" x="297.5" y="818.9082">:ConnectorRoute</text><rect fill="#E2E2F0" height="37.2813" rx="2.5" ry="2.5" style="stroke:#181818;stroke-width:0.5;" width="223" x="642.5" y="5"/><text fill="#000000" font-family="sans-serif" font-size="20" lengthAdjust="spacing" textLength="209" x="649.5" y="30.5645">:ConnectorController</text><rect fill="#E2E2F0" height="37.2813" rx="2.5" ry="2.5" style="stroke:#181818;stroke-width:0.5;" width="223" x="642.5" y="793.3438"/><text fill="#000000" font-family="sans-serif" font-size="20" lengthAdjust="spacing" textLength="209" x="649.5" y="818.9082">:ConnectorController</text><rect fill="#E2E2F0" height="37.2813" rx="2.5" ry="2.5" style="stroke:#181818;stroke-width:0.5;" width="197" x="1027.5" y="5"/><text fill="#000000" font-family="sans-serif" font-size="20" lengthAdjust="spacing" textLength="183" x="1034.5" y="30.5645">:ConnectorService</text><rect fill="#E2E2F0" height="37.2813" rx="2.5" ry="2.5" style="stroke:#181818;stroke-width:0.5;" width="197" x="1027.5" y="793.3438"/><text fill="#000000" font-family="sans-serif" font-size="20" lengthAdjust="spacing" textLength="183" x="1034.5" y="818.9082">:ConnectorService</text><rect fill="#E2E2F0" height="37.2813" rx="2.5" ry="2.5" style="stroke:#181818;stroke-width:0.5;" width="166" x="1396" y="5"/><text fill="#000000" font-family="sans-serif" font-size="20" lengthAdjust="spacing" textLength="152" x="1403" y="30.5645">:ConnectorMap</text><rect fill="#E2E2F0" height="37.2813" rx="2.5" ry="2.5" style="stroke:#181818;stroke-width:0.5;" width="166" x="1396" y="793.3438"/><text fill="#000000" font-family="sans-serif" font-size="20" lengthAdjust="spacing" textLength="152" x="1403" y="818.9082">:ConnectorMap</text><rect fill="#E2E2F0" height="37.2813" rx="2.5" ry="2.5" style="stroke:#181818;stroke-width:0.5;" width="124" x="1671" y="5"/><text fill="#000000" font-family="sans-serif" font-size="20" lengthAdjust="spacing" textLength="110" x="1678" y="30.5645">:Connector</text><rect fill="#E2E2F0" height="37.2813" rx="2.5" ry="2.5" style="stroke:#181818;stroke-width:0.5;" width="124" x="1671" y="793.3438"/><text fill="#000000" font-family="sans-serif" font-size="20" lengthAdjust="spacing" textLength="110" x="1678" y="818.9082">:Connector</text><rect fill="#E2E2F0" height="37.2813" rx="2.5" ry="2.5" style="stroke:#181818;stroke-width:0.5;" width="177" x="1805" y="5"/><text fill="#000000" font-family="sans-serif" font-size="20" lengthAdjust="spacing" textLength="163" x="1812" y="30.5645">:FloorRepository</text><rect fill="#E2E2F0" height="37.2813" rx="2.5" ry="2.5" style="stroke:#181818;stroke-width:0.5;" width="177" x="1805" y="793.3438"/><text fill="#000000" font-family="sans-serif" font-size="20" lengthAdjust="spacing" textLength="163" x="1812" y="818.9082">:FloorRepository</text><rect fill="#E2E2F0" height="37.2813" rx="2.5" ry="2.5" style="stroke:#181818;stroke-width:0.5;" width="230" x="1992" y="5"/><text fill="#000000" font-family="sans-serif" font-size="20" lengthAdjust="spacing" textLength="216" x="1999" y="30.5645">:ConnectorRepository</text><rect fill="#E2E2F0" height="37.2813" rx="2.5" ry="2.5" style="stroke:#181818;stroke-width:0.5;" width="230" x="1992" y="793.3438"/><text fill="#000000" font-family="sans-serif" font-size="20" lengthAdjust="spacing" textLength="216" x="1999" y="818.9082">:ConnectorRepository</text><rect fill="#E2E2F0" height="37.2813" rx="2.5" ry="2.5" style="stroke:#181818;stroke-width:0.5;" width="167" x="2232" y="5"/><text fill="#000000" font-family="sans-serif" font-size="20" lengthAdjust="spacing" textLength="153" x="2239" y="30.5645">:ConnectorDTO</text><rect fill="#E2E2F0" height="37.2813" rx="2.5" ry="2.5" style="stroke:#181818;stroke-width:0.5;" width="167" x="2232" y="793.3438"/><text fill="#000000" font-family="sans-serif" font-size="20" lengthAdjust="spacing" textLength="153" x="2239" y="818.9082">:ConnectorDTO</text><rect fill="#FFFFFF" height="693.7813" style="stroke:#181818;stroke-width:1.0;" width="10" x="377" y="82.5625"/><rect fill="#FFFFFF" height="619.2188" style="stroke:#181818;stroke-width:1.0;" width="10" x="749" y="119.8438"/><rect fill="#FFFFFF" height="544.6563" style="stroke:#181818;stroke-width:1.0;" width="10" x="1121" y="157.125"/><rect fill="#FFFFFF" height="253.6875" style="stroke:#181818;stroke-width:1.0;" width="10" x="1474" y="194.4063"/><rect fill="#FFFFFF" height="104.5625" style="stroke:#181818;stroke-width:1.0;" width="10" x="1474" y="559.9375"/><rect fill="#FFFFFF" height="30" style="stroke:#181818;stroke-width:1.0;" width="10" x="1728" y="380.8125"/><rect fill="#FFFFFF" height="37.2813" style="stroke:#181818;stroke-width:1.0;" width="10" x="1888.5" y="231.6875"/><rect fill="#FFFFFF" height="37.2813" style="stroke:#181818;stroke-width:1.0;" width="10" x="1888.5" y="306.25"/><rect fill="#FFFFFF" height="37.2813" style="stroke:#181818;stroke-width:1.0;" width="10" x="2102" y="485.375"/><rect fill="#FFFFFF" height="30" style="stroke:#181818;stroke-width:1.0;" width="10" x="2310.5" y="597.2188"/><ellipse cx="160.5" cy="81.8125" fill="none" rx="4" ry="4" style="stroke:#181818;stroke-width:1.5;"/><polygon fill="#181818" points="365,78.5625,375,82.5625,365,86.5625,369,82.5625" style="stroke:#181818;stroke-width:1.0;"/><line style="stroke:#181818;stroke-width:1.0;" x1="165" x2="371" y1="82.5625" y2="82.5625"/><text fill="#000000" font-family="sans-serif" font-size="20" font-weight="bold" lengthAdjust="spacing" textLength="14" x="168" y="75.8457">1</text><text fill="#000000" font-family="sans-serif" font-size="20" lengthAdjust="spacing" textLength="176" x="186" y="75.8457">POST /connectors</text><polygon fill="#181818" points="737,115.8438,747,119.8438,737,123.8438,741,119.8438" style="stroke:#181818;stroke-width:1.0;"/><line style="stroke:#181818;stroke-width:1.0;" x1="387" x2="743" y1="119.8438" y2="119.8438"/><text fill="#000000" font-family="sans-serif" font-size="20" font-weight="bold" lengthAdjust="spacing" textLength="14" x="394" y="113.127">2</text><text fill="#000000" font-family="sans-serif" font-size="20" lengthAdjust="spacing" textLength="325" x="412" y="113.127">createConnector(connectorDTO)</text><polygon fill="#181818" points="1109,153.125,1119,157.125,1109,161.125,1113,157.125" style="stroke:#181818;stroke-width:1.0;"/><line style="stroke:#181818;stroke-width:1.0;" x1="759" x2="1115" y1="157.125" y2="157.125"/><text fill="#000000" font-family="sans-serif" font-size="20" font-weight="bold" lengthAdjust="spacing" textLength="14" x="766" y="150.4082">3</text><text fill="#000000" font-family="sans-serif" font-size="20" lengthAdjust="spacing" textLength="325" x="784" y="150.4082">createConnector(connectorDTO)</text><polygon fill="#181818" points="1462,190.4063,1472,194.4063,1462,198.4063,1466,194.4063" style="stroke:#181818;stroke-width:1.0;"/><line style="stroke:#181818;stroke-width:1.0;" x1="1131" x2="1468" y1="194.4063" y2="194.4063"/><text fill="#000000" font-family="sans-serif" font-size="20" font-weight="bold" lengthAdjust="spacing" textLength="14" x="1138" y="187.6895">4</text><text fill="#000000" font-family="sans-serif" font-size="20" lengthAdjust="spacing" textLength="306" x="1156" y="187.6895">mapToDomain(connectorDTO)</text><polygon fill="#181818" points="1876.5,227.6875,1886.5,231.6875,1876.5,235.6875,1880.5,231.6875" style="stroke:#181818;stroke-width:1.0;"/><line style="stroke:#181818;stroke-width:1.0;" x1="1484" x2="1882.5" y1="231.6875" y2="231.6875"/><text fill="#000000" font-family="sans-serif" font-size="20" font-weight="bold" lengthAdjust="spacing" textLength="14" x="1491" y="224.9707">5</text><text fill="#000000" font-family="sans-serif" font-size="20" lengthAdjust="spacing" textLength="240" x="1509" y="224.9707">findByCode(floor1Code)</text><polygon fill="#181818" points="1495,264.9688,1485,268.9688,1495,272.9688,1491,268.9688" style="stroke:#181818;stroke-width:1.0;"/><line style="stroke:#181818;stroke-width:1.0;stroke-dasharray:2.0,2.0;" x1="1489" x2="1892.5" y1="268.9688" y2="268.9688"/><text fill="#000000" font-family="sans-serif" font-size="20" font-weight="bold" lengthAdjust="spacing" textLength="14" x="1501" y="262.252">6</text><text fill="#000000" font-family="sans-serif" font-size="20" lengthAdjust="spacing" textLength="58" x="1519" y="262.252">floor1</text><polygon fill="#181818" points="1876.5,302.25,1886.5,306.25,1876.5,310.25,1880.5,306.25" style="stroke:#181818;stroke-width:1.0;"/><line style="stroke:#181818;stroke-width:1.0;" x1="1484" x2="1882.5" y1="306.25" y2="306.25"/><text fill="#000000" font-family="sans-serif" font-size="20" font-weight="bold" lengthAdjust="spacing" textLength="14" x="1491" y="299.5332">7</text><text fill="#000000" font-family="sans-serif" font-size="20" lengthAdjust="spacing" textLength="240" x="1509" y="299.5332">findByCode(floor2Code)</text><polygon fill="#181818" points="1495,339.5313,1485,343.5313,1495,347.5313,1491,343.5313" style="stroke:#181818;stroke-width:1.0;"/><line style="stroke:#181818;stroke-width:1.0;stroke-dasharray:2.0,2.0;" x1="1489" x2="1892.5" y1="343.5313" y2="343.5313"/><text fill="#000000" font-family="sans-serif" font-size="20" font-weight="bold" lengthAdjust="spacing" textLength="14" x="1501" y="336.8145">8</text><text fill="#000000" font-family="sans-serif" font-size="20" lengthAdjust="spacing" textLength="58" x="1519" y="336.8145">floor2</text><polygon fill="#181818" points="1716,376.8125,1726,380.8125,1716,384.8125,1720,380.8125" style="stroke:#181818;stroke-width:1.0;"/><line style="stroke:#181818;stroke-width:1.0;" x1="1484" x2="1722" y1="380.8125" y2="380.8125"/><text fill="#000000" font-family="sans-serif" font-size="20" font-weight="bold" lengthAdjust="spacing" textLength="14" x="1491" y="374.0957">9</text><text fill="#000000" font-family="sans-serif" font-size="20" lengthAdjust="spacing" textLength="207" x="1509" y="374.0957">create(floor1, floor2)</text><polygon fill="#181818" points="1142,444.0938,1132,448.0938,1142,452.0938,1138,448.0938" style="stroke:#181818;stroke-width:1.0;"/><line style="stroke:#181818;stroke-width:1.0;stroke-dasharray:2.0,2.0;" x1="1136" x2="1478" y1="448.0938" y2="448.0938"/><text fill="#000000" font-family="sans-serif" font-size="20" font-weight="bold" lengthAdjust="spacing" textLength="28" x="1148" y="441.377">10</text><text fill="#000000" font-family="sans-serif" font-size="20" lengthAdjust="spacing" textLength="103" x="1180" y="441.377">Connector</text><polygon fill="#181818" points="2090,481.375,2100,485.375,2090,489.375,2094,485.375" style="stroke:#181818;stroke-width:1.0;"/><line style="stroke:#181818;stroke-width:1.0;" x1="1131" x2="2096" y1="485.375" y2="485.375"/><text fill="#000000" font-family="sans-serif" font-size="20" font-weight="bold" lengthAdjust="spacing" textLength="28" x="1138" y="478.6582">11</text><text fill="#000000" font-family="sans-serif" font-size="20" lengthAdjust="spacing" textLength="161" x="1170" y="478.6582">save(connector)</text><polygon fill="#181818" points="1142,518.6563,1132,522.6563,1142,526.6563,1138,522.6563" style="stroke:#181818;stroke-width:1.0;"/><line style="stroke:#181818;stroke-width:1.0;stroke-dasharray:2.0,2.0;" x1="1136" x2="2106" y1="522.6563" y2="522.6563"/><text fill="#000000" font-family="sans-serif" font-size="20" font-weight="bold" lengthAdjust="spacing" textLength="28" x="1148" y="515.9395">12</text><text fill="#000000" font-family="sans-serif" font-size="20" lengthAdjust="spacing" textLength="103" x="1180" y="515.9395">Connector</text><polygon fill="#181818" points="1462,555.9375,1472,559.9375,1462,563.9375,1466,559.9375" style="stroke:#181818;stroke-width:1.0;"/><line style="stroke:#181818;stroke-width:1.0;" x1="1131" x2="1468" y1="559.9375" y2="559.9375"/><text fill="#000000" font-family="sans-serif" font-size="20" font-weight="bold" lengthAdjust="spacing" textLength="28" x="1138" y="553.2207">13</text><text fill="#000000" font-family="sans-serif" font-size="20" lengthAdjust="spacing" textLength="228" x="1170" y="553.2207">mapToDTO(connector)</text><polygon fill="#181818" points="2298.5,593.2188,2308.5,597.2188,2298.5,601.2188,2302.5,597.2188" style="stroke:#181818;stroke-width:1.0;"/><line style="stroke:#181818;stroke-width:1.0;" x1="1484" x2="2304.5" y1="597.2188" y2="597.2188"/><text fill="#000000" font-family="sans-serif" font-size="20" font-weight="bold" lengthAdjust="spacing" textLength="28" x="1491" y="590.502">14</text><text fill="#000000" font-family="sans-serif" font-size="20" lengthAdjust="spacing" textLength="79" x="1523" y="590.502">create()</text><polygon fill="#181818" points="1142,660.5,1132,664.5,1142,668.5,1138,664.5" style="stroke:#181818;stroke-width:1.0;"/><line style="stroke:#181818;stroke-width:1.0;stroke-dasharray:2.0,2.0;" x1="1136" x2="1478" y1="664.5" y2="664.5"/><text fill="#000000" font-family="sans-serif" font-size="20" font-weight="bold" lengthAdjust="spacing" textLength="28" x="1148" y="657.7832">15</text><text fill="#000000" font-family="sans-serif" font-size="20" lengthAdjust="spacing" textLength="146" x="1180" y="657.7832">ConnectorDTO</text><polygon fill="#181818" points="770,697.7813,760,701.7813,770,705.7813,766,701.7813" style="stroke:#181818;stroke-width:1.0;"/><line style="stroke:#181818;stroke-width:1.0;stroke-dasharray:2.0,2.0;" x1="764" x2="1125" y1="701.7813" y2="701.7813"/><text fill="#000000" font-family="sans-serif" font-size="20" font-weight="bold" lengthAdjust="spacing" textLength="28" x="776" y="695.0645">16</text><text fill="#000000" font-family="sans-serif" font-size="20" lengthAdjust="spacing" textLength="146" x="808" y="695.0645">ConnectorDTO</text><polygon fill="#181818" points="398,735.0625,388,739.0625,398,743.0625,394,739.0625" style="stroke:#181818;stroke-width:1.0;"/><line style="stroke:#181818;stroke-width:1.0;stroke-dasharray:2.0,2.0;" x1="392" x2="753" y1="739.0625" y2="739.0625"/><text fill="#000000" font-family="sans-serif" font-size="20" font-weight="bold" lengthAdjust="spacing" textLength="28" x="404" y="732.3457">17</text><text fill="#000000" font-family="sans-serif" font-size="20" lengthAdjust="spacing" textLength="146" x="436" y="732.3457">ConnectorDTO</text><polygon fill="#181818" points="11,772.3438,1,776.3438,11,780.3438,7,776.3438" style="stroke:#181818;stroke-width:1.0;"/><line style="stroke:#181818;stroke-width:1.0;stroke-dasharray:2.0,2.0;" x1="5" x2="381" y1="776.3438" y2="776.3438"/><text fill="#000000" font-family="sans-serif" font-size="20" font-weight="bold" lengthAdjust="spacing" textLength="28" x="17" y="769.627">18</text><text fill="#000000" font-family="sans-serif" font-size="20" lengthAdjust="spacing" textLength="326" x="49" y="769.627">200 OK (ConnectorDTO as JSON)</text><!--SRC=[fPHVJuCm5CNV-obkzhGbBiuz4gDHnXxKoJBGzmfTqenH0cN9_FJstqhfS6fy8-tldDwUosspesM5QxmlMBOZEUHaYzk2Brd94_f9O3v3kEMiRFSVf4P8e9ncjC8bXqtybaQ06nW58IjBad5MRrZBoQY7XUdcnQF41wzPKP2wZoRleKScf3xGp7TSFQmzReMhFkCNrjzTRg9rh8bbmKJPf68D5TYnptLOTyDlq4Ngas9bXD0zczwPg09OnqaArzc9Q13EE3rWJZI141XKQ5Hk0MGr4VlMT9mvzXF1MmV9ImFGIk4Wu_pPmB4G0kq0IYkBa547iCTLoXPiZsave7UB4Fp90hHQkEYu0zZICdyyXYmduwsC_KP-JYnkNHHlbutFxNJQ6Icr9NBYINzTmVnV5Sp_K45aMs7kVcKy1awFXdoZpbCsHnPZkcDxYyv4RZzCIyq56dmWNI_F6jcx_-ay8xrmddlteLyeZI-SgOhrSvDpPPCRo4hi3wKbbt_CgzCEHgRcIEhq89t9796P73sywYWzlPx6FKQEAm1IkPhdOJwRGVmCOrSb7vMd97wT83TczLfy0G00]--></g></svg>