<?xml version="1.0" encoding="UTF-8" standalone="no"?><svg xmlns="http://www.w3.org/2000/svg" xmlns:xlink="http://www.w3.org/1999/xlink" contentStyleType="text/css" height="581px" preserveAspectRatio="none" style="width:1509px;height:581px;background:#FFFFFF;" version="1.1" viewBox="0 0 1509 581" width="1509px" zoomAndPan="magnify"><defs/><g><rect fill="#FFFFFF" height="426.3997" style="stroke:#181818;stroke-width:1.0;" width="10" x="228.625" y="90.4799"/><rect fill="#FFFFFF" height="343.9198" style="stroke:#181818;stroke-width:1.0;" width="10" x="464.25" y="131.7199"/><rect fill="#FFFFFF" height="261.4398" style="stroke:#181818;stroke-width:1.0;" width="10" x="699.875" y="172.9599"/><rect fill="#FFFFFF" height="30" style="stroke:#181818;stroke-width:1.0;" width="10" x="1002.375" y="214.1999"/><rect fill="#FFFFFF" height="41.24" style="stroke:#181818;stroke-width:1.0;" width="10" x="1137.375" y="333.9198"/><rect fill="none" height="134.9599" style="stroke:#000000;stroke-width:1.5;" width="881.625" x="621.375" y="259.1999"/><line style="stroke:#181818;stroke-width:0.5;stroke-dasharray:5.0,5.0;" x1="233.125" x2="233.125" y1="47.24" y2="534.8797"/><line style="stroke:#181818;stroke-width:0.5;stroke-dasharray:5.0,5.0;" x1="469.25" x2="469.25" y1="47.24" y2="534.8797"/><line style="stroke:#181818;stroke-width:0.5;stroke-dasharray:5.0,5.0;" x1="704.375" x2="704.375" y1="47.24" y2="534.8797"/><line style="stroke:#181818;stroke-width:0.5;stroke-dasharray:5.0,5.0;" x1="860.375" x2="860.375" y1="47.24" y2="534.8797"/><line style="stroke:#181818;stroke-width:0.5;stroke-dasharray:5.0,5.0;" x1="1007.375" x2="1007.375" y1="47.24" y2="534.8797"/><line style="stroke:#181818;stroke-width:0.5;stroke-dasharray:5.0,5.0;" x1="1142.375" x2="1142.375" y1="47.24" y2="534.8797"/><line style="stroke:#181818;stroke-width:0.5;stroke-dasharray:5.0,5.0;" x1="1375" x2="1375" y1="378.0398" y2="534.8797"/><rect fill="#E2E2F0" height="41.24" rx="2.5" ry="2.5" style="stroke:#181818;stroke-width:0.5;" width="135" x="166.125" y="5"/><text fill="#000000" font-family="sans-serif" font-size="20" lengthAdjust="spacing" textLength="121" x="173.125" y="33.38">:DeviceRoute</text><rect fill="#E2E2F0" height="41.24" rx="2.5" ry="2.5" style="stroke:#181818;stroke-width:0.5;" width="135" x="166.125" y="533.8797"/><text fill="#000000" font-family="sans-serif" font-size="20" lengthAdjust="spacing" textLength="121" x="173.125" y="562.2597">:DeviceRoute</text><rect fill="#E2E2F0" height="41.24" rx="2.5" ry="2.5" style="stroke:#181818;stroke-width:0.5;" width="174" x="382.25" y="5"/><text fill="#000000" font-family="sans-serif" font-size="20" lengthAdjust="spacing" textLength="160" x="389.25" y="33.38">:DeviceController</text><rect fill="#E2E2F0" height="41.24" rx="2.5" ry="2.5" style="stroke:#181818;stroke-width:0.5;" width="174" x="382.25" y="533.8797"/><text fill="#000000" font-family="sans-serif" font-size="20" lengthAdjust="spacing" textLength="160" x="389.25" y="562.2597">:DeviceController</text><rect fill="#E2E2F0" height="41.24" rx="2.5" ry="2.5" style="stroke:#181818;stroke-width:0.5;" width="147" x="631.375" y="5"/><text fill="#000000" font-family="sans-serif" font-size="20" lengthAdjust="spacing" textLength="133" x="638.375" y="33.38">:DeviceService</text><rect fill="#E2E2F0" height="41.24" rx="2.5" ry="2.5" style="stroke:#181818;stroke-width:0.5;" width="147" x="631.375" y="533.8797"/><text fill="#000000" font-family="sans-serif" font-size="20" lengthAdjust="spacing" textLength="133" x="638.375" y="562.2597">:DeviceService</text><rect fill="#E2E2F0" height="41.24" rx="2.5" ry="2.5" style="stroke:#181818;stroke-width:0.5;" width="145" x="788.375" y="5"/><text fill="#000000" font-family="sans-serif" font-size="20" lengthAdjust="spacing" textLength="131" x="795.375" y="33.38">:device:Device</text><rect fill="#E2E2F0" height="41.24" rx="2.5" ry="2.5" style="stroke:#181818;stroke-width:0.5;" width="145" x="788.375" y="533.8797"/><text fill="#000000" font-family="sans-serif" font-size="20" lengthAdjust="spacing" textLength="131" x="795.375" y="562.2597">:device:Device</text><rect fill="#E2E2F0" height="41.24" rx="2.5" ry="2.5" style="stroke:#181818;stroke-width:0.5;" width="128" x="943.375" y="5"/><text fill="#000000" font-family="sans-serif" font-size="20" lengthAdjust="spacing" textLength="114" x="950.375" y="33.38">:DeviceRepo</text><rect fill="#E2E2F0" height="41.24" rx="2.5" ry="2.5" style="stroke:#181818;stroke-width:0.5;" width="128" x="943.375" y="533.8797"/><text fill="#000000" font-family="sans-serif" font-size="20" lengthAdjust="spacing" textLength="114" x="950.375" y="562.2597">:DeviceRepo</text><rect fill="#E2E2F0" height="41.24" rx="2.5" ry="2.5" style="stroke:#181818;stroke-width:0.5;" width="122" x="1081.375" y="5"/><text fill="#000000" font-family="sans-serif" font-size="20" lengthAdjust="spacing" textLength="108" x="1088.375" y="33.38">:DeviceMap</text><rect fill="#E2E2F0" height="41.24" rx="2.5" ry="2.5" style="stroke:#181818;stroke-width:0.5;" width="122" x="1081.375" y="533.8797"/><text fill="#000000" font-family="sans-serif" font-size="20" lengthAdjust="spacing" textLength="108" x="1088.375" y="562.2597">:DeviceMap</text><rect fill="#E2E2F0" height="41.24" rx="2.5" ry="2.5" style="stroke:#181818;stroke-width:0.5;" width="236" x="1257" y="533.8797"/><text fill="#000000" font-family="sans-serif" font-size="20" lengthAdjust="spacing" textLength="222" x="1264" y="562.2597">:deviceDTO:IDeviceDTO</text><rect fill="#FFFFFF" height="426.3997" style="stroke:#181818;stroke-width:1.0;" width="10" x="228.625" y="90.4799"/><rect fill="#FFFFFF" height="343.9198" style="stroke:#181818;stroke-width:1.0;" width="10" x="464.25" y="131.7199"/><rect fill="#FFFFFF" height="261.4398" style="stroke:#181818;stroke-width:1.0;" width="10" x="699.875" y="172.9599"/><rect fill="#FFFFFF" height="30" style="stroke:#181818;stroke-width:1.0;" width="10" x="1002.375" y="214.1999"/><rect fill="#FFFFFF" height="41.24" style="stroke:#181818;stroke-width:1.0;" width="10" x="1137.375" y="333.9198"/><ellipse cx="4.5" cy="89.7299" fill="none" rx="4" ry="4" style="stroke:#181818;stroke-width:1.5;"/><polygon fill="#181818" points="216.625,86.4799,226.625,90.4799,216.625,94.4799,220.625,90.4799" style="stroke:#181818;stroke-width:1.0;"/><line style="stroke:#181818;stroke-width:1.0;" x1="9" x2="222.625" y1="90.4799" y2="90.4799"/><text fill="#000000" font-family="sans-serif" font-size="20" font-weight="bold" lengthAdjust="spacing" textLength="11.625" x="12" y="82.62">1</text><text fill="#000000" font-family="sans-serif" font-size="20" lengthAdjust="spacing" textLength="186" x="27.625" y="82.62">GET /devices/robots</text><polygon fill="#181818" points="452.25,127.7199,462.25,131.7199,452.25,135.7199,456.25,131.7199" style="stroke:#181818;stroke-width:1.0;"/><line style="stroke:#181818;stroke-width:1.0;" x1="238.625" x2="458.25" y1="131.7199" y2="131.7199"/><text fill="#000000" font-family="sans-serif" font-size="20" font-weight="bold" lengthAdjust="spacing" textLength="11.625" x="245.625" y="123.8599">2</text><text fill="#000000" font-family="sans-serif" font-size="20" lengthAdjust="spacing" textLength="179" x="261.25" y="123.8599">getDevicesRobots()</text><polygon fill="#181818" points="687.875,168.9599,697.875,172.9599,687.875,176.9599,691.875,172.9599" style="stroke:#181818;stroke-width:1.0;"/><line style="stroke:#181818;stroke-width:1.0;" x1="474.25" x2="693.875" y1="172.9599" y2="172.9599"/><text fill="#000000" font-family="sans-serif" font-size="20" font-weight="bold" lengthAdjust="spacing" textLength="11.625" x="481.25" y="165.0999">3</text><text fill="#000000" font-family="sans-serif" font-size="20" lengthAdjust="spacing" textLength="179" x="496.875" y="165.0999">getDevicesRobots()</text><polygon fill="#181818" points="990.375,210.1999,1000.375,214.1999,990.375,218.1999,994.375,214.1999" style="stroke:#181818;stroke-width:1.0;"/><line style="stroke:#181818;stroke-width:1.0;" x1="709.875" x2="996.375" y1="214.1999" y2="214.1999"/><text fill="#000000" font-family="sans-serif" font-size="20" font-weight="bold" lengthAdjust="spacing" textLength="11.625" x="716.875" y="206.3399">4</text><text fill="#000000" font-family="sans-serif" font-size="20" lengthAdjust="spacing" textLength="113" x="732.5" y="206.3399">findRobots()</text><path d="M621.375,259.1999 L709.875,259.1999 L709.875,278.4398 L699.875,288.4398 L621.375,288.4398 L621.375,259.1999 " fill="#EEEEEE" style="stroke:#000000;stroke-width:1.5;"/><rect fill="none" height="134.9599" style="stroke:#000000;stroke-width:1.5;" width="881.625" x="621.375" y="259.1999"/><text fill="#000000" font-family="sans-serif" font-size="20" font-weight="bold" lengthAdjust="spacing" textLength="43.5" x="636.375" y="281.5799">loop</text><text fill="#000000" font-family="sans-serif" font-size="20" font-weight="bold" lengthAdjust="spacing" textLength="158.375" x="724.875" y="282.5799">[foreach device]</text><polygon fill="#181818" points="1125.375,329.9198,1135.375,333.9198,1125.375,337.9198,1129.375,333.9198" style="stroke:#181818;stroke-width:1.0;"/><line style="stroke:#181818;stroke-width:1.0;" x1="709.875" x2="1131.375" y1="333.9198" y2="333.9198"/><text fill="#000000" font-family="sans-serif" font-size="20" font-weight="bold" lengthAdjust="spacing" textLength="11.625" x="716.875" y="326.0598">5</text><text fill="#000000" font-family="sans-serif" font-size="20" lengthAdjust="spacing" textLength="65" x="732.5" y="326.0598">toDto()</text><polygon fill="#181818" points="1245,371.1598,1255,375.1598,1245,379.1598,1249,375.1598" style="stroke:#181818;stroke-width:1.0;"/><line style="stroke:#181818;stroke-width:1.0;" x1="1142.375" x2="1251" y1="375.1598" y2="375.1598"/><text fill="#000000" font-family="sans-serif" font-size="20" font-weight="bold" lengthAdjust="spacing" textLength="11.625" x="1149.375" y="367.2998">6</text><text fill="#000000" font-family="sans-serif" font-size="20" lengthAdjust="spacing" textLength="70" x="1165" y="367.2998">create()</text><rect fill="#E2E2F0" height="41.24" rx="2.5" ry="2.5" style="stroke:#181818;stroke-width:0.5;" width="236" x="1257" y="341.9198"/><text fill="#000000" font-family="sans-serif" font-size="20" lengthAdjust="spacing" textLength="222" x="1264" y="370.2998">:deviceDTO:IDeviceDTO</text><polygon fill="#181818" points="485.25,430.3997,475.25,434.3997,485.25,438.3997,481.25,434.3997" style="stroke:#181818;stroke-width:1.0;"/><line style="stroke:#181818;stroke-width:1.0;stroke-dasharray:2.0,2.0;" x1="479.25" x2="703.875" y1="434.3997" y2="434.3997"/><text fill="#000000" font-family="sans-serif" font-size="20" font-weight="bold" lengthAdjust="spacing" textLength="11.625" x="491.25" y="426.5398">7</text><text fill="#000000" font-family="sans-serif" font-size="20" lengthAdjust="spacing" textLength="186" x="506.875" y="426.5398">sucess(devicesDTO)</text><polygon fill="#181818" points="249.625,471.6397,239.625,475.6397,249.625,479.6397,245.625,475.6397" style="stroke:#181818;stroke-width:1.0;"/><line style="stroke:#181818;stroke-width:1.0;stroke-dasharray:2.0,2.0;" x1="243.625" x2="468.25" y1="475.6397" y2="475.6397"/><text fill="#000000" font-family="sans-serif" font-size="20" font-weight="bold" lengthAdjust="spacing" textLength="11.625" x="255.625" y="467.7797">8</text><text fill="#000000" font-family="sans-serif" font-size="20" lengthAdjust="spacing" textLength="186" x="271.25" y="467.7797">sucess(devicesDTO)</text><polygon fill="#181818" points="11,512.8797,1,516.8797,11,520.8797,7,516.8797" style="stroke:#181818;stroke-width:1.0;"/><line style="stroke:#181818;stroke-width:1.0;stroke-dasharray:2.0,2.0;" x1="5" x2="232.625" y1="516.8797" y2="516.8797"/><text fill="#000000" font-family="sans-serif" font-size="20" font-weight="bold" lengthAdjust="spacing" textLength="11.625" x="17" y="509.0197">9</text><text fill="#000000" font-family="sans-serif" font-size="20" lengthAdjust="spacing" textLength="66" x="32.625" y="509.0197">200 OK</text><!--SRC=[VP51Ry8m38Nl-HKM9q1288xLj6cZR4835PMoUsZD5b6QAaavxDVFIJf8XCIXQXD_VlPxrIVHj5pnSotB4rPGuP5tjNcNZTc9NuJvZF7EoAOx7r0n8eqeHSiR0tcsBvR0DGoI52-Yn5ns1WSHioZoTOWiI5R9kaOLSxlyAyHsgEmhPjxsgtNggSfHFHnJ-NARHKjXAsDYyxeDWGrlutfQPE4KEYQhzFzpmDYBd3ptvXFuM1OmzQ2UAdcGHZDU6d7X1Zt4c6UfoQMHm3SQhwTprp0StLeimXn7l4tbCKu4eySkP7qdS1HDTO_P8gimFWFKKhPmb8eAF-1Dq2sukIHfWqh0oDH84hE5gm2Lt8L5YAHWncDYIv8osCF1F8zZKp4dVOj2TsHB3_i0IMOKhcdT-Io2n1-tkFoU9fChFf_D8FkCpBk_yWS0]--></g></svg>