<?xml version="1.0" encoding="UTF-8" standalone="no"?><svg xmlns="http://www.w3.org/2000/svg" xmlns:xlink="http://www.w3.org/1999/xlink" contentStyleType="text/css" height="536px" preserveAspectRatio="none" style="width:1961px;height:536px;background:#FFFFFF;" version="1.1" viewBox="0 0 1961 536" width="1961px" zoomAndPan="magnify"><defs/><g><rect fill="#FFFFFF" height="394.0938" style="stroke:#181818;stroke-width:1.0;" width="10" x="244" y="82.5625"/><rect fill="#FFFFFF" height="319.5313" style="stroke:#181818;stroke-width:1.0;" width="10" x="484" y="119.8438"/><rect fill="#FFFFFF" height="244.9688" style="stroke:#181818;stroke-width:1.0;" width="10" x="728" y="157.125"/><rect fill="#FFFFFF" height="37.2813" style="stroke:#181818;stroke-width:1.0;" width="10" x="1238" y="194.4063"/><rect fill="#FFFFFF" height="37.2813" style="stroke:#181818;stroke-width:1.0;" width="10" x="1442.5" y="309.5313"/><rect fill="none" height="119.125" style="stroke:#000000;stroke-width:1.5;" width="1343" x="612.5" y="246.6875"/><line style="stroke:#181818;stroke-width:0.5;stroke-dasharray:5.0,5.0;" x1="248.5" x2="248.5" y1="43.2813" y2="494.6563"/><line style="stroke:#181818;stroke-width:0.5;stroke-dasharray:5.0,5.0;" x1="488.5" x2="488.5" y1="43.2813" y2="494.6563"/><line style="stroke:#181818;stroke-width:0.5;stroke-dasharray:5.0,5.0;" x1="732.5" x2="732.5" y1="43.2813" y2="494.6563"/><line style="stroke:#181818;stroke-width:0.5;stroke-dasharray:5.0,5.0;" x1="993.5" x2="993.5" y1="43.2813" y2="494.6563"/><line style="stroke:#181818;stroke-width:0.5;stroke-dasharray:5.0,5.0;" x1="1242.5" x2="1242.5" y1="43.2813" y2="494.6563"/><line style="stroke:#181818;stroke-width:0.5;stroke-dasharray:5.0,5.0;" x1="1447.5" x2="1447.5" y1="43.2813" y2="494.6563"/><line style="stroke:#181818;stroke-width:0.5;stroke-dasharray:5.0,5.0;" x1="1759.5" x2="1759.5" y1="351.6719" y2="494.6563"/><rect fill="#E2E2F0" height="37.2813" rx="2.5" ry="2.5" style="stroke:#181818;stroke-width:0.5;" width="207" x="145.5" y="5"/><text fill="#000000" font-family="sans-serif" font-size="20" lengthAdjust="spacing" textLength="193" x="152.5" y="30.5645">:DeviceModelRoute</text><rect fill="#E2E2F0" height="37.2813" rx="2.5" ry="2.5" style="stroke:#181818;stroke-width:0.5;" width="207" x="145.5" y="493.6563"/><text fill="#000000" font-family="sans-serif" font-size="20" lengthAdjust="spacing" textLength="193" x="152.5" y="519.2207">:DeviceModelRoute</text><rect fill="#E2E2F0" height="37.2813" rx="2.5" ry="2.5" style="stroke:#181818;stroke-width:0.5;" width="247" x="365.5" y="5"/><text fill="#000000" font-family="sans-serif" font-size="20" lengthAdjust="spacing" textLength="233" x="372.5" y="30.5645">:DeviceModelController</text><rect fill="#E2E2F0" height="37.2813" rx="2.5" ry="2.5" style="stroke:#181818;stroke-width:0.5;" width="247" x="365.5" y="493.6563"/><text fill="#000000" font-family="sans-serif" font-size="20" lengthAdjust="spacing" textLength="233" x="372.5" y="519.2207">:DeviceModelController</text><rect fill="#E2E2F0" height="37.2813" rx="2.5" ry="2.5" style="stroke:#181818;stroke-width:0.5;" width="221" x="622.5" y="5"/><text fill="#000000" font-family="sans-serif" font-size="20" lengthAdjust="spacing" textLength="207" x="629.5" y="30.5645">:DeviceModelService</text><rect fill="#E2E2F0" height="37.2813" rx="2.5" ry="2.5" style="stroke:#181818;stroke-width:0.5;" width="221" x="622.5" y="493.6563"/><text fill="#000000" font-family="sans-serif" font-size="20" lengthAdjust="spacing" textLength="207" x="629.5" y="519.2207">:DeviceModelService</text><rect fill="#E2E2F0" height="37.2813" rx="2.5" ry="2.5" style="stroke:#181818;stroke-width:0.5;" width="280" x="853.5" y="5"/><text fill="#000000" font-family="sans-serif" font-size="20" lengthAdjust="spacing" textLength="266" x="860.5" y="30.5645">:deviceModel:DeviceModel</text><rect fill="#E2E2F0" height="37.2813" rx="2.5" ry="2.5" style="stroke:#181818;stroke-width:0.5;" width="280" x="853.5" y="493.6563"/><text fill="#000000" font-family="sans-serif" font-size="20" lengthAdjust="spacing" textLength="266" x="860.5" y="519.2207">:deviceModel:DeviceModel</text><rect fill="#E2E2F0" height="37.2813" rx="2.5" ry="2.5" style="stroke:#181818;stroke-width:0.5;" width="199" x="1143.5" y="5"/><text fill="#000000" font-family="sans-serif" font-size="20" lengthAdjust="spacing" textLength="185" x="1150.5" y="30.5645">:DeviceModelRepo</text><rect fill="#E2E2F0" height="37.2813" rx="2.5" ry="2.5" style="stroke:#181818;stroke-width:0.5;" width="199" x="1143.5" y="493.6563"/><text fill="#000000" font-family="sans-serif" font-size="20" lengthAdjust="spacing" textLength="185" x="1150.5" y="519.2207">:DeviceModelRepo</text><rect fill="#E2E2F0" height="37.2813" rx="2.5" ry="2.5" style="stroke:#181818;stroke-width:0.5;" width="190" x="1352.5" y="5"/><text fill="#000000" font-family="sans-serif" font-size="20" lengthAdjust="spacing" textLength="176" x="1359.5" y="30.5645">:DeviceModelMap</text><rect fill="#E2E2F0" height="37.2813" rx="2.5" ry="2.5" style="stroke:#181818;stroke-width:0.5;" width="190" x="1352.5" y="493.6563"/><text fill="#000000" font-family="sans-serif" font-size="20" lengthAdjust="spacing" textLength="176" x="1359.5" y="519.2207">:DeviceModelMap</text><rect fill="#E2E2F0" height="37.2813" rx="2.5" ry="2.5" style="stroke:#181818;stroke-width:0.5;" width="372" x="1573.5" y="493.6563"/><text fill="#000000" font-family="sans-serif" font-size="20" lengthAdjust="spacing" textLength="358" x="1580.5" y="519.2207">:deviceModelDTO:IDeviceModelDTO</text><rect fill="#FFFFFF" height="394.0938" style="stroke:#181818;stroke-width:1.0;" width="10" x="244" y="82.5625"/><rect fill="#FFFFFF" height="319.5313" style="stroke:#181818;stroke-width:1.0;" width="10" x="484" y="119.8438"/><rect fill="#FFFFFF" height="244.9688" style="stroke:#181818;stroke-width:1.0;" width="10" x="728" y="157.125"/><rect fill="#FFFFFF" height="37.2813" style="stroke:#181818;stroke-width:1.0;" width="10" x="1238" y="194.4063"/><rect fill="#FFFFFF" height="37.2813" style="stroke:#181818;stroke-width:1.0;" width="10" x="1442.5" y="309.5313"/><ellipse cx="4.5" cy="81.8125" fill="none" rx="4" ry="4" style="stroke:#181818;stroke-width:1.5;"/><polygon fill="#181818" points="232,78.5625,242,82.5625,232,86.5625,236,82.5625" style="stroke:#181818;stroke-width:1.0;"/><line style="stroke:#181818;stroke-width:1.0;" x1="9" x2="238" y1="82.5625" y2="82.5625"/><text fill="#000000" font-family="sans-serif" font-size="20" font-weight="bold" lengthAdjust="spacing" textLength="14" x="12" y="75.8457">1</text><text fill="#000000" font-family="sans-serif" font-size="20" lengthAdjust="spacing" textLength="199" x="30" y="75.8457">GET /device-models</text><polygon fill="#181818" points="472,115.8438,482,119.8438,472,123.8438,476,119.8438" style="stroke:#181818;stroke-width:1.0;"/><line style="stroke:#181818;stroke-width:1.0;" x1="254" x2="478" y1="119.8438" y2="119.8438"/><text fill="#000000" font-family="sans-serif" font-size="20" font-weight="bold" lengthAdjust="spacing" textLength="14" x="261" y="113.127">2</text><text fill="#000000" font-family="sans-serif" font-size="20" lengthAdjust="spacing" textLength="118" x="279" y="113.127">getRobots()</text><polygon fill="#181818" points="716,153.125,726,157.125,716,161.125,720,157.125" style="stroke:#181818;stroke-width:1.0;"/><line style="stroke:#181818;stroke-width:1.0;" x1="494" x2="722" y1="157.125" y2="157.125"/><text fill="#000000" font-family="sans-serif" font-size="20" font-weight="bold" lengthAdjust="spacing" textLength="14" x="501" y="150.4082">3</text><text fill="#000000" font-family="sans-serif" font-size="20" lengthAdjust="spacing" textLength="118" x="519" y="150.4082">getRobots()</text><polygon fill="#181818" points="1226,190.4063,1236,194.4063,1226,198.4063,1230,194.4063" style="stroke:#181818;stroke-width:1.0;"/><line style="stroke:#181818;stroke-width:1.0;" x1="738" x2="1232" y1="194.4063" y2="194.4063"/><text fill="#000000" font-family="sans-serif" font-size="20" font-weight="bold" lengthAdjust="spacing" textLength="14" x="745" y="187.6895">4</text><text fill="#000000" font-family="sans-serif" font-size="20" lengthAdjust="spacing" textLength="81" x="763" y="187.6895">findAll()</text><polygon fill="#181818" points="749,227.6875,739,231.6875,749,235.6875,745,231.6875" style="stroke:#181818;stroke-width:1.0;"/><line style="stroke:#181818;stroke-width:1.0;" x1="743" x2="1242" y1="231.6875" y2="231.6875"/><text fill="#000000" font-family="sans-serif" font-size="20" font-weight="bold" lengthAdjust="spacing" textLength="14" x="755" y="224.9707">5</text><text fill="#000000" font-family="sans-serif" font-size="20" lengthAdjust="spacing" textLength="81" x="773" y="224.9707">findAll()</text><path d="M612.5,246.6875 L706.5,246.6875 L706.5,261.9688 L696.5,271.9688 L612.5,271.9688 L612.5,246.6875 " fill="#EEEEEE" style="stroke:#000000;stroke-width:1.5;"/><rect fill="none" height="119.125" style="stroke:#000000;stroke-width:1.5;" width="1343" x="612.5" y="246.6875"/><text fill="#000000" font-family="sans-serif" font-size="20" font-weight="bold" lengthAdjust="spacing" textLength="49" x="627.5" y="266.252">loop</text><text fill="#000000" font-family="sans-serif" font-size="20" font-weight="bold" lengthAdjust="spacing" textLength="255" x="721.5" y="267.252">[foreach deviceModel]</text><polygon fill="#181818" points="1430.5,305.5313,1440.5,309.5313,1430.5,313.5313,1434.5,309.5313" style="stroke:#181818;stroke-width:1.0;"/><line style="stroke:#181818;stroke-width:1.0;" x1="738" x2="1436.5" y1="309.5313" y2="309.5313"/><text fill="#000000" font-family="sans-serif" font-size="20" font-weight="bold" lengthAdjust="spacing" textLength="14" x="745" y="302.8145">6</text><text fill="#000000" font-family="sans-serif" font-size="20" lengthAdjust="spacing" textLength="124" x="763" y="302.8145">toDto(robot)</text><polygon fill="#181818" points="1561.5,342.8125,1571.5,346.8125,1561.5,350.8125,1565.5,346.8125" style="stroke:#181818;stroke-width:1.0;"/><line style="stroke:#181818;stroke-width:1.0;" x1="1447.5" x2="1567.5" y1="346.8125" y2="346.8125"/><text fill="#000000" font-family="sans-serif" font-size="20" font-weight="bold" lengthAdjust="spacing" textLength="14" x="1454.5" y="340.0957">7</text><text fill="#000000" font-family="sans-serif" font-size="20" lengthAdjust="spacing" textLength="79" x="1472.5" y="340.0957">create()</text><rect fill="#E2E2F0" height="37.2813" rx="2.5" ry="2.5" style="stroke:#181818;stroke-width:0.5;" width="372" x="1573.5" y="317.5313"/><text fill="#000000" font-family="sans-serif" font-size="20" lengthAdjust="spacing" textLength="358" x="1580.5" y="343.0957">:deviceModelDTO:IDeviceModelDTO</text><polygon fill="#181818" points="505,398.0938,495,402.0938,505,406.0938,501,402.0938" style="stroke:#181818;stroke-width:1.0;"/><line style="stroke:#181818;stroke-width:1.0;stroke-dasharray:2.0,2.0;" x1="499" x2="732" y1="402.0938" y2="402.0938"/><text fill="#000000" font-family="sans-serif" font-size="20" font-weight="bold" lengthAdjust="spacing" textLength="14" x="511" y="395.377">8</text><text fill="#000000" font-family="sans-serif" font-size="20" lengthAdjust="spacing" textLength="188" x="529" y="395.377">sucess(robotsDTO)</text><polygon fill="#181818" points="265,435.375,255,439.375,265,443.375,261,439.375" style="stroke:#181818;stroke-width:1.0;"/><line style="stroke:#181818;stroke-width:1.0;stroke-dasharray:2.0,2.0;" x1="259" x2="488" y1="439.375" y2="439.375"/><text fill="#000000" font-family="sans-serif" font-size="20" font-weight="bold" lengthAdjust="spacing" textLength="14" x="271" y="432.6582">9</text><text fill="#000000" font-family="sans-serif" font-size="20" lengthAdjust="spacing" textLength="188" x="289" y="432.6582">sucess(robotsDTO)</text><polygon fill="#181818" points="11,472.6563,1,476.6563,11,480.6563,7,476.6563" style="stroke:#181818;stroke-width:1.0;"/><line style="stroke:#181818;stroke-width:1.0;stroke-dasharray:2.0,2.0;" x1="5" x2="248" y1="476.6563" y2="476.6563"/><text fill="#000000" font-family="sans-serif" font-size="20" font-weight="bold" lengthAdjust="spacing" textLength="28" x="17" y="469.9395">10</text><text fill="#000000" font-family="sans-serif" font-size="20" lengthAdjust="spacing" textLength="74" x="49" y="469.9395">200 OK</text><!--SRC=[VP51Ry8m38Nl-HKM9q2gXZXMqoP6sOG60fMoUsZDLX7ggaavxDVFIIRQgDeEbTAypy_sYxwKLIqRULMKNx200i-oLUQLAdCeln7cCo5RGrLxFM4Zc3HbNjQoCf3kZjaAf8PHdE2jp75B1QgKMeEZ05ncwMR0BRb1GqfX4yA7z6F07h2nvn1yEQutYKUB3ksNXNowsk-6qs9D8RPTx0VKLjOXb6IxGMU-YzT9y3yIufcYfz-aOdXRPV3WIwAhPRIGkIblqg1dXF0erxZGOlX4azA9Z1vFEjPgmW4Csi3-u5WI_Da9xF8ndCkgM2ZLPwmYd7ptwgW2Gmv04TLmfeQ5B-XjpnAuSdQn4SPWA34qRknG4wVUhLXt5vPZd8EQJhaWPrE3Om_tEdiSgq8u_ouRtUQejM-XsIMOr-xk8-ezmByLBjN7ABhJyzaCTkz12EwHVW00]--></g></svg>