<?xml version="1.0" encoding="UTF-8" standalone="no"?><svg xmlns="http://www.w3.org/2000/svg" xmlns:xlink="http://www.w3.org/1999/xlink" contentStyleType="text/css" height="529px" preserveAspectRatio="none" style="width:1621px;height:529px;background:#FFFFFF;" version="1.1" viewBox="0 0 1621 529" width="1621px" zoomAndPan="magnify"><defs/><g><rect fill="#FFFFFF" height="386.8125" style="stroke:#181818;stroke-width:1.0;" width="10" x="244" y="82.5625"/><rect fill="#FFFFFF" height="312.25" style="stroke:#181818;stroke-width:1.0;" width="10" x="496" y="119.8438"/><rect fill="#FFFFFF" height="237.6875" style="stroke:#181818;stroke-width:1.0;" width="10" x="748" y="157.125"/><rect fill="#FFFFFF" height="30" style="stroke:#181818;stroke-width:1.0;" width="10" x="1078" y="194.4063"/><rect fill="#FFFFFF" height="37.2813" style="stroke:#181818;stroke-width:1.0;" width="10" x="1222.5" y="302.25"/><rect fill="none" height="119.125" style="stroke:#000000;stroke-width:1.5;" width="953" x="662.5" y="239.4063"/><line style="stroke:#181818;stroke-width:0.5;stroke-dasharray:5.0,5.0;" x1="248.5" x2="248.5" y1="43.2813" y2="487.375"/><line style="stroke:#181818;stroke-width:0.5;stroke-dasharray:5.0,5.0;" x1="500.5" x2="500.5" y1="43.2813" y2="487.375"/><line style="stroke:#181818;stroke-width:0.5;stroke-dasharray:5.0,5.0;" x1="752.5" x2="752.5" y1="43.2813" y2="487.375"/><line style="stroke:#181818;stroke-width:0.5;stroke-dasharray:5.0,5.0;" x1="923.5" x2="923.5" y1="43.2813" y2="487.375"/><line style="stroke:#181818;stroke-width:0.5;stroke-dasharray:5.0,5.0;" x1="1082.5" x2="1082.5" y1="43.2813" y2="487.375"/><line style="stroke:#181818;stroke-width:0.5;stroke-dasharray:5.0,5.0;" x1="1227.5" x2="1227.5" y1="43.2813" y2="487.375"/><line style="stroke:#181818;stroke-width:0.5;stroke-dasharray:5.0,5.0;" x1="1479.5" x2="1479.5" y1="344.3906" y2="487.375"/><rect fill="#E2E2F0" height="37.2813" rx="2.5" ry="2.5" style="stroke:#181818;stroke-width:0.5;" width="147" x="175.5" y="5"/><text fill="#000000" font-family="sans-serif" font-size="20" lengthAdjust="spacing" textLength="133" x="182.5" y="30.5645">:DeviceRoute</text><rect fill="#E2E2F0" height="37.2813" rx="2.5" ry="2.5" style="stroke:#181818;stroke-width:0.5;" width="147" x="175.5" y="486.375"/><text fill="#000000" font-family="sans-serif" font-size="20" lengthAdjust="spacing" textLength="133" x="182.5" y="511.9395">:DeviceRoute</text><rect fill="#E2E2F0" height="37.2813" rx="2.5" ry="2.5" style="stroke:#181818;stroke-width:0.5;" width="187" x="407.5" y="5"/><text fill="#000000" font-family="sans-serif" font-size="20" lengthAdjust="spacing" textLength="173" x="414.5" y="30.5645">:DeviceController</text><rect fill="#E2E2F0" height="37.2813" rx="2.5" ry="2.5" style="stroke:#181818;stroke-width:0.5;" width="187" x="407.5" y="486.375"/><text fill="#000000" font-family="sans-serif" font-size="20" lengthAdjust="spacing" textLength="173" x="414.5" y="511.9395">:DeviceController</text><rect fill="#E2E2F0" height="37.2813" rx="2.5" ry="2.5" style="stroke:#181818;stroke-width:0.5;" width="161" x="672.5" y="5"/><text fill="#000000" font-family="sans-serif" font-size="20" lengthAdjust="spacing" textLength="147" x="679.5" y="30.5645">:DeviceService</text><rect fill="#E2E2F0" height="37.2813" rx="2.5" ry="2.5" style="stroke:#181818;stroke-width:0.5;" width="161" x="672.5" y="486.375"/><text fill="#000000" font-family="sans-serif" font-size="20" lengthAdjust="spacing" textLength="147" x="679.5" y="511.9395">:DeviceService</text><rect fill="#E2E2F0" height="37.2813" rx="2.5" ry="2.5" style="stroke:#181818;stroke-width:0.5;" width="160" x="843.5" y="5"/><text fill="#000000" font-family="sans-serif" font-size="20" lengthAdjust="spacing" textLength="146" x="850.5" y="30.5645">:device:Device</text><rect fill="#E2E2F0" height="37.2813" rx="2.5" ry="2.5" style="stroke:#181818;stroke-width:0.5;" width="160" x="843.5" y="486.375"/><text fill="#000000" font-family="sans-serif" font-size="20" lengthAdjust="spacing" textLength="146" x="850.5" y="511.9395">:device:Device</text><rect fill="#E2E2F0" height="37.2813" rx="2.5" ry="2.5" style="stroke:#181818;stroke-width:0.5;" width="139" x="1013.5" y="5"/><text fill="#000000" font-family="sans-serif" font-size="20" lengthAdjust="spacing" textLength="125" x="1020.5" y="30.5645">:DeviceRepo</text><rect fill="#E2E2F0" height="37.2813" rx="2.5" ry="2.5" style="stroke:#181818;stroke-width:0.5;" width="139" x="1013.5" y="486.375"/><text fill="#000000" font-family="sans-serif" font-size="20" lengthAdjust="spacing" textLength="125" x="1020.5" y="511.9395">:DeviceRepo</text><rect fill="#E2E2F0" height="37.2813" rx="2.5" ry="2.5" style="stroke:#181818;stroke-width:0.5;" width="130" x="1162.5" y="5"/><text fill="#000000" font-family="sans-serif" font-size="20" lengthAdjust="spacing" textLength="116" x="1169.5" y="30.5645">:DeviceMap</text><rect fill="#E2E2F0" height="37.2813" rx="2.5" ry="2.5" style="stroke:#181818;stroke-width:0.5;" width="130" x="1162.5" y="486.375"/><text fill="#000000" font-family="sans-serif" font-size="20" lengthAdjust="spacing" textLength="116" x="1169.5" y="511.9395">:DeviceMap</text><rect fill="#E2E2F0" height="37.2813" rx="2.5" ry="2.5" style="stroke:#181818;stroke-width:0.5;" width="252" x="1353.5" y="486.375"/><text fill="#000000" font-family="sans-serif" font-size="20" lengthAdjust="spacing" textLength="238" x="1360.5" y="511.9395">:deviceDTO:IDeviceDTO</text><rect fill="#FFFFFF" height="386.8125" style="stroke:#181818;stroke-width:1.0;" width="10" x="244" y="82.5625"/><rect fill="#FFFFFF" height="312.25" style="stroke:#181818;stroke-width:1.0;" width="10" x="496" y="119.8438"/><rect fill="#FFFFFF" height="237.6875" style="stroke:#181818;stroke-width:1.0;" width="10" x="748" y="157.125"/><rect fill="#FFFFFF" height="30" style="stroke:#181818;stroke-width:1.0;" width="10" x="1078" y="194.4063"/><rect fill="#FFFFFF" height="37.2813" style="stroke:#181818;stroke-width:1.0;" width="10" x="1222.5" y="302.25"/><ellipse cx="4.5" cy="81.8125" fill="none" rx="4" ry="4" style="stroke:#181818;stroke-width:1.5;"/><polygon fill="#181818" points="232,78.5625,242,82.5625,232,86.5625,236,82.5625" style="stroke:#181818;stroke-width:1.0;"/><line style="stroke:#181818;stroke-width:1.0;" x1="9" x2="238" y1="82.5625" y2="82.5625"/><text fill="#000000" font-family="sans-serif" font-size="20" font-weight="bold" lengthAdjust="spacing" textLength="14" x="12" y="75.8457">1</text><text fill="#000000" font-family="sans-serif" font-size="20" lengthAdjust="spacing" textLength="199" x="30" y="75.8457">GET /devices/robots</text><polygon fill="#181818" points="484,115.8438,494,119.8438,484,123.8438,488,119.8438" style="stroke:#181818;stroke-width:1.0;"/><line style="stroke:#181818;stroke-width:1.0;" x1="254" x2="490" y1="119.8438" y2="119.8438"/><text fill="#000000" font-family="sans-serif" font-size="20" font-weight="bold" lengthAdjust="spacing" textLength="14" x="261" y="113.127">2</text><text fill="#000000" font-family="sans-serif" font-size="20" lengthAdjust="spacing" textLength="195" x="279" y="113.127">getDevicesRobots()</text><polygon fill="#181818" points="736,153.125,746,157.125,736,161.125,740,157.125" style="stroke:#181818;stroke-width:1.0;"/><line style="stroke:#181818;stroke-width:1.0;" x1="506" x2="742" y1="157.125" y2="157.125"/><text fill="#000000" font-family="sans-serif" font-size="20" font-weight="bold" lengthAdjust="spacing" textLength="14" x="513" y="150.4082">3</text><text fill="#000000" font-family="sans-serif" font-size="20" lengthAdjust="spacing" textLength="195" x="531" y="150.4082">getDevicesRobots()</text><polygon fill="#181818" points="1066,190.4063,1076,194.4063,1066,198.4063,1070,194.4063" style="stroke:#181818;stroke-width:1.0;"/><line style="stroke:#181818;stroke-width:1.0;" x1="758" x2="1072" y1="194.4063" y2="194.4063"/><text fill="#000000" font-family="sans-serif" font-size="20" font-weight="bold" lengthAdjust="spacing" textLength="14" x="765" y="187.6895">4</text><text fill="#000000" font-family="sans-serif" font-size="20" lengthAdjust="spacing" textLength="124" x="783" y="187.6895">findRobots()</text><path d="M662.5,239.4063 L756.5,239.4063 L756.5,254.6875 L746.5,264.6875 L662.5,264.6875 L662.5,239.4063 " fill="#EEEEEE" style="stroke:#000000;stroke-width:1.5;"/><rect fill="none" height="119.125" style="stroke:#000000;stroke-width:1.5;" width="953" x="662.5" y="239.4063"/><text fill="#000000" font-family="sans-serif" font-size="20" font-weight="bold" lengthAdjust="spacing" textLength="49" x="677.5" y="258.9707">loop</text><text fill="#000000" font-family="sans-serif" font-size="20" font-weight="bold" lengthAdjust="spacing" textLength="186" x="771.5" y="259.9707">[foreach device]</text><polygon fill="#181818" points="1210.5,298.25,1220.5,302.25,1210.5,306.25,1214.5,302.25" style="stroke:#181818;stroke-width:1.0;"/><line style="stroke:#181818;stroke-width:1.0;" x1="758" x2="1216.5" y1="302.25" y2="302.25"/><text fill="#000000" font-family="sans-serif" font-size="20" font-weight="bold" lengthAdjust="spacing" textLength="14" x="765" y="295.5332">5</text><text fill="#000000" font-family="sans-serif" font-size="20" lengthAdjust="spacing" textLength="71" x="783" y="295.5332">toDto()</text><polygon fill="#181818" points="1341.5,335.5313,1351.5,339.5313,1341.5,343.5313,1345.5,339.5313" style="stroke:#181818;stroke-width:1.0;"/><line style="stroke:#181818;stroke-width:1.0;" x1="1227.5" x2="1347.5" y1="339.5313" y2="339.5313"/><text fill="#000000" font-family="sans-serif" font-size="20" font-weight="bold" lengthAdjust="spacing" textLength="14" x="1234.5" y="332.8145">6</text><text fill="#000000" font-family="sans-serif" font-size="20" lengthAdjust="spacing" textLength="79" x="1252.5" y="332.8145">create()</text><rect fill="#E2E2F0" height="37.2813" rx="2.5" ry="2.5" style="stroke:#181818;stroke-width:0.5;" width="252" x="1353.5" y="310.25"/><text fill="#000000" font-family="sans-serif" font-size="20" lengthAdjust="spacing" textLength="238" x="1360.5" y="335.8145">:deviceDTO:IDeviceDTO</text><polygon fill="#181818" points="517,390.8125,507,394.8125,517,398.8125,513,394.8125" style="stroke:#181818;stroke-width:1.0;"/><line style="stroke:#181818;stroke-width:1.0;stroke-dasharray:2.0,2.0;" x1="511" x2="752" y1="394.8125" y2="394.8125"/><text fill="#000000" font-family="sans-serif" font-size="20" font-weight="bold" lengthAdjust="spacing" textLength="14" x="523" y="388.0957">7</text><text fill="#000000" font-family="sans-serif" font-size="20" lengthAdjust="spacing" textLength="200" x="541" y="388.0957">sucess(devicesDTO)</text><polygon fill="#181818" points="265,428.0938,255,432.0938,265,436.0938,261,432.0938" style="stroke:#181818;stroke-width:1.0;"/><line style="stroke:#181818;stroke-width:1.0;stroke-dasharray:2.0,2.0;" x1="259" x2="500" y1="432.0938" y2="432.0938"/><text fill="#000000" font-family="sans-serif" font-size="20" font-weight="bold" lengthAdjust="spacing" textLength="14" x="271" y="425.377">8</text><text fill="#000000" font-family="sans-serif" font-size="20" lengthAdjust="spacing" textLength="200" x="289" y="425.377">sucess(devicesDTO)</text><polygon fill="#181818" points="11,465.375,1,469.375,11,473.375,7,469.375" style="stroke:#181818;stroke-width:1.0;"/><line style="stroke:#181818;stroke-width:1.0;stroke-dasharray:2.0,2.0;" x1="5" x2="248" y1="469.375" y2="469.375"/><text fill="#000000" font-family="sans-serif" font-size="20" font-weight="bold" lengthAdjust="spacing" textLength="14" x="17" y="462.6582">9</text><text fill="#000000" font-family="sans-serif" font-size="20" lengthAdjust="spacing" textLength="74" x="35" y="462.6582">200 OK</text><!--SRC=[VP51Ry8m38Nl-HKM9q1288xLj6cZR4835PMoUsZD5b6QAaavxDVFIJf8XCIXQXD_VlPxrIVHj5pnSotB4rPGuP5tjNcNZTc9NuJvZF7EoAOx7r0n8eqeHSiR0tcsBvR0DGoI52-Yn5ns1WSHioZoTOWiI5R9kaOLSxlyAyHsgEmhPjxsgtNggSfHFHnJ-NARHKjXAsDYyxeDWGrlutfQPE4KEYQhzFzpmDYBd3ptvXFuM1OmzQ2UAdcGHZDU6d7X1Zt4c6UfoQMHm3SQhwTprp0StLeimXn7l4tbCKu4eySkP7qdS1HDTO_P8gimFWFKKhPmb8eAF-1Dq2sukIHfWqh0oDH84hE5gm2Lt8L5YAHWncDYIv8osCF1F8zZKp4dVOj2TsHB3_i0IMOKhcdT-Io2n1-tkFoU9fChFf_D8FkCpBk_yWS0]--></g></svg>