<?xml version="1.0" encoding="UTF-8" standalone="no"?><svg xmlns="http://www.w3.org/2000/svg" xmlns:xlink="http://www.w3.org/1999/xlink" contentStyleType="text/css" height="494px" preserveAspectRatio="none" style="width:875px;height:494px;background:#FFFFFF;" version="1.1" viewBox="0 0 875 494" width="875px" zoomAndPan="magnify"><defs/><g><rect fill="#FFFFFF" height="290.9198" style="stroke:#181818;stroke-width:1.0;" width="10" x="100.5" y="102.24"/><rect fill="#FFFFFF" height="41.24" style="stroke:#181818;stroke-width:1.0;" width="10" x="749.125" y="135.4799"/><rect fill="#FFFFFF" height="160.1999" style="stroke:#181818;stroke-width:1.0;" width="10" x="749.125" y="217.9599"/><rect fill="none" height="153.1999" style="stroke:#000000;stroke-width:1.5;" width="858.125" x="10" y="232.9599"/><line style="stroke:#181818;stroke-width:0.5;stroke-dasharray:5.0,5.0;" x1="105" x2="105" y1="92.24" y2="403.1598"/><line style="stroke:#181818;stroke-width:0.5;stroke-dasharray:5.0,5.0;" x1="754.125" x2="754.125" y1="92.24" y2="403.1598"/><text fill="#000000" font-family="sans-serif" font-size="20" lengthAdjust="spacing" textLength="165" x="20" y="86.38">Campus Manager</text><ellipse cx="105.5" cy="13.5" fill="#E2E2F0" rx="8" ry="8" style="stroke:#181818;stroke-width:0.5;"/><path d="M105.5,21.5 L105.5,48.5 M92.5,29.5 L118.5,29.5 M105.5,48.5 L92.5,63.5 M105.5,48.5 L118.5,63.5 " fill="none" style="stroke:#181818;stroke-width:0.5;"/><text fill="#000000" font-family="sans-serif" font-size="20" lengthAdjust="spacing" textLength="165" x="20" y="423.5398">Campus Manager</text><ellipse cx="105.5" cy="437.8997" fill="#E2E2F0" rx="8" ry="8" style="stroke:#181818;stroke-width:0.5;"/><path d="M105.5,445.8997 L105.5,472.8997 M92.5,453.8997 L118.5,453.8997 M105.5,472.8997 L92.5,487.8997 M105.5,472.8997 L118.5,487.8997 " fill="none" style="stroke:#181818;stroke-width:0.5;"/><rect fill="#E2E2F0" height="68.4799" rx="2.5" ry="2.5" style="stroke:#181818;stroke-width:0.5;" width="208" x="650.125" y="22.76"/><text fill="#000000" font-family="sans-serif" font-size="20" font-style="italic" lengthAdjust="spacing" textLength="122" x="693.125" y="51.14">«system (C4)»</text><text fill="#000000" font-family="sans-serif" font-size="20" lengthAdjust="spacing" textLength="194" x="657.125" y="78.38">RobDroneGo System</text><rect fill="#E2E2F0" height="68.4799" rx="2.5" ry="2.5" style="stroke:#181818;stroke-width:0.5;" width="208" x="650.125" y="402.1598"/><text fill="#000000" font-family="sans-serif" font-size="20" font-style="italic" lengthAdjust="spacing" textLength="122" x="693.125" y="430.5398">«system (C4)»</text><text fill="#000000" font-family="sans-serif" font-size="20" lengthAdjust="spacing" textLength="194" x="657.125" y="457.7797">RobDroneGo System</text><rect fill="#FFFFFF" height="290.9198" style="stroke:#181818;stroke-width:1.0;" width="10" x="100.5" y="102.24"/><rect fill="#FFFFFF" height="41.24" style="stroke:#181818;stroke-width:1.0;" width="10" x="749.125" y="135.4799"/><rect fill="#FFFFFF" height="160.1999" style="stroke:#181818;stroke-width:1.0;" width="10" x="749.125" y="217.9599"/><polygon fill="#181818" points="737.125,131.4799,747.125,135.4799,737.125,139.4799,741.125,135.4799" style="stroke:#181818;stroke-width:1.0;"/><line style="stroke:#181818;stroke-width:1.0;" x1="110.5" x2="743.125" y1="135.4799" y2="135.4799"/><text fill="#000000" font-family="sans-serif" font-size="20" font-weight="bold" lengthAdjust="spacing" textLength="11.625" x="117.5" y="127.62">1</text><text fill="#000000" font-family="sans-serif" font-size="20" lengthAdjust="spacing" textLength="235" x="133.125" y="127.62">wants to edit a connector</text><polygon fill="#181818" points="121.5,172.7199,111.5,176.7199,121.5,180.7199,117.5,176.7199" style="stroke:#181818;stroke-width:1.0;"/><line style="stroke:#181818;stroke-width:1.0;stroke-dasharray:2.0,2.0;" x1="115.5" x2="753.125" y1="176.7199" y2="176.7199"/><text fill="#000000" font-family="sans-serif" font-size="20" font-weight="bold" lengthAdjust="spacing" textLength="11.625" x="127.5" y="168.8599">2</text><text fill="#000000" font-family="sans-serif" font-size="20" lengthAdjust="spacing" textLength="319" x="143.125" y="168.8599">asks for the floor 1 &amp; floor 2 codes</text><polygon fill="#181818" points="737.125,213.9599,747.125,217.9599,737.125,221.9599,741.125,217.9599" style="stroke:#181818;stroke-width:1.0;"/><line style="stroke:#181818;stroke-width:1.0;" x1="110.5" x2="743.125" y1="217.9599" y2="217.9599"/><text fill="#000000" font-family="sans-serif" font-size="20" font-weight="bold" lengthAdjust="spacing" textLength="11.625" x="117.5" y="210.0999">3</text><text fill="#000000" font-family="sans-serif" font-size="20" lengthAdjust="spacing" textLength="144" x="133.125" y="210.0999">inserts the data</text><path d="M10,232.9599 L79.875,232.9599 L79.875,252.1999 L69.875,262.1999 L10,262.1999 L10,232.9599 " fill="#EEEEEE" style="stroke:#000000;stroke-width:1.5;"/><rect fill="none" height="153.1999" style="stroke:#000000;stroke-width:1.5;" width="858.125" x="10" y="232.9599"/><text fill="#000000" font-family="sans-serif" font-size="20" font-weight="bold" lengthAdjust="spacing" textLength="24.875" x="25" y="255.3399">alt</text><text fill="#000000" font-family="sans-serif" font-size="20" font-weight="bold" lengthAdjust="spacing" textLength="285.625" x="94.875" y="256.3399">[the connector gets updated]</text><polygon fill="#181818" points="121.5,303.6798,111.5,307.6798,121.5,311.6798,117.5,307.6798" style="stroke:#181818;stroke-width:1.0;"/><line style="stroke:#181818;stroke-width:1.0;stroke-dasharray:2.0,2.0;" x1="115.5" x2="748.125" y1="307.6798" y2="307.6798"/><text fill="#000000" font-family="sans-serif" font-size="20" font-weight="bold" lengthAdjust="spacing" textLength="11.625" x="127.5" y="299.8198">4</text><text fill="#000000" font-family="sans-serif" font-size="20" lengthAdjust="spacing" textLength="284" x="143.125" y="299.8198">returns the updated connector</text><line style="stroke:#000000;stroke-width:1.0;stroke-dasharray:2.0,2.0;" x1="10" x2="868.125" y1="316.6798" y2="316.6798"/><text fill="#000000" font-family="sans-serif" font-size="20" font-weight="bold" lengthAdjust="spacing" textLength="422.125" x="15" y="338.0598">[there is a connector between those floors]</text><polygon fill="#181818" points="121.5,374.1598,111.5,378.1598,121.5,382.1598,117.5,378.1598" style="stroke:#181818;stroke-width:1.0;"/><line style="stroke:#181818;stroke-width:1.0;stroke-dasharray:2.0,2.0;" x1="115.5" x2="753.125" y1="378.1598" y2="378.1598"/><text fill="#000000" font-family="sans-serif" font-size="20" font-weight="bold" lengthAdjust="spacing" textLength="11.625" x="127.5" y="370.2998">5</text><text fill="#000000" font-family="sans-serif" font-size="20" lengthAdjust="spacing" textLength="599" x="143.125" y="370.2998">shows error message "A connector exists between those floors."</text><!--SRC=[RP4nJyD038Nt-nLM1WH34LHCgAg4Yc3gGYP6D_VQdfBSHMU70hyUDqGb53PBVk_piorrY1rdRfjKrV3aiUM-qQSKjGoVeFcDurvJxDiDidDSQSgqMXCB5IjkkrvepP5to8KpZeOgT1oLojToqBoapMDE4S-9oWzHj0Kj5Z9KTBcwkrek1sXuOuLndJFsR3dOx-bW925D11-KcAeK8uu9VYmc73oBsMmqiTH2MqkfUz2sILRTqiLOpOtX8SxZ3-4qDKH1FiurlsVbis7SwD0wXQ4TJDrtfeLtHB_IP6YVupTib4pMG2CujZ8eo7H1sa0FGBHcad4DEMVBFXs4aBFfMuZO5wXuc43m7iIY_SUwBensTWL4xwQNiNTy0G00]--></g></svg>