<?xml version="1.0" encoding="UTF-8" standalone="no"?><svg xmlns="http://www.w3.org/2000/svg" xmlns:xlink="http://www.w3.org/1999/xlink" contentStyleType="text/css" height="877px" preserveAspectRatio="none" style="width:3565px;height:877px;background:#FFFFFF;" version="1.1" viewBox="0 0 3565 877" width="3565px" zoomAndPan="magnify"><defs/><g><rect fill="#FFFFFF" height="722.5996" style="stroke:#181818;stroke-width:1.0;" width="10" x="238.625" y="90.4799"/><rect fill="#FFFFFF" height="640.1197" style="stroke:#181818;stroke-width:1.0;" width="10" x="590.25" y="131.7199"/><rect fill="#FFFFFF" height="557.6397" style="stroke:#181818;stroke-width:1.0;" width="10" x="983.875" y="172.9599"/><rect fill="#FFFFFF" height="329.4398" style="stroke:#181818;stroke-width:1.0;" width="10" x="1462.5" y="266.4398"/><rect fill="#FFFFFF" height="30" style="stroke:#181818;stroke-width:1.0;" width="10" x="1836.125" y="307.6798"/><rect fill="#FFFFFF" height="41.24" style="stroke:#181818;stroke-width:1.0;" width="10" x="1836.125" y="502.3997"/><rect fill="#FFFFFF" height="41.24" style="stroke:#181818;stroke-width:1.0;" width="10" x="1836.125" y="637.1197"/><rect fill="#FFFFFF" height="30" style="stroke:#181818;stroke-width:1.0;" width="10" x="2651.125" y="431.1598"/><line style="stroke:#181818;stroke-width:0.5;stroke-dasharray:5.0,5.0;" x1="243.125" x2="243.125" y1="47.24" y2="831.0796"/><line style="stroke:#181818;stroke-width:0.5;stroke-dasharray:5.0,5.0;" x1="595.25" x2="595.25" y1="47.24" y2="831.0796"/><line style="stroke:#181818;stroke-width:0.5;stroke-dasharray:5.0,5.0;" x1="988.375" x2="988.375" y1="47.24" y2="831.0796"/><line style="stroke:#181818;stroke-width:0.5;stroke-dasharray:5.0,5.0;" x1="1233.5" x2="1233.5" y1="217.0799" y2="831.0796"/><line style="stroke:#181818;stroke-width:0.5;stroke-dasharray:5.0,5.0;" x1="1467.5" x2="1467.5" y1="47.24" y2="831.0796"/><line style="stroke:#181818;stroke-width:0.5;stroke-dasharray:5.0,5.0;" x1="1841.125" x2="1841.125" y1="47.24" y2="831.0796"/><line style="stroke:#181818;stroke-width:0.5;stroke-dasharray:5.0,5.0;" x1="2179.125" x2="2179.125" y1="381.7998" y2="831.0796"/><line style="stroke:#181818;stroke-width:0.5;stroke-dasharray:5.0,5.0;" x1="2656.125" x2="2656.125" y1="47.24" y2="831.0796"/><line style="stroke:#181818;stroke-width:0.5;stroke-dasharray:5.0,5.0;" x1="3045.125" x2="3045.125" y1="546.5197" y2="831.0796"/><line style="stroke:#181818;stroke-width:0.5;stroke-dasharray:5.0,5.0;" x1="3383.125" x2="3383.125" y1="681.2397" y2="831.0796"/><rect fill="#E2E2F0" height="41.24" rx="2.5" ry="2.5" style="stroke:#181818;stroke-width:0.5;" width="193" x="147.125" y="5"/><text fill="#000000" font-family="sans-serif" font-size="20" lengthAdjust="spacing" textLength="179" x="154.125" y="33.38">:DeviceModelRoute</text><rect fill="#E2E2F0" height="41.24" rx="2.5" ry="2.5" style="stroke:#181818;stroke-width:0.5;" width="193" x="147.125" y="830.0796"/><text fill="#000000" font-family="sans-serif" font-size="20" lengthAdjust="spacing" textLength="179" x="154.125" y="858.4596">:DeviceModelRoute</text><rect fill="#E2E2F0" height="41.24" rx="2.5" ry="2.5" style="stroke:#181818;stroke-width:0.5;" width="232" x="479.25" y="5"/><text fill="#000000" font-family="sans-serif" font-size="20" lengthAdjust="spacing" textLength="218" x="486.25" y="33.38">:DeviceModelController</text><rect fill="#E2E2F0" height="41.24" rx="2.5" ry="2.5" style="stroke:#181818;stroke-width:0.5;" width="232" x="479.25" y="830.0796"/><text fill="#000000" font-family="sans-serif" font-size="20" lengthAdjust="spacing" textLength="218" x="486.25" y="858.4596">:DeviceModelController</text><rect fill="#E2E2F0" height="41.24" rx="2.5" ry="2.5" style="stroke:#181818;stroke-width:0.5;" width="205" x="886.375" y="5"/><text fill="#000000" font-family="sans-serif" font-size="20" lengthAdjust="spacing" textLength="191" x="893.375" y="33.38">:DeviceModelService</text><rect fill="#E2E2F0" height="41.24" rx="2.5" ry="2.5" style="stroke:#181818;stroke-width:0.5;" width="205" x="886.375" y="830.0796"/><text fill="#000000" font-family="sans-serif" font-size="20" lengthAdjust="spacing" textLength="191" x="893.375" y="858.4596">:DeviceModelService</text><rect fill="#E2E2F0" height="41.24" rx="2.5" ry="2.5" style="stroke:#181818;stroke-width:0.5;" width="261" x="1103.5" y="830.0796"/><text fill="#000000" font-family="sans-serif" font-size="20" lengthAdjust="spacing" textLength="247" x="1110.5" y="858.4596">:deviceModel:DeviceModel</text><rect fill="#E2E2F0" height="41.24" rx="2.5" ry="2.5" style="stroke:#181818;stroke-width:0.5;" width="186" x="1374.5" y="5"/><text fill="#000000" font-family="sans-serif" font-size="20" lengthAdjust="spacing" textLength="172" x="1381.5" y="33.38">:DeviceModelRepo</text><rect fill="#E2E2F0" height="41.24" rx="2.5" ry="2.5" style="stroke:#181818;stroke-width:0.5;" width="186" x="1374.5" y="830.0796"/><text fill="#000000" font-family="sans-serif" font-size="20" lengthAdjust="spacing" textLength="172" x="1381.5" y="858.4596">:DeviceModelRepo</text><rect fill="#E2E2F0" height="41.24" rx="2.5" ry="2.5" style="stroke:#181818;stroke-width:0.5;" width="180" x="1751.125" y="5"/><text fill="#000000" font-family="sans-serif" font-size="20" lengthAdjust="spacing" textLength="166" x="1758.125" y="33.38">:DeviceModelMap</text><rect fill="#E2E2F0" height="41.24" rx="2.5" ry="2.5" style="stroke:#181818;stroke-width:0.5;" width="180" x="1751.125" y="830.0796"/><text fill="#000000" font-family="sans-serif" font-size="20" lengthAdjust="spacing" textLength="166" x="1758.125" y="858.4596">:DeviceModelMap</text><rect fill="#E2E2F0" height="41.24" rx="2.5" ry="2.5" style="stroke:#181818;stroke-width:0.5;" width="477" x="1941.125" y="830.0796"/><text fill="#000000" font-family="sans-serif" font-size="20" lengthAdjust="spacing" textLength="463" x="1948.125" y="858.4596">deviceModelPersistence:IDeviceModelPersistence</text><rect fill="#E2E2F0" height="41.24" rx="2.5" ry="2.5" style="stroke:#181818;stroke-width:0.5;" width="456" x="2428.125" y="5"/><text fill="#000000" font-family="sans-serif" font-size="20" lengthAdjust="spacing" textLength="442" x="2435.125" y="33.38">:Model&lt;IDeviceModelPersistence &amp; Document&gt;</text><rect fill="#E2E2F0" height="41.24" rx="2.5" ry="2.5" style="stroke:#181818;stroke-width:0.5;" width="456" x="2428.125" y="830.0796"/><text fill="#000000" font-family="sans-serif" font-size="20" lengthAdjust="spacing" textLength="442" x="2435.125" y="858.4596">:Model&lt;IDeviceModelPersistence &amp; Document&gt;</text><rect fill="#E2E2F0" height="41.24" rx="2.5" ry="2.5" style="stroke:#181818;stroke-width:0.5;" width="303" x="2894.125" y="830.0796"/><text fill="#000000" font-family="sans-serif" font-size="20" lengthAdjust="spacing" textLength="289" x="2901.125" y="858.4596">:newDeviceModel:DeviceModel</text><rect fill="#E2E2F0" height="41.24" rx="2.5" ry="2.5" style="stroke:#181818;stroke-width:0.5;" width="352" x="3207.125" y="830.0796"/><text fill="#000000" font-family="sans-serif" font-size="20" lengthAdjust="spacing" textLength="338" x="3214.125" y="858.4596">:deviceModelDTO:IDeviceModelDTO</text><rect fill="#FFFFFF" height="722.5996" style="stroke:#181818;stroke-width:1.0;" width="10" x="238.625" y="90.4799"/><rect fill="#FFFFFF" height="640.1197" style="stroke:#181818;stroke-width:1.0;" width="10" x="590.25" y="131.7199"/><rect fill="#FFFFFF" height="557.6397" style="stroke:#181818;stroke-width:1.0;" width="10" x="983.875" y="172.9599"/><rect fill="#FFFFFF" height="329.4398" style="stroke:#181818;stroke-width:1.0;" width="10" x="1462.5" y="266.4398"/><rect fill="#FFFFFF" height="30" style="stroke:#181818;stroke-width:1.0;" width="10" x="1836.125" y="307.6798"/><rect fill="#FFFFFF" height="41.24" style="stroke:#181818;stroke-width:1.0;" width="10" x="1836.125" y="502.3997"/><rect fill="#FFFFFF" height="41.24" style="stroke:#181818;stroke-width:1.0;" width="10" x="1836.125" y="637.1197"/><rect fill="#FFFFFF" height="30" style="stroke:#181818;stroke-width:1.0;" width="10" x="2651.125" y="431.1598"/><ellipse cx="4.5" cy="89.7299" fill="none" rx="4" ry="4" style="stroke:#181818;stroke-width:1.5;"/><polygon fill="#181818" points="226.625,86.4799,236.625,90.4799,226.625,94.4799,230.625,90.4799" style="stroke:#181818;stroke-width:1.0;"/><line style="stroke:#181818;stroke-width:1.0;" x1="9" x2="232.625" y1="90.4799" y2="90.4799"/><text fill="#000000" font-family="sans-serif" font-size="20" font-weight="bold" lengthAdjust="spacing" textLength="11.625" x="12" y="82.62">1</text><text fill="#000000" font-family="sans-serif" font-size="20" lengthAdjust="spacing" textLength="196" x="27.625" y="82.62">POST /device-models</text><polygon fill="#181818" points="578.25,127.7199,588.25,131.7199,578.25,135.7199,582.25,131.7199" style="stroke:#181818;stroke-width:1.0;"/><line style="stroke:#181818;stroke-width:1.0;" x1="248.625" x2="584.25" y1="131.7199" y2="131.7199"/><text fill="#000000" font-family="sans-serif" font-size="20" font-weight="bold" lengthAdjust="spacing" textLength="11.625" x="255.625" y="123.8599">2</text><text fill="#000000" font-family="sans-serif" font-size="20" lengthAdjust="spacing" textLength="307" x="271.25" y="123.8599">createDeviceModel(elevatorDTO)</text><polygon fill="#181818" points="971.875,168.9599,981.875,172.9599,971.875,176.9599,975.875,172.9599" style="stroke:#181818;stroke-width:1.0;"/><line style="stroke:#181818;stroke-width:1.0;" x1="600.25" x2="977.875" y1="172.9599" y2="172.9599"/><text fill="#000000" font-family="sans-serif" font-size="20" font-weight="bold" lengthAdjust="spacing" textLength="11.625" x="607.25" y="165.0999">3</text><text fill="#000000" font-family="sans-serif" font-size="20" lengthAdjust="spacing" textLength="349" x="622.875" y="165.0999">createDeviceModel(deviceModelDTO)</text><polygon fill="#181818" points="1091.5,210.1999,1101.5,214.1999,1091.5,218.1999,1095.5,214.1999" style="stroke:#181818;stroke-width:1.0;"/><line style="stroke:#181818;stroke-width:1.0;" x1="993.875" x2="1097.5" y1="214.1999" y2="214.1999"/><text fill="#000000" font-family="sans-serif" font-size="20" font-weight="bold" lengthAdjust="spacing" textLength="11.625" x="1000.875" y="206.3399">4</text><text fill="#000000" font-family="sans-serif" font-size="20" lengthAdjust="spacing" textLength="70" x="1016.5" y="206.3399">create()</text><rect fill="#E2E2F0" height="41.24" rx="2.5" ry="2.5" style="stroke:#181818;stroke-width:0.5;" width="261" x="1103.5" y="180.9599"/><text fill="#000000" font-family="sans-serif" font-size="20" lengthAdjust="spacing" textLength="247" x="1110.5" y="209.3399">:deviceModel:DeviceModel</text><polygon fill="#181818" points="1450.5,262.4398,1460.5,266.4398,1450.5,270.4398,1454.5,266.4398" style="stroke:#181818;stroke-width:1.0;"/><line style="stroke:#181818;stroke-width:1.0;" x1="993.875" x2="1456.5" y1="266.4398" y2="266.4398"/><text fill="#000000" font-family="sans-serif" font-size="20" font-weight="bold" lengthAdjust="spacing" textLength="11.625" x="1000.875" y="258.5799">5</text><text fill="#000000" font-family="sans-serif" font-size="20" lengthAdjust="spacing" textLength="171" x="1016.5" y="258.5799">save(deviceModel)</text><polygon fill="#181818" points="1824.125,303.6798,1834.125,307.6798,1824.125,311.6798,1828.125,307.6798" style="stroke:#181818;stroke-width:1.0;"/><line style="stroke:#181818;stroke-width:1.0;" x1="1472.5" x2="1830.125" y1="307.6798" y2="307.6798"/><text fill="#000000" font-family="sans-serif" font-size="20" font-weight="bold" lengthAdjust="spacing" textLength="11.625" x="1479.5" y="299.8198">6</text><text fill="#000000" font-family="sans-serif" font-size="20" lengthAdjust="spacing" textLength="245" x="1495.125" y="299.8198">toPersitence(deviceModel)</text><polygon fill="#181818" points="1929.125,374.9198,1939.125,378.9198,1929.125,382.9198,1933.125,378.9198" style="stroke:#181818;stroke-width:1.0;"/><line style="stroke:#181818;stroke-width:1.0;" x1="1472.5" x2="1935.125" y1="378.9198" y2="378.9198"/><text fill="#000000" font-family="sans-serif" font-size="20" font-weight="bold" lengthAdjust="spacing" textLength="11.625" x="1479.5" y="371.0598">7</text><text fill="#000000" font-family="sans-serif" font-size="20" lengthAdjust="spacing" textLength="70" x="1495.125" y="371.0598">create()</text><rect fill="#E2E2F0" height="41.24" rx="2.5" ry="2.5" style="stroke:#181818;stroke-width:0.5;" width="477" x="1941.125" y="345.6798"/><text fill="#000000" font-family="sans-serif" font-size="20" lengthAdjust="spacing" textLength="463" x="1948.125" y="374.0598">deviceModelPersistence:IDeviceModelPersistence</text><polygon fill="#181818" points="2639.125,427.1598,2649.125,431.1598,2639.125,435.1598,2643.125,431.1598" style="stroke:#181818;stroke-width:1.0;"/><line style="stroke:#181818;stroke-width:1.0;" x1="1472.5" x2="2645.125" y1="431.1598" y2="431.1598"/><text fill="#000000" font-family="sans-serif" font-size="20" font-weight="bold" lengthAdjust="spacing" textLength="11.625" x="1479.5" y="423.2998">8</text><text fill="#000000" font-family="sans-serif" font-size="20" lengthAdjust="spacing" textLength="294" x="1495.125" y="423.2998">create(deviceModelPersistence)</text><polygon fill="#181818" points="1824.125,498.3997,1834.125,502.3997,1824.125,506.3997,1828.125,502.3997" style="stroke:#181818;stroke-width:1.0;"/><line style="stroke:#181818;stroke-width:1.0;" x1="1472.5" x2="1830.125" y1="502.3997" y2="502.3997"/><text fill="#000000" font-family="sans-serif" font-size="20" font-weight="bold" lengthAdjust="spacing" textLength="11.625" x="1479.5" y="494.5398">9</text><text fill="#000000" font-family="sans-serif" font-size="20" lengthAdjust="spacing" textLength="329" x="1495.125" y="494.5398">toDomain(deviceModelPersistence)</text><polygon fill="#181818" points="2882.125,539.6397,2892.125,543.6397,2882.125,547.6397,2886.125,543.6397" style="stroke:#181818;stroke-width:1.0;"/><line style="stroke:#181818;stroke-width:1.0;" x1="1841.125" x2="2888.125" y1="543.6397" y2="543.6397"/><text fill="#000000" font-family="sans-serif" font-size="20" font-weight="bold" lengthAdjust="spacing" textLength="23.25" x="1848.125" y="535.7797">10</text><text fill="#000000" font-family="sans-serif" font-size="20" lengthAdjust="spacing" textLength="70" x="1875.375" y="535.7797">create()</text><rect fill="#E2E2F0" height="41.24" rx="2.5" ry="2.5" style="stroke:#181818;stroke-width:0.5;" width="303" x="2894.125" y="510.3997"/><text fill="#000000" font-family="sans-serif" font-size="20" lengthAdjust="spacing" textLength="289" x="2901.125" y="538.7797">:newDeviceModel:DeviceModel</text><polygon fill="#181818" points="1004.875,591.8797,994.875,595.8797,1004.875,599.8797,1000.875,595.8797" style="stroke:#181818;stroke-width:1.0;"/><line style="stroke:#181818;stroke-width:1.0;stroke-dasharray:2.0,2.0;" x1="998.875" x2="1466.5" y1="595.8797" y2="595.8797"/><text fill="#000000" font-family="sans-serif" font-size="20" font-weight="bold" lengthAdjust="spacing" textLength="23.25" x="1010.875" y="588.0197">11</text><text fill="#000000" font-family="sans-serif" font-size="20" lengthAdjust="spacing" textLength="159" x="1038.125" y="588.0197">newDeviceModel</text><polygon fill="#181818" points="1824.125,633.1197,1834.125,637.1197,1824.125,641.1197,1828.125,637.1197" style="stroke:#181818;stroke-width:1.0;"/><line style="stroke:#181818;stroke-width:1.0;" x1="993.875" x2="1830.125" y1="637.1197" y2="637.1197"/><text fill="#000000" font-family="sans-serif" font-size="20" font-weight="bold" lengthAdjust="spacing" textLength="23.25" x="1000.875" y="629.2597">12</text><text fill="#000000" font-family="sans-serif" font-size="20" lengthAdjust="spacing" textLength="224" x="1028.125" y="629.2597">toDto(newDeviceModel)</text><polygon fill="#181818" points="3195.125,674.3596,3205.125,678.3596,3195.125,682.3596,3199.125,678.3596" style="stroke:#181818;stroke-width:1.0;"/><line style="stroke:#181818;stroke-width:1.0;" x1="1841.125" x2="3201.125" y1="678.3596" y2="678.3596"/><text fill="#000000" font-family="sans-serif" font-size="20" font-weight="bold" lengthAdjust="spacing" textLength="23.25" x="1848.125" y="670.4997">13</text><text fill="#000000" font-family="sans-serif" font-size="20" lengthAdjust="spacing" textLength="70" x="1875.375" y="670.4997">create()</text><rect fill="#E2E2F0" height="41.24" rx="2.5" ry="2.5" style="stroke:#181818;stroke-width:0.5;" width="352" x="3207.125" y="645.1197"/><text fill="#000000" font-family="sans-serif" font-size="20" lengthAdjust="spacing" textLength="338" x="3214.125" y="673.4997">:deviceModelDTO:IDeviceModelDTO</text><polygon fill="#181818" points="611.25,726.5996,601.25,730.5996,611.25,734.5996,607.25,730.5996" style="stroke:#181818;stroke-width:1.0;"/><line style="stroke:#181818;stroke-width:1.0;stroke-dasharray:2.0,2.0;" x1="605.25" x2="987.875" y1="730.5996" y2="730.5996"/><text fill="#000000" font-family="sans-serif" font-size="20" font-weight="bold" lengthAdjust="spacing" textLength="23.25" x="617.25" y="722.7396">14</text><text fill="#000000" font-family="sans-serif" font-size="20" lengthAdjust="spacing" textLength="234" x="644.5" y="722.7396">sucess(deviceModelDTO)</text><polygon fill="#181818" points="259.625,767.8396,249.625,771.8396,259.625,775.8396,255.625,771.8396" style="stroke:#181818;stroke-width:1.0;"/><line style="stroke:#181818;stroke-width:1.0;stroke-dasharray:2.0,2.0;" x1="253.625" x2="594.25" y1="771.8396" y2="771.8396"/><text fill="#000000" font-family="sans-serif" font-size="20" font-weight="bold" lengthAdjust="spacing" textLength="23.25" x="265.625" y="763.9796">15</text><text fill="#000000" font-family="sans-serif" font-size="20" lengthAdjust="spacing" textLength="234" x="292.875" y="763.9796">sucess(deviceModelDTO)</text><polygon fill="#181818" points="11,809.0796,1,813.0796,11,817.0796,7,813.0796" style="stroke:#181818;stroke-width:1.0;"/><line style="stroke:#181818;stroke-width:1.0;stroke-dasharray:2.0,2.0;" x1="5" x2="242.625" y1="813.0796" y2="813.0796"/><text fill="#000000" font-family="sans-serif" font-size="20" font-weight="bold" lengthAdjust="spacing" textLength="23.25" x="17" y="805.2196">16</text><text fill="#000000" font-family="sans-serif" font-size="20" lengthAdjust="spacing" textLength="111" x="44.25" y="805.2196">201 Created</text><!--SRC=[ZP9HRu8m58NV-oiQ7nPTGkPy9CPb4vQOg13GlNTmbn2X9MrnoNxzsgBO2cw-GVkTUq_lFU9Gq9fmKfKiEq2ES_WYJIdV6PLfyGDuDaMaaOmsrITmf4XPP4LDgCH9jD-5c0WyyWCu5XbiM0vbmXe98mTSxf9rZrkg1foL9N0NJfEF7fi2rzyk-BPVhOCMpI-eBNFv98oZlbkecOjjNkCUjI6r2yLXaXhAwXm35uMGG3FmLy7W-LMdA0XFSp7W_8OAF-20PKq5L2xS2bjh1XI-Wtl64EoYtj3KcMDP_OyGUc7UuhHa7yTHkiDFhSQhD2GGoMHn919Q2A6MLIApS1zd7DIjLNSC9IW1uwh1v2BNE38QfTNx7vAwTYsr4Y0jKbepZiV7JZ-Ud6_Cydqio17iIbOPJI23ALo7mCUIcIsO9TnGAH3buFoUQ-YCk5wwwcRntSLmXkmccdVQc8Dhim6hI47lAATCQesIRWScDlYSRZ5kp6pO3F0qxiwIP6DNCUn3RVHF4wRi9LYYoK28NYGiaGv5coWhm__BJ1BddjT9PjDdl3IcSkUj9l2_]--></g></svg>