<?xml version="1.0" encoding="UTF-8" standalone="no"?><svg xmlns="http://www.w3.org/2000/svg" xmlns:xlink="http://www.w3.org/1999/xlink" contentStyleType="text/css" height="806px" preserveAspectRatio="none" style="width:3792px;height:806px;background:#FFFFFF;" version="1.1" viewBox="0 0 3792 806" width="3792px" zoomAndPan="magnify"><defs/><g><rect fill="#FFFFFF" height="663.2188" style="stroke:#181818;stroke-width:1.0;" width="10" x="175" y="82.5625"/><rect fill="#FFFFFF" height="588.6563" style="stroke:#181818;stroke-width:1.0;" width="10" x="552" y="119.8438"/><rect fill="#FFFFFF" height="514.0938" style="stroke:#181818;stroke-width:1.0;" width="10" x="973" y="157.125"/><rect fill="#FFFFFF" height="305.6875" style="stroke:#181818;stroke-width:1.0;" width="10" x="1488.5" y="242.6875"/><rect fill="#FFFFFF" height="30" style="stroke:#181818;stroke-width:1.0;" width="10" x="1888.5" y="279.9688"/><rect fill="#FFFFFF" height="37.2813" style="stroke:#181818;stroke-width:1.0;" width="10" x="1888.5" y="462.8125"/><rect fill="#FFFFFF" height="37.2813" style="stroke:#181818;stroke-width:1.0;" width="10" x="1888.5" y="585.6563"/><rect fill="#FFFFFF" height="30" style="stroke:#181818;stroke-width:1.0;" width="10" x="2757" y="395.5313"/><line style="stroke:#181818;stroke-width:0.5;stroke-dasharray:5.0,5.0;" x1="179.5" x2="179.5" y1="43.2813" y2="763.7813"/><line style="stroke:#181818;stroke-width:0.5;stroke-dasharray:5.0,5.0;" x1="556.5" x2="556.5" y1="43.2813" y2="763.7813"/><line style="stroke:#181818;stroke-width:0.5;stroke-dasharray:5.0,5.0;" x1="977.5" x2="977.5" y1="43.2813" y2="763.7813"/><line style="stroke:#181818;stroke-width:0.5;stroke-dasharray:5.0,5.0;" x1="1244" x2="1244" y1="199.2656" y2="763.7813"/><line style="stroke:#181818;stroke-width:0.5;stroke-dasharray:5.0,5.0;" x1="1493" x2="1493" y1="43.2813" y2="763.7813"/><line style="stroke:#181818;stroke-width:0.5;stroke-dasharray:5.0,5.0;" x1="1893.5" x2="1893.5" y1="43.2813" y2="763.7813"/><line style="stroke:#181818;stroke-width:0.5;stroke-dasharray:5.0,5.0;" x1="2251.5" x2="2251.5" y1="352.1094" y2="763.7813"/><line style="stroke:#181818;stroke-width:0.5;stroke-dasharray:5.0,5.0;" x1="2761.5" x2="2761.5" y1="43.2813" y2="763.7813"/><line style="stroke:#181818;stroke-width:0.5;stroke-dasharray:5.0,5.0;" x1="3180.5" x2="3180.5" y1="504.9531" y2="763.7813"/><line style="stroke:#181818;stroke-width:0.5;stroke-dasharray:5.0,5.0;" x1="3538.5" x2="3538.5" y1="627.7969" y2="763.7813"/><line style="stroke:#181818;stroke-width:0.5;stroke-dasharray:5.0,5.0;" x1="3760.5" x2="3760.5" y1="43.2813" y2="763.7813"/><rect fill="#E2E2F0" height="37.2813" rx="2.5" ry="2.5" style="stroke:#181818;stroke-width:0.5;" width="207" x="76.5" y="5"/><text fill="#000000" font-family="sans-serif" font-size="20" lengthAdjust="spacing" textLength="193" x="83.5" y="30.5645">:DeviceModelRoute</text><rect fill="#E2E2F0" height="37.2813" rx="2.5" ry="2.5" style="stroke:#181818;stroke-width:0.5;" width="207" x="76.5" y="762.7813"/><text fill="#000000" font-family="sans-serif" font-size="20" lengthAdjust="spacing" textLength="193" x="83.5" y="788.3457">:DeviceModelRoute</text><rect fill="#E2E2F0" height="37.2813" rx="2.5" ry="2.5" style="stroke:#181818;stroke-width:0.5;" width="247" x="433.5" y="5"/><text fill="#000000" font-family="sans-serif" font-size="20" lengthAdjust="spacing" textLength="233" x="440.5" y="30.5645">:DeviceModelController</text><rect fill="#E2E2F0" height="37.2813" rx="2.5" ry="2.5" style="stroke:#181818;stroke-width:0.5;" width="247" x="433.5" y="762.7813"/><text fill="#000000" font-family="sans-serif" font-size="20" lengthAdjust="spacing" textLength="233" x="440.5" y="788.3457">:DeviceModelController</text><rect fill="#E2E2F0" height="37.2813" rx="2.5" ry="2.5" style="stroke:#181818;stroke-width:0.5;" width="221" x="867.5" y="5"/><text fill="#000000" font-family="sans-serif" font-size="20" lengthAdjust="spacing" textLength="207" x="874.5" y="30.5645">:DeviceModelService</text><rect fill="#E2E2F0" height="37.2813" rx="2.5" ry="2.5" style="stroke:#181818;stroke-width:0.5;" width="221" x="867.5" y="762.7813"/><text fill="#000000" font-family="sans-serif" font-size="20" lengthAdjust="spacing" textLength="207" x="874.5" y="788.3457">:DeviceModelService</text><rect fill="#E2E2F0" height="37.2813" rx="2.5" ry="2.5" style="stroke:#181818;stroke-width:0.5;" width="280" x="1104" y="762.7813"/><text fill="#000000" font-family="sans-serif" font-size="20" lengthAdjust="spacing" textLength="266" x="1111" y="788.3457">:deviceModel:DeviceModel</text><rect fill="#E2E2F0" height="37.2813" rx="2.5" ry="2.5" style="stroke:#181818;stroke-width:0.5;" width="199" x="1394" y="5"/><text fill="#000000" font-family="sans-serif" font-size="20" lengthAdjust="spacing" textLength="185" x="1401" y="30.5645">:DeviceModelRepo</text><rect fill="#E2E2F0" height="37.2813" rx="2.5" ry="2.5" style="stroke:#181818;stroke-width:0.5;" width="199" x="1394" y="762.7813"/><text fill="#000000" font-family="sans-serif" font-size="20" lengthAdjust="spacing" textLength="185" x="1401" y="788.3457">:DeviceModelRepo</text><rect fill="#E2E2F0" height="37.2813" rx="2.5" ry="2.5" style="stroke:#181818;stroke-width:0.5;" width="190" x="1798.5" y="5"/><text fill="#000000" font-family="sans-serif" font-size="20" lengthAdjust="spacing" textLength="176" x="1805.5" y="30.5645">:DeviceModelMap</text><rect fill="#E2E2F0" height="37.2813" rx="2.5" ry="2.5" style="stroke:#181818;stroke-width:0.5;" width="190" x="1798.5" y="762.7813"/><text fill="#000000" font-family="sans-serif" font-size="20" lengthAdjust="spacing" textLength="176" x="1805.5" y="788.3457">:DeviceModelMap</text><rect fill="#E2E2F0" height="37.2813" rx="2.5" ry="2.5" style="stroke:#181818;stroke-width:0.5;" width="507" x="1998.5" y="762.7813"/><text fill="#000000" font-family="sans-serif" font-size="20" lengthAdjust="spacing" textLength="493" x="2005.5" y="788.3457">deviceModelPersistence:IDeviceModelPersistence</text><rect fill="#E2E2F0" height="37.2813" rx="2.5" ry="2.5" style="stroke:#181818;stroke-width:0.5;" width="493" x="2515.5" y="5"/><text fill="#000000" font-family="sans-serif" font-size="20" lengthAdjust="spacing" textLength="479" x="2522.5" y="30.5645">:Model&lt;IDeviceModelPersistence &amp; Document&gt;</text><rect fill="#E2E2F0" height="37.2813" rx="2.5" ry="2.5" style="stroke:#181818;stroke-width:0.5;" width="493" x="2515.5" y="762.7813"/><text fill="#000000" font-family="sans-serif" font-size="20" lengthAdjust="spacing" textLength="479" x="2522.5" y="788.3457">:Model&lt;IDeviceModelPersistence &amp; Document&gt;</text><rect fill="#E2E2F0" height="37.2813" rx="2.5" ry="2.5" style="stroke:#181818;stroke-width:0.5;" width="324" x="3018.5" y="762.7813"/><text fill="#000000" font-family="sans-serif" font-size="20" lengthAdjust="spacing" textLength="310" x="3025.5" y="788.3457">:newDeviceModel:DeviceModel</text><rect fill="#E2E2F0" height="37.2813" rx="2.5" ry="2.5" style="stroke:#181818;stroke-width:0.5;" width="372" x="3352.5" y="762.7813"/><text fill="#000000" font-family="sans-serif" font-size="20" lengthAdjust="spacing" textLength="358" x="3359.5" y="788.3457">:deviceModelDTO:IDeviceModelDTO</text><rect fill="#E2E2F0" height="37.2813" rx="2.5" ry="2.5" style="stroke:#181818;stroke-width:0.5;" width="52" x="3734.5" y="5"/><text fill="#000000" font-family="sans-serif" font-size="20" lengthAdjust="spacing" textLength="38" x="3741.5" y="30.5645">SYS</text><rect fill="#E2E2F0" height="37.2813" rx="2.5" ry="2.5" style="stroke:#181818;stroke-width:0.5;" width="52" x="3734.5" y="762.7813"/><text fill="#000000" font-family="sans-serif" font-size="20" lengthAdjust="spacing" textLength="38" x="3741.5" y="788.3457">SYS</text><rect fill="#FFFFFF" height="663.2188" style="stroke:#181818;stroke-width:1.0;" width="10" x="175" y="82.5625"/><rect fill="#FFFFFF" height="588.6563" style="stroke:#181818;stroke-width:1.0;" width="10" x="552" y="119.8438"/><rect fill="#FFFFFF" height="514.0938" style="stroke:#181818;stroke-width:1.0;" width="10" x="973" y="157.125"/><rect fill="#FFFFFF" height="305.6875" style="stroke:#181818;stroke-width:1.0;" width="10" x="1488.5" y="242.6875"/><rect fill="#FFFFFF" height="30" style="stroke:#181818;stroke-width:1.0;" width="10" x="1888.5" y="279.9688"/><rect fill="#FFFFFF" height="37.2813" style="stroke:#181818;stroke-width:1.0;" width="10" x="1888.5" y="462.8125"/><rect fill="#FFFFFF" height="37.2813" style="stroke:#181818;stroke-width:1.0;" width="10" x="1888.5" y="585.6563"/><rect fill="#FFFFFF" height="30" style="stroke:#181818;stroke-width:1.0;" width="10" x="2757" y="395.5313"/><ellipse cx="3499" cy="81.8125" fill="none" rx="4" ry="4" style="stroke:#181818;stroke-width:1.5;"/><polygon fill="#181818" points="3748.5,78.5625,3758.5,82.5625,3748.5,86.5625,3752.5,82.5625" style="stroke:#181818;stroke-width:1.0;"/><line style="stroke:#181818;stroke-width:1.0;" x1="3503.5" x2="3754.5" y1="82.5625" y2="82.5625"/><text fill="#000000" font-family="sans-serif" font-size="20" font-weight="bold" lengthAdjust="spacing" textLength="14" x="3506.5" y="75.8457">1</text><text fill="#000000" font-family="sans-serif" font-size="20" lengthAdjust="spacing" textLength="211" x="3524.5" y="75.8457">POST /device-models</text><polygon fill="#181818" points="540,115.8438,550,119.8438,540,123.8438,544,119.8438" style="stroke:#181818;stroke-width:1.0;"/><line style="stroke:#181818;stroke-width:1.0;" x1="185" x2="546" y1="119.8438" y2="119.8438"/><text fill="#000000" font-family="sans-serif" font-size="20" font-weight="bold" lengthAdjust="spacing" textLength="14" x="192" y="113.127">2</text><text fill="#000000" font-family="sans-serif" font-size="20" lengthAdjust="spacing" textLength="330" x="210" y="113.127">createDeviceModel(elevatorDTO)</text><polygon fill="#181818" points="961,153.125,971,157.125,961,161.125,965,157.125" style="stroke:#181818;stroke-width:1.0;"/><line style="stroke:#181818;stroke-width:1.0;" x1="562" x2="967" y1="157.125" y2="157.125"/><text fill="#000000" font-family="sans-serif" font-size="20" font-weight="bold" lengthAdjust="spacing" textLength="14" x="569" y="150.4082">3</text><text fill="#000000" font-family="sans-serif" font-size="20" lengthAdjust="spacing" textLength="374" x="587" y="150.4082">createDeviceModel(deviceModelDTO)</text><polygon fill="#181818" points="1092,190.4063,1102,194.4063,1092,198.4063,1096,194.4063" style="stroke:#181818;stroke-width:1.0;"/><line style="stroke:#181818;stroke-width:1.0;" x1="983" x2="1098" y1="194.4063" y2="194.4063"/><text fill="#000000" font-family="sans-serif" font-size="20" font-weight="bold" lengthAdjust="spacing" textLength="14" x="990" y="187.6895">4</text><text fill="#000000" font-family="sans-serif" font-size="20" lengthAdjust="spacing" textLength="79" x="1008" y="187.6895">create()</text><rect fill="#E2E2F0" height="37.2813" rx="2.5" ry="2.5" style="stroke:#181818;stroke-width:0.5;" width="280" x="1104" y="165.125"/><text fill="#000000" font-family="sans-serif" font-size="20" lengthAdjust="spacing" textLength="266" x="1111" y="190.6895">:deviceModel:DeviceModel</text><polygon fill="#181818" points="1476.5,238.6875,1486.5,242.6875,1476.5,246.6875,1480.5,242.6875" style="stroke:#181818;stroke-width:1.0;"/><line style="stroke:#181818;stroke-width:1.0;" x1="983" x2="1482.5" y1="242.6875" y2="242.6875"/><text fill="#000000" font-family="sans-serif" font-size="20" font-weight="bold" lengthAdjust="spacing" textLength="14" x="990" y="235.9707">5</text><text fill="#000000" font-family="sans-serif" font-size="20" lengthAdjust="spacing" textLength="186" x="1008" y="235.9707">save(deviceModel)</text><polygon fill="#181818" points="1876.5,275.9688,1886.5,279.9688,1876.5,283.9688,1880.5,279.9688" style="stroke:#181818;stroke-width:1.0;"/><line style="stroke:#181818;stroke-width:1.0;" x1="1498.5" x2="1882.5" y1="279.9688" y2="279.9688"/><text fill="#000000" font-family="sans-serif" font-size="20" font-weight="bold" lengthAdjust="spacing" textLength="14" x="1505.5" y="273.252">6</text><text fill="#000000" font-family="sans-serif" font-size="20" lengthAdjust="spacing" textLength="265" x="1523.5" y="273.252">toPersitence(deviceModel)</text><polygon fill="#181818" points="1986.5,343.25,1996.5,347.25,1986.5,351.25,1990.5,347.25" style="stroke:#181818;stroke-width:1.0;"/><line style="stroke:#181818;stroke-width:1.0;" x1="1498.5" x2="1992.5" y1="347.25" y2="347.25"/><text fill="#000000" font-family="sans-serif" font-size="20" font-weight="bold" lengthAdjust="spacing" textLength="14" x="1505.5" y="340.5332">7</text><text fill="#000000" font-family="sans-serif" font-size="20" lengthAdjust="spacing" textLength="79" x="1523.5" y="340.5332">create()</text><rect fill="#E2E2F0" height="37.2813" rx="2.5" ry="2.5" style="stroke:#181818;stroke-width:0.5;" width="507" x="1998.5" y="317.9688"/><text fill="#000000" font-family="sans-serif" font-size="20" lengthAdjust="spacing" textLength="493" x="2005.5" y="343.5332">deviceModelPersistence:IDeviceModelPersistence</text><polygon fill="#181818" points="2745,391.5313,2755,395.5313,2745,399.5313,2749,395.5313" style="stroke:#181818;stroke-width:1.0;"/><line style="stroke:#181818;stroke-width:1.0;" x1="1498.5" x2="2751" y1="395.5313" y2="395.5313"/><text fill="#000000" font-family="sans-serif" font-size="20" font-weight="bold" lengthAdjust="spacing" textLength="14" x="1505.5" y="388.8145">8</text><text fill="#000000" font-family="sans-serif" font-size="20" lengthAdjust="spacing" textLength="318" x="1523.5" y="388.8145">create(deviceModelPersistence)</text><polygon fill="#181818" points="1876.5,458.8125,1886.5,462.8125,1876.5,466.8125,1880.5,462.8125" style="stroke:#181818;stroke-width:1.0;"/><line style="stroke:#181818;stroke-width:1.0;" x1="1498.5" x2="1882.5" y1="462.8125" y2="462.8125"/><text fill="#000000" font-family="sans-serif" font-size="20" font-weight="bold" lengthAdjust="spacing" textLength="14" x="1505.5" y="456.0957">9</text><text fill="#000000" font-family="sans-serif" font-size="20" lengthAdjust="spacing" textLength="353" x="1523.5" y="456.0957">toDomain(deviceModelPersistence)</text><polygon fill="#181818" points="3006.5,496.0938,3016.5,500.0938,3006.5,504.0938,3010.5,500.0938" style="stroke:#181818;stroke-width:1.0;"/><line style="stroke:#181818;stroke-width:1.0;" x1="1893.5" x2="3012.5" y1="500.0938" y2="500.0938"/><text fill="#000000" font-family="sans-serif" font-size="20" font-weight="bold" lengthAdjust="spacing" textLength="28" x="1900.5" y="493.377">10</text><text fill="#000000" font-family="sans-serif" font-size="20" lengthAdjust="spacing" textLength="79" x="1932.5" y="493.377">create()</text><rect fill="#E2E2F0" height="37.2813" rx="2.5" ry="2.5" style="stroke:#181818;stroke-width:0.5;" width="324" x="3018.5" y="470.8125"/><text fill="#000000" font-family="sans-serif" font-size="20" lengthAdjust="spacing" textLength="310" x="3025.5" y="496.377">:newDeviceModel:DeviceModel</text><polygon fill="#181818" points="994,544.375,984,548.375,994,552.375,990,548.375" style="stroke:#181818;stroke-width:1.0;"/><line style="stroke:#181818;stroke-width:1.0;stroke-dasharray:2.0,2.0;" x1="988" x2="1492.5" y1="548.375" y2="548.375"/><text fill="#000000" font-family="sans-serif" font-size="20" font-weight="bold" lengthAdjust="spacing" textLength="28" x="1000" y="541.6582">11</text><text fill="#000000" font-family="sans-serif" font-size="20" lengthAdjust="spacing" textLength="169" x="1032" y="541.6582">newDeviceModel</text><polygon fill="#181818" points="1876.5,581.6563,1886.5,585.6563,1876.5,589.6563,1880.5,585.6563" style="stroke:#181818;stroke-width:1.0;"/><line style="stroke:#181818;stroke-width:1.0;" x1="983" x2="1882.5" y1="585.6563" y2="585.6563"/><text fill="#000000" font-family="sans-serif" font-size="20" font-weight="bold" lengthAdjust="spacing" textLength="28" x="990" y="578.9395">12</text><text fill="#000000" font-family="sans-serif" font-size="20" lengthAdjust="spacing" textLength="240" x="1022" y="578.9395">toDto(newDeviceModel)</text><polygon fill="#181818" points="3340.5,618.9375,3350.5,622.9375,3340.5,626.9375,3344.5,622.9375" style="stroke:#181818;stroke-width:1.0;"/><line style="stroke:#181818;stroke-width:1.0;" x1="1893.5" x2="3346.5" y1="622.9375" y2="622.9375"/><text fill="#000000" font-family="sans-serif" font-size="20" font-weight="bold" lengthAdjust="spacing" textLength="28" x="1900.5" y="616.2207">13</text><text fill="#000000" font-family="sans-serif" font-size="20" lengthAdjust="spacing" textLength="79" x="1932.5" y="616.2207">create()</text><rect fill="#E2E2F0" height="37.2813" rx="2.5" ry="2.5" style="stroke:#181818;stroke-width:0.5;" width="372" x="3352.5" y="593.6563"/><text fill="#000000" font-family="sans-serif" font-size="20" lengthAdjust="spacing" textLength="358" x="3359.5" y="619.2207">:deviceModelDTO:IDeviceModelDTO</text><polygon fill="#181818" points="573,667.2188,563,671.2188,573,675.2188,569,671.2188" style="stroke:#181818;stroke-width:1.0;"/><line style="stroke:#181818;stroke-width:1.0;stroke-dasharray:2.0,2.0;" x1="567" x2="977" y1="671.2188" y2="671.2188"/><text fill="#000000" font-family="sans-serif" font-size="20" font-weight="bold" lengthAdjust="spacing" textLength="28" x="579" y="664.502">14</text><text fill="#000000" font-family="sans-serif" font-size="20" lengthAdjust="spacing" textLength="250" x="611" y="664.502">sucess(deviceModelDTO)</text><polygon fill="#181818" points="196,704.5,186,708.5,196,712.5,192,708.5" style="stroke:#181818;stroke-width:1.0;"/><line style="stroke:#181818;stroke-width:1.0;stroke-dasharray:2.0,2.0;" x1="190" x2="556" y1="708.5" y2="708.5"/><text fill="#000000" font-family="sans-serif" font-size="20" font-weight="bold" lengthAdjust="spacing" textLength="28" x="202" y="701.7832">15</text><text fill="#000000" font-family="sans-serif" font-size="20" lengthAdjust="spacing" textLength="250" x="234" y="701.7832">sucess(deviceModelDTO)</text><polygon fill="#181818" points="11,741.7813,1,745.7813,11,749.7813,7,745.7813" style="stroke:#181818;stroke-width:1.0;"/><line style="stroke:#181818;stroke-width:1.0;stroke-dasharray:2.0,2.0;" x1="5" x2="179" y1="745.7813" y2="745.7813"/><text fill="#000000" font-family="sans-serif" font-size="20" font-weight="bold" lengthAdjust="spacing" textLength="28" x="17" y="739.0645">16</text><text fill="#000000" font-family="sans-serif" font-size="20" lengthAdjust="spacing" textLength="124" x="49" y="739.0645">201 Created</text><!--SRC=[ZP9HRu8m58NV-oiQ7nPTGkPy9CPb4vQOg13G9Nliu2uX0YMqk6I_Vkr5iHLSV8FsE_UUtdl48IihLhCYvya1Kfh2Dsjo-SvB6MU_G6TJmXh9owRuWfeeKcP9Lh5IqYZOxtpA11sv7Xop13OyXJpYZOIH1IvtqRh7BLM3ckSvr3OSHnyzDePQVzlWstwrzbeqlQ2cpEOZFmpwRg7YDhPv3NlKXbKs5FfHZ9JHEOHQP492cO2xyWRFhpe5dd-Q2uBp6ohwG3sUD0MKSc5Ns1epAE77ksSCtYxe3KsTMPRL_uYG5-uiQFmPKvU6GRoZJwt2AJGY24jaTcGIsXmGqiP1IN3TBargKBT6rJ7ae0IyLkKd5xd62MfqExNz8Qbjrb0h0T4YfSLXF3vs-l7aV8EhTwbWHp0h6MKqGH1Jk8w0IoN77U0ARgWKI5AmViyrT49iBrrrN7jtCPmWiudchJPuS6tMumNBoZlAAPDQewJRWOaDFgTRZ1qo4yO1diRTMP9yR2k6VQYD_ci2orw29Pe4XEX5mX3fKBI9qil7NDuZmoJE7QUJpARFT8ccKkkj6FW_]--></g></svg>