<?xml version="1.0" encoding="UTF-8" standalone="no"?><svg xmlns="http://www.w3.org/2000/svg" xmlns:xlink="http://www.w3.org/1999/xlink" contentStyleType="text/css" height="806px" preserveAspectRatio="none" style="width:3811px;height:806px;background:#FFFFFF;" version="1.1" viewBox="0 0 3811 806" width="3811px" zoomAndPan="magnify"><defs/><g><rect fill="#FFFFFF" height="663.2188" style="stroke:#181818;stroke-width:1.0;" width="10" x="256" y="82.5625"/><rect fill="#FFFFFF" height="588.6563" style="stroke:#181818;stroke-width:1.0;" width="10" x="633" y="119.8438"/><rect fill="#FFFFFF" height="514.0938" style="stroke:#181818;stroke-width:1.0;" width="10" x="1054" y="157.125"/><rect fill="#FFFFFF" height="305.6875" style="stroke:#181818;stroke-width:1.0;" width="10" x="1569.5" y="242.6875"/><rect fill="#FFFFFF" height="30" style="stroke:#181818;stroke-width:1.0;" width="10" x="1969.5" y="279.9688"/><rect fill="#FFFFFF" height="37.2813" style="stroke:#181818;stroke-width:1.0;" width="10" x="1969.5" y="462.8125"/><rect fill="#FFFFFF" height="37.2813" style="stroke:#181818;stroke-width:1.0;" width="10" x="1969.5" y="585.6563"/><rect fill="#FFFFFF" height="30" style="stroke:#181818;stroke-width:1.0;" width="10" x="2838" y="395.5313"/><line style="stroke:#181818;stroke-width:0.5;stroke-dasharray:5.0,5.0;" x1="260.5" x2="260.5" y1="43.2813" y2="763.7813"/><line style="stroke:#181818;stroke-width:0.5;stroke-dasharray:5.0,5.0;" x1="637.5" x2="637.5" y1="43.2813" y2="763.7813"/><line style="stroke:#181818;stroke-width:0.5;stroke-dasharray:5.0,5.0;" x1="1058.5" x2="1058.5" y1="43.2813" y2="763.7813"/><line style="stroke:#181818;stroke-width:0.5;stroke-dasharray:5.0,5.0;" x1="1325" x2="1325" y1="199.2656" y2="763.7813"/><line style="stroke:#181818;stroke-width:0.5;stroke-dasharray:5.0,5.0;" x1="1574" x2="1574" y1="43.2813" y2="763.7813"/><line style="stroke:#181818;stroke-width:0.5;stroke-dasharray:5.0,5.0;" x1="1974.5" x2="1974.5" y1="43.2813" y2="763.7813"/><line style="stroke:#181818;stroke-width:0.5;stroke-dasharray:5.0,5.0;" x1="2332.5" x2="2332.5" y1="352.1094" y2="763.7813"/><line style="stroke:#181818;stroke-width:0.5;stroke-dasharray:5.0,5.0;" x1="2842.5" x2="2842.5" y1="43.2813" y2="763.7813"/><line style="stroke:#181818;stroke-width:0.5;stroke-dasharray:5.0,5.0;" x1="3261.5" x2="3261.5" y1="504.9531" y2="763.7813"/><line style="stroke:#181818;stroke-width:0.5;stroke-dasharray:5.0,5.0;" x1="3619.5" x2="3619.5" y1="627.7969" y2="763.7813"/><rect fill="#E2E2F0" height="37.2813" rx="2.5" ry="2.5" style="stroke:#181818;stroke-width:0.5;" width="207" x="157.5" y="5"/><text fill="#000000" font-family="sans-serif" font-size="20" lengthAdjust="spacing" textLength="193" x="164.5" y="30.5645">:DeviceModelRoute</text><rect fill="#E2E2F0" height="37.2813" rx="2.5" ry="2.5" style="stroke:#181818;stroke-width:0.5;" width="207" x="157.5" y="762.7813"/><text fill="#000000" font-family="sans-serif" font-size="20" lengthAdjust="spacing" textLength="193" x="164.5" y="788.3457">:DeviceModelRoute</text><rect fill="#E2E2F0" height="37.2813" rx="2.5" ry="2.5" style="stroke:#181818;stroke-width:0.5;" width="247" x="514.5" y="5"/><text fill="#000000" font-family="sans-serif" font-size="20" lengthAdjust="spacing" textLength="233" x="521.5" y="30.5645">:DeviceModelController</text><rect fill="#E2E2F0" height="37.2813" rx="2.5" ry="2.5" style="stroke:#181818;stroke-width:0.5;" width="247" x="514.5" y="762.7813"/><text fill="#000000" font-family="sans-serif" font-size="20" lengthAdjust="spacing" textLength="233" x="521.5" y="788.3457">:DeviceModelController</text><rect fill="#E2E2F0" height="37.2813" rx="2.5" ry="2.5" style="stroke:#181818;stroke-width:0.5;" width="221" x="948.5" y="5"/><text fill="#000000" font-family="sans-serif" font-size="20" lengthAdjust="spacing" textLength="207" x="955.5" y="30.5645">:DeviceModelService</text><rect fill="#E2E2F0" height="37.2813" rx="2.5" ry="2.5" style="stroke:#181818;stroke-width:0.5;" width="221" x="948.5" y="762.7813"/><text fill="#000000" font-family="sans-serif" font-size="20" lengthAdjust="spacing" textLength="207" x="955.5" y="788.3457">:DeviceModelService</text><rect fill="#E2E2F0" height="37.2813" rx="2.5" ry="2.5" style="stroke:#181818;stroke-width:0.5;" width="280" x="1185" y="762.7813"/><text fill="#000000" font-family="sans-serif" font-size="20" lengthAdjust="spacing" textLength="266" x="1192" y="788.3457">:deviceModel:DeviceModel</text><rect fill="#E2E2F0" height="37.2813" rx="2.5" ry="2.5" style="stroke:#181818;stroke-width:0.5;" width="199" x="1475" y="5"/><text fill="#000000" font-family="sans-serif" font-size="20" lengthAdjust="spacing" textLength="185" x="1482" y="30.5645">:DeviceModelRepo</text><rect fill="#E2E2F0" height="37.2813" rx="2.5" ry="2.5" style="stroke:#181818;stroke-width:0.5;" width="199" x="1475" y="762.7813"/><text fill="#000000" font-family="sans-serif" font-size="20" lengthAdjust="spacing" textLength="185" x="1482" y="788.3457">:DeviceModelRepo</text><rect fill="#E2E2F0" height="37.2813" rx="2.5" ry="2.5" style="stroke:#181818;stroke-width:0.5;" width="190" x="1879.5" y="5"/><text fill="#000000" font-family="sans-serif" font-size="20" lengthAdjust="spacing" textLength="176" x="1886.5" y="30.5645">:DeviceModelMap</text><rect fill="#E2E2F0" height="37.2813" rx="2.5" ry="2.5" style="stroke:#181818;stroke-width:0.5;" width="190" x="1879.5" y="762.7813"/><text fill="#000000" font-family="sans-serif" font-size="20" lengthAdjust="spacing" textLength="176" x="1886.5" y="788.3457">:DeviceModelMap</text><rect fill="#E2E2F0" height="37.2813" rx="2.5" ry="2.5" style="stroke:#181818;stroke-width:0.5;" width="507" x="2079.5" y="762.7813"/><text fill="#000000" font-family="sans-serif" font-size="20" lengthAdjust="spacing" textLength="493" x="2086.5" y="788.3457">deviceModelPersistence:IDeviceModelPersistence</text><rect fill="#E2E2F0" height="37.2813" rx="2.5" ry="2.5" style="stroke:#181818;stroke-width:0.5;" width="493" x="2596.5" y="5"/><text fill="#000000" font-family="sans-serif" font-size="20" lengthAdjust="spacing" textLength="479" x="2603.5" y="30.5645">:Model&lt;IDeviceModelPersistence &amp; Document&gt;</text><rect fill="#E2E2F0" height="37.2813" rx="2.5" ry="2.5" style="stroke:#181818;stroke-width:0.5;" width="493" x="2596.5" y="762.7813"/><text fill="#000000" font-family="sans-serif" font-size="20" lengthAdjust="spacing" textLength="479" x="2603.5" y="788.3457">:Model&lt;IDeviceModelPersistence &amp; Document&gt;</text><rect fill="#E2E2F0" height="37.2813" rx="2.5" ry="2.5" style="stroke:#181818;stroke-width:0.5;" width="324" x="3099.5" y="762.7813"/><text fill="#000000" font-family="sans-serif" font-size="20" lengthAdjust="spacing" textLength="310" x="3106.5" y="788.3457">:newDeviceModel:DeviceModel</text><rect fill="#E2E2F0" height="37.2813" rx="2.5" ry="2.5" style="stroke:#181818;stroke-width:0.5;" width="372" x="3433.5" y="762.7813"/><text fill="#000000" font-family="sans-serif" font-size="20" lengthAdjust="spacing" textLength="358" x="3440.5" y="788.3457">:deviceModelDTO:IDeviceModelDTO</text><rect fill="#FFFFFF" height="663.2188" style="stroke:#181818;stroke-width:1.0;" width="10" x="256" y="82.5625"/><rect fill="#FFFFFF" height="588.6563" style="stroke:#181818;stroke-width:1.0;" width="10" x="633" y="119.8438"/><rect fill="#FFFFFF" height="514.0938" style="stroke:#181818;stroke-width:1.0;" width="10" x="1054" y="157.125"/><rect fill="#FFFFFF" height="305.6875" style="stroke:#181818;stroke-width:1.0;" width="10" x="1569.5" y="242.6875"/><rect fill="#FFFFFF" height="30" style="stroke:#181818;stroke-width:1.0;" width="10" x="1969.5" y="279.9688"/><rect fill="#FFFFFF" height="37.2813" style="stroke:#181818;stroke-width:1.0;" width="10" x="1969.5" y="462.8125"/><rect fill="#FFFFFF" height="37.2813" style="stroke:#181818;stroke-width:1.0;" width="10" x="1969.5" y="585.6563"/><rect fill="#FFFFFF" height="30" style="stroke:#181818;stroke-width:1.0;" width="10" x="2838" y="395.5313"/><ellipse cx="4.5" cy="81.8125" fill="none" rx="4" ry="4" style="stroke:#181818;stroke-width:1.5;"/><polygon fill="#181818" points="244,78.5625,254,82.5625,244,86.5625,248,82.5625" style="stroke:#181818;stroke-width:1.0;"/><line style="stroke:#181818;stroke-width:1.0;" x1="9" x2="250" y1="82.5625" y2="82.5625"/><text fill="#000000" font-family="sans-serif" font-size="20" font-weight="bold" lengthAdjust="spacing" textLength="14" x="12" y="75.8457">1</text><text fill="#000000" font-family="sans-serif" font-size="20" lengthAdjust="spacing" textLength="211" x="30" y="75.8457">POST /device-models</text><polygon fill="#181818" points="621,115.8438,631,119.8438,621,123.8438,625,119.8438" style="stroke:#181818;stroke-width:1.0;"/><line style="stroke:#181818;stroke-width:1.0;" x1="266" x2="627" y1="119.8438" y2="119.8438"/><text fill="#000000" font-family="sans-serif" font-size="20" font-weight="bold" lengthAdjust="spacing" textLength="14" x="273" y="113.127">2</text><text fill="#000000" font-family="sans-serif" font-size="20" lengthAdjust="spacing" textLength="330" x="291" y="113.127">createDeviceModel(elevatorDTO)</text><polygon fill="#181818" points="1042,153.125,1052,157.125,1042,161.125,1046,157.125" style="stroke:#181818;stroke-width:1.0;"/><line style="stroke:#181818;stroke-width:1.0;" x1="643" x2="1048" y1="157.125" y2="157.125"/><text fill="#000000" font-family="sans-serif" font-size="20" font-weight="bold" lengthAdjust="spacing" textLength="14" x="650" y="150.4082">3</text><text fill="#000000" font-family="sans-serif" font-size="20" lengthAdjust="spacing" textLength="374" x="668" y="150.4082">createDeviceModel(deviceModelDTO)</text><polygon fill="#181818" points="1173,190.4063,1183,194.4063,1173,198.4063,1177,194.4063" style="stroke:#181818;stroke-width:1.0;"/><line style="stroke:#181818;stroke-width:1.0;" x1="1064" x2="1179" y1="194.4063" y2="194.4063"/><text fill="#000000" font-family="sans-serif" font-size="20" font-weight="bold" lengthAdjust="spacing" textLength="14" x="1071" y="187.6895">4</text><text fill="#000000" font-family="sans-serif" font-size="20" lengthAdjust="spacing" textLength="79" x="1089" y="187.6895">create()</text><rect fill="#E2E2F0" height="37.2813" rx="2.5" ry="2.5" style="stroke:#181818;stroke-width:0.5;" width="280" x="1185" y="165.125"/><text fill="#000000" font-family="sans-serif" font-size="20" lengthAdjust="spacing" textLength="266" x="1192" y="190.6895">:deviceModel:DeviceModel</text><polygon fill="#181818" points="1557.5,238.6875,1567.5,242.6875,1557.5,246.6875,1561.5,242.6875" style="stroke:#181818;stroke-width:1.0;"/><line style="stroke:#181818;stroke-width:1.0;" x1="1064" x2="1563.5" y1="242.6875" y2="242.6875"/><text fill="#000000" font-family="sans-serif" font-size="20" font-weight="bold" lengthAdjust="spacing" textLength="14" x="1071" y="235.9707">5</text><text fill="#000000" font-family="sans-serif" font-size="20" lengthAdjust="spacing" textLength="186" x="1089" y="235.9707">save(deviceModel)</text><polygon fill="#181818" points="1957.5,275.9688,1967.5,279.9688,1957.5,283.9688,1961.5,279.9688" style="stroke:#181818;stroke-width:1.0;"/><line style="stroke:#181818;stroke-width:1.0;" x1="1579.5" x2="1963.5" y1="279.9688" y2="279.9688"/><text fill="#000000" font-family="sans-serif" font-size="20" font-weight="bold" lengthAdjust="spacing" textLength="14" x="1586.5" y="273.252">6</text><text fill="#000000" font-family="sans-serif" font-size="20" lengthAdjust="spacing" textLength="265" x="1604.5" y="273.252">toPersitence(deviceModel)</text><polygon fill="#181818" points="2067.5,343.25,2077.5,347.25,2067.5,351.25,2071.5,347.25" style="stroke:#181818;stroke-width:1.0;"/><line style="stroke:#181818;stroke-width:1.0;" x1="1579.5" x2="2073.5" y1="347.25" y2="347.25"/><text fill="#000000" font-family="sans-serif" font-size="20" font-weight="bold" lengthAdjust="spacing" textLength="14" x="1586.5" y="340.5332">7</text><text fill="#000000" font-family="sans-serif" font-size="20" lengthAdjust="spacing" textLength="79" x="1604.5" y="340.5332">create()</text><rect fill="#E2E2F0" height="37.2813" rx="2.5" ry="2.5" style="stroke:#181818;stroke-width:0.5;" width="507" x="2079.5" y="317.9688"/><text fill="#000000" font-family="sans-serif" font-size="20" lengthAdjust="spacing" textLength="493" x="2086.5" y="343.5332">deviceModelPersistence:IDeviceModelPersistence</text><polygon fill="#181818" points="2826,391.5313,2836,395.5313,2826,399.5313,2830,395.5313" style="stroke:#181818;stroke-width:1.0;"/><line style="stroke:#181818;stroke-width:1.0;" x1="1579.5" x2="2832" y1="395.5313" y2="395.5313"/><text fill="#000000" font-family="sans-serif" font-size="20" font-weight="bold" lengthAdjust="spacing" textLength="14" x="1586.5" y="388.8145">8</text><text fill="#000000" font-family="sans-serif" font-size="20" lengthAdjust="spacing" textLength="318" x="1604.5" y="388.8145">create(deviceModelPersistence)</text><polygon fill="#181818" points="1957.5,458.8125,1967.5,462.8125,1957.5,466.8125,1961.5,462.8125" style="stroke:#181818;stroke-width:1.0;"/><line style="stroke:#181818;stroke-width:1.0;" x1="1579.5" x2="1963.5" y1="462.8125" y2="462.8125"/><text fill="#000000" font-family="sans-serif" font-size="20" font-weight="bold" lengthAdjust="spacing" textLength="14" x="1586.5" y="456.0957">9</text><text fill="#000000" font-family="sans-serif" font-size="20" lengthAdjust="spacing" textLength="353" x="1604.5" y="456.0957">toDomain(deviceModelPersistence)</text><polygon fill="#181818" points="3087.5,496.0938,3097.5,500.0938,3087.5,504.0938,3091.5,500.0938" style="stroke:#181818;stroke-width:1.0;"/><line style="stroke:#181818;stroke-width:1.0;" x1="1974.5" x2="3093.5" y1="500.0938" y2="500.0938"/><text fill="#000000" font-family="sans-serif" font-size="20" font-weight="bold" lengthAdjust="spacing" textLength="28" x="1981.5" y="493.377">10</text><text fill="#000000" font-family="sans-serif" font-size="20" lengthAdjust="spacing" textLength="79" x="2013.5" y="493.377">create()</text><rect fill="#E2E2F0" height="37.2813" rx="2.5" ry="2.5" style="stroke:#181818;stroke-width:0.5;" width="324" x="3099.5" y="470.8125"/><text fill="#000000" font-family="sans-serif" font-size="20" lengthAdjust="spacing" textLength="310" x="3106.5" y="496.377">:newDeviceModel:DeviceModel</text><polygon fill="#181818" points="1075,544.375,1065,548.375,1075,552.375,1071,548.375" style="stroke:#181818;stroke-width:1.0;"/><line style="stroke:#181818;stroke-width:1.0;stroke-dasharray:2.0,2.0;" x1="1069" x2="1573.5" y1="548.375" y2="548.375"/><text fill="#000000" font-family="sans-serif" font-size="20" font-weight="bold" lengthAdjust="spacing" textLength="28" x="1081" y="541.6582">11</text><text fill="#000000" font-family="sans-serif" font-size="20" lengthAdjust="spacing" textLength="169" x="1113" y="541.6582">newDeviceModel</text><polygon fill="#181818" points="1957.5,581.6563,1967.5,585.6563,1957.5,589.6563,1961.5,585.6563" style="stroke:#181818;stroke-width:1.0;"/><line style="stroke:#181818;stroke-width:1.0;" x1="1064" x2="1963.5" y1="585.6563" y2="585.6563"/><text fill="#000000" font-family="sans-serif" font-size="20" font-weight="bold" lengthAdjust="spacing" textLength="28" x="1071" y="578.9395">12</text><text fill="#000000" font-family="sans-serif" font-size="20" lengthAdjust="spacing" textLength="240" x="1103" y="578.9395">toDto(newDeviceModel)</text><polygon fill="#181818" points="3421.5,618.9375,3431.5,622.9375,3421.5,626.9375,3425.5,622.9375" style="stroke:#181818;stroke-width:1.0;"/><line style="stroke:#181818;stroke-width:1.0;" x1="1974.5" x2="3427.5" y1="622.9375" y2="622.9375"/><text fill="#000000" font-family="sans-serif" font-size="20" font-weight="bold" lengthAdjust="spacing" textLength="28" x="1981.5" y="616.2207">13</text><text fill="#000000" font-family="sans-serif" font-size="20" lengthAdjust="spacing" textLength="79" x="2013.5" y="616.2207">create()</text><rect fill="#E2E2F0" height="37.2813" rx="2.5" ry="2.5" style="stroke:#181818;stroke-width:0.5;" width="372" x="3433.5" y="593.6563"/><text fill="#000000" font-family="sans-serif" font-size="20" lengthAdjust="spacing" textLength="358" x="3440.5" y="619.2207">:deviceModelDTO:IDeviceModelDTO</text><polygon fill="#181818" points="654,667.2188,644,671.2188,654,675.2188,650,671.2188" style="stroke:#181818;stroke-width:1.0;"/><line style="stroke:#181818;stroke-width:1.0;stroke-dasharray:2.0,2.0;" x1="648" x2="1058" y1="671.2188" y2="671.2188"/><text fill="#000000" font-family="sans-serif" font-size="20" font-weight="bold" lengthAdjust="spacing" textLength="28" x="660" y="664.502">14</text><text fill="#000000" font-family="sans-serif" font-size="20" lengthAdjust="spacing" textLength="250" x="692" y="664.502">sucess(deviceModelDTO)</text><polygon fill="#181818" points="277,704.5,267,708.5,277,712.5,273,708.5" style="stroke:#181818;stroke-width:1.0;"/><line style="stroke:#181818;stroke-width:1.0;stroke-dasharray:2.0,2.0;" x1="271" x2="637" y1="708.5" y2="708.5"/><text fill="#000000" font-family="sans-serif" font-size="20" font-weight="bold" lengthAdjust="spacing" textLength="28" x="283" y="701.7832">15</text><text fill="#000000" font-family="sans-serif" font-size="20" lengthAdjust="spacing" textLength="250" x="315" y="701.7832">sucess(deviceModelDTO)</text><polygon fill="#181818" points="11,741.7813,1,745.7813,11,749.7813,7,745.7813" style="stroke:#181818;stroke-width:1.0;"/><line style="stroke:#181818;stroke-width:1.0;stroke-dasharray:2.0,2.0;" x1="5" x2="260" y1="745.7813" y2="745.7813"/><text fill="#000000" font-family="sans-serif" font-size="20" font-weight="bold" lengthAdjust="spacing" textLength="28" x="17" y="739.0645">16</text><text fill="#000000" font-family="sans-serif" font-size="20" lengthAdjust="spacing" textLength="124" x="49" y="739.0645">201 Created</text><!--SRC=[ZP9HRu8m58NV-oiQ7nPTGkPy9CPb4vQOg13GlNTmbn2X9MrnoNxzsgBO2cw-GVkTUq_lFU9Gq9fmKfKiEq2ES_WYJIdV6PLfyGDuDaMaaOmsrITmf4XPP4LDgCH9jD-5c0WyyWCu5XbiM0vbmXe98mTSxf9rZrkg1foL9N0NJfEF7fi2rzyk-BPVhOCMpI-eBNFv98oZlbkecOjjNkCUjI6r2yLXaXhAwXm35uMGG3FmLy7W-LMdA0XFSp7W_8OAF-20PKq5L2xS2bjh1XI-Wtl64EoYtj3KcMDP_OyGUc7UuhHa7yTHkiDFhSQhD2GGoMHn919Q2A6MLIApS1zd7DIjLNSC9IW1uwh1v2BNE38QfTNx7vAwTYsr4Y0jKbepZiV7JZ-Ud6_Cydqio17iIbOPJI23ALo7mCUIcIsO9TnGAH3buFoUQ-YCk5wwwcRntSLmXkmccdVQc8Dhim6hI47lAATCQesIRWScDlYSRZ5kp6pO3F0qxiwIP6DNCUn3RVHF4wRi9LYYoK28NYGiaGv5coWhm__BJ1BddjT9PjDdl3IcSkUj9l2_]--></g></svg>