<?xml version="1.0" encoding="UTF-8" standalone="no"?><svg xmlns="http://www.w3.org/2000/svg" xmlns:xlink="http://www.w3.org/1999/xlink" contentStyleType="text/css" height="877px" preserveAspectRatio="none" style="width:2910px;height:877px;background:#FFFFFF;" version="1.1" viewBox="0 0 2910 877" width="2910px" zoomAndPan="magnify"><defs/><g><rect fill="#FFFFFF" height="722.5996" style="stroke:#181818;stroke-width:1.0;" width="10" x="189.625" y="90.4799"/><rect fill="#FFFFFF" height="640.1197" style="stroke:#181818;stroke-width:1.0;" width="10" x="497.25" y="131.7199"/><rect fill="#FFFFFF" height="557.6397" style="stroke:#181818;stroke-width:1.0;" width="10" x="804.875" y="172.9599"/><rect fill="#FFFFFF" height="329.4398" style="stroke:#181818;stroke-width:1.0;" width="10" x="1175.5" y="266.4398"/><rect fill="#FFFFFF" height="30" style="stroke:#181818;stroke-width:1.0;" width="10" x="1507.125" y="307.6798"/><rect fill="#FFFFFF" height="41.24" style="stroke:#181818;stroke-width:1.0;" width="10" x="1507.125" y="502.3997"/><rect fill="#FFFFFF" height="41.24" style="stroke:#181818;stroke-width:1.0;" width="10" x="1507.125" y="637.1197"/><rect fill="#FFFFFF" height="30" style="stroke:#181818;stroke-width:1.0;" width="10" x="2192.125" y="431.1598"/><line style="stroke:#181818;stroke-width:0.5;stroke-dasharray:5.0,5.0;" x1="194.125" x2="194.125" y1="47.24" y2="831.0796"/><line style="stroke:#181818;stroke-width:0.5;stroke-dasharray:5.0,5.0;" x1="502.25" x2="502.25" y1="47.24" y2="831.0796"/><line style="stroke:#181818;stroke-width:0.5;stroke-dasharray:5.0,5.0;" x1="809.375" x2="809.375" y1="47.24" y2="831.0796"/><line style="stroke:#181818;stroke-width:0.5;stroke-dasharray:5.0,5.0;" x1="1011.5" x2="1011.5" y1="217.0799" y2="831.0796"/><line style="stroke:#181818;stroke-width:0.5;stroke-dasharray:5.0,5.0;" x1="1180.5" x2="1180.5" y1="47.24" y2="831.0796"/><line style="stroke:#181818;stroke-width:0.5;stroke-dasharray:5.0,5.0;" x1="1512.125" x2="1512.125" y1="47.24" y2="831.0796"/><line style="stroke:#181818;stroke-width:0.5;stroke-dasharray:5.0,5.0;" x1="1785.125" x2="1785.125" y1="381.7998" y2="831.0796"/><line style="stroke:#181818;stroke-width:0.5;stroke-dasharray:5.0,5.0;" x1="2197.125" x2="2197.125" y1="47.24" y2="831.0796"/><line style="stroke:#181818;stroke-width:0.5;stroke-dasharray:5.0,5.0;" x1="2520.125" x2="2520.125" y1="546.5197" y2="831.0796"/><line style="stroke:#181818;stroke-width:0.5;stroke-dasharray:5.0,5.0;" x1="2771.125" x2="2771.125" y1="681.2397" y2="831.0796"/><rect fill="#E2E2F0" height="41.24" rx="2.5" ry="2.5" style="stroke:#181818;stroke-width:0.5;" width="149" x="120.125" y="5"/><text fill="#000000" font-family="sans-serif" font-size="20" lengthAdjust="spacing" textLength="135" x="127.125" y="33.38">:BuildingRoute</text><rect fill="#E2E2F0" height="41.24" rx="2.5" ry="2.5" style="stroke:#181818;stroke-width:0.5;" width="149" x="120.125" y="830.0796"/><text fill="#000000" font-family="sans-serif" font-size="20" lengthAdjust="spacing" textLength="135" x="127.125" y="858.4596">:BuildingRoute</text><rect fill="#E2E2F0" height="41.24" rx="2.5" ry="2.5" style="stroke:#181818;stroke-width:0.5;" width="188" x="408.25" y="5"/><text fill="#000000" font-family="sans-serif" font-size="20" lengthAdjust="spacing" textLength="174" x="415.25" y="33.38">:BuildingController</text><rect fill="#E2E2F0" height="41.24" rx="2.5" ry="2.5" style="stroke:#181818;stroke-width:0.5;" width="188" x="408.25" y="830.0796"/><text fill="#000000" font-family="sans-serif" font-size="20" lengthAdjust="spacing" textLength="174" x="415.25" y="858.4596">:BuildingController</text><rect fill="#E2E2F0" height="41.24" rx="2.5" ry="2.5" style="stroke:#181818;stroke-width:0.5;" width="161" x="729.375" y="5"/><text fill="#000000" font-family="sans-serif" font-size="20" lengthAdjust="spacing" textLength="147" x="736.375" y="33.38">:BuildingService</text><rect fill="#E2E2F0" height="41.24" rx="2.5" ry="2.5" style="stroke:#181818;stroke-width:0.5;" width="161" x="729.375" y="830.0796"/><text fill="#000000" font-family="sans-serif" font-size="20" lengthAdjust="spacing" textLength="147" x="736.375" y="858.4596">:BuildingService</text><rect fill="#E2E2F0" height="41.24" rx="2.5" ry="2.5" style="stroke:#181818;stroke-width:0.5;" width="175" x="924.5" y="830.0796"/><text fill="#000000" font-family="sans-serif" font-size="20" lengthAdjust="spacing" textLength="161" x="931.5" y="858.4596">:building:Building</text><rect fill="#E2E2F0" height="41.24" rx="2.5" ry="2.5" style="stroke:#181818;stroke-width:0.5;" width="142" x="1109.5" y="5"/><text fill="#000000" font-family="sans-serif" font-size="20" lengthAdjust="spacing" textLength="128" x="1116.5" y="33.38">:BuildingRepo</text><rect fill="#E2E2F0" height="41.24" rx="2.5" ry="2.5" style="stroke:#181818;stroke-width:0.5;" width="142" x="1109.5" y="830.0796"/><text fill="#000000" font-family="sans-serif" font-size="20" lengthAdjust="spacing" textLength="128" x="1116.5" y="858.4596">:BuildingRepo</text><rect fill="#E2E2F0" height="41.24" rx="2.5" ry="2.5" style="stroke:#181818;stroke-width:0.5;" width="136" x="1444.125" y="5"/><text fill="#000000" font-family="sans-serif" font-size="20" lengthAdjust="spacing" textLength="122" x="1451.125" y="33.38">:BuildingMap</text><rect fill="#E2E2F0" height="41.24" rx="2.5" ry="2.5" style="stroke:#181818;stroke-width:0.5;" width="136" x="1444.125" y="830.0796"/><text fill="#000000" font-family="sans-serif" font-size="20" lengthAdjust="spacing" textLength="122" x="1451.125" y="858.4596">:BuildingMap</text><rect fill="#E2E2F0" height="41.24" rx="2.5" ry="2.5" style="stroke:#181818;stroke-width:0.5;" width="391" x="1590.125" y="830.0796"/><text fill="#000000" font-family="sans-serif" font-size="20" lengthAdjust="spacing" textLength="377" x="1597.125" y="858.4596">buildingPersistence:IBuildingPersistence</text><rect fill="#E2E2F0" height="41.24" rx="2.5" ry="2.5" style="stroke:#181818;stroke-width:0.5;" width="412" x="1991.125" y="5"/><text fill="#000000" font-family="sans-serif" font-size="20" lengthAdjust="spacing" textLength="398" x="1998.125" y="33.38">:Model&lt;IBuildingPersistence &amp; Document&gt;</text><rect fill="#E2E2F0" height="41.24" rx="2.5" ry="2.5" style="stroke:#181818;stroke-width:0.5;" width="412" x="1991.125" y="830.0796"/><text fill="#000000" font-family="sans-serif" font-size="20" lengthAdjust="spacing" textLength="398" x="1998.125" y="858.4596">:Model&lt;IBuildingPersistence &amp; Document&gt;</text><rect fill="#E2E2F0" height="41.24" rx="2.5" ry="2.5" style="stroke:#181818;stroke-width:0.5;" width="215" x="2413.125" y="830.0796"/><text fill="#000000" font-family="sans-serif" font-size="20" lengthAdjust="spacing" textLength="201" x="2420.125" y="858.4596">:newBuilding:Building</text><rect fill="#E2E2F0" height="41.24" rx="2.5" ry="2.5" style="stroke:#181818;stroke-width:0.5;" width="266" x="2638.125" y="830.0796"/><text fill="#000000" font-family="sans-serif" font-size="20" lengthAdjust="spacing" textLength="252" x="2645.125" y="858.4596">:buildingDTO:IBuildingDTO</text><rect fill="#FFFFFF" height="722.5996" style="stroke:#181818;stroke-width:1.0;" width="10" x="189.625" y="90.4799"/><rect fill="#FFFFFF" height="640.1197" style="stroke:#181818;stroke-width:1.0;" width="10" x="497.25" y="131.7199"/><rect fill="#FFFFFF" height="557.6397" style="stroke:#181818;stroke-width:1.0;" width="10" x="804.875" y="172.9599"/><rect fill="#FFFFFF" height="329.4398" style="stroke:#181818;stroke-width:1.0;" width="10" x="1175.5" y="266.4398"/><rect fill="#FFFFFF" height="30" style="stroke:#181818;stroke-width:1.0;" width="10" x="1507.125" y="307.6798"/><rect fill="#FFFFFF" height="41.24" style="stroke:#181818;stroke-width:1.0;" width="10" x="1507.125" y="502.3997"/><rect fill="#FFFFFF" height="41.24" style="stroke:#181818;stroke-width:1.0;" width="10" x="1507.125" y="637.1197"/><rect fill="#FFFFFF" height="30" style="stroke:#181818;stroke-width:1.0;" width="10" x="2192.125" y="431.1598"/><ellipse cx="4.5" cy="89.7299" fill="none" rx="4" ry="4" style="stroke:#181818;stroke-width:1.5;"/><polygon fill="#181818" points="177.625,86.4799,187.625,90.4799,177.625,94.4799,181.625,90.4799" style="stroke:#181818;stroke-width:1.0;"/><line style="stroke:#181818;stroke-width:1.0;" x1="9" x2="183.625" y1="90.4799" y2="90.4799"/><text fill="#000000" font-family="sans-serif" font-size="20" font-weight="bold" lengthAdjust="spacing" textLength="11.625" x="12" y="82.62">1</text><text fill="#000000" font-family="sans-serif" font-size="20" lengthAdjust="spacing" textLength="147" x="27.625" y="82.62">POST /buildings</text><polygon fill="#181818" points="485.25,127.7199,495.25,131.7199,485.25,135.7199,489.25,131.7199" style="stroke:#181818;stroke-width:1.0;"/><line style="stroke:#181818;stroke-width:1.0;" x1="199.625" x2="491.25" y1="131.7199" y2="131.7199"/><text fill="#000000" font-family="sans-serif" font-size="20" font-weight="bold" lengthAdjust="spacing" textLength="11.625" x="206.625" y="123.8599">2</text><text fill="#000000" font-family="sans-serif" font-size="20" lengthAdjust="spacing" textLength="263" x="222.25" y="123.8599">createBuilding(elevatorDTO)</text><polygon fill="#181818" points="792.875,168.9599,802.875,172.9599,792.875,176.9599,796.875,172.9599" style="stroke:#181818;stroke-width:1.0;"/><line style="stroke:#181818;stroke-width:1.0;" x1="507.25" x2="798.875" y1="172.9599" y2="172.9599"/><text fill="#000000" font-family="sans-serif" font-size="20" font-weight="bold" lengthAdjust="spacing" textLength="11.625" x="514.25" y="165.0999">3</text><text fill="#000000" font-family="sans-serif" font-size="20" lengthAdjust="spacing" textLength="263" x="529.875" y="165.0999">createBuilding(buildingDTO)</text><polygon fill="#181818" points="912.5,210.1999,922.5,214.1999,912.5,218.1999,916.5,214.1999" style="stroke:#181818;stroke-width:1.0;"/><line style="stroke:#181818;stroke-width:1.0;" x1="814.875" x2="918.5" y1="214.1999" y2="214.1999"/><text fill="#000000" font-family="sans-serif" font-size="20" font-weight="bold" lengthAdjust="spacing" textLength="11.625" x="821.875" y="206.3399">4</text><text fill="#000000" font-family="sans-serif" font-size="20" lengthAdjust="spacing" textLength="70" x="837.5" y="206.3399">create()</text><rect fill="#E2E2F0" height="41.24" rx="2.5" ry="2.5" style="stroke:#181818;stroke-width:0.5;" width="175" x="924.5" y="180.9599"/><text fill="#000000" font-family="sans-serif" font-size="20" lengthAdjust="spacing" textLength="161" x="931.5" y="209.3399">:building:Building</text><polygon fill="#181818" points="1163.5,262.4398,1173.5,266.4398,1163.5,270.4398,1167.5,266.4398" style="stroke:#181818;stroke-width:1.0;"/><line style="stroke:#181818;stroke-width:1.0;" x1="814.875" x2="1169.5" y1="266.4398" y2="266.4398"/><text fill="#000000" font-family="sans-serif" font-size="20" font-weight="bold" lengthAdjust="spacing" textLength="11.625" x="821.875" y="258.5799">5</text><text fill="#000000" font-family="sans-serif" font-size="20" lengthAdjust="spacing" textLength="129" x="837.5" y="258.5799">save(building)</text><polygon fill="#181818" points="1495.125,303.6798,1505.125,307.6798,1495.125,311.6798,1499.125,307.6798" style="stroke:#181818;stroke-width:1.0;"/><line style="stroke:#181818;stroke-width:1.0;" x1="1185.5" x2="1501.125" y1="307.6798" y2="307.6798"/><text fill="#000000" font-family="sans-serif" font-size="20" font-weight="bold" lengthAdjust="spacing" textLength="11.625" x="1192.5" y="299.8198">6</text><text fill="#000000" font-family="sans-serif" font-size="20" lengthAdjust="spacing" textLength="203" x="1208.125" y="299.8198">toPersitence(building)</text><polygon fill="#181818" points="1578.125,374.9198,1588.125,378.9198,1578.125,382.9198,1582.125,378.9198" style="stroke:#181818;stroke-width:1.0;"/><line style="stroke:#181818;stroke-width:1.0;" x1="1185.5" x2="1584.125" y1="378.9198" y2="378.9198"/><text fill="#000000" font-family="sans-serif" font-size="20" font-weight="bold" lengthAdjust="spacing" textLength="11.625" x="1192.5" y="371.0598">7</text><text fill="#000000" font-family="sans-serif" font-size="20" lengthAdjust="spacing" textLength="70" x="1208.125" y="371.0598">create()</text><rect fill="#E2E2F0" height="41.24" rx="2.5" ry="2.5" style="stroke:#181818;stroke-width:0.5;" width="391" x="1590.125" y="345.6798"/><text fill="#000000" font-family="sans-serif" font-size="20" lengthAdjust="spacing" textLength="377" x="1597.125" y="374.0598">buildingPersistence:IBuildingPersistence</text><polygon fill="#181818" points="2180.125,427.1598,2190.125,431.1598,2180.125,435.1598,2184.125,431.1598" style="stroke:#181818;stroke-width:1.0;"/><line style="stroke:#181818;stroke-width:1.0;" x1="1185.5" x2="2186.125" y1="431.1598" y2="431.1598"/><text fill="#000000" font-family="sans-serif" font-size="20" font-weight="bold" lengthAdjust="spacing" textLength="11.625" x="1192.5" y="423.2998">8</text><text fill="#000000" font-family="sans-serif" font-size="20" lengthAdjust="spacing" textLength="252" x="1208.125" y="423.2998">create(buildingPersistence)</text><polygon fill="#181818" points="1495.125,498.3997,1505.125,502.3997,1495.125,506.3997,1499.125,502.3997" style="stroke:#181818;stroke-width:1.0;"/><line style="stroke:#181818;stroke-width:1.0;" x1="1185.5" x2="1501.125" y1="502.3997" y2="502.3997"/><text fill="#000000" font-family="sans-serif" font-size="20" font-weight="bold" lengthAdjust="spacing" textLength="11.625" x="1192.5" y="494.5398">9</text><text fill="#000000" font-family="sans-serif" font-size="20" lengthAdjust="spacing" textLength="287" x="1208.125" y="494.5398">toDomain(buildingPersistence)</text><polygon fill="#181818" points="2401.125,539.6397,2411.125,543.6397,2401.125,547.6397,2405.125,543.6397" style="stroke:#181818;stroke-width:1.0;"/><line style="stroke:#181818;stroke-width:1.0;" x1="1512.125" x2="2407.125" y1="543.6397" y2="543.6397"/><text fill="#000000" font-family="sans-serif" font-size="20" font-weight="bold" lengthAdjust="spacing" textLength="23.25" x="1519.125" y="535.7797">10</text><text fill="#000000" font-family="sans-serif" font-size="20" lengthAdjust="spacing" textLength="70" x="1546.375" y="535.7797">create()</text><rect fill="#E2E2F0" height="41.24" rx="2.5" ry="2.5" style="stroke:#181818;stroke-width:0.5;" width="215" x="2413.125" y="510.3997"/><text fill="#000000" font-family="sans-serif" font-size="20" lengthAdjust="spacing" textLength="201" x="2420.125" y="538.7797">:newBuilding:Building</text><polygon fill="#181818" points="825.875,591.8797,815.875,595.8797,825.875,599.8797,821.875,595.8797" style="stroke:#181818;stroke-width:1.0;"/><line style="stroke:#181818;stroke-width:1.0;stroke-dasharray:2.0,2.0;" x1="819.875" x2="1179.5" y1="595.8797" y2="595.8797"/><text fill="#000000" font-family="sans-serif" font-size="20" font-weight="bold" lengthAdjust="spacing" textLength="23.25" x="831.875" y="588.0197">11</text><text fill="#000000" font-family="sans-serif" font-size="20" lengthAdjust="spacing" textLength="115" x="859.125" y="588.0197">newBuilding</text><polygon fill="#181818" points="1495.125,633.1197,1505.125,637.1197,1495.125,641.1197,1499.125,637.1197" style="stroke:#181818;stroke-width:1.0;"/><line style="stroke:#181818;stroke-width:1.0;" x1="814.875" x2="1501.125" y1="637.1197" y2="637.1197"/><text fill="#000000" font-family="sans-serif" font-size="20" font-weight="bold" lengthAdjust="spacing" textLength="23.25" x="821.875" y="629.2597">12</text><text fill="#000000" font-family="sans-serif" font-size="20" lengthAdjust="spacing" textLength="180" x="849.125" y="629.2597">toDto(newBuilding)</text><polygon fill="#181818" points="2626.125,674.3596,2636.125,678.3596,2626.125,682.3596,2630.125,678.3596" style="stroke:#181818;stroke-width:1.0;"/><line style="stroke:#181818;stroke-width:1.0;" x1="1512.125" x2="2632.125" y1="678.3596" y2="678.3596"/><text fill="#000000" font-family="sans-serif" font-size="20" font-weight="bold" lengthAdjust="spacing" textLength="23.25" x="1519.125" y="670.4997">13</text><text fill="#000000" font-family="sans-serif" font-size="20" lengthAdjust="spacing" textLength="70" x="1546.375" y="670.4997">create()</text><rect fill="#E2E2F0" height="41.24" rx="2.5" ry="2.5" style="stroke:#181818;stroke-width:0.5;" width="266" x="2638.125" y="645.1197"/><text fill="#000000" font-family="sans-serif" font-size="20" lengthAdjust="spacing" textLength="252" x="2645.125" y="673.4997">:buildingDTO:IBuildingDTO</text><polygon fill="#181818" points="518.25,726.5996,508.25,730.5996,518.25,734.5996,514.25,730.5996" style="stroke:#181818;stroke-width:1.0;"/><line style="stroke:#181818;stroke-width:1.0;stroke-dasharray:2.0,2.0;" x1="512.25" x2="808.875" y1="730.5996" y2="730.5996"/><text fill="#000000" font-family="sans-serif" font-size="20" font-weight="bold" lengthAdjust="spacing" textLength="23.25" x="524.25" y="722.7396">14</text><text fill="#000000" font-family="sans-serif" font-size="20" lengthAdjust="spacing" textLength="192" x="551.5" y="722.7396">sucess(buildingDTO)</text><polygon fill="#181818" points="210.625,767.8396,200.625,771.8396,210.625,775.8396,206.625,771.8396" style="stroke:#181818;stroke-width:1.0;"/><line style="stroke:#181818;stroke-width:1.0;stroke-dasharray:2.0,2.0;" x1="204.625" x2="501.25" y1="771.8396" y2="771.8396"/><text fill="#000000" font-family="sans-serif" font-size="20" font-weight="bold" lengthAdjust="spacing" textLength="23.25" x="216.625" y="763.9796">15</text><text fill="#000000" font-family="sans-serif" font-size="20" lengthAdjust="spacing" textLength="192" x="243.875" y="763.9796">sucess(buildingDTO)</text><polygon fill="#181818" points="11,809.0796,1,813.0796,11,817.0796,7,813.0796" style="stroke:#181818;stroke-width:1.0;"/><line style="stroke:#181818;stroke-width:1.0;stroke-dasharray:2.0,2.0;" x1="5" x2="193.625" y1="813.0796" y2="813.0796"/><text fill="#000000" font-family="sans-serif" font-size="20" font-weight="bold" lengthAdjust="spacing" textLength="23.25" x="17" y="805.2196">16</text><text fill="#000000" font-family="sans-serif" font-size="20" lengthAdjust="spacing" textLength="111" x="44.25" y="805.2196">201 Created</text><!--SRC=[XP9HQy8m58NVyok23qC5cVEnY6Er3WIrfQrxZ-tT2DP4cjJ1VlsIsDQa5drCyfsJU- -vuaZPcPJaLF3i23dEuPjKXVpaJ2Rq3_1iYaWbEQjE1oYH8YNDw9amYUDmdwum4NZW-HKjSif-Obv963ZKCeqtBhHKrYKl2YXTCec_N321yaApZf-_Ns-2AtUekLRWal4g2ZlbmPcxpFOZSf4jERj4j8eJWpI_HL0AAYIm3BorVt_P-I0CLdN_Mvv3CU-Ju1SSyAmw0PCBLxwpscNmwp_kE4X3TpBgubQZEWmGUkUJHHsTXwCmIV5hGmj4CaalHC8LGEZAAO59qSDP2UgrCHn20OhcfN8UtRIQHKQWX3hKEvrLdgLJADAuKfckn-DMEHmrBoPK3mjoWTR6yj3Fo32ArU5wM78pQJFeFecYK0xEiJ7GsRjLjDOcrlQXPpVi7pJi_64kkcK6_4GeU-QbojC2fTlrJActaJO6QuDiqWojdczRZEH32- -lGENty7lZUTiUKMKWX9k-fT3vNzV6sj0d6hDhyycavMVJDxmqvUHEYsQV_m40]--></g></svg>