<?xml version="1.0" encoding="UTF-8" standalone="no"?><svg xmlns="http://www.w3.org/2000/svg" xmlns:xlink="http://www.w3.org/1999/xlink" contentStyleType="text/css" height="829px" preserveAspectRatio="none" style="width:1640px;height:829px;background:#FFFFFF;" version="1.1" viewBox="0 0 1640 829" width="1640px" zoomAndPan="magnify"><defs/><g><rect fill="#DDDDDD" height="817.3195" style="stroke:#181818;stroke-width:0.5;" width="807.125" x="636.125" y="6"/><text fill="#000000" font-family="sans-serif" font-size="20" font-weight="bold" lengthAdjust="spacing" textLength="128.875" x="975.25" y="27.38">«system (C4»</text><text fill="#000000" font-family="sans-serif" font-size="20" font-weight="bold" lengthAdjust="spacing" textLength="124.125" x="977.625" y="54.62">Visualization</text><rect fill="#FFFFE0" height="817.3195" style="stroke:#181818;stroke-width:0.5;" width="184" x="1450.875" y="6"/><text fill="#000000" font-family="sans-serif" font-size="20" font-weight="bold" lengthAdjust="spacing" textLength="135.5" x="1475.125" y="27.38">«system (C4)»</text><text fill="#000000" font-family="sans-serif" font-size="20" font-weight="bold" lengthAdjust="spacing" textLength="169.5" x="1458.125" y="54.62">MD Management</text><rect fill="#FFFFFF" height="571.1197" style="stroke:#181818;stroke-width:1.0;" width="10" x="85.5" y="143.9599"/><rect fill="#FFFFFF" height="41.24" style="stroke:#181818;stroke-width:1.0;" width="10" x="723.125" y="177.1999"/><rect fill="#FFFFFF" height="455.3997" style="stroke:#181818;stroke-width:1.0;" width="10" x="723.125" y="259.6798"/><rect fill="#FFFFFF" height="372.9198" style="stroke:#181818;stroke-width:1.0;" width="10" x="930.375" y="300.9198"/><rect fill="#FFFFFF" height="28" style="stroke:#181818;stroke-width:1.0;" width="10" x="935.375" y="350.1598"/><rect fill="#FFFFFF" height="206.1999" style="stroke:#181818;stroke-width:1.0;" width="10" x="1139" y="426.3997"/><rect fill="#FFFFFF" height="123.7199" style="stroke:#181818;stroke-width:1.0;" width="10" x="1346.25" y="467.6397"/><rect fill="#FFFFFF" height="41.24" style="stroke:#181818;stroke-width:1.0;" width="10" x="1537.875" y="508.8797"/><line style="stroke:#181818;stroke-width:0.5;stroke-dasharray:5.0,5.0;" x1="90" x2="90" y1="133.9599" y2="733.0796"/><line style="stroke:#181818;stroke-width:0.5;stroke-dasharray:5.0,5.0;" x1="728.125" x2="728.125" y1="133.9599" y2="733.0796"/><line style="stroke:#181818;stroke-width:0.5;stroke-dasharray:5.0,5.0;" x1="935.375" x2="935.375" y1="133.9599" y2="733.0796"/><line style="stroke:#181818;stroke-width:0.5;stroke-dasharray:5.0,5.0;" x1="1144" x2="1144" y1="133.9599" y2="733.0796"/><line style="stroke:#181818;stroke-width:0.5;stroke-dasharray:5.0,5.0;" x1="1351.25" x2="1351.25" y1="133.9599" y2="733.0796"/><line style="stroke:#181818;stroke-width:0.5;stroke-dasharray:5.0,5.0;" x1="1542.875" x2="1542.875" y1="133.9599" y2="733.0796"/><text fill="#000000" font-family="sans-serif" font-size="20" lengthAdjust="spacing" textLength="165" x="5" y="128.0999">Campus Manager</text><ellipse cx="90.5" cy="55.2199" fill="#E2E2F0" rx="8" ry="8" style="stroke:#181818;stroke-width:0.5;"/><path d="M90.5,63.2199 L90.5,90.2199 M77.5,71.2199 L103.5,71.2199 M90.5,90.2199 L77.5,105.2199 M90.5,90.2199 L103.5,105.2199 " fill="none" style="stroke:#181818;stroke-width:0.5;"/><text fill="#000000" font-family="sans-serif" font-size="20" lengthAdjust="spacing" textLength="165" x="5" y="753.4596">Campus Manager</text><ellipse cx="90.5" cy="767.8195" fill="#E2E2F0" rx="8" ry="8" style="stroke:#181818;stroke-width:0.5;"/><path d="M90.5,775.8195 L90.5,802.8195 M77.5,783.8195 L103.5,783.8195 M90.5,802.8195 L77.5,817.8195 M90.5,802.8195 L103.5,817.8195 " fill="none" style="stroke:#181818;stroke-width:0.5;"/><rect fill="#E2E2F0" height="68.4799" rx="2.5" ry="2.5" style="stroke:#181818;stroke-width:0.5;" width="176" x="640.125" y="64.4799"/><text fill="#000000" font-family="sans-serif" font-size="20" font-style="italic" lengthAdjust="spacing" textLength="162" x="647.125" y="92.8599">«component (C4)»</text><text fill="#000000" font-family="sans-serif" font-size="20" lengthAdjust="spacing" textLength="137" x="659.625" y="120.0999">UI Component</text><rect fill="#E2E2F0" height="68.4799" rx="2.5" ry="2.5" style="stroke:#181818;stroke-width:0.5;" width="176" x="640.125" y="732.0796"/><text fill="#000000" font-family="sans-serif" font-size="20" font-style="italic" lengthAdjust="spacing" textLength="162" x="647.125" y="760.4596">«component (C4)»</text><text fill="#000000" font-family="sans-serif" font-size="20" lengthAdjust="spacing" textLength="137" x="659.625" y="787.6995">UI Component</text><rect fill="#E2E2F0" height="68.4799" rx="2.5" ry="2.5" style="stroke:#181818;stroke-width:0.5;" width="176" x="847.375" y="64.4799"/><text fill="#000000" font-family="sans-serif" font-size="20" font-style="italic" lengthAdjust="spacing" textLength="162" x="854.375" y="92.8599">«component (C4)»</text><text fill="#000000" font-family="sans-serif" font-size="20" lengthAdjust="spacing" textLength="70" x="900.375" y="120.0999">Module</text><rect fill="#E2E2F0" height="68.4799" rx="2.5" ry="2.5" style="stroke:#181818;stroke-width:0.5;" width="176" x="847.375" y="732.0796"/><text fill="#000000" font-family="sans-serif" font-size="20" font-style="italic" lengthAdjust="spacing" textLength="162" x="854.375" y="760.4596">«component (C4)»</text><text fill="#000000" font-family="sans-serif" font-size="20" lengthAdjust="spacing" textLength="70" x="900.375" y="787.6995">Module</text><rect fill="#E2E2F0" height="68.4799" rx="2.5" ry="2.5" style="stroke:#181818;stroke-width:0.5;" width="176" x="1056" y="64.4799"/><text fill="#000000" font-family="sans-serif" font-size="20" font-style="italic" lengthAdjust="spacing" textLength="162" x="1063" y="92.8599">«component (C4)»</text><text fill="#000000" font-family="sans-serif" font-size="20" lengthAdjust="spacing" textLength="66" x="1111" y="120.0999">Service</text><rect fill="#E2E2F0" height="68.4799" rx="2.5" ry="2.5" style="stroke:#181818;stroke-width:0.5;" width="176" x="1056" y="732.0796"/><text fill="#000000" font-family="sans-serif" font-size="20" font-style="italic" lengthAdjust="spacing" textLength="162" x="1063" y="760.4596">«component (C4)»</text><text fill="#000000" font-family="sans-serif" font-size="20" lengthAdjust="spacing" textLength="66" x="1111" y="787.6995">Service</text><rect fill="#E2E2F0" height="68.4799" rx="2.5" ry="2.5" style="stroke:#181818;stroke-width:0.5;" width="176" x="1263.25" y="64.4799"/><text fill="#000000" font-family="sans-serif" font-size="20" font-style="italic" lengthAdjust="spacing" textLength="162" x="1270.25" y="92.8599">«component (C4)»</text><text fill="#000000" font-family="sans-serif" font-size="20" lengthAdjust="spacing" textLength="49" x="1326.75" y="120.0999">HTTP</text><rect fill="#E2E2F0" height="68.4799" rx="2.5" ry="2.5" style="stroke:#181818;stroke-width:0.5;" width="176" x="1263.25" y="732.0796"/><text fill="#000000" font-family="sans-serif" font-size="20" font-style="italic" lengthAdjust="spacing" textLength="162" x="1270.25" y="760.4596">«component (C4)»</text><text fill="#000000" font-family="sans-serif" font-size="20" lengthAdjust="spacing" textLength="49" x="1326.75" y="787.6995">HTTP</text><rect fill="#E2E2F0" height="68.4799" rx="2.5" ry="2.5" style="stroke:#181818;stroke-width:0.5;" width="176" x="1454.875" y="64.4799"/><text fill="#000000" font-family="sans-serif" font-size="20" font-style="italic" lengthAdjust="spacing" textLength="162" x="1461.875" y="92.8599">«component (C4)»</text><text fill="#000000" font-family="sans-serif" font-size="20" lengthAdjust="spacing" textLength="162" x="1461.875" y="120.0999">MD Management</text><rect fill="#E2E2F0" height="68.4799" rx="2.5" ry="2.5" style="stroke:#181818;stroke-width:0.5;" width="176" x="1454.875" y="732.0796"/><text fill="#000000" font-family="sans-serif" font-size="20" font-style="italic" lengthAdjust="spacing" textLength="162" x="1461.875" y="760.4596">«component (C4)»</text><text fill="#000000" font-family="sans-serif" font-size="20" lengthAdjust="spacing" textLength="162" x="1461.875" y="787.6995">MD Management</text><rect fill="#FFFFFF" height="571.1197" style="stroke:#181818;stroke-width:1.0;" width="10" x="85.5" y="143.9599"/><rect fill="#FFFFFF" height="41.24" style="stroke:#181818;stroke-width:1.0;" width="10" x="723.125" y="177.1999"/><rect fill="#FFFFFF" height="455.3997" style="stroke:#181818;stroke-width:1.0;" width="10" x="723.125" y="259.6798"/><rect fill="#FFFFFF" height="372.9198" style="stroke:#181818;stroke-width:1.0;" width="10" x="930.375" y="300.9198"/><rect fill="#FFFFFF" height="28" style="stroke:#181818;stroke-width:1.0;" width="10" x="935.375" y="350.1598"/><rect fill="#FFFFFF" height="206.1999" style="stroke:#181818;stroke-width:1.0;" width="10" x="1139" y="426.3997"/><rect fill="#FFFFFF" height="123.7199" style="stroke:#181818;stroke-width:1.0;" width="10" x="1346.25" y="467.6397"/><rect fill="#FFFFFF" height="41.24" style="stroke:#181818;stroke-width:1.0;" width="10" x="1537.875" y="508.8797"/><polygon fill="#181818" points="711.125,173.1999,721.125,177.1999,711.125,181.1999,715.125,177.1999" style="stroke:#181818;stroke-width:1.0;"/><line style="stroke:#181818;stroke-width:1.0;" x1="95.5" x2="717.125" y1="177.1999" y2="177.1999"/><text fill="#000000" font-family="sans-serif" font-size="20" font-weight="bold" lengthAdjust="spacing" textLength="11.625" x="102.5" y="169.3399">1</text><text fill="#000000" font-family="sans-serif" font-size="20" lengthAdjust="spacing" textLength="225" x="118.125" y="169.3399">asks to create a building</text><polygon fill="#181818" points="106.5,214.4398,96.5,218.4398,106.5,222.4398,102.5,218.4398" style="stroke:#181818;stroke-width:1.0;"/><line style="stroke:#181818;stroke-width:1.0;stroke-dasharray:2.0,2.0;" x1="100.5" x2="727.125" y1="218.4398" y2="218.4398"/><text fill="#000000" font-family="sans-serif" font-size="20" font-weight="bold" lengthAdjust="spacing" textLength="11.625" x="112.5" y="210.5799">2</text><text fill="#000000" font-family="sans-serif" font-size="20" lengthAdjust="spacing" textLength="588" x="128.125" y="210.5799">asks for building data (code,name,description,max dimensions)</text><polygon fill="#181818" points="711.125,255.6798,721.125,259.6798,711.125,263.6798,715.125,259.6798" style="stroke:#181818;stroke-width:1.0;"/><line style="stroke:#181818;stroke-width:1.0;" x1="95.5" x2="717.125" y1="259.6798" y2="259.6798"/><text fill="#000000" font-family="sans-serif" font-size="20" font-weight="bold" lengthAdjust="spacing" textLength="11.625" x="102.5" y="251.8198">3</text><text fill="#000000" font-family="sans-serif" font-size="20" lengthAdjust="spacing" textLength="188" x="118.125" y="251.8198">inputs required data</text><polygon fill="#181818" points="918.375,296.9198,928.375,300.9198,918.375,304.9198,922.375,300.9198" style="stroke:#181818;stroke-width:1.0;"/><line style="stroke:#181818;stroke-width:1.0;" x1="733.125" x2="924.375" y1="300.9198" y2="300.9198"/><text fill="#000000" font-family="sans-serif" font-size="20" font-weight="bold" lengthAdjust="spacing" textLength="11.625" x="740.125" y="293.0598">4</text><text fill="#000000" font-family="sans-serif" font-size="20" lengthAdjust="spacing" textLength="153" x="755.75" y="293.0598">cretes a building</text><line style="stroke:#181818;stroke-width:1.0;" x1="945.375" x2="987.375" y1="342.1598" y2="342.1598"/><line style="stroke:#181818;stroke-width:1.0;" x1="987.375" x2="987.375" y1="342.1598" y2="355.1598"/><line style="stroke:#181818;stroke-width:1.0;" x1="946.375" x2="987.375" y1="355.1598" y2="355.1598"/><polygon fill="#181818" points="956.375,351.1598,946.375,355.1598,956.375,359.1598,952.375,355.1598" style="stroke:#181818;stroke-width:1.0;"/><text fill="#000000" font-family="sans-serif" font-size="20" font-weight="bold" lengthAdjust="spacing" textLength="11.625" x="952.375" y="334.2998">5</text><text fill="#000000" font-family="sans-serif" font-size="20" lengthAdjust="spacing" textLength="128" x="968" y="334.2998">validates data</text><polygon fill="#181818" points="1127,422.3997,1137,426.3997,1127,430.3997,1131,426.3997" style="stroke:#181818;stroke-width:1.0;"/><line style="stroke:#181818;stroke-width:1.0;" x1="940.375" x2="1133" y1="426.3997" y2="426.3997"/><text fill="#000000" font-family="sans-serif" font-size="20" font-weight="bold" lengthAdjust="spacing" textLength="11.625" x="947.375" y="418.5398">6</text><text fill="#000000" font-family="sans-serif" font-size="20" lengthAdjust="spacing" textLength="164" x="963" y="418.5398">creates a building</text><polygon fill="#181818" points="1334.25,463.6397,1344.25,467.6397,1334.25,471.6397,1338.25,467.6397" style="stroke:#181818;stroke-width:1.0;"/><line style="stroke:#181818;stroke-width:1.0;" x1="1149" x2="1340.25" y1="467.6397" y2="467.6397"/><text fill="#000000" font-family="sans-serif" font-size="20" font-weight="bold" lengthAdjust="spacing" textLength="11.625" x="1156" y="459.7797">7</text><text fill="#000000" font-family="sans-serif" font-size="20" lengthAdjust="spacing" textLength="155" x="1171.625" y="459.7797">post('/buildings')</text><polygon fill="#181818" points="1525.875,504.8797,1535.875,508.8797,1525.875,512.8797,1529.875,508.8797" style="stroke:#181818;stroke-width:1.0;"/><line style="stroke:#181818;stroke-width:1.0;" x1="1356.25" x2="1531.875" y1="508.8797" y2="508.8797"/><text fill="#000000" font-family="sans-serif" font-size="20" font-weight="bold" lengthAdjust="spacing" textLength="11.625" x="1363.25" y="501.0197">8</text><text fill="#000000" font-family="sans-serif" font-size="20" lengthAdjust="spacing" textLength="147" x="1378.875" y="501.0197">POST /buildings</text><polygon fill="#181818" points="1367.25,546.1197,1357.25,550.1197,1367.25,554.1197,1363.25,550.1197" style="stroke:#181818;stroke-width:1.0;"/><line style="stroke:#181818;stroke-width:1.0;stroke-dasharray:2.0,2.0;" x1="1361.25" x2="1541.875" y1="550.1197" y2="550.1197"/><text fill="#000000" font-family="sans-serif" font-size="20" font-weight="bold" lengthAdjust="spacing" textLength="11.625" x="1373.25" y="542.2597">9</text><text fill="#000000" font-family="sans-serif" font-size="20" lengthAdjust="spacing" textLength="123" x="1388.875" y="542.2597">201 (Created)</text><polygon fill="#181818" points="1160,587.3596,1150,591.3596,1160,595.3596,1156,591.3596" style="stroke:#181818;stroke-width:1.0;"/><line style="stroke:#181818;stroke-width:1.0;stroke-dasharray:2.0,2.0;" x1="1154" x2="1350.25" y1="591.3596" y2="591.3596"/><text fill="#000000" font-family="sans-serif" font-size="20" font-weight="bold" lengthAdjust="spacing" textLength="23.25" x="1166" y="583.4997">10</text><text fill="#000000" font-family="sans-serif" font-size="20" lengthAdjust="spacing" textLength="146" x="1193.25" y="583.4997">createdBuilding</text><polygon fill="#181818" points="951.375,628.5996,941.375,632.5996,951.375,636.5996,947.375,632.5996" style="stroke:#181818;stroke-width:1.0;"/><line style="stroke:#181818;stroke-width:1.0;stroke-dasharray:2.0,2.0;" x1="945.375" x2="1143" y1="632.5996" y2="632.5996"/><text fill="#000000" font-family="sans-serif" font-size="20" font-weight="bold" lengthAdjust="spacing" textLength="23.25" x="957.375" y="624.7396">11</text><text fill="#000000" font-family="sans-serif" font-size="20" lengthAdjust="spacing" textLength="146" x="984.625" y="624.7396">createdBuilding</text><polygon fill="#181818" points="744.125,669.8396,734.125,673.8396,744.125,677.8396,740.125,673.8396" style="stroke:#181818;stroke-width:1.0;"/><line style="stroke:#181818;stroke-width:1.0;stroke-dasharray:2.0,2.0;" x1="738.125" x2="934.375" y1="673.8396" y2="673.8396"/><text fill="#000000" font-family="sans-serif" font-size="20" font-weight="bold" lengthAdjust="spacing" textLength="23.25" x="750.125" y="665.9796">12</text><text fill="#000000" font-family="sans-serif" font-size="20" lengthAdjust="spacing" textLength="146" x="777.375" y="665.9796">createdBuilding</text><polygon fill="#181818" points="101.5,711.0796,91.5,715.0796,101.5,719.0796,97.5,715.0796" style="stroke:#181818;stroke-width:1.0;"/><line style="stroke:#181818;stroke-width:1.0;stroke-dasharray:2.0,2.0;" x1="95.5" x2="727.125" y1="715.0796" y2="715.0796"/><text fill="#000000" font-family="sans-serif" font-size="20" font-weight="bold" lengthAdjust="spacing" textLength="23.25" x="107.5" y="707.2196">13</text><text fill="#000000" font-family="sans-serif" font-size="20" lengthAdjust="spacing" textLength="282" x="134.75" y="707.2196">returns confirmation message</text><!--SRC=[ZPDVRzem5CNV_IckieU215fNxGb5I2jesgH5HODLchGN4r-OHMnd_iDOF_sk7G99eLLVK0A_StnyxiNjfAwvvQeovGu52DpmKFdFHlkbV4AuksKyUAE3MgDbhgLXtd0hFFXFbTngXThdUKcVQATJQ1uOuwKt5cO5S0VPZAiwE2Yuvbkq6LkR0sHvxluvZme6iu_JwI_zA5tWbNpYNXgTdIqP09tiPIbhhZrPBfBdZwymCwesch0C26zVej_mGbOyp9EiC29K-0R1yljZ4YpHxcNv5iMNrQg95X-kygW5qDtPPG73s40nFrQasZiTAtZtJMv_-vzOLURlytlDcueljIyUJgEHU-wHgcIC9ZIUfb8dvBDpu0sK5kFF7DP1LaBgRLUoI9fyFEwADZJh5WR1FOT1QGIED5Su4kXAA-iurf7Y1n2ICZfwSqCcyCBw58SsBdW75ly4QUE6acy_IUG8ZxETnDGUtTNK1B08dTWzBHhP4TutZM0dKaSNrs5oRERw8KImI16SDc42jN5-SFE-HTtDi5D-P1XBP8n5Ovp0uc6vWZFVoJKlM4J6P_ExsmyqsPH7z7gCxD7tMMvntuRku4sE5BnRvKjul6Mgv3IcL-3ONtzRQ4R1QWUbqHjfLVglWqBdQ7Clbg7_1ViF]--></g></svg>