<?xml version="1.0" encoding="UTF-8" standalone="no"?><svg xmlns="http://www.w3.org/2000/svg" xmlns:xlink="http://www.w3.org/1999/xlink" contentStyleType="text/css" height="368px" preserveAspectRatio="none" style="width:685px;height:368px;background:#FFFFFF;" version="1.1" viewBox="0 0 685 368" width="685px" zoomAndPan="magnify"><defs/><g><rect fill="#FFFFFF" height="156.9599" style="stroke:#181818;stroke-width:1.0;" width="10" x="85.5" y="102.24"/><rect fill="#FFFFFF" height="123.7199" style="stroke:#181818;stroke-width:1.0;" width="10" x="417.125" y="135.4799"/><rect fill="#FFFFFF" height="41.24" style="stroke:#181818;stroke-width:1.0;" width="10" x="606.75" y="176.7199"/><line style="stroke:#181818;stroke-width:0.5;stroke-dasharray:5.0,5.0;" x1="90" x2="90" y1="92.24" y2="277.1999"/><line style="stroke:#181818;stroke-width:0.5;stroke-dasharray:5.0,5.0;" x1="422.125" x2="422.125" y1="92.24" y2="277.1999"/><line style="stroke:#181818;stroke-width:0.5;stroke-dasharray:5.0,5.0;" x1="611.75" x2="611.75" y1="92.24" y2="277.1999"/><text fill="#000000" font-family="sans-serif" font-size="20" lengthAdjust="spacing" textLength="165" x="5" y="86.38">Campus Manager</text><ellipse cx="90.5" cy="13.5" fill="#E2E2F0" rx="8" ry="8" style="stroke:#181818;stroke-width:0.5;"/><path d="M90.5,21.5 L90.5,48.5 M77.5,29.5 L103.5,29.5 M90.5,48.5 L77.5,63.5 M90.5,48.5 L103.5,63.5 " fill="none" style="stroke:#181818;stroke-width:0.5;"/><text fill="#000000" font-family="sans-serif" font-size="20" lengthAdjust="spacing" textLength="165" x="5" y="297.5799">Campus Manager</text><ellipse cx="90.5" cy="311.9398" fill="#E2E2F0" rx="8" ry="8" style="stroke:#181818;stroke-width:0.5;"/><path d="M90.5,319.9398 L90.5,346.9398 M77.5,327.9398 L103.5,327.9398 M90.5,346.9398 L77.5,361.9398 M90.5,346.9398 L103.5,361.9398 " fill="none" style="stroke:#181818;stroke-width:0.5;"/><rect fill="#E2E2F0" height="68.4799" rx="2.5" ry="2.5" style="stroke:#181818;stroke-width:0.5;" width="136" x="354.125" y="22.76"/><text fill="#000000" font-family="sans-serif" font-size="20" font-style="italic" lengthAdjust="spacing" textLength="122" x="361.125" y="51.14">«system (C4)»</text><text fill="#000000" font-family="sans-serif" font-size="20" lengthAdjust="spacing" textLength="116" x="364.125" y="78.38">Visualization</text><rect fill="#E2E2F0" height="68.4799" rx="2.5" ry="2.5" style="stroke:#181818;stroke-width:0.5;" width="136" x="354.125" y="276.1999"/><text fill="#000000" font-family="sans-serif" font-size="20" font-style="italic" lengthAdjust="spacing" textLength="122" x="361.125" y="304.5799">«system (C4)»</text><text fill="#000000" font-family="sans-serif" font-size="20" lengthAdjust="spacing" textLength="116" x="364.125" y="331.8198">Visualization</text><rect fill="#E2E2F0" height="68.4799" rx="2.5" ry="2.5" style="stroke:#181818;stroke-width:0.5;" width="136" x="543.75" y="22.76"/><text fill="#000000" font-family="sans-serif" font-size="20" font-style="italic" lengthAdjust="spacing" textLength="122" x="550.75" y="51.14">«system (C4)»</text><text fill="#000000" font-family="sans-serif" font-size="20" lengthAdjust="spacing" textLength="48" x="587.75" y="78.38">MDD</text><rect fill="#E2E2F0" height="68.4799" rx="2.5" ry="2.5" style="stroke:#181818;stroke-width:0.5;" width="136" x="543.75" y="276.1999"/><text fill="#000000" font-family="sans-serif" font-size="20" font-style="italic" lengthAdjust="spacing" textLength="122" x="550.75" y="304.5799">«system (C4)»</text><text fill="#000000" font-family="sans-serif" font-size="20" lengthAdjust="spacing" textLength="48" x="587.75" y="331.8198">MDD</text><rect fill="#FFFFFF" height="156.9599" style="stroke:#181818;stroke-width:1.0;" width="10" x="85.5" y="102.24"/><rect fill="#FFFFFF" height="123.7199" style="stroke:#181818;stroke-width:1.0;" width="10" x="417.125" y="135.4799"/><rect fill="#FFFFFF" height="41.24" style="stroke:#181818;stroke-width:1.0;" width="10" x="606.75" y="176.7199"/><polygon fill="#181818" points="405.125,131.4799,415.125,135.4799,405.125,139.4799,409.125,135.4799" style="stroke:#181818;stroke-width:1.0;"/><line style="stroke:#181818;stroke-width:1.0;" x1="95.5" x2="411.125" y1="135.4799" y2="135.4799"/><text fill="#000000" font-family="sans-serif" font-size="20" font-weight="bold" lengthAdjust="spacing" textLength="11.625" x="102.5" y="127.62">1</text><text fill="#000000" font-family="sans-serif" font-size="20" lengthAdjust="spacing" textLength="193" x="118.125" y="127.62">asks to inhibit device</text><polygon fill="#181818" points="594.75,172.7199,604.75,176.7199,594.75,180.7199,598.75,176.7199" style="stroke:#181818;stroke-width:1.0;"/><line style="stroke:#181818;stroke-width:1.0;" x1="427.125" x2="600.75" y1="176.7199" y2="176.7199"/><text fill="#000000" font-family="sans-serif" font-size="20" font-weight="bold" lengthAdjust="spacing" textLength="11.625" x="434.125" y="168.8599">2</text><text fill="#000000" font-family="sans-serif" font-size="20" lengthAdjust="spacing" textLength="145" x="449.75" y="168.8599">PATCH /devices</text><polygon fill="#181818" points="438.125,213.9599,428.125,217.9599,438.125,221.9599,434.125,217.9599" style="stroke:#181818;stroke-width:1.0;"/><line style="stroke:#181818;stroke-width:1.0;stroke-dasharray:2.0,2.0;" x1="432.125" x2="610.75" y1="217.9599" y2="217.9599"/><text fill="#000000" font-family="sans-serif" font-size="20" font-weight="bold" lengthAdjust="spacing" textLength="11.625" x="444.125" y="210.0999">3</text><text fill="#000000" font-family="sans-serif" font-size="20" lengthAdjust="spacing" textLength="78" x="459.75" y="210.0999">200 (OK)</text><polygon fill="#181818" points="101.5,255.1999,91.5,259.1999,101.5,263.1999,97.5,259.1999" style="stroke:#181818;stroke-width:1.0;"/><line style="stroke:#181818;stroke-width:1.0;stroke-dasharray:2.0,2.0;" x1="95.5" x2="421.125" y1="259.1999" y2="259.1999"/><text fill="#000000" font-family="sans-serif" font-size="20" font-weight="bold" lengthAdjust="spacing" textLength="11.625" x="107.5" y="251.3399">4</text><text fill="#000000" font-family="sans-serif" font-size="20" lengthAdjust="spacing" textLength="282" x="123.125" y="251.3399">returns confirmation message</text><!--SRC=[PP31QiCm38RlVWgHKti82sMd4W8ZPQoCiC7MtLL7xKHYEzXoONtwsIcZBJiPu-__FybXO3kXHpCwFL0FFHqmZlBih7pmcM1LAOpYR3HxyagX5kUXxG0352sQAGReqEAHVA5IZx3c2Qt0RZiZNnmYZdn6OMSBgElm4uGCBDh7PTFS9RhDPewayp-OnNn2eUHMAldB9YlMAJ4440TiltdFakO_iQOhljigbS24v_url3zzjY_mSC72bKklAXFbN_6ggc3nzhfKFTr1MLwNvGNo9D7R0DhP0tipRmc6GaWVSXlCKzpUqnA_]--></g></svg>