<?xml version="1.0" encoding="UTF-8" standalone="no"?><svg xmlns="http://www.w3.org/2000/svg" xmlns:xlink="http://www.w3.org/1999/xlink" contentStyleType="text/css" height="505px" preserveAspectRatio="none" style="width:996px;height:505px;background:#FFFFFF;" version="1.1" viewBox="0 0 996 505" width="996px" zoomAndPan="magnify"><defs/><g><!--cluster LOCAL--><g id="cluster_LOCAL"><polygon fill="none" points="66,16,76,6,348,6,348,249,338,259,66,259,66,16" style="stroke:#181818;stroke-width:1.0;"/><line style="stroke:#181818;stroke-width:1.0;" x1="338" x2="348" y1="16" y2="6"/><line style="stroke:#181818;stroke-width:1.0;" x1="66" x2="338" y1="16" y2="16"/><line style="stroke:#181818;stroke-width:1.0;" x1="338" x2="338" y1="16" y2="259"/><text fill="#000000" font-family="sans-serif" font-size="20" font-weight="bold" lengthAdjust="spacing" textLength="131" x="137.5" y="37.5645">localhost: ?</text></g><!--cluster B--><g id="cluster_B"><rect fill="none" height="158" rx="2.5" ry="2.5" style="stroke:#181818;stroke-width:1.0;" width="210" x="106" y="69"/><rect fill="none" height="10" style="stroke:#181818;stroke-width:1.0;" width="15" x="296" y="74"/><rect fill="none" height="2" style="stroke:#181818;stroke-width:1.0;" width="4" x="294" y="76"/><rect fill="none" height="2" style="stroke:#181818;stroke-width:1.0;" width="4" x="294" y="80"/><text fill="#000000" font-family="sans-serif" font-size="20" font-style="italic" lengthAdjust="spacing" textLength="138" x="142" y="100.5645">«component»</text><text fill="#000000" font-family="sans-serif" font-size="20" font-weight="bold" lengthAdjust="spacing" textLength="93" x="164.5" y="123.8457">Browser</text></g><!--cluster S1--><g id="cluster_S1"><polygon fill="none" points="16,342,26,332,500,332,500,478,490,488,16,488,16,342" style="stroke:#181818;stroke-width:1.0;"/><line style="stroke:#181818;stroke-width:1.0;" x1="490" x2="500" y1="342" y2="332"/><line style="stroke:#181818;stroke-width:1.0;" x1="16" x2="490" y1="342" y2="342"/><line style="stroke:#181818;stroke-width:1.0;" x1="490" x2="490" y1="342" y2="488"/><text fill="#000000" font-family="sans-serif" font-size="20" font-weight="bold" lengthAdjust="spacing" textLength="123" x="192.5" y="363.5645">Server 1: ?</text></g><!--cluster S2--><g id="cluster_S2"><polygon fill="none" points="540,342,550,332,979,332,979,478,969,488,540,488,540,342" style="stroke:#181818;stroke-width:1.0;"/><line style="stroke:#181818;stroke-width:1.0;" x1="969" x2="979" y1="342" y2="332"/><line style="stroke:#181818;stroke-width:1.0;" x1="540" x2="969" y1="342" y2="342"/><line style="stroke:#181818;stroke-width:1.0;" x1="969" x2="969" y1="342" y2="488"/><text fill="#000000" font-family="sans-serif" font-size="20" font-weight="bold" lengthAdjust="spacing" textLength="123" x="694" y="363.5645">Server 2: ?</text></g><!--entity UI--><g id="elem_UI"><rect fill="#F1F1F1" height="76.5625" rx="2.5" ry="2.5" style="stroke:#181818;stroke-width:0.5;" width="178" x="122" y="134"/><rect fill="#F1F1F1" height="10" style="stroke:#181818;stroke-width:0.5;" width="15" x="280" y="139"/><rect fill="#F1F1F1" height="2" style="stroke:#181818;stroke-width:0.5;" width="4" x="278" y="141"/><rect fill="#F1F1F1" height="2" style="stroke:#181818;stroke-width:0.5;" width="4" x="278" y="145"/><text fill="#000000" font-family="sans-serif" font-size="20" font-style="italic" lengthAdjust="spacing" textLength="138" x="137" y="172.5645">«component»</text><text fill="#000000" font-family="sans-serif" font-size="20" lengthAdjust="spacing" textLength="21" x="195.5" y="195.8457">UI</text></g><!--entity MDM--><g id="elem_MDM"><rect fill="#F1F1F1" height="76.5625" rx="2.5" ry="2.5" style="stroke:#181818;stroke-width:0.5;" width="204" x="272" y="387"/><rect fill="#F1F1F1" height="10" style="stroke:#181818;stroke-width:0.5;" width="15" x="456" y="392"/><rect fill="#F1F1F1" height="2" style="stroke:#181818;stroke-width:0.5;" width="4" x="454" y="394"/><rect fill="#F1F1F1" height="2" style="stroke:#181818;stroke-width:0.5;" width="4" x="454" y="398"/><text fill="#000000" font-family="sans-serif" font-size="20" font-style="italic" lengthAdjust="spacing" textLength="138" x="300" y="425.5645">«component»</text><text fill="#000000" font-family="sans-serif" font-size="20" lengthAdjust="spacing" textLength="164" x="287" y="448.8457">MDManagement</text></g><!--entity P--><g id="elem_P"><rect fill="#F1F1F1" height="76.5625" rx="2.5" ry="2.5" style="stroke:#181818;stroke-width:0.5;" width="178" x="59" y="387"/><rect fill="#F1F1F1" height="10" style="stroke:#181818;stroke-width:0.5;" width="15" x="217" y="392"/><rect fill="#F1F1F1" height="2" style="stroke:#181818;stroke-width:0.5;" width="4" x="215" y="394"/><rect fill="#F1F1F1" height="2" style="stroke:#181818;stroke-width:0.5;" width="4" x="215" y="398"/><text fill="#000000" font-family="sans-serif" font-size="20" font-style="italic" lengthAdjust="spacing" textLength="138" x="74" y="425.5645">«component»</text><text fill="#000000" font-family="sans-serif" font-size="20" lengthAdjust="spacing" textLength="88" x="99" y="448.8457">Planning</text></g><!--entity SERV--><g id="elem_SERV"><rect fill="#F1F1F1" height="76.5625" rx="2.5" ry="2.5" style="stroke:#181818;stroke-width:0.5;" width="178" x="777" y="387"/><rect fill="#F1F1F1" height="10" style="stroke:#181818;stroke-width:0.5;" width="15" x="935" y="392"/><rect fill="#F1F1F1" height="2" style="stroke:#181818;stroke-width:0.5;" width="4" x="933" y="394"/><rect fill="#F1F1F1" height="2" style="stroke:#181818;stroke-width:0.5;" width="4" x="933" y="398"/><text fill="#000000" font-family="sans-serif" font-size="20" font-style="italic" lengthAdjust="spacing" textLength="138" x="792" y="425.5645">«component»</text><text fill="#000000" font-family="sans-serif" font-size="20" lengthAdjust="spacing" textLength="121" x="800.5" y="448.8457">HTTP Server</text></g><!--entity V--><g id="elem_V"><path d="M586,395 L627,395 A3.75,3.75 0 0 1 629.5,397.5 L636.5,416 L740,416 A2.5,2.5 0 0 1 742.5,418.5 L742.5,453.7813 A2.5,2.5 0 0 1 740,456.2813 L586,456.2813 A2.5,2.5 0 0 1 583.5,453.7813 L583.5,397.5 A2.5,2.5 0 0 1 586,395 " fill="#F1F1F1" style="stroke:#181818;stroke-width:0.5;"/><line style="stroke:#181818;stroke-width:0.5;" x1="583.5" x2="636.5" y1="416" y2="416"/><text fill="#000000" font-family="sans-serif" font-size="20" lengthAdjust="spacing" textLength="129" x="593.5" y="441.5645">Visualization</text></g><!--link LOCAL to S1--><g id="link_LOCAL_S1"><path d="M65.9113,208.754 C65.8245,209.1378 65.7373,209.5239 65.6497,209.9123 C65.4743,210.6891 65.2971,211.475 65.1181,212.2696 C64.4021,215.4479 63.6575,218.7658 62.89,222.2013 C56.75,249.685 49.145,284.695 43,316 C42.42,318.9556 41.8395,321.9582 41.2606,324.9909 C40.9712,326.5072 40.6822,328.031 40.3939,329.5602 C40.2498,330.3248 40.1059,331.0908 39.9621,331.8578 " fill="none" id="LOCAL-S1" style="stroke:#181818;stroke-width:1.0;"/><text fill="#000000" font-family="sans-serif" font-size="20" lengthAdjust="spacing" textLength="59" x="51" y="302.5645">http/s</text></g><!--link LOCAL to S2--><g id="link_LOCAL_S2"><path d="M92.1555,259.1017 C92.2527,259.255 92.3504,259.408 92.4487,259.5606 C92.6451,259.8658 92.8436,260.1696 93.0441,260.4718 C93.4452,261.0762 93.8545,261.6745 94.2722,262.2663 C97.6142,267.0002 101.495,271.315 106,275 C139.38,302.31 456.4,291.64 492,316 C514.045,331.085 527.955,357.605 536.3975,380.6488 C537.4528,383.5292 538.4227,386.3554 539.3124,389.0981 C539.5348,389.7838 539.7522,390.4642 539.9646,391.139 " fill="none" id="LOCAL-S2" style="stroke:#181818;stroke-width:1.0;"/><text fill="#000000" font-family="sans-serif" font-size="20" lengthAdjust="spacing" textLength="59" x="463" y="302.5645">http/s</text></g><!--SRC=[TP1DQm8n48Rl-HN3tgLrZoAMsWygA5swklV17JMOdLcIs8B5_zwOPQqDzP13Pfxt8t5xpIrQR8oizrH3JHiy6Fygx4jz9CZlbMAf2R80eDc9yoDuo00TpD-V7kVmhG3MqhJ2n1wogPKlHpO2KnYFBwl99A9_uDKiSglPl-19dS-fpo_9VfA5OHzV3jFinVC26RVKX5j4mY1r1jKPNyaAWyoQjr5I989UaTR8BpNojCRRSbb0XtN4oqTrgyP6J1tSiagx0nfzHA-5ewgAjY4ObEf-UZ0ulta4E-_REtSrp7-7Fm00]--></g></svg>