<?xml version="1.0" encoding="UTF-8" standalone="no"?><svg xmlns="http://www.w3.org/2000/svg" xmlns:xlink="http://www.w3.org/1999/xlink" contentStyleType="text/css" height="539px" preserveAspectRatio="none" style="width:945px;height:539px;background:#FFFFFF;" version="1.1" viewBox="0 0 945 539" width="945px" zoomAndPan="magnify"><defs/><g><!--cluster LOCAL--><g id="cluster_LOCAL"><polygon fill="none" points="64,16,74,6,330,6,330,268,320,278,64,278,64,16" style="stroke:#181818;stroke-width:1.0;"/><line style="stroke:#181818;stroke-width:1.0;" x1="320" x2="330" y1="16" y2="6"/><line style="stroke:#181818;stroke-width:1.0;" x1="64" x2="320" y1="16" y2="16"/><line style="stroke:#181818;stroke-width:1.0;" x1="320" x2="320" y1="16" y2="278"/><text fill="#000000" font-family="sans-serif" font-size="20" font-weight="bold" lengthAdjust="spacing" textLength="109.875" x="138.0625" y="40.38">localhost: ?</text></g><!--cluster B--><g id="cluster_B"><rect fill="none" height="173" rx="2.5" ry="2.5" style="stroke:#181818;stroke-width:1.0;" width="194" x="104" y="73"/><rect fill="none" height="10" style="stroke:#181818;stroke-width:1.0;" width="15" x="278" y="78"/><rect fill="none" height="2" style="stroke:#181818;stroke-width:1.0;" width="4" x="276" y="80"/><rect fill="none" height="2" style="stroke:#181818;stroke-width:1.0;" width="4" x="276" y="84"/><text fill="#000000" font-family="sans-serif" font-size="20" font-style="italic" lengthAdjust="spacing" textLength="122" x="140" y="107.38">«component»</text><text fill="#000000" font-family="sans-serif" font-size="20" font-weight="bold" lengthAdjust="spacing" textLength="82.375" x="159.8125" y="134.62">Browser</text></g><!--cluster S1--><g id="cluster_S1"><polygon fill="none" points="16,365,26,355,478,355,478,512,468,522,16,522,16,365" style="stroke:#181818;stroke-width:1.0;"/><line style="stroke:#181818;stroke-width:1.0;" x1="468" x2="478" y1="365" y2="355"/><line style="stroke:#181818;stroke-width:1.0;" x1="16" x2="468" y1="365" y2="365"/><line style="stroke:#181818;stroke-width:1.0;" x1="468" x2="468" y1="365" y2="522"/><text fill="#000000" font-family="sans-serif" font-size="20" font-weight="bold" lengthAdjust="spacing" textLength="99.625" x="193.1875" y="389.38">Server 1: ?</text></g><!--cluster S2--><g id="cluster_S2"><polygon fill="none" points="518,365,528,355,928,355,928,512,918,522,518,522,518,365" style="stroke:#181818;stroke-width:1.0;"/><line style="stroke:#181818;stroke-width:1.0;" x1="918" x2="928" y1="365" y2="355"/><line style="stroke:#181818;stroke-width:1.0;" x1="518" x2="918" y1="365" y2="365"/><line style="stroke:#181818;stroke-width:1.0;" x1="918" x2="918" y1="365" y2="522"/><text fill="#000000" font-family="sans-serif" font-size="20" font-weight="bold" lengthAdjust="spacing" textLength="99.625" x="669.1875" y="389.38">Server 2: ?</text></g><!--entity UI--><g id="elem_UI"><rect fill="#F1F1F1" height="84.4799" rx="2.5" ry="2.5" style="stroke:#181818;stroke-width:0.5;" width="162" x="120" y="146"/><rect fill="#F1F1F1" height="10" style="stroke:#181818;stroke-width:0.5;" width="15" x="262" y="151"/><rect fill="#F1F1F1" height="2" style="stroke:#181818;stroke-width:0.5;" width="4" x="260" y="153"/><rect fill="#F1F1F1" height="2" style="stroke:#181818;stroke-width:0.5;" width="4" x="260" y="157"/><text fill="#000000" font-family="sans-serif" font-size="20" font-style="italic" lengthAdjust="spacing" textLength="122" x="135" y="187.38">«component»</text><text fill="#000000" font-family="sans-serif" font-size="20" lengthAdjust="spacing" textLength="22" x="185" y="214.62">UI</text></g><!--entity MDM--><g id="elem_MDM"><rect fill="#F1F1F1" height="84.4799" rx="2.5" ry="2.5" style="stroke:#181818;stroke-width:0.5;" width="197" x="256.5" y="414"/><rect fill="#F1F1F1" height="10" style="stroke:#181818;stroke-width:0.5;" width="15" x="433.5" y="419"/><rect fill="#F1F1F1" height="2" style="stroke:#181818;stroke-width:0.5;" width="4" x="431.5" y="421"/><rect fill="#F1F1F1" height="2" style="stroke:#181818;stroke-width:0.5;" width="4" x="431.5" y="425"/><text fill="#000000" font-family="sans-serif" font-size="20" font-style="italic" lengthAdjust="spacing" textLength="122" x="289" y="455.38">«component»</text><text fill="#000000" font-family="sans-serif" font-size="20" lengthAdjust="spacing" textLength="157" x="271.5" y="482.62">MDManagement</text></g><!--entity P--><g id="elem_P"><rect fill="#F1F1F1" height="84.4799" rx="2.5" ry="2.5" style="stroke:#181818;stroke-width:0.5;" width="162" x="59" y="414"/><rect fill="#F1F1F1" height="10" style="stroke:#181818;stroke-width:0.5;" width="15" x="201" y="419"/><rect fill="#F1F1F1" height="2" style="stroke:#181818;stroke-width:0.5;" width="4" x="199" y="421"/><rect fill="#F1F1F1" height="2" style="stroke:#181818;stroke-width:0.5;" width="4" x="199" y="425"/><text fill="#000000" font-family="sans-serif" font-size="20" font-style="italic" lengthAdjust="spacing" textLength="122" x="74" y="455.38">«component»</text><text fill="#000000" font-family="sans-serif" font-size="20" lengthAdjust="spacing" textLength="81" x="94.5" y="482.62">Planning</text></g><!--entity SERV--><g id="elem_SERV"><rect fill="#F1F1F1" height="84.4799" rx="2.5" ry="2.5" style="stroke:#181818;stroke-width:0.5;" width="162" x="742" y="414"/><rect fill="#F1F1F1" height="10" style="stroke:#181818;stroke-width:0.5;" width="15" x="884" y="419"/><rect fill="#F1F1F1" height="2" style="stroke:#181818;stroke-width:0.5;" width="4" x="882" y="421"/><rect fill="#F1F1F1" height="2" style="stroke:#181818;stroke-width:0.5;" width="4" x="882" y="425"/><text fill="#000000" font-family="sans-serif" font-size="20" font-style="italic" lengthAdjust="spacing" textLength="122" x="757" y="455.38">«component»</text><text fill="#000000" font-family="sans-serif" font-size="20" lengthAdjust="spacing" textLength="113" x="761.5" y="482.62">HTTP Server</text></g><!--entity V--><g id="elem_V"><path d="M563.5,423.5 L604.5,423.5 A3.75,3.75 0 0 1 607,426 L614,444.5 L704.5,444.5 A2.5,2.5 0 0 1 707,447 L707,486.24 A2.5,2.5 0 0 1 704.5,488.74 L563.5,488.74 A2.5,2.5 0 0 1 561,486.24 L561,426 A2.5,2.5 0 0 1 563.5,423.5 " fill="#F1F1F1" style="stroke:#181818;stroke-width:0.5;"/><line style="stroke:#181818;stroke-width:0.5;" x1="561" x2="614" y1="444.5" y2="444.5"/><text fill="#000000" font-family="sans-serif" font-size="20" lengthAdjust="spacing" textLength="116" x="571" y="472.88">Visualization</text></g><!--link LOCAL to S1--><g id="link_LOCAL_S1"><path d="M63.9023,229.2178 C63.861,229.4258 63.8195,229.6345 63.7779,229.8437 C63.1128,233.1914 62.4205,236.6858 61.7063,240.3037 C55.9925,269.2475 48.875,306.1 43,339 C42.435,342.1644 41.8676,345.3785 41.3003,348.6242 C41.0166,350.2471 40.733,351.8778 40.4496,353.5143 C40.3788,353.9234 40.308,354.3328 40.2372,354.7426 " fill="none" id="LOCAL-S1" style="stroke:#181818;stroke-width:1.0;"/><text fill="#000000" font-family="sans-serif" font-size="20" lengthAdjust="spacing" textLength="55" x="51" y="324.38">http/s</text></g><!--link LOCAL to S2--><g id="link_LOCAL_S2"><path d="M90.5116,278.3749 C90.6122,278.5328 90.7134,278.6903 90.8151,278.8474 C91.222,279.4758 91.6373,280.0979 92.0614,280.7135 C95.4541,285.638 99.4038,290.1388 104,294 C166.75,346.71 403.39,291.27 470,339 C492.905,355.41 506.83,383.7675 515.065,408.3362 C516.0944,411.4073 517.0348,414.4192 517.8928,417.3412 " fill="none" id="LOCAL-S2" style="stroke:#181818;stroke-width:1.0;"/><text fill="#000000" font-family="sans-serif" font-size="20" lengthAdjust="spacing" textLength="55" x="451" y="324.38">http/s</text></g><!--SRC=[TP1DQm8n48Rl-HN3tgLrZoAMsWygA5swklV17JMOdLcIs8B5_zwOPQqDzP13Pfxt8t5xpIrQR8oizrH3JHiy6Fygx4jz9CZlbMAf2R80eDc9yoDuo00TpD-V7kVmhG3MqhJ2n1wogPKlHpO2KnYFBwl99A9_uDKiSglPl-19dS-fpo_9VfA5OHzV3jFinVC26RVKX5j4mY1r1jKPNyaAWyoQjr5I989UaTR8BpNojCRRSbb0XtN4oqTrgyP6J1tSiagx0nfzHA-5ewgAjY4ObEf-UZ0ulta4E-_REtSrp7-7Fm00]--></g></svg>