<?xml version="1.0" encoding="UTF-8" standalone="no"?><svg xmlns="http://www.w3.org/2000/svg" xmlns:xlink="http://www.w3.org/1999/xlink" contentStyleType="text/css" height="860px" preserveAspectRatio="none" style="width:359px;height:860px;background:#FFFFFF;" version="1.1" viewBox="0 0 359 860" width="359px" zoomAndPan="magnify"><defs/><g><!--cluster RobDroneGo System--><g id="cluster_RobDroneGo System"><rect fill="none" height="847" rx="2.5" ry="2.5" style="stroke:#181818;stroke-width:1.0;" width="346" x="7" y="7"/><rect fill="none" height="10" style="stroke:#181818;stroke-width:1.0;" width="15" x="333" y="12"/><rect fill="none" height="2" style="stroke:#181818;stroke-width:1.0;" width="4" x="331" y="14"/><rect fill="none" height="2" style="stroke:#181818;stroke-width:1.0;" width="4" x="331" y="18"/><text fill="#000000" font-family="sans-serif" font-size="20" font-style="italic" lengthAdjust="spacing" textLength="138" x="111" y="38.5645">«component»</text><text fill="#000000" font-family="sans-serif" font-size="20" font-style="italic" lengthAdjust="spacing" textLength="145" x="107.5" y="61.8457">«system (C4)»</text><text fill="#000000" font-family="sans-serif" font-size="20" font-weight="bold" lengthAdjust="spacing" textLength="233" x="63.5" y="85.127">RobDroneGo System</text></g><!--cluster S1--><g id="cluster_S1"><polygon fill="none" points="39,121,49,111,321,111,321,354,311,364,39,364,39,121" style="stroke:#181818;stroke-width:1.0;"/><line style="stroke:#181818;stroke-width:1.0;" x1="311" x2="321" y1="121" y2="111"/><line style="stroke:#181818;stroke-width:1.0;" x1="39" x2="311" y1="121" y2="121"/><line style="stroke:#181818;stroke-width:1.0;" x1="311" x2="311" y1="121" y2="364"/><text fill="#000000" font-family="sans-serif" font-size="20" font-weight="bold" lengthAdjust="spacing" textLength="123" x="114.5" y="142.5645">Server 1: ?</text></g><!--cluster B--><g id="cluster_B"><rect fill="none" height="158" rx="2.5" ry="2.5" style="stroke:#181818;stroke-width:1.0;" width="210" x="79" y="174"/><rect fill="none" height="10" style="stroke:#181818;stroke-width:1.0;" width="15" x="269" y="179"/><rect fill="none" height="2" style="stroke:#181818;stroke-width:1.0;" width="4" x="267" y="181"/><rect fill="none" height="2" style="stroke:#181818;stroke-width:1.0;" width="4" x="267" y="185"/><text fill="#000000" font-family="sans-serif" font-size="20" font-style="italic" lengthAdjust="spacing" textLength="138" x="115" y="205.5645">«component»</text><text fill="#000000" font-family="sans-serif" font-size="20" font-weight="bold" lengthAdjust="spacing" textLength="93" x="137.5" y="228.8457">Browser</text></g><!--cluster S2--><g id="cluster_S2"><polygon fill="none" points="50,447,60,437,321,437,321,583,311,593,50,593,50,447" style="stroke:#181818;stroke-width:1.0;"/><line style="stroke:#181818;stroke-width:1.0;" x1="311" x2="321" y1="447" y2="437"/><line style="stroke:#181818;stroke-width:1.0;" x1="50" x2="311" y1="447" y2="447"/><line style="stroke:#181818;stroke-width:1.0;" x1="311" x2="311" y1="447" y2="593"/><text fill="#000000" font-family="sans-serif" font-size="20" font-weight="bold" lengthAdjust="spacing" textLength="123" x="120" y="468.5645">Server 2: ?</text></g><!--cluster S3--><g id="cluster_S3"><polygon fill="none" points="50,676,60,666,295,666,295,812,285,822,50,822,50,676" style="stroke:#181818;stroke-width:1.0;"/><line style="stroke:#181818;stroke-width:1.0;" x1="285" x2="295" y1="676" y2="666"/><line style="stroke:#181818;stroke-width:1.0;" x1="50" x2="285" y1="676" y2="676"/><line style="stroke:#181818;stroke-width:1.0;" x1="285" x2="285" y1="676" y2="822"/><text fill="#000000" font-family="sans-serif" font-size="20" font-weight="bold" lengthAdjust="spacing" textLength="123" x="107" y="697.5645">Server 3: ?</text></g><!--entity V--><g id="elem_V"><rect fill="#F1F1F1" height="76.5625" rx="2.5" ry="2.5" style="stroke:#181818;stroke-width:0.5;" width="178" x="95" y="239"/><rect fill="#F1F1F1" height="10" style="stroke:#181818;stroke-width:0.5;" width="15" x="253" y="244"/><rect fill="#F1F1F1" height="2" style="stroke:#181818;stroke-width:0.5;" width="4" x="251" y="246"/><rect fill="#F1F1F1" height="2" style="stroke:#181818;stroke-width:0.5;" width="4" x="251" y="250"/><text fill="#000000" font-family="sans-serif" font-size="20" font-style="italic" lengthAdjust="spacing" textLength="138" x="110" y="277.5645">«component»</text><text fill="#000000" font-family="sans-serif" font-size="20" lengthAdjust="spacing" textLength="129" x="114.5" y="300.8457">Visualization</text></g><!--entity MDM--><g id="elem_MDM"><rect fill="#F1F1F1" height="76.5625" rx="2.5" ry="2.5" style="stroke:#181818;stroke-width:0.5;" width="204" x="93" y="492"/><rect fill="#F1F1F1" height="10" style="stroke:#181818;stroke-width:0.5;" width="15" x="277" y="497"/><rect fill="#F1F1F1" height="2" style="stroke:#181818;stroke-width:0.5;" width="4" x="275" y="499"/><rect fill="#F1F1F1" height="2" style="stroke:#181818;stroke-width:0.5;" width="4" x="275" y="503"/><text fill="#000000" font-family="sans-serif" font-size="20" font-style="italic" lengthAdjust="spacing" textLength="138" x="121" y="530.5645">«component»</text><text fill="#000000" font-family="sans-serif" font-size="20" lengthAdjust="spacing" textLength="164" x="108" y="553.8457">MDManagement</text></g><!--entity P--><g id="elem_P"><rect fill="#F1F1F1" height="76.5625" rx="2.5" ry="2.5" style="stroke:#181818;stroke-width:0.5;" width="178" x="93" y="721"/><rect fill="#F1F1F1" height="10" style="stroke:#181818;stroke-width:0.5;" width="15" x="251" y="726"/><rect fill="#F1F1F1" height="2" style="stroke:#181818;stroke-width:0.5;" width="4" x="249" y="728"/><rect fill="#F1F1F1" height="2" style="stroke:#181818;stroke-width:0.5;" width="4" x="249" y="732"/><text fill="#000000" font-family="sans-serif" font-size="20" font-style="italic" lengthAdjust="spacing" textLength="138" x="108" y="759.5645">«component»</text><text fill="#000000" font-family="sans-serif" font-size="20" lengthAdjust="spacing" textLength="88" x="133" y="782.8457">Planning</text></g><!--link S1 to S2--><g id="link_S1_S2"><path d="M50.7507,364.1 C50.8313,365.9408 50.9126,367.7945 50.9943,369.6591 C51.1578,373.3884 51.3232,377.1615 51.4898,380.9638 C51.8231,388.5684 52.1616,396.2898 52.5,404.0113 C52.8384,411.7327 53.1769,419.454 53.5102,427.0584 C53.5935,428.9595 53.6765,430.8532 53.7591,432.7379 C53.8004,433.6802 53.8416,434.6202 53.8827,435.5578 C53.9033,436.0265 53.9238,436.4947 53.9443,436.9621 " fill="none" id="S1-S2" style="stroke:#181818;stroke-width:1.0;"/><text fill="#000000" font-family="sans-serif" font-size="20" lengthAdjust="spacing" textLength="59" x="53" y="407.5645">http/s</text></g><!--link S2 to S3--><g id="link_S2_S3"><path d="M58,593.8908 C58,594.2791 58,594.6684 58,595.0587 C58,598.181 58,601.3663 58,604.602 C58,617.5448 58,631.2934 58,645.0413 C58,651.9152 58,658.7888 58,665.5615 " fill="none" id="S2-S3" style="stroke:#181818;stroke-width:1.0;"/><text fill="#000000" font-family="sans-serif" font-size="20" lengthAdjust="spacing" textLength="59" x="59" y="636.5645">http/s</text></g><!--SRC=[TP11Qm8n48Nl-HMFFUb1MdTx4h6Wqfu4wOBtr9tQuExCaaH5Y_-zCQLRZVGIPjwy-UOHjpNSQgkRMjPRgb3HXzxL_aNOb-P4o1-LMalJ2XDxP6_oFhUXVXMKH-UfoJ0UT_F997GkwkZDdlgX_r80IqN8Ih9xiXYEy9n1EvJ3E0Iky5Ch1qSspgS9-STyOryPjzErEMblXEFIwf-bi_fzpofDb7U9ylj4Y_b2izvG4xfe2a9w0rTm8CKN7RwunozhpMnu4mtB17n3XWh9mvyD1fUS8tnwtpuu5UgBKlmftm00]--></g></svg>