<?xml version="1.0" encoding="UTF-8" standalone="no"?><svg xmlns="http://www.w3.org/2000/svg" xmlns:xlink="http://www.w3.org/1999/xlink" contentStyleType="text/css" height="921px" preserveAspectRatio="none" style="width:343px;height:921px;background:#FFFFFF;" version="1.1" viewBox="0 0 343 921" width="343px" zoomAndPan="magnify"><defs/><g><!--cluster RobDroneGo System--><g id="cluster_RobDroneGo System"><rect fill="none" height="908" rx="2.5" ry="2.5" style="stroke:#181818;stroke-width:1.0;" width="330" x="7" y="7"/><rect fill="none" height="10" style="stroke:#181818;stroke-width:1.0;" width="15" x="317" y="12"/><rect fill="none" height="2" style="stroke:#181818;stroke-width:1.0;" width="4" x="315" y="14"/><rect fill="none" height="2" style="stroke:#181818;stroke-width:1.0;" width="4" x="315" y="18"/><text fill="#000000" font-family="sans-serif" font-size="20" font-style="italic" lengthAdjust="spacing" textLength="122" x="111" y="41.38">«component»</text><text fill="#000000" font-family="sans-serif" font-size="20" font-style="italic" lengthAdjust="spacing" textLength="122" x="111" y="68.62">«system (C4)»</text><text fill="#000000" font-family="sans-serif" font-size="20" font-weight="bold" lengthAdjust="spacing" textLength="204" x="70" y="95.8599">RobDroneGo System</text></g><!--cluster S1--><g id="cluster_S1"><polygon fill="none" points="39,133,49,123,305,123,305,385,295,395,39,395,39,133" style="stroke:#181818;stroke-width:1.0;"/><line style="stroke:#181818;stroke-width:1.0;" x1="295" x2="305" y1="133" y2="123"/><line style="stroke:#181818;stroke-width:1.0;" x1="39" x2="295" y1="133" y2="133"/><line style="stroke:#181818;stroke-width:1.0;" x1="295" x2="295" y1="133" y2="395"/><text fill="#000000" font-family="sans-serif" font-size="20" font-weight="bold" lengthAdjust="spacing" textLength="99.625" x="118.1875" y="157.38">Server 1: ?</text></g><!--cluster B--><g id="cluster_B"><rect fill="none" height="173" rx="2.5" ry="2.5" style="stroke:#181818;stroke-width:1.0;" width="194" x="79" y="190"/><rect fill="none" height="10" style="stroke:#181818;stroke-width:1.0;" width="15" x="253" y="195"/><rect fill="none" height="2" style="stroke:#181818;stroke-width:1.0;" width="4" x="251" y="197"/><rect fill="none" height="2" style="stroke:#181818;stroke-width:1.0;" width="4" x="251" y="201"/><text fill="#000000" font-family="sans-serif" font-size="20" font-style="italic" lengthAdjust="spacing" textLength="122" x="115" y="224.38">«component»</text><text fill="#000000" font-family="sans-serif" font-size="20" font-weight="bold" lengthAdjust="spacing" textLength="82.375" x="134.8125" y="251.62">Browser</text></g><!--cluster S2--><g id="cluster_S2"><polygon fill="none" points="40,482,50,472,305,472,305,629,295,639,40,639,40,482" style="stroke:#181818;stroke-width:1.0;"/><line style="stroke:#181818;stroke-width:1.0;" x1="295" x2="305" y1="482" y2="472"/><line style="stroke:#181818;stroke-width:1.0;" x1="40" x2="295" y1="482" y2="482"/><line style="stroke:#181818;stroke-width:1.0;" x1="295" x2="295" y1="482" y2="639"/><text fill="#000000" font-family="sans-serif" font-size="20" font-weight="bold" lengthAdjust="spacing" textLength="99.625" x="118.6875" y="506.38">Server 2: ?</text></g><!--cluster S3--><g id="cluster_S3"><polygon fill="none" points="50,726,60,716,279,716,279,873,269,883,50,883,50,726" style="stroke:#181818;stroke-width:1.0;"/><line style="stroke:#181818;stroke-width:1.0;" x1="269" x2="279" y1="726" y2="716"/><line style="stroke:#181818;stroke-width:1.0;" x1="50" x2="269" y1="726" y2="726"/><line style="stroke:#181818;stroke-width:1.0;" x1="269" x2="269" y1="726" y2="883"/><text fill="#000000" font-family="sans-serif" font-size="20" font-weight="bold" lengthAdjust="spacing" textLength="99.625" x="110.6875" y="750.38">Server 3: ?</text></g><!--entity V--><g id="elem_V"><rect fill="#F1F1F1" height="84.4799" rx="2.5" ry="2.5" style="stroke:#181818;stroke-width:0.5;" width="162" x="95" y="263"/><rect fill="#F1F1F1" height="10" style="stroke:#181818;stroke-width:0.5;" width="15" x="237" y="268"/><rect fill="#F1F1F1" height="2" style="stroke:#181818;stroke-width:0.5;" width="4" x="235" y="270"/><rect fill="#F1F1F1" height="2" style="stroke:#181818;stroke-width:0.5;" width="4" x="235" y="274"/><text fill="#000000" font-family="sans-serif" font-size="20" font-style="italic" lengthAdjust="spacing" textLength="122" x="110" y="304.38">«component»</text><text fill="#000000" font-family="sans-serif" font-size="20" lengthAdjust="spacing" textLength="116" x="113" y="331.62">Visualization</text></g><!--entity MDM--><g id="elem_MDM"><rect fill="#F1F1F1" height="84.4799" rx="2.5" ry="2.5" style="stroke:#181818;stroke-width:0.5;" width="197" x="83.5" y="531"/><rect fill="#F1F1F1" height="10" style="stroke:#181818;stroke-width:0.5;" width="15" x="260.5" y="536"/><rect fill="#F1F1F1" height="2" style="stroke:#181818;stroke-width:0.5;" width="4" x="258.5" y="538"/><rect fill="#F1F1F1" height="2" style="stroke:#181818;stroke-width:0.5;" width="4" x="258.5" y="542"/><text fill="#000000" font-family="sans-serif" font-size="20" font-style="italic" lengthAdjust="spacing" textLength="122" x="116" y="572.38">«component»</text><text fill="#000000" font-family="sans-serif" font-size="20" lengthAdjust="spacing" textLength="157" x="98.5" y="599.62">MDManagement</text></g><!--entity P--><g id="elem_P"><rect fill="#F1F1F1" height="84.4799" rx="2.5" ry="2.5" style="stroke:#181818;stroke-width:0.5;" width="162" x="93" y="775"/><rect fill="#F1F1F1" height="10" style="stroke:#181818;stroke-width:0.5;" width="15" x="235" y="780"/><rect fill="#F1F1F1" height="2" style="stroke:#181818;stroke-width:0.5;" width="4" x="233" y="782"/><rect fill="#F1F1F1" height="2" style="stroke:#181818;stroke-width:0.5;" width="4" x="233" y="786"/><text fill="#000000" font-family="sans-serif" font-size="20" font-style="italic" lengthAdjust="spacing" textLength="122" x="108" y="816.38">«component»</text><text fill="#000000" font-family="sans-serif" font-size="20" lengthAdjust="spacing" textLength="81" x="128.5" y="843.62">Planning</text></g><!--link S1 to S2--><g id="link_S1_S2"><path d="M47.3362,395.2536 C47.338,395.7396 47.3399,396.2265 47.3417,396.7142 C47.349,398.6651 47.3563,400.6296 47.3637,402.6057 C47.3785,406.5579 47.3935,410.5565 47.4086,414.5861 C47.4388,422.6453 47.4694,430.8283 47.5,439.0113 C47.5306,447.1942 47.5613,455.3771 47.5914,463.4361 C47.599,465.4508 47.6065,467.4578 47.6139,469.4551 C47.6158,469.9544 47.6177,470.4531 47.6195,470.9512 C47.6205,471.2003 47.6214,471.4492 47.6223,471.6979 " fill="none" id="S1-S2" style="stroke:#181818;stroke-width:1.0;"/><text fill="#000000" font-family="sans-serif" font-size="20" lengthAdjust="spacing" textLength="55" x="48" y="441.38">http/s</text></g><!--link S2 to S3--><g id="link_S2_S3"><path d="M50.7122,639.6747 C50.7295,640.0937 50.7469,640.5139 50.7643,640.9352 C50.9036,644.3055 51.0458,647.7462 51.1904,651.2433 C51.7688,665.2316 52.3844,680.1216 53,695.0113 C53.1539,698.7337 53.3078,702.4561 53.4611,706.1644 C53.5378,708.0185 53.6143,709.8692 53.6906,711.7145 C53.7288,712.6372 53.7669,713.5585 53.8049,714.4783 C53.8239,714.9382 53.8429,715.3977 53.8619,715.8568 " fill="none" id="S2-S3" style="stroke:#181818;stroke-width:1.0;"/><text fill="#000000" font-family="sans-serif" font-size="20" lengthAdjust="spacing" textLength="55" x="53" y="685.38">http/s</text></g><!--SRC=[TP11Qm8n48Nl-HMFFUb1MdTx4h6Wqfu4wOBtr9tQuExCaaH5Y_-zCQLRZVGIPjwy-UOHjpNSQgkRMjPRgb3HXzxL_aNOb-P4o1-LMalJ2XDxP6_oFhUXVXMKH-UfoJ0UT_F997GkwkZDdlgX_r80IqN8Ih9xiXYEy9n1EvJ3E0Iky5Ch1qSspgS9-STyOryPjzErEMblXEFIwf-bi_fzpofDb7U9ylj4Y_b2izvG4xfe2a9w0rTm8CKN7RwunozhpMnu4mtB17n3XWh9mvyD1fUS8tnwtpuu5UgBKlmftm00]--></g></svg>