<?xml version="1.0" encoding="UTF-8" standalone="no"?><svg xmlns="http://www.w3.org/2000/svg" xmlns:xlink="http://www.w3.org/1999/xlink" contentStyleType="text/css" height="734px" preserveAspectRatio="none" style="width:991px;height:734px;background:#FFFFFF;" version="1.1" viewBox="0 0 991 734" width="991px" zoomAndPan="magnify"><defs/><g><!--cluster LOCAL--><g id="cluster_LOCAL"><polygon fill="none" points="405,16,415,6,687,6,687,249,677,259,405,259,405,16" style="stroke:#181818;stroke-width:1.0;"/><line style="stroke:#181818;stroke-width:1.0;" x1="677" x2="687" y1="16" y2="6"/><line style="stroke:#181818;stroke-width:1.0;" x1="405" x2="677" y1="16" y2="16"/><line style="stroke:#181818;stroke-width:1.0;" x1="677" x2="677" y1="16" y2="259"/><text fill="#000000" font-family="sans-serif" font-size="20" font-weight="bold" lengthAdjust="spacing" textLength="131" x="476.5" y="37.5645">localhost: ?</text></g><!--cluster B--><g id="cluster_B"><rect fill="none" height="158" rx="2.5" ry="2.5" style="stroke:#181818;stroke-width:1.0;" width="210" x="445" y="69"/><rect fill="none" height="10" style="stroke:#181818;stroke-width:1.0;" width="15" x="635" y="74"/><rect fill="none" height="2" style="stroke:#181818;stroke-width:1.0;" width="4" x="633" y="76"/><rect fill="none" height="2" style="stroke:#181818;stroke-width:1.0;" width="4" x="633" y="80"/><text fill="#000000" font-family="sans-serif" font-size="20" font-style="italic" lengthAdjust="spacing" textLength="138" x="481" y="100.5645">«component»</text><text fill="#000000" font-family="sans-serif" font-size="20" font-weight="bold" lengthAdjust="spacing" textLength="93" x="503.5" y="123.8457">Browser</text></g><!--cluster S1--><g id="cluster_S1"><polygon fill="none" points="224,342,234,332,495,332,495,478,485,488,224,488,224,342" style="stroke:#181818;stroke-width:1.0;"/><line style="stroke:#181818;stroke-width:1.0;" x1="485" x2="495" y1="342" y2="332"/><line style="stroke:#181818;stroke-width:1.0;" x1="224" x2="485" y1="342" y2="342"/><line style="stroke:#181818;stroke-width:1.0;" x1="485" x2="485" y1="342" y2="488"/><text fill="#000000" font-family="sans-serif" font-size="20" font-weight="bold" lengthAdjust="spacing" textLength="123" x="294" y="363.5645">Server 1: ?</text></g><!--cluster S4--><g id="cluster_S4"><polygon fill="none" points="16,571,26,561,261,561,261,707,251,717,16,717,16,571" style="stroke:#181818;stroke-width:1.0;"/><line style="stroke:#181818;stroke-width:1.0;" x1="251" x2="261" y1="571" y2="561"/><line style="stroke:#181818;stroke-width:1.0;" x1="16" x2="251" y1="571" y2="571"/><line style="stroke:#181818;stroke-width:1.0;" x1="251" x2="251" y1="571" y2="717"/><text fill="#000000" font-family="sans-serif" font-size="20" font-weight="bold" lengthAdjust="spacing" textLength="123" x="73" y="592.5645">Server 4: ?</text></g><!--cluster S3--><g id="cluster_S3"><polygon fill="none" points="293,579.5,303,569.5,492,569.5,492,698.5,482,708.5,293,708.5,293,579.5" style="stroke:#181818;stroke-width:1.0;"/><line style="stroke:#181818;stroke-width:1.0;" x1="482" x2="492" y1="579.5" y2="569.5"/><line style="stroke:#181818;stroke-width:1.0;" x1="293" x2="482" y1="579.5" y2="579.5"/><line style="stroke:#181818;stroke-width:1.0;" x1="482" x2="482" y1="579.5" y2="708.5"/><text fill="#000000" font-family="sans-serif" font-size="20" font-weight="bold" lengthAdjust="spacing" textLength="123" x="327" y="601.0645">Server 3: ?</text></g><!--cluster S2--><g id="cluster_S2"><polygon fill="none" points="535,342,545,332,974,332,974,478,964,488,535,488,535,342" style="stroke:#181818;stroke-width:1.0;"/><line style="stroke:#181818;stroke-width:1.0;" x1="964" x2="974" y1="342" y2="332"/><line style="stroke:#181818;stroke-width:1.0;" x1="535" x2="964" y1="342" y2="342"/><line style="stroke:#181818;stroke-width:1.0;" x1="964" x2="964" y1="342" y2="488"/><text fill="#000000" font-family="sans-serif" font-size="20" font-weight="bold" lengthAdjust="spacing" textLength="123" x="689" y="363.5645">Server 2: ?</text></g><!--entity UI--><g id="elem_UI"><rect fill="#F1F1F1" height="76.5625" rx="2.5" ry="2.5" style="stroke:#181818;stroke-width:0.5;" width="178" x="461" y="134"/><rect fill="#F1F1F1" height="10" style="stroke:#181818;stroke-width:0.5;" width="15" x="619" y="139"/><rect fill="#F1F1F1" height="2" style="stroke:#181818;stroke-width:0.5;" width="4" x="617" y="141"/><rect fill="#F1F1F1" height="2" style="stroke:#181818;stroke-width:0.5;" width="4" x="617" y="145"/><text fill="#000000" font-family="sans-serif" font-size="20" font-style="italic" lengthAdjust="spacing" textLength="138" x="476" y="172.5645">«component»</text><text fill="#000000" font-family="sans-serif" font-size="20" lengthAdjust="spacing" textLength="21" x="534.5" y="195.8457">UI</text></g><!--entity MDM--><g id="elem_MDM"><rect fill="#F1F1F1" height="76.5625" rx="2.5" ry="2.5" style="stroke:#181818;stroke-width:0.5;" width="204" x="267" y="387"/><rect fill="#F1F1F1" height="10" style="stroke:#181818;stroke-width:0.5;" width="15" x="451" y="392"/><rect fill="#F1F1F1" height="2" style="stroke:#181818;stroke-width:0.5;" width="4" x="449" y="394"/><rect fill="#F1F1F1" height="2" style="stroke:#181818;stroke-width:0.5;" width="4" x="449" y="398"/><text fill="#000000" font-family="sans-serif" font-size="20" font-style="italic" lengthAdjust="spacing" textLength="138" x="295" y="425.5645">«component»</text><text fill="#000000" font-family="sans-serif" font-size="20" lengthAdjust="spacing" textLength="164" x="282" y="448.8457">MDManagement</text></g><!--entity P--><g id="elem_P"><rect fill="#F1F1F1" height="76.5625" rx="2.5" ry="2.5" style="stroke:#181818;stroke-width:0.5;" width="178" x="59" y="616"/><rect fill="#F1F1F1" height="10" style="stroke:#181818;stroke-width:0.5;" width="15" x="217" y="621"/><rect fill="#F1F1F1" height="2" style="stroke:#181818;stroke-width:0.5;" width="4" x="215" y="623"/><rect fill="#F1F1F1" height="2" style="stroke:#181818;stroke-width:0.5;" width="4" x="215" y="627"/><text fill="#000000" font-family="sans-serif" font-size="20" font-style="italic" lengthAdjust="spacing" textLength="138" x="74" y="654.5645">«component»</text><text fill="#000000" font-family="sans-serif" font-size="20" lengthAdjust="spacing" textLength="88" x="99" y="677.8457">Planning</text></g><!--entity DB--><g id="elem_DB"><path d="M309,626.5 C309,616.5 377,616.5 377,616.5 C377,616.5 445,616.5 445,626.5 L445,682.0625 C445,692.0625 377,692.0625 377,692.0625 C377,692.0625 309,692.0625 309,682.0625 L309,626.5 " fill="#F1F1F1" style="stroke:#181818;stroke-width:0.5;"/><path d="M309,626.5 C309,636.5 377,636.5 377,636.5 C377,636.5 445,636.5 445,626.5 " fill="none" style="stroke:#181818;stroke-width:0.5;"/><text fill="#000000" font-family="sans-serif" font-size="20" font-style="italic" lengthAdjust="spacing" textLength="116" x="319" y="659.0645">«database»</text><text fill="#000000" font-family="sans-serif" font-size="20" lengthAdjust="spacing" textLength="96" x="329" y="682.3457">MongoDB</text></g><!--entity SERV--><g id="elem_SERV"><rect fill="#F1F1F1" height="76.5625" rx="2.5" ry="2.5" style="stroke:#181818;stroke-width:0.5;" width="178" x="772" y="387"/><rect fill="#F1F1F1" height="10" style="stroke:#181818;stroke-width:0.5;" width="15" x="930" y="392"/><rect fill="#F1F1F1" height="2" style="stroke:#181818;stroke-width:0.5;" width="4" x="928" y="394"/><rect fill="#F1F1F1" height="2" style="stroke:#181818;stroke-width:0.5;" width="4" x="928" y="398"/><text fill="#000000" font-family="sans-serif" font-size="20" font-style="italic" lengthAdjust="spacing" textLength="138" x="787" y="425.5645">«component»</text><text fill="#000000" font-family="sans-serif" font-size="20" lengthAdjust="spacing" textLength="121" x="795.5" y="448.8457">HTTP Server</text></g><!--entity V--><g id="elem_V"><path d="M581,395 L622,395 A3.75,3.75 0 0 1 624.5,397.5 L631.5,416 L735,416 A2.5,2.5 0 0 1 737.5,418.5 L737.5,453.7813 A2.5,2.5 0 0 1 735,456.2813 L581,456.2813 A2.5,2.5 0 0 1 578.5,453.7813 L578.5,397.5 A2.5,2.5 0 0 1 581,395 " fill="#F1F1F1" style="stroke:#181818;stroke-width:0.5;"/><line style="stroke:#181818;stroke-width:0.5;" x1="578.5" x2="631.5" y1="416" y2="416"/><text fill="#000000" font-family="sans-serif" font-size="20" lengthAdjust="spacing" textLength="129" x="588.5" y="441.5645">Visualization</text></g><!--link LOCAL to S1--><g id="link_LOCAL_S1"><path d="M404.7458,177.9757 C404.4964,178.1153 404.2419,178.2581 403.9824,178.404 C402.9446,178.9877 401.8272,179.6216 400.6357,180.3048 C398.2526,181.6711 395.5728,183.2344 392.6389,184.9867 C380.9034,191.9959 365.1031,202.0294 347.9688,214.5788 C313.7,239.6775 274.095,274.84 251,316 C249.5263,318.6269 248.1619,321.3412 246.8991,324.1223 C246.2677,325.5128 245.6617,326.9201 245.0801,328.3414 C244.7893,329.0521 244.5045,329.7663 244.2258,330.4837 C244.0864,330.8424 243.9486,331.2019 243.8122,331.5621 " fill="none" id="LOCAL-S1" style="stroke:#181818;stroke-width:1.0;"/><text fill="#000000" font-family="sans-serif" font-size="20" lengthAdjust="spacing" textLength="59" x="272" y="302.5645">http/s</text></g><!--link LOCAL to S2--><g id="link_LOCAL_S2"><path d="M436.6319,259.3303 C439.1683,264.7683 441.9513,270.0425 445,275 C458.67,297.22 471.49,295.03 487,316 C502.885,337.47 516.7,364.09 526.6338,385.5888 C529.1172,390.9634 531.358,396.018 533.328,400.5921 C533.8205,401.7356 534.2961,402.8491 534.7543,403.93 C534.8116,404.0651 534.8686,404.1997 534.9253,404.3338 " fill="none" id="LOCAL-S2" style="stroke:#181818;stroke-width:1.0;"/><text fill="#000000" font-family="sans-serif" font-size="20" lengthAdjust="spacing" textLength="59" x="480" y="302.5645">http/s</text></g><!--link S1 to DB--><g id="link_S1_DB"><path d="M244.292,488.0846 C244.384,488.3467 244.4766,488.6085 244.5699,488.8701 C244.943,489.9163 245.3268,490.9578 245.7215,491.9929 C247.3003,496.1333 249.0538,500.1713 251,504 C272.77,546.81 308.97,587.97 336.99,616.23 " fill="none" id="S1-DB" style="stroke:#181818;stroke-width:1.0;"/><text fill="#000000" font-family="sans-serif" font-size="20" lengthAdjust="spacing" textLength="32" x="271" y="531.5645">tcp</text></g><!--link S1 to S4--><g id="link_S1_S4"><path d="M223.6686,428.9869 C223.5325,429.0296 223.395,429.0729 223.256,429.1167 C222.7,429.2919 222.1201,429.476 221.517,429.6692 C220.3109,430.0554 219.0123,430.4775 217.6274,430.9358 C214.8576,431.8523 211.7425,432.9134 208.3314,434.1214 C194.6872,438.9534 176.3081,446.1356 156.3538,455.8137 C116.445,475.17 70.235,504.51 43,545 C41.3194,547.4994 39.7736,550.1019 38.3525,552.7855 C37.642,554.1272 36.9626,555.4893 36.3131,556.8688 C35.9883,557.5585 35.6711,558.2526 35.3611,558.9508 C35.2061,559.2999 35.0529,559.65 34.9016,560.001 C34.8259,560.1765 34.7507,560.3523 34.6759,560.5283 " fill="none" id="S1-S4" style="stroke:#181818;stroke-width:1.0;"/><text fill="#000000" font-family="sans-serif" font-size="20" lengthAdjust="spacing" textLength="59" x="72" y="531.5645">http/s</text></g><!--SRC=[TP5HJuCm483V-oikl2ywjYUop8XeN3BY8Xll9tIiMUaHscaoi_zkAGCLyQ4FT_VrkzvL7uMgiCPIKdRaEUHyZoTfdaYPH9mv-BUCASevU1P0UI1j0hZp03MiNnxkr_39038gAr9S6V32cZuqhnqGmcBHbvPBX_w2Tol7xLQZu8KrvzBrJtZzpckOTksJwR1t7CMeiE2bZHnY4qCpZ4hdlNG-b6uaAYLKuSgRWUu_twptpPmlHuDlg2qGaoee2bqnQXRKbQvZ_tNvlSiVlkrvkzr0YxN4usiwFZ30dcHkRLugz0cbEACHfDojj6iCZBL_EfaqsmtWO4nretya_U-a1Mp6ZX20oQfhQDVN0ry0]--></g></svg>