<?xml version="1.0" encoding="UTF-8" standalone="no"?><svg xmlns="http://www.w3.org/2000/svg" xmlns:xlink="http://www.w3.org/1999/xlink" contentStyleType="text/css" height="783px" preserveAspectRatio="none" style="width:942px;height:783px;background:#FFFFFF;" version="1.1" viewBox="0 0 942 783" width="942px" zoomAndPan="magnify"><defs/><g><!--cluster LOCAL--><g id="cluster_LOCAL"><polygon fill="none" points="388,16,398,6,654,6,654,268,644,278,388,278,388,16" style="stroke:#181818;stroke-width:1.0;"/><line style="stroke:#181818;stroke-width:1.0;" x1="644" x2="654" y1="16" y2="6"/><line style="stroke:#181818;stroke-width:1.0;" x1="388" x2="644" y1="16" y2="16"/><line style="stroke:#181818;stroke-width:1.0;" x1="644" x2="644" y1="16" y2="278"/><text fill="#000000" font-family="sans-serif" font-size="20" font-weight="bold" lengthAdjust="spacing" textLength="109.875" x="462.0625" y="40.38">localhost: ?</text></g><!--cluster B--><g id="cluster_B"><rect fill="none" height="173" rx="2.5" ry="2.5" style="stroke:#181818;stroke-width:1.0;" width="194" x="428" y="73"/><rect fill="none" height="10" style="stroke:#181818;stroke-width:1.0;" width="15" x="602" y="78"/><rect fill="none" height="2" style="stroke:#181818;stroke-width:1.0;" width="4" x="600" y="80"/><rect fill="none" height="2" style="stroke:#181818;stroke-width:1.0;" width="4" x="600" y="84"/><text fill="#000000" font-family="sans-serif" font-size="20" font-style="italic" lengthAdjust="spacing" textLength="122" x="464" y="107.38">«component»</text><text fill="#000000" font-family="sans-serif" font-size="20" font-weight="bold" lengthAdjust="spacing" textLength="82.375" x="483.8125" y="134.62">Browser</text></g><!--cluster S1--><g id="cluster_S1"><polygon fill="none" points="210,365,220,355,475,355,475,512,465,522,210,522,210,365" style="stroke:#181818;stroke-width:1.0;"/><line style="stroke:#181818;stroke-width:1.0;" x1="465" x2="475" y1="365" y2="355"/><line style="stroke:#181818;stroke-width:1.0;" x1="210" x2="465" y1="365" y2="365"/><line style="stroke:#181818;stroke-width:1.0;" x1="465" x2="465" y1="365" y2="522"/><text fill="#000000" font-family="sans-serif" font-size="20" font-weight="bold" lengthAdjust="spacing" textLength="99.625" x="288.6875" y="389.38">Server 1: ?</text></g><!--cluster S4--><g id="cluster_S4"><polygon fill="none" points="16,609,26,599,245,599,245,756,235,766,16,766,16,609" style="stroke:#181818;stroke-width:1.0;"/><line style="stroke:#181818;stroke-width:1.0;" x1="235" x2="245" y1="609" y2="599"/><line style="stroke:#181818;stroke-width:1.0;" x1="16" x2="235" y1="609" y2="609"/><line style="stroke:#181818;stroke-width:1.0;" x1="235" x2="235" y1="609" y2="766"/><text fill="#000000" font-family="sans-serif" font-size="20" font-weight="bold" lengthAdjust="spacing" textLength="99.625" x="76.6875" y="633.38">Server 4: ?</text></g><!--cluster S3--><g id="cluster_S3"><polygon fill="none" points="277,617.5,287,607.5,452,607.5,452,747.5,442,757.5,277,757.5,277,617.5" style="stroke:#181818;stroke-width:1.0;"/><line style="stroke:#181818;stroke-width:1.0;" x1="442" x2="452" y1="617.5" y2="607.5"/><line style="stroke:#181818;stroke-width:1.0;" x1="277" x2="442" y1="617.5" y2="617.5"/><line style="stroke:#181818;stroke-width:1.0;" x1="442" x2="442" y1="617.5" y2="757.5"/><text fill="#000000" font-family="sans-serif" font-size="20" font-weight="bold" lengthAdjust="spacing" textLength="99.625" x="310.6875" y="641.88">Server 3: ?</text></g><!--cluster S2--><g id="cluster_S2"><polygon fill="none" points="515,365,525,355,925,355,925,512,915,522,515,522,515,365" style="stroke:#181818;stroke-width:1.0;"/><line style="stroke:#181818;stroke-width:1.0;" x1="915" x2="925" y1="365" y2="355"/><line style="stroke:#181818;stroke-width:1.0;" x1="515" x2="915" y1="365" y2="365"/><line style="stroke:#181818;stroke-width:1.0;" x1="915" x2="915" y1="365" y2="522"/><text fill="#000000" font-family="sans-serif" font-size="20" font-weight="bold" lengthAdjust="spacing" textLength="99.625" x="666.1875" y="389.38">Server 2: ?</text></g><!--entity UI--><g id="elem_UI"><rect fill="#F1F1F1" height="84.4799" rx="2.5" ry="2.5" style="stroke:#181818;stroke-width:0.5;" width="162" x="444" y="146"/><rect fill="#F1F1F1" height="10" style="stroke:#181818;stroke-width:0.5;" width="15" x="586" y="151"/><rect fill="#F1F1F1" height="2" style="stroke:#181818;stroke-width:0.5;" width="4" x="584" y="153"/><rect fill="#F1F1F1" height="2" style="stroke:#181818;stroke-width:0.5;" width="4" x="584" y="157"/><text fill="#000000" font-family="sans-serif" font-size="20" font-style="italic" lengthAdjust="spacing" textLength="122" x="459" y="187.38">«component»</text><text fill="#000000" font-family="sans-serif" font-size="20" lengthAdjust="spacing" textLength="22" x="509" y="214.62">UI</text></g><!--entity MDM--><g id="elem_MDM"><rect fill="#F1F1F1" height="84.4799" rx="2.5" ry="2.5" style="stroke:#181818;stroke-width:0.5;" width="197" x="253.5" y="414"/><rect fill="#F1F1F1" height="10" style="stroke:#181818;stroke-width:0.5;" width="15" x="430.5" y="419"/><rect fill="#F1F1F1" height="2" style="stroke:#181818;stroke-width:0.5;" width="4" x="428.5" y="421"/><rect fill="#F1F1F1" height="2" style="stroke:#181818;stroke-width:0.5;" width="4" x="428.5" y="425"/><text fill="#000000" font-family="sans-serif" font-size="20" font-style="italic" lengthAdjust="spacing" textLength="122" x="286" y="455.38">«component»</text><text fill="#000000" font-family="sans-serif" font-size="20" lengthAdjust="spacing" textLength="157" x="268.5" y="482.62">MDManagement</text></g><!--entity P--><g id="elem_P"><rect fill="#F1F1F1" height="84.4799" rx="2.5" ry="2.5" style="stroke:#181818;stroke-width:0.5;" width="162" x="59" y="658"/><rect fill="#F1F1F1" height="10" style="stroke:#181818;stroke-width:0.5;" width="15" x="201" y="663"/><rect fill="#F1F1F1" height="2" style="stroke:#181818;stroke-width:0.5;" width="4" x="199" y="665"/><rect fill="#F1F1F1" height="2" style="stroke:#181818;stroke-width:0.5;" width="4" x="199" y="669"/><text fill="#000000" font-family="sans-serif" font-size="20" font-style="italic" lengthAdjust="spacing" textLength="122" x="74" y="699.38">«component»</text><text fill="#000000" font-family="sans-serif" font-size="20" lengthAdjust="spacing" textLength="81" x="94.5" y="726.62">Planning</text></g><!--entity DB--><g id="elem_DB"><path d="M293.5,668.5 C293.5,658.5 355,658.5 355,658.5 C355,658.5 416.5,658.5 416.5,668.5 L416.5,731.9799 C416.5,741.9799 355,741.9799 355,741.9799 C355,741.9799 293.5,741.9799 293.5,731.9799 L293.5,668.5 " fill="#F1F1F1" style="stroke:#181818;stroke-width:0.5;"/><path d="M293.5,668.5 C293.5,678.5 355,678.5 355,678.5 C355,678.5 416.5,678.5 416.5,668.5 " fill="none" style="stroke:#181818;stroke-width:0.5;"/><text fill="#000000" font-family="sans-serif" font-size="20" font-style="italic" lengthAdjust="spacing" textLength="103" x="303.5" y="703.88">«database»</text><text fill="#000000" font-family="sans-serif" font-size="20" lengthAdjust="spacing" textLength="94" x="308" y="731.12">MongoDB</text></g><!--entity SERV--><g id="elem_SERV"><rect fill="#F1F1F1" height="84.4799" rx="2.5" ry="2.5" style="stroke:#181818;stroke-width:0.5;" width="162" x="739" y="414"/><rect fill="#F1F1F1" height="10" style="stroke:#181818;stroke-width:0.5;" width="15" x="881" y="419"/><rect fill="#F1F1F1" height="2" style="stroke:#181818;stroke-width:0.5;" width="4" x="879" y="421"/><rect fill="#F1F1F1" height="2" style="stroke:#181818;stroke-width:0.5;" width="4" x="879" y="425"/><text fill="#000000" font-family="sans-serif" font-size="20" font-style="italic" lengthAdjust="spacing" textLength="122" x="754" y="455.38">«component»</text><text fill="#000000" font-family="sans-serif" font-size="20" lengthAdjust="spacing" textLength="113" x="758.5" y="482.62">HTTP Server</text></g><!--entity V--><g id="elem_V"><path d="M560.5,423.5 L601.5,423.5 A3.75,3.75 0 0 1 604,426 L611,444.5 L701.5,444.5 A2.5,2.5 0 0 1 704,447 L704,486.24 A2.5,2.5 0 0 1 701.5,488.74 L560.5,488.74 A2.5,2.5 0 0 1 558,486.24 L558,426 A2.5,2.5 0 0 1 560.5,423.5 " fill="#F1F1F1" style="stroke:#181818;stroke-width:0.5;"/><line style="stroke:#181818;stroke-width:0.5;" x1="558" x2="611" y1="444.5" y2="444.5"/><text fill="#000000" font-family="sans-serif" font-size="20" lengthAdjust="spacing" textLength="116" x="568" y="472.88">Visualization</text></g><!--link LOCAL to S1--><g id="link_LOCAL_S1"><path d="M387.8664,193.8603 C387.6207,194.0114 387.37,194.166 387.1144,194.3239 C386.0921,194.9554 384.9915,195.641 383.818,196.3792 C381.4709,197.8556 378.8319,199.5428 375.9431,201.4308 C364.3881,208.9828 348.8375,219.7481 331.9925,233.0912 C298.3025,259.7775 259.435,296.775 237,339 C235.4919,341.8381 234.0974,344.7661 232.8084,347.7621 C232.1638,349.2601 231.5457,350.7751 230.9528,352.3044 C230.6563,353.0691 230.3662,353.8373 230.0823,354.6088 " fill="none" id="LOCAL-S1" style="stroke:#181818;stroke-width:1.0;"/><text fill="#000000" font-family="sans-serif" font-size="20" lengthAdjust="spacing" textLength="55" x="261" y="324.38">http/s</text></g><!--link LOCAL to S2--><g id="link_LOCAL_S2"><path d="M420.1974,278.0342 C420.2746,278.2119 420.352,278.3894 420.4296,278.5668 C420.5848,278.9216 420.7409,279.2757 420.8978,279.6293 C421.2116,280.3363 421.5289,281.0408 421.8496,281.7425 C422.491,283.1458 423.1462,284.5377 423.8154,285.9158 C425.1538,288.672 426.5481,291.3731 428,294 C440.8,317.16 452.45,316.89 467,339 C482.485,362.54 496.2925,391.0075 506.3225,413.85 C508.83,419.5606 511.1014,424.9197 513.1039,429.7623 C513.6045,430.973 514.0883,432.1513 514.5548,433.2949 C514.6715,433.5807 514.787,433.8644 514.9015,434.1459 " fill="none" id="LOCAL-S2" style="stroke:#181818;stroke-width:1.0;"/><text fill="#000000" font-family="sans-serif" font-size="20" lengthAdjust="spacing" textLength="55" x="462" y="324.38">http/s</text></g><!--link S1 to DB--><g id="link_S1_DB"><path d="M230.7686,522.0093 C231.1333,523.1104 231.5077,524.2072 231.8921,525.2983 C233.4298,529.6623 235.1275,533.9325 237,538 C257.58,582.7 291.63,627.35 317.88,658.25 " fill="none" id="S1-DB" style="stroke:#181818;stroke-width:1.0;"/><text fill="#000000" font-family="sans-serif" font-size="20" lengthAdjust="spacing" textLength="29" x="256" y="568.38">tcp</text></g><!--link S1 to S4--><g id="link_S1_S4"><path d="M209.8612,460.1407 C209.3436,460.3489 208.8037,460.5675 208.2424,460.7962 C207.1197,461.2537 205.9109,461.7522 204.622,462.2913 C202.0441,463.3695 199.1453,464.6106 195.9719,466.0127 C183.2781,471.6209 166.19,479.8056 147.6675,490.4538 C110.6225,511.75 67.84,542.9 43,583 C41.3075,585.7325 39.7513,588.5679 38.3211,591.4831 C37.606,592.9407 36.9224,594.4182 36.269,595.9129 C35.9423,596.6602 35.6231,597.4118 35.3113,598.1673 C35.2334,598.3562 35.1559,598.5453 35.0789,598.7347 " fill="none" id="S1-S4" style="stroke:#181818;stroke-width:1.0;"/><text fill="#000000" font-family="sans-serif" font-size="20" lengthAdjust="spacing" textLength="55" x="74" y="568.38">http/s</text></g><!--SRC=[TP5HJuCm483V-oikl2ywjYUop8XeN3BY8Xll9tIiMUaHscaoi_zkAGCLyQ4FT_VrkzvL7uMgiCPIKdRaEUHyZoTfdaYPH9mv-BUCASevU1P0UI1j0hZp03MiNnxkr_39038gAr9S6V32cZuqhnqGmcBHbvPBX_w2Tol7xLQZu8KrvzBrJtZzpckOTksJwR1t7CMeiE2bZHnY4qCpZ4hdlNG-b6uaAYLKuSgRWUu_twptpPmlHuDlg2qGaoee2bqnQXRKbQvZ_tNvlSiVlkrvkzr0YxN4usiwFZ30dcHkRLugz0cbEACHfDojj6iCZBL_EfaqsmtWO4nretya_U-a1Mp6ZX20oQfhQDVN0ry0]--></g></svg>