<?xml version="1.0" encoding="UTF-8" standalone="no"?><svg xmlns="http://www.w3.org/2000/svg" xmlns:xlink="http://www.w3.org/1999/xlink" contentStyleType="text/css" height="784px" preserveAspectRatio="none" style="width:1099px;height:784px;background:#FFFFFF;" version="1.1" viewBox="0 0 1099 784" width="1099px" zoomAndPan="magnify"><defs/><g><!--cluster LOCAL--><g id="cluster_LOCAL"><polygon fill="none" points="177,16,187,6,443,6,443,268.48,433,278.48,177,278.48,177,16" style="stroke:#181818;stroke-width:1.0;"/><line style="stroke:#181818;stroke-width:1.0;" x1="433" x2="443" y1="16" y2="6"/><line style="stroke:#181818;stroke-width:1.0;" x1="177" x2="433" y1="16" y2="16"/><line style="stroke:#181818;stroke-width:1.0;" x1="433" x2="433" y1="16" y2="278.48"/><text fill="#000000" font-family="sans-serif" font-size="20" font-weight="bold" lengthAdjust="spacing" textLength="109.875" x="251.0625" y="40.38">localhost: ?</text></g><!--cluster B--><g id="cluster_B"><rect fill="none" height="173.48" rx="2.5" ry="2.5" style="stroke:#181818;stroke-width:1.0;" width="194" x="217" y="73"/><rect fill="none" height="10" style="stroke:#181818;stroke-width:1.0;" width="15" x="391" y="78"/><rect fill="none" height="2" style="stroke:#181818;stroke-width:1.0;" width="4" x="389" y="80"/><rect fill="none" height="2" style="stroke:#181818;stroke-width:1.0;" width="4" x="389" y="84"/><text fill="#000000" font-family="sans-serif" font-size="20" font-style="italic" lengthAdjust="spacing" textLength="122" x="253" y="107.38">«component»</text><text fill="#000000" font-family="sans-serif" font-size="20" font-weight="bold" lengthAdjust="spacing" textLength="82.375" x="272.8125" y="134.62">Browser</text></g><!--cluster S1--><g id="cluster_S1"><polygon fill="none" points="387,365.48,397,355.48,651,355.48,651,512.96,641,522.96,387,522.96,387,365.48" style="stroke:#181818;stroke-width:1.0;"/><line style="stroke:#181818;stroke-width:1.0;" x1="641" x2="651" y1="365.48" y2="355.48"/><line style="stroke:#181818;stroke-width:1.0;" x1="387" x2="641" y1="365.48" y2="365.48"/><line style="stroke:#181818;stroke-width:1.0;" x1="641" x2="641" y1="365.48" y2="522.96"/><text fill="#000000" font-family="sans-serif" font-size="20" font-weight="bold" lengthAdjust="spacing" textLength="99.625" x="465.1875" y="389.86">Server 1: ?</text></g><!--cluster S4--><g id="cluster_S4"><polygon fill="none" points="853,609.96,863,599.96,1082,599.96,1082,757.44,1072,767.44,853,767.44,853,609.96" style="stroke:#181818;stroke-width:1.0;"/><line style="stroke:#181818;stroke-width:1.0;" x1="1072" x2="1082" y1="609.96" y2="599.96"/><line style="stroke:#181818;stroke-width:1.0;" x1="853" x2="1072" y1="609.96" y2="609.96"/><line style="stroke:#181818;stroke-width:1.0;" x1="1072" x2="1072" y1="609.96" y2="767.44"/><text fill="#000000" font-family="sans-serif" font-size="20" font-weight="bold" lengthAdjust="spacing" textLength="99.625" x="913.6875" y="634.34">Server 4: ?</text></g><!--cluster S6--><g id="cluster_S6"><polygon fill="none" points="761,97,771,87,990,87,990,244.48,980,254.48,761,254.48,761,97" style="stroke:#181818;stroke-width:1.0;"/><line style="stroke:#181818;stroke-width:1.0;" x1="980" x2="990" y1="97" y2="87"/><line style="stroke:#181818;stroke-width:1.0;" x1="761" x2="980" y1="97" y2="97"/><line style="stroke:#181818;stroke-width:1.0;" x1="980" x2="980" y1="97" y2="254.48"/><text fill="#000000" font-family="sans-serif" font-size="20" font-weight="bold" lengthAdjust="spacing" textLength="99.625" x="821.6875" y="121.38">Server 6: ?</text></g><!--cluster S3--><g id="cluster_S3"><polygon fill="none" points="458,618.46,468,608.46,633,608.46,633,748.94,623,758.94,458,758.94,458,618.46" style="stroke:#181818;stroke-width:1.0;"/><line style="stroke:#181818;stroke-width:1.0;" x1="623" x2="633" y1="618.46" y2="608.46"/><line style="stroke:#181818;stroke-width:1.0;" x1="458" x2="623" y1="618.46" y2="618.46"/><line style="stroke:#181818;stroke-width:1.0;" x1="623" x2="623" y1="618.46" y2="758.94"/><text fill="#000000" font-family="sans-serif" font-size="20" font-weight="bold" lengthAdjust="spacing" textLength="99.625" x="491.6875" y="642.84">Server 3: ?</text></g><!--cluster S5--><g id="cluster_S5"><polygon fill="none" points="683,373.98,693,363.98,858,363.98,858,504.46,848,514.46,683,514.46,683,373.98" style="stroke:#181818;stroke-width:1.0;"/><line style="stroke:#181818;stroke-width:1.0;" x1="848" x2="858" y1="373.98" y2="363.98"/><line style="stroke:#181818;stroke-width:1.0;" x1="683" x2="848" y1="373.98" y2="373.98"/><line style="stroke:#181818;stroke-width:1.0;" x1="848" x2="848" y1="373.98" y2="514.46"/><text fill="#000000" font-family="sans-serif" font-size="20" font-weight="bold" lengthAdjust="spacing" textLength="99.625" x="716.6875" y="398.36">Server 5: ?</text></g><!--cluster S2--><g id="cluster_S2"><polygon fill="none" points="16,609.96,26,599.96,426,599.96,426,757.44,416,767.44,16,767.44,16,609.96" style="stroke:#181818;stroke-width:1.0;"/><line style="stroke:#181818;stroke-width:1.0;" x1="416" x2="426" y1="609.96" y2="599.96"/><line style="stroke:#181818;stroke-width:1.0;" x1="16" x2="416" y1="609.96" y2="609.96"/><line style="stroke:#181818;stroke-width:1.0;" x1="416" x2="416" y1="609.96" y2="767.44"/><text fill="#000000" font-family="sans-serif" font-size="20" font-weight="bold" lengthAdjust="spacing" textLength="99.625" x="167.1875" y="634.34">Server 2: ?</text></g><!--entity UI--><g id="elem_UI"><rect fill="#F1F1F1" height="84.4799" rx="2.5" ry="2.5" style="stroke:#181818;stroke-width:0.5;" width="162" x="233" y="146"/><rect fill="#F1F1F1" height="10" style="stroke:#181818;stroke-width:0.5;" width="15" x="375" y="151"/><rect fill="#F1F1F1" height="2" style="stroke:#181818;stroke-width:0.5;" width="4" x="373" y="153"/><rect fill="#F1F1F1" height="2" style="stroke:#181818;stroke-width:0.5;" width="4" x="373" y="157"/><text fill="#000000" font-family="sans-serif" font-size="20" font-style="italic" lengthAdjust="spacing" textLength="122" x="248" y="187.38">«component»</text><text fill="#000000" font-family="sans-serif" font-size="20" lengthAdjust="spacing" textLength="22" x="298" y="214.62">UI</text></g><!--entity MDM--><g id="elem_MDM"><rect fill="#F1F1F1" height="84.4799" rx="2.5" ry="2.5" style="stroke:#181818;stroke-width:0.5;" width="197" x="430.5" y="414.48"/><rect fill="#F1F1F1" height="10" style="stroke:#181818;stroke-width:0.5;" width="15" x="607.5" y="419.48"/><rect fill="#F1F1F1" height="2" style="stroke:#181818;stroke-width:0.5;" width="4" x="605.5" y="421.48"/><rect fill="#F1F1F1" height="2" style="stroke:#181818;stroke-width:0.5;" width="4" x="605.5" y="425.48"/><text fill="#000000" font-family="sans-serif" font-size="20" font-style="italic" lengthAdjust="spacing" textLength="122" x="463" y="455.86">«component»</text><text fill="#000000" font-family="sans-serif" font-size="20" lengthAdjust="spacing" textLength="157" x="445.5" y="483.1">MDManagement</text></g><!--entity P--><g id="elem_P"><rect fill="#F1F1F1" height="84.4799" rx="2.5" ry="2.5" style="stroke:#181818;stroke-width:0.5;" width="162" x="896" y="658.96"/><rect fill="#F1F1F1" height="10" style="stroke:#181818;stroke-width:0.5;" width="15" x="1038" y="663.96"/><rect fill="#F1F1F1" height="2" style="stroke:#181818;stroke-width:0.5;" width="4" x="1036" y="665.96"/><rect fill="#F1F1F1" height="2" style="stroke:#181818;stroke-width:0.5;" width="4" x="1036" y="669.96"/><text fill="#000000" font-family="sans-serif" font-size="20" font-style="italic" lengthAdjust="spacing" textLength="122" x="911" y="700.34">«component»</text><text fill="#000000" font-family="sans-serif" font-size="20" lengthAdjust="spacing" textLength="81" x="931.5" y="727.58">Planning</text></g><!--entity MDT--><g id="elem_MDT"><rect fill="#F1F1F1" height="84.4799" rx="2.5" ry="2.5" style="stroke:#181818;stroke-width:0.5;" width="162" x="804" y="146"/><rect fill="#F1F1F1" height="10" style="stroke:#181818;stroke-width:0.5;" width="15" x="946" y="151"/><rect fill="#F1F1F1" height="2" style="stroke:#181818;stroke-width:0.5;" width="4" x="944" y="153"/><rect fill="#F1F1F1" height="2" style="stroke:#181818;stroke-width:0.5;" width="4" x="944" y="157"/><text fill="#000000" font-family="sans-serif" font-size="20" font-style="italic" lengthAdjust="spacing" textLength="122" x="819" y="187.38">«component»</text><text fill="#000000" font-family="sans-serif" font-size="20" lengthAdjust="spacing" textLength="86" x="837" y="214.62">MDTasks</text></g><!--entity DB--><g id="elem_DB"><path d="M473.5,669.46 C473.5,659.46 535,659.46 535,659.46 C535,659.46 596.5,659.46 596.5,669.46 L596.5,732.9399 C596.5,742.9399 535,742.9399 535,742.9399 C535,742.9399 473.5,742.9399 473.5,732.9399 L473.5,669.46 " fill="#F1F1F1" style="stroke:#181818;stroke-width:0.5;"/><path d="M473.5,669.46 C473.5,679.46 535,679.46 535,679.46 C535,679.46 596.5,679.46 596.5,669.46 " fill="none" style="stroke:#181818;stroke-width:0.5;"/><text fill="#000000" font-family="sans-serif" font-size="20" font-style="italic" lengthAdjust="spacing" textLength="103" x="483.5" y="704.84">«database»</text><text fill="#000000" font-family="sans-serif" font-size="20" lengthAdjust="spacing" textLength="94" x="488" y="732.08">MongoDB</text></g><!--entity MYSQLDB--><g id="elem_MYSQLDB"><path d="M707.5,424.98 C707.5,414.98 769,414.98 769,414.98 C769,414.98 830.5,414.98 830.5,424.98 L830.5,488.4599 C830.5,498.4599 769,498.4599 769,498.4599 C769,498.4599 707.5,498.4599 707.5,488.4599 L707.5,424.98 " fill="#F1F1F1" style="stroke:#181818;stroke-width:0.5;"/><path d="M707.5,424.98 C707.5,434.98 769,434.98 769,434.98 C769,434.98 830.5,434.98 830.5,424.98 " fill="none" style="stroke:#181818;stroke-width:0.5;"/><text fill="#000000" font-family="sans-serif" font-size="20" font-style="italic" lengthAdjust="spacing" textLength="103" x="717.5" y="460.36">«database»</text><text fill="#000000" font-family="sans-serif" font-size="20" lengthAdjust="spacing" textLength="65" x="736.5" y="487.6">MySQL</text></g><!--entity SERV--><g id="elem_SERV"><rect fill="#F1F1F1" height="84.4799" rx="2.5" ry="2.5" style="stroke:#181818;stroke-width:0.5;" width="162" x="240" y="658.96"/><rect fill="#F1F1F1" height="10" style="stroke:#181818;stroke-width:0.5;" width="15" x="382" y="663.96"/><rect fill="#F1F1F1" height="2" style="stroke:#181818;stroke-width:0.5;" width="4" x="380" y="665.96"/><rect fill="#F1F1F1" height="2" style="stroke:#181818;stroke-width:0.5;" width="4" x="380" y="669.96"/><text fill="#000000" font-family="sans-serif" font-size="20" font-style="italic" lengthAdjust="spacing" textLength="122" x="255" y="700.34">«component»</text><text fill="#000000" font-family="sans-serif" font-size="20" lengthAdjust="spacing" textLength="113" x="259.5" y="727.58">HTTP Server</text></g><!--entity V--><g id="elem_V"><path d="M61.5,668.58 L102.5,668.58 A3.75,3.75 0 0 1 105,671.08 L112,689.58 L202.5,689.58 A2.5,2.5 0 0 1 205,692.08 L205,731.32 A2.5,2.5 0 0 1 202.5,733.82 L61.5,733.82 A2.5,2.5 0 0 1 59,731.32 L59,671.08 A2.5,2.5 0 0 1 61.5,668.58 " fill="#F1F1F1" style="stroke:#181818;stroke-width:0.5;"/><line style="stroke:#181818;stroke-width:0.5;" x1="59" x2="112" y1="689.58" y2="689.58"/><text fill="#000000" font-family="sans-serif" font-size="20" lengthAdjust="spacing" textLength="116" x="69" y="717.96">Visualization</text></g><!--link LOCAL to S1--><g id="link_LOCAL_S1"><path d="M208.4815,278.8937 C208.5643,279.0685 208.6474,279.2432 208.7307,279.4176 C208.8974,279.7665 209.0652,280.1147 209.2341,280.4621 C209.572,281.1568 209.9142,281.8484 210.261,282.5365 C210.9545,283.9127 211.666,285.2751 212.3959,286.6211 C213.8558,289.313 215.3894,291.9394 217,294.48 C245.13,338.855 288.69,378.6075 325.6763,407.5388 C344.1694,422.0044 361.0191,433.7647 373.4748,442.0448 C376.5888,444.1149 379.4281,445.9674 381.9498,447.5903 C383.2107,448.4018 384.3922,449.1558 385.4889,449.851 C385.763,450.0248 386.0319,450.1949 386.2954,450.3612 C386.4272,450.4444 386.5576,450.5267 386.6866,450.6081 " fill="none" id="LOCAL-S1" style="stroke:#181818;stroke-width:1.0;"/><text fill="#000000" font-family="sans-serif" font-size="20" lengthAdjust="spacing" textLength="55" x="245" y="324.86">http/s</text></g><!--link LOCAL to S2--><g id="link_LOCAL_S2"><path d="M176.8379,208.03 C176.6132,208.5539 176.3843,209.0878 176.1514,209.6316 C175.6856,210.7194 175.2036,211.8469 174.7058,213.0134 C172.7148,217.6795 170.4721,222.9685 168.0114,228.8228 C158.1684,252.24 144.8356,284.7013 130.1538,322.51 C100.79,398.1275 66.03,495.135 43,583.96 C42.1919,587.0775 41.4112,590.2514 40.6578,593.4629 C40.2811,595.0686 39.9111,596.6838 39.548,598.306 C39.4572,598.7116 39.3668,599.1176 39.2768,599.524 " fill="none" id="LOCAL-S2" style="stroke:#181818;stroke-width:1.0;"/><text fill="#000000" font-family="sans-serif" font-size="20" lengthAdjust="spacing" textLength="55" x="125" y="464.6">http/s</text></g><!--link S1 to DB--><g id="link_S1_DB"><path d="M408.7209,523.3544 C408.7684,523.4922 408.8161,523.63 408.8639,523.7676 C408.9596,524.0429 409.0559,524.318 409.1529,524.5927 C409.3467,525.1421 409.543,525.6902 409.7417,526.2369 C411.3317,530.61 413.08,534.8875 415,538.96 C436.06,583.62 470.5,628.17 497.09,659.09 " fill="none" id="S1-DB" style="stroke:#181818;stroke-width:1.0;"/><text fill="#000000" font-family="sans-serif" font-size="20" lengthAdjust="spacing" textLength="29" x="434" y="569.34">tcp</text></g><!--link S1 to S4--><g id="link_S1_S4"><path d="M403.3723,523.1777 C403.4345,523.3037 403.497,523.4296 403.56,523.5552 C403.686,523.8064 403.8135,524.0567 403.9427,524.306 C404.201,524.8047 404.4657,525.2995 404.7371,525.7901 C405.2797,526.7715 405.8487,527.7362 406.4452,528.6819 C408.8313,532.4645 411.6575,535.9425 415,538.96 C424.49,547.53 459.46,544.43 472,546.96 C535.09,559.68 551.49,562.04 612,583.96 C668.515,604.435 729.7175,632.915 777.3025,656.56 C801.095,668.3825 821.4831,678.9963 836.1788,686.7963 C839.8527,688.7463 843.1708,690.5204 846.0974,692.0936 C847.5607,692.8802 848.9261,693.6166 850.1891,694.2996 C850.8207,694.6411 851.4266,694.9692 852.0064,695.2836 C852.2963,695.4409 852.5797,695.5946 852.8564,695.7449 " fill="none" id="S1-S4" style="stroke:#181818;stroke-width:1.0;"/><text fill="#000000" font-family="sans-serif" font-size="20" lengthAdjust="spacing" textLength="55" x="589" y="569.34">http/s</text></g><!--link S6 to MYSQLDB--><g id="link_S6_MYSQLDB"><path d="M769,255.2622 C769,255.6019 769,255.9423 769,256.2836 C769,256.966 769,257.6516 769,258.3402 C769,263.8488 769,269.5495 769,275.3888 C769,322.1025 769,377.68 769,414.67 " fill="none" id="S6-MYSQLDB" style="stroke:#181818;stroke-width:1.0;"/><text fill="#000000" font-family="sans-serif" font-size="20" lengthAdjust="spacing" textLength="29" x="770" y="324.86">tcp</text></g><!--link S6 to S4--><g id="link_S6_S4"><path d="M770.5301,254.9787 C770.5682,255.1586 770.6066,255.3385 770.6454,255.5184 C770.723,255.8781 770.8021,256.2378 770.8827,256.5973 C771.044,257.3163 771.2113,258.0348 771.385,258.7523 C771.7323,260.1874 772.1049,261.6188 772.5042,263.0436 C775.6988,274.4419 780.605,285.4175 788,294.48 C794.05,301.9 799.97,297.26 808,302.48 C827.77,315.32 836.39,317.96 846,339.48 C878.215,411.585 882.3525,500.095 878.2475,571.3938 C877.7344,580.3061 877.0925,588.9495 876.3605,597.2583 C876.3148,597.7776 876.2687,598.2956 876.2222,598.8123 " fill="none" id="S6-S4" style="stroke:#181818;stroke-width:1.0;"/><text fill="#000000" font-family="sans-serif" font-size="20" lengthAdjust="spacing" textLength="55" x="880" y="464.6">http/s</text></g><!--link S6 to S1--><g id="link_S6_S1"><path d="M760.7292,189.9426 C760.3476,189.9793 759.9537,190.0176 759.5476,190.0575 C758.7353,190.1375 757.8744,190.2242 756.9663,190.3181 C749.7011,191.0688 739.4132,192.2754 726.8458,194.1314 C701.7109,197.8434 667.4581,204.1531 630.0338,214.6088 C555.185,235.52 467.65,273.015 415,339.48 C412.9975,342.0081 411.1657,344.6652 409.4912,347.4257 C408.6539,348.8059 407.856,350.212 407.0957,351.6409 C406.7155,352.3553 406.3448,353.0753 405.9833,353.8007 C405.8025,354.1634 405.624,354.5274 405.4478,354.8926 C405.3597,355.0753 405.2722,355.2582 405.1852,355.4415 " fill="none" id="S6-S1" style="stroke:#181818;stroke-width:1.0;"/><text fill="#000000" font-family="sans-serif" font-size="20" lengthAdjust="spacing" textLength="55" x="451" y="324.86">http/s</text></g><!--SRC=[ZPBVJuCm483V-rTSU5zqltXObXddD2w1E8MH-7YEZZMmbj1Euyp-Tqk1gWoJFP3Gku_lxdh8bF4S2zndOfFI66AwnKEc7WHN0JjI65mJmaLCmT40PZiXrGHk7409tjFThGTV160ZzhdWb2jmveNuaBGmm1ocKvkQpGpw1rul3RTUTe8dKZwdfdv0YtTQGByf7_JRjVs5ZnmJkjSdW-X0smoTqf6LZjhILOQSCvwOzAgb-y_dMfzxtcI8CfLrV-65mg4L3eqmHeLlA3NW2vw8nTma5-MDDwdw7izTO-iQjrsVmRDNTVQgtoxJ3Qnkq9xrCGnNK64LSVyITIy4O2koMDkSYCa3Pko8YWbklegQma18zS_rUkNs9x1JAh-IDjWhMx1HJUY8dc42QfFNHxtV7y0j8ysaDULsKx_BVGC0]--></g></svg>