<?xml version="1.0" encoding="UTF-8" standalone="no"?><svg xmlns="http://www.w3.org/2000/svg" xmlns:xlink="http://www.w3.org/1999/xlink" contentStyleType="text/css" height="734px" preserveAspectRatio="none" style="width:1175px;height:734px;background:#FFFFFF;" version="1.1" viewBox="0 0 1175 734" width="1175px" zoomAndPan="magnify"><defs/><g><!--cluster LOCAL--><g id="cluster_LOCAL"><polygon fill="none" points="192,16,202,6,474,6,474,249,464,259,192,259,192,16" style="stroke:#181818;stroke-width:1.0;"/><line style="stroke:#181818;stroke-width:1.0;" x1="464" x2="474" y1="16" y2="6"/><line style="stroke:#181818;stroke-width:1.0;" x1="192" x2="464" y1="16" y2="16"/><line style="stroke:#181818;stroke-width:1.0;" x1="464" x2="464" y1="16" y2="259"/><text fill="#000000" font-family="sans-serif" font-size="20" font-weight="bold" lengthAdjust="spacing" textLength="131" x="263.5" y="37.5645">localhost: ?</text></g><!--cluster B--><g id="cluster_B"><rect fill="none" height="158" rx="2.5" ry="2.5" style="stroke:#181818;stroke-width:1.0;" width="210" x="232" y="69"/><rect fill="none" height="10" style="stroke:#181818;stroke-width:1.0;" width="15" x="422" y="74"/><rect fill="none" height="2" style="stroke:#181818;stroke-width:1.0;" width="4" x="420" y="76"/><rect fill="none" height="2" style="stroke:#181818;stroke-width:1.0;" width="4" x="420" y="80"/><text fill="#000000" font-family="sans-serif" font-size="20" font-style="italic" lengthAdjust="spacing" textLength="138" x="268" y="100.5645">«component»</text><text fill="#000000" font-family="sans-serif" font-size="20" font-weight="bold" lengthAdjust="spacing" textLength="93" x="290.5" y="123.8457">Browser</text></g><!--cluster S1--><g id="cluster_S1"><polygon fill="none" points="417,342,427,332,688,332,688,478,678,488,417,488,417,342" style="stroke:#181818;stroke-width:1.0;"/><line style="stroke:#181818;stroke-width:1.0;" x1="678" x2="688" y1="342" y2="332"/><line style="stroke:#181818;stroke-width:1.0;" x1="417" x2="678" y1="342" y2="342"/><line style="stroke:#181818;stroke-width:1.0;" x1="678" x2="678" y1="342" y2="488"/><text fill="#000000" font-family="sans-serif" font-size="20" font-weight="bold" lengthAdjust="spacing" textLength="123" x="487" y="363.5645">Server 1: ?</text></g><!--cluster S4--><g id="cluster_S4"><polygon fill="none" points="913,571,923,561,1158,561,1158,707,1148,717,913,717,913,571" style="stroke:#181818;stroke-width:1.0;"/><line style="stroke:#181818;stroke-width:1.0;" x1="1148" x2="1158" y1="571" y2="561"/><line style="stroke:#181818;stroke-width:1.0;" x1="913" x2="1148" y1="571" y2="571"/><line style="stroke:#181818;stroke-width:1.0;" x1="1148" x2="1148" y1="571" y2="717"/><text fill="#000000" font-family="sans-serif" font-size="20" font-weight="bold" lengthAdjust="spacing" textLength="123" x="970" y="592.5645">Server 4: ?</text></g><!--cluster S6--><g id="cluster_S6"><polygon fill="none" points="810,89,820,79,1055,79,1055,225,1045,235,810,235,810,89" style="stroke:#181818;stroke-width:1.0;"/><line style="stroke:#181818;stroke-width:1.0;" x1="1045" x2="1055" y1="89" y2="79"/><line style="stroke:#181818;stroke-width:1.0;" x1="810" x2="1045" y1="89" y2="89"/><line style="stroke:#181818;stroke-width:1.0;" x1="1045" x2="1045" y1="89" y2="235"/><text fill="#000000" font-family="sans-serif" font-size="20" font-weight="bold" lengthAdjust="spacing" textLength="123" x="867" y="110.5645">Server 6: ?</text></g><!--cluster S3--><g id="cluster_S3"><polygon fill="none" points="487,579.5,497,569.5,686,569.5,686,698.5,676,708.5,487,708.5,487,579.5" style="stroke:#181818;stroke-width:1.0;"/><line style="stroke:#181818;stroke-width:1.0;" x1="676" x2="686" y1="579.5" y2="569.5"/><line style="stroke:#181818;stroke-width:1.0;" x1="487" x2="676" y1="579.5" y2="579.5"/><line style="stroke:#181818;stroke-width:1.0;" x1="676" x2="676" y1="579.5" y2="708.5"/><text fill="#000000" font-family="sans-serif" font-size="20" font-weight="bold" lengthAdjust="spacing" textLength="123" x="521" y="601.0645">Server 3: ?</text></g><!--cluster S5--><g id="cluster_S5"><polygon fill="none" points="720,350.5,730,340.5,919,340.5,919,469.5,909,479.5,720,479.5,720,350.5" style="stroke:#181818;stroke-width:1.0;"/><line style="stroke:#181818;stroke-width:1.0;" x1="909" x2="919" y1="350.5" y2="340.5"/><line style="stroke:#181818;stroke-width:1.0;" x1="720" x2="909" y1="350.5" y2="350.5"/><line style="stroke:#181818;stroke-width:1.0;" x1="909" x2="909" y1="350.5" y2="479.5"/><text fill="#000000" font-family="sans-serif" font-size="20" font-weight="bold" lengthAdjust="spacing" textLength="123" x="754" y="372.0645">Server 5: ?</text></g><!--cluster S2--><g id="cluster_S2"><polygon fill="none" points="16,571,26,561,455,561,455,707,445,717,16,717,16,571" style="stroke:#181818;stroke-width:1.0;"/><line style="stroke:#181818;stroke-width:1.0;" x1="445" x2="455" y1="571" y2="561"/><line style="stroke:#181818;stroke-width:1.0;" x1="16" x2="445" y1="571" y2="571"/><line style="stroke:#181818;stroke-width:1.0;" x1="445" x2="445" y1="571" y2="717"/><text fill="#000000" font-family="sans-serif" font-size="20" font-weight="bold" lengthAdjust="spacing" textLength="123" x="170" y="592.5645">Server 2: ?</text></g><!--entity UI--><g id="elem_UI"><rect fill="#F1F1F1" height="76.5625" rx="2.5" ry="2.5" style="stroke:#181818;stroke-width:0.5;" width="178" x="248" y="134"/><rect fill="#F1F1F1" height="10" style="stroke:#181818;stroke-width:0.5;" width="15" x="406" y="139"/><rect fill="#F1F1F1" height="2" style="stroke:#181818;stroke-width:0.5;" width="4" x="404" y="141"/><rect fill="#F1F1F1" height="2" style="stroke:#181818;stroke-width:0.5;" width="4" x="404" y="145"/><text fill="#000000" font-family="sans-serif" font-size="20" font-style="italic" lengthAdjust="spacing" textLength="138" x="263" y="172.5645">«component»</text><text fill="#000000" font-family="sans-serif" font-size="20" lengthAdjust="spacing" textLength="21" x="321.5" y="195.8457">UI</text></g><!--entity MDM--><g id="elem_MDM"><rect fill="#F1F1F1" height="76.5625" rx="2.5" ry="2.5" style="stroke:#181818;stroke-width:0.5;" width="204" x="460" y="387"/><rect fill="#F1F1F1" height="10" style="stroke:#181818;stroke-width:0.5;" width="15" x="644" y="392"/><rect fill="#F1F1F1" height="2" style="stroke:#181818;stroke-width:0.5;" width="4" x="642" y="394"/><rect fill="#F1F1F1" height="2" style="stroke:#181818;stroke-width:0.5;" width="4" x="642" y="398"/><text fill="#000000" font-family="sans-serif" font-size="20" font-style="italic" lengthAdjust="spacing" textLength="138" x="488" y="425.5645">«component»</text><text fill="#000000" font-family="sans-serif" font-size="20" lengthAdjust="spacing" textLength="164" x="475" y="448.8457">MDManagement</text></g><!--entity P--><g id="elem_P"><rect fill="#F1F1F1" height="76.5625" rx="2.5" ry="2.5" style="stroke:#181818;stroke-width:0.5;" width="178" x="956" y="616"/><rect fill="#F1F1F1" height="10" style="stroke:#181818;stroke-width:0.5;" width="15" x="1114" y="621"/><rect fill="#F1F1F1" height="2" style="stroke:#181818;stroke-width:0.5;" width="4" x="1112" y="623"/><rect fill="#F1F1F1" height="2" style="stroke:#181818;stroke-width:0.5;" width="4" x="1112" y="627"/><text fill="#000000" font-family="sans-serif" font-size="20" font-style="italic" lengthAdjust="spacing" textLength="138" x="971" y="654.5645">«component»</text><text fill="#000000" font-family="sans-serif" font-size="20" lengthAdjust="spacing" textLength="88" x="996" y="677.8457">Planning</text></g><!--entity MDT--><g id="elem_MDT"><rect fill="#F1F1F1" height="76.5625" rx="2.5" ry="2.5" style="stroke:#181818;stroke-width:0.5;" width="178" x="853" y="134"/><rect fill="#F1F1F1" height="10" style="stroke:#181818;stroke-width:0.5;" width="15" x="1011" y="139"/><rect fill="#F1F1F1" height="2" style="stroke:#181818;stroke-width:0.5;" width="4" x="1009" y="141"/><rect fill="#F1F1F1" height="2" style="stroke:#181818;stroke-width:0.5;" width="4" x="1009" y="145"/><text fill="#000000" font-family="sans-serif" font-size="20" font-style="italic" lengthAdjust="spacing" textLength="138" x="868" y="172.5645">«component»</text><text fill="#000000" font-family="sans-serif" font-size="20" lengthAdjust="spacing" textLength="88" x="893" y="195.8457">MDTasks</text></g><!--entity DB--><g id="elem_DB"><path d="M503,626.5 C503,616.5 571,616.5 571,616.5 C571,616.5 639,616.5 639,626.5 L639,682.0625 C639,692.0625 571,692.0625 571,692.0625 C571,692.0625 503,692.0625 503,682.0625 L503,626.5 " fill="#F1F1F1" style="stroke:#181818;stroke-width:0.5;"/><path d="M503,626.5 C503,636.5 571,636.5 571,636.5 C571,636.5 639,636.5 639,626.5 " fill="none" style="stroke:#181818;stroke-width:0.5;"/><text fill="#000000" font-family="sans-serif" font-size="20" font-style="italic" lengthAdjust="spacing" textLength="116" x="513" y="659.0645">«database»</text><text fill="#000000" font-family="sans-serif" font-size="20" lengthAdjust="spacing" textLength="96" x="523" y="682.3457">MongoDB</text></g><!--entity MYSQLDB--><g id="elem_MYSQLDB"><path d="M750,397.5 C750,387.5 818,387.5 818,387.5 C818,387.5 886,387.5 886,397.5 L886,453.0625 C886,463.0625 818,463.0625 818,463.0625 C818,463.0625 750,463.0625 750,453.0625 L750,397.5 " fill="#F1F1F1" style="stroke:#181818;stroke-width:0.5;"/><path d="M750,397.5 C750,407.5 818,407.5 818,407.5 C818,407.5 886,407.5 886,397.5 " fill="none" style="stroke:#181818;stroke-width:0.5;"/><text fill="#000000" font-family="sans-serif" font-size="20" font-style="italic" lengthAdjust="spacing" textLength="116" x="760" y="430.0645">«database»</text><text fill="#000000" font-family="sans-serif" font-size="20" lengthAdjust="spacing" textLength="68" x="784" y="453.3457">MySQL</text></g><!--entity SERV--><g id="elem_SERV"><rect fill="#F1F1F1" height="76.5625" rx="2.5" ry="2.5" style="stroke:#181818;stroke-width:0.5;" width="178" x="253" y="616"/><rect fill="#F1F1F1" height="10" style="stroke:#181818;stroke-width:0.5;" width="15" x="411" y="621"/><rect fill="#F1F1F1" height="2" style="stroke:#181818;stroke-width:0.5;" width="4" x="409" y="623"/><rect fill="#F1F1F1" height="2" style="stroke:#181818;stroke-width:0.5;" width="4" x="409" y="627"/><text fill="#000000" font-family="sans-serif" font-size="20" font-style="italic" lengthAdjust="spacing" textLength="138" x="268" y="654.5645">«component»</text><text fill="#000000" font-family="sans-serif" font-size="20" lengthAdjust="spacing" textLength="121" x="276.5" y="677.8457">HTTP Server</text></g><!--entity V--><g id="elem_V"><path d="M62,624 L103,624 A3.75,3.75 0 0 1 105.5,626.5 L112.5,645 L216,645 A2.5,2.5 0 0 1 218.5,647.5 L218.5,682.7813 A2.5,2.5 0 0 1 216,685.2813 L62,685.2813 A2.5,2.5 0 0 1 59.5,682.7813 L59.5,626.5 A2.5,2.5 0 0 1 62,624 " fill="#F1F1F1" style="stroke:#181818;stroke-width:0.5;"/><line style="stroke:#181818;stroke-width:0.5;" x1="59.5" x2="112.5" y1="645" y2="645"/><text fill="#000000" font-family="sans-serif" font-size="20" lengthAdjust="spacing" textLength="129" x="69.5" y="670.5645">Visualization</text></g><!--link LOCAL to S1--><g id="link_LOCAL_S1"><path d="M222.7373,259.2502 C222.8208,259.4174 222.9046,259.5844 222.9887,259.7512 C225.6794,265.0883 228.6725,270.225 232,275 C262.53,318.815 309.76,355.715 349.855,381.8938 C369.9025,394.9831 388.1663,405.3922 401.6669,412.6452 C405.042,414.4584 408.1195,416.0744 410.8527,417.4857 C412.2193,418.1913 413.4999,418.8458 414.6885,419.4482 C415.2829,419.7494 415.8542,420.0375 416.4019,420.3125 C416.5388,420.3813 416.6742,420.4492 416.8082,420.5163 " fill="none" id="LOCAL-S1" style="stroke:#181818;stroke-width:1.0;"/><text fill="#000000" font-family="sans-serif" font-size="20" lengthAdjust="spacing" textLength="59" x="257" y="302.5645">http/s</text></g><!--link LOCAL to S2--><g id="link_LOCAL_S2"><path d="M191.7425,189.6087 C190.7899,191.4908 189.7636,193.5256 188.6681,195.7062 C186.4772,200.0675 184.0095,205.0126 181.302,210.4883 C170.4722,232.3909 155.8056,262.7831 139.6638,298.2637 C107.38,369.225 69.195,460.54 44,545 C43.1375,547.8906 42.3054,550.8363 41.5033,553.8192 C41.1022,555.3106 40.7087,556.8114 40.3225,558.3193 C40.1295,559.0732 39.9382,559.829 39.7489,560.5862 " fill="none" id="LOCAL-S2" style="stroke:#181818;stroke-width:1.0;"/><text fill="#000000" font-family="sans-serif" font-size="20" lengthAdjust="spacing" textLength="59" x="132" y="432.5645">http/s</text></g><!--link S1 to DB--><g id="link_S1_DB"><path d="M437.2707,488.099 C437.3629,488.361 437.4557,488.6227 437.5493,488.8841 C437.9233,489.9297 438.3081,490.9705 438.7039,492.0048 C440.287,496.1422 442.0463,500.1763 444,504 C465.92,546.91 502.41,588.06 530.67,616.29 " fill="none" id="S1-DB" style="stroke:#181818;stroke-width:1.0;"/><text fill="#000000" font-family="sans-serif" font-size="20" lengthAdjust="spacing" textLength="32" x="464" y="531.5645">tcp</text></g><!--link S1 to S4--><g id="link_S1_S4"><path d="M432.5324,488.2619 C432.5902,488.3828 432.6485,488.5036 432.7071,488.6241 C433.6447,490.5525 434.6789,492.4263 435.8188,494.2267 C438.0986,497.8275 440.8013,501.135 444,504 C454.18,513.12 491.53,509.64 505,512 C572.24,523.78 589.83,524.7 655,545 C715,563.685 780.375,590.26 831.3,612.4325 C856.7625,623.5188 878.6125,633.5044 894.3719,640.8528 C898.3117,642.6899 901.8709,644.3622 905.0107,645.8457 C906.5806,646.5874 908.0456,647.2819 909.401,647.9262 C910.0787,648.2484 910.729,648.558 911.3512,648.8546 C911.6623,649.003 911.9664,649.1481 912.2634,649.2899 C912.412,649.3608 912.5587,649.4309 912.7037,649.5002 " fill="none" id="S1-S4" style="stroke:#181818;stroke-width:1.0;"/><text fill="#000000" font-family="sans-serif" font-size="20" lengthAdjust="spacing" textLength="59" x="627" y="531.5645">http/s</text></g><!--link S6 to MYSQLDB--><g id="link_S6_MYSQLDB"><path d="M818,235.5386 C818,236.8275 818,238.1284 818,239.4406 C818,244.6896 818,250.1195 818,255.6788 C818,300.1525 818,352.9 818,387.45 " fill="none" id="S6-MYSQLDB" style="stroke:#181818;stroke-width:1.0;"/><text fill="#000000" font-family="sans-serif" font-size="20" lengthAdjust="spacing" textLength="32" x="819" y="302.5645">tcp</text></g><!--link S6 to S4--><g id="link_S6_S4"><path d="M819.1423,235.1459 C819.1774,235.3194 819.2129,235.4929 819.2487,235.6663 C819.3203,236.0133 819.3933,236.3602 819.4679,236.7069 C820.0642,239.4813 820.7549,242.2496 821.552,244.9889 C824.7406,255.9462 829.6325,266.44 837,275 C844.06,283.2 850.5,277.81 860,283 C880.83,294.39 891.03,294.95 902,316 C936.18,381.57 941.3175,464.3525 937.7213,531.52 C937.2717,539.9159 936.6857,548.0679 936.0029,555.9117 C935.9176,556.8922 935.8307,557.8679 935.7424,558.8386 C935.6983,559.324 935.6538,559.8081 935.6089,560.291 " fill="none" id="S6-S4" style="stroke:#181818;stroke-width:1.0;"/><text fill="#000000" font-family="sans-serif" font-size="20" lengthAdjust="spacing" textLength="59" x="939" y="432.5645">http/s</text></g><!--link S6 to S1--><g id="link_S6_S1"><path d="M809.8893,173.8191 C809.695,173.8288 809.4974,173.8388 809.2966,173.8491 C808.8949,173.8696 808.4803,173.8913 808.0528,173.9141 C807.1979,173.9599 806.2917,174.0104 805.3358,174.0663 C797.6884,174.513 786.858,175.2981 773.6236,176.6631 C747.1547,179.3931 711.0694,184.4425 671.5988,193.7425 C592.6575,212.3425 500.175,247.945 444,316 C440.165,320.6463 436.9861,325.7919 434.3599,331.2436 C434.2778,331.414 434.1963,331.5847 434.1153,331.7556 " fill="none" id="S6-S1" style="stroke:#181818;stroke-width:1.0;"/><text fill="#000000" font-family="sans-serif" font-size="20" lengthAdjust="spacing" textLength="59" x="474" y="302.5645">http/s</text></g><!--SRC=[ZPBVJuCm483V-rTSU5zqltXObXddD2w1E8MH-7YEZZMmbj1Euyp-Tqk1gWoJFP3Gku_lxdh8bF4S2zndOfFI66AwnKEc7WHN0JjI65mJmaLCmT40PZiXrGHk7409tjFThGTV160ZzhdWb2jmveNuaBGmm1ocKvkQpGpw1rul3RTUTe8dKZwdfdv0YtTQGByf7_JRjVs5ZnmJkjSdW-X0smoTqf6LZjhILOQSCvwOzAgb-y_dMfzxtcI8CfLrV-65mg4L3eqmHeLlA3NW2vw8nTma5-MDDwdw7izTO-iQjrsVmRDNTVQgtoxJ3Qnkq9xrCGnNK64LSVyITIy4O2koMDkSYCa3Pko8YWbklegQma18zS_rUkNs9x1JAh-IDjWhMx1HJUY8dc42QfFNHxtV7y0j8ysaDULsKx_BVGC0]--></g></svg>