<?xml version="1.0" encoding="UTF-8" standalone="no"?><svg xmlns="http://www.w3.org/2000/svg" xmlns:xlink="http://www.w3.org/1999/xlink" contentStyleType="text/css" height="784px" preserveAspectRatio="none" style="width:940px;height:784px;background:#FFFFFF;" version="1.1" viewBox="0 0 940 784" width="940px" zoomAndPan="magnify"><defs/><g><!--cluster LOCAL--><g id="cluster_LOCAL"><polygon fill="none" points="386,16,396,6,652,6,652,268.48,642,278.48,386,278.48,386,16" style="stroke:#181818;stroke-width:1.0;"/><line style="stroke:#181818;stroke-width:1.0;" x1="642" x2="652" y1="16" y2="6"/><line style="stroke:#181818;stroke-width:1.0;" x1="386" x2="642" y1="16" y2="16"/><line style="stroke:#181818;stroke-width:1.0;" x1="642" x2="642" y1="16" y2="278.48"/><text fill="#000000" font-family="sans-serif" font-size="20" font-weight="bold" lengthAdjust="spacing" textLength="109.875" x="460.0625" y="40.38">localhost: ?</text></g><!--cluster B--><g id="cluster_B"><rect fill="none" height="173.48" rx="2.5" ry="2.5" style="stroke:#181818;stroke-width:1.0;" width="194" x="426" y="73"/><rect fill="none" height="10" style="stroke:#181818;stroke-width:1.0;" width="15" x="600" y="78"/><rect fill="none" height="2" style="stroke:#181818;stroke-width:1.0;" width="4" x="598" y="80"/><rect fill="none" height="2" style="stroke:#181818;stroke-width:1.0;" width="4" x="598" y="84"/><text fill="#000000" font-family="sans-serif" font-size="20" font-style="italic" lengthAdjust="spacing" textLength="122" x="462" y="107.38">«component»</text><text fill="#000000" font-family="sans-serif" font-size="20" font-weight="bold" lengthAdjust="spacing" textLength="82.375" x="481.8125" y="134.62">Browser</text></g><!--cluster S1--><g id="cluster_S1"><polygon fill="none" points="209,365.48,219,355.48,473,355.48,473,512.96,463,522.96,209,522.96,209,365.48" style="stroke:#181818;stroke-width:1.0;"/><line style="stroke:#181818;stroke-width:1.0;" x1="463" x2="473" y1="365.48" y2="355.48"/><line style="stroke:#181818;stroke-width:1.0;" x1="209" x2="463" y1="365.48" y2="365.48"/><line style="stroke:#181818;stroke-width:1.0;" x1="463" x2="463" y1="365.48" y2="522.96"/><text fill="#000000" font-family="sans-serif" font-size="20" font-weight="bold" lengthAdjust="spacing" textLength="99.625" x="287.1875" y="389.86">Server 1: ?</text></g><!--cluster S4--><g id="cluster_S4"><polygon fill="none" points="16,609.96,26,599.96,245,599.96,245,757.44,235,767.44,16,767.44,16,609.96" style="stroke:#181818;stroke-width:1.0;"/><line style="stroke:#181818;stroke-width:1.0;" x1="235" x2="245" y1="609.96" y2="599.96"/><line style="stroke:#181818;stroke-width:1.0;" x1="16" x2="235" y1="609.96" y2="609.96"/><line style="stroke:#181818;stroke-width:1.0;" x1="235" x2="235" y1="609.96" y2="767.44"/><text fill="#000000" font-family="sans-serif" font-size="20" font-weight="bold" lengthAdjust="spacing" textLength="99.625" x="76.6875" y="634.34">Server 4: ?</text></g><!--cluster S3--><g id="cluster_S3"><polygon fill="none" points="277,618.46,287,608.46,452,608.46,452,748.94,442,758.94,277,758.94,277,618.46" style="stroke:#181818;stroke-width:1.0;"/><line style="stroke:#181818;stroke-width:1.0;" x1="442" x2="452" y1="618.46" y2="608.46"/><line style="stroke:#181818;stroke-width:1.0;" x1="277" x2="442" y1="618.46" y2="618.46"/><line style="stroke:#181818;stroke-width:1.0;" x1="442" x2="442" y1="618.46" y2="758.94"/><text fill="#000000" font-family="sans-serif" font-size="20" font-weight="bold" lengthAdjust="spacing" textLength="99.625" x="310.6875" y="642.84">Server 3: ?</text></g><!--cluster S2--><g id="cluster_S2"><polygon fill="none" points="513,365.48,523,355.48,923,355.48,923,512.96,913,522.96,513,522.96,513,365.48" style="stroke:#181818;stroke-width:1.0;"/><line style="stroke:#181818;stroke-width:1.0;" x1="913" x2="923" y1="365.48" y2="355.48"/><line style="stroke:#181818;stroke-width:1.0;" x1="513" x2="913" y1="365.48" y2="365.48"/><line style="stroke:#181818;stroke-width:1.0;" x1="913" x2="913" y1="365.48" y2="522.96"/><text fill="#000000" font-family="sans-serif" font-size="20" font-weight="bold" lengthAdjust="spacing" textLength="99.625" x="664.1875" y="389.86">Server 2: ?</text></g><!--entity UI--><g id="elem_UI"><rect fill="#F1F1F1" height="84.4799" rx="2.5" ry="2.5" style="stroke:#181818;stroke-width:0.5;" width="162" x="442" y="146"/><rect fill="#F1F1F1" height="10" style="stroke:#181818;stroke-width:0.5;" width="15" x="584" y="151"/><rect fill="#F1F1F1" height="2" style="stroke:#181818;stroke-width:0.5;" width="4" x="582" y="153"/><rect fill="#F1F1F1" height="2" style="stroke:#181818;stroke-width:0.5;" width="4" x="582" y="157"/><text fill="#000000" font-family="sans-serif" font-size="20" font-style="italic" lengthAdjust="spacing" textLength="122" x="457" y="187.38">«component»</text><text fill="#000000" font-family="sans-serif" font-size="20" lengthAdjust="spacing" textLength="22" x="507" y="214.62">UI</text></g><!--entity MDM--><g id="elem_MDM"><rect fill="#F1F1F1" height="84.4799" rx="2.5" ry="2.5" style="stroke:#181818;stroke-width:0.5;" width="197" x="252.5" y="414.48"/><rect fill="#F1F1F1" height="10" style="stroke:#181818;stroke-width:0.5;" width="15" x="429.5" y="419.48"/><rect fill="#F1F1F1" height="2" style="stroke:#181818;stroke-width:0.5;" width="4" x="427.5" y="421.48"/><rect fill="#F1F1F1" height="2" style="stroke:#181818;stroke-width:0.5;" width="4" x="427.5" y="425.48"/><text fill="#000000" font-family="sans-serif" font-size="20" font-style="italic" lengthAdjust="spacing" textLength="122" x="285" y="455.86">«component»</text><text fill="#000000" font-family="sans-serif" font-size="20" lengthAdjust="spacing" textLength="157" x="267.5" y="483.1">MDManagement</text></g><!--entity P--><g id="elem_P"><rect fill="#F1F1F1" height="84.4799" rx="2.5" ry="2.5" style="stroke:#181818;stroke-width:0.5;" width="162" x="59" y="658.96"/><rect fill="#F1F1F1" height="10" style="stroke:#181818;stroke-width:0.5;" width="15" x="201" y="663.96"/><rect fill="#F1F1F1" height="2" style="stroke:#181818;stroke-width:0.5;" width="4" x="199" y="665.96"/><rect fill="#F1F1F1" height="2" style="stroke:#181818;stroke-width:0.5;" width="4" x="199" y="669.96"/><text fill="#000000" font-family="sans-serif" font-size="20" font-style="italic" lengthAdjust="spacing" textLength="122" x="74" y="700.34">«component»</text><text fill="#000000" font-family="sans-serif" font-size="20" lengthAdjust="spacing" textLength="81" x="94.5" y="727.58">Planning</text></g><!--entity DB--><g id="elem_DB"><path d="M292.5,669.46 C292.5,659.46 354,659.46 354,659.46 C354,659.46 415.5,659.46 415.5,669.46 L415.5,732.9399 C415.5,742.9399 354,742.9399 354,742.9399 C354,742.9399 292.5,742.9399 292.5,732.9399 L292.5,669.46 " fill="#F1F1F1" style="stroke:#181818;stroke-width:0.5;"/><path d="M292.5,669.46 C292.5,679.46 354,679.46 354,679.46 C354,679.46 415.5,679.46 415.5,669.46 " fill="none" style="stroke:#181818;stroke-width:0.5;"/><text fill="#000000" font-family="sans-serif" font-size="20" font-style="italic" lengthAdjust="spacing" textLength="103" x="302.5" y="704.84">«database»</text><text fill="#000000" font-family="sans-serif" font-size="20" lengthAdjust="spacing" textLength="94" x="307" y="732.08">MongoDB</text></g><!--entity SERV--><g id="elem_SERV"><rect fill="#F1F1F1" height="84.4799" rx="2.5" ry="2.5" style="stroke:#181818;stroke-width:0.5;" width="162" x="737" y="414.48"/><rect fill="#F1F1F1" height="10" style="stroke:#181818;stroke-width:0.5;" width="15" x="879" y="419.48"/><rect fill="#F1F1F1" height="2" style="stroke:#181818;stroke-width:0.5;" width="4" x="877" y="421.48"/><rect fill="#F1F1F1" height="2" style="stroke:#181818;stroke-width:0.5;" width="4" x="877" y="425.48"/><text fill="#000000" font-family="sans-serif" font-size="20" font-style="italic" lengthAdjust="spacing" textLength="122" x="752" y="455.86">«component»</text><text fill="#000000" font-family="sans-serif" font-size="20" lengthAdjust="spacing" textLength="113" x="756.5" y="483.1">HTTP Server</text></g><!--entity V--><g id="elem_V"><path d="M558.5,424.1 L599.5,424.1 A3.75,3.75 0 0 1 602,426.6 L609,445.1 L699.5,445.1 A2.5,2.5 0 0 1 702,447.6 L702,486.84 A2.5,2.5 0 0 1 699.5,489.34 L558.5,489.34 A2.5,2.5 0 0 1 556,486.84 L556,426.6 A2.5,2.5 0 0 1 558.5,424.1 " fill="#F1F1F1" style="stroke:#181818;stroke-width:0.5;"/><line style="stroke:#181818;stroke-width:0.5;" x1="556" x2="609" y1="445.1" y2="445.1"/><text fill="#000000" font-family="sans-serif" font-size="20" lengthAdjust="spacing" textLength="116" x="566" y="473.48">Visualization</text></g><!--link LOCAL to S1--><g id="link_LOCAL_S1"><path d="M385.9925,194.1536 C385.7505,194.3062 385.5037,194.4623 385.252,194.6218 C384.2454,195.2596 383.1617,195.9518 382.006,196.697 C379.6946,198.1874 377.0955,199.8899 374.25,201.7941 C362.8681,209.4106 347.545,220.2538 330.9325,233.6575 C297.7075,260.465 259.325,297.515 237,339.48 C235.4856,342.3275 234.0819,345.2646 232.7809,348.2695 C232.1304,349.772 231.5056,351.2914 230.9054,352.825 C230.6054,353.5918 230.3115,354.3622 230.0237,355.1358 " fill="none" id="LOCAL-S1" style="stroke:#181818;stroke-width:1.0;"/><text fill="#000000" font-family="sans-serif" font-size="20" lengthAdjust="spacing" textLength="55" x="261" y="324.86">http/s</text></g><!--link LOCAL to S2--><g id="link_LOCAL_S2"><path d="M418.4187,279.0107 C418.574,279.3662 418.7303,279.7212 418.8874,280.0756 C419.2016,280.7843 419.5193,281.4904 419.8404,282.1937 C420.4826,283.6002 421.1387,284.9954 421.8088,286.3767 C423.1491,289.1394 424.5456,291.8469 426,294.48 C438.8,317.65 450.46,317.36 465,339.48 C480.505,363.065 494.3125,391.5925 504.3375,414.4838 C506.8438,420.2066 509.1136,425.5771 511.1145,430.4301 C511.6147,431.6433 512.0981,432.8242 512.5642,433.9702 C512.6807,434.2567 512.7961,434.541 512.9105,434.8231 " fill="none" id="LOCAL-S2" style="stroke:#181818;stroke-width:1.0;"/><text fill="#000000" font-family="sans-serif" font-size="20" lengthAdjust="spacing" textLength="55" x="460" y="324.86">http/s</text></g><!--link S1 to DB--><g id="link_S1_DB"><path d="M230.7838,523.3249 C230.831,523.4628 230.8784,523.6007 230.9259,523.7386 C231.0208,524.0142 231.1164,524.2896 231.2126,524.5646 C231.4049,525.1148 231.5996,525.6636 231.7967,526.211 C233.3734,530.5903 235.1038,534.8763 237,538.96 C257.68,583.51 291.41,628.25 317.36,659.26 " fill="none" id="S1-DB" style="stroke:#181818;stroke-width:1.0;"/><text fill="#000000" font-family="sans-serif" font-size="20" lengthAdjust="spacing" textLength="29" x="256" y="569.34">tcp</text></g><!--link S1 to S4--><g id="link_S1_S4"><path d="M208.9054,460.8843 C208.3906,461.0941 207.8538,461.3142 207.2955,461.5446 C206.179,462.0053 204.977,462.5072 203.6951,463.05 C201.1315,464.1356 198.2488,465.3847 195.093,466.7955 C182.4697,472.4384 165.4769,480.6669 147.0587,491.3538 C110.2225,512.7275 67.685,543.935 43,583.96 C41.3094,586.7013 39.7548,589.5452 38.3261,592.4688 C37.6117,593.9306 36.9287,595.4124 36.2759,596.9112 C35.9495,597.6605 35.6306,598.4142 35.3191,599.1717 C35.2413,599.3611 35.1638,599.5508 35.0869,599.7406 " fill="none" id="S1-S4" style="stroke:#181818;stroke-width:1.0;"/><text fill="#000000" font-family="sans-serif" font-size="20" lengthAdjust="spacing" textLength="55" x="73" y="569.34">http/s</text></g><!--SRC=[TP5HJuCm483V-oikl2ywjYUop8XeN3BY8Xll9tIiMUaHscaoi_zkAGCLyQ4FT_VrkzvL7uMgiCPIKdRaEUHyZoTfdaYPH9mv-BUCASevU1P0UI1j0hZp03MiNnxkr_39038gAr9S6V32cZuqhnqGmcBHbvPBX_w2Tol7xLQZu8KrvzBrJtZzpckOTksJwR1t7CMeiE2bZHnY4qCpZ4hdlNG-b6uaAYLKuSgRWUu_twptpPmlHuDlg2qGaoee2bqnQXRKbQvZ_tNvlSiVlkrvkzr0YxN4usiwFZ30dcHkRLugz0cbEACHfDojj6iCZBL_EfaqsmtWO4nretya_U-a1Mp6ZX20oQfhQDVN0ry0]--></g></svg>