<?xml version="1.0" encoding="UTF-8" standalone="no"?><svg xmlns="http://www.w3.org/2000/svg" xmlns:xlink="http://www.w3.org/1999/xlink" contentStyleType="text/css" height="758px" preserveAspectRatio="none" style="width:1835px;height:758px;background:#FFFFFF;" version="1.1" viewBox="0 0 1835 758" width="1835px" zoomAndPan="magnify"><defs/><g><rect fill="#DDDDDD" height="746.0625" style="stroke:#181818;stroke-width:0.5;" width="1222" x="358" y="6"/><text fill="#000000" font-family="sans-serif" font-size="20" font-weight="bold" lengthAdjust="spacing" textLength="153" x="892.5" y="24.5645">«system (C4»</text><text fill="#000000" font-family="sans-serif" font-size="20" font-weight="bold" lengthAdjust="spacing" textLength="147" x="895.5" y="47.8457">Visualization</text><rect fill="#FFFFE0" height="746.0625" style="stroke:#181818;stroke-width:0.5;" width="209" x="1620" y="6"/><text fill="#000000" font-family="sans-serif" font-size="20" font-weight="bold" lengthAdjust="spacing" textLength="162" x="1643.5" y="24.5645">«system (C4)»</text><text fill="#000000" font-family="sans-serif" font-size="20" font-weight="bold" lengthAdjust="spacing" textLength="193" x="1628" y="47.8457">MD Management</text><rect fill="#FFFFFF" height="519.6563" style="stroke:#181818;stroke-width:1.0;" width="10" x="90.5" y="128.125"/><rect fill="#FFFFFF" height="37.2813" style="stroke:#181818;stroke-width:1.0;" width="10" x="457.5" y="157.4063"/><rect fill="#FFFFFF" height="415.8125" style="stroke:#181818;stroke-width:1.0;" width="10" x="457.5" y="231.9688"/><rect fill="#FFFFFF" height="341.25" style="stroke:#181818;stroke-width:1.0;" width="10" x="699.5" y="269.25"/><rect fill="#FFFFFF" height="28" style="stroke:#181818;stroke-width:1.0;" width="10" x="704.5" y="314.5313"/><rect fill="#FFFFFF" height="186.4063" style="stroke:#181818;stroke-width:1.0;" width="10" x="941.5" y="386.8125"/><rect fill="#FFFFFF" height="111.8438" style="stroke:#181818;stroke-width:1.0;" width="10" x="1470.5" y="424.0938"/><rect fill="#FFFFFF" height="37.2813" style="stroke:#181818;stroke-width:1.0;" width="10" x="1719.5" y="461.375"/><line style="stroke:#181818;stroke-width:0.5;stroke-dasharray:5.0,5.0;" x1="95" x2="95" y1="118.125" y2="665.7813"/><line style="stroke:#181818;stroke-width:0.5;stroke-dasharray:5.0,5.0;" x1="462" x2="462" y1="118.125" y2="665.7813"/><line style="stroke:#181818;stroke-width:0.5;stroke-dasharray:5.0,5.0;" x1="704" x2="704" y1="118.125" y2="665.7813"/><line style="stroke:#181818;stroke-width:0.5;stroke-dasharray:5.0,5.0;" x1="946" x2="946" y1="118.125" y2="665.7813"/><line style="stroke:#181818;stroke-width:0.5;stroke-dasharray:5.0,5.0;" x1="1475" x2="1475" y1="118.125" y2="665.7813"/><line style="stroke:#181818;stroke-width:0.5;stroke-dasharray:5.0,5.0;" x1="1724" x2="1724" y1="118.125" y2="665.7813"/><text fill="#000000" font-family="sans-serif" font-size="20" lengthAdjust="spacing" textLength="175" x="5" y="113.4082">Campus Manager</text><ellipse cx="95.5" cy="43.3438" fill="#E2E2F0" rx="8" ry="8" style="stroke:#181818;stroke-width:0.5;"/><path d="M95.5,51.3438 L95.5,78.3438 M82.5,59.3438 L108.5,59.3438 M95.5,78.3438 L82.5,93.3438 M95.5,78.3438 L108.5,93.3438 " fill="none" style="stroke:#181818;stroke-width:0.5;"/><text fill="#000000" font-family="sans-serif" font-size="20" lengthAdjust="spacing" textLength="175" x="5" y="683.3457">Campus Manager</text><ellipse cx="95.5" cy="696.5625" fill="#E2E2F0" rx="8" ry="8" style="stroke:#181818;stroke-width:0.5;"/><path d="M95.5,704.5625 L95.5,731.5625 M82.5,712.5625 L108.5,712.5625 M95.5,731.5625 L82.5,746.5625 M95.5,731.5625 L108.5,746.5625 " fill="none" style="stroke:#181818;stroke-width:0.5;"/><rect fill="#E2E2F0" height="60.5625" rx="2.5" ry="2.5" style="stroke:#181818;stroke-width:0.5;" width="201" x="362" y="56.5625"/><text fill="#000000" font-family="sans-serif" font-size="20" font-style="italic" lengthAdjust="spacing" textLength="187" x="369" y="82.127">«component (C4)»</text><text fill="#000000" font-family="sans-serif" font-size="20" lengthAdjust="spacing" textLength="144" x="390.5" y="105.4082">UI Component</text><rect fill="#E2E2F0" height="60.5625" rx="2.5" ry="2.5" style="stroke:#181818;stroke-width:0.5;" width="201" x="362" y="664.7813"/><text fill="#000000" font-family="sans-serif" font-size="20" font-style="italic" lengthAdjust="spacing" textLength="187" x="369" y="690.3457">«component (C4)»</text><text fill="#000000" font-family="sans-serif" font-size="20" lengthAdjust="spacing" textLength="144" x="390.5" y="713.627">UI Component</text><rect fill="#E2E2F0" height="60.5625" rx="2.5" ry="2.5" style="stroke:#181818;stroke-width:0.5;" width="201" x="604" y="56.5625"/><text fill="#000000" font-family="sans-serif" font-size="20" font-style="italic" lengthAdjust="spacing" textLength="187" x="611" y="82.127">«component (C4)»</text><text fill="#000000" font-family="sans-serif" font-size="20" lengthAdjust="spacing" textLength="73" x="668" y="105.4082">Module</text><rect fill="#E2E2F0" height="60.5625" rx="2.5" ry="2.5" style="stroke:#181818;stroke-width:0.5;" width="201" x="604" y="664.7813"/><text fill="#000000" font-family="sans-serif" font-size="20" font-style="italic" lengthAdjust="spacing" textLength="187" x="611" y="690.3457">«component (C4)»</text><text fill="#000000" font-family="sans-serif" font-size="20" lengthAdjust="spacing" textLength="73" x="668" y="713.627">Module</text><rect fill="#E2E2F0" height="60.5625" rx="2.5" ry="2.5" style="stroke:#181818;stroke-width:0.5;" width="201" x="846" y="56.5625"/><text fill="#000000" font-family="sans-serif" font-size="20" font-style="italic" lengthAdjust="spacing" textLength="187" x="853" y="82.127">«component (C4)»</text><text fill="#000000" font-family="sans-serif" font-size="20" lengthAdjust="spacing" textLength="73" x="910" y="105.4082">Service</text><rect fill="#E2E2F0" height="60.5625" rx="2.5" ry="2.5" style="stroke:#181818;stroke-width:0.5;" width="201" x="846" y="664.7813"/><text fill="#000000" font-family="sans-serif" font-size="20" font-style="italic" lengthAdjust="spacing" textLength="187" x="853" y="690.3457">«component (C4)»</text><text fill="#000000" font-family="sans-serif" font-size="20" lengthAdjust="spacing" textLength="73" x="910" y="713.627">Service</text><rect fill="#E2E2F0" height="60.5625" rx="2.5" ry="2.5" style="stroke:#181818;stroke-width:0.5;" width="201" x="1375" y="56.5625"/><text fill="#000000" font-family="sans-serif" font-size="20" font-style="italic" lengthAdjust="spacing" textLength="187" x="1382" y="82.127">«component (C4)»</text><text fill="#000000" font-family="sans-serif" font-size="20" lengthAdjust="spacing" textLength="51" x="1450" y="105.4082">HTTP</text><rect fill="#E2E2F0" height="60.5625" rx="2.5" ry="2.5" style="stroke:#181818;stroke-width:0.5;" width="201" x="1375" y="664.7813"/><text fill="#000000" font-family="sans-serif" font-size="20" font-style="italic" lengthAdjust="spacing" textLength="187" x="1382" y="690.3457">«component (C4)»</text><text fill="#000000" font-family="sans-serif" font-size="20" lengthAdjust="spacing" textLength="51" x="1450" y="713.627">HTTP</text><rect fill="#E2E2F0" height="60.5625" rx="2.5" ry="2.5" style="stroke:#181818;stroke-width:0.5;" width="201" x="1624" y="56.5625"/><text fill="#000000" font-family="sans-serif" font-size="20" font-style="italic" lengthAdjust="spacing" textLength="187" x="1631" y="82.127">«component (C4)»</text><text fill="#000000" font-family="sans-serif" font-size="20" lengthAdjust="spacing" textLength="170" x="1639.5" y="105.4082">MD Management</text><rect fill="#E2E2F0" height="60.5625" rx="2.5" ry="2.5" style="stroke:#181818;stroke-width:0.5;" width="201" x="1624" y="664.7813"/><text fill="#000000" font-family="sans-serif" font-size="20" font-style="italic" lengthAdjust="spacing" textLength="187" x="1631" y="690.3457">«component (C4)»</text><text fill="#000000" font-family="sans-serif" font-size="20" lengthAdjust="spacing" textLength="170" x="1639.5" y="713.627">MD Management</text><rect fill="#FFFFFF" height="519.6563" style="stroke:#181818;stroke-width:1.0;" width="10" x="90.5" y="128.125"/><rect fill="#FFFFFF" height="37.2813" style="stroke:#181818;stroke-width:1.0;" width="10" x="457.5" y="157.4063"/><rect fill="#FFFFFF" height="415.8125" style="stroke:#181818;stroke-width:1.0;" width="10" x="457.5" y="231.9688"/><rect fill="#FFFFFF" height="341.25" style="stroke:#181818;stroke-width:1.0;" width="10" x="699.5" y="269.25"/><rect fill="#FFFFFF" height="28" style="stroke:#181818;stroke-width:1.0;" width="10" x="704.5" y="314.5313"/><rect fill="#FFFFFF" height="186.4063" style="stroke:#181818;stroke-width:1.0;" width="10" x="941.5" y="386.8125"/><rect fill="#FFFFFF" height="111.8438" style="stroke:#181818;stroke-width:1.0;" width="10" x="1470.5" y="424.0938"/><rect fill="#FFFFFF" height="37.2813" style="stroke:#181818;stroke-width:1.0;" width="10" x="1719.5" y="461.375"/><polygon fill="#181818" points="445.5,153.4063,455.5,157.4063,445.5,161.4063,449.5,157.4063" style="stroke:#181818;stroke-width:1.0;"/><line style="stroke:#181818;stroke-width:1.0;" x1="100.5" x2="451.5" y1="157.4063" y2="157.4063"/><text fill="#000000" font-family="sans-serif" font-size="20" font-weight="bold" lengthAdjust="spacing" textLength="14" x="107.5" y="150.6895">1</text><text fill="#000000" font-family="sans-serif" font-size="20" lengthAdjust="spacing" textLength="260" x="125.5" y="150.6895">asks to updload floor map</text><polygon fill="#181818" points="111.5,190.6875,101.5,194.6875,111.5,198.6875,107.5,194.6875" style="stroke:#181818;stroke-width:1.0;"/><line style="stroke:#181818;stroke-width:1.0;stroke-dasharray:2.0,2.0;" x1="105.5" x2="461.5" y1="194.6875" y2="194.6875"/><text fill="#000000" font-family="sans-serif" font-size="20" font-weight="bold" lengthAdjust="spacing" textLength="14" x="117.5" y="187.9707">2</text><text fill="#000000" font-family="sans-serif" font-size="20" lengthAdjust="spacing" textLength="237" x="135.5" y="187.9707">asks to select a json file</text><polygon fill="#181818" points="445.5,227.9688,455.5,231.9688,445.5,235.9688,449.5,231.9688" style="stroke:#181818;stroke-width:1.0;"/><line style="stroke:#181818;stroke-width:1.0;" x1="100.5" x2="451.5" y1="231.9688" y2="231.9688"/><text fill="#000000" font-family="sans-serif" font-size="20" font-weight="bold" lengthAdjust="spacing" textLength="14" x="107.5" y="225.252">3</text><text fill="#000000" font-family="sans-serif" font-size="20" lengthAdjust="spacing" textLength="106" x="125.5" y="225.252">selects file</text><polygon fill="#181818" points="687.5,265.25,697.5,269.25,687.5,273.25,691.5,269.25" style="stroke:#181818;stroke-width:1.0;"/><line style="stroke:#181818;stroke-width:1.0;" x1="467.5" x2="693.5" y1="269.25" y2="269.25"/><text fill="#000000" font-family="sans-serif" font-size="20" font-weight="bold" lengthAdjust="spacing" textLength="14" x="474.5" y="262.5332">4</text><text fill="#000000" font-family="sans-serif" font-size="20" lengthAdjust="spacing" textLength="181" x="492.5" y="262.5332">uploads floor map</text><line style="stroke:#181818;stroke-width:1.0;" x1="714.5" x2="756.5" y1="306.5313" y2="306.5313"/><line style="stroke:#181818;stroke-width:1.0;" x1="756.5" x2="756.5" y1="306.5313" y2="319.5313"/><line style="stroke:#181818;stroke-width:1.0;" x1="715.5" x2="756.5" y1="319.5313" y2="319.5313"/><polygon fill="#181818" points="725.5,315.5313,715.5,319.5313,725.5,323.5313,721.5,319.5313" style="stroke:#181818;stroke-width:1.0;"/><text fill="#000000" font-family="sans-serif" font-size="20" font-weight="bold" lengthAdjust="spacing" textLength="14" x="721.5" y="299.8145">5</text><text fill="#000000" font-family="sans-serif" font-size="20" lengthAdjust="spacing" textLength="179" x="739.5" y="299.8145">validates file path</text><polygon fill="#181818" points="929.5,382.8125,939.5,386.8125,929.5,390.8125,933.5,386.8125" style="stroke:#181818;stroke-width:1.0;"/><line style="stroke:#181818;stroke-width:1.0;" x1="709.5" x2="935.5" y1="386.8125" y2="386.8125"/><text fill="#000000" font-family="sans-serif" font-size="20" font-weight="bold" lengthAdjust="spacing" textLength="14" x="716.5" y="380.0957">6</text><text fill="#000000" font-family="sans-serif" font-size="20" lengthAdjust="spacing" textLength="181" x="734.5" y="380.0957">uploads floor map</text><polygon fill="#181818" points="1458.5,420.0938,1468.5,424.0938,1458.5,428.0938,1462.5,424.0938" style="stroke:#181818;stroke-width:1.0;"/><line style="stroke:#181818;stroke-width:1.0;" x1="951.5" x2="1464.5" y1="424.0938" y2="424.0938"/><text fill="#000000" font-family="sans-serif" font-size="20" font-weight="bold" lengthAdjust="spacing" textLength="14" x="958.5" y="417.377">7</text><text fill="#000000" font-family="sans-serif" font-size="20" lengthAdjust="spacing" textLength="482" x="976.5" y="417.377">put('/buildings/:buildingCode/floors/:floorCode')</text><polygon fill="#181818" points="1707.5,457.375,1717.5,461.375,1707.5,465.375,1711.5,461.375" style="stroke:#181818;stroke-width:1.0;"/><line style="stroke:#181818;stroke-width:1.0;" x1="1480.5" x2="1713.5" y1="461.375" y2="461.375"/><text fill="#000000" font-family="sans-serif" font-size="20" font-weight="bold" lengthAdjust="spacing" textLength="14" x="1487.5" y="454.6582">8</text><text fill="#000000" font-family="sans-serif" font-size="20" lengthAdjust="spacing" textLength="202" x="1505.5" y="454.6582">put /buildings/floors</text><polygon fill="#181818" points="1491.5,494.6563,1481.5,498.6563,1491.5,502.6563,1487.5,498.6563" style="stroke:#181818;stroke-width:1.0;"/><line style="stroke:#181818;stroke-width:1.0;stroke-dasharray:2.0,2.0;" x1="1485.5" x2="1723.5" y1="498.6563" y2="498.6563"/><text fill="#000000" font-family="sans-serif" font-size="20" font-weight="bold" lengthAdjust="spacing" textLength="14" x="1497.5" y="491.9395">9</text><text fill="#000000" font-family="sans-serif" font-size="20" lengthAdjust="spacing" textLength="90" x="1515.5" y="491.9395">200 (OK)</text><polygon fill="#181818" points="962.5,531.9375,952.5,535.9375,962.5,539.9375,958.5,535.9375" style="stroke:#181818;stroke-width:1.0;"/><line style="stroke:#181818;stroke-width:1.0;stroke-dasharray:2.0,2.0;" x1="956.5" x2="1474.5" y1="535.9375" y2="535.9375"/><text fill="#000000" font-family="sans-serif" font-size="20" font-weight="bold" lengthAdjust="spacing" textLength="28" x="968.5" y="529.2207">10</text><text fill="#000000" font-family="sans-serif" font-size="20" lengthAdjust="spacing" textLength="176" x="1000.5" y="529.2207">updatedFloorMap</text><polygon fill="#181818" points="720.5,569.2188,710.5,573.2188,720.5,577.2188,716.5,573.2188" style="stroke:#181818;stroke-width:1.0;"/><line style="stroke:#181818;stroke-width:1.0;stroke-dasharray:2.0,2.0;" x1="714.5" x2="945.5" y1="573.2188" y2="573.2188"/><text fill="#000000" font-family="sans-serif" font-size="20" font-weight="bold" lengthAdjust="spacing" textLength="28" x="726.5" y="566.502">11</text><text fill="#000000" font-family="sans-serif" font-size="20" lengthAdjust="spacing" textLength="176" x="758.5" y="566.502">updatedFloorMap</text><polygon fill="#181818" points="478.5,606.5,468.5,610.5,478.5,614.5,474.5,610.5" style="stroke:#181818;stroke-width:1.0;"/><line style="stroke:#181818;stroke-width:1.0;stroke-dasharray:2.0,2.0;" x1="472.5" x2="703.5" y1="610.5" y2="610.5"/><text fill="#000000" font-family="sans-serif" font-size="20" font-weight="bold" lengthAdjust="spacing" textLength="28" x="484.5" y="603.7832">12</text><text fill="#000000" font-family="sans-serif" font-size="20" lengthAdjust="spacing" textLength="176" x="516.5" y="603.7832">updatedFloorMap</text><polygon fill="#181818" points="106.5,643.7813,96.5,647.7813,106.5,651.7813,102.5,647.7813" style="stroke:#181818;stroke-width:1.0;"/><line style="stroke:#181818;stroke-width:1.0;stroke-dasharray:2.0,2.0;" x1="100.5" x2="461.5" y1="647.7813" y2="647.7813"/><text fill="#000000" font-family="sans-serif" font-size="20" font-weight="bold" lengthAdjust="spacing" textLength="28" x="112.5" y="641.0645">13</text><text fill="#000000" font-family="sans-serif" font-size="20" lengthAdjust="spacing" textLength="301" x="144.5" y="641.0645">returns confirmation message</text><!--SRC=[ZPD1Q-Cm48Nl-XM3zz3a41BAde8nB3PbowvfsMGBXRqerYHL8ql6ahBT_leToKbgrstfnLRaxptDl57iNkg6jxnMfjgZ085RxfMxCjgjv3F2vO9nxupszGPRPayq51stnYVtJScThb6xDAteYMsMGRTWZ5VEj92Nm2qaEQyRRw7ack-mJTZ6F46IflQVTLZ39F-QPN_qdRIUA_dCdJGwUR5a07IoavLik7PaUHizVrz3Rkh6QC8I8Fpq8_XDHxBofeYoqWYly1E2rQ-xA5XXUv3LPnJVr-kkjB1uaqSjW7fdum2c8O6oE4PKdtewHl3bfzmzk7jKolnztLVHHJpMldiuZKOUk4EAaZ6Qq2oBeIx9Ps_16V2DK8OBs2f3CwnvqvVSHaqwcxqIMLHOEU3mQ8s6hLJ818vqvxCwt7RW00lV2Gi3Mr8feHBxLYa4i02TsGFT7a5VEbDAoJqCwLuzFN4Oz8S74S02H6mSyH8QxoONyusNIaYzi_FbQPaRWVDeGPln7NOkfhtGWmLZqIXKJkEBVj2pwmnwjHSb2-3ifOBBnG8cDp-cWvu8EnhtsWg9YAlWM59JFRmh93RMY_jTFAGG4pkFy0Cun3ky9YqwtseBbT5RsTRnJmurMajNTdHHXXliFm00]--></g></svg>