<?xml version="1.0" encoding="UTF-8" standalone="no"?><svg xmlns="http://www.w3.org/2000/svg" xmlns:xlink="http://www.w3.org/1999/xlink" contentStyleType="text/css" height="829px" preserveAspectRatio="none" style="width:1707px;height:829px;background:#FFFFFF;" version="1.1" viewBox="0 0 1707 829" width="1707px" zoomAndPan="magnify"><defs/><g><rect fill="#DDDDDD" height="817.3195" style="stroke:#181818;stroke-width:0.5;" width="1126.125" x="341.75" y="6"/><text fill="#000000" font-family="sans-serif" font-size="20" font-weight="bold" lengthAdjust="spacing" textLength="128.875" x="840.375" y="27.38">«system (C4»</text><text fill="#000000" font-family="sans-serif" font-size="20" font-weight="bold" lengthAdjust="spacing" textLength="124.125" x="842.75" y="54.62">Visualization</text><rect fill="#FFFFE0" height="817.3195" style="stroke:#181818;stroke-width:0.5;" width="184" x="1517.5" y="6"/><text fill="#000000" font-family="sans-serif" font-size="20" font-weight="bold" lengthAdjust="spacing" textLength="135.5" x="1541.75" y="27.38">«system (C4)»</text><text fill="#000000" font-family="sans-serif" font-size="20" font-weight="bold" lengthAdjust="spacing" textLength="169.5" x="1524.75" y="54.62">MD Management</text><rect fill="#FFFFFF" height="571.1197" style="stroke:#181818;stroke-width:1.0;" width="10" x="85.5" y="143.9599"/><rect fill="#FFFFFF" height="41.24" style="stroke:#181818;stroke-width:1.0;" width="10" x="428.75" y="177.1999"/><rect fill="#FFFFFF" height="455.3997" style="stroke:#181818;stroke-width:1.0;" width="10" x="428.75" y="259.6798"/><rect fill="#FFFFFF" height="372.9198" style="stroke:#181818;stroke-width:1.0;" width="10" x="655" y="300.9198"/><rect fill="#FFFFFF" height="28" style="stroke:#181818;stroke-width:1.0;" width="10" x="660" y="350.1598"/><rect fill="#FFFFFF" height="206.1999" style="stroke:#181818;stroke-width:1.0;" width="10" x="881.25" y="426.3997"/><rect fill="#FFFFFF" height="123.7199" style="stroke:#181818;stroke-width:1.0;" width="10" x="1370.875" y="467.6397"/><rect fill="#FFFFFF" height="41.24" style="stroke:#181818;stroke-width:1.0;" width="10" x="1604.5" y="508.8797"/><line style="stroke:#181818;stroke-width:0.5;stroke-dasharray:5.0,5.0;" x1="90" x2="90" y1="133.9599" y2="733.0796"/><line style="stroke:#181818;stroke-width:0.5;stroke-dasharray:5.0,5.0;" x1="433.75" x2="433.75" y1="133.9599" y2="733.0796"/><line style="stroke:#181818;stroke-width:0.5;stroke-dasharray:5.0,5.0;" x1="660" x2="660" y1="133.9599" y2="733.0796"/><line style="stroke:#181818;stroke-width:0.5;stroke-dasharray:5.0,5.0;" x1="886.25" x2="886.25" y1="133.9599" y2="733.0796"/><line style="stroke:#181818;stroke-width:0.5;stroke-dasharray:5.0,5.0;" x1="1375.875" x2="1375.875" y1="133.9599" y2="733.0796"/><line style="stroke:#181818;stroke-width:0.5;stroke-dasharray:5.0,5.0;" x1="1609.5" x2="1609.5" y1="133.9599" y2="733.0796"/><text fill="#000000" font-family="sans-serif" font-size="20" lengthAdjust="spacing" textLength="165" x="5" y="128.0999">Campus Manager</text><ellipse cx="90.5" cy="55.2199" fill="#E2E2F0" rx="8" ry="8" style="stroke:#181818;stroke-width:0.5;"/><path d="M90.5,63.2199 L90.5,90.2199 M77.5,71.2199 L103.5,71.2199 M90.5,90.2199 L77.5,105.2199 M90.5,90.2199 L103.5,105.2199 " fill="none" style="stroke:#181818;stroke-width:0.5;"/><text fill="#000000" font-family="sans-serif" font-size="20" lengthAdjust="spacing" textLength="165" x="5" y="753.4596">Campus Manager</text><ellipse cx="90.5" cy="767.8195" fill="#E2E2F0" rx="8" ry="8" style="stroke:#181818;stroke-width:0.5;"/><path d="M90.5,775.8195 L90.5,802.8195 M77.5,783.8195 L103.5,783.8195 M90.5,802.8195 L77.5,817.8195 M90.5,802.8195 L103.5,817.8195 " fill="none" style="stroke:#181818;stroke-width:0.5;"/><rect fill="#E2E2F0" height="68.4799" rx="2.5" ry="2.5" style="stroke:#181818;stroke-width:0.5;" width="176" x="345.75" y="64.4799"/><text fill="#000000" font-family="sans-serif" font-size="20" font-style="italic" lengthAdjust="spacing" textLength="162" x="352.75" y="92.8599">«component (C4)»</text><text fill="#000000" font-family="sans-serif" font-size="20" lengthAdjust="spacing" textLength="137" x="365.25" y="120.0999">UI Component</text><rect fill="#E2E2F0" height="68.4799" rx="2.5" ry="2.5" style="stroke:#181818;stroke-width:0.5;" width="176" x="345.75" y="732.0796"/><text fill="#000000" font-family="sans-serif" font-size="20" font-style="italic" lengthAdjust="spacing" textLength="162" x="352.75" y="760.4596">«component (C4)»</text><text fill="#000000" font-family="sans-serif" font-size="20" lengthAdjust="spacing" textLength="137" x="365.25" y="787.6995">UI Component</text><rect fill="#E2E2F0" height="68.4799" rx="2.5" ry="2.5" style="stroke:#181818;stroke-width:0.5;" width="176" x="572" y="64.4799"/><text fill="#000000" font-family="sans-serif" font-size="20" font-style="italic" lengthAdjust="spacing" textLength="162" x="579" y="92.8599">«component (C4)»</text><text fill="#000000" font-family="sans-serif" font-size="20" lengthAdjust="spacing" textLength="70" x="625" y="120.0999">Module</text><rect fill="#E2E2F0" height="68.4799" rx="2.5" ry="2.5" style="stroke:#181818;stroke-width:0.5;" width="176" x="572" y="732.0796"/><text fill="#000000" font-family="sans-serif" font-size="20" font-style="italic" lengthAdjust="spacing" textLength="162" x="579" y="760.4596">«component (C4)»</text><text fill="#000000" font-family="sans-serif" font-size="20" lengthAdjust="spacing" textLength="70" x="625" y="787.6995">Module</text><rect fill="#E2E2F0" height="68.4799" rx="2.5" ry="2.5" style="stroke:#181818;stroke-width:0.5;" width="176" x="798.25" y="64.4799"/><text fill="#000000" font-family="sans-serif" font-size="20" font-style="italic" lengthAdjust="spacing" textLength="162" x="805.25" y="92.8599">«component (C4)»</text><text fill="#000000" font-family="sans-serif" font-size="20" lengthAdjust="spacing" textLength="66" x="853.25" y="120.0999">Service</text><rect fill="#E2E2F0" height="68.4799" rx="2.5" ry="2.5" style="stroke:#181818;stroke-width:0.5;" width="176" x="798.25" y="732.0796"/><text fill="#000000" font-family="sans-serif" font-size="20" font-style="italic" lengthAdjust="spacing" textLength="162" x="805.25" y="760.4596">«component (C4)»</text><text fill="#000000" font-family="sans-serif" font-size="20" lengthAdjust="spacing" textLength="66" x="853.25" y="787.6995">Service</text><rect fill="#E2E2F0" height="68.4799" rx="2.5" ry="2.5" style="stroke:#181818;stroke-width:0.5;" width="176" x="1287.875" y="64.4799"/><text fill="#000000" font-family="sans-serif" font-size="20" font-style="italic" lengthAdjust="spacing" textLength="162" x="1294.875" y="92.8599">«component (C4)»</text><text fill="#000000" font-family="sans-serif" font-size="20" lengthAdjust="spacing" textLength="49" x="1351.375" y="120.0999">HTTP</text><rect fill="#E2E2F0" height="68.4799" rx="2.5" ry="2.5" style="stroke:#181818;stroke-width:0.5;" width="176" x="1287.875" y="732.0796"/><text fill="#000000" font-family="sans-serif" font-size="20" font-style="italic" lengthAdjust="spacing" textLength="162" x="1294.875" y="760.4596">«component (C4)»</text><text fill="#000000" font-family="sans-serif" font-size="20" lengthAdjust="spacing" textLength="49" x="1351.375" y="787.6995">HTTP</text><rect fill="#E2E2F0" height="68.4799" rx="2.5" ry="2.5" style="stroke:#181818;stroke-width:0.5;" width="176" x="1521.5" y="64.4799"/><text fill="#000000" font-family="sans-serif" font-size="20" font-style="italic" lengthAdjust="spacing" textLength="162" x="1528.5" y="92.8599">«component (C4)»</text><text fill="#000000" font-family="sans-serif" font-size="20" lengthAdjust="spacing" textLength="162" x="1528.5" y="120.0999">MD Management</text><rect fill="#E2E2F0" height="68.4799" rx="2.5" ry="2.5" style="stroke:#181818;stroke-width:0.5;" width="176" x="1521.5" y="732.0796"/><text fill="#000000" font-family="sans-serif" font-size="20" font-style="italic" lengthAdjust="spacing" textLength="162" x="1528.5" y="760.4596">«component (C4)»</text><text fill="#000000" font-family="sans-serif" font-size="20" lengthAdjust="spacing" textLength="162" x="1528.5" y="787.6995">MD Management</text><rect fill="#FFFFFF" height="571.1197" style="stroke:#181818;stroke-width:1.0;" width="10" x="85.5" y="143.9599"/><rect fill="#FFFFFF" height="41.24" style="stroke:#181818;stroke-width:1.0;" width="10" x="428.75" y="177.1999"/><rect fill="#FFFFFF" height="455.3997" style="stroke:#181818;stroke-width:1.0;" width="10" x="428.75" y="259.6798"/><rect fill="#FFFFFF" height="372.9198" style="stroke:#181818;stroke-width:1.0;" width="10" x="655" y="300.9198"/><rect fill="#FFFFFF" height="28" style="stroke:#181818;stroke-width:1.0;" width="10" x="660" y="350.1598"/><rect fill="#FFFFFF" height="206.1999" style="stroke:#181818;stroke-width:1.0;" width="10" x="881.25" y="426.3997"/><rect fill="#FFFFFF" height="123.7199" style="stroke:#181818;stroke-width:1.0;" width="10" x="1370.875" y="467.6397"/><rect fill="#FFFFFF" height="41.24" style="stroke:#181818;stroke-width:1.0;" width="10" x="1604.5" y="508.8797"/><polygon fill="#181818" points="416.75,173.1999,426.75,177.1999,416.75,181.1999,420.75,177.1999" style="stroke:#181818;stroke-width:1.0;"/><line style="stroke:#181818;stroke-width:1.0;" x1="95.5" x2="422.75" y1="177.1999" y2="177.1999"/><text fill="#000000" font-family="sans-serif" font-size="20" font-weight="bold" lengthAdjust="spacing" textLength="11.625" x="102.5" y="169.3399">1</text><text fill="#000000" font-family="sans-serif" font-size="20" lengthAdjust="spacing" textLength="243" x="118.125" y="169.3399">asks to updload floor map</text><polygon fill="#181818" points="106.5,214.4398,96.5,218.4398,106.5,222.4398,102.5,218.4398" style="stroke:#181818;stroke-width:1.0;"/><line style="stroke:#181818;stroke-width:1.0;stroke-dasharray:2.0,2.0;" x1="100.5" x2="432.75" y1="218.4398" y2="218.4398"/><text fill="#000000" font-family="sans-serif" font-size="20" font-weight="bold" lengthAdjust="spacing" textLength="11.625" x="112.5" y="210.5799">2</text><text fill="#000000" font-family="sans-serif" font-size="20" lengthAdjust="spacing" textLength="218" x="128.125" y="210.5799">asks to select a json file</text><polygon fill="#181818" points="416.75,255.6798,426.75,259.6798,416.75,263.6798,420.75,259.6798" style="stroke:#181818;stroke-width:1.0;"/><line style="stroke:#181818;stroke-width:1.0;" x1="95.5" x2="422.75" y1="259.6798" y2="259.6798"/><text fill="#000000" font-family="sans-serif" font-size="20" font-weight="bold" lengthAdjust="spacing" textLength="11.625" x="102.5" y="251.8198">3</text><text fill="#000000" font-family="sans-serif" font-size="20" lengthAdjust="spacing" textLength="97" x="118.125" y="251.8198">selects file</text><polygon fill="#181818" points="643,296.9198,653,300.9198,643,304.9198,647,300.9198" style="stroke:#181818;stroke-width:1.0;"/><line style="stroke:#181818;stroke-width:1.0;" x1="438.75" x2="649" y1="300.9198" y2="300.9198"/><text fill="#000000" font-family="sans-serif" font-size="20" font-weight="bold" lengthAdjust="spacing" textLength="11.625" x="445.75" y="293.0598">4</text><text fill="#000000" font-family="sans-serif" font-size="20" lengthAdjust="spacing" textLength="170" x="461.375" y="293.0598">uploads floor map</text><line style="stroke:#181818;stroke-width:1.0;" x1="670" x2="712" y1="342.1598" y2="342.1598"/><line style="stroke:#181818;stroke-width:1.0;" x1="712" x2="712" y1="342.1598" y2="355.1598"/><line style="stroke:#181818;stroke-width:1.0;" x1="671" x2="712" y1="355.1598" y2="355.1598"/><polygon fill="#181818" points="681,351.1598,671,355.1598,681,359.1598,677,355.1598" style="stroke:#181818;stroke-width:1.0;"/><text fill="#000000" font-family="sans-serif" font-size="20" font-weight="bold" lengthAdjust="spacing" textLength="11.625" x="677" y="334.2998">5</text><text fill="#000000" font-family="sans-serif" font-size="20" lengthAdjust="spacing" textLength="162" x="692.625" y="334.2998">validates file path</text><polygon fill="#181818" points="869.25,422.3997,879.25,426.3997,869.25,430.3997,873.25,426.3997" style="stroke:#181818;stroke-width:1.0;"/><line style="stroke:#181818;stroke-width:1.0;" x1="665" x2="875.25" y1="426.3997" y2="426.3997"/><text fill="#000000" font-family="sans-serif" font-size="20" font-weight="bold" lengthAdjust="spacing" textLength="11.625" x="672" y="418.5398">6</text><text fill="#000000" font-family="sans-serif" font-size="20" lengthAdjust="spacing" textLength="170" x="687.625" y="418.5398">uploads floor map</text><polygon fill="#181818" points="1358.875,463.6397,1368.875,467.6397,1358.875,471.6397,1362.875,467.6397" style="stroke:#181818;stroke-width:1.0;"/><line style="stroke:#181818;stroke-width:1.0;" x1="891.25" x2="1364.875" y1="467.6397" y2="467.6397"/><text fill="#000000" font-family="sans-serif" font-size="20" font-weight="bold" lengthAdjust="spacing" textLength="11.625" x="898.25" y="459.7797">7</text><text fill="#000000" font-family="sans-serif" font-size="20" lengthAdjust="spacing" textLength="445" x="913.875" y="459.7797">put('/buildings/:buildingCode/floors/:floorCode')</text><polygon fill="#181818" points="1592.5,504.8797,1602.5,508.8797,1592.5,512.8797,1596.5,508.8797" style="stroke:#181818;stroke-width:1.0;"/><line style="stroke:#181818;stroke-width:1.0;" x1="1380.875" x2="1598.5" y1="508.8797" y2="508.8797"/><text fill="#000000" font-family="sans-serif" font-size="20" font-weight="bold" lengthAdjust="spacing" textLength="11.625" x="1387.875" y="501.0197">8</text><text fill="#000000" font-family="sans-serif" font-size="20" lengthAdjust="spacing" textLength="189" x="1403.5" y="501.0197">put /buildings/floors</text><polygon fill="#181818" points="1391.875,546.1197,1381.875,550.1197,1391.875,554.1197,1387.875,550.1197" style="stroke:#181818;stroke-width:1.0;"/><line style="stroke:#181818;stroke-width:1.0;stroke-dasharray:2.0,2.0;" x1="1385.875" x2="1608.5" y1="550.1197" y2="550.1197"/><text fill="#000000" font-family="sans-serif" font-size="20" font-weight="bold" lengthAdjust="spacing" textLength="11.625" x="1397.875" y="542.2597">9</text><text fill="#000000" font-family="sans-serif" font-size="20" lengthAdjust="spacing" textLength="78" x="1413.5" y="542.2597">200 (OK)</text><polygon fill="#181818" points="902.25,587.3596,892.25,591.3596,902.25,595.3596,898.25,591.3596" style="stroke:#181818;stroke-width:1.0;"/><line style="stroke:#181818;stroke-width:1.0;stroke-dasharray:2.0,2.0;" x1="896.25" x2="1374.875" y1="591.3596" y2="591.3596"/><text fill="#000000" font-family="sans-serif" font-size="20" font-weight="bold" lengthAdjust="spacing" textLength="23.25" x="908.25" y="583.4997">10</text><text fill="#000000" font-family="sans-serif" font-size="20" lengthAdjust="spacing" textLength="165" x="935.5" y="583.4997">updatedFloorMap</text><polygon fill="#181818" points="676,628.5996,666,632.5996,676,636.5996,672,632.5996" style="stroke:#181818;stroke-width:1.0;"/><line style="stroke:#181818;stroke-width:1.0;stroke-dasharray:2.0,2.0;" x1="670" x2="885.25" y1="632.5996" y2="632.5996"/><text fill="#000000" font-family="sans-serif" font-size="20" font-weight="bold" lengthAdjust="spacing" textLength="23.25" x="682" y="624.7396">11</text><text fill="#000000" font-family="sans-serif" font-size="20" lengthAdjust="spacing" textLength="165" x="709.25" y="624.7396">updatedFloorMap</text><polygon fill="#181818" points="449.75,669.8396,439.75,673.8396,449.75,677.8396,445.75,673.8396" style="stroke:#181818;stroke-width:1.0;"/><line style="stroke:#181818;stroke-width:1.0;stroke-dasharray:2.0,2.0;" x1="443.75" x2="659" y1="673.8396" y2="673.8396"/><text fill="#000000" font-family="sans-serif" font-size="20" font-weight="bold" lengthAdjust="spacing" textLength="23.25" x="455.75" y="665.9796">12</text><text fill="#000000" font-family="sans-serif" font-size="20" lengthAdjust="spacing" textLength="165" x="483" y="665.9796">updatedFloorMap</text><polygon fill="#181818" points="101.5,711.0796,91.5,715.0796,101.5,719.0796,97.5,715.0796" style="stroke:#181818;stroke-width:1.0;"/><line style="stroke:#181818;stroke-width:1.0;stroke-dasharray:2.0,2.0;" x1="95.5" x2="432.75" y1="715.0796" y2="715.0796"/><text fill="#000000" font-family="sans-serif" font-size="20" font-weight="bold" lengthAdjust="spacing" textLength="23.25" x="107.5" y="707.2196">13</text><text fill="#000000" font-family="sans-serif" font-size="20" lengthAdjust="spacing" textLength="282" x="134.75" y="707.2196">returns confirmation message</text><!--SRC=[ZPD1Q-Cm48Nl-XM3zz3a41BAde8nB3PbowvfsMGBXRqerYHL8ql6ahBT_leToKbgrstfnLRaxptDl57iNkg6jxnMfjgZ085RxfMxCjgjv3F2vO9nxupszGPRPayq51stnYVtJScThb6xDAteYMsMGRTWZ5VEj92Nm2qaEQyRRw7ack-mJTZ6F46IflQVTLZ39F-QPN_qdRIUA_dCdJGwUR5a07IoavLik7PaUHizVrz3Rkh6QC8I8Fpq8_XDHxBofeYoqWYly1E2rQ-xA5XXUv3LPnJVr-kkjB1uaqSjW7fdum2c8O6oE4PKdtewHl3bfzmzk7jKolnztLVHHJpMldiuZKOUk4EAaZ6Qq2oBeIx9Ps_16V2DK8OBs2f3CwnvqvVSHaqwcxqIMLHOEU3mQ8s6hLJ818vqvxCwt7RW00lV2Gi3Mr8feHBxLYa4i02TsGFT7a5VEbDAoJqCwLuzFN4Oz8S74S02H6mSyH8QxoONyusNIaYzi_FbQPaRWVDeGPln7NOkfhtGWmLZqIXKJkEBVj2pwmnwjHSb2-3ifOBBnG8cDp-cWvu8EnhtsWg9YAlWM59JFRmh93RMY_jTFAGG4pkFy0Cun3ky9YqwtseBbT5RsTRnJmurMajNTdHHXXliFm00]--></g></svg>