<?xml version="1.0" encoding="UTF-8" standalone="no"?><svg xmlns="http://www.w3.org/2000/svg" xmlns:xlink="http://www.w3.org/1999/xlink" contentStyleType="text/css" height="603px" preserveAspectRatio="none" style="width:2120px;height:603px;background:#FFFFFF;" version="1.1" viewBox="0 0 2120 603" width="2120px" zoomAndPan="magnify"><defs/><g><rect fill="#DDDDDD" height="591.2188" style="stroke:#181818;stroke-width:0.5;" width="1049" x="661" y="6"/><text fill="#000000" font-family="sans-serif" font-size="20" font-weight="bold" lengthAdjust="spacing" textLength="153" x="1109" y="24.5645">«system (C4»</text><text fill="#000000" font-family="sans-serif" font-size="20" font-weight="bold" lengthAdjust="spacing" textLength="147" x="1112" y="47.8457">Visualization</text><rect fill="#FFFFE0" height="591.2188" style="stroke:#181818;stroke-width:0.5;" width="209" x="1905" y="6"/><text fill="#000000" font-family="sans-serif" font-size="20" font-weight="bold" lengthAdjust="spacing" textLength="162" x="1928.5" y="24.5645">«system (C4)»</text><text fill="#000000" font-family="sans-serif" font-size="20" font-weight="bold" lengthAdjust="spacing" textLength="193" x="1913" y="47.8457">MD Management</text><rect fill="#FFFFFF" height="364.8125" style="stroke:#181818;stroke-width:1.0;" width="10" x="90.5" y="128.125"/><rect fill="#FFFFFF" height="344.5313" style="stroke:#181818;stroke-width:1.0;" width="10" x="765.5" y="157.4063"/><rect fill="#FFFFFF" height="335.5313" style="stroke:#181818;stroke-width:1.0;" width="10" x="765.5" y="157.4063"/><rect fill="#FFFFFF" height="260.9688" style="stroke:#181818;stroke-width:1.0;" width="10" x="971.5" y="194.6875"/><rect fill="#FFFFFF" height="186.4063" style="stroke:#181818;stroke-width:1.0;" width="10" x="1182.5" y="231.9688"/><rect fill="#FFFFFF" height="111.8438" style="stroke:#181818;stroke-width:1.0;" width="10" x="1600.5" y="269.25"/><rect fill="#FFFFFF" height="37.2813" style="stroke:#181818;stroke-width:1.0;" width="10" x="2004.5" y="306.5313"/><line style="stroke:#181818;stroke-width:0.5;stroke-dasharray:5.0,5.0;" x1="95" x2="95" y1="118.125" y2="510.9375"/><line style="stroke:#181818;stroke-width:0.5;stroke-dasharray:5.0,5.0;" x1="765" x2="765" y1="118.125" y2="510.9375"/><line style="stroke:#181818;stroke-width:0.5;stroke-dasharray:5.0,5.0;" x1="976" x2="976" y1="118.125" y2="510.9375"/><line style="stroke:#181818;stroke-width:0.5;stroke-dasharray:5.0,5.0;" x1="1187" x2="1187" y1="118.125" y2="510.9375"/><line style="stroke:#181818;stroke-width:0.5;stroke-dasharray:5.0,5.0;" x1="1605" x2="1605" y1="118.125" y2="510.9375"/><line style="stroke:#181818;stroke-width:0.5;stroke-dasharray:5.0,5.0;" x1="2009" x2="2009" y1="118.125" y2="510.9375"/><text fill="#000000" font-family="sans-serif" font-size="20" lengthAdjust="spacing" textLength="175" x="5" y="113.4082">Campus Manager</text><ellipse cx="95.5" cy="43.3438" fill="#E2E2F0" rx="8" ry="8" style="stroke:#181818;stroke-width:0.5;"/><path d="M95.5,51.3438 L95.5,78.3438 M82.5,59.3438 L108.5,59.3438 M95.5,78.3438 L82.5,93.3438 M95.5,78.3438 L108.5,93.3438 " fill="none" style="stroke:#181818;stroke-width:0.5;"/><text fill="#000000" font-family="sans-serif" font-size="20" lengthAdjust="spacing" textLength="175" x="5" y="528.502">Campus Manager</text><ellipse cx="95.5" cy="541.7188" fill="#E2E2F0" rx="8" ry="8" style="stroke:#181818;stroke-width:0.5;"/><path d="M95.5,549.7188 L95.5,576.7188 M82.5,557.7188 L108.5,557.7188 M95.5,576.7188 L82.5,591.7188 M95.5,576.7188 L108.5,591.7188 " fill="none" style="stroke:#181818;stroke-width:0.5;"/><rect fill="#E2E2F0" height="60.5625" rx="2.5" ry="2.5" style="stroke:#181818;stroke-width:0.5;" width="201" x="665" y="56.5625"/><text fill="#000000" font-family="sans-serif" font-size="20" font-style="italic" lengthAdjust="spacing" textLength="187" x="672" y="82.127">«component (C4)»</text><text fill="#000000" font-family="sans-serif" font-size="20" lengthAdjust="spacing" textLength="144" x="693.5" y="105.4082">UI Component</text><rect fill="#E2E2F0" height="60.5625" rx="2.5" ry="2.5" style="stroke:#181818;stroke-width:0.5;" width="201" x="665" y="509.9375"/><text fill="#000000" font-family="sans-serif" font-size="20" font-style="italic" lengthAdjust="spacing" textLength="187" x="672" y="535.502">«component (C4)»</text><text fill="#000000" font-family="sans-serif" font-size="20" lengthAdjust="spacing" textLength="144" x="693.5" y="558.7832">UI Component</text><rect fill="#E2E2F0" height="60.5625" rx="2.5" ry="2.5" style="stroke:#181818;stroke-width:0.5;" width="201" x="876" y="56.5625"/><text fill="#000000" font-family="sans-serif" font-size="20" font-style="italic" lengthAdjust="spacing" textLength="187" x="883" y="82.127">«component (C4)»</text><text fill="#000000" font-family="sans-serif" font-size="20" lengthAdjust="spacing" textLength="73" x="940" y="105.4082">Module</text><rect fill="#E2E2F0" height="60.5625" rx="2.5" ry="2.5" style="stroke:#181818;stroke-width:0.5;" width="201" x="876" y="509.9375"/><text fill="#000000" font-family="sans-serif" font-size="20" font-style="italic" lengthAdjust="spacing" textLength="187" x="883" y="535.502">«component (C4)»</text><text fill="#000000" font-family="sans-serif" font-size="20" lengthAdjust="spacing" textLength="73" x="940" y="558.7832">Module</text><rect fill="#E2E2F0" height="60.5625" rx="2.5" ry="2.5" style="stroke:#181818;stroke-width:0.5;" width="201" x="1087" y="56.5625"/><text fill="#000000" font-family="sans-serif" font-size="20" font-style="italic" lengthAdjust="spacing" textLength="187" x="1094" y="82.127">«component (C4)»</text><text fill="#000000" font-family="sans-serif" font-size="20" lengthAdjust="spacing" textLength="73" x="1151" y="105.4082">Service</text><rect fill="#E2E2F0" height="60.5625" rx="2.5" ry="2.5" style="stroke:#181818;stroke-width:0.5;" width="201" x="1087" y="509.9375"/><text fill="#000000" font-family="sans-serif" font-size="20" font-style="italic" lengthAdjust="spacing" textLength="187" x="1094" y="535.502">«component (C4)»</text><text fill="#000000" font-family="sans-serif" font-size="20" lengthAdjust="spacing" textLength="73" x="1151" y="558.7832">Service</text><rect fill="#E2E2F0" height="60.5625" rx="2.5" ry="2.5" style="stroke:#181818;stroke-width:0.5;" width="201" x="1505" y="56.5625"/><text fill="#000000" font-family="sans-serif" font-size="20" font-style="italic" lengthAdjust="spacing" textLength="187" x="1512" y="82.127">«component (C4)»</text><text fill="#000000" font-family="sans-serif" font-size="20" lengthAdjust="spacing" textLength="51" x="1580" y="105.4082">HTTP</text><rect fill="#E2E2F0" height="60.5625" rx="2.5" ry="2.5" style="stroke:#181818;stroke-width:0.5;" width="201" x="1505" y="509.9375"/><text fill="#000000" font-family="sans-serif" font-size="20" font-style="italic" lengthAdjust="spacing" textLength="187" x="1512" y="535.502">«component (C4)»</text><text fill="#000000" font-family="sans-serif" font-size="20" lengthAdjust="spacing" textLength="51" x="1580" y="558.7832">HTTP</text><rect fill="#E2E2F0" height="60.5625" rx="2.5" ry="2.5" style="stroke:#181818;stroke-width:0.5;" width="201" x="1909" y="56.5625"/><text fill="#000000" font-family="sans-serif" font-size="20" font-style="italic" lengthAdjust="spacing" textLength="187" x="1916" y="82.127">«component (C4)»</text><text fill="#000000" font-family="sans-serif" font-size="20" lengthAdjust="spacing" textLength="170" x="1924.5" y="105.4082">MD Management</text><rect fill="#E2E2F0" height="60.5625" rx="2.5" ry="2.5" style="stroke:#181818;stroke-width:0.5;" width="201" x="1909" y="509.9375"/><text fill="#000000" font-family="sans-serif" font-size="20" font-style="italic" lengthAdjust="spacing" textLength="187" x="1916" y="535.502">«component (C4)»</text><text fill="#000000" font-family="sans-serif" font-size="20" lengthAdjust="spacing" textLength="170" x="1924.5" y="558.7832">MD Management</text><rect fill="#FFFFFF" height="364.8125" style="stroke:#181818;stroke-width:1.0;" width="10" x="90.5" y="128.125"/><rect fill="#FFFFFF" height="344.5313" style="stroke:#181818;stroke-width:1.0;" width="10" x="765.5" y="157.4063"/><rect fill="#FFFFFF" height="335.5313" style="stroke:#181818;stroke-width:1.0;" width="10" x="765.5" y="157.4063"/><rect fill="#FFFFFF" height="260.9688" style="stroke:#181818;stroke-width:1.0;" width="10" x="971.5" y="194.6875"/><rect fill="#FFFFFF" height="186.4063" style="stroke:#181818;stroke-width:1.0;" width="10" x="1182.5" y="231.9688"/><rect fill="#FFFFFF" height="111.8438" style="stroke:#181818;stroke-width:1.0;" width="10" x="1600.5" y="269.25"/><rect fill="#FFFFFF" height="37.2813" style="stroke:#181818;stroke-width:1.0;" width="10" x="2004.5" y="306.5313"/><polygon fill="#181818" points="753.5,153.4063,763.5,157.4063,753.5,161.4063,757.5,157.4063" style="stroke:#181818;stroke-width:1.0;"/><line style="stroke:#181818;stroke-width:1.0;" x1="100.5" x2="759.5" y1="157.4063" y2="157.4063"/><text fill="#000000" font-family="sans-serif" font-size="20" font-weight="bold" lengthAdjust="spacing" textLength="14" x="107.5" y="150.6895">1</text><text fill="#000000" font-family="sans-serif" font-size="20" lengthAdjust="spacing" textLength="585" x="125.5" y="150.6895">asks to list floors serverd with elevator for a given building</text><polygon fill="#181818" points="959.5,190.6875,969.5,194.6875,959.5,198.6875,963.5,194.6875" style="stroke:#181818;stroke-width:1.0;"/><line style="stroke:#181818;stroke-width:1.0;" x1="775.5" x2="965.5" y1="194.6875" y2="194.6875"/><text fill="#000000" font-family="sans-serif" font-size="20" font-weight="bold" lengthAdjust="spacing" textLength="14" x="782.5" y="187.9707">2</text><text fill="#000000" font-family="sans-serif" font-size="20" lengthAdjust="spacing" textLength="30" x="800.5" y="187.9707">list</text><polygon fill="#181818" points="1170.5,227.9688,1180.5,231.9688,1170.5,235.9688,1174.5,231.9688" style="stroke:#181818;stroke-width:1.0;"/><line style="stroke:#181818;stroke-width:1.0;" x1="981.5" x2="1176.5" y1="231.9688" y2="231.9688"/><text fill="#000000" font-family="sans-serif" font-size="20" font-weight="bold" lengthAdjust="spacing" textLength="14" x="988.5" y="225.252">3</text><text fill="#000000" font-family="sans-serif" font-size="20" lengthAdjust="spacing" textLength="124" x="1006.5" y="225.252">get all floors</text><polygon fill="#181818" points="1588.5,265.25,1598.5,269.25,1588.5,273.25,1592.5,269.25" style="stroke:#181818;stroke-width:1.0;"/><line style="stroke:#181818;stroke-width:1.0;" x1="1192.5" x2="1594.5" y1="269.25" y2="269.25"/><text fill="#000000" font-family="sans-serif" font-size="20" font-weight="bold" lengthAdjust="spacing" textLength="14" x="1199.5" y="262.5332">4</text><text fill="#000000" font-family="sans-serif" font-size="20" lengthAdjust="spacing" textLength="371" x="1217.5" y="262.5332">get('/buildings/:buildingCode/floors')</text><polygon fill="#181818" points="1992.5,302.5313,2002.5,306.5313,1992.5,310.5313,1996.5,306.5313" style="stroke:#181818;stroke-width:1.0;"/><line style="stroke:#181818;stroke-width:1.0;" x1="1610.5" x2="1998.5" y1="306.5313" y2="306.5313"/><text fill="#000000" font-family="sans-serif" font-size="20" font-weight="bold" lengthAdjust="spacing" textLength="14" x="1617.5" y="299.8145">5</text><text fill="#000000" font-family="sans-serif" font-size="20" lengthAdjust="spacing" textLength="357" x="1635.5" y="299.8145">GET /buildings/:buildingCode/floors</text><polygon fill="#181818" points="1621.5,339.8125,1611.5,343.8125,1621.5,347.8125,1617.5,343.8125" style="stroke:#181818;stroke-width:1.0;"/><line style="stroke:#181818;stroke-width:1.0;stroke-dasharray:2.0,2.0;" x1="1615.5" x2="2008.5" y1="343.8125" y2="343.8125"/><text fill="#000000" font-family="sans-serif" font-size="20" font-weight="bold" lengthAdjust="spacing" textLength="14" x="1627.5" y="337.0957">6</text><text fill="#000000" font-family="sans-serif" font-size="20" lengthAdjust="spacing" textLength="116" x="1645.5" y="337.0957">200 (floors)</text><polygon fill="#181818" points="1203.5,377.0938,1193.5,381.0938,1203.5,385.0938,1199.5,381.0938" style="stroke:#181818;stroke-width:1.0;"/><line style="stroke:#181818;stroke-width:1.0;stroke-dasharray:2.0,2.0;" x1="1197.5" x2="1604.5" y1="381.0938" y2="381.0938"/><text fill="#000000" font-family="sans-serif" font-size="20" font-weight="bold" lengthAdjust="spacing" textLength="14" x="1209.5" y="374.377">7</text><text fill="#000000" font-family="sans-serif" font-size="20" lengthAdjust="spacing" textLength="55" x="1227.5" y="374.377">floors</text><polygon fill="#181818" points="992.5,414.375,982.5,418.375,992.5,422.375,988.5,418.375" style="stroke:#181818;stroke-width:1.0;"/><line style="stroke:#181818;stroke-width:1.0;stroke-dasharray:2.0,2.0;" x1="986.5" x2="1186.5" y1="418.375" y2="418.375"/><text fill="#000000" font-family="sans-serif" font-size="20" font-weight="bold" lengthAdjust="spacing" textLength="14" x="998.5" y="411.6582">8</text><text fill="#000000" font-family="sans-serif" font-size="20" lengthAdjust="spacing" textLength="55" x="1016.5" y="411.6582">floors</text><polygon fill="#181818" points="786.5,451.6563,776.5,455.6563,786.5,459.6563,782.5,455.6563" style="stroke:#181818;stroke-width:1.0;"/><line style="stroke:#181818;stroke-width:1.0;stroke-dasharray:2.0,2.0;" x1="780.5" x2="975.5" y1="455.6563" y2="455.6563"/><text fill="#000000" font-family="sans-serif" font-size="20" font-weight="bold" lengthAdjust="spacing" textLength="14" x="792.5" y="448.9395">9</text><text fill="#000000" font-family="sans-serif" font-size="20" lengthAdjust="spacing" textLength="55" x="810.5" y="448.9395">floors</text><polygon fill="#181818" points="106.5,488.9375,96.5,492.9375,106.5,496.9375,102.5,492.9375" style="stroke:#181818;stroke-width:1.0;"/><line style="stroke:#181818;stroke-width:1.0;stroke-dasharray:2.0,2.0;" x1="100.5" x2="759.5" y1="492.9375" y2="492.9375"/><text fill="#000000" font-family="sans-serif" font-size="20" font-weight="bold" lengthAdjust="spacing" textLength="28" x="112.5" y="486.2207">10</text><text fill="#000000" font-family="sans-serif" font-size="20" lengthAdjust="spacing" textLength="604" x="144.5" y="486.2207">returns all floors served with an elevator for a given building</text><!--SRC=[ZL5DQ-Cm4BthLmpUGvD3I2XxCiPGxFqer6pPP0k5NXHxueh8Kf3ajDjVloFPJfprBkt1HjAyzsRcFRiNwi0DRwGkzrX1XJlUIlTLAxSMRmZNAyPRfrNRRD4mEw0Xxt0RV7KtKjIgGUMIfAG_cZI5xi0OBvqsa1N0BKGPRmwjXO8hNgE9s5Q_GfGazhTrsC0i-vocJ-f1s9PBySQTq2ewIp80wkn4AGvSEPAy3vg_RY7JpK4hWaL0yE7YzUOJMl4Z3xH2Lwt43n3MFny2OOtcACgFCBvlDjre_l1FFAeAQ7SsDM3k7IZotg9csActuDETg9_T8qgfN_xUA-yiddB_svoY4KVkaAnaZ19QfC7Kc7Js5fm6AQo3dTJQMB2qFfeANeHx1fH8HCfrHn-7MXnHmROLiXAg7klUiykRrwSsFeIuap_NwP7v0jMzvp7Kw81BsKzm1bALUGG1WzK1ERjQ3WFOPJmSCrtXikDVpKUpU1vZWUt78UzY-FPb0-zeZ8RD2-PfY_CGrwiLp3hSd5Lu0UrRdLRhvKQeRgAmricWASgl7ZmwPJN5U1zzdCbYqMCCkjOeEpApYxDFawjt0Xs9XqWl7zWV]--></g></svg>