<?xml version="1.0" encoding="UTF-8" standalone="no"?><svg xmlns="http://www.w3.org/2000/svg" xmlns:xlink="http://www.w3.org/1999/xlink" contentStyleType="text/css" height="368px" preserveAspectRatio="none" style="width:759px;height:368px;background:#FFFFFF;" version="1.1" viewBox="0 0 759 368" width="759px" zoomAndPan="magnify"><defs/><g><rect fill="#FFFFFF" height="156.9599" style="stroke:#181818;stroke-width:1.0;" width="10" x="69" y="102.24"/><rect fill="#FFFFFF" height="123.7199" style="stroke:#181818;stroke-width:1.0;" width="10" x="303.625" y="135.4799"/><rect fill="#FFFFFF" height="41.24" style="stroke:#181818;stroke-width:1.0;" width="10" x="534.25" y="176.7199"/><line style="stroke:#181818;stroke-width:0.5;stroke-dasharray:5.0,5.0;" x1="74" x2="74" y1="92.24" y2="277.1999"/><line style="stroke:#181818;stroke-width:0.5;stroke-dasharray:5.0,5.0;" x1="308.625" x2="308.625" y1="92.24" y2="277.1999"/><line style="stroke:#181818;stroke-width:0.5;stroke-dasharray:5.0,5.0;" x1="539.25" x2="539.25" y1="92.24" y2="277.1999"/><line style="stroke:#181818;stroke-width:0.5;stroke-dasharray:5.0,5.0;" x1="685.25" x2="685.25" y1="92.24" y2="277.1999"/><text fill="#000000" font-family="sans-serif" font-size="20" lengthAdjust="spacing" textLength="132" x="5" y="86.38">Fleet Manager</text><ellipse cx="74" cy="13.5" fill="#E2E2F0" rx="8" ry="8" style="stroke:#181818;stroke-width:0.5;"/><path d="M74,21.5 L74,48.5 M61,29.5 L87,29.5 M74,48.5 L61,63.5 M74,48.5 L87,63.5 " fill="none" style="stroke:#181818;stroke-width:0.5;"/><text fill="#000000" font-family="sans-serif" font-size="20" lengthAdjust="spacing" textLength="132" x="5" y="297.5799">Fleet Manager</text><ellipse cx="74" cy="311.9398" fill="#E2E2F0" rx="8" ry="8" style="stroke:#181818;stroke-width:0.5;"/><path d="M74,319.9398 L74,346.9398 M61,327.9398 L87,327.9398 M74,346.9398 L61,361.9398 M74,346.9398 L87,361.9398 " fill="none" style="stroke:#181818;stroke-width:0.5;"/><rect fill="#E2E2F0" height="68.4799" rx="2.5" ry="2.5" style="stroke:#181818;stroke-width:0.5;" width="136" x="240.625" y="22.76"/><text fill="#000000" font-family="sans-serif" font-size="20" font-style="italic" lengthAdjust="spacing" textLength="122" x="247.625" y="51.14">«system (C4)»</text><text fill="#000000" font-family="sans-serif" font-size="20" lengthAdjust="spacing" textLength="116" x="250.625" y="78.38">Visualization</text><rect fill="#E2E2F0" height="68.4799" rx="2.5" ry="2.5" style="stroke:#181818;stroke-width:0.5;" width="136" x="240.625" y="276.1999"/><text fill="#000000" font-family="sans-serif" font-size="20" font-style="italic" lengthAdjust="spacing" textLength="122" x="247.625" y="304.5799">«system (C4)»</text><text fill="#000000" font-family="sans-serif" font-size="20" lengthAdjust="spacing" textLength="116" x="250.625" y="331.8198">Visualization</text><rect fill="#E2E2F0" height="68.4799" rx="2.5" ry="2.5" style="stroke:#181818;stroke-width:0.5;" width="136" x="471.25" y="22.76"/><text fill="#000000" font-family="sans-serif" font-size="20" font-style="italic" lengthAdjust="spacing" textLength="122" x="478.25" y="51.14">«system (C4)»</text><text fill="#000000" font-family="sans-serif" font-size="20" lengthAdjust="spacing" textLength="48" x="515.25" y="78.38">MDD</text><rect fill="#E2E2F0" height="68.4799" rx="2.5" ry="2.5" style="stroke:#181818;stroke-width:0.5;" width="136" x="471.25" y="276.1999"/><text fill="#000000" font-family="sans-serif" font-size="20" font-style="italic" lengthAdjust="spacing" textLength="122" x="478.25" y="304.5799">«system (C4)»</text><text fill="#000000" font-family="sans-serif" font-size="20" lengthAdjust="spacing" textLength="48" x="515.25" y="331.8198">MDD</text><rect fill="#E2E2F0" height="68.4799" rx="2.5" ry="2.5" style="stroke:#181818;stroke-width:0.5;" width="136" x="617.25" y="22.76"/><text fill="#000000" font-family="sans-serif" font-size="20" font-style="italic" lengthAdjust="spacing" textLength="122" x="624.25" y="51.14">«system (C4)»</text><text fill="#000000" font-family="sans-serif" font-size="20" lengthAdjust="spacing" textLength="81" x="644.75" y="78.38">Planning</text><rect fill="#E2E2F0" height="68.4799" rx="2.5" ry="2.5" style="stroke:#181818;stroke-width:0.5;" width="136" x="617.25" y="276.1999"/><text fill="#000000" font-family="sans-serif" font-size="20" font-style="italic" lengthAdjust="spacing" textLength="122" x="624.25" y="304.5799">«system (C4)»</text><text fill="#000000" font-family="sans-serif" font-size="20" lengthAdjust="spacing" textLength="81" x="644.75" y="331.8198">Planning</text><rect fill="#FFFFFF" height="156.9599" style="stroke:#181818;stroke-width:1.0;" width="10" x="69" y="102.24"/><rect fill="#FFFFFF" height="123.7199" style="stroke:#181818;stroke-width:1.0;" width="10" x="303.625" y="135.4799"/><rect fill="#FFFFFF" height="41.24" style="stroke:#181818;stroke-width:1.0;" width="10" x="534.25" y="176.7199"/><polygon fill="#181818" points="291.625,131.4799,301.625,135.4799,291.625,139.4799,295.625,135.4799" style="stroke:#181818;stroke-width:1.0;"/><line style="stroke:#181818;stroke-width:1.0;" x1="79" x2="297.625" y1="135.4799" y2="135.4799"/><text fill="#000000" font-family="sans-serif" font-size="20" font-weight="bold" lengthAdjust="spacing" textLength="11.625" x="86" y="127.62">1</text><text fill="#000000" font-family="sans-serif" font-size="20" lengthAdjust="spacing" textLength="190" x="101.625" y="127.62">asks to list all robots</text><polygon fill="#181818" points="522.25,172.7199,532.25,176.7199,522.25,180.7199,526.25,176.7199" style="stroke:#181818;stroke-width:1.0;"/><line style="stroke:#181818;stroke-width:1.0;" x1="313.625" x2="528.25" y1="176.7199" y2="176.7199"/><text fill="#000000" font-family="sans-serif" font-size="20" font-weight="bold" lengthAdjust="spacing" textLength="11.625" x="320.625" y="168.8599">2</text><text fill="#000000" font-family="sans-serif" font-size="20" lengthAdjust="spacing" textLength="186" x="336.25" y="168.8599">GET /devices/robots</text><polygon fill="#181818" points="324.625,213.9599,314.625,217.9599,324.625,221.9599,320.625,217.9599" style="stroke:#181818;stroke-width:1.0;"/><line style="stroke:#181818;stroke-width:1.0;stroke-dasharray:2.0,2.0;" x1="318.625" x2="538.25" y1="217.9599" y2="217.9599"/><text fill="#000000" font-family="sans-serif" font-size="20" font-weight="bold" lengthAdjust="spacing" textLength="11.625" x="330.625" y="210.0999">3</text><text fill="#000000" font-family="sans-serif" font-size="20" lengthAdjust="spacing" textLength="111" x="346.25" y="210.0999">200 (robots)</text><polygon fill="#181818" points="85,255.1999,75,259.1999,85,263.1999,81,259.1999" style="stroke:#181818;stroke-width:1.0;"/><line style="stroke:#181818;stroke-width:1.0;stroke-dasharray:2.0,2.0;" x1="79" x2="307.625" y1="259.1999" y2="259.1999"/><text fill="#000000" font-family="sans-serif" font-size="20" font-weight="bold" lengthAdjust="spacing" textLength="11.625" x="91" y="251.3399">4</text><text fill="#000000" font-family="sans-serif" font-size="20" lengthAdjust="spacing" textLength="160" x="106.625" y="251.3399">returns all robots</text><!--SRC=[VS_1QiCm383Xkvz2vDGUGaFPgOHSrcRq42XitLrDj2BYoCLM2klJpquPIpVOoGW-YT-XPxcWny6wjgSEElh0qMhjH5_vHh0k38xgP1nEv0sswZpK3M20hBP42WqAdibd9bvHRlc2ed3SJ-ATmuYMRwZi98Eo39z1QO35yzEogXusckrsMedl__0miOD54PRpNviQ-OfACTEOc9fNAMSJr_e0wi1oK41hmRkJq_3ZZtjZeem-nMpWPVS6guwkt59O_SQHcCJox_Fhee35NIrDHmymPPHvVeUUTFGIvWapdYBcS_p45m00]--></g></svg>