<?xml version="1.0" encoding="UTF-8" standalone="no"?><svg xmlns="http://www.w3.org/2000/svg" xmlns:xlink="http://www.w3.org/1999/xlink" contentStyleType="text/css" height="345px" preserveAspectRatio="none" style="width:832px;height:345px;background:#FFFFFF;" version="1.1" viewBox="0 0 832 345" width="832px" zoomAndPan="magnify"><defs/><g><rect fill="#FFFFFF" height="141.125" style="stroke:#181818;stroke-width:1.0;" width="10" x="74.5" y="98.2813"/><rect fill="#FFFFFF" height="111.8438" style="stroke:#181818;stroke-width:1.0;" width="10" x="326.5" y="127.5625"/><rect fill="#FFFFFF" height="37.2813" style="stroke:#181818;stroke-width:1.0;" width="10" x="572.5" y="164.8438"/><line style="stroke:#181818;stroke-width:0.5;stroke-dasharray:5.0,5.0;" x1="79" x2="79" y1="88.2813" y2="257.4063"/><line style="stroke:#181818;stroke-width:0.5;stroke-dasharray:5.0,5.0;" x1="331" x2="331" y1="88.2813" y2="257.4063"/><line style="stroke:#181818;stroke-width:0.5;stroke-dasharray:5.0,5.0;" x1="577" x2="577" y1="88.2813" y2="257.4063"/><line style="stroke:#181818;stroke-width:0.5;stroke-dasharray:5.0,5.0;" x1="746" x2="746" y1="88.2813" y2="257.4063"/><text fill="#000000" font-family="sans-serif" font-size="20" lengthAdjust="spacing" textLength="143" x="5" y="83.5645">Fleet Manager</text><ellipse cx="79.5" cy="13.5" fill="#E2E2F0" rx="8" ry="8" style="stroke:#181818;stroke-width:0.5;"/><path d="M79.5,21.5 L79.5,48.5 M66.5,29.5 L92.5,29.5 M79.5,48.5 L66.5,63.5 M79.5,48.5 L92.5,63.5 " fill="none" style="stroke:#181818;stroke-width:0.5;"/><text fill="#000000" font-family="sans-serif" font-size="20" lengthAdjust="spacing" textLength="143" x="5" y="274.9707">Fleet Manager</text><ellipse cx="79.5" cy="288.1875" fill="#E2E2F0" rx="8" ry="8" style="stroke:#181818;stroke-width:0.5;"/><path d="M79.5,296.1875 L79.5,323.1875 M66.5,304.1875 L92.5,304.1875 M79.5,323.1875 L66.5,338.1875 M79.5,323.1875 L92.5,338.1875 " fill="none" style="stroke:#181818;stroke-width:0.5;"/><rect fill="#E2E2F0" height="60.5625" rx="2.5" ry="2.5" style="stroke:#181818;stroke-width:0.5;" width="159" x="252" y="26.7188"/><text fill="#000000" font-family="sans-serif" font-size="20" font-style="italic" lengthAdjust="spacing" textLength="145" x="259" y="52.2832">«system (C4)»</text><text fill="#000000" font-family="sans-serif" font-size="20" lengthAdjust="spacing" textLength="129" x="267" y="75.5645">Visualization</text><rect fill="#E2E2F0" height="60.5625" rx="2.5" ry="2.5" style="stroke:#181818;stroke-width:0.5;" width="159" x="252" y="256.4063"/><text fill="#000000" font-family="sans-serif" font-size="20" font-style="italic" lengthAdjust="spacing" textLength="145" x="259" y="281.9707">«system (C4)»</text><text fill="#000000" font-family="sans-serif" font-size="20" lengthAdjust="spacing" textLength="129" x="267" y="305.252">Visualization</text><rect fill="#E2E2F0" height="60.5625" rx="2.5" ry="2.5" style="stroke:#181818;stroke-width:0.5;" width="159" x="498" y="26.7188"/><text fill="#000000" font-family="sans-serif" font-size="20" font-style="italic" lengthAdjust="spacing" textLength="145" x="505" y="52.2832">«system (C4)»</text><text fill="#000000" font-family="sans-serif" font-size="20" lengthAdjust="spacing" textLength="47" x="554" y="75.5645">MDD</text><rect fill="#E2E2F0" height="60.5625" rx="2.5" ry="2.5" style="stroke:#181818;stroke-width:0.5;" width="159" x="498" y="256.4063"/><text fill="#000000" font-family="sans-serif" font-size="20" font-style="italic" lengthAdjust="spacing" textLength="145" x="505" y="281.9707">«system (C4)»</text><text fill="#000000" font-family="sans-serif" font-size="20" lengthAdjust="spacing" textLength="47" x="554" y="305.252">MDD</text><rect fill="#E2E2F0" height="60.5625" rx="2.5" ry="2.5" style="stroke:#181818;stroke-width:0.5;" width="159" x="667" y="26.7188"/><text fill="#000000" font-family="sans-serif" font-size="20" font-style="italic" lengthAdjust="spacing" textLength="145" x="674" y="52.2832">«system (C4)»</text><text fill="#000000" font-family="sans-serif" font-size="20" lengthAdjust="spacing" textLength="88" x="702.5" y="75.5645">Planning</text><rect fill="#E2E2F0" height="60.5625" rx="2.5" ry="2.5" style="stroke:#181818;stroke-width:0.5;" width="159" x="667" y="256.4063"/><text fill="#000000" font-family="sans-serif" font-size="20" font-style="italic" lengthAdjust="spacing" textLength="145" x="674" y="281.9707">«system (C4)»</text><text fill="#000000" font-family="sans-serif" font-size="20" lengthAdjust="spacing" textLength="88" x="702.5" y="305.252">Planning</text><rect fill="#FFFFFF" height="141.125" style="stroke:#181818;stroke-width:1.0;" width="10" x="74.5" y="98.2813"/><rect fill="#FFFFFF" height="111.8438" style="stroke:#181818;stroke-width:1.0;" width="10" x="326.5" y="127.5625"/><rect fill="#FFFFFF" height="37.2813" style="stroke:#181818;stroke-width:1.0;" width="10" x="572.5" y="164.8438"/><polygon fill="#181818" points="314.5,123.5625,324.5,127.5625,314.5,131.5625,318.5,127.5625" style="stroke:#181818;stroke-width:1.0;"/><line style="stroke:#181818;stroke-width:1.0;" x1="84.5" x2="320.5" y1="127.5625" y2="127.5625"/><text fill="#000000" font-family="sans-serif" font-size="20" font-weight="bold" lengthAdjust="spacing" textLength="14" x="91.5" y="120.8457">1</text><text fill="#000000" font-family="sans-serif" font-size="20" lengthAdjust="spacing" textLength="205" x="109.5" y="120.8457">asks to list all robots</text><polygon fill="#181818" points="560.5,160.8438,570.5,164.8438,560.5,168.8438,564.5,164.8438" style="stroke:#181818;stroke-width:1.0;"/><line style="stroke:#181818;stroke-width:1.0;" x1="336.5" x2="566.5" y1="164.8438" y2="164.8438"/><text fill="#000000" font-family="sans-serif" font-size="20" font-weight="bold" lengthAdjust="spacing" textLength="14" x="343.5" y="158.127">2</text><text fill="#000000" font-family="sans-serif" font-size="20" lengthAdjust="spacing" textLength="199" x="361.5" y="158.127">GET /devices/robots</text><polygon fill="#181818" points="347.5,198.125,337.5,202.125,347.5,206.125,343.5,202.125" style="stroke:#181818;stroke-width:1.0;"/><line style="stroke:#181818;stroke-width:1.0;stroke-dasharray:2.0,2.0;" x1="341.5" x2="576.5" y1="202.125" y2="202.125"/><text fill="#000000" font-family="sans-serif" font-size="20" font-weight="bold" lengthAdjust="spacing" textLength="14" x="353.5" y="195.4082">3</text><text fill="#000000" font-family="sans-serif" font-size="20" lengthAdjust="spacing" textLength="124" x="371.5" y="195.4082">200 (robots)</text><polygon fill="#181818" points="90.5,235.4063,80.5,239.4063,90.5,243.4063,86.5,239.4063" style="stroke:#181818;stroke-width:1.0;"/><line style="stroke:#181818;stroke-width:1.0;stroke-dasharray:2.0,2.0;" x1="84.5" x2="330.5" y1="239.4063" y2="239.4063"/><text fill="#000000" font-family="sans-serif" font-size="20" font-weight="bold" lengthAdjust="spacing" textLength="14" x="96.5" y="232.6895">4</text><text fill="#000000" font-family="sans-serif" font-size="20" lengthAdjust="spacing" textLength="171" x="114.5" y="232.6895">returns all robots</text><!--SRC=[VS_1QiCm383Xkvz2vDGUGaFPgOHSrcRq42XitLrDj2BYoCLM2klJpquPIpVOoGW-YT-XPxcWny6wjgSEElh0qMhjH5_vHh0k38xgP1nEv0sswZpK3M20hBP42WqAdibd9bvHRlc2ed3SJ-ATmuYMRwZi98Eo39z1QO35yzEogXusckrsMedl__0miOD54PRpNviQ-OfACTEOc9fNAMSJr_e0wi1oK41hmRkJq_3ZZtjZeem-nMpWPVS6guwkt59O_SQHcCJox_Fhee35NIrDHmymPPHvVeUUTFGIvWapdYBcS_p45m00]--></g></svg>