<?xml version="1.0" encoding="UTF-8" standalone="no"?><svg xmlns="http://www.w3.org/2000/svg" xmlns:xlink="http://www.w3.org/1999/xlink" contentStyleType="text/css" height="701px" preserveAspectRatio="none" style="width:1617px;height:701px;background:#FFFFFF;" version="1.1" viewBox="0 0 1617 701" width="1617px" zoomAndPan="magnify"><defs/><g><rect fill="#DDDDDD" height="689.3438" style="stroke:#181818;stroke-width:0.5;" width="956" x="648.5" y="6"/><text fill="#000000" font-family="sans-serif" font-size="20" font-weight="bold" lengthAdjust="spacing" textLength="162" x="1045.5" y="24.5645">«system (C4)»</text><text fill="#000000" font-family="sans-serif" font-size="20" font-weight="bold" lengthAdjust="spacing" textLength="142" x="1055.5" y="47.8457">RobDroneGo</text><rect fill="#FFFFFF" height="470.9375" style="stroke:#181818;stroke-width:1.0;" width="10" x="105.5" y="128.125"/><rect fill="#FFFFFF" height="37.2813" style="stroke:#181818;stroke-width:1.0;" width="10" x="738.5" y="157.4063"/><rect fill="#FFFFFF" height="352.0938" style="stroke:#181818;stroke-width:1.0;" width="10" x="738.5" y="231.9688"/><rect fill="#FFFFFF" height="77.8438" style="stroke:#181818;stroke-width:1.0;" width="10" x="1503.5" y="269.25"/><rect fill="#FFFFFF" height="62.5625" style="stroke:#181818;stroke-width:1.0;" width="10" x="1503.5" y="384.375"/><rect fill="#FFFFFF" height="62.5625" style="stroke:#181818;stroke-width:1.0;" width="10" x="1503.5" y="484.2188"/><rect fill="none" height="307.8125" style="stroke:#000000;stroke-width:1.5;" width="1600.5" x="10" y="284.25"/><line style="stroke:#181818;stroke-width:0.5;stroke-dasharray:5.0,5.0;" x1="110" x2="110" y1="118.125" y2="609.0625"/><line style="stroke:#181818;stroke-width:0.5;stroke-dasharray:5.0,5.0;" x1="743.5" x2="743.5" y1="118.125" y2="609.0625"/><line style="stroke:#181818;stroke-width:0.5;stroke-dasharray:5.0,5.0;" x1="1508.5" x2="1508.5" y1="118.125" y2="609.0625"/><text fill="#000000" font-family="sans-serif" font-size="20" lengthAdjust="spacing" textLength="175" x="20" y="113.4082">Campus Manager</text><ellipse cx="110.5" cy="43.3438" fill="#E2E2F0" rx="8" ry="8" style="stroke:#181818;stroke-width:0.5;"/><path d="M110.5,51.3438 L110.5,78.3438 M97.5,59.3438 L123.5,59.3438 M110.5,78.3438 L97.5,93.3438 M110.5,78.3438 L123.5,93.3438 " fill="none" style="stroke:#181818;stroke-width:0.5;"/><text fill="#000000" font-family="sans-serif" font-size="20" lengthAdjust="spacing" textLength="175" x="20" y="626.627">Campus Manager</text><ellipse cx="110.5" cy="639.8438" fill="#E2E2F0" rx="8" ry="8" style="stroke:#181818;stroke-width:0.5;"/><path d="M110.5,647.8438 L110.5,674.8438 M97.5,655.8438 L123.5,655.8438 M110.5,674.8438 L97.5,689.8438 M110.5,674.8438 L123.5,689.8438 " fill="none" style="stroke:#181818;stroke-width:0.5;"/><rect fill="#E2E2F0" height="60.5625" rx="2.5" ry="2.5" style="stroke:#181818;stroke-width:0.5;" width="182" x="652.5" y="56.5625"/><text fill="#000000" font-family="sans-serif" font-size="20" font-style="italic" lengthAdjust="spacing" textLength="168" x="659.5" y="82.127">«container (C4)»</text><text fill="#000000" font-family="sans-serif" font-size="20" lengthAdjust="spacing" textLength="129" x="679" y="105.4082">Visualization</text><rect fill="#E2E2F0" height="60.5625" rx="2.5" ry="2.5" style="stroke:#181818;stroke-width:0.5;" width="182" x="652.5" y="608.0625"/><text fill="#000000" font-family="sans-serif" font-size="20" font-style="italic" lengthAdjust="spacing" textLength="168" x="659.5" y="633.627">«container (C4)»</text><text fill="#000000" font-family="sans-serif" font-size="20" lengthAdjust="spacing" textLength="129" x="679" y="656.9082">Visualization</text><rect fill="#E2E2F0" height="60.5625" rx="2.5" ry="2.5" style="stroke:#181818;stroke-width:0.5;" width="184" x="1416.5" y="56.5625"/><text fill="#000000" font-family="sans-serif" font-size="20" font-style="italic" lengthAdjust="spacing" textLength="168" x="1424.5" y="82.127">«container (C4)»</text><text fill="#000000" font-family="sans-serif" font-size="20" lengthAdjust="spacing" textLength="170" x="1423.5" y="105.4082">MD Management</text><rect fill="#E2E2F0" height="60.5625" rx="2.5" ry="2.5" style="stroke:#181818;stroke-width:0.5;" width="184" x="1416.5" y="608.0625"/><text fill="#000000" font-family="sans-serif" font-size="20" font-style="italic" lengthAdjust="spacing" textLength="168" x="1424.5" y="633.627">«container (C4)»</text><text fill="#000000" font-family="sans-serif" font-size="20" lengthAdjust="spacing" textLength="170" x="1423.5" y="656.9082">MD Management</text><rect fill="#FFFFFF" height="470.9375" style="stroke:#181818;stroke-width:1.0;" width="10" x="105.5" y="128.125"/><rect fill="#FFFFFF" height="37.2813" style="stroke:#181818;stroke-width:1.0;" width="10" x="738.5" y="157.4063"/><rect fill="#FFFFFF" height="352.0938" style="stroke:#181818;stroke-width:1.0;" width="10" x="738.5" y="231.9688"/><rect fill="#FFFFFF" height="77.8438" style="stroke:#181818;stroke-width:1.0;" width="10" x="1503.5" y="269.25"/><rect fill="#FFFFFF" height="62.5625" style="stroke:#181818;stroke-width:1.0;" width="10" x="1503.5" y="384.375"/><rect fill="#FFFFFF" height="62.5625" style="stroke:#181818;stroke-width:1.0;" width="10" x="1503.5" y="484.2188"/><polygon fill="#181818" points="726.5,153.4063,736.5,157.4063,726.5,161.4063,730.5,157.4063" style="stroke:#181818;stroke-width:1.0;"/><line style="stroke:#181818;stroke-width:1.0;" x1="115.5" x2="732.5" y1="157.4063" y2="157.4063"/><text fill="#000000" font-family="sans-serif" font-size="20" font-weight="bold" lengthAdjust="spacing" textLength="14" x="122.5" y="150.6895">1</text><text fill="#000000" font-family="sans-serif" font-size="20" lengthAdjust="spacing" textLength="449" x="140.5" y="150.6895">wants to list connectors between 2 buildings</text><polygon fill="#181818" points="126.5,190.6875,116.5,194.6875,126.5,198.6875,122.5,194.6875" style="stroke:#181818;stroke-width:1.0;"/><line style="stroke:#181818;stroke-width:1.0;stroke-dasharray:2.0,2.0;" x1="120.5" x2="742.5" y1="194.6875" y2="194.6875"/><text fill="#000000" font-family="sans-serif" font-size="20" font-weight="bold" lengthAdjust="spacing" textLength="14" x="132.5" y="187.9707">2</text><text fill="#000000" font-family="sans-serif" font-size="20" lengthAdjust="spacing" textLength="338" x="150.5" y="187.9707">asks for the buildings 1 &amp; 2 codes</text><polygon fill="#181818" points="726.5,227.9688,736.5,231.9688,726.5,235.9688,730.5,231.9688" style="stroke:#181818;stroke-width:1.0;"/><line style="stroke:#181818;stroke-width:1.0;" x1="115.5" x2="732.5" y1="231.9688" y2="231.9688"/><text fill="#000000" font-family="sans-serif" font-size="20" font-weight="bold" lengthAdjust="spacing" textLength="14" x="122.5" y="225.252">3</text><text fill="#000000" font-family="sans-serif" font-size="20" lengthAdjust="spacing" textLength="157" x="140.5" y="225.252">inserts the data</text><polygon fill="#181818" points="1491.5,265.25,1501.5,269.25,1491.5,273.25,1495.5,269.25" style="stroke:#181818;stroke-width:1.0;"/><line style="stroke:#181818;stroke-width:1.0;" x1="748.5" x2="1497.5" y1="269.25" y2="269.25"/><text fill="#000000" font-family="sans-serif" font-size="20" font-weight="bold" lengthAdjust="spacing" textLength="14" x="755.5" y="262.5332">4</text><text fill="#000000" font-family="sans-serif" font-size="20" lengthAdjust="spacing" textLength="718" x="773.5" y="262.5332">GET /connectors?buildingCodes[]={code1}&amp;buildingCodes[]={code2}</text><path d="M10,284.25 L86,284.25 L86,299.5313 L76,309.5313 L10,309.5313 L10,284.25 " fill="#EEEEEE" style="stroke:#000000;stroke-width:1.5;"/><rect fill="none" height="307.8125" style="stroke:#000000;stroke-width:1.5;" width="1600.5" x="10" y="284.25"/><text fill="#000000" font-family="sans-serif" font-size="20" font-weight="bold" lengthAdjust="spacing" textLength="31" x="25" y="303.8145">alt</text><text fill="#000000" font-family="sans-serif" font-size="20" font-weight="bold" lengthAdjust="spacing" textLength="544" x="101" y="304.8145">[there are connectors between those buildings]</text><polygon fill="#181818" points="759.5,343.0938,749.5,347.0938,759.5,351.0938,755.5,347.0938" style="stroke:#181818;stroke-width:1.0;"/><line style="stroke:#181818;stroke-width:1.0;stroke-dasharray:2.0,2.0;" x1="753.5" x2="1507.5" y1="347.0938" y2="347.0938"/><text fill="#000000" font-family="sans-serif" font-size="20" font-weight="bold" lengthAdjust="spacing" textLength="14" x="765.5" y="340.377">5</text><text fill="#000000" font-family="sans-serif" font-size="20" lengthAdjust="spacing" textLength="74" x="783.5" y="340.377">200 OK</text><polygon fill="#181818" points="126.5,380.375,116.5,384.375,126.5,388.375,122.5,384.375" style="stroke:#181818;stroke-width:1.0;"/><line style="stroke:#181818;stroke-width:1.0;stroke-dasharray:2.0,2.0;" x1="120.5" x2="737.5" y1="384.375" y2="384.375"/><text fill="#000000" font-family="sans-serif" font-size="20" font-weight="bold" lengthAdjust="spacing" textLength="14" x="132.5" y="377.6582">6</text><text fill="#000000" font-family="sans-serif" font-size="20" lengthAdjust="spacing" textLength="137" x="150.5" y="377.6582">shows the list</text><line style="stroke:#000000;stroke-width:1.0;stroke-dasharray:2.0,2.0;" x1="10" x2="1610.5" y1="393.375" y2="393.375"/><text fill="#000000" font-family="sans-serif" font-size="20" font-weight="bold" lengthAdjust="spacing" textLength="360" x="15" y="411.9395">[a building code does not exist]</text><polygon fill="#181818" points="759.5,442.9375,749.5,446.9375,759.5,450.9375,755.5,446.9375" style="stroke:#181818;stroke-width:1.0;"/><line style="stroke:#181818;stroke-width:1.0;stroke-dasharray:2.0,2.0;" x1="753.5" x2="1507.5" y1="446.9375" y2="446.9375"/><text fill="#000000" font-family="sans-serif" font-size="20" font-weight="bold" lengthAdjust="spacing" textLength="14" x="765.5" y="440.2207">7</text><text fill="#000000" font-family="sans-serif" font-size="20" lengthAdjust="spacing" textLength="172" x="783.5" y="440.2207">400 Bad Request</text><polygon fill="#181818" points="126.5,480.2188,116.5,484.2188,126.5,488.2188,122.5,484.2188" style="stroke:#181818;stroke-width:1.0;"/><line style="stroke:#181818;stroke-width:1.0;stroke-dasharray:2.0,2.0;" x1="120.5" x2="737.5" y1="484.2188" y2="484.2188"/><text fill="#000000" font-family="sans-serif" font-size="20" font-weight="bold" lengthAdjust="spacing" textLength="14" x="132.5" y="477.502">8</text><text fill="#000000" font-family="sans-serif" font-size="20" lengthAdjust="spacing" textLength="581" x="150.5" y="477.502">shows error message "One/both buildings does not exist."</text><line style="stroke:#000000;stroke-width:1.0;stroke-dasharray:2.0,2.0;" x1="10" x2="1610.5" y1="493.2188" y2="493.2188"/><text fill="#000000" font-family="sans-serif" font-size="20" font-weight="bold" lengthAdjust="spacing" textLength="589" x="15" y="511.7832">[there are not connectors between those buildings]</text><polygon fill="#181818" points="759.5,542.7813,749.5,546.7813,759.5,550.7813,755.5,546.7813" style="stroke:#181818;stroke-width:1.0;"/><line style="stroke:#181818;stroke-width:1.0;stroke-dasharray:2.0,2.0;" x1="753.5" x2="1507.5" y1="546.7813" y2="546.7813"/><text fill="#000000" font-family="sans-serif" font-size="20" font-weight="bold" lengthAdjust="spacing" textLength="14" x="765.5" y="540.0645">9</text><text fill="#000000" font-family="sans-serif" font-size="20" lengthAdjust="spacing" textLength="74" x="783.5" y="540.0645">200 OK</text><polygon fill="#181818" points="126.5,580.0625,116.5,584.0625,126.5,588.0625,122.5,584.0625" style="stroke:#181818;stroke-width:1.0;"/><line style="stroke:#181818;stroke-width:1.0;stroke-dasharray:2.0,2.0;" x1="120.5" x2="742.5" y1="584.0625" y2="584.0625"/><text fill="#000000" font-family="sans-serif" font-size="20" font-weight="bold" lengthAdjust="spacing" textLength="28" x="132.5" y="577.3457">10</text><text fill="#000000" font-family="sans-serif" font-size="20" lengthAdjust="spacing" textLength="447" x="164.5" y="577.3457">shows message "Could not find connectors."</text><!--SRC=[bLBDRjD04BxlKunygE2GDerwga8GE51LAAfKMYwKmzexILQnTyFEc8IYFX6FmArFnknQgHq8KZduH_OttzyEhQnRww3hofShD61mhfkAttl77-qzmcYeTCFUDNM1GT4E3TCMTuDRVbFPXQlHyNXSoXt3P0BjYrAwP1yWdu4co79Thnk2cNPwWI5Jgl1Ro1v_qdTYhE55VlRoyTUTk_R5D7Y75pw3Zb81Y3BRqgwrOxYzJ9IVB3MwilUQhNS9BiQrTHWItLzZisaQaqVh8je-E8REWDXB2UmtpIWXb98WWqdKFeUDq16mXyeIWymxZ5a92kGDeeCH58sjZ7KBwaXkBnF9U31eMJIj2EPI4I-nmyCf7CbywGsIClZdzCw2TOGXcf1PerdlomX4W9Bq72xUtS19P_7rJYYF0f-_lFeHbKuVZWv-7prqlBEf559nL0m8Mgu3mNdfgHT6Ja2inCJ9osWuXAiFyh6NAz82z7kXfT-qmMAz2YjXr4-SgHam7WcSPy1jn03q-VP5pqJqhJPmZLyRJDXdg6C8SZ0r4icYG7RbyAJmlEmTqxw3uwprsPKJVpshe7yx_v-wdgpclgbCKfzRsUFEWbZSOv8zaKLN_HsJDVyD]--></g></svg>