<?xml version="1.0" encoding="UTF-8" standalone="no"?><svg xmlns="http://www.w3.org/2000/svg" xmlns:xlink="http://www.w3.org/1999/xlink" contentStyleType="text/css" height="591px" preserveAspectRatio="none" style="width:1005px;height:591px;background:#FFFFFF;" version="1.1" viewBox="0 0 1005 591" width="1005px" zoomAndPan="magnify"><defs/><g><rect fill="#DDDDDD" height="579.3457" style="stroke:#181818;stroke-width:0.5;" width="579.5" x="413" y="6"/><text fill="#000000" font-family="sans-serif" font-size="13" font-weight="bold" lengthAdjust="spacing" textLength="88" x="658.75" y="19.897">«system (C4)»</text><text fill="#000000" font-family="sans-serif" font-size="13" font-weight="bold" lengthAdjust="spacing" textLength="83" x="661.25" y="37.603">RobDroneGo</text><rect fill="#FFFFFF" height="384.73" style="stroke:#181818;stroke-width:1.0;" width="10" x="78" y="108.5479"/><rect fill="#FFFFFF" height="31.706" style="stroke:#181818;stroke-width:1.0;" width="10" x="470" y="132.2539"/><rect fill="#FFFFFF" height="282.6119" style="stroke:#181818;stroke-width:1.0;" width="10" x="470" y="195.6659"/><rect fill="#FFFFFF" height="58.412" style="stroke:#181818;stroke-width:1.0;" width="10" x="918" y="227.3719"/><rect fill="#FFFFFF" height="48.6879" style="stroke:#181818;stroke-width:1.0;" width="10" x="918" y="317.49"/><rect fill="#FFFFFF" height="48.6879" style="stroke:#181818;stroke-width:1.0;" width="10" x="918" y="397.8839"/><rect fill="none" height="243.9059" style="stroke:#000000;stroke-width:1.5;" width="988.5" x="10" y="242.3719"/><line style="stroke:#181818;stroke-width:0.5;stroke-dasharray:5.0,5.0;" x1="83" x2="83" y1="98.5479" y2="503.2778"/><line style="stroke:#181818;stroke-width:0.5;stroke-dasharray:5.0,5.0;" x1="475" x2="475" y1="98.5479" y2="503.2778"/><line style="stroke:#181818;stroke-width:0.5;stroke-dasharray:5.0,5.0;" x1="922.5" x2="922.5" y1="98.5479" y2="503.2778"/><text fill="#000000" font-family="sans-serif" font-size="14" lengthAdjust="spacing" textLength="120" x="20" y="94.4459">Campus Manager</text><ellipse cx="83" cy="27.9799" fill="#E2E2F0" rx="8" ry="8" style="stroke:#181818;stroke-width:0.5;"/><path d="M83,35.9799 L83,62.9799 M70,43.9799 L96,43.9799 M83,62.9799 L70,77.9799 M83,62.9799 L96,77.9799 " fill="none" style="stroke:#181818;stroke-width:0.5;"/><text fill="#000000" font-family="sans-serif" font-size="14" lengthAdjust="spacing" textLength="120" x="20" y="517.2438">Campus Manager</text><ellipse cx="83" cy="529.8457" fill="#E2E2F0" rx="8" ry="8" style="stroke:#181818;stroke-width:0.5;"/><path d="M83,537.8457 L83,564.8457 M70,545.8457 L96,545.8457 M83,564.8457 L70,579.8457 M83,564.8457 L96,579.8457 " fill="none" style="stroke:#181818;stroke-width:0.5;"/><rect fill="#E2E2F0" height="52.1358" rx="2.5" ry="2.5" style="stroke:#181818;stroke-width:0.5;" width="116" x="417" y="45.412"/><text fill="#000000" font-family="sans-serif" font-size="14" font-style="italic" lengthAdjust="spacing" textLength="102" x="424" y="67.378">«container (C4)»</text><text fill="#000000" font-family="sans-serif" font-size="14" lengthAdjust="spacing" textLength="85" x="432.5" y="86.4459">Visualization</text><rect fill="#E2E2F0" height="52.1358" rx="2.5" ry="2.5" style="stroke:#181818;stroke-width:0.5;" width="116" x="417" y="502.2778"/><text fill="#000000" font-family="sans-serif" font-size="14" font-style="italic" lengthAdjust="spacing" textLength="102" x="424" y="524.2438">«container (C4)»</text><text fill="#000000" font-family="sans-serif" font-size="14" lengthAdjust="spacing" textLength="85" x="432.5" y="543.3117">Visualization</text><rect fill="#E2E2F0" height="52.1358" rx="2.5" ry="2.5" style="stroke:#181818;stroke-width:0.5;" width="131" x="857.5" y="45.412"/><text fill="#000000" font-family="sans-serif" font-size="14" font-style="italic" lengthAdjust="spacing" textLength="102" x="872" y="67.378">«container (C4)»</text><text fill="#000000" font-family="sans-serif" font-size="14" lengthAdjust="spacing" textLength="117" x="864.5" y="86.4459">MD Management</text><rect fill="#E2E2F0" height="52.1358" rx="2.5" ry="2.5" style="stroke:#181818;stroke-width:0.5;" width="131" x="857.5" y="502.2778"/><text fill="#000000" font-family="sans-serif" font-size="14" font-style="italic" lengthAdjust="spacing" textLength="102" x="872" y="524.2438">«container (C4)»</text><text fill="#000000" font-family="sans-serif" font-size="14" lengthAdjust="spacing" textLength="117" x="864.5" y="543.3117">MD Management</text><rect fill="#FFFFFF" height="384.73" style="stroke:#181818;stroke-width:1.0;" width="10" x="78" y="108.5479"/><rect fill="#FFFFFF" height="31.706" style="stroke:#181818;stroke-width:1.0;" width="10" x="470" y="132.2539"/><rect fill="#FFFFFF" height="282.6119" style="stroke:#181818;stroke-width:1.0;" width="10" x="470" y="195.6659"/><rect fill="#FFFFFF" height="58.412" style="stroke:#181818;stroke-width:1.0;" width="10" x="918" y="227.3719"/><rect fill="#FFFFFF" height="48.6879" style="stroke:#181818;stroke-width:1.0;" width="10" x="918" y="317.49"/><rect fill="#FFFFFF" height="48.6879" style="stroke:#181818;stroke-width:1.0;" width="10" x="918" y="397.8839"/><polygon fill="#181818" points="458,128.2539,468,132.2539,458,136.2539,462,132.2539" style="stroke:#181818;stroke-width:1.0;"/><line style="stroke:#181818;stroke-width:1.0;" x1="88" x2="464" y1="132.2539" y2="132.2539"/><text fill="#000000" font-family="sans-serif" font-size="13" font-weight="bold" lengthAdjust="spacing" textLength="7" x="95" y="126.4449">1</text><text fill="#000000" font-family="sans-serif" font-size="13" lengthAdjust="spacing" textLength="265" x="106" y="126.4449">wants to list connectors between 2 buildings</text><polygon fill="#181818" points="99,159.9599,89,163.9599,99,167.9599,95,163.9599" style="stroke:#181818;stroke-width:1.0;"/><line style="stroke:#181818;stroke-width:1.0;stroke-dasharray:2.0,2.0;" x1="93" x2="474" y1="163.9599" y2="163.9599"/><text fill="#000000" font-family="sans-serif" font-size="13" font-weight="bold" lengthAdjust="spacing" textLength="7" x="105" y="158.1509">2</text><text fill="#000000" font-family="sans-serif" font-size="13" lengthAdjust="spacing" textLength="198" x="116" y="158.1509">asks for the buildings 1 &amp; 2 codes</text><polygon fill="#181818" points="458,191.6659,468,195.6659,458,199.6659,462,195.6659" style="stroke:#181818;stroke-width:1.0;"/><line style="stroke:#181818;stroke-width:1.0;" x1="88" x2="464" y1="195.6659" y2="195.6659"/><text fill="#000000" font-family="sans-serif" font-size="13" font-weight="bold" lengthAdjust="spacing" textLength="7" x="95" y="189.8569">3</text><text fill="#000000" font-family="sans-serif" font-size="13" lengthAdjust="spacing" textLength="93" x="106" y="189.8569">inserts the data</text><polygon fill="#181818" points="906,223.3719,916,227.3719,906,231.3719,910,227.3719" style="stroke:#181818;stroke-width:1.0;"/><line style="stroke:#181818;stroke-width:1.0;" x1="480" x2="912" y1="227.3719" y2="227.3719"/><text fill="#000000" font-family="sans-serif" font-size="13" font-weight="bold" lengthAdjust="spacing" textLength="7" x="487" y="221.5629">4</text><text fill="#000000" font-family="sans-serif" font-size="13" lengthAdjust="spacing" textLength="408" x="498" y="221.5629">GET /connectors?buildingCodes[]={code1}&amp;buildingCodes[]={code2}</text><path d="M10,242.3719 L73,242.3719 L73,252.0779 L63,262.0779 L10,262.0779 L10,242.3719 " fill="#EEEEEE" style="stroke:#000000;stroke-width:1.5;"/><rect fill="none" height="243.9059" style="stroke:#000000;stroke-width:1.5;" width="988.5" x="10" y="242.3719"/><text fill="#000000" font-family="sans-serif" font-size="13" font-weight="bold" lengthAdjust="spacing" textLength="18" x="25" y="257.2689">alt</text><text fill="#000000" font-family="sans-serif" font-size="11" font-weight="bold" lengthAdjust="spacing" textLength="264" x="88" y="256.1308">[there are connectors between those buildings]</text><polygon fill="#181818" points="491,281.784,481,285.784,491,289.784,487,285.784" style="stroke:#181818;stroke-width:1.0;"/><line style="stroke:#181818;stroke-width:1.0;stroke-dasharray:2.0,2.0;" x1="485" x2="922" y1="285.784" y2="285.784"/><text fill="#000000" font-family="sans-serif" font-size="13" font-weight="bold" lengthAdjust="spacing" textLength="7" x="497" y="279.975">5</text><text fill="#000000" font-family="sans-serif" font-size="13" lengthAdjust="spacing" textLength="42" x="508" y="279.975">200 OK</text><polygon fill="#181818" points="99,313.49,89,317.49,99,321.49,95,317.49" style="stroke:#181818;stroke-width:1.0;"/><line style="stroke:#181818;stroke-width:1.0;stroke-dasharray:2.0,2.0;" x1="93" x2="469" y1="317.49" y2="317.49"/><text fill="#000000" font-family="sans-serif" font-size="13" font-weight="bold" lengthAdjust="spacing" textLength="7" x="105" y="311.681">6</text><text fill="#000000" font-family="sans-serif" font-size="13" lengthAdjust="spacing" textLength="81" x="116" y="311.681">shows the list</text><line style="stroke:#000000;stroke-width:1.0;stroke-dasharray:2.0,2.0;" x1="10" x2="998.5" y1="326.49" y2="326.49"/><text fill="#000000" font-family="sans-serif" font-size="11" font-weight="bold" lengthAdjust="spacing" textLength="172" x="15" y="338.2489">[a building code does not exist]</text><polygon fill="#181818" points="491,362.1779,481,366.1779,491,370.1779,487,366.1779" style="stroke:#181818;stroke-width:1.0;"/><line style="stroke:#181818;stroke-width:1.0;stroke-dasharray:2.0,2.0;" x1="485" x2="922" y1="366.1779" y2="366.1779"/><text fill="#000000" font-family="sans-serif" font-size="13" font-weight="bold" lengthAdjust="spacing" textLength="7" x="497" y="360.3689">7</text><text fill="#000000" font-family="sans-serif" font-size="13" lengthAdjust="spacing" textLength="99" x="508" y="360.3689">400 Bad Request</text><polygon fill="#181818" points="99,393.8839,89,397.8839,99,401.8839,95,397.8839" style="stroke:#181818;stroke-width:1.0;"/><line style="stroke:#181818;stroke-width:1.0;stroke-dasharray:2.0,2.0;" x1="93" x2="469" y1="397.8839" y2="397.8839"/><text fill="#000000" font-family="sans-serif" font-size="13" font-weight="bold" lengthAdjust="spacing" textLength="7" x="105" y="392.0749">8</text><text fill="#000000" font-family="sans-serif" font-size="13" lengthAdjust="spacing" textLength="347" x="116" y="392.0749">shows error message "One/both buildings does not exist."</text><line style="stroke:#000000;stroke-width:1.0;stroke-dasharray:2.0,2.0;" x1="10" x2="998.5" y1="406.8839" y2="406.8839"/><text fill="#000000" font-family="sans-serif" font-size="11" font-weight="bold" lengthAdjust="spacing" textLength="286" x="15" y="418.6428">[there are not connectors between those buildings]</text><polygon fill="#181818" points="491,442.5718,481,446.5718,491,450.5718,487,446.5718" style="stroke:#181818;stroke-width:1.0;"/><line style="stroke:#181818;stroke-width:1.0;stroke-dasharray:2.0,2.0;" x1="485" x2="922" y1="446.5718" y2="446.5718"/><text fill="#000000" font-family="sans-serif" font-size="13" font-weight="bold" lengthAdjust="spacing" textLength="7" x="497" y="440.7628">9</text><text fill="#000000" font-family="sans-serif" font-size="13" lengthAdjust="spacing" textLength="42" x="508" y="440.7628">200 OK</text><polygon fill="#181818" points="99,474.2778,89,478.2778,99,482.2778,95,478.2778" style="stroke:#181818;stroke-width:1.0;"/><line style="stroke:#181818;stroke-width:1.0;stroke-dasharray:2.0,2.0;" x1="93" x2="474" y1="478.2778" y2="478.2778"/><text fill="#000000" font-family="sans-serif" font-size="13" font-weight="bold" lengthAdjust="spacing" textLength="14" x="105" y="472.4688">10</text><text fill="#000000" font-family="sans-serif" font-size="13" lengthAdjust="spacing" textLength="265" x="123" y="472.4688">shows message "Could not find connectors."</text><!--MD5=[10b8255a1d9c32bd146feac1a3bdbffa]
@startuml process-view
autonumber
skinparam DefaultTextAlignment<<center>> center

actor CM as "Campus Manager"

box "«system (C4)»\nRobDroneGo" <<center>>
  participant UI as "Visualization" <<container (C4)>>
  participant MD as "MD Management" <<container (C4)>>
end box

activate CM

CM -> UI : wants to list connectors between 2 buildings
activate UI

CM <- - UI : asks for the buildings 1 & 2 codes
deactivate UI

CM -> UI : inserts the data
activate UI

UI -> MD : GET /connectors?buildingCodes[]={code1}&buildingCodes[]={code2}
activate MD

alt there are connectors between those buildings
  UI <- - MD : 200 OK
  deactivate MD

  CM <- - UI : shows the list
else a building code does not exist
  activate MD
  UI <- - MD : 400 Bad Request
  deactivate MD

  CM <- - UI : shows error message "One/both buildings does not exist."
else there are not connectors between those buildings
  activate MD
  UI <- - MD : 200 OK
  deactivate MD

  CM <- - UI : shows message "Could not find connectors."
  deactivate UI
end

deactivate CM

@enduml

PlantUML version 1.2022.7(Mon Aug 22 18:01:30 WEST 2022)
(GPL source distribution)
Java Runtime: OpenJDK Runtime Environment
JVM: OpenJDK 64-Bit Server VM
Default Encoding: UTF-8
Language: en
Country: GB
--></g></svg>