<?xml version="1.0" encoding="UTF-8" standalone="no"?><svg xmlns="http://www.w3.org/2000/svg" xmlns:xlink="http://www.w3.org/1999/xlink" contentStyleType="text/css" height="776px" preserveAspectRatio="none" style="width:1482px;height:776px;background:#FFFFFF;" version="1.1" viewBox="0 0 1482 776" width="1482px" zoomAndPan="magnify"><defs/><g><rect fill="#DDDDDD" height="764.5595" style="stroke:#181818;stroke-width:0.5;" width="857.125" x="612.625" y="6"/><text fill="#000000" font-family="sans-serif" font-size="20" font-weight="bold" lengthAdjust="spacing" textLength="135.5" x="973.4375" y="27.38">«system (C4)»</text><text fill="#000000" font-family="sans-serif" font-size="20" font-weight="bold" lengthAdjust="spacing" textLength="127.25" x="977.5625" y="54.62">RobDroneGo</text><rect fill="#FFFFFF" height="526.3596" style="stroke:#181818;stroke-width:1.0;" width="10" x="100.5" y="143.9599"/><rect fill="#FFFFFF" height="41.24" style="stroke:#181818;stroke-width:1.0;" width="10" x="691.125" y="177.1999"/><rect fill="#FFFFFF" height="395.6397" style="stroke:#181818;stroke-width:1.0;" width="10" x="691.125" y="259.6798"/><rect fill="#FFFFFF" height="89.7199" style="stroke:#181818;stroke-width:1.0;" width="10" x="1372.75" y="300.9198"/><rect fill="#FFFFFF" height="70.4799" style="stroke:#181818;stroke-width:1.0;" width="10" x="1372.75" y="431.8797"/><rect fill="#FFFFFF" height="70.4799" style="stroke:#181818;stroke-width:1.0;" width="10" x="1372.75" y="543.5996"/><rect fill="none" height="347.3997" style="stroke:#000000;stroke-width:1.5;" width="1465.75" x="10" y="315.9198"/><line style="stroke:#181818;stroke-width:0.5;stroke-dasharray:5.0,5.0;" x1="105" x2="105" y1="133.9599" y2="680.3195"/><line style="stroke:#181818;stroke-width:0.5;stroke-dasharray:5.0,5.0;" x1="695.625" x2="695.625" y1="133.9599" y2="680.3195"/><line style="stroke:#181818;stroke-width:0.5;stroke-dasharray:5.0,5.0;" x1="1377.75" x2="1377.75" y1="133.9599" y2="680.3195"/><text fill="#000000" font-family="sans-serif" font-size="20" lengthAdjust="spacing" textLength="165" x="20" y="128.0999">Campus Manager</text><ellipse cx="105.5" cy="55.2199" fill="#E2E2F0" rx="8" ry="8" style="stroke:#181818;stroke-width:0.5;"/><path d="M105.5,63.2199 L105.5,90.2199 M92.5,71.2199 L118.5,71.2199 M105.5,90.2199 L92.5,105.2199 M105.5,90.2199 L118.5,105.2199 " fill="none" style="stroke:#181818;stroke-width:0.5;"/><text fill="#000000" font-family="sans-serif" font-size="20" lengthAdjust="spacing" textLength="165" x="20" y="700.6995">Campus Manager</text><ellipse cx="105.5" cy="715.0595" fill="#E2E2F0" rx="8" ry="8" style="stroke:#181818;stroke-width:0.5;"/><path d="M105.5,723.0595 L105.5,750.0595 M92.5,731.0595 L118.5,731.0595 M105.5,750.0595 L92.5,765.0595 M105.5,750.0595 L118.5,765.0595 " fill="none" style="stroke:#181818;stroke-width:0.5;"/><rect fill="#E2E2F0" height="68.4799" rx="2.5" ry="2.5" style="stroke:#181818;stroke-width:0.5;" width="159" x="616.625" y="64.4799"/><text fill="#000000" font-family="sans-serif" font-size="20" font-style="italic" lengthAdjust="spacing" textLength="145" x="623.625" y="92.8599">«container (C4)»</text><text fill="#000000" font-family="sans-serif" font-size="20" lengthAdjust="spacing" textLength="116" x="638.125" y="120.0999">Visualization</text><rect fill="#E2E2F0" height="68.4799" rx="2.5" ry="2.5" style="stroke:#181818;stroke-width:0.5;" width="159" x="616.625" y="679.3195"/><text fill="#000000" font-family="sans-serif" font-size="20" font-style="italic" lengthAdjust="spacing" textLength="145" x="623.625" y="707.6995">«container (C4)»</text><text fill="#000000" font-family="sans-serif" font-size="20" lengthAdjust="spacing" textLength="116" x="638.125" y="734.9395">Visualization</text><rect fill="#E2E2F0" height="68.4799" rx="2.5" ry="2.5" style="stroke:#181818;stroke-width:0.5;" width="176" x="1289.75" y="64.4799"/><text fill="#000000" font-family="sans-serif" font-size="20" font-style="italic" lengthAdjust="spacing" textLength="145" x="1305.25" y="92.8599">«container (C4)»</text><text fill="#000000" font-family="sans-serif" font-size="20" lengthAdjust="spacing" textLength="162" x="1296.75" y="120.0999">MD Management</text><rect fill="#E2E2F0" height="68.4799" rx="2.5" ry="2.5" style="stroke:#181818;stroke-width:0.5;" width="176" x="1289.75" y="679.3195"/><text fill="#000000" font-family="sans-serif" font-size="20" font-style="italic" lengthAdjust="spacing" textLength="145" x="1305.25" y="707.6995">«container (C4)»</text><text fill="#000000" font-family="sans-serif" font-size="20" lengthAdjust="spacing" textLength="162" x="1296.75" y="734.9395">MD Management</text><rect fill="#FFFFFF" height="526.3596" style="stroke:#181818;stroke-width:1.0;" width="10" x="100.5" y="143.9599"/><rect fill="#FFFFFF" height="41.24" style="stroke:#181818;stroke-width:1.0;" width="10" x="691.125" y="177.1999"/><rect fill="#FFFFFF" height="395.6397" style="stroke:#181818;stroke-width:1.0;" width="10" x="691.125" y="259.6798"/><rect fill="#FFFFFF" height="89.7199" style="stroke:#181818;stroke-width:1.0;" width="10" x="1372.75" y="300.9198"/><rect fill="#FFFFFF" height="70.4799" style="stroke:#181818;stroke-width:1.0;" width="10" x="1372.75" y="431.8797"/><rect fill="#FFFFFF" height="70.4799" style="stroke:#181818;stroke-width:1.0;" width="10" x="1372.75" y="543.5996"/><polygon fill="#181818" points="679.125,173.1999,689.125,177.1999,679.125,181.1999,683.125,177.1999" style="stroke:#181818;stroke-width:1.0;"/><line style="stroke:#181818;stroke-width:1.0;" x1="110.5" x2="685.125" y1="177.1999" y2="177.1999"/><text fill="#000000" font-family="sans-serif" font-size="20" font-weight="bold" lengthAdjust="spacing" textLength="11.625" x="117.5" y="169.3399">1</text><text fill="#000000" font-family="sans-serif" font-size="20" lengthAdjust="spacing" textLength="412" x="133.125" y="169.3399">wants to list connectors between 2 buildings</text><polygon fill="#181818" points="121.5,214.4398,111.5,218.4398,121.5,222.4398,117.5,218.4398" style="stroke:#181818;stroke-width:1.0;"/><line style="stroke:#181818;stroke-width:1.0;stroke-dasharray:2.0,2.0;" x1="115.5" x2="695.125" y1="218.4398" y2="218.4398"/><text fill="#000000" font-family="sans-serif" font-size="20" font-weight="bold" lengthAdjust="spacing" textLength="11.625" x="127.5" y="210.5799">2</text><text fill="#000000" font-family="sans-serif" font-size="20" lengthAdjust="spacing" textLength="311" x="143.125" y="210.5799">asks for the buildings 1 &amp; 2 codes</text><polygon fill="#181818" points="679.125,255.6798,689.125,259.6798,679.125,263.6798,683.125,259.6798" style="stroke:#181818;stroke-width:1.0;"/><line style="stroke:#181818;stroke-width:1.0;" x1="110.5" x2="685.125" y1="259.6798" y2="259.6798"/><text fill="#000000" font-family="sans-serif" font-size="20" font-weight="bold" lengthAdjust="spacing" textLength="11.625" x="117.5" y="251.8198">3</text><text fill="#000000" font-family="sans-serif" font-size="20" lengthAdjust="spacing" textLength="144" x="133.125" y="251.8198">inserts the data</text><polygon fill="#181818" points="1360.75,296.9198,1370.75,300.9198,1360.75,304.9198,1364.75,300.9198" style="stroke:#181818;stroke-width:1.0;"/><line style="stroke:#181818;stroke-width:1.0;" x1="701.125" x2="1366.75" y1="300.9198" y2="300.9198"/><text fill="#000000" font-family="sans-serif" font-size="20" font-weight="bold" lengthAdjust="spacing" textLength="11.625" x="708.125" y="293.0598">4</text><text fill="#000000" font-family="sans-serif" font-size="20" lengthAdjust="spacing" textLength="637" x="723.75" y="293.0598">GET /connectors?buildingCodes[]={code1}&amp;buildingCodes[]={code2}</text><path d="M10,315.9198 L79.875,315.9198 L79.875,335.1598 L69.875,345.1598 L10,345.1598 L10,315.9198 " fill="#EEEEEE" style="stroke:#000000;stroke-width:1.5;"/><rect fill="none" height="347.3997" style="stroke:#000000;stroke-width:1.5;" width="1465.75" x="10" y="315.9198"/><text fill="#000000" font-family="sans-serif" font-size="20" font-weight="bold" lengthAdjust="spacing" textLength="24.875" x="25" y="338.2998">alt</text><text fill="#000000" font-family="sans-serif" font-size="20" font-weight="bold" lengthAdjust="spacing" textLength="464.625" x="94.875" y="339.2998">[there are connectors between those buildings]</text><polygon fill="#181818" points="712.125,386.6397,702.125,390.6397,712.125,394.6397,708.125,390.6397" style="stroke:#181818;stroke-width:1.0;"/><line style="stroke:#181818;stroke-width:1.0;stroke-dasharray:2.0,2.0;" x1="706.125" x2="1376.75" y1="390.6397" y2="390.6397"/><text fill="#000000" font-family="sans-serif" font-size="20" font-weight="bold" lengthAdjust="spacing" textLength="11.625" x="718.125" y="382.7797">5</text><text fill="#000000" font-family="sans-serif" font-size="20" lengthAdjust="spacing" textLength="66" x="733.75" y="382.7797">200 OK</text><polygon fill="#181818" points="121.5,427.8797,111.5,431.8797,121.5,435.8797,117.5,431.8797" style="stroke:#181818;stroke-width:1.0;"/><line style="stroke:#181818;stroke-width:1.0;stroke-dasharray:2.0,2.0;" x1="115.5" x2="690.125" y1="431.8797" y2="431.8797"/><text fill="#000000" font-family="sans-serif" font-size="20" font-weight="bold" lengthAdjust="spacing" textLength="11.625" x="127.5" y="424.0197">6</text><text fill="#000000" font-family="sans-serif" font-size="20" lengthAdjust="spacing" textLength="127" x="143.125" y="424.0197">shows the list</text><line style="stroke:#000000;stroke-width:1.0;stroke-dasharray:2.0,2.0;" x1="10" x2="1475.75" y1="440.8797" y2="440.8797"/><text fill="#000000" font-family="sans-serif" font-size="20" font-weight="bold" lengthAdjust="spacing" textLength="306.875" x="15" y="462.2597">[a building code does not exist]</text><polygon fill="#181818" points="712.125,498.3596,702.125,502.3596,712.125,506.3596,708.125,502.3596" style="stroke:#181818;stroke-width:1.0;"/><line style="stroke:#181818;stroke-width:1.0;stroke-dasharray:2.0,2.0;" x1="706.125" x2="1376.75" y1="502.3596" y2="502.3596"/><text fill="#000000" font-family="sans-serif" font-size="20" font-weight="bold" lengthAdjust="spacing" textLength="11.625" x="718.125" y="494.4997">7</text><text fill="#000000" font-family="sans-serif" font-size="20" lengthAdjust="spacing" textLength="154" x="733.75" y="494.4997">400 Bad Request</text><polygon fill="#181818" points="121.5,539.5996,111.5,543.5996,121.5,547.5996,117.5,543.5996" style="stroke:#181818;stroke-width:1.0;"/><line style="stroke:#181818;stroke-width:1.0;stroke-dasharray:2.0,2.0;" x1="115.5" x2="690.125" y1="543.5996" y2="543.5996"/><text fill="#000000" font-family="sans-serif" font-size="20" font-weight="bold" lengthAdjust="spacing" textLength="11.625" x="127.5" y="535.7396">8</text><text fill="#000000" font-family="sans-serif" font-size="20" lengthAdjust="spacing" textLength="541" x="143.125" y="535.7396">shows error message "One/both buildings does not exist."</text><line style="stroke:#000000;stroke-width:1.0;stroke-dasharray:2.0,2.0;" x1="10" x2="1475.75" y1="552.5996" y2="552.5996"/><text fill="#000000" font-family="sans-serif" font-size="20" font-weight="bold" lengthAdjust="spacing" textLength="502.5" x="15" y="573.9796">[there are not connectors between those buildings]</text><polygon fill="#181818" points="712.125,610.0796,702.125,614.0796,712.125,618.0796,708.125,614.0796" style="stroke:#181818;stroke-width:1.0;"/><line style="stroke:#181818;stroke-width:1.0;stroke-dasharray:2.0,2.0;" x1="706.125" x2="1376.75" y1="614.0796" y2="614.0796"/><text fill="#000000" font-family="sans-serif" font-size="20" font-weight="bold" lengthAdjust="spacing" textLength="11.625" x="718.125" y="606.2196">9</text><text fill="#000000" font-family="sans-serif" font-size="20" lengthAdjust="spacing" textLength="66" x="733.75" y="606.2196">200 OK</text><polygon fill="#181818" points="121.5,651.3195,111.5,655.3195,121.5,659.3195,117.5,655.3195" style="stroke:#181818;stroke-width:1.0;"/><line style="stroke:#181818;stroke-width:1.0;stroke-dasharray:2.0,2.0;" x1="115.5" x2="695.125" y1="655.3195" y2="655.3195"/><text fill="#000000" font-family="sans-serif" font-size="20" font-weight="bold" lengthAdjust="spacing" textLength="23.25" x="127.5" y="647.4596">10</text><text fill="#000000" font-family="sans-serif" font-size="20" lengthAdjust="spacing" textLength="415" x="154.75" y="647.4596">shows message "Could not find connectors."</text><!--SRC=[bLBDRjD04BxlKunygE2GDerwga8GE51LAAfKMYwKmzexILQnTyFEc8IYFX6FmArFnknQgHq8KZduH_OttzyEhQnRww3hofShD61mhfkAttl77-qzmcYeTCFUDNM1GT4E3TCMTuDRVbFPXQlHyNXSoXt3P0BjYrAwP1yWdu4co79Thnk2cNPwWI5Jgl1Ro1v_qdTYhE55VlRoyTUTk_R5D7Y75pw3Zb81Y3BRqgwrOxYzJ9IVB3MwilUQhNS9BiQrTHWItLzZisaQaqVh8je-E8REWDXB2UmtpIWXb98WWqdKFeUDq16mXyeIWymxZ5a92kGDeeCH58sjZ7KBwaXkBnF9U31eMJIj2EPI4I-nmyCf7CbywGsIClZdzCw2TOGXcf1PerdlomX4W9Bq72xUtS19P_7rJYYF0f-_lFeHbKuVZWv-7prqlBEf559nL0m8Mgu3mNdfgHT6Ja2inCJ9osWuXAiFyh6NAz82z7kXfT-qmMAz2YjXr4-SgHam7WcSPy1jn03q-VP5pqJqhJPmZLyRJDXdg6C8SZ0r4icYG7RbyAJmlEmTqxw3uwprsPKJVpshe7yx_v-wdgpclgbCKfzRsUFEWbZSOv8zaKLN_HsJDVyD]--></g></svg>