<?xml version="1.0" encoding="UTF-8" standalone="no"?><svg xmlns="http://www.w3.org/2000/svg" xmlns:xlink="http://www.w3.org/1999/xlink" contentStyleType="text/css" height="419px" preserveAspectRatio="none" style="width:1449px;height:419px;background:#FFFFFF;" version="1.1" viewBox="0 0 1449 419" width="1449px" zoomAndPan="magnify"><defs/><g><rect fill="#FFFFFF" height="215.6875" style="stroke:#181818;stroke-width:1.0;" width="10" x="72" y="98.2813"/><rect fill="#FFFFFF" height="37.2813" style="stroke:#181818;stroke-width:1.0;" width="10" x="702" y="127.5625"/><rect fill="#FFFFFF" height="111.8438" style="stroke:#181818;stroke-width:1.0;" width="10" x="702" y="202.125"/><rect fill="#FFFFFF" height="37.2813" style="stroke:#181818;stroke-width:1.0;" width="10" x="927.5" y="239.4063"/><line style="stroke:#181818;stroke-width:0.5;stroke-dasharray:5.0,5.0;" x1="77" x2="77" y1="88.2813" y2="331.9688"/><line style="stroke:#181818;stroke-width:0.5;stroke-dasharray:5.0,5.0;" x1="706.5" x2="706.5" y1="88.2813" y2="331.9688"/><line style="stroke:#181818;stroke-width:0.5;stroke-dasharray:5.0,5.0;" x1="932.5" x2="932.5" y1="88.2813" y2="331.9688"/><line style="stroke:#181818;stroke-width:0.5;stroke-dasharray:5.0,5.0;" x1="1176.5" x2="1176.5" y1="88.2813" y2="331.9688"/><line style="stroke:#181818;stroke-width:0.5;stroke-dasharray:5.0,5.0;" x1="1363.5" x2="1363.5" y1="88.2813" y2="331.9688"/><text fill="#000000" font-family="sans-serif" font-size="20" lengthAdjust="spacing" textLength="138" x="5" y="83.5645">Administrator</text><ellipse cx="77" cy="13.5" fill="#E2E2F0" rx="8" ry="8" style="stroke:#181818;stroke-width:0.5;"/><path d="M77,21.5 L77,48.5 M64,29.5 L90,29.5 M77,48.5 L64,63.5 M77,48.5 L90,63.5 " fill="none" style="stroke:#181818;stroke-width:0.5;"/><text fill="#000000" font-family="sans-serif" font-size="20" lengthAdjust="spacing" textLength="138" x="5" y="349.5332">Administrator</text><ellipse cx="77" cy="362.75" fill="#E2E2F0" rx="8" ry="8" style="stroke:#181818;stroke-width:0.5;"/><path d="M77,370.75 L77,397.75 M64,378.75 L90,378.75 M77,397.75 L64,412.75 M77,397.75 L90,412.75 " fill="none" style="stroke:#181818;stroke-width:0.5;"/><rect fill="#E2E2F0" height="60.5625" rx="2.5" ry="2.5" style="stroke:#181818;stroke-width:0.5;" width="159" x="627.5" y="26.7188"/><text fill="#000000" font-family="sans-serif" font-size="20" font-style="italic" lengthAdjust="spacing" textLength="145" x="634.5" y="52.2832">«system (C4)»</text><text fill="#000000" font-family="sans-serif" font-size="20" lengthAdjust="spacing" textLength="129" x="642.5" y="75.5645">Visualization</text><rect fill="#E2E2F0" height="60.5625" rx="2.5" ry="2.5" style="stroke:#181818;stroke-width:0.5;" width="159" x="627.5" y="330.9688"/><text fill="#000000" font-family="sans-serif" font-size="20" font-style="italic" lengthAdjust="spacing" textLength="145" x="634.5" y="356.5332">«system (C4)»</text><text fill="#000000" font-family="sans-serif" font-size="20" lengthAdjust="spacing" textLength="129" x="642.5" y="379.8145">Visualization</text><rect fill="#E2E2F0" height="60.5625" rx="2.5" ry="2.5" style="stroke:#181818;stroke-width:0.5;" width="272" x="796.5" y="26.7188"/><text fill="#000000" font-family="sans-serif" font-size="20" font-style="italic" lengthAdjust="spacing" textLength="145" x="860" y="52.2832">«system (C4)»</text><text fill="#000000" font-family="sans-serif" font-size="20" lengthAdjust="spacing" textLength="258" x="803.5" y="75.5645">Management Master Data</text><rect fill="#E2E2F0" height="60.5625" rx="2.5" ry="2.5" style="stroke:#181818;stroke-width:0.5;" width="272" x="796.5" y="330.9688"/><text fill="#000000" font-family="sans-serif" font-size="20" font-style="italic" lengthAdjust="spacing" textLength="145" x="860" y="356.5332">«system (C4)»</text><text fill="#000000" font-family="sans-serif" font-size="20" lengthAdjust="spacing" textLength="258" x="803.5" y="379.8145">Management Master Data</text><rect fill="#E2E2F0" height="60.5625" rx="2.5" ry="2.5" style="stroke:#181818;stroke-width:0.5;" width="196" x="1078.5" y="26.7188"/><text fill="#000000" font-family="sans-serif" font-size="20" font-style="italic" lengthAdjust="spacing" textLength="145" x="1104" y="52.2832">«system (C4)»</text><text fill="#000000" font-family="sans-serif" font-size="20" lengthAdjust="spacing" textLength="182" x="1085.5" y="75.5645">Tasks Master Data</text><rect fill="#E2E2F0" height="60.5625" rx="2.5" ry="2.5" style="stroke:#181818;stroke-width:0.5;" width="196" x="1078.5" y="330.9688"/><text fill="#000000" font-family="sans-serif" font-size="20" font-style="italic" lengthAdjust="spacing" textLength="145" x="1104" y="356.5332">«system (C4)»</text><text fill="#000000" font-family="sans-serif" font-size="20" lengthAdjust="spacing" textLength="182" x="1085.5" y="379.8145">Tasks Master Data</text><rect fill="#E2E2F0" height="60.5625" rx="2.5" ry="2.5" style="stroke:#181818;stroke-width:0.5;" width="159" x="1284.5" y="26.7188"/><text fill="#000000" font-family="sans-serif" font-size="20" font-style="italic" lengthAdjust="spacing" textLength="145" x="1291.5" y="52.2832">«system (C4)»</text><text fill="#000000" font-family="sans-serif" font-size="20" lengthAdjust="spacing" textLength="88" x="1320" y="75.5645">Planning</text><rect fill="#E2E2F0" height="60.5625" rx="2.5" ry="2.5" style="stroke:#181818;stroke-width:0.5;" width="159" x="1284.5" y="330.9688"/><text fill="#000000" font-family="sans-serif" font-size="20" font-style="italic" lengthAdjust="spacing" textLength="145" x="1291.5" y="356.5332">«system (C4)»</text><text fill="#000000" font-family="sans-serif" font-size="20" lengthAdjust="spacing" textLength="88" x="1320" y="379.8145">Planning</text><rect fill="#FFFFFF" height="215.6875" style="stroke:#181818;stroke-width:1.0;" width="10" x="72" y="98.2813"/><rect fill="#FFFFFF" height="37.2813" style="stroke:#181818;stroke-width:1.0;" width="10" x="702" y="127.5625"/><rect fill="#FFFFFF" height="111.8438" style="stroke:#181818;stroke-width:1.0;" width="10" x="702" y="202.125"/><rect fill="#FFFFFF" height="37.2813" style="stroke:#181818;stroke-width:1.0;" width="10" x="927.5" y="239.4063"/><polygon fill="#181818" points="690,123.5625,700,127.5625,690,131.5625,694,127.5625" style="stroke:#181818;stroke-width:1.0;"/><line style="stroke:#181818;stroke-width:1.0;" x1="82" x2="696" y1="127.5625" y2="127.5625"/><text fill="#000000" font-family="sans-serif" font-size="20" font-weight="bold" lengthAdjust="spacing" textLength="14" x="89" y="120.8457">1</text><text fill="#000000" font-family="sans-serif" font-size="20" lengthAdjust="spacing" textLength="254" x="107" y="120.8457">asks to create a new user</text><polygon fill="#181818" points="93,160.8438,83,164.8438,93,168.8438,89,164.8438" style="stroke:#181818;stroke-width:1.0;"/><line style="stroke:#181818;stroke-width:1.0;stroke-dasharray:2.0,2.0;" x1="87" x2="706" y1="164.8438" y2="164.8438"/><text fill="#000000" font-family="sans-serif" font-size="20" font-weight="bold" lengthAdjust="spacing" textLength="14" x="99" y="158.127">2</text><text fill="#000000" font-family="sans-serif" font-size="20" lengthAdjust="spacing" textLength="578" x="117" y="158.127">asks user's personal data, including his role in the system</text><polygon fill="#181818" points="690,198.125,700,202.125,690,206.125,694,202.125" style="stroke:#181818;stroke-width:1.0;"/><line style="stroke:#181818;stroke-width:1.0;" x1="82" x2="696" y1="202.125" y2="202.125"/><text fill="#000000" font-family="sans-serif" font-size="20" font-weight="bold" lengthAdjust="spacing" textLength="14" x="89" y="195.4082">3</text><text fill="#000000" font-family="sans-serif" font-size="20" lengthAdjust="spacing" textLength="271" x="107" y="195.4082">enters user's personal data</text><polygon fill="#181818" points="915.5,235.4063,925.5,239.4063,915.5,243.4063,919.5,239.4063" style="stroke:#181818;stroke-width:1.0;"/><line style="stroke:#181818;stroke-width:1.0;" x1="712" x2="921.5" y1="239.4063" y2="239.4063"/><text fill="#000000" font-family="sans-serif" font-size="20" font-weight="bold" lengthAdjust="spacing" textLength="14" x="719" y="232.6895">4</text><text fill="#000000" font-family="sans-serif" font-size="20" lengthAdjust="spacing" textLength="119" x="737" y="232.6895">POST /users</text><polygon fill="#181818" points="723,272.6875,713,276.6875,723,280.6875,719,276.6875" style="stroke:#181818;stroke-width:1.0;"/><line style="stroke:#181818;stroke-width:1.0;stroke-dasharray:2.0,2.0;" x1="717" x2="931.5" y1="276.6875" y2="276.6875"/><text fill="#000000" font-family="sans-serif" font-size="20" font-weight="bold" lengthAdjust="spacing" textLength="14" x="729" y="269.9707">5</text><text fill="#000000" font-family="sans-serif" font-size="20" lengthAdjust="spacing" textLength="140" x="747" y="269.9707">201 (Created)</text><polygon fill="#181818" points="88,309.9688,78,313.9688,88,317.9688,84,313.9688" style="stroke:#181818;stroke-width:1.0;"/><line style="stroke:#181818;stroke-width:1.0;stroke-dasharray:2.0,2.0;" x1="82" x2="706" y1="313.9688" y2="313.9688"/><text fill="#000000" font-family="sans-serif" font-size="20" font-weight="bold" lengthAdjust="spacing" textLength="14" x="94" y="307.252">6</text><text fill="#000000" font-family="sans-serif" font-size="20" lengthAdjust="spacing" textLength="319" x="112" y="307.252">returns a confirmation message</text><!--SRC=[ZP51ImCn48Nl-HL3BrfmiHPFKWh58lImM6ZhVTnCsz3Df6GInVvwarHnLqKyxipxPjzxaOFX8tgqhMiEf47J5cCR7Xo7bJaHZ4SAOt0SxJDvXKrm7cRp6b1WCDFMi97WCKq7Afq9fZ57v02RHL4y6OdOcXC6utW0aucyII0Bb_Utm-cqHzJrl20rCkx8KXvX4dkOOy2_sVK7kqOvoF-nPO6MBJ8RtltKvhZc1GFbn4hbsDKqHxk3ygFWeF6KzmXChn3bND6PsImACQcg3f8b5m97yk8OMz39v1KORjgeamVO6m7lMaeZ27k2io6bgNksvoGLbOxzUhZdHILrOdBDTx1yNAtXEZFo9KehbTVLv-dnw2PLKHBgOTT3LlR3UGhHiwGY6iTRusrvSR0aabxpk__EPsxs7G00]--></g></svg>