<?xml version="1.0" encoding="UTF-8" standalone="no"?><svg xmlns="http://www.w3.org/2000/svg" xmlns:xlink="http://www.w3.org/1999/xlink" contentStyleType="text/css" height="701px" preserveAspectRatio="none" style="width:1248px;height:701px;background:#FFFFFF;" version="1.1" viewBox="0 0 1248 701" width="1248px" zoomAndPan="magnify"><defs/><g><rect fill="#FFFFFF" height="489.1197" style="stroke:#181818;stroke-width:1.0;" width="10" x="67.5" y="102.24"/><rect fill="#FFFFFF" height="123.7199" style="stroke:#181818;stroke-width:1.0;" width="10" x="487.125" y="135.4799"/><rect fill="#FFFFFF" height="290.9198" style="stroke:#181818;stroke-width:1.0;" width="10" x="487.125" y="300.4398"/><rect fill="#FFFFFF" height="41.24" style="stroke:#181818;stroke-width:1.0;" width="10" x="766.75" y="176.7199"/><rect fill="#FFFFFF" height="41.24" style="stroke:#181818;stroke-width:1.0;" width="10" x="766.75" y="390.1598"/><rect fill="#FFFFFF" height="41.24" style="stroke:#181818;stroke-width:1.0;" width="10" x="766.75" y="501.8797"/><rect fill="none" height="235.6798" style="stroke:#000000;stroke-width:1.5;" width="496.125" x="414.125" y="315.4398"/><line style="stroke:#181818;stroke-width:0.5;stroke-dasharray:5.0,5.0;" x1="72" x2="72" y1="92.24" y2="609.3596"/><line style="stroke:#181818;stroke-width:0.5;stroke-dasharray:5.0,5.0;" x1="492.125" x2="492.125" y1="92.24" y2="609.3596"/><line style="stroke:#181818;stroke-width:0.5;stroke-dasharray:5.0,5.0;" x1="771.25" x2="771.25" y1="92.24" y2="609.3596"/><line style="stroke:#181818;stroke-width:0.5;stroke-dasharray:5.0,5.0;" x1="1003.25" x2="1003.25" y1="92.24" y2="609.3596"/><line style="stroke:#181818;stroke-width:0.5;stroke-dasharray:5.0,5.0;" x1="1174.25" x2="1174.25" y1="92.24" y2="609.3596"/><text fill="#000000" font-family="sans-serif" font-size="20" lengthAdjust="spacing" textLength="129" x="5" y="86.38">Administrator</text><ellipse cx="72.5" cy="13.5" fill="#E2E2F0" rx="8" ry="8" style="stroke:#181818;stroke-width:0.5;"/><path d="M72.5,21.5 L72.5,48.5 M59.5,29.5 L85.5,29.5 M72.5,48.5 L59.5,63.5 M72.5,48.5 L85.5,63.5 " fill="none" style="stroke:#181818;stroke-width:0.5;"/><text fill="#000000" font-family="sans-serif" font-size="20" lengthAdjust="spacing" textLength="129" x="5" y="629.7396">Administrator</text><ellipse cx="72.5" cy="644.0996" fill="#E2E2F0" rx="8" ry="8" style="stroke:#181818;stroke-width:0.5;"/><path d="M72.5,652.0996 L72.5,679.0996 M59.5,660.0996 L85.5,660.0996 M72.5,679.0996 L59.5,694.0996 M72.5,679.0996 L85.5,694.0996 " fill="none" style="stroke:#181818;stroke-width:0.5;"/><rect fill="#E2E2F0" height="68.4799" rx="2.5" ry="2.5" style="stroke:#181818;stroke-width:0.5;" width="136" x="424.125" y="22.76"/><text fill="#000000" font-family="sans-serif" font-size="20" font-style="italic" lengthAdjust="spacing" textLength="122" x="431.125" y="51.14">«system (C4)»</text><text fill="#000000" font-family="sans-serif" font-size="20" lengthAdjust="spacing" textLength="116" x="434.125" y="78.38">Visualization</text><rect fill="#E2E2F0" height="68.4799" rx="2.5" ry="2.5" style="stroke:#181818;stroke-width:0.5;" width="136" x="424.125" y="608.3596"/><text fill="#000000" font-family="sans-serif" font-size="20" font-style="italic" lengthAdjust="spacing" textLength="122" x="431.125" y="636.7396">«system (C4)»</text><text fill="#000000" font-family="sans-serif" font-size="20" lengthAdjust="spacing" textLength="116" x="434.125" y="663.9796">Visualization</text><rect fill="#E2E2F0" height="68.4799" rx="2.5" ry="2.5" style="stroke:#181818;stroke-width:0.5;" width="257" x="643.25" y="22.76"/><text fill="#000000" font-family="sans-serif" font-size="20" font-style="italic" lengthAdjust="spacing" textLength="122" x="710.75" y="51.14">«system (C4)»</text><text fill="#000000" font-family="sans-serif" font-size="20" lengthAdjust="spacing" textLength="243" x="650.25" y="78.38">Management Master Data</text><rect fill="#E2E2F0" height="68.4799" rx="2.5" ry="2.5" style="stroke:#181818;stroke-width:0.5;" width="257" x="643.25" y="608.3596"/><text fill="#000000" font-family="sans-serif" font-size="20" font-style="italic" lengthAdjust="spacing" textLength="122" x="710.75" y="636.7396">«system (C4)»</text><text fill="#000000" font-family="sans-serif" font-size="20" lengthAdjust="spacing" textLength="243" x="650.25" y="663.9796">Management Master Data</text><rect fill="#E2E2F0" height="68.4799" rx="2.5" ry="2.5" style="stroke:#181818;stroke-width:0.5;" width="186" x="910.25" y="22.76"/><text fill="#000000" font-family="sans-serif" font-size="20" font-style="italic" lengthAdjust="spacing" textLength="122" x="942.25" y="51.14">«system (C4)»</text><text fill="#000000" font-family="sans-serif" font-size="20" lengthAdjust="spacing" textLength="172" x="917.25" y="78.38">Tasks Master Data</text><rect fill="#E2E2F0" height="68.4799" rx="2.5" ry="2.5" style="stroke:#181818;stroke-width:0.5;" width="186" x="910.25" y="608.3596"/><text fill="#000000" font-family="sans-serif" font-size="20" font-style="italic" lengthAdjust="spacing" textLength="122" x="942.25" y="636.7396">«system (C4)»</text><text fill="#000000" font-family="sans-serif" font-size="20" lengthAdjust="spacing" textLength="172" x="917.25" y="663.9796">Tasks Master Data</text><rect fill="#E2E2F0" height="68.4799" rx="2.5" ry="2.5" style="stroke:#181818;stroke-width:0.5;" width="136" x="1106.25" y="22.76"/><text fill="#000000" font-family="sans-serif" font-size="20" font-style="italic" lengthAdjust="spacing" textLength="122" x="1113.25" y="51.14">«system (C4)»</text><text fill="#000000" font-family="sans-serif" font-size="20" lengthAdjust="spacing" textLength="81" x="1133.75" y="78.38">Planning</text><rect fill="#E2E2F0" height="68.4799" rx="2.5" ry="2.5" style="stroke:#181818;stroke-width:0.5;" width="136" x="1106.25" y="608.3596"/><text fill="#000000" font-family="sans-serif" font-size="20" font-style="italic" lengthAdjust="spacing" textLength="122" x="1113.25" y="636.7396">«system (C4)»</text><text fill="#000000" font-family="sans-serif" font-size="20" lengthAdjust="spacing" textLength="81" x="1133.75" y="663.9796">Planning</text><rect fill="#FFFFFF" height="489.1197" style="stroke:#181818;stroke-width:1.0;" width="10" x="67.5" y="102.24"/><rect fill="#FFFFFF" height="123.7199" style="stroke:#181818;stroke-width:1.0;" width="10" x="487.125" y="135.4799"/><rect fill="#FFFFFF" height="290.9198" style="stroke:#181818;stroke-width:1.0;" width="10" x="487.125" y="300.4398"/><rect fill="#FFFFFF" height="41.24" style="stroke:#181818;stroke-width:1.0;" width="10" x="766.75" y="176.7199"/><rect fill="#FFFFFF" height="41.24" style="stroke:#181818;stroke-width:1.0;" width="10" x="766.75" y="390.1598"/><rect fill="#FFFFFF" height="41.24" style="stroke:#181818;stroke-width:1.0;" width="10" x="766.75" y="501.8797"/><polygon fill="#181818" points="475.125,131.4799,485.125,135.4799,475.125,139.4799,479.125,135.4799" style="stroke:#181818;stroke-width:1.0;"/><line style="stroke:#181818;stroke-width:1.0;" x1="77.5" x2="481.125" y1="135.4799" y2="135.4799"/><text fill="#000000" font-family="sans-serif" font-size="20" font-weight="bold" lengthAdjust="spacing" textLength="11.625" x="84.5" y="127.62">1</text><text fill="#000000" font-family="sans-serif" font-size="20" lengthAdjust="spacing" textLength="289" x="100.125" y="127.62">asks to list new user's requests</text><polygon fill="#181818" points="754.75,172.7199,764.75,176.7199,754.75,180.7199,758.75,176.7199" style="stroke:#181818;stroke-width:1.0;"/><line style="stroke:#181818;stroke-width:1.0;" x1="497.125" x2="760.75" y1="176.7199" y2="176.7199"/><text fill="#000000" font-family="sans-serif" font-size="20" font-weight="bold" lengthAdjust="spacing" textLength="11.625" x="504.125" y="168.8599">2</text><text fill="#000000" font-family="sans-serif" font-size="20" lengthAdjust="spacing" textLength="130" x="519.75" y="168.8599">GET /requests</text><polygon fill="#181818" points="508.125,213.9599,498.125,217.9599,508.125,221.9599,504.125,217.9599" style="stroke:#181818;stroke-width:1.0;"/><line style="stroke:#181818;stroke-width:1.0;stroke-dasharray:2.0,2.0;" x1="502.125" x2="770.75" y1="217.9599" y2="217.9599"/><text fill="#000000" font-family="sans-serif" font-size="20" font-weight="bold" lengthAdjust="spacing" textLength="11.625" x="514.125" y="210.0999">3</text><text fill="#000000" font-family="sans-serif" font-size="20" lengthAdjust="spacing" textLength="78" x="529.75" y="210.0999">200 (OK)</text><polygon fill="#181818" points="88.5,255.1999,78.5,259.1999,88.5,263.1999,84.5,259.1999" style="stroke:#181818;stroke-width:1.0;"/><line style="stroke:#181818;stroke-width:1.0;stroke-dasharray:2.0,2.0;" x1="82.5" x2="491.125" y1="259.1999" y2="259.1999"/><text fill="#000000" font-family="sans-serif" font-size="20" font-weight="bold" lengthAdjust="spacing" textLength="11.625" x="94.5" y="251.3399">4</text><text fill="#000000" font-family="sans-serif" font-size="20" lengthAdjust="spacing" textLength="228" x="110.125" y="251.3399">lists new user's requests</text><polygon fill="#181818" points="475.125,296.4398,485.125,300.4398,475.125,304.4398,479.125,300.4398" style="stroke:#181818;stroke-width:1.0;"/><line style="stroke:#181818;stroke-width:1.0;" x1="77.5" x2="481.125" y1="300.4398" y2="300.4398"/><text fill="#000000" font-family="sans-serif" font-size="20" font-weight="bold" lengthAdjust="spacing" textLength="11.625" x="84.5" y="292.5799">5</text><text fill="#000000" font-family="sans-serif" font-size="20" lengthAdjust="spacing" textLength="375" x="100.125" y="292.5799">approves or rejects a new user's request</text><path d="M414.125,315.4398 L484,315.4398 L484,334.6798 L474,344.6798 L414.125,344.6798 L414.125,315.4398 " fill="#EEEEEE" style="stroke:#000000;stroke-width:1.5;"/><rect fill="none" height="235.6798" style="stroke:#000000;stroke-width:1.5;" width="496.125" x="414.125" y="315.4398"/><text fill="#000000" font-family="sans-serif" font-size="20" font-weight="bold" lengthAdjust="spacing" textLength="24.875" x="429.125" y="337.8198">alt</text><text fill="#000000" font-family="sans-serif" font-size="20" font-weight="bold" lengthAdjust="spacing" textLength="186.625" x="499" y="338.8198">[approves request]</text><polygon fill="#181818" points="754.75,386.1598,764.75,390.1598,754.75,394.1598,758.75,390.1598" style="stroke:#181818;stroke-width:1.0;"/><line style="stroke:#181818;stroke-width:1.0;" x1="497.125" x2="760.75" y1="390.1598" y2="390.1598"/><text fill="#000000" font-family="sans-serif" font-size="20" font-weight="bold" lengthAdjust="spacing" textLength="11.625" x="504.125" y="382.2998">6</text><text fill="#000000" font-family="sans-serif" font-size="20" lengthAdjust="spacing" textLength="235" x="519.75" y="382.2998">PATCH /users/{id}/accept</text><polygon fill="#181818" points="508.125,427.3997,498.125,431.3997,508.125,435.3997,504.125,431.3997" style="stroke:#181818;stroke-width:1.0;"/><line style="stroke:#181818;stroke-width:1.0;stroke-dasharray:2.0,2.0;" x1="502.125" x2="770.75" y1="431.3997" y2="431.3997"/><text fill="#000000" font-family="sans-serif" font-size="20" font-weight="bold" lengthAdjust="spacing" textLength="11.625" x="514.125" y="423.5398">7</text><text fill="#000000" font-family="sans-serif" font-size="20" lengthAdjust="spacing" textLength="156" x="529.75" y="423.5398">204 (No Content)</text><line style="stroke:#000000;stroke-width:1.0;stroke-dasharray:2.0,2.0;" x1="414.125" x2="910.25" y1="440.3997" y2="440.3997"/><text fill="#000000" font-family="sans-serif" font-size="20" font-weight="bold" lengthAdjust="spacing" textLength="95.25" x="419.125" y="461.7797">[rejected]</text><polygon fill="#181818" points="754.75,497.8797,764.75,501.8797,754.75,505.8797,758.75,501.8797" style="stroke:#181818;stroke-width:1.0;"/><line style="stroke:#181818;stroke-width:1.0;" x1="497.125" x2="760.75" y1="501.8797" y2="501.8797"/><text fill="#000000" font-family="sans-serif" font-size="20" font-weight="bold" lengthAdjust="spacing" textLength="11.625" x="504.125" y="494.0197">8</text><text fill="#000000" font-family="sans-serif" font-size="20" lengthAdjust="spacing" textLength="226" x="519.75" y="494.0197">PATCH /users/{id}/reject</text><polygon fill="#181818" points="508.125,539.1197,498.125,543.1197,508.125,547.1197,504.125,543.1197" style="stroke:#181818;stroke-width:1.0;"/><line style="stroke:#181818;stroke-width:1.0;stroke-dasharray:2.0,2.0;" x1="502.125" x2="770.75" y1="543.1197" y2="543.1197"/><text fill="#000000" font-family="sans-serif" font-size="20" font-weight="bold" lengthAdjust="spacing" textLength="11.625" x="514.125" y="535.2597">9</text><text fill="#000000" font-family="sans-serif" font-size="20" lengthAdjust="spacing" textLength="156" x="529.75" y="535.2597">204 (No Content)</text><polygon fill="#181818" points="83.5,587.3596,73.5,591.3596,83.5,595.3596,79.5,591.3596" style="stroke:#181818;stroke-width:1.0;"/><line style="stroke:#181818;stroke-width:1.0;stroke-dasharray:2.0,2.0;" x1="77.5" x2="491.125" y1="591.3596" y2="591.3596"/><text fill="#000000" font-family="sans-serif" font-size="20" font-weight="bold" lengthAdjust="spacing" textLength="23.25" x="89.5" y="583.4997">10</text><text fill="#000000" font-family="sans-serif" font-size="20" lengthAdjust="spacing" textLength="298" x="116.75" y="583.4997">returns a confirmation message</text><!--SRC=[hP9FRy8m3CNl-HGMby6XAaAS4492i3zeweQqihlN6fJH9bsSCerfttr90K4BcZYijoQ_v-SNczTI5MWmptIofXHIMcAPsJkjx8lS4lIw0akhLPc_aH6OM6rWF8q06LhZD9TAiZNeJbl2bR4oaGKg2ujPHRnABZ6JMxHIgnOCX_p5bd9eJ_gTqQYcYA9f9ObGuOfoyaVeO0DJjFYtDjvhO-GrNo-RLw9vXaf9jJfdVLovGKi-iH0-TZ3oqGPG6LaDcOiFYZwXP38t38O-IcBBH-bY9fp2wNp00TpVnX2UK-vIU20u6FIwNMW_FtP4IZMewc8O13lAs_D5_nEPww3UUr4OlI46Dqf3xvIu4dYXI2s3mCmUbGS2t7UQRZwE9myG-ZeSVilq9yGaeM87rdBuWqRWFhIVD4pSvhdXTogY4PuofdtBb5vXlaF_orobZTStP4kZ_ECbMYsboQirXvoOtGetHt3owzVf5m00]--></g></svg>