<?xml version="1.0" encoding="UTF-8" standalone="no"?><svg xmlns="http://www.w3.org/2000/svg" xmlns:xlink="http://www.w3.org/1999/xlink" contentStyleType="text/css" height="641px" preserveAspectRatio="none" style="width:1350px;height:641px;background:#FFFFFF;" version="1.1" viewBox="0 0 1350 641" width="1350px" zoomAndPan="magnify"><defs/><g><rect fill="#FFFFFF" height="437.6563" style="stroke:#181818;stroke-width:1.0;" width="10" x="72" y="98.2813"/><rect fill="#FFFFFF" height="111.8438" style="stroke:#181818;stroke-width:1.0;" width="10" x="522" y="127.5625"/><rect fill="#FFFFFF" height="259.25" style="stroke:#181818;stroke-width:1.0;" width="10" x="522" y="276.6875"/><rect fill="#FFFFFF" height="37.2813" style="stroke:#181818;stroke-width:1.0;" width="10" x="828" y="164.8438"/><rect fill="#FFFFFF" height="37.2813" style="stroke:#181818;stroke-width:1.0;" width="10" x="828" y="354.5313"/><rect fill="#FFFFFF" height="37.2813" style="stroke:#181818;stroke-width:1.0;" width="10" x="828" y="454.375"/><rect fill="none" height="207.9688" style="stroke:#000000;stroke-width:1.5;" width="541.5" x="437.5" y="291.6875"/><line style="stroke:#181818;stroke-width:0.5;stroke-dasharray:5.0,5.0;" x1="77" x2="77" y1="88.2813" y2="553.9375"/><line style="stroke:#181818;stroke-width:0.5;stroke-dasharray:5.0,5.0;" x1="526.5" x2="526.5" y1="88.2813" y2="553.9375"/><line style="stroke:#181818;stroke-width:0.5;stroke-dasharray:5.0,5.0;" x1="833" x2="833" y1="88.2813" y2="553.9375"/><line style="stroke:#181818;stroke-width:0.5;stroke-dasharray:5.0,5.0;" x1="1077" x2="1077" y1="88.2813" y2="553.9375"/><line style="stroke:#181818;stroke-width:0.5;stroke-dasharray:5.0,5.0;" x1="1264" x2="1264" y1="88.2813" y2="553.9375"/><text fill="#000000" font-family="sans-serif" font-size="20" lengthAdjust="spacing" textLength="138" x="5" y="83.5645">Administrator</text><ellipse cx="77" cy="13.5" fill="#E2E2F0" rx="8" ry="8" style="stroke:#181818;stroke-width:0.5;"/><path d="M77,21.5 L77,48.5 M64,29.5 L90,29.5 M77,48.5 L64,63.5 M77,48.5 L90,63.5 " fill="none" style="stroke:#181818;stroke-width:0.5;"/><text fill="#000000" font-family="sans-serif" font-size="20" lengthAdjust="spacing" textLength="138" x="5" y="571.502">Administrator</text><ellipse cx="77" cy="584.7188" fill="#E2E2F0" rx="8" ry="8" style="stroke:#181818;stroke-width:0.5;"/><path d="M77,592.7188 L77,619.7188 M64,600.7188 L90,600.7188 M77,619.7188 L64,634.7188 M77,619.7188 L90,634.7188 " fill="none" style="stroke:#181818;stroke-width:0.5;"/><rect fill="#E2E2F0" height="60.5625" rx="2.5" ry="2.5" style="stroke:#181818;stroke-width:0.5;" width="159" x="447.5" y="26.7188"/><text fill="#000000" font-family="sans-serif" font-size="20" font-style="italic" lengthAdjust="spacing" textLength="145" x="454.5" y="52.2832">«system (C4)»</text><text fill="#000000" font-family="sans-serif" font-size="20" lengthAdjust="spacing" textLength="129" x="462.5" y="75.5645">Visualization</text><rect fill="#E2E2F0" height="60.5625" rx="2.5" ry="2.5" style="stroke:#181818;stroke-width:0.5;" width="159" x="447.5" y="552.9375"/><text fill="#000000" font-family="sans-serif" font-size="20" font-style="italic" lengthAdjust="spacing" textLength="145" x="454.5" y="578.502">«system (C4)»</text><text fill="#000000" font-family="sans-serif" font-size="20" lengthAdjust="spacing" textLength="129" x="462.5" y="601.7832">Visualization</text><rect fill="#E2E2F0" height="60.5625" rx="2.5" ry="2.5" style="stroke:#181818;stroke-width:0.5;" width="272" x="697" y="26.7188"/><text fill="#000000" font-family="sans-serif" font-size="20" font-style="italic" lengthAdjust="spacing" textLength="145" x="760.5" y="52.2832">«system (C4)»</text><text fill="#000000" font-family="sans-serif" font-size="20" lengthAdjust="spacing" textLength="258" x="704" y="75.5645">Management Master Data</text><rect fill="#E2E2F0" height="60.5625" rx="2.5" ry="2.5" style="stroke:#181818;stroke-width:0.5;" width="272" x="697" y="552.9375"/><text fill="#000000" font-family="sans-serif" font-size="20" font-style="italic" lengthAdjust="spacing" textLength="145" x="760.5" y="578.502">«system (C4)»</text><text fill="#000000" font-family="sans-serif" font-size="20" lengthAdjust="spacing" textLength="258" x="704" y="601.7832">Management Master Data</text><rect fill="#E2E2F0" height="60.5625" rx="2.5" ry="2.5" style="stroke:#181818;stroke-width:0.5;" width="196" x="979" y="26.7188"/><text fill="#000000" font-family="sans-serif" font-size="20" font-style="italic" lengthAdjust="spacing" textLength="145" x="1004.5" y="52.2832">«system (C4)»</text><text fill="#000000" font-family="sans-serif" font-size="20" lengthAdjust="spacing" textLength="182" x="986" y="75.5645">Tasks Master Data</text><rect fill="#E2E2F0" height="60.5625" rx="2.5" ry="2.5" style="stroke:#181818;stroke-width:0.5;" width="196" x="979" y="552.9375"/><text fill="#000000" font-family="sans-serif" font-size="20" font-style="italic" lengthAdjust="spacing" textLength="145" x="1004.5" y="578.502">«system (C4)»</text><text fill="#000000" font-family="sans-serif" font-size="20" lengthAdjust="spacing" textLength="182" x="986" y="601.7832">Tasks Master Data</text><rect fill="#E2E2F0" height="60.5625" rx="2.5" ry="2.5" style="stroke:#181818;stroke-width:0.5;" width="159" x="1185" y="26.7188"/><text fill="#000000" font-family="sans-serif" font-size="20" font-style="italic" lengthAdjust="spacing" textLength="145" x="1192" y="52.2832">«system (C4)»</text><text fill="#000000" font-family="sans-serif" font-size="20" lengthAdjust="spacing" textLength="88" x="1220.5" y="75.5645">Planning</text><rect fill="#E2E2F0" height="60.5625" rx="2.5" ry="2.5" style="stroke:#181818;stroke-width:0.5;" width="159" x="1185" y="552.9375"/><text fill="#000000" font-family="sans-serif" font-size="20" font-style="italic" lengthAdjust="spacing" textLength="145" x="1192" y="578.502">«system (C4)»</text><text fill="#000000" font-family="sans-serif" font-size="20" lengthAdjust="spacing" textLength="88" x="1220.5" y="601.7832">Planning</text><rect fill="#FFFFFF" height="437.6563" style="stroke:#181818;stroke-width:1.0;" width="10" x="72" y="98.2813"/><rect fill="#FFFFFF" height="111.8438" style="stroke:#181818;stroke-width:1.0;" width="10" x="522" y="127.5625"/><rect fill="#FFFFFF" height="259.25" style="stroke:#181818;stroke-width:1.0;" width="10" x="522" y="276.6875"/><rect fill="#FFFFFF" height="37.2813" style="stroke:#181818;stroke-width:1.0;" width="10" x="828" y="164.8438"/><rect fill="#FFFFFF" height="37.2813" style="stroke:#181818;stroke-width:1.0;" width="10" x="828" y="354.5313"/><rect fill="#FFFFFF" height="37.2813" style="stroke:#181818;stroke-width:1.0;" width="10" x="828" y="454.375"/><polygon fill="#181818" points="510,123.5625,520,127.5625,510,131.5625,514,127.5625" style="stroke:#181818;stroke-width:1.0;"/><line style="stroke:#181818;stroke-width:1.0;" x1="82" x2="516" y1="127.5625" y2="127.5625"/><text fill="#000000" font-family="sans-serif" font-size="20" font-weight="bold" lengthAdjust="spacing" textLength="14" x="89" y="120.8457">1</text><text fill="#000000" font-family="sans-serif" font-size="20" lengthAdjust="spacing" textLength="311" x="107" y="120.8457">asks to list new user's requests</text><polygon fill="#181818" points="816,160.8438,826,164.8438,816,168.8438,820,164.8438" style="stroke:#181818;stroke-width:1.0;"/><line style="stroke:#181818;stroke-width:1.0;" x1="532" x2="822" y1="164.8438" y2="164.8438"/><text fill="#000000" font-family="sans-serif" font-size="20" font-weight="bold" lengthAdjust="spacing" textLength="14" x="539" y="158.127">2</text><text fill="#000000" font-family="sans-serif" font-size="20" lengthAdjust="spacing" textLength="140" x="557" y="158.127">GET /requests</text><polygon fill="#181818" points="543,198.125,533,202.125,543,206.125,539,202.125" style="stroke:#181818;stroke-width:1.0;"/><line style="stroke:#181818;stroke-width:1.0;stroke-dasharray:2.0,2.0;" x1="537" x2="832" y1="202.125" y2="202.125"/><text fill="#000000" font-family="sans-serif" font-size="20" font-weight="bold" lengthAdjust="spacing" textLength="14" x="549" y="195.4082">3</text><text fill="#000000" font-family="sans-serif" font-size="20" lengthAdjust="spacing" textLength="90" x="567" y="195.4082">200 (OK)</text><polygon fill="#181818" points="93,235.4063,83,239.4063,93,243.4063,89,239.4063" style="stroke:#181818;stroke-width:1.0;"/><line style="stroke:#181818;stroke-width:1.0;stroke-dasharray:2.0,2.0;" x1="87" x2="526" y1="239.4063" y2="239.4063"/><text fill="#000000" font-family="sans-serif" font-size="20" font-weight="bold" lengthAdjust="spacing" textLength="14" x="99" y="232.6895">4</text><text fill="#000000" font-family="sans-serif" font-size="20" lengthAdjust="spacing" textLength="245" x="117" y="232.6895">lists new user's requests</text><polygon fill="#181818" points="510,272.6875,520,276.6875,510,280.6875,514,276.6875" style="stroke:#181818;stroke-width:1.0;"/><line style="stroke:#181818;stroke-width:1.0;" x1="82" x2="516" y1="276.6875" y2="276.6875"/><text fill="#000000" font-family="sans-serif" font-size="20" font-weight="bold" lengthAdjust="spacing" textLength="14" x="89" y="269.9707">5</text><text fill="#000000" font-family="sans-serif" font-size="20" lengthAdjust="spacing" textLength="403" x="107" y="269.9707">approves or rejects a new user's request</text><path d="M437.5,291.6875 L513.5,291.6875 L513.5,306.9688 L503.5,316.9688 L437.5,316.9688 L437.5,291.6875 " fill="#EEEEEE" style="stroke:#000000;stroke-width:1.5;"/><rect fill="none" height="207.9688" style="stroke:#000000;stroke-width:1.5;" width="541.5" x="437.5" y="291.6875"/><text fill="#000000" font-family="sans-serif" font-size="20" font-weight="bold" lengthAdjust="spacing" textLength="31" x="452.5" y="311.252">alt</text><text fill="#000000" font-family="sans-serif" font-size="20" font-weight="bold" lengthAdjust="spacing" textLength="218" x="528.5" y="312.252">[approves request]</text><polygon fill="#181818" points="816,350.5313,826,354.5313,816,358.5313,820,354.5313" style="stroke:#181818;stroke-width:1.0;"/><line style="stroke:#181818;stroke-width:1.0;" x1="532" x2="822" y1="354.5313" y2="354.5313"/><text fill="#000000" font-family="sans-serif" font-size="20" font-weight="bold" lengthAdjust="spacing" textLength="14" x="539" y="347.8145">6</text><text fill="#000000" font-family="sans-serif" font-size="20" lengthAdjust="spacing" textLength="259" x="557" y="347.8145">PATCH /users/{id}/accept</text><polygon fill="#181818" points="543,387.8125,533,391.8125,543,395.8125,539,391.8125" style="stroke:#181818;stroke-width:1.0;"/><line style="stroke:#181818;stroke-width:1.0;stroke-dasharray:2.0,2.0;" x1="537" x2="832" y1="391.8125" y2="391.8125"/><text fill="#000000" font-family="sans-serif" font-size="20" font-weight="bold" lengthAdjust="spacing" textLength="14" x="549" y="385.0957">7</text><text fill="#000000" font-family="sans-serif" font-size="20" lengthAdjust="spacing" textLength="174" x="567" y="385.0957">204 (No Content)</text><line style="stroke:#000000;stroke-width:1.0;stroke-dasharray:2.0,2.0;" x1="437.5" x2="979" y1="400.8125" y2="400.8125"/><text fill="#000000" font-family="sans-serif" font-size="20" font-weight="bold" lengthAdjust="spacing" textLength="113" x="442.5" y="419.377">[rejected]</text><polygon fill="#181818" points="816,450.375,826,454.375,816,458.375,820,454.375" style="stroke:#181818;stroke-width:1.0;"/><line style="stroke:#181818;stroke-width:1.0;" x1="532" x2="822" y1="454.375" y2="454.375"/><text fill="#000000" font-family="sans-serif" font-size="20" font-weight="bold" lengthAdjust="spacing" textLength="14" x="539" y="447.6582">8</text><text fill="#000000" font-family="sans-serif" font-size="20" lengthAdjust="spacing" textLength="249" x="557" y="447.6582">PATCH /users/{id}/reject</text><polygon fill="#181818" points="543,487.6563,533,491.6563,543,495.6563,539,491.6563" style="stroke:#181818;stroke-width:1.0;"/><line style="stroke:#181818;stroke-width:1.0;stroke-dasharray:2.0,2.0;" x1="537" x2="832" y1="491.6563" y2="491.6563"/><text fill="#000000" font-family="sans-serif" font-size="20" font-weight="bold" lengthAdjust="spacing" textLength="14" x="549" y="484.9395">9</text><text fill="#000000" font-family="sans-serif" font-size="20" lengthAdjust="spacing" textLength="174" x="567" y="484.9395">204 (No Content)</text><polygon fill="#181818" points="88,531.9375,78,535.9375,88,539.9375,84,535.9375" style="stroke:#181818;stroke-width:1.0;"/><line style="stroke:#181818;stroke-width:1.0;stroke-dasharray:2.0,2.0;" x1="82" x2="526" y1="535.9375" y2="535.9375"/><text fill="#000000" font-family="sans-serif" font-size="20" font-weight="bold" lengthAdjust="spacing" textLength="28" x="94" y="529.2207">10</text><text fill="#000000" font-family="sans-serif" font-size="20" lengthAdjust="spacing" textLength="319" x="126" y="529.2207">returns a confirmation message</text><!--SRC=[hP9FRy8m3CNl-HGMby6XAaAS4492i3zeweQqihlN6fJH9bsSCerfttr90K4BcZYijoQ_v-SNczTI5MWmptIofXHIMcAPsJkjx8lS4lIw0akhLPc_aH6OM6rWF8q06LhZD9TAiZNeJbl2bR4oaGKg2ujPHRnABZ6JMxHIgnOCX_p5bd9eJ_gTqQYcYA9f9ObGuOfoyaVeO0DJjFYtDjvhO-GrNo-RLw9vXaf9jJfdVLovGKi-iH0-TZ3oqGPG6LaDcOiFYZwXP38t38O-IcBBH-bY9fp2wNp00TpVnX2UK-vIU20u6FIwNMW_FtP4IZMewc8O13lAs_D5_nEPww3UUr4OlI46Dqf3xvIu4dYXI2s3mCmUbGS2t7UQRZwE9myG-ZeSVilq9yGaeM87rdBuWqRWFhIVD4pSvhdXTogY4PuofdtBb5vXlaF_orobZTStP4kZ_ECbMYsboQirXvoOtGetHt3owzVf5m00]--></g></svg>