<?xml version="1.0" encoding="UTF-8" standalone="no"?><svg xmlns="http://www.w3.org/2000/svg" xmlns:xlink="http://www.w3.org/1999/xlink" contentStyleType="text/css" height="629px" preserveAspectRatio="none" style="width:2604px;height:629px;background:#FFFFFF;" version="1.1" viewBox="0 0 2604 629" width="2604px" zoomAndPan="magnify"><defs/><g><rect fill="#FFFFFF" height="495.8125" style="stroke:#181818;stroke-width:1.0;" width="10" x="462" y="82.5625"/><rect fill="#FFFFFF" height="412.25" style="stroke:#181818;stroke-width:1.0;" width="10" x="988" y="119.8438"/><rect fill="#FFFFFF" height="337.6875" style="stroke:#181818;stroke-width:1.0;" width="10" x="1514" y="157.125"/><rect fill="#FFFFFF" height="28" style="stroke:#181818;stroke-width:1.0;" width="10" x="1519" y="269.6875"/><rect fill="#FFFFFF" height="30" style="stroke:#181818;stroke-width:1.0;" width="10" x="2120" y="194.4063"/><rect fill="#FFFFFF" height="30" style="stroke:#181818;stroke-width:1.0;" width="10" x="2120" y="341.9688"/><rect fill="#FFFFFF" height="37.2813" style="stroke:#181818;stroke-width:1.0;" width="10" x="2247.5" y="409.25"/><line style="stroke:#181818;stroke-width:0.5;stroke-dasharray:5.0,5.0;" x1="467" x2="467" y1="43.2813" y2="587.375"/><line style="stroke:#181818;stroke-width:0.5;stroke-dasharray:5.0,5.0;" x1="993" x2="993" y1="43.2813" y2="587.375"/><line style="stroke:#181818;stroke-width:0.5;stroke-dasharray:5.0,5.0;" x1="1519" x2="1519" y1="43.2813" y2="587.375"/><line style="stroke:#181818;stroke-width:0.5;stroke-dasharray:5.0,5.0;" x1="1843" x2="1843" y1="43.2813" y2="587.375"/><line style="stroke:#181818;stroke-width:0.5;stroke-dasharray:5.0,5.0;" x1="1992" x2="1992" y1="43.2813" y2="587.375"/><line style="stroke:#181818;stroke-width:0.5;stroke-dasharray:5.0,5.0;" x1="2125" x2="2125" y1="43.2813" y2="587.375"/><line style="stroke:#181818;stroke-width:0.5;stroke-dasharray:5.0,5.0;" x1="2252" x2="2252" y1="43.2813" y2="587.375"/><line style="stroke:#181818;stroke-width:0.5;stroke-dasharray:5.0,5.0;" x1="2488.5" x2="2488.5" y1="451.3906" y2="587.375"/><rect fill="#E2E2F0" height="37.2813" rx="2.5" ry="2.5" style="stroke:#181818;stroke-width:0.5;" width="130" x="402" y="5"/><text fill="#000000" font-family="sans-serif" font-size="20" lengthAdjust="spacing" textLength="116" x="409" y="30.5645">:FloorRoute</text><rect fill="#E2E2F0" height="37.2813" rx="2.5" ry="2.5" style="stroke:#181818;stroke-width:0.5;" width="130" x="402" y="586.375"/><text fill="#000000" font-family="sans-serif" font-size="20" lengthAdjust="spacing" textLength="116" x="409" y="611.9395">:FloorRoute</text><rect fill="#E2E2F0" height="37.2813" rx="2.5" ry="2.5" style="stroke:#181818;stroke-width:0.5;" width="170" x="908" y="5"/><text fill="#000000" font-family="sans-serif" font-size="20" lengthAdjust="spacing" textLength="156" x="915" y="30.5645">:FloorController</text><rect fill="#E2E2F0" height="37.2813" rx="2.5" ry="2.5" style="stroke:#181818;stroke-width:0.5;" width="170" x="908" y="586.375"/><text fill="#000000" font-family="sans-serif" font-size="20" lengthAdjust="spacing" textLength="156" x="915" y="611.9395">:FloorController</text><rect fill="#E2E2F0" height="37.2813" rx="2.5" ry="2.5" style="stroke:#181818;stroke-width:0.5;" width="144" x="1447" y="5"/><text fill="#000000" font-family="sans-serif" font-size="20" lengthAdjust="spacing" textLength="130" x="1454" y="30.5645">:FloorService</text><rect fill="#E2E2F0" height="37.2813" rx="2.5" ry="2.5" style="stroke:#181818;stroke-width:0.5;" width="144" x="1447" y="586.375"/><text fill="#000000" font-family="sans-serif" font-size="20" lengthAdjust="spacing" textLength="130" x="1454" y="611.9395">:FloorService</text><rect fill="#E2E2F0" height="37.2813" rx="2.5" ry="2.5" style="stroke:#181818;stroke-width:0.5;" width="156" x="1765" y="5"/><text fill="#000000" font-family="sans-serif" font-size="20" lengthAdjust="spacing" textLength="142" x="1772" y="30.5645">:BuildingRepo</text><rect fill="#E2E2F0" height="37.2813" rx="2.5" ry="2.5" style="stroke:#181818;stroke-width:0.5;" width="156" x="1765" y="586.375"/><text fill="#000000" font-family="sans-serif" font-size="20" lengthAdjust="spacing" textLength="142" x="1772" y="611.9395">:BuildingRepo</text><rect fill="#E2E2F0" height="37.2813" rx="2.5" ry="2.5" style="stroke:#181818;stroke-width:0.5;" width="123" x="1931" y="5"/><text fill="#000000" font-family="sans-serif" font-size="20" lengthAdjust="spacing" textLength="109" x="1938" y="30.5645">:floor:Floor</text><rect fill="#E2E2F0" height="37.2813" rx="2.5" ry="2.5" style="stroke:#181818;stroke-width:0.5;" width="123" x="1931" y="586.375"/><text fill="#000000" font-family="sans-serif" font-size="20" lengthAdjust="spacing" textLength="109" x="1938" y="611.9395">:floor:Floor</text><rect fill="#E2E2F0" height="37.2813" rx="2.5" ry="2.5" style="stroke:#181818;stroke-width:0.5;" width="122" x="2064" y="5"/><text fill="#000000" font-family="sans-serif" font-size="20" lengthAdjust="spacing" textLength="108" x="2071" y="30.5645">:FloorRepo</text><rect fill="#E2E2F0" height="37.2813" rx="2.5" ry="2.5" style="stroke:#181818;stroke-width:0.5;" width="122" x="2064" y="586.375"/><text fill="#000000" font-family="sans-serif" font-size="20" lengthAdjust="spacing" textLength="108" x="2071" y="611.9395">:FloorRepo</text><rect fill="#E2E2F0" height="37.2813" rx="2.5" ry="2.5" style="stroke:#181818;stroke-width:0.5;" width="113" x="2196" y="5"/><text fill="#000000" font-family="sans-serif" font-size="20" lengthAdjust="spacing" textLength="99" x="2203" y="30.5645">:FloorMap</text><rect fill="#E2E2F0" height="37.2813" rx="2.5" ry="2.5" style="stroke:#181818;stroke-width:0.5;" width="113" x="2196" y="586.375"/><text fill="#000000" font-family="sans-serif" font-size="20" lengthAdjust="spacing" textLength="99" x="2203" y="611.9395">:FloorMap</text><rect fill="#E2E2F0" height="37.2813" rx="2.5" ry="2.5" style="stroke:#181818;stroke-width:0.5;" width="220" x="2378.5" y="586.375"/><text fill="#000000" font-family="sans-serif" font-size="20" lengthAdjust="spacing" textLength="206" x="2385.5" y="611.9395">:FloorDTO:IFloorDTO</text><rect fill="#FFFFFF" height="495.8125" style="stroke:#181818;stroke-width:1.0;" width="10" x="462" y="82.5625"/><rect fill="#FFFFFF" height="412.25" style="stroke:#181818;stroke-width:1.0;" width="10" x="988" y="119.8438"/><rect fill="#FFFFFF" height="337.6875" style="stroke:#181818;stroke-width:1.0;" width="10" x="1514" y="157.125"/><rect fill="#FFFFFF" height="28" style="stroke:#181818;stroke-width:1.0;" width="10" x="1519" y="269.6875"/><rect fill="#FFFFFF" height="30" style="stroke:#181818;stroke-width:1.0;" width="10" x="2120" y="194.4063"/><rect fill="#FFFFFF" height="30" style="stroke:#181818;stroke-width:1.0;" width="10" x="2120" y="341.9688"/><rect fill="#FFFFFF" height="37.2813" style="stroke:#181818;stroke-width:1.0;" width="10" x="2247.5" y="409.25"/><ellipse cx="4.5" cy="81.8125" fill="none" rx="4" ry="4" style="stroke:#181818;stroke-width:1.5;"/><polygon fill="#181818" points="450,78.5625,460,82.5625,450,86.5625,454,82.5625" style="stroke:#181818;stroke-width:1.0;"/><line style="stroke:#181818;stroke-width:1.0;" x1="9" x2="456" y1="82.5625" y2="82.5625"/><text fill="#000000" font-family="sans-serif" font-size="20" font-weight="bold" lengthAdjust="spacing" textLength="14" x="12" y="75.8457">1</text><text fill="#000000" font-family="sans-serif" font-size="20" lengthAdjust="spacing" textLength="417" x="30" y="75.8457">POST /{buildingCode}/floors/{floorCode}</text><polygon fill="#181818" points="976,115.8438,986,119.8438,976,123.8438,980,119.8438" style="stroke:#181818;stroke-width:1.0;"/><line style="stroke:#181818;stroke-width:1.0;" x1="472" x2="982" y1="119.8438" y2="119.8438"/><text fill="#000000" font-family="sans-serif" font-size="20" font-weight="bold" lengthAdjust="spacing" textLength="14" x="479" y="113.127">2</text><text fill="#000000" font-family="sans-serif" font-size="20" lengthAdjust="spacing" textLength="479" x="497" y="113.127">updateFloor(buildingCode, floorCode, floorDTO)</text><polygon fill="#181818" points="1502,153.125,1512,157.125,1502,161.125,1506,157.125" style="stroke:#181818;stroke-width:1.0;"/><line style="stroke:#181818;stroke-width:1.0;" x1="998" x2="1508" y1="157.125" y2="157.125"/><text fill="#000000" font-family="sans-serif" font-size="20" font-weight="bold" lengthAdjust="spacing" textLength="14" x="1005" y="150.4082">3</text><text fill="#000000" font-family="sans-serif" font-size="20" lengthAdjust="spacing" textLength="479" x="1023" y="150.4082">updateFloor(buildingCode, floorCode, floorDTO)</text><polygon fill="#181818" points="2108,190.4063,2118,194.4063,2108,198.4063,2112,194.4063" style="stroke:#181818;stroke-width:1.0;"/><line style="stroke:#181818;stroke-width:1.0;" x1="1524" x2="2114" y1="194.4063" y2="194.4063"/><text fill="#000000" font-family="sans-serif" font-size="20" font-weight="bold" lengthAdjust="spacing" textLength="14" x="1531" y="187.6895">4</text><text fill="#000000" font-family="sans-serif" font-size="20" lengthAdjust="spacing" textLength="227" x="1549" y="187.6895">findByCode(floorCode)</text><line style="stroke:#181818;stroke-width:1.0;" x1="1529" x2="1571" y1="261.6875" y2="261.6875"/><line style="stroke:#181818;stroke-width:1.0;" x1="1571" x2="1571" y1="261.6875" y2="274.6875"/><line style="stroke:#181818;stroke-width:1.0;" x1="1530" x2="1571" y1="274.6875" y2="274.6875"/><polygon fill="#181818" points="1540,270.6875,1530,274.6875,1540,278.6875,1536,274.6875" style="stroke:#181818;stroke-width:1.0;"/><text fill="#000000" font-family="sans-serif" font-size="20" font-weight="bold" lengthAdjust="spacing" textLength="14" x="1536" y="254.9707">5</text><text fill="#000000" font-family="sans-serif" font-size="20" lengthAdjust="spacing" textLength="282" x="1554" y="254.9707">updateFloor(floor, floorDTO)</text><polygon fill="#181818" points="2108,337.9688,2118,341.9688,2108,345.9688,2112,341.9688" style="stroke:#181818;stroke-width:1.0;"/><line style="stroke:#181818;stroke-width:1.0;" x1="1524" x2="2114" y1="341.9688" y2="341.9688"/><text fill="#000000" font-family="sans-serif" font-size="20" font-weight="bold" lengthAdjust="spacing" textLength="14" x="1531" y="335.252">6</text><text fill="#000000" font-family="sans-serif" font-size="20" lengthAdjust="spacing" textLength="106" x="1549" y="335.252">save(floor)</text><polygon fill="#181818" points="2235.5,405.25,2245.5,409.25,2235.5,413.25,2239.5,409.25" style="stroke:#181818;stroke-width:1.0;"/><line style="stroke:#181818;stroke-width:1.0;" x1="1524" x2="2241.5" y1="409.25" y2="409.25"/><text fill="#000000" font-family="sans-serif" font-size="20" font-weight="bold" lengthAdjust="spacing" textLength="14" x="1531" y="402.5332">7</text><text fill="#000000" font-family="sans-serif" font-size="20" lengthAdjust="spacing" textLength="116" x="1549" y="402.5332">toDto(floor)</text><polygon fill="#181818" points="2366.5,442.5313,2376.5,446.5313,2366.5,450.5313,2370.5,446.5313" style="stroke:#181818;stroke-width:1.0;"/><line style="stroke:#181818;stroke-width:1.0;" x1="2252.5" x2="2372.5" y1="446.5313" y2="446.5313"/><text fill="#000000" font-family="sans-serif" font-size="20" font-weight="bold" lengthAdjust="spacing" textLength="14" x="2259.5" y="439.8145">8</text><text fill="#000000" font-family="sans-serif" font-size="20" lengthAdjust="spacing" textLength="79" x="2277.5" y="439.8145">create()</text><rect fill="#E2E2F0" height="37.2813" rx="2.5" ry="2.5" style="stroke:#181818;stroke-width:0.5;" width="220" x="2378.5" y="417.25"/><text fill="#000000" font-family="sans-serif" font-size="20" lengthAdjust="spacing" textLength="206" x="2385.5" y="442.8145">:FloorDTO:IFloorDTO</text><polygon fill="#181818" points="1009,490.8125,999,494.8125,1009,498.8125,1005,494.8125" style="stroke:#181818;stroke-width:1.0;"/><line style="stroke:#181818;stroke-width:1.0;stroke-dasharray:2.0,2.0;" x1="1003" x2="1518" y1="494.8125" y2="494.8125"/><text fill="#000000" font-family="sans-serif" font-size="20" font-weight="bold" lengthAdjust="spacing" textLength="14" x="1015" y="488.0957">9</text><text fill="#000000" font-family="sans-serif" font-size="20" lengthAdjust="spacing" textLength="80" x="1033" y="488.0957">floorDto</text><polygon fill="#181818" points="483,528.0938,473,532.0938,483,536.0938,479,532.0938" style="stroke:#181818;stroke-width:1.0;"/><line style="stroke:#181818;stroke-width:1.0;stroke-dasharray:2.0,2.0;" x1="477" x2="992" y1="532.0938" y2="532.0938"/><text fill="#000000" font-family="sans-serif" font-size="20" font-weight="bold" lengthAdjust="spacing" textLength="28" x="489" y="525.377">10</text><text fill="#000000" font-family="sans-serif" font-size="20" lengthAdjust="spacing" textLength="80" x="521" y="525.377">floorDto</text><polygon fill="#181818" points="11,565.375,1,569.375,11,573.375,7,569.375" style="stroke:#181818;stroke-width:1.0;"/><line style="stroke:#181818;stroke-width:1.0;stroke-dasharray:2.0,2.0;" x1="5" x2="461" y1="569.375" y2="569.375"/><text fill="#000000" font-family="sans-serif" font-size="20" font-weight="bold" lengthAdjust="spacing" textLength="28" x="17" y="562.6582">11</text><text fill="#000000" font-family="sans-serif" font-size="20" lengthAdjust="spacing" textLength="176" x="49" y="562.6582">200 OK (floorDto)</text><!--SRC=[dP9HQy8m483VyoiEdwfC51_Bs41566CurFSHctG4Qw-agR39_lkkJLklipZmBRtxxijTUld1f9cqyfXWTD0Ab8vbaRWLfcvhlZNCfa8M3jFYkDTM4EbCP3APEh1OE0qoXq6uIX3jflmUT928B1QJH5l6BTfW5ywrFPc86xS-qiNsXKcKIJy_hCxGm_CwjA585uvBZOUge_VsCCpcXxbI7MN6ycyowxCenoNBtJfyQKu38Pvn_5G_MmZlw-qE9kTcd0Kg_JEfBFda7Fk7ef2GaJCdIILLeV3bv65l6qAHAKAggm9kV83ML1-fa-75UP48vYDxypFkLzS6qPX8obuwXDYaQlvLbWUjY9LVMA5qNvHv-vkjs9kjCV5_tURoLFTvPu_b-eJWSEdmoaCvKURRIscDHYF28wif7movleHRxzyzyCCwx1kD_s2sXtqbR2qUn-CMdKsdi7w5e2aP2l4B]--></g></svg>