<?xml version="1.0" encoding="UTF-8" standalone="no"?><svg xmlns="http://www.w3.org/2000/svg" xmlns:xlink="http://www.w3.org/1999/xlink" contentStyleType="text/css" height="959px" preserveAspectRatio="none" style="width:2732px;height:959px;background:#FFFFFF;" version="1.1" viewBox="0 0 2732 959" width="2732px" zoomAndPan="magnify"><defs/><g><rect fill="#FFFFFF" height="805.0796" style="stroke:#181818;stroke-width:1.0;" width="10" x="158.625" y="90.4799"/><rect fill="#FFFFFF" height="722.5996" style="stroke:#181818;stroke-width:1.0;" width="10" x="391.25" y="131.7199"/><rect fill="#FFFFFF" height="640.1197" style="stroke:#181818;stroke-width:1.0;" width="10" x="638.875" y="172.9599"/><rect fill="#FFFFFF" height="41.24" style="stroke:#181818;stroke-width:1.0;" width="10" x="970.5" y="214.1999"/><rect fill="#FFFFFF" height="329.4398" style="stroke:#181818;stroke-width:1.0;" width="10" x="1233" y="348.9198"/><rect fill="#FFFFFF" height="30" style="stroke:#181818;stroke-width:1.0;" width="10" x="1545.25" y="390.1598"/><rect fill="#FFFFFF" height="41.24" style="stroke:#181818;stroke-width:1.0;" width="10" x="1545.25" y="584.8797"/><rect fill="#FFFFFF" height="41.24" style="stroke:#181818;stroke-width:1.0;" width="10" x="1545.25" y="719.5996"/><rect fill="#FFFFFF" height="30" style="stroke:#181818;stroke-width:1.0;" width="10" x="2144.25" y="513.6397"/><line style="stroke:#181818;stroke-width:0.5;stroke-dasharray:5.0,5.0;" x1="163.625" x2="163.625" y1="47.24" y2="913.5595"/><line style="stroke:#181818;stroke-width:0.5;stroke-dasharray:5.0,5.0;" x1="395.75" x2="395.75" y1="47.24" y2="913.5595"/><line style="stroke:#181818;stroke-width:0.5;stroke-dasharray:5.0,5.0;" x1="643.875" x2="643.875" y1="47.24" y2="913.5595"/><line style="stroke:#181818;stroke-width:0.5;stroke-dasharray:5.0,5.0;" x1="975.5" x2="975.5" y1="47.24" y2="913.5595"/><line style="stroke:#181818;stroke-width:0.5;stroke-dasharray:5.0,5.0;" x1="1113.5" x2="1113.5" y1="299.5598" y2="913.5595"/><line style="stroke:#181818;stroke-width:0.5;stroke-dasharray:5.0,5.0;" x1="1237.5" x2="1237.5" y1="47.24" y2="913.5595"/><line style="stroke:#181818;stroke-width:0.5;stroke-dasharray:5.0,5.0;" x1="1549.75" x2="1549.75" y1="47.24" y2="913.5595"/><line style="stroke:#181818;stroke-width:0.5;stroke-dasharray:5.0,5.0;" x1="1780.75" x2="1780.75" y1="464.2798" y2="913.5595"/><line style="stroke:#181818;stroke-width:0.5;stroke-dasharray:5.0,5.0;" x1="2148.75" x2="2148.75" y1="47.24" y2="913.5595"/><line style="stroke:#181818;stroke-width:0.5;stroke-dasharray:5.0,5.0;" x1="2428.75" x2="2428.75" y1="628.9997" y2="913.5595"/><line style="stroke:#181818;stroke-width:0.5;stroke-dasharray:5.0,5.0;" x1="2621.75" x2="2621.75" y1="763.7196" y2="913.5595"/><rect fill="#E2E2F0" height="41.24" rx="2.5" ry="2.5" style="stroke:#181818;stroke-width:0.5;" width="120" x="103.625" y="5"/><text fill="#000000" font-family="sans-serif" font-size="20" lengthAdjust="spacing" textLength="106" x="110.625" y="33.38">:FloorRoute</text><rect fill="#E2E2F0" height="41.24" rx="2.5" ry="2.5" style="stroke:#181818;stroke-width:0.5;" width="120" x="103.625" y="912.5595"/><text fill="#000000" font-family="sans-serif" font-size="20" lengthAdjust="spacing" textLength="106" x="110.625" y="940.9395">:FloorRoute</text><rect fill="#E2E2F0" height="41.24" rx="2.5" ry="2.5" style="stroke:#181818;stroke-width:0.5;" width="159" x="316.75" y="5"/><text fill="#000000" font-family="sans-serif" font-size="20" lengthAdjust="spacing" textLength="145" x="323.75" y="33.38">:FloorController</text><rect fill="#E2E2F0" height="41.24" rx="2.5" ry="2.5" style="stroke:#181818;stroke-width:0.5;" width="159" x="316.75" y="912.5595"/><text fill="#000000" font-family="sans-serif" font-size="20" lengthAdjust="spacing" textLength="145" x="323.75" y="940.9395">:FloorController</text><rect fill="#E2E2F0" height="41.24" rx="2.5" ry="2.5" style="stroke:#181818;stroke-width:0.5;" width="132" x="577.875" y="5"/><text fill="#000000" font-family="sans-serif" font-size="20" lengthAdjust="spacing" textLength="118" x="584.875" y="33.38">:FloorService</text><rect fill="#E2E2F0" height="41.24" rx="2.5" ry="2.5" style="stroke:#181818;stroke-width:0.5;" width="132" x="577.875" y="912.5595"/><text fill="#000000" font-family="sans-serif" font-size="20" lengthAdjust="spacing" textLength="118" x="584.875" y="940.9395">:FloorService</text><rect fill="#E2E2F0" height="41.24" rx="2.5" ry="2.5" style="stroke:#181818;stroke-width:0.5;" width="142" x="904.5" y="5"/><text fill="#000000" font-family="sans-serif" font-size="20" lengthAdjust="spacing" textLength="128" x="911.5" y="33.38">:BuildingRepo</text><rect fill="#E2E2F0" height="41.24" rx="2.5" ry="2.5" style="stroke:#181818;stroke-width:0.5;" width="142" x="904.5" y="912.5595"/><text fill="#000000" font-family="sans-serif" font-size="20" lengthAdjust="spacing" textLength="128" x="911.5" y="940.9395">:BuildingRepo</text><rect fill="#E2E2F0" height="41.24" rx="2.5" ry="2.5" style="stroke:#181818;stroke-width:0.5;" width="115" x="1056.5" y="912.5595"/><text fill="#000000" font-family="sans-serif" font-size="20" lengthAdjust="spacing" textLength="101" x="1063.5" y="940.9395">:floor:Floor</text><rect fill="#E2E2F0" height="41.24" rx="2.5" ry="2.5" style="stroke:#181818;stroke-width:0.5;" width="113" x="1181.5" y="5"/><text fill="#000000" font-family="sans-serif" font-size="20" lengthAdjust="spacing" textLength="99" x="1188.5" y="33.38">:FloorRepo</text><rect fill="#E2E2F0" height="41.24" rx="2.5" ry="2.5" style="stroke:#181818;stroke-width:0.5;" width="113" x="1181.5" y="912.5595"/><text fill="#000000" font-family="sans-serif" font-size="20" lengthAdjust="spacing" textLength="99" x="1188.5" y="940.9395">:FloorRepo</text><rect fill="#E2E2F0" height="41.24" rx="2.5" ry="2.5" style="stroke:#181818;stroke-width:0.5;" width="107" x="1496.75" y="5"/><text fill="#000000" font-family="sans-serif" font-size="20" lengthAdjust="spacing" textLength="93" x="1503.75" y="33.38">:FloorMap</text><rect fill="#E2E2F0" height="41.24" rx="2.5" ry="2.5" style="stroke:#181818;stroke-width:0.5;" width="107" x="1496.75" y="912.5595"/><text fill="#000000" font-family="sans-serif" font-size="20" lengthAdjust="spacing" textLength="93" x="1503.75" y="940.9395">:FloorMap</text><rect fill="#E2E2F0" height="41.24" rx="2.5" ry="2.5" style="stroke:#181818;stroke-width:0.5;" width="334" x="1613.75" y="912.5595"/><text fill="#000000" font-family="sans-serif" font-size="20" lengthAdjust="spacing" textLength="320" x="1620.75" y="940.9395">FloorPersistence:IFloorPersistence</text><rect fill="#E2E2F0" height="41.24" rx="2.5" ry="2.5" style="stroke:#181818;stroke-width:0.5;" width="383" x="1957.75" y="5"/><text fill="#000000" font-family="sans-serif" font-size="20" lengthAdjust="spacing" textLength="369" x="1964.75" y="33.38">:Model&lt;IFloorPersistence &amp; Document&gt;</text><rect fill="#E2E2F0" height="41.24" rx="2.5" ry="2.5" style="stroke:#181818;stroke-width:0.5;" width="383" x="1957.75" y="912.5595"/><text fill="#000000" font-family="sans-serif" font-size="20" lengthAdjust="spacing" textLength="369" x="1964.75" y="940.9395">:Model&lt;IFloorPersistence &amp; Document&gt;</text><rect fill="#E2E2F0" height="41.24" rx="2.5" ry="2.5" style="stroke:#181818;stroke-width:0.5;" width="157" x="2350.75" y="912.5595"/><text fill="#000000" font-family="sans-serif" font-size="20" lengthAdjust="spacing" textLength="143" x="2357.75" y="940.9395">:newFloor:Floor</text><rect fill="#E2E2F0" height="41.24" rx="2.5" ry="2.5" style="stroke:#181818;stroke-width:0.5;" width="209" x="2517.75" y="912.5595"/><text fill="#000000" font-family="sans-serif" font-size="20" lengthAdjust="spacing" textLength="195" x="2524.75" y="940.9395">:FloorDTO:IFloorDTO</text><rect fill="#FFFFFF" height="805.0796" style="stroke:#181818;stroke-width:1.0;" width="10" x="158.625" y="90.4799"/><rect fill="#FFFFFF" height="722.5996" style="stroke:#181818;stroke-width:1.0;" width="10" x="391.25" y="131.7199"/><rect fill="#FFFFFF" height="640.1197" style="stroke:#181818;stroke-width:1.0;" width="10" x="638.875" y="172.9599"/><rect fill="#FFFFFF" height="41.24" style="stroke:#181818;stroke-width:1.0;" width="10" x="970.5" y="214.1999"/><rect fill="#FFFFFF" height="329.4398" style="stroke:#181818;stroke-width:1.0;" width="10" x="1233" y="348.9198"/><rect fill="#FFFFFF" height="30" style="stroke:#181818;stroke-width:1.0;" width="10" x="1545.25" y="390.1598"/><rect fill="#FFFFFF" height="41.24" style="stroke:#181818;stroke-width:1.0;" width="10" x="1545.25" y="584.8797"/><rect fill="#FFFFFF" height="41.24" style="stroke:#181818;stroke-width:1.0;" width="10" x="1545.25" y="719.5996"/><rect fill="#FFFFFF" height="30" style="stroke:#181818;stroke-width:1.0;" width="10" x="2144.25" y="513.6397"/><ellipse cx="4.5" cy="89.7299" fill="none" rx="4" ry="4" style="stroke:#181818;stroke-width:1.5;"/><polygon fill="#181818" points="146.625,86.4799,156.625,90.4799,146.625,94.4799,150.625,90.4799" style="stroke:#181818;stroke-width:1.0;"/><line style="stroke:#181818;stroke-width:1.0;" x1="9" x2="152.625" y1="90.4799" y2="90.4799"/><text fill="#000000" font-family="sans-serif" font-size="20" font-weight="bold" lengthAdjust="spacing" textLength="11.625" x="12" y="82.62">1</text><text fill="#000000" font-family="sans-serif" font-size="20" lengthAdjust="spacing" textLength="116" x="27.625" y="82.62">POST /floors</text><polygon fill="#181818" points="379.25,127.7199,389.25,131.7199,379.25,135.7199,383.25,131.7199" style="stroke:#181818;stroke-width:1.0;"/><line style="stroke:#181818;stroke-width:1.0;" x1="168.625" x2="385.25" y1="131.7199" y2="131.7199"/><text fill="#000000" font-family="sans-serif" font-size="20" font-weight="bold" lengthAdjust="spacing" textLength="11.625" x="175.625" y="123.8599">2</text><text fill="#000000" font-family="sans-serif" font-size="20" lengthAdjust="spacing" textLength="188" x="191.25" y="123.8599">createFloor(request)</text><polygon fill="#181818" points="626.875,168.9599,636.875,172.9599,626.875,176.9599,630.875,172.9599" style="stroke:#181818;stroke-width:1.0;"/><line style="stroke:#181818;stroke-width:1.0;" x1="401.25" x2="632.875" y1="172.9599" y2="172.9599"/><text fill="#000000" font-family="sans-serif" font-size="20" font-weight="bold" lengthAdjust="spacing" textLength="11.625" x="408.25" y="165.0999">3</text><text fill="#000000" font-family="sans-serif" font-size="20" lengthAdjust="spacing" textLength="203" x="423.875" y="165.0999">createFloor(floorDTO)</text><polygon fill="#181818" points="958.5,210.1999,968.5,214.1999,958.5,218.1999,962.5,214.1999" style="stroke:#181818;stroke-width:1.0;"/><line style="stroke:#181818;stroke-width:1.0;" x1="648.875" x2="964.5" y1="214.1999" y2="214.1999"/><text fill="#000000" font-family="sans-serif" font-size="20" font-weight="bold" lengthAdjust="spacing" textLength="11.625" x="655.875" y="206.3399">4</text><text fill="#000000" font-family="sans-serif" font-size="20" lengthAdjust="spacing" textLength="287" x="671.5" y="206.3399">findByDomainId(buildingCode)</text><polygon fill="#181818" points="659.875,251.4398,649.875,255.4398,659.875,259.4398,655.875,255.4398" style="stroke:#181818;stroke-width:1.0;"/><line style="stroke:#181818;stroke-width:1.0;stroke-dasharray:2.0,2.0;" x1="653.875" x2="974.5" y1="255.4398" y2="255.4398"/><text fill="#000000" font-family="sans-serif" font-size="20" font-weight="bold" lengthAdjust="spacing" textLength="11.625" x="665.875" y="247.5799">5</text><text fill="#000000" font-family="sans-serif" font-size="20" lengthAdjust="spacing" textLength="75" x="681.5" y="247.5799">building</text><polygon fill="#181818" points="1044.5,292.6798,1054.5,296.6798,1044.5,300.6798,1048.5,296.6798" style="stroke:#181818;stroke-width:1.0;"/><line style="stroke:#181818;stroke-width:1.0;" x1="648.875" x2="1050.5" y1="296.6798" y2="296.6798"/><text fill="#000000" font-family="sans-serif" font-size="20" font-weight="bold" lengthAdjust="spacing" textLength="11.625" x="655.875" y="288.8198">6</text><text fill="#000000" font-family="sans-serif" font-size="20" lengthAdjust="spacing" textLength="70" x="671.5" y="288.8198">create()</text><rect fill="#E2E2F0" height="41.24" rx="2.5" ry="2.5" style="stroke:#181818;stroke-width:0.5;" width="115" x="1056.5" y="263.4398"/><text fill="#000000" font-family="sans-serif" font-size="20" lengthAdjust="spacing" textLength="101" x="1063.5" y="291.8198">:floor:Floor</text><polygon fill="#181818" points="1221,344.9198,1231,348.9198,1221,352.9198,1225,348.9198" style="stroke:#181818;stroke-width:1.0;"/><line style="stroke:#181818;stroke-width:1.0;" x1="648.875" x2="1227" y1="348.9198" y2="348.9198"/><text fill="#000000" font-family="sans-serif" font-size="20" font-weight="bold" lengthAdjust="spacing" textLength="11.625" x="655.875" y="341.0598">7</text><text fill="#000000" font-family="sans-serif" font-size="20" lengthAdjust="spacing" textLength="98" x="671.5" y="341.0598">save(floor)</text><polygon fill="#181818" points="1533.25,386.1598,1543.25,390.1598,1533.25,394.1598,1537.25,390.1598" style="stroke:#181818;stroke-width:1.0;"/><line style="stroke:#181818;stroke-width:1.0;" x1="1243" x2="1539.25" y1="390.1598" y2="390.1598"/><text fill="#000000" font-family="sans-serif" font-size="20" font-weight="bold" lengthAdjust="spacing" textLength="11.625" x="1250" y="382.2998">8</text><text fill="#000000" font-family="sans-serif" font-size="20" lengthAdjust="spacing" textLength="172" x="1265.625" y="382.2998">toPersitence(floor)</text><polygon fill="#181818" points="1601.75,457.3997,1611.75,461.3997,1601.75,465.3997,1605.75,461.3997" style="stroke:#181818;stroke-width:1.0;"/><line style="stroke:#181818;stroke-width:1.0;" x1="1243" x2="1607.75" y1="461.3997" y2="461.3997"/><text fill="#000000" font-family="sans-serif" font-size="20" font-weight="bold" lengthAdjust="spacing" textLength="11.625" x="1250" y="453.5398">9</text><text fill="#000000" font-family="sans-serif" font-size="20" lengthAdjust="spacing" textLength="70" x="1265.625" y="453.5398">create()</text><rect fill="#E2E2F0" height="41.24" rx="2.5" ry="2.5" style="stroke:#181818;stroke-width:0.5;" width="334" x="1613.75" y="428.1598"/><text fill="#000000" font-family="sans-serif" font-size="20" lengthAdjust="spacing" textLength="320" x="1620.75" y="456.5398">FloorPersistence:IFloorPersistence</text><polygon fill="#181818" points="2132.25,509.6397,2142.25,513.6397,2132.25,517.6397,2136.25,513.6397" style="stroke:#181818;stroke-width:1.0;"/><line style="stroke:#181818;stroke-width:1.0;" x1="1243" x2="2138.25" y1="513.6397" y2="513.6397"/><text fill="#000000" font-family="sans-serif" font-size="20" font-weight="bold" lengthAdjust="spacing" textLength="23.25" x="1250" y="505.7797">10</text><text fill="#000000" font-family="sans-serif" font-size="20" lengthAdjust="spacing" textLength="221" x="1277.25" y="505.7797">create(floorPersistence)</text><polygon fill="#181818" points="1533.25,580.8797,1543.25,584.8797,1533.25,588.8797,1537.25,584.8797" style="stroke:#181818;stroke-width:1.0;"/><line style="stroke:#181818;stroke-width:1.0;" x1="1243" x2="1539.25" y1="584.8797" y2="584.8797"/><text fill="#000000" font-family="sans-serif" font-size="20" font-weight="bold" lengthAdjust="spacing" textLength="23.25" x="1250" y="577.0197">11</text><text fill="#000000" font-family="sans-serif" font-size="20" lengthAdjust="spacing" textLength="256" x="1277.25" y="577.0197">toDomain(floorPersistence)</text><polygon fill="#181818" points="2338.75,622.1197,2348.75,626.1197,2338.75,630.1197,2342.75,626.1197" style="stroke:#181818;stroke-width:1.0;"/><line style="stroke:#181818;stroke-width:1.0;" x1="1550.25" x2="2344.75" y1="626.1197" y2="626.1197"/><text fill="#000000" font-family="sans-serif" font-size="20" font-weight="bold" lengthAdjust="spacing" textLength="23.25" x="1557.25" y="618.2597">12</text><text fill="#000000" font-family="sans-serif" font-size="20" lengthAdjust="spacing" textLength="70" x="1584.5" y="618.2597">create()</text><rect fill="#E2E2F0" height="41.24" rx="2.5" ry="2.5" style="stroke:#181818;stroke-width:0.5;" width="157" x="2350.75" y="592.8797"/><text fill="#000000" font-family="sans-serif" font-size="20" lengthAdjust="spacing" textLength="143" x="2357.75" y="621.2597">:newFloor:Floor</text><polygon fill="#181818" points="659.875,674.3596,649.875,678.3596,659.875,682.3596,655.875,678.3596" style="stroke:#181818;stroke-width:1.0;"/><line style="stroke:#181818;stroke-width:1.0;stroke-dasharray:2.0,2.0;" x1="653.875" x2="1237" y1="678.3596" y2="678.3596"/><text fill="#000000" font-family="sans-serif" font-size="20" font-weight="bold" lengthAdjust="spacing" textLength="23.25" x="665.875" y="670.4997">13</text><text fill="#000000" font-family="sans-serif" font-size="20" lengthAdjust="spacing" textLength="86" x="693.125" y="670.4997">newFloor</text><polygon fill="#181818" points="1533.25,715.5996,1543.25,719.5996,1533.25,723.5996,1537.25,719.5996" style="stroke:#181818;stroke-width:1.0;"/><line style="stroke:#181818;stroke-width:1.0;" x1="648.875" x2="1539.25" y1="719.5996" y2="719.5996"/><text fill="#000000" font-family="sans-serif" font-size="20" font-weight="bold" lengthAdjust="spacing" textLength="23.25" x="655.875" y="711.7396">14</text><text fill="#000000" font-family="sans-serif" font-size="20" lengthAdjust="spacing" textLength="151" x="683.125" y="711.7396">toDto(newFloor)</text><polygon fill="#181818" points="2505.75,756.8396,2515.75,760.8396,2505.75,764.8396,2509.75,760.8396" style="stroke:#181818;stroke-width:1.0;"/><line style="stroke:#181818;stroke-width:1.0;" x1="1550.25" x2="2511.75" y1="760.8396" y2="760.8396"/><text fill="#000000" font-family="sans-serif" font-size="20" font-weight="bold" lengthAdjust="spacing" textLength="23.25" x="1557.25" y="752.9796">15</text><text fill="#000000" font-family="sans-serif" font-size="20" lengthAdjust="spacing" textLength="70" x="1584.5" y="752.9796">create()</text><rect fill="#E2E2F0" height="41.24" rx="2.5" ry="2.5" style="stroke:#181818;stroke-width:0.5;" width="209" x="2517.75" y="727.5996"/><text fill="#000000" font-family="sans-serif" font-size="20" lengthAdjust="spacing" textLength="195" x="2524.75" y="755.9796">:FloorDTO:IFloorDTO</text><polygon fill="#181818" points="412.25,809.0796,402.25,813.0796,412.25,817.0796,408.25,813.0796" style="stroke:#181818;stroke-width:1.0;"/><line style="stroke:#181818;stroke-width:1.0;stroke-dasharray:2.0,2.0;" x1="406.25" x2="642.875" y1="813.0796" y2="813.0796"/><text fill="#000000" font-family="sans-serif" font-size="20" font-weight="bold" lengthAdjust="spacing" textLength="23.25" x="418.25" y="805.2196">16</text><text fill="#000000" font-family="sans-serif" font-size="20" lengthAdjust="spacing" textLength="161" x="445.5" y="805.2196">sucess(floorDTO)</text><polygon fill="#181818" points="179.625,850.3195,169.625,854.3195,179.625,858.3195,175.625,854.3195" style="stroke:#181818;stroke-width:1.0;"/><line style="stroke:#181818;stroke-width:1.0;stroke-dasharray:2.0,2.0;" x1="173.625" x2="395.25" y1="854.3195" y2="854.3195"/><text fill="#000000" font-family="sans-serif" font-size="20" font-weight="bold" lengthAdjust="spacing" textLength="23.25" x="185.625" y="846.4596">17</text><text fill="#000000" font-family="sans-serif" font-size="20" lengthAdjust="spacing" textLength="161" x="212.875" y="846.4596">sucess(floorDTO)</text><polygon fill="#181818" points="11,891.5595,1,895.5595,11,899.5595,7,895.5595" style="stroke:#181818;stroke-width:1.0;"/><line style="stroke:#181818;stroke-width:1.0;stroke-dasharray:2.0,2.0;" x1="5" x2="162.625" y1="895.5595" y2="895.5595"/><text fill="#000000" font-family="sans-serif" font-size="20" font-weight="bold" lengthAdjust="spacing" textLength="23.25" x="17" y="887.6995">18</text><text fill="#000000" font-family="sans-serif" font-size="20" lengthAdjust="spacing" textLength="111" x="44.25" y="887.6995">201 Created</text><!--SRC=[VLF1Zjem4BtxAomE5RiIwdQFqMghGg12WasKiBrxaqbbRR2fxL2rNrzxd6JjGBaHptjltimyz3iN9wROiPNLEzIqXePrhTb8OKh-5-ZZ0s6TaQ8xle4Y5cbunKzC65fahuSrPPhEaaqhfIfaPs0MGLQ7OXSWLbPKoRO55SFAuaU0Aa6TUJLHAjPvjdpTxjBjotUFNNQyhRduMS19njZDBiiA3sgSe9Uzr0kzNuZil-L1VSzESJbV5oNMiPo3qbmR41Kas-dBH3TBr_rEzhA6zka2Jp_HL5RT4OHvZhalk05F5l1xyx_XqaCuc_tgJTbVCqA-oiLpVxo4vbbve9znJPgmol0pC-2hX7YGHUCT4refi5MKcYlurO4sTnya1oA8j0ntqfZGz0u2XWKH1tH-mlicjE6YNlv9vP5niQtdR_sjLtPZ0JyaaKXXCLeOgAI6wxpU08Rc_duqFRyBhTbdpSxWXvWumCuEw2AJK2FnbdZA2xo5X4RSvy1sYOhxZxeOcR7GJF8IoZjar00VfWRzNcyAMMCERKa-TB6pgoECAn-YELtviD3HXf7p0NkzjutBpSOe-95FtLMWTP2q0EwoviCPfFyM0UFyj5YCuCU7BtI5HkfeClol_0C0]--></g></svg>