<?xml version="1.0" encoding="UTF-8" standalone="no"?><svg xmlns="http://www.w3.org/2000/svg" xmlns:xlink="http://www.w3.org/1999/xlink" contentStyleType="text/css" height="409px" preserveAspectRatio="none" style="width:611px;height:409px;background:#FFFFFF;" version="1.1" viewBox="0 0 611 409" width="611px" zoomAndPan="magnify"><defs/><g><rect fill="#FFFFFF" height="266.6875" style="stroke:#181818;stroke-width:1.0;" width="10" x="410" y="82.5625"/><rect fill="#FFFFFF" height="28" style="stroke:#181818;stroke-width:1.0;" width="10" x="415" y="202.4063"/><rect fill="#FFFFFF" height="37.2813" style="stroke:#181818;stroke-width:1.0;" width="10" x="579" y="119.8438"/><rect fill="#FFFFFF" height="37.2813" style="stroke:#181818;stroke-width:1.0;" width="10" x="579" y="274.6875"/><line style="stroke:#181818;stroke-width:0.5;stroke-dasharray:5.0,5.0;" x1="414.5" x2="414.5" y1="43.2813" y2="367.25"/><line style="stroke:#181818;stroke-width:0.5;stroke-dasharray:5.0,5.0;" x1="583.5" x2="583.5" y1="43.2813" y2="367.25"/><rect fill="#E2E2F0" height="37.2813" rx="2.5" ry="2.5" style="stroke:#181818;stroke-width:0.5;" width="41" x="394.5" y="5"/><text fill="#000000" font-family="sans-serif" font-size="20" lengthAdjust="spacing" textLength="27" x="401.5" y="30.5645">BE</text><rect fill="#E2E2F0" height="37.2813" rx="2.5" ry="2.5" style="stroke:#181818;stroke-width:0.5;" width="41" x="394.5" y="366.25"/><text fill="#000000" font-family="sans-serif" font-size="20" lengthAdjust="spacing" textLength="27" x="401.5" y="391.8145">BE</text><rect fill="#E2E2F0" height="37.2813" rx="2.5" ry="2.5" style="stroke:#181818;stroke-width:0.5;" width="43" x="562.5" y="5"/><text fill="#000000" font-family="sans-serif" font-size="20" lengthAdjust="spacing" textLength="29" x="569.5" y="30.5645">DB</text><rect fill="#E2E2F0" height="37.2813" rx="2.5" ry="2.5" style="stroke:#181818;stroke-width:0.5;" width="43" x="562.5" y="366.25"/><text fill="#000000" font-family="sans-serif" font-size="20" lengthAdjust="spacing" textLength="29" x="569.5" y="391.8145">DB</text><rect fill="#FFFFFF" height="266.6875" style="stroke:#181818;stroke-width:1.0;" width="10" x="410" y="82.5625"/><rect fill="#FFFFFF" height="28" style="stroke:#181818;stroke-width:1.0;" width="10" x="415" y="202.4063"/><rect fill="#FFFFFF" height="37.2813" style="stroke:#181818;stroke-width:1.0;" width="10" x="579" y="119.8438"/><rect fill="#FFFFFF" height="37.2813" style="stroke:#181818;stroke-width:1.0;" width="10" x="579" y="274.6875"/><ellipse cx="4.5" cy="81.8125" fill="none" rx="4" ry="4" style="stroke:#181818;stroke-width:1.5;"/><polygon fill="#181818" points="398,78.5625,408,82.5625,398,86.5625,402,82.5625" style="stroke:#181818;stroke-width:1.0;"/><line style="stroke:#181818;stroke-width:1.0;" x1="9" x2="404" y1="82.5625" y2="82.5625"/><text fill="#000000" font-family="sans-serif" font-size="20" font-weight="bold" lengthAdjust="spacing" textLength="14" x="12" y="75.8457">1</text><text fill="#000000" font-family="sans-serif" font-size="20" lengthAdjust="spacing" textLength="365" x="30" y="75.8457">PUT /:buildingCode/floors/:floorCode</text><polygon fill="#181818" points="567,115.8438,577,119.8438,567,123.8438,571,119.8438" style="stroke:#181818;stroke-width:1.0;"/><line style="stroke:#181818;stroke-width:1.0;" x1="420" x2="573" y1="119.8438" y2="119.8438"/><text fill="#000000" font-family="sans-serif" font-size="20" font-weight="bold" lengthAdjust="spacing" textLength="14" x="427" y="113.127">2</text><text fill="#000000" font-family="sans-serif" font-size="20" lengthAdjust="spacing" textLength="84" x="445" y="113.127">get floor</text><polygon fill="#181818" points="431,153.125,421,157.125,431,161.125,427,157.125" style="stroke:#181818;stroke-width:1.0;"/><line style="stroke:#181818;stroke-width:1.0;stroke-dasharray:2.0,2.0;" x1="425" x2="583" y1="157.125" y2="157.125"/><text fill="#000000" font-family="sans-serif" font-size="20" font-weight="bold" lengthAdjust="spacing" textLength="14" x="437" y="150.4082">3</text><text fill="#000000" font-family="sans-serif" font-size="20" lengthAdjust="spacing" textLength="45" x="455" y="150.4082">floor</text><line style="stroke:#181818;stroke-width:1.0;" x1="425" x2="467" y1="194.4063" y2="194.4063"/><line style="stroke:#181818;stroke-width:1.0;" x1="467" x2="467" y1="194.4063" y2="207.4063"/><line style="stroke:#181818;stroke-width:1.0;" x1="426" x2="467" y1="207.4063" y2="207.4063"/><polygon fill="#181818" points="436,203.4063,426,207.4063,436,211.4063,432,207.4063" style="stroke:#181818;stroke-width:1.0;"/><text fill="#000000" font-family="sans-serif" font-size="20" font-weight="bold" lengthAdjust="spacing" textLength="14" x="432" y="187.6895">4</text><text fill="#000000" font-family="sans-serif" font-size="20" lengthAdjust="spacing" textLength="90" x="450" y="187.6895">edit floor</text><polygon fill="#181818" points="567,270.6875,577,274.6875,567,278.6875,571,274.6875" style="stroke:#181818;stroke-width:1.0;"/><line style="stroke:#181818;stroke-width:1.0;" x1="420" x2="573" y1="274.6875" y2="274.6875"/><text fill="#000000" font-family="sans-serif" font-size="20" font-weight="bold" lengthAdjust="spacing" textLength="14" x="427" y="267.9707">5</text><text fill="#000000" font-family="sans-serif" font-size="20" lengthAdjust="spacing" textLength="122" x="445" y="267.9707">update floor</text><polygon fill="#181818" points="431,307.9688,421,311.9688,431,315.9688,427,311.9688" style="stroke:#181818;stroke-width:1.0;"/><line style="stroke:#181818;stroke-width:1.0;stroke-dasharray:2.0,2.0;" x1="425" x2="583" y1="311.9688" y2="311.9688"/><text fill="#000000" font-family="sans-serif" font-size="20" font-weight="bold" lengthAdjust="spacing" textLength="14" x="437" y="305.252">6</text><text fill="#000000" font-family="sans-serif" font-size="20" lengthAdjust="spacing" textLength="45" x="455" y="305.252">floor</text><polygon fill="#181818" points="11,345.25,1,349.25,11,353.25,7,349.25" style="stroke:#181818;stroke-width:1.0;"/><line style="stroke:#181818;stroke-width:1.0;stroke-dasharray:2.0,2.0;" x1="5" x2="414" y1="349.25" y2="349.25"/><text fill="#000000" font-family="sans-serif" font-size="20" font-weight="bold" lengthAdjust="spacing" textLength="14" x="17" y="342.5332">7</text><text fill="#000000" font-family="sans-serif" font-size="20" lengthAdjust="spacing" textLength="74" x="35" y="342.5332">200 OK</text><!--SRC=[dOsz3e8m58NtFiKDUmDnR8mc5LmSD54VeD0BQIWjWTR1fxSKZQYRqyqzt_aPMsLwCOXEswf52H9huRNRM-FEwewmoeZmpXhVbJYGu7IgKhqm3dW1OeI45yc7dFCevpmXP6lfPl8nE5qlaBBIAosLQNPMObfhQuSnPV5E2X6LKpVXC4G82R4G3cqC6dGGNMz7pab0z5K_KubB_co87ANwgGWZYq3u5ek-bvFun-YQqfckiWoEXw-91m00]--></g></svg>