<?xml version="1.0" encoding="UTF-8" standalone="no"?><svg xmlns="http://www.w3.org/2000/svg" xmlns:xlink="http://www.w3.org/1999/xlink" contentStyleType="text/css" height="432px" preserveAspectRatio="none" style="width:3516px;height:432px;background:#FFFFFF;" version="1.1" viewBox="0 0 3516 432" width="3516px" zoomAndPan="magnify"><defs/><g><rect fill="#FFFFFF" height="298.4063" style="stroke:#181818;stroke-width:1.0;" width="10" x="462" y="82.5625"/><rect fill="#FFFFFF" height="261.125" style="stroke:#181818;stroke-width:1.0;" width="10" x="988" y="119.8438"/><rect fill="#FFFFFF" height="223.8438" style="stroke:#181818;stroke-width:1.0;" width="10" x="1514" y="157.125"/><rect fill="#FFFFFF" height="28" style="stroke:#181818;stroke-width:1.0;" width="10" x="1519" y="269.6875"/><rect fill="#FFFFFF" height="30" style="stroke:#181818;stroke-width:1.0;" width="10" x="2120" y="194.4063"/><rect fill="#FFFFFF" height="30" style="stroke:#181818;stroke-width:1.0;" width="10" x="2120" y="341.9688"/><line style="stroke:#181818;stroke-width:0.5;stroke-dasharray:5.0,5.0;" x1="467" x2="467" y1="43.2813" y2="389.9688"/><line style="stroke:#181818;stroke-width:0.5;stroke-dasharray:5.0,5.0;" x1="993" x2="993" y1="43.2813" y2="389.9688"/><line style="stroke:#181818;stroke-width:0.5;stroke-dasharray:5.0,5.0;" x1="1519" x2="1519" y1="43.2813" y2="389.9688"/><line style="stroke:#181818;stroke-width:0.5;stroke-dasharray:5.0,5.0;" x1="1843" x2="1843" y1="43.2813" y2="389.9688"/><line style="stroke:#181818;stroke-width:0.5;stroke-dasharray:5.0,5.0;" x1="1992" x2="1992" y1="43.2813" y2="389.9688"/><line style="stroke:#181818;stroke-width:0.5;stroke-dasharray:5.0,5.0;" x1="2125" x2="2125" y1="43.2813" y2="389.9688"/><line style="stroke:#181818;stroke-width:0.5;stroke-dasharray:5.0,5.0;" x1="2252" x2="2252" y1="43.2813" y2="389.9688"/><line style="stroke:#181818;stroke-width:0.5;stroke-dasharray:5.0,5.0;" x1="2496" x2="2496" y1="43.2813" y2="389.9688"/><line style="stroke:#181818;stroke-width:0.5;stroke-dasharray:5.0,5.0;" x1="2892" x2="2892" y1="43.2813" y2="389.9688"/><line style="stroke:#181818;stroke-width:0.5;stroke-dasharray:5.0,5.0;" x1="3195" x2="3195" y1="43.2813" y2="389.9688"/><line style="stroke:#181818;stroke-width:0.5;stroke-dasharray:5.0,5.0;" x1="3400" x2="3400" y1="43.2813" y2="389.9688"/><rect fill="#E2E2F0" height="37.2813" rx="2.5" ry="2.5" style="stroke:#181818;stroke-width:0.5;" width="130" x="402" y="5"/><text fill="#000000" font-family="sans-serif" font-size="20" lengthAdjust="spacing" textLength="116" x="409" y="30.5645">:FloorRoute</text><rect fill="#E2E2F0" height="37.2813" rx="2.5" ry="2.5" style="stroke:#181818;stroke-width:0.5;" width="130" x="402" y="388.9688"/><text fill="#000000" font-family="sans-serif" font-size="20" lengthAdjust="spacing" textLength="116" x="409" y="414.5332">:FloorRoute</text><rect fill="#E2E2F0" height="37.2813" rx="2.5" ry="2.5" style="stroke:#181818;stroke-width:0.5;" width="170" x="908" y="5"/><text fill="#000000" font-family="sans-serif" font-size="20" lengthAdjust="spacing" textLength="156" x="915" y="30.5645">:FloorController</text><rect fill="#E2E2F0" height="37.2813" rx="2.5" ry="2.5" style="stroke:#181818;stroke-width:0.5;" width="170" x="908" y="388.9688"/><text fill="#000000" font-family="sans-serif" font-size="20" lengthAdjust="spacing" textLength="156" x="915" y="414.5332">:FloorController</text><rect fill="#E2E2F0" height="37.2813" rx="2.5" ry="2.5" style="stroke:#181818;stroke-width:0.5;" width="144" x="1447" y="5"/><text fill="#000000" font-family="sans-serif" font-size="20" lengthAdjust="spacing" textLength="130" x="1454" y="30.5645">:FloorService</text><rect fill="#E2E2F0" height="37.2813" rx="2.5" ry="2.5" style="stroke:#181818;stroke-width:0.5;" width="144" x="1447" y="388.9688"/><text fill="#000000" font-family="sans-serif" font-size="20" lengthAdjust="spacing" textLength="130" x="1454" y="414.5332">:FloorService</text><rect fill="#E2E2F0" height="37.2813" rx="2.5" ry="2.5" style="stroke:#181818;stroke-width:0.5;" width="156" x="1765" y="5"/><text fill="#000000" font-family="sans-serif" font-size="20" lengthAdjust="spacing" textLength="142" x="1772" y="30.5645">:BuildingRepo</text><rect fill="#E2E2F0" height="37.2813" rx="2.5" ry="2.5" style="stroke:#181818;stroke-width:0.5;" width="156" x="1765" y="388.9688"/><text fill="#000000" font-family="sans-serif" font-size="20" lengthAdjust="spacing" textLength="142" x="1772" y="414.5332">:BuildingRepo</text><rect fill="#E2E2F0" height="37.2813" rx="2.5" ry="2.5" style="stroke:#181818;stroke-width:0.5;" width="123" x="1931" y="5"/><text fill="#000000" font-family="sans-serif" font-size="20" lengthAdjust="spacing" textLength="109" x="1938" y="30.5645">:floor:Floor</text><rect fill="#E2E2F0" height="37.2813" rx="2.5" ry="2.5" style="stroke:#181818;stroke-width:0.5;" width="123" x="1931" y="388.9688"/><text fill="#000000" font-family="sans-serif" font-size="20" lengthAdjust="spacing" textLength="109" x="1938" y="414.5332">:floor:Floor</text><rect fill="#E2E2F0" height="37.2813" rx="2.5" ry="2.5" style="stroke:#181818;stroke-width:0.5;" width="122" x="2064" y="5"/><text fill="#000000" font-family="sans-serif" font-size="20" lengthAdjust="spacing" textLength="108" x="2071" y="30.5645">:FloorRepo</text><rect fill="#E2E2F0" height="37.2813" rx="2.5" ry="2.5" style="stroke:#181818;stroke-width:0.5;" width="122" x="2064" y="388.9688"/><text fill="#000000" font-family="sans-serif" font-size="20" lengthAdjust="spacing" textLength="108" x="2071" y="414.5332">:FloorRepo</text><rect fill="#E2E2F0" height="37.2813" rx="2.5" ry="2.5" style="stroke:#181818;stroke-width:0.5;" width="113" x="2196" y="5"/><text fill="#000000" font-family="sans-serif" font-size="20" lengthAdjust="spacing" textLength="99" x="2203" y="30.5645">:FloorMap</text><rect fill="#E2E2F0" height="37.2813" rx="2.5" ry="2.5" style="stroke:#181818;stroke-width:0.5;" width="113" x="2196" y="388.9688"/><text fill="#000000" font-family="sans-serif" font-size="20" lengthAdjust="spacing" textLength="99" x="2203" y="414.5332">:FloorMap</text><rect fill="#E2E2F0" height="37.2813" rx="2.5" ry="2.5" style="stroke:#181818;stroke-width:0.5;" width="355" x="2319" y="5"/><text fill="#000000" font-family="sans-serif" font-size="20" lengthAdjust="spacing" textLength="341" x="2326" y="30.5645">FloorPersistence:IFloorPersistence</text><rect fill="#E2E2F0" height="37.2813" rx="2.5" ry="2.5" style="stroke:#181818;stroke-width:0.5;" width="355" x="2319" y="388.9688"/><text fill="#000000" font-family="sans-serif" font-size="20" lengthAdjust="spacing" textLength="341" x="2326" y="414.5332">FloorPersistence:IFloorPersistence</text><rect fill="#E2E2F0" height="37.2813" rx="2.5" ry="2.5" style="stroke:#181818;stroke-width:0.5;" width="416" x="2684" y="5"/><text fill="#000000" font-family="sans-serif" font-size="20" lengthAdjust="spacing" textLength="402" x="2691" y="30.5645">:Model&lt;IFloorPersistence &amp; Document&gt;</text><rect fill="#E2E2F0" height="37.2813" rx="2.5" ry="2.5" style="stroke:#181818;stroke-width:0.5;" width="416" x="2684" y="388.9688"/><text fill="#000000" font-family="sans-serif" font-size="20" lengthAdjust="spacing" textLength="402" x="2691" y="414.5332">:Model&lt;IFloorPersistence &amp; Document&gt;</text><rect fill="#E2E2F0" height="37.2813" rx="2.5" ry="2.5" style="stroke:#181818;stroke-width:0.5;" width="170" x="3110" y="5"/><text fill="#000000" font-family="sans-serif" font-size="20" lengthAdjust="spacing" textLength="156" x="3117" y="30.5645">:newFloor:Floor</text><rect fill="#E2E2F0" height="37.2813" rx="2.5" ry="2.5" style="stroke:#181818;stroke-width:0.5;" width="170" x="3110" y="388.9688"/><text fill="#000000" font-family="sans-serif" font-size="20" lengthAdjust="spacing" textLength="156" x="3117" y="414.5332">:newFloor:Floor</text><rect fill="#E2E2F0" height="37.2813" rx="2.5" ry="2.5" style="stroke:#181818;stroke-width:0.5;" width="220" x="3290" y="5"/><text fill="#000000" font-family="sans-serif" font-size="20" lengthAdjust="spacing" textLength="206" x="3297" y="30.5645">:FloorDTO:IFloorDTO</text><rect fill="#E2E2F0" height="37.2813" rx="2.5" ry="2.5" style="stroke:#181818;stroke-width:0.5;" width="220" x="3290" y="388.9688"/><text fill="#000000" font-family="sans-serif" font-size="20" lengthAdjust="spacing" textLength="206" x="3297" y="414.5332">:FloorDTO:IFloorDTO</text><rect fill="#FFFFFF" height="298.4063" style="stroke:#181818;stroke-width:1.0;" width="10" x="462" y="82.5625"/><rect fill="#FFFFFF" height="261.125" style="stroke:#181818;stroke-width:1.0;" width="10" x="988" y="119.8438"/><rect fill="#FFFFFF" height="223.8438" style="stroke:#181818;stroke-width:1.0;" width="10" x="1514" y="157.125"/><rect fill="#FFFFFF" height="28" style="stroke:#181818;stroke-width:1.0;" width="10" x="1519" y="269.6875"/><rect fill="#FFFFFF" height="30" style="stroke:#181818;stroke-width:1.0;" width="10" x="2120" y="194.4063"/><rect fill="#FFFFFF" height="30" style="stroke:#181818;stroke-width:1.0;" width="10" x="2120" y="341.9688"/><ellipse cx="4.5" cy="81.8125" fill="none" rx="4" ry="4" style="stroke:#181818;stroke-width:1.5;"/><polygon fill="#181818" points="450,78.5625,460,82.5625,450,86.5625,454,82.5625" style="stroke:#181818;stroke-width:1.0;"/><line style="stroke:#181818;stroke-width:1.0;" x1="9" x2="456" y1="82.5625" y2="82.5625"/><text fill="#000000" font-family="sans-serif" font-size="20" font-weight="bold" lengthAdjust="spacing" textLength="14" x="12" y="75.8457">1</text><text fill="#000000" font-family="sans-serif" font-size="20" lengthAdjust="spacing" textLength="417" x="30" y="75.8457">POST /{buildingCode}/floors/{floorCode}</text><polygon fill="#181818" points="976,115.8438,986,119.8438,976,123.8438,980,119.8438" style="stroke:#181818;stroke-width:1.0;"/><line style="stroke:#181818;stroke-width:1.0;" x1="472" x2="982" y1="119.8438" y2="119.8438"/><text fill="#000000" font-family="sans-serif" font-size="20" font-weight="bold" lengthAdjust="spacing" textLength="14" x="479" y="113.127">2</text><text fill="#000000" font-family="sans-serif" font-size="20" lengthAdjust="spacing" textLength="479" x="497" y="113.127">updateFloor(buildingCode, floorCode, floorDTO)</text><polygon fill="#181818" points="1502,153.125,1512,157.125,1502,161.125,1506,157.125" style="stroke:#181818;stroke-width:1.0;"/><line style="stroke:#181818;stroke-width:1.0;" x1="998" x2="1508" y1="157.125" y2="157.125"/><text fill="#000000" font-family="sans-serif" font-size="20" font-weight="bold" lengthAdjust="spacing" textLength="14" x="1005" y="150.4082">3</text><text fill="#000000" font-family="sans-serif" font-size="20" lengthAdjust="spacing" textLength="479" x="1023" y="150.4082">updateFloor(buildingCode, floorCode, floorDTO)</text><polygon fill="#181818" points="2108,190.4063,2118,194.4063,2108,198.4063,2112,194.4063" style="stroke:#181818;stroke-width:1.0;"/><line style="stroke:#181818;stroke-width:1.0;" x1="1524" x2="2114" y1="194.4063" y2="194.4063"/><text fill="#000000" font-family="sans-serif" font-size="20" font-weight="bold" lengthAdjust="spacing" textLength="14" x="1531" y="187.6895">4</text><text fill="#000000" font-family="sans-serif" font-size="20" lengthAdjust="spacing" textLength="227" x="1549" y="187.6895">findByCode(floorCode)</text><line style="stroke:#181818;stroke-width:1.0;" x1="1529" x2="1571" y1="261.6875" y2="261.6875"/><line style="stroke:#181818;stroke-width:1.0;" x1="1571" x2="1571" y1="261.6875" y2="274.6875"/><line style="stroke:#181818;stroke-width:1.0;" x1="1530" x2="1571" y1="274.6875" y2="274.6875"/><polygon fill="#181818" points="1540,270.6875,1530,274.6875,1540,278.6875,1536,274.6875" style="stroke:#181818;stroke-width:1.0;"/><text fill="#000000" font-family="sans-serif" font-size="20" font-weight="bold" lengthAdjust="spacing" textLength="14" x="1536" y="254.9707">5</text><text fill="#000000" font-family="sans-serif" font-size="20" lengthAdjust="spacing" textLength="282" x="1554" y="254.9707">updateFloor(floor, floorDTO)</text><polygon fill="#181818" points="2108,337.9688,2118,341.9688,2108,345.9688,2112,341.9688" style="stroke:#181818;stroke-width:1.0;"/><line style="stroke:#181818;stroke-width:1.0;" x1="1524" x2="2114" y1="341.9688" y2="341.9688"/><text fill="#000000" font-family="sans-serif" font-size="20" font-weight="bold" lengthAdjust="spacing" textLength="14" x="1531" y="335.252">6</text><text fill="#000000" font-family="sans-serif" font-size="20" lengthAdjust="spacing" textLength="106" x="1549" y="335.252">save(floor)</text><!--SRC=[dP9TJy8m68Nl-oiQBWmc6eoNYy441Wa9265wRKhtpZHqxT8FZ1B_kwKTq0fgzAuzxpdFJjlfDHCDKQJcagwXn2LKn78pbi8Kx1tmxGqYraXXwnKev9o6KTOGOR2IrW0c6dUoCPTIBNVxJcAXZg8avw0Yt_0WfcODQiDeJ2o2ajfMbl6IYPTd1OqCva4hBPsIcgiT9fZyCd3FU29QECm9gYPDD9-H9XqlHil2p_ru0KepRK1Go2PVbJGuc-UZQI3FP0dyxiIFBt0kgQr1c7wQVHWyJQPv20ju7NztnFnn7dLtkxQKMtKGkfVN_VOrCxoO5u-ujztVyj1L-kZvAzAzRHNUpqc8KCCsn4Ly48MuuqHFdc7RbCxYFzMDYLVuG6gNhidbaNc4e8ZdwFj_vF_ebe3s90UDVe0CLqoKWxTTl7i0HV6Z5vLmJesuvyjwxu_L8l1lRJNPj3t_qX6XJm00]--></g></svg>