<?xml version="1.0" encoding="UTF-8" standalone="no"?><svg xmlns="http://www.w3.org/2000/svg" xmlns:xlink="http://www.w3.org/1999/xlink" contentStyleType="text/css" height="681px" preserveAspectRatio="none" style="width:2419px;height:681px;background:#FFFFFF;" version="1.1" viewBox="0 0 2419 681" width="2419px" zoomAndPan="magnify"><defs/><g><rect fill="#FFFFFF" height="535.3997" style="stroke:#181818;stroke-width:1.0;" width="10" x="419.625" y="90.4799"/><rect fill="#FFFFFF" height="443.9198" style="stroke:#181818;stroke-width:1.0;" width="10" x="909.25" y="131.7199"/><rect fill="#FFFFFF" height="361.4398" style="stroke:#181818;stroke-width:1.0;" width="10" x="1398.875" y="172.9599"/><rect fill="#FFFFFF" height="28" style="stroke:#181818;stroke-width:1.0;" width="10" x="1403.875" y="293.4398"/><rect fill="#FFFFFF" height="30" style="stroke:#181818;stroke-width:1.0;" width="10" x="1965" y="214.1999"/><rect fill="#FFFFFF" height="30" style="stroke:#181818;stroke-width:1.0;" width="10" x="1965" y="369.6798"/><rect fill="#FFFFFF" height="41.24" style="stroke:#181818;stroke-width:1.0;" width="10" x="2085" y="440.9198"/><line style="stroke:#181818;stroke-width:0.5;stroke-dasharray:5.0,5.0;" x1="424.625" x2="424.625" y1="47.24" y2="634.8797"/><line style="stroke:#181818;stroke-width:0.5;stroke-dasharray:5.0,5.0;" x1="913.75" x2="913.75" y1="47.24" y2="634.8797"/><line style="stroke:#181818;stroke-width:0.5;stroke-dasharray:5.0,5.0;" x1="1403.875" x2="1403.875" y1="47.24" y2="634.8797"/><line style="stroke:#181818;stroke-width:0.5;stroke-dasharray:5.0,5.0;" x1="1707.5" x2="1707.5" y1="47.24" y2="634.8797"/><line style="stroke:#181818;stroke-width:0.5;stroke-dasharray:5.0,5.0;" x1="1845.5" x2="1845.5" y1="47.24" y2="634.8797"/><line style="stroke:#181818;stroke-width:0.5;stroke-dasharray:5.0,5.0;" x1="1969.5" x2="1969.5" y1="47.24" y2="634.8797"/><line style="stroke:#181818;stroke-width:0.5;stroke-dasharray:5.0,5.0;" x1="2089.5" x2="2089.5" y1="47.24" y2="634.8797"/><line style="stroke:#181818;stroke-width:0.5;stroke-dasharray:5.0,5.0;" x1="2308.625" x2="2308.625" y1="485.0398" y2="634.8797"/><rect fill="#E2E2F0" height="41.24" rx="2.5" ry="2.5" style="stroke:#181818;stroke-width:0.5;" width="120" x="364.625" y="5"/><text fill="#000000" font-family="sans-serif" font-size="20" lengthAdjust="spacing" textLength="106" x="371.625" y="33.38">:FloorRoute</text><rect fill="#E2E2F0" height="41.24" rx="2.5" ry="2.5" style="stroke:#181818;stroke-width:0.5;" width="120" x="364.625" y="633.8797"/><text fill="#000000" font-family="sans-serif" font-size="20" lengthAdjust="spacing" textLength="106" x="371.625" y="662.2597">:FloorRoute</text><rect fill="#E2E2F0" height="41.24" rx="2.5" ry="2.5" style="stroke:#181818;stroke-width:0.5;" width="159" x="834.75" y="5"/><text fill="#000000" font-family="sans-serif" font-size="20" lengthAdjust="spacing" textLength="145" x="841.75" y="33.38">:FloorController</text><rect fill="#E2E2F0" height="41.24" rx="2.5" ry="2.5" style="stroke:#181818;stroke-width:0.5;" width="159" x="834.75" y="633.8797"/><text fill="#000000" font-family="sans-serif" font-size="20" lengthAdjust="spacing" textLength="145" x="841.75" y="662.2597">:FloorController</text><rect fill="#E2E2F0" height="41.24" rx="2.5" ry="2.5" style="stroke:#181818;stroke-width:0.5;" width="132" x="1337.875" y="5"/><text fill="#000000" font-family="sans-serif" font-size="20" lengthAdjust="spacing" textLength="118" x="1344.875" y="33.38">:FloorService</text><rect fill="#E2E2F0" height="41.24" rx="2.5" ry="2.5" style="stroke:#181818;stroke-width:0.5;" width="132" x="1337.875" y="633.8797"/><text fill="#000000" font-family="sans-serif" font-size="20" lengthAdjust="spacing" textLength="118" x="1344.875" y="662.2597">:FloorService</text><rect fill="#E2E2F0" height="41.24" rx="2.5" ry="2.5" style="stroke:#181818;stroke-width:0.5;" width="142" x="1636.5" y="5"/><text fill="#000000" font-family="sans-serif" font-size="20" lengthAdjust="spacing" textLength="128" x="1643.5" y="33.38">:BuildingRepo</text><rect fill="#E2E2F0" height="41.24" rx="2.5" ry="2.5" style="stroke:#181818;stroke-width:0.5;" width="142" x="1636.5" y="633.8797"/><text fill="#000000" font-family="sans-serif" font-size="20" lengthAdjust="spacing" textLength="128" x="1643.5" y="662.2597">:BuildingRepo</text><rect fill="#E2E2F0" height="41.24" rx="2.5" ry="2.5" style="stroke:#181818;stroke-width:0.5;" width="115" x="1788.5" y="5"/><text fill="#000000" font-family="sans-serif" font-size="20" lengthAdjust="spacing" textLength="101" x="1795.5" y="33.38">:floor:Floor</text><rect fill="#E2E2F0" height="41.24" rx="2.5" ry="2.5" style="stroke:#181818;stroke-width:0.5;" width="115" x="1788.5" y="633.8797"/><text fill="#000000" font-family="sans-serif" font-size="20" lengthAdjust="spacing" textLength="101" x="1795.5" y="662.2597">:floor:Floor</text><rect fill="#E2E2F0" height="41.24" rx="2.5" ry="2.5" style="stroke:#181818;stroke-width:0.5;" width="113" x="1913.5" y="5"/><text fill="#000000" font-family="sans-serif" font-size="20" lengthAdjust="spacing" textLength="99" x="1920.5" y="33.38">:FloorRepo</text><rect fill="#E2E2F0" height="41.24" rx="2.5" ry="2.5" style="stroke:#181818;stroke-width:0.5;" width="113" x="1913.5" y="633.8797"/><text fill="#000000" font-family="sans-serif" font-size="20" lengthAdjust="spacing" textLength="99" x="1920.5" y="662.2597">:FloorRepo</text><rect fill="#E2E2F0" height="41.24" rx="2.5" ry="2.5" style="stroke:#181818;stroke-width:0.5;" width="107" x="2036.5" y="5"/><text fill="#000000" font-family="sans-serif" font-size="20" lengthAdjust="spacing" textLength="93" x="2043.5" y="33.38">:FloorMap</text><rect fill="#E2E2F0" height="41.24" rx="2.5" ry="2.5" style="stroke:#181818;stroke-width:0.5;" width="107" x="2036.5" y="633.8797"/><text fill="#000000" font-family="sans-serif" font-size="20" lengthAdjust="spacing" textLength="93" x="2043.5" y="662.2597">:FloorMap</text><rect fill="#E2E2F0" height="41.24" rx="2.5" ry="2.5" style="stroke:#181818;stroke-width:0.5;" width="209" x="2204.625" y="633.8797"/><text fill="#000000" font-family="sans-serif" font-size="20" lengthAdjust="spacing" textLength="195" x="2211.625" y="662.2597">:FloorDTO:IFloorDTO</text><rect fill="#FFFFFF" height="535.3997" style="stroke:#181818;stroke-width:1.0;" width="10" x="419.625" y="90.4799"/><rect fill="#FFFFFF" height="443.9198" style="stroke:#181818;stroke-width:1.0;" width="10" x="909.25" y="131.7199"/><rect fill="#FFFFFF" height="361.4398" style="stroke:#181818;stroke-width:1.0;" width="10" x="1398.875" y="172.9599"/><rect fill="#FFFFFF" height="28" style="stroke:#181818;stroke-width:1.0;" width="10" x="1403.875" y="293.4398"/><rect fill="#FFFFFF" height="30" style="stroke:#181818;stroke-width:1.0;" width="10" x="1965" y="214.1999"/><rect fill="#FFFFFF" height="30" style="stroke:#181818;stroke-width:1.0;" width="10" x="1965" y="369.6798"/><rect fill="#FFFFFF" height="41.24" style="stroke:#181818;stroke-width:1.0;" width="10" x="2085" y="440.9198"/><ellipse cx="4.5" cy="89.7299" fill="none" rx="4" ry="4" style="stroke:#181818;stroke-width:1.5;"/><polygon fill="#181818" points="407.625,86.4799,417.625,90.4799,407.625,94.4799,411.625,90.4799" style="stroke:#181818;stroke-width:1.0;"/><line style="stroke:#181818;stroke-width:1.0;" x1="9" x2="413.625" y1="90.4799" y2="90.4799"/><text fill="#000000" font-family="sans-serif" font-size="20" font-weight="bold" lengthAdjust="spacing" textLength="11.625" x="12" y="82.62">1</text><text fill="#000000" font-family="sans-serif" font-size="20" lengthAdjust="spacing" textLength="377" x="27.625" y="82.62">POST /{buildingCode}/floors/{floorCode}</text><polygon fill="#181818" points="897.25,127.7199,907.25,131.7199,897.25,135.7199,901.25,131.7199" style="stroke:#181818;stroke-width:1.0;"/><line style="stroke:#181818;stroke-width:1.0;" x1="429.625" x2="903.25" y1="131.7199" y2="131.7199"/><text fill="#000000" font-family="sans-serif" font-size="20" font-weight="bold" lengthAdjust="spacing" textLength="11.625" x="436.625" y="123.8599">2</text><text fill="#000000" font-family="sans-serif" font-size="20" lengthAdjust="spacing" textLength="445" x="452.25" y="123.8599">updateFloor(buildingCode, floorCode, floorDTO)</text><polygon fill="#181818" points="1386.875,168.9599,1396.875,172.9599,1386.875,176.9599,1390.875,172.9599" style="stroke:#181818;stroke-width:1.0;"/><line style="stroke:#181818;stroke-width:1.0;" x1="919.25" x2="1392.875" y1="172.9599" y2="172.9599"/><text fill="#000000" font-family="sans-serif" font-size="20" font-weight="bold" lengthAdjust="spacing" textLength="11.625" x="926.25" y="165.0999">3</text><text fill="#000000" font-family="sans-serif" font-size="20" lengthAdjust="spacing" textLength="445" x="941.875" y="165.0999">updateFloor(buildingCode, floorCode, floorDTO)</text><polygon fill="#181818" points="1953,210.1999,1963,214.1999,1953,218.1999,1957,214.1999" style="stroke:#181818;stroke-width:1.0;"/><line style="stroke:#181818;stroke-width:1.0;" x1="1408.875" x2="1959" y1="214.1999" y2="214.1999"/><text fill="#000000" font-family="sans-serif" font-size="20" font-weight="bold" lengthAdjust="spacing" textLength="11.625" x="1415.875" y="206.3399">4</text><text fill="#000000" font-family="sans-serif" font-size="20" lengthAdjust="spacing" textLength="211" x="1431.5" y="206.3399">findByCode(floorCode)</text><line style="stroke:#181818;stroke-width:1.0;" x1="1413.875" x2="1455.875" y1="285.4398" y2="285.4398"/><line style="stroke:#181818;stroke-width:1.0;" x1="1455.875" x2="1455.875" y1="285.4398" y2="298.4398"/><line style="stroke:#181818;stroke-width:1.0;" x1="1414.875" x2="1455.875" y1="298.4398" y2="298.4398"/><polygon fill="#181818" points="1424.875,294.4398,1414.875,298.4398,1424.875,302.4398,1420.875,298.4398" style="stroke:#181818;stroke-width:1.0;"/><text fill="#000000" font-family="sans-serif" font-size="20" font-weight="bold" lengthAdjust="spacing" textLength="11.625" x="1420.875" y="277.5799">5</text><text fill="#000000" font-family="sans-serif" font-size="20" lengthAdjust="spacing" textLength="264" x="1436.5" y="277.5799">updateFloor(floor, floorDTO)</text><polygon fill="#181818" points="1953,365.6798,1963,369.6798,1953,373.6798,1957,369.6798" style="stroke:#181818;stroke-width:1.0;"/><line style="stroke:#181818;stroke-width:1.0;" x1="1408.875" x2="1959" y1="369.6798" y2="369.6798"/><text fill="#000000" font-family="sans-serif" font-size="20" font-weight="bold" lengthAdjust="spacing" textLength="11.625" x="1415.875" y="361.8198">6</text><text fill="#000000" font-family="sans-serif" font-size="20" lengthAdjust="spacing" textLength="98" x="1431.5" y="361.8198">save(floor)</text><polygon fill="#181818" points="2073,436.9198,2083,440.9198,2073,444.9198,2077,440.9198" style="stroke:#181818;stroke-width:1.0;"/><line style="stroke:#181818;stroke-width:1.0;" x1="1408.875" x2="2079" y1="440.9198" y2="440.9198"/><text fill="#000000" font-family="sans-serif" font-size="20" font-weight="bold" lengthAdjust="spacing" textLength="11.625" x="1415.875" y="433.0598">7</text><text fill="#000000" font-family="sans-serif" font-size="20" lengthAdjust="spacing" textLength="109" x="1431.5" y="433.0598">toDto(floor)</text><polygon fill="#181818" points="2192.625,478.1598,2202.625,482.1598,2192.625,486.1598,2196.625,482.1598" style="stroke:#181818;stroke-width:1.0;"/><line style="stroke:#181818;stroke-width:1.0;" x1="2090" x2="2198.625" y1="482.1598" y2="482.1598"/><text fill="#000000" font-family="sans-serif" font-size="20" font-weight="bold" lengthAdjust="spacing" textLength="11.625" x="2097" y="474.2998">8</text><text fill="#000000" font-family="sans-serif" font-size="20" lengthAdjust="spacing" textLength="70" x="2112.625" y="474.2998">create()</text><rect fill="#E2E2F0" height="41.24" rx="2.5" ry="2.5" style="stroke:#181818;stroke-width:0.5;" width="209" x="2204.625" y="448.9198"/><text fill="#000000" font-family="sans-serif" font-size="20" lengthAdjust="spacing" textLength="195" x="2211.625" y="477.2998">:FloorDTO:IFloorDTO</text><polygon fill="#181818" points="930.25,530.3997,920.25,534.3997,930.25,538.3997,926.25,534.3997" style="stroke:#181818;stroke-width:1.0;"/><line style="stroke:#181818;stroke-width:1.0;stroke-dasharray:2.0,2.0;" x1="924.25" x2="1402.875" y1="534.3997" y2="534.3997"/><text fill="#000000" font-family="sans-serif" font-size="20" font-weight="bold" lengthAdjust="spacing" textLength="11.625" x="936.25" y="526.5398">9</text><text fill="#000000" font-family="sans-serif" font-size="20" lengthAdjust="spacing" textLength="78" x="951.875" y="526.5398">floorDto</text><polygon fill="#181818" points="440.625,571.6397,430.625,575.6397,440.625,579.6397,436.625,575.6397" style="stroke:#181818;stroke-width:1.0;"/><line style="stroke:#181818;stroke-width:1.0;stroke-dasharray:2.0,2.0;" x1="434.625" x2="913.25" y1="575.6397" y2="575.6397"/><text fill="#000000" font-family="sans-serif" font-size="20" font-weight="bold" lengthAdjust="spacing" textLength="23.25" x="446.625" y="567.7797">10</text><text fill="#000000" font-family="sans-serif" font-size="20" lengthAdjust="spacing" textLength="78" x="473.875" y="567.7797">floorDto</text><polygon fill="#181818" points="11,612.8797,1,616.8797,11,620.8797,7,616.8797" style="stroke:#181818;stroke-width:1.0;"/><line style="stroke:#181818;stroke-width:1.0;stroke-dasharray:2.0,2.0;" x1="5" x2="418.625" y1="616.8797" y2="616.8797"/><text fill="#000000" font-family="sans-serif" font-size="20" font-weight="bold" lengthAdjust="spacing" textLength="23.25" x="17" y="609.0197">11</text><text fill="#000000" font-family="sans-serif" font-size="20" lengthAdjust="spacing" textLength="161" x="44.25" y="609.0197">200 OK (floorDto)</text><!--SRC=[dP9HQy8m483VyoiEdwfC51_Bs41566CurFSHctG4Qw-agR39_lkkJLklipZmBRtxxijTUld1f9cqyfXWTD0Ab8vbaRWLfcvhlZNCfa8M3jFYkDTM4EbCP3APEh1OE0qoXq6uIX3jflmUT928B1QJH5l6BTfW5ywrFPc86xS-qiNsXKcKIJy_hCxGm_CwjA585uvBZOUge_VsCCpcXxbI7MN6ycyowxCenoNBtJfyQKu38Pvn_5G_MmZlw-qE9kTcd0Kg_JEfBFda7Fk7ef2GaJCdIILLeV3bv65l6qAHAKAggm9kV83ML1-fa-75UP48vYDxypFkLzS6qPX8obuwXDYaQlvLbWUjY9LVMA5qNvHv-vkjs9kjCV5_tURoLFTvPu_b-eJWSEdmoaCvKURRIscDHYF28wif7movleHRxzyzyCCwx1kD_s2sXtqbR2qUn-CMdKsdi7w5e2aP2l4B]--></g></svg>