<svg xmlns="http://www.w3.org/2000/svg" version="1.1" xmlns:xlink="http://www.w3.org/1999/xlink" xmlns:svgjs="http://svgjs.dev/svgjs" width="128" height="128" viewBox="0 0 128 128"><g transform="matrix(0.8046875,0,0,0.8046875,12.675156593406598,2.64647177419355)"><svg viewBox="0 0 130 155" data-background-color="#f5f5f5" preserveAspectRatio="xMidYMid meet" height="152" width="128" xmlns="http://www.w3.org/2000/svg" xmlns:xlink="http://www.w3.org/1999/xlink"><g id="tight-bounds" transform="matrix(1,0,0,1,-0.22107142857143458,0.25)"><svg viewBox="0 0 130.44214285714287 154.5" height="154.5" width="130.44214285714287"><g><svg viewBox="0 0 130.44214285714287 154.5" height="154.5" width="130.44214285714287"><g><svg viewBox="0 0 130.44214285714287 154.5" height="154.5" width="130.44214285714287"><g id="textblocktransform"><svg viewBox="0 0 130.44214285714287 154.5" height="154.5" width="130.44214285714287" id="textblock"><g><svg viewBox="0 0 130.44214285714287 154.5" height="154.5" width="130.44214285714287"><g transform="matrix(1,0,0,1,0,0)"><svg width="130.44214285714287" viewBox="3.5 -35 29.549999999999997 35" height="154.5" data-palette-color="#284b63"><path d="M11.2 0L4.75 0Q4.2 0 3.85-0.38 3.5-0.75 3.5-1.25L3.5-1.25 3.5-33.75Q3.5-34.3 3.85-34.65 4.2-35 4.75-35L4.75-35 18.35-35Q24.85-35 28.55-32.02 32.25-29.05 32.25-23.6L32.25-23.6Q32.25-20.05 30.55-17.6 28.85-15.15 26.05-13.9L26.05-13.9 32.9-1.6Q33.05-1.3 33.05-1.05L33.05-1.05Q33.05-0.65 32.73-0.33 32.4 0 32 0L32 0 25.35 0Q24.4 0 23.95-0.48 23.5-0.95 23.3-1.35L23.3-1.35 17.6-12.35 12.5-12.35 12.5-1.25Q12.5-0.75 12.13-0.38 11.75 0 11.2 0L11.2 0ZM12.5-28.05L12.5-19.45 18.25-19.45Q20.6-19.45 21.78-20.6 22.95-21.75 22.95-23.7L22.95-23.7Q22.95-25.65 21.83-26.85 20.7-28.05 18.25-28.05L18.25-28.05 12.5-28.05Z" opacity="1" transform="matrix(1,0,0,1,0,0)" fill="#284b63" class="wordmark-text-0" data-fill-palette-color="primary" id="text-0"></path></svg></g></svg></g></svg></g></svg></g></svg></g><defs></defs></svg><rect width="130.44214285714287" height="154.5" fill="none" stroke="none" visibility="hidden"></rect></g></svg></g></svg>