<?xml version="1.0" encoding="UTF-8" standalone="no"?><svg xmlns="http://www.w3.org/2000/svg" xmlns:xlink="http://www.w3.org/1999/xlink" contentStyleType="text/css" height="1017px" preserveAspectRatio="none" style="width:2314px;height:1017px;background:#FFFFFF;" version="1.1" viewBox="0 0 2314 1017" width="2314px" zoomAndPan="magnify"><defs/><g><rect fill="#DDDDDD" height="1005.3125" style="stroke:#181818;stroke-width:0.5;" width="1109" x="734.5" y="6"/><text fill="#000000" font-family="sans-serif" font-size="20" font-weight="bold" lengthAdjust="spacing" textLength="189" x="1194.5" y="24.5645">«container (C4)»</text><text fill="#000000" font-family="sans-serif" font-size="20" font-weight="bold" lengthAdjust="spacing" textLength="147" x="1215.5" y="47.8457">Visualization</text><rect fill="#FFFFE0" height="1005.3125" style="stroke:#181818;stroke-width:0.5;" width="213" x="2095.5" y="6"/><text fill="#000000" font-family="sans-serif" font-size="20" font-weight="bold" lengthAdjust="spacing" textLength="189" x="2107.5" y="24.5645">«container (C4)»</text><text fill="#000000" font-family="sans-serif" font-size="20" font-weight="bold" lengthAdjust="spacing" textLength="193" x="2105.5" y="47.8457">MD Management</text><rect fill="#FFFFFF" height="786.9063" style="stroke:#181818;stroke-width:1.0;" width="10" x="105.5" y="128.125"/><rect fill="#FFFFFF" height="37.2813" style="stroke:#181818;stroke-width:1.0;" width="10" x="812.5" y="157.4063"/><rect fill="#FFFFFF" height="668.0625" style="stroke:#181818;stroke-width:1.0;" width="10" x="812.5" y="231.9688"/><rect fill="#FFFFFF" height="381.8125" style="stroke:#181818;stroke-width:1.0;" width="10" x="1050.5" y="269.25"/><rect fill="#FFFFFF" height="28" style="stroke:#181818;stroke-width:1.0;" width="10" x="1055.5" y="314.5313"/><rect fill="#FFFFFF" height="174.4063" style="stroke:#181818;stroke-width:1.0;" width="10" x="1050.5" y="688.3438"/><rect fill="#FFFFFF" height="226.9688" style="stroke:#181818;stroke-width:1.0;" width="10" x="1463.5" y="386.8125"/><rect fill="#FFFFFF" height="137.125" style="stroke:#181818;stroke-width:1.0;" width="10" x="1463.5" y="688.3438"/><rect fill="#FFFFFF" height="152.4063" style="stroke:#181818;stroke-width:1.0;" width="10" x="1758.5" y="424.0938"/><rect fill="#FFFFFF" height="99.8438" style="stroke:#181818;stroke-width:1.0;" width="10" x="1758.5" y="688.3438"/><rect fill="#FFFFFF" height="77.8438" style="stroke:#181818;stroke-width:1.0;" width="10" x="2197" y="461.375"/><rect fill="#FFFFFF" height="62.5625" style="stroke:#181818;stroke-width:1.0;" width="10" x="2197" y="688.3438"/><rect fill="none" height="431.6563" style="stroke:#000000;stroke-width:1.5;" width="2278" x="10" y="476.375"/><line style="stroke:#181818;stroke-width:0.5;stroke-dasharray:5.0,5.0;" x1="110" x2="110" y1="118.125" y2="925.0313"/><line style="stroke:#181818;stroke-width:0.5;stroke-dasharray:5.0,5.0;" x1="817.5" x2="817.5" y1="118.125" y2="925.0313"/><line style="stroke:#181818;stroke-width:0.5;stroke-dasharray:5.0,5.0;" x1="1055.5" x2="1055.5" y1="118.125" y2="925.0313"/><line style="stroke:#181818;stroke-width:0.5;stroke-dasharray:5.0,5.0;" x1="1468.5" x2="1468.5" y1="118.125" y2="925.0313"/><line style="stroke:#181818;stroke-width:0.5;stroke-dasharray:5.0,5.0;" x1="1763.5" x2="1763.5" y1="118.125" y2="925.0313"/><line style="stroke:#181818;stroke-width:0.5;stroke-dasharray:5.0,5.0;" x1="2202" x2="2202" y1="118.125" y2="925.0313"/><text fill="#000000" font-family="sans-serif" font-size="20" lengthAdjust="spacing" textLength="175" x="20" y="113.4082">Campus Manager</text><ellipse cx="110.5" cy="43.3438" fill="#E2E2F0" rx="8" ry="8" style="stroke:#181818;stroke-width:0.5;"/><path d="M110.5,51.3438 L110.5,78.3438 M97.5,59.3438 L123.5,59.3438 M110.5,78.3438 L97.5,93.3438 M110.5,78.3438 L123.5,93.3438 " fill="none" style="stroke:#181818;stroke-width:0.5;"/><text fill="#000000" font-family="sans-serif" font-size="20" lengthAdjust="spacing" textLength="175" x="20" y="942.5957">Campus Manager</text><ellipse cx="110.5" cy="955.8125" fill="#E2E2F0" rx="8" ry="8" style="stroke:#181818;stroke-width:0.5;"/><path d="M110.5,963.8125 L110.5,990.8125 M97.5,971.8125 L123.5,971.8125 M110.5,990.8125 L97.5,1005.8125 M110.5,990.8125 L123.5,1005.8125 " fill="none" style="stroke:#181818;stroke-width:0.5;"/><rect fill="#E2E2F0" height="60.5625" rx="2.5" ry="2.5" style="stroke:#181818;stroke-width:0.5;" width="158" x="738.5" y="56.5625"/><text fill="#000000" font-family="sans-serif" font-size="20" font-style="italic" lengthAdjust="spacing" textLength="138" x="748.5" y="82.127">«component»</text><text fill="#000000" font-family="sans-serif" font-size="20" lengthAdjust="spacing" textLength="144" x="745.5" y="105.4082">UI Component</text><rect fill="#E2E2F0" height="60.5625" rx="2.5" ry="2.5" style="stroke:#181818;stroke-width:0.5;" width="158" x="738.5" y="924.0313"/><text fill="#000000" font-family="sans-serif" font-size="20" font-style="italic" lengthAdjust="spacing" textLength="138" x="748.5" y="949.5957">«component»</text><text fill="#000000" font-family="sans-serif" font-size="20" lengthAdjust="spacing" textLength="144" x="745.5" y="972.877">UI Component</text><rect fill="#E2E2F0" height="60.5625" rx="2.5" ry="2.5" style="stroke:#181818;stroke-width:0.5;" width="152" x="979.5" y="56.5625"/><text fill="#000000" font-family="sans-serif" font-size="20" font-style="italic" lengthAdjust="spacing" textLength="138" x="986.5" y="82.127">«component»</text><text fill="#000000" font-family="sans-serif" font-size="20" lengthAdjust="spacing" textLength="73" x="1019" y="105.4082">Module</text><rect fill="#E2E2F0" height="60.5625" rx="2.5" ry="2.5" style="stroke:#181818;stroke-width:0.5;" width="152" x="979.5" y="924.0313"/><text fill="#000000" font-family="sans-serif" font-size="20" font-style="italic" lengthAdjust="spacing" textLength="138" x="986.5" y="949.5957">«component»</text><text fill="#000000" font-family="sans-serif" font-size="20" lengthAdjust="spacing" textLength="73" x="1019" y="972.877">Module</text><rect fill="#E2E2F0" height="60.5625" rx="2.5" ry="2.5" style="stroke:#181818;stroke-width:0.5;" width="152" x="1392.5" y="56.5625"/><text fill="#000000" font-family="sans-serif" font-size="20" font-style="italic" lengthAdjust="spacing" textLength="138" x="1399.5" y="82.127">«component»</text><text fill="#000000" font-family="sans-serif" font-size="20" lengthAdjust="spacing" textLength="73" x="1432" y="105.4082">Service</text><rect fill="#E2E2F0" height="60.5625" rx="2.5" ry="2.5" style="stroke:#181818;stroke-width:0.5;" width="152" x="1392.5" y="924.0313"/><text fill="#000000" font-family="sans-serif" font-size="20" font-style="italic" lengthAdjust="spacing" textLength="138" x="1399.5" y="949.5957">«component»</text><text fill="#000000" font-family="sans-serif" font-size="20" lengthAdjust="spacing" textLength="73" x="1432" y="972.877">Service</text><rect fill="#E2E2F0" height="60.5625" rx="2.5" ry="2.5" style="stroke:#181818;stroke-width:0.5;" width="152" x="1687.5" y="56.5625"/><text fill="#000000" font-family="sans-serif" font-size="20" font-style="italic" lengthAdjust="spacing" textLength="138" x="1694.5" y="82.127">«component»</text><text fill="#000000" font-family="sans-serif" font-size="20" lengthAdjust="spacing" textLength="51" x="1738" y="105.4082">HTTP</text><rect fill="#E2E2F0" height="60.5625" rx="2.5" ry="2.5" style="stroke:#181818;stroke-width:0.5;" width="152" x="1687.5" y="924.0313"/><text fill="#000000" font-family="sans-serif" font-size="20" font-style="italic" lengthAdjust="spacing" textLength="138" x="1694.5" y="949.5957">«component»</text><text fill="#000000" font-family="sans-serif" font-size="20" lengthAdjust="spacing" textLength="51" x="1738" y="972.877">HTTP</text><rect fill="#E2E2F0" height="60.5625" rx="2.5" ry="2.5" style="stroke:#181818;stroke-width:0.5;" width="152" x="2126" y="56.5625"/><text fill="#000000" font-family="sans-serif" font-size="20" font-style="italic" lengthAdjust="spacing" textLength="138" x="2133" y="82.127">«component»</text><text fill="#000000" font-family="sans-serif" font-size="20" lengthAdjust="spacing" textLength="59" x="2172.5" y="105.4082">Route</text><rect fill="#E2E2F0" height="60.5625" rx="2.5" ry="2.5" style="stroke:#181818;stroke-width:0.5;" width="152" x="2126" y="924.0313"/><text fill="#000000" font-family="sans-serif" font-size="20" font-style="italic" lengthAdjust="spacing" textLength="138" x="2133" y="949.5957">«component»</text><text fill="#000000" font-family="sans-serif" font-size="20" lengthAdjust="spacing" textLength="59" x="2172.5" y="972.877">Route</text><rect fill="#FFFFFF" height="786.9063" style="stroke:#181818;stroke-width:1.0;" width="10" x="105.5" y="128.125"/><rect fill="#FFFFFF" height="37.2813" style="stroke:#181818;stroke-width:1.0;" width="10" x="812.5" y="157.4063"/><rect fill="#FFFFFF" height="668.0625" style="stroke:#181818;stroke-width:1.0;" width="10" x="812.5" y="231.9688"/><rect fill="#FFFFFF" height="381.8125" style="stroke:#181818;stroke-width:1.0;" width="10" x="1050.5" y="269.25"/><rect fill="#FFFFFF" height="28" style="stroke:#181818;stroke-width:1.0;" width="10" x="1055.5" y="314.5313"/><rect fill="#FFFFFF" height="174.4063" style="stroke:#181818;stroke-width:1.0;" width="10" x="1050.5" y="688.3438"/><rect fill="#FFFFFF" height="226.9688" style="stroke:#181818;stroke-width:1.0;" width="10" x="1463.5" y="386.8125"/><rect fill="#FFFFFF" height="137.125" style="stroke:#181818;stroke-width:1.0;" width="10" x="1463.5" y="688.3438"/><rect fill="#FFFFFF" height="152.4063" style="stroke:#181818;stroke-width:1.0;" width="10" x="1758.5" y="424.0938"/><rect fill="#FFFFFF" height="99.8438" style="stroke:#181818;stroke-width:1.0;" width="10" x="1758.5" y="688.3438"/><rect fill="#FFFFFF" height="77.8438" style="stroke:#181818;stroke-width:1.0;" width="10" x="2197" y="461.375"/><rect fill="#FFFFFF" height="62.5625" style="stroke:#181818;stroke-width:1.0;" width="10" x="2197" y="688.3438"/><polygon fill="#181818" points="800.5,153.4063,810.5,157.4063,800.5,161.4063,804.5,157.4063" style="stroke:#181818;stroke-width:1.0;"/><line style="stroke:#181818;stroke-width:1.0;" x1="115.5" x2="806.5" y1="157.4063" y2="157.4063"/><text fill="#000000" font-family="sans-serif" font-size="20" font-weight="bold" lengthAdjust="spacing" textLength="14" x="122.5" y="150.6895">1</text><text fill="#000000" font-family="sans-serif" font-size="20" lengthAdjust="spacing" textLength="255" x="140.5" y="150.6895">wants to edit a connector</text><polygon fill="#181818" points="126.5,190.6875,116.5,194.6875,126.5,198.6875,122.5,194.6875" style="stroke:#181818;stroke-width:1.0;"/><line style="stroke:#181818;stroke-width:1.0;stroke-dasharray:2.0,2.0;" x1="120.5" x2="816.5" y1="194.6875" y2="194.6875"/><text fill="#000000" font-family="sans-serif" font-size="20" font-weight="bold" lengthAdjust="spacing" textLength="14" x="132.5" y="187.9707">2</text><text fill="#000000" font-family="sans-serif" font-size="20" lengthAdjust="spacing" textLength="300" x="150.5" y="187.9707">asks for the floors 1 &amp; 2 codes</text><polygon fill="#181818" points="800.5,227.9688,810.5,231.9688,800.5,235.9688,804.5,231.9688" style="stroke:#181818;stroke-width:1.0;"/><line style="stroke:#181818;stroke-width:1.0;" x1="115.5" x2="806.5" y1="231.9688" y2="231.9688"/><text fill="#000000" font-family="sans-serif" font-size="20" font-weight="bold" lengthAdjust="spacing" textLength="14" x="122.5" y="225.252">3</text><text fill="#000000" font-family="sans-serif" font-size="20" lengthAdjust="spacing" textLength="157" x="140.5" y="225.252">inserts the data</text><polygon fill="#181818" points="1038.5,265.25,1048.5,269.25,1038.5,273.25,1042.5,269.25" style="stroke:#181818;stroke-width:1.0;"/><line style="stroke:#181818;stroke-width:1.0;" x1="822.5" x2="1044.5" y1="269.25" y2="269.25"/><text fill="#000000" font-family="sans-serif" font-size="20" font-weight="bold" lengthAdjust="spacing" textLength="14" x="829.5" y="262.5332">4</text><text fill="#000000" font-family="sans-serif" font-size="20" lengthAdjust="spacing" textLength="174" x="847.5" y="262.5332">updateConnector</text><line style="stroke:#181818;stroke-width:1.0;" x1="1065.5" x2="1107.5" y1="306.5313" y2="306.5313"/><line style="stroke:#181818;stroke-width:1.0;" x1="1107.5" x2="1107.5" y1="306.5313" y2="319.5313"/><line style="stroke:#181818;stroke-width:1.0;" x1="1066.5" x2="1107.5" y1="319.5313" y2="319.5313"/><polygon fill="#181818" points="1076.5,315.5313,1066.5,319.5313,1076.5,323.5313,1072.5,319.5313" style="stroke:#181818;stroke-width:1.0;"/><text fill="#000000" font-family="sans-serif" font-size="20" font-weight="bold" lengthAdjust="spacing" textLength="14" x="1072.5" y="299.8145">5</text><text fill="#000000" font-family="sans-serif" font-size="20" lengthAdjust="spacing" textLength="141" x="1090.5" y="299.8145">validates data</text><polygon fill="#181818" points="1451.5,382.8125,1461.5,386.8125,1451.5,390.8125,1455.5,386.8125" style="stroke:#181818;stroke-width:1.0;"/><line style="stroke:#181818;stroke-width:1.0;" x1="1060.5" x2="1457.5" y1="386.8125" y2="386.8125"/><text fill="#000000" font-family="sans-serif" font-size="20" font-weight="bold" lengthAdjust="spacing" textLength="14" x="1067.5" y="380.0957">6</text><text fill="#000000" font-family="sans-serif" font-size="20" lengthAdjust="spacing" textLength="366" x="1085.5" y="380.0957">updateConnector(code,floor1,floor2)</text><polygon fill="#181818" points="1746.5,420.0938,1756.5,424.0938,1746.5,428.0938,1750.5,424.0938" style="stroke:#181818;stroke-width:1.0;"/><line style="stroke:#181818;stroke-width:1.0;" x1="1473.5" x2="1752.5" y1="424.0938" y2="424.0938"/><text fill="#000000" font-family="sans-serif" font-size="20" font-weight="bold" lengthAdjust="spacing" textLength="14" x="1480.5" y="417.377">7</text><text fill="#000000" font-family="sans-serif" font-size="20" lengthAdjust="spacing" textLength="151" x="1498.5" y="417.377">patch(url,data)</text><polygon fill="#181818" points="2185,457.375,2195,461.375,2185,465.375,2189,461.375" style="stroke:#181818;stroke-width:1.0;"/><line style="stroke:#181818;stroke-width:1.0;" x1="1768.5" x2="2191" y1="461.375" y2="461.375"/><text fill="#000000" font-family="sans-serif" font-size="20" font-weight="bold" lengthAdjust="spacing" textLength="14" x="1775.5" y="454.6582">8</text><text fill="#000000" font-family="sans-serif" font-size="20" lengthAdjust="spacing" textLength="271" x="1793.5" y="454.6582">PATCH /connectors/{code}</text><text fill="#000000" font-family="sans-serif" font-size="20" lengthAdjust="spacing" textLength="71" x="2087.5" y="454.6582">{data}</text><path d="M10,476.375 L86,476.375 L86,491.6563 L76,501.6563 L10,501.6563 L10,476.375 " fill="#EEEEEE" style="stroke:#000000;stroke-width:1.5;"/><rect fill="none" height="431.6563" style="stroke:#000000;stroke-width:1.5;" width="2278" x="10" y="476.375"/><text fill="#000000" font-family="sans-serif" font-size="20" font-weight="bold" lengthAdjust="spacing" textLength="31" x="25" y="495.9395">alt</text><text fill="#000000" font-family="sans-serif" font-size="20" font-weight="bold" lengthAdjust="spacing" textLength="335" x="101" y="496.9395">[the connector gets updated]</text><polygon fill="#181818" points="1779.5,535.2188,1769.5,539.2188,1779.5,543.2188,1775.5,539.2188" style="stroke:#181818;stroke-width:1.0;"/><line style="stroke:#181818;stroke-width:1.0;stroke-dasharray:2.0,2.0;" x1="1773.5" x2="2201" y1="539.2188" y2="539.2188"/><text fill="#000000" font-family="sans-serif" font-size="20" font-weight="bold" lengthAdjust="spacing" textLength="14" x="1785.5" y="532.502">9</text><text fill="#000000" font-family="sans-serif" font-size="20" lengthAdjust="spacing" textLength="74" x="1803.5" y="532.502">200 OK</text><polygon fill="#181818" points="1484.5,572.5,1474.5,576.5,1484.5,580.5,1480.5,576.5" style="stroke:#181818;stroke-width:1.0;"/><line style="stroke:#181818;stroke-width:1.0;stroke-dasharray:2.0,2.0;" x1="1478.5" x2="1762.5" y1="576.5" y2="576.5"/><text fill="#000000" font-family="sans-serif" font-size="20" font-weight="bold" lengthAdjust="spacing" textLength="28" x="1490.5" y="569.7832">10</text><text fill="#000000" font-family="sans-serif" font-size="20" lengthAdjust="spacing" textLength="229" x="1522.5" y="569.7832">the updated connector</text><polygon fill="#181818" points="1071.5,609.7813,1061.5,613.7813,1071.5,617.7813,1067.5,613.7813" style="stroke:#181818;stroke-width:1.0;"/><line style="stroke:#181818;stroke-width:1.0;stroke-dasharray:2.0,2.0;" x1="1065.5" x2="1467.5" y1="613.7813" y2="613.7813"/><text fill="#000000" font-family="sans-serif" font-size="20" font-weight="bold" lengthAdjust="spacing" textLength="28" x="1077.5" y="607.0645">11</text><text fill="#000000" font-family="sans-serif" font-size="20" lengthAdjust="spacing" textLength="229" x="1109.5" y="607.0645">the updated connector</text><polygon fill="#181818" points="833.5,647.0625,823.5,651.0625,833.5,655.0625,829.5,651.0625" style="stroke:#181818;stroke-width:1.0;"/><line style="stroke:#181818;stroke-width:1.0;stroke-dasharray:2.0,2.0;" x1="827.5" x2="1054.5" y1="651.0625" y2="651.0625"/><text fill="#000000" font-family="sans-serif" font-size="20" font-weight="bold" lengthAdjust="spacing" textLength="28" x="839.5" y="644.3457">12</text><text fill="#000000" font-family="sans-serif" font-size="20" lengthAdjust="spacing" textLength="172" x="871.5" y="644.3457">success message</text><polygon fill="#181818" points="126.5,684.3438,116.5,688.3438,126.5,692.3438,122.5,688.3438" style="stroke:#181818;stroke-width:1.0;"/><line style="stroke:#181818;stroke-width:1.0;stroke-dasharray:2.0,2.0;" x1="120.5" x2="811.5" y1="688.3438" y2="688.3438"/><text fill="#000000" font-family="sans-serif" font-size="20" font-weight="bold" lengthAdjust="spacing" textLength="28" x="132.5" y="681.627">13</text><text fill="#000000" font-family="sans-serif" font-size="20" lengthAdjust="spacing" textLength="364" x="164.5" y="681.627">informs the success of the operation</text><line style="stroke:#000000;stroke-width:1.0;stroke-dasharray:2.0,2.0;" x1="10" x2="2288" y1="697.3438" y2="697.3438"/><text fill="#000000" font-family="sans-serif" font-size="20" font-weight="bold" lengthAdjust="spacing" textLength="497" x="15" y="715.9082">[there is a connector between those floors]</text><polygon fill="#181818" points="1779.5,746.9063,1769.5,750.9063,1779.5,754.9063,1775.5,750.9063" style="stroke:#181818;stroke-width:1.0;"/><line style="stroke:#181818;stroke-width:1.0;stroke-dasharray:2.0,2.0;" x1="1773.5" x2="2201" y1="750.9063" y2="750.9063"/><text fill="#000000" font-family="sans-serif" font-size="20" font-weight="bold" lengthAdjust="spacing" textLength="28" x="1785.5" y="744.1895">14</text><text fill="#000000" font-family="sans-serif" font-size="20" lengthAdjust="spacing" textLength="172" x="1817.5" y="744.1895">400 Bad Request</text><polygon fill="#181818" points="1484.5,784.1875,1474.5,788.1875,1484.5,792.1875,1480.5,788.1875" style="stroke:#181818;stroke-width:1.0;"/><line style="stroke:#181818;stroke-width:1.0;stroke-dasharray:2.0,2.0;" x1="1478.5" x2="1762.5" y1="788.1875" y2="788.1875"/><text fill="#000000" font-family="sans-serif" font-size="20" font-weight="bold" lengthAdjust="spacing" textLength="28" x="1490.5" y="781.4707">15</text><text fill="#000000" font-family="sans-serif" font-size="20" lengthAdjust="spacing" textLength="48" x="1522.5" y="781.4707">error</text><polygon fill="#181818" points="1071.5,821.4688,1061.5,825.4688,1071.5,829.4688,1067.5,825.4688" style="stroke:#181818;stroke-width:1.0;"/><line style="stroke:#181818;stroke-width:1.0;stroke-dasharray:2.0,2.0;" x1="1065.5" x2="1467.5" y1="825.4688" y2="825.4688"/><text fill="#000000" font-family="sans-serif" font-size="20" font-weight="bold" lengthAdjust="spacing" textLength="28" x="1077.5" y="818.752">16</text><text fill="#000000" font-family="sans-serif" font-size="20" lengthAdjust="spacing" textLength="48" x="1109.5" y="818.752">error</text><polygon fill="#181818" points="833.5,858.75,823.5,862.75,833.5,866.75,829.5,862.75" style="stroke:#181818;stroke-width:1.0;"/><line style="stroke:#181818;stroke-width:1.0;stroke-dasharray:2.0,2.0;" x1="827.5" x2="1054.5" y1="862.75" y2="862.75"/><text fill="#000000" font-family="sans-serif" font-size="20" font-weight="bold" lengthAdjust="spacing" textLength="28" x="839.5" y="856.0332">17</text><text fill="#000000" font-family="sans-serif" font-size="20" lengthAdjust="spacing" textLength="48" x="871.5" y="856.0332">error</text><polygon fill="#181818" points="126.5,896.0313,116.5,900.0313,126.5,904.0313,122.5,900.0313" style="stroke:#181818;stroke-width:1.0;"/><line style="stroke:#181818;stroke-width:1.0;stroke-dasharray:2.0,2.0;" x1="120.5" x2="816.5" y1="900.0313" y2="900.0313"/><text fill="#000000" font-family="sans-serif" font-size="20" font-weight="bold" lengthAdjust="spacing" textLength="28" x="132.5" y="893.3145">18</text><text fill="#000000" font-family="sans-serif" font-size="20" lengthAdjust="spacing" textLength="641" x="164.5" y="893.3145">shows error message "A connector exists between those floors."</text><!--SRC=[ZLJDRjf04BxlKuoeL14fD0Jb524awhHorLg9W4IgbCjY3x32tdLtrn0boXFb4NhBatLsZS46ckHYMFlxcVbcRBCKCkUQPwcAbvX0WZDUfFQxadOi7X5wNSOBgsIHJL4pKw7XgiHDyC4EKp6N6KhRxyTqHJqOGFc7CHvRfI68W1je1JpB2mCHbtoEkiNOL3r0w_Kb9ZCk96fe1nSdht_lvPqm1K_58xT2oHRiX1a0-LiHYvnB2u7NlVq1WSfo9GdamTNX05_M4QcaIF5jvFYkr1wZNedu7N3eeU5aShEFGva0TVb6gn1TRH9n4KAzsK-_n7nXVsEQglMUu-ZwTlBDkuvKOV6_jfI_M76BD0B6Q0oT0MLs2MlIC60LO28iSA2o9BfHrGWUt-zqF86RfO4PZT8k46QfKjh0ENo67b4JD2p1FUB6I4Y3sbaHBU6MD_KTAY9KaTCp30wBeAAZ2hIYXN0mioSKrSqhWXlVWMxRrNhggpylVtedEnsYCEPuH0-9d7CRBzg5Ja-TNmqOCXOwK3c3IxWPJe8GphOPchCdP_HyR-79KPztL4-XgQJM9xAbm1mffBBSX4OT-k0hWrwt2zS_wNQjqOqI-4uTs9NiD3SYjP4sUA7Zb7CjC_e0noS3KFguKPWYZj4OoEX2Yzj4HnwxMnqXQM-oSWKgefhveyfH-rUSOMhGtT88mjGN4gPeruYI7YfJhHuPr1gg7QBwmPLTEsuJQuPxGU5-vGcCy4-1nduWPTJwtLIFO0vIF8BPpyuirDgKm2fiQ0rhwU23CBGvnqBwqcfg1-whm1flQiJ-0G00]--></g></svg>