<?xml version="1.0" encoding="UTF-8" standalone="no"?><svg xmlns="http://www.w3.org/2000/svg" xmlns:xlink="http://www.w3.org/1999/xlink" contentStyleType="text/css" height="788px" preserveAspectRatio="none" style="width:1641px;height:788px;background:#FFFFFF;" version="1.1" viewBox="0 0 1641 788" width="1641px" zoomAndPan="magnify"><defs/><g><rect fill="#DDDDDD" height="776.5595" style="stroke:#181818;stroke-width:0.5;" width="590.625" x="651.25" y="6"/><text fill="#000000" font-family="sans-serif" font-size="20" font-weight="bold" lengthAdjust="spacing" textLength="158.375" x="867.375" y="27.38">«container (C4)»</text><text fill="#000000" font-family="sans-serif" font-size="20" font-weight="bold" lengthAdjust="spacing" textLength="124.125" x="884.5" y="54.62">Visualization</text><rect fill="#FFFFE0" height="776.5595" style="stroke:#181818;stroke-width:0.5;" width="185.5" x="1449.5" y="6"/><text fill="#000000" font-family="sans-serif" font-size="20" font-weight="bold" lengthAdjust="spacing" textLength="158.375" x="1463.0625" y="27.38">«container (C4)»</text><text fill="#000000" font-family="sans-serif" font-size="20" font-weight="bold" lengthAdjust="spacing" textLength="169.5" x="1457.5" y="54.62">MD Management</text><rect fill="#FFFFFF" height="538.3596" style="stroke:#181818;stroke-width:1.0;" width="10" x="100.5" y="143.9599"/><rect fill="#FFFFFF" height="41.24" style="stroke:#181818;stroke-width:1.0;" width="10" x="760.75" y="177.1999"/><rect fill="#FFFFFF" height="407.6397" style="stroke:#181818;stroke-width:1.0;" width="10" x="760.75" y="259.6798"/><rect fill="#FFFFFF" height="172.1999" style="stroke:#181818;stroke-width:1.0;" width="10" x="1144.375" y="300.9198"/><rect fill="#FFFFFF" height="111.7199" style="stroke:#181818;stroke-width:1.0;" width="10" x="1144.375" y="514.3596"/><rect fill="#FFFFFF" height="89.7199" style="stroke:#181818;stroke-width:1.0;" width="10" x="1537.25" y="342.1598"/><rect fill="#FFFFFF" height="70.4799" style="stroke:#181818;stroke-width:1.0;" width="10" x="1537.25" y="514.3596"/><rect fill="none" height="318.1598" style="stroke:#000000;stroke-width:1.5;" width="1624.75" x="10" y="357.1598"/><line style="stroke:#181818;stroke-width:0.5;stroke-dasharray:5.0,5.0;" x1="105" x2="105" y1="133.9599" y2="692.3195"/><line style="stroke:#181818;stroke-width:0.5;stroke-dasharray:5.0,5.0;" x1="765.25" x2="765.25" y1="133.9599" y2="692.3195"/><line style="stroke:#181818;stroke-width:0.5;stroke-dasharray:5.0,5.0;" x1="1148.875" x2="1148.875" y1="133.9599" y2="692.3195"/><line style="stroke:#181818;stroke-width:0.5;stroke-dasharray:5.0,5.0;" x1="1541.75" x2="1541.75" y1="133.9599" y2="692.3195"/><text fill="#000000" font-family="sans-serif" font-size="20" lengthAdjust="spacing" textLength="165" x="20" y="128.0999">Campus Manager</text><ellipse cx="105.5" cy="55.2199" fill="#E2E2F0" rx="8" ry="8" style="stroke:#181818;stroke-width:0.5;"/><path d="M105.5,63.2199 L105.5,90.2199 M92.5,71.2199 L118.5,71.2199 M105.5,90.2199 L92.5,105.2199 M105.5,90.2199 L118.5,105.2199 " fill="none" style="stroke:#181818;stroke-width:0.5;"/><text fill="#000000" font-family="sans-serif" font-size="20" lengthAdjust="spacing" textLength="165" x="20" y="712.6995">Campus Manager</text><ellipse cx="105.5" cy="727.0595" fill="#E2E2F0" rx="8" ry="8" style="stroke:#181818;stroke-width:0.5;"/><path d="M105.5,735.0595 L105.5,762.0595 M92.5,743.0595 L118.5,743.0595 M105.5,762.0595 L92.5,777.0595 M105.5,762.0595 L118.5,777.0595 " fill="none" style="stroke:#181818;stroke-width:0.5;"/><rect fill="#E2E2F0" height="68.4799" rx="2.5" ry="2.5" style="stroke:#181818;stroke-width:0.5;" width="221" x="655.25" y="64.4799"/><text fill="#000000" font-family="sans-serif" font-size="20" font-style="italic" lengthAdjust="spacing" textLength="122" x="704.75" y="92.8599">«component»</text><text fill="#000000" font-family="sans-serif" font-size="20" lengthAdjust="spacing" textLength="207" x="662.25" y="120.0999">ConnectorComponent</text><rect fill="#E2E2F0" height="68.4799" rx="2.5" ry="2.5" style="stroke:#181818;stroke-width:0.5;" width="221" x="655.25" y="691.3195"/><text fill="#000000" font-family="sans-serif" font-size="20" font-style="italic" lengthAdjust="spacing" textLength="122" x="704.75" y="719.6995">«component»</text><text fill="#000000" font-family="sans-serif" font-size="20" lengthAdjust="spacing" textLength="207" x="662.25" y="746.9395">ConnectorComponent</text><rect fill="#E2E2F0" height="68.4799" rx="2.5" ry="2.5" style="stroke:#181818;stroke-width:0.5;" width="177" x="1060.875" y="64.4799"/><text fill="#000000" font-family="sans-serif" font-size="20" font-style="italic" lengthAdjust="spacing" textLength="122" x="1088.375" y="92.8599">«component»</text><text fill="#000000" font-family="sans-serif" font-size="20" lengthAdjust="spacing" textLength="163" x="1067.875" y="120.0999">ConnectorService</text><rect fill="#E2E2F0" height="68.4799" rx="2.5" ry="2.5" style="stroke:#181818;stroke-width:0.5;" width="177" x="1060.875" y="691.3195"/><text fill="#000000" font-family="sans-serif" font-size="20" font-style="italic" lengthAdjust="spacing" textLength="122" x="1088.375" y="719.6995">«component»</text><text fill="#000000" font-family="sans-serif" font-size="20" lengthAdjust="spacing" textLength="163" x="1067.875" y="746.9395">ConnectorService</text><rect fill="#E2E2F0" height="68.4799" rx="2.5" ry="2.5" style="stroke:#181818;stroke-width:0.5;" width="165" x="1459.75" y="64.4799"/><text fill="#000000" font-family="sans-serif" font-size="20" font-style="italic" lengthAdjust="spacing" textLength="122" x="1481.25" y="92.8599">«component»</text><text fill="#000000" font-family="sans-serif" font-size="20" lengthAdjust="spacing" textLength="151" x="1466.75" y="120.0999">ConnectorRoute</text><rect fill="#E2E2F0" height="68.4799" rx="2.5" ry="2.5" style="stroke:#181818;stroke-width:0.5;" width="165" x="1459.75" y="691.3195"/><text fill="#000000" font-family="sans-serif" font-size="20" font-style="italic" lengthAdjust="spacing" textLength="122" x="1481.25" y="719.6995">«component»</text><text fill="#000000" font-family="sans-serif" font-size="20" lengthAdjust="spacing" textLength="151" x="1466.75" y="746.9395">ConnectorRoute</text><rect fill="#FFFFFF" height="538.3596" style="stroke:#181818;stroke-width:1.0;" width="10" x="100.5" y="143.9599"/><rect fill="#FFFFFF" height="41.24" style="stroke:#181818;stroke-width:1.0;" width="10" x="760.75" y="177.1999"/><rect fill="#FFFFFF" height="407.6397" style="stroke:#181818;stroke-width:1.0;" width="10" x="760.75" y="259.6798"/><rect fill="#FFFFFF" height="172.1999" style="stroke:#181818;stroke-width:1.0;" width="10" x="1144.375" y="300.9198"/><rect fill="#FFFFFF" height="111.7199" style="stroke:#181818;stroke-width:1.0;" width="10" x="1144.375" y="514.3596"/><rect fill="#FFFFFF" height="89.7199" style="stroke:#181818;stroke-width:1.0;" width="10" x="1537.25" y="342.1598"/><rect fill="#FFFFFF" height="70.4799" style="stroke:#181818;stroke-width:1.0;" width="10" x="1537.25" y="514.3596"/><polygon fill="#181818" points="748.75,173.1999,758.75,177.1999,748.75,181.1999,752.75,177.1999" style="stroke:#181818;stroke-width:1.0;"/><line style="stroke:#181818;stroke-width:1.0;" x1="110.5" x2="754.75" y1="177.1999" y2="177.1999"/><text fill="#000000" font-family="sans-serif" font-size="20" font-weight="bold" lengthAdjust="spacing" textLength="11.625" x="117.5" y="169.3399">1</text><text fill="#000000" font-family="sans-serif" font-size="20" lengthAdjust="spacing" textLength="235" x="133.125" y="169.3399">wants to edit a connector</text><polygon fill="#181818" points="121.5,214.4398,111.5,218.4398,121.5,222.4398,117.5,218.4398" style="stroke:#181818;stroke-width:1.0;"/><line style="stroke:#181818;stroke-width:1.0;stroke-dasharray:2.0,2.0;" x1="115.5" x2="764.75" y1="218.4398" y2="218.4398"/><text fill="#000000" font-family="sans-serif" font-size="20" font-weight="bold" lengthAdjust="spacing" textLength="11.625" x="127.5" y="210.5799">2</text><text fill="#000000" font-family="sans-serif" font-size="20" lengthAdjust="spacing" textLength="280" x="143.125" y="210.5799">asks for the floors 1 &amp; 2 codes</text><polygon fill="#181818" points="748.75,255.6798,758.75,259.6798,748.75,263.6798,752.75,259.6798" style="stroke:#181818;stroke-width:1.0;"/><line style="stroke:#181818;stroke-width:1.0;" x1="110.5" x2="754.75" y1="259.6798" y2="259.6798"/><text fill="#000000" font-family="sans-serif" font-size="20" font-weight="bold" lengthAdjust="spacing" textLength="11.625" x="117.5" y="251.8198">3</text><text fill="#000000" font-family="sans-serif" font-size="20" lengthAdjust="spacing" textLength="144" x="133.125" y="251.8198">inserts the data</text><polygon fill="#181818" points="1132.375,296.9198,1142.375,300.9198,1132.375,304.9198,1136.375,300.9198" style="stroke:#181818;stroke-width:1.0;"/><line style="stroke:#181818;stroke-width:1.0;" x1="770.75" x2="1138.375" y1="300.9198" y2="300.9198"/><text fill="#000000" font-family="sans-serif" font-size="20" font-weight="bold" lengthAdjust="spacing" textLength="11.625" x="777.75" y="293.0598">4</text><text fill="#000000" font-family="sans-serif" font-size="20" lengthAdjust="spacing" textLength="339" x="793.375" y="293.0598">updateConnector(code,floor1,floor2)</text><polygon fill="#181818" points="1525.25,338.1598,1535.25,342.1598,1525.25,346.1598,1529.25,342.1598" style="stroke:#181818;stroke-width:1.0;"/><line style="stroke:#181818;stroke-width:1.0;" x1="1154.375" x2="1531.25" y1="342.1598" y2="342.1598"/><text fill="#000000" font-family="sans-serif" font-size="20" font-weight="bold" lengthAdjust="spacing" textLength="11.625" x="1161.375" y="334.2998">5</text><text fill="#000000" font-family="sans-serif" font-size="20" lengthAdjust="spacing" textLength="248" x="1177" y="334.2998">PATCH /connectors/{code}</text><text fill="#000000" font-family="sans-serif" font-size="20" lengthAdjust="spacing" textLength="57" x="1462" y="334.2998">{data}</text><path d="M10,357.1598 L79.875,357.1598 L79.875,376.3997 L69.875,386.3997 L10,386.3997 L10,357.1598 " fill="#EEEEEE" style="stroke:#000000;stroke-width:1.5;"/><rect fill="none" height="318.1598" style="stroke:#000000;stroke-width:1.5;" width="1624.75" x="10" y="357.1598"/><text fill="#000000" font-family="sans-serif" font-size="20" font-weight="bold" lengthAdjust="spacing" textLength="24.875" x="25" y="379.5398">alt</text><text fill="#000000" font-family="sans-serif" font-size="20" font-weight="bold" lengthAdjust="spacing" textLength="285.625" x="94.875" y="380.5398">[the connector gets updated]</text><polygon fill="#181818" points="1165.375,427.8797,1155.375,431.8797,1165.375,435.8797,1161.375,431.8797" style="stroke:#181818;stroke-width:1.0;"/><line style="stroke:#181818;stroke-width:1.0;stroke-dasharray:2.0,2.0;" x1="1159.375" x2="1541.25" y1="431.8797" y2="431.8797"/><text fill="#000000" font-family="sans-serif" font-size="20" font-weight="bold" lengthAdjust="spacing" textLength="11.625" x="1171.375" y="424.0197">6</text><text fill="#000000" font-family="sans-serif" font-size="20" lengthAdjust="spacing" textLength="66" x="1187" y="424.0197">200 OK</text><polygon fill="#181818" points="781.75,469.1197,771.75,473.1197,781.75,477.1197,777.75,473.1197" style="stroke:#181818;stroke-width:1.0;"/><line style="stroke:#181818;stroke-width:1.0;stroke-dasharray:2.0,2.0;" x1="775.75" x2="1148.375" y1="473.1197" y2="473.1197"/><text fill="#000000" font-family="sans-serif" font-size="20" font-weight="bold" lengthAdjust="spacing" textLength="11.625" x="787.75" y="465.2597">7</text><text fill="#000000" font-family="sans-serif" font-size="20" lengthAdjust="spacing" textLength="211" x="803.375" y="465.2597">the updated connector</text><polygon fill="#181818" points="121.5,510.3596,111.5,514.3596,121.5,518.3596,117.5,514.3596" style="stroke:#181818;stroke-width:1.0;"/><line style="stroke:#181818;stroke-width:1.0;stroke-dasharray:2.0,2.0;" x1="115.5" x2="759.75" y1="514.3596" y2="514.3596"/><text fill="#000000" font-family="sans-serif" font-size="20" font-weight="bold" lengthAdjust="spacing" textLength="11.625" x="127.5" y="506.4997">8</text><text fill="#000000" font-family="sans-serif" font-size="20" lengthAdjust="spacing" textLength="340" x="143.125" y="506.4997">informs the success of the operation</text><line style="stroke:#000000;stroke-width:1.0;stroke-dasharray:2.0,2.0;" x1="10" x2="1634.75" y1="523.3596" y2="523.3596"/><text fill="#000000" font-family="sans-serif" font-size="20" font-weight="bold" lengthAdjust="spacing" textLength="422.125" x="15" y="544.7396">[there is a connector between those floors]</text><polygon fill="#181818" points="1165.375,580.8396,1155.375,584.8396,1165.375,588.8396,1161.375,584.8396" style="stroke:#181818;stroke-width:1.0;"/><line style="stroke:#181818;stroke-width:1.0;stroke-dasharray:2.0,2.0;" x1="1159.375" x2="1541.25" y1="584.8396" y2="584.8396"/><text fill="#000000" font-family="sans-serif" font-size="20" font-weight="bold" lengthAdjust="spacing" textLength="11.625" x="1171.375" y="576.9796">9</text><text fill="#000000" font-family="sans-serif" font-size="20" lengthAdjust="spacing" textLength="154" x="1187" y="576.9796">400 Bad Request</text><polygon fill="#181818" points="781.75,622.0796,771.75,626.0796,781.75,630.0796,777.75,626.0796" style="stroke:#181818;stroke-width:1.0;"/><line style="stroke:#181818;stroke-width:1.0;stroke-dasharray:2.0,2.0;" x1="775.75" x2="1148.375" y1="626.0796" y2="626.0796"/><text fill="#000000" font-family="sans-serif" font-size="20" font-weight="bold" lengthAdjust="spacing" textLength="23.25" x="787.75" y="618.2196">10</text><text fill="#000000" font-family="sans-serif" font-size="20" lengthAdjust="spacing" textLength="47" x="815" y="618.2196">error</text><polygon fill="#181818" points="121.5,663.3195,111.5,667.3195,121.5,671.3195,117.5,667.3195" style="stroke:#181818;stroke-width:1.0;"/><line style="stroke:#181818;stroke-width:1.0;stroke-dasharray:2.0,2.0;" x1="115.5" x2="764.75" y1="667.3195" y2="667.3195"/><text fill="#000000" font-family="sans-serif" font-size="20" font-weight="bold" lengthAdjust="spacing" textLength="23.25" x="127.5" y="659.4596">11</text><text fill="#000000" font-family="sans-serif" font-size="20" lengthAdjust="spacing" textLength="599" x="154.75" y="659.4596">shows error message "A connector exists between those floors."</text><!--SRC=[ZLBRQjim6BxNKtnuC5fOrZJqAeH0vcuCjj2HP8L1RnJxJo9YIvuaDw6bJzH7s5sVRB_i7EpiU6DRrlyT9RTMkf1Mvfb9rfGYfOKiC__1Q3zL3uHULyZI6rtcSxB2xQTnNS_DQEj7cLhgdBGV319-aXqEKNy88HDlBE8nf4CKoxme7SPIooNPI8YvsI9wUKvOJ2fD5cVnrVdBZpjzgrmfC_KWlJ8wmf5O0AplLQ8AgJtYcjTeJK4eDdbXD8zMaFtY5zJqzWGt9Nkl4Zf5aKx15l_Y4-FhNPoG7qsdhpwhvSf_eompcnFzoStNsVksWuaf_P_rkKLrBprnaK9mcPqX9-zZmsGEte1IvI6HxDaQW6f-qEbK0EdM3Wi-4ByYB39ZhCCbNgF7q9ISIEa4k1DIsf4DKWnBfPTj_Z0LAksZB7YN3g7E0kkRIkUoVlNEZr26215m3AyRwUFBQ1P_nCKXYBju31nFTnwFGVZf2AyWN4tcAri729R4JcidAHSV54B-lKIlsyND9zveXDrn0VLe7IQmxcWQpRPmLGIWqR3IN6zUD-NA927dO1RLqXHag_iiA7CKVbc2SirpmvpyXaZpfd7x4sA1bc1ZUV1z6lAAGxwJAIRqlIJd_oCjMVllT6vbDguUHSxH-DuZ6ZNyqrOvRlztCTv6RVOuN6_Hkd9ZyHC0]--></g></svg>