<?xml version="1.0" encoding="UTF-8" standalone="no"?><svg xmlns="http://www.w3.org/2000/svg" xmlns:xlink="http://www.w3.org/1999/xlink" contentStyleType="text/css" height="825px" preserveAspectRatio="none" style="width:2062px;height:825px;background:#FFFFFF;" version="1.1" viewBox="0 0 2062 825" width="2062px" zoomAndPan="magnify"><defs/><g><rect fill="#DDDDDD" height="813.1875" style="stroke:#181818;stroke-width:0.5;" width="854" x="737.5" y="6"/><text fill="#000000" font-family="sans-serif" font-size="20" font-weight="bold" lengthAdjust="spacing" textLength="189" x="1070" y="24.5645">«container (C4)»</text><text fill="#000000" font-family="sans-serif" font-size="20" font-weight="bold" lengthAdjust="spacing" textLength="147" x="1091" y="47.8457">Visualization</text><rect fill="#FFFFE0" height="813.1875" style="stroke:#181818;stroke-width:0.5;" width="213" x="1843.5" y="6"/><text fill="#000000" font-family="sans-serif" font-size="20" font-weight="bold" lengthAdjust="spacing" textLength="189" x="1855.5" y="24.5645">«container (C4)»</text><text fill="#000000" font-family="sans-serif" font-size="20" font-weight="bold" lengthAdjust="spacing" textLength="193" x="1853.5" y="47.8457">MD Management</text><rect fill="#FFFFFF" height="594.7813" style="stroke:#181818;stroke-width:1.0;" width="10" x="105.5" y="128.125"/><rect fill="#FFFFFF" height="37.2813" style="stroke:#181818;stroke-width:1.0;" width="10" x="812.5" y="157.4063"/><rect fill="#FFFFFF" height="475.9375" style="stroke:#181818;stroke-width:1.0;" width="10" x="812.5" y="231.9688"/><rect fill="#FFFFFF" height="226.9688" style="stroke:#181818;stroke-width:1.0;" width="10" x="1225.5" y="269.25"/><rect fill="#FFFFFF" height="137.125" style="stroke:#181818;stroke-width:1.0;" width="10" x="1225.5" y="533.5"/><rect fill="#FFFFFF" height="152.4063" style="stroke:#181818;stroke-width:1.0;" width="10" x="1506.5" y="306.5313"/><rect fill="#FFFFFF" height="99.8438" style="stroke:#181818;stroke-width:1.0;" width="10" x="1506.5" y="533.5"/><rect fill="#FFFFFF" height="77.8438" style="stroke:#181818;stroke-width:1.0;" width="10" x="1945" y="343.8125"/><rect fill="#FFFFFF" height="62.5625" style="stroke:#181818;stroke-width:1.0;" width="10" x="1945" y="533.5"/><rect fill="none" height="357.0938" style="stroke:#000000;stroke-width:1.5;" width="2026" x="10" y="358.8125"/><line style="stroke:#181818;stroke-width:0.5;stroke-dasharray:5.0,5.0;" x1="110" x2="110" y1="118.125" y2="732.9063"/><line style="stroke:#181818;stroke-width:0.5;stroke-dasharray:5.0,5.0;" x1="817.5" x2="817.5" y1="118.125" y2="732.9063"/><line style="stroke:#181818;stroke-width:0.5;stroke-dasharray:5.0,5.0;" x1="1230.5" x2="1230.5" y1="118.125" y2="732.9063"/><line style="stroke:#181818;stroke-width:0.5;stroke-dasharray:5.0,5.0;" x1="1511.5" x2="1511.5" y1="118.125" y2="732.9063"/><line style="stroke:#181818;stroke-width:0.5;stroke-dasharray:5.0,5.0;" x1="1950" x2="1950" y1="118.125" y2="732.9063"/><text fill="#000000" font-family="sans-serif" font-size="20" lengthAdjust="spacing" textLength="175" x="20" y="113.4082">Campus Manager</text><ellipse cx="110.5" cy="43.3438" fill="#E2E2F0" rx="8" ry="8" style="stroke:#181818;stroke-width:0.5;"/><path d="M110.5,51.3438 L110.5,78.3438 M97.5,59.3438 L123.5,59.3438 M110.5,78.3438 L97.5,93.3438 M110.5,78.3438 L123.5,93.3438 " fill="none" style="stroke:#181818;stroke-width:0.5;"/><text fill="#000000" font-family="sans-serif" font-size="20" lengthAdjust="spacing" textLength="175" x="20" y="750.4707">Campus Manager</text><ellipse cx="110.5" cy="763.6875" fill="#E2E2F0" rx="8" ry="8" style="stroke:#181818;stroke-width:0.5;"/><path d="M110.5,771.6875 L110.5,798.6875 M97.5,779.6875 L123.5,779.6875 M110.5,798.6875 L97.5,813.6875 M110.5,798.6875 L123.5,813.6875 " fill="none" style="stroke:#181818;stroke-width:0.5;"/><rect fill="#E2E2F0" height="60.5625" rx="2.5" ry="2.5" style="stroke:#181818;stroke-width:0.5;" width="152" x="741.5" y="56.5625"/><text fill="#000000" font-family="sans-serif" font-size="20" font-style="italic" lengthAdjust="spacing" textLength="138" x="748.5" y="82.127">«component»</text><text fill="#000000" font-family="sans-serif" font-size="20" lengthAdjust="spacing" textLength="117" x="759" y="105.4082">Component</text><rect fill="#E2E2F0" height="60.5625" rx="2.5" ry="2.5" style="stroke:#181818;stroke-width:0.5;" width="152" x="741.5" y="731.9063"/><text fill="#000000" font-family="sans-serif" font-size="20" font-style="italic" lengthAdjust="spacing" textLength="138" x="748.5" y="757.4707">«component»</text><text fill="#000000" font-family="sans-serif" font-size="20" lengthAdjust="spacing" textLength="117" x="759" y="780.752">Component</text><rect fill="#E2E2F0" height="60.5625" rx="2.5" ry="2.5" style="stroke:#181818;stroke-width:0.5;" width="152" x="1154.5" y="56.5625"/><text fill="#000000" font-family="sans-serif" font-size="20" font-style="italic" lengthAdjust="spacing" textLength="138" x="1161.5" y="82.127">«component»</text><text fill="#000000" font-family="sans-serif" font-size="20" lengthAdjust="spacing" textLength="73" x="1194" y="105.4082">Service</text><rect fill="#E2E2F0" height="60.5625" rx="2.5" ry="2.5" style="stroke:#181818;stroke-width:0.5;" width="152" x="1154.5" y="731.9063"/><text fill="#000000" font-family="sans-serif" font-size="20" font-style="italic" lengthAdjust="spacing" textLength="138" x="1161.5" y="757.4707">«component»</text><text fill="#000000" font-family="sans-serif" font-size="20" lengthAdjust="spacing" textLength="73" x="1194" y="780.752">Service</text><rect fill="#E2E2F0" height="60.5625" rx="2.5" ry="2.5" style="stroke:#181818;stroke-width:0.5;" width="152" x="1435.5" y="56.5625"/><text fill="#000000" font-family="sans-serif" font-size="20" font-style="italic" lengthAdjust="spacing" textLength="138" x="1442.5" y="82.127">«component»</text><text fill="#000000" font-family="sans-serif" font-size="20" lengthAdjust="spacing" textLength="51" x="1486" y="105.4082">HTTP</text><rect fill="#E2E2F0" height="60.5625" rx="2.5" ry="2.5" style="stroke:#181818;stroke-width:0.5;" width="152" x="1435.5" y="731.9063"/><text fill="#000000" font-family="sans-serif" font-size="20" font-style="italic" lengthAdjust="spacing" textLength="138" x="1442.5" y="757.4707">«component»</text><text fill="#000000" font-family="sans-serif" font-size="20" lengthAdjust="spacing" textLength="51" x="1486" y="780.752">HTTP</text><rect fill="#E2E2F0" height="60.5625" rx="2.5" ry="2.5" style="stroke:#181818;stroke-width:0.5;" width="152" x="1874" y="56.5625"/><text fill="#000000" font-family="sans-serif" font-size="20" font-style="italic" lengthAdjust="spacing" textLength="138" x="1881" y="82.127">«component»</text><text fill="#000000" font-family="sans-serif" font-size="20" lengthAdjust="spacing" textLength="59" x="1920.5" y="105.4082">Route</text><rect fill="#E2E2F0" height="60.5625" rx="2.5" ry="2.5" style="stroke:#181818;stroke-width:0.5;" width="152" x="1874" y="731.9063"/><text fill="#000000" font-family="sans-serif" font-size="20" font-style="italic" lengthAdjust="spacing" textLength="138" x="1881" y="757.4707">«component»</text><text fill="#000000" font-family="sans-serif" font-size="20" lengthAdjust="spacing" textLength="59" x="1920.5" y="780.752">Route</text><rect fill="#FFFFFF" height="594.7813" style="stroke:#181818;stroke-width:1.0;" width="10" x="105.5" y="128.125"/><rect fill="#FFFFFF" height="37.2813" style="stroke:#181818;stroke-width:1.0;" width="10" x="812.5" y="157.4063"/><rect fill="#FFFFFF" height="475.9375" style="stroke:#181818;stroke-width:1.0;" width="10" x="812.5" y="231.9688"/><rect fill="#FFFFFF" height="226.9688" style="stroke:#181818;stroke-width:1.0;" width="10" x="1225.5" y="269.25"/><rect fill="#FFFFFF" height="137.125" style="stroke:#181818;stroke-width:1.0;" width="10" x="1225.5" y="533.5"/><rect fill="#FFFFFF" height="152.4063" style="stroke:#181818;stroke-width:1.0;" width="10" x="1506.5" y="306.5313"/><rect fill="#FFFFFF" height="99.8438" style="stroke:#181818;stroke-width:1.0;" width="10" x="1506.5" y="533.5"/><rect fill="#FFFFFF" height="77.8438" style="stroke:#181818;stroke-width:1.0;" width="10" x="1945" y="343.8125"/><rect fill="#FFFFFF" height="62.5625" style="stroke:#181818;stroke-width:1.0;" width="10" x="1945" y="533.5"/><polygon fill="#181818" points="800.5,153.4063,810.5,157.4063,800.5,161.4063,804.5,157.4063" style="stroke:#181818;stroke-width:1.0;"/><line style="stroke:#181818;stroke-width:1.0;" x1="115.5" x2="806.5" y1="157.4063" y2="157.4063"/><text fill="#000000" font-family="sans-serif" font-size="20" font-weight="bold" lengthAdjust="spacing" textLength="14" x="122.5" y="150.6895">1</text><text fill="#000000" font-family="sans-serif" font-size="20" lengthAdjust="spacing" textLength="255" x="140.5" y="150.6895">wants to edit a connector</text><polygon fill="#181818" points="126.5,190.6875,116.5,194.6875,126.5,198.6875,122.5,194.6875" style="stroke:#181818;stroke-width:1.0;"/><line style="stroke:#181818;stroke-width:1.0;stroke-dasharray:2.0,2.0;" x1="120.5" x2="816.5" y1="194.6875" y2="194.6875"/><text fill="#000000" font-family="sans-serif" font-size="20" font-weight="bold" lengthAdjust="spacing" textLength="14" x="132.5" y="187.9707">2</text><text fill="#000000" font-family="sans-serif" font-size="20" lengthAdjust="spacing" textLength="300" x="150.5" y="187.9707">asks for the floors 1 &amp; 2 codes</text><polygon fill="#181818" points="800.5,227.9688,810.5,231.9688,800.5,235.9688,804.5,231.9688" style="stroke:#181818;stroke-width:1.0;"/><line style="stroke:#181818;stroke-width:1.0;" x1="115.5" x2="806.5" y1="231.9688" y2="231.9688"/><text fill="#000000" font-family="sans-serif" font-size="20" font-weight="bold" lengthAdjust="spacing" textLength="14" x="122.5" y="225.252">3</text><text fill="#000000" font-family="sans-serif" font-size="20" lengthAdjust="spacing" textLength="157" x="140.5" y="225.252">inserts the data</text><polygon fill="#181818" points="1213.5,265.25,1223.5,269.25,1213.5,273.25,1217.5,269.25" style="stroke:#181818;stroke-width:1.0;"/><line style="stroke:#181818;stroke-width:1.0;" x1="822.5" x2="1219.5" y1="269.25" y2="269.25"/><text fill="#000000" font-family="sans-serif" font-size="20" font-weight="bold" lengthAdjust="spacing" textLength="14" x="829.5" y="262.5332">4</text><text fill="#000000" font-family="sans-serif" font-size="20" lengthAdjust="spacing" textLength="366" x="847.5" y="262.5332">updateConnector(code,floor1,floor2)</text><polygon fill="#181818" points="1494.5,302.5313,1504.5,306.5313,1494.5,310.5313,1498.5,306.5313" style="stroke:#181818;stroke-width:1.0;"/><line style="stroke:#181818;stroke-width:1.0;" x1="1235.5" x2="1500.5" y1="306.5313" y2="306.5313"/><text fill="#000000" font-family="sans-serif" font-size="20" font-weight="bold" lengthAdjust="spacing" textLength="14" x="1242.5" y="299.8145">5</text><text fill="#000000" font-family="sans-serif" font-size="20" lengthAdjust="spacing" textLength="151" x="1260.5" y="299.8145">patch(url,data)</text><polygon fill="#181818" points="1933,339.8125,1943,343.8125,1933,347.8125,1937,343.8125" style="stroke:#181818;stroke-width:1.0;"/><line style="stroke:#181818;stroke-width:1.0;" x1="1516.5" x2="1939" y1="343.8125" y2="343.8125"/><text fill="#000000" font-family="sans-serif" font-size="20" font-weight="bold" lengthAdjust="spacing" textLength="14" x="1523.5" y="337.0957">6</text><text fill="#000000" font-family="sans-serif" font-size="20" lengthAdjust="spacing" textLength="271" x="1541.5" y="337.0957">PATCH /connectors/{code}</text><text fill="#000000" font-family="sans-serif" font-size="20" lengthAdjust="spacing" textLength="71" x="1835.5" y="337.0957">{data}</text><path d="M10,358.8125 L86,358.8125 L86,374.0938 L76,384.0938 L10,384.0938 L10,358.8125 " fill="#EEEEEE" style="stroke:#000000;stroke-width:1.5;"/><rect fill="none" height="357.0938" style="stroke:#000000;stroke-width:1.5;" width="2026" x="10" y="358.8125"/><text fill="#000000" font-family="sans-serif" font-size="20" font-weight="bold" lengthAdjust="spacing" textLength="31" x="25" y="378.377">alt</text><text fill="#000000" font-family="sans-serif" font-size="20" font-weight="bold" lengthAdjust="spacing" textLength="335" x="101" y="379.377">[the connector gets updated]</text><polygon fill="#181818" points="1527.5,417.6563,1517.5,421.6563,1527.5,425.6563,1523.5,421.6563" style="stroke:#181818;stroke-width:1.0;"/><line style="stroke:#181818;stroke-width:1.0;stroke-dasharray:2.0,2.0;" x1="1521.5" x2="1949" y1="421.6563" y2="421.6563"/><text fill="#000000" font-family="sans-serif" font-size="20" font-weight="bold" lengthAdjust="spacing" textLength="14" x="1533.5" y="414.9395">7</text><text fill="#000000" font-family="sans-serif" font-size="20" lengthAdjust="spacing" textLength="74" x="1551.5" y="414.9395">200 OK</text><polygon fill="#181818" points="1246.5,454.9375,1236.5,458.9375,1246.5,462.9375,1242.5,458.9375" style="stroke:#181818;stroke-width:1.0;"/><line style="stroke:#181818;stroke-width:1.0;stroke-dasharray:2.0,2.0;" x1="1240.5" x2="1510.5" y1="458.9375" y2="458.9375"/><text fill="#000000" font-family="sans-serif" font-size="20" font-weight="bold" lengthAdjust="spacing" textLength="14" x="1252.5" y="452.2207">8</text><text fill="#000000" font-family="sans-serif" font-size="20" lengthAdjust="spacing" textLength="229" x="1270.5" y="452.2207">the updated connector</text><polygon fill="#181818" points="833.5,492.2188,823.5,496.2188,833.5,500.2188,829.5,496.2188" style="stroke:#181818;stroke-width:1.0;"/><line style="stroke:#181818;stroke-width:1.0;stroke-dasharray:2.0,2.0;" x1="827.5" x2="1229.5" y1="496.2188" y2="496.2188"/><text fill="#000000" font-family="sans-serif" font-size="20" font-weight="bold" lengthAdjust="spacing" textLength="14" x="839.5" y="489.502">9</text><text fill="#000000" font-family="sans-serif" font-size="20" lengthAdjust="spacing" textLength="229" x="857.5" y="489.502">the updated connector</text><polygon fill="#181818" points="126.5,529.5,116.5,533.5,126.5,537.5,122.5,533.5" style="stroke:#181818;stroke-width:1.0;"/><line style="stroke:#181818;stroke-width:1.0;stroke-dasharray:2.0,2.0;" x1="120.5" x2="811.5" y1="533.5" y2="533.5"/><text fill="#000000" font-family="sans-serif" font-size="20" font-weight="bold" lengthAdjust="spacing" textLength="28" x="132.5" y="526.7832">10</text><text fill="#000000" font-family="sans-serif" font-size="20" lengthAdjust="spacing" textLength="364" x="164.5" y="526.7832">informs the success of the operation</text><line style="stroke:#000000;stroke-width:1.0;stroke-dasharray:2.0,2.0;" x1="10" x2="2036" y1="542.5" y2="542.5"/><text fill="#000000" font-family="sans-serif" font-size="20" font-weight="bold" lengthAdjust="spacing" textLength="497" x="15" y="561.0645">[there is a connector between those floors]</text><polygon fill="#181818" points="1527.5,592.0625,1517.5,596.0625,1527.5,600.0625,1523.5,596.0625" style="stroke:#181818;stroke-width:1.0;"/><line style="stroke:#181818;stroke-width:1.0;stroke-dasharray:2.0,2.0;" x1="1521.5" x2="1949" y1="596.0625" y2="596.0625"/><text fill="#000000" font-family="sans-serif" font-size="20" font-weight="bold" lengthAdjust="spacing" textLength="28" x="1533.5" y="589.3457">11</text><text fill="#000000" font-family="sans-serif" font-size="20" lengthAdjust="spacing" textLength="172" x="1565.5" y="589.3457">400 Bad Request</text><polygon fill="#181818" points="1246.5,629.3438,1236.5,633.3438,1246.5,637.3438,1242.5,633.3438" style="stroke:#181818;stroke-width:1.0;"/><line style="stroke:#181818;stroke-width:1.0;stroke-dasharray:2.0,2.0;" x1="1240.5" x2="1510.5" y1="633.3438" y2="633.3438"/><text fill="#000000" font-family="sans-serif" font-size="20" font-weight="bold" lengthAdjust="spacing" textLength="28" x="1252.5" y="626.627">12</text><text fill="#000000" font-family="sans-serif" font-size="20" lengthAdjust="spacing" textLength="48" x="1284.5" y="626.627">error</text><polygon fill="#181818" points="833.5,666.625,823.5,670.625,833.5,674.625,829.5,670.625" style="stroke:#181818;stroke-width:1.0;"/><line style="stroke:#181818;stroke-width:1.0;stroke-dasharray:2.0,2.0;" x1="827.5" x2="1229.5" y1="670.625" y2="670.625"/><text fill="#000000" font-family="sans-serif" font-size="20" font-weight="bold" lengthAdjust="spacing" textLength="28" x="839.5" y="663.9082">13</text><text fill="#000000" font-family="sans-serif" font-size="20" lengthAdjust="spacing" textLength="48" x="871.5" y="663.9082">error</text><polygon fill="#181818" points="126.5,703.9063,116.5,707.9063,126.5,711.9063,122.5,707.9063" style="stroke:#181818;stroke-width:1.0;"/><line style="stroke:#181818;stroke-width:1.0;stroke-dasharray:2.0,2.0;" x1="120.5" x2="816.5" y1="707.9063" y2="707.9063"/><text fill="#000000" font-family="sans-serif" font-size="20" font-weight="bold" lengthAdjust="spacing" textLength="28" x="132.5" y="701.1895">14</text><text fill="#000000" font-family="sans-serif" font-size="20" lengthAdjust="spacing" textLength="641" x="164.5" y="701.1895">shows error message "A connector exists between those floors."</text><!--SRC=[ZPFHRjem58Rl_HH7cJHHgQmKzGeX99PkYhIXLi0gJUgDIGvWaTYPxHJKga-qHzXTdsp7Db13kwut12V_V_vplfEObP0rrxmgLRx20WgSywQqNvMq4t6FqEqmtbWbcsg6cfcT6Yw3ReeREop5GbOeRR-Vqo_gmG327yPuRfM6T0JSG9BogcuCZBZa2zG9OpErWUJfTqvXN4ZKq4elJfx-tCeROHfUYdjkXP89F1Tc09HlHIvgBYsaeQwgQYL9uPMxmmlnv2R89wZlH8vlYpClpQRJwsCToWAeyJUwXz7bTaX71UB-FtmNYwNzYMMfraU9uwiVqoy-TQmQY_-C9QJYZbiagemHsVQ0CFHWJJKCM0LO20iSg2s9ZdvayFf-k-qDtAmCp6axTeamBvNI1ixX8tJ9Mg1X1HuPjq526jGkYcm5j_omlbCvq3reQdgAwQwDbgjwwdFEmwLxycmb2sFEH_QCp3Mt-RBLwFBKHKJ2ZB7CYGAj7bmFfsa6P_jfpTc32tgyjV3Wh8_FLcyXVgNrlUyji40Q9xHRq58oZsWNqErquEeRtOvuR2k1dzI9NSkkvhP81F_0bpbFS0H6x_1uCW3HueIahLLX0QR9SpG6rDmVLOtQVpCCIuFkbaOG9duTO8PsZIZfeJAxnLD0r6HqSEdHSJ_u8QCBOlIP5p36NmqQ-mvOgFL_uRoYUGd3BDNQ12bKH88-EaY6qRYu4ORM-zhKdvB3wgdxoDZ1YpzYVm40]--></g></svg>