<?xml version="1.0" encoding="UTF-8" standalone="no"?><svg xmlns="http://www.w3.org/2000/svg" xmlns:xlink="http://www.w3.org/1999/xlink" contentStyleType="text/css" height="889px" preserveAspectRatio="none" style="width:473px;height:889px;background:#FFFFFF;" version="1.1" viewBox="0 0 473 889" width="473px" zoomAndPan="magnify"><defs/><g><!--cluster UI--><g id="cluster_UI"><rect fill="none" height="876" rx="2.5" ry="2.5" style="stroke:#181818;stroke-width:1.0;" width="460" x="7" y="7"/><rect fill="none" height="10" style="stroke:#181818;stroke-width:1.0;" width="15" x="447" y="12"/><rect fill="none" height="2" style="stroke:#181818;stroke-width:1.0;" width="4" x="445" y="14"/><rect fill="none" height="2" style="stroke:#181818;stroke-width:1.0;" width="4" x="445" y="18"/><text fill="#000000" font-family="sans-serif" font-size="20" font-style="italic" lengthAdjust="spacing" textLength="122" x="176" y="41.38">«component»</text><text fill="#000000" font-family="sans-serif" font-size="20" font-style="italic" lengthAdjust="spacing" textLength="145" x="164.5" y="68.62">«container (C4)»</text><text fill="#000000" font-family="sans-serif" font-size="20" font-weight="bold" lengthAdjust="spacing" textLength="124.125" x="174.9375" y="95.8599">Visualization</text></g><!--cluster I--><g id="cluster_I"><path d="M90.5,123 L230.25,123 A3.75,3.75 0 0 1 232.75,125.5 L239.75,156.24 L401.5,156.24 A2.5,2.5 0 0 1 404,158.74 L404,272.5 A2.5,2.5 0 0 1 401.5,275 L90.5,275 A2.5,2.5 0 0 1 88,272.5 L88,125.5 A2.5,2.5 0 0 1 90.5,123 " fill="none" style="stroke:#000000;stroke-width:1.5;"/><line style="stroke:#000000;stroke-width:1.5;" x1="88" x2="239.75" y1="156.24" y2="156.24"/><text fill="#000000" font-family="sans-serif" font-size="20" font-weight="bold" lengthAdjust="spacing" textLength="138.75" x="92" y="146.38">Infrastructure</text></g><!--cluster IA--><g id="cluster_IA"><path d="M81.5,315 L266.125,315 A3.75,3.75 0 0 1 268.625,317.5 L275.625,348.24 L275.5,348.24 A2.5,2.5 0 0 1 278,350.74 L278,464.5 A2.5,2.5 0 0 1 275.5,467 L81.5,467 A2.5,2.5 0 0 1 79,464.5 L79,317.5 A2.5,2.5 0 0 1 81.5,315 " fill="none" style="stroke:#000000;stroke-width:1.5;"/><line style="stroke:#000000;stroke-width:1.5;" x1="79" x2="275.625" y1="348.24" y2="348.24"/><text fill="#000000" font-family="sans-serif" font-size="20" font-weight="bold" lengthAdjust="spacing" textLength="183.625" x="83" y="338.38">Interface Adapters</text></g><!--cluster UC--><g id="cluster_UC"><path d="M41.5,507 L423.375,507 A3.75,3.75 0 0 1 425.875,509.5 L432.875,540.24 L432.5,540.24 A2.5,2.5 0 0 1 435,542.74 L435,656.5 A2.5,2.5 0 0 1 432.5,659 L41.5,659 A2.5,2.5 0 0 1 39,656.5 L39,509.5 A2.5,2.5 0 0 1 41.5,507 " fill="none" style="stroke:#000000;stroke-width:1.5;"/><line style="stroke:#000000;stroke-width:1.5;" x1="39" x2="432.875" y1="540.24" y2="540.24"/><text fill="#000000" font-family="sans-serif" font-size="20" font-weight="bold" lengthAdjust="spacing" textLength="380.875" x="43" y="530.38">Application Services/Use Case Services</text></g><!--cluster E--><g id="cluster_E"><path d="M66.5,699 L280,699 A3.75,3.75 0 0 1 282.5,701.5 L289.5,732.24 L289.5,732.24 A2.5,2.5 0 0 1 292,734.74 L292,848.5 A2.5,2.5 0 0 1 289.5,851 L66.5,851 A2.5,2.5 0 0 1 64,848.5 L64,701.5 A2.5,2.5 0 0 1 66.5,699 " fill="none" style="stroke:#000000;stroke-width:1.5;"/><line style="stroke:#000000;stroke-width:1.5;" x1="64" x2="289.5" y1="732.24" y2="732.24"/><text fill="#000000" font-family="sans-serif" font-size="20" font-weight="bold" lengthAdjust="spacing" textLength="212.5" x="68" y="722.38">Entities/Core/Domain</text></g><path d="M298.5,177 L363.5,177 A3.75,3.75 0 0 1 366,179.5 L373,210.24 L377.5,210.24 A2.5,2.5 0 0 1 380,212.74 L380,248.9799 A2.5,2.5 0 0 1 377.5,251.4799 L298.5,251.4799 A2.5,2.5 0 0 1 296,248.9799 L296,179.5 A2.5,2.5 0 0 1 298.5,177 " fill="#F1F1F1" style="stroke:#181818;stroke-width:0.5;"/><line style="stroke:#181818;stroke-width:0.5;" x1="296" x2="373" y1="210.24" y2="210.24"/><text fill="#000000" font-family="sans-serif" font-size="20" lengthAdjust="spacing" textLength="64" x="300" y="200.38">Routes</text><path d="M133.5,177 L244.5,177 A3.75,3.75 0 0 1 247,179.5 L254,210.24 L258.5,210.24 A2.5,2.5 0 0 1 261,212.74 L261,248.9799 A2.5,2.5 0 0 1 258.5,251.4799 L133.5,251.4799 A2.5,2.5 0 0 1 131,248.9799 L131,179.5 A2.5,2.5 0 0 1 133.5,177 " fill="#F1F1F1" style="stroke:#181818;stroke-width:0.5;"/><line style="stroke:#181818;stroke-width:0.5;" x1="131" x2="254" y1="210.24" y2="210.24"/><text fill="#000000" font-family="sans-serif" font-size="20" lengthAdjust="spacing" textLength="110" x="135" y="200.38">Component</text><path d="M161.5,369 L232.5,369 A3.75,3.75 0 0 1 235,371.5 L242,402.24 L246.5,402.24 A2.5,2.5 0 0 1 249,404.74 L249,440.9799 A2.5,2.5 0 0 1 246.5,443.4799 L161.5,443.4799 A2.5,2.5 0 0 1 159,440.9799 L159,371.5 A2.5,2.5 0 0 1 161.5,369 " fill="#F1F1F1" style="stroke:#181818;stroke-width:0.5;"/><line style="stroke:#181818;stroke-width:0.5;" x1="159" x2="242" y1="402.24" y2="402.24"/><text fill="#000000" font-family="sans-serif" font-size="20" lengthAdjust="spacing" textLength="70" x="163" y="392.38">Module</text><path d="M137.5,561 L256.5,561 A3.75,3.75 0 0 1 259,563.5 L266,594.24 L270.5,594.24 A2.5,2.5 0 0 1 273,596.74 L273,632.9799 A2.5,2.5 0 0 1 270.5,635.4799 L137.5,635.4799 A2.5,2.5 0 0 1 135,632.9799 L135,563.5 A2.5,2.5 0 0 1 137.5,561 " fill="#F1F1F1" style="stroke:#181818;stroke-width:0.5;"/><line style="stroke:#181818;stroke-width:0.5;" x1="135" x2="266" y1="594.24" y2="594.24"/><text fill="#000000" font-family="sans-serif" font-size="20" lengthAdjust="spacing" textLength="118" x="139" y="584.38">App Services</text><path d="M167.5,753 L226.5,753 A3.75,3.75 0 0 1 229,755.5 L236,786.24 L240.5,786.24 A2.5,2.5 0 0 1 243,788.74 L243,824.9799 A2.5,2.5 0 0 1 240.5,827.4799 L167.5,827.4799 A2.5,2.5 0 0 1 165,824.9799 L165,755.5 A2.5,2.5 0 0 1 167.5,753 " fill="#F1F1F1" style="stroke:#181818;stroke-width:0.5;"/><line style="stroke:#181818;stroke-width:0.5;" x1="165" x2="236" y1="786.24" y2="786.24"/><text fill="#000000" font-family="sans-serif" font-size="20" lengthAdjust="spacing" textLength="58" x="169" y="776.38">Model</text><!--link COMP to MOD--><g id="link_COMP_MOD"><path d="M197.52,251.18 C198.86,282.91 200.8,329.06 202.21,362.53 " fill="none" id="COMP-to-MOD" style="stroke:#181818;stroke-width:1.0;stroke-dasharray:7.0,7.0;"/><polygon fill="#181818" points="202.4,367.11,206.036,357.9569,202.1996,362.114,198.0425,358.2776,202.4,367.11" style="stroke:#181818;stroke-width:1.0;"/></g><!--link ROUTE to MOD--><g id="link_ROUTE_MOD"><path d="M312.48,251.18 C289.92,283.17 257.01,329.83 233.37,363.36 " fill="none" id="ROUTE-to-MOD" style="stroke:#181818;stroke-width:1.0;stroke-dasharray:7.0,7.0;"/><polygon fill="#181818" points="230.52,367.39,238.9676,362.3266,233.395,363.2992,232.4224,357.7266,230.52,367.39" style="stroke:#181818;stroke-width:1.0;"/></g><!--link MOD to APP--><g id="link_MOD_APP"><path d="M204,443.18 C204,474.78 204,520.68 204,554.11 " fill="none" id="MOD-to-APP" style="stroke:#181818;stroke-width:1.0;stroke-dasharray:7.0,7.0;"/><polygon fill="#181818" points="204,559.11,208,550.11,204,554.11,200,550.11,204,559.11" style="stroke:#181818;stroke-width:1.0;"/></g><!--link APP to MODEL--><g id="link_APP_MODEL"><path d="M204,635.18 C204,666.78 204,712.68 204,746.11 " fill="none" id="APP-to-MODEL" style="stroke:#181818;stroke-width:1.0;stroke-dasharray:7.0,7.0;"/><polygon fill="#181818" points="204,751.11,208,742.11,204,746.11,200,742.11,204,751.11" style="stroke:#181818;stroke-width:1.0;"/></g><!--link I to IA--><g id="link_I_IA"><path d="M96,275.1742 C96,275.5114 96,275.8492 96,276.1878 C96,287.0206 96,298.5281 96,310.035 C96,311.4734 96,312.9117 96,314.3487 C96,314.5284 96,314.708 96,314.8875 " fill="none" id="I-to-IA" style="stroke:#181818;stroke-width:1.0;stroke-dasharray:7.0,7.0;"/><polygon fill="#181818" points="96,314.8875,100,305.8875,96,309.8875,92,305.8875,96,314.8875" style="stroke:#181818;stroke-width:1.0;"/></g><!--link IA to UC--><g id="link_IA_UC"><path d="M96,467.1742 C96,467.5114 96,467.8492 96,468.1878 C96,479.0206 96,490.5281 96,502.035 C96,503.4734 96,504.9117 96,506.3487 C96,506.5284 96,506.708 96,506.8875 " fill="none" id="IA-to-UC" style="stroke:#181818;stroke-width:1.0;stroke-dasharray:7.0,7.0;"/><polygon fill="#181818" points="96,506.8875,100,497.8875,96,501.8875,92,497.8875,96,506.8875" style="stroke:#181818;stroke-width:1.0;"/></g><!--link UC to E--><g id="link_UC_E"><path d="M96,659.1742 C96,659.5114 96,659.8492 96,660.1878 C96,671.0206 96,682.5281 96,694.035 C96,695.4734 96,696.9117 96,698.3487 C96,698.5284 96,698.708 96,698.8875 " fill="none" id="UC-to-E" style="stroke:#181818;stroke-width:1.0;stroke-dasharray:7.0,7.0;"/><polygon fill="#181818" points="96,698.8875,100,689.8875,96,693.8875,92,689.8875,96,698.8875" style="stroke:#181818;stroke-width:1.0;"/></g><!--SRC=[RL1DQm8n4BtdLmnxQYzQIe-oiAnR22YATdiVihCIZCcIP7jG-jyxoQgWz1Bcu-MzDoySjHtGuyauTQGEEkfnDF7JsRZNPuBtDo6KEmtEaerGVEimej5dZDhP0Z10As6nk2FACdSsehRauQN-UENHHG3qpdGyaRRt6A8VLHmz9GAPrm03gYCU27PkZ1JIPhTflngu_3wiwxiPHjIRzJO1696VgqWXRIJVeoAeEXou3jchh9wqrguRJNQntYmdfGUUQXYCLlbOs9F_qOh2l0ti0lcvJQOSwYVkzFaHKcst_sWqDkgecRTsdkPBT-BeChnv9cItP8ghssPrusAsdCDiLgQ5c6AxTUcmLBEuI0QkysObXCoDh0Jdaggs5dn5gXhn1m00]--></g></svg>