<?xml version="1.0" encoding="UTF-8" standalone="no"?><svg xmlns="http://www.w3.org/2000/svg" xmlns:xlink="http://www.w3.org/1999/xlink" contentStyleType="text/css" height="833px" preserveAspectRatio="none" style="width:538px;height:833px;background:#FFFFFF;" version="1.1" viewBox="0 0 538 833" width="538px" zoomAndPan="magnify"><defs/><g><!--cluster UI--><g id="cluster_UI"><rect fill="none" height="820" rx="2.5" ry="2.5" style="stroke:#181818;stroke-width:1.0;" width="525" x="7" y="7"/><rect fill="none" height="10" style="stroke:#181818;stroke-width:1.0;" width="15" x="512" y="12"/><rect fill="none" height="2" style="stroke:#181818;stroke-width:1.0;" width="4" x="510" y="14"/><rect fill="none" height="2" style="stroke:#181818;stroke-width:1.0;" width="4" x="510" y="18"/><text fill="#000000" font-family="sans-serif" font-size="20" font-style="italic" lengthAdjust="spacing" textLength="138" x="200.5" y="38.5645">«component»</text><text fill="#000000" font-family="sans-serif" font-size="20" font-style="italic" lengthAdjust="spacing" textLength="168" x="185.5" y="61.8457">«container (C4)»</text><text fill="#000000" font-family="sans-serif" font-size="20" font-weight="bold" lengthAdjust="spacing" textLength="147" x="196" y="85.127">Visualization</text></g><!--cluster I--><g id="cluster_I"><path d="M128.5,111 L289.5,111 A3.75,3.75 0 0 1 292,113.5 L299,140.2813 L451.5,140.2813 A2.5,2.5 0 0 1 454,142.7813 L454,249.5 A2.5,2.5 0 0 1 451.5,252 L128.5,252 A2.5,2.5 0 0 1 126,249.5 L126,113.5 A2.5,2.5 0 0 1 128.5,111 " fill="none" style="stroke:#000000;stroke-width:1.5;"/><line style="stroke:#000000;stroke-width:1.5;" x1="126" x2="299" y1="140.2813" y2="140.2813"/><text fill="#000000" font-family="sans-serif" font-size="20" font-weight="bold" lengthAdjust="spacing" textLength="160" x="130" y="131.5645">Infrastructure</text></g><!--cluster IA--><g id="cluster_IA"><path d="M107.5,292 L322.5,292 A3.75,3.75 0 0 1 325,294.5 L332,321.2813 L332.5,321.2813 A2.5,2.5 0 0 1 335,323.7813 L335,430.5 A2.5,2.5 0 0 1 332.5,433 L107.5,433 A2.5,2.5 0 0 1 105,430.5 L105,294.5 A2.5,2.5 0 0 1 107.5,292 " fill="none" style="stroke:#000000;stroke-width:1.5;"/><line style="stroke:#000000;stroke-width:1.5;" x1="105" x2="332" y1="321.2813" y2="321.2813"/><text fill="#000000" font-family="sans-serif" font-size="20" font-weight="bold" lengthAdjust="spacing" textLength="214" x="109" y="312.5645">Interface Adapters</text></g><!--cluster UC--><g id="cluster_UC"><path d="M41.5,473 L487.5,473 A3.75,3.75 0 0 1 490,475.5 L497,502.2813 L497.5,502.2813 A2.5,2.5 0 0 1 500,504.7813 L500,611.5 A2.5,2.5 0 0 1 497.5,614 L41.5,614 A2.5,2.5 0 0 1 39,611.5 L39,475.5 A2.5,2.5 0 0 1 41.5,473 " fill="none" style="stroke:#000000;stroke-width:1.5;"/><line style="stroke:#000000;stroke-width:1.5;" x1="39" x2="497" y1="502.2813" y2="502.2813"/><text fill="#000000" font-family="sans-serif" font-size="20" font-weight="bold" lengthAdjust="spacing" textLength="445" x="43" y="493.5645">Application Services/Use Case Services</text></g><!--cluster E--><g id="cluster_E"><path d="M90.5,654 L333.5,654 A3.75,3.75 0 0 1 336,656.5 L343,683.2813 L343.5,683.2813 A2.5,2.5 0 0 1 346,685.7813 L346,792.5 A2.5,2.5 0 0 1 343.5,795 L90.5,795 A2.5,2.5 0 0 1 88,792.5 L88,656.5 A2.5,2.5 0 0 1 90.5,654 " fill="none" style="stroke:#000000;stroke-width:1.5;"/><line style="stroke:#000000;stroke-width:1.5;" x1="88" x2="343" y1="683.2813" y2="683.2813"/><text fill="#000000" font-family="sans-serif" font-size="20" font-weight="bold" lengthAdjust="spacing" textLength="242" x="92" y="674.5645">Entities/Core/Domain</text></g><path d="M344,161 L414,161 A3.75,3.75 0 0 1 416.5,163.5 L423.5,190.2813 L428,190.2813 A2.5,2.5 0 0 1 430.5,192.7813 L430.5,225.0625 A2.5,2.5 0 0 1 428,227.5625 L344,227.5625 A2.5,2.5 0 0 1 341.5,225.0625 L341.5,163.5 A2.5,2.5 0 0 1 344,161 " fill="#F1F1F1" style="stroke:#181818;stroke-width:0.5;"/><line style="stroke:#181818;stroke-width:0.5;" x1="341.5" x2="423.5" y1="190.2813" y2="190.2813"/><text fill="#000000" font-family="sans-serif" font-size="20" lengthAdjust="spacing" textLength="69" x="345.5" y="181.5645">Routes</text><path d="M172,161 L290,161 A3.75,3.75 0 0 1 292.5,163.5 L299.5,190.2813 L304,190.2813 A2.5,2.5 0 0 1 306.5,192.7813 L306.5,225.0625 A2.5,2.5 0 0 1 304,227.5625 L172,227.5625 A2.5,2.5 0 0 1 169.5,225.0625 L169.5,163.5 A2.5,2.5 0 0 1 172,161 " fill="#F1F1F1" style="stroke:#181818;stroke-width:0.5;"/><line style="stroke:#181818;stroke-width:0.5;" x1="169.5" x2="299.5" y1="190.2813" y2="190.2813"/><text fill="#000000" font-family="sans-serif" font-size="20" lengthAdjust="spacing" textLength="117" x="173.5" y="181.5645">Component</text><path d="M210,342 L284,342 A3.75,3.75 0 0 1 286.5,344.5 L293.5,371.2813 L298,371.2813 A2.5,2.5 0 0 1 300.5,373.7813 L300.5,406.0625 A2.5,2.5 0 0 1 298,408.5625 L210,408.5625 A2.5,2.5 0 0 1 207.5,406.0625 L207.5,344.5 A2.5,2.5 0 0 1 210,342 " fill="#F1F1F1" style="stroke:#181818;stroke-width:0.5;"/><line style="stroke:#181818;stroke-width:0.5;" x1="207.5" x2="293.5" y1="371.2813" y2="371.2813"/><text fill="#000000" font-family="sans-serif" font-size="20" lengthAdjust="spacing" textLength="73" x="211.5" y="362.5645">Module</text><path d="M182,523 L312,523 A3.75,3.75 0 0 1 314.5,525.5 L321.5,552.2813 L326,552.2813 A2.5,2.5 0 0 1 328.5,554.7813 L328.5,587.0625 A2.5,2.5 0 0 1 326,589.5625 L182,589.5625 A2.5,2.5 0 0 1 179.5,587.0625 L179.5,525.5 A2.5,2.5 0 0 1 182,523 " fill="#F1F1F1" style="stroke:#181818;stroke-width:0.5;"/><line style="stroke:#181818;stroke-width:0.5;" x1="179.5" x2="321.5" y1="552.2813" y2="552.2813"/><text fill="#000000" font-family="sans-serif" font-size="20" lengthAdjust="spacing" textLength="129" x="183.5" y="543.5645">App Services</text><path d="M216.5,704 L277.5,704 A3.75,3.75 0 0 1 280,706.5 L287,733.2813 L291.5,733.2813 A2.5,2.5 0 0 1 294,735.7813 L294,768.0625 A2.5,2.5 0 0 1 291.5,770.5625 L216.5,770.5625 A2.5,2.5 0 0 1 214,768.0625 L214,706.5 A2.5,2.5 0 0 1 216.5,704 " fill="#F1F1F1" style="stroke:#181818;stroke-width:0.5;"/><line style="stroke:#181818;stroke-width:0.5;" x1="214" x2="287" y1="733.2813" y2="733.2813"/><text fill="#000000" font-family="sans-serif" font-size="20" lengthAdjust="spacing" textLength="60" x="218" y="724.5645">Model</text><!--link COMP to MOD--><g id="link_COMP_MOD"><path d="M240.93,228.33 C243.67,258.99 247.76,304.72 250.63,336.84 " fill="none" id="COMP-to-MOD" style="stroke:#181818;stroke-width:1.0;stroke-dasharray:7.0,7.0;"/><polygon fill="#181818" points="251.08,341.88,254.2657,332.5606,250.6364,336.8997,246.2972,333.2704,251.08,341.88" style="stroke:#181818;stroke-width:1.0;"/></g><!--link ROUTE to MOD--><g id="link_ROUTE_MOD"><path d="M361.79,228.33 C339,259.24 304.91,305.47 281.19,337.63 " fill="none" id="ROUTE-to-MOD" style="stroke:#181818;stroke-width:1.0;stroke-dasharray:7.0,7.0;"/><polygon fill="#181818" points="278.06,341.88,286.6296,337.026,281.0348,337.8612,280.1995,332.2663,278.06,341.88" style="stroke:#181818;stroke-width:1.0;"/></g><!--link MOD to APP--><g id="link_MOD_APP"><path d="M254,409.33 C254,439.99 254,485.72 254,517.84 " fill="none" id="MOD-to-APP" style="stroke:#181818;stroke-width:1.0;stroke-dasharray:7.0,7.0;"/><polygon fill="#181818" points="254,522.88,258,513.88,254,517.88,250,513.88,254,522.88" style="stroke:#181818;stroke-width:1.0;"/></g><!--link APP to MODEL--><g id="link_APP_MODEL"><path d="M254,590.33 C254,620.99 254,666.72 254,698.84 " fill="none" id="APP-to-MODEL" style="stroke:#181818;stroke-width:1.0;stroke-dasharray:7.0,7.0;"/><polygon fill="#181818" points="254,703.88,258,694.88,254,698.88,250,694.88,254,703.88" style="stroke:#181818;stroke-width:1.0;"/></g><!--link I to IA--><g id="link_I_IA"><path d="M134,252.192 C134,252.5096 134,252.8279 134,253.1469 C134,263.3524 134,274.1934 134,285.0338 C134,286.3888 134,287.7438 134,289.0976 C134,289.7745 134,290.4511 134,291.1272 C134,291.2962 134,291.4652 134,291.6341 " fill="none" id="I-to-IA" style="stroke:#181818;stroke-width:1.0;stroke-dasharray:7.0,7.0;"/><polygon fill="#181818" points="134,291.6341,138,282.6341,134,286.6341,130,282.6341,134,291.6341" style="stroke:#181818;stroke-width:1.0;"/></g><!--link IA to UC--><g id="link_IA_UC"><path d="M134,433.192 C134,433.5096 134,433.8279 134,434.1469 C134,444.3524 134,455.1934 134,466.0338 C134,467.3888 134,468.7438 134,470.0976 C134,470.7745 134,471.4511 134,472.1272 C134,472.2962 134,472.4652 134,472.6341 " fill="none" id="IA-to-UC" style="stroke:#181818;stroke-width:1.0;stroke-dasharray:7.0,7.0;"/><polygon fill="#181818" points="134,472.6341,138,463.6341,134,467.6341,130,463.6341,134,472.6341" style="stroke:#181818;stroke-width:1.0;"/></g><!--link UC to E--><g id="link_UC_E"><path d="M134,614.192 C134,614.5096 134,614.8279 134,615.1469 C134,625.3524 134,636.1934 134,647.0338 C134,648.3888 134,649.7438 134,651.0976 C134,651.7745 134,652.4511 134,653.1272 C134,653.2962 134,653.4652 134,653.6341 " fill="none" id="UC-to-E" style="stroke:#181818;stroke-width:1.0;stroke-dasharray:7.0,7.0;"/><polygon fill="#181818" points="134,653.6341,138,644.6341,134,648.6341,130,644.6341,134,653.6341" style="stroke:#181818;stroke-width:1.0;"/></g><!--SRC=[RL1DQm8n4BtdLmnxQYzQIe-oiAnR22YATdiVihCIZCcIP7jG-jyxoQgWz1Bcu-MzDoySjHtGuyauTQGEEkfnDF7JsRZNPuBtDo6KEmtEaerGVEimej5dZDhP0Z10As6nk2FACdSsehRauQN-UENHHG3qpdGyaRRt6A8VLHmz9GAPrm03gYCU27PkZ1JIPhTflngu_3wiwxiPHjIRzJO1696VgqWXRIJVeoAeEXou3jchh9wqrguRJNQntYmdfGUUQXYCLlbOs9F_qOh2l0ti0lcvJQOSwYVkzFaHKcst_sWqDkgecRTsdkPBT-BeChnv9cItP8ghssPrusAsdCDiLgQ5c6AxTUcmLBEuI0QkysObXCoDh0Jdaggs5dn5gXhn1m00]--></g></svg>