<?xml version="1.0" encoding="UTF-8" standalone="no"?><svg xmlns="http://www.w3.org/2000/svg" xmlns:xlink="http://www.w3.org/1999/xlink" contentStyleType="text/css" height="3215px" preserveAspectRatio="none" style="width:975px;height:3215px;background:#FFFFFF;" version="1.1" viewBox="0 0 975 3215" width="975px" zoomAndPan="magnify"><defs/><g><!--MD5=[6382fda4633d3737a57bd90999b909fb]
cluster campus--><g id="cluster_campus"><rect fill="none" height="2472" rx="2.5" ry="2.5" style="stroke:#181818;stroke-width:1.0;" width="799.99" x="170" y="7"/><text fill="#000000" font-family="sans-serif" font-size="14" font-weight="bold" lengthAdjust="spacing" textLength="129" x="505.495" y="23.9659">Campus Managing</text></g><!--MD5=[fa1cdbb618a3f6609961c79ce1d311aa]
cluster fleet--><g id="cluster_fleet"><rect fill="none" height="706" rx="2.5" ry="2.5" style="stroke:#181818;stroke-width:1.0;" width="634.67" x="252.66" y="2503"/><text fill="#000000" font-family="sans-serif" font-size="14" font-weight="bold" lengthAdjust="spacing" textLength="107" x="516.495" y="2519.9659">Fleet Managing</text></g><g id="elem_createBuilding"><ellipse cx="569.9909" cy="88.0042" fill="#ADD8E6" rx="202.7709" ry="42.9542" style="stroke:#00008B;stroke-width:0.5;"/><text fill="#000000" font-family="sans-serif" font-size="14" font-weight="bold" lengthAdjust="spacing" textLength="376" x="381.9909" y="91.4362">150. As a campus manager, I want to create a building</text></g><g id="elem_editBuilding"><ellipse cx="569.9885" cy="215.9997" fill="#ADD8E6" rx="237.3985" ry="49.8797" style="stroke:#00008B;stroke-width:0.5;"/><text fill="#000000" font-family="sans-serif" font-size="14" font-weight="bold" lengthAdjust="spacing" textLength="447" x="346.4885" y="219.4317">160. As a campus manager, I want to edit a building information</text></g><g id="elem_listBuildings"><ellipse cx="569.9938" cy="343.0048" fill="#ADD8E6" rx="199.3738" ry="42.2748" style="stroke:#00008B;stroke-width:0.5;"/><text fill="#000000" font-family="sans-serif" font-size="14" font-weight="bold" lengthAdjust="spacing" textLength="369" x="385.4938" y="346.4367">170. As a campus manager, I want to list all buildings</text></g><g id="elem_listBuildingsWithFloors"><ellipse cx="569.994" cy="498.9988" fill="#ADD8E6" rx="383.994" ry="79.1988" style="stroke:#00008B;stroke-width:0.5;"/><text fill="#000000" font-family="sans-serif" font-size="14" font-weight="bold" lengthAdjust="spacing" textLength="744" x="197.994" y="502.4308">180. As a campus manager, I want to list all buildings with given minimum and maximum number of floors</text></g><g id="elem_createFloor"><ellipse cx="569.9899" cy="666.998" fill="#ADD8E6" rx="255.5399" ry="53.508" style="stroke:#00008B;stroke-width:0.5;"/><text fill="#000000" font-family="sans-serif" font-size="14" font-weight="bold" lengthAdjust="spacing" textLength="484" x="327.9899" y="670.43">190. As a campus manager, I want to create a floor in a given building</text></g><g id="elem_editFloor"><ellipse cx="569.9889" cy="808.9998" fill="#ADD8E6" rx="255.0489" ry="53.4098" style="stroke:#00008B;stroke-width:0.5;"/><text fill="#000000" font-family="sans-serif" font-size="14" font-weight="bold" lengthAdjust="spacing" textLength="483" x="328.4889" y="812.4318">200. As a campus manager, I want to edit information of a given floor</text></g><g id="elem_listFloors"><ellipse cx="569.9942" cy="951.0008" fill="#ADD8E6" rx="257.5042" ry="53.9008" style="stroke:#00008B;stroke-width:0.5;"/><text fill="#000000" font-family="sans-serif" font-size="14" font-weight="bold" lengthAdjust="spacing" textLength="484" x="325.9942" y="954.4328">210. As a campus manager, I want to list all floors for a given building</text></g><g id="elem_listFloorsWithConnections"><ellipse cx="569.9914" cy="1104.0003" fill="#ADD8E6" rx="307.7514" ry="63.9503" style="stroke:#00008B;stroke-width:0.5;"/><text fill="#000000" font-family="sans-serif" font-size="14" font-weight="bold" lengthAdjust="spacing" textLength="590" x="274.9914" y="1107.4323">220. As a campus manager, I want to list all floors with connection to other buildings</text></g><g id="elem_loadFloorMap"><ellipse cx="569.9868" cy="1252.9994" fill="#ADD8E6" rx="239.8468" ry="50.3694" style="stroke:#00008B;stroke-width:0.5;"/><text fill="#000000" font-family="sans-serif" font-size="14" font-weight="bold" lengthAdjust="spacing" textLength="452" x="343.9868" y="1256.4313">230. As a campus manager, I want to load a map for a given floor</text></g><g id="elem_createConnection"><ellipse cx="569.9893" cy="1395.0039" fill="#ADD8E6" rx="271.2693" ry="56.6539" style="stroke:#00008B;stroke-width:0.5;"/><text fill="#000000" font-family="sans-serif" font-size="14" font-weight="bold" lengthAdjust="spacing" textLength="516" x="311.9893" y="1398.4358">240. As a campus manager, I want to create a connection between 2 floors</text></g><g id="elem_editConnection"><ellipse cx="569.9905" cy="1542.0001" fill="#ADD8E6" rx="263.4005" ry="55.0801" style="stroke:#00008B;stroke-width:0.5;"/><text fill="#000000" font-family="sans-serif" font-size="14" font-weight="bold" lengthAdjust="spacing" textLength="500" x="319.9905" y="1545.4321">250. As a campus manager, I want to edit a connection between 2 floors</text></g><g id="elem_listBuildingsConnections"><ellipse cx="569.9937" cy="1691.9987" fill="#ADD8E6" rx="289.4937" ry="60.2987" style="stroke:#00008B;stroke-width:0.5;"/><text fill="#000000" font-family="sans-serif" font-size="14" font-weight="bold" lengthAdjust="spacing" textLength="553" x="293.4937" y="1695.4307">260. As a campus manager, I want to list all the connection between 2 buildings</text></g><g id="elem_createElevator"><ellipse cx="569.9937" cy="1830.9987" fill="#ADD8E6" rx="207.1437" ry="43.8287" style="stroke:#00008B;stroke-width:0.5;"/><text fill="#000000" font-family="sans-serif" font-size="14" font-weight="bold" lengthAdjust="spacing" textLength="385" x="377.4937" y="1834.4307">270. As a campus manager, I want to create an elevator</text></g><g id="elem_editElevator"><ellipse cx="569.9938" cy="1952.0048" fill="#ADD8E6" rx="199.3738" ry="42.2748" style="stroke:#00008B;stroke-width:0.5;"/><text fill="#000000" font-family="sans-serif" font-size="14" font-weight="bold" lengthAdjust="spacing" textLength="369" x="385.4938" y="1955.4367">280. As a campus manager, I want to edit an elevator</text></g><g id="elem_listElevators"><ellipse cx="569.9932" cy="2088.0046" fill="#ADD8E6" rx="280.6232" ry="58.5246" style="stroke:#00008B;stroke-width:0.5;"/><text fill="#000000" font-family="sans-serif" font-size="14" font-weight="bold" lengthAdjust="spacing" textLength="535" x="302.4932" y="2091.4366">290. As a campus manager, I want to list all the elevators for a given building</text></g><g id="elem_listFloorsReachableByElevator"><ellipse cx="569.985" cy="2252.999" fill="#ADD8E6" rx="344.345" ry="71.269" style="stroke:#00008B;stroke-width:0.5;"/><text fill="#000000" font-family="sans-serif" font-size="14" font-weight="bold" lengthAdjust="spacing" textLength="664" x="237.985" y="2256.431">300. As a campus manager, I want to list all the floors reachable by elevator for a given building</text></g><g id="elem_createRoom"><ellipse cx="569.9873" cy="2411.0035" fill="#ADD8E6" rx="246.2173" ry="51.6435" style="stroke:#00008B;stroke-width:0.5;"/><text fill="#000000" font-family="sans-serif" font-size="14" font-weight="bold" lengthAdjust="spacing" textLength="465" x="337.4873" y="2414.4354">310. As a campus manager, I want to create a room in a given floor</text></g><g id="elem_createRobotType"><ellipse cx="569.9931" cy="2603.9966" fill="#ADD8E6" rx="301.3331" ry="62.6666" style="stroke:#00008B;stroke-width:0.5;"/><text fill="#000000" font-family="sans-serif" font-size="14" font-weight="bold" lengthAdjust="spacing" textLength="577" x="281.4931" y="2607.4286">350. As a fleet manager, I want to create a new robot type and assign specific tasks</text></g><g id="elem_createRobot"><ellipse cx="569.9891" cy="2756.0038" fill="#ADD8E6" rx="259.4691" ry="54.2938" style="stroke:#00008B;stroke-width:0.5;"/><text fill="#000000" font-family="sans-serif" font-size="14" font-weight="bold" lengthAdjust="spacing" textLength="492" x="323.9891" y="2759.4358">360. As a fleet manager, I want to create a new robot with a given type</text></g><g id="elem_disableRobot"><ellipse cx="569.9941" cy="2885.0048" fill="#ADD8E6" rx="185.8241" ry="39.5648" style="stroke:#00008B;stroke-width:0.5;"/><text fill="#000000" font-family="sans-serif" font-size="14" font-weight="bold" lengthAdjust="spacing" textLength="341" x="399.4941" y="2888.4368">370. As a fleet manager, I want to disable a robot</text></g><g id="elem_listRobots"><ellipse cx="569.9871" cy="2998.0014" fill="#ADD8E6" rx="179.5571" ry="38.3114" style="stroke:#00008B;stroke-width:0.5;"/><text fill="#000000" font-family="sans-serif" font-size="14" font-weight="bold" lengthAdjust="spacing" textLength="328" x="405.9871" y="3001.4334">370. As a fleet manager, I want to list all robots</text></g><g id="elem_searchRobot"><ellipse cx="569.992" cy="3131.9964" fill="#ADD8E6" rx="293.932" ry="61.1864" style="stroke:#00008B;stroke-width:0.5;"/><text fill="#000000" font-family="sans-serif" font-size="14" font-weight="bold" lengthAdjust="spacing" textLength="562" x="288.992" y="3135.4284">370. As a fleet manager, I want to search robots for a specific designation or task</text></g><!--MD5=[21d926a6b338e3ff2c01dcfb4b691a0a]
entity Fleet--><g id="elem_Fleet"><ellipse cx="66" cy="2853.97" fill="#F1F1F1" rx="8" ry="8" style="stroke:#181818;stroke-width:0.5;"/><path d="M66,2861.97 L66,2888.97 M53,2869.97 L79,2869.97 M66,2888.97 L53,2903.97 M66,2888.97 L79,2903.97 " fill="none" style="stroke:#181818;stroke-width:0.5;"/><text fill="#000000" font-family="sans-serif" font-size="14" lengthAdjust="spacing" textLength="97" x="17.5" y="2920.4359">Fleet Manager</text></g><!--MD5=[e43e07678c6f500cd1621ea656c2cfb9]
entity Campus--><g id="elem_Campus"><ellipse cx="66" cy="1221.97" fill="#F1F1F1" rx="8" ry="8" style="stroke:#181818;stroke-width:0.5;"/><path d="M66,1229.97 L66,1256.97 M53,1237.97 L79,1237.97 M66,1256.97 L53,1271.97 M66,1256.97 L79,1271.97 " fill="none" style="stroke:#181818;stroke-width:0.5;"/><text fill="#000000" font-family="sans-serif" font-size="14" lengthAdjust="spacing" textLength="120" x="6" y="1288.4359">Campus Manager</text></g><!--MD5=[e38564c2d92594eed90e6fafde3fa21e]
link Campus to createBuilding--><g id="link_Campus_createBuilding"><path d="M67.56,1213.09 C70.6,1024.45 87.76,228.06 162,149 C217.41,89.99 303.49,71.26 382.24,68.72 " fill="none" id="Campus-to-createBuilding" style="stroke:#00008B;stroke-width:1.0;"/><polygon fill="#00008B" points="386.87,68.6,377.7702,64.8327,381.8717,68.7285,377.9758,72.83,386.87,68.6" style="stroke:#00008B;stroke-width:1.0;"/></g><!--MD5=[404effa62d3b843fb07a72e5f0c40b83]
link Campus to editBuilding--><g id="link_Campus_editBuilding"><path d="M68.09,1213.11 C73.21,1039.1 97.41,351.97 162,283 C206.04,235.97 269.4,213.73 333.05,204.65 " fill="none" id="Campus-to-editBuilding" style="stroke:#00008B;stroke-width:1.0;"/><polygon fill="#00008B" points="337.71,204.02,328.2535,201.2678,332.7555,204.693,329.3303,209.195,337.71,204.02" style="stroke:#00008B;stroke-width:1.0;"/></g><!--MD5=[627504243bfbfaf12cfe55e9d84ba6f9]
link Campus to listBuildings--><g id="link_Campus_listBuildings"><path d="M68.63,1213.21 C75.55,1053.02 104.85,461.06 162,402 C219.16,342.93 307.22,325.06 386.83,323.28 " fill="none" id="Campus-to-listBuildings" style="stroke:#00008B;stroke-width:1.0;"/><polygon fill="#00008B" points="391.52,323.19,382.4528,319.3449,386.5207,323.2757,382.5899,327.3437,391.52,323.19" style="stroke:#00008B;stroke-width:1.0;"/></g><!--MD5=[2c6c7b826b9b4b2f361289fca045eb9d]
link Campus to listBuildingsWithFloors--><g id="link_Campus_listBuildingsWithFloors"><path d="M67.12,1213.1 C68.32,1084.98 78.83,687.05 162,596 C182.35,573.72 206.82,556.12 233.53,542.26 " fill="none" id="Campus-to-listBuildingsWithFloors" style="stroke:#00008B;stroke-width:1.0;"/><polygon fill="#00008B" points="237.91,540.04,228.0737,540.5375,233.4494,542.2989,231.688,547.6746,237.91,540.04" style="stroke:#00008B;stroke-width:1.0;"/></g><!--MD5=[12489b89bf077ff20daf1f557a529641]
link Campus to createFloor--><g id="link_Campus_createFloor"><path d="M68.64,1213.28 C73.99,1104.37 94.65,804.7 162,738 C201.32,699.06 253.9,677.14 308.19,665.52 " fill="none" id="Campus-to-createFloor" style="stroke:#00008B;stroke-width:1.0;"/><polygon fill="#00008B" points="312.99,664.53,303.366,662.4373,308.0938,665.5435,304.9876,670.2713,312.99,664.53" style="stroke:#00008B;stroke-width:1.0;"/></g><!--MD5=[8e4f82a8692cbac04518c37a8ded44fd]
link Campus to editFloor--><g id="link_Campus_editFloor"><path d="M71.69,1213.13 C82.72,1126.52 113.09,925.29 162,880 C202.16,842.81 254.54,821.48 308.28,809.87 " fill="none" id="Campus-to-editFloor" style="stroke:#00008B;stroke-width:1.0;"/><polygon fill="#00008B" points="313.02,808.87,303.389,806.8099,308.1273,809.9001,305.0371,814.6383,313.02,808.87" style="stroke:#00008B;stroke-width:1.0;"/></g><!--MD5=[19ff00d1cbe8092828800b2eb91b8713]
link Campus to listFloors--><g id="link_Campus_listFloors"><path d="M71.74,1213.17 C80.19,1160.97 102.91,1070.5 162,1023 C203.47,989.67 255.05,969.6 307.42,957.92 " fill="none" id="Campus-to-listFloors" style="stroke:#00008B;stroke-width:1.0;"/><polygon fill="#00008B" points="311.99,956.92,302.3476,954.9138,307.1031,957.9774,304.0395,962.7329,311.99,956.92" style="stroke:#00008B;stroke-width:1.0;"/></g><!--MD5=[28746df21a5a71eaa4d9e8d7147b57d2]
link Campus to listFloorsWithConnections--><g id="link_Campus_listFloorsWithConnections"><path d="M114.39,1213.1 C128.91,1202.58 145.44,1192.18 162,1185 C206.3,1165.81 255.29,1151.11 303.48,1139.88 " fill="none" id="Campus-to-listFloorsWithConnections" style="stroke:#00008B;stroke-width:1.0;"/><polygon fill="#00008B" points="308.19,1138.79,298.5194,1136.9245,303.319,1139.9185,300.325,1144.718,308.19,1138.79" style="stroke:#00008B;stroke-width:1.0;"/></g><!--MD5=[d13009590e78ed5cfa150b3e93294d7e]
link Campus to loadFloorMap--><g id="link_Campus_loadFloorMap"><path d="M126.06,1253 C175.6,1253 249.87,1253 323.51,1253 " fill="none" id="Campus-to-loadFloorMap" style="stroke:#00008B;stroke-width:1.0;"/><polygon fill="#00008B" points="328.21,1253,319.21,1249,323.21,1253,319.21,1257,328.21,1253" style="stroke:#00008B;stroke-width:1.0;"/></g><!--MD5=[ab0fe59108c748c666c6a3ea81ef63f5]
link Campus to createConnection--><g id="link_Campus_createConnection"><path d="M113.83,1292.72 C128.46,1303.36 145.19,1313.88 162,1321 C211.83,1342.1 267.58,1357.19 321.46,1367.98 " fill="none" id="Campus-to-createConnection" style="stroke:#00008B;stroke-width:1.0;"/><polygon fill="#00008B" points="326.19,1368.91,318.1238,1363.2588,321.2827,1367.9514,316.5901,1371.1104,326.19,1368.91" style="stroke:#00008B;stroke-width:1.0;"/></g><!--MD5=[966554d066a54743f70caee043fc167d]
link Campus to editConnection--><g id="link_Campus_editConnection"><path d="M73.01,1293 C82.65,1342.41 106.48,1425.28 162,1469 C202.45,1500.84 252.17,1520.58 302.8,1532.48 " fill="none" id="Campus-to-editConnection" style="stroke:#00008B;stroke-width:1.0;"/><polygon fill="#00008B" points="307.5,1533.56,299.6185,1527.6539,302.6259,1532.4451,297.8347,1535.4525,307.5,1533.56" style="stroke:#00008B;stroke-width:1.0;"/></g><!--MD5=[ad397760191ef1f57fae16a9a2bf2b8c]
link Campus to listBuildingsConnections--><g id="link_Campus_listBuildingsConnections"><path d="M72.09,1292.93 C83.7,1377.6 114.84,1571.02 162,1615 C194.77,1645.57 235.71,1665.81 278.89,1678.95 " fill="none" id="Campus-to-listBuildingsConnections" style="stroke:#00008B;stroke-width:1.0;"/><polygon fill="#00008B" points="283.55,1680.33,276.0702,1673.9228,278.7589,1678.8998,273.7819,1681.5886,283.55,1680.33" style="stroke:#00008B;stroke-width:1.0;"/></g><!--MD5=[161d282b254def55427d7011f55bc3cb]
link Campus to createElevator--><g id="link_Campus_createElevator"><path d="M68.54,1292.96 C73.61,1402.51 93.63,1703.84 162,1770 C216.75,1822.97 296.5,1842.4 370.92,1847.04 " fill="none" id="Campus-to-createElevator" style="stroke:#00008B;stroke-width:1.0;"/><polygon fill="#00008B" points="375.68,1847.31,366.9236,1842.8016,370.6882,1847.0239,366.4659,1850.7885,375.68,1847.31" style="stroke:#00008B;stroke-width:1.0;"/></g><!--MD5=[97bd9909e007f1b339e34416c7b6a500]
link Campus to editElevator--><g id="link_Campus_editElevator"><path d="M66.98,1292.99 C67.8,1419.46 77.29,1807.39 162,1892 C219.13,1949.06 305.18,1967.43 383.46,1970.14 " fill="none" id="Campus-to-editElevator" style="stroke:#00008B;stroke-width:1.0;"/><polygon fill="#00008B" points="388.05,1970.28,379.1679,1966.0246,383.052,1970.1372,378.9394,1974.0213,388.05,1970.28" style="stroke:#00008B;stroke-width:1.0;"/></g><!--MD5=[cf58e5369d96c1ee7b366dda3fb6a350]
link Campus to listElevators--><g id="link_Campus_listElevators"><path d="M69.27,1292.92 C78.11,1441.83 112.18,1959.1 162,2012 C194.66,2046.68 237.68,2068.5 283.52,2081.79 " fill="none" id="Campus-to-listElevators" style="stroke:#00008B;stroke-width:1.0;"/><polygon fill="#00008B" points="288.25,2083.12,280.6556,2076.849,283.4338,2081.7766,278.5062,2084.5548,288.25,2083.12" style="stroke:#00008B;stroke-width:1.0;"/></g><!--MD5=[bad27ee686b3b1f75438af9872404a16]
link Campus to listFloorsReachableByElevator--><g id="link_Campus_listFloorsReachableByElevator"><path d="M68.45,1292.89 C74.87,1460.01 103.1,2098.14 162,2164 C185.04,2189.76 213.65,2209 244.96,2223.26 " fill="none" id="Campus-to-listFloorsReachableByElevator" style="stroke:#00008B;stroke-width:1.0;"/><polygon fill="#00008B" points="249.45,2225.26,242.846,2217.9533,244.8798,2223.232,239.6011,2225.2657,249.45,2225.26" style="stroke:#00008B;stroke-width:1.0;"/></g><!--MD5=[63805895ccb8571785bc01b2fcf66566]
link Campus to createRoom--><g id="link_Campus_createRoom"><path d="M67.65,1292.96 C71.05,1480.03 89.55,2263.44 162,2342 C203.16,2386.63 261.65,2409.28 321.49,2419.61 " fill="none" id="Campus-to-createRoom" style="stroke:#00008B;stroke-width:1.0;"/><polygon fill="#00008B" points="326.16,2420.38,317.9477,2414.9433,321.2292,2419.5511,316.6214,2422.8325,326.16,2420.38" style="stroke:#00008B;stroke-width:1.0;"/></g><!--MD5=[449be1f1c7efaefb504e6237dba9b42c]
link Fleet to createRobotType--><g id="link_Fleet_createRobotType"><path d="M74.63,2845.02 C85.62,2798.84 110.54,2724.08 162,2684 C196.05,2657.48 236.46,2639 278.38,2626.24 " fill="none" id="Fleet-to-createRobotType" style="stroke:#00008B;stroke-width:1.0;"/><polygon fill="#00008B" points="283.13,2624.83,273.3629,2623.5635,278.3377,2626.2563,275.6449,2631.2311,283.13,2624.83" style="stroke:#00008B;stroke-width:1.0;"/></g><!--MD5=[329ad77e1ce4b52c0bac6329269708e5]
link Fleet to createRobot--><g id="link_Fleet_createRobot"><path d="M114.58,2851.83 C129.23,2842.91 145.79,2834.06 162,2828 C216.15,2807.76 276.53,2793.12 333.85,2782.57 " fill="none" id="Fleet-to-createRobot" style="stroke:#00008B;stroke-width:1.0;"/><polygon fill="#00008B" points="338.61,2781.71,329.0444,2779.365,333.6888,2782.5944,330.4594,2787.2388,338.61,2781.71" style="stroke:#00008B;stroke-width:1.0;"/></g><!--MD5=[a0e123f30fbd34fe7cf1efc93f915a4f]
link Fleet to disableRobot--><g id="link_Fleet_disableRobot"><path d="M114.68,2885 C174.97,2885 282.41,2885 377.68,2885 " fill="none" id="Fleet-to-disableRobot" style="stroke:#00008B;stroke-width:1.0;"/><polygon fill="#00008B" points="382.42,2885,373.42,2881,377.42,2885,373.42,2889,382.42,2885" style="stroke:#00008B;stroke-width:1.0;"/></g><!--MD5=[c6556d58196d7ccdcfda4cd421467853]
link Fleet to listRobots--><g id="link_Fleet_listRobots"><path d="M114.92,2918.86 C129.45,2927.69 145.85,2936.31 162,2942 C233.82,2967.29 316.51,2981.22 388.52,2988.88 " fill="none" id="Fleet-to-listRobots" style="stroke:#00008B;stroke-width:1.0;"/><polygon fill="#00008B" points="393.06,2989.35,384.5333,2984.4209,388.088,2988.8214,383.6875,2992.376,393.06,2989.35" style="stroke:#00008B;stroke-width:1.0;"/></g><!--MD5=[0cb7592bee4e9b949971e14f3ae52972]
link Fleet to searchRobot--><g id="link_Fleet_searchRobot"><path d="M78.49,2924.83 C91.95,2964.02 118.16,3022.44 162,3054 C198.39,3080.2 241.17,3098.26 285.09,3110.6 " fill="none" id="Fleet-to-searchRobot" style="stroke:#00008B;stroke-width:1.0;"/><polygon fill="#00008B" points="289.84,3111.9,282.2236,3105.6557,285.0192,3110.5736,280.1013,3113.3691,289.84,3111.9" style="stroke:#00008B;stroke-width:1.0;"/></g><!--MD5=[1f4fdd18a597a1d15ced108ae1dc6282]
@startuml ucd-sprint-a

skinparam usecase {
    BackgroundColor LightBlue
    BorderColor DarkBlue
    ArrowColor DarkBlue
    FontStyle Bold
}

:Fleet Manager: as Fleet
:Campus Manager: as Campus

left to right direction

rectangle "Campus Managing" as campus {
  usecase "150. As a campus manager, I want to create a building" as createBuilding
  usecase "160. As a campus manager, I want to edit a building information" as editBuilding
  usecase "170. As a campus manager, I want to list all buildings" as listBuildings
  usecase "180. As a campus manager, I want to list all buildings with given minimum and maximum number of floors" as listBuildingsWithFloors
  usecase "190. As a campus manager, I want to create a floor in a given building" as createFloor
  usecase "200. As a campus manager, I want to edit information of a given floor" as editFloor
  usecase "210. As a campus manager, I want to list all floors for a given building " as listFloors
  usecase "220. As a campus manager, I want to list all floors with connection to other buildings" as listFloorsWithConnections
  usecase "230. As a campus manager, I want to load a map for a given floor" as loadFloorMap
  usecase "240. As a campus manager, I want to create a connection between 2 floors" as createConnection
  usecase "250. As a campus manager, I want to edit a connection between 2 floors" as editConnection
  usecase "260. As a campus manager, I want to list all the connection between 2 buildings" as listBuildingsConnections
  usecase "270. As a campus manager, I want to create an elevator" as createElevator
  usecase "280. As a campus manager, I want to edit an elevator" as editElevator
  usecase "290. As a campus manager, I want to list all the elevators for a given building" as listElevators
  usecase "300. As a campus manager, I want to list all the floors reachable by elevator for a given building" as listFloorsReachableByElevator
  usecase "310. As a campus manager, I want to create a room in a given floor" as createRoom
}

rectangle "Fleet Managing" as fleet {
  usecase "350. As a fleet manager, I want to create a new robot type and assign specific tasks" as createRobotType
  usecase "360. As a fleet manager, I want to create a new robot with a given type" as createRobot
  usecase "370. As a fleet manager, I want to disable a robot" as disableRobot
  usecase "370. As a fleet manager, I want to list all robots" as listRobots
  usecase "370. As a fleet manager, I want to search robots for a specific designation or task" as searchRobot
}

Campus - -> createBuilding
Campus - -> editBuilding
Campus - -> listBuildings
Campus - -> listBuildingsWithFloors
Campus - -> createFloor
Campus - -> editFloor
Campus - -> listFloors
Campus - -> listFloorsWithConnections
Campus - -> loadFloorMap
Campus - -> createConnection
Campus - -> editConnection
Campus - -> listBuildingsConnections
Campus - -> createElevator
Campus - -> editElevator
Campus - -> listElevators
Campus - -> listFloorsReachableByElevator
Campus - -> createRoom

Fleet - -> createRobotType
Fleet - -> createRobot
Fleet - -> disableRobot
Fleet - -> listRobots
Fleet - -> searchRobot

@enduml

PlantUML version 1.2022.7(Mon Aug 22 18:01:30 WEST 2022)
(GPL source distribution)
Java Runtime: OpenJDK Runtime Environment
JVM: OpenJDK 64-Bit Server VM
Default Encoding: UTF-8
Language: en
Country: GB
--></g></svg>