<?xml version="1.0" encoding="UTF-8" standalone="no"?><svg xmlns="http://www.w3.org/2000/svg" xmlns:xlink="http://www.w3.org/1999/xlink" contentStyleType="text/css" height="455px" preserveAspectRatio="none" style="width:1035px;height:455px;background:#FFFFFF;" version="1.1" viewBox="0 0 1035 455" width="1035px" zoomAndPan="magnify"><defs/><g><rect fill="#FFFFFF" height="259.25" style="stroke:#181818;stroke-width:1.0;" width="10" x="105.5" y="98.2813"/><rect fill="#FFFFFF" height="37.2813" style="stroke:#181818;stroke-width:1.0;" width="10" x="902.5" y="127.5625"/><rect fill="#FFFFFF" height="140.4063" style="stroke:#181818;stroke-width:1.0;" width="10" x="902.5" y="202.125"/><rect fill="none" height="133.4063" style="stroke:#000000;stroke-width:1.5;" width="1018" x="10" y="217.125"/><line style="stroke:#181818;stroke-width:0.5;stroke-dasharray:5.0,5.0;" x1="110" x2="110" y1="88.2813" y2="367.5313"/><line style="stroke:#181818;stroke-width:0.5;stroke-dasharray:5.0,5.0;" x1="907" x2="907" y1="88.2813" y2="367.5313"/><text fill="#000000" font-family="sans-serif" font-size="20" lengthAdjust="spacing" textLength="175" x="20" y="83.5645">Campus Manager</text><ellipse cx="110.5" cy="13.5" fill="#E2E2F0" rx="8" ry="8" style="stroke:#181818;stroke-width:0.5;"/><path d="M110.5,21.5 L110.5,48.5 M97.5,29.5 L123.5,29.5 M110.5,48.5 L97.5,63.5 M110.5,48.5 L123.5,63.5 " fill="none" style="stroke:#181818;stroke-width:0.5;"/><text fill="#000000" font-family="sans-serif" font-size="20" lengthAdjust="spacing" textLength="175" x="20" y="385.0957">Campus Manager</text><ellipse cx="110.5" cy="398.3125" fill="#E2E2F0" rx="8" ry="8" style="stroke:#181818;stroke-width:0.5;"/><path d="M110.5,406.3125 L110.5,433.3125 M97.5,414.3125 L123.5,414.3125 M110.5,433.3125 L97.5,448.3125 M110.5,433.3125 L123.5,448.3125 " fill="none" style="stroke:#181818;stroke-width:0.5;"/><rect fill="#E2E2F0" height="60.5625" rx="2.5" ry="2.5" style="stroke:#181818;stroke-width:0.5;" width="221" x="797" y="26.7188"/><text fill="#000000" font-family="sans-serif" font-size="20" font-style="italic" lengthAdjust="spacing" textLength="145" x="835" y="52.2832">«system (C4)»</text><text fill="#000000" font-family="sans-serif" font-size="20" lengthAdjust="spacing" textLength="207" x="804" y="75.5645">RobDroneGo System</text><rect fill="#E2E2F0" height="60.5625" rx="2.5" ry="2.5" style="stroke:#181818;stroke-width:0.5;" width="221" x="797" y="366.5313"/><text fill="#000000" font-family="sans-serif" font-size="20" font-style="italic" lengthAdjust="spacing" textLength="145" x="835" y="392.0957">«system (C4)»</text><text fill="#000000" font-family="sans-serif" font-size="20" lengthAdjust="spacing" textLength="207" x="804" y="415.377">RobDroneGo System</text><rect fill="#FFFFFF" height="259.25" style="stroke:#181818;stroke-width:1.0;" width="10" x="105.5" y="98.2813"/><rect fill="#FFFFFF" height="37.2813" style="stroke:#181818;stroke-width:1.0;" width="10" x="902.5" y="127.5625"/><rect fill="#FFFFFF" height="140.4063" style="stroke:#181818;stroke-width:1.0;" width="10" x="902.5" y="202.125"/><polygon fill="#181818" points="890.5,123.5625,900.5,127.5625,890.5,131.5625,894.5,127.5625" style="stroke:#181818;stroke-width:1.0;"/><line style="stroke:#181818;stroke-width:1.0;" x1="115.5" x2="896.5" y1="127.5625" y2="127.5625"/><text fill="#000000" font-family="sans-serif" font-size="20" font-weight="bold" lengthAdjust="spacing" textLength="14" x="122.5" y="120.8457">1</text><text fill="#000000" font-family="sans-serif" font-size="20" lengthAdjust="spacing" textLength="405" x="140.5" y="120.8457">wants to create an elevator in a building</text><polygon fill="#181818" points="126.5,160.8438,116.5,164.8438,126.5,168.8438,122.5,164.8438" style="stroke:#181818;stroke-width:1.0;"/><line style="stroke:#181818;stroke-width:1.0;stroke-dasharray:2.0,2.0;" x1="120.5" x2="906.5" y1="164.8438" y2="164.8438"/><text fill="#000000" font-family="sans-serif" font-size="20" font-weight="bold" lengthAdjust="spacing" textLength="14" x="132.5" y="158.127">2</text><text fill="#000000" font-family="sans-serif" font-size="20" lengthAdjust="spacing" textLength="745" x="150.5" y="158.127">asks for the code, model, brand, serial number, description &amp; floors served</text><polygon fill="#181818" points="890.5,198.125,900.5,202.125,890.5,206.125,894.5,202.125" style="stroke:#181818;stroke-width:1.0;"/><line style="stroke:#181818;stroke-width:1.0;" x1="115.5" x2="896.5" y1="202.125" y2="202.125"/><text fill="#000000" font-family="sans-serif" font-size="20" font-weight="bold" lengthAdjust="spacing" textLength="14" x="122.5" y="195.4082">3</text><text fill="#000000" font-family="sans-serif" font-size="20" lengthAdjust="spacing" textLength="157" x="140.5" y="195.4082">inserts the data</text><path d="M10,217.125 L86,217.125 L86,232.4063 L76,242.4063 L10,242.4063 L10,217.125 " fill="#EEEEEE" style="stroke:#000000;stroke-width:1.5;"/><rect fill="none" height="133.4063" style="stroke:#000000;stroke-width:1.5;" width="1018" x="10" y="217.125"/><text fill="#000000" font-family="sans-serif" font-size="20" font-weight="bold" lengthAdjust="spacing" textLength="31" x="25" y="236.6895">alt</text><text fill="#000000" font-family="sans-serif" font-size="20" font-weight="bold" lengthAdjust="spacing" textLength="309" x="101" y="237.6895">[a new elevator is created]</text><polygon fill="#181818" points="126.5,275.9688,116.5,279.9688,126.5,283.9688,122.5,279.9688" style="stroke:#181818;stroke-width:1.0;"/><line style="stroke:#181818;stroke-width:1.0;stroke-dasharray:2.0,2.0;" x1="120.5" x2="901.5" y1="279.9688" y2="279.9688"/><text fill="#000000" font-family="sans-serif" font-size="20" font-weight="bold" lengthAdjust="spacing" textLength="14" x="132.5" y="273.252">4</text><text fill="#000000" font-family="sans-serif" font-size="20" lengthAdjust="spacing" textLength="246" x="150.5" y="273.252">returns the new elevator</text><line style="stroke:#000000;stroke-width:1.0;stroke-dasharray:2.0,2.0;" x1="10" x2="1028" y1="288.9688" y2="288.9688"/><text fill="#000000" font-family="sans-serif" font-size="20" font-weight="bold" lengthAdjust="spacing" textLength="516" x="15" y="307.5332">[there is an evelator with the specified code]</text><polygon fill="#181818" points="126.5,338.5313,116.5,342.5313,126.5,346.5313,122.5,342.5313" style="stroke:#181818;stroke-width:1.0;"/><line style="stroke:#181818;stroke-width:1.0;stroke-dasharray:2.0,2.0;" x1="120.5" x2="906.5" y1="342.5313" y2="342.5313"/><text fill="#000000" font-family="sans-serif" font-size="20" font-weight="bold" lengthAdjust="spacing" textLength="14" x="132.5" y="335.8145">5</text><text fill="#000000" font-family="sans-serif" font-size="20" lengthAdjust="spacing" textLength="571" x="150.5" y="335.8145">shows error message "An elevator with that code exists."</text><!--SRC=[PP51JyCm38Nl-HLM3mYa3I742KsJq12STg4dZcxZRjRIf8hT5VZrkDq4PLoYAdtlotks73XscB4DgJwG1qyDza5VKjIIlmZkxnpsccBVLfITmrfJXiqMKA3OODlr0bkCkADSEECerznXL2ZVoqdpbghdd2Az9YW_HQajOBMIwGkkDmytw_K4vICg6TSvOo_Na_qH1YC9Q88wq_WV8r0Ware6Ze1GzHmynzqlmemJOxLSdY4e1u767Bedg9Ed1RHsXWLK6QDVW51c372gkB09I9svKquHhg09AMKPDKVopjE_Xtx2SZJH6DUUyQXuaGc3Mk18mwo2d8jv1_0dSoRjSponvXP7GMYypJIwntaSAKomWNK_wQMZcXksNOvbBycoJuC0vMoMbaHiSr0ypUPwvg1ETg0F5fNRmZWNvIbwDn-8BUyR]--></g></svg>