<?xml version="1.0" encoding="UTF-8" standalone="no"?><svg xmlns="http://www.w3.org/2000/svg" xmlns:xlink="http://www.w3.org/1999/xlink" contentStyleType="text/css" height="1269px" preserveAspectRatio="none" style="width:822px;height:1269px;background:#FFFFFF;" version="1.1" viewBox="0 0 822 1269" width="822px" zoomAndPan="magnify"><defs/><g><!--cluster MDM--><g id="cluster_MDM"><rect fill="none" height="1131" rx="2.5" ry="2.5" style="stroke:#181818;stroke-width:1.0;" width="809" x="7" y="132"/><rect fill="none" height="10" style="stroke:#181818;stroke-width:1.0;" width="15" x="796" y="137"/><rect fill="none" height="2" style="stroke:#181818;stroke-width:1.0;" width="4" x="794" y="139"/><rect fill="none" height="2" style="stroke:#181818;stroke-width:1.0;" width="4" x="794" y="143"/><text fill="#000000" font-family="sans-serif" font-size="20" font-style="italic" lengthAdjust="spacing" textLength="122" x="350.5" y="166.38">«component»</text><text fill="#000000" font-family="sans-serif" font-size="20" font-style="italic" lengthAdjust="spacing" textLength="122" x="350.5" y="193.62">«system (C4)»</text><text fill="#000000" font-family="sans-serif" font-size="20" font-weight="bold" lengthAdjust="spacing" textLength="169.5" x="326.75" y="220.8599">MD Management</text></g><!--cluster Frameworks & Drivers Layer--><g id="cluster_Frameworks &amp; Drivers Layer"><path d="M206.5,235 L484.875,235 A3.75,3.75 0 0 1 487.375,237.5 L494.375,268.24 L592.5,268.24 A2.5,2.5 0 0 1 595,270.74 L595,378.5 A2.5,2.5 0 0 1 592.5,381 L206.5,381 A2.5,2.5 0 0 1 204,378.5 L204,237.5 A2.5,2.5 0 0 1 206.5,235 " fill="#80FFFF" style="stroke:#000000;stroke-width:1.5;"/><line style="stroke:#000000;stroke-width:1.5;" x1="204" x2="494.375" y1="268.24" y2="268.24"/><text fill="#000000" font-family="sans-serif" font-size="20" font-weight="bold" lengthAdjust="spacing" textLength="277.375" x="208" y="258.38">Frameworks &amp; Drivers Layer</text></g><!--cluster Interface Adapters Layer--><g id="cluster_Interface Adapters Layer"><path d="M206.5,521 L449.25,521 A3.75,3.75 0 0 1 451.75,523.5 L458.75,554.24 L592.5,554.24 A2.5,2.5 0 0 1 595,556.74 L595,664.5 A2.5,2.5 0 0 1 592.5,667 L206.5,667 A2.5,2.5 0 0 1 204,664.5 L204,523.5 A2.5,2.5 0 0 1 206.5,521 " fill="#80FF80" style="stroke:#000000;stroke-width:1.5;"/><line style="stroke:#000000;stroke-width:1.5;" x1="204" x2="458.75" y1="554.24" y2="554.24"/><text fill="#000000" font-family="sans-serif" font-size="20" font-weight="bold" lengthAdjust="spacing" textLength="241.75" x="208" y="544.38">Interface Adapters Layer</text></g><!--cluster Application Business Rules--><g id="cluster_Application Business Rules"><path d="M305.5,807 L568.5,807 A3.75,3.75 0 0 1 571,809.5 L578,840.24 L578.5,840.24 A2.5,2.5 0 0 1 581,842.74 L581,950.5 A2.5,2.5 0 0 1 578.5,953 L305.5,953 A2.5,2.5 0 0 1 303,950.5 L303,809.5 A2.5,2.5 0 0 1 305.5,807 " fill="#FF8080" style="stroke:#000000;stroke-width:1.5;"/><line style="stroke:#000000;stroke-width:1.5;" x1="303" x2="578" y1="840.24" y2="840.24"/><text fill="#000000" font-family="sans-serif" font-size="20" font-weight="bold" lengthAdjust="spacing" textLength="262" x="307" y="830.38">Application Business Rules</text></g><!--cluster Enterprise Business Rules--><g id="cluster_Enterprise Business Rules"><path d="M210.5,1093 L463.875,1093 A3.75,3.75 0 0 1 466.375,1095.5 L473.375,1126.24 L473.5,1126.24 A2.5,2.5 0 0 1 476,1128.74 L476,1236.5 A2.5,2.5 0 0 1 473.5,1239 L210.5,1239 A2.5,2.5 0 0 1 208,1236.5 L208,1095.5 A2.5,2.5 0 0 1 210.5,1093 " fill="#FFC080" style="stroke:#000000;stroke-width:1.5;"/><line style="stroke:#000000;stroke-width:1.5;" x1="208" x2="473.375" y1="1126.24" y2="1126.24"/><text fill="#000000" font-family="sans-serif" font-size="20" font-weight="bold" lengthAdjust="spacing" textLength="252.375" x="212" y="1116.38">Enterprise Business Rules</text></g><text fill="#000000" font-family="sans-serif" font-size="20" lengthAdjust="spacing" textLength="5" x="495.5" y="108.14"> </text><rect fill="#F1F1F1" height="12" style="stroke:#181818;stroke-width:1.5;" width="12" x="492" y="126"/><text fill="#000000" font-family="sans-serif" font-size="20" lengthAdjust="spacing" textLength="144" x="538.5" y="108.14">Persistence API</text><rect fill="#F1F1F1" height="12" style="stroke:#181818;stroke-width:1.5;" width="12" x="604.5" y="126"/><!--entity CTRL_API--><g id="elem_CTRL_API"><ellipse cx="498" cy="465" fill="#F1F1F1" rx="8" ry="8" style="stroke:#181818;stroke-width:0.5;"/><text fill="#000000" font-family="sans-serif" font-size="20" lengthAdjust="spacing" textLength="130" x="433" y="503.38">Controller API</text></g><!--entity DATA_API--><g id="elem_DATA_API"><ellipse cx="106" cy="465" fill="#F1F1F1" rx="8" ry="8" style="stroke:#181818;stroke-width:0.5;"/><text fill="#000000" font-family="sans-serif" font-size="20" lengthAdjust="spacing" textLength="144" x="34" y="503.38">Data Model API</text></g><!--entity SRV_API--><g id="elem_SRV_API"><ellipse cx="498" cy="751" fill="#F1F1F1" rx="8" ry="8" style="stroke:#181818;stroke-width:0.5;"/><text fill="#000000" font-family="sans-serif" font-size="20" lengthAdjust="spacing" textLength="155" x="420.5" y="789.38">App Services API</text></g><!--entity DTO_API--><g id="elem_DTO_API"><ellipse cx="665" cy="751" fill="#F1F1F1" rx="8" ry="8" style="stroke:#181818;stroke-width:0.5;"/><text fill="#000000" font-family="sans-serif" font-size="20" lengthAdjust="spacing" textLength="79" x="625.5" y="789.38">DTO API</text></g><!--entity REPO_API--><g id="elem_REPO_API"><ellipse cx="328" cy="751" fill="#F1F1F1" rx="8" ry="8" style="stroke:#181818;stroke-width:0.5;"/><text fill="#000000" font-family="sans-serif" font-size="20" lengthAdjust="spacing" textLength="84" x="286" y="789.38">Repo API</text></g><!--entity MODEL_API--><g id="elem_MODEL_API"><ellipse cx="342" cy="1037" fill="#F1F1F1" rx="8" ry="8" style="stroke:#181818;stroke-width:0.5;"/><text fill="#000000" font-family="sans-serif" font-size="20" lengthAdjust="spacing" textLength="95" x="294.5" y="1075.38">Model API</text></g><!--entity PERSISTENCE_API--><g id="elem_PERSISTENCE_API"><ellipse cx="301" cy="465" fill="#F1F1F1" rx="8" ry="8" style="stroke:#181818;stroke-width:0.5;"/><text fill="#000000" font-family="sans-serif" font-size="20" lengthAdjust="spacing" textLength="144" x="229" y="503.38">Persistence API</text></g><!--entity ROUTE--><g id="elem_ROUTE"><rect fill="#F1F1F1" height="84.4799" rx="2.5" ry="2.5" style="stroke:#181818;stroke-width:0.5;" width="162" x="417" y="281"/><rect fill="#F1F1F1" height="10" style="stroke:#181818;stroke-width:0.5;" width="15" x="559" y="286"/><rect fill="#F1F1F1" height="2" style="stroke:#181818;stroke-width:0.5;" width="4" x="557" y="288"/><rect fill="#F1F1F1" height="2" style="stroke:#181818;stroke-width:0.5;" width="4" x="557" y="292"/><text fill="#000000" font-family="sans-serif" font-size="20" font-style="italic" lengthAdjust="spacing" textLength="122" x="432" y="322.38">«component»</text><text fill="#000000" font-family="sans-serif" font-size="20" lengthAdjust="spacing" textLength="72" x="457" y="349.62">Routing</text></g><!--entity PERSISTENCE--><g id="elem_PERSISTENCE"><rect fill="#F1F1F1" height="84.4799" rx="2.5" ry="2.5" style="stroke:#181818;stroke-width:0.5;" width="162" x="220" y="281"/><rect fill="#F1F1F1" height="10" style="stroke:#181818;stroke-width:0.5;" width="15" x="362" y="286"/><rect fill="#F1F1F1" height="2" style="stroke:#181818;stroke-width:0.5;" width="4" x="360" y="288"/><rect fill="#F1F1F1" height="2" style="stroke:#181818;stroke-width:0.5;" width="4" x="360" y="292"/><text fill="#000000" font-family="sans-serif" font-size="20" font-style="italic" lengthAdjust="spacing" textLength="122" x="235" y="322.38">«component»</text><text fill="#000000" font-family="sans-serif" font-size="20" lengthAdjust="spacing" textLength="107" x="242.5" y="349.62">Persistence</text></g><!--entity DATA--><g id="elem_DATA"><rect fill="#F1F1F1" height="84.4799" rx="2.5" ry="2.5" style="stroke:#181818;stroke-width:0.5;" width="162" x="23" y="281"/><rect fill="#F1F1F1" height="10" style="stroke:#181818;stroke-width:0.5;" width="15" x="165" y="286"/><rect fill="#F1F1F1" height="2" style="stroke:#181818;stroke-width:0.5;" width="4" x="163" y="288"/><rect fill="#F1F1F1" height="2" style="stroke:#181818;stroke-width:0.5;" width="4" x="163" y="292"/><text fill="#000000" font-family="sans-serif" font-size="20" font-style="italic" lengthAdjust="spacing" textLength="122" x="38" y="322.38">«component»</text><text fill="#000000" font-family="sans-serif" font-size="20" lengthAdjust="spacing" textLength="107" x="45.5" y="349.62">Data Model</text></g><!--entity DTO--><g id="elem_DTO"><rect fill="#F1F1F1" height="84.4799" rx="2.5" ry="2.5" style="stroke:#181818;stroke-width:0.5;" width="162" x="614" y="567"/><rect fill="#F1F1F1" height="10" style="stroke:#181818;stroke-width:0.5;" width="15" x="756" y="572"/><rect fill="#F1F1F1" height="2" style="stroke:#181818;stroke-width:0.5;" width="4" x="754" y="574"/><rect fill="#F1F1F1" height="2" style="stroke:#181818;stroke-width:0.5;" width="4" x="754" y="578"/><text fill="#000000" font-family="sans-serif" font-size="20" font-style="italic" lengthAdjust="spacing" textLength="122" x="629" y="608.38">«component»</text><text fill="#000000" font-family="sans-serif" font-size="20" lengthAdjust="spacing" textLength="42" x="669" y="635.62">DTO</text></g><!--entity CTRL--><g id="elem_CTRL"><rect fill="#F1F1F1" height="84.4799" rx="2.5" ry="2.5" style="stroke:#181818;stroke-width:0.5;" width="162" x="417" y="567"/><rect fill="#F1F1F1" height="10" style="stroke:#181818;stroke-width:0.5;" width="15" x="559" y="572"/><rect fill="#F1F1F1" height="2" style="stroke:#181818;stroke-width:0.5;" width="4" x="557" y="574"/><rect fill="#F1F1F1" height="2" style="stroke:#181818;stroke-width:0.5;" width="4" x="557" y="578"/><text fill="#000000" font-family="sans-serif" font-size="20" font-style="italic" lengthAdjust="spacing" textLength="122" x="432" y="608.38">«component»</text><text fill="#000000" font-family="sans-serif" font-size="20" lengthAdjust="spacing" textLength="93" x="446.5" y="635.62">Controller</text></g><!--entity REPO--><g id="elem_REPO"><rect fill="#F1F1F1" height="84.4799" rx="2.5" ry="2.5" style="stroke:#181818;stroke-width:0.5;" width="162" x="220" y="567"/><rect fill="#F1F1F1" height="10" style="stroke:#181818;stroke-width:0.5;" width="15" x="362" y="572"/><rect fill="#F1F1F1" height="2" style="stroke:#181818;stroke-width:0.5;" width="4" x="360" y="574"/><rect fill="#F1F1F1" height="2" style="stroke:#181818;stroke-width:0.5;" width="4" x="360" y="578"/><text fill="#000000" font-family="sans-serif" font-size="20" font-style="italic" lengthAdjust="spacing" textLength="122" x="235" y="608.38">«component»</text><text fill="#000000" font-family="sans-serif" font-size="20" lengthAdjust="spacing" textLength="99" x="246.5" y="635.62">Repository</text></g><!--entity SRV--><g id="elem_SRV"><rect fill="#F1F1F1" height="84.4799" rx="2.5" ry="2.5" style="stroke:#181818;stroke-width:0.5;" width="215" x="334.5" y="853"/><rect fill="#F1F1F1" height="10" style="stroke:#181818;stroke-width:0.5;" width="15" x="529.5" y="858"/><rect fill="#F1F1F1" height="2" style="stroke:#181818;stroke-width:0.5;" width="4" x="527.5" y="860"/><rect fill="#F1F1F1" height="2" style="stroke:#181818;stroke-width:0.5;" width="4" x="527.5" y="864"/><text fill="#000000" font-family="sans-serif" font-size="20" font-style="italic" lengthAdjust="spacing" textLength="122" x="376" y="894.38">«component»</text><text fill="#000000" font-family="sans-serif" font-size="20" lengthAdjust="spacing" textLength="175" x="349.5" y="921.62">Application Service</text></g><!--entity MODEL--><g id="elem_MODEL"><rect fill="#F1F1F1" height="84.4799" rx="2.5" ry="2.5" style="stroke:#181818;stroke-width:0.5;" width="227" x="228.5" y="1139"/><rect fill="#F1F1F1" height="10" style="stroke:#181818;stroke-width:0.5;" width="15" x="435.5" y="1144"/><rect fill="#F1F1F1" height="2" style="stroke:#181818;stroke-width:0.5;" width="4" x="433.5" y="1146"/><rect fill="#F1F1F1" height="2" style="stroke:#181818;stroke-width:0.5;" width="4" x="433.5" y="1150"/><text fill="#000000" font-family="sans-serif" font-size="20" font-style="italic" lengthAdjust="spacing" textLength="122" x="276" y="1180.38">«component»</text><text fill="#000000" font-family="sans-serif" font-size="20" lengthAdjust="spacing" textLength="187" x="243.5" y="1207.62">Domain Model DDD</text></g><!--entity API--><g id="elem_API"><ellipse cx="498" cy="14" fill="#F1F1F1" rx="8" ry="8" style="stroke:#181818;stroke-width:0.5;"/><text fill="#000000" font-family="sans-serif" font-size="20" lengthAdjust="spacing" textLength="70" x="463" y="52.38">MD API</text></g><!--link API to P1--><g id="link_API_P1"><path d="M498,22.97 C498,45.09 498,106.79 498,125.53 " fill="none" id="API-P1" style="stroke:#181818;stroke-width:1.0;"/></g><!--link ROUTE to P1--><g id="link_ROUTE_P1"><path d="M498,280.74 C498,233.22 498,159.03 498,138.45 " fill="none" id="ROUTE-P1" style="stroke:#181818;stroke-width:1.0;"/></g><!--link PERSISTENCE to P2--><g id="link_PERSISTENCE_P2"><path d="M333.62,280.59 C351.5,259.98 375.06,235.92 400,219 C472.67,169.7 577.98,141.23 604.67,134.54 " fill="none" id="PERSISTENCE-P2" style="stroke:#181818;stroke-width:1.0;"/></g><!--link ROUTE to CTRL_API--><g id="link_ROUTE_CTRL_API"><path d="M498,365.25 C498,391.45 498,424.15 498,444.56 " fill="none" id="ROUTE-to-CTRL_API" style="stroke:#181818;stroke-width:1.0;"/><path d="M506.4572,451.4118 A9,9 0 0 0 489.5428 451.4118" fill="none" style="stroke:#181818;stroke-width:1.5;"/></g><!--link CTRL_API to CTRL--><g id="link_CTRL_API_CTRL"><path d="M498,473.63 C498,490.86 498,533.79 498,566.53 " fill="none" id="CTRL_API-CTRL" style="stroke:#181818;stroke-width:1.0;"/></g><!--link PERSISTENCE to PERSISTENCE_API--><g id="link_PERSISTENCE_PERSISTENCE_API"><path d="M301,365.25 C301,397.19 301,438.79 301,456.01 " fill="none" id="PERSISTENCE-PERSISTENCE_API" style="stroke:#181818;stroke-width:1.0;"/></g><!--reverse link PERSISTENCE_API to REPO--><g id="link_PERSISTENCE_API_REPO"><path d="M301,484.91 C301,505.64 301,539.54 301,566.53 " fill="none" id="PERSISTENCE_API-backto-REPO" style="stroke:#181818;stroke-width:1.0;"/><path d="M292.5428,478.2282 A9,9 0 0 0 309.4572 478.2282" fill="none" style="stroke:#181818;stroke-width:1.5;"/></g><!--link PERSISTENCE to DATA_API--><g id="link_PERSISTENCE_DATA_API"><path d="M247.83,365.36 C237.35,373.31 226.39,381.49 216,389 C184.28,411.92 146.41,437.32 124.39,451.9 " fill="none" id="PERSISTENCE-to-DATA_API" style="stroke:#181818;stroke-width:1.0;"/><path d="M123.4513,462.6581 A9,9 0 0 0 114.1246 448.5473" fill="none" style="stroke:#181818;stroke-width:1.5;"/></g><!--reverse link DATA_API to REPO--><g id="link_DATA_API_REPO"><path d="M123.93,479.05 C150.95,498.73 203.31,536.86 244.11,566.57 " fill="none" id="DATA_API-backto-REPO" style="stroke:#181818;stroke-width:1.0;"/><path d="M113.6215,482.0091 A9,9 0 0 0 123.5759 468.334" fill="none" style="stroke:#181818;stroke-width:1.5;"/></g><!--link DATA to DATA_API--><g id="link_DATA_DATA_API"><path d="M104.59,365.25 C104.96,391.45 105.43,424.15 105.72,444.56 " fill="none" id="DATA-to-DATA_API" style="stroke:#181818;stroke-width:1.0;"/><path d="M114.2724,451.2913 A9,9 0 0 0 97.3597 451.5329" fill="none" style="stroke:#181818;stroke-width:1.5;"/></g><!--link CTRL to SRV_API--><g id="link_CTRL_SRV_API"><path d="M498,651.25 C498,677.45 498,710.15 498,730.56 " fill="none" id="CTRL-to-SRV_API" style="stroke:#181818;stroke-width:1.0;"/><path d="M506.4572,737.4118 A9,9 0 0 0 489.5428 737.4118" fill="none" style="stroke:#181818;stroke-width:1.5;"/></g><!--reverse link SRV_API to SRV--><g id="link_SRV_API_SRV"><path d="M490.78,770.32 C482.62,790.99 469.1,825.29 458.36,852.53 " fill="none" id="SRV_API-backto-SRV" style="stroke:#181818;stroke-width:1.0;"/><path d="M485.4333,760.7977 A9,9 0 0 0 501.1661 767.0086" fill="none" style="stroke:#181818;stroke-width:1.5;"/></g><!--reverse link DTO_API to SRV--><g id="link_DTO_API_SRV"><path d="M646.62,763.7 C616.39,782.96 554.73,822.21 506.97,852.63 " fill="none" id="DTO_API-backto-SRV" style="stroke:#181818;stroke-width:1.0;"/><path d="M647.839,752.9023 A9,9 0 0 0 656.9293 767.1664" fill="none" style="stroke:#181818;stroke-width:1.5;"/></g><!--link CTRL to DTO_API--><g id="link_CTRL_DTO_API"><path d="M547.2,651.25 C581.03,679.6 623.94,715.58 647.51,735.34 " fill="none" id="CTRL-to-DTO_API" style="stroke:#181818;stroke-width:1.0;"/><path d="M657.9927,733.0908 A9,9 0 0 0 647.1287 746.0551" fill="none" style="stroke:#181818;stroke-width:1.5;"/></g><!--link DTO to DTO_API--><g id="link_DTO_DTO_API"><path d="M686.16,651.25 C680.52,677.57 673.47,710.47 669.1,730.85 " fill="none" id="DTO-to-DTO_API" style="stroke:#181818;stroke-width:1.0;"/><path d="M675.9431,739.2824 A9,9 0 0 0 659.4002 735.7565" fill="none" style="stroke:#181818;stroke-width:1.5;"/></g><!--link REPO to REPO_API--><g id="link_REPO_REPO_API"><path d="M308.95,651.25 C315.11,683.19 323.14,724.79 326.46,742.01 " fill="none" id="REPO-REPO_API" style="stroke:#181818;stroke-width:1.0;"/></g><!--reverse link REPO_API to SRV--><g id="link_REPO_API_SRV"><path d="M341.33,768.61 C357.75,789.06 386.22,824.52 408.71,852.53 " fill="none" id="REPO_API-backto-SRV" style="stroke:#181818;stroke-width:1.0;"/><path d="M330.4092,768.5031 A9,9 0 0 0 343.6031 757.9191" fill="none" style="stroke:#181818;stroke-width:1.5;"/></g><!--link SRV to MODEL_API--><g id="link_SRV_MODEL_API"><path d="M412.54,937.25 C393.11,964.45 368.67,998.66 354.26,1018.84 " fill="none" id="SRV-to-MODEL_API" style="stroke:#181818;stroke-width:1.0;"/><path d="M357.2643,1029.1793 A9,9 0 0 0 343.4874 1019.3663" fill="none" style="stroke:#181818;stroke-width:1.5;"/></g><!--link REPO to MODEL_API--><g id="link_REPO_MODEL_API"><path d="M280.6,651.2 C272.82,669.11 264.89,690.62 261,711 C238.4,829.45 305.57,969.26 331.9,1018.1 " fill="none" id="REPO-to-MODEL_API" style="stroke:#181818;stroke-width:1.0;"/><path d="M342.5597,1019.9308 A9,9 0 0 0 327.7477 1028.098" fill="none" style="stroke:#181818;stroke-width:1.5;"/></g><!--link MODEL_API to MODEL--><g id="link_MODEL_API_MODEL"><path d="M342,1045.63 C342,1062.86 342,1105.79 342,1138.53 " fill="none" id="MODEL_API-MODEL" style="stroke:#181818;stroke-width:1.0;"/></g><!--SRC=[ZLHDYzim5BpxLpnIAEd1a8OUzh0ikB43WNKJRBVNejhA8c9RHfAtf2N_lKzIR2cEksmkYPvctjTe8a-ixOWWJStB4wsWeaVIrshBMvMpFnJMgo1Gl0F5uHTNYZTGCK5BnNWR1AnLL1n9IM6HnX0TTWiWKdy7GScRZhUqLUOg9IrveGqU3IADKtXy725FJtYIPwbe0ylDbqzu_Xi0T5meri823EVmsGiTg90CyIsM7ieUrW4YTgwb3SuWU5rJCM8sHVRyK_Tt0uo98f3oYjOZC8wAo01rpYElAqoosEAQw6ykJX8-GYpOAtO1p-HCnG8-FAos-36D0tZJPxp7bbzCrcp_lKWcarl2PKhp9hJJ9Lc-oulas-R_2IwwMI-7cskSQOPxcP2AlKKN-rdmxUgYheESYbTMKccN5-MGPpzcbepv1W3-lWTajECZ8aiECn1F8yIa-pYPKVFkRI3KsvvLrOdgc555EZMLz65rBwbxMEEZUf-eUaJ951Td-nnmoBV579h4DTUi9DfryBMNhAKIwNrD9RQfcvnhqoTTDJ9bKPxtLKtqQZh199qhkfaj6lE6e4EjKd4SMxzhfTweYLLH5GX3xVB0kYIq9__TwyZQtI-TdOq4OT-5BZGbJbw0sRrcBATNCA4knpy3y5akQ7nrYxisXB712thfbdWV6UmmaeQ0zen_ljOFdJrSaY64nKqGGwD1XiPlOrOLipKl-Wy0]--></g></svg>