<?xml version="1.0" encoding="UTF-8" standalone="no"?><svg xmlns="http://www.w3.org/2000/svg" xmlns:xlink="http://www.w3.org/1999/xlink" contentStyleType="text/css" height="1269px" preserveAspectRatio="none" style="width:774px;height:1269px;background:#FFFFFF;" version="1.1" viewBox="0 0 774 1269" width="774px" zoomAndPan="magnify"><defs/><g><!--cluster MDD--><g id="cluster_MDD"><rect fill="none" height="1131" rx="2.5" ry="2.5" style="stroke:#181818;stroke-width:1.0;" width="761" x="7" y="132"/><rect fill="none" height="10" style="stroke:#181818;stroke-width:1.0;" width="15" x="748" y="137"/><rect fill="none" height="2" style="stroke:#181818;stroke-width:1.0;" width="4" x="746" y="139"/><rect fill="none" height="2" style="stroke:#181818;stroke-width:1.0;" width="4" x="746" y="143"/><text fill="#000000" font-family="sans-serif" font-size="20" font-style="italic" lengthAdjust="spacing" textLength="122" x="326.5" y="166.38">«component»</text><text fill="#000000" font-family="sans-serif" font-size="20" font-style="italic" lengthAdjust="spacing" textLength="122" x="326.5" y="193.62">«system (C4)»</text><text fill="#000000" font-family="sans-serif" font-size="20" font-weight="bold" lengthAdjust="spacing" textLength="115.625" x="329.6875" y="220.8599">MD Devices</text></g><!--cluster Frameworks & Drivers Layer--><g id="cluster_Frameworks &amp; Drivers Layer"><path d="M206.5,235 L484.875,235 A3.75,3.75 0 0 1 487.375,237.5 L494.375,268.24 L592.5,268.24 A2.5,2.5 0 0 1 595,270.74 L595,378.5 A2.5,2.5 0 0 1 592.5,381 L206.5,381 A2.5,2.5 0 0 1 204,378.5 L204,237.5 A2.5,2.5 0 0 1 206.5,235 " fill="#80FFFF" style="stroke:#000000;stroke-width:1.5;"/><line style="stroke:#000000;stroke-width:1.5;" x1="204" x2="494.375" y1="268.24" y2="268.24"/><text fill="#000000" font-family="sans-serif" font-size="20" font-weight="bold" lengthAdjust="spacing" textLength="277.375" x="208" y="258.38">Frameworks &amp; Drivers Layer</text></g><!--cluster Interface Adapters Layer--><g id="cluster_Interface Adapters Layer"><path d="M182.5,521 L425.25,521 A3.75,3.75 0 0 1 427.75,523.5 L434.75,554.24 L568.5,554.24 A2.5,2.5 0 0 1 571,556.74 L571,664.5 A2.5,2.5 0 0 1 568.5,667 L182.5,667 A2.5,2.5 0 0 1 180,664.5 L180,523.5 A2.5,2.5 0 0 1 182.5,521 " fill="#80FF80" style="stroke:#000000;stroke-width:1.5;"/><line style="stroke:#000000;stroke-width:1.5;" x1="180" x2="434.75" y1="554.24" y2="554.24"/><text fill="#000000" font-family="sans-serif" font-size="20" font-weight="bold" lengthAdjust="spacing" textLength="241.75" x="184" y="544.38">Interface Adapters Layer</text></g><!--cluster Application Business Rules--><g id="cluster_Application Business Rules"><path d="M281.5,807 L544.5,807 A3.75,3.75 0 0 1 547,809.5 L554,840.24 L554.5,840.24 A2.5,2.5 0 0 1 557,842.74 L557,950.5 A2.5,2.5 0 0 1 554.5,953 L281.5,953 A2.5,2.5 0 0 1 279,950.5 L279,809.5 A2.5,2.5 0 0 1 281.5,807 " fill="#FF8080" style="stroke:#000000;stroke-width:1.5;"/><line style="stroke:#000000;stroke-width:1.5;" x1="279" x2="554" y1="840.24" y2="840.24"/><text fill="#000000" font-family="sans-serif" font-size="20" font-weight="bold" lengthAdjust="spacing" textLength="262" x="283" y="830.38">Application Business Rules</text></g><!--cluster Enterprise Business Rules--><g id="cluster_Enterprise Business Rules"><path d="M186.5,1093 L439.875,1093 A3.75,3.75 0 0 1 442.375,1095.5 L449.375,1126.24 L449.5,1126.24 A2.5,2.5 0 0 1 452,1128.74 L452,1236.5 A2.5,2.5 0 0 1 449.5,1239 L186.5,1239 A2.5,2.5 0 0 1 184,1236.5 L184,1095.5 A2.5,2.5 0 0 1 186.5,1093 " fill="#FFC080" style="stroke:#000000;stroke-width:1.5;"/><line style="stroke:#000000;stroke-width:1.5;" x1="184" x2="449.375" y1="1126.24" y2="1126.24"/><text fill="#000000" font-family="sans-serif" font-size="20" font-weight="bold" lengthAdjust="spacing" textLength="252.375" x="188" y="1116.38">Enterprise Business Rules</text></g><text fill="#000000" font-family="sans-serif" font-size="20" lengthAdjust="spacing" textLength="5" x="495.5" y="108.14"> </text><rect fill="#F1F1F1" height="12" style="stroke:#181818;stroke-width:1.5;" width="12" x="492" y="126"/><text fill="#000000" font-family="sans-serif" font-size="20" lengthAdjust="spacing" textLength="144" x="538.5" y="108.14">Persistence API</text><rect fill="#F1F1F1" height="12" style="stroke:#181818;stroke-width:1.5;" width="12" x="604.5" y="126"/><!--entity CTRL_API--><g id="elem_CTRL_API"><ellipse cx="493" cy="465" fill="#F1F1F1" rx="8" ry="8" style="stroke:#181818;stroke-width:0.5;"/><text fill="#000000" font-family="sans-serif" font-size="20" lengthAdjust="spacing" textLength="130" x="428" y="503.38">Controller API</text></g><!--entity DATA_API--><g id="elem_DATA_API"><ellipse cx="106" cy="465" fill="#F1F1F1" rx="8" ry="8" style="stroke:#181818;stroke-width:0.5;"/><text fill="#000000" font-family="sans-serif" font-size="20" lengthAdjust="spacing" textLength="144" x="34" y="503.38">Data Model API</text></g><!--entity SRV_API--><g id="elem_SRV_API"><ellipse cx="474" cy="751" fill="#F1F1F1" rx="8" ry="8" style="stroke:#181818;stroke-width:0.5;"/><text fill="#000000" font-family="sans-serif" font-size="20" lengthAdjust="spacing" textLength="155" x="396.5" y="789.38">App Services API</text></g><!--entity DTO_API--><g id="elem_DTO_API"><ellipse cx="641" cy="751" fill="#F1F1F1" rx="8" ry="8" style="stroke:#181818;stroke-width:0.5;"/><text fill="#000000" font-family="sans-serif" font-size="20" lengthAdjust="spacing" textLength="79" x="601.5" y="789.38">DTO API</text></g><!--entity REPO_API--><g id="elem_REPO_API"><ellipse cx="304" cy="751" fill="#F1F1F1" rx="8" ry="8" style="stroke:#181818;stroke-width:0.5;"/><text fill="#000000" font-family="sans-serif" font-size="20" lengthAdjust="spacing" textLength="84" x="262" y="789.38">Repo API</text></g><!--entity MODEL_API--><g id="elem_MODEL_API"><ellipse cx="318" cy="1037" fill="#F1F1F1" rx="8" ry="8" style="stroke:#181818;stroke-width:0.5;"/><text fill="#000000" font-family="sans-serif" font-size="20" lengthAdjust="spacing" textLength="95" x="270.5" y="1075.38">Model API</text></g><!--entity PERSISTENCE_API--><g id="elem_PERSISTENCE_API"><ellipse cx="301" cy="465" fill="#F1F1F1" rx="8" ry="8" style="stroke:#181818;stroke-width:0.5;"/><text fill="#000000" font-family="sans-serif" font-size="20" lengthAdjust="spacing" textLength="144" x="229" y="503.38">Persistence API</text></g><!--entity ROUTE--><g id="elem_ROUTE"><rect fill="#F1F1F1" height="84.4799" rx="2.5" ry="2.5" style="stroke:#181818;stroke-width:0.5;" width="162" x="417" y="281"/><rect fill="#F1F1F1" height="10" style="stroke:#181818;stroke-width:0.5;" width="15" x="559" y="286"/><rect fill="#F1F1F1" height="2" style="stroke:#181818;stroke-width:0.5;" width="4" x="557" y="288"/><rect fill="#F1F1F1" height="2" style="stroke:#181818;stroke-width:0.5;" width="4" x="557" y="292"/><text fill="#000000" font-family="sans-serif" font-size="20" font-style="italic" lengthAdjust="spacing" textLength="122" x="432" y="322.38">«component»</text><text fill="#000000" font-family="sans-serif" font-size="20" lengthAdjust="spacing" textLength="72" x="457" y="349.62">Routing</text></g><!--entity PERSISTENCE--><g id="elem_PERSISTENCE"><rect fill="#F1F1F1" height="84.4799" rx="2.5" ry="2.5" style="stroke:#181818;stroke-width:0.5;" width="162" x="220" y="281"/><rect fill="#F1F1F1" height="10" style="stroke:#181818;stroke-width:0.5;" width="15" x="362" y="286"/><rect fill="#F1F1F1" height="2" style="stroke:#181818;stroke-width:0.5;" width="4" x="360" y="288"/><rect fill="#F1F1F1" height="2" style="stroke:#181818;stroke-width:0.5;" width="4" x="360" y="292"/><text fill="#000000" font-family="sans-serif" font-size="20" font-style="italic" lengthAdjust="spacing" textLength="122" x="235" y="322.38">«component»</text><text fill="#000000" font-family="sans-serif" font-size="20" lengthAdjust="spacing" textLength="107" x="242.5" y="349.62">Persistence</text></g><!--entity DATA--><g id="elem_DATA"><rect fill="#F1F1F1" height="84.4799" rx="2.5" ry="2.5" style="stroke:#181818;stroke-width:0.5;" width="162" x="23" y="281"/><rect fill="#F1F1F1" height="10" style="stroke:#181818;stroke-width:0.5;" width="15" x="165" y="286"/><rect fill="#F1F1F1" height="2" style="stroke:#181818;stroke-width:0.5;" width="4" x="163" y="288"/><rect fill="#F1F1F1" height="2" style="stroke:#181818;stroke-width:0.5;" width="4" x="163" y="292"/><text fill="#000000" font-family="sans-serif" font-size="20" font-style="italic" lengthAdjust="spacing" textLength="122" x="38" y="322.38">«component»</text><text fill="#000000" font-family="sans-serif" font-size="20" lengthAdjust="spacing" textLength="107" x="45.5" y="349.62">Data Model</text></g><!--entity DTO--><g id="elem_DTO"><rect fill="#F1F1F1" height="84.4799" rx="2.5" ry="2.5" style="stroke:#181818;stroke-width:0.5;" width="162" x="590" y="567"/><rect fill="#F1F1F1" height="10" style="stroke:#181818;stroke-width:0.5;" width="15" x="732" y="572"/><rect fill="#F1F1F1" height="2" style="stroke:#181818;stroke-width:0.5;" width="4" x="730" y="574"/><rect fill="#F1F1F1" height="2" style="stroke:#181818;stroke-width:0.5;" width="4" x="730" y="578"/><text fill="#000000" font-family="sans-serif" font-size="20" font-style="italic" lengthAdjust="spacing" textLength="122" x="605" y="608.38">«component»</text><text fill="#000000" font-family="sans-serif" font-size="20" lengthAdjust="spacing" textLength="42" x="645" y="635.62">DTO</text></g><!--entity CTRL--><g id="elem_CTRL"><rect fill="#F1F1F1" height="84.4799" rx="2.5" ry="2.5" style="stroke:#181818;stroke-width:0.5;" width="162" x="393" y="567"/><rect fill="#F1F1F1" height="10" style="stroke:#181818;stroke-width:0.5;" width="15" x="535" y="572"/><rect fill="#F1F1F1" height="2" style="stroke:#181818;stroke-width:0.5;" width="4" x="533" y="574"/><rect fill="#F1F1F1" height="2" style="stroke:#181818;stroke-width:0.5;" width="4" x="533" y="578"/><text fill="#000000" font-family="sans-serif" font-size="20" font-style="italic" lengthAdjust="spacing" textLength="122" x="408" y="608.38">«component»</text><text fill="#000000" font-family="sans-serif" font-size="20" lengthAdjust="spacing" textLength="93" x="422.5" y="635.62">Controller</text></g><!--entity REPO--><g id="elem_REPO"><rect fill="#F1F1F1" height="84.4799" rx="2.5" ry="2.5" style="stroke:#181818;stroke-width:0.5;" width="162" x="196" y="567"/><rect fill="#F1F1F1" height="10" style="stroke:#181818;stroke-width:0.5;" width="15" x="338" y="572"/><rect fill="#F1F1F1" height="2" style="stroke:#181818;stroke-width:0.5;" width="4" x="336" y="574"/><rect fill="#F1F1F1" height="2" style="stroke:#181818;stroke-width:0.5;" width="4" x="336" y="578"/><text fill="#000000" font-family="sans-serif" font-size="20" font-style="italic" lengthAdjust="spacing" textLength="122" x="211" y="608.38">«component»</text><text fill="#000000" font-family="sans-serif" font-size="20" lengthAdjust="spacing" textLength="99" x="222.5" y="635.62">Repository</text></g><!--entity SRV--><g id="elem_SRV"><rect fill="#F1F1F1" height="84.4799" rx="2.5" ry="2.5" style="stroke:#181818;stroke-width:0.5;" width="215" x="310.5" y="853"/><rect fill="#F1F1F1" height="10" style="stroke:#181818;stroke-width:0.5;" width="15" x="505.5" y="858"/><rect fill="#F1F1F1" height="2" style="stroke:#181818;stroke-width:0.5;" width="4" x="503.5" y="860"/><rect fill="#F1F1F1" height="2" style="stroke:#181818;stroke-width:0.5;" width="4" x="503.5" y="864"/><text fill="#000000" font-family="sans-serif" font-size="20" font-style="italic" lengthAdjust="spacing" textLength="122" x="352" y="894.38">«component»</text><text fill="#000000" font-family="sans-serif" font-size="20" lengthAdjust="spacing" textLength="175" x="325.5" y="921.62">Application Service</text></g><!--entity MODEL--><g id="elem_MODEL"><rect fill="#F1F1F1" height="84.4799" rx="2.5" ry="2.5" style="stroke:#181818;stroke-width:0.5;" width="227" x="204.5" y="1139"/><rect fill="#F1F1F1" height="10" style="stroke:#181818;stroke-width:0.5;" width="15" x="411.5" y="1144"/><rect fill="#F1F1F1" height="2" style="stroke:#181818;stroke-width:0.5;" width="4" x="409.5" y="1146"/><rect fill="#F1F1F1" height="2" style="stroke:#181818;stroke-width:0.5;" width="4" x="409.5" y="1150"/><text fill="#000000" font-family="sans-serif" font-size="20" font-style="italic" lengthAdjust="spacing" textLength="122" x="252" y="1180.38">«component»</text><text fill="#000000" font-family="sans-serif" font-size="20" lengthAdjust="spacing" textLength="187" x="219.5" y="1207.62">Domain Model DDD</text></g><!--entity API--><g id="elem_API"><ellipse cx="498" cy="14" fill="#F1F1F1" rx="8" ry="8" style="stroke:#181818;stroke-width:0.5;"/><text fill="#000000" font-family="sans-serif" font-size="20" lengthAdjust="spacing" textLength="70" x="463" y="52.38">MD API</text></g><!--link API to P1--><g id="link_API_P1"><path d="M498,22.97 C498,45.09 498,106.79 498,125.53 " fill="none" id="API-P1" style="stroke:#181818;stroke-width:1.0;"/></g><!--link ROUTE to P1--><g id="link_ROUTE_P1"><path d="M498,280.74 C498,233.22 498,159.03 498,138.45 " fill="none" id="ROUTE-P1" style="stroke:#181818;stroke-width:1.0;"/></g><!--link PERSISTENCE to P2--><g id="link_PERSISTENCE_P2"><path d="M333.62,280.59 C351.5,259.98 375.06,235.92 400,219 C472.67,169.7 577.98,141.23 604.67,134.54 " fill="none" id="PERSISTENCE-P2" style="stroke:#181818;stroke-width:1.0;"/></g><!--link ROUTE to CTRL_API--><g id="link_ROUTE_CTRL_API"><path d="M496.53,365.25 C495.59,391.45 494.42,424.15 493.69,444.56 " fill="none" id="ROUTE-to-CTRL_API" style="stroke:#181818;stroke-width:1.0;"/><path d="M501.9019,451.7261 A9,9 0 0 0 484.9982 451.1215" fill="none" style="stroke:#181818;stroke-width:1.5;"/></g><!--link CTRL_API to CTRL--><g id="link_CTRL_API_CTRL"><path d="M491.98,473.63 C489.67,490.86 483.93,533.79 479.55,566.53 " fill="none" id="CTRL_API-CTRL" style="stroke:#181818;stroke-width:1.0;"/></g><!--link PERSISTENCE to PERSISTENCE_API--><g id="link_PERSISTENCE_PERSISTENCE_API"><path d="M301,365.25 C301,397.19 301,438.79 301,456.01 " fill="none" id="PERSISTENCE-PERSISTENCE_API" style="stroke:#181818;stroke-width:1.0;"/></g><!--reverse link PERSISTENCE_API to REPO--><g id="link_PERSISTENCE_API_REPO"><path d="M297.8,484.91 C294.3,505.64 288.57,539.54 284.01,566.53 " fill="none" id="PERSISTENCE_API-backto-REPO" style="stroke:#181818;stroke-width:1.0;"/><path d="M290.6072,476.751 A9,9 0 0 0 307.2836 479.5787" fill="none" style="stroke:#181818;stroke-width:1.5;"/></g><!--link PERSISTENCE to DATA_API--><g id="link_PERSISTENCE_DATA_API"><path d="M247.83,365.36 C237.35,373.31 226.39,381.49 216,389 C184.28,411.92 146.41,437.32 124.39,451.9 " fill="none" id="PERSISTENCE-to-DATA_API" style="stroke:#181818;stroke-width:1.0;"/><path d="M123.4513,462.6581 A9,9 0 0 0 114.1246 448.5473" fill="none" style="stroke:#181818;stroke-width:1.5;"/></g><!--reverse link DATA_API to REPO--><g id="link_DATA_API_REPO"><path d="M123.45,480.49 C147.59,500.54 192.15,537.54 227.07,566.54 " fill="none" id="DATA_API-backto-REPO" style="stroke:#181818;stroke-width:1.0;"/><path d="M112.8507,482.6749 A9,9 0 0 0 123.6481 469.6551" fill="none" style="stroke:#181818;stroke-width:1.5;"/></g><!--link DATA to DATA_API--><g id="link_DATA_DATA_API"><path d="M104.59,365.25 C104.96,391.45 105.43,424.15 105.72,444.56 " fill="none" id="DATA-to-DATA_API" style="stroke:#181818;stroke-width:1.0;"/><path d="M114.2724,451.2913 A9,9 0 0 0 97.3597 451.5329" fill="none" style="stroke:#181818;stroke-width:1.5;"/></g><!--link CTRL to SRV_API--><g id="link_CTRL_SRV_API"><path d="M474,651.25 C474,677.45 474,710.15 474,730.56 " fill="none" id="CTRL-to-SRV_API" style="stroke:#181818;stroke-width:1.0;"/><path d="M482.4572,737.4118 A9,9 0 0 0 465.5428 737.4118" fill="none" style="stroke:#181818;stroke-width:1.5;"/></g><!--reverse link SRV_API to SRV--><g id="link_SRV_API_SRV"><path d="M466.78,770.32 C458.62,790.99 445.1,825.29 434.36,852.53 " fill="none" id="SRV_API-backto-SRV" style="stroke:#181818;stroke-width:1.0;"/><path d="M461.4333,760.7977 A9,9 0 0 0 477.1661 767.0086" fill="none" style="stroke:#181818;stroke-width:1.5;"/></g><!--reverse link DTO_API to SRV--><g id="link_DTO_API_SRV"><path d="M622.62,763.7 C592.39,782.96 530.73,822.21 482.97,852.63 " fill="none" id="DTO_API-backto-SRV" style="stroke:#181818;stroke-width:1.0;"/><path d="M623.839,752.9023 A9,9 0 0 0 632.9293 767.1664" fill="none" style="stroke:#181818;stroke-width:1.5;"/></g><!--link CTRL to DTO_API--><g id="link_CTRL_DTO_API"><path d="M523.2,651.25 C557.03,679.6 599.94,715.58 623.51,735.34 " fill="none" id="CTRL-to-DTO_API" style="stroke:#181818;stroke-width:1.0;"/><path d="M633.9927,733.0908 A9,9 0 0 0 623.1287 746.0551" fill="none" style="stroke:#181818;stroke-width:1.5;"/></g><!--link DTO to DTO_API--><g id="link_DTO_DTO_API"><path d="M662.16,651.25 C656.52,677.57 649.47,710.47 645.1,730.85 " fill="none" id="DTO-to-DTO_API" style="stroke:#181818;stroke-width:1.0;"/><path d="M651.9431,739.2824 A9,9 0 0 0 635.4002 735.7565" fill="none" style="stroke:#181818;stroke-width:1.5;"/></g><!--link REPO to REPO_API--><g id="link_REPO_REPO_API"><path d="M284.95,651.25 C291.11,683.19 299.14,724.79 302.46,742.01 " fill="none" id="REPO-REPO_API" style="stroke:#181818;stroke-width:1.0;"/></g><!--reverse link REPO_API to SRV--><g id="link_REPO_API_SRV"><path d="M317.33,768.61 C333.75,789.06 362.22,824.52 384.71,852.53 " fill="none" id="REPO_API-backto-SRV" style="stroke:#181818;stroke-width:1.0;"/><path d="M306.4092,768.5031 A9,9 0 0 0 319.6031 757.9191" fill="none" style="stroke:#181818;stroke-width:1.5;"/></g><!--link SRV to MODEL_API--><g id="link_SRV_MODEL_API"><path d="M388.54,937.25 C369.11,964.45 344.67,998.66 330.26,1018.84 " fill="none" id="SRV-to-MODEL_API" style="stroke:#181818;stroke-width:1.0;"/><path d="M333.2643,1029.1793 A9,9 0 0 0 319.4874 1019.3663" fill="none" style="stroke:#181818;stroke-width:1.5;"/></g><!--link REPO to MODEL_API--><g id="link_REPO_MODEL_API"><path d="M256.6,651.2 C248.82,669.11 240.89,690.62 237,711 C214.4,829.45 281.57,969.26 307.9,1018.1 " fill="none" id="REPO-to-MODEL_API" style="stroke:#181818;stroke-width:1.0;"/><path d="M318.5597,1019.9308 A9,9 0 0 0 303.7477 1028.098" fill="none" style="stroke:#181818;stroke-width:1.5;"/></g><!--link MODEL_API to MODEL--><g id="link_MODEL_API_MODEL"><path d="M318,1045.63 C318,1062.86 318,1105.79 318,1138.53 " fill="none" id="MODEL_API-MODEL" style="stroke:#181818;stroke-width:1.0;"/></g><!--SRC=[ZLHDYzim4BtxLmnPAEd1a8OUzh0ik9O3WKqJRBVNejfA4N4i8ybRqfB_tf4KMxRZBfiSWcRcpTUR5tNYTKCbFLUYEB4IIdQaRQKtejOP_yDWlGe2BHhG0duAhSKPIYvPeRceWu3NciaZBHWiTWIYmtO1L9dV82Z4kH4rgxLr4VRA2wQiUqS8F3tr_kTdVAcBqkmCo_ZpHtp_3G0Q8JMlOO7VA8F3fu7fmAJY65zZtQxcOHrWnDRt4-C0KbGLatrCdASlFqnpeq12DOMTA5db0h4QYVB81fgSHr6Lc6InmHsntqAU57m08lahTW4lzCBa0XuULnlysCO11gEdeiMMVzdowVvRdamcTu3h53QOq4sNfDasovElyVyJN4spWnn-Bfl2p3I3lKv0-Tv5v_lPuF7gegQ1Z4bBRR-yBFq-isJCrsyttzy7fAmHVKIQ76P2nXpjzYIPOVFkDipn-EqvLZsf7XcLjD5JIXzNzvJwm-gFwdsacX4Lrq9Ut3dWa6-JsJM9QwvuGOtau4khUCqKmjlAwEd1D3dNvX1quyYMHNhULpKngsaaLsokQ3nRb8WpHOKwfWWXJk-6gJTgObLa1SBGg3nmAWdTQtZtnhBs_gMNiwKWR9lGcwR0oGNOtHl4Skg22NJP_nd04EMDLbVZk5j3QEkqO9RkWFUMJWuzg3COpGpVj_gXbuTFqfcmk3MYgHT8r_ZOvbYnMnjO_m40]--></g></svg>