<?xml version="1.0" encoding="UTF-8" standalone="no"?><svg xmlns="http://www.w3.org/2000/svg" xmlns:xlink="http://www.w3.org/1999/xlink" contentStyleType="text/css" height="640px" preserveAspectRatio="none" style="width:1557px;height:640px;background:#FFFFFF;" version="1.1" viewBox="0 0 1557 640" width="1557px" zoomAndPan="magnify"><defs/><g><rect fill="#FFFFE0" height="628.0625" style="stroke:#181818;stroke-width:0.5;" width="195" x="1356" y="6"/><text fill="#000000" font-family="sans-serif" font-size="20" font-weight="bold" lengthAdjust="spacing" textLength="189" x="1359" y="24.5645">«container (C4)»</text><text fill="#000000" font-family="sans-serif" font-size="20" font-weight="bold" lengthAdjust="spacing" textLength="99" x="1359" y="47.8457">Planning</text><rect fill="#FFFFFF" height="394.0938" style="stroke:#181818;stroke-width:1.0;" width="10" x="288" y="157.4063"/><rect fill="#FFFFFF" height="319.5313" style="stroke:#181818;stroke-width:1.0;" width="10" x="529" y="194.6875"/><rect fill="#FFFFFF" height="244.9688" style="stroke:#181818;stroke-width:1.0;" width="10" x="770" y="231.9688"/><rect fill="#FFFFFF" height="37.2813" style="stroke:#181818;stroke-width:1.0;" width="10" x="1076" y="384.375"/><rect fill="#FFFFFF" height="37.2813" style="stroke:#181818;stroke-width:1.0;" width="10" x="1448.5" y="269.25"/><rect fill="none" height="119.125" style="stroke:#000000;stroke-width:1.5;" width="642" x="718" y="321.5313"/><line style="stroke:#181818;stroke-width:0.5;stroke-dasharray:5.0,5.0;" x1="293" x2="293" y1="118.125" y2="569.5"/><line style="stroke:#181818;stroke-width:0.5;stroke-dasharray:5.0,5.0;" x1="534" x2="534" y1="118.125" y2="569.5"/><line style="stroke:#181818;stroke-width:0.5;stroke-dasharray:5.0,5.0;" x1="775" x2="775" y1="118.125" y2="569.5"/><line style="stroke:#181818;stroke-width:0.5;stroke-dasharray:5.0,5.0;" x1="886" x2="886" y1="118.125" y2="569.5"/><line style="stroke:#181818;stroke-width:0.5;stroke-dasharray:5.0,5.0;" x1="987" x2="987" y1="118.125" y2="569.5"/><line style="stroke:#181818;stroke-width:0.5;stroke-dasharray:5.0,5.0;" x1="1081" x2="1081" y1="118.125" y2="569.5"/><line style="stroke:#181818;stroke-width:0.5;stroke-dasharray:5.0,5.0;" x1="1278" x2="1278" y1="426.5156" y2="569.5"/><line style="stroke:#181818;stroke-width:0.5;stroke-dasharray:5.0,5.0;" x1="1453.5" x2="1453.5" y1="118.125" y2="569.5"/><rect fill="#E2E2F0" height="37.2813" rx="2.5" ry="2.5" style="stroke:#181818;stroke-width:0.5;" width="80" x="253" y="79.8438"/><text fill="#000000" font-family="sans-serif" font-size="20" lengthAdjust="spacing" textLength="66" x="260" y="105.4082">:Route</text><rect fill="#E2E2F0" height="37.2813" rx="2.5" ry="2.5" style="stroke:#181818;stroke-width:0.5;" width="80" x="253" y="568.5"/><text fill="#000000" font-family="sans-serif" font-size="20" lengthAdjust="spacing" textLength="66" x="260" y="594.0645">:Route</text><rect fill="#E2E2F0" height="37.2813" rx="2.5" ry="2.5" style="stroke:#181818;stroke-width:0.5;" width="120" x="474" y="79.8438"/><text fill="#000000" font-family="sans-serif" font-size="20" lengthAdjust="spacing" textLength="106" x="481" y="105.4082">:Controller</text><rect fill="#E2E2F0" height="37.2813" rx="2.5" ry="2.5" style="stroke:#181818;stroke-width:0.5;" width="120" x="474" y="568.5"/><text fill="#000000" font-family="sans-serif" font-size="20" lengthAdjust="spacing" textLength="106" x="481" y="594.0645">:Controller</text><rect fill="#E2E2F0" height="37.2813" rx="2.5" ry="2.5" style="stroke:#181818;stroke-width:0.5;" width="94" x="728" y="79.8438"/><text fill="#000000" font-family="sans-serif" font-size="20" lengthAdjust="spacing" textLength="80" x="735" y="105.4082">:Service</text><rect fill="#E2E2F0" height="37.2813" rx="2.5" ry="2.5" style="stroke:#181818;stroke-width:0.5;" width="94" x="728" y="568.5"/><text fill="#000000" font-family="sans-serif" font-size="20" lengthAdjust="spacing" textLength="80" x="735" y="594.0645">:Service</text><rect fill="#E2E2F0" height="37.2813" rx="2.5" ry="2.5" style="stroke:#181818;stroke-width:0.5;" width="109" x="832" y="79.8438"/><text fill="#000000" font-family="sans-serif" font-size="20" lengthAdjust="spacing" textLength="95" x="839" y="105.4082">task:Task</text><rect fill="#E2E2F0" height="37.2813" rx="2.5" ry="2.5" style="stroke:#181818;stroke-width:0.5;" width="109" x="832" y="568.5"/><text fill="#000000" font-family="sans-serif" font-size="20" lengthAdjust="spacing" textLength="95" x="839" y="594.0645">task:Task</text><rect fill="#E2E2F0" height="37.2813" rx="2.5" ry="2.5" style="stroke:#181818;stroke-width:0.5;" width="72" x="951" y="79.8438"/><text fill="#000000" font-family="sans-serif" font-size="20" lengthAdjust="spacing" textLength="58" x="958" y="105.4082">:Repo</text><rect fill="#E2E2F0" height="37.2813" rx="2.5" ry="2.5" style="stroke:#181818;stroke-width:0.5;" width="72" x="951" y="568.5"/><text fill="#000000" font-family="sans-serif" font-size="20" lengthAdjust="spacing" textLength="58" x="958" y="594.0645">:Repo</text><rect fill="#E2E2F0" height="37.2813" rx="2.5" ry="2.5" style="stroke:#181818;stroke-width:0.5;" width="96" x="1033" y="79.8438"/><text fill="#000000" font-family="sans-serif" font-size="20" lengthAdjust="spacing" textLength="82" x="1040" y="105.4082">:Mapper</text><rect fill="#E2E2F0" height="37.2813" rx="2.5" ry="2.5" style="stroke:#181818;stroke-width:0.5;" width="96" x="1033" y="568.5"/><text fill="#000000" font-family="sans-serif" font-size="20" lengthAdjust="spacing" textLength="82" x="1040" y="594.0645">:Mapper</text><rect fill="#E2E2F0" height="37.2813" rx="2.5" ry="2.5" style="stroke:#181818;stroke-width:0.5;" width="143" x="1207" y="568.5"/><text fill="#000000" font-family="sans-serif" font-size="20" lengthAdjust="spacing" textLength="129" x="1214" y="594.0645">dto:TaskDTO</text><rect fill="#E2E2F0" height="60.5625" rx="2.5" ry="2.5" style="stroke:#181818;stroke-width:0.5;" width="152" x="1377.5" y="56.5625"/><text fill="#000000" font-family="sans-serif" font-size="20" font-style="italic" lengthAdjust="spacing" textLength="138" x="1384.5" y="82.127">«component»</text><text fill="#000000" font-family="sans-serif" font-size="20" lengthAdjust="spacing" textLength="88" x="1409.5" y="105.4082">Planning</text><rect fill="#E2E2F0" height="60.5625" rx="2.5" ry="2.5" style="stroke:#181818;stroke-width:0.5;" width="152" x="1377.5" y="568.5"/><text fill="#000000" font-family="sans-serif" font-size="20" font-style="italic" lengthAdjust="spacing" textLength="138" x="1384.5" y="594.0645">«component»</text><text fill="#000000" font-family="sans-serif" font-size="20" lengthAdjust="spacing" textLength="88" x="1409.5" y="617.3457">Planning</text><rect fill="#FFFFFF" height="394.0938" style="stroke:#181818;stroke-width:1.0;" width="10" x="288" y="157.4063"/><rect fill="#FFFFFF" height="319.5313" style="stroke:#181818;stroke-width:1.0;" width="10" x="529" y="194.6875"/><rect fill="#FFFFFF" height="244.9688" style="stroke:#181818;stroke-width:1.0;" width="10" x="770" y="231.9688"/><rect fill="#FFFFFF" height="37.2813" style="stroke:#181818;stroke-width:1.0;" width="10" x="1076" y="384.375"/><rect fill="#FFFFFF" height="37.2813" style="stroke:#181818;stroke-width:1.0;" width="10" x="1448.5" y="269.25"/><ellipse cx="4.5" cy="156.6563" fill="none" rx="4" ry="4" style="stroke:#181818;stroke-width:1.5;"/><polygon fill="#181818" points="276,153.4063,286,157.4063,276,161.4063,280,157.4063" style="stroke:#181818;stroke-width:1.0;"/><line style="stroke:#181818;stroke-width:1.0;" x1="9" x2="282" y1="157.4063" y2="157.4063"/><text fill="#000000" font-family="sans-serif" font-size="20" font-weight="bold" lengthAdjust="spacing" textLength="14" x="12" y="150.6895">1</text><text fill="#000000" font-family="sans-serif" font-size="20" lengthAdjust="spacing" textLength="243" x="30" y="150.6895">GET /requests/sequence</text><polygon fill="#181818" points="517,190.6875,527,194.6875,517,198.6875,521,194.6875" style="stroke:#181818;stroke-width:1.0;"/><line style="stroke:#181818;stroke-width:1.0;" x1="298" x2="523" y1="194.6875" y2="194.6875"/><text fill="#000000" font-family="sans-serif" font-size="20" font-weight="bold" lengthAdjust="spacing" textLength="14" x="305" y="187.9707">2</text><text fill="#000000" font-family="sans-serif" font-size="20" lengthAdjust="spacing" textLength="194" x="323" y="187.9707">getTaskSequence()</text><polygon fill="#181818" points="758,227.9688,768,231.9688,758,235.9688,762,231.9688" style="stroke:#181818;stroke-width:1.0;"/><line style="stroke:#181818;stroke-width:1.0;" x1="539" x2="764" y1="231.9688" y2="231.9688"/><text fill="#000000" font-family="sans-serif" font-size="20" font-weight="bold" lengthAdjust="spacing" textLength="14" x="546" y="225.252">3</text><text fill="#000000" font-family="sans-serif" font-size="20" lengthAdjust="spacing" textLength="194" x="564" y="225.252">getTaskSequence()</text><polygon fill="#181818" points="1436.5,265.25,1446.5,269.25,1436.5,273.25,1440.5,269.25" style="stroke:#181818;stroke-width:1.0;"/><line style="stroke:#181818;stroke-width:1.0;" x1="780" x2="1442.5" y1="269.25" y2="269.25"/><text fill="#000000" font-family="sans-serif" font-size="20" font-weight="bold" lengthAdjust="spacing" textLength="14" x="787" y="262.5332">4</text><text fill="#000000" font-family="sans-serif" font-size="20" lengthAdjust="spacing" textLength="150" x="805" y="262.5332">GET /sequence</text><polygon fill="#181818" points="791,302.5313,781,306.5313,791,310.5313,787,306.5313" style="stroke:#181818;stroke-width:1.0;"/><line style="stroke:#181818;stroke-width:1.0;stroke-dasharray:2.0,2.0;" x1="785" x2="1452.5" y1="306.5313" y2="306.5313"/><text fill="#000000" font-family="sans-serif" font-size="20" font-weight="bold" lengthAdjust="spacing" textLength="14" x="797" y="299.8145">5</text><text fill="#000000" font-family="sans-serif" font-size="20" lengthAdjust="spacing" textLength="96" x="815" y="299.8145">sequence</text><path d="M718,321.5313 L812,321.5313 L812,336.8125 L802,346.8125 L718,346.8125 L718,321.5313 " fill="#EEEEEE" style="stroke:#000000;stroke-width:1.5;"/><rect fill="none" height="119.125" style="stroke:#000000;stroke-width:1.5;" width="642" x="718" y="321.5313"/><text fill="#000000" font-family="sans-serif" font-size="20" font-weight="bold" lengthAdjust="spacing" textLength="49" x="733" y="341.0957">loop</text><text fill="#000000" font-family="sans-serif" font-size="20" font-weight="bold" lengthAdjust="spacing" textLength="161" x="827" y="342.0957">[foreach task]</text><polygon fill="#181818" points="1064,380.375,1074,384.375,1064,388.375,1068,384.375" style="stroke:#181818;stroke-width:1.0;"/><line style="stroke:#181818;stroke-width:1.0;" x1="780" x2="1070" y1="384.375" y2="384.375"/><text fill="#000000" font-family="sans-serif" font-size="20" font-weight="bold" lengthAdjust="spacing" textLength="14" x="787" y="377.6582">6</text><text fill="#000000" font-family="sans-serif" font-size="20" lengthAdjust="spacing" textLength="113" x="805" y="377.6582">toDto(task)</text><polygon fill="#181818" points="1195,417.6563,1205,421.6563,1195,425.6563,1199,421.6563" style="stroke:#181818;stroke-width:1.0;"/><line style="stroke:#181818;stroke-width:1.0;" x1="1081" x2="1201" y1="421.6563" y2="421.6563"/><text fill="#000000" font-family="sans-serif" font-size="20" font-weight="bold" lengthAdjust="spacing" textLength="14" x="1088" y="414.9395">7</text><text fill="#000000" font-family="sans-serif" font-size="20" lengthAdjust="spacing" textLength="79" x="1106" y="414.9395">create()</text><rect fill="#E2E2F0" height="37.2813" rx="2.5" ry="2.5" style="stroke:#181818;stroke-width:0.5;" width="143" x="1207" y="392.375"/><text fill="#000000" font-family="sans-serif" font-size="20" lengthAdjust="spacing" textLength="129" x="1214" y="417.9395">dto:TaskDTO</text><polygon fill="#181818" points="550,472.9375,540,476.9375,550,480.9375,546,476.9375" style="stroke:#181818;stroke-width:1.0;"/><line style="stroke:#181818;stroke-width:1.0;stroke-dasharray:2.0,2.0;" x1="544" x2="774" y1="476.9375" y2="476.9375"/><text fill="#000000" font-family="sans-serif" font-size="20" font-weight="bold" lengthAdjust="spacing" textLength="14" x="556" y="470.2207">8</text><text fill="#000000" font-family="sans-serif" font-size="20" lengthAdjust="spacing" textLength="134" x="574" y="470.2207">sucess(tasks)</text><polygon fill="#181818" points="309,510.2188,299,514.2188,309,518.2188,305,514.2188" style="stroke:#181818;stroke-width:1.0;"/><line style="stroke:#181818;stroke-width:1.0;stroke-dasharray:2.0,2.0;" x1="303" x2="533" y1="514.2188" y2="514.2188"/><text fill="#000000" font-family="sans-serif" font-size="20" font-weight="bold" lengthAdjust="spacing" textLength="14" x="315" y="507.502">9</text><text fill="#000000" font-family="sans-serif" font-size="20" lengthAdjust="spacing" textLength="134" x="333" y="507.502">sucess(tasks)</text><polygon fill="#181818" points="11,547.5,1,551.5,11,555.5,7,551.5" style="stroke:#181818;stroke-width:1.0;"/><line style="stroke:#181818;stroke-width:1.0;stroke-dasharray:2.0,2.0;" x1="5" x2="292" y1="551.5" y2="551.5"/><text fill="#000000" font-family="sans-serif" font-size="20" font-weight="bold" lengthAdjust="spacing" textLength="28" x="17" y="544.7832">10</text><text fill="#000000" font-family="sans-serif" font-size="20" lengthAdjust="spacing" textLength="74" x="49" y="544.7832">200 OK</text><!--SRC=[VP51Qzj048Nl-oi6vM87J4peIHY5rdPAgOE5h0GAlMoaYRDOtb5tHsdfh- -ird6abFOYjFk-cNdxnX-CRRNJnuQg0zPGuvFk6huboplp6-5whdJ7PBlZ8peb99lAjDeo5DlxSWtQGv8Mr34c8tLP5fieBgMLewP1DoPsnKC4TkXUJFMk_jFzbysgrrdxGrhAPmmKwtnxceujZRMxZtcKxdJRlf-xAcDTpTItbNEYr2FzWcIngCIiDXOTJ9OVfbdstUQDjjROVGAYecLqMNQnCVjd_ePDGpyLmB1x73mgecDBLYgpJA6jGIOfTKEpx9HW2f_N9Lmv_D6XPt_bmu-jKEcApOjcZ9nI4PUwFjiKziZ1_-x4JwPl5O5GFIPu2Fg_j00gGBCiVtNpjucyHnQpMM3ESeq3e25guOcSt3r3M9ja4_ls6qc1QSKq2SfKf7EbY78CY92oZijBOIjfmy4cm618G2N4QFSj2jzLw7tVsK-7fiBJOWw3lFz9zx794y_azNmEswz39ExY3m00]--></g></svg>