<?xml version="1.0" encoding="UTF-8" standalone="no"?><svg xmlns="http://www.w3.org/2000/svg" xmlns:xlink="http://www.w3.org/1999/xlink" contentStyleType="text/css" height="711px" preserveAspectRatio="none" style="width:1391px;height:711px;background:#FFFFFF;" version="1.1" viewBox="0 0 1391 711" width="1391px" zoomAndPan="magnify"><defs/><g><rect fill="#FFFFE0" height="699.3195" style="stroke:#181818;stroke-width:0.5;" width="164.375" x="1221.5" y="6"/><text fill="#000000" font-family="sans-serif" font-size="20" font-weight="bold" lengthAdjust="spacing" textLength="158.375" x="1224.5" y="27.38">«container (C4)»</text><text fill="#000000" font-family="sans-serif" font-size="20" font-weight="bold" lengthAdjust="spacing" textLength="86" x="1224.5" y="54.62">Planning</text><rect fill="#FFFFFF" height="437.6397" style="stroke:#181818;stroke-width:1.0;" width="10" x="236.625" y="177.1999"/><rect fill="#FFFFFF" height="355.1598" style="stroke:#181818;stroke-width:1.0;" width="10" x="456.25" y="218.4398"/><rect fill="#FFFFFF" height="272.6798" style="stroke:#181818;stroke-width:1.0;" width="10" x="675.875" y="259.6798"/><rect fill="#FFFFFF" height="41.24" style="stroke:#181818;stroke-width:1.0;" width="10" x="960.875" y="431.8797"/><rect fill="#FFFFFF" height="41.24" style="stroke:#181818;stroke-width:1.0;" width="10" x="1298.6875" y="300.9198"/><rect fill="none" height="134.9599" style="stroke:#000000;stroke-width:1.5;" width="597.125" x="628.375" y="357.1598"/><line style="stroke:#181818;stroke-width:0.5;stroke-dasharray:5.0,5.0;" x1="241.125" x2="241.125" y1="133.9599" y2="632.8396"/><line style="stroke:#181818;stroke-width:0.5;stroke-dasharray:5.0,5.0;" x1="461.25" x2="461.25" y1="133.9599" y2="632.8396"/><line style="stroke:#181818;stroke-width:0.5;stroke-dasharray:5.0,5.0;" x1="680.375" x2="680.375" y1="133.9599" y2="632.8396"/><line style="stroke:#181818;stroke-width:0.5;stroke-dasharray:5.0,5.0;" x1="783.375" x2="783.375" y1="133.9599" y2="632.8396"/><line style="stroke:#181818;stroke-width:0.5;stroke-dasharray:5.0,5.0;" x1="877.375" x2="877.375" y1="133.9599" y2="632.8396"/><line style="stroke:#181818;stroke-width:0.5;stroke-dasharray:5.0,5.0;" x1="965.375" x2="965.375" y1="133.9599" y2="632.8396"/><line style="stroke:#181818;stroke-width:0.5;stroke-dasharray:5.0,5.0;" x1="1147.5" x2="1147.5" y1="475.9997" y2="632.8396"/><line style="stroke:#181818;stroke-width:0.5;stroke-dasharray:5.0,5.0;" x1="1303.6875" x2="1303.6875" y1="133.9599" y2="632.8396"/><rect fill="#E2E2F0" height="41.24" rx="2.5" ry="2.5" style="stroke:#181818;stroke-width:0.5;" width="73" x="205.125" y="91.7199"/><text fill="#000000" font-family="sans-serif" font-size="20" lengthAdjust="spacing" textLength="59" x="212.125" y="120.0999">:Route</text><rect fill="#E2E2F0" height="41.24" rx="2.5" ry="2.5" style="stroke:#181818;stroke-width:0.5;" width="73" x="205.125" y="631.8396"/><text fill="#000000" font-family="sans-serif" font-size="20" lengthAdjust="spacing" textLength="59" x="212.125" y="660.2196">:Route</text><rect fill="#E2E2F0" height="41.24" rx="2.5" ry="2.5" style="stroke:#181818;stroke-width:0.5;" width="112" x="405.25" y="91.7199"/><text fill="#000000" font-family="sans-serif" font-size="20" lengthAdjust="spacing" textLength="98" x="412.25" y="120.0999">:Controller</text><rect fill="#E2E2F0" height="41.24" rx="2.5" ry="2.5" style="stroke:#181818;stroke-width:0.5;" width="112" x="405.25" y="631.8396"/><text fill="#000000" font-family="sans-serif" font-size="20" lengthAdjust="spacing" textLength="98" x="412.25" y="660.2196">:Controller</text><rect fill="#E2E2F0" height="41.24" rx="2.5" ry="2.5" style="stroke:#181818;stroke-width:0.5;" width="85" x="638.375" y="91.7199"/><text fill="#000000" font-family="sans-serif" font-size="20" lengthAdjust="spacing" textLength="71" x="645.375" y="120.0999">:Service</text><rect fill="#E2E2F0" height="41.24" rx="2.5" ry="2.5" style="stroke:#181818;stroke-width:0.5;" width="85" x="638.375" y="631.8396"/><text fill="#000000" font-family="sans-serif" font-size="20" lengthAdjust="spacing" textLength="71" x="645.375" y="660.2196">:Service</text><rect fill="#E2E2F0" height="41.24" rx="2.5" ry="2.5" style="stroke:#181818;stroke-width:0.5;" width="101" x="733.375" y="91.7199"/><text fill="#000000" font-family="sans-serif" font-size="20" lengthAdjust="spacing" textLength="87" x="740.375" y="120.0999">task:Task</text><rect fill="#E2E2F0" height="41.24" rx="2.5" ry="2.5" style="stroke:#181818;stroke-width:0.5;" width="101" x="733.375" y="631.8396"/><text fill="#000000" font-family="sans-serif" font-size="20" lengthAdjust="spacing" textLength="87" x="740.375" y="660.2196">task:Task</text><rect fill="#E2E2F0" height="41.24" rx="2.5" ry="2.5" style="stroke:#181818;stroke-width:0.5;" width="66" x="844.375" y="91.7199"/><text fill="#000000" font-family="sans-serif" font-size="20" lengthAdjust="spacing" textLength="52" x="851.375" y="120.0999">:Repo</text><rect fill="#E2E2F0" height="41.24" rx="2.5" ry="2.5" style="stroke:#181818;stroke-width:0.5;" width="66" x="844.375" y="631.8396"/><text fill="#000000" font-family="sans-serif" font-size="20" lengthAdjust="spacing" textLength="52" x="851.375" y="660.2196">:Repo</text><rect fill="#E2E2F0" height="41.24" rx="2.5" ry="2.5" style="stroke:#181818;stroke-width:0.5;" width="91" x="920.375" y="91.7199"/><text fill="#000000" font-family="sans-serif" font-size="20" lengthAdjust="spacing" textLength="77" x="927.375" y="120.0999">:Mapper</text><rect fill="#E2E2F0" height="41.24" rx="2.5" ry="2.5" style="stroke:#181818;stroke-width:0.5;" width="91" x="920.375" y="631.8396"/><text fill="#000000" font-family="sans-serif" font-size="20" lengthAdjust="spacing" textLength="77" x="927.375" y="660.2196">:Mapper</text><rect fill="#E2E2F0" height="41.24" rx="2.5" ry="2.5" style="stroke:#181818;stroke-width:0.5;" width="135" x="1080.5" y="631.8396"/><text fill="#000000" font-family="sans-serif" font-size="20" lengthAdjust="spacing" textLength="121" x="1087.5" y="660.2196">dto:TaskDTO</text><rect fill="#E2E2F0" height="68.4799" rx="2.5" ry="2.5" style="stroke:#181818;stroke-width:0.5;" width="136" x="1235.6875" y="64.4799"/><text fill="#000000" font-family="sans-serif" font-size="20" font-style="italic" lengthAdjust="spacing" textLength="122" x="1242.6875" y="92.8599">«component»</text><text fill="#000000" font-family="sans-serif" font-size="20" lengthAdjust="spacing" textLength="81" x="1263.1875" y="120.0999">Planning</text><rect fill="#E2E2F0" height="68.4799" rx="2.5" ry="2.5" style="stroke:#181818;stroke-width:0.5;" width="136" x="1235.6875" y="631.8396"/><text fill="#000000" font-family="sans-serif" font-size="20" font-style="italic" lengthAdjust="spacing" textLength="122" x="1242.6875" y="660.2196">«component»</text><text fill="#000000" font-family="sans-serif" font-size="20" lengthAdjust="spacing" textLength="81" x="1263.1875" y="687.4596">Planning</text><rect fill="#FFFFFF" height="437.6397" style="stroke:#181818;stroke-width:1.0;" width="10" x="236.625" y="177.1999"/><rect fill="#FFFFFF" height="355.1598" style="stroke:#181818;stroke-width:1.0;" width="10" x="456.25" y="218.4398"/><rect fill="#FFFFFF" height="272.6798" style="stroke:#181818;stroke-width:1.0;" width="10" x="675.875" y="259.6798"/><rect fill="#FFFFFF" height="41.24" style="stroke:#181818;stroke-width:1.0;" width="10" x="960.875" y="431.8797"/><rect fill="#FFFFFF" height="41.24" style="stroke:#181818;stroke-width:1.0;" width="10" x="1298.6875" y="300.9198"/><ellipse cx="4.5" cy="176.4499" fill="none" rx="4" ry="4" style="stroke:#181818;stroke-width:1.5;"/><polygon fill="#181818" points="224.625,173.1999,234.625,177.1999,224.625,181.1999,228.625,177.1999" style="stroke:#181818;stroke-width:1.0;"/><line style="stroke:#181818;stroke-width:1.0;" x1="9" x2="230.625" y1="177.1999" y2="177.1999"/><text fill="#000000" font-family="sans-serif" font-size="20" font-weight="bold" lengthAdjust="spacing" textLength="11.625" x="12" y="169.3399">1</text><text fill="#000000" font-family="sans-serif" font-size="20" lengthAdjust="spacing" textLength="194" x="27.625" y="169.3399">GET /tasks/sequence</text><polygon fill="#181818" points="444.25,214.4398,454.25,218.4398,444.25,222.4398,448.25,218.4398" style="stroke:#181818;stroke-width:1.0;"/><line style="stroke:#181818;stroke-width:1.0;" x1="246.625" x2="450.25" y1="218.4398" y2="218.4398"/><text fill="#000000" font-family="sans-serif" font-size="20" font-weight="bold" lengthAdjust="spacing" textLength="11.625" x="253.625" y="210.5799">2</text><text fill="#000000" font-family="sans-serif" font-size="20" lengthAdjust="spacing" textLength="175" x="269.25" y="210.5799">getTaskSequence()</text><polygon fill="#181818" points="663.875,255.6798,673.875,259.6798,663.875,263.6798,667.875,259.6798" style="stroke:#181818;stroke-width:1.0;"/><line style="stroke:#181818;stroke-width:1.0;" x1="466.25" x2="669.875" y1="259.6798" y2="259.6798"/><text fill="#000000" font-family="sans-serif" font-size="20" font-weight="bold" lengthAdjust="spacing" textLength="11.625" x="473.25" y="251.8198">3</text><text fill="#000000" font-family="sans-serif" font-size="20" lengthAdjust="spacing" textLength="175" x="488.875" y="251.8198">getTaskSequence()</text><polygon fill="#181818" points="1286.6875,296.9198,1296.6875,300.9198,1286.6875,304.9198,1290.6875,300.9198" style="stroke:#181818;stroke-width:1.0;"/><line style="stroke:#181818;stroke-width:1.0;" x1="685.875" x2="1292.6875" y1="300.9198" y2="300.9198"/><text fill="#000000" font-family="sans-serif" font-size="20" font-weight="bold" lengthAdjust="spacing" textLength="11.625" x="692.875" y="293.0598">4</text><text fill="#000000" font-family="sans-serif" font-size="20" lengthAdjust="spacing" textLength="138" x="708.5" y="293.0598">GET /sequence</text><polygon fill="#181818" points="696.875,338.1598,686.875,342.1598,696.875,346.1598,692.875,342.1598" style="stroke:#181818;stroke-width:1.0;"/><line style="stroke:#181818;stroke-width:1.0;stroke-dasharray:2.0,2.0;" x1="690.875" x2="1302.6875" y1="342.1598" y2="342.1598"/><text fill="#000000" font-family="sans-serif" font-size="20" font-weight="bold" lengthAdjust="spacing" textLength="11.625" x="702.875" y="334.2998">5</text><text fill="#000000" font-family="sans-serif" font-size="20" lengthAdjust="spacing" textLength="89" x="718.5" y="334.2998">sequence</text><path d="M628.375,357.1598 L716.875,357.1598 L716.875,376.3997 L706.875,386.3997 L628.375,386.3997 L628.375,357.1598 " fill="#EEEEEE" style="stroke:#000000;stroke-width:1.5;"/><rect fill="none" height="134.9599" style="stroke:#000000;stroke-width:1.5;" width="597.125" x="628.375" y="357.1598"/><text fill="#000000" font-family="sans-serif" font-size="20" font-weight="bold" lengthAdjust="spacing" textLength="43.5" x="643.375" y="379.5398">loop</text><text fill="#000000" font-family="sans-serif" font-size="20" font-weight="bold" lengthAdjust="spacing" textLength="137.125" x="731.875" y="380.5398">[foreach task]</text><polygon fill="#181818" points="948.875,427.8797,958.875,431.8797,948.875,435.8797,952.875,431.8797" style="stroke:#181818;stroke-width:1.0;"/><line style="stroke:#181818;stroke-width:1.0;" x1="685.875" x2="954.875" y1="431.8797" y2="431.8797"/><text fill="#000000" font-family="sans-serif" font-size="20" font-weight="bold" lengthAdjust="spacing" textLength="11.625" x="692.875" y="424.0197">6</text><text fill="#000000" font-family="sans-serif" font-size="20" lengthAdjust="spacing" textLength="104" x="708.5" y="424.0197">toDto(task)</text><polygon fill="#181818" points="1068.5,469.1197,1078.5,473.1197,1068.5,477.1197,1072.5,473.1197" style="stroke:#181818;stroke-width:1.0;"/><line style="stroke:#181818;stroke-width:1.0;" x1="965.875" x2="1074.5" y1="473.1197" y2="473.1197"/><text fill="#000000" font-family="sans-serif" font-size="20" font-weight="bold" lengthAdjust="spacing" textLength="11.625" x="972.875" y="465.2597">7</text><text fill="#000000" font-family="sans-serif" font-size="20" lengthAdjust="spacing" textLength="70" x="988.5" y="465.2597">create()</text><rect fill="#E2E2F0" height="41.24" rx="2.5" ry="2.5" style="stroke:#181818;stroke-width:0.5;" width="135" x="1080.5" y="439.8797"/><text fill="#000000" font-family="sans-serif" font-size="20" lengthAdjust="spacing" textLength="121" x="1087.5" y="468.2597">dto:TaskDTO</text><polygon fill="#181818" points="477.25,528.3596,467.25,532.3596,477.25,536.3596,473.25,532.3596" style="stroke:#181818;stroke-width:1.0;"/><line style="stroke:#181818;stroke-width:1.0;stroke-dasharray:2.0,2.0;" x1="471.25" x2="679.875" y1="532.3596" y2="532.3596"/><text fill="#000000" font-family="sans-serif" font-size="20" font-weight="bold" lengthAdjust="spacing" textLength="11.625" x="483.25" y="524.4997">8</text><text fill="#000000" font-family="sans-serif" font-size="20" lengthAdjust="spacing" textLength="124" x="498.875" y="524.4997">sucess(tasks)</text><polygon fill="#181818" points="257.625,569.5996,247.625,573.5996,257.625,577.5996,253.625,573.5996" style="stroke:#181818;stroke-width:1.0;"/><line style="stroke:#181818;stroke-width:1.0;stroke-dasharray:2.0,2.0;" x1="251.625" x2="460.25" y1="573.5996" y2="573.5996"/><text fill="#000000" font-family="sans-serif" font-size="20" font-weight="bold" lengthAdjust="spacing" textLength="11.625" x="263.625" y="565.7396">9</text><text fill="#000000" font-family="sans-serif" font-size="20" lengthAdjust="spacing" textLength="124" x="279.25" y="565.7396">sucess(tasks)</text><polygon fill="#181818" points="11,610.8396,1,614.8396,11,618.8396,7,614.8396" style="stroke:#181818;stroke-width:1.0;"/><line style="stroke:#181818;stroke-width:1.0;stroke-dasharray:2.0,2.0;" x1="5" x2="240.625" y1="614.8396" y2="614.8396"/><text fill="#000000" font-family="sans-serif" font-size="20" font-weight="bold" lengthAdjust="spacing" textLength="23.25" x="17" y="606.9796">10</text><text fill="#000000" font-family="sans-serif" font-size="20" lengthAdjust="spacing" textLength="66" x="44.25" y="606.9796">200 OK</text><!--SRC=[VP51IyD048Nl-ok6U6c5qYAUGebeMqLiQKYZ87XPax4kJNTYTbF5N-zijjQaefV0vdqpy-QDsIXToafk2yesc4EEBx8kx3LfkrAV26SZ8MjBkju-OoMOj2fJfTGMakLzEWDf80WJgYq67NMI9dClJhXLHKM1LPTO9GyUM66rKzbH_TNzxNpQw5QQJPZofmiaitYvduubTRN5PUobXIpBuxdJrDVbbfgs_0w4UAOF2CRZZCrAfR62tkIy7qLFEYwaragl0s0LjSKgYaxcQlrg7x4ew5q0jBlxmPqYsfQakJAA1EeSU98G5pI8zWc6S3DBOUZMD4E3RpNg38NChDf9YnuImhDSr0GRmXgjCx_Qyxt-JuKZH8CnxbB-bsP0E6WGnTzMVfk86sGy63Zc8EVO0WgY4bweud-lu9RXO7pVvXmXM9fQwZcbpzAXaaL-EeH9liNfARCPjx7E9a1hY4CvGM_t9mfJPsXCqzdqswRSQZw7LjX_qarilEA1F1kDO7dNHlmjlW00]--></g></svg>