<?xml version="1.0" encoding="UTF-8" standalone="no"?><svg xmlns="http://www.w3.org/2000/svg" xmlns:xlink="http://www.w3.org/1999/xlink" contentStyleType="text/css" height="1270px" preserveAspectRatio="none" style="width:983px;height:1270px;background:#FFFFFF;" version="1.1" viewBox="0 0 983 1270" width="983px" zoomAndPan="magnify"><defs/><g><!--cluster MDM--><g id="cluster_MDM"><rect fill="none" height="1132.92" rx="2.5" ry="2.5" style="stroke:#181818;stroke-width:1.0;" width="791" x="7" y="132"/><rect fill="none" height="10" style="stroke:#181818;stroke-width:1.0;" width="15" x="778" y="137"/><rect fill="none" height="2" style="stroke:#181818;stroke-width:1.0;" width="4" x="776" y="139"/><rect fill="none" height="2" style="stroke:#181818;stroke-width:1.0;" width="4" x="776" y="143"/><text fill="#000000" font-family="sans-serif" font-size="20" font-style="italic" lengthAdjust="spacing" textLength="122" x="341.5" y="166.38">«component»</text><text fill="#000000" font-family="sans-serif" font-size="20" font-style="italic" lengthAdjust="spacing" textLength="145" x="330" y="193.62">«container (C4)»</text><text fill="#000000" font-family="sans-serif" font-size="20" font-weight="bold" lengthAdjust="spacing" textLength="95.375" x="354.8125" y="220.8599">MD Tasks</text></g><!--cluster Frameworks & Drivers Layer--><g id="cluster_Frameworks &amp; Drivers Layer"><path d="M206.5,235 L484.875,235 A3.75,3.75 0 0 1 487.375,237.5 L494.375,268.24 L592.5,268.24 A2.5,2.5 0 0 1 595,270.74 L595,378.98 A2.5,2.5 0 0 1 592.5,381.48 L206.5,381.48 A2.5,2.5 0 0 1 204,378.98 L204,237.5 A2.5,2.5 0 0 1 206.5,235 " fill="#80FFFF" style="stroke:#000000;stroke-width:1.5;"/><line style="stroke:#000000;stroke-width:1.5;" x1="204" x2="494.375" y1="268.24" y2="268.24"/><text fill="#000000" font-family="sans-serif" font-size="20" font-weight="bold" lengthAdjust="spacing" textLength="277.375" x="208" y="258.38">Frameworks &amp; Drivers Layer</text></g><!--cluster Interface Adapters Layer--><g id="cluster_Interface Adapters Layer"><path d="M192.5,521.48 L435.25,521.48 A3.75,3.75 0 0 1 437.75,523.98 L444.75,554.72 L578.5,554.72 A2.5,2.5 0 0 1 581,557.22 L581,665.46 A2.5,2.5 0 0 1 578.5,667.96 L192.5,667.96 A2.5,2.5 0 0 1 190,665.46 L190,523.98 A2.5,2.5 0 0 1 192.5,521.48 " fill="#80FF80" style="stroke:#000000;stroke-width:1.5;"/><line style="stroke:#000000;stroke-width:1.5;" x1="190" x2="444.75" y1="554.72" y2="554.72"/><text fill="#000000" font-family="sans-serif" font-size="20" font-weight="bold" lengthAdjust="spacing" textLength="241.75" x="194" y="544.86">Interface Adapters Layer</text></g><!--cluster Application Business Rules--><g id="cluster_Application Business Rules"><path d="M362.5,807.96 L625.5,807.96 A3.75,3.75 0 0 1 628,810.46 L635,841.2 L635.5,841.2 A2.5,2.5 0 0 1 638,843.7 L638,951.94 A2.5,2.5 0 0 1 635.5,954.44 L362.5,954.44 A2.5,2.5 0 0 1 360,951.94 L360,810.46 A2.5,2.5 0 0 1 362.5,807.96 " fill="#FF8080" style="stroke:#000000;stroke-width:1.5;"/><line style="stroke:#000000;stroke-width:1.5;" x1="360" x2="635" y1="841.2" y2="841.2"/><text fill="#000000" font-family="sans-serif" font-size="20" font-weight="bold" lengthAdjust="spacing" textLength="262" x="364" y="831.34">Application Business Rules</text></g><!--cluster Enterprise Business Rules--><g id="cluster_Enterprise Business Rules"><path d="M239.5,1094.44 L492.875,1094.44 A3.75,3.75 0 0 1 495.375,1096.94 L502.375,1127.68 L502.5,1127.68 A2.5,2.5 0 0 1 505,1130.18 L505,1238.42 A2.5,2.5 0 0 1 502.5,1240.92 L239.5,1240.92 A2.5,2.5 0 0 1 237,1238.42 L237,1096.94 A2.5,2.5 0 0 1 239.5,1094.44 " fill="#FFC080" style="stroke:#000000;stroke-width:1.5;"/><line style="stroke:#000000;stroke-width:1.5;" x1="237" x2="502.375" y1="1127.68" y2="1127.68"/><text fill="#000000" font-family="sans-serif" font-size="20" font-weight="bold" lengthAdjust="spacing" textLength="252.375" x="241" y="1117.82">Enterprise Business Rules</text></g><text fill="#000000" font-family="sans-serif" font-size="20" lengthAdjust="spacing" textLength="5" x="495.5" y="108.14"> </text><rect fill="#F1F1F1" height="12" style="stroke:#181818;stroke-width:1.5;" width="12" x="492" y="126"/><text fill="#000000" font-family="sans-serif" font-size="20" lengthAdjust="spacing" textLength="144" x="538.5" y="108.14">Persistence API</text><rect fill="#F1F1F1" height="12" style="stroke:#181818;stroke-width:1.5;" width="12" x="604.5" y="126"/><text fill="#000000" font-family="sans-serif" font-size="20" lengthAdjust="spacing" textLength="5" x="795.5" y="441.62"> </text><rect fill="#F1F1F1" height="12" style="stroke:#181818;stroke-width:1.5;" width="12" x="792" y="459.48"/><!--entity CTRL_API--><g id="elem_CTRL_API"><ellipse cx="493" cy="465.48" fill="#F1F1F1" rx="8" ry="8" style="stroke:#181818;stroke-width:0.5;"/><text fill="#000000" font-family="sans-serif" font-size="20" lengthAdjust="spacing" textLength="130" x="428" y="503.86">Controller API</text></g><!--entity DATA_API--><g id="elem_DATA_API"><ellipse cx="106" cy="465.48" fill="#F1F1F1" rx="8" ry="8" style="stroke:#181818;stroke-width:0.5;"/><text fill="#000000" font-family="sans-serif" font-size="20" lengthAdjust="spacing" textLength="144" x="34" y="503.86">Data Model API</text></g><!--entity SRV_API--><g id="elem_SRV_API"><ellipse cx="499" cy="751.96" fill="#F1F1F1" rx="8" ry="8" style="stroke:#181818;stroke-width:0.5;"/><text fill="#000000" font-family="sans-serif" font-size="20" lengthAdjust="spacing" textLength="155" x="421.5" y="790.34">App Services API</text></g><!--entity DTO_API--><g id="elem_DTO_API"><ellipse cx="666" cy="751.96" fill="#F1F1F1" rx="8" ry="8" style="stroke:#181818;stroke-width:0.5;"/><text fill="#000000" font-family="sans-serif" font-size="20" lengthAdjust="spacing" textLength="79" x="626.5" y="790.34">DTO API</text></g><!--entity REPO_API--><g id="elem_REPO_API"><ellipse cx="329" cy="751.96" fill="#F1F1F1" rx="8" ry="8" style="stroke:#181818;stroke-width:0.5;"/><text fill="#000000" font-family="sans-serif" font-size="20" lengthAdjust="spacing" textLength="84" x="287" y="790.34">Repo API</text></g><!--entity MODEL_API--><g id="elem_MODEL_API"><ellipse cx="371" cy="1038.44" fill="#F1F1F1" rx="8" ry="8" style="stroke:#181818;stroke-width:0.5;"/><text fill="#000000" font-family="sans-serif" font-size="20" lengthAdjust="spacing" textLength="95" x="323.5" y="1076.82">Model API</text></g><!--entity PERSISTENCE_API--><g id="elem_PERSISTENCE_API"><ellipse cx="301" cy="465.48" fill="#F1F1F1" rx="8" ry="8" style="stroke:#181818;stroke-width:0.5;"/><text fill="#000000" font-family="sans-serif" font-size="20" lengthAdjust="spacing" textLength="144" x="229" y="503.86">Persistence API</text></g><!--entity ROUTE--><g id="elem_ROUTE"><rect fill="#F1F1F1" height="84.4799" rx="2.5" ry="2.5" style="stroke:#181818;stroke-width:0.5;" width="162" x="417" y="281"/><rect fill="#F1F1F1" height="10" style="stroke:#181818;stroke-width:0.5;" width="15" x="559" y="286"/><rect fill="#F1F1F1" height="2" style="stroke:#181818;stroke-width:0.5;" width="4" x="557" y="288"/><rect fill="#F1F1F1" height="2" style="stroke:#181818;stroke-width:0.5;" width="4" x="557" y="292"/><text fill="#000000" font-family="sans-serif" font-size="20" font-style="italic" lengthAdjust="spacing" textLength="122" x="432" y="322.38">«component»</text><text fill="#000000" font-family="sans-serif" font-size="20" lengthAdjust="spacing" textLength="72" x="457" y="349.62">Routing</text></g><!--entity PERSISTENCE--><g id="elem_PERSISTENCE"><rect fill="#F1F1F1" height="84.4799" rx="2.5" ry="2.5" style="stroke:#181818;stroke-width:0.5;" width="162" x="220" y="281"/><rect fill="#F1F1F1" height="10" style="stroke:#181818;stroke-width:0.5;" width="15" x="362" y="286"/><rect fill="#F1F1F1" height="2" style="stroke:#181818;stroke-width:0.5;" width="4" x="360" y="288"/><rect fill="#F1F1F1" height="2" style="stroke:#181818;stroke-width:0.5;" width="4" x="360" y="292"/><text fill="#000000" font-family="sans-serif" font-size="20" font-style="italic" lengthAdjust="spacing" textLength="122" x="235" y="322.38">«component»</text><text fill="#000000" font-family="sans-serif" font-size="20" lengthAdjust="spacing" textLength="107" x="242.5" y="349.62">Persistence</text></g><!--entity DATA--><g id="elem_DATA"><rect fill="#F1F1F1" height="84.4799" rx="2.5" ry="2.5" style="stroke:#181818;stroke-width:0.5;" width="162" x="23" y="281"/><rect fill="#F1F1F1" height="10" style="stroke:#181818;stroke-width:0.5;" width="15" x="165" y="286"/><rect fill="#F1F1F1" height="2" style="stroke:#181818;stroke-width:0.5;" width="4" x="163" y="288"/><rect fill="#F1F1F1" height="2" style="stroke:#181818;stroke-width:0.5;" width="4" x="163" y="292"/><text fill="#000000" font-family="sans-serif" font-size="20" font-style="italic" lengthAdjust="spacing" textLength="122" x="38" y="322.38">«component»</text><text fill="#000000" font-family="sans-serif" font-size="20" lengthAdjust="spacing" textLength="107" x="45.5" y="349.62">Data Model</text></g><!--entity DTO--><g id="elem_DTO"><rect fill="#F1F1F1" height="84.4799" rx="2.5" ry="2.5" style="stroke:#181818;stroke-width:0.5;" width="162" x="600" y="567.48"/><rect fill="#F1F1F1" height="10" style="stroke:#181818;stroke-width:0.5;" width="15" x="742" y="572.48"/><rect fill="#F1F1F1" height="2" style="stroke:#181818;stroke-width:0.5;" width="4" x="740" y="574.48"/><rect fill="#F1F1F1" height="2" style="stroke:#181818;stroke-width:0.5;" width="4" x="740" y="578.48"/><text fill="#000000" font-family="sans-serif" font-size="20" font-style="italic" lengthAdjust="spacing" textLength="122" x="615" y="608.86">«component»</text><text fill="#000000" font-family="sans-serif" font-size="20" lengthAdjust="spacing" textLength="42" x="655" y="636.1">DTO</text></g><!--entity CTRL--><g id="elem_CTRL"><rect fill="#F1F1F1" height="84.4799" rx="2.5" ry="2.5" style="stroke:#181818;stroke-width:0.5;" width="162" x="403" y="567.48"/><rect fill="#F1F1F1" height="10" style="stroke:#181818;stroke-width:0.5;" width="15" x="545" y="572.48"/><rect fill="#F1F1F1" height="2" style="stroke:#181818;stroke-width:0.5;" width="4" x="543" y="574.48"/><rect fill="#F1F1F1" height="2" style="stroke:#181818;stroke-width:0.5;" width="4" x="543" y="578.48"/><text fill="#000000" font-family="sans-serif" font-size="20" font-style="italic" lengthAdjust="spacing" textLength="122" x="418" y="608.86">«component»</text><text fill="#000000" font-family="sans-serif" font-size="20" lengthAdjust="spacing" textLength="93" x="432.5" y="636.1">Controller</text></g><!--entity REPO--><g id="elem_REPO"><rect fill="#F1F1F1" height="84.4799" rx="2.5" ry="2.5" style="stroke:#181818;stroke-width:0.5;" width="162" x="206" y="567.48"/><rect fill="#F1F1F1" height="10" style="stroke:#181818;stroke-width:0.5;" width="15" x="348" y="572.48"/><rect fill="#F1F1F1" height="2" style="stroke:#181818;stroke-width:0.5;" width="4" x="346" y="574.48"/><rect fill="#F1F1F1" height="2" style="stroke:#181818;stroke-width:0.5;" width="4" x="346" y="578.48"/><text fill="#000000" font-family="sans-serif" font-size="20" font-style="italic" lengthAdjust="spacing" textLength="122" x="221" y="608.86">«component»</text><text fill="#000000" font-family="sans-serif" font-size="20" lengthAdjust="spacing" textLength="99" x="232.5" y="636.1">Repository</text></g><!--entity SRV--><g id="elem_SRV"><rect fill="#F1F1F1" height="84.4799" rx="2.5" ry="2.5" style="stroke:#181818;stroke-width:0.5;" width="215" x="391.5" y="853.96"/><rect fill="#F1F1F1" height="10" style="stroke:#181818;stroke-width:0.5;" width="15" x="586.5" y="858.96"/><rect fill="#F1F1F1" height="2" style="stroke:#181818;stroke-width:0.5;" width="4" x="584.5" y="860.96"/><rect fill="#F1F1F1" height="2" style="stroke:#181818;stroke-width:0.5;" width="4" x="584.5" y="864.96"/><text fill="#000000" font-family="sans-serif" font-size="20" font-style="italic" lengthAdjust="spacing" textLength="122" x="433" y="895.34">«component»</text><text fill="#000000" font-family="sans-serif" font-size="20" lengthAdjust="spacing" textLength="175" x="406.5" y="922.58">Application Service</text></g><!--entity MODEL--><g id="elem_MODEL"><rect fill="#F1F1F1" height="84.4799" rx="2.5" ry="2.5" style="stroke:#181818;stroke-width:0.5;" width="227" x="257.5" y="1140.44"/><rect fill="#F1F1F1" height="10" style="stroke:#181818;stroke-width:0.5;" width="15" x="464.5" y="1145.44"/><rect fill="#F1F1F1" height="2" style="stroke:#181818;stroke-width:0.5;" width="4" x="462.5" y="1147.44"/><rect fill="#F1F1F1" height="2" style="stroke:#181818;stroke-width:0.5;" width="4" x="462.5" y="1151.44"/><text fill="#000000" font-family="sans-serif" font-size="20" font-style="italic" lengthAdjust="spacing" textLength="122" x="305" y="1181.82">«component»</text><text fill="#000000" font-family="sans-serif" font-size="20" lengthAdjust="spacing" textLength="187" x="272.5" y="1209.06">Domain Model DDD</text></g><!--entity API--><g id="elem_API"><ellipse cx="498" cy="14" fill="#F1F1F1" rx="8" ry="8" style="stroke:#181818;stroke-width:0.5;"/><text fill="#000000" font-family="sans-serif" font-size="20" lengthAdjust="spacing" textLength="70" x="463" y="52.38">MD API</text></g><!--entity FS--><g id="elem_FS"><ellipse cx="909" cy="609.72" fill="#F1F1F1" rx="8" ry="8" style="stroke:#181818;stroke-width:0.5;"/><text fill="#000000" font-family="sans-serif" font-size="20" lengthAdjust="spacing" textLength="135" x="841.5" y="648.1">Filesystem API</text></g><!--link API to P1--><g id="link_API_P1"><path d="M498,22.97 C498,45.09 498,106.79 498,125.53 " fill="none" id="API-P1" style="stroke:#181818;stroke-width:1.0;"/></g><!--link ROUTE to P1--><g id="link_ROUTE_P1"><path d="M498,280.51 C498,232.91 498,159 498,138.46 " fill="none" id="ROUTE-P1" style="stroke:#181818;stroke-width:1.0;"/></g><!--link PERSISTENCE to P2--><g id="link_PERSISTENCE_P2"><path d="M333.6,280.73 C351.47,260.07 375.04,235.95 400,219 C472.64,169.65 577.97,141.22 604.67,134.54 " fill="none" id="PERSISTENCE-P2" style="stroke:#181818;stroke-width:1.0;"/></g><!--link P3 to FS--><g id="link_P3_FS"><path d="M802.22,471.88 C817.65,491.66 871.45,560.6 896.27,592.41 " fill="none" id="P3-to-FS" style="stroke:#181818;stroke-width:1.0;"/><path d="M907.7502,592.3644 A9,9 0 0 0 894.4065 602.7589" fill="none" style="stroke:#181818;stroke-width:1.5;"/></g><!--link ROUTE to CTRL_API--><g id="link_ROUTE_CTRL_API"><path d="M496.51,365.94 C495.57,392.41 494.39,425.4 493.67,445.7 " fill="none" id="ROUTE-to-CTRL_API" style="stroke:#181818;stroke-width:1.0;"/><path d="M501.8417,452.7456 A9,9 0 0 0 484.938 452.1419" fill="none" style="stroke:#181818;stroke-width:1.5;"/></g><!--link CTRL_API to CTRL--><g id="link_CTRL_API_CTRL"><path d="M492.52,474.13 C491.42,491.38 488.7,534.38 486.63,567.18 " fill="none" id="CTRL_API-CTRL" style="stroke:#181818;stroke-width:1.0;"/></g><!--link PERSISTENCE to PERSISTENCE_API--><g id="link_PERSISTENCE_PERSISTENCE_API"><path d="M301,365.94 C301,397.91 301,439.37 301,456.52 " fill="none" id="PERSISTENCE-PERSISTENCE_API" style="stroke:#181818;stroke-width:1.0;"/></g><!--reverse link PERSISTENCE_API to REPO--><g id="link_PERSISTENCE_API_REPO"><path d="M299.19,484.83 C297.16,505.54 293.77,539.89 291.09,567.18 " fill="none" id="PERSISTENCE_API-backto-REPO" style="stroke:#181818;stroke-width:1.0;"/><path d="M291.5338,477.3724 A9,9 0 0 0 308.3684 479.0148" fill="none" style="stroke:#181818;stroke-width:1.5;"/></g><!--link PERSISTENCE to DATA_API--><g id="link_PERSISTENCE_DATA_API"><path d="M247.84,365.77 C237.37,373.75 226.4,381.95 216,389.48 C184.16,412.53 146.08,438.05 124.1,452.59 " fill="none" id="PERSISTENCE-to-DATA_API" style="stroke:#181818;stroke-width:1.0;"/><path d="M123.1806,463.9924 A9,9 0 0 0 113.882 449.8632" fill="none" style="stroke:#181818;stroke-width:1.5;"/></g><!--reverse link DATA_API to REPO--><g id="link_DATA_API_REPO"><path d="M123.21,480.01 C148.46,499.84 196.59,537.67 234.17,567.2 " fill="none" id="DATA_API-backto-REPO" style="stroke:#181818;stroke-width:1.0;"/><path d="M112.9171,481.8891 A9,9 0 0 0 123.3801 468.5991" fill="none" style="stroke:#181818;stroke-width:1.5;"/></g><!--link DATA to DATA_API--><g id="link_DATA_DATA_API"><path d="M104.59,365.94 C104.97,392.41 105.44,425.4 105.73,445.7 " fill="none" id="DATA-to-DATA_API" style="stroke:#181818;stroke-width:1.0;"/><path d="M114.3024,452.3213 A9,9 0 0 0 97.3897 452.5629" fill="none" style="stroke:#181818;stroke-width:1.5;"/></g><!--link CTRL to SRV_API--><g id="link_CTRL_SRV_API"><path d="M488.46,652.42 C491.29,678.89 494.82,711.88 496.99,732.18 " fill="none" id="CTRL-to-SRV_API" style="stroke:#181818;stroke-width:1.0;"/><path d="M506.235,738.0461 A9,9 0 0 0 489.415 739.8319" fill="none" style="stroke:#181818;stroke-width:1.5;"/></g><!--reverse link SRV_API to SRV--><g id="link_SRV_API_SRV"><path d="M499,771.6 C499,792.34 499,826.5 499,853.66 " fill="none" id="SRV_API-backto-SRV" style="stroke:#181818;stroke-width:1.0;"/><path d="M490.5428,764.6882 A9,9 0 0 0 507.4572 764.6882" fill="none" style="stroke:#181818;stroke-width:1.5;"/></g><!--reverse link DTO_API to SRV--><g id="link_DTO_API_SRV"><path d="M648.72,767.68 C625.1,787.8 581.76,824.71 547.77,853.66 " fill="none" id="DTO_API-backto-SRV" style="stroke:#181818;stroke-width:1.0;"/><path d="M648.1927,756.1678 A9,9 0 0 0 659.1606 769.0442" fill="none" style="stroke:#181818;stroke-width:1.5;"/></g><!--link SRV to P3--><g id="link_SRV_P3"><path d="M606.75,887.07 C671.7,876 749.78,850.45 792,791.96 C830.87,738.12 803.43,508.86 798.67,471.6 " fill="none" id="SRV-P3" style="stroke:#181818;stroke-width:1.0;"/></g><!--link CTRL to DTO_API--><g id="link_CTRL_DTO_API"><path d="M538.11,652.42 C575.84,681.48 623.74,718.39 648.85,737.75 " fill="none" id="CTRL-to-DTO_API" style="stroke:#181818;stroke-width:1.0;"/><path d="M659.0249,735.6724 A9,9 0 0 0 648.6991 749.0693" fill="none" style="stroke:#181818;stroke-width:1.5;"/></g><!--link DTO to DTO_API--><g id="link_DTO_DTO_API"><path d="M676.54,652.42 C673.71,678.89 670.18,711.88 668.01,732.18 " fill="none" id="DTO-to-DTO_API" style="stroke:#181818;stroke-width:1.0;"/><path d="M675.585,739.8319 A9,9 0 0 0 658.765 738.0461" fill="none" style="stroke:#181818;stroke-width:1.5;"/></g><!--link REPO to REPO_API--><g id="link_REPO_REPO_API"><path d="M299.49,652.42 C309.06,684.39 321.48,725.85 326.62,743 " fill="none" id="REPO-REPO_API" style="stroke:#181818;stroke-width:1.0;"/></g><!--reverse link REPO_API to SRV--><g id="link_REPO_API_SRV"><path d="M346.35,766.51 C358.18,775.82 374.14,788.5 388,799.96 C408.94,817.27 431.77,836.75 451.24,853.56 " fill="none" id="REPO_API-backto-SRV" style="stroke:#181818;stroke-width:1.0;"/><path d="M336.0843,768.4248 A9,9 0 0 0 346.5205 755.1137" fill="none" style="stroke:#181818;stroke-width:1.5;"/></g><!--link SRV to MODEL_API--><g id="link_SRV_MODEL_API"><path d="M460.94,938.9 C435.64,966.62 403.81,1001.49 385.6,1021.44 " fill="none" id="SRV-to-MODEL_API" style="stroke:#181818;stroke-width:1.0;"/><path d="M387.5848,1031.9001 A9,9 0 0 0 375.0812 1020.509" fill="none" style="stroke:#181818;stroke-width:1.5;"/></g><!--link REPO to MODEL_API--><g id="link_REPO_MODEL_API"><path d="M273.12,652.4 C262.75,689.33 251.95,744.57 262,791.96 C281.36,883.27 337.09,981.88 360.47,1020.54 " fill="none" id="REPO-to-MODEL_API" style="stroke:#181818;stroke-width:1.0;"/><path d="M371.7513,1021.7554 A9,9 0 0 0 357.331 1030.596" fill="none" style="stroke:#181818;stroke-width:1.5;"/></g><!--link MODEL_API to MODEL--><g id="link_MODEL_API_MODEL"><path d="M371,1047.09 C371,1064.34 371,1107.34 371,1140.14 " fill="none" id="MODEL_API-MODEL" style="stroke:#181818;stroke-width:1.0;"/></g><!--SRC=[ZLHTRvim57tdLrobqiGUaB9q3tseAj50f4ZDWe3kTVB0cQmG6zbEfspAVz-r7S0Xh6fU0jVdtA_ZWzeptX993esezhI6ckx8iT4hmNN1_b1Op8D0YnQqW9z2Qt60cabQQIPu432kgToHYi9iaq2ShMT0bFdtJrQieUgaD3tqY5KH19Kuj89JhYst96glxDacsS3ZOt_wz6JVk2QCKmdXykjd3FqD05eXDUCm0qlBldYXZ4h5i2B7-btDR741YAFkIVS11jT3hqii94NJOAMEjoppbnzcf2jWGZI1ZQXfqmEJk8mjqEJSYQR69BCLRfR-5dAlu1CaahrXP_12JbJEuEvXliAV7GR0sqUEBJB-osRDjwzbEbg88vp7D6zgDrsQ5-kYJByj_v_WR9hrSWnpzJDDSCyZKhbrw78x2RvUNTosK53vnYggtFBY0ehy-yIICLy7mETRG4vRqIFoD9k0U1eXPhDDqWarR-uBGhtjELK7KGTcN9DMZoLzcDzAEboi_b9zJ5Gpec9Qo9Ex3ZZa-s9sJUAQ6rOHOrHuFYfqZqBw4Rs8RPecfzhqIHUDR5cKvsDLKxEQLZ95fuek9uicue3clhWfIHBt6J1AlLCJgw8g44N6-O5pIUJU_7jl8eiWkyU7q7vsUcWuEDkg4HtRQ0YDSumkWvN1CCBn4OoeOVzT09yr1At5hd6NXZ3MsSBitn5l8vqpR2GotxIUtXqP8_dlbqwYmJD3kYw4RRYCuU2QReJhc9FAxi-B_WC0]--></g></svg>