<?xml version="1.0" encoding="UTF-8" standalone="no"?><svg xmlns="http://www.w3.org/2000/svg" xmlns:xlink="http://www.w3.org/1999/xlink" contentStyleType="text/css" height="1203px" preserveAspectRatio="none" style="width:1063px;height:1203px;background:#FFFFFF;" version="1.1" viewBox="0 0 1063 1203" width="1063px" zoomAndPan="magnify"><defs/><g><!--cluster MDM--><g id="cluster_MDM"><rect fill="none" height="1069" rx="2.5" ry="2.5" style="stroke:#181818;stroke-width:1.0;" width="861" x="7" y="128"/><rect fill="none" height="10" style="stroke:#181818;stroke-width:1.0;" width="15" x="848" y="133"/><rect fill="none" height="2" style="stroke:#181818;stroke-width:1.0;" width="4" x="846" y="135"/><rect fill="none" height="2" style="stroke:#181818;stroke-width:1.0;" width="4" x="846" y="139"/><text fill="#000000" font-family="sans-serif" font-size="20" font-style="italic" lengthAdjust="spacing" textLength="138" x="368.5" y="159.5645">«component»</text><text fill="#000000" font-family="sans-serif" font-size="20" font-style="italic" lengthAdjust="spacing" textLength="168" x="353.5" y="182.8457">«container (C4)»</text><text fill="#000000" font-family="sans-serif" font-size="20" font-weight="bold" lengthAdjust="spacing" textLength="109" x="383" y="206.127">MD Tasks</text></g><!--cluster Frameworks & Drivers Layer--><g id="cluster_Frameworks &amp; Drivers Layer"><path d="M222.5,231 L548.5,231 A3.75,3.75 0 0 1 551,233.5 L558,260.2813 L640.5,260.2813 A2.5,2.5 0 0 1 643,262.7813 L643,363.5 A2.5,2.5 0 0 1 640.5,366 L222.5,366 A2.5,2.5 0 0 1 220,363.5 L220,233.5 A2.5,2.5 0 0 1 222.5,231 " fill="#80FFFF" style="stroke:#000000;stroke-width:1.5;"/><line style="stroke:#000000;stroke-width:1.5;" x1="220" x2="558" y1="260.2813" y2="260.2813"/><text fill="#000000" font-family="sans-serif" font-size="20" font-weight="bold" lengthAdjust="spacing" textLength="325" x="224" y="251.5645">Frameworks &amp; Drivers Layer</text></g><!--cluster Interface Adapters Layer--><g id="cluster_Interface Adapters Layer"><path d="M214.5,500 L500.5,500 A3.75,3.75 0 0 1 503,502.5 L510,529.2813 L632.5,529.2813 A2.5,2.5 0 0 1 635,531.7813 L635,632.5 A2.5,2.5 0 0 1 632.5,635 L214.5,635 A2.5,2.5 0 0 1 212,632.5 L212,502.5 A2.5,2.5 0 0 1 214.5,500 " fill="#80FF80" style="stroke:#000000;stroke-width:1.5;"/><line style="stroke:#000000;stroke-width:1.5;" x1="212" x2="510" y1="529.2813" y2="529.2813"/><text fill="#000000" font-family="sans-serif" font-size="20" font-weight="bold" lengthAdjust="spacing" textLength="285" x="216" y="520.5645">Interface Adapters Layer</text></g><!--cluster Application Business Rules--><g id="cluster_Application Business Rules"><path d="M392.5,769 L697.5,769 A3.75,3.75 0 0 1 700,771.5 L707,798.2813 L707.5,798.2813 A2.5,2.5 0 0 1 710,800.7813 L710,901.5 A2.5,2.5 0 0 1 707.5,904 L392.5,904 A2.5,2.5 0 0 1 390,901.5 L390,771.5 A2.5,2.5 0 0 1 392.5,769 " fill="#FF8080" style="stroke:#000000;stroke-width:1.5;"/><line style="stroke:#000000;stroke-width:1.5;" x1="390" x2="707" y1="798.2813" y2="798.2813"/><text fill="#000000" font-family="sans-serif" font-size="20" font-weight="bold" lengthAdjust="spacing" textLength="304" x="394" y="789.5645">Application Business Rules</text></g><!--cluster Enterprise Business Rules--><g id="cluster_Enterprise Business Rules"><path d="M264.5,1038 L560.5,1038 A3.75,3.75 0 0 1 563,1040.5 L570,1067.2813 L570.5,1067.2813 A2.5,2.5 0 0 1 573,1069.7813 L573,1170.5 A2.5,2.5 0 0 1 570.5,1173 L264.5,1173 A2.5,2.5 0 0 1 262,1170.5 L262,1040.5 A2.5,2.5 0 0 1 264.5,1038 " fill="#FFC080" style="stroke:#000000;stroke-width:1.5;"/><line style="stroke:#000000;stroke-width:1.5;" x1="262" x2="570" y1="1067.2813" y2="1067.2813"/><text fill="#000000" font-family="sans-serif" font-size="20" font-weight="bold" lengthAdjust="spacing" textLength="295" x="266" y="1058.5645">Enterprise Business Rules</text></g><text fill="#000000" font-family="sans-serif" font-size="20" lengthAdjust="spacing" textLength="6" x="535" y="105.2832"> </text><rect fill="#F1F1F1" height="12" style="stroke:#181818;stroke-width:1.5;" width="12" x="532" y="122"/><text fill="#000000" font-family="sans-serif" font-size="20" lengthAdjust="spacing" textLength="152" x="579.5" y="105.2832">Persistence API</text><rect fill="#F1F1F1" height="12" style="stroke:#181818;stroke-width:1.5;" width="12" x="649.5" y="122"/><text fill="#000000" font-family="sans-serif" font-size="20" lengthAdjust="spacing" textLength="6" x="865" y="423.2832"> </text><rect fill="#F1F1F1" height="12" style="stroke:#181818;stroke-width:1.5;" width="12" x="862" y="440"/><!--entity CTRL_API--><g id="elem_CTRL_API"><ellipse cx="534" cy="446" fill="#F1F1F1" rx="8" ry="8" style="stroke:#181818;stroke-width:0.5;"/><text fill="#000000" font-family="sans-serif" font-size="20" lengthAdjust="spacing" textLength="137" x="465.5" y="481.5645">Controller API</text></g><!--entity DATA_API--><g id="elem_DATA_API"><ellipse cx="123" cy="446" fill="#F1F1F1" rx="8" ry="8" style="stroke:#181818;stroke-width:0.5;"/><text fill="#000000" font-family="sans-serif" font-size="20" lengthAdjust="spacing" textLength="151" x="47.5" y="481.5645">Data Model API</text></g><!--entity SRV_API--><g id="elem_SRV_API"><ellipse cx="550" cy="715" fill="#F1F1F1" rx="8" ry="8" style="stroke:#181818;stroke-width:0.5;"/><text fill="#000000" font-family="sans-serif" font-size="20" lengthAdjust="spacing" textLength="167" x="466.5" y="750.5645">App Services API</text></g><!--entity DTO_API--><g id="elem_DTO_API"><ellipse cx="724" cy="715" fill="#F1F1F1" rx="8" ry="8" style="stroke:#181818;stroke-width:0.5;"/><text fill="#000000" font-family="sans-serif" font-size="20" lengthAdjust="spacing" textLength="81" x="683.5" y="750.5645">DTO API</text></g><!--entity REPO_API--><g id="elem_REPO_API"><ellipse cx="372" cy="715" fill="#F1F1F1" rx="8" ry="8" style="stroke:#181818;stroke-width:0.5;"/><text fill="#000000" font-family="sans-serif" font-size="20" lengthAdjust="spacing" textLength="89" x="327.5" y="750.5645">Repo API</text></g><!--entity MODEL_API--><g id="elem_MODEL_API"><ellipse cx="417" cy="984" fill="#F1F1F1" rx="8" ry="8" style="stroke:#181818;stroke-width:0.5;"/><text fill="#000000" font-family="sans-serif" font-size="20" lengthAdjust="spacing" textLength="98" x="368" y="1019.5645">Model API</text></g><!--entity PERSISTENCE_API--><g id="elem_PERSISTENCE_API"><ellipse cx="325" cy="446" fill="#F1F1F1" rx="8" ry="8" style="stroke:#181818;stroke-width:0.5;"/><text fill="#000000" font-family="sans-serif" font-size="20" lengthAdjust="spacing" textLength="152" x="249" y="481.5645">Persistence API</text></g><!--entity ROUTE--><g id="elem_ROUTE"><rect fill="#F1F1F1" height="76.5625" rx="2.5" ry="2.5" style="stroke:#181818;stroke-width:0.5;" width="178" x="449" y="273"/><rect fill="#F1F1F1" height="10" style="stroke:#181818;stroke-width:0.5;" width="15" x="607" y="278"/><rect fill="#F1F1F1" height="2" style="stroke:#181818;stroke-width:0.5;" width="4" x="605" y="280"/><rect fill="#F1F1F1" height="2" style="stroke:#181818;stroke-width:0.5;" width="4" x="605" y="284"/><text fill="#000000" font-family="sans-serif" font-size="20" font-style="italic" lengthAdjust="spacing" textLength="138" x="464" y="311.5645">«component»</text><text fill="#000000" font-family="sans-serif" font-size="20" lengthAdjust="spacing" textLength="79" x="493.5" y="334.8457">Routing</text></g><!--entity PERSISTENCE--><g id="elem_PERSISTENCE"><rect fill="#F1F1F1" height="76.5625" rx="2.5" ry="2.5" style="stroke:#181818;stroke-width:0.5;" width="178" x="236" y="273"/><rect fill="#F1F1F1" height="10" style="stroke:#181818;stroke-width:0.5;" width="15" x="394" y="278"/><rect fill="#F1F1F1" height="2" style="stroke:#181818;stroke-width:0.5;" width="4" x="392" y="280"/><rect fill="#F1F1F1" height="2" style="stroke:#181818;stroke-width:0.5;" width="4" x="392" y="284"/><text fill="#000000" font-family="sans-serif" font-size="20" font-style="italic" lengthAdjust="spacing" textLength="138" x="251" y="311.5645">«component»</text><text fill="#000000" font-family="sans-serif" font-size="20" lengthAdjust="spacing" textLength="114" x="263" y="334.8457">Persistence</text></g><!--entity DATA--><g id="elem_DATA"><rect fill="#F1F1F1" height="76.5625" rx="2.5" ry="2.5" style="stroke:#181818;stroke-width:0.5;" width="178" x="23" y="273"/><rect fill="#F1F1F1" height="10" style="stroke:#181818;stroke-width:0.5;" width="15" x="181" y="278"/><rect fill="#F1F1F1" height="2" style="stroke:#181818;stroke-width:0.5;" width="4" x="179" y="280"/><rect fill="#F1F1F1" height="2" style="stroke:#181818;stroke-width:0.5;" width="4" x="179" y="284"/><text fill="#000000" font-family="sans-serif" font-size="20" font-style="italic" lengthAdjust="spacing" textLength="138" x="38" y="311.5645">«component»</text><text fill="#000000" font-family="sans-serif" font-size="20" lengthAdjust="spacing" textLength="113" x="50.5" y="334.8457">Data Model</text></g><!--entity DTO--><g id="elem_DTO"><rect fill="#F1F1F1" height="76.5625" rx="2.5" ry="2.5" style="stroke:#181818;stroke-width:0.5;" width="178" x="654" y="542"/><rect fill="#F1F1F1" height="10" style="stroke:#181818;stroke-width:0.5;" width="15" x="812" y="547"/><rect fill="#F1F1F1" height="2" style="stroke:#181818;stroke-width:0.5;" width="4" x="810" y="549"/><rect fill="#F1F1F1" height="2" style="stroke:#181818;stroke-width:0.5;" width="4" x="810" y="553"/><text fill="#000000" font-family="sans-serif" font-size="20" font-style="italic" lengthAdjust="spacing" textLength="138" x="669" y="580.5645">«component»</text><text fill="#000000" font-family="sans-serif" font-size="20" lengthAdjust="spacing" textLength="43" x="716.5" y="603.8457">DTO</text></g><!--entity CTRL--><g id="elem_CTRL"><rect fill="#F1F1F1" height="76.5625" rx="2.5" ry="2.5" style="stroke:#181818;stroke-width:0.5;" width="178" x="441" y="542"/><rect fill="#F1F1F1" height="10" style="stroke:#181818;stroke-width:0.5;" width="15" x="599" y="547"/><rect fill="#F1F1F1" height="2" style="stroke:#181818;stroke-width:0.5;" width="4" x="597" y="549"/><rect fill="#F1F1F1" height="2" style="stroke:#181818;stroke-width:0.5;" width="4" x="597" y="553"/><text fill="#000000" font-family="sans-serif" font-size="20" font-style="italic" lengthAdjust="spacing" textLength="138" x="456" y="580.5645">«component»</text><text fill="#000000" font-family="sans-serif" font-size="20" lengthAdjust="spacing" textLength="99" x="475.5" y="603.8457">Controller</text></g><!--entity REPO--><g id="elem_REPO"><rect fill="#F1F1F1" height="76.5625" rx="2.5" ry="2.5" style="stroke:#181818;stroke-width:0.5;" width="178" x="228" y="542"/><rect fill="#F1F1F1" height="10" style="stroke:#181818;stroke-width:0.5;" width="15" x="386" y="547"/><rect fill="#F1F1F1" height="2" style="stroke:#181818;stroke-width:0.5;" width="4" x="384" y="549"/><rect fill="#F1F1F1" height="2" style="stroke:#181818;stroke-width:0.5;" width="4" x="384" y="553"/><text fill="#000000" font-family="sans-serif" font-size="20" font-style="italic" lengthAdjust="spacing" textLength="138" x="243" y="580.5645">«component»</text><text fill="#000000" font-family="sans-serif" font-size="20" lengthAdjust="spacing" textLength="106" x="259" y="603.8457">Repository</text></g><!--entity SRV--><g id="elem_SRV"><rect fill="#F1F1F1" height="76.5625" rx="2.5" ry="2.5" style="stroke:#181818;stroke-width:0.5;" width="233" x="433.5" y="811"/><rect fill="#F1F1F1" height="10" style="stroke:#181818;stroke-width:0.5;" width="15" x="646.5" y="816"/><rect fill="#F1F1F1" height="2" style="stroke:#181818;stroke-width:0.5;" width="4" x="644.5" y="818"/><rect fill="#F1F1F1" height="2" style="stroke:#181818;stroke-width:0.5;" width="4" x="644.5" y="822"/><text fill="#000000" font-family="sans-serif" font-size="20" font-style="italic" lengthAdjust="spacing" textLength="138" x="476" y="849.5645">«component»</text><text fill="#000000" font-family="sans-serif" font-size="20" lengthAdjust="spacing" textLength="193" x="448.5" y="872.8457">Application Service</text></g><!--entity MODEL--><g id="elem_MODEL"><rect fill="#F1F1F1" height="76.5625" rx="2.5" ry="2.5" style="stroke:#181818;stroke-width:0.5;" width="235" x="299.5" y="1080"/><rect fill="#F1F1F1" height="10" style="stroke:#181818;stroke-width:0.5;" width="15" x="514.5" y="1085"/><rect fill="#F1F1F1" height="2" style="stroke:#181818;stroke-width:0.5;" width="4" x="512.5" y="1087"/><rect fill="#F1F1F1" height="2" style="stroke:#181818;stroke-width:0.5;" width="4" x="512.5" y="1091"/><text fill="#000000" font-family="sans-serif" font-size="20" font-style="italic" lengthAdjust="spacing" textLength="138" x="343" y="1118.5645">«component»</text><text fill="#000000" font-family="sans-serif" font-size="20" lengthAdjust="spacing" textLength="195" x="314.5" y="1141.8457">Domain Model DDD</text></g><!--entity API--><g id="elem_API"><ellipse cx="538" cy="14" fill="#F1F1F1" rx="8" ry="8" style="stroke:#181818;stroke-width:0.5;"/><text fill="#000000" font-family="sans-serif" font-size="20" lengthAdjust="spacing" textLength="70" x="503" y="49.5645">MD API</text></g><!--entity FS--><g id="elem_FS"><ellipse cx="984" cy="580.5" fill="#F1F1F1" rx="8" ry="8" style="stroke:#181818;stroke-width:0.5;"/><text fill="#000000" font-family="sans-serif" font-size="20" lengthAdjust="spacing" textLength="145" x="911.5" y="616.0645">Filesystem API</text></g><!--link API to P1--><g id="link_API_P1"><path d="M538,23.05 C538,44.72 538,103.83 538,121.77 " fill="none" id="API-P1" style="stroke:#181818;stroke-width:1.0;"/></g><!--link ROUTE to P1--><g id="link_ROUTE_P1"><path d="M538,272.88 C538,227.35 538,154.29 538,134.24 " fill="none" id="ROUTE-P1" style="stroke:#181818;stroke-width:1.0;"/></g><!--link PERSISTENCE to P2--><g id="link_PERSISTENCE_P2"><path d="M360.46,272.87 C380.13,253.61 405.85,230.95 432,215 C510.95,166.85 621.42,137.54 649.37,130.6 " fill="none" id="PERSISTENCE-P2" style="stroke:#181818;stroke-width:1.0;"/></g><!--link P3 to FS--><g id="link_P3_FS"><path d="M872.41,452.03 C888.38,470.27 943.67,533.43 969.93,563.43 " fill="none" id="P3-to-FS" style="stroke:#181818;stroke-width:1.0;"/><path d="M981.1229,563.3762 A9,9 0 0 0 968.4144 574.5383" fill="none" style="stroke:#181818;stroke-width:1.5;"/></g><!--link ROUTE to CTRL_API--><g id="link_ROUTE_CTRL_API"><path d="M536.86,350.11 C536.11,375.19 535.15,407.03 534.55,426.71 " fill="none" id="ROUTE-to-CTRL_API" style="stroke:#181818;stroke-width:1.0;"/><path d="M542.7957,433.9268 A9,9 0 0 0 525.8889 433.4196" fill="none" style="stroke:#181818;stroke-width:1.5;"/></g><!--link CTRL_API to CTRL--><g id="link_CTRL_API_CTRL"><path d="M533.75,455.29 C533.24,472.29 532.04,512.01 531.13,541.99 " fill="none" id="CTRL_API-CTRL" style="stroke:#181818;stroke-width:1.0;"/></g><!--link PERSISTENCE to PERSISTENCE_API--><g id="link_PERSISTENCE_PERSISTENCE_API"><path d="M325,350.11 C325,380.11 325,419.79 325,436.75 " fill="none" id="PERSISTENCE-PERSISTENCE_API" style="stroke:#181818;stroke-width:1.0;"/></g><!--reverse link PERSISTENCE_API to REPO--><g id="link_PERSISTENCE_API_REPO"><path d="M323.89,465.35 C322.7,485.06 320.78,516.93 319.26,541.99 " fill="none" id="PERSISTENCE_API-backto-REPO" style="stroke:#181818;stroke-width:1.0;"/><path d="M315.8734,457.8554 A9,9 0 0 0 332.7574 458.8699" fill="none" style="stroke:#181818;stroke-width:1.5;"/></g><!--link PERSISTENCE to DATA_API--><g id="link_PERSISTENCE_DATA_API"><path d="M267.99,350.29 C256.11,358.14 243.65,366.35 232,374 C199.76,395.16 162.04,419.67 140.49,433.66 " fill="none" id="PERSISTENCE-to-DATA_API" style="stroke:#181818;stroke-width:1.0;"/><path d="M139.2464,444.5481 A9,9 0 0 0 130.0376 430.3602" fill="none" style="stroke:#181818;stroke-width:1.5;"/></g><!--reverse link DATA_API to REPO--><g id="link_DATA_API_REPO"><path d="M140.54,458.98 C167.69,477.52 221.02,513.94 261.97,541.92 " fill="none" id="DATA_API-backto-REPO" style="stroke:#181818;stroke-width:1.0;"/><path d="M129.8697,461.9293 A9,9 0 0 0 139.4132 447.9643" fill="none" style="stroke:#181818;stroke-width:1.5;"/></g><!--link DATA to DATA_API--><g id="link_DATA_DATA_API"><path d="M115.12,350.11 C117.2,375.19 119.85,407.03 121.48,426.71 " fill="none" id="DATA-to-DATA_API" style="stroke:#181818;stroke-width:1.0;"/><path d="M130.4933,432.9821 A9,9 0 0 0 113.6369 434.3827" fill="none" style="stroke:#181818;stroke-width:1.5;"/></g><!--link CTRL to SRV_API--><g id="link_CTRL_SRV_API"><path d="M535.68,619.11 C539.46,644.19 544.27,676.03 547.24,695.71 " fill="none" id="CTRL-to-SRV_API" style="stroke:#181818;stroke-width:1.0;"/><path d="M556.6558,701.4491 A9,9 0 0 0 539.9292 703.9629" fill="none" style="stroke:#181818;stroke-width:1.5;"/></g><!--reverse link SRV_API to SRV--><g id="link_SRV_API_SRV"><path d="M550,734.35 C550,754.06 550,785.93 550,810.99 " fill="none" id="SRV_API-backto-SRV" style="stroke:#181818;stroke-width:1.0;"/><path d="M541.5428,727.3682 A9,9 0 0 0 558.4572 727.3682" fill="none" style="stroke:#181818;stroke-width:1.5;"/></g><!--reverse link DTO_API to SRV--><g id="link_DTO_API_SRV"><path d="M706.56,729.28 C681.79,748.14 635.47,783.41 599.61,810.72 " fill="none" id="DTO_API-backto-SRV" style="stroke:#181818;stroke-width:1.0;"/><path d="M707.0782,718.2551 A9,9 0 0 0 717.3232 731.7138" fill="none" style="stroke:#181818;stroke-width:1.5;"/></g><!--link SRV to P3--><g id="link_SRV_P3"><path d="M666.53,826.8 C744.79,809.61 837.86,783.17 862,751 C899.07,701.6 873.39,488.51 868.7,452.26 " fill="none" id="SRV-P3" style="stroke:#181818;stroke-width:1.0;"/></g><!--link CTRL to DTO_API--><g id="link_CTRL_DTO_API"><path d="M585.07,619.11 C625.96,647.04 679.15,683.37 706.32,701.93 " fill="none" id="CTRL-to-DTO_API" style="stroke:#181818;stroke-width:1.0;"/><path d="M717.0203,698.9907 A9,9 0 0 0 707.4768 712.9557" fill="none" style="stroke:#181818;stroke-width:1.5;"/></g><!--link DTO to DTO_API--><g id="link_DTO_DTO_API"><path d="M737.61,619.11 C734.01,644.19 729.44,676.03 726.62,695.71 " fill="none" id="DTO-to-DTO_API" style="stroke:#181818;stroke-width:1.0;"/><path d="M733.9902,703.9112 A9,9 0 0 0 717.2491 701.4955" fill="none" style="stroke:#181818;stroke-width:1.5;"/></g><!--link REPO to REPO_API--><g id="link_REPO_REPO_API"><path d="M332.61,619.11 C345.06,649.11 361.54,688.79 368.58,705.75 " fill="none" id="REPO-REPO_API" style="stroke:#181818;stroke-width:1.0;"/></g><!--reverse link REPO_API to SRV--><g id="link_REPO_API_SRV"><path d="M389.26,728.85 C414.45,747.6 462.3,783.22 499.27,810.73 " fill="none" id="REPO_API-backto-SRV" style="stroke:#181818;stroke-width:1.0;"/><path d="M378.4853,731.3709 A9,9 0 0 0 388.5914 717.8074" fill="none" style="stroke:#181818;stroke-width:1.5;"/></g><!--link SRV to MODEL_API--><g id="link_SRV_MODEL_API"><path d="M512.24,888.11 C485.78,914.47 451.81,948.32 432.41,967.65 " fill="none" id="SRV-to-MODEL_API" style="stroke:#181818;stroke-width:1.0;"/><path d="M433.4291,978.57 A9,9 0 0 0 421.4929 966.5856" fill="none" style="stroke:#181818;stroke-width:1.5;"/></g><!--link REPO to MODEL_API--><g id="link_REPO_MODEL_API"><path d="M307.34,619.02 C299.96,653.69 292.64,706.42 303,751 C323.14,837.67 380.47,929.26 405.3,966.16 " fill="none" id="REPO-to-MODEL_API" style="stroke:#181818;stroke-width:1.0;"/><path d="M416.3757,967.3768 A9,9 0 0 0 402.4107 976.9203" fill="none" style="stroke:#181818;stroke-width:1.5;"/></g><!--link MODEL_API to MODEL--><g id="link_MODEL_API_MODEL"><path d="M417,993.29 C417,1010.29 417,1050.01 417,1079.99 " fill="none" id="MODEL_API-MODEL" style="stroke:#181818;stroke-width:1.0;"/></g><!--SRC=[ZLHTRvim57tdLrobqiGUaB9q3tseAj50f4ZDWe3kTVB0cQmG6zbEfspAVz-r7S0Xh6fU0jVdtA_ZWzeptX993esezhI6ckx8iT4hmNN1_b1Op8D0YnQqW9z2Qt60cabQQIPu432kgToHYi9iaq2ShMT0bFdtJrQieUgaD3tqY5KH19Kuj89JhYst96glxDacsS3ZOt_wz6JVk2QCKmdXykjd3FqD05eXDUCm0qlBldYXZ4h5i2B7-btDR741YAFkIVS11jT3hqii94NJOAMEjoppbnzcf2jWGZI1ZQXfqmEJk8mjqEJSYQR69BCLRfR-5dAlu1CaahrXP_12JbJEuEvXliAV7GR0sqUEBJB-osRDjwzbEbg88vp7D6zgDrsQ5-kYJByj_v_WR9hrSWnpzJDDSCyZKhbrw78x2RvUNTosK53vnYggtFBY0ehy-yIICLy7mETRG4vRqIFoD9k0U1eXPhDDqWarR-uBGhtjELK7KGTcN9DMZoLzcDzAEboi_b9zJ5Gpec9Qo9Ex3ZZa-s9sJUAQ6rOHOrHuFYfqZqBw4Rs8RPecfzhqIHUDR5cKvsDLKxEQLZ95fuek9uicue3clhWfIHBt6J1AlLCJgw8g44N6-O5pIUJU_7jl8eiWkyU7q7vsUcWuEDkg4HtRQ0YDSumkWvN1CCBn4OoeOVzT09yr1At5hd6NXZ3MsSBitn5l8vqpR2GotxIUtXqP8_dlbqwYmJD3kYw4RRYCuU2QReJhc9FAxi-B_WC0]--></g></svg>