<?xml version="1.0" encoding="UTF-8" standalone="no"?><svg xmlns="http://www.w3.org/2000/svg" xmlns:xlink="http://www.w3.org/1999/xlink" contentStyleType="text/css" height="829px" preserveAspectRatio="none" style="width:1857px;height:829px;background:#FFFFFF;" version="1.1" viewBox="0 0 1857 829" width="1857px" zoomAndPan="magnify"><defs/><g><rect fill="#DDDDDD" height="817.3195" style="stroke:#181818;stroke-width:0.5;" width="1050.875" x="341.75" y="6"/><text fill="#000000" font-family="sans-serif" font-size="20" font-weight="bold" lengthAdjust="spacing" textLength="128.875" x="802.75" y="27.38">«system (C4»</text><text fill="#000000" font-family="sans-serif" font-size="20" font-weight="bold" lengthAdjust="spacing" textLength="130.75" x="801.8125" y="54.62">Visualization)</text><rect fill="#FFFFE0" height="817.3195" style="stroke:#181818;stroke-width:0.5;" width="184" x="1667.25" y="6"/><text fill="#000000" font-family="sans-serif" font-size="20" font-weight="bold" lengthAdjust="spacing" textLength="135.5" x="1691.5" y="27.38">«system (C4)»</text><text fill="#000000" font-family="sans-serif" font-size="20" font-weight="bold" lengthAdjust="spacing" textLength="169.5" x="1674.5" y="54.62">MD Management</text><rect fill="#FFFFFF" height="571.1197" style="stroke:#181818;stroke-width:1.0;" width="10" x="85.5" y="143.9599"/><rect fill="#FFFFFF" height="41.24" style="stroke:#181818;stroke-width:1.0;" width="10" x="428.75" y="177.1999"/><rect fill="#FFFFFF" height="455.3997" style="stroke:#181818;stroke-width:1.0;" width="10" x="428.75" y="259.6798"/><rect fill="#FFFFFF" height="372.9198" style="stroke:#181818;stroke-width:1.0;" width="10" x="631.375" y="300.9198"/><rect fill="#FFFFFF" height="28" style="stroke:#181818;stroke-width:1.0;" width="10" x="636.375" y="350.1598"/><rect fill="#FFFFFF" height="206.1999" style="stroke:#181818;stroke-width:1.0;" width="10" x="834" y="426.3997"/><rect fill="#FFFFFF" height="41.24" style="stroke:#181818;stroke-width:1.0;" width="10" x="1754.25" y="508.8797"/><line style="stroke:#181818;stroke-width:0.5;stroke-dasharray:5.0,5.0;" x1="90" x2="90" y1="133.9599" y2="733.0796"/><line style="stroke:#181818;stroke-width:0.5;stroke-dasharray:5.0,5.0;" x1="433.75" x2="433.75" y1="133.9599" y2="733.0796"/><line style="stroke:#181818;stroke-width:0.5;stroke-dasharray:5.0,5.0;" x1="636.375" x2="636.375" y1="133.9599" y2="733.0796"/><line style="stroke:#181818;stroke-width:0.5;stroke-dasharray:5.0,5.0;" x1="839" x2="839" y1="133.9599" y2="733.0796"/><line style="stroke:#181818;stroke-width:0.5;stroke-dasharray:5.0,5.0;" x1="1300.625" x2="1300.625" y1="133.9599" y2="733.0796"/><line style="stroke:#181818;stroke-width:0.5;stroke-dasharray:5.0,5.0;" x1="1759.25" x2="1759.25" y1="133.9599" y2="733.0796"/><text fill="#000000" font-family="sans-serif" font-size="20" lengthAdjust="spacing" textLength="165" x="5" y="128.0999">Campus Manager</text><ellipse cx="90.5" cy="55.2199" fill="#E2E2F0" rx="8" ry="8" style="stroke:#181818;stroke-width:0.5;"/><path d="M90.5,63.2199 L90.5,90.2199 M77.5,71.2199 L103.5,71.2199 M90.5,90.2199 L77.5,105.2199 M90.5,90.2199 L103.5,105.2199 " fill="none" style="stroke:#181818;stroke-width:0.5;"/><text fill="#000000" font-family="sans-serif" font-size="20" lengthAdjust="spacing" textLength="165" x="5" y="753.4596">Campus Manager</text><ellipse cx="90.5" cy="767.8195" fill="#E2E2F0" rx="8" ry="8" style="stroke:#181818;stroke-width:0.5;"/><path d="M90.5,775.8195 L90.5,802.8195 M77.5,783.8195 L103.5,783.8195 M90.5,802.8195 L77.5,817.8195 M90.5,802.8195 L103.5,817.8195 " fill="none" style="stroke:#181818;stroke-width:0.5;"/><rect fill="#E2E2F0" height="68.4799" rx="2.5" ry="2.5" style="stroke:#181818;stroke-width:0.5;" width="176" x="345.75" y="64.4799"/><text fill="#000000" font-family="sans-serif" font-size="20" font-style="italic" lengthAdjust="spacing" textLength="162" x="352.75" y="92.8599">«component (C4)»</text><text fill="#000000" font-family="sans-serif" font-size="20" lengthAdjust="spacing" textLength="137" x="365.25" y="120.0999">UI Component</text><rect fill="#E2E2F0" height="68.4799" rx="2.5" ry="2.5" style="stroke:#181818;stroke-width:0.5;" width="176" x="345.75" y="732.0796"/><text fill="#000000" font-family="sans-serif" font-size="20" font-style="italic" lengthAdjust="spacing" textLength="162" x="352.75" y="760.4596">«component (C4)»</text><text fill="#000000" font-family="sans-serif" font-size="20" lengthAdjust="spacing" textLength="137" x="365.25" y="787.6995">UI Component</text><rect fill="#E2E2F0" height="68.4799" rx="2.5" ry="2.5" style="stroke:#181818;stroke-width:0.5;" width="176" x="548.375" y="64.4799"/><text fill="#000000" font-family="sans-serif" font-size="20" font-style="italic" lengthAdjust="spacing" textLength="162" x="555.375" y="92.8599">«component (C4)»</text><text fill="#000000" font-family="sans-serif" font-size="20" lengthAdjust="spacing" textLength="70" x="601.375" y="120.0999">Module</text><rect fill="#E2E2F0" height="68.4799" rx="2.5" ry="2.5" style="stroke:#181818;stroke-width:0.5;" width="176" x="548.375" y="732.0796"/><text fill="#000000" font-family="sans-serif" font-size="20" font-style="italic" lengthAdjust="spacing" textLength="162" x="555.375" y="760.4596">«component (C4)»</text><text fill="#000000" font-family="sans-serif" font-size="20" lengthAdjust="spacing" textLength="70" x="601.375" y="787.6995">Module</text><rect fill="#E2E2F0" height="68.4799" rx="2.5" ry="2.5" style="stroke:#181818;stroke-width:0.5;" width="176" x="751" y="64.4799"/><text fill="#000000" font-family="sans-serif" font-size="20" font-style="italic" lengthAdjust="spacing" textLength="162" x="758" y="92.8599">«component (C4)»</text><text fill="#000000" font-family="sans-serif" font-size="20" lengthAdjust="spacing" textLength="66" x="806" y="120.0999">Service</text><rect fill="#E2E2F0" height="68.4799" rx="2.5" ry="2.5" style="stroke:#181818;stroke-width:0.5;" width="176" x="751" y="732.0796"/><text fill="#000000" font-family="sans-serif" font-size="20" font-style="italic" lengthAdjust="spacing" textLength="162" x="758" y="760.4596">«component (C4)»</text><text fill="#000000" font-family="sans-serif" font-size="20" lengthAdjust="spacing" textLength="66" x="806" y="787.6995">Service</text><rect fill="#E2E2F0" height="68.4799" rx="2.5" ry="2.5" style="stroke:#181818;stroke-width:0.5;" width="176" x="1212.625" y="64.4799"/><text fill="#000000" font-family="sans-serif" font-size="20" font-style="italic" lengthAdjust="spacing" textLength="162" x="1219.625" y="92.8599">«component (C4)»</text><text fill="#000000" font-family="sans-serif" font-size="20" lengthAdjust="spacing" textLength="49" x="1276.125" y="120.0999">HTTP</text><rect fill="#E2E2F0" height="68.4799" rx="2.5" ry="2.5" style="stroke:#181818;stroke-width:0.5;" width="176" x="1212.625" y="732.0796"/><text fill="#000000" font-family="sans-serif" font-size="20" font-style="italic" lengthAdjust="spacing" textLength="162" x="1219.625" y="760.4596">«component (C4)»</text><text fill="#000000" font-family="sans-serif" font-size="20" lengthAdjust="spacing" textLength="49" x="1276.125" y="787.6995">HTTP</text><rect fill="#E2E2F0" height="68.4799" rx="2.5" ry="2.5" style="stroke:#181818;stroke-width:0.5;" width="176" x="1671.25" y="64.4799"/><text fill="#000000" font-family="sans-serif" font-size="20" font-style="italic" lengthAdjust="spacing" textLength="162" x="1678.25" y="92.8599">«component (C4)»</text><text fill="#000000" font-family="sans-serif" font-size="20" lengthAdjust="spacing" textLength="162" x="1678.25" y="120.0999">MD Management</text><rect fill="#E2E2F0" height="68.4799" rx="2.5" ry="2.5" style="stroke:#181818;stroke-width:0.5;" width="176" x="1671.25" y="732.0796"/><text fill="#000000" font-family="sans-serif" font-size="20" font-style="italic" lengthAdjust="spacing" textLength="162" x="1678.25" y="760.4596">«component (C4)»</text><text fill="#000000" font-family="sans-serif" font-size="20" lengthAdjust="spacing" textLength="162" x="1678.25" y="787.6995">MD Management</text><rect fill="#FFFFFF" height="571.1197" style="stroke:#181818;stroke-width:1.0;" width="10" x="85.5" y="143.9599"/><rect fill="#FFFFFF" height="41.24" style="stroke:#181818;stroke-width:1.0;" width="10" x="428.75" y="177.1999"/><rect fill="#FFFFFF" height="455.3997" style="stroke:#181818;stroke-width:1.0;" width="10" x="428.75" y="259.6798"/><rect fill="#FFFFFF" height="372.9198" style="stroke:#181818;stroke-width:1.0;" width="10" x="631.375" y="300.9198"/><rect fill="#FFFFFF" height="28" style="stroke:#181818;stroke-width:1.0;" width="10" x="636.375" y="350.1598"/><rect fill="#FFFFFF" height="206.1999" style="stroke:#181818;stroke-width:1.0;" width="10" x="834" y="426.3997"/><rect fill="#FFFFFF" height="41.24" style="stroke:#181818;stroke-width:1.0;" width="10" x="1754.25" y="508.8797"/><polygon fill="#181818" points="416.75,173.1999,426.75,177.1999,416.75,181.1999,420.75,177.1999" style="stroke:#181818;stroke-width:1.0;"/><line style="stroke:#181818;stroke-width:1.0;" x1="95.5" x2="422.75" y1="177.1999" y2="177.1999"/><text fill="#000000" font-family="sans-serif" font-size="20" font-weight="bold" lengthAdjust="spacing" textLength="11.625" x="102.5" y="169.3399">1</text><text fill="#000000" font-family="sans-serif" font-size="20" lengthAdjust="spacing" textLength="201" x="118.125" y="169.3399">asks to create a room</text><polygon fill="#181818" points="106.5,214.4398,96.5,218.4398,106.5,222.4398,102.5,218.4398" style="stroke:#181818;stroke-width:1.0;"/><line style="stroke:#181818;stroke-width:1.0;stroke-dasharray:2.0,2.0;" x1="100.5" x2="432.75" y1="218.4398" y2="218.4398"/><text fill="#000000" font-family="sans-serif" font-size="20" font-weight="bold" lengthAdjust="spacing" textLength="11.625" x="112.5" y="210.5799">2</text><text fill="#000000" font-family="sans-serif" font-size="20" lengthAdjust="spacing" textLength="176" x="128.125" y="210.5799">asks for room data</text><polygon fill="#181818" points="416.75,255.6798,426.75,259.6798,416.75,263.6798,420.75,259.6798" style="stroke:#181818;stroke-width:1.0;"/><line style="stroke:#181818;stroke-width:1.0;" x1="95.5" x2="422.75" y1="259.6798" y2="259.6798"/><text fill="#000000" font-family="sans-serif" font-size="20" font-weight="bold" lengthAdjust="spacing" textLength="11.625" x="102.5" y="251.8198">3</text><text fill="#000000" font-family="sans-serif" font-size="20" lengthAdjust="spacing" textLength="188" x="118.125" y="251.8198">inputs required data</text><polygon fill="#181818" points="619.375,296.9198,629.375,300.9198,619.375,304.9198,623.375,300.9198" style="stroke:#181818;stroke-width:1.0;"/><line style="stroke:#181818;stroke-width:1.0;" x1="438.75" x2="625.375" y1="300.9198" y2="300.9198"/><text fill="#000000" font-family="sans-serif" font-size="20" font-weight="bold" lengthAdjust="spacing" textLength="11.625" x="445.75" y="293.0598">4</text><text fill="#000000" font-family="sans-serif" font-size="20" lengthAdjust="spacing" textLength="158" x="461.375" y="293.0598">create new room</text><line style="stroke:#181818;stroke-width:1.0;" x1="646.375" x2="688.375" y1="342.1598" y2="342.1598"/><line style="stroke:#181818;stroke-width:1.0;" x1="688.375" x2="688.375" y1="342.1598" y2="355.1598"/><line style="stroke:#181818;stroke-width:1.0;" x1="647.375" x2="688.375" y1="355.1598" y2="355.1598"/><polygon fill="#181818" points="657.375,351.1598,647.375,355.1598,657.375,359.1598,653.375,355.1598" style="stroke:#181818;stroke-width:1.0;"/><text fill="#000000" font-family="sans-serif" font-size="20" font-weight="bold" lengthAdjust="spacing" textLength="11.625" x="653.375" y="334.2998">5</text><text fill="#000000" font-family="sans-serif" font-size="20" lengthAdjust="spacing" textLength="118" x="669" y="334.2998">validate data</text><polygon fill="#181818" points="822,422.3997,832,426.3997,822,430.3997,826,426.3997" style="stroke:#181818;stroke-width:1.0;"/><line style="stroke:#181818;stroke-width:1.0;" x1="641.375" x2="828" y1="426.3997" y2="426.3997"/><text fill="#000000" font-family="sans-serif" font-size="20" font-weight="bold" lengthAdjust="spacing" textLength="11.625" x="648.375" y="418.5398">6</text><text fill="#000000" font-family="sans-serif" font-size="20" lengthAdjust="spacing" textLength="158" x="664" y="418.5398">create new room</text><polygon fill="#181818" points="1288.625,463.6397,1298.625,467.6397,1288.625,471.6397,1292.625,467.6397" style="stroke:#181818;stroke-width:1.0;"/><line style="stroke:#181818;stroke-width:1.0;" x1="844" x2="1294.625" y1="467.6397" y2="467.6397"/><text fill="#000000" font-family="sans-serif" font-size="20" font-weight="bold" lengthAdjust="spacing" textLength="11.625" x="851" y="459.7797">7</text><text fill="#000000" font-family="sans-serif" font-size="20" lengthAdjust="spacing" textLength="417" x="866.625" y="459.7797">post(/buildings/:building/floors/:floor/rooms)</text><polygon fill="#181818" points="1742.25,504.8797,1752.25,508.8797,1742.25,512.8797,1746.25,508.8797" style="stroke:#181818;stroke-width:1.0;"/><line style="stroke:#181818;stroke-width:1.0;" x1="1300.625" x2="1748.25" y1="508.8797" y2="508.8797"/><text fill="#000000" font-family="sans-serif" font-size="20" font-weight="bold" lengthAdjust="spacing" textLength="11.625" x="1307.625" y="501.0197">8</text><text fill="#000000" font-family="sans-serif" font-size="20" lengthAdjust="spacing" textLength="419" x="1323.25" y="501.0197">POST /buildings/:building/floors/:floor/rooms</text><polygon fill="#181818" points="1311.625,546.1197,1301.625,550.1197,1311.625,554.1197,1307.625,550.1197" style="stroke:#181818;stroke-width:1.0;"/><line style="stroke:#181818;stroke-width:1.0;stroke-dasharray:2.0,2.0;" x1="1305.625" x2="1758.25" y1="550.1197" y2="550.1197"/><text fill="#000000" font-family="sans-serif" font-size="20" font-weight="bold" lengthAdjust="spacing" textLength="11.625" x="1317.625" y="542.2597">9</text><text fill="#000000" font-family="sans-serif" font-size="20" lengthAdjust="spacing" textLength="111" x="1333.25" y="542.2597">201 Created</text><polygon fill="#181818" points="855,587.3596,845,591.3596,855,595.3596,851,591.3596" style="stroke:#181818;stroke-width:1.0;"/><line style="stroke:#181818;stroke-width:1.0;stroke-dasharray:2.0,2.0;" x1="849" x2="1299.625" y1="591.3596" y2="591.3596"/><text fill="#000000" font-family="sans-serif" font-size="20" font-weight="bold" lengthAdjust="spacing" textLength="23.25" x="861" y="583.4997">10</text><text fill="#000000" font-family="sans-serif" font-size="20" lengthAdjust="spacing" textLength="125" x="888.25" y="583.4997">createdRoom</text><polygon fill="#181818" points="652.375,628.5996,642.375,632.5996,652.375,636.5996,648.375,632.5996" style="stroke:#181818;stroke-width:1.0;"/><line style="stroke:#181818;stroke-width:1.0;stroke-dasharray:2.0,2.0;" x1="646.375" x2="838" y1="632.5996" y2="632.5996"/><text fill="#000000" font-family="sans-serif" font-size="20" font-weight="bold" lengthAdjust="spacing" textLength="23.25" x="658.375" y="624.7396">11</text><text fill="#000000" font-family="sans-serif" font-size="20" lengthAdjust="spacing" textLength="125" x="685.625" y="624.7396">createdRoom</text><polygon fill="#181818" points="449.75,669.8396,439.75,673.8396,449.75,677.8396,445.75,673.8396" style="stroke:#181818;stroke-width:1.0;"/><line style="stroke:#181818;stroke-width:1.0;stroke-dasharray:2.0,2.0;" x1="443.75" x2="635.375" y1="673.8396" y2="673.8396"/><text fill="#000000" font-family="sans-serif" font-size="20" font-weight="bold" lengthAdjust="spacing" textLength="23.25" x="455.75" y="665.9796">12</text><text fill="#000000" font-family="sans-serif" font-size="20" lengthAdjust="spacing" textLength="125" x="483" y="665.9796">createdRoom</text><polygon fill="#181818" points="101.5,711.0796,91.5,715.0796,101.5,719.0796,97.5,715.0796" style="stroke:#181818;stroke-width:1.0;"/><line style="stroke:#181818;stroke-width:1.0;stroke-dasharray:2.0,2.0;" x1="95.5" x2="432.75" y1="715.0796" y2="715.0796"/><text fill="#000000" font-family="sans-serif" font-size="20" font-weight="bold" lengthAdjust="spacing" textLength="23.25" x="107.5" y="707.2196">13</text><text fill="#000000" font-family="sans-serif" font-size="20" lengthAdjust="spacing" textLength="282" x="134.75" y="707.2196">returns confirmation message</text><!--SRC=[ZPDDRzim38Rl-XM4TsaEGRfY9yC8CDWODc16WoOhCA0NnL8o8RRawIFj-kj7od7gsEkGYorPpqkHBsbtKBhbbZUrgGvIW90x7ch_nMY_LgyIxcuP3zxeq6obPQwdeUYuZNpndskrrutKFiigV4gxN4AtO8nNtbZ8I-0EafmtRN1GSittqYPiQruWoJBtntdPm4t-QRbyqe_A1LwhL-wLqRFaBIO3mAkzgbJBjSUOgnZqnpV8JTCQZLW2YFSR2ZYRoChx8ifA8q8jhn2i7nwZO2tjKLNNABvkDbrgjFWdBxK0B9vD7PYH1MLnygZfQpfPyE6xsl_oFsLTc-TnNKNdyLJxxkNO6tNaNgALZ66BvijeQefn3WwyWSfAEkPWZMc6-2hosNm-5EomqGI2u9up8IVyEJxEKF0EhFmTbAMP8y4ONn5FtKhxFBHy7cM2nuoGCtd4oH5qSXcIk452jErrrDx_t837Z10aOrjJQ8tpDujjKBLGUkyMQRzSx6fZB7w8xmN5SJF6eemIn0QbiBfVR-1QzQ20ecGKOFwMnztjHyXZskAYDYHFTuwg4mzKsG0bYdNLZQoUe6H3DEpSmtV0QEt5R5ZfWzKEAgDtoZRnjuP6EeSpEfcIYptx2m00]--></g></svg>