<?xml version="1.0" encoding="UTF-8" standalone="no"?><svg xmlns="http://www.w3.org/2000/svg" xmlns:xlink="http://www.w3.org/1999/xlink" contentStyleType="text/css" height="758px" preserveAspectRatio="none" style="width:1986px;height:758px;background:#FFFFFF;" version="1.1" viewBox="0 0 1986 758" width="1986px" zoomAndPan="magnify"><defs/><g><rect fill="#DDDDDD" height="746.0625" style="stroke:#181818;stroke-width:0.5;" width="1134" x="358" y="6"/><text fill="#000000" font-family="sans-serif" font-size="20" font-weight="bold" lengthAdjust="spacing" textLength="153" x="848.5" y="24.5645">«system (C4»</text><text fill="#000000" font-family="sans-serif" font-size="20" font-weight="bold" lengthAdjust="spacing" textLength="156" x="847" y="47.8457">Visualization)</text><rect fill="#FFFFE0" height="746.0625" style="stroke:#181818;stroke-width:0.5;" width="209" x="1771" y="6"/><text fill="#000000" font-family="sans-serif" font-size="20" font-weight="bold" lengthAdjust="spacing" textLength="162" x="1794.5" y="24.5645">«system (C4)»</text><text fill="#000000" font-family="sans-serif" font-size="20" font-weight="bold" lengthAdjust="spacing" textLength="193" x="1779" y="47.8457">MD Management</text><rect fill="#FFFFFF" height="519.6563" style="stroke:#181818;stroke-width:1.0;" width="10" x="90.5" y="128.125"/><rect fill="#FFFFFF" height="37.2813" style="stroke:#181818;stroke-width:1.0;" width="10" x="457.5" y="157.4063"/><rect fill="#FFFFFF" height="415.8125" style="stroke:#181818;stroke-width:1.0;" width="10" x="457.5" y="231.9688"/><rect fill="#FFFFFF" height="341.25" style="stroke:#181818;stroke-width:1.0;" width="10" x="673.5" y="269.25"/><rect fill="#FFFFFF" height="28" style="stroke:#181818;stroke-width:1.0;" width="10" x="678.5" y="314.5313"/><rect fill="#FFFFFF" height="186.4063" style="stroke:#181818;stroke-width:1.0;" width="10" x="889.5" y="386.8125"/><rect fill="#FFFFFF" height="37.2813" style="stroke:#181818;stroke-width:1.0;" width="10" x="1870.5" y="461.375"/><line style="stroke:#181818;stroke-width:0.5;stroke-dasharray:5.0,5.0;" x1="95" x2="95" y1="118.125" y2="665.7813"/><line style="stroke:#181818;stroke-width:0.5;stroke-dasharray:5.0,5.0;" x1="462" x2="462" y1="118.125" y2="665.7813"/><line style="stroke:#181818;stroke-width:0.5;stroke-dasharray:5.0,5.0;" x1="678" x2="678" y1="118.125" y2="665.7813"/><line style="stroke:#181818;stroke-width:0.5;stroke-dasharray:5.0,5.0;" x1="894" x2="894" y1="118.125" y2="665.7813"/><line style="stroke:#181818;stroke-width:0.5;stroke-dasharray:5.0,5.0;" x1="1387" x2="1387" y1="118.125" y2="665.7813"/><line style="stroke:#181818;stroke-width:0.5;stroke-dasharray:5.0,5.0;" x1="1875" x2="1875" y1="118.125" y2="665.7813"/><text fill="#000000" font-family="sans-serif" font-size="20" lengthAdjust="spacing" textLength="175" x="5" y="113.4082">Campus Manager</text><ellipse cx="95.5" cy="43.3438" fill="#E2E2F0" rx="8" ry="8" style="stroke:#181818;stroke-width:0.5;"/><path d="M95.5,51.3438 L95.5,78.3438 M82.5,59.3438 L108.5,59.3438 M95.5,78.3438 L82.5,93.3438 M95.5,78.3438 L108.5,93.3438 " fill="none" style="stroke:#181818;stroke-width:0.5;"/><text fill="#000000" font-family="sans-serif" font-size="20" lengthAdjust="spacing" textLength="175" x="5" y="683.3457">Campus Manager</text><ellipse cx="95.5" cy="696.5625" fill="#E2E2F0" rx="8" ry="8" style="stroke:#181818;stroke-width:0.5;"/><path d="M95.5,704.5625 L95.5,731.5625 M82.5,712.5625 L108.5,712.5625 M95.5,731.5625 L82.5,746.5625 M95.5,731.5625 L108.5,746.5625 " fill="none" style="stroke:#181818;stroke-width:0.5;"/><rect fill="#E2E2F0" height="60.5625" rx="2.5" ry="2.5" style="stroke:#181818;stroke-width:0.5;" width="201" x="362" y="56.5625"/><text fill="#000000" font-family="sans-serif" font-size="20" font-style="italic" lengthAdjust="spacing" textLength="187" x="369" y="82.127">«component (C4)»</text><text fill="#000000" font-family="sans-serif" font-size="20" lengthAdjust="spacing" textLength="144" x="390.5" y="105.4082">UI Component</text><rect fill="#E2E2F0" height="60.5625" rx="2.5" ry="2.5" style="stroke:#181818;stroke-width:0.5;" width="201" x="362" y="664.7813"/><text fill="#000000" font-family="sans-serif" font-size="20" font-style="italic" lengthAdjust="spacing" textLength="187" x="369" y="690.3457">«component (C4)»</text><text fill="#000000" font-family="sans-serif" font-size="20" lengthAdjust="spacing" textLength="144" x="390.5" y="713.627">UI Component</text><rect fill="#E2E2F0" height="60.5625" rx="2.5" ry="2.5" style="stroke:#181818;stroke-width:0.5;" width="201" x="578" y="56.5625"/><text fill="#000000" font-family="sans-serif" font-size="20" font-style="italic" lengthAdjust="spacing" textLength="187" x="585" y="82.127">«component (C4)»</text><text fill="#000000" font-family="sans-serif" font-size="20" lengthAdjust="spacing" textLength="73" x="642" y="105.4082">Module</text><rect fill="#E2E2F0" height="60.5625" rx="2.5" ry="2.5" style="stroke:#181818;stroke-width:0.5;" width="201" x="578" y="664.7813"/><text fill="#000000" font-family="sans-serif" font-size="20" font-style="italic" lengthAdjust="spacing" textLength="187" x="585" y="690.3457">«component (C4)»</text><text fill="#000000" font-family="sans-serif" font-size="20" lengthAdjust="spacing" textLength="73" x="642" y="713.627">Module</text><rect fill="#E2E2F0" height="60.5625" rx="2.5" ry="2.5" style="stroke:#181818;stroke-width:0.5;" width="201" x="794" y="56.5625"/><text fill="#000000" font-family="sans-serif" font-size="20" font-style="italic" lengthAdjust="spacing" textLength="187" x="801" y="82.127">«component (C4)»</text><text fill="#000000" font-family="sans-serif" font-size="20" lengthAdjust="spacing" textLength="73" x="858" y="105.4082">Service</text><rect fill="#E2E2F0" height="60.5625" rx="2.5" ry="2.5" style="stroke:#181818;stroke-width:0.5;" width="201" x="794" y="664.7813"/><text fill="#000000" font-family="sans-serif" font-size="20" font-style="italic" lengthAdjust="spacing" textLength="187" x="801" y="690.3457">«component (C4)»</text><text fill="#000000" font-family="sans-serif" font-size="20" lengthAdjust="spacing" textLength="73" x="858" y="713.627">Service</text><rect fill="#E2E2F0" height="60.5625" rx="2.5" ry="2.5" style="stroke:#181818;stroke-width:0.5;" width="201" x="1287" y="56.5625"/><text fill="#000000" font-family="sans-serif" font-size="20" font-style="italic" lengthAdjust="spacing" textLength="187" x="1294" y="82.127">«component (C4)»</text><text fill="#000000" font-family="sans-serif" font-size="20" lengthAdjust="spacing" textLength="51" x="1362" y="105.4082">HTTP</text><rect fill="#E2E2F0" height="60.5625" rx="2.5" ry="2.5" style="stroke:#181818;stroke-width:0.5;" width="201" x="1287" y="664.7813"/><text fill="#000000" font-family="sans-serif" font-size="20" font-style="italic" lengthAdjust="spacing" textLength="187" x="1294" y="690.3457">«component (C4)»</text><text fill="#000000" font-family="sans-serif" font-size="20" lengthAdjust="spacing" textLength="51" x="1362" y="713.627">HTTP</text><rect fill="#E2E2F0" height="60.5625" rx="2.5" ry="2.5" style="stroke:#181818;stroke-width:0.5;" width="201" x="1775" y="56.5625"/><text fill="#000000" font-family="sans-serif" font-size="20" font-style="italic" lengthAdjust="spacing" textLength="187" x="1782" y="82.127">«component (C4)»</text><text fill="#000000" font-family="sans-serif" font-size="20" lengthAdjust="spacing" textLength="170" x="1790.5" y="105.4082">MD Management</text><rect fill="#E2E2F0" height="60.5625" rx="2.5" ry="2.5" style="stroke:#181818;stroke-width:0.5;" width="201" x="1775" y="664.7813"/><text fill="#000000" font-family="sans-serif" font-size="20" font-style="italic" lengthAdjust="spacing" textLength="187" x="1782" y="690.3457">«component (C4)»</text><text fill="#000000" font-family="sans-serif" font-size="20" lengthAdjust="spacing" textLength="170" x="1790.5" y="713.627">MD Management</text><rect fill="#FFFFFF" height="519.6563" style="stroke:#181818;stroke-width:1.0;" width="10" x="90.5" y="128.125"/><rect fill="#FFFFFF" height="37.2813" style="stroke:#181818;stroke-width:1.0;" width="10" x="457.5" y="157.4063"/><rect fill="#FFFFFF" height="415.8125" style="stroke:#181818;stroke-width:1.0;" width="10" x="457.5" y="231.9688"/><rect fill="#FFFFFF" height="341.25" style="stroke:#181818;stroke-width:1.0;" width="10" x="673.5" y="269.25"/><rect fill="#FFFFFF" height="28" style="stroke:#181818;stroke-width:1.0;" width="10" x="678.5" y="314.5313"/><rect fill="#FFFFFF" height="186.4063" style="stroke:#181818;stroke-width:1.0;" width="10" x="889.5" y="386.8125"/><rect fill="#FFFFFF" height="37.2813" style="stroke:#181818;stroke-width:1.0;" width="10" x="1870.5" y="461.375"/><polygon fill="#181818" points="445.5,153.4063,455.5,157.4063,445.5,161.4063,449.5,157.4063" style="stroke:#181818;stroke-width:1.0;"/><line style="stroke:#181818;stroke-width:1.0;" x1="100.5" x2="451.5" y1="157.4063" y2="157.4063"/><text fill="#000000" font-family="sans-serif" font-size="20" font-weight="bold" lengthAdjust="spacing" textLength="14" x="107.5" y="150.6895">1</text><text fill="#000000" font-family="sans-serif" font-size="20" lengthAdjust="spacing" textLength="215" x="125.5" y="150.6895">asks to create a room</text><polygon fill="#181818" points="111.5,190.6875,101.5,194.6875,111.5,198.6875,107.5,194.6875" style="stroke:#181818;stroke-width:1.0;"/><line style="stroke:#181818;stroke-width:1.0;stroke-dasharray:2.0,2.0;" x1="105.5" x2="461.5" y1="194.6875" y2="194.6875"/><text fill="#000000" font-family="sans-serif" font-size="20" font-weight="bold" lengthAdjust="spacing" textLength="14" x="117.5" y="187.9707">2</text><text fill="#000000" font-family="sans-serif" font-size="20" lengthAdjust="spacing" textLength="186" x="135.5" y="187.9707">asks for room data</text><polygon fill="#181818" points="445.5,227.9688,455.5,231.9688,445.5,235.9688,449.5,231.9688" style="stroke:#181818;stroke-width:1.0;"/><line style="stroke:#181818;stroke-width:1.0;" x1="100.5" x2="451.5" y1="231.9688" y2="231.9688"/><text fill="#000000" font-family="sans-serif" font-size="20" font-weight="bold" lengthAdjust="spacing" textLength="14" x="107.5" y="225.252">3</text><text fill="#000000" font-family="sans-serif" font-size="20" lengthAdjust="spacing" textLength="205" x="125.5" y="225.252">inputs required data</text><polygon fill="#181818" points="661.5,265.25,671.5,269.25,661.5,273.25,665.5,269.25" style="stroke:#181818;stroke-width:1.0;"/><line style="stroke:#181818;stroke-width:1.0;" x1="467.5" x2="667.5" y1="269.25" y2="269.25"/><text fill="#000000" font-family="sans-serif" font-size="20" font-weight="bold" lengthAdjust="spacing" textLength="14" x="474.5" y="262.5332">4</text><text fill="#000000" font-family="sans-serif" font-size="20" lengthAdjust="spacing" textLength="169" x="492.5" y="262.5332">create new room</text><line style="stroke:#181818;stroke-width:1.0;" x1="688.5" x2="730.5" y1="306.5313" y2="306.5313"/><line style="stroke:#181818;stroke-width:1.0;" x1="730.5" x2="730.5" y1="306.5313" y2="319.5313"/><line style="stroke:#181818;stroke-width:1.0;" x1="689.5" x2="730.5" y1="319.5313" y2="319.5313"/><polygon fill="#181818" points="699.5,315.5313,689.5,319.5313,699.5,323.5313,695.5,319.5313" style="stroke:#181818;stroke-width:1.0;"/><text fill="#000000" font-family="sans-serif" font-size="20" font-weight="bold" lengthAdjust="spacing" textLength="14" x="695.5" y="299.8145">5</text><text fill="#000000" font-family="sans-serif" font-size="20" lengthAdjust="spacing" textLength="131" x="713.5" y="299.8145">validate data</text><polygon fill="#181818" points="877.5,382.8125,887.5,386.8125,877.5,390.8125,881.5,386.8125" style="stroke:#181818;stroke-width:1.0;"/><line style="stroke:#181818;stroke-width:1.0;" x1="683.5" x2="883.5" y1="386.8125" y2="386.8125"/><text fill="#000000" font-family="sans-serif" font-size="20" font-weight="bold" lengthAdjust="spacing" textLength="14" x="690.5" y="380.0957">6</text><text fill="#000000" font-family="sans-serif" font-size="20" lengthAdjust="spacing" textLength="169" x="708.5" y="380.0957">create new room</text><polygon fill="#181818" points="1375.5,420.0938,1385.5,424.0938,1375.5,428.0938,1379.5,424.0938" style="stroke:#181818;stroke-width:1.0;"/><line style="stroke:#181818;stroke-width:1.0;" x1="899.5" x2="1381.5" y1="424.0938" y2="424.0938"/><text fill="#000000" font-family="sans-serif" font-size="20" font-weight="bold" lengthAdjust="spacing" textLength="14" x="906.5" y="417.377">7</text><text fill="#000000" font-family="sans-serif" font-size="20" lengthAdjust="spacing" textLength="446" x="924.5" y="417.377">post(/buildings/:building/floors/:floor/rooms)</text><polygon fill="#181818" points="1858.5,457.375,1868.5,461.375,1858.5,465.375,1862.5,461.375" style="stroke:#181818;stroke-width:1.0;"/><line style="stroke:#181818;stroke-width:1.0;" x1="1387.5" x2="1864.5" y1="461.375" y2="461.375"/><text fill="#000000" font-family="sans-serif" font-size="20" font-weight="bold" lengthAdjust="spacing" textLength="14" x="1394.5" y="454.6582">8</text><text fill="#000000" font-family="sans-serif" font-size="20" lengthAdjust="spacing" textLength="446" x="1412.5" y="454.6582">POST /buildings/:building/floors/:floor/rooms</text><polygon fill="#181818" points="1398.5,494.6563,1388.5,498.6563,1398.5,502.6563,1394.5,498.6563" style="stroke:#181818;stroke-width:1.0;"/><line style="stroke:#181818;stroke-width:1.0;stroke-dasharray:2.0,2.0;" x1="1392.5" x2="1874.5" y1="498.6563" y2="498.6563"/><text fill="#000000" font-family="sans-serif" font-size="20" font-weight="bold" lengthAdjust="spacing" textLength="14" x="1404.5" y="491.9395">9</text><text fill="#000000" font-family="sans-serif" font-size="20" lengthAdjust="spacing" textLength="124" x="1422.5" y="491.9395">201 Created</text><polygon fill="#181818" points="910.5,531.9375,900.5,535.9375,910.5,539.9375,906.5,535.9375" style="stroke:#181818;stroke-width:1.0;"/><line style="stroke:#181818;stroke-width:1.0;stroke-dasharray:2.0,2.0;" x1="904.5" x2="1386.5" y1="535.9375" y2="535.9375"/><text fill="#000000" font-family="sans-serif" font-size="20" font-weight="bold" lengthAdjust="spacing" textLength="28" x="916.5" y="529.2207">10</text><text fill="#000000" font-family="sans-serif" font-size="20" lengthAdjust="spacing" textLength="134" x="948.5" y="529.2207">createdRoom</text><polygon fill="#181818" points="694.5,569.2188,684.5,573.2188,694.5,577.2188,690.5,573.2188" style="stroke:#181818;stroke-width:1.0;"/><line style="stroke:#181818;stroke-width:1.0;stroke-dasharray:2.0,2.0;" x1="688.5" x2="893.5" y1="573.2188" y2="573.2188"/><text fill="#000000" font-family="sans-serif" font-size="20" font-weight="bold" lengthAdjust="spacing" textLength="28" x="700.5" y="566.502">11</text><text fill="#000000" font-family="sans-serif" font-size="20" lengthAdjust="spacing" textLength="134" x="732.5" y="566.502">createdRoom</text><polygon fill="#181818" points="478.5,606.5,468.5,610.5,478.5,614.5,474.5,610.5" style="stroke:#181818;stroke-width:1.0;"/><line style="stroke:#181818;stroke-width:1.0;stroke-dasharray:2.0,2.0;" x1="472.5" x2="677.5" y1="610.5" y2="610.5"/><text fill="#000000" font-family="sans-serif" font-size="20" font-weight="bold" lengthAdjust="spacing" textLength="28" x="484.5" y="603.7832">12</text><text fill="#000000" font-family="sans-serif" font-size="20" lengthAdjust="spacing" textLength="134" x="516.5" y="603.7832">createdRoom</text><polygon fill="#181818" points="106.5,643.7813,96.5,647.7813,106.5,651.7813,102.5,647.7813" style="stroke:#181818;stroke-width:1.0;"/><line style="stroke:#181818;stroke-width:1.0;stroke-dasharray:2.0,2.0;" x1="100.5" x2="461.5" y1="647.7813" y2="647.7813"/><text fill="#000000" font-family="sans-serif" font-size="20" font-weight="bold" lengthAdjust="spacing" textLength="28" x="112.5" y="641.0645">13</text><text fill="#000000" font-family="sans-serif" font-size="20" lengthAdjust="spacing" textLength="301" x="144.5" y="641.0645">returns confirmation message</text><!--SRC=[ZPDDRzim38Rl-XM4TsaEGRfY9yC8CDWODc16WoOhCA0NnL8o8RRawIFj-kj7od7gsEkGYorPpqkHBsbtKBhbbZUrgGvIW90x7ch_nMY_LgyIxcuP3zxeq6obPQwdeUYuZNpndskrrutKFiigV4gxN4AtO8nNtbZ8I-0EafmtRN1GSittqYPiQruWoJBtntdPm4t-QRbyqe_A1LwhL-wLqRFaBIO3mAkzgbJBjSUOgnZqnpV8JTCQZLW2YFSR2ZYRoChx8ifA8q8jhn2i7nwZO2tjKLNNABvkDbrgjFWdBxK0B9vD7PYH1MLnygZfQpfPyE6xsl_oFsLTc-TnNKNdyLJxxkNO6tNaNgALZ66BvijeQefn3WwyWSfAEkPWZMc6-2hosNm-5EomqGI2u9up8IVyEJxEKF0EhFmTbAMP8y4ONn5FtKhxFBHy7cM2nuoGCtd4oH5qSXcIk452jErrrDx_t837Z10aOrjJQ8tpDujjKBLGUkyMQRzSx6fZB7w8xmN5SJF6eemIn0QbiBfVR-1QzQ20ecGKOFwMnztjHyXZskAYDYHFTuwg4mzKsG0bYdNLZQoUe6H3DEpSmtV0QEt5R5ZfWzKEAgDtoZRnjuP6EeSpEfcIYptx2m00]--></g></svg>