<?xml version="1.0" encoding="UTF-8" standalone="no"?><svg xmlns="http://www.w3.org/2000/svg" xmlns:xlink="http://www.w3.org/1999/xlink" contentStyleType="text/css" height="661px" preserveAspectRatio="none" style="width:1274px;height:661px;background:#FFFFFF;" version="1.1" viewBox="0 0 1274 661" width="1274px" zoomAndPan="magnify"><defs/><g><rect fill="#DDDDDD" height="649.794" style="stroke:#181818;stroke-width:0.5;" width="727" x="233" y="6"/><text fill="#000000" font-family="sans-serif" font-size="13" font-weight="bold" lengthAdjust="spacing" textLength="96" x="548.5" y="19.897">&lt;&lt;system (C4&gt;&gt;</text><text fill="#000000" font-family="sans-serif" font-size="13" font-weight="bold" lengthAdjust="spacing" textLength="88" x="552.5" y="37.603">Visualization)</text><rect fill="#FFFFE0" height="649.794" style="stroke:#181818;stroke-width:0.5;" width="139" x="1129.5" y="6"/><text fill="#000000" font-family="sans-serif" font-size="13" font-weight="bold" lengthAdjust="spacing" textLength="100" x="1149" y="19.897">&lt;&lt;system (C4)&gt;&gt;</text><text fill="#000000" font-family="sans-serif" font-size="13" font-weight="bold" lengthAdjust="spacing" textLength="114" x="1142" y="37.603">MD Management</text><rect fill="#FFFFFF" height="447.1782" style="stroke:#181818;stroke-width:1.0;" width="10" x="63" y="108.5479"/><rect fill="#FFFFFF" height="31.706" style="stroke:#181818;stroke-width:1.0;" width="10" x="295" y="132.2539"/><rect fill="#FFFFFF" height="360.0602" style="stroke:#181818;stroke-width:1.0;" width="10" x="295" y="195.6659"/><rect fill="#FFFFFF" height="296.6481" style="stroke:#181818;stroke-width:1.0;" width="10" x="436" y="227.3719"/><rect fill="#FFFFFF" height="28" style="stroke:#181818;stroke-width:1.0;" width="10" x="441" y="267.0779"/><rect fill="#FFFFFF" height="158.5301" style="stroke:#181818;stroke-width:1.0;" width="10" x="577" y="333.784"/><rect fill="#FFFFFF" height="31.706" style="stroke:#181818;stroke-width:1.0;" width="10" x="1194" y="397.196"/><line style="stroke:#181818;stroke-width:0.5;stroke-dasharray:5.0,5.0;" x1="68" x2="68" y1="98.5479" y2="573.7261"/><line style="stroke:#181818;stroke-width:0.5;stroke-dasharray:5.0,5.0;" x1="300" x2="300" y1="98.5479" y2="573.7261"/><line style="stroke:#181818;stroke-width:0.5;stroke-dasharray:5.0,5.0;" x1="441" x2="441" y1="98.5479" y2="573.7261"/><line style="stroke:#181818;stroke-width:0.5;stroke-dasharray:5.0,5.0;" x1="582" x2="582" y1="98.5479" y2="573.7261"/><line style="stroke:#181818;stroke-width:0.5;stroke-dasharray:5.0,5.0;" x1="893" x2="893" y1="98.5479" y2="573.7261"/><line style="stroke:#181818;stroke-width:0.5;stroke-dasharray:5.0,5.0;" x1="1198.5" x2="1198.5" y1="98.5479" y2="573.7261"/><text fill="#000000" font-family="sans-serif" font-size="14" lengthAdjust="spacing" textLength="120" x="5" y="94.4459">Campus Manager</text><ellipse cx="68" cy="27.9799" fill="#E2E2F0" rx="8" ry="8" style="stroke:#181818;stroke-width:0.5;"/><path d="M68,35.9799 L68,62.9799 M55,43.9799 L81,43.9799 M68,62.9799 L55,77.9799 M68,62.9799 L81,77.9799 " fill="none" style="stroke:#181818;stroke-width:0.5;"/><text fill="#000000" font-family="sans-serif" font-size="14" lengthAdjust="spacing" textLength="120" x="5" y="587.692">Campus Manager</text><ellipse cx="68" cy="600.294" fill="#E2E2F0" rx="8" ry="8" style="stroke:#181818;stroke-width:0.5;"/><path d="M68,608.294 L68,635.294 M55,616.294 L81,616.294 M68,635.294 L55,650.294 M68,635.294 L81,650.294 " fill="none" style="stroke:#181818;stroke-width:0.5;"/><rect fill="#E2E2F0" height="52.1358" rx="2.5" ry="2.5" style="stroke:#181818;stroke-width:0.5;" width="126" x="237" y="45.412"/><text fill="#000000" font-family="sans-serif" font-size="14" font-style="italic" lengthAdjust="spacing" textLength="112" x="244" y="67.378">«component (C4)»</text><text fill="#000000" font-family="sans-serif" font-size="14" lengthAdjust="spacing" textLength="97" x="251.5" y="86.4459">UI Component</text><rect fill="#E2E2F0" height="52.1358" rx="2.5" ry="2.5" style="stroke:#181818;stroke-width:0.5;" width="126" x="237" y="572.7261"/><text fill="#000000" font-family="sans-serif" font-size="14" font-style="italic" lengthAdjust="spacing" textLength="112" x="244" y="594.692">«component (C4)»</text><text fill="#000000" font-family="sans-serif" font-size="14" lengthAdjust="spacing" textLength="97" x="251.5" y="613.7599">UI Component</text><rect fill="#E2E2F0" height="52.1358" rx="2.5" ry="2.5" style="stroke:#181818;stroke-width:0.5;" width="126" x="378" y="45.412"/><text fill="#000000" font-family="sans-serif" font-size="14" font-style="italic" lengthAdjust="spacing" textLength="112" x="385" y="67.378">«component (C4)»</text><text fill="#000000" font-family="sans-serif" font-size="14" lengthAdjust="spacing" textLength="51" x="415.5" y="86.4459">Module</text><rect fill="#E2E2F0" height="52.1358" rx="2.5" ry="2.5" style="stroke:#181818;stroke-width:0.5;" width="126" x="378" y="572.7261"/><text fill="#000000" font-family="sans-serif" font-size="14" font-style="italic" lengthAdjust="spacing" textLength="112" x="385" y="594.692">«component (C4)»</text><text fill="#000000" font-family="sans-serif" font-size="14" lengthAdjust="spacing" textLength="51" x="415.5" y="613.7599">Module</text><rect fill="#E2E2F0" height="52.1358" rx="2.5" ry="2.5" style="stroke:#181818;stroke-width:0.5;" width="126" x="519" y="45.412"/><text fill="#000000" font-family="sans-serif" font-size="14" font-style="italic" lengthAdjust="spacing" textLength="112" x="526" y="67.378">«component (C4)»</text><text fill="#000000" font-family="sans-serif" font-size="14" lengthAdjust="spacing" textLength="48" x="558" y="86.4459">Service</text><rect fill="#E2E2F0" height="52.1358" rx="2.5" ry="2.5" style="stroke:#181818;stroke-width:0.5;" width="126" x="519" y="572.7261"/><text fill="#000000" font-family="sans-serif" font-size="14" font-style="italic" lengthAdjust="spacing" textLength="112" x="526" y="594.692">«component (C4)»</text><text fill="#000000" font-family="sans-serif" font-size="14" lengthAdjust="spacing" textLength="48" x="558" y="613.7599">Service</text><rect fill="#E2E2F0" height="52.1358" rx="2.5" ry="2.5" style="stroke:#181818;stroke-width:0.5;" width="126" x="830" y="45.412"/><text fill="#000000" font-family="sans-serif" font-size="14" font-style="italic" lengthAdjust="spacing" textLength="112" x="837" y="67.378">«component (C4)»</text><text fill="#000000" font-family="sans-serif" font-size="14" lengthAdjust="spacing" textLength="34" x="876" y="86.4459">HTTP</text><rect fill="#E2E2F0" height="52.1358" rx="2.5" ry="2.5" style="stroke:#181818;stroke-width:0.5;" width="126" x="830" y="572.7261"/><text fill="#000000" font-family="sans-serif" font-size="14" font-style="italic" lengthAdjust="spacing" textLength="112" x="837" y="594.692">«component (C4)»</text><text fill="#000000" font-family="sans-serif" font-size="14" lengthAdjust="spacing" textLength="34" x="876" y="613.7599">HTTP</text><rect fill="#E2E2F0" height="52.1358" rx="2.5" ry="2.5" style="stroke:#181818;stroke-width:0.5;" width="131" x="1133.5" y="45.412"/><text fill="#000000" font-family="sans-serif" font-size="14" font-style="italic" lengthAdjust="spacing" textLength="112" x="1143" y="67.378">«component (C4)»</text><text fill="#000000" font-family="sans-serif" font-size="14" lengthAdjust="spacing" textLength="117" x="1140.5" y="86.4459">MD Management</text><rect fill="#E2E2F0" height="52.1358" rx="2.5" ry="2.5" style="stroke:#181818;stroke-width:0.5;" width="131" x="1133.5" y="572.7261"/><text fill="#000000" font-family="sans-serif" font-size="14" font-style="italic" lengthAdjust="spacing" textLength="112" x="1143" y="594.692">«component (C4)»</text><text fill="#000000" font-family="sans-serif" font-size="14" lengthAdjust="spacing" textLength="117" x="1140.5" y="613.7599">MD Management</text><rect fill="#FFFFFF" height="447.1782" style="stroke:#181818;stroke-width:1.0;" width="10" x="63" y="108.5479"/><rect fill="#FFFFFF" height="31.706" style="stroke:#181818;stroke-width:1.0;" width="10" x="295" y="132.2539"/><rect fill="#FFFFFF" height="360.0602" style="stroke:#181818;stroke-width:1.0;" width="10" x="295" y="195.6659"/><rect fill="#FFFFFF" height="296.6481" style="stroke:#181818;stroke-width:1.0;" width="10" x="436" y="227.3719"/><rect fill="#FFFFFF" height="28" style="stroke:#181818;stroke-width:1.0;" width="10" x="441" y="267.0779"/><rect fill="#FFFFFF" height="158.5301" style="stroke:#181818;stroke-width:1.0;" width="10" x="577" y="333.784"/><rect fill="#FFFFFF" height="31.706" style="stroke:#181818;stroke-width:1.0;" width="10" x="1194" y="397.196"/><polygon fill="#181818" points="283,128.2539,293,132.2539,283,136.2539,287,132.2539" style="stroke:#181818;stroke-width:1.0;"/><line style="stroke:#181818;stroke-width:1.0;" x1="73" x2="289" y1="132.2539" y2="132.2539"/><text fill="#000000" font-family="sans-serif" font-size="13" font-weight="bold" lengthAdjust="spacing" textLength="7" x="80" y="126.4449">1</text><text fill="#000000" font-family="sans-serif" font-size="13" lengthAdjust="spacing" textLength="128" x="91" y="126.4449">asks to create a room</text><polygon fill="#181818" points="84,159.9599,74,163.9599,84,167.9599,80,163.9599" style="stroke:#181818;stroke-width:1.0;"/><line style="stroke:#181818;stroke-width:1.0;stroke-dasharray:2.0,2.0;" x1="78" x2="299" y1="163.9599" y2="163.9599"/><text fill="#000000" font-family="sans-serif" font-size="13" font-weight="bold" lengthAdjust="spacing" textLength="7" x="90" y="158.1509">2</text><text fill="#000000" font-family="sans-serif" font-size="13" lengthAdjust="spacing" textLength="112" x="101" y="158.1509">asks for room data</text><polygon fill="#181818" points="283,191.6659,293,195.6659,283,199.6659,287,195.6659" style="stroke:#181818;stroke-width:1.0;"/><line style="stroke:#181818;stroke-width:1.0;" x1="73" x2="289" y1="195.6659" y2="195.6659"/><text fill="#000000" font-family="sans-serif" font-size="13" font-weight="bold" lengthAdjust="spacing" textLength="7" x="80" y="189.8569">3</text><text fill="#000000" font-family="sans-serif" font-size="13" lengthAdjust="spacing" textLength="122" x="91" y="189.8569">inputs required data</text><polygon fill="#181818" points="424,223.3719,434,227.3719,424,231.3719,428,227.3719" style="stroke:#181818;stroke-width:1.0;"/><line style="stroke:#181818;stroke-width:1.0;" x1="305" x2="430" y1="227.3719" y2="227.3719"/><text fill="#000000" font-family="sans-serif" font-size="13" font-weight="bold" lengthAdjust="spacing" textLength="7" x="312" y="221.5629">4</text><text fill="#000000" font-family="sans-serif" font-size="13" lengthAdjust="spacing" textLength="101" x="323" y="221.5629">create new room</text><line style="stroke:#181818;stroke-width:1.0;" x1="451" x2="493" y1="259.0779" y2="259.0779"/><line style="stroke:#181818;stroke-width:1.0;" x1="493" x2="493" y1="259.0779" y2="272.0779"/><line style="stroke:#181818;stroke-width:1.0;" x1="452" x2="493" y1="272.0779" y2="272.0779"/><polygon fill="#181818" points="462,268.0779,452,272.0779,462,276.0779,458,272.0779" style="stroke:#181818;stroke-width:1.0;"/><text fill="#000000" font-family="sans-serif" font-size="13" font-weight="bold" lengthAdjust="spacing" textLength="7" x="458" y="253.2689">5</text><text fill="#000000" font-family="sans-serif" font-size="13" lengthAdjust="spacing" textLength="77" x="469" y="253.2689">validate data</text><polygon fill="#181818" points="565,329.784,575,333.784,565,337.784,569,333.784" style="stroke:#181818;stroke-width:1.0;"/><line style="stroke:#181818;stroke-width:1.0;" x1="446" x2="571" y1="333.784" y2="333.784"/><text fill="#000000" font-family="sans-serif" font-size="13" font-weight="bold" lengthAdjust="spacing" textLength="7" x="453" y="327.975">6</text><text fill="#000000" font-family="sans-serif" font-size="13" lengthAdjust="spacing" textLength="101" x="464" y="327.975">create new room</text><polygon fill="#181818" points="881,361.49,891,365.49,881,369.49,885,365.49" style="stroke:#181818;stroke-width:1.0;"/><line style="stroke:#181818;stroke-width:1.0;" x1="587" x2="887" y1="365.49" y2="365.49"/><text fill="#000000" font-family="sans-serif" font-size="13" font-weight="bold" lengthAdjust="spacing" textLength="7" x="594" y="359.681">7</text><text fill="#000000" font-family="sans-serif" font-size="13" lengthAdjust="spacing" textLength="271" x="605" y="359.681">post(/buildings/:building/floors/:floor/rooms)</text><polygon fill="#181818" points="1182,393.196,1192,397.196,1182,401.196,1186,397.196" style="stroke:#181818;stroke-width:1.0;"/><line style="stroke:#181818;stroke-width:1.0;" x1="893" x2="1188" y1="397.196" y2="397.196"/><text fill="#000000" font-family="sans-serif" font-size="13" font-weight="bold" lengthAdjust="spacing" textLength="7" x="900" y="391.387">8</text><text fill="#000000" font-family="sans-serif" font-size="13" lengthAdjust="spacing" textLength="271" x="911" y="391.387">POST /buildings/:building/floors/:floor/rooms</text><polygon fill="#181818" points="904,424.902,894,428.902,904,432.902,900,428.902" style="stroke:#181818;stroke-width:1.0;"/><line style="stroke:#181818;stroke-width:1.0;stroke-dasharray:2.0,2.0;" x1="898" x2="1198" y1="428.902" y2="428.902"/><text fill="#000000" font-family="sans-serif" font-size="13" font-weight="bold" lengthAdjust="spacing" textLength="7" x="910" y="423.093">9</text><text fill="#000000" font-family="sans-serif" font-size="13" lengthAdjust="spacing" textLength="71" x="921" y="423.093">201 Created</text><polygon fill="#181818" points="598,456.608,588,460.608,598,464.608,594,460.608" style="stroke:#181818;stroke-width:1.0;"/><line style="stroke:#181818;stroke-width:1.0;stroke-dasharray:2.0,2.0;" x1="592" x2="892" y1="460.608" y2="460.608"/><text fill="#000000" font-family="sans-serif" font-size="13" font-weight="bold" lengthAdjust="spacing" textLength="14" x="604" y="454.799">10</text><text fill="#000000" font-family="sans-serif" font-size="13" lengthAdjust="spacing" textLength="81" x="622" y="454.799">createdRoom</text><polygon fill="#181818" points="457,488.314,447,492.314,457,496.314,453,492.314" style="stroke:#181818;stroke-width:1.0;"/><line style="stroke:#181818;stroke-width:1.0;stroke-dasharray:2.0,2.0;" x1="451" x2="581" y1="492.314" y2="492.314"/><text fill="#000000" font-family="sans-serif" font-size="13" font-weight="bold" lengthAdjust="spacing" textLength="14" x="463" y="486.505">11</text><text fill="#000000" font-family="sans-serif" font-size="13" lengthAdjust="spacing" textLength="81" x="481" y="486.505">createdRoom</text><polygon fill="#181818" points="316,520.0201,306,524.0201,316,528.0201,312,524.0201" style="stroke:#181818;stroke-width:1.0;"/><line style="stroke:#181818;stroke-width:1.0;stroke-dasharray:2.0,2.0;" x1="310" x2="440" y1="524.0201" y2="524.0201"/><text fill="#000000" font-family="sans-serif" font-size="13" font-weight="bold" lengthAdjust="spacing" textLength="14" x="322" y="518.2111">12</text><text fill="#000000" font-family="sans-serif" font-size="13" lengthAdjust="spacing" textLength="81" x="340" y="518.2111">createdRoom</text><polygon fill="#181818" points="79,551.7261,69,555.7261,79,559.7261,75,555.7261" style="stroke:#181818;stroke-width:1.0;"/><line style="stroke:#181818;stroke-width:1.0;stroke-dasharray:2.0,2.0;" x1="73" x2="299" y1="555.7261" y2="555.7261"/><text fill="#000000" font-family="sans-serif" font-size="13" font-weight="bold" lengthAdjust="spacing" textLength="14" x="85" y="549.9171">13</text><text fill="#000000" font-family="sans-serif" font-size="13" lengthAdjust="spacing" textLength="180" x="103" y="549.9171">returns confirmation message</text><!--MD5=[aa7b6539842bacf3224539c69236c924]
@startuml process-view
autonumber
skinparam DefaultTextAlignment<<center>> center

actor CM as "Campus Manager"
box "<<system (C4>>\nVisualization)"<<center>>
  participant CMP as "UI Component" <<component (C4)>>
  participant MOD as "Module" <<component (C4)>>
  participant SRV as "Service" <<component (C4)>>
  participant HTTP as "HTTP" <<component (C4)>>
end box

box "<<system (C4)>>\nMD Management" <<center>>#LightYellow
  participant MDM as "MD Management" <<component (C4)>>
end box

activate CM

CM -> CMP : asks to create a room
activate CMP

CM <- - CMP : asks for room data
deactivate CMP

CM -> CMP : inputs required data
activate CMP

CMP -> MOD : create new room
activate MOD
MOD -> MOD : validate data
activate MOD
deactivate MOD

MOD -> SRV : create new room
activate SRV
SRV -> HTTP : post(/buildings/:building/floors/:floor/rooms)

HTTP -> MDM : POST /buildings/:building/floors/:floor/rooms
activate MDM
MDM - -> HTTP : 201 Created
deactivate MDM

HTTP - -> SRV : createdRoom
deactivate HTTP

SRV - -> MOD : createdRoom
deactivate SRV
MOD - -> CMP : createdRoom
deactivate MOD

CM <- - CMP : returns confirmation message
deactivate CMP

deactivate CM

@enduml

PlantUML version 1.2022.7(Mon Aug 22 18:01:30 WEST 2022)
(GPL source distribution)
Java Runtime: OpenJDK Runtime Environment
JVM: OpenJDK 64-Bit Server VM
Default Encoding: UTF-8
Language: en
Country: GB
--></g></svg>