<?xml version="1.0" encoding="UTF-8" standalone="no"?><svg xmlns="http://www.w3.org/2000/svg" xmlns:xlink="http://www.w3.org/1999/xlink" contentStyleType="text/css" height="701px" preserveAspectRatio="none" style="width:1445px;height:701px;background:#FFFFFF;" version="1.1" viewBox="0 0 1445 701" width="1445px" zoomAndPan="magnify"><defs/><g><rect fill="#DDDDDD" height="689.1879" style="stroke:#181818;stroke-width:0.5;" width="528" x="464" y="6"/><text fill="#000000" font-family="sans-serif" font-size="13" font-weight="bold" lengthAdjust="spacing" textLength="107" x="674.5" y="19.897">«container (C4)»</text><text fill="#000000" font-family="sans-serif" font-size="13" font-weight="bold" lengthAdjust="spacing" textLength="84" x="686" y="37.603">Visualization</text><rect fill="#FFFFE0" height="689.1879" style="stroke:#181818;stroke-width:0.5;" width="126" x="1313" y="6"/><text fill="#000000" font-family="sans-serif" font-size="13" font-weight="bold" lengthAdjust="spacing" textLength="107" x="1322.5" y="19.897">«container (C4)»</text><text fill="#000000" font-family="sans-serif" font-size="13" font-weight="bold" lengthAdjust="spacing" textLength="114" x="1319" y="37.603">MD Management</text><rect fill="#FFFFFF" height="494.5721" style="stroke:#181818;stroke-width:1.0;" width="10" x="78" y="108.5479"/><rect fill="#FFFFFF" height="31.706" style="stroke:#181818;stroke-width:1.0;" width="10" x="512" y="132.2539"/><rect fill="#FFFFFF" height="392.4541" style="stroke:#181818;stroke-width:1.0;" width="10" x="512" y="195.6659"/><rect fill="#FFFFFF" height="185.2361" style="stroke:#181818;stroke-width:1.0;" width="10" x="805" y="227.3719"/><rect fill="#FFFFFF" height="112.0999" style="stroke:#181818;stroke-width:1.0;" width="10" x="805" y="444.314"/><rect fill="#FFFFFF" height="121.8241" style="stroke:#181818;stroke-width:1.0;" width="10" x="934" y="259.0779"/><rect fill="#FFFFFF" height="80.3939" style="stroke:#181818;stroke-width:1.0;" width="10" x="934" y="444.314"/><rect fill="#FFFFFF" height="58.412" style="stroke:#181818;stroke-width:1.0;" width="10" x="1371" y="290.784"/><rect fill="#FFFFFF" height="48.6879" style="stroke:#181818;stroke-width:1.0;" width="10" x="1371" y="444.314"/><rect fill="none" height="290.336" style="stroke:#000000;stroke-width:1.5;" width="1425" x="10" y="305.784"/><line style="stroke:#181818;stroke-width:0.5;stroke-dasharray:5.0,5.0;" x1="83" x2="83" y1="98.5479" y2="613.12"/><line style="stroke:#181818;stroke-width:0.5;stroke-dasharray:5.0,5.0;" x1="517" x2="517" y1="98.5479" y2="613.12"/><line style="stroke:#181818;stroke-width:0.5;stroke-dasharray:5.0,5.0;" x1="810" x2="810" y1="98.5479" y2="613.12"/><line style="stroke:#181818;stroke-width:0.5;stroke-dasharray:5.0,5.0;" x1="939" x2="939" y1="98.5479" y2="613.12"/><line style="stroke:#181818;stroke-width:0.5;stroke-dasharray:5.0,5.0;" x1="1376" x2="1376" y1="98.5479" y2="613.12"/><text fill="#000000" font-family="sans-serif" font-size="14" lengthAdjust="spacing" textLength="120" x="20" y="94.4459">Campus Manager</text><ellipse cx="83" cy="27.9799" fill="#E2E2F0" rx="8" ry="8" style="stroke:#181818;stroke-width:0.5;"/><path d="M83,35.9799 L83,62.9799 M70,43.9799 L96,43.9799 M83,62.9799 L70,77.9799 M83,62.9799 L96,77.9799 " fill="none" style="stroke:#181818;stroke-width:0.5;"/><text fill="#000000" font-family="sans-serif" font-size="14" lengthAdjust="spacing" textLength="120" x="20" y="627.0859">Campus Manager</text><ellipse cx="83" cy="639.6879" fill="#E2E2F0" rx="8" ry="8" style="stroke:#181818;stroke-width:0.5;"/><path d="M83,647.6879 L83,674.6879 M70,655.6879 L96,655.6879 M83,674.6879 L70,689.6879 M83,674.6879 L96,689.6879 " fill="none" style="stroke:#181818;stroke-width:0.5;"/><rect fill="#E2E2F0" height="52.1358" rx="2.5" ry="2.5" style="stroke:#181818;stroke-width:0.5;" width="98" x="468" y="45.412"/><text fill="#000000" font-family="sans-serif" font-size="14" font-style="italic" lengthAdjust="spacing" textLength="84" x="475" y="67.378">«component»</text><text fill="#000000" font-family="sans-serif" font-size="14" lengthAdjust="spacing" textLength="78" x="478" y="86.4459">Component</text><rect fill="#E2E2F0" height="52.1358" rx="2.5" ry="2.5" style="stroke:#181818;stroke-width:0.5;" width="98" x="468" y="612.12"/><text fill="#000000" font-family="sans-serif" font-size="14" font-style="italic" lengthAdjust="spacing" textLength="84" x="475" y="634.0859">«component»</text><text fill="#000000" font-family="sans-serif" font-size="14" lengthAdjust="spacing" textLength="78" x="478" y="653.1539">Component</text><rect fill="#E2E2F0" height="52.1358" rx="2.5" ry="2.5" style="stroke:#181818;stroke-width:0.5;" width="98" x="761" y="45.412"/><text fill="#000000" font-family="sans-serif" font-size="14" font-style="italic" lengthAdjust="spacing" textLength="84" x="768" y="67.378">«component»</text><text fill="#000000" font-family="sans-serif" font-size="14" lengthAdjust="spacing" textLength="48" x="786" y="86.4459">Service</text><rect fill="#E2E2F0" height="52.1358" rx="2.5" ry="2.5" style="stroke:#181818;stroke-width:0.5;" width="98" x="761" y="612.12"/><text fill="#000000" font-family="sans-serif" font-size="14" font-style="italic" lengthAdjust="spacing" textLength="84" x="768" y="634.0859">«component»</text><text fill="#000000" font-family="sans-serif" font-size="14" lengthAdjust="spacing" textLength="48" x="786" y="653.1539">Service</text><rect fill="#E2E2F0" height="52.1358" rx="2.5" ry="2.5" style="stroke:#181818;stroke-width:0.5;" width="98" x="890" y="45.412"/><text fill="#000000" font-family="sans-serif" font-size="14" font-style="italic" lengthAdjust="spacing" textLength="84" x="897" y="67.378">«component»</text><text fill="#000000" font-family="sans-serif" font-size="14" lengthAdjust="spacing" textLength="34" x="922" y="86.4459">HTTP</text><rect fill="#E2E2F0" height="52.1358" rx="2.5" ry="2.5" style="stroke:#181818;stroke-width:0.5;" width="98" x="890" y="612.12"/><text fill="#000000" font-family="sans-serif" font-size="14" font-style="italic" lengthAdjust="spacing" textLength="84" x="897" y="634.0859">«component»</text><text fill="#000000" font-family="sans-serif" font-size="14" lengthAdjust="spacing" textLength="34" x="922" y="653.1539">HTTP</text><rect fill="#E2E2F0" height="52.1358" rx="2.5" ry="2.5" style="stroke:#181818;stroke-width:0.5;" width="98" x="1327" y="45.412"/><text fill="#000000" font-family="sans-serif" font-size="14" font-style="italic" lengthAdjust="spacing" textLength="84" x="1334" y="67.378">«component»</text><text fill="#000000" font-family="sans-serif" font-size="14" lengthAdjust="spacing" textLength="39" x="1356.5" y="86.4459">Route</text><rect fill="#E2E2F0" height="52.1358" rx="2.5" ry="2.5" style="stroke:#181818;stroke-width:0.5;" width="98" x="1327" y="612.12"/><text fill="#000000" font-family="sans-serif" font-size="14" font-style="italic" lengthAdjust="spacing" textLength="84" x="1334" y="634.0859">«component»</text><text fill="#000000" font-family="sans-serif" font-size="14" lengthAdjust="spacing" textLength="39" x="1356.5" y="653.1539">Route</text><rect fill="#FFFFFF" height="494.5721" style="stroke:#181818;stroke-width:1.0;" width="10" x="78" y="108.5479"/><rect fill="#FFFFFF" height="31.706" style="stroke:#181818;stroke-width:1.0;" width="10" x="512" y="132.2539"/><rect fill="#FFFFFF" height="392.4541" style="stroke:#181818;stroke-width:1.0;" width="10" x="512" y="195.6659"/><rect fill="#FFFFFF" height="185.2361" style="stroke:#181818;stroke-width:1.0;" width="10" x="805" y="227.3719"/><rect fill="#FFFFFF" height="112.0999" style="stroke:#181818;stroke-width:1.0;" width="10" x="805" y="444.314"/><rect fill="#FFFFFF" height="121.8241" style="stroke:#181818;stroke-width:1.0;" width="10" x="934" y="259.0779"/><rect fill="#FFFFFF" height="80.3939" style="stroke:#181818;stroke-width:1.0;" width="10" x="934" y="444.314"/><rect fill="#FFFFFF" height="58.412" style="stroke:#181818;stroke-width:1.0;" width="10" x="1371" y="290.784"/><rect fill="#FFFFFF" height="48.6879" style="stroke:#181818;stroke-width:1.0;" width="10" x="1371" y="444.314"/><polygon fill="#181818" points="500,128.2539,510,132.2539,500,136.2539,504,132.2539" style="stroke:#181818;stroke-width:1.0;"/><line style="stroke:#181818;stroke-width:1.0;" x1="88" x2="506" y1="132.2539" y2="132.2539"/><text fill="#000000" font-family="sans-serif" font-size="13" font-weight="bold" lengthAdjust="spacing" textLength="7" x="95" y="126.4449">1</text><text fill="#000000" font-family="sans-serif" font-size="13" lengthAdjust="spacing" textLength="245" x="106" y="126.4449">wants to create a room in a building floor</text><polygon fill="#181818" points="99,159.9599,89,163.9599,99,167.9599,95,163.9599" style="stroke:#181818;stroke-width:1.0;"/><line style="stroke:#181818;stroke-width:1.0;stroke-dasharray:2.0,2.0;" x1="93" x2="516" y1="163.9599" y2="163.9599"/><text fill="#000000" font-family="sans-serif" font-size="13" font-weight="bold" lengthAdjust="spacing" textLength="7" x="105" y="158.1509">2</text><text fill="#000000" font-family="sans-serif" font-size="13" lengthAdjust="spacing" textLength="389" x="116" y="158.1509">asks for the name, description, floor code, dimensions &amp; category</text><polygon fill="#181818" points="500,191.6659,510,195.6659,500,199.6659,504,195.6659" style="stroke:#181818;stroke-width:1.0;"/><line style="stroke:#181818;stroke-width:1.0;" x1="88" x2="506" y1="195.6659" y2="195.6659"/><text fill="#000000" font-family="sans-serif" font-size="13" font-weight="bold" lengthAdjust="spacing" textLength="7" x="95" y="189.8569">3</text><text fill="#000000" font-family="sans-serif" font-size="13" lengthAdjust="spacing" textLength="93" x="106" y="189.8569">inserts the data</text><polygon fill="#181818" points="793,223.3719,803,227.3719,793,231.3719,797,227.3719" style="stroke:#181818;stroke-width:1.0;"/><line style="stroke:#181818;stroke-width:1.0;" x1="522" x2="799" y1="227.3719" y2="227.3719"/><text fill="#000000" font-family="sans-serif" font-size="13" font-weight="bold" lengthAdjust="spacing" textLength="7" x="529" y="221.5629">4</text><text fill="#000000" font-family="sans-serif" font-size="13" lengthAdjust="spacing" textLength="253" x="540" y="221.5629">createRoom(buildingFloor,floorCode,data)</text><polygon fill="#181818" points="922,255.0779,932,259.0779,922,263.0779,926,259.0779" style="stroke:#181818;stroke-width:1.0;"/><line style="stroke:#181818;stroke-width:1.0;" x1="815" x2="928" y1="259.0779" y2="259.0779"/><text fill="#000000" font-family="sans-serif" font-size="13" font-weight="bold" lengthAdjust="spacing" textLength="7" x="822" y="253.2689">5</text><text fill="#000000" font-family="sans-serif" font-size="13" lengthAdjust="spacing" textLength="81" x="833" y="253.2689">post(url,data)</text><polygon fill="#181818" points="1359,286.784,1369,290.784,1359,294.784,1363,290.784" style="stroke:#181818;stroke-width:1.0;"/><line style="stroke:#181818;stroke-width:1.0;" x1="944" x2="1365" y1="290.784" y2="290.784"/><text fill="#000000" font-family="sans-serif" font-size="13" font-weight="bold" lengthAdjust="spacing" textLength="7" x="951" y="284.975">6</text><text fill="#000000" font-family="sans-serif" font-size="13" lengthAdjust="spacing" textLength="387" x="962" y="284.975">POST /buildings/{buildingCode}/floors/{floorCode}/rooms {data}</text><path d="M10,305.784 L73,305.784 L73,315.49 L63,325.49 L10,325.49 L10,305.784 " fill="#EEEEEE" style="stroke:#000000;stroke-width:1.5;"/><rect fill="none" height="290.336" style="stroke:#000000;stroke-width:1.5;" width="1425" x="10" y="305.784"/><text fill="#000000" font-family="sans-serif" font-size="13" font-weight="bold" lengthAdjust="spacing" textLength="18" x="25" y="320.681">alt</text><text fill="#000000" font-family="sans-serif" font-size="11" font-weight="bold" lengthAdjust="spacing" textLength="132" x="88" y="319.5429">[a new room is created]</text><polygon fill="#181818" points="955,345.196,945,349.196,955,353.196,951,349.196" style="stroke:#181818;stroke-width:1.0;"/><line style="stroke:#181818;stroke-width:1.0;stroke-dasharray:2.0,2.0;" x1="949" x2="1375" y1="349.196" y2="349.196"/><text fill="#000000" font-family="sans-serif" font-size="13" font-weight="bold" lengthAdjust="spacing" textLength="7" x="961" y="343.387">7</text><text fill="#000000" font-family="sans-serif" font-size="13" lengthAdjust="spacing" textLength="71" x="972" y="343.387">201 Created</text><polygon fill="#181818" points="826,376.902,816,380.902,826,384.902,822,380.902" style="stroke:#181818;stroke-width:1.0;"/><line style="stroke:#181818;stroke-width:1.0;stroke-dasharray:2.0,2.0;" x1="820" x2="938" y1="380.902" y2="380.902"/><text fill="#000000" font-family="sans-serif" font-size="13" font-weight="bold" lengthAdjust="spacing" textLength="7" x="832" y="375.093">8</text><text fill="#000000" font-family="sans-serif" font-size="13" lengthAdjust="spacing" textLength="84" x="843" y="375.093">the new room</text><polygon fill="#181818" points="533,408.608,523,412.608,533,416.608,529,412.608" style="stroke:#181818;stroke-width:1.0;"/><line style="stroke:#181818;stroke-width:1.0;stroke-dasharray:2.0,2.0;" x1="527" x2="809" y1="412.608" y2="412.608"/><text fill="#000000" font-family="sans-serif" font-size="13" font-weight="bold" lengthAdjust="spacing" textLength="7" x="539" y="406.799">9</text><text fill="#000000" font-family="sans-serif" font-size="13" lengthAdjust="spacing" textLength="84" x="550" y="406.799">the new room</text><polygon fill="#181818" points="99,440.314,89,444.314,99,448.314,95,444.314" style="stroke:#181818;stroke-width:1.0;"/><line style="stroke:#181818;stroke-width:1.0;stroke-dasharray:2.0,2.0;" x1="93" x2="511" y1="444.314" y2="444.314"/><text fill="#000000" font-family="sans-serif" font-size="13" font-weight="bold" lengthAdjust="spacing" textLength="14" x="105" y="438.505">10</text><text fill="#000000" font-family="sans-serif" font-size="13" lengthAdjust="spacing" textLength="217" x="123" y="438.505">informs the success of the operation</text><line style="stroke:#000000;stroke-width:1.0;stroke-dasharray:2.0,2.0;" x1="10" x2="1435" y1="453.314" y2="453.314"/><text fill="#000000" font-family="sans-serif" font-size="11" font-weight="bold" lengthAdjust="spacing" textLength="224" x="15" y="465.073">[there is a room with the specified code]</text><polygon fill="#181818" points="955,489.002,945,493.002,955,497.002,951,493.002" style="stroke:#181818;stroke-width:1.0;"/><line style="stroke:#181818;stroke-width:1.0;stroke-dasharray:2.0,2.0;" x1="949" x2="1375" y1="493.002" y2="493.002"/><text fill="#000000" font-family="sans-serif" font-size="13" font-weight="bold" lengthAdjust="spacing" textLength="14" x="961" y="487.1929">11</text><text fill="#000000" font-family="sans-serif" font-size="13" lengthAdjust="spacing" textLength="99" x="979" y="487.1929">400 Bad Request</text><polygon fill="#181818" points="826,520.708,816,524.708,826,528.708,822,524.708" style="stroke:#181818;stroke-width:1.0;"/><line style="stroke:#181818;stroke-width:1.0;stroke-dasharray:2.0,2.0;" x1="820" x2="938" y1="524.708" y2="524.708"/><text fill="#000000" font-family="sans-serif" font-size="13" font-weight="bold" lengthAdjust="spacing" textLength="14" x="832" y="518.899">12</text><text fill="#000000" font-family="sans-serif" font-size="13" lengthAdjust="spacing" textLength="30" x="850" y="518.899">error</text><polygon fill="#181818" points="533,552.414,523,556.414,533,560.414,529,556.414" style="stroke:#181818;stroke-width:1.0;"/><line style="stroke:#181818;stroke-width:1.0;stroke-dasharray:2.0,2.0;" x1="527" x2="809" y1="556.414" y2="556.414"/><text fill="#000000" font-family="sans-serif" font-size="13" font-weight="bold" lengthAdjust="spacing" textLength="14" x="539" y="550.605">13</text><text fill="#000000" font-family="sans-serif" font-size="13" lengthAdjust="spacing" textLength="30" x="557" y="550.605">error</text><polygon fill="#181818" points="99,584.12,89,588.12,99,592.12,95,588.12" style="stroke:#181818;stroke-width:1.0;"/><line style="stroke:#181818;stroke-width:1.0;stroke-dasharray:2.0,2.0;" x1="93" x2="516" y1="588.12" y2="588.12"/><text fill="#000000" font-family="sans-serif" font-size="13" font-weight="bold" lengthAdjust="spacing" textLength="14" x="105" y="582.311">14</text><text fill="#000000" font-family="sans-serif" font-size="13" lengthAdjust="spacing" textLength="318" x="123" y="582.311">shows error message "A room with that name exists."</text><!--MD5=[25b801a2c39f3780d2375d6258282619]
@startuml process-view
autonumber
skinparam DefaultTextAlignment<<center>> center

actor CM as "Campus Manager"

box "«container (C4)»\nVisualization" <<center>>
  participant C as "Component" <<component>>
  participant SVC as "Service" <<component>>
  participant H as "HTTP" <<component>>
end box

box "«container (C4)»\n MD Management " <<center>>#LightYellow
  participant ROUTE as "Route" <<component>>
end box

activate CM

CM -> C : wants to create a room in a building floor
activate C

CM <- - C : asks for the name, description, floor code, dimensions & category
deactivate C

CM -> C : inserts the data
activate C

C -> SVC : createRoom(buildingFloor,floorCode,data)
activate SVC

SVC -> H : post(url,data)
activate H

H -> ROUTE : POST /buildings/{buildingCode}/floors/{floorCode}/rooms {data}
activate ROUTE

alt a new room is created
  H <- - ROUTE : 201 Created
  deactivate ROUTE

  SVC <- - H : the new room
  deactivate H

  C <- - SVC : the new room
  deactivate SVC

  CM <- - C : informs the success of the operation
else there is a room with the specified code
  activate H
  activate SVC
  activate ROUTE

  H <- - ROUTE : 400 Bad Request
  deactivate ROUTE

  SVC <- - H : error
  deactivate H

  C <- - SVC : error
  deactivate SVC

  CM <- - C : shows error message "A room with that name exists."
  deactivate C
end

deactivate CM

@enduml

PlantUML version 1.2022.7(Mon Aug 22 18:01:30 WEST 2022)
(GPL source distribution)
Java Runtime: OpenJDK Runtime Environment
JVM: OpenJDK 64-Bit Server VM
Default Encoding: UTF-8
Language: en
Country: GB
--></g></svg>