<?xml version="1.0" encoding="UTF-8" standalone="no"?><svg xmlns="http://www.w3.org/2000/svg" xmlns:xlink="http://www.w3.org/1999/xlink" contentStyleType="text/css" height="564px" preserveAspectRatio="none" style="width:1613px;height:564px;background:#FFFFFF;" version="1.1" viewBox="0 0 1613 564" width="1613px" zoomAndPan="magnify"><defs/><g><rect fill="#DDDDDD" height="552.2188" style="stroke:#181818;stroke-width:0.5;" width="1114" x="493.5" y="6"/><text fill="#000000" font-family="sans-serif" font-size="20" font-weight="bold" lengthAdjust="spacing" textLength="162" x="969.5" y="24.5645">«system (C4)»</text><text fill="#000000" font-family="sans-serif" font-size="20" font-weight="bold" lengthAdjust="spacing" textLength="142" x="979.5" y="47.8457">RobDroneGo</text><rect fill="#FFFFFF" height="333.8125" style="stroke:#181818;stroke-width:1.0;" width="10" x="105.5" y="128.125"/><rect fill="#FFFFFF" height="37.2813" style="stroke:#181818;stroke-width:1.0;" width="10" x="583.5" y="157.4063"/><rect fill="#FFFFFF" height="214.9688" style="stroke:#181818;stroke-width:1.0;" width="10" x="583.5" y="231.9688"/><rect fill="#FFFFFF" height="37.2813" style="stroke:#181818;stroke-width:1.0;" width="10" x="1122.5" y="269.25"/><rect fill="none" height="133.4063" style="stroke:#000000;stroke-width:1.5;" width="679.5" x="10" y="321.5313"/><line style="stroke:#181818;stroke-width:0.5;stroke-dasharray:5.0,5.0;" x1="110" x2="110" y1="118.125" y2="471.9375"/><line style="stroke:#181818;stroke-width:0.5;stroke-dasharray:5.0,5.0;" x1="588.5" x2="588.5" y1="118.125" y2="471.9375"/><line style="stroke:#181818;stroke-width:0.5;stroke-dasharray:5.0,5.0;" x1="1127.5" x2="1127.5" y1="118.125" y2="471.9375"/><line style="stroke:#181818;stroke-width:0.5;stroke-dasharray:5.0,5.0;" x1="1320.5" x2="1320.5" y1="118.125" y2="471.9375"/><line style="stroke:#181818;stroke-width:0.5;stroke-dasharray:5.0,5.0;" x1="1512.5" x2="1512.5" y1="118.125" y2="471.9375"/><text fill="#000000" font-family="sans-serif" font-size="20" lengthAdjust="spacing" textLength="175" x="20" y="113.4082">Campus Manager</text><ellipse cx="110.5" cy="43.3438" fill="#E2E2F0" rx="8" ry="8" style="stroke:#181818;stroke-width:0.5;"/><path d="M110.5,51.3438 L110.5,78.3438 M97.5,59.3438 L123.5,59.3438 M110.5,78.3438 L97.5,93.3438 M110.5,78.3438 L123.5,93.3438 " fill="none" style="stroke:#181818;stroke-width:0.5;"/><text fill="#000000" font-family="sans-serif" font-size="20" lengthAdjust="spacing" textLength="175" x="20" y="489.502">Campus Manager</text><ellipse cx="110.5" cy="502.7188" fill="#E2E2F0" rx="8" ry="8" style="stroke:#181818;stroke-width:0.5;"/><path d="M110.5,510.7188 L110.5,537.7188 M97.5,518.7188 L123.5,518.7188 M110.5,537.7188 L97.5,552.7188 M110.5,537.7188 L123.5,552.7188 " fill="none" style="stroke:#181818;stroke-width:0.5;"/><rect fill="#E2E2F0" height="60.5625" rx="2.5" ry="2.5" style="stroke:#181818;stroke-width:0.5;" width="182" x="497.5" y="56.5625"/><text fill="#000000" font-family="sans-serif" font-size="20" font-style="italic" lengthAdjust="spacing" textLength="168" x="504.5" y="82.127">«container (C4)»</text><text fill="#000000" font-family="sans-serif" font-size="20" lengthAdjust="spacing" textLength="129" x="524" y="105.4082">Visualization</text><rect fill="#E2E2F0" height="60.5625" rx="2.5" ry="2.5" style="stroke:#181818;stroke-width:0.5;" width="182" x="497.5" y="470.9375"/><text fill="#000000" font-family="sans-serif" font-size="20" font-style="italic" lengthAdjust="spacing" textLength="168" x="504.5" y="496.502">«container (C4)»</text><text fill="#000000" font-family="sans-serif" font-size="20" lengthAdjust="spacing" textLength="129" x="524" y="519.7832">Visualization</text><rect fill="#E2E2F0" height="60.5625" rx="2.5" ry="2.5" style="stroke:#181818;stroke-width:0.5;" width="184" x="1035.5" y="56.5625"/><text fill="#000000" font-family="sans-serif" font-size="20" font-style="italic" lengthAdjust="spacing" textLength="168" x="1043.5" y="82.127">«container (C4)»</text><text fill="#000000" font-family="sans-serif" font-size="20" lengthAdjust="spacing" textLength="170" x="1042.5" y="105.4082">MD Management</text><rect fill="#E2E2F0" height="60.5625" rx="2.5" ry="2.5" style="stroke:#181818;stroke-width:0.5;" width="184" x="1035.5" y="470.9375"/><text fill="#000000" font-family="sans-serif" font-size="20" font-style="italic" lengthAdjust="spacing" textLength="168" x="1043.5" y="496.502">«container (C4)»</text><text fill="#000000" font-family="sans-serif" font-size="20" lengthAdjust="spacing" textLength="170" x="1042.5" y="519.7832">MD Management</text><rect fill="#E2E2F0" height="60.5625" rx="2.5" ry="2.5" style="stroke:#181818;stroke-width:0.5;" width="182" x="1229.5" y="56.5625"/><text fill="#000000" font-family="sans-serif" font-size="20" font-style="italic" lengthAdjust="spacing" textLength="168" x="1236.5" y="82.127">«container (C4)»</text><text fill="#000000" font-family="sans-serif" font-size="20" lengthAdjust="spacing" textLength="94" x="1273.5" y="105.4082">MD Tasks</text><rect fill="#E2E2F0" height="60.5625" rx="2.5" ry="2.5" style="stroke:#181818;stroke-width:0.5;" width="182" x="1229.5" y="470.9375"/><text fill="#000000" font-family="sans-serif" font-size="20" font-style="italic" lengthAdjust="spacing" textLength="168" x="1236.5" y="496.502">«container (C4)»</text><text fill="#000000" font-family="sans-serif" font-size="20" lengthAdjust="spacing" textLength="94" x="1273.5" y="519.7832">MD Tasks</text><rect fill="#E2E2F0" height="60.5625" rx="2.5" ry="2.5" style="stroke:#181818;stroke-width:0.5;" width="182" x="1421.5" y="56.5625"/><text fill="#000000" font-family="sans-serif" font-size="20" font-style="italic" lengthAdjust="spacing" textLength="168" x="1428.5" y="82.127">«container (C4)»</text><text fill="#000000" font-family="sans-serif" font-size="20" lengthAdjust="spacing" textLength="75" x="1475" y="105.4082">Planing</text><rect fill="#E2E2F0" height="60.5625" rx="2.5" ry="2.5" style="stroke:#181818;stroke-width:0.5;" width="182" x="1421.5" y="470.9375"/><text fill="#000000" font-family="sans-serif" font-size="20" font-style="italic" lengthAdjust="spacing" textLength="168" x="1428.5" y="496.502">«container (C4)»</text><text fill="#000000" font-family="sans-serif" font-size="20" lengthAdjust="spacing" textLength="75" x="1475" y="519.7832">Planing</text><rect fill="#FFFFFF" height="333.8125" style="stroke:#181818;stroke-width:1.0;" width="10" x="105.5" y="128.125"/><rect fill="#FFFFFF" height="37.2813" style="stroke:#181818;stroke-width:1.0;" width="10" x="583.5" y="157.4063"/><rect fill="#FFFFFF" height="214.9688" style="stroke:#181818;stroke-width:1.0;" width="10" x="583.5" y="231.9688"/><rect fill="#FFFFFF" height="37.2813" style="stroke:#181818;stroke-width:1.0;" width="10" x="1122.5" y="269.25"/><polygon fill="#181818" points="571.5,153.4063,581.5,157.4063,571.5,161.4063,575.5,157.4063" style="stroke:#181818;stroke-width:1.0;"/><line style="stroke:#181818;stroke-width:1.0;" x1="115.5" x2="577.5" y1="157.4063" y2="157.4063"/><text fill="#000000" font-family="sans-serif" font-size="20" font-weight="bold" lengthAdjust="spacing" textLength="14" x="122.5" y="150.6895">1</text><text fill="#000000" font-family="sans-serif" font-size="20" lengthAdjust="spacing" textLength="208" x="140.5" y="150.6895">selects filter by state</text><polygon fill="#181818" points="126.5,190.6875,116.5,194.6875,126.5,198.6875,122.5,194.6875" style="stroke:#181818;stroke-width:1.0;"/><line style="stroke:#181818;stroke-width:1.0;stroke-dasharray:2.0,2.0;" x1="120.5" x2="587.5" y1="194.6875" y2="194.6875"/><text fill="#000000" font-family="sans-serif" font-size="20" font-weight="bold" lengthAdjust="spacing" textLength="14" x="132.5" y="187.9707">2</text><text fill="#000000" font-family="sans-serif" font-size="20" lengthAdjust="spacing" textLength="386" x="150.5" y="187.9707">shows all states and asks to select one</text><polygon fill="#181818" points="571.5,227.9688,581.5,231.9688,571.5,235.9688,575.5,231.9688" style="stroke:#181818;stroke-width:1.0;"/><line style="stroke:#181818;stroke-width:1.0;" x1="115.5" x2="577.5" y1="231.9688" y2="231.9688"/><text fill="#000000" font-family="sans-serif" font-size="20" font-weight="bold" lengthAdjust="spacing" textLength="14" x="122.5" y="225.252">3</text><text fill="#000000" font-family="sans-serif" font-size="20" lengthAdjust="spacing" textLength="164" x="140.5" y="225.252">selects the state</text><polygon fill="#181818" points="1110.5,265.25,1120.5,269.25,1110.5,273.25,1114.5,269.25" style="stroke:#181818;stroke-width:1.0;"/><line style="stroke:#181818;stroke-width:1.0;" x1="593.5" x2="1116.5" y1="269.25" y2="269.25"/><text fill="#000000" font-family="sans-serif" font-size="20" font-weight="bold" lengthAdjust="spacing" textLength="14" x="600.5" y="262.5332">4</text><text fill="#000000" font-family="sans-serif" font-size="20" lengthAdjust="spacing" textLength="492" x="618.5" y="262.5332">GET /task-requests?filter=state&amp;value=accepted</text><polygon fill="#181818" points="604.5,302.5313,594.5,306.5313,604.5,310.5313,600.5,306.5313" style="stroke:#181818;stroke-width:1.0;"/><line style="stroke:#181818;stroke-width:1.0;stroke-dasharray:2.0,2.0;" x1="598.5" x2="1126.5" y1="306.5313" y2="306.5313"/><text fill="#000000" font-family="sans-serif" font-size="20" font-weight="bold" lengthAdjust="spacing" textLength="14" x="610.5" y="299.8145">5</text><text fill="#000000" font-family="sans-serif" font-size="20" lengthAdjust="spacing" textLength="74" x="628.5" y="299.8145">200 OK</text><path d="M10,321.5313 L86,321.5313 L86,336.8125 L76,346.8125 L10,346.8125 L10,321.5313 " fill="#EEEEEE" style="stroke:#000000;stroke-width:1.5;"/><rect fill="none" height="133.4063" style="stroke:#000000;stroke-width:1.5;" width="679.5" x="10" y="321.5313"/><text fill="#000000" font-family="sans-serif" font-size="20" font-weight="bold" lengthAdjust="spacing" textLength="31" x="25" y="341.0957">alt</text><text fill="#000000" font-family="sans-serif" font-size="20" font-weight="bold" lengthAdjust="spacing" textLength="447" x="101" y="342.0957">[there are request with selected state]</text><polygon fill="#181818" points="126.5,380.375,116.5,384.375,126.5,388.375,122.5,384.375" style="stroke:#181818;stroke-width:1.0;"/><line style="stroke:#181818;stroke-width:1.0;stroke-dasharray:2.0,2.0;" x1="120.5" x2="582.5" y1="384.375" y2="384.375"/><text fill="#000000" font-family="sans-serif" font-size="20" font-weight="bold" lengthAdjust="spacing" textLength="14" x="132.5" y="377.6582">6</text><text fill="#000000" font-family="sans-serif" font-size="20" lengthAdjust="spacing" textLength="229" x="150.5" y="377.6582">shows the requests list</text><line style="stroke:#000000;stroke-width:1.0;stroke-dasharray:2.0,2.0;" x1="10" x2="689.5" y1="393.375" y2="393.375"/><text fill="#000000" font-family="sans-serif" font-size="20" font-weight="bold" lengthAdjust="spacing" textLength="204" x="15" y="411.9395">[the list is empty]</text><polygon fill="#181818" points="126.5,442.9375,116.5,446.9375,126.5,450.9375,122.5,446.9375" style="stroke:#181818;stroke-width:1.0;"/><line style="stroke:#181818;stroke-width:1.0;stroke-dasharray:2.0,2.0;" x1="120.5" x2="587.5" y1="446.9375" y2="446.9375"/><text fill="#000000" font-family="sans-serif" font-size="20" font-weight="bold" lengthAdjust="spacing" textLength="14" x="132.5" y="440.2207">7</text><text fill="#000000" font-family="sans-serif" font-size="20" lengthAdjust="spacing" textLength="426" x="150.5" y="440.2207">shows error message "No requests found."</text><!--SRC=[ZPBFJkCm4CRlVefH3eWz52gq9rIAK0i8hRgBbiA9opIPjbOTE-kP0EMLzX6uyMHCd5JbJmyS4ZdHzttpysVpoleA8vOkv2igeA0vraukWfSR-qnmr3TOI_1rEQDeUAE6SQkRqfESERlm9NaP379zKnmEeLqOWxc42AC984CsmhAg6IReSK4nCsOMdY1x_Szh5YfXV_Jpn-lBlVyRPkCOF5s63BQH1a0dYyrjXLxWzYf5tbckqTbd51jyaYiuMaynnNsnJSOjocJSOJJSt_9DDxufyeg_ORbEXck7tlh5JZtv0hI2r99zG24joXWjgpTizdSCJ8voOPXRfnt0R0qiAjlgRw-IVj3hTOPbU6H0vrgXBdL4mmiIkZJGPar1doC-ZvGbxHgc6bKsBHx3vVaK3aNJUv7-rSJ2foteIJBkFQ2hwGJpd2gXOfkZxXJKKBT9H_q-_FdrdYffq4d34GbGdsu8F5fPTfXwNrj6WAyjD3lOW86pB8OSK_hTV85beBAIzKupnQZtjYHclIEG_GxRg7ceVN6GgUrZYtgQvlqMz2pV0000]--></g></svg>