<?xml version="1.0" encoding="UTF-8" standalone="no"?><svg xmlns="http://www.w3.org/2000/svg" xmlns:xlink="http://www.w3.org/1999/xlink" contentStyleType="text/css" height="998px" preserveAspectRatio="none" style="width:2524px;height:998px;background:#FFFFFF;" version="1.1" viewBox="0 0 2524 998" width="2524px" zoomAndPan="magnify"><defs/><g><rect fill="#FFFFFF" height="843.5595" style="stroke:#181818;stroke-width:1.0;" width="10" x="346.25" y="90.4799"/><rect fill="#FFFFFF" height="761.0796" style="stroke:#181818;stroke-width:1.0;" width="10" x="822.875" y="131.7199"/><rect fill="#FFFFFF" height="678.5996" style="stroke:#181818;stroke-width:1.0;" width="10" x="1299.5" y="172.9599"/><rect fill="#FFFFFF" height="359.9198" style="stroke:#181818;stroke-width:1.0;" width="10" x="1631.125" y="214.1999"/><rect fill="#FFFFFF" height="112.4799" style="stroke:#181818;stroke-width:1.0;" width="10" x="1631.125" y="697.8396"/><rect fill="#FFFFFF" height="41.24" style="stroke:#181818;stroke-width:1.0;" width="10" x="1936.75" y="255.4398"/><rect fill="#FFFFFF" height="41.24" style="stroke:#181818;stroke-width:1.0;" width="10" x="1936.75" y="615.3596"/><rect fill="#FFFFFF" height="30" style="stroke:#181818;stroke-width:1.0;" width="10" x="2112.25" y="502.8797"/><rect fill="#FFFFFF" height="41.24" style="stroke:#181818;stroke-width:1.0;" width="10" x="2262.75" y="337.9198"/><rect fill="#FFFFFF" height="41.24" style="stroke:#181818;stroke-width:1.0;" width="10" x="2262.75" y="420.3997"/><rect fill="#FFFFFF" height="30" style="stroke:#181818;stroke-width:1.0;" width="10" x="2434.25" y="739.0796"/><line style="stroke:#181818;stroke-width:0.5;stroke-dasharray:5.0,5.0;" x1="351.25" x2="351.25" y1="47.24" y2="952.0395"/><line style="stroke:#181818;stroke-width:0.5;stroke-dasharray:5.0,5.0;" x1="827.375" x2="827.375" y1="47.24" y2="952.0395"/><line style="stroke:#181818;stroke-width:0.5;stroke-dasharray:5.0,5.0;" x1="1304.5" x2="1304.5" y1="47.24" y2="952.0395"/><line style="stroke:#181818;stroke-width:0.5;stroke-dasharray:5.0,5.0;" x1="1635.625" x2="1635.625" y1="47.24" y2="952.0395"/><line style="stroke:#181818;stroke-width:0.5;stroke-dasharray:5.0,5.0;" x1="1941.25" x2="1941.25" y1="47.24" y2="952.0395"/><line style="stroke:#181818;stroke-width:0.5;stroke-dasharray:5.0,5.0;" x1="2117.25" x2="2117.25" y1="47.24" y2="952.0395"/><line style="stroke:#181818;stroke-width:0.5;stroke-dasharray:5.0,5.0;" x1="2267.25" x2="2267.25" y1="47.24" y2="952.0395"/><line style="stroke:#181818;stroke-width:0.5;stroke-dasharray:5.0,5.0;" x1="2439.25" x2="2439.25" y1="47.24" y2="952.0395"/><rect fill="#E2E2F0" height="41.24" rx="2.5" ry="2.5" style="stroke:#181818;stroke-width:0.5;" width="170" x="266.25" y="5"/><text fill="#000000" font-family="sans-serif" font-size="20" lengthAdjust="spacing" textLength="156" x="273.25" y="33.38">:ConnectorRoute</text><rect fill="#E2E2F0" height="41.24" rx="2.5" ry="2.5" style="stroke:#181818;stroke-width:0.5;" width="170" x="266.25" y="951.0395"/><text fill="#000000" font-family="sans-serif" font-size="20" lengthAdjust="spacing" textLength="156" x="273.25" y="979.4195">:ConnectorRoute</text><rect fill="#E2E2F0" height="41.24" rx="2.5" ry="2.5" style="stroke:#181818;stroke-width:0.5;" width="209" x="723.375" y="5"/><text fill="#000000" font-family="sans-serif" font-size="20" lengthAdjust="spacing" textLength="195" x="730.375" y="33.38">:ConnectorController</text><rect fill="#E2E2F0" height="41.24" rx="2.5" ry="2.5" style="stroke:#181818;stroke-width:0.5;" width="209" x="723.375" y="951.0395"/><text fill="#000000" font-family="sans-serif" font-size="20" lengthAdjust="spacing" textLength="195" x="730.375" y="979.4195">:ConnectorController</text><rect fill="#E2E2F0" height="41.24" rx="2.5" ry="2.5" style="stroke:#181818;stroke-width:0.5;" width="182" x="1213.5" y="5"/><text fill="#000000" font-family="sans-serif" font-size="20" lengthAdjust="spacing" textLength="168" x="1220.5" y="33.38">:ConnectorService</text><rect fill="#E2E2F0" height="41.24" rx="2.5" ry="2.5" style="stroke:#181818;stroke-width:0.5;" width="182" x="1213.5" y="951.0395"/><text fill="#000000" font-family="sans-serif" font-size="20" lengthAdjust="spacing" textLength="168" x="1220.5" y="979.4195">:ConnectorService</text><rect fill="#E2E2F0" height="41.24" rx="2.5" ry="2.5" style="stroke:#181818;stroke-width:0.5;" width="157" x="1557.625" y="5"/><text fill="#000000" font-family="sans-serif" font-size="20" lengthAdjust="spacing" textLength="143" x="1564.625" y="33.38">:ConnectorMap</text><rect fill="#E2E2F0" height="41.24" rx="2.5" ry="2.5" style="stroke:#181818;stroke-width:0.5;" width="157" x="1557.625" y="951.0395"/><text fill="#000000" font-family="sans-serif" font-size="20" lengthAdjust="spacing" textLength="143" x="1564.625" y="979.4195">:ConnectorMap</text><rect fill="#E2E2F0" height="41.24" rx="2.5" ry="2.5" style="stroke:#181818;stroke-width:0.5;" width="215" x="1834.25" y="5"/><text fill="#000000" font-family="sans-serif" font-size="20" lengthAdjust="spacing" textLength="201" x="1841.25" y="33.38">:ConnectorRepository</text><rect fill="#E2E2F0" height="41.24" rx="2.5" ry="2.5" style="stroke:#181818;stroke-width:0.5;" width="215" x="1834.25" y="951.0395"/><text fill="#000000" font-family="sans-serif" font-size="20" lengthAdjust="spacing" textLength="201" x="1841.25" y="979.4195">:ConnectorRepository</text><rect fill="#E2E2F0" height="41.24" rx="2.5" ry="2.5" style="stroke:#181818;stroke-width:0.5;" width="116" x="2059.25" y="5"/><text fill="#000000" font-family="sans-serif" font-size="20" lengthAdjust="spacing" textLength="102" x="2066.25" y="33.38">:Connector</text><rect fill="#E2E2F0" height="41.24" rx="2.5" ry="2.5" style="stroke:#181818;stroke-width:0.5;" width="116" x="2059.25" y="951.0395"/><text fill="#000000" font-family="sans-serif" font-size="20" lengthAdjust="spacing" textLength="102" x="2066.25" y="979.4195">:Connector</text><rect fill="#E2E2F0" height="41.24" rx="2.5" ry="2.5" style="stroke:#181818;stroke-width:0.5;" width="165" x="2185.25" y="5"/><text fill="#000000" font-family="sans-serif" font-size="20" lengthAdjust="spacing" textLength="151" x="2192.25" y="33.38">:FloorRepository</text><rect fill="#E2E2F0" height="41.24" rx="2.5" ry="2.5" style="stroke:#181818;stroke-width:0.5;" width="165" x="2185.25" y="951.0395"/><text fill="#000000" font-family="sans-serif" font-size="20" lengthAdjust="spacing" textLength="151" x="2192.25" y="979.4195">:FloorRepository</text><rect fill="#E2E2F0" height="41.24" rx="2.5" ry="2.5" style="stroke:#181818;stroke-width:0.5;" width="158" x="2360.25" y="5"/><text fill="#000000" font-family="sans-serif" font-size="20" lengthAdjust="spacing" textLength="144" x="2367.25" y="33.38">:ConnectorDTO</text><rect fill="#E2E2F0" height="41.24" rx="2.5" ry="2.5" style="stroke:#181818;stroke-width:0.5;" width="158" x="2360.25" y="951.0395"/><text fill="#000000" font-family="sans-serif" font-size="20" lengthAdjust="spacing" textLength="144" x="2367.25" y="979.4195">:ConnectorDTO</text><rect fill="#FFFFFF" height="843.5595" style="stroke:#181818;stroke-width:1.0;" width="10" x="346.25" y="90.4799"/><rect fill="#FFFFFF" height="761.0796" style="stroke:#181818;stroke-width:1.0;" width="10" x="822.875" y="131.7199"/><rect fill="#FFFFFF" height="678.5996" style="stroke:#181818;stroke-width:1.0;" width="10" x="1299.5" y="172.9599"/><rect fill="#FFFFFF" height="359.9198" style="stroke:#181818;stroke-width:1.0;" width="10" x="1631.125" y="214.1999"/><rect fill="#FFFFFF" height="112.4799" style="stroke:#181818;stroke-width:1.0;" width="10" x="1631.125" y="697.8396"/><rect fill="#FFFFFF" height="41.24" style="stroke:#181818;stroke-width:1.0;" width="10" x="1936.75" y="255.4398"/><rect fill="#FFFFFF" height="41.24" style="stroke:#181818;stroke-width:1.0;" width="10" x="1936.75" y="615.3596"/><rect fill="#FFFFFF" height="30" style="stroke:#181818;stroke-width:1.0;" width="10" x="2112.25" y="502.8797"/><rect fill="#FFFFFF" height="41.24" style="stroke:#181818;stroke-width:1.0;" width="10" x="2262.75" y="337.9198"/><rect fill="#FFFFFF" height="41.24" style="stroke:#181818;stroke-width:1.0;" width="10" x="2262.75" y="420.3997"/><rect fill="#FFFFFF" height="30" style="stroke:#181818;stroke-width:1.0;" width="10" x="2434.25" y="739.0796"/><ellipse cx="128.125" cy="89.7299" fill="none" rx="4" ry="4" style="stroke:#181818;stroke-width:1.5;"/><polygon fill="#181818" points="334.25,86.4799,344.25,90.4799,334.25,94.4799,338.25,90.4799" style="stroke:#181818;stroke-width:1.0;"/><line style="stroke:#181818;stroke-width:1.0;" x1="132.625" x2="340.25" y1="90.4799" y2="90.4799"/><text fill="#000000" font-family="sans-serif" font-size="20" font-weight="bold" lengthAdjust="spacing" textLength="11.625" x="135.625" y="82.62">1</text><text fill="#000000" font-family="sans-serif" font-size="20" lengthAdjust="spacing" textLength="180" x="151.25" y="82.62">PATCH /connectors</text><polygon fill="#181818" points="810.875,127.7199,820.875,131.7199,810.875,135.7199,814.875,131.7199" style="stroke:#181818;stroke-width:1.0;"/><line style="stroke:#181818;stroke-width:1.0;" x1="356.25" x2="816.875" y1="131.7199" y2="131.7199"/><text fill="#000000" font-family="sans-serif" font-size="20" font-weight="bold" lengthAdjust="spacing" textLength="11.625" x="363.25" y="123.8599">2</text><text fill="#000000" font-family="sans-serif" font-size="20" lengthAdjust="spacing" textLength="432" x="378.875" y="123.8599">editConnector(connectorCode, connectorDTO)</text><polygon fill="#181818" points="1287.5,168.9599,1297.5,172.9599,1287.5,176.9599,1291.5,172.9599" style="stroke:#181818;stroke-width:1.0;"/><line style="stroke:#181818;stroke-width:1.0;" x1="832.875" x2="1293.5" y1="172.9599" y2="172.9599"/><text fill="#000000" font-family="sans-serif" font-size="20" font-weight="bold" lengthAdjust="spacing" textLength="11.625" x="839.875" y="165.0999">3</text><text fill="#000000" font-family="sans-serif" font-size="20" lengthAdjust="spacing" textLength="432" x="855.5" y="165.0999">editConnector(connectorCode, connectorDTO)</text><polygon fill="#181818" points="1619.125,210.1999,1629.125,214.1999,1619.125,218.1999,1623.125,214.1999" style="stroke:#181818;stroke-width:1.0;"/><line style="stroke:#181818;stroke-width:1.0;" x1="1309.5" x2="1625.125" y1="214.1999" y2="214.1999"/><text fill="#000000" font-family="sans-serif" font-size="20" font-weight="bold" lengthAdjust="spacing" textLength="11.625" x="1316.5" y="206.3399">4</text><text fill="#000000" font-family="sans-serif" font-size="20" lengthAdjust="spacing" textLength="287" x="1332.125" y="206.3399">mapToDomain(connectorDTO)</text><polygon fill="#181818" points="1924.75,251.4398,1934.75,255.4398,1924.75,259.4398,1928.75,255.4398" style="stroke:#181818;stroke-width:1.0;"/><line style="stroke:#181818;stroke-width:1.0;" x1="1641.125" x2="1930.75" y1="255.4398" y2="255.4398"/><text fill="#000000" font-family="sans-serif" font-size="20" font-weight="bold" lengthAdjust="spacing" textLength="11.625" x="1648.125" y="247.5799">5</text><text fill="#000000" font-family="sans-serif" font-size="20" lengthAdjust="spacing" textLength="261" x="1663.75" y="247.5799">findByCode(connectorCode)</text><polygon fill="#181818" points="1652.125,292.6798,1642.125,296.6798,1652.125,300.6798,1648.125,296.6798" style="stroke:#181818;stroke-width:1.0;"/><line style="stroke:#181818;stroke-width:1.0;stroke-dasharray:2.0,2.0;" x1="1646.125" x2="1940.75" y1="296.6798" y2="296.6798"/><text fill="#000000" font-family="sans-serif" font-size="20" font-weight="bold" lengthAdjust="spacing" textLength="11.625" x="1658.125" y="288.8198">6</text><text fill="#000000" font-family="sans-serif" font-size="20" lengthAdjust="spacing" textLength="94" x="1673.75" y="288.8198">connector</text><polygon fill="#181818" points="2250.75,333.9198,2260.75,337.9198,2250.75,341.9198,2254.75,337.9198" style="stroke:#181818;stroke-width:1.0;"/><line style="stroke:#181818;stroke-width:1.0;" x1="1641.125" x2="2256.75" y1="337.9198" y2="337.9198"/><text fill="#000000" font-family="sans-serif" font-size="20" font-weight="bold" lengthAdjust="spacing" textLength="11.625" x="1648.125" y="330.0598">7</text><text fill="#000000" font-family="sans-serif" font-size="20" lengthAdjust="spacing" textLength="222" x="1663.75" y="330.0598">findByCode(floor1Code)</text><polygon fill="#181818" points="1652.125,375.1598,1642.125,379.1598,1652.125,383.1598,1648.125,379.1598" style="stroke:#181818;stroke-width:1.0;"/><line style="stroke:#181818;stroke-width:1.0;stroke-dasharray:2.0,2.0;" x1="1646.125" x2="2266.75" y1="379.1598" y2="379.1598"/><text fill="#000000" font-family="sans-serif" font-size="20" font-weight="bold" lengthAdjust="spacing" textLength="11.625" x="1658.125" y="371.2998">8</text><text fill="#000000" font-family="sans-serif" font-size="20" lengthAdjust="spacing" textLength="55" x="1673.75" y="371.2998">floor1</text><polygon fill="#181818" points="2250.75,416.3997,2260.75,420.3997,2250.75,424.3997,2254.75,420.3997" style="stroke:#181818;stroke-width:1.0;"/><line style="stroke:#181818;stroke-width:1.0;" x1="1641.125" x2="2256.75" y1="420.3997" y2="420.3997"/><text fill="#000000" font-family="sans-serif" font-size="20" font-weight="bold" lengthAdjust="spacing" textLength="11.625" x="1648.125" y="412.5398">9</text><text fill="#000000" font-family="sans-serif" font-size="20" lengthAdjust="spacing" textLength="222" x="1663.75" y="412.5398">findByCode(floor2Code)</text><polygon fill="#181818" points="1652.125,457.6397,1642.125,461.6397,1652.125,465.6397,1648.125,461.6397" style="stroke:#181818;stroke-width:1.0;"/><line style="stroke:#181818;stroke-width:1.0;stroke-dasharray:2.0,2.0;" x1="1646.125" x2="2266.75" y1="461.6397" y2="461.6397"/><text fill="#000000" font-family="sans-serif" font-size="20" font-weight="bold" lengthAdjust="spacing" textLength="23.25" x="1658.125" y="453.7797">10</text><text fill="#000000" font-family="sans-serif" font-size="20" lengthAdjust="spacing" textLength="55" x="1685.375" y="453.7797">floor2</text><polygon fill="#181818" points="2100.25,498.8797,2110.25,502.8797,2100.25,506.8797,2104.25,502.8797" style="stroke:#181818;stroke-width:1.0;"/><line style="stroke:#181818;stroke-width:1.0;" x1="1641.125" x2="2106.25" y1="502.8797" y2="502.8797"/><text fill="#000000" font-family="sans-serif" font-size="20" font-weight="bold" lengthAdjust="spacing" textLength="23.25" x="1648.125" y="495.0197">11</text><text fill="#000000" font-family="sans-serif" font-size="20" lengthAdjust="spacing" textLength="190" x="1675.375" y="495.0197">create(floor1, floor2)</text><polygon fill="#181818" points="1320.5,570.1197,1310.5,574.1197,1320.5,578.1197,1316.5,574.1197" style="stroke:#181818;stroke-width:1.0;"/><line style="stroke:#181818;stroke-width:1.0;stroke-dasharray:2.0,2.0;" x1="1314.5" x2="1635.125" y1="574.1197" y2="574.1197"/><text fill="#000000" font-family="sans-serif" font-size="20" font-weight="bold" lengthAdjust="spacing" textLength="23.25" x="1326.5" y="566.2597">12</text><text fill="#000000" font-family="sans-serif" font-size="20" lengthAdjust="spacing" textLength="97" x="1353.75" y="566.2597">Connector</text><polygon fill="#181818" points="1924.75,611.3596,1934.75,615.3596,1924.75,619.3596,1928.75,615.3596" style="stroke:#181818;stroke-width:1.0;"/><line style="stroke:#181818;stroke-width:1.0;" x1="1309.5" x2="1930.75" y1="615.3596" y2="615.3596"/><text fill="#000000" font-family="sans-serif" font-size="20" font-weight="bold" lengthAdjust="spacing" textLength="23.25" x="1316.5" y="607.4997">13</text><text fill="#000000" font-family="sans-serif" font-size="20" lengthAdjust="spacing" textLength="148" x="1343.75" y="607.4997">save(connector)</text><polygon fill="#181818" points="1320.5,652.5996,1310.5,656.5996,1320.5,660.5996,1316.5,656.5996" style="stroke:#181818;stroke-width:1.0;"/><line style="stroke:#181818;stroke-width:1.0;stroke-dasharray:2.0,2.0;" x1="1314.5" x2="1940.75" y1="656.5996" y2="656.5996"/><text fill="#000000" font-family="sans-serif" font-size="20" font-weight="bold" lengthAdjust="spacing" textLength="23.25" x="1326.5" y="648.7396">14</text><text fill="#000000" font-family="sans-serif" font-size="20" lengthAdjust="spacing" textLength="97" x="1353.75" y="648.7396">Connector</text><polygon fill="#181818" points="1619.125,693.8396,1629.125,697.8396,1619.125,701.8396,1623.125,697.8396" style="stroke:#181818;stroke-width:1.0;"/><line style="stroke:#181818;stroke-width:1.0;" x1="1309.5" x2="1625.125" y1="697.8396" y2="697.8396"/><text fill="#000000" font-family="sans-serif" font-size="20" font-weight="bold" lengthAdjust="spacing" textLength="23.25" x="1316.5" y="689.9796">15</text><text fill="#000000" font-family="sans-serif" font-size="20" lengthAdjust="spacing" textLength="213" x="1343.75" y="689.9796">mapToDTO(connector)</text><polygon fill="#181818" points="2422.25,735.0796,2432.25,739.0796,2422.25,743.0796,2426.25,739.0796" style="stroke:#181818;stroke-width:1.0;"/><line style="stroke:#181818;stroke-width:1.0;" x1="1641.125" x2="2428.25" y1="739.0796" y2="739.0796"/><text fill="#000000" font-family="sans-serif" font-size="20" font-weight="bold" lengthAdjust="spacing" textLength="23.25" x="1648.125" y="731.2196">16</text><text fill="#000000" font-family="sans-serif" font-size="20" lengthAdjust="spacing" textLength="70" x="1675.375" y="731.2196">create()</text><polygon fill="#181818" points="1320.5,806.3195,1310.5,810.3195,1320.5,814.3195,1316.5,810.3195" style="stroke:#181818;stroke-width:1.0;"/><line style="stroke:#181818;stroke-width:1.0;stroke-dasharray:2.0,2.0;" x1="1314.5" x2="1635.125" y1="810.3195" y2="810.3195"/><text fill="#000000" font-family="sans-serif" font-size="20" font-weight="bold" lengthAdjust="spacing" textLength="23.25" x="1326.5" y="802.4596">17</text><text fill="#000000" font-family="sans-serif" font-size="20" lengthAdjust="spacing" textLength="139" x="1353.75" y="802.4596">ConnectorDTO</text><polygon fill="#181818" points="843.875,847.5595,833.875,851.5595,843.875,855.5595,839.875,851.5595" style="stroke:#181818;stroke-width:1.0;"/><line style="stroke:#181818;stroke-width:1.0;stroke-dasharray:2.0,2.0;" x1="837.875" x2="1303.5" y1="851.5595" y2="851.5595"/><text fill="#000000" font-family="sans-serif" font-size="20" font-weight="bold" lengthAdjust="spacing" textLength="23.25" x="849.875" y="843.6995">18</text><text fill="#000000" font-family="sans-serif" font-size="20" lengthAdjust="spacing" textLength="139" x="877.125" y="843.6995">ConnectorDTO</text><polygon fill="#181818" points="367.25,888.7995,357.25,892.7995,367.25,896.7995,363.25,892.7995" style="stroke:#181818;stroke-width:1.0;"/><line style="stroke:#181818;stroke-width:1.0;stroke-dasharray:2.0,2.0;" x1="361.25" x2="826.875" y1="892.7995" y2="892.7995"/><text fill="#000000" font-family="sans-serif" font-size="20" font-weight="bold" lengthAdjust="spacing" textLength="23.25" x="373.25" y="884.9395">19</text><text fill="#000000" font-family="sans-serif" font-size="20" lengthAdjust="spacing" textLength="139" x="400.5" y="884.9395">ConnectorDTO</text><polygon fill="#181818" points="11,930.0395,1,934.0395,11,938.0395,7,934.0395" style="stroke:#181818;stroke-width:1.0;"/><line style="stroke:#181818;stroke-width:1.0;stroke-dasharray:2.0,2.0;" x1="5" x2="350.25" y1="934.0395" y2="934.0395"/><text fill="#000000" font-family="sans-serif" font-size="20" font-weight="bold" lengthAdjust="spacing" textLength="23.25" x="17" y="926.1795">20</text><text fill="#000000" font-family="sans-serif" font-size="20" lengthAdjust="spacing" textLength="300" x="44.25" y="926.1795">200 OK (ConnectorDTO as JSON)</text><!--SRC=[fLJBReCm4BpxArOv9LAYfZcYgbLAGLLVH0djtJMEP9LW14wazklh1GUC8QcYtf2PcPqThxVy4bbE2xfB9VlY2IHyI_Uf2cMcDkA7ms9Ew5x9RB_xv0KX6ge44pdD5AoZzpW0MiB8ysMMSQPaiPPxnKSTc1-lNnoK_b25J5DUTA6R3zz1RdXn4CnLV5sk7DmhpRkOTR2AN6yybwNG7zzTgDj3zs_OAeMfFAto4BlrzCc8a3ivkpLHUR1QnluZNB4Zf2IKAN6WYjSGGi1WDQaApWEU2DLeZbcROSAdmAnY4qrkv92CQb3BQ3aCzq8rIq-pQpceXD0Ute87Evh7ya7kgCZ6VRxjIEEF4b2pCHbCruEjo9BxRtJHzJHf26rGcj6S6g6RsUoerD0RJCAxt9w7i6zYYrTzVS91UCf28rInXmo4bpbO_Cl1uW87E9siu1fXUfyQZO7gmP1kq6hYWA0PCo6-SoCMoPu9CrQcWP8Uh57e3LEd_sCzGprJp-vzQ8pZw4pDogoR6pxx9hc1hFJ_eRJm-C-yMkvWPDN3HbxzidiqYsHURxrQgbBrRd4uTXdS7m2aojLihyLy3j4pZ6qMxhodJVGs8NRCrIxx1G00]--></g></svg>