<?xml version="1.0" encoding="UTF-8" standalone="no"?><svg xmlns="http://www.w3.org/2000/svg" xmlns:xlink="http://www.w3.org/1999/xlink" contentStyleType="text/css" height="788px" preserveAspectRatio="none" style="width:1813px;height:788px;background:#FFFFFF;" version="1.1" viewBox="0 0 1813 788" width="1813px" zoomAndPan="magnify"><defs/><g><rect fill="#DDDDDD" height="776.5595" style="stroke:#181818;stroke-width:0.5;" width="543.625" x="743.625" y="6"/><text fill="#000000" font-family="sans-serif" font-size="20" font-weight="bold" lengthAdjust="spacing" textLength="158.375" x="936.25" y="27.38">«container (C4)»</text><text fill="#000000" font-family="sans-serif" font-size="20" font-weight="bold" lengthAdjust="spacing" textLength="124.125" x="953.375" y="54.62">Visualization</text><rect fill="#FFFFE0" height="776.5595" style="stroke:#181818;stroke-width:0.5;" width="185.5" x="1621.875" y="6"/><text fill="#000000" font-family="sans-serif" font-size="20" font-weight="bold" lengthAdjust="spacing" textLength="158.375" x="1635.4375" y="27.38">«container (C4)»</text><text fill="#000000" font-family="sans-serif" font-size="20" font-weight="bold" lengthAdjust="spacing" textLength="169.5" x="1629.875" y="54.62">MD Management</text><rect fill="#FFFFFF" height="538.3596" style="stroke:#181818;stroke-width:1.0;" width="10" x="100.5" y="143.9599"/><rect fill="#FFFFFF" height="41.24" style="stroke:#181818;stroke-width:1.0;" width="10" x="842.125" y="177.1999"/><rect fill="#FFFFFF" height="407.6397" style="stroke:#181818;stroke-width:1.0;" width="10" x="842.125" y="259.6798"/><rect fill="#FFFFFF" height="172.1999" style="stroke:#181818;stroke-width:1.0;" width="10" x="1200.75" y="300.9198"/><rect fill="#FFFFFF" height="111.7199" style="stroke:#181818;stroke-width:1.0;" width="10" x="1200.75" y="514.3596"/><rect fill="#FFFFFF" height="89.7199" style="stroke:#181818;stroke-width:1.0;" width="10" x="1709.625" y="342.1598"/><rect fill="#FFFFFF" height="70.4799" style="stroke:#181818;stroke-width:1.0;" width="10" x="1709.625" y="514.3596"/><rect fill="none" height="318.1598" style="stroke:#000000;stroke-width:1.5;" width="1786.125" x="10" y="357.1598"/><line style="stroke:#181818;stroke-width:0.5;stroke-dasharray:5.0,5.0;" x1="105" x2="105" y1="133.9599" y2="692.3195"/><line style="stroke:#181818;stroke-width:0.5;stroke-dasharray:5.0,5.0;" x1="846.625" x2="846.625" y1="133.9599" y2="692.3195"/><line style="stroke:#181818;stroke-width:0.5;stroke-dasharray:5.0,5.0;" x1="1205.25" x2="1205.25" y1="133.9599" y2="692.3195"/><line style="stroke:#181818;stroke-width:0.5;stroke-dasharray:5.0,5.0;" x1="1714.125" x2="1714.125" y1="133.9599" y2="692.3195"/><text fill="#000000" font-family="sans-serif" font-size="20" lengthAdjust="spacing" textLength="165" x="20" y="128.0999">Campus Manager</text><ellipse cx="105.5" cy="55.2199" fill="#E2E2F0" rx="8" ry="8" style="stroke:#181818;stroke-width:0.5;"/><path d="M105.5,63.2199 L105.5,90.2199 M92.5,71.2199 L118.5,71.2199 M105.5,90.2199 L92.5,105.2199 M105.5,90.2199 L118.5,105.2199 " fill="none" style="stroke:#181818;stroke-width:0.5;"/><text fill="#000000" font-family="sans-serif" font-size="20" lengthAdjust="spacing" textLength="165" x="20" y="712.6995">Campus Manager</text><ellipse cx="105.5" cy="727.0595" fill="#E2E2F0" rx="8" ry="8" style="stroke:#181818;stroke-width:0.5;"/><path d="M105.5,735.0595 L105.5,762.0595 M92.5,743.0595 L118.5,743.0595 M105.5,762.0595 L92.5,777.0595 M105.5,762.0595 L118.5,777.0595 " fill="none" style="stroke:#181818;stroke-width:0.5;"/><rect fill="#E2E2F0" height="68.4799" rx="2.5" ry="2.5" style="stroke:#181818;stroke-width:0.5;" width="199" x="747.625" y="64.4799"/><text fill="#000000" font-family="sans-serif" font-size="20" font-style="italic" lengthAdjust="spacing" textLength="122" x="786.125" y="92.8599">«component»</text><text fill="#000000" font-family="sans-serif" font-size="20" lengthAdjust="spacing" textLength="185" x="754.625" y="120.0999">ElevatorComponent</text><rect fill="#E2E2F0" height="68.4799" rx="2.5" ry="2.5" style="stroke:#181818;stroke-width:0.5;" width="199" x="747.625" y="691.3195"/><text fill="#000000" font-family="sans-serif" font-size="20" font-style="italic" lengthAdjust="spacing" textLength="122" x="786.125" y="719.6995">«component»</text><text fill="#000000" font-family="sans-serif" font-size="20" lengthAdjust="spacing" textLength="185" x="754.625" y="746.9395">ElevatorComponent</text><rect fill="#E2E2F0" height="68.4799" rx="2.5" ry="2.5" style="stroke:#181818;stroke-width:0.5;" width="155" x="1128.25" y="64.4799"/><text fill="#000000" font-family="sans-serif" font-size="20" font-style="italic" lengthAdjust="spacing" textLength="122" x="1144.75" y="92.8599">«component»</text><text fill="#000000" font-family="sans-serif" font-size="20" lengthAdjust="spacing" textLength="141" x="1135.25" y="120.0999">ElevatorService</text><rect fill="#E2E2F0" height="68.4799" rx="2.5" ry="2.5" style="stroke:#181818;stroke-width:0.5;" width="155" x="1128.25" y="691.3195"/><text fill="#000000" font-family="sans-serif" font-size="20" font-style="italic" lengthAdjust="spacing" textLength="122" x="1144.75" y="719.6995">«component»</text><text fill="#000000" font-family="sans-serif" font-size="20" lengthAdjust="spacing" textLength="141" x="1135.25" y="746.9395">ElevatorService</text><rect fill="#E2E2F0" height="68.4799" rx="2.5" ry="2.5" style="stroke:#181818;stroke-width:0.5;" width="143" x="1643.125" y="64.4799"/><text fill="#000000" font-family="sans-serif" font-size="20" font-style="italic" lengthAdjust="spacing" textLength="122" x="1653.625" y="92.8599">«component»</text><text fill="#000000" font-family="sans-serif" font-size="20" lengthAdjust="spacing" textLength="129" x="1650.125" y="120.0999">ElevatorRoute</text><rect fill="#E2E2F0" height="68.4799" rx="2.5" ry="2.5" style="stroke:#181818;stroke-width:0.5;" width="143" x="1643.125" y="691.3195"/><text fill="#000000" font-family="sans-serif" font-size="20" font-style="italic" lengthAdjust="spacing" textLength="122" x="1653.625" y="719.6995">«component»</text><text fill="#000000" font-family="sans-serif" font-size="20" lengthAdjust="spacing" textLength="129" x="1650.125" y="746.9395">ElevatorRoute</text><rect fill="#FFFFFF" height="538.3596" style="stroke:#181818;stroke-width:1.0;" width="10" x="100.5" y="143.9599"/><rect fill="#FFFFFF" height="41.24" style="stroke:#181818;stroke-width:1.0;" width="10" x="842.125" y="177.1999"/><rect fill="#FFFFFF" height="407.6397" style="stroke:#181818;stroke-width:1.0;" width="10" x="842.125" y="259.6798"/><rect fill="#FFFFFF" height="172.1999" style="stroke:#181818;stroke-width:1.0;" width="10" x="1200.75" y="300.9198"/><rect fill="#FFFFFF" height="111.7199" style="stroke:#181818;stroke-width:1.0;" width="10" x="1200.75" y="514.3596"/><rect fill="#FFFFFF" height="89.7199" style="stroke:#181818;stroke-width:1.0;" width="10" x="1709.625" y="342.1598"/><rect fill="#FFFFFF" height="70.4799" style="stroke:#181818;stroke-width:1.0;" width="10" x="1709.625" y="514.3596"/><polygon fill="#181818" points="830.125,173.1999,840.125,177.1999,830.125,181.1999,834.125,177.1999" style="stroke:#181818;stroke-width:1.0;"/><line style="stroke:#181818;stroke-width:1.0;" x1="110.5" x2="836.125" y1="177.1999" y2="177.1999"/><text fill="#000000" font-family="sans-serif" font-size="20" font-weight="bold" lengthAdjust="spacing" textLength="11.625" x="117.5" y="169.3399">1</text><text fill="#000000" font-family="sans-serif" font-size="20" lengthAdjust="spacing" textLength="369" x="133.125" y="169.3399">wants to create an elevator in a building</text><polygon fill="#181818" points="121.5,214.4398,111.5,218.4398,121.5,222.4398,117.5,218.4398" style="stroke:#181818;stroke-width:1.0;"/><line style="stroke:#181818;stroke-width:1.0;stroke-dasharray:2.0,2.0;" x1="115.5" x2="846.125" y1="218.4398" y2="218.4398"/><text fill="#000000" font-family="sans-serif" font-size="20" font-weight="bold" lengthAdjust="spacing" textLength="11.625" x="127.5" y="210.5799">2</text><text fill="#000000" font-family="sans-serif" font-size="20" lengthAdjust="spacing" textLength="692" x="143.125" y="210.5799">asks for the code, model, brand, serial number, description &amp; floors served</text><polygon fill="#181818" points="830.125,255.6798,840.125,259.6798,830.125,263.6798,834.125,259.6798" style="stroke:#181818;stroke-width:1.0;"/><line style="stroke:#181818;stroke-width:1.0;" x1="110.5" x2="836.125" y1="259.6798" y2="259.6798"/><text fill="#000000" font-family="sans-serif" font-size="20" font-weight="bold" lengthAdjust="spacing" textLength="11.625" x="117.5" y="251.8198">3</text><text fill="#000000" font-family="sans-serif" font-size="20" lengthAdjust="spacing" textLength="144" x="133.125" y="251.8198">inserts the data</text><polygon fill="#181818" points="1188.75,296.9198,1198.75,300.9198,1188.75,304.9198,1192.75,300.9198" style="stroke:#181818;stroke-width:1.0;"/><line style="stroke:#181818;stroke-width:1.0;" x1="852.125" x2="1194.75" y1="300.9198" y2="300.9198"/><text fill="#000000" font-family="sans-serif" font-size="20" font-weight="bold" lengthAdjust="spacing" textLength="11.625" x="859.125" y="293.0598">4</text><text fill="#000000" font-family="sans-serif" font-size="20" lengthAdjust="spacing" textLength="314" x="874.75" y="293.0598">createElevator(buildingCode,data)</text><polygon fill="#181818" points="1697.625,338.1598,1707.625,342.1598,1697.625,346.1598,1701.625,342.1598" style="stroke:#181818;stroke-width:1.0;"/><line style="stroke:#181818;stroke-width:1.0;" x1="1210.75" x2="1703.625" y1="342.1598" y2="342.1598"/><text fill="#000000" font-family="sans-serif" font-size="20" font-weight="bold" lengthAdjust="spacing" textLength="11.625" x="1217.75" y="334.2998">5</text><text fill="#000000" font-family="sans-serif" font-size="20" lengthAdjust="spacing" textLength="447" x="1233.375" y="334.2998">POST /buildings/{buildingCode}/elevators {data}</text><path d="M10,357.1598 L79.875,357.1598 L79.875,376.3997 L69.875,386.3997 L10,386.3997 L10,357.1598 " fill="#EEEEEE" style="stroke:#000000;stroke-width:1.5;"/><rect fill="none" height="318.1598" style="stroke:#000000;stroke-width:1.5;" width="1786.125" x="10" y="357.1598"/><text fill="#000000" font-family="sans-serif" font-size="20" font-weight="bold" lengthAdjust="spacing" textLength="24.875" x="25" y="379.5398">alt</text><text fill="#000000" font-family="sans-serif" font-size="20" font-weight="bold" lengthAdjust="spacing" textLength="258.375" x="94.875" y="380.5398">[a new evelator is created]</text><polygon fill="#181818" points="1221.75,427.8797,1211.75,431.8797,1221.75,435.8797,1217.75,431.8797" style="stroke:#181818;stroke-width:1.0;"/><line style="stroke:#181818;stroke-width:1.0;stroke-dasharray:2.0,2.0;" x1="1215.75" x2="1713.625" y1="431.8797" y2="431.8797"/><text fill="#000000" font-family="sans-serif" font-size="20" font-weight="bold" lengthAdjust="spacing" textLength="11.625" x="1227.75" y="424.0197">6</text><text fill="#000000" font-family="sans-serif" font-size="20" lengthAdjust="spacing" textLength="111" x="1243.375" y="424.0197">201 Created</text><polygon fill="#181818" points="863.125,469.1197,853.125,473.1197,863.125,477.1197,859.125,473.1197" style="stroke:#181818;stroke-width:1.0;"/><line style="stroke:#181818;stroke-width:1.0;stroke-dasharray:2.0,2.0;" x1="857.125" x2="1204.75" y1="473.1197" y2="473.1197"/><text fill="#000000" font-family="sans-serif" font-size="20" font-weight="bold" lengthAdjust="spacing" textLength="11.625" x="869.125" y="465.2597">7</text><text fill="#000000" font-family="sans-serif" font-size="20" lengthAdjust="spacing" textLength="154" x="884.75" y="465.2597">the new elevator</text><polygon fill="#181818" points="121.5,510.3596,111.5,514.3596,121.5,518.3596,117.5,514.3596" style="stroke:#181818;stroke-width:1.0;"/><line style="stroke:#181818;stroke-width:1.0;stroke-dasharray:2.0,2.0;" x1="115.5" x2="841.125" y1="514.3596" y2="514.3596"/><text fill="#000000" font-family="sans-serif" font-size="20" font-weight="bold" lengthAdjust="spacing" textLength="11.625" x="127.5" y="506.4997">8</text><text fill="#000000" font-family="sans-serif" font-size="20" lengthAdjust="spacing" textLength="340" x="143.125" y="506.4997">informs the success of the operation</text><line style="stroke:#000000;stroke-width:1.0;stroke-dasharray:2.0,2.0;" x1="10" x2="1796.125" y1="523.3596" y2="523.3596"/><text fill="#000000" font-family="sans-serif" font-size="20" font-weight="bold" lengthAdjust="spacing" textLength="433.375" x="15" y="544.7396">[there is an evelator with the specified code]</text><polygon fill="#181818" points="1221.75,580.8396,1211.75,584.8396,1221.75,588.8396,1217.75,584.8396" style="stroke:#181818;stroke-width:1.0;"/><line style="stroke:#181818;stroke-width:1.0;stroke-dasharray:2.0,2.0;" x1="1215.75" x2="1713.625" y1="584.8396" y2="584.8396"/><text fill="#000000" font-family="sans-serif" font-size="20" font-weight="bold" lengthAdjust="spacing" textLength="11.625" x="1227.75" y="576.9796">9</text><text fill="#000000" font-family="sans-serif" font-size="20" lengthAdjust="spacing" textLength="154" x="1243.375" y="576.9796">400 Bad Request</text><polygon fill="#181818" points="863.125,622.0796,853.125,626.0796,863.125,630.0796,859.125,626.0796" style="stroke:#181818;stroke-width:1.0;"/><line style="stroke:#181818;stroke-width:1.0;stroke-dasharray:2.0,2.0;" x1="857.125" x2="1204.75" y1="626.0796" y2="626.0796"/><text fill="#000000" font-family="sans-serif" font-size="20" font-weight="bold" lengthAdjust="spacing" textLength="23.25" x="869.125" y="618.2196">10</text><text fill="#000000" font-family="sans-serif" font-size="20" lengthAdjust="spacing" textLength="47" x="896.375" y="618.2196">error</text><polygon fill="#181818" points="121.5,663.3195,111.5,667.3195,121.5,671.3195,117.5,667.3195" style="stroke:#181818;stroke-width:1.0;"/><line style="stroke:#181818;stroke-width:1.0;stroke-dasharray:2.0,2.0;" x1="115.5" x2="846.125" y1="667.3195" y2="667.3195"/><text fill="#000000" font-family="sans-serif" font-size="20" font-weight="bold" lengthAdjust="spacing" textLength="23.25" x="127.5" y="659.4596">11</text><text fill="#000000" font-family="sans-serif" font-size="20" lengthAdjust="spacing" textLength="528" x="154.75" y="659.4596">shows error message "An elevator with that code exists."</text><!--SRC=[ZLFDRXen4BxxAKPKgX892eroGWWftQIdebH08rNgnNW7iF3QMuyNKA8yKH-XjpnPn_iJTgdwSrcnx7o_OzDEsrnwcHcdTfX2YcjPcF3HsR3GZmXN8o6Bu6oHhT0BQgRXjffRuZ7S6Bsn6TemcIX-efzEeVeXX5J1UKXc80bwYSpoWc0chToWxmcnSaVelVnGB2QrHGyNoVNboyzlza5J8Or-b44xsuCJiG1W_Q2LpgKDa9IyTmRtadKIb-NEycI9Q5v-0oqUkh05-hrMU0v2cm8R_8jBcDtMOM9wQFjyyqbljk4h6kCEP_Bp-o_Bkuw1kIl2d-MvGirZo2qAmKqEfXnx30Vc8WWEbCVuLLh0cW-q1GchGfjKsqsBeCHF1eEIGDAEOCtJOOkWN8fzoFXf-h3oqgPz8FHQ6gXMt-UJGShhF6u4tiBQEESfpkmn5IcUYTGcjUM1Q9CbKXbarqkSYiiOrncQFYuQwqbq5N6N9o03X8We1bTLZk7p_M89mmP5mwSsmVEmwONWAP8zdyXA0gxO12xCuW5mZwQga6fJAQyloiNQ6hshqNj8Nh-smjTy0DLy5Iw6Bxbh6rr8cGUWjHXjUIjPLHeLIY4Hk7NvwdBqvPqGQ0ZZNnwZrRZynlb1Xss5pL7fjUPB7RVB6XtDrkkhw_ESrwCHV90fpF5xWHJ-8ojw_- -0j7K7gaOXutHyWQ1tqpg_TGGPIkU0Hqs1tlMwl4cy8g9pz6RY5m00]--></g></svg>