<?xml version="1.0" encoding="UTF-8" standalone="no"?><svg xmlns="http://www.w3.org/2000/svg" xmlns:xlink="http://www.w3.org/1999/xlink" contentStyleType="text/css" height="871px" preserveAspectRatio="none" style="width:1527px;height:871px;background:#FFFFFF;" version="1.1" viewBox="0 0 1527 871" width="1527px" zoomAndPan="magnify"><defs/><g><rect fill="#DDDDDD" height="859.012" style="stroke:#181818;stroke-width:0.5;" width="661.5" x="509.5" y="6"/><text fill="#000000" font-family="sans-serif" font-size="13" font-weight="bold" lengthAdjust="spacing" textLength="107" x="786.75" y="19.897">«container (C4)»</text><text fill="#000000" font-family="sans-serif" font-size="13" font-weight="bold" lengthAdjust="spacing" textLength="84" x="798.25" y="37.603">Visualization</text><rect fill="#FFFFE0" height="859.012" style="stroke:#181818;stroke-width:0.5;" width="126" x="1395" y="6"/><text fill="#000000" font-family="sans-serif" font-size="13" font-weight="bold" lengthAdjust="spacing" textLength="107" x="1404.5" y="19.897">«container (C4)»</text><text fill="#000000" font-family="sans-serif" font-size="13" font-weight="bold" lengthAdjust="spacing" textLength="114" x="1401" y="37.603">MD Management</text><rect fill="#FFFFFF" height="664.3962" style="stroke:#181818;stroke-width:1.0;" width="10" x="78" y="108.5479"/><rect fill="#FFFFFF" height="31.706" style="stroke:#181818;stroke-width:1.0;" width="10" x="564" y="132.2539"/><rect fill="#FFFFFF" height="562.2782" style="stroke:#181818;stroke-width:1.0;" width="10" x="564" y="195.6659"/><rect fill="#FFFFFF" height="323.3541" style="stroke:#181818;stroke-width:1.0;" width="10" x="717" y="227.3719"/><rect fill="#FFFFFF" height="28" style="stroke:#181818;stroke-width:1.0;" width="10" x="722" y="267.0779"/><rect fill="#FFFFFF" height="143.806" style="stroke:#181818;stroke-width:1.0;" width="10" x="717" y="582.4321"/><rect fill="#FFFFFF" height="185.2361" style="stroke:#181818;stroke-width:1.0;" width="10" x="961" y="333.784"/><rect fill="#FFFFFF" height="112.0999" style="stroke:#181818;stroke-width:1.0;" width="10" x="961" y="582.4321"/><rect fill="#FFFFFF" height="121.8241" style="stroke:#181818;stroke-width:1.0;" width="10" x="1113" y="365.49"/><rect fill="#FFFFFF" height="80.3939" style="stroke:#181818;stroke-width:1.0;" width="10" x="1113" y="582.4321"/><rect fill="#FFFFFF" height="58.412" style="stroke:#181818;stroke-width:1.0;" width="10" x="1453" y="397.196"/><rect fill="#FFFFFF" height="48.6879" style="stroke:#181818;stroke-width:1.0;" width="10" x="1453" y="582.4321"/><rect fill="none" height="353.7481" style="stroke:#000000;stroke-width:1.5;" width="1507" x="10" y="412.196"/><line style="stroke:#181818;stroke-width:0.5;stroke-dasharray:5.0,5.0;" x1="83" x2="83" y1="98.5479" y2="782.9441"/><line style="stroke:#181818;stroke-width:0.5;stroke-dasharray:5.0,5.0;" x1="568.5" x2="568.5" y1="98.5479" y2="782.9441"/><line style="stroke:#181818;stroke-width:0.5;stroke-dasharray:5.0,5.0;" x1="722" x2="722" y1="98.5479" y2="782.9441"/><line style="stroke:#181818;stroke-width:0.5;stroke-dasharray:5.0,5.0;" x1="966" x2="966" y1="98.5479" y2="782.9441"/><line style="stroke:#181818;stroke-width:0.5;stroke-dasharray:5.0,5.0;" x1="1118" x2="1118" y1="98.5479" y2="782.9441"/><line style="stroke:#181818;stroke-width:0.5;stroke-dasharray:5.0,5.0;" x1="1458" x2="1458" y1="98.5479" y2="782.9441"/><text fill="#000000" font-family="sans-serif" font-size="14" lengthAdjust="spacing" textLength="120" x="20" y="94.4459">Campus Manager</text><ellipse cx="83" cy="27.9799" fill="#E2E2F0" rx="8" ry="8" style="stroke:#181818;stroke-width:0.5;"/><path d="M83,35.9799 L83,62.9799 M70,43.9799 L96,43.9799 M83,62.9799 L70,77.9799 M83,62.9799 L96,77.9799 " fill="none" style="stroke:#181818;stroke-width:0.5;"/><text fill="#000000" font-family="sans-serif" font-size="14" lengthAdjust="spacing" textLength="120" x="20" y="796.91">Campus Manager</text><ellipse cx="83" cy="809.512" fill="#E2E2F0" rx="8" ry="8" style="stroke:#181818;stroke-width:0.5;"/><path d="M83,817.512 L83,844.512 M70,825.512 L96,825.512 M83,844.512 L70,859.512 M83,844.512 L96,859.512 " fill="none" style="stroke:#181818;stroke-width:0.5;"/><rect fill="#E2E2F0" height="52.1358" rx="2.5" ry="2.5" style="stroke:#181818;stroke-width:0.5;" width="111" x="513.5" y="45.412"/><text fill="#000000" font-family="sans-serif" font-size="14" font-style="italic" lengthAdjust="spacing" textLength="84" x="527" y="67.378">«component»</text><text fill="#000000" font-family="sans-serif" font-size="14" lengthAdjust="spacing" textLength="97" x="520.5" y="86.4459">UI Component</text><rect fill="#E2E2F0" height="52.1358" rx="2.5" ry="2.5" style="stroke:#181818;stroke-width:0.5;" width="111" x="513.5" y="781.9441"/><text fill="#000000" font-family="sans-serif" font-size="14" font-style="italic" lengthAdjust="spacing" textLength="84" x="527" y="803.91">«component»</text><text fill="#000000" font-family="sans-serif" font-size="14" lengthAdjust="spacing" textLength="97" x="520.5" y="822.9779">UI Component</text><rect fill="#E2E2F0" height="52.1358" rx="2.5" ry="2.5" style="stroke:#181818;stroke-width:0.5;" width="98" x="673" y="45.412"/><text fill="#000000" font-family="sans-serif" font-size="14" font-style="italic" lengthAdjust="spacing" textLength="84" x="680" y="67.378">«component»</text><text fill="#000000" font-family="sans-serif" font-size="14" lengthAdjust="spacing" textLength="51" x="696.5" y="86.4459">Module</text><rect fill="#E2E2F0" height="52.1358" rx="2.5" ry="2.5" style="stroke:#181818;stroke-width:0.5;" width="98" x="673" y="781.9441"/><text fill="#000000" font-family="sans-serif" font-size="14" font-style="italic" lengthAdjust="spacing" textLength="84" x="680" y="803.91">«component»</text><text fill="#000000" font-family="sans-serif" font-size="14" lengthAdjust="spacing" textLength="51" x="696.5" y="822.9779">Module</text><rect fill="#E2E2F0" height="52.1358" rx="2.5" ry="2.5" style="stroke:#181818;stroke-width:0.5;" width="98" x="917" y="45.412"/><text fill="#000000" font-family="sans-serif" font-size="14" font-style="italic" lengthAdjust="spacing" textLength="84" x="924" y="67.378">«component»</text><text fill="#000000" font-family="sans-serif" font-size="14" lengthAdjust="spacing" textLength="48" x="942" y="86.4459">Service</text><rect fill="#E2E2F0" height="52.1358" rx="2.5" ry="2.5" style="stroke:#181818;stroke-width:0.5;" width="98" x="917" y="781.9441"/><text fill="#000000" font-family="sans-serif" font-size="14" font-style="italic" lengthAdjust="spacing" textLength="84" x="924" y="803.91">«component»</text><text fill="#000000" font-family="sans-serif" font-size="14" lengthAdjust="spacing" textLength="48" x="942" y="822.9779">Service</text><rect fill="#E2E2F0" height="52.1358" rx="2.5" ry="2.5" style="stroke:#181818;stroke-width:0.5;" width="98" x="1069" y="45.412"/><text fill="#000000" font-family="sans-serif" font-size="14" font-style="italic" lengthAdjust="spacing" textLength="84" x="1076" y="67.378">«component»</text><text fill="#000000" font-family="sans-serif" font-size="14" lengthAdjust="spacing" textLength="34" x="1101" y="86.4459">HTTP</text><rect fill="#E2E2F0" height="52.1358" rx="2.5" ry="2.5" style="stroke:#181818;stroke-width:0.5;" width="98" x="1069" y="781.9441"/><text fill="#000000" font-family="sans-serif" font-size="14" font-style="italic" lengthAdjust="spacing" textLength="84" x="1076" y="803.91">«component»</text><text fill="#000000" font-family="sans-serif" font-size="14" lengthAdjust="spacing" textLength="34" x="1101" y="822.9779">HTTP</text><rect fill="#E2E2F0" height="52.1358" rx="2.5" ry="2.5" style="stroke:#181818;stroke-width:0.5;" width="98" x="1409" y="45.412"/><text fill="#000000" font-family="sans-serif" font-size="14" font-style="italic" lengthAdjust="spacing" textLength="84" x="1416" y="67.378">«component»</text><text fill="#000000" font-family="sans-serif" font-size="14" lengthAdjust="spacing" textLength="39" x="1438.5" y="86.4459">Route</text><rect fill="#E2E2F0" height="52.1358" rx="2.5" ry="2.5" style="stroke:#181818;stroke-width:0.5;" width="98" x="1409" y="781.9441"/><text fill="#000000" font-family="sans-serif" font-size="14" font-style="italic" lengthAdjust="spacing" textLength="84" x="1416" y="803.91">«component»</text><text fill="#000000" font-family="sans-serif" font-size="14" lengthAdjust="spacing" textLength="39" x="1438.5" y="822.9779">Route</text><rect fill="#FFFFFF" height="664.3962" style="stroke:#181818;stroke-width:1.0;" width="10" x="78" y="108.5479"/><rect fill="#FFFFFF" height="31.706" style="stroke:#181818;stroke-width:1.0;" width="10" x="564" y="132.2539"/><rect fill="#FFFFFF" height="562.2782" style="stroke:#181818;stroke-width:1.0;" width="10" x="564" y="195.6659"/><rect fill="#FFFFFF" height="323.3541" style="stroke:#181818;stroke-width:1.0;" width="10" x="717" y="227.3719"/><rect fill="#FFFFFF" height="28" style="stroke:#181818;stroke-width:1.0;" width="10" x="722" y="267.0779"/><rect fill="#FFFFFF" height="143.806" style="stroke:#181818;stroke-width:1.0;" width="10" x="717" y="582.4321"/><rect fill="#FFFFFF" height="185.2361" style="stroke:#181818;stroke-width:1.0;" width="10" x="961" y="333.784"/><rect fill="#FFFFFF" height="112.0999" style="stroke:#181818;stroke-width:1.0;" width="10" x="961" y="582.4321"/><rect fill="#FFFFFF" height="121.8241" style="stroke:#181818;stroke-width:1.0;" width="10" x="1113" y="365.49"/><rect fill="#FFFFFF" height="80.3939" style="stroke:#181818;stroke-width:1.0;" width="10" x="1113" y="582.4321"/><rect fill="#FFFFFF" height="58.412" style="stroke:#181818;stroke-width:1.0;" width="10" x="1453" y="397.196"/><rect fill="#FFFFFF" height="48.6879" style="stroke:#181818;stroke-width:1.0;" width="10" x="1453" y="582.4321"/><polygon fill="#181818" points="552,128.2539,562,132.2539,552,136.2539,556,132.2539" style="stroke:#181818;stroke-width:1.0;"/><line style="stroke:#181818;stroke-width:1.0;" x1="88" x2="558" y1="132.2539" y2="132.2539"/><text fill="#000000" font-family="sans-serif" font-size="13" font-weight="bold" lengthAdjust="spacing" textLength="7" x="95" y="126.4449">1</text><text fill="#000000" font-family="sans-serif" font-size="13" lengthAdjust="spacing" textLength="238" x="106" y="126.4449">wants to create an elevator in a building</text><polygon fill="#181818" points="99,159.9599,89,163.9599,99,167.9599,95,163.9599" style="stroke:#181818;stroke-width:1.0;"/><line style="stroke:#181818;stroke-width:1.0;stroke-dasharray:2.0,2.0;" x1="93" x2="568" y1="163.9599" y2="163.9599"/><text fill="#000000" font-family="sans-serif" font-size="13" font-weight="bold" lengthAdjust="spacing" textLength="7" x="105" y="158.1509">2</text><text fill="#000000" font-family="sans-serif" font-size="13" lengthAdjust="spacing" textLength="441" x="116" y="158.1509">asks for the code, model, brand, serial number, description &amp; floors served</text><polygon fill="#181818" points="552,191.6659,562,195.6659,552,199.6659,556,195.6659" style="stroke:#181818;stroke-width:1.0;"/><line style="stroke:#181818;stroke-width:1.0;" x1="88" x2="558" y1="195.6659" y2="195.6659"/><text fill="#000000" font-family="sans-serif" font-size="13" font-weight="bold" lengthAdjust="spacing" textLength="7" x="95" y="189.8569">3</text><text fill="#000000" font-family="sans-serif" font-size="13" lengthAdjust="spacing" textLength="93" x="106" y="189.8569">inserts the data</text><polygon fill="#181818" points="705,223.3719,715,227.3719,705,231.3719,709,227.3719" style="stroke:#181818;stroke-width:1.0;"/><line style="stroke:#181818;stroke-width:1.0;" x1="574" x2="711" y1="227.3719" y2="227.3719"/><text fill="#000000" font-family="sans-serif" font-size="13" font-weight="bold" lengthAdjust="spacing" textLength="7" x="581" y="221.5629">4</text><text fill="#000000" font-family="sans-serif" font-size="13" lengthAdjust="spacing" textLength="86" x="592" y="221.5629">createElevator</text><line style="stroke:#181818;stroke-width:1.0;" x1="732" x2="774" y1="259.0779" y2="259.0779"/><line style="stroke:#181818;stroke-width:1.0;" x1="774" x2="774" y1="259.0779" y2="272.0779"/><line style="stroke:#181818;stroke-width:1.0;" x1="733" x2="774" y1="272.0779" y2="272.0779"/><polygon fill="#181818" points="743,268.0779,733,272.0779,743,276.0779,739,272.0779" style="stroke:#181818;stroke-width:1.0;"/><text fill="#000000" font-family="sans-serif" font-size="13" font-weight="bold" lengthAdjust="spacing" textLength="7" x="739" y="253.2689">5</text><text fill="#000000" font-family="sans-serif" font-size="13" lengthAdjust="spacing" textLength="83" x="750" y="253.2689">validates data</text><polygon fill="#181818" points="949,329.784,959,333.784,949,337.784,953,333.784" style="stroke:#181818;stroke-width:1.0;"/><line style="stroke:#181818;stroke-width:1.0;" x1="727" x2="955" y1="333.784" y2="333.784"/><text fill="#000000" font-family="sans-serif" font-size="13" font-weight="bold" lengthAdjust="spacing" textLength="7" x="734" y="327.975">6</text><text fill="#000000" font-family="sans-serif" font-size="13" lengthAdjust="spacing" textLength="204" x="745" y="327.975">createElevator(buildingCode,data)</text><polygon fill="#181818" points="1101,361.49,1111,365.49,1101,369.49,1105,365.49" style="stroke:#181818;stroke-width:1.0;"/><line style="stroke:#181818;stroke-width:1.0;" x1="971" x2="1107" y1="365.49" y2="365.49"/><text fill="#000000" font-family="sans-serif" font-size="13" font-weight="bold" lengthAdjust="spacing" textLength="7" x="978" y="359.681">7</text><text fill="#000000" font-family="sans-serif" font-size="13" lengthAdjust="spacing" textLength="81" x="989" y="359.681">post(url,data)</text><polygon fill="#181818" points="1441,393.196,1451,397.196,1441,401.196,1445,397.196" style="stroke:#181818;stroke-width:1.0;"/><line style="stroke:#181818;stroke-width:1.0;" x1="1123" x2="1447" y1="397.196" y2="397.196"/><text fill="#000000" font-family="sans-serif" font-size="13" font-weight="bold" lengthAdjust="spacing" textLength="7" x="1130" y="391.387">8</text><text fill="#000000" font-family="sans-serif" font-size="13" lengthAdjust="spacing" textLength="290" x="1141" y="391.387">POST /buildings/{buildingCode}/elevators {data}</text><path d="M10,412.196 L73,412.196 L73,421.902 L63,431.902 L10,431.902 L10,412.196 " fill="#EEEEEE" style="stroke:#000000;stroke-width:1.5;"/><rect fill="none" height="353.7481" style="stroke:#000000;stroke-width:1.5;" width="1507" x="10" y="412.196"/><text fill="#000000" font-family="sans-serif" font-size="13" font-weight="bold" lengthAdjust="spacing" textLength="18" x="25" y="427.093">alt</text><text fill="#000000" font-family="sans-serif" font-size="11" font-weight="bold" lengthAdjust="spacing" textLength="149" x="88" y="425.9549">[a new evelator is created]</text><polygon fill="#181818" points="1134,451.608,1124,455.608,1134,459.608,1130,455.608" style="stroke:#181818;stroke-width:1.0;"/><line style="stroke:#181818;stroke-width:1.0;stroke-dasharray:2.0,2.0;" x1="1128" x2="1457" y1="455.608" y2="455.608"/><text fill="#000000" font-family="sans-serif" font-size="13" font-weight="bold" lengthAdjust="spacing" textLength="7" x="1140" y="449.799">9</text><text fill="#000000" font-family="sans-serif" font-size="13" lengthAdjust="spacing" textLength="71" x="1151" y="449.799">201 Created</text><polygon fill="#181818" points="982,483.314,972,487.314,982,491.314,978,487.314" style="stroke:#181818;stroke-width:1.0;"/><line style="stroke:#181818;stroke-width:1.0;stroke-dasharray:2.0,2.0;" x1="976" x2="1117" y1="487.314" y2="487.314"/><text fill="#000000" font-family="sans-serif" font-size="13" font-weight="bold" lengthAdjust="spacing" textLength="14" x="988" y="481.505">10</text><text fill="#000000" font-family="sans-serif" font-size="13" lengthAdjust="spacing" textLength="100" x="1006" y="481.505">the new elevator</text><polygon fill="#181818" points="738,515.0201,728,519.0201,738,523.0201,734,519.0201" style="stroke:#181818;stroke-width:1.0;"/><line style="stroke:#181818;stroke-width:1.0;stroke-dasharray:2.0,2.0;" x1="732" x2="965" y1="519.0201" y2="519.0201"/><text fill="#000000" font-family="sans-serif" font-size="13" font-weight="bold" lengthAdjust="spacing" textLength="14" x="744" y="513.2111">11</text><text fill="#000000" font-family="sans-serif" font-size="13" lengthAdjust="spacing" textLength="100" x="762" y="513.2111">the new elevator</text><polygon fill="#181818" points="585,546.7261,575,550.7261,585,554.7261,581,550.7261" style="stroke:#181818;stroke-width:1.0;"/><line style="stroke:#181818;stroke-width:1.0;stroke-dasharray:2.0,2.0;" x1="579" x2="721" y1="550.7261" y2="550.7261"/><text fill="#000000" font-family="sans-serif" font-size="13" font-weight="bold" lengthAdjust="spacing" textLength="14" x="591" y="544.9171">12</text><text fill="#000000" font-family="sans-serif" font-size="13" lengthAdjust="spacing" textLength="101" x="609" y="544.9171">success message</text><polygon fill="#181818" points="99,578.4321,89,582.4321,99,586.4321,95,582.4321" style="stroke:#181818;stroke-width:1.0;"/><line style="stroke:#181818;stroke-width:1.0;stroke-dasharray:2.0,2.0;" x1="93" x2="563" y1="582.4321" y2="582.4321"/><text fill="#000000" font-family="sans-serif" font-size="13" font-weight="bold" lengthAdjust="spacing" textLength="14" x="105" y="576.6231">13</text><text fill="#000000" font-family="sans-serif" font-size="13" lengthAdjust="spacing" textLength="217" x="123" y="576.6231">informs the success of the operation</text><line style="stroke:#000000;stroke-width:1.0;stroke-dasharray:2.0,2.0;" x1="10" x2="1517" y1="591.4321" y2="591.4321"/><text fill="#000000" font-family="sans-serif" font-size="11" font-weight="bold" lengthAdjust="spacing" textLength="248" x="15" y="603.191">[there is an evelator with the specified code]</text><polygon fill="#181818" points="1134,627.12,1124,631.12,1134,635.12,1130,631.12" style="stroke:#181818;stroke-width:1.0;"/><line style="stroke:#181818;stroke-width:1.0;stroke-dasharray:2.0,2.0;" x1="1128" x2="1457" y1="631.12" y2="631.12"/><text fill="#000000" font-family="sans-serif" font-size="13" font-weight="bold" lengthAdjust="spacing" textLength="14" x="1140" y="625.311">14</text><text fill="#000000" font-family="sans-serif" font-size="13" lengthAdjust="spacing" textLength="99" x="1158" y="625.311">400 Bad Request</text><polygon fill="#181818" points="982,658.826,972,662.826,982,666.826,978,662.826" style="stroke:#181818;stroke-width:1.0;"/><line style="stroke:#181818;stroke-width:1.0;stroke-dasharray:2.0,2.0;" x1="976" x2="1117" y1="662.826" y2="662.826"/><text fill="#000000" font-family="sans-serif" font-size="13" font-weight="bold" lengthAdjust="spacing" textLength="14" x="988" y="657.017">15</text><text fill="#000000" font-family="sans-serif" font-size="13" lengthAdjust="spacing" textLength="30" x="1006" y="657.017">error</text><polygon fill="#181818" points="738,690.532,728,694.532,738,698.532,734,694.532" style="stroke:#181818;stroke-width:1.0;"/><line style="stroke:#181818;stroke-width:1.0;stroke-dasharray:2.0,2.0;" x1="732" x2="965" y1="694.532" y2="694.532"/><text fill="#000000" font-family="sans-serif" font-size="13" font-weight="bold" lengthAdjust="spacing" textLength="14" x="744" y="688.723">16</text><text fill="#000000" font-family="sans-serif" font-size="13" lengthAdjust="spacing" textLength="30" x="762" y="688.723">error</text><polygon fill="#181818" points="585,722.2381,575,726.2381,585,730.2381,581,726.2381" style="stroke:#181818;stroke-width:1.0;"/><line style="stroke:#181818;stroke-width:1.0;stroke-dasharray:2.0,2.0;" x1="579" x2="721" y1="726.2381" y2="726.2381"/><text fill="#000000" font-family="sans-serif" font-size="13" font-weight="bold" lengthAdjust="spacing" textLength="14" x="591" y="720.429">17</text><text fill="#000000" font-family="sans-serif" font-size="13" lengthAdjust="spacing" textLength="30" x="609" y="720.429">error</text><polygon fill="#181818" points="99,753.9441,89,757.9441,99,761.9441,95,757.9441" style="stroke:#181818;stroke-width:1.0;"/><line style="stroke:#181818;stroke-width:1.0;stroke-dasharray:2.0,2.0;" x1="93" x2="568" y1="757.9441" y2="757.9441"/><text fill="#000000" font-family="sans-serif" font-size="13" font-weight="bold" lengthAdjust="spacing" textLength="14" x="105" y="752.1351">18</text><text fill="#000000" font-family="sans-serif" font-size="13" lengthAdjust="spacing" textLength="337" x="123" y="752.1351">shows error message "An elevator with that code exists."</text><!--MD5=[3abfcf551a2061c28c8f35d76d037428]
@startuml process-view
autonumber
skinparam DefaultTextAlignment<<center>> center

actor CM as "Campus Manager"

box "«container (C4)»\nVisualization" <<center>>
  participant C as "UI Component" <<component>>
  participant M as "Module" <<component>>
  participant SVC as "Service" <<component>>
  participant H as "HTTP" <<component>>
end box

box "«container (C4)»\n MD Management " <<center>>#LightYellow
  participant ROUTE as "Route" <<component>>
end box

activate CM

CM -> C : wants to create an elevator in a building
activate C

CM <- - C : asks for the code, model, brand, serial number, description & floors served
deactivate C

CM -> C : inserts the data
activate C

C -> M : createElevator
activate M

M -> M : validates data
activate M
deactivate M

M -> SVC : createElevator(buildingCode,data)
activate SVC

SVC -> H : post(url,data)
activate H

H -> ROUTE : POST /buildings/{buildingCode}/elevators {data}
activate ROUTE

alt a new evelator is created
  H <- - ROUTE : 201 Created
  deactivate ROUTE

  SVC <- - H : the new elevator
  deactivate H

  M <- - SVC : the new elevator
  deactivate SVC

  C <- - M : success message
  deactivate M

  CM <- - C : informs the success of the operation
else there is an evelator with the specified code
  activate H
  activate M
  activate SVC
  activate ROUTE

  H <- - ROUTE : 400 Bad Request
  deactivate ROUTE

  SVC <- - H : error
  deactivate H

  M <- - SVC : error
  deactivate SVC

  C <- - M : error
  deactivate M

  CM <- - C : shows error message "An elevator with that code exists."
  deactivate C
end

deactivate CM

@enduml

PlantUML version 1.2022.7(Mon Aug 22 18:01:30 WEST 2022)
(GPL source distribution)
Java Runtime: OpenJDK Runtime Environment
JVM: OpenJDK 64-Bit Server VM
Default Encoding: UTF-8
Language: en
Country: GB
--></g></svg>