<?xml version="1.0" encoding="UTF-8" standalone="no"?><svg xmlns="http://www.w3.org/2000/svg" xmlns:xlink="http://www.w3.org/1999/xlink" contentStyleType="text/css" height="1017px" preserveAspectRatio="none" style="width:2459px;height:1017px;background:#FFFFFF;" version="1.1" viewBox="0 0 2459 1017" width="2459px" zoomAndPan="magnify"><defs/><g><rect fill="#DDDDDD" height="1005.3125" style="stroke:#181818;stroke-width:0.5;" width="1028" x="824.5" y="6"/><text fill="#000000" font-family="sans-serif" font-size="20" font-weight="bold" lengthAdjust="spacing" textLength="189" x="1244" y="24.5645">«container (C4)»</text><text fill="#000000" font-family="sans-serif" font-size="20" font-weight="bold" lengthAdjust="spacing" textLength="147" x="1265" y="47.8457">Visualization</text><rect fill="#FFFFE0" height="1005.3125" style="stroke:#181818;stroke-width:0.5;" width="213" x="2240.5" y="6"/><text fill="#000000" font-family="sans-serif" font-size="20" font-weight="bold" lengthAdjust="spacing" textLength="189" x="2252.5" y="24.5645">«container (C4)»</text><text fill="#000000" font-family="sans-serif" font-size="20" font-weight="bold" lengthAdjust="spacing" textLength="193" x="2250.5" y="47.8457">MD Management</text><rect fill="#FFFFFF" height="786.9063" style="stroke:#181818;stroke-width:1.0;" width="10" x="105.5" y="128.125"/><rect fill="#FFFFFF" height="37.2813" style="stroke:#181818;stroke-width:1.0;" width="10" x="902.5" y="157.4063"/><rect fill="#FFFFFF" height="668.0625" style="stroke:#181818;stroke-width:1.0;" width="10" x="902.5" y="231.9688"/><rect fill="#FFFFFF" height="381.8125" style="stroke:#181818;stroke-width:1.0;" width="10" x="1140.5" y="269.25"/><rect fill="#FFFFFF" height="28" style="stroke:#181818;stroke-width:1.0;" width="10" x="1145.5" y="314.5313"/><rect fill="#FFFFFF" height="174.4063" style="stroke:#181818;stroke-width:1.0;" width="10" x="1140.5" y="688.3438"/><rect fill="#FFFFFF" height="226.9688" style="stroke:#181818;stroke-width:1.0;" width="10" x="1533.5" y="386.8125"/><rect fill="#FFFFFF" height="137.125" style="stroke:#181818;stroke-width:1.0;" width="10" x="1533.5" y="688.3438"/><rect fill="#FFFFFF" height="152.4063" style="stroke:#181818;stroke-width:1.0;" width="10" x="1767.5" y="424.0938"/><rect fill="#FFFFFF" height="99.8438" style="stroke:#181818;stroke-width:1.0;" width="10" x="1767.5" y="688.3438"/><rect fill="#FFFFFF" height="77.8438" style="stroke:#181818;stroke-width:1.0;" width="10" x="2342" y="461.375"/><rect fill="#FFFFFF" height="62.5625" style="stroke:#181818;stroke-width:1.0;" width="10" x="2342" y="688.3438"/><rect fill="none" height="431.6563" style="stroke:#000000;stroke-width:1.5;" width="2423" x="10" y="476.375"/><line style="stroke:#181818;stroke-width:0.5;stroke-dasharray:5.0,5.0;" x1="110" x2="110" y1="118.125" y2="925.0313"/><line style="stroke:#181818;stroke-width:0.5;stroke-dasharray:5.0,5.0;" x1="907.5" x2="907.5" y1="118.125" y2="925.0313"/><line style="stroke:#181818;stroke-width:0.5;stroke-dasharray:5.0,5.0;" x1="1145.5" x2="1145.5" y1="118.125" y2="925.0313"/><line style="stroke:#181818;stroke-width:0.5;stroke-dasharray:5.0,5.0;" x1="1538.5" x2="1538.5" y1="118.125" y2="925.0313"/><line style="stroke:#181818;stroke-width:0.5;stroke-dasharray:5.0,5.0;" x1="1772.5" x2="1772.5" y1="118.125" y2="925.0313"/><line style="stroke:#181818;stroke-width:0.5;stroke-dasharray:5.0,5.0;" x1="2347" x2="2347" y1="118.125" y2="925.0313"/><text fill="#000000" font-family="sans-serif" font-size="20" lengthAdjust="spacing" textLength="175" x="20" y="113.4082">Campus Manager</text><ellipse cx="110.5" cy="43.3438" fill="#E2E2F0" rx="8" ry="8" style="stroke:#181818;stroke-width:0.5;"/><path d="M110.5,51.3438 L110.5,78.3438 M97.5,59.3438 L123.5,59.3438 M110.5,78.3438 L97.5,93.3438 M110.5,78.3438 L123.5,93.3438 " fill="none" style="stroke:#181818;stroke-width:0.5;"/><text fill="#000000" font-family="sans-serif" font-size="20" lengthAdjust="spacing" textLength="175" x="20" y="942.5957">Campus Manager</text><ellipse cx="110.5" cy="955.8125" fill="#E2E2F0" rx="8" ry="8" style="stroke:#181818;stroke-width:0.5;"/><path d="M110.5,963.8125 L110.5,990.8125 M97.5,971.8125 L123.5,971.8125 M110.5,990.8125 L97.5,1005.8125 M110.5,990.8125 L123.5,1005.8125 " fill="none" style="stroke:#181818;stroke-width:0.5;"/><rect fill="#E2E2F0" height="60.5625" rx="2.5" ry="2.5" style="stroke:#181818;stroke-width:0.5;" width="158" x="828.5" y="56.5625"/><text fill="#000000" font-family="sans-serif" font-size="20" font-style="italic" lengthAdjust="spacing" textLength="138" x="838.5" y="82.127">«component»</text><text fill="#000000" font-family="sans-serif" font-size="20" lengthAdjust="spacing" textLength="144" x="835.5" y="105.4082">UI Component</text><rect fill="#E2E2F0" height="60.5625" rx="2.5" ry="2.5" style="stroke:#181818;stroke-width:0.5;" width="158" x="828.5" y="924.0313"/><text fill="#000000" font-family="sans-serif" font-size="20" font-style="italic" lengthAdjust="spacing" textLength="138" x="838.5" y="949.5957">«component»</text><text fill="#000000" font-family="sans-serif" font-size="20" lengthAdjust="spacing" textLength="144" x="835.5" y="972.877">UI Component</text><rect fill="#E2E2F0" height="60.5625" rx="2.5" ry="2.5" style="stroke:#181818;stroke-width:0.5;" width="152" x="1069.5" y="56.5625"/><text fill="#000000" font-family="sans-serif" font-size="20" font-style="italic" lengthAdjust="spacing" textLength="138" x="1076.5" y="82.127">«component»</text><text fill="#000000" font-family="sans-serif" font-size="20" lengthAdjust="spacing" textLength="73" x="1109" y="105.4082">Module</text><rect fill="#E2E2F0" height="60.5625" rx="2.5" ry="2.5" style="stroke:#181818;stroke-width:0.5;" width="152" x="1069.5" y="924.0313"/><text fill="#000000" font-family="sans-serif" font-size="20" font-style="italic" lengthAdjust="spacing" textLength="138" x="1076.5" y="949.5957">«component»</text><text fill="#000000" font-family="sans-serif" font-size="20" lengthAdjust="spacing" textLength="73" x="1109" y="972.877">Module</text><rect fill="#E2E2F0" height="60.5625" rx="2.5" ry="2.5" style="stroke:#181818;stroke-width:0.5;" width="152" x="1462.5" y="56.5625"/><text fill="#000000" font-family="sans-serif" font-size="20" font-style="italic" lengthAdjust="spacing" textLength="138" x="1469.5" y="82.127">«component»</text><text fill="#000000" font-family="sans-serif" font-size="20" lengthAdjust="spacing" textLength="73" x="1502" y="105.4082">Service</text><rect fill="#E2E2F0" height="60.5625" rx="2.5" ry="2.5" style="stroke:#181818;stroke-width:0.5;" width="152" x="1462.5" y="924.0313"/><text fill="#000000" font-family="sans-serif" font-size="20" font-style="italic" lengthAdjust="spacing" textLength="138" x="1469.5" y="949.5957">«component»</text><text fill="#000000" font-family="sans-serif" font-size="20" lengthAdjust="spacing" textLength="73" x="1502" y="972.877">Service</text><rect fill="#E2E2F0" height="60.5625" rx="2.5" ry="2.5" style="stroke:#181818;stroke-width:0.5;" width="152" x="1696.5" y="56.5625"/><text fill="#000000" font-family="sans-serif" font-size="20" font-style="italic" lengthAdjust="spacing" textLength="138" x="1703.5" y="82.127">«component»</text><text fill="#000000" font-family="sans-serif" font-size="20" lengthAdjust="spacing" textLength="51" x="1747" y="105.4082">HTTP</text><rect fill="#E2E2F0" height="60.5625" rx="2.5" ry="2.5" style="stroke:#181818;stroke-width:0.5;" width="152" x="1696.5" y="924.0313"/><text fill="#000000" font-family="sans-serif" font-size="20" font-style="italic" lengthAdjust="spacing" textLength="138" x="1703.5" y="949.5957">«component»</text><text fill="#000000" font-family="sans-serif" font-size="20" lengthAdjust="spacing" textLength="51" x="1747" y="972.877">HTTP</text><rect fill="#E2E2F0" height="60.5625" rx="2.5" ry="2.5" style="stroke:#181818;stroke-width:0.5;" width="152" x="2271" y="56.5625"/><text fill="#000000" font-family="sans-serif" font-size="20" font-style="italic" lengthAdjust="spacing" textLength="138" x="2278" y="82.127">«component»</text><text fill="#000000" font-family="sans-serif" font-size="20" lengthAdjust="spacing" textLength="59" x="2317.5" y="105.4082">Route</text><rect fill="#E2E2F0" height="60.5625" rx="2.5" ry="2.5" style="stroke:#181818;stroke-width:0.5;" width="152" x="2271" y="924.0313"/><text fill="#000000" font-family="sans-serif" font-size="20" font-style="italic" lengthAdjust="spacing" textLength="138" x="2278" y="949.5957">«component»</text><text fill="#000000" font-family="sans-serif" font-size="20" lengthAdjust="spacing" textLength="59" x="2317.5" y="972.877">Route</text><rect fill="#FFFFFF" height="786.9063" style="stroke:#181818;stroke-width:1.0;" width="10" x="105.5" y="128.125"/><rect fill="#FFFFFF" height="37.2813" style="stroke:#181818;stroke-width:1.0;" width="10" x="902.5" y="157.4063"/><rect fill="#FFFFFF" height="668.0625" style="stroke:#181818;stroke-width:1.0;" width="10" x="902.5" y="231.9688"/><rect fill="#FFFFFF" height="381.8125" style="stroke:#181818;stroke-width:1.0;" width="10" x="1140.5" y="269.25"/><rect fill="#FFFFFF" height="28" style="stroke:#181818;stroke-width:1.0;" width="10" x="1145.5" y="314.5313"/><rect fill="#FFFFFF" height="174.4063" style="stroke:#181818;stroke-width:1.0;" width="10" x="1140.5" y="688.3438"/><rect fill="#FFFFFF" height="226.9688" style="stroke:#181818;stroke-width:1.0;" width="10" x="1533.5" y="386.8125"/><rect fill="#FFFFFF" height="137.125" style="stroke:#181818;stroke-width:1.0;" width="10" x="1533.5" y="688.3438"/><rect fill="#FFFFFF" height="152.4063" style="stroke:#181818;stroke-width:1.0;" width="10" x="1767.5" y="424.0938"/><rect fill="#FFFFFF" height="99.8438" style="stroke:#181818;stroke-width:1.0;" width="10" x="1767.5" y="688.3438"/><rect fill="#FFFFFF" height="77.8438" style="stroke:#181818;stroke-width:1.0;" width="10" x="2342" y="461.375"/><rect fill="#FFFFFF" height="62.5625" style="stroke:#181818;stroke-width:1.0;" width="10" x="2342" y="688.3438"/><polygon fill="#181818" points="890.5,153.4063,900.5,157.4063,890.5,161.4063,894.5,157.4063" style="stroke:#181818;stroke-width:1.0;"/><line style="stroke:#181818;stroke-width:1.0;" x1="115.5" x2="896.5" y1="157.4063" y2="157.4063"/><text fill="#000000" font-family="sans-serif" font-size="20" font-weight="bold" lengthAdjust="spacing" textLength="14" x="122.5" y="150.6895">1</text><text fill="#000000" font-family="sans-serif" font-size="20" lengthAdjust="spacing" textLength="405" x="140.5" y="150.6895">wants to create an elevator in a building</text><polygon fill="#181818" points="126.5,190.6875,116.5,194.6875,126.5,198.6875,122.5,194.6875" style="stroke:#181818;stroke-width:1.0;"/><line style="stroke:#181818;stroke-width:1.0;stroke-dasharray:2.0,2.0;" x1="120.5" x2="906.5" y1="194.6875" y2="194.6875"/><text fill="#000000" font-family="sans-serif" font-size="20" font-weight="bold" lengthAdjust="spacing" textLength="14" x="132.5" y="187.9707">2</text><text fill="#000000" font-family="sans-serif" font-size="20" lengthAdjust="spacing" textLength="745" x="150.5" y="187.9707">asks for the code, model, brand, serial number, description &amp; floors served</text><polygon fill="#181818" points="890.5,227.9688,900.5,231.9688,890.5,235.9688,894.5,231.9688" style="stroke:#181818;stroke-width:1.0;"/><line style="stroke:#181818;stroke-width:1.0;" x1="115.5" x2="896.5" y1="231.9688" y2="231.9688"/><text fill="#000000" font-family="sans-serif" font-size="20" font-weight="bold" lengthAdjust="spacing" textLength="14" x="122.5" y="225.252">3</text><text fill="#000000" font-family="sans-serif" font-size="20" lengthAdjust="spacing" textLength="157" x="140.5" y="225.252">inserts the data</text><polygon fill="#181818" points="1128.5,265.25,1138.5,269.25,1128.5,273.25,1132.5,269.25" style="stroke:#181818;stroke-width:1.0;"/><line style="stroke:#181818;stroke-width:1.0;" x1="912.5" x2="1134.5" y1="269.25" y2="269.25"/><text fill="#000000" font-family="sans-serif" font-size="20" font-weight="bold" lengthAdjust="spacing" textLength="14" x="919.5" y="262.5332">4</text><text fill="#000000" font-family="sans-serif" font-size="20" lengthAdjust="spacing" textLength="145" x="937.5" y="262.5332">createElevator</text><line style="stroke:#181818;stroke-width:1.0;" x1="1155.5" x2="1197.5" y1="306.5313" y2="306.5313"/><line style="stroke:#181818;stroke-width:1.0;" x1="1197.5" x2="1197.5" y1="306.5313" y2="319.5313"/><line style="stroke:#181818;stroke-width:1.0;" x1="1156.5" x2="1197.5" y1="319.5313" y2="319.5313"/><polygon fill="#181818" points="1166.5,315.5313,1156.5,319.5313,1166.5,323.5313,1162.5,319.5313" style="stroke:#181818;stroke-width:1.0;"/><text fill="#000000" font-family="sans-serif" font-size="20" font-weight="bold" lengthAdjust="spacing" textLength="14" x="1162.5" y="299.8145">5</text><text fill="#000000" font-family="sans-serif" font-size="20" lengthAdjust="spacing" textLength="141" x="1180.5" y="299.8145">validates data</text><polygon fill="#181818" points="1521.5,382.8125,1531.5,386.8125,1521.5,390.8125,1525.5,386.8125" style="stroke:#181818;stroke-width:1.0;"/><line style="stroke:#181818;stroke-width:1.0;" x1="1150.5" x2="1527.5" y1="386.8125" y2="386.8125"/><text fill="#000000" font-family="sans-serif" font-size="20" font-weight="bold" lengthAdjust="spacing" textLength="14" x="1157.5" y="380.0957">6</text><text fill="#000000" font-family="sans-serif" font-size="20" lengthAdjust="spacing" textLength="346" x="1175.5" y="380.0957">createElevator(buildingCode,data)</text><polygon fill="#181818" points="1755.5,420.0938,1765.5,424.0938,1755.5,428.0938,1759.5,424.0938" style="stroke:#181818;stroke-width:1.0;"/><line style="stroke:#181818;stroke-width:1.0;" x1="1543.5" x2="1761.5" y1="424.0938" y2="424.0938"/><text fill="#000000" font-family="sans-serif" font-size="20" font-weight="bold" lengthAdjust="spacing" textLength="14" x="1550.5" y="417.377">7</text><text fill="#000000" font-family="sans-serif" font-size="20" lengthAdjust="spacing" textLength="137" x="1568.5" y="417.377">post(url,data)</text><polygon fill="#181818" points="2330,457.375,2340,461.375,2330,465.375,2334,461.375" style="stroke:#181818;stroke-width:1.0;"/><line style="stroke:#181818;stroke-width:1.0;" x1="1777.5" x2="2336" y1="461.375" y2="461.375"/><text fill="#000000" font-family="sans-serif" font-size="20" font-weight="bold" lengthAdjust="spacing" textLength="14" x="1784.5" y="454.6582">8</text><text fill="#000000" font-family="sans-serif" font-size="20" lengthAdjust="spacing" textLength="501" x="1802.5" y="454.6582">POST /buildings/{buildingCode}/elevators {data}</text><path d="M10,476.375 L86,476.375 L86,491.6563 L76,501.6563 L10,501.6563 L10,476.375 " fill="#EEEEEE" style="stroke:#000000;stroke-width:1.5;"/><rect fill="none" height="431.6563" style="stroke:#000000;stroke-width:1.5;" width="2423" x="10" y="476.375"/><text fill="#000000" font-family="sans-serif" font-size="20" font-weight="bold" lengthAdjust="spacing" textLength="31" x="25" y="495.9395">alt</text><text fill="#000000" font-family="sans-serif" font-size="20" font-weight="bold" lengthAdjust="spacing" textLength="309" x="101" y="496.9395">[a new evelator is created]</text><polygon fill="#181818" points="1788.5,535.2188,1778.5,539.2188,1788.5,543.2188,1784.5,539.2188" style="stroke:#181818;stroke-width:1.0;"/><line style="stroke:#181818;stroke-width:1.0;stroke-dasharray:2.0,2.0;" x1="1782.5" x2="2346" y1="539.2188" y2="539.2188"/><text fill="#000000" font-family="sans-serif" font-size="20" font-weight="bold" lengthAdjust="spacing" textLength="14" x="1794.5" y="532.502">9</text><text fill="#000000" font-family="sans-serif" font-size="20" lengthAdjust="spacing" textLength="124" x="1812.5" y="532.502">201 Created</text><polygon fill="#181818" points="1554.5,572.5,1544.5,576.5,1554.5,580.5,1550.5,576.5" style="stroke:#181818;stroke-width:1.0;"/><line style="stroke:#181818;stroke-width:1.0;stroke-dasharray:2.0,2.0;" x1="1548.5" x2="1771.5" y1="576.5" y2="576.5"/><text fill="#000000" font-family="sans-serif" font-size="20" font-weight="bold" lengthAdjust="spacing" textLength="28" x="1560.5" y="569.7832">10</text><text fill="#000000" font-family="sans-serif" font-size="20" lengthAdjust="spacing" textLength="168" x="1592.5" y="569.7832">the new elevator</text><polygon fill="#181818" points="1161.5,609.7813,1151.5,613.7813,1161.5,617.7813,1157.5,613.7813" style="stroke:#181818;stroke-width:1.0;"/><line style="stroke:#181818;stroke-width:1.0;stroke-dasharray:2.0,2.0;" x1="1155.5" x2="1537.5" y1="613.7813" y2="613.7813"/><text fill="#000000" font-family="sans-serif" font-size="20" font-weight="bold" lengthAdjust="spacing" textLength="28" x="1167.5" y="607.0645">11</text><text fill="#000000" font-family="sans-serif" font-size="20" lengthAdjust="spacing" textLength="168" x="1199.5" y="607.0645">the new elevator</text><polygon fill="#181818" points="923.5,647.0625,913.5,651.0625,923.5,655.0625,919.5,651.0625" style="stroke:#181818;stroke-width:1.0;"/><line style="stroke:#181818;stroke-width:1.0;stroke-dasharray:2.0,2.0;" x1="917.5" x2="1144.5" y1="651.0625" y2="651.0625"/><text fill="#000000" font-family="sans-serif" font-size="20" font-weight="bold" lengthAdjust="spacing" textLength="28" x="929.5" y="644.3457">12</text><text fill="#000000" font-family="sans-serif" font-size="20" lengthAdjust="spacing" textLength="172" x="961.5" y="644.3457">success message</text><polygon fill="#181818" points="126.5,684.3438,116.5,688.3438,126.5,692.3438,122.5,688.3438" style="stroke:#181818;stroke-width:1.0;"/><line style="stroke:#181818;stroke-width:1.0;stroke-dasharray:2.0,2.0;" x1="120.5" x2="901.5" y1="688.3438" y2="688.3438"/><text fill="#000000" font-family="sans-serif" font-size="20" font-weight="bold" lengthAdjust="spacing" textLength="28" x="132.5" y="681.627">13</text><text fill="#000000" font-family="sans-serif" font-size="20" lengthAdjust="spacing" textLength="364" x="164.5" y="681.627">informs the success of the operation</text><line style="stroke:#000000;stroke-width:1.0;stroke-dasharray:2.0,2.0;" x1="10" x2="2433" y1="697.3438" y2="697.3438"/><text fill="#000000" font-family="sans-serif" font-size="20" font-weight="bold" lengthAdjust="spacing" textLength="516" x="15" y="715.9082">[there is an evelator with the specified code]</text><polygon fill="#181818" points="1788.5,746.9063,1778.5,750.9063,1788.5,754.9063,1784.5,750.9063" style="stroke:#181818;stroke-width:1.0;"/><line style="stroke:#181818;stroke-width:1.0;stroke-dasharray:2.0,2.0;" x1="1782.5" x2="2346" y1="750.9063" y2="750.9063"/><text fill="#000000" font-family="sans-serif" font-size="20" font-weight="bold" lengthAdjust="spacing" textLength="28" x="1794.5" y="744.1895">14</text><text fill="#000000" font-family="sans-serif" font-size="20" lengthAdjust="spacing" textLength="172" x="1826.5" y="744.1895">400 Bad Request</text><polygon fill="#181818" points="1554.5,784.1875,1544.5,788.1875,1554.5,792.1875,1550.5,788.1875" style="stroke:#181818;stroke-width:1.0;"/><line style="stroke:#181818;stroke-width:1.0;stroke-dasharray:2.0,2.0;" x1="1548.5" x2="1771.5" y1="788.1875" y2="788.1875"/><text fill="#000000" font-family="sans-serif" font-size="20" font-weight="bold" lengthAdjust="spacing" textLength="28" x="1560.5" y="781.4707">15</text><text fill="#000000" font-family="sans-serif" font-size="20" lengthAdjust="spacing" textLength="48" x="1592.5" y="781.4707">error</text><polygon fill="#181818" points="1161.5,821.4688,1151.5,825.4688,1161.5,829.4688,1157.5,825.4688" style="stroke:#181818;stroke-width:1.0;"/><line style="stroke:#181818;stroke-width:1.0;stroke-dasharray:2.0,2.0;" x1="1155.5" x2="1537.5" y1="825.4688" y2="825.4688"/><text fill="#000000" font-family="sans-serif" font-size="20" font-weight="bold" lengthAdjust="spacing" textLength="28" x="1167.5" y="818.752">16</text><text fill="#000000" font-family="sans-serif" font-size="20" lengthAdjust="spacing" textLength="48" x="1199.5" y="818.752">error</text><polygon fill="#181818" points="923.5,858.75,913.5,862.75,923.5,866.75,919.5,862.75" style="stroke:#181818;stroke-width:1.0;"/><line style="stroke:#181818;stroke-width:1.0;stroke-dasharray:2.0,2.0;" x1="917.5" x2="1144.5" y1="862.75" y2="862.75"/><text fill="#000000" font-family="sans-serif" font-size="20" font-weight="bold" lengthAdjust="spacing" textLength="28" x="929.5" y="856.0332">17</text><text fill="#000000" font-family="sans-serif" font-size="20" lengthAdjust="spacing" textLength="48" x="961.5" y="856.0332">error</text><polygon fill="#181818" points="126.5,896.0313,116.5,900.0313,126.5,904.0313,122.5,900.0313" style="stroke:#181818;stroke-width:1.0;"/><line style="stroke:#181818;stroke-width:1.0;stroke-dasharray:2.0,2.0;" x1="120.5" x2="906.5" y1="900.0313" y2="900.0313"/><text fill="#000000" font-family="sans-serif" font-size="20" font-weight="bold" lengthAdjust="spacing" textLength="28" x="132.5" y="893.3145">18</text><text fill="#000000" font-family="sans-serif" font-size="20" lengthAdjust="spacing" textLength="571" x="164.5" y="893.3145">shows error message "An elevator with that code exists."</text><!--SRC=[ZPHHJzim4CVV_IbEdJGLgHqTuWbLI2mmPT8Y42r8a_RY9jVMmh4pssah49ze7s5lVBATxOQcWS5UehhvtV_k_dUnlHEgueQNKkTtM421SrvBzrKhDn7t24SZnckdLLtEq33Rq70UkIbkt9aK2rMYSkDnJayqfwSGVp36SwSD91bm2xs4brLj8UEABz3q69lf3VIUVkUKZ0k51lh9yS7Jdv_gLjYQIt7FdT2g1pjX1a3vdSX5nPM39EZUV8D4bvLM10MuERpWOnsPBcg9RvEJswWzGRCI-Jjm6j1qEhtgSgWAe2xVQ1MoywqZta9eD_lXkrWitG-KKgyx6QylRwON8UkrhXt-CotvBrRS8Os0CHh3y9GyEu4rQLXm6dA3_YrNW189f6491HncjP25K8kMG8WV3uT1WDix2tEYtH8XrmKEeAId7C3CS5KCmA8HN4BScm6jbSsDgFmuuIFCfTR6UcQ51IkmasHRf504-38fHS4Ttw_5KnbHiOEBRVKxXlhD6cP5kqGAQ3iwMJjt4-0dtvNjDtualbKlSh1JeG36V1G5fnHQQUlwjP5TBcKizKoStGbSNKwcSDWesyE7TfB7msOW5XwyqEDEA0ZGRAMZIIbS0wvGnjdPRU45xKiQfjLaEnfzXkJvNQllhHg4nds4xy5x7fGRN_T2Ke_7POXklOq7Wm2Ykf-7hVCShOMI7hJu-tGMsDsg2KLxLiOrQ0BrF1nrXIPS4GobHV-NGU-1N-V6ahLmonXROIxcWkuulw-KezLEwv2r3xxorl7PgdrhZqSZ-C8BkCPVDLht7_QYCUzw-WhpmiXNcAvzTgdNDeADtz0xQttlMuEu2xu0ReHrzbDlNpNnLmhR-rGpzXS0]--></g></svg>