<?xml version="1.0" encoding="UTF-8" standalone="no"?><svg xmlns="http://www.w3.org/2000/svg" xmlns:xlink="http://www.w3.org/1999/xlink" contentStyleType="text/css" height="713px" preserveAspectRatio="none" style="width:1986px;height:713px;background:#FFFFFF;" version="1.1" viewBox="0 0 1986 713" width="1986px" zoomAndPan="magnify"><defs/><g><rect fill="#DDDDDD" height="701.3438" style="stroke:#181818;stroke-width:0.5;" width="592" x="797" y="6"/><text fill="#000000" font-family="sans-serif" font-size="20" font-weight="bold" lengthAdjust="spacing" textLength="189" x="998.5" y="24.5645">«container (C4)»</text><text fill="#000000" font-family="sans-serif" font-size="20" font-weight="bold" lengthAdjust="spacing" textLength="147" x="1019.5" y="47.8457">Visualization</text><rect fill="#FFFFE0" height="701.3438" style="stroke:#181818;stroke-width:0.5;" width="213" x="1767" y="6"/><text fill="#000000" font-family="sans-serif" font-size="20" font-weight="bold" lengthAdjust="spacing" textLength="189" x="1779" y="24.5645">«container (C4)»</text><text fill="#000000" font-family="sans-serif" font-size="20" font-weight="bold" lengthAdjust="spacing" textLength="193" x="1777" y="47.8457">MD Management</text><rect fill="#FFFFFF" height="482.9375" style="stroke:#181818;stroke-width:1.0;" width="10" x="105.5" y="128.125"/><rect fill="#FFFFFF" height="37.2813" style="stroke:#181818;stroke-width:1.0;" width="10" x="902.5" y="157.4063"/><rect fill="#FFFFFF" height="364.0938" style="stroke:#181818;stroke-width:1.0;" width="10" x="902.5" y="231.9688"/><rect fill="#FFFFFF" height="152.4063" style="stroke:#181818;stroke-width:1.0;" width="10" x="1295.5" y="269.25"/><rect fill="#FFFFFF" height="99.8438" style="stroke:#181818;stroke-width:1.0;" width="10" x="1295.5" y="458.9375"/><rect fill="#FFFFFF" height="77.8438" style="stroke:#181818;stroke-width:1.0;" width="10" x="1868.5" y="306.5313"/><rect fill="#FFFFFF" height="62.5625" style="stroke:#181818;stroke-width:1.0;" width="10" x="1868.5" y="458.9375"/><rect fill="none" height="282.5313" style="stroke:#000000;stroke-width:1.5;" width="1951" x="10" y="321.5313"/><line style="stroke:#181818;stroke-width:0.5;stroke-dasharray:5.0,5.0;" x1="110" x2="110" y1="118.125" y2="621.0625"/><line style="stroke:#181818;stroke-width:0.5;stroke-dasharray:5.0,5.0;" x1="907" x2="907" y1="118.125" y2="621.0625"/><line style="stroke:#181818;stroke-width:0.5;stroke-dasharray:5.0,5.0;" x1="1300" x2="1300" y1="118.125" y2="621.0625"/><line style="stroke:#181818;stroke-width:0.5;stroke-dasharray:5.0,5.0;" x1="1873" x2="1873" y1="118.125" y2="621.0625"/><text fill="#000000" font-family="sans-serif" font-size="20" lengthAdjust="spacing" textLength="175" x="20" y="113.4082">Campus Manager</text><ellipse cx="110.5" cy="43.3438" fill="#E2E2F0" rx="8" ry="8" style="stroke:#181818;stroke-width:0.5;"/><path d="M110.5,51.3438 L110.5,78.3438 M97.5,59.3438 L123.5,59.3438 M110.5,78.3438 L97.5,93.3438 M110.5,78.3438 L123.5,93.3438 " fill="none" style="stroke:#181818;stroke-width:0.5;"/><text fill="#000000" font-family="sans-serif" font-size="20" lengthAdjust="spacing" textLength="175" x="20" y="638.627">Campus Manager</text><ellipse cx="110.5" cy="651.8438" fill="#E2E2F0" rx="8" ry="8" style="stroke:#181818;stroke-width:0.5;"/><path d="M110.5,659.8438 L110.5,686.8438 M97.5,667.8438 L123.5,667.8438 M110.5,686.8438 L97.5,701.8438 M110.5,686.8438 L123.5,701.8438 " fill="none" style="stroke:#181818;stroke-width:0.5;"/><rect fill="#E2E2F0" height="60.5625" rx="2.5" ry="2.5" style="stroke:#181818;stroke-width:0.5;" width="213" x="801" y="56.5625"/><text fill="#000000" font-family="sans-serif" font-size="20" font-style="italic" lengthAdjust="spacing" textLength="138" x="838.5" y="82.127">«component»</text><text fill="#000000" font-family="sans-serif" font-size="20" lengthAdjust="spacing" textLength="199" x="808" y="105.4082">ElevatorComponent</text><rect fill="#E2E2F0" height="60.5625" rx="2.5" ry="2.5" style="stroke:#181818;stroke-width:0.5;" width="213" x="801" y="620.0625"/><text fill="#000000" font-family="sans-serif" font-size="20" font-style="italic" lengthAdjust="spacing" textLength="138" x="838.5" y="645.627">«component»</text><text fill="#000000" font-family="sans-serif" font-size="20" lengthAdjust="spacing" textLength="199" x="808" y="668.9082">ElevatorComponent</text><rect fill="#E2E2F0" height="60.5625" rx="2.5" ry="2.5" style="stroke:#181818;stroke-width:0.5;" width="169" x="1216" y="56.5625"/><text fill="#000000" font-family="sans-serif" font-size="20" font-style="italic" lengthAdjust="spacing" textLength="138" x="1231.5" y="82.127">«component»</text><text fill="#000000" font-family="sans-serif" font-size="20" lengthAdjust="spacing" textLength="155" x="1223" y="105.4082">ElevatorService</text><rect fill="#E2E2F0" height="60.5625" rx="2.5" ry="2.5" style="stroke:#181818;stroke-width:0.5;" width="169" x="1216" y="620.0625"/><text fill="#000000" font-family="sans-serif" font-size="20" font-style="italic" lengthAdjust="spacing" textLength="138" x="1231.5" y="645.627">«component»</text><text fill="#000000" font-family="sans-serif" font-size="20" lengthAdjust="spacing" textLength="155" x="1223" y="668.9082">ElevatorService</text><rect fill="#E2E2F0" height="60.5625" rx="2.5" ry="2.5" style="stroke:#181818;stroke-width:0.5;" width="155" x="1796" y="56.5625"/><text fill="#000000" font-family="sans-serif" font-size="20" font-style="italic" lengthAdjust="spacing" textLength="138" x="1804.5" y="82.127">«component»</text><text fill="#000000" font-family="sans-serif" font-size="20" lengthAdjust="spacing" textLength="141" x="1803" y="105.4082">ElevatorRoute</text><rect fill="#E2E2F0" height="60.5625" rx="2.5" ry="2.5" style="stroke:#181818;stroke-width:0.5;" width="155" x="1796" y="620.0625"/><text fill="#000000" font-family="sans-serif" font-size="20" font-style="italic" lengthAdjust="spacing" textLength="138" x="1804.5" y="645.627">«component»</text><text fill="#000000" font-family="sans-serif" font-size="20" lengthAdjust="spacing" textLength="141" x="1803" y="668.9082">ElevatorRoute</text><rect fill="#FFFFFF" height="482.9375" style="stroke:#181818;stroke-width:1.0;" width="10" x="105.5" y="128.125"/><rect fill="#FFFFFF" height="37.2813" style="stroke:#181818;stroke-width:1.0;" width="10" x="902.5" y="157.4063"/><rect fill="#FFFFFF" height="364.0938" style="stroke:#181818;stroke-width:1.0;" width="10" x="902.5" y="231.9688"/><rect fill="#FFFFFF" height="152.4063" style="stroke:#181818;stroke-width:1.0;" width="10" x="1295.5" y="269.25"/><rect fill="#FFFFFF" height="99.8438" style="stroke:#181818;stroke-width:1.0;" width="10" x="1295.5" y="458.9375"/><rect fill="#FFFFFF" height="77.8438" style="stroke:#181818;stroke-width:1.0;" width="10" x="1868.5" y="306.5313"/><rect fill="#FFFFFF" height="62.5625" style="stroke:#181818;stroke-width:1.0;" width="10" x="1868.5" y="458.9375"/><polygon fill="#181818" points="890.5,153.4063,900.5,157.4063,890.5,161.4063,894.5,157.4063" style="stroke:#181818;stroke-width:1.0;"/><line style="stroke:#181818;stroke-width:1.0;" x1="115.5" x2="896.5" y1="157.4063" y2="157.4063"/><text fill="#000000" font-family="sans-serif" font-size="20" font-weight="bold" lengthAdjust="spacing" textLength="14" x="122.5" y="150.6895">1</text><text fill="#000000" font-family="sans-serif" font-size="20" lengthAdjust="spacing" textLength="405" x="140.5" y="150.6895">wants to create an elevator in a building</text><polygon fill="#181818" points="126.5,190.6875,116.5,194.6875,126.5,198.6875,122.5,194.6875" style="stroke:#181818;stroke-width:1.0;"/><line style="stroke:#181818;stroke-width:1.0;stroke-dasharray:2.0,2.0;" x1="120.5" x2="906.5" y1="194.6875" y2="194.6875"/><text fill="#000000" font-family="sans-serif" font-size="20" font-weight="bold" lengthAdjust="spacing" textLength="14" x="132.5" y="187.9707">2</text><text fill="#000000" font-family="sans-serif" font-size="20" lengthAdjust="spacing" textLength="745" x="150.5" y="187.9707">asks for the code, model, brand, serial number, description &amp; floors served</text><polygon fill="#181818" points="890.5,227.9688,900.5,231.9688,890.5,235.9688,894.5,231.9688" style="stroke:#181818;stroke-width:1.0;"/><line style="stroke:#181818;stroke-width:1.0;" x1="115.5" x2="896.5" y1="231.9688" y2="231.9688"/><text fill="#000000" font-family="sans-serif" font-size="20" font-weight="bold" lengthAdjust="spacing" textLength="14" x="122.5" y="225.252">3</text><text fill="#000000" font-family="sans-serif" font-size="20" lengthAdjust="spacing" textLength="157" x="140.5" y="225.252">inserts the data</text><polygon fill="#181818" points="1283.5,265.25,1293.5,269.25,1283.5,273.25,1287.5,269.25" style="stroke:#181818;stroke-width:1.0;"/><line style="stroke:#181818;stroke-width:1.0;" x1="912.5" x2="1289.5" y1="269.25" y2="269.25"/><text fill="#000000" font-family="sans-serif" font-size="20" font-weight="bold" lengthAdjust="spacing" textLength="14" x="919.5" y="262.5332">4</text><text fill="#000000" font-family="sans-serif" font-size="20" lengthAdjust="spacing" textLength="346" x="937.5" y="262.5332">createElevator(buildingCode,data)</text><polygon fill="#181818" points="1856.5,302.5313,1866.5,306.5313,1856.5,310.5313,1860.5,306.5313" style="stroke:#181818;stroke-width:1.0;"/><line style="stroke:#181818;stroke-width:1.0;" x1="1305.5" x2="1862.5" y1="306.5313" y2="306.5313"/><text fill="#000000" font-family="sans-serif" font-size="20" font-weight="bold" lengthAdjust="spacing" textLength="14" x="1312.5" y="299.8145">5</text><text fill="#000000" font-family="sans-serif" font-size="20" lengthAdjust="spacing" textLength="501" x="1330.5" y="299.8145">POST /buildings/{buildingCode}/elevators {data}</text><path d="M10,321.5313 L86,321.5313 L86,336.8125 L76,346.8125 L10,346.8125 L10,321.5313 " fill="#EEEEEE" style="stroke:#000000;stroke-width:1.5;"/><rect fill="none" height="282.5313" style="stroke:#000000;stroke-width:1.5;" width="1951" x="10" y="321.5313"/><text fill="#000000" font-family="sans-serif" font-size="20" font-weight="bold" lengthAdjust="spacing" textLength="31" x="25" y="341.0957">alt</text><text fill="#000000" font-family="sans-serif" font-size="20" font-weight="bold" lengthAdjust="spacing" textLength="309" x="101" y="342.0957">[a new evelator is created]</text><polygon fill="#181818" points="1316.5,380.375,1306.5,384.375,1316.5,388.375,1312.5,384.375" style="stroke:#181818;stroke-width:1.0;"/><line style="stroke:#181818;stroke-width:1.0;stroke-dasharray:2.0,2.0;" x1="1310.5" x2="1872.5" y1="384.375" y2="384.375"/><text fill="#000000" font-family="sans-serif" font-size="20" font-weight="bold" lengthAdjust="spacing" textLength="14" x="1322.5" y="377.6582">6</text><text fill="#000000" font-family="sans-serif" font-size="20" lengthAdjust="spacing" textLength="124" x="1340.5" y="377.6582">201 Created</text><polygon fill="#181818" points="923.5,417.6563,913.5,421.6563,923.5,425.6563,919.5,421.6563" style="stroke:#181818;stroke-width:1.0;"/><line style="stroke:#181818;stroke-width:1.0;stroke-dasharray:2.0,2.0;" x1="917.5" x2="1299.5" y1="421.6563" y2="421.6563"/><text fill="#000000" font-family="sans-serif" font-size="20" font-weight="bold" lengthAdjust="spacing" textLength="14" x="929.5" y="414.9395">7</text><text fill="#000000" font-family="sans-serif" font-size="20" lengthAdjust="spacing" textLength="168" x="947.5" y="414.9395">the new elevator</text><polygon fill="#181818" points="126.5,454.9375,116.5,458.9375,126.5,462.9375,122.5,458.9375" style="stroke:#181818;stroke-width:1.0;"/><line style="stroke:#181818;stroke-width:1.0;stroke-dasharray:2.0,2.0;" x1="120.5" x2="901.5" y1="458.9375" y2="458.9375"/><text fill="#000000" font-family="sans-serif" font-size="20" font-weight="bold" lengthAdjust="spacing" textLength="14" x="132.5" y="452.2207">8</text><text fill="#000000" font-family="sans-serif" font-size="20" lengthAdjust="spacing" textLength="364" x="150.5" y="452.2207">informs the success of the operation</text><line style="stroke:#000000;stroke-width:1.0;stroke-dasharray:2.0,2.0;" x1="10" x2="1961" y1="467.9375" y2="467.9375"/><text fill="#000000" font-family="sans-serif" font-size="20" font-weight="bold" lengthAdjust="spacing" textLength="516" x="15" y="486.502">[there is an evelator with the specified code]</text><polygon fill="#181818" points="1316.5,517.5,1306.5,521.5,1316.5,525.5,1312.5,521.5" style="stroke:#181818;stroke-width:1.0;"/><line style="stroke:#181818;stroke-width:1.0;stroke-dasharray:2.0,2.0;" x1="1310.5" x2="1872.5" y1="521.5" y2="521.5"/><text fill="#000000" font-family="sans-serif" font-size="20" font-weight="bold" lengthAdjust="spacing" textLength="14" x="1322.5" y="514.7832">9</text><text fill="#000000" font-family="sans-serif" font-size="20" lengthAdjust="spacing" textLength="172" x="1340.5" y="514.7832">400 Bad Request</text><polygon fill="#181818" points="923.5,554.7813,913.5,558.7813,923.5,562.7813,919.5,558.7813" style="stroke:#181818;stroke-width:1.0;"/><line style="stroke:#181818;stroke-width:1.0;stroke-dasharray:2.0,2.0;" x1="917.5" x2="1299.5" y1="558.7813" y2="558.7813"/><text fill="#000000" font-family="sans-serif" font-size="20" font-weight="bold" lengthAdjust="spacing" textLength="28" x="929.5" y="552.0645">10</text><text fill="#000000" font-family="sans-serif" font-size="20" lengthAdjust="spacing" textLength="48" x="961.5" y="552.0645">error</text><polygon fill="#181818" points="126.5,592.0625,116.5,596.0625,126.5,600.0625,122.5,596.0625" style="stroke:#181818;stroke-width:1.0;"/><line style="stroke:#181818;stroke-width:1.0;stroke-dasharray:2.0,2.0;" x1="120.5" x2="906.5" y1="596.0625" y2="596.0625"/><text fill="#000000" font-family="sans-serif" font-size="20" font-weight="bold" lengthAdjust="spacing" textLength="28" x="132.5" y="589.3457">11</text><text fill="#000000" font-family="sans-serif" font-size="20" lengthAdjust="spacing" textLength="571" x="164.5" y="589.3457">shows error message "An elevator with that code exists."</text><!--SRC=[ZLFDRXen4BxxAKPKgX892eroGWWftQIdebH08rNgnNW7iF3QMuyNKA8yKH-XjpnPn_iJTgdwSrcnx7o_OzDEsrnwcHcdTfX2YcjPcF3HsR3GZmXN8o6Bu6oHhT0BQgRXjffRuZ7S6Bsn6TemcIX-efzEeVeXX5J1UKXc80bwYSpoWc0chToWxmcnSaVelVnGB2QrHGyNoVNboyzlza5J8Or-b44xsuCJiG1W_Q2LpgKDa9IyTmRtadKIb-NEycI9Q5v-0oqUkh05-hrMU0v2cm8R_8jBcDtMOM9wQFjyyqbljk4h6kCEP_Bp-o_Bkuw1kIl2d-MvGirZo2qAmKqEfXnx30Vc8WWEbCVuLLh0cW-q1GchGfjKsqsBeCHF1eEIGDAEOCtJOOkWN8fzoFXf-h3oqgPz8FHQ6gXMt-UJGShhF6u4tiBQEESfpkmn5IcUYTGcjUM1Q9CbKXbarqkSYiiOrncQFYuQwqbq5N6N9o03X8We1bTLZk7p_M89mmP5mwSsmVEmwONWAP8zdyXA0gxO12xCuW5mZwQga6fJAQyloiNQ6hshqNj8Nh-smjTy0DLy5Iw6Bxbh6rr8cGUWjHXjUIjPLHeLIY4Hk7NvwdBqvPqGQ0ZZNnwZrRZynlb1Xss5pL7fjUPB7RVB6XtDrkkhw_ESrwCHV90fpF5xWHJ-8ojw_- -0j7K7gaOXutHyWQ1tqpg_TGGPIkU0Hqs1tlMwl4cy8g9pz6RY5m00]--></g></svg>