<?xml version="1.0" encoding="UTF-8" standalone="no"?><svg xmlns="http://www.w3.org/2000/svg" xmlns:xlink="http://www.w3.org/1999/xlink" contentStyleType="text/css" height="825px" preserveAspectRatio="none" style="width:2207px;height:825px;background:#FFFFFF;" version="1.1" viewBox="0 0 2207 825" width="2207px" zoomAndPan="magnify"><defs/><g><rect fill="#DDDDDD" height="813.1875" style="stroke:#181818;stroke-width:0.5;" width="773" x="827.5" y="6"/><text fill="#000000" font-family="sans-serif" font-size="20" font-weight="bold" lengthAdjust="spacing" textLength="189" x="1119.5" y="24.5645">«container (C4)»</text><text fill="#000000" font-family="sans-serif" font-size="20" font-weight="bold" lengthAdjust="spacing" textLength="147" x="1140.5" y="47.8457">Visualization</text><rect fill="#FFFFE0" height="813.1875" style="stroke:#181818;stroke-width:0.5;" width="213" x="1988.5" y="6"/><text fill="#000000" font-family="sans-serif" font-size="20" font-weight="bold" lengthAdjust="spacing" textLength="189" x="2000.5" y="24.5645">«container (C4)»</text><text fill="#000000" font-family="sans-serif" font-size="20" font-weight="bold" lengthAdjust="spacing" textLength="193" x="1998.5" y="47.8457">MD Management</text><rect fill="#FFFFFF" height="594.7813" style="stroke:#181818;stroke-width:1.0;" width="10" x="105.5" y="128.125"/><rect fill="#FFFFFF" height="37.2813" style="stroke:#181818;stroke-width:1.0;" width="10" x="902.5" y="157.4063"/><rect fill="#FFFFFF" height="475.9375" style="stroke:#181818;stroke-width:1.0;" width="10" x="902.5" y="231.9688"/><rect fill="#FFFFFF" height="226.9688" style="stroke:#181818;stroke-width:1.0;" width="10" x="1295.5" y="269.25"/><rect fill="#FFFFFF" height="137.125" style="stroke:#181818;stroke-width:1.0;" width="10" x="1295.5" y="533.5"/><rect fill="#FFFFFF" height="152.4063" style="stroke:#181818;stroke-width:1.0;" width="10" x="1515.5" y="306.5313"/><rect fill="#FFFFFF" height="99.8438" style="stroke:#181818;stroke-width:1.0;" width="10" x="1515.5" y="533.5"/><rect fill="#FFFFFF" height="77.8438" style="stroke:#181818;stroke-width:1.0;" width="10" x="2090" y="343.8125"/><rect fill="#FFFFFF" height="62.5625" style="stroke:#181818;stroke-width:1.0;" width="10" x="2090" y="533.5"/><rect fill="none" height="357.0938" style="stroke:#000000;stroke-width:1.5;" width="2171" x="10" y="358.8125"/><line style="stroke:#181818;stroke-width:0.5;stroke-dasharray:5.0,5.0;" x1="110" x2="110" y1="118.125" y2="732.9063"/><line style="stroke:#181818;stroke-width:0.5;stroke-dasharray:5.0,5.0;" x1="907.5" x2="907.5" y1="118.125" y2="732.9063"/><line style="stroke:#181818;stroke-width:0.5;stroke-dasharray:5.0,5.0;" x1="1300.5" x2="1300.5" y1="118.125" y2="732.9063"/><line style="stroke:#181818;stroke-width:0.5;stroke-dasharray:5.0,5.0;" x1="1520.5" x2="1520.5" y1="118.125" y2="732.9063"/><line style="stroke:#181818;stroke-width:0.5;stroke-dasharray:5.0,5.0;" x1="2095" x2="2095" y1="118.125" y2="732.9063"/><text fill="#000000" font-family="sans-serif" font-size="20" lengthAdjust="spacing" textLength="175" x="20" y="113.4082">Campus Manager</text><ellipse cx="110.5" cy="43.3438" fill="#E2E2F0" rx="8" ry="8" style="stroke:#181818;stroke-width:0.5;"/><path d="M110.5,51.3438 L110.5,78.3438 M97.5,59.3438 L123.5,59.3438 M110.5,78.3438 L97.5,93.3438 M110.5,78.3438 L123.5,93.3438 " fill="none" style="stroke:#181818;stroke-width:0.5;"/><text fill="#000000" font-family="sans-serif" font-size="20" lengthAdjust="spacing" textLength="175" x="20" y="750.4707">Campus Manager</text><ellipse cx="110.5" cy="763.6875" fill="#E2E2F0" rx="8" ry="8" style="stroke:#181818;stroke-width:0.5;"/><path d="M110.5,771.6875 L110.5,798.6875 M97.5,779.6875 L123.5,779.6875 M110.5,798.6875 L97.5,813.6875 M110.5,798.6875 L123.5,813.6875 " fill="none" style="stroke:#181818;stroke-width:0.5;"/><rect fill="#E2E2F0" height="60.5625" rx="2.5" ry="2.5" style="stroke:#181818;stroke-width:0.5;" width="152" x="831.5" y="56.5625"/><text fill="#000000" font-family="sans-serif" font-size="20" font-style="italic" lengthAdjust="spacing" textLength="138" x="838.5" y="82.127">«component»</text><text fill="#000000" font-family="sans-serif" font-size="20" lengthAdjust="spacing" textLength="117" x="849" y="105.4082">Component</text><rect fill="#E2E2F0" height="60.5625" rx="2.5" ry="2.5" style="stroke:#181818;stroke-width:0.5;" width="152" x="831.5" y="731.9063"/><text fill="#000000" font-family="sans-serif" font-size="20" font-style="italic" lengthAdjust="spacing" textLength="138" x="838.5" y="757.4707">«component»</text><text fill="#000000" font-family="sans-serif" font-size="20" lengthAdjust="spacing" textLength="117" x="849" y="780.752">Component</text><rect fill="#E2E2F0" height="60.5625" rx="2.5" ry="2.5" style="stroke:#181818;stroke-width:0.5;" width="152" x="1224.5" y="56.5625"/><text fill="#000000" font-family="sans-serif" font-size="20" font-style="italic" lengthAdjust="spacing" textLength="138" x="1231.5" y="82.127">«component»</text><text fill="#000000" font-family="sans-serif" font-size="20" lengthAdjust="spacing" textLength="73" x="1264" y="105.4082">Service</text><rect fill="#E2E2F0" height="60.5625" rx="2.5" ry="2.5" style="stroke:#181818;stroke-width:0.5;" width="152" x="1224.5" y="731.9063"/><text fill="#000000" font-family="sans-serif" font-size="20" font-style="italic" lengthAdjust="spacing" textLength="138" x="1231.5" y="757.4707">«component»</text><text fill="#000000" font-family="sans-serif" font-size="20" lengthAdjust="spacing" textLength="73" x="1264" y="780.752">Service</text><rect fill="#E2E2F0" height="60.5625" rx="2.5" ry="2.5" style="stroke:#181818;stroke-width:0.5;" width="152" x="1444.5" y="56.5625"/><text fill="#000000" font-family="sans-serif" font-size="20" font-style="italic" lengthAdjust="spacing" textLength="138" x="1451.5" y="82.127">«component»</text><text fill="#000000" font-family="sans-serif" font-size="20" lengthAdjust="spacing" textLength="51" x="1495" y="105.4082">HTTP</text><rect fill="#E2E2F0" height="60.5625" rx="2.5" ry="2.5" style="stroke:#181818;stroke-width:0.5;" width="152" x="1444.5" y="731.9063"/><text fill="#000000" font-family="sans-serif" font-size="20" font-style="italic" lengthAdjust="spacing" textLength="138" x="1451.5" y="757.4707">«component»</text><text fill="#000000" font-family="sans-serif" font-size="20" lengthAdjust="spacing" textLength="51" x="1495" y="780.752">HTTP</text><rect fill="#E2E2F0" height="60.5625" rx="2.5" ry="2.5" style="stroke:#181818;stroke-width:0.5;" width="152" x="2019" y="56.5625"/><text fill="#000000" font-family="sans-serif" font-size="20" font-style="italic" lengthAdjust="spacing" textLength="138" x="2026" y="82.127">«component»</text><text fill="#000000" font-family="sans-serif" font-size="20" lengthAdjust="spacing" textLength="59" x="2065.5" y="105.4082">Route</text><rect fill="#E2E2F0" height="60.5625" rx="2.5" ry="2.5" style="stroke:#181818;stroke-width:0.5;" width="152" x="2019" y="731.9063"/><text fill="#000000" font-family="sans-serif" font-size="20" font-style="italic" lengthAdjust="spacing" textLength="138" x="2026" y="757.4707">«component»</text><text fill="#000000" font-family="sans-serif" font-size="20" lengthAdjust="spacing" textLength="59" x="2065.5" y="780.752">Route</text><rect fill="#FFFFFF" height="594.7813" style="stroke:#181818;stroke-width:1.0;" width="10" x="105.5" y="128.125"/><rect fill="#FFFFFF" height="37.2813" style="stroke:#181818;stroke-width:1.0;" width="10" x="902.5" y="157.4063"/><rect fill="#FFFFFF" height="475.9375" style="stroke:#181818;stroke-width:1.0;" width="10" x="902.5" y="231.9688"/><rect fill="#FFFFFF" height="226.9688" style="stroke:#181818;stroke-width:1.0;" width="10" x="1295.5" y="269.25"/><rect fill="#FFFFFF" height="137.125" style="stroke:#181818;stroke-width:1.0;" width="10" x="1295.5" y="533.5"/><rect fill="#FFFFFF" height="152.4063" style="stroke:#181818;stroke-width:1.0;" width="10" x="1515.5" y="306.5313"/><rect fill="#FFFFFF" height="99.8438" style="stroke:#181818;stroke-width:1.0;" width="10" x="1515.5" y="533.5"/><rect fill="#FFFFFF" height="77.8438" style="stroke:#181818;stroke-width:1.0;" width="10" x="2090" y="343.8125"/><rect fill="#FFFFFF" height="62.5625" style="stroke:#181818;stroke-width:1.0;" width="10" x="2090" y="533.5"/><polygon fill="#181818" points="890.5,153.4063,900.5,157.4063,890.5,161.4063,894.5,157.4063" style="stroke:#181818;stroke-width:1.0;"/><line style="stroke:#181818;stroke-width:1.0;" x1="115.5" x2="896.5" y1="157.4063" y2="157.4063"/><text fill="#000000" font-family="sans-serif" font-size="20" font-weight="bold" lengthAdjust="spacing" textLength="14" x="122.5" y="150.6895">1</text><text fill="#000000" font-family="sans-serif" font-size="20" lengthAdjust="spacing" textLength="405" x="140.5" y="150.6895">wants to create an elevator in a building</text><polygon fill="#181818" points="126.5,190.6875,116.5,194.6875,126.5,198.6875,122.5,194.6875" style="stroke:#181818;stroke-width:1.0;"/><line style="stroke:#181818;stroke-width:1.0;stroke-dasharray:2.0,2.0;" x1="120.5" x2="906.5" y1="194.6875" y2="194.6875"/><text fill="#000000" font-family="sans-serif" font-size="20" font-weight="bold" lengthAdjust="spacing" textLength="14" x="132.5" y="187.9707">2</text><text fill="#000000" font-family="sans-serif" font-size="20" lengthAdjust="spacing" textLength="745" x="150.5" y="187.9707">asks for the code, model, brand, serial number, description &amp; floors served</text><polygon fill="#181818" points="890.5,227.9688,900.5,231.9688,890.5,235.9688,894.5,231.9688" style="stroke:#181818;stroke-width:1.0;"/><line style="stroke:#181818;stroke-width:1.0;" x1="115.5" x2="896.5" y1="231.9688" y2="231.9688"/><text fill="#000000" font-family="sans-serif" font-size="20" font-weight="bold" lengthAdjust="spacing" textLength="14" x="122.5" y="225.252">3</text><text fill="#000000" font-family="sans-serif" font-size="20" lengthAdjust="spacing" textLength="157" x="140.5" y="225.252">inserts the data</text><polygon fill="#181818" points="1283.5,265.25,1293.5,269.25,1283.5,273.25,1287.5,269.25" style="stroke:#181818;stroke-width:1.0;"/><line style="stroke:#181818;stroke-width:1.0;" x1="912.5" x2="1289.5" y1="269.25" y2="269.25"/><text fill="#000000" font-family="sans-serif" font-size="20" font-weight="bold" lengthAdjust="spacing" textLength="14" x="919.5" y="262.5332">4</text><text fill="#000000" font-family="sans-serif" font-size="20" lengthAdjust="spacing" textLength="346" x="937.5" y="262.5332">createElevator(buildingCode,data)</text><polygon fill="#181818" points="1503.5,302.5313,1513.5,306.5313,1503.5,310.5313,1507.5,306.5313" style="stroke:#181818;stroke-width:1.0;"/><line style="stroke:#181818;stroke-width:1.0;" x1="1305.5" x2="1509.5" y1="306.5313" y2="306.5313"/><text fill="#000000" font-family="sans-serif" font-size="20" font-weight="bold" lengthAdjust="spacing" textLength="14" x="1312.5" y="299.8145">5</text><text fill="#000000" font-family="sans-serif" font-size="20" lengthAdjust="spacing" textLength="137" x="1330.5" y="299.8145">post(url,data)</text><polygon fill="#181818" points="2078,339.8125,2088,343.8125,2078,347.8125,2082,343.8125" style="stroke:#181818;stroke-width:1.0;"/><line style="stroke:#181818;stroke-width:1.0;" x1="1525.5" x2="2084" y1="343.8125" y2="343.8125"/><text fill="#000000" font-family="sans-serif" font-size="20" font-weight="bold" lengthAdjust="spacing" textLength="14" x="1532.5" y="337.0957">6</text><text fill="#000000" font-family="sans-serif" font-size="20" lengthAdjust="spacing" textLength="501" x="1550.5" y="337.0957">POST /buildings/{buildingCode}/elevators {data}</text><path d="M10,358.8125 L86,358.8125 L86,374.0938 L76,384.0938 L10,384.0938 L10,358.8125 " fill="#EEEEEE" style="stroke:#000000;stroke-width:1.5;"/><rect fill="none" height="357.0938" style="stroke:#000000;stroke-width:1.5;" width="2171" x="10" y="358.8125"/><text fill="#000000" font-family="sans-serif" font-size="20" font-weight="bold" lengthAdjust="spacing" textLength="31" x="25" y="378.377">alt</text><text fill="#000000" font-family="sans-serif" font-size="20" font-weight="bold" lengthAdjust="spacing" textLength="309" x="101" y="379.377">[a new evelator is created]</text><polygon fill="#181818" points="1536.5,417.6563,1526.5,421.6563,1536.5,425.6563,1532.5,421.6563" style="stroke:#181818;stroke-width:1.0;"/><line style="stroke:#181818;stroke-width:1.0;stroke-dasharray:2.0,2.0;" x1="1530.5" x2="2094" y1="421.6563" y2="421.6563"/><text fill="#000000" font-family="sans-serif" font-size="20" font-weight="bold" lengthAdjust="spacing" textLength="14" x="1542.5" y="414.9395">7</text><text fill="#000000" font-family="sans-serif" font-size="20" lengthAdjust="spacing" textLength="124" x="1560.5" y="414.9395">201 Created</text><polygon fill="#181818" points="1316.5,454.9375,1306.5,458.9375,1316.5,462.9375,1312.5,458.9375" style="stroke:#181818;stroke-width:1.0;"/><line style="stroke:#181818;stroke-width:1.0;stroke-dasharray:2.0,2.0;" x1="1310.5" x2="1519.5" y1="458.9375" y2="458.9375"/><text fill="#000000" font-family="sans-serif" font-size="20" font-weight="bold" lengthAdjust="spacing" textLength="14" x="1322.5" y="452.2207">8</text><text fill="#000000" font-family="sans-serif" font-size="20" lengthAdjust="spacing" textLength="168" x="1340.5" y="452.2207">the new elevator</text><polygon fill="#181818" points="923.5,492.2188,913.5,496.2188,923.5,500.2188,919.5,496.2188" style="stroke:#181818;stroke-width:1.0;"/><line style="stroke:#181818;stroke-width:1.0;stroke-dasharray:2.0,2.0;" x1="917.5" x2="1299.5" y1="496.2188" y2="496.2188"/><text fill="#000000" font-family="sans-serif" font-size="20" font-weight="bold" lengthAdjust="spacing" textLength="14" x="929.5" y="489.502">9</text><text fill="#000000" font-family="sans-serif" font-size="20" lengthAdjust="spacing" textLength="168" x="947.5" y="489.502">the new elevator</text><polygon fill="#181818" points="126.5,529.5,116.5,533.5,126.5,537.5,122.5,533.5" style="stroke:#181818;stroke-width:1.0;"/><line style="stroke:#181818;stroke-width:1.0;stroke-dasharray:2.0,2.0;" x1="120.5" x2="901.5" y1="533.5" y2="533.5"/><text fill="#000000" font-family="sans-serif" font-size="20" font-weight="bold" lengthAdjust="spacing" textLength="28" x="132.5" y="526.7832">10</text><text fill="#000000" font-family="sans-serif" font-size="20" lengthAdjust="spacing" textLength="364" x="164.5" y="526.7832">informs the success of the operation</text><line style="stroke:#000000;stroke-width:1.0;stroke-dasharray:2.0,2.0;" x1="10" x2="2181" y1="542.5" y2="542.5"/><text fill="#000000" font-family="sans-serif" font-size="20" font-weight="bold" lengthAdjust="spacing" textLength="516" x="15" y="561.0645">[there is an evelator with the specified code]</text><polygon fill="#181818" points="1536.5,592.0625,1526.5,596.0625,1536.5,600.0625,1532.5,596.0625" style="stroke:#181818;stroke-width:1.0;"/><line style="stroke:#181818;stroke-width:1.0;stroke-dasharray:2.0,2.0;" x1="1530.5" x2="2094" y1="596.0625" y2="596.0625"/><text fill="#000000" font-family="sans-serif" font-size="20" font-weight="bold" lengthAdjust="spacing" textLength="28" x="1542.5" y="589.3457">11</text><text fill="#000000" font-family="sans-serif" font-size="20" lengthAdjust="spacing" textLength="172" x="1574.5" y="589.3457">400 Bad Request</text><polygon fill="#181818" points="1316.5,629.3438,1306.5,633.3438,1316.5,637.3438,1312.5,633.3438" style="stroke:#181818;stroke-width:1.0;"/><line style="stroke:#181818;stroke-width:1.0;stroke-dasharray:2.0,2.0;" x1="1310.5" x2="1519.5" y1="633.3438" y2="633.3438"/><text fill="#000000" font-family="sans-serif" font-size="20" font-weight="bold" lengthAdjust="spacing" textLength="28" x="1322.5" y="626.627">12</text><text fill="#000000" font-family="sans-serif" font-size="20" lengthAdjust="spacing" textLength="48" x="1354.5" y="626.627">error</text><polygon fill="#181818" points="923.5,666.625,913.5,670.625,923.5,674.625,919.5,670.625" style="stroke:#181818;stroke-width:1.0;"/><line style="stroke:#181818;stroke-width:1.0;stroke-dasharray:2.0,2.0;" x1="917.5" x2="1299.5" y1="670.625" y2="670.625"/><text fill="#000000" font-family="sans-serif" font-size="20" font-weight="bold" lengthAdjust="spacing" textLength="28" x="929.5" y="663.9082">13</text><text fill="#000000" font-family="sans-serif" font-size="20" lengthAdjust="spacing" textLength="48" x="961.5" y="663.9082">error</text><polygon fill="#181818" points="126.5,703.9063,116.5,707.9063,126.5,711.9063,122.5,707.9063" style="stroke:#181818;stroke-width:1.0;"/><line style="stroke:#181818;stroke-width:1.0;stroke-dasharray:2.0,2.0;" x1="120.5" x2="906.5" y1="707.9063" y2="707.9063"/><text fill="#000000" font-family="sans-serif" font-size="20" font-weight="bold" lengthAdjust="spacing" textLength="28" x="132.5" y="701.1895">14</text><text fill="#000000" font-family="sans-serif" font-size="20" lengthAdjust="spacing" textLength="571" x="164.5" y="701.1895">shows error message "An elevator with that code exists."</text><!--SRC=[ZLJ1Rjf04BtlLunSgI8I51hbX11IwgJoeIWHq4YLUbdi0LQiTztTDQ14-Q9-Gc_viiwkxM18ItknMFpclJTlPcqtGXNSy5pgT8CPPBZafNIVjN8pyOXmEM2yT5gL-G8DimqQRYhS7FVkMegLob6vqIYb9vhn6AeVZF7KQGFn1BY5AEPvKLgOSCLNQ2B65deFqSlFbCIuK6YW4rzTlFpwhXw4BRaKZzm9hI8u43C0qdSY5GLN3kAAL-U5LeG8oERm1ZnxgE0pD5kHudbm4g39V7v_YaEL0Ha_unucDtMJFXLe-t_tHQpMxXjAgNSdYjExh_FRe3hLfSE_obAaOiiTKggCKRAzCSKmX1rnM70QKeF-BLU04Wb8-Gi571Qba9bGgnP1g1_rUe60sus59Q7T6Y7L6NOXfwVimi9mbNN1eX5SGhKANTeKcnfH-0d1UrXAhOtrc2rcBCCJaTgaK0JmDaaYuuuVU_4eFwHXtSDjxR_JM8-zArztSIYa0iPy5HKdL5fewpgbaQUuXB74OwgOXt1_Dvj3ls6s_QUso7E_oSx2aoTwFX050Xg3T1IgmXtW5cKLiwsDPpJQ90JRg5qEFaBy-guLJyq6eN5VuNlmyGJcsiHnIUBX5RXAwpmy10JGchHGDEQyce8jqnIj1RqCHrsW2PUEeRJe_pBe-_BRrBIv4svTrHQOYgMWhuPV5z9eMMmTl87MyRNZuuIk1WFun3EOueyIhVkFbD2OVqRp1ypRFEnQxsm5XPp2e8iBqNNh_jGTSnSQ1TmBw-o7w9WtzbUK7Qt-XFq6]--></g></svg>