<?xml version="1.0" encoding="UTF-8" standalone="no"?><svg xmlns="http://www.w3.org/2000/svg" xmlns:xlink="http://www.w3.org/1999/xlink" contentStyleType="text/css" height="481px" preserveAspectRatio="none" style="width:1251px;height:481px;background:#FFFFFF;" version="1.1" viewBox="0 0 1251 481" width="1251px" zoomAndPan="magnify"><defs/><g><rect fill="#ADD8E6" height="469.6563" style="stroke:#181818;stroke-width:0.5;" width="858" x="387" y="6"/><text fill="#000000" font-family="sans-serif" font-size="20" font-weight="bold" lengthAdjust="spacing" textLength="189" x="721.5" y="24.5645">«container (C4)»</text><text fill="#000000" font-family="sans-serif" font-size="20" font-weight="bold" lengthAdjust="spacing" textLength="109" x="761.5" y="47.8457">MD Tasks</text><rect fill="#FFFFFF" height="282.25" style="stroke:#181818;stroke-width:1.0;" width="10" x="446" y="134.125"/><rect fill="#FFFFFF" height="207.6875" style="stroke:#181818;stroke-width:1.0;" width="10" x="769" y="171.4063"/><rect fill="#FFFFFF" height="37.2813" style="stroke:#181818;stroke-width:1.0;" width="10" x="1200" y="208.6875"/><rect fill="none" height="81.8438" style="stroke:#000000;stroke-width:1.5;" width="498" x="717" y="260.9688"/><line style="stroke:#181818;stroke-width:0.5;stroke-dasharray:5.0,5.0;" x1="451" x2="451" y1="94.8438" y2="434.375"/><line style="stroke:#181818;stroke-width:0.5;stroke-dasharray:5.0,5.0;" x1="774" x2="774" y1="94.8438" y2="434.375"/><line style="stroke:#181818;stroke-width:0.5;stroke-dasharray:5.0,5.0;" x1="1089" x2="1089" y1="328.6719" y2="434.375"/><line style="stroke:#181818;stroke-width:0.5;stroke-dasharray:5.0,5.0;" x1="1205" x2="1205" y1="94.8438" y2="434.375"/><rect fill="#E2E2F0" height="37.2813" rx="2.5" ry="2.5" style="stroke:#181818;stroke-width:0.5;" width="120" x="391" y="56.5625"/><text fill="#000000" font-family="sans-serif" font-size="20" lengthAdjust="spacing" textLength="106" x="398" y="82.127">:Controller</text><rect fill="#E2E2F0" height="37.2813" rx="2.5" ry="2.5" style="stroke:#181818;stroke-width:0.5;" width="120" x="391" y="433.375"/><text fill="#000000" font-family="sans-serif" font-size="20" lengthAdjust="spacing" textLength="106" x="398" y="458.9395">:Controller</text><rect fill="#E2E2F0" height="37.2813" rx="2.5" ry="2.5" style="stroke:#181818;stroke-width:0.5;" width="94" x="727" y="56.5625"/><text fill="#000000" font-family="sans-serif" font-size="20" lengthAdjust="spacing" textLength="80" x="734" y="82.127">:Service</text><rect fill="#E2E2F0" height="37.2813" rx="2.5" ry="2.5" style="stroke:#181818;stroke-width:0.5;" width="94" x="727" y="433.375"/><text fill="#000000" font-family="sans-serif" font-size="20" lengthAdjust="spacing" textLength="80" x="734" y="458.9395">:Service</text><rect fill="#E2E2F0" height="37.2813" rx="2.5" ry="2.5" style="stroke:#181818;stroke-width:0.5;" width="140" x="1019" y="433.375"/><text fill="#000000" font-family="sans-serif" font-size="20" lengthAdjust="spacing" textLength="126" x="1026" y="458.9395">:requestDTO</text><rect fill="#E2E2F0" height="37.2813" rx="2.5" ry="2.5" style="stroke:#181818;stroke-width:0.5;" width="72" x="1169" y="56.5625"/><text fill="#000000" font-family="sans-serif" font-size="20" lengthAdjust="spacing" textLength="58" x="1176" y="82.127">:Repo</text><rect fill="#E2E2F0" height="37.2813" rx="2.5" ry="2.5" style="stroke:#181818;stroke-width:0.5;" width="72" x="1169" y="433.375"/><text fill="#000000" font-family="sans-serif" font-size="20" lengthAdjust="spacing" textLength="58" x="1176" y="458.9395">:Repo</text><rect fill="#FFFFFF" height="282.25" style="stroke:#181818;stroke-width:1.0;" width="10" x="446" y="134.125"/><rect fill="#FFFFFF" height="207.6875" style="stroke:#181818;stroke-width:1.0;" width="10" x="769" y="171.4063"/><rect fill="#FFFFFF" height="37.2813" style="stroke:#181818;stroke-width:1.0;" width="10" x="1200" y="208.6875"/><ellipse cx="4.5" cy="133.375" fill="none" rx="4" ry="4" style="stroke:#181818;stroke-width:1.5;"/><polygon fill="#181818" points="434,130.125,444,134.125,434,138.125,438,134.125" style="stroke:#181818;stroke-width:1.0;"/><line style="stroke:#181818;stroke-width:1.0;" x1="9" x2="440" y1="134.125" y2="134.125"/><text fill="#000000" font-family="sans-serif" font-size="20" font-weight="bold" lengthAdjust="spacing" textLength="14" x="12" y="127.4082">1</text><text fill="#000000" font-family="sans-serif" font-size="20" lengthAdjust="spacing" textLength="401" x="30" y="127.4082">GET /Request?filter=state&amp;value=value</text><polygon fill="#181818" points="757,167.4063,767,171.4063,757,175.4063,761,171.4063" style="stroke:#181818;stroke-width:1.0;"/><line style="stroke:#181818;stroke-width:1.0;" x1="456" x2="763" y1="171.4063" y2="171.4063"/><text fill="#000000" font-family="sans-serif" font-size="20" font-weight="bold" lengthAdjust="spacing" textLength="14" x="463" y="164.6895">2</text><text fill="#000000" font-family="sans-serif" font-size="20" lengthAdjust="spacing" textLength="276" x="481" y="164.6895">GetRequestsByState(value)</text><polygon fill="#181818" points="1188,204.6875,1198,208.6875,1188,212.6875,1192,208.6875" style="stroke:#181818;stroke-width:1.0;"/><line style="stroke:#181818;stroke-width:1.0;" x1="779" x2="1194" y1="208.6875" y2="208.6875"/><text fill="#000000" font-family="sans-serif" font-size="20" font-weight="bold" lengthAdjust="spacing" textLength="14" x="786" y="201.9707">3</text><text fill="#000000" font-family="sans-serif" font-size="20" lengthAdjust="spacing" textLength="276" x="804" y="201.9707">GetRequestsByState(value)</text><polygon fill="#181818" points="790,241.9688,780,245.9688,790,249.9688,786,245.9688" style="stroke:#181818;stroke-width:1.0;"/><line style="stroke:#181818;stroke-width:1.0;stroke-dasharray:2.0,2.0;" x1="784" x2="1204" y1="245.9688" y2="245.9688"/><text fill="#000000" font-family="sans-serif" font-size="20" font-weight="bold" lengthAdjust="spacing" textLength="14" x="796" y="239.252">4</text><text fill="#000000" font-family="sans-serif" font-size="20" lengthAdjust="spacing" textLength="121" x="814" y="239.252">requestsList</text><path d="M717,260.9688 L811,260.9688 L811,276.25 L801,286.25 L717,286.25 L717,260.9688 " fill="#EEEEEE" style="stroke:#000000;stroke-width:1.5;"/><rect fill="none" height="81.8438" style="stroke:#000000;stroke-width:1.5;" width="498" x="717" y="260.9688"/><text fill="#000000" font-family="sans-serif" font-size="20" font-weight="bold" lengthAdjust="spacing" textLength="49" x="732" y="280.5332">loop</text><text fill="#000000" font-family="sans-serif" font-size="20" font-weight="bold" lengthAdjust="spacing" textLength="384" x="826" y="281.5332">[for each request in requestsList]</text><polygon fill="#181818" points="1007,319.8125,1017,323.8125,1007,327.8125,1011,323.8125" style="stroke:#181818;stroke-width:1.0;"/><line style="stroke:#181818;stroke-width:1.0;stroke-dasharray:2.0,2.0;" x1="779" x2="1013" y1="323.8125" y2="323.8125"/><text fill="#000000" font-family="sans-serif" font-size="20" font-weight="bold" lengthAdjust="spacing" textLength="14" x="786" y="317.0957">5</text><text fill="#000000" font-family="sans-serif" font-size="20" lengthAdjust="spacing" textLength="198" x="804" y="317.0957">createDTO(reqDTO)</text><rect fill="#E2E2F0" height="37.2813" rx="2.5" ry="2.5" style="stroke:#181818;stroke-width:0.5;" width="140" x="1019" y="294.5313"/><text fill="#000000" font-family="sans-serif" font-size="20" lengthAdjust="spacing" textLength="126" x="1026" y="320.0957">:requestDTO</text><polygon fill="#181818" points="467,375.0938,457,379.0938,467,383.0938,463,379.0938" style="stroke:#181818;stroke-width:1.0;"/><line style="stroke:#181818;stroke-width:1.0;stroke-dasharray:2.0,2.0;" x1="461" x2="773" y1="379.0938" y2="379.0938"/><text fill="#000000" font-family="sans-serif" font-size="20" font-weight="bold" lengthAdjust="spacing" textLength="14" x="473" y="372.377">6</text><text fill="#000000" font-family="sans-serif" font-size="20" lengthAdjust="spacing" textLength="103" x="491" y="372.377">reqDtoList</text><polygon fill="#181818" points="11,412.375,1,416.375,11,420.375,7,416.375" style="stroke:#181818;stroke-width:1.0;"/><line style="stroke:#181818;stroke-width:1.0;stroke-dasharray:2.0,2.0;" x1="5" x2="450" y1="416.375" y2="416.375"/><text fill="#000000" font-family="sans-serif" font-size="20" font-weight="bold" lengthAdjust="spacing" textLength="14" x="17" y="409.6582">7</text><text fill="#000000" font-family="sans-serif" font-size="20" lengthAdjust="spacing" textLength="90" x="35" y="409.6582">200 (OK)</text><!--SRC=[ZP0zRy8m48Pt_ufJAbM0X8fG9mH1XT0E1L4bKQSk9XnW4UpKTX3jh-_59YrVGnSxTfxtkVEPhP05rtoNgsoBIrZYYfUvVLRI9k8ReTjXlBHAbhi5QcPg6YBFfNYmJxbOonrAs-zdjA8EG_0VZ2tK0GAw9nqN4ZKqne_DCFoGimXIRhOcWB_KtLIiDtQKbyW0g8mLcIYuj32Bqd4QJu4R27fZSccLvwW3W6imYTyzbw3UYmo3QoHAvnxH-5cYiNI-GSMJjoCMOw42Xd89z1p6s52rmz-UUl0oIU4XzghXIkJqbe6ntEBzdjDR1cvbFBDYJvTraB7Qu6LLt-H2UpIPqLTIIHektZpB4-lYLSQdNRF_ZLSmSm8NQvysS1o9cGfZsH9FOpIcYnilofKgOAKqqBzDBG0XprrrkxuOkLejAfTf91UT6WJJrdHZheoCNKIEqwuugswqvuRIRxTFs6wd0utvQ_E2TEF_0G00]--></g></svg>