<?xml version="1.0" encoding="UTF-8" standalone="no"?><svg xmlns="http://www.w3.org/2000/svg" xmlns:xlink="http://www.w3.org/1999/xlink" contentStyleType="text/css" height="1343px" preserveAspectRatio="none" style="width:4262px;height:1343px;background:#FFFFFF;" version="1.1" viewBox="0 0 4262 1343" width="4262px" zoomAndPan="magnify"><defs/><g><rect fill="#DDDDDD" height="1331.125" style="stroke:#181818;stroke-width:0.5;" width="1309" x="227.5" y="6"/><text fill="#000000" font-family="sans-serif" font-size="20" font-weight="bold" lengthAdjust="spacing" textLength="153" x="805.5" y="24.5645">«system (C4»</text><text fill="#000000" font-family="sans-serif" font-size="20" font-weight="bold" lengthAdjust="spacing" textLength="147" x="808.5" y="47.8457">Visualization</text><rect fill="#FFFFE0" height="1331.125" style="stroke:#181818;stroke-width:0.5;" width="1123.5" x="1889" y="6"/><text fill="#000000" font-family="sans-serif" font-size="20" font-weight="bold" lengthAdjust="spacing" textLength="189" x="2356.25" y="24.5645">«container (C4)»</text><text fill="#000000" font-family="sans-serif" font-size="20" font-weight="bold" lengthAdjust="spacing" textLength="193" x="2354.25" y="47.8457">MD Management</text><rect fill="#ADD8E6" height="1331.125" style="stroke:#181818;stroke-width:0.5;" width="886" x="3370.5" y="6"/><text fill="#000000" font-family="sans-serif" font-size="20" font-weight="bold" lengthAdjust="spacing" textLength="189" x="3719" y="24.5645">«container (C4)»</text><text fill="#000000" font-family="sans-serif" font-size="20" font-weight="bold" lengthAdjust="spacing" textLength="109" x="3759" y="47.8457">MD Tasks</text><rect fill="#FFFFFF" height="1104.7188" style="stroke:#181818;stroke-width:1.0;" width="10" x="72" y="128.125"/><rect fill="#FFFFFF" height="37.2813" style="stroke:#181818;stroke-width:1.0;" width="10" x="327" y="157.4063"/><rect fill="#FFFFFF" height="1000.875" style="stroke:#181818;stroke-width:1.0;" width="10" x="327" y="231.9688"/><rect fill="#FFFFFF" height="926.3125" style="stroke:#181818;stroke-width:1.0;" width="10" x="582" y="269.25"/><rect fill="#FFFFFF" height="851.75" style="stroke:#181818;stroke-width:1.0;" width="10" x="912" y="306.5313"/><rect fill="#FFFFFF" height="777.1875" style="stroke:#181818;stroke-width:1.0;" width="10" x="1427" y="343.8125"/><rect fill="#FFFFFF" height="702.625" style="stroke:#181818;stroke-width:1.0;" width="10" x="1928" y="381.0938"/><rect fill="#FFFFFF" height="628.0625" style="stroke:#181818;stroke-width:1.0;" width="10" x="2162" y="418.375"/><rect fill="#FFFFFF" height="553.5" style="stroke:#181818;stroke-width:1.0;" width="10" x="2509" y="455.6563"/><rect fill="#FFFFFF" height="37.2813" style="stroke:#181818;stroke-width:1.0;" width="10" x="2852" y="927.5938"/><rect fill="#FFFFFF" height="356.8125" style="stroke:#181818;stroke-width:1.0;" width="10" x="2967.5" y="492.9375"/><rect fill="#FFFFFF" height="282.25" style="stroke:#181818;stroke-width:1.0;" width="10" x="3429.5" y="530.2188"/><rect fill="#FFFFFF" height="207.6875" style="stroke:#181818;stroke-width:1.0;" width="10" x="3766.5" y="567.5"/><rect fill="#FFFFFF" height="37.2813" style="stroke:#181818;stroke-width:1.0;" width="10" x="4211.5" y="604.7813"/><rect fill="none" height="81.8438" style="stroke:#000000;stroke-width:1.5;" width="498" x="3714.5" y="657.0625"/><rect fill="none" height="108.125" style="stroke:#000000;stroke-width:1.5;" width="520.5" x="2416" y="864.75"/><line style="stroke:#181818;stroke-width:0.5;stroke-dasharray:5.0,5.0;" x1="77" x2="77" y1="118.125" y2="1250.8438"/><line style="stroke:#181818;stroke-width:0.5;stroke-dasharray:5.0,5.0;" x1="331.5" x2="331.5" y1="118.125" y2="1250.8438"/><line style="stroke:#181818;stroke-width:0.5;stroke-dasharray:5.0,5.0;" x1="586.5" x2="586.5" y1="118.125" y2="1250.8438"/><line style="stroke:#181818;stroke-width:0.5;stroke-dasharray:5.0,5.0;" x1="916.5" x2="916.5" y1="118.125" y2="1250.8438"/><line style="stroke:#181818;stroke-width:0.5;stroke-dasharray:5.0,5.0;" x1="1431.5" x2="1431.5" y1="118.125" y2="1250.8438"/><line style="stroke:#181818;stroke-width:0.5;stroke-dasharray:5.0,5.0;" x1="1933" x2="1933" y1="118.125" y2="1250.8438"/><line style="stroke:#181818;stroke-width:0.5;stroke-dasharray:5.0,5.0;" x1="2167" x2="2167" y1="118.125" y2="1250.8438"/><line style="stroke:#181818;stroke-width:0.5;stroke-dasharray:5.0,5.0;" x1="2514" x2="2514" y1="118.125" y2="1250.8438"/><line style="stroke:#181818;stroke-width:0.5;stroke-dasharray:5.0,5.0;" x1="2856.5" x2="2856.5" y1="118.125" y2="1250.8438"/><line style="stroke:#181818;stroke-width:0.5;stroke-dasharray:5.0,5.0;" x1="2972.5" x2="2972.5" y1="118.125" y2="1250.8438"/><line style="stroke:#181818;stroke-width:0.5;stroke-dasharray:5.0,5.0;" x1="3434.5" x2="3434.5" y1="118.125" y2="1250.8438"/><line style="stroke:#181818;stroke-width:0.5;stroke-dasharray:5.0,5.0;" x1="3771.5" x2="3771.5" y1="118.125" y2="1250.8438"/><line style="stroke:#181818;stroke-width:0.5;stroke-dasharray:5.0,5.0;" x1="4100.5" x2="4100.5" y1="724.7656" y2="1250.8438"/><line style="stroke:#181818;stroke-width:0.5;stroke-dasharray:5.0,5.0;" x1="4216.5" x2="4216.5" y1="118.125" y2="1250.8438"/><text fill="#000000" font-family="sans-serif" font-size="20" lengthAdjust="spacing" textLength="138" x="5" y="113.4082">Administrator</text><ellipse cx="77" cy="43.3438" fill="#E2E2F0" rx="8" ry="8" style="stroke:#181818;stroke-width:0.5;"/><path d="M77,51.3438 L77,78.3438 M64,59.3438 L90,59.3438 M77,78.3438 L64,93.3438 M77,78.3438 L90,93.3438 " fill="none" style="stroke:#181818;stroke-width:0.5;"/><text fill="#000000" font-family="sans-serif" font-size="20" lengthAdjust="spacing" textLength="138" x="5" y="1268.4082">Administrator</text><ellipse cx="77" cy="1281.625" fill="#E2E2F0" rx="8" ry="8" style="stroke:#181818;stroke-width:0.5;"/><path d="M77,1289.625 L77,1316.625 M64,1297.625 L90,1297.625 M77,1316.625 L64,1331.625 M77,1316.625 L90,1331.625 " fill="none" style="stroke:#181818;stroke-width:0.5;"/><rect fill="#E2E2F0" height="60.5625" rx="2.5" ry="2.5" style="stroke:#181818;stroke-width:0.5;" width="201" x="231.5" y="56.5625"/><text fill="#000000" font-family="sans-serif" font-size="20" font-style="italic" lengthAdjust="spacing" textLength="187" x="238.5" y="82.127">«component (C4)»</text><text fill="#000000" font-family="sans-serif" font-size="20" lengthAdjust="spacing" textLength="144" x="260" y="105.4082">UI Component</text><rect fill="#E2E2F0" height="60.5625" rx="2.5" ry="2.5" style="stroke:#181818;stroke-width:0.5;" width="201" x="231.5" y="1249.8438"/><text fill="#000000" font-family="sans-serif" font-size="20" font-style="italic" lengthAdjust="spacing" textLength="187" x="238.5" y="1275.4082">«component (C4)»</text><text fill="#000000" font-family="sans-serif" font-size="20" lengthAdjust="spacing" textLength="144" x="260" y="1298.6895">UI Component</text><rect fill="#E2E2F0" height="60.5625" rx="2.5" ry="2.5" style="stroke:#181818;stroke-width:0.5;" width="201" x="486.5" y="56.5625"/><text fill="#000000" font-family="sans-serif" font-size="20" font-style="italic" lengthAdjust="spacing" textLength="187" x="493.5" y="82.127">«component (C4)»</text><text fill="#000000" font-family="sans-serif" font-size="20" lengthAdjust="spacing" textLength="73" x="550.5" y="105.4082">Module</text><rect fill="#E2E2F0" height="60.5625" rx="2.5" ry="2.5" style="stroke:#181818;stroke-width:0.5;" width="201" x="486.5" y="1249.8438"/><text fill="#000000" font-family="sans-serif" font-size="20" font-style="italic" lengthAdjust="spacing" textLength="187" x="493.5" y="1275.4082">«component (C4)»</text><text fill="#000000" font-family="sans-serif" font-size="20" lengthAdjust="spacing" textLength="73" x="550.5" y="1298.6895">Module</text><rect fill="#E2E2F0" height="60.5625" rx="2.5" ry="2.5" style="stroke:#181818;stroke-width:0.5;" width="201" x="816.5" y="56.5625"/><text fill="#000000" font-family="sans-serif" font-size="20" font-style="italic" lengthAdjust="spacing" textLength="187" x="823.5" y="82.127">«component (C4)»</text><text fill="#000000" font-family="sans-serif" font-size="20" lengthAdjust="spacing" textLength="73" x="880.5" y="105.4082">Service</text><rect fill="#E2E2F0" height="60.5625" rx="2.5" ry="2.5" style="stroke:#181818;stroke-width:0.5;" width="201" x="816.5" y="1249.8438"/><text fill="#000000" font-family="sans-serif" font-size="20" font-style="italic" lengthAdjust="spacing" textLength="187" x="823.5" y="1275.4082">«component (C4)»</text><text fill="#000000" font-family="sans-serif" font-size="20" lengthAdjust="spacing" textLength="73" x="880.5" y="1298.6895">Service</text><rect fill="#E2E2F0" height="60.5625" rx="2.5" ry="2.5" style="stroke:#181818;stroke-width:0.5;" width="201" x="1331.5" y="56.5625"/><text fill="#000000" font-family="sans-serif" font-size="20" font-style="italic" lengthAdjust="spacing" textLength="187" x="1338.5" y="82.127">«component (C4)»</text><text fill="#000000" font-family="sans-serif" font-size="20" lengthAdjust="spacing" textLength="51" x="1406.5" y="105.4082">HTTP</text><rect fill="#E2E2F0" height="60.5625" rx="2.5" ry="2.5" style="stroke:#181818;stroke-width:0.5;" width="201" x="1331.5" y="1249.8438"/><text fill="#000000" font-family="sans-serif" font-size="20" font-style="italic" lengthAdjust="spacing" textLength="187" x="1338.5" y="1275.4082">«component (C4)»</text><text fill="#000000" font-family="sans-serif" font-size="20" lengthAdjust="spacing" textLength="51" x="1406.5" y="1298.6895">HTTP</text><rect fill="#E2E2F0" height="37.2813" rx="2.5" ry="2.5" style="stroke:#181818;stroke-width:0.5;" width="80" x="1893" y="79.8438"/><text fill="#000000" font-family="sans-serif" font-size="20" lengthAdjust="spacing" textLength="66" x="1900" y="105.4082">:Route</text><rect fill="#E2E2F0" height="37.2813" rx="2.5" ry="2.5" style="stroke:#181818;stroke-width:0.5;" width="80" x="1893" y="1249.8438"/><text fill="#000000" font-family="sans-serif" font-size="20" lengthAdjust="spacing" textLength="66" x="1900" y="1275.4082">:Route</text><rect fill="#E2E2F0" height="37.2813" rx="2.5" ry="2.5" style="stroke:#181818;stroke-width:0.5;" width="120" x="2107" y="79.8438"/><text fill="#000000" font-family="sans-serif" font-size="20" lengthAdjust="spacing" textLength="106" x="2114" y="105.4082">:Controller</text><rect fill="#E2E2F0" height="37.2813" rx="2.5" ry="2.5" style="stroke:#181818;stroke-width:0.5;" width="120" x="2107" y="1249.8438"/><text fill="#000000" font-family="sans-serif" font-size="20" lengthAdjust="spacing" textLength="106" x="2114" y="1275.4082">:Controller</text><rect fill="#E2E2F0" height="37.2813" rx="2.5" ry="2.5" style="stroke:#181818;stroke-width:0.5;" width="176" x="2426" y="79.8438"/><text fill="#000000" font-family="sans-serif" font-size="20" lengthAdjust="spacing" textLength="162" x="2433" y="105.4082">:RequestService</text><rect fill="#E2E2F0" height="37.2813" rx="2.5" ry="2.5" style="stroke:#181818;stroke-width:0.5;" width="176" x="2426" y="1249.8438"/><text fill="#000000" font-family="sans-serif" font-size="20" lengthAdjust="spacing" textLength="162" x="2433" y="1275.4082">:RequestService</text><rect fill="#E2E2F0" height="37.2813" rx="2.5" ry="2.5" style="stroke:#181818;stroke-width:0.5;" width="139" x="2787.5" y="79.8438"/><text fill="#000000" font-family="sans-serif" font-size="20" lengthAdjust="spacing" textLength="125" x="2794.5" y="105.4082">:UserService</text><rect fill="#E2E2F0" height="37.2813" rx="2.5" ry="2.5" style="stroke:#181818;stroke-width:0.5;" width="139" x="2787.5" y="1249.8438"/><text fill="#000000" font-family="sans-serif" font-size="20" lengthAdjust="spacing" textLength="125" x="2794.5" y="1275.4082">:UserService</text><rect fill="#E2E2F0" height="37.2813" rx="2.5" ry="2.5" style="stroke:#181818;stroke-width:0.5;" width="72" x="2936.5" y="79.8438"/><text fill="#000000" font-family="sans-serif" font-size="20" lengthAdjust="spacing" textLength="58" x="2943.5" y="105.4082">:HTTP</text><rect fill="#E2E2F0" height="37.2813" rx="2.5" ry="2.5" style="stroke:#181818;stroke-width:0.5;" width="72" x="2936.5" y="1249.8438"/><text fill="#000000" font-family="sans-serif" font-size="20" lengthAdjust="spacing" textLength="58" x="2943.5" y="1275.4082">:HTTP</text><rect fill="#E2E2F0" height="37.2813" rx="2.5" ry="2.5" style="stroke:#181818;stroke-width:0.5;" width="120" x="3374.5" y="79.8438"/><text fill="#000000" font-family="sans-serif" font-size="20" lengthAdjust="spacing" textLength="106" x="3381.5" y="105.4082">:Controller</text><rect fill="#E2E2F0" height="37.2813" rx="2.5" ry="2.5" style="stroke:#181818;stroke-width:0.5;" width="120" x="3374.5" y="1249.8438"/><text fill="#000000" font-family="sans-serif" font-size="20" lengthAdjust="spacing" textLength="106" x="3381.5" y="1275.4082">:Controller</text><rect fill="#E2E2F0" height="37.2813" rx="2.5" ry="2.5" style="stroke:#181818;stroke-width:0.5;" width="94" x="3724.5" y="79.8438"/><text fill="#000000" font-family="sans-serif" font-size="20" lengthAdjust="spacing" textLength="80" x="3731.5" y="105.4082">:Service</text><rect fill="#E2E2F0" height="37.2813" rx="2.5" ry="2.5" style="stroke:#181818;stroke-width:0.5;" width="94" x="3724.5" y="1249.8438"/><text fill="#000000" font-family="sans-serif" font-size="20" lengthAdjust="spacing" textLength="80" x="3731.5" y="1275.4082">:Service</text><rect fill="#E2E2F0" height="37.2813" rx="2.5" ry="2.5" style="stroke:#181818;stroke-width:0.5;" width="140" x="4030.5" y="1249.8438"/><text fill="#000000" font-family="sans-serif" font-size="20" lengthAdjust="spacing" textLength="126" x="4037.5" y="1275.4082">:requestDTO</text><rect fill="#E2E2F0" height="37.2813" rx="2.5" ry="2.5" style="stroke:#181818;stroke-width:0.5;" width="72" x="4180.5" y="79.8438"/><text fill="#000000" font-family="sans-serif" font-size="20" lengthAdjust="spacing" textLength="58" x="4187.5" y="105.4082">:Repo</text><rect fill="#E2E2F0" height="37.2813" rx="2.5" ry="2.5" style="stroke:#181818;stroke-width:0.5;" width="72" x="4180.5" y="1249.8438"/><text fill="#000000" font-family="sans-serif" font-size="20" lengthAdjust="spacing" textLength="58" x="4187.5" y="1275.4082">:Repo</text><rect fill="#FFFFFF" height="1104.7188" style="stroke:#181818;stroke-width:1.0;" width="10" x="72" y="128.125"/><rect fill="#FFFFFF" height="37.2813" style="stroke:#181818;stroke-width:1.0;" width="10" x="327" y="157.4063"/><rect fill="#FFFFFF" height="1000.875" style="stroke:#181818;stroke-width:1.0;" width="10" x="327" y="231.9688"/><rect fill="#FFFFFF" height="926.3125" style="stroke:#181818;stroke-width:1.0;" width="10" x="582" y="269.25"/><rect fill="#FFFFFF" height="851.75" style="stroke:#181818;stroke-width:1.0;" width="10" x="912" y="306.5313"/><rect fill="#FFFFFF" height="777.1875" style="stroke:#181818;stroke-width:1.0;" width="10" x="1427" y="343.8125"/><rect fill="#FFFFFF" height="702.625" style="stroke:#181818;stroke-width:1.0;" width="10" x="1928" y="381.0938"/><rect fill="#FFFFFF" height="628.0625" style="stroke:#181818;stroke-width:1.0;" width="10" x="2162" y="418.375"/><rect fill="#FFFFFF" height="553.5" style="stroke:#181818;stroke-width:1.0;" width="10" x="2509" y="455.6563"/><rect fill="#FFFFFF" height="37.2813" style="stroke:#181818;stroke-width:1.0;" width="10" x="2852" y="927.5938"/><rect fill="#FFFFFF" height="356.8125" style="stroke:#181818;stroke-width:1.0;" width="10" x="2967.5" y="492.9375"/><rect fill="#FFFFFF" height="282.25" style="stroke:#181818;stroke-width:1.0;" width="10" x="3429.5" y="530.2188"/><rect fill="#FFFFFF" height="207.6875" style="stroke:#181818;stroke-width:1.0;" width="10" x="3766.5" y="567.5"/><rect fill="#FFFFFF" height="37.2813" style="stroke:#181818;stroke-width:1.0;" width="10" x="4211.5" y="604.7813"/><polygon fill="#181818" points="315,153.4063,325,157.4063,315,161.4063,319,157.4063" style="stroke:#181818;stroke-width:1.0;"/><line style="stroke:#181818;stroke-width:1.0;" x1="82" x2="321" y1="157.4063" y2="157.4063"/><text fill="#000000" font-family="sans-serif" font-size="20" font-weight="bold" lengthAdjust="spacing" textLength="14" x="89" y="150.6895">1</text><text fill="#000000" font-family="sans-serif" font-size="20" lengthAdjust="spacing" textLength="208" x="107" y="150.6895">selects filter by state</text><polygon fill="#181818" points="93,190.6875,83,194.6875,93,198.6875,89,194.6875" style="stroke:#181818;stroke-width:1.0;"/><line style="stroke:#181818;stroke-width:1.0;" x1="87" x2="331" y1="194.6875" y2="194.6875"/><text fill="#000000" font-family="sans-serif" font-size="20" font-weight="bold" lengthAdjust="spacing" textLength="14" x="99" y="187.9707">2</text><text fill="#000000" font-family="sans-serif" font-size="20" lengthAdjust="spacing" textLength="140" x="117" y="187.9707">states options</text><polygon fill="#181818" points="315,227.9688,325,231.9688,315,235.9688,319,231.9688" style="stroke:#181818;stroke-width:1.0;"/><line style="stroke:#181818;stroke-width:1.0;" x1="82" x2="321" y1="231.9688" y2="231.9688"/><text fill="#000000" font-family="sans-serif" font-size="20" font-weight="bold" lengthAdjust="spacing" textLength="14" x="89" y="225.252">3</text><text fill="#000000" font-family="sans-serif" font-size="20" lengthAdjust="spacing" textLength="205" x="107" y="225.252">selects state options</text><polygon fill="#181818" points="570,265.25,580,269.25,570,273.25,574,269.25" style="stroke:#181818;stroke-width:1.0;"/><line style="stroke:#181818;stroke-width:1.0;" x1="337" x2="576" y1="269.25" y2="269.25"/><text fill="#000000" font-family="sans-serif" font-size="20" font-weight="bold" lengthAdjust="spacing" textLength="14" x="344" y="262.5332">4</text><text fill="#000000" font-family="sans-serif" font-size="20" lengthAdjust="spacing" textLength="208" x="362" y="262.5332">list requests by state</text><polygon fill="#181818" points="900,302.5313,910,306.5313,900,310.5313,904,306.5313" style="stroke:#181818;stroke-width:1.0;"/><line style="stroke:#181818;stroke-width:1.0;" x1="592" x2="906" y1="306.5313" y2="306.5313"/><text fill="#000000" font-family="sans-serif" font-size="20" font-weight="bold" lengthAdjust="spacing" textLength="14" x="599" y="299.8145">5</text><text fill="#000000" font-family="sans-serif" font-size="20" lengthAdjust="spacing" textLength="283" x="617" y="299.8145">getAllRequests(state, value)</text><polygon fill="#181818" points="1415,339.8125,1425,343.8125,1415,347.8125,1419,343.8125" style="stroke:#181818;stroke-width:1.0;"/><line style="stroke:#181818;stroke-width:1.0;" x1="922" x2="1421" y1="343.8125" y2="343.8125"/><text fill="#000000" font-family="sans-serif" font-size="20" font-weight="bold" lengthAdjust="spacing" textLength="14" x="929" y="337.0957">6</text><text fill="#000000" font-family="sans-serif" font-size="20" lengthAdjust="spacing" textLength="468" x="947" y="337.0957">get('/task-requests?filter=state&amp;value=value')</text><polygon fill="#181818" points="1916,377.0938,1926,381.0938,1916,385.0938,1920,381.0938" style="stroke:#181818;stroke-width:1.0;"/><line style="stroke:#181818;stroke-width:1.0;" x1="1437" x2="1922" y1="381.0938" y2="381.0938"/><text fill="#000000" font-family="sans-serif" font-size="20" font-weight="bold" lengthAdjust="spacing" textLength="14" x="1444" y="374.377">7</text><text fill="#000000" font-family="sans-serif" font-size="20" lengthAdjust="spacing" textLength="454" x="1462" y="374.377">GET /task-requests?filter=state&amp;value=value</text><polygon fill="#181818" points="2150,414.375,2160,418.375,2150,422.375,2154,418.375" style="stroke:#181818;stroke-width:1.0;"/><line style="stroke:#181818;stroke-width:1.0;" x1="1938" x2="2156" y1="418.375" y2="418.375"/><text fill="#000000" font-family="sans-serif" font-size="20" font-weight="bold" lengthAdjust="spacing" textLength="14" x="1945" y="411.6582">8</text><text fill="#000000" font-family="sans-serif" font-size="20" lengthAdjust="spacing" textLength="187" x="1963" y="411.6582">getTaskRequests()</text><polygon fill="#181818" points="2497,451.6563,2507,455.6563,2497,459.6563,2501,455.6563" style="stroke:#181818;stroke-width:1.0;"/><line style="stroke:#181818;stroke-width:1.0;" x1="2172" x2="2503" y1="455.6563" y2="455.6563"/><text fill="#000000" font-family="sans-serif" font-size="20" font-weight="bold" lengthAdjust="spacing" textLength="14" x="2179" y="448.9395">9</text><text fill="#000000" font-family="sans-serif" font-size="20" lengthAdjust="spacing" textLength="300" x="2197" y="448.9395">getTaskRequests(filter, value)</text><polygon fill="#181818" points="2955.5,488.9375,2965.5,492.9375,2955.5,496.9375,2959.5,492.9375" style="stroke:#181818;stroke-width:1.0;"/><line style="stroke:#181818;stroke-width:1.0;" x1="2519" x2="2961.5" y1="492.9375" y2="492.9375"/><text fill="#000000" font-family="sans-serif" font-size="20" font-weight="bold" lengthAdjust="spacing" textLength="28" x="2526" y="486.2207">10</text><text fill="#000000" font-family="sans-serif" font-size="20" lengthAdjust="spacing" textLength="300" x="2558" y="486.2207">getTaskRequests(filter, value)</text><polygon fill="#181818" points="3417.5,526.2188,3427.5,530.2188,3417.5,534.2188,3421.5,530.2188" style="stroke:#181818;stroke-width:1.0;"/><line style="stroke:#181818;stroke-width:1.0;" x1="2977.5" x2="3423.5" y1="530.2188" y2="530.2188"/><text fill="#000000" font-family="sans-serif" font-size="20" font-weight="bold" lengthAdjust="spacing" textLength="28" x="2984.5" y="523.502">11</text><text fill="#000000" font-family="sans-serif" font-size="20" lengthAdjust="spacing" textLength="401" x="3016.5" y="523.502">GET /Request?filter=state&amp;value=value</text><polygon fill="#181818" points="3754.5,563.5,3764.5,567.5,3754.5,571.5,3758.5,567.5" style="stroke:#181818;stroke-width:1.0;"/><line style="stroke:#181818;stroke-width:1.0;" x1="3439.5" x2="3760.5" y1="567.5" y2="567.5"/><text fill="#000000" font-family="sans-serif" font-size="20" font-weight="bold" lengthAdjust="spacing" textLength="28" x="3446.5" y="560.7832">12</text><text fill="#000000" font-family="sans-serif" font-size="20" lengthAdjust="spacing" textLength="276" x="3478.5" y="560.7832">GetRequestsByState(value)</text><polygon fill="#181818" points="4199.5,600.7813,4209.5,604.7813,4199.5,608.7813,4203.5,604.7813" style="stroke:#181818;stroke-width:1.0;"/><line style="stroke:#181818;stroke-width:1.0;" x1="3776.5" x2="4205.5" y1="604.7813" y2="604.7813"/><text fill="#000000" font-family="sans-serif" font-size="20" font-weight="bold" lengthAdjust="spacing" textLength="28" x="3783.5" y="598.0645">13</text><text fill="#000000" font-family="sans-serif" font-size="20" lengthAdjust="spacing" textLength="276" x="3815.5" y="598.0645">GetRequestsByState(value)</text><polygon fill="#181818" points="3787.5,638.0625,3777.5,642.0625,3787.5,646.0625,3783.5,642.0625" style="stroke:#181818;stroke-width:1.0;"/><line style="stroke:#181818;stroke-width:1.0;stroke-dasharray:2.0,2.0;" x1="3781.5" x2="4215.5" y1="642.0625" y2="642.0625"/><text fill="#000000" font-family="sans-serif" font-size="20" font-weight="bold" lengthAdjust="spacing" textLength="28" x="3793.5" y="635.3457">14</text><text fill="#000000" font-family="sans-serif" font-size="20" lengthAdjust="spacing" textLength="121" x="3825.5" y="635.3457">requestsList</text><path d="M3714.5,657.0625 L3808.5,657.0625 L3808.5,672.3438 L3798.5,682.3438 L3714.5,682.3438 L3714.5,657.0625 " fill="#EEEEEE" style="stroke:#000000;stroke-width:1.5;"/><rect fill="none" height="81.8438" style="stroke:#000000;stroke-width:1.5;" width="498" x="3714.5" y="657.0625"/><text fill="#000000" font-family="sans-serif" font-size="20" font-weight="bold" lengthAdjust="spacing" textLength="49" x="3729.5" y="676.627">loop</text><text fill="#000000" font-family="sans-serif" font-size="20" font-weight="bold" lengthAdjust="spacing" textLength="384" x="3823.5" y="677.627">[for each request in requestsList]</text><polygon fill="#181818" points="4018.5,715.9063,4028.5,719.9063,4018.5,723.9063,4022.5,719.9063" style="stroke:#181818;stroke-width:1.0;"/><line style="stroke:#181818;stroke-width:1.0;stroke-dasharray:2.0,2.0;" x1="3776.5" x2="4024.5" y1="719.9063" y2="719.9063"/><text fill="#000000" font-family="sans-serif" font-size="20" font-weight="bold" lengthAdjust="spacing" textLength="28" x="3783.5" y="713.1895">15</text><text fill="#000000" font-family="sans-serif" font-size="20" lengthAdjust="spacing" textLength="198" x="3815.5" y="713.1895">createDTO(reqDTO)</text><rect fill="#E2E2F0" height="37.2813" rx="2.5" ry="2.5" style="stroke:#181818;stroke-width:0.5;" width="140" x="4030.5" y="690.625"/><text fill="#000000" font-family="sans-serif" font-size="20" lengthAdjust="spacing" textLength="126" x="4037.5" y="716.1895">:requestDTO</text><polygon fill="#181818" points="3450.5,771.1875,3440.5,775.1875,3450.5,779.1875,3446.5,775.1875" style="stroke:#181818;stroke-width:1.0;"/><line style="stroke:#181818;stroke-width:1.0;stroke-dasharray:2.0,2.0;" x1="3444.5" x2="3770.5" y1="775.1875" y2="775.1875"/><text fill="#000000" font-family="sans-serif" font-size="20" font-weight="bold" lengthAdjust="spacing" textLength="28" x="3456.5" y="768.4707">16</text><text fill="#000000" font-family="sans-serif" font-size="20" lengthAdjust="spacing" textLength="103" x="3488.5" y="768.4707">reqDtoList</text><polygon fill="#181818" points="2988.5,808.4688,2978.5,812.4688,2988.5,816.4688,2984.5,812.4688" style="stroke:#181818;stroke-width:1.0;"/><line style="stroke:#181818;stroke-width:1.0;stroke-dasharray:2.0,2.0;" x1="2982.5" x2="3433.5" y1="812.4688" y2="812.4688"/><text fill="#000000" font-family="sans-serif" font-size="20" font-weight="bold" lengthAdjust="spacing" textLength="28" x="2994.5" y="805.752">17</text><text fill="#000000" font-family="sans-serif" font-size="20" lengthAdjust="spacing" textLength="90" x="3026.5" y="805.752">200 (OK)</text><polygon fill="#181818" points="2530,845.75,2520,849.75,2530,853.75,2526,849.75" style="stroke:#181818;stroke-width:1.0;"/><line style="stroke:#181818;stroke-width:1.0;stroke-dasharray:2.0,2.0;" x1="2524" x2="2971.5" y1="849.75" y2="849.75"/><text fill="#000000" font-family="sans-serif" font-size="20" font-weight="bold" lengthAdjust="spacing" textLength="28" x="2536" y="843.0332">18</text><text fill="#000000" font-family="sans-serif" font-size="20" lengthAdjust="spacing" textLength="103" x="2568" y="843.0332">reqDtoList</text><path d="M2416,864.75 L2510,864.75 L2510,880.0313 L2500,890.0313 L2416,890.0313 L2416,864.75 " fill="#EEEEEE" style="stroke:#000000;stroke-width:1.5;"/><rect fill="none" height="108.125" style="stroke:#000000;stroke-width:1.5;" width="520.5" x="2416" y="864.75"/><text fill="#000000" font-family="sans-serif" font-size="20" font-weight="bold" lengthAdjust="spacing" textLength="49" x="2431" y="884.3145">loop</text><text fill="#000000" font-family="sans-serif" font-size="20" font-weight="bold" lengthAdjust="spacing" textLength="363" x="2525" y="885.3145">[for each request in reqDtoList]</text><polygon fill="#181818" points="2840,923.5938,2850,927.5938,2840,931.5938,2844,927.5938" style="stroke:#181818;stroke-width:1.0;"/><line style="stroke:#181818;stroke-width:1.0;" x1="2519" x2="2846" y1="927.5938" y2="927.5938"/><text fill="#000000" font-family="sans-serif" font-size="20" font-weight="bold" lengthAdjust="spacing" textLength="28" x="2526" y="920.877">19</text><text fill="#000000" font-family="sans-serif" font-size="20" lengthAdjust="spacing" textLength="282" x="2558" y="920.877">getUserById(request.userId)</text><polygon fill="#181818" points="2530,960.875,2520,964.875,2530,968.875,2526,964.875" style="stroke:#181818;stroke-width:1.0;"/><line style="stroke:#181818;stroke-width:1.0;stroke-dasharray:2.0,2.0;" x1="2524" x2="2856" y1="964.875" y2="964.875"/><text fill="#000000" font-family="sans-serif" font-size="20" font-weight="bold" lengthAdjust="spacing" textLength="28" x="2536" y="958.1582">20</text><text fill="#000000" font-family="sans-serif" font-size="20" lengthAdjust="spacing" textLength="43" x="2568" y="958.1582">user</text><polygon fill="#181818" points="2183,1005.1563,2173,1009.1563,2183,1013.1563,2179,1009.1563" style="stroke:#181818;stroke-width:1.0;"/><line style="stroke:#181818;stroke-width:1.0;stroke-dasharray:2.0,2.0;" x1="2177" x2="2513" y1="1009.1563" y2="1009.1563"/><text fill="#000000" font-family="sans-serif" font-size="20" font-weight="bold" lengthAdjust="spacing" textLength="28" x="2189" y="1002.4395">21</text><text fill="#000000" font-family="sans-serif" font-size="20" lengthAdjust="spacing" textLength="103" x="2221" y="1002.4395">reqDtoList</text><polygon fill="#181818" points="1949,1042.4375,1939,1046.4375,1949,1050.4375,1945,1046.4375" style="stroke:#181818;stroke-width:1.0;"/><line style="stroke:#181818;stroke-width:1.0;stroke-dasharray:2.0,2.0;" x1="1943" x2="2166" y1="1046.4375" y2="1046.4375"/><text fill="#000000" font-family="sans-serif" font-size="20" font-weight="bold" lengthAdjust="spacing" textLength="28" x="1955" y="1039.7207">22</text><text fill="#000000" font-family="sans-serif" font-size="20" lengthAdjust="spacing" textLength="103" x="1987" y="1039.7207">reqDtoList</text><polygon fill="#181818" points="1448,1079.7188,1438,1083.7188,1448,1087.7188,1444,1083.7188" style="stroke:#181818;stroke-width:1.0;"/><line style="stroke:#181818;stroke-width:1.0;stroke-dasharray:2.0,2.0;" x1="1442" x2="1932" y1="1083.7188" y2="1083.7188"/><text fill="#000000" font-family="sans-serif" font-size="20" font-weight="bold" lengthAdjust="spacing" textLength="28" x="1454" y="1077.002">23</text><text fill="#000000" font-family="sans-serif" font-size="20" lengthAdjust="spacing" textLength="90" x="1486" y="1077.002">200 (OK)</text><polygon fill="#181818" points="933,1117,923,1121,933,1125,929,1121" style="stroke:#181818;stroke-width:1.0;"/><line style="stroke:#181818;stroke-width:1.0;stroke-dasharray:2.0,2.0;" x1="927" x2="1431" y1="1121" y2="1121"/><text fill="#000000" font-family="sans-serif" font-size="20" font-weight="bold" lengthAdjust="spacing" textLength="28" x="939" y="1114.2832">24</text><text fill="#000000" font-family="sans-serif" font-size="20" lengthAdjust="spacing" textLength="86" x="971" y="1114.2832">requests</text><polygon fill="#181818" points="603,1154.2813,593,1158.2813,603,1162.2813,599,1158.2813" style="stroke:#181818;stroke-width:1.0;"/><line style="stroke:#181818;stroke-width:1.0;stroke-dasharray:2.0,2.0;" x1="597" x2="916" y1="1158.2813" y2="1158.2813"/><text fill="#000000" font-family="sans-serif" font-size="20" font-weight="bold" lengthAdjust="spacing" textLength="28" x="609" y="1151.5645">25</text><text fill="#000000" font-family="sans-serif" font-size="20" lengthAdjust="spacing" textLength="86" x="641" y="1151.5645">requests</text><polygon fill="#181818" points="348,1191.5625,338,1195.5625,348,1199.5625,344,1195.5625" style="stroke:#181818;stroke-width:1.0;"/><line style="stroke:#181818;stroke-width:1.0;stroke-dasharray:2.0,2.0;" x1="342" x2="586" y1="1195.5625" y2="1195.5625"/><text fill="#000000" font-family="sans-serif" font-size="20" font-weight="bold" lengthAdjust="spacing" textLength="28" x="354" y="1188.8457">26</text><text fill="#000000" font-family="sans-serif" font-size="20" lengthAdjust="spacing" textLength="86" x="386" y="1188.8457">requests</text><polygon fill="#181818" points="88,1228.8438,78,1232.8438,88,1236.8438,84,1232.8438" style="stroke:#181818;stroke-width:1.0;"/><line style="stroke:#181818;stroke-width:1.0;stroke-dasharray:2.0,2.0;" x1="82" x2="331" y1="1232.8438" y2="1232.8438"/><text fill="#000000" font-family="sans-serif" font-size="20" font-weight="bold" lengthAdjust="spacing" textLength="28" x="94" y="1226.127">27</text><text fill="#000000" font-family="sans-serif" font-size="20" lengthAdjust="spacing" textLength="86" x="126" y="1226.127">requests</text><!--SRC=[bLNRJjj047tVhnYbKabGQH7ganLIGKmfAbPGuY1LwijYBs65ivjwrvJmzPszsOunRVeIOdFEcPapbwX7BZQqfEj2PeyiXvpTqwhGNwNG2_x2uEIOq4fBKQtlM4bKG4FiS2bxrcS5Nuar4teypl2JbPC9k2-4q4pB4ixY1AY2mLc-ve8hNL9yEo1tyXa6ux7QAitMC9n-dan-YbkkAbhm5wgv58D6aW1WPCqplg52mpIviPBBAvZAzKOAX0q0uU71w8rUqP9PR6c9pAk2xK5Op6yjOS7A9vxjm_YMfYurywKNpqGEM3i91cHeDkM2bHxmKoGn95JG5Lk7ihmBxwxvwa7_O4KXVtVYpcVBzC86ZkQoqcpGTIoTNoUnAp-QOiXI5WKhkx35xRH6pTclYYaTQkyWbsteKh7o3Ppn8V4mwyb-1gHKFQhNjPyN5UisDKvDSV-g366Xcz4RgI8aJcSEKhhYyRa7DR-ucGMFDh9L4GuyVwAQcPadn0p-qSGEQmIA5IpJ2kvvWVN0tHQKHcH3GHWX1eiKmumSG87Sc6LGG7As2-xLjwJ0sLNtucOB8YXm4y5NgNhIGHGnI2GOto9OCTprmW-56bhu1tYYs95HGqCiCNYasLMmlE719utzF0hXlZWJJgt6UojnQZyFMag6JeWLGJ4ttn5SNgImfrWZPSd4IHZ3_2xOtCoWrKMrmdiGjiIZZH5kv5_pN0ezRbW28PxeJKd-Hy8Hd169bGW3xytm2dlOu8c410KdvjfxoNJ8vNoxC2B3RYeEQ-c-nM4NzgKRCB42bdRKJY3qyne7iptgRYixRvnG8UK6xl4d1l_t40I0YrsjaAuBXbg7XnWkAnbguTCGmVXdPBVOA1BIeNYt3KxBdlI2ASxJTfDFZezXEFi-wX1S5q97suFL7oFCmD_g3RHcr9RjSJKN-dnxbGyzwsE5BwxoLdiyd0JQJbu6tSueW1lFMgncl_hB2LjHRrPhl_iPOHdz2ZV7fSzWj-tkSDJNAqn4rrPIztaMlm4pxRMNiBwrVIXpB-s1hSzt7yhUxTQp-Ptu0m00]--></g></svg>