<?xml version="1.0" encoding="UTF-8" standalone="no"?><svg xmlns="http://www.w3.org/2000/svg" xmlns:xlink="http://www.w3.org/1999/xlink" contentStyleType="text/css" height="657px" preserveAspectRatio="none" style="width:2114px;height:657px;background:#FFFFFF;" version="1.1" viewBox="0 0 2114 657" width="2114px" zoomAndPan="magnify"><defs/><g><rect fill="#FFFFE0" height="645.0625" style="stroke:#181818;stroke-width:0.5;" width="1109.5" x="460" y="6"/><text fill="#000000" font-family="sans-serif" font-size="20" font-weight="bold" lengthAdjust="spacing" textLength="189" x="920.25" y="24.5645">«container (C4)»</text><text fill="#000000" font-family="sans-serif" font-size="20" font-weight="bold" lengthAdjust="spacing" textLength="193" x="918.25" y="47.8457">MD Management</text><rect fill="#ADD8E6" height="645.0625" style="stroke:#181818;stroke-width:0.5;" width="195" x="1913.5" y="6"/><text fill="#000000" font-family="sans-serif" font-size="20" font-weight="bold" lengthAdjust="spacing" textLength="189" x="1916.5" y="24.5645">«container (C4)»</text><text fill="#000000" font-family="sans-serif" font-size="20" font-weight="bold" lengthAdjust="spacing" textLength="109" x="1956.5" y="47.8457">MD Tasks</text><rect fill="#FFFFFF" height="466.6563" style="stroke:#181818;stroke-width:1.0;" width="10" x="499" y="134.125"/><rect fill="#FFFFFF" height="383.0938" style="stroke:#181818;stroke-width:1.0;" width="10" x="733" y="171.4063"/><rect fill="#FFFFFF" height="308.5313" style="stroke:#181818;stroke-width:1.0;" width="10" x="1080" y="208.6875"/><rect fill="#FFFFFF" height="37.2813" style="stroke:#181818;stroke-width:1.0;" width="10" x="1409" y="435.6563"/><rect fill="#FFFFFF" height="111.8438" style="stroke:#181818;stroke-width:1.0;" width="10" x="1524.5" y="245.9688"/><rect fill="#FFFFFF" height="37.2813" style="stroke:#181818;stroke-width:1.0;" width="10" x="2006" y="283.25"/><rect fill="none" height="108.125" style="stroke:#000000;stroke-width:1.5;" width="506.5" x="987" y="372.8125"/><line style="stroke:#181818;stroke-width:0.5;stroke-dasharray:5.0,5.0;" x1="504" x2="504" y1="94.8438" y2="609.7813"/><line style="stroke:#181818;stroke-width:0.5;stroke-dasharray:5.0,5.0;" x1="738" x2="738" y1="94.8438" y2="609.7813"/><line style="stroke:#181818;stroke-width:0.5;stroke-dasharray:5.0,5.0;" x1="1085" x2="1085" y1="94.8438" y2="609.7813"/><line style="stroke:#181818;stroke-width:0.5;stroke-dasharray:5.0,5.0;" x1="1413.5" x2="1413.5" y1="94.8438" y2="609.7813"/><line style="stroke:#181818;stroke-width:0.5;stroke-dasharray:5.0,5.0;" x1="1529.5" x2="1529.5" y1="94.8438" y2="609.7813"/><line style="stroke:#181818;stroke-width:0.5;stroke-dasharray:5.0,5.0;" x1="2011" x2="2011" y1="94.8438" y2="609.7813"/><rect fill="#E2E2F0" height="37.2813" rx="2.5" ry="2.5" style="stroke:#181818;stroke-width:0.5;" width="80" x="464" y="56.5625"/><text fill="#000000" font-family="sans-serif" font-size="20" lengthAdjust="spacing" textLength="66" x="471" y="82.127">:Route</text><rect fill="#E2E2F0" height="37.2813" rx="2.5" ry="2.5" style="stroke:#181818;stroke-width:0.5;" width="80" x="464" y="608.7813"/><text fill="#000000" font-family="sans-serif" font-size="20" lengthAdjust="spacing" textLength="66" x="471" y="634.3457">:Route</text><rect fill="#E2E2F0" height="37.2813" rx="2.5" ry="2.5" style="stroke:#181818;stroke-width:0.5;" width="120" x="678" y="56.5625"/><text fill="#000000" font-family="sans-serif" font-size="20" lengthAdjust="spacing" textLength="106" x="685" y="82.127">:Controller</text><rect fill="#E2E2F0" height="37.2813" rx="2.5" ry="2.5" style="stroke:#181818;stroke-width:0.5;" width="120" x="678" y="608.7813"/><text fill="#000000" font-family="sans-serif" font-size="20" lengthAdjust="spacing" textLength="106" x="685" y="634.3457">:Controller</text><rect fill="#E2E2F0" height="37.2813" rx="2.5" ry="2.5" style="stroke:#181818;stroke-width:0.5;" width="176" x="997" y="56.5625"/><text fill="#000000" font-family="sans-serif" font-size="20" lengthAdjust="spacing" textLength="162" x="1004" y="82.127">:RequestService</text><rect fill="#E2E2F0" height="37.2813" rx="2.5" ry="2.5" style="stroke:#181818;stroke-width:0.5;" width="176" x="997" y="608.7813"/><text fill="#000000" font-family="sans-serif" font-size="20" lengthAdjust="spacing" textLength="162" x="1004" y="634.3457">:RequestService</text><rect fill="#E2E2F0" height="37.2813" rx="2.5" ry="2.5" style="stroke:#181818;stroke-width:0.5;" width="139" x="1344.5" y="56.5625"/><text fill="#000000" font-family="sans-serif" font-size="20" lengthAdjust="spacing" textLength="125" x="1351.5" y="82.127">:UserService</text><rect fill="#E2E2F0" height="37.2813" rx="2.5" ry="2.5" style="stroke:#181818;stroke-width:0.5;" width="139" x="1344.5" y="608.7813"/><text fill="#000000" font-family="sans-serif" font-size="20" lengthAdjust="spacing" textLength="125" x="1351.5" y="634.3457">:UserService</text><rect fill="#E2E2F0" height="37.2813" rx="2.5" ry="2.5" style="stroke:#181818;stroke-width:0.5;" width="72" x="1493.5" y="56.5625"/><text fill="#000000" font-family="sans-serif" font-size="20" lengthAdjust="spacing" textLength="58" x="1500.5" y="82.127">:HTTP</text><rect fill="#E2E2F0" height="37.2813" rx="2.5" ry="2.5" style="stroke:#181818;stroke-width:0.5;" width="72" x="1493.5" y="608.7813"/><text fill="#000000" font-family="sans-serif" font-size="20" lengthAdjust="spacing" textLength="58" x="1500.5" y="634.3457">:HTTP</text><rect fill="#E2E2F0" height="37.2813" rx="2.5" ry="2.5" style="stroke:#181818;stroke-width:0.5;" width="120" x="1951" y="56.5625"/><text fill="#000000" font-family="sans-serif" font-size="20" lengthAdjust="spacing" textLength="106" x="1958" y="82.127">:Controller</text><rect fill="#E2E2F0" height="37.2813" rx="2.5" ry="2.5" style="stroke:#181818;stroke-width:0.5;" width="120" x="1951" y="608.7813"/><text fill="#000000" font-family="sans-serif" font-size="20" lengthAdjust="spacing" textLength="106" x="1958" y="634.3457">:Controller</text><rect fill="#FFFFFF" height="466.6563" style="stroke:#181818;stroke-width:1.0;" width="10" x="499" y="134.125"/><rect fill="#FFFFFF" height="383.0938" style="stroke:#181818;stroke-width:1.0;" width="10" x="733" y="171.4063"/><rect fill="#FFFFFF" height="308.5313" style="stroke:#181818;stroke-width:1.0;" width="10" x="1080" y="208.6875"/><rect fill="#FFFFFF" height="37.2813" style="stroke:#181818;stroke-width:1.0;" width="10" x="1409" y="435.6563"/><rect fill="#FFFFFF" height="111.8438" style="stroke:#181818;stroke-width:1.0;" width="10" x="1524.5" y="245.9688"/><rect fill="#FFFFFF" height="37.2813" style="stroke:#181818;stroke-width:1.0;" width="10" x="2006" y="283.25"/><ellipse cx="4.5" cy="133.375" fill="none" rx="4" ry="4" style="stroke:#181818;stroke-width:1.5;"/><polygon fill="#181818" points="487,130.125,497,134.125,487,138.125,491,134.125" style="stroke:#181818;stroke-width:1.0;"/><line style="stroke:#181818;stroke-width:1.0;" x1="9" x2="493" y1="134.125" y2="134.125"/><text fill="#000000" font-family="sans-serif" font-size="20" font-weight="bold" lengthAdjust="spacing" textLength="14" x="12" y="127.4082">1</text><text fill="#000000" font-family="sans-serif" font-size="20" lengthAdjust="spacing" textLength="454" x="30" y="127.4082">GET /task-requests?filter=state&amp;value=value</text><polygon fill="#181818" points="721,167.4063,731,171.4063,721,175.4063,725,171.4063" style="stroke:#181818;stroke-width:1.0;"/><line style="stroke:#181818;stroke-width:1.0;" x1="509" x2="727" y1="171.4063" y2="171.4063"/><text fill="#000000" font-family="sans-serif" font-size="20" font-weight="bold" lengthAdjust="spacing" textLength="14" x="516" y="164.6895">2</text><text fill="#000000" font-family="sans-serif" font-size="20" lengthAdjust="spacing" textLength="187" x="534" y="164.6895">getTaskRequests()</text><polygon fill="#181818" points="1068,204.6875,1078,208.6875,1068,212.6875,1072,208.6875" style="stroke:#181818;stroke-width:1.0;"/><line style="stroke:#181818;stroke-width:1.0;" x1="743" x2="1074" y1="208.6875" y2="208.6875"/><text fill="#000000" font-family="sans-serif" font-size="20" font-weight="bold" lengthAdjust="spacing" textLength="14" x="750" y="201.9707">3</text><text fill="#000000" font-family="sans-serif" font-size="20" lengthAdjust="spacing" textLength="300" x="768" y="201.9707">getTaskRequests(filter, value)</text><polygon fill="#181818" points="1512.5,241.9688,1522.5,245.9688,1512.5,249.9688,1516.5,245.9688" style="stroke:#181818;stroke-width:1.0;"/><line style="stroke:#181818;stroke-width:1.0;" x1="1090" x2="1518.5" y1="245.9688" y2="245.9688"/><text fill="#000000" font-family="sans-serif" font-size="20" font-weight="bold" lengthAdjust="spacing" textLength="14" x="1097" y="239.252">4</text><text fill="#000000" font-family="sans-serif" font-size="20" lengthAdjust="spacing" textLength="300" x="1115" y="239.252">getTaskRequests(filter, value)</text><polygon fill="#181818" points="1994,279.25,2004,283.25,1994,287.25,1998,283.25" style="stroke:#181818;stroke-width:1.0;"/><line style="stroke:#181818;stroke-width:1.0;" x1="1534.5" x2="2000" y1="283.25" y2="283.25"/><text fill="#000000" font-family="sans-serif" font-size="20" font-weight="bold" lengthAdjust="spacing" textLength="14" x="1541.5" y="276.5332">5</text><text fill="#000000" font-family="sans-serif" font-size="20" lengthAdjust="spacing" textLength="401" x="1559.5" y="276.5332">GET /Request?filter=state&amp;value=value</text><polygon fill="#181818" points="1545.5,316.5313,1535.5,320.5313,1545.5,324.5313,1541.5,320.5313" style="stroke:#181818;stroke-width:1.0;"/><line style="stroke:#181818;stroke-width:1.0;stroke-dasharray:2.0,2.0;" x1="1539.5" x2="2010" y1="320.5313" y2="320.5313"/><text fill="#000000" font-family="sans-serif" font-size="20" font-weight="bold" lengthAdjust="spacing" textLength="14" x="1551.5" y="313.8145">6</text><text fill="#000000" font-family="sans-serif" font-size="20" lengthAdjust="spacing" textLength="90" x="1569.5" y="313.8145">200 (OK)</text><polygon fill="#181818" points="1101,353.8125,1091,357.8125,1101,361.8125,1097,357.8125" style="stroke:#181818;stroke-width:1.0;"/><line style="stroke:#181818;stroke-width:1.0;stroke-dasharray:2.0,2.0;" x1="1095" x2="1528.5" y1="357.8125" y2="357.8125"/><text fill="#000000" font-family="sans-serif" font-size="20" font-weight="bold" lengthAdjust="spacing" textLength="14" x="1107" y="351.0957">7</text><text fill="#000000" font-family="sans-serif" font-size="20" lengthAdjust="spacing" textLength="103" x="1125" y="351.0957">reqDtoList</text><path d="M987,372.8125 L1081,372.8125 L1081,388.0938 L1071,398.0938 L987,398.0938 L987,372.8125 " fill="#EEEEEE" style="stroke:#000000;stroke-width:1.5;"/><rect fill="none" height="108.125" style="stroke:#000000;stroke-width:1.5;" width="506.5" x="987" y="372.8125"/><text fill="#000000" font-family="sans-serif" font-size="20" font-weight="bold" lengthAdjust="spacing" textLength="49" x="1002" y="392.377">loop</text><text fill="#000000" font-family="sans-serif" font-size="20" font-weight="bold" lengthAdjust="spacing" textLength="363" x="1096" y="393.377">[for each request in reqDtoList]</text><polygon fill="#181818" points="1397,431.6563,1407,435.6563,1397,439.6563,1401,435.6563" style="stroke:#181818;stroke-width:1.0;"/><line style="stroke:#181818;stroke-width:1.0;" x1="1090" x2="1403" y1="435.6563" y2="435.6563"/><text fill="#000000" font-family="sans-serif" font-size="20" font-weight="bold" lengthAdjust="spacing" textLength="14" x="1097" y="428.9395">8</text><text fill="#000000" font-family="sans-serif" font-size="20" lengthAdjust="spacing" textLength="282" x="1115" y="428.9395">getUserById(request.userId)</text><polygon fill="#181818" points="1101,468.9375,1091,472.9375,1101,476.9375,1097,472.9375" style="stroke:#181818;stroke-width:1.0;"/><line style="stroke:#181818;stroke-width:1.0;stroke-dasharray:2.0,2.0;" x1="1095" x2="1413" y1="472.9375" y2="472.9375"/><text fill="#000000" font-family="sans-serif" font-size="20" font-weight="bold" lengthAdjust="spacing" textLength="14" x="1107" y="466.2207">9</text><text fill="#000000" font-family="sans-serif" font-size="20" lengthAdjust="spacing" textLength="43" x="1125" y="466.2207">user</text><polygon fill="#181818" points="754,513.2188,744,517.2188,754,521.2188,750,517.2188" style="stroke:#181818;stroke-width:1.0;"/><line style="stroke:#181818;stroke-width:1.0;stroke-dasharray:2.0,2.0;" x1="748" x2="1084" y1="517.2188" y2="517.2188"/><text fill="#000000" font-family="sans-serif" font-size="20" font-weight="bold" lengthAdjust="spacing" textLength="28" x="760" y="510.502">10</text><text fill="#000000" font-family="sans-serif" font-size="20" lengthAdjust="spacing" textLength="103" x="792" y="510.502">reqDtoList</text><polygon fill="#181818" points="520,550.5,510,554.5,520,558.5,516,554.5" style="stroke:#181818;stroke-width:1.0;"/><line style="stroke:#181818;stroke-width:1.0;stroke-dasharray:2.0,2.0;" x1="514" x2="737" y1="554.5" y2="554.5"/><text fill="#000000" font-family="sans-serif" font-size="20" font-weight="bold" lengthAdjust="spacing" textLength="28" x="526" y="547.7832">11</text><text fill="#000000" font-family="sans-serif" font-size="20" lengthAdjust="spacing" textLength="103" x="558" y="547.7832">reqDtoList</text><polygon fill="#181818" points="11,587.7813,1,591.7813,11,595.7813,7,591.7813" style="stroke:#181818;stroke-width:1.0;"/><line style="stroke:#181818;stroke-width:1.0;stroke-dasharray:2.0,2.0;" x1="5" x2="1528.5" y1="591.7813" y2="591.7813"/><text fill="#000000" font-family="sans-serif" font-size="20" font-weight="bold" lengthAdjust="spacing" textLength="28" x="17" y="585.0645">12</text><text fill="#000000" font-family="sans-serif" font-size="20" lengthAdjust="spacing" textLength="90" x="49" y="585.0645">200 (OK)</text><!--SRC=[ZPBHQzim4CRVxwyuN1W9p5ieUmgfonftMrb2H-8C2djHxKigeaYP96VT_lh9aLohSJVwOepq_Rwx-qvco-MUQROJgjnIXHMjMIti9oNjalyXF1y1gwsIzUwUD9XMZRdN5VHeFmg-aJkITZ8ftPTqbg7_0RXNZvYuSsV7k2IDW-c7OPRzaFCSvqoo3JLWWXrwDkER1tj7GgXVWEYgMLxoFPCM5xUhuXgPmMIyKBMbvEH-MYncypptYgahgPKGf4zbo-_J9zM2VjPax9BqWPSzmrKiNHdI_z1zAOflNjJy9K2oGZSv_7_-WfcjwOz-9MewyP_dHJDRRp34g1HSgZGB6OtnytM1xwsha6e_ehbSS-7AN1ZBBBqvC5VculW5Lbf-S8SU1c_XlDeynxWXstGRqZA3OSS44K2hTc28hS_v5jxYiMvauW6003gBOwIlDsZa04V8mMrU8OP0loA000Aq3cdNolbeX8FRhqEegA_tbUFHNUovLJDkR0puFeLIUrmhZUxY0SE2aCiOwg9OnN4sh_3gzqqr2DIxsXtSL54KGGujzgohHXttqugRPzHqrQtWsVvV7gRTsjFce_VtCj4-bacQzcA5lm00]--></g></svg>