<?xml version="1.0" encoding="UTF-8" standalone="no"?><svg xmlns="http://www.w3.org/2000/svg" xmlns:xlink="http://www.w3.org/1999/xlink" contentStyleType="text/css" height="769px" preserveAspectRatio="none" style="width:500px;height:769px;background:#FFFFFF;" version="1.1" viewBox="0 0 500 769" width="500px" zoomAndPan="magnify"><defs/><g><!--MD5=[2e6c4d40f7a36dc343c195464ea87277]
cluster MDM--><g id="cluster_MDM"><rect fill="none" height="756.54" rx="2.5" ry="2.5" style="stroke:#181818;stroke-width:1.0;" width="487" x="7" y="7"/><rect fill="none" height="10" style="stroke:#181818;stroke-width:1.0;" width="15" x="474" y="12"/><rect fill="none" height="2" style="stroke:#181818;stroke-width:1.0;" width="4" x="472" y="14"/><rect fill="none" height="2" style="stroke:#181818;stroke-width:1.0;" width="4" x="472" y="18"/><text fill="#000000" font-family="sans-serif" font-size="14" font-style="italic" lengthAdjust="spacing" textLength="84" x="208.5" y="34.9659">«component»</text><text fill="#000000" font-family="sans-serif" font-size="14" font-style="italic" lengthAdjust="spacing" textLength="102" x="199.5" y="54.0339">«container (C4)»</text><text fill="#000000" font-family="sans-serif" font-size="14" font-weight="bold" lengthAdjust="spacing" textLength="119" x="191" y="73.1018">MD Management</text></g><!--MD5=[517f062989df7f7a9c732ce4e07c7d03]
cluster I--><g id="cluster_I"><path d="M57.5,99 L155.5,99 A3.75,3.75 0 0 1 158,101.5 L165,124.0679 L317.5,124.0679 A2.5,2.5 0 0 1 320,126.5679 L320,224.63 A2.5,2.5 0 0 1 317.5,227.13 L57.5,227.13 A2.5,2.5 0 0 1 55,224.63 L55,101.5 A2.5,2.5 0 0 1 57.5,99 " fill="none" style="stroke:#000000;stroke-width:1.5;"/><line style="stroke:#000000;stroke-width:1.5;" x1="55" x2="165" y1="124.0679" y2="124.0679"/><text fill="#000000" font-family="sans-serif" font-size="14" font-weight="bold" lengthAdjust="spacing" textLength="97" x="59" y="115.9659">Infrastructure</text></g><!--MD5=[3db579321d9e1495f4843472289929e6]
cluster IA--><g id="cluster_IA"><path d="M43.5,267.13 L173.5,267.13 A3.75,3.75 0 0 1 176,269.63 L183,292.1979 L338.5,292.1979 A2.5,2.5 0 0 1 341,294.6979 L341,392.77 A2.5,2.5 0 0 1 338.5,395.27 L43.5,395.27 A2.5,2.5 0 0 1 41,392.77 L41,269.63 A2.5,2.5 0 0 1 43.5,267.13 " fill="none" style="stroke:#000000;stroke-width:1.5;"/><line style="stroke:#000000;stroke-width:1.5;" x1="41" x2="183" y1="292.1979" y2="292.1979"/><text fill="#000000" font-family="sans-serif" font-size="14" font-weight="bold" lengthAdjust="spacing" textLength="129" x="45" y="284.0959">Interface Adapters</text></g><!--MD5=[bbdbef8946cc09792e5d983b4d972061]
cluster UC--><g id="cluster_UC"><path d="M43.5,435.27 L311.5,435.27 A3.75,3.75 0 0 1 314,437.77 L321,460.3379 L321.5,460.3379 A2.5,2.5 0 0 1 324,462.8379 L324,560.9 A2.5,2.5 0 0 1 321.5,563.4 L43.5,563.4 A2.5,2.5 0 0 1 41,560.9 L41,437.77 A2.5,2.5 0 0 1 43.5,435.27 " fill="none" style="stroke:#000000;stroke-width:1.5;"/><line style="stroke:#000000;stroke-width:1.5;" x1="41" x2="321" y1="460.3379" y2="460.3379"/><text fill="#000000" font-family="sans-serif" font-size="14" font-weight="bold" lengthAdjust="spacing" textLength="267" x="45" y="452.2359">Application Services/Use Case Services</text></g><!--MD5=[ae8e8d8430e8f8d0f717af7422021a23]
cluster E--><g id="cluster_E"><path d="M41.5,603.4 L192.5,603.4 A3.75,3.75 0 0 1 195,605.9 L202,628.4679 L459.5,628.4679 A2.5,2.5 0 0 1 462,630.9679 L462,729.04 A2.5,2.5 0 0 1 459.5,731.54 L41.5,731.54 A2.5,2.5 0 0 1 39,729.04 L39,605.9 A2.5,2.5 0 0 1 41.5,603.4 " fill="none" style="stroke:#000000;stroke-width:1.5;"/><line style="stroke:#000000;stroke-width:1.5;" x1="39" x2="202" y1="628.4679" y2="628.4679"/><text fill="#000000" font-family="sans-serif" font-size="14" font-weight="bold" lengthAdjust="spacing" textLength="150" x="43" y="620.3659">Entities/Core/Domain</text></g><path d="M202,145 L280,145 A3.75,3.75 0 0 1 282.5,147.5 L289.5,170.0679 L294,170.0679 A2.5,2.5 0 0 1 296.5,172.5679 L296.5,200.6358 A2.5,2.5 0 0 1 294,203.1358 L202,203.1358 A2.5,2.5 0 0 1 199.5,200.6358 L199.5,147.5 A2.5,2.5 0 0 1 202,145 " fill="#F1F1F1" style="stroke:#181818;stroke-width:0.5;"/><line style="stroke:#181818;stroke-width:0.5;" x1="199.5" x2="289.5" y1="170.0679" y2="170.0679"/><text fill="#000000" font-family="sans-serif" font-size="14" lengthAdjust="spacing" textLength="77" x="203.5" y="161.9659">Persistence</text><path d="M100.5,145 L147.5,145 A3.75,3.75 0 0 1 150,147.5 L157,170.0679 L161.5,170.0679 A2.5,2.5 0 0 1 164,172.5679 L164,200.6358 A2.5,2.5 0 0 1 161.5,203.1358 L100.5,203.1358 A2.5,2.5 0 0 1 98,200.6358 L98,147.5 A2.5,2.5 0 0 1 100.5,145 " fill="#F1F1F1" style="stroke:#181818;stroke-width:0.5;"/><line style="stroke:#181818;stroke-width:0.5;" x1="98" x2="157" y1="170.0679" y2="170.0679"/><text fill="#000000" font-family="sans-serif" font-size="14" lengthAdjust="spacing" textLength="46" x="102" y="161.9659">Routes</text><path d="M86.5,313.13 L161.5,313.13 A3.75,3.75 0 0 1 164,315.63 L171,338.1979 L175.5,338.1979 A2.5,2.5 0 0 1 178,340.6979 L178,368.7658 A2.5,2.5 0 0 1 175.5,371.2658 L86.5,371.2658 A2.5,2.5 0 0 1 84,368.7658 L84,315.63 A2.5,2.5 0 0 1 86.5,313.13 " fill="#F1F1F1" style="stroke:#181818;stroke-width:0.5;"/><line style="stroke:#181818;stroke-width:0.5;" x1="84" x2="171" y1="338.1979" y2="338.1979"/><text fill="#000000" font-family="sans-serif" font-size="14" lengthAdjust="spacing" textLength="74" x="88" y="330.0959">Controllers</text><path d="M216,313.13 L300,313.13 A3.75,3.75 0 0 1 302.5,315.63 L309.5,338.1979 L314,338.1979 A2.5,2.5 0 0 1 316.5,340.6979 L316.5,368.7658 A2.5,2.5 0 0 1 314,371.2658 L216,371.2658 A2.5,2.5 0 0 1 213.5,368.7658 L213.5,315.63 A2.5,2.5 0 0 1 216,313.13 " fill="#F1F1F1" style="stroke:#181818;stroke-width:0.5;"/><line style="stroke:#181818;stroke-width:0.5;" x1="213.5" x2="309.5" y1="338.1979" y2="338.1979"/><text fill="#000000" font-family="sans-serif" font-size="14" lengthAdjust="spacing" textLength="83" x="217.5" y="330.0959">Repositories</text><path d="M196.5,481.27 L283.5,481.27 A3.75,3.75 0 0 1 286,483.77 L293,506.3379 L297.5,506.3379 A2.5,2.5 0 0 1 300,508.8379 L300,536.9058 A2.5,2.5 0 0 1 297.5,539.4058 L196.5,539.4058 A2.5,2.5 0 0 1 194,536.9058 L194,483.77 A2.5,2.5 0 0 1 196.5,481.27 " fill="#F1F1F1" style="stroke:#181818;stroke-width:0.5;"/><line style="stroke:#181818;stroke-width:0.5;" x1="194" x2="293" y1="506.3379" y2="506.3379"/><text fill="#000000" font-family="sans-serif" font-size="14" lengthAdjust="spacing" textLength="86" x="198" y="498.2359">App Services</text><path d="M342.5,649.4 L421.5,649.4 A3.75,3.75 0 0 1 424,651.9 L431,674.4679 L435.5,674.4679 A2.5,2.5 0 0 1 438,676.9679 L438,705.0358 A2.5,2.5 0 0 1 435.5,707.5358 L342.5,707.5358 A2.5,2.5 0 0 1 340,705.0358 L340,651.9 A2.5,2.5 0 0 1 342.5,649.4 " fill="#F1F1F1" style="stroke:#181818;stroke-width:0.5;"/><line style="stroke:#181818;stroke-width:0.5;" x1="340" x2="431" y1="674.4679" y2="674.4679"/><text fill="#000000" font-family="sans-serif" font-size="14" lengthAdjust="spacing" textLength="78" x="344" y="666.3659">Aggregates</text><path d="M195.5,649.4 L288.5,649.4 A3.75,3.75 0 0 1 291,651.9 L298,674.4679 L302.5,674.4679 A2.5,2.5 0 0 1 305,676.9679 L305,705.0358 A2.5,2.5 0 0 1 302.5,707.5358 L195.5,707.5358 A2.5,2.5 0 0 1 193,705.0358 L193,651.9 A2.5,2.5 0 0 1 195.5,649.4 " fill="#F1F1F1" style="stroke:#181818;stroke-width:0.5;"/><line style="stroke:#181818;stroke-width:0.5;" x1="193" x2="298" y1="674.4679" y2="674.4679"/><text fill="#000000" font-family="sans-serif" font-size="14" lengthAdjust="spacing" textLength="92" x="197" y="666.3659">Value Objects</text><path d="M85,649.4 L141,649.4 A3.75,3.75 0 0 1 143.5,651.9 L150.5,674.4679 L155,674.4679 A2.5,2.5 0 0 1 157.5,676.9679 L157.5,705.0358 A2.5,2.5 0 0 1 155,707.5358 L85,707.5358 A2.5,2.5 0 0 1 82.5,705.0358 L82.5,651.9 A2.5,2.5 0 0 1 85,649.4 " fill="#F1F1F1" style="stroke:#181818;stroke-width:0.5;"/><line style="stroke:#181818;stroke-width:0.5;" x1="82.5" x2="150.5" y1="674.4679" y2="674.4679"/><text fill="#000000" font-family="sans-serif" font-size="14" lengthAdjust="spacing" textLength="55" x="86.5" y="666.3659">Services</text><!--MD5=[bf9984c4d206b86a4591f2d15f0363a6]
link ROUTE to CTRL--><g id="link_ROUTE_CTRL"><path d="M131,203.62 C131,232.12 131,275.94 131,306.44 " fill="none" id="ROUTE-to-CTRL" style="stroke:#181818;stroke-width:1.0;stroke-dasharray:7.0,7.0;"/><polygon fill="#181818" points="131,311.22,135,302.22,131,306.22,127,302.22,131,311.22" style="stroke:#181818;stroke-width:1.0;"/></g><!--MD5=[1df9aabee0d696bf16c197f2040b6524]
link REPO to PERS--><g id="link_REPO_PERS"><path d="M262.09,312.74 C259.17,284.27 254.69,240.46 251.57,209.93 " fill="none" id="REPO-to-PERS" style="stroke:#181818;stroke-width:1.0;stroke-dasharray:7.0,7.0;"/><polygon fill="#181818" points="251.08,205.13,247.998,214.4842,251.5789,210.105,255.9581,213.6859,251.08,205.13" style="stroke:#181818;stroke-width:1.0;"/></g><!--MD5=[4326a0c38aced26f03b2790dcbc514c8]
link CTRL to APP--><g id="link_CTRL_APP"><path d="M154.07,371.61 C165.25,385.7 178.67,403.13 190,419.27 C202.81,437.52 216.2,458.56 226.77,475.7 " fill="none" id="CTRL-to-APP" style="stroke:#181818;stroke-width:1.0;stroke-dasharray:7.0,7.0;"/><polygon fill="#181818" points="229.17,479.6,227.8689,469.8375,226.5535,475.3393,221.0517,474.0239,229.17,479.6" style="stroke:#181818;stroke-width:1.0;"/></g><!--MD5=[295860b8112fcbb19f6ac2ccd3d89ae0]
link REPO to APP--><g id="link_REPO_APP"><path d="M261.91,371.76 C258.82,400.26 254.07,444.07 250.77,474.58 " fill="none" id="REPO-to-APP" style="stroke:#181818;stroke-width:1.0;stroke-dasharray:7.0,7.0;"/><polygon fill="#181818" points="250.25,479.37,255.1791,470.8433,250.7786,474.398,247.224,469.9975,250.25,479.37" style="stroke:#181818;stroke-width:1.0;"/></g><!--MD5=[68c03a72517df2bed2fe18df5082b734]
link APP to AGG--><g id="link_APP_AGG"><path d="M277.31,539.59 C291.69,553.51 308.78,570.82 323,587.4 C338.32,605.28 353.96,626.46 366.16,643.79 " fill="none" id="APP-to-AGG" style="stroke:#181818;stroke-width:1.0;stroke-dasharray:7.0,7.0;"/><polygon fill="#181818" points="368.97,647.8,367.0835,638.1335,366.1017,643.7045,360.5307,642.7227,368.97,647.8" style="stroke:#181818;stroke-width:1.0;"/></g><!--MD5=[cf054112c1998c4c6b8dfd93503e22f6]
link APP to VO--><g id="link_APP_VO"><path d="M247.34,539.9 C247.69,568.39 248.21,612.21 248.58,642.71 " fill="none" id="APP-to-VO" style="stroke:#181818;stroke-width:1.0;stroke-dasharray:7.0,7.0;"/><polygon fill="#181818" points="248.64,647.49,252.511,638.4338,248.5686,642.4905,244.5118,638.5481,248.64,647.49" style="stroke:#181818;stroke-width:1.0;"/></g><!--MD5=[0ff7f62767112e487d9c378b2aa72069]
link APP to SRV--><g id="link_APP_SRV"><path d="M227.22,539.69 C217.11,552.84 204,568.04 190,579.4 C184.13,584.17 180.5,582.22 175,587.4 C158.21,603.24 144.63,625.3 135.16,643.62 " fill="none" id="APP-to-SRV" style="stroke:#181818;stroke-width:1.0;stroke-dasharray:7.0,7.0;"/><polygon fill="#181818" points="133.04,647.83,140.6586,641.5885,135.2875,643.3636,133.5124,637.9925,133.04,647.83" style="stroke:#181818;stroke-width:1.0;"/></g><!--MD5=[a17b0b6b83c3e47e08c79ef59620d881]
link I to IA--><g id="link_I_IA"><path d="M58.5649,227.6836 C58.54,227.9784 58.5151,228.2738 58.4902,228.5698 C57.692,238.0419 56.8441,248.1038 55.9963,258.165 C55.7843,260.6803 55.5723,263.1956 55.3612,265.7016 C55.3348,266.0148 55.3084,266.328 55.282,266.6409 C55.2688,266.7974 55.2557,266.9538 55.2425,267.1102 " fill="none" id="I-to-IA" style="stroke:#181818;stroke-width:1.0;stroke-dasharray:7.0,7.0;"/><polygon fill="#181818" points="55.2425,267.1102,59.9841,258.4778,55.6623,262.1278,52.0123,257.8061,55.2425,267.1102" style="stroke:#181818;stroke-width:1.0;"/></g><!--MD5=[cbf0af8dab16c50daa6fc97741de548f]
link IA to UC--><g id="link_IA_UC"><path d="M49,395.8141 C49,396.1089 49,396.4044 49,396.7004 C49,406.1726 49,416.2347 49,426.2963 C49,428.8116 49,431.327 49,433.8331 C49,434.1464 49,434.4595 49,434.7724 C49,434.9289 49,435.0853 49,435.2417 " fill="none" id="IA-to-UC" style="stroke:#181818;stroke-width:1.0;stroke-dasharray:7.0,7.0;"/><polygon fill="#181818" points="49,435.2417,53,426.2417,49,430.2417,45,426.2417,49,435.2417" style="stroke:#181818;stroke-width:1.0;"/></g><!--MD5=[1141b0c5f059e05ab1dff2627d08ef4a]
link UC to E--><g id="link_UC_E"><path d="M48.3673,563.9541 C48.3638,564.2489 48.3602,564.5444 48.3566,564.8404 C48.2425,574.3126 48.1213,584.3747 48,594.4363 C47.9697,596.9516 47.9394,599.467 47.9092,601.9731 C47.9054,602.2864 47.9016,602.5995 47.8979,602.9124 C47.896,603.0689 47.8941,603.2253 47.8922,603.3817 " fill="none" id="UC-to-E" style="stroke:#181818;stroke-width:1.0;stroke-dasharray:7.0,7.0;"/><polygon fill="#181818" points="47.8922,603.3817,52.0004,594.4306,47.9524,598.3821,44.0009,594.3342,47.8922,603.3817" style="stroke:#181818;stroke-width:1.0;"/></g><!--MD5=[5f353337cb9c00c3f2c99ecbb44d4e59]
@startuml implementation-view

component "MD Management" as MDM <<component>> <<container (C4)>> {
  folder Infrastructure as I {
    package Persistence as PERS {}
    package Routes as ROUTE {}
  }

  folder "Interface Adapters" as IA {
    package Controllers as CTRL {}
    package Repositories as REPO {}
  }

  folder "Application Services/Use Case Services" as UC {
    package "App Services" as APP {}
  }

  folder "Entities/Core/Domain" as E {
    package "Aggregates" as AGG {}
    package "Value Objects" as VO {}
    package "Services" as SRV {}
  }
}

ROUTE ..> CTRL
REPO ..> PERS
CTRL ..> APP
REPO ..> APP
APP ..> AGG
APP ..> VO
APP ..> SRV

I ..> IA
IA ..> UC
UC ..> E

@enduml

PlantUML version 1.2022.7(Mon Aug 22 18:01:30 WEST 2022)
(GPL source distribution)
Java Runtime: OpenJDK Runtime Environment
JVM: OpenJDK 64-Bit Server VM
Default Encoding: UTF-8
Language: en
Country: GB
--></g></svg>