<?xml version="1.0" encoding="UTF-8" standalone="no"?><svg xmlns="http://www.w3.org/2000/svg" xmlns:xlink="http://www.w3.org/1999/xlink" contentStyleType="text/css" height="889px" preserveAspectRatio="none" style="width:585px;height:889px;background:#FFFFFF;" version="1.1" viewBox="0 0 585 889" width="585px" zoomAndPan="magnify"><defs/><g><!--cluster MDM--><g id="cluster_MDM"><rect fill="none" height="876" rx="2.5" ry="2.5" style="stroke:#181818;stroke-width:1.0;" width="572" x="7" y="7"/><rect fill="none" height="10" style="stroke:#181818;stroke-width:1.0;" width="15" x="559" y="12"/><rect fill="none" height="2" style="stroke:#181818;stroke-width:1.0;" width="4" x="557" y="14"/><rect fill="none" height="2" style="stroke:#181818;stroke-width:1.0;" width="4" x="557" y="18"/><text fill="#000000" font-family="sans-serif" font-size="20" font-style="italic" lengthAdjust="spacing" textLength="122" x="232" y="41.38">«component»</text><text fill="#000000" font-family="sans-serif" font-size="20" font-style="italic" lengthAdjust="spacing" textLength="122" x="232" y="68.62">«system (C4)»</text><text fill="#000000" font-family="sans-serif" font-size="20" font-weight="bold" lengthAdjust="spacing" textLength="169.5" x="208.25" y="95.8599">MD Management</text></g><!--cluster I--><g id="cluster_I"><path d="M61.5,123 L201.25,123 A3.75,3.75 0 0 1 203.75,125.5 L210.75,156.24 L370.5,156.24 A2.5,2.5 0 0 1 373,158.74 L373,272.5 A2.5,2.5 0 0 1 370.5,275 L61.5,275 A2.5,2.5 0 0 1 59,272.5 L59,125.5 A2.5,2.5 0 0 1 61.5,123 " fill="none" style="stroke:#000000;stroke-width:1.5;"/><line style="stroke:#000000;stroke-width:1.5;" x1="59" x2="210.75" y1="156.24" y2="156.24"/><text fill="#000000" font-family="sans-serif" font-size="20" font-weight="bold" lengthAdjust="spacing" textLength="138.75" x="63" y="146.38">Infrastructure</text></g><!--cluster IA--><g id="cluster_IA"><path d="M41.5,315 L226.125,315 A3.75,3.75 0 0 1 228.625,317.5 L235.625,348.24 L397.5,348.24 A2.5,2.5 0 0 1 400,350.74 L400,464.5 A2.5,2.5 0 0 1 397.5,467 L41.5,467 A2.5,2.5 0 0 1 39,464.5 L39,317.5 A2.5,2.5 0 0 1 41.5,315 " fill="none" style="stroke:#000000;stroke-width:1.5;"/><line style="stroke:#000000;stroke-width:1.5;" x1="39" x2="235.625" y1="348.24" y2="348.24"/><text fill="#000000" font-family="sans-serif" font-size="20" font-weight="bold" lengthAdjust="spacing" textLength="183.625" x="43" y="338.38">Interface Adapters</text></g><!--cluster UC--><g id="cluster_UC"><path d="M41.5,507 L423.375,507 A3.75,3.75 0 0 1 425.875,509.5 L432.875,540.24 L432.5,540.24 A2.5,2.5 0 0 1 435,542.74 L435,656.5 A2.5,2.5 0 0 1 432.5,659 L41.5,659 A2.5,2.5 0 0 1 39,656.5 L39,509.5 A2.5,2.5 0 0 1 41.5,507 " fill="none" style="stroke:#000000;stroke-width:1.5;"/><line style="stroke:#000000;stroke-width:1.5;" x1="39" x2="432.875" y1="540.24" y2="540.24"/><text fill="#000000" font-family="sans-serif" font-size="20" font-weight="bold" lengthAdjust="spacing" textLength="380.875" x="43" y="530.38">Application Services/Use Case Services</text></g><!--cluster E--><g id="cluster_E"><path d="M41.5,699 L255,699 A3.75,3.75 0 0 1 257.5,701.5 L264.5,732.24 L544.5,732.24 A2.5,2.5 0 0 1 547,734.74 L547,848.5 A2.5,2.5 0 0 1 544.5,851 L41.5,851 A2.5,2.5 0 0 1 39,848.5 L39,701.5 A2.5,2.5 0 0 1 41.5,699 " fill="none" style="stroke:#000000;stroke-width:1.5;"/><line style="stroke:#000000;stroke-width:1.5;" x1="39" x2="264.5" y1="732.24" y2="732.24"/><text fill="#000000" font-family="sans-serif" font-size="20" font-weight="bold" lengthAdjust="spacing" textLength="212.5" x="43" y="722.38">Entities/Core/Domain</text></g><path d="M224,177 L332,177 A3.75,3.75 0 0 1 334.5,179.5 L341.5,210.24 L346,210.24 A2.5,2.5 0 0 1 348.5,212.74 L348.5,248.9799 A2.5,2.5 0 0 1 346,251.4799 L224,251.4799 A2.5,2.5 0 0 1 221.5,248.9799 L221.5,179.5 A2.5,2.5 0 0 1 224,177 " fill="#F1F1F1" style="stroke:#181818;stroke-width:0.5;"/><line style="stroke:#181818;stroke-width:0.5;" x1="221.5" x2="341.5" y1="210.24" y2="210.24"/><text fill="#000000" font-family="sans-serif" font-size="20" lengthAdjust="spacing" textLength="107" x="225.5" y="200.38">Persistence</text><path d="M104.5,177 L169.5,177 A3.75,3.75 0 0 1 172,179.5 L179,210.24 L183.5,210.24 A2.5,2.5 0 0 1 186,212.74 L186,248.9799 A2.5,2.5 0 0 1 183.5,251.4799 L104.5,251.4799 A2.5,2.5 0 0 1 102,248.9799 L102,179.5 A2.5,2.5 0 0 1 104.5,177 " fill="#F1F1F1" style="stroke:#181818;stroke-width:0.5;"/><line style="stroke:#181818;stroke-width:0.5;" x1="102" x2="179" y1="210.24" y2="210.24"/><text fill="#000000" font-family="sans-serif" font-size="20" lengthAdjust="spacing" textLength="64" x="106" y="200.38">Routes</text><path d="M85,369 L189,369 A3.75,3.75 0 0 1 191.5,371.5 L198.5,402.24 L203,402.24 A2.5,2.5 0 0 1 205.5,404.74 L205.5,440.9799 A2.5,2.5 0 0 1 203,443.4799 L85,443.4799 A2.5,2.5 0 0 1 82.5,440.9799 L82.5,371.5 A2.5,2.5 0 0 1 85,369 " fill="#F1F1F1" style="stroke:#181818;stroke-width:0.5;"/><line style="stroke:#181818;stroke-width:0.5;" x1="82.5" x2="198.5" y1="402.24" y2="402.24"/><text fill="#000000" font-family="sans-serif" font-size="20" lengthAdjust="spacing" textLength="103" x="86.5" y="392.38">Controllers</text><path d="M243,369 L359,369 A3.75,3.75 0 0 1 361.5,371.5 L368.5,402.24 L373,402.24 A2.5,2.5 0 0 1 375.5,404.74 L375.5,440.9799 A2.5,2.5 0 0 1 373,443.4799 L243,443.4799 A2.5,2.5 0 0 1 240.5,440.9799 L240.5,371.5 A2.5,2.5 0 0 1 243,369 " fill="#F1F1F1" style="stroke:#181818;stroke-width:0.5;"/><line style="stroke:#181818;stroke-width:0.5;" x1="240.5" x2="368.5" y1="402.24" y2="402.24"/><text fill="#000000" font-family="sans-serif" font-size="20" lengthAdjust="spacing" textLength="115" x="244.5" y="392.38">Repositories</text><path d="M220.5,561 L339.5,561 A3.75,3.75 0 0 1 342,563.5 L349,594.24 L353.5,594.24 A2.5,2.5 0 0 1 356,596.74 L356,632.9799 A2.5,2.5 0 0 1 353.5,635.4799 L220.5,635.4799 A2.5,2.5 0 0 1 218,632.9799 L218,563.5 A2.5,2.5 0 0 1 220.5,561 " fill="#F1F1F1" style="stroke:#181818;stroke-width:0.5;"/><line style="stroke:#181818;stroke-width:0.5;" x1="218" x2="349" y1="594.24" y2="594.24"/><text fill="#000000" font-family="sans-serif" font-size="20" lengthAdjust="spacing" textLength="118" x="222" y="584.38">App Services</text><path d="M398,753 L506,753 A3.75,3.75 0 0 1 508.5,755.5 L515.5,786.24 L520,786.24 A2.5,2.5 0 0 1 522.5,788.74 L522.5,824.9799 A2.5,2.5 0 0 1 520,827.4799 L398,827.4799 A2.5,2.5 0 0 1 395.5,824.9799 L395.5,755.5 A2.5,2.5 0 0 1 398,753 " fill="#F1F1F1" style="stroke:#181818;stroke-width:0.5;"/><line style="stroke:#181818;stroke-width:0.5;" x1="395.5" x2="515.5" y1="786.24" y2="786.24"/><text fill="#000000" font-family="sans-serif" font-size="20" lengthAdjust="spacing" textLength="107" x="399.5" y="776.38">Aggregates</text><path d="M216,753 L344,753 A3.75,3.75 0 0 1 346.5,755.5 L353.5,786.24 L358,786.24 A2.5,2.5 0 0 1 360.5,788.74 L360.5,824.9799 A2.5,2.5 0 0 1 358,827.4799 L216,827.4799 A2.5,2.5 0 0 1 213.5,824.9799 L213.5,755.5 A2.5,2.5 0 0 1 216,753 " fill="#F1F1F1" style="stroke:#181818;stroke-width:0.5;"/><line style="stroke:#181818;stroke-width:0.5;" x1="213.5" x2="353.5" y1="786.24" y2="786.24"/><text fill="#000000" font-family="sans-serif" font-size="20" lengthAdjust="spacing" textLength="127" x="217.5" y="776.38">Value Objects</text><path d="M84.5,753 L161.5,753 A3.75,3.75 0 0 1 164,755.5 L171,786.24 L175.5,786.24 A2.5,2.5 0 0 1 178,788.74 L178,824.9799 A2.5,2.5 0 0 1 175.5,827.4799 L84.5,827.4799 A2.5,2.5 0 0 1 82,824.9799 L82,755.5 A2.5,2.5 0 0 1 84.5,753 " fill="#F1F1F1" style="stroke:#181818;stroke-width:0.5;"/><line style="stroke:#181818;stroke-width:0.5;" x1="82" x2="171" y1="786.24" y2="786.24"/><text fill="#000000" font-family="sans-serif" font-size="20" lengthAdjust="spacing" textLength="76" x="86" y="776.38">Services</text><!--link ROUTE to CTRL--><g id="link_ROUTE_CTRL"><path d="M144,251.18 C144,282.78 144,328.68 144,362.11 " fill="none" id="ROUTE-to-CTRL" style="stroke:#181818;stroke-width:1.0;stroke-dasharray:7.0,7.0;"/><polygon fill="#181818" points="144,367.11,148,358.11,144,362.11,140,358.11,144,367.11" style="stroke:#181818;stroke-width:1.0;"/></g><!--link REPO to PERS--><g id="link_REPO_PERS"><path d="M303.6,368.63 C299.75,336.84 294.16,290.69 290.12,257.27 " fill="none" id="REPO-to-PERS" style="stroke:#181818;stroke-width:1.0;stroke-dasharray:7.0,7.0;"/><polygon fill="#181818" points="289.56,252.69,286.6704,262.1054,290.1608,257.6538,294.6125,261.1441,289.56,252.69" style="stroke:#181818;stroke-width:1.0;"/></g><!--link CTRL to APP--><g id="link_CTRL_APP"><path d="M175.41,443.21 C187.75,457.81 201.84,474.97 214,491 C229.74,511.75 246.29,535.59 259.64,555.39 " fill="none" id="CTRL-to-APP" style="stroke:#181818;stroke-width:1.0;stroke-dasharray:7.0,7.0;"/><polygon fill="#181818" points="262.29,559.35,260.6028,549.6467,259.5066,555.1963,253.957,554.1001,262.29,559.35" style="stroke:#181818;stroke-width:1.0;"/></g><!--link REPO to APP--><g id="link_REPO_APP"><path d="M304,443.18 C300.49,474.91 295.39,521.06 291.69,554.53 " fill="none" id="REPO-to-APP" style="stroke:#181818;stroke-width:1.0;stroke-dasharray:7.0,7.0;"/><polygon fill="#181818" points="291.19,559.12,296.1675,550.6215,291.7469,554.1511,288.2172,549.7305,291.19,559.12" style="stroke:#181818;stroke-width:1.0;"/></g><!--link APP to AGG--><g id="link_APP_AGG"><path d="M329.22,635.19 C345.1,649.51 362.94,666.47 378,683 C396.55,703.36 415.35,727.68 430.15,747.88 " fill="none" id="APP-to-AGG" style="stroke:#181818;stroke-width:1.0;stroke-dasharray:7.0,7.0;"/><polygon fill="#181818" points="432.94,751.7,430.8774,742.0696,429.9974,747.6576,424.4094,746.7776,432.94,751.7" style="stroke:#181818;stroke-width:1.0;"/></g><!--link APP to VO--><g id="link_APP_VO"><path d="M287,635.18 C287,666.78 287,712.68 287,746.11 " fill="none" id="APP-to-VO" style="stroke:#181818;stroke-width:1.0;stroke-dasharray:7.0,7.0;"/><polygon fill="#181818" points="287,751.11,291,742.11,287,746.11,283,742.11,287,751.11" style="stroke:#181818;stroke-width:1.0;"/></g><!--link APP to SRV--><g id="link_APP_SRV"><path d="M257.53,635.23 C245.12,648.92 229.87,663.86 214,675 C206.83,680.03 202.6,677.25 196,683 C175.88,700.5 159.86,725.66 148.64,747.07 " fill="none" id="APP-to-SRV" style="stroke:#181818;stroke-width:1.0;stroke-dasharray:7.0,7.0;"/><polygon fill="#181818" points="146.44,751.37,154.1061,745.1869,148.7216,746.9209,146.9876,741.5364,146.44,751.37" style="stroke:#181818;stroke-width:1.0;"/></g><!--link I to IA--><g id="link_I_IA"><path d="M60.6668,275.1742 C60.6313,275.5114 60.5957,275.8492 60.5601,276.1878 C59.4195,287.0206 58.2078,298.5281 56.9963,310.035 C56.8448,311.4734 56.6934,312.9117 56.5421,314.3487 C56.5231,314.5284 56.5042,314.708 56.4853,314.8875 " fill="none" id="I-to-IA" style="stroke:#181818;stroke-width:1.0;stroke-dasharray:7.0,7.0;"/><polygon fill="#181818" points="56.4853,314.8875,61.4057,306.3559,57.0089,309.915,53.4497,305.5182,56.4853,314.8875" style="stroke:#181818;stroke-width:1.0;"/></g><!--link IA to UC--><g id="link_IA_UC"><path d="M47,467.1742 C47,467.5114 47,467.8492 47,468.1878 C47,479.0206 47,490.5281 47,502.035 C47,503.4734 47,504.9117 47,506.3487 C47,506.5284 47,506.708 47,506.8875 " fill="none" id="IA-to-UC" style="stroke:#181818;stroke-width:1.0;stroke-dasharray:7.0,7.0;"/><polygon fill="#181818" points="47,506.8875,51,497.8875,47,501.8875,43,497.8875,47,506.8875" style="stroke:#181818;stroke-width:1.0;"/></g><!--link UC to E--><g id="link_UC_E"><path d="M47,659.1742 C47,659.5114 47,659.8492 47,660.1878 C47,671.0206 47,682.5281 47,694.035 C47,695.4734 47,696.9117 47,698.3487 C47,698.5284 47,698.708 47,698.8875 " fill="none" id="UC-to-E" style="stroke:#181818;stroke-width:1.0;stroke-dasharray:7.0,7.0;"/><polygon fill="#181818" points="47,698.8875,51,689.8875,47,693.8875,43,689.8875,47,698.8875" style="stroke:#181818;stroke-width:1.0;"/></g><!--SRC=[RL7BQiCm4BphAvQSsajIIeyXO1mt66fixCHtLLu7DRPa9BdGXlnxLqgJaCV5p7fcTsPNTYVLm0tlEorss423BHyxzwwLg-GlmkiBOqBtWrQe74oo9MHSyItsL4w0MyYM6SpdPybYGPNziGvxU8hVdgdUCu1MTmqQI5Lhk7Lc56uqwDlJG0CCNEneB1HehAHk9G9T96K5-yELfDIZG-lPCj-iaoDzO1UNIQeScfRJYAZX0s4RegRHZLbCMnhTTIJmVBmkF-xCSD1MEctalsLIv0ySes7efE1EQWKLccyfqCusbYmuVKv_GefDV9F2DrzBeg9uu94e9nt5cCNQu6ofUovLa2Tt0xTRWrlkJkDMgzkr9ZNlHeJyymk5Ewhg_4vq5QegwrCeYdKy_NIw25TZuIo-yW_6mY5zHOjSA5_upG9UhSwupi-GF1XB0qmZHk_bqIPcT3EF4lO7]--></g></svg>