<?xml version="1.0" encoding="UTF-8" standalone="no"?><svg xmlns="http://www.w3.org/2000/svg" xmlns:xlink="http://www.w3.org/1999/xlink" contentStyleType="text/css" height="758px" preserveAspectRatio="none" style="width:1661px;height:758px;background:#FFFFFF;" version="1.1" viewBox="0 0 1661 758" width="1661px" zoomAndPan="magnify"><defs/><g><rect fill="#DDDDDD" height="746.0625" style="stroke:#181818;stroke-width:0.5;" width="842" x="602.5" y="6"/><text fill="#000000" font-family="sans-serif" font-size="20" font-weight="bold" lengthAdjust="spacing" textLength="153" x="947" y="24.5645">«system (C4»</text><text fill="#000000" font-family="sans-serif" font-size="20" font-weight="bold" lengthAdjust="spacing" textLength="147" x="950" y="47.8457">Visualization</text><rect fill="#FFFFE0" height="746.0625" style="stroke:#181818;stroke-width:0.5;" width="209" x="1446.5" y="6"/><text fill="#000000" font-family="sans-serif" font-size="20" font-weight="bold" lengthAdjust="spacing" textLength="162" x="1470" y="24.5645">«system (C4)»</text><text fill="#000000" font-family="sans-serif" font-size="20" font-weight="bold" lengthAdjust="spacing" textLength="193" x="1454.5" y="47.8457">MD Management</text><rect fill="#FFFFFF" height="519.6563" style="stroke:#181818;stroke-width:1.0;" width="10" x="72" y="128.125"/><rect fill="#FFFFFF" height="37.2813" style="stroke:#181818;stroke-width:1.0;" width="10" x="702" y="157.4063"/><rect fill="#FFFFFF" height="415.8125" style="stroke:#181818;stroke-width:1.0;" width="10" x="702" y="231.9688"/><rect fill="#FFFFFF" height="341.25" style="stroke:#181818;stroke-width:1.0;" width="10" x="913" y="269.25"/><rect fill="#FFFFFF" height="28" style="stroke:#181818;stroke-width:1.0;" width="10" x="918" y="314.5313"/><rect fill="#FFFFFF" height="186.4063" style="stroke:#181818;stroke-width:1.0;" width="10" x="1124" y="386.8125"/><rect fill="#FFFFFF" height="111.8438" style="stroke:#181818;stroke-width:1.0;" width="10" x="1335" y="424.0938"/><rect fill="#FFFFFF" height="37.2813" style="stroke:#181818;stroke-width:1.0;" width="10" x="1546" y="461.375"/><line style="stroke:#181818;stroke-width:0.5;stroke-dasharray:5.0,5.0;" x1="77" x2="77" y1="118.125" y2="665.7813"/><line style="stroke:#181818;stroke-width:0.5;stroke-dasharray:5.0,5.0;" x1="706.5" x2="706.5" y1="118.125" y2="665.7813"/><line style="stroke:#181818;stroke-width:0.5;stroke-dasharray:5.0,5.0;" x1="917.5" x2="917.5" y1="118.125" y2="665.7813"/><line style="stroke:#181818;stroke-width:0.5;stroke-dasharray:5.0,5.0;" x1="1128.5" x2="1128.5" y1="118.125" y2="665.7813"/><line style="stroke:#181818;stroke-width:0.5;stroke-dasharray:5.0,5.0;" x1="1339.5" x2="1339.5" y1="118.125" y2="665.7813"/><line style="stroke:#181818;stroke-width:0.5;stroke-dasharray:5.0,5.0;" x1="1550.5" x2="1550.5" y1="118.125" y2="665.7813"/><text fill="#000000" font-family="sans-serif" font-size="20" lengthAdjust="spacing" textLength="138" x="5" y="113.4082">Administrator</text><ellipse cx="77" cy="43.3438" fill="#E2E2F0" rx="8" ry="8" style="stroke:#181818;stroke-width:0.5;"/><path d="M77,51.3438 L77,78.3438 M64,59.3438 L90,59.3438 M77,78.3438 L64,93.3438 M77,78.3438 L90,93.3438 " fill="none" style="stroke:#181818;stroke-width:0.5;"/><text fill="#000000" font-family="sans-serif" font-size="20" lengthAdjust="spacing" textLength="138" x="5" y="683.3457">Administrator</text><ellipse cx="77" cy="696.5625" fill="#E2E2F0" rx="8" ry="8" style="stroke:#181818;stroke-width:0.5;"/><path d="M77,704.5625 L77,731.5625 M64,712.5625 L90,712.5625 M77,731.5625 L64,746.5625 M77,731.5625 L90,746.5625 " fill="none" style="stroke:#181818;stroke-width:0.5;"/><rect fill="#E2E2F0" height="60.5625" rx="2.5" ry="2.5" style="stroke:#181818;stroke-width:0.5;" width="201" x="606.5" y="56.5625"/><text fill="#000000" font-family="sans-serif" font-size="20" font-style="italic" lengthAdjust="spacing" textLength="187" x="613.5" y="82.127">«component (C4)»</text><text fill="#000000" font-family="sans-serif" font-size="20" lengthAdjust="spacing" textLength="144" x="635" y="105.4082">UI Component</text><rect fill="#E2E2F0" height="60.5625" rx="2.5" ry="2.5" style="stroke:#181818;stroke-width:0.5;" width="201" x="606.5" y="664.7813"/><text fill="#000000" font-family="sans-serif" font-size="20" font-style="italic" lengthAdjust="spacing" textLength="187" x="613.5" y="690.3457">«component (C4)»</text><text fill="#000000" font-family="sans-serif" font-size="20" lengthAdjust="spacing" textLength="144" x="635" y="713.627">UI Component</text><rect fill="#E2E2F0" height="60.5625" rx="2.5" ry="2.5" style="stroke:#181818;stroke-width:0.5;" width="201" x="817.5" y="56.5625"/><text fill="#000000" font-family="sans-serif" font-size="20" font-style="italic" lengthAdjust="spacing" textLength="187" x="824.5" y="82.127">«component (C4)»</text><text fill="#000000" font-family="sans-serif" font-size="20" lengthAdjust="spacing" textLength="73" x="881.5" y="105.4082">Module</text><rect fill="#E2E2F0" height="60.5625" rx="2.5" ry="2.5" style="stroke:#181818;stroke-width:0.5;" width="201" x="817.5" y="664.7813"/><text fill="#000000" font-family="sans-serif" font-size="20" font-style="italic" lengthAdjust="spacing" textLength="187" x="824.5" y="690.3457">«component (C4)»</text><text fill="#000000" font-family="sans-serif" font-size="20" lengthAdjust="spacing" textLength="73" x="881.5" y="713.627">Module</text><rect fill="#E2E2F0" height="60.5625" rx="2.5" ry="2.5" style="stroke:#181818;stroke-width:0.5;" width="201" x="1028.5" y="56.5625"/><text fill="#000000" font-family="sans-serif" font-size="20" font-style="italic" lengthAdjust="spacing" textLength="187" x="1035.5" y="82.127">«component (C4)»</text><text fill="#000000" font-family="sans-serif" font-size="20" lengthAdjust="spacing" textLength="73" x="1092.5" y="105.4082">Service</text><rect fill="#E2E2F0" height="60.5625" rx="2.5" ry="2.5" style="stroke:#181818;stroke-width:0.5;" width="201" x="1028.5" y="664.7813"/><text fill="#000000" font-family="sans-serif" font-size="20" font-style="italic" lengthAdjust="spacing" textLength="187" x="1035.5" y="690.3457">«component (C4)»</text><text fill="#000000" font-family="sans-serif" font-size="20" lengthAdjust="spacing" textLength="73" x="1092.5" y="713.627">Service</text><rect fill="#E2E2F0" height="60.5625" rx="2.5" ry="2.5" style="stroke:#181818;stroke-width:0.5;" width="201" x="1239.5" y="56.5625"/><text fill="#000000" font-family="sans-serif" font-size="20" font-style="italic" lengthAdjust="spacing" textLength="187" x="1246.5" y="82.127">«component (C4)»</text><text fill="#000000" font-family="sans-serif" font-size="20" lengthAdjust="spacing" textLength="51" x="1314.5" y="105.4082">HTTP</text><rect fill="#E2E2F0" height="60.5625" rx="2.5" ry="2.5" style="stroke:#181818;stroke-width:0.5;" width="201" x="1239.5" y="664.7813"/><text fill="#000000" font-family="sans-serif" font-size="20" font-style="italic" lengthAdjust="spacing" textLength="187" x="1246.5" y="690.3457">«component (C4)»</text><text fill="#000000" font-family="sans-serif" font-size="20" lengthAdjust="spacing" textLength="51" x="1314.5" y="713.627">HTTP</text><rect fill="#E2E2F0" height="60.5625" rx="2.5" ry="2.5" style="stroke:#181818;stroke-width:0.5;" width="201" x="1450.5" y="56.5625"/><text fill="#000000" font-family="sans-serif" font-size="20" font-style="italic" lengthAdjust="spacing" textLength="187" x="1457.5" y="82.127">«component (C4)»</text><text fill="#000000" font-family="sans-serif" font-size="20" lengthAdjust="spacing" textLength="170" x="1466" y="105.4082">MD Management</text><rect fill="#E2E2F0" height="60.5625" rx="2.5" ry="2.5" style="stroke:#181818;stroke-width:0.5;" width="201" x="1450.5" y="664.7813"/><text fill="#000000" font-family="sans-serif" font-size="20" font-style="italic" lengthAdjust="spacing" textLength="187" x="1457.5" y="690.3457">«component (C4)»</text><text fill="#000000" font-family="sans-serif" font-size="20" lengthAdjust="spacing" textLength="170" x="1466" y="713.627">MD Management</text><rect fill="#FFFFFF" height="519.6563" style="stroke:#181818;stroke-width:1.0;" width="10" x="72" y="128.125"/><rect fill="#FFFFFF" height="37.2813" style="stroke:#181818;stroke-width:1.0;" width="10" x="702" y="157.4063"/><rect fill="#FFFFFF" height="415.8125" style="stroke:#181818;stroke-width:1.0;" width="10" x="702" y="231.9688"/><rect fill="#FFFFFF" height="341.25" style="stroke:#181818;stroke-width:1.0;" width="10" x="913" y="269.25"/><rect fill="#FFFFFF" height="28" style="stroke:#181818;stroke-width:1.0;" width="10" x="918" y="314.5313"/><rect fill="#FFFFFF" height="186.4063" style="stroke:#181818;stroke-width:1.0;" width="10" x="1124" y="386.8125"/><rect fill="#FFFFFF" height="111.8438" style="stroke:#181818;stroke-width:1.0;" width="10" x="1335" y="424.0938"/><rect fill="#FFFFFF" height="37.2813" style="stroke:#181818;stroke-width:1.0;" width="10" x="1546" y="461.375"/><polygon fill="#181818" points="690,153.4063,700,157.4063,690,161.4063,694,157.4063" style="stroke:#181818;stroke-width:1.0;"/><line style="stroke:#181818;stroke-width:1.0;" x1="82" x2="696" y1="157.4063" y2="157.4063"/><text fill="#000000" font-family="sans-serif" font-size="20" font-weight="bold" lengthAdjust="spacing" textLength="14" x="89" y="150.6895">1</text><text fill="#000000" font-family="sans-serif" font-size="20" lengthAdjust="spacing" textLength="254" x="107" y="150.6895">asks to create a new user</text><polygon fill="#181818" points="93,190.6875,83,194.6875,93,198.6875,89,194.6875" style="stroke:#181818;stroke-width:1.0;"/><line style="stroke:#181818;stroke-width:1.0;stroke-dasharray:2.0,2.0;" x1="87" x2="706" y1="194.6875" y2="194.6875"/><text fill="#000000" font-family="sans-serif" font-size="20" font-weight="bold" lengthAdjust="spacing" textLength="14" x="99" y="187.9707">2</text><text fill="#000000" font-family="sans-serif" font-size="20" lengthAdjust="spacing" textLength="578" x="117" y="187.9707">asks user's personal data, including his role in the system</text><polygon fill="#181818" points="690,227.9688,700,231.9688,690,235.9688,694,231.9688" style="stroke:#181818;stroke-width:1.0;"/><line style="stroke:#181818;stroke-width:1.0;" x1="82" x2="696" y1="231.9688" y2="231.9688"/><text fill="#000000" font-family="sans-serif" font-size="20" font-weight="bold" lengthAdjust="spacing" textLength="14" x="89" y="225.252">3</text><text fill="#000000" font-family="sans-serif" font-size="20" lengthAdjust="spacing" textLength="205" x="107" y="225.252">inputs required data</text><polygon fill="#181818" points="901,265.25,911,269.25,901,273.25,905,269.25" style="stroke:#181818;stroke-width:1.0;"/><line style="stroke:#181818;stroke-width:1.0;" x1="712" x2="907" y1="269.25" y2="269.25"/><text fill="#000000" font-family="sans-serif" font-size="20" font-weight="bold" lengthAdjust="spacing" textLength="14" x="719" y="262.5332">4</text><text fill="#000000" font-family="sans-serif" font-size="20" lengthAdjust="spacing" textLength="112" x="737" y="262.5332">create user</text><line style="stroke:#181818;stroke-width:1.0;" x1="928" x2="970" y1="306.5313" y2="306.5313"/><line style="stroke:#181818;stroke-width:1.0;" x1="970" x2="970" y1="306.5313" y2="319.5313"/><line style="stroke:#181818;stroke-width:1.0;" x1="929" x2="970" y1="319.5313" y2="319.5313"/><polygon fill="#181818" points="939,315.5313,929,319.5313,939,323.5313,935,319.5313" style="stroke:#181818;stroke-width:1.0;"/><text fill="#000000" font-family="sans-serif" font-size="20" font-weight="bold" lengthAdjust="spacing" textLength="14" x="935" y="299.8145">5</text><text fill="#000000" font-family="sans-serif" font-size="20" lengthAdjust="spacing" textLength="129" x="953" y="299.8145">validate user</text><polygon fill="#181818" points="1112,382.8125,1122,386.8125,1112,390.8125,1116,386.8125" style="stroke:#181818;stroke-width:1.0;"/><line style="stroke:#181818;stroke-width:1.0;" x1="923" x2="1118" y1="386.8125" y2="386.8125"/><text fill="#000000" font-family="sans-serif" font-size="20" font-weight="bold" lengthAdjust="spacing" textLength="14" x="930" y="380.0957">6</text><text fill="#000000" font-family="sans-serif" font-size="20" lengthAdjust="spacing" textLength="112" x="948" y="380.0957">create user</text><polygon fill="#181818" points="1323,420.0938,1333,424.0938,1323,428.0938,1327,424.0938" style="stroke:#181818;stroke-width:1.0;"/><line style="stroke:#181818;stroke-width:1.0;" x1="1134" x2="1329" y1="424.0938" y2="424.0938"/><text fill="#000000" font-family="sans-serif" font-size="20" font-weight="bold" lengthAdjust="spacing" textLength="14" x="1141" y="417.377">7</text><text fill="#000000" font-family="sans-serif" font-size="20" lengthAdjust="spacing" textLength="121" x="1159" y="417.377">post('/user')</text><polygon fill="#181818" points="1534,457.375,1544,461.375,1534,465.375,1538,461.375" style="stroke:#181818;stroke-width:1.0;"/><line style="stroke:#181818;stroke-width:1.0;" x1="1345" x2="1540" y1="461.375" y2="461.375"/><text fill="#000000" font-family="sans-serif" font-size="20" font-weight="bold" lengthAdjust="spacing" textLength="14" x="1352" y="454.6582">8</text><text fill="#000000" font-family="sans-serif" font-size="20" lengthAdjust="spacing" textLength="109" x="1370" y="454.6582">POST /user</text><polygon fill="#181818" points="1356,494.6563,1346,498.6563,1356,502.6563,1352,498.6563" style="stroke:#181818;stroke-width:1.0;"/><line style="stroke:#181818;stroke-width:1.0;stroke-dasharray:2.0,2.0;" x1="1350" x2="1550" y1="498.6563" y2="498.6563"/><text fill="#000000" font-family="sans-serif" font-size="20" font-weight="bold" lengthAdjust="spacing" textLength="14" x="1362" y="491.9395">9</text><text fill="#000000" font-family="sans-serif" font-size="20" lengthAdjust="spacing" textLength="140" x="1380" y="491.9395">201 (Created)</text><polygon fill="#181818" points="1145,531.9375,1135,535.9375,1145,539.9375,1141,535.9375" style="stroke:#181818;stroke-width:1.0;"/><line style="stroke:#181818;stroke-width:1.0;stroke-dasharray:2.0,2.0;" x1="1139" x2="1339" y1="535.9375" y2="535.9375"/><text fill="#000000" font-family="sans-serif" font-size="20" font-weight="bold" lengthAdjust="spacing" textLength="28" x="1151" y="529.2207">10</text><text fill="#000000" font-family="sans-serif" font-size="20" lengthAdjust="spacing" textLength="43" x="1183" y="529.2207">user</text><polygon fill="#181818" points="934,569.2188,924,573.2188,934,577.2188,930,573.2188" style="stroke:#181818;stroke-width:1.0;"/><line style="stroke:#181818;stroke-width:1.0;stroke-dasharray:2.0,2.0;" x1="928" x2="1128" y1="573.2188" y2="573.2188"/><text fill="#000000" font-family="sans-serif" font-size="20" font-weight="bold" lengthAdjust="spacing" textLength="28" x="940" y="566.502">11</text><text fill="#000000" font-family="sans-serif" font-size="20" lengthAdjust="spacing" textLength="43" x="972" y="566.502">user</text><polygon fill="#181818" points="723,606.5,713,610.5,723,614.5,719,610.5" style="stroke:#181818;stroke-width:1.0;"/><line style="stroke:#181818;stroke-width:1.0;stroke-dasharray:2.0,2.0;" x1="717" x2="917" y1="610.5" y2="610.5"/><text fill="#000000" font-family="sans-serif" font-size="20" font-weight="bold" lengthAdjust="spacing" textLength="28" x="729" y="603.7832">12</text><text fill="#000000" font-family="sans-serif" font-size="20" lengthAdjust="spacing" textLength="43" x="761" y="603.7832">user</text><polygon fill="#181818" points="88,643.7813,78,647.7813,88,651.7813,84,647.7813" style="stroke:#181818;stroke-width:1.0;"/><line style="stroke:#181818;stroke-width:1.0;stroke-dasharray:2.0,2.0;" x1="82" x2="706" y1="647.7813" y2="647.7813"/><text fill="#000000" font-family="sans-serif" font-size="20" font-weight="bold" lengthAdjust="spacing" textLength="28" x="94" y="641.0645">13</text><text fill="#000000" font-family="sans-serif" font-size="20" lengthAdjust="spacing" textLength="301" x="126" y="641.0645">returns confirmation message</text><!--SRC=[ZLDTQzj047o_Nx6u3ucX9cdean42OrDQg4YetK2WBnVTnZuitQdtuQJvzTqzHOfi9P0N8TtEpCtkhFnUcqOwMLUstAC2XGyoLk6RDM6jdn6kBeMCmPfOtwCJlaF3giLjy2aiAhqrDPgGPIKzqUKvj2z2o39O1ujL0TB3PA5gRRGFJjBfHDpR9vXacV_d0zPmlloQvt_ChVPHLlfP1ctDv5LI0D3DGPUwaIR0ihX9ahz_mDBMZJK4cm31km_McuvenVKgqGghOeKV8An_tIR26jr1bnzXVDziMclyyYOUZGBgNOm7CEK952ief95RhBkUNaRmwQVUxi8TLfLzFEthPS9ZxhkNKpJw80DoEa9mHBCyZNLEIdiFmKBfa04I33v2z1HeJo9WIyfcio6BKMSU6dJU6bc1aa5-1ctAAYfjjh3J7foja8uWx13QteN2iN9lXtOk1gBXtwWTxoXf7ZjX7C4vtNdd-jWlbGINUzI1baozZHkOuS-EnwlmZZgL19S9bUAVGsDzE3-xIEEO3eRDPI4IYArGctEukLvluEB41uN2rTchvDNb5menNQ-cHoOvm5QojvdK1fZstkIn7y4fXhj8lVQJFqMaSHodxZ14PpoKrZneLwVV5chqdfPm5ElmWDVkFm00]--></g></svg>