<?xml version="1.0" encoding="UTF-8" standalone="no"?><svg xmlns="http://www.w3.org/2000/svg" xmlns:xlink="http://www.w3.org/1999/xlink" contentStyleType="text/css" height="1421px" preserveAspectRatio="none" style="width:1747px;height:1421px;background:#FFFFFF;" version="1.1" viewBox="0 0 1747 1421" width="1747px" zoomAndPan="magnify"><defs/><g><rect fill="#DDDDDD" height="1409.6875" style="stroke:#181818;stroke-width:0.5;" width="1088" x="345.5" y="6"/><text fill="#000000" font-family="sans-serif" font-size="20" font-weight="bold" lengthAdjust="spacing" textLength="153" x="813" y="24.5645">«system (C4»</text><text fill="#000000" font-family="sans-serif" font-size="20" font-weight="bold" lengthAdjust="spacing" textLength="147" x="816" y="47.8457">Visualization</text><rect fill="#FFFFE0" height="1409.6875" style="stroke:#181818;stroke-width:0.5;" width="209" x="1525.5" y="6"/><text fill="#000000" font-family="sans-serif" font-size="20" font-weight="bold" lengthAdjust="spacing" textLength="162" x="1549" y="24.5645">«system (C4)»</text><text fill="#000000" font-family="sans-serif" font-size="20" font-weight="bold" lengthAdjust="spacing" textLength="193" x="1533.5" y="47.8457">MD Management</text><rect fill="#FFFFFF" height="1191.2813" style="stroke:#181818;stroke-width:1.0;" width="10" x="87" y="128.125"/><rect fill="#FFFFFF" height="335.5313" style="stroke:#181818;stroke-width:1.0;" width="10" x="445" y="157.4063"/><rect fill="#FFFFFF" height="335.5313" style="stroke:#181818;stroke-width:1.0;" width="10" x="445" y="570.7813"/><rect fill="#FFFFFF" height="335.5313" style="stroke:#181818;stroke-width:1.0;" width="10" x="445" y="968.875"/><rect fill="#FFFFFF" height="260.9688" style="stroke:#181818;stroke-width:1.0;" width="10" x="728" y="194.6875"/><rect fill="#FFFFFF" height="260.9688" style="stroke:#181818;stroke-width:1.0;" width="10" x="728" y="608.0625"/><rect fill="#FFFFFF" height="260.9688" style="stroke:#181818;stroke-width:1.0;" width="10" x="728" y="1006.1563"/><rect fill="#FFFFFF" height="186.4063" style="stroke:#181818;stroke-width:1.0;" width="10" x="1011" y="231.9688"/><rect fill="#FFFFFF" height="186.4063" style="stroke:#181818;stroke-width:1.0;" width="10" x="1011" y="645.3438"/><rect fill="#FFFFFF" height="186.4063" style="stroke:#181818;stroke-width:1.0;" width="10" x="1011" y="1043.4375"/><rect fill="#FFFFFF" height="111.8438" style="stroke:#181818;stroke-width:1.0;" width="10" x="1324" y="269.25"/><rect fill="#FFFFFF" height="111.8438" style="stroke:#181818;stroke-width:1.0;" width="10" x="1324" y="682.625"/><rect fill="#FFFFFF" height="111.8438" style="stroke:#181818;stroke-width:1.0;" width="10" x="1324" y="1080.7188"/><rect fill="#FFFFFF" height="37.2813" style="stroke:#181818;stroke-width:1.0;" width="10" x="1625" y="306.5313"/><rect fill="#FFFFFF" height="37.2813" style="stroke:#181818;stroke-width:1.0;" width="10" x="1625" y="719.9063"/><rect fill="#FFFFFF" height="37.2813" style="stroke:#181818;stroke-width:1.0;" width="10" x="1625" y="1118"/><rect fill="none" height="804.4688" style="stroke:#000000;stroke-width:1.5;" width="1730.5" x="10" y="507.9375"/><line style="stroke:#181818;stroke-width:0.5;stroke-dasharray:5.0,5.0;" x1="92" x2="92" y1="118.125" y2="1329.4063"/><line style="stroke:#181818;stroke-width:0.5;stroke-dasharray:5.0,5.0;" x1="449.5" x2="449.5" y1="118.125" y2="1329.4063"/><line style="stroke:#181818;stroke-width:0.5;stroke-dasharray:5.0,5.0;" x1="732.5" x2="732.5" y1="118.125" y2="1329.4063"/><line style="stroke:#181818;stroke-width:0.5;stroke-dasharray:5.0,5.0;" x1="1015.5" x2="1015.5" y1="118.125" y2="1329.4063"/><line style="stroke:#181818;stroke-width:0.5;stroke-dasharray:5.0,5.0;" x1="1328.5" x2="1328.5" y1="118.125" y2="1329.4063"/><line style="stroke:#181818;stroke-width:0.5;stroke-dasharray:5.0,5.0;" x1="1629.5" x2="1629.5" y1="118.125" y2="1329.4063"/><text fill="#000000" font-family="sans-serif" font-size="20" lengthAdjust="spacing" textLength="138" x="20" y="113.4082">Administrator</text><ellipse cx="92" cy="43.3438" fill="#E2E2F0" rx="8" ry="8" style="stroke:#181818;stroke-width:0.5;"/><path d="M92,51.3438 L92,78.3438 M79,59.3438 L105,59.3438 M92,78.3438 L79,93.3438 M92,78.3438 L105,93.3438 " fill="none" style="stroke:#181818;stroke-width:0.5;"/><text fill="#000000" font-family="sans-serif" font-size="20" lengthAdjust="spacing" textLength="138" x="20" y="1346.9707">Administrator</text><ellipse cx="92" cy="1360.1875" fill="#E2E2F0" rx="8" ry="8" style="stroke:#181818;stroke-width:0.5;"/><path d="M92,1368.1875 L92,1395.1875 M79,1376.1875 L105,1376.1875 M92,1395.1875 L79,1410.1875 M92,1395.1875 L105,1410.1875 " fill="none" style="stroke:#181818;stroke-width:0.5;"/><rect fill="#E2E2F0" height="60.5625" rx="2.5" ry="2.5" style="stroke:#181818;stroke-width:0.5;" width="201" x="349.5" y="56.5625"/><text fill="#000000" font-family="sans-serif" font-size="20" font-style="italic" lengthAdjust="spacing" textLength="187" x="356.5" y="82.127">«component (C4)»</text><text fill="#000000" font-family="sans-serif" font-size="20" lengthAdjust="spacing" textLength="144" x="378" y="105.4082">UI Component</text><rect fill="#E2E2F0" height="60.5625" rx="2.5" ry="2.5" style="stroke:#181818;stroke-width:0.5;" width="201" x="349.5" y="1328.4063"/><text fill="#000000" font-family="sans-serif" font-size="20" font-style="italic" lengthAdjust="spacing" textLength="187" x="356.5" y="1353.9707">«component (C4)»</text><text fill="#000000" font-family="sans-serif" font-size="20" lengthAdjust="spacing" textLength="144" x="378" y="1377.252">UI Component</text><rect fill="#E2E2F0" height="60.5625" rx="2.5" ry="2.5" style="stroke:#181818;stroke-width:0.5;" width="201" x="632.5" y="56.5625"/><text fill="#000000" font-family="sans-serif" font-size="20" font-style="italic" lengthAdjust="spacing" textLength="187" x="639.5" y="82.127">«component (C4)»</text><text fill="#000000" font-family="sans-serif" font-size="20" lengthAdjust="spacing" textLength="73" x="696.5" y="105.4082">Module</text><rect fill="#E2E2F0" height="60.5625" rx="2.5" ry="2.5" style="stroke:#181818;stroke-width:0.5;" width="201" x="632.5" y="1328.4063"/><text fill="#000000" font-family="sans-serif" font-size="20" font-style="italic" lengthAdjust="spacing" textLength="187" x="639.5" y="1353.9707">«component (C4)»</text><text fill="#000000" font-family="sans-serif" font-size="20" lengthAdjust="spacing" textLength="73" x="696.5" y="1377.252">Module</text><rect fill="#E2E2F0" height="60.5625" rx="2.5" ry="2.5" style="stroke:#181818;stroke-width:0.5;" width="201" x="915.5" y="56.5625"/><text fill="#000000" font-family="sans-serif" font-size="20" font-style="italic" lengthAdjust="spacing" textLength="187" x="922.5" y="82.127">«component (C4)»</text><text fill="#000000" font-family="sans-serif" font-size="20" lengthAdjust="spacing" textLength="73" x="979.5" y="105.4082">Service</text><rect fill="#E2E2F0" height="60.5625" rx="2.5" ry="2.5" style="stroke:#181818;stroke-width:0.5;" width="201" x="915.5" y="1328.4063"/><text fill="#000000" font-family="sans-serif" font-size="20" font-style="italic" lengthAdjust="spacing" textLength="187" x="922.5" y="1353.9707">«component (C4)»</text><text fill="#000000" font-family="sans-serif" font-size="20" lengthAdjust="spacing" textLength="73" x="979.5" y="1377.252">Service</text><rect fill="#E2E2F0" height="60.5625" rx="2.5" ry="2.5" style="stroke:#181818;stroke-width:0.5;" width="201" x="1228.5" y="56.5625"/><text fill="#000000" font-family="sans-serif" font-size="20" font-style="italic" lengthAdjust="spacing" textLength="187" x="1235.5" y="82.127">«component (C4)»</text><text fill="#000000" font-family="sans-serif" font-size="20" lengthAdjust="spacing" textLength="51" x="1303.5" y="105.4082">HTTP</text><rect fill="#E2E2F0" height="60.5625" rx="2.5" ry="2.5" style="stroke:#181818;stroke-width:0.5;" width="201" x="1228.5" y="1328.4063"/><text fill="#000000" font-family="sans-serif" font-size="20" font-style="italic" lengthAdjust="spacing" textLength="187" x="1235.5" y="1353.9707">«component (C4)»</text><text fill="#000000" font-family="sans-serif" font-size="20" lengthAdjust="spacing" textLength="51" x="1303.5" y="1377.252">HTTP</text><rect fill="#E2E2F0" height="60.5625" rx="2.5" ry="2.5" style="stroke:#181818;stroke-width:0.5;" width="201" x="1529.5" y="56.5625"/><text fill="#000000" font-family="sans-serif" font-size="20" font-style="italic" lengthAdjust="spacing" textLength="187" x="1536.5" y="82.127">«component (C4)»</text><text fill="#000000" font-family="sans-serif" font-size="20" lengthAdjust="spacing" textLength="170" x="1545" y="105.4082">MD Management</text><rect fill="#E2E2F0" height="60.5625" rx="2.5" ry="2.5" style="stroke:#181818;stroke-width:0.5;" width="201" x="1529.5" y="1328.4063"/><text fill="#000000" font-family="sans-serif" font-size="20" font-style="italic" lengthAdjust="spacing" textLength="187" x="1536.5" y="1353.9707">«component (C4)»</text><text fill="#000000" font-family="sans-serif" font-size="20" lengthAdjust="spacing" textLength="170" x="1545" y="1377.252">MD Management</text><rect fill="#FFFFFF" height="1191.2813" style="stroke:#181818;stroke-width:1.0;" width="10" x="87" y="128.125"/><rect fill="#FFFFFF" height="335.5313" style="stroke:#181818;stroke-width:1.0;" width="10" x="445" y="157.4063"/><rect fill="#FFFFFF" height="335.5313" style="stroke:#181818;stroke-width:1.0;" width="10" x="445" y="570.7813"/><rect fill="#FFFFFF" height="335.5313" style="stroke:#181818;stroke-width:1.0;" width="10" x="445" y="968.875"/><rect fill="#FFFFFF" height="260.9688" style="stroke:#181818;stroke-width:1.0;" width="10" x="728" y="194.6875"/><rect fill="#FFFFFF" height="260.9688" style="stroke:#181818;stroke-width:1.0;" width="10" x="728" y="608.0625"/><rect fill="#FFFFFF" height="260.9688" style="stroke:#181818;stroke-width:1.0;" width="10" x="728" y="1006.1563"/><rect fill="#FFFFFF" height="186.4063" style="stroke:#181818;stroke-width:1.0;" width="10" x="1011" y="231.9688"/><rect fill="#FFFFFF" height="186.4063" style="stroke:#181818;stroke-width:1.0;" width="10" x="1011" y="645.3438"/><rect fill="#FFFFFF" height="186.4063" style="stroke:#181818;stroke-width:1.0;" width="10" x="1011" y="1043.4375"/><rect fill="#FFFFFF" height="111.8438" style="stroke:#181818;stroke-width:1.0;" width="10" x="1324" y="269.25"/><rect fill="#FFFFFF" height="111.8438" style="stroke:#181818;stroke-width:1.0;" width="10" x="1324" y="682.625"/><rect fill="#FFFFFF" height="111.8438" style="stroke:#181818;stroke-width:1.0;" width="10" x="1324" y="1080.7188"/><rect fill="#FFFFFF" height="37.2813" style="stroke:#181818;stroke-width:1.0;" width="10" x="1625" y="306.5313"/><rect fill="#FFFFFF" height="37.2813" style="stroke:#181818;stroke-width:1.0;" width="10" x="1625" y="719.9063"/><rect fill="#FFFFFF" height="37.2813" style="stroke:#181818;stroke-width:1.0;" width="10" x="1625" y="1118"/><polygon fill="#181818" points="433,153.4063,443,157.4063,433,161.4063,437,157.4063" style="stroke:#181818;stroke-width:1.0;"/><line style="stroke:#181818;stroke-width:1.0;" x1="97" x2="439" y1="157.4063" y2="157.4063"/><text fill="#000000" font-family="sans-serif" font-size="20" font-weight="bold" lengthAdjust="spacing" textLength="14" x="104" y="150.6895">1</text><text fill="#000000" font-family="sans-serif" font-size="20" lengthAdjust="spacing" textLength="311" x="122" y="150.6895">asks to list new user's requests</text><polygon fill="#181818" points="716,190.6875,726,194.6875,716,198.6875,720,194.6875" style="stroke:#181818;stroke-width:1.0;"/><line style="stroke:#181818;stroke-width:1.0;" x1="455" x2="722" y1="194.6875" y2="194.6875"/><text fill="#000000" font-family="sans-serif" font-size="20" font-weight="bold" lengthAdjust="spacing" textLength="14" x="462" y="187.9707">2</text><text fill="#000000" font-family="sans-serif" font-size="20" lengthAdjust="spacing" textLength="235" x="480" y="187.9707">list new user's requests</text><polygon fill="#181818" points="999,227.9688,1009,231.9688,999,235.9688,1003,231.9688" style="stroke:#181818;stroke-width:1.0;"/><line style="stroke:#181818;stroke-width:1.0;" x1="738" x2="1005" y1="231.9688" y2="231.9688"/><text fill="#000000" font-family="sans-serif" font-size="20" font-weight="bold" lengthAdjust="spacing" textLength="14" x="745" y="225.252">3</text><text fill="#000000" font-family="sans-serif" font-size="20" lengthAdjust="spacing" textLength="235" x="763" y="225.252">list new user's requests</text><polygon fill="#181818" points="1312,265.25,1322,269.25,1312,273.25,1316,269.25" style="stroke:#181818;stroke-width:1.0;"/><line style="stroke:#181818;stroke-width:1.0;" x1="1021" x2="1318" y1="269.25" y2="269.25"/><text fill="#000000" font-family="sans-serif" font-size="20" font-weight="bold" lengthAdjust="spacing" textLength="14" x="1028" y="262.5332">4</text><text fill="#000000" font-family="sans-serif" font-size="20" lengthAdjust="spacing" textLength="154" x="1046" y="262.5332">get('/requests')</text><polygon fill="#181818" points="1613,302.5313,1623,306.5313,1613,310.5313,1617,306.5313" style="stroke:#181818;stroke-width:1.0;"/><line style="stroke:#181818;stroke-width:1.0;" x1="1334" x2="1619" y1="306.5313" y2="306.5313"/><text fill="#000000" font-family="sans-serif" font-size="20" font-weight="bold" lengthAdjust="spacing" textLength="14" x="1341" y="299.8145">5</text><text fill="#000000" font-family="sans-serif" font-size="20" lengthAdjust="spacing" textLength="140" x="1359" y="299.8145">GET /requests</text><polygon fill="#181818" points="1345,339.8125,1335,343.8125,1345,347.8125,1341,343.8125" style="stroke:#181818;stroke-width:1.0;"/><line style="stroke:#181818;stroke-width:1.0;stroke-dasharray:2.0,2.0;" x1="1339" x2="1629" y1="343.8125" y2="343.8125"/><text fill="#000000" font-family="sans-serif" font-size="20" font-weight="bold" lengthAdjust="spacing" textLength="14" x="1351" y="337.0957">6</text><text fill="#000000" font-family="sans-serif" font-size="20" lengthAdjust="spacing" textLength="90" x="1369" y="337.0957">200 (OK)</text><polygon fill="#181818" points="1032,377.0938,1022,381.0938,1032,385.0938,1028,381.0938" style="stroke:#181818;stroke-width:1.0;"/><line style="stroke:#181818;stroke-width:1.0;stroke-dasharray:2.0,2.0;" x1="1026" x2="1328" y1="381.0938" y2="381.0938"/><text fill="#000000" font-family="sans-serif" font-size="20" font-weight="bold" lengthAdjust="spacing" textLength="14" x="1038" y="374.377">7</text><text fill="#000000" font-family="sans-serif" font-size="20" lengthAdjust="spacing" textLength="86" x="1056" y="374.377">requests</text><polygon fill="#181818" points="749,414.375,739,418.375,749,422.375,745,418.375" style="stroke:#181818;stroke-width:1.0;"/><line style="stroke:#181818;stroke-width:1.0;stroke-dasharray:2.0,2.0;" x1="743" x2="1015" y1="418.375" y2="418.375"/><text fill="#000000" font-family="sans-serif" font-size="20" font-weight="bold" lengthAdjust="spacing" textLength="14" x="755" y="411.6582">8</text><text fill="#000000" font-family="sans-serif" font-size="20" lengthAdjust="spacing" textLength="86" x="773" y="411.6582">requests</text><polygon fill="#181818" points="466,451.6563,456,455.6563,466,459.6563,462,455.6563" style="stroke:#181818;stroke-width:1.0;"/><line style="stroke:#181818;stroke-width:1.0;stroke-dasharray:2.0,2.0;" x1="460" x2="732" y1="455.6563" y2="455.6563"/><text fill="#000000" font-family="sans-serif" font-size="20" font-weight="bold" lengthAdjust="spacing" textLength="14" x="472" y="448.9395">9</text><text fill="#000000" font-family="sans-serif" font-size="20" lengthAdjust="spacing" textLength="86" x="490" y="448.9395">requests</text><polygon fill="#181818" points="108,488.9375,98,492.9375,108,496.9375,104,492.9375" style="stroke:#181818;stroke-width:1.0;"/><line style="stroke:#181818;stroke-width:1.0;stroke-dasharray:2.0,2.0;" x1="102" x2="449" y1="492.9375" y2="492.9375"/><text fill="#000000" font-family="sans-serif" font-size="20" font-weight="bold" lengthAdjust="spacing" textLength="28" x="114" y="486.2207">10</text><text fill="#000000" font-family="sans-serif" font-size="20" lengthAdjust="spacing" textLength="86" x="146" y="486.2207">requests</text><path d="M10,507.9375 L86,507.9375 L86,523.2188 L76,533.2188 L10,533.2188 L10,507.9375 " fill="#EEEEEE" style="stroke:#000000;stroke-width:1.5;"/><rect fill="none" height="804.4688" style="stroke:#000000;stroke-width:1.5;" width="1730.5" x="10" y="507.9375"/><text fill="#000000" font-family="sans-serif" font-size="20" font-weight="bold" lengthAdjust="spacing" textLength="31" x="25" y="527.502">alt</text><text fill="#000000" font-family="sans-serif" font-size="20" font-weight="bold" lengthAdjust="spacing" textLength="218" x="101" y="528.502">[approves request]</text><polygon fill="#181818" points="433,566.7813,443,570.7813,433,574.7813,437,570.7813" style="stroke:#181818;stroke-width:1.0;"/><line style="stroke:#181818;stroke-width:1.0;" x1="97" x2="439" y1="570.7813" y2="570.7813"/><text fill="#000000" font-family="sans-serif" font-size="20" font-weight="bold" lengthAdjust="spacing" textLength="28" x="104" y="564.0645">11</text><text fill="#000000" font-family="sans-serif" font-size="20" lengthAdjust="spacing" textLength="222" x="136" y="564.0645">approves user request</text><polygon fill="#181818" points="716,604.0625,726,608.0625,716,612.0625,720,608.0625" style="stroke:#181818;stroke-width:1.0;"/><line style="stroke:#181818;stroke-width:1.0;" x1="455" x2="722" y1="608.0625" y2="608.0625"/><text fill="#000000" font-family="sans-serif" font-size="20" font-weight="bold" lengthAdjust="spacing" textLength="28" x="462" y="601.3457">12</text><text fill="#000000" font-family="sans-serif" font-size="20" lengthAdjust="spacing" textLength="222" x="494" y="601.3457">approves user request</text><polygon fill="#181818" points="999,641.3438,1009,645.3438,999,649.3438,1003,645.3438" style="stroke:#181818;stroke-width:1.0;"/><line style="stroke:#181818;stroke-width:1.0;" x1="738" x2="1005" y1="645.3438" y2="645.3438"/><text fill="#000000" font-family="sans-serif" font-size="20" font-weight="bold" lengthAdjust="spacing" textLength="28" x="745" y="638.627">13</text><text fill="#000000" font-family="sans-serif" font-size="20" lengthAdjust="spacing" textLength="222" x="777" y="638.627">approves user request</text><polygon fill="#181818" points="1312,678.625,1322,682.625,1312,686.625,1316,682.625" style="stroke:#181818;stroke-width:1.0;"/><line style="stroke:#181818;stroke-width:1.0;" x1="1021" x2="1318" y1="682.625" y2="682.625"/><text fill="#000000" font-family="sans-serif" font-size="20" font-weight="bold" lengthAdjust="spacing" textLength="28" x="1028" y="675.9082">14</text><text fill="#000000" font-family="sans-serif" font-size="20" lengthAdjust="spacing" textLength="252" x="1060" y="675.9082">patch('/users/:id/accept')</text><polygon fill="#181818" points="1613,715.9063,1623,719.9063,1613,723.9063,1617,719.9063" style="stroke:#181818;stroke-width:1.0;"/><line style="stroke:#181818;stroke-width:1.0;" x1="1334" x2="1619" y1="719.9063" y2="719.9063"/><text fill="#000000" font-family="sans-serif" font-size="20" font-weight="bold" lengthAdjust="spacing" textLength="28" x="1341" y="713.1895">15</text><text fill="#000000" font-family="sans-serif" font-size="20" lengthAdjust="spacing" textLength="240" x="1373" y="713.1895">PATCH /users/:id/accept</text><polygon fill="#181818" points="1345,753.1875,1335,757.1875,1345,761.1875,1341,757.1875" style="stroke:#181818;stroke-width:1.0;"/><line style="stroke:#181818;stroke-width:1.0;stroke-dasharray:2.0,2.0;" x1="1339" x2="1629" y1="757.1875" y2="757.1875"/><text fill="#000000" font-family="sans-serif" font-size="20" font-weight="bold" lengthAdjust="spacing" textLength="28" x="1351" y="750.4707">16</text><text fill="#000000" font-family="sans-serif" font-size="20" lengthAdjust="spacing" textLength="174" x="1383" y="750.4707">204 (No Content)</text><polygon fill="#181818" points="1032,790.4688,1022,794.4688,1032,798.4688,1028,794.4688" style="stroke:#181818;stroke-width:1.0;"/><line style="stroke:#181818;stroke-width:1.0;stroke-dasharray:2.0,2.0;" x1="1026" x2="1328" y1="794.4688" y2="794.4688"/><text fill="#000000" font-family="sans-serif" font-size="20" font-weight="bold" lengthAdjust="spacing" textLength="28" x="1038" y="787.752">17</text><text fill="#000000" font-family="sans-serif" font-size="20" lengthAdjust="spacing" textLength="6" x="1070" y="787.752"> </text><polygon fill="#181818" points="749,827.75,739,831.75,749,835.75,745,831.75" style="stroke:#181818;stroke-width:1.0;"/><line style="stroke:#181818;stroke-width:1.0;stroke-dasharray:2.0,2.0;" x1="743" x2="1015" y1="831.75" y2="831.75"/><text fill="#000000" font-family="sans-serif" font-size="20" font-weight="bold" lengthAdjust="spacing" textLength="28" x="755" y="825.0332">18</text><text fill="#000000" font-family="sans-serif" font-size="20" lengthAdjust="spacing" textLength="6" x="787" y="825.0332"> </text><polygon fill="#181818" points="466,865.0313,456,869.0313,466,873.0313,462,869.0313" style="stroke:#181818;stroke-width:1.0;"/><line style="stroke:#181818;stroke-width:1.0;stroke-dasharray:2.0,2.0;" x1="460" x2="732" y1="869.0313" y2="869.0313"/><text fill="#000000" font-family="sans-serif" font-size="20" font-weight="bold" lengthAdjust="spacing" textLength="28" x="472" y="862.3145">19</text><text fill="#000000" font-family="sans-serif" font-size="20" lengthAdjust="spacing" textLength="6" x="504" y="862.3145"> </text><polygon fill="#181818" points="108,902.3125,98,906.3125,108,910.3125,104,906.3125" style="stroke:#181818;stroke-width:1.0;"/><line style="stroke:#181818;stroke-width:1.0;stroke-dasharray:2.0,2.0;" x1="102" x2="449" y1="906.3125" y2="906.3125"/><text fill="#000000" font-family="sans-serif" font-size="20" font-weight="bold" lengthAdjust="spacing" textLength="28" x="114" y="899.5957">20</text><text fill="#000000" font-family="sans-serif" font-size="20" lengthAdjust="spacing" textLength="6" x="146" y="899.5957"> </text><line style="stroke:#000000;stroke-width:1.0;stroke-dasharray:2.0,2.0;" x1="10" x2="1740.5" y1="915.3125" y2="915.3125"/><text fill="#000000" font-family="sans-serif" font-size="20" font-weight="bold" lengthAdjust="spacing" textLength="192" x="15" y="933.877">[rejects request]</text><polygon fill="#181818" points="433,964.875,443,968.875,433,972.875,437,968.875" style="stroke:#181818;stroke-width:1.0;"/><line style="stroke:#181818;stroke-width:1.0;" x1="97" x2="439" y1="968.875" y2="968.875"/><text fill="#000000" font-family="sans-serif" font-size="20" font-weight="bold" lengthAdjust="spacing" textLength="28" x="104" y="962.1582">21</text><text fill="#000000" font-family="sans-serif" font-size="20" lengthAdjust="spacing" textLength="198" x="136" y="962.1582">rejects user request</text><polygon fill="#181818" points="716,1002.1563,726,1006.1563,716,1010.1563,720,1006.1563" style="stroke:#181818;stroke-width:1.0;"/><line style="stroke:#181818;stroke-width:1.0;" x1="455" x2="722" y1="1006.1563" y2="1006.1563"/><text fill="#000000" font-family="sans-serif" font-size="20" font-weight="bold" lengthAdjust="spacing" textLength="28" x="462" y="999.4395">22</text><text fill="#000000" font-family="sans-serif" font-size="20" lengthAdjust="spacing" textLength="198" x="494" y="999.4395">rejects user request</text><polygon fill="#181818" points="999,1039.4375,1009,1043.4375,999,1047.4375,1003,1043.4375" style="stroke:#181818;stroke-width:1.0;"/><line style="stroke:#181818;stroke-width:1.0;" x1="738" x2="1005" y1="1043.4375" y2="1043.4375"/><text fill="#000000" font-family="sans-serif" font-size="20" font-weight="bold" lengthAdjust="spacing" textLength="28" x="745" y="1036.7207">23</text><text fill="#000000" font-family="sans-serif" font-size="20" lengthAdjust="spacing" textLength="198" x="777" y="1036.7207">rejects user request</text><polygon fill="#181818" points="1312,1076.7188,1322,1080.7188,1312,1084.7188,1316,1080.7188" style="stroke:#181818;stroke-width:1.0;"/><line style="stroke:#181818;stroke-width:1.0;" x1="1021" x2="1318" y1="1080.7188" y2="1080.7188"/><text fill="#000000" font-family="sans-serif" font-size="20" font-weight="bold" lengthAdjust="spacing" textLength="28" x="1028" y="1074.002">24</text><text fill="#000000" font-family="sans-serif" font-size="20" lengthAdjust="spacing" textLength="242" x="1060" y="1074.002">patch('/users/:id/reject')</text><polygon fill="#181818" points="1613,1114,1623,1118,1613,1122,1617,1118" style="stroke:#181818;stroke-width:1.0;"/><line style="stroke:#181818;stroke-width:1.0;" x1="1334" x2="1619" y1="1118" y2="1118"/><text fill="#000000" font-family="sans-serif" font-size="20" font-weight="bold" lengthAdjust="spacing" textLength="28" x="1341" y="1111.2832">25</text><text fill="#000000" font-family="sans-serif" font-size="20" lengthAdjust="spacing" textLength="230" x="1373" y="1111.2832">PATCH /users/:id/reject</text><polygon fill="#181818" points="1345,1151.2813,1335,1155.2813,1345,1159.2813,1341,1155.2813" style="stroke:#181818;stroke-width:1.0;"/><line style="stroke:#181818;stroke-width:1.0;stroke-dasharray:2.0,2.0;" x1="1339" x2="1629" y1="1155.2813" y2="1155.2813"/><text fill="#000000" font-family="sans-serif" font-size="20" font-weight="bold" lengthAdjust="spacing" textLength="28" x="1351" y="1148.5645">26</text><text fill="#000000" font-family="sans-serif" font-size="20" lengthAdjust="spacing" textLength="174" x="1383" y="1148.5645">204 (No Content)</text><polygon fill="#181818" points="1032,1188.5625,1022,1192.5625,1032,1196.5625,1028,1192.5625" style="stroke:#181818;stroke-width:1.0;"/><line style="stroke:#181818;stroke-width:1.0;stroke-dasharray:2.0,2.0;" x1="1026" x2="1328" y1="1192.5625" y2="1192.5625"/><text fill="#000000" font-family="sans-serif" font-size="20" font-weight="bold" lengthAdjust="spacing" textLength="28" x="1038" y="1185.8457">27</text><text fill="#000000" font-family="sans-serif" font-size="20" lengthAdjust="spacing" textLength="6" x="1070" y="1185.8457"> </text><polygon fill="#181818" points="749,1225.8438,739,1229.8438,749,1233.8438,745,1229.8438" style="stroke:#181818;stroke-width:1.0;"/><line style="stroke:#181818;stroke-width:1.0;stroke-dasharray:2.0,2.0;" x1="743" x2="1015" y1="1229.8438" y2="1229.8438"/><text fill="#000000" font-family="sans-serif" font-size="20" font-weight="bold" lengthAdjust="spacing" textLength="28" x="755" y="1223.127">28</text><text fill="#000000" font-family="sans-serif" font-size="20" lengthAdjust="spacing" textLength="6" x="787" y="1223.127"> </text><polygon fill="#181818" points="466,1263.125,456,1267.125,466,1271.125,462,1267.125" style="stroke:#181818;stroke-width:1.0;"/><line style="stroke:#181818;stroke-width:1.0;stroke-dasharray:2.0,2.0;" x1="460" x2="732" y1="1267.125" y2="1267.125"/><text fill="#000000" font-family="sans-serif" font-size="20" font-weight="bold" lengthAdjust="spacing" textLength="28" x="472" y="1260.4082">29</text><text fill="#000000" font-family="sans-serif" font-size="20" lengthAdjust="spacing" textLength="6" x="504" y="1260.4082"> </text><polygon fill="#181818" points="108,1300.4063,98,1304.4063,108,1308.4063,104,1304.4063" style="stroke:#181818;stroke-width:1.0;"/><line style="stroke:#181818;stroke-width:1.0;stroke-dasharray:2.0,2.0;" x1="102" x2="449" y1="1304.4063" y2="1304.4063"/><text fill="#000000" font-family="sans-serif" font-size="20" font-weight="bold" lengthAdjust="spacing" textLength="28" x="114" y="1297.6895">30</text><text fill="#000000" font-family="sans-serif" font-size="20" lengthAdjust="spacing" textLength="6" x="146" y="1297.6895"> </text><!--SRC=[lPJ1Rjf048Rl-nGZUW0E4IZAoKAM4BHDrRg92erKgPUDFILRx5tNEoPfdhwpwzWaCHXNgdf1nlx-ySx_2UnMwLmMCajDlCK44lmXovJU6KqhzOXmFXMo9AFBx1OBOMiQbXMtnWUQfsgZCzGqcyNyYKKOGdKXX8p9531VHY0j3EP9fhIoL4Y-En2tvW46ivdzRGap62qkml2xlb6sbAbwbAIC7kn72W1-CwbOvL8JBA9hF_Bh1rYOB3UQiG4mNdznyyQjM7IrzB7896MAFGAhBpS-iC9Yf-8-YSlrkZgQkpZ8eqw0TnVj0iQkWMW9aTHoWrczqrC5RpwfpHrzmpGrzw_tUcgudJtwSbQZTfBGsH72AJeBVQq1JzfQ80CfkmADzr1QB8OM2lnLeYMxpp8lN8QZhjgWHuGvuLYEk7BxH9WJZkM8RpU03T9eEAd9uNZFEa08Zxb3yLe1l7-xXic1a_3Y3ZZRppsVJc5qzN4i4do1LVEQ8pUpdc7-nVwKJHc7CBUBNxzf-n3bIlAzCZNtEnoYNFj2fWGopmkpmwQxrpxhnwxXXZakyGJVCdY2R-lB9SLtBD3nTXAeP2BZ67DgYNpfyNg-Nbn2AtN2w0MCFXl-b-0VaQPkirq-EoHsc6lfmjGYL_GJOpgcgtxQqrOttfBLZVTnLKtuMrTLwf-v-X-gT2AUttJC7m00]--></g></svg>