<?xml version="1.0" encoding="UTF-8" standalone="no"?><svg xmlns="http://www.w3.org/2000/svg" xmlns:xlink="http://www.w3.org/1999/xlink" contentStyleType="text/css" height="1572px" preserveAspectRatio="none" style="width:1620px;height:1572px;background:#FFFFFF;" version="1.1" viewBox="0 0 1620 1572" width="1620px" zoomAndPan="magnify"><defs/><g><rect fill="#DDDDDD" height="1560.119" style="stroke:#181818;stroke-width:0.5;" width="997.75" x="329.125" y="6"/><text fill="#000000" font-family="sans-serif" font-size="20" font-weight="bold" lengthAdjust="spacing" textLength="128.875" x="763.5625" y="27.38">«system (C4»</text><text fill="#000000" font-family="sans-serif" font-size="20" font-weight="bold" lengthAdjust="spacing" textLength="124.125" x="765.9375" y="54.62">Visualization</text><rect fill="#FFFFE0" height="1560.119" style="stroke:#181818;stroke-width:0.5;" width="184" x="1423.125" y="6"/><text fill="#000000" font-family="sans-serif" font-size="20" font-weight="bold" lengthAdjust="spacing" textLength="135.5" x="1447.375" y="27.38">«system (C4)»</text><text fill="#000000" font-family="sans-serif" font-size="20" font-weight="bold" lengthAdjust="spacing" textLength="169.5" x="1430.375" y="54.62">MD Management</text><rect fill="#FFFFFF" height="1321.9192" style="stroke:#181818;stroke-width:1.0;" width="10" x="82.5" y="143.9599"/><rect fill="#FFFFFF" height="371.1598" style="stroke:#181818;stroke-width:1.0;" width="10" x="416.125" y="177.1999"/><rect fill="#FFFFFF" height="371.1598" style="stroke:#181818;stroke-width:1.0;" width="10" x="416.125" y="638.0796"/><rect fill="#FFFFFF" height="371.1598" style="stroke:#181818;stroke-width:1.0;" width="10" x="416.125" y="1079.7193"/><rect fill="#FFFFFF" height="288.6798" style="stroke:#181818;stroke-width:1.0;" width="10" x="680.375" y="218.4398"/><rect fill="#FFFFFF" height="288.6798" style="stroke:#181818;stroke-width:1.0;" width="10" x="680.375" y="679.3195"/><rect fill="#FFFFFF" height="288.6798" style="stroke:#181818;stroke-width:1.0;" width="10" x="680.375" y="1120.9593"/><rect fill="#FFFFFF" height="206.1999" style="stroke:#181818;stroke-width:1.0;" width="10" x="944.625" y="259.6798"/><rect fill="#FFFFFF" height="206.1999" style="stroke:#181818;stroke-width:1.0;" width="10" x="944.625" y="720.5595"/><rect fill="#FFFFFF" height="206.1999" style="stroke:#181818;stroke-width:1.0;" width="10" x="944.625" y="1162.1992"/><rect fill="#FFFFFF" height="123.7199" style="stroke:#181818;stroke-width:1.0;" width="10" x="1229.875" y="300.9198"/><rect fill="#FFFFFF" height="123.7199" style="stroke:#181818;stroke-width:1.0;" width="10" x="1229.875" y="761.7995"/><rect fill="#FFFFFF" height="123.7199" style="stroke:#181818;stroke-width:1.0;" width="10" x="1229.875" y="1203.4392"/><rect fill="#FFFFFF" height="41.24" style="stroke:#181818;stroke-width:1.0;" width="10" x="1510.125" y="342.1598"/><rect fill="#FFFFFF" height="41.24" style="stroke:#181818;stroke-width:1.0;" width="10" x="1510.125" y="803.0395"/><rect fill="#FFFFFF" height="41.24" style="stroke:#181818;stroke-width:1.0;" width="10" x="1510.125" y="1244.6792"/><rect fill="none" height="895.5194" style="stroke:#000000;stroke-width:1.5;" width="1603.125" x="10" y="563.3596"/><line style="stroke:#181818;stroke-width:0.5;stroke-dasharray:5.0,5.0;" x1="87" x2="87" y1="133.9599" y2="1475.8791"/><line style="stroke:#181818;stroke-width:0.5;stroke-dasharray:5.0,5.0;" x1="421.125" x2="421.125" y1="133.9599" y2="1475.8791"/><line style="stroke:#181818;stroke-width:0.5;stroke-dasharray:5.0,5.0;" x1="685.375" x2="685.375" y1="133.9599" y2="1475.8791"/><line style="stroke:#181818;stroke-width:0.5;stroke-dasharray:5.0,5.0;" x1="949.625" x2="949.625" y1="133.9599" y2="1475.8791"/><line style="stroke:#181818;stroke-width:0.5;stroke-dasharray:5.0,5.0;" x1="1234.875" x2="1234.875" y1="133.9599" y2="1475.8791"/><line style="stroke:#181818;stroke-width:0.5;stroke-dasharray:5.0,5.0;" x1="1515.125" x2="1515.125" y1="133.9599" y2="1475.8791"/><text fill="#000000" font-family="sans-serif" font-size="20" lengthAdjust="spacing" textLength="129" x="20" y="128.0999">Administrator</text><ellipse cx="87.5" cy="55.2199" fill="#E2E2F0" rx="8" ry="8" style="stroke:#181818;stroke-width:0.5;"/><path d="M87.5,63.2199 L87.5,90.2199 M74.5,71.2199 L100.5,71.2199 M87.5,90.2199 L74.5,105.2199 M87.5,90.2199 L100.5,105.2199 " fill="none" style="stroke:#181818;stroke-width:0.5;"/><text fill="#000000" font-family="sans-serif" font-size="20" lengthAdjust="spacing" textLength="129" x="20" y="1496.2591">Administrator</text><ellipse cx="87.5" cy="1510.619" fill="#E2E2F0" rx="8" ry="8" style="stroke:#181818;stroke-width:0.5;"/><path d="M87.5,1518.619 L87.5,1545.619 M74.5,1526.619 L100.5,1526.619 M87.5,1545.619 L74.5,1560.619 M87.5,1545.619 L100.5,1560.619 " fill="none" style="stroke:#181818;stroke-width:0.5;"/><rect fill="#E2E2F0" height="68.4799" rx="2.5" ry="2.5" style="stroke:#181818;stroke-width:0.5;" width="176" x="333.125" y="64.4799"/><text fill="#000000" font-family="sans-serif" font-size="20" font-style="italic" lengthAdjust="spacing" textLength="162" x="340.125" y="92.8599">«component (C4)»</text><text fill="#000000" font-family="sans-serif" font-size="20" lengthAdjust="spacing" textLength="137" x="352.625" y="120.0999">UI Component</text><rect fill="#E2E2F0" height="68.4799" rx="2.5" ry="2.5" style="stroke:#181818;stroke-width:0.5;" width="176" x="333.125" y="1474.8791"/><text fill="#000000" font-family="sans-serif" font-size="20" font-style="italic" lengthAdjust="spacing" textLength="162" x="340.125" y="1503.2591">«component (C4)»</text><text fill="#000000" font-family="sans-serif" font-size="20" lengthAdjust="spacing" textLength="137" x="352.625" y="1530.499">UI Component</text><rect fill="#E2E2F0" height="68.4799" rx="2.5" ry="2.5" style="stroke:#181818;stroke-width:0.5;" width="176" x="597.375" y="64.4799"/><text fill="#000000" font-family="sans-serif" font-size="20" font-style="italic" lengthAdjust="spacing" textLength="162" x="604.375" y="92.8599">«component (C4)»</text><text fill="#000000" font-family="sans-serif" font-size="20" lengthAdjust="spacing" textLength="70" x="650.375" y="120.0999">Module</text><rect fill="#E2E2F0" height="68.4799" rx="2.5" ry="2.5" style="stroke:#181818;stroke-width:0.5;" width="176" x="597.375" y="1474.8791"/><text fill="#000000" font-family="sans-serif" font-size="20" font-style="italic" lengthAdjust="spacing" textLength="162" x="604.375" y="1503.2591">«component (C4)»</text><text fill="#000000" font-family="sans-serif" font-size="20" lengthAdjust="spacing" textLength="70" x="650.375" y="1530.499">Module</text><rect fill="#E2E2F0" height="68.4799" rx="2.5" ry="2.5" style="stroke:#181818;stroke-width:0.5;" width="176" x="861.625" y="64.4799"/><text fill="#000000" font-family="sans-serif" font-size="20" font-style="italic" lengthAdjust="spacing" textLength="162" x="868.625" y="92.8599">«component (C4)»</text><text fill="#000000" font-family="sans-serif" font-size="20" lengthAdjust="spacing" textLength="66" x="916.625" y="120.0999">Service</text><rect fill="#E2E2F0" height="68.4799" rx="2.5" ry="2.5" style="stroke:#181818;stroke-width:0.5;" width="176" x="861.625" y="1474.8791"/><text fill="#000000" font-family="sans-serif" font-size="20" font-style="italic" lengthAdjust="spacing" textLength="162" x="868.625" y="1503.2591">«component (C4)»</text><text fill="#000000" font-family="sans-serif" font-size="20" lengthAdjust="spacing" textLength="66" x="916.625" y="1530.499">Service</text><rect fill="#E2E2F0" height="68.4799" rx="2.5" ry="2.5" style="stroke:#181818;stroke-width:0.5;" width="176" x="1146.875" y="64.4799"/><text fill="#000000" font-family="sans-serif" font-size="20" font-style="italic" lengthAdjust="spacing" textLength="162" x="1153.875" y="92.8599">«component (C4)»</text><text fill="#000000" font-family="sans-serif" font-size="20" lengthAdjust="spacing" textLength="49" x="1210.375" y="120.0999">HTTP</text><rect fill="#E2E2F0" height="68.4799" rx="2.5" ry="2.5" style="stroke:#181818;stroke-width:0.5;" width="176" x="1146.875" y="1474.8791"/><text fill="#000000" font-family="sans-serif" font-size="20" font-style="italic" lengthAdjust="spacing" textLength="162" x="1153.875" y="1503.2591">«component (C4)»</text><text fill="#000000" font-family="sans-serif" font-size="20" lengthAdjust="spacing" textLength="49" x="1210.375" y="1530.499">HTTP</text><rect fill="#E2E2F0" height="68.4799" rx="2.5" ry="2.5" style="stroke:#181818;stroke-width:0.5;" width="176" x="1427.125" y="64.4799"/><text fill="#000000" font-family="sans-serif" font-size="20" font-style="italic" lengthAdjust="spacing" textLength="162" x="1434.125" y="92.8599">«component (C4)»</text><text fill="#000000" font-family="sans-serif" font-size="20" lengthAdjust="spacing" textLength="162" x="1434.125" y="120.0999">MD Management</text><rect fill="#E2E2F0" height="68.4799" rx="2.5" ry="2.5" style="stroke:#181818;stroke-width:0.5;" width="176" x="1427.125" y="1474.8791"/><text fill="#000000" font-family="sans-serif" font-size="20" font-style="italic" lengthAdjust="spacing" textLength="162" x="1434.125" y="1503.2591">«component (C4)»</text><text fill="#000000" font-family="sans-serif" font-size="20" lengthAdjust="spacing" textLength="162" x="1434.125" y="1530.499">MD Management</text><rect fill="#FFFFFF" height="1321.9192" style="stroke:#181818;stroke-width:1.0;" width="10" x="82.5" y="143.9599"/><rect fill="#FFFFFF" height="371.1598" style="stroke:#181818;stroke-width:1.0;" width="10" x="416.125" y="177.1999"/><rect fill="#FFFFFF" height="371.1598" style="stroke:#181818;stroke-width:1.0;" width="10" x="416.125" y="638.0796"/><rect fill="#FFFFFF" height="371.1598" style="stroke:#181818;stroke-width:1.0;" width="10" x="416.125" y="1079.7193"/><rect fill="#FFFFFF" height="288.6798" style="stroke:#181818;stroke-width:1.0;" width="10" x="680.375" y="218.4398"/><rect fill="#FFFFFF" height="288.6798" style="stroke:#181818;stroke-width:1.0;" width="10" x="680.375" y="679.3195"/><rect fill="#FFFFFF" height="288.6798" style="stroke:#181818;stroke-width:1.0;" width="10" x="680.375" y="1120.9593"/><rect fill="#FFFFFF" height="206.1999" style="stroke:#181818;stroke-width:1.0;" width="10" x="944.625" y="259.6798"/><rect fill="#FFFFFF" height="206.1999" style="stroke:#181818;stroke-width:1.0;" width="10" x="944.625" y="720.5595"/><rect fill="#FFFFFF" height="206.1999" style="stroke:#181818;stroke-width:1.0;" width="10" x="944.625" y="1162.1992"/><rect fill="#FFFFFF" height="123.7199" style="stroke:#181818;stroke-width:1.0;" width="10" x="1229.875" y="300.9198"/><rect fill="#FFFFFF" height="123.7199" style="stroke:#181818;stroke-width:1.0;" width="10" x="1229.875" y="761.7995"/><rect fill="#FFFFFF" height="123.7199" style="stroke:#181818;stroke-width:1.0;" width="10" x="1229.875" y="1203.4392"/><rect fill="#FFFFFF" height="41.24" style="stroke:#181818;stroke-width:1.0;" width="10" x="1510.125" y="342.1598"/><rect fill="#FFFFFF" height="41.24" style="stroke:#181818;stroke-width:1.0;" width="10" x="1510.125" y="803.0395"/><rect fill="#FFFFFF" height="41.24" style="stroke:#181818;stroke-width:1.0;" width="10" x="1510.125" y="1244.6792"/><polygon fill="#181818" points="404.125,173.1999,414.125,177.1999,404.125,181.1999,408.125,177.1999" style="stroke:#181818;stroke-width:1.0;"/><line style="stroke:#181818;stroke-width:1.0;" x1="92.5" x2="410.125" y1="177.1999" y2="177.1999"/><text fill="#000000" font-family="sans-serif" font-size="20" font-weight="bold" lengthAdjust="spacing" textLength="11.625" x="99.5" y="169.3399">1</text><text fill="#000000" font-family="sans-serif" font-size="20" lengthAdjust="spacing" textLength="289" x="115.125" y="169.3399">asks to list new user's requests</text><polygon fill="#181818" points="668.375,214.4398,678.375,218.4398,668.375,222.4398,672.375,218.4398" style="stroke:#181818;stroke-width:1.0;"/><line style="stroke:#181818;stroke-width:1.0;" x1="426.125" x2="674.375" y1="218.4398" y2="218.4398"/><text fill="#000000" font-family="sans-serif" font-size="20" font-weight="bold" lengthAdjust="spacing" textLength="11.625" x="433.125" y="210.5799">2</text><text fill="#000000" font-family="sans-serif" font-size="20" lengthAdjust="spacing" textLength="218" x="448.75" y="210.5799">list new user's requests</text><polygon fill="#181818" points="932.625,255.6798,942.625,259.6798,932.625,263.6798,936.625,259.6798" style="stroke:#181818;stroke-width:1.0;"/><line style="stroke:#181818;stroke-width:1.0;" x1="690.375" x2="938.625" y1="259.6798" y2="259.6798"/><text fill="#000000" font-family="sans-serif" font-size="20" font-weight="bold" lengthAdjust="spacing" textLength="11.625" x="697.375" y="251.8198">3</text><text fill="#000000" font-family="sans-serif" font-size="20" lengthAdjust="spacing" textLength="218" x="713" y="251.8198">list new user's requests</text><polygon fill="#181818" points="1217.875,296.9198,1227.875,300.9198,1217.875,304.9198,1221.875,300.9198" style="stroke:#181818;stroke-width:1.0;"/><line style="stroke:#181818;stroke-width:1.0;" x1="954.625" x2="1223.875" y1="300.9198" y2="300.9198"/><text fill="#000000" font-family="sans-serif" font-size="20" font-weight="bold" lengthAdjust="spacing" textLength="11.625" x="961.625" y="293.0598">4</text><text fill="#000000" font-family="sans-serif" font-size="20" lengthAdjust="spacing" textLength="140" x="977.25" y="293.0598">get('/requests')</text><polygon fill="#181818" points="1498.125,338.1598,1508.125,342.1598,1498.125,346.1598,1502.125,342.1598" style="stroke:#181818;stroke-width:1.0;"/><line style="stroke:#181818;stroke-width:1.0;" x1="1239.875" x2="1504.125" y1="342.1598" y2="342.1598"/><text fill="#000000" font-family="sans-serif" font-size="20" font-weight="bold" lengthAdjust="spacing" textLength="11.625" x="1246.875" y="334.2998">5</text><text fill="#000000" font-family="sans-serif" font-size="20" lengthAdjust="spacing" textLength="130" x="1262.5" y="334.2998">GET /requests</text><polygon fill="#181818" points="1250.875,379.3997,1240.875,383.3997,1250.875,387.3997,1246.875,383.3997" style="stroke:#181818;stroke-width:1.0;"/><line style="stroke:#181818;stroke-width:1.0;stroke-dasharray:2.0,2.0;" x1="1244.875" x2="1514.125" y1="383.3997" y2="383.3997"/><text fill="#000000" font-family="sans-serif" font-size="20" font-weight="bold" lengthAdjust="spacing" textLength="11.625" x="1256.875" y="375.5398">6</text><text fill="#000000" font-family="sans-serif" font-size="20" lengthAdjust="spacing" textLength="78" x="1272.5" y="375.5398">200 (OK)</text><polygon fill="#181818" points="965.625,420.6397,955.625,424.6397,965.625,428.6397,961.625,424.6397" style="stroke:#181818;stroke-width:1.0;"/><line style="stroke:#181818;stroke-width:1.0;stroke-dasharray:2.0,2.0;" x1="959.625" x2="1233.875" y1="424.6397" y2="424.6397"/><text fill="#000000" font-family="sans-serif" font-size="20" font-weight="bold" lengthAdjust="spacing" textLength="11.625" x="971.625" y="416.7797">7</text><text fill="#000000" font-family="sans-serif" font-size="20" lengthAdjust="spacing" textLength="81" x="987.25" y="416.7797">requests</text><polygon fill="#181818" points="701.375,461.8797,691.375,465.8797,701.375,469.8797,697.375,465.8797" style="stroke:#181818;stroke-width:1.0;"/><line style="stroke:#181818;stroke-width:1.0;stroke-dasharray:2.0,2.0;" x1="695.375" x2="948.625" y1="465.8797" y2="465.8797"/><text fill="#000000" font-family="sans-serif" font-size="20" font-weight="bold" lengthAdjust="spacing" textLength="11.625" x="707.375" y="458.0197">8</text><text fill="#000000" font-family="sans-serif" font-size="20" lengthAdjust="spacing" textLength="81" x="723" y="458.0197">requests</text><polygon fill="#181818" points="437.125,503.1197,427.125,507.1197,437.125,511.1197,433.125,507.1197" style="stroke:#181818;stroke-width:1.0;"/><line style="stroke:#181818;stroke-width:1.0;stroke-dasharray:2.0,2.0;" x1="431.125" x2="684.375" y1="507.1197" y2="507.1197"/><text fill="#000000" font-family="sans-serif" font-size="20" font-weight="bold" lengthAdjust="spacing" textLength="11.625" x="443.125" y="499.2597">9</text><text fill="#000000" font-family="sans-serif" font-size="20" lengthAdjust="spacing" textLength="81" x="458.75" y="499.2597">requests</text><polygon fill="#181818" points="103.5,544.3596,93.5,548.3596,103.5,552.3596,99.5,548.3596" style="stroke:#181818;stroke-width:1.0;"/><line style="stroke:#181818;stroke-width:1.0;stroke-dasharray:2.0,2.0;" x1="97.5" x2="420.125" y1="548.3596" y2="548.3596"/><text fill="#000000" font-family="sans-serif" font-size="20" font-weight="bold" lengthAdjust="spacing" textLength="23.25" x="109.5" y="540.4997">10</text><text fill="#000000" font-family="sans-serif" font-size="20" lengthAdjust="spacing" textLength="81" x="136.75" y="540.4997">requests</text><path d="M10,563.3596 L79.875,563.3596 L79.875,582.5996 L69.875,592.5996 L10,592.5996 L10,563.3596 " fill="#EEEEEE" style="stroke:#000000;stroke-width:1.5;"/><rect fill="none" height="895.5194" style="stroke:#000000;stroke-width:1.5;" width="1603.125" x="10" y="563.3596"/><text fill="#000000" font-family="sans-serif" font-size="20" font-weight="bold" lengthAdjust="spacing" textLength="24.875" x="25" y="585.7396">alt</text><text fill="#000000" font-family="sans-serif" font-size="20" font-weight="bold" lengthAdjust="spacing" textLength="186.625" x="94.875" y="586.7396">[approves request]</text><polygon fill="#181818" points="404.125,634.0796,414.125,638.0796,404.125,642.0796,408.125,638.0796" style="stroke:#181818;stroke-width:1.0;"/><line style="stroke:#181818;stroke-width:1.0;" x1="92.5" x2="410.125" y1="638.0796" y2="638.0796"/><text fill="#000000" font-family="sans-serif" font-size="20" font-weight="bold" lengthAdjust="spacing" textLength="23.25" x="99.5" y="630.2196">11</text><text fill="#000000" font-family="sans-serif" font-size="20" lengthAdjust="spacing" textLength="208" x="126.75" y="630.2196">approves user request</text><polygon fill="#181818" points="668.375,675.3195,678.375,679.3195,668.375,683.3195,672.375,679.3195" style="stroke:#181818;stroke-width:1.0;"/><line style="stroke:#181818;stroke-width:1.0;" x1="426.125" x2="674.375" y1="679.3195" y2="679.3195"/><text fill="#000000" font-family="sans-serif" font-size="20" font-weight="bold" lengthAdjust="spacing" textLength="23.25" x="433.125" y="671.4596">12</text><text fill="#000000" font-family="sans-serif" font-size="20" lengthAdjust="spacing" textLength="208" x="460.375" y="671.4596">approves user request</text><polygon fill="#181818" points="932.625,716.5595,942.625,720.5595,932.625,724.5595,936.625,720.5595" style="stroke:#181818;stroke-width:1.0;"/><line style="stroke:#181818;stroke-width:1.0;" x1="690.375" x2="938.625" y1="720.5595" y2="720.5595"/><text fill="#000000" font-family="sans-serif" font-size="20" font-weight="bold" lengthAdjust="spacing" textLength="23.25" x="697.375" y="712.6995">13</text><text fill="#000000" font-family="sans-serif" font-size="20" lengthAdjust="spacing" textLength="208" x="724.625" y="712.6995">approves user request</text><polygon fill="#181818" points="1217.875,757.7995,1227.875,761.7995,1217.875,765.7995,1221.875,761.7995" style="stroke:#181818;stroke-width:1.0;"/><line style="stroke:#181818;stroke-width:1.0;" x1="954.625" x2="1223.875" y1="761.7995" y2="761.7995"/><text fill="#000000" font-family="sans-serif" font-size="20" font-weight="bold" lengthAdjust="spacing" textLength="23.25" x="961.625" y="753.9395">14</text><text fill="#000000" font-family="sans-serif" font-size="20" lengthAdjust="spacing" textLength="229" x="988.875" y="753.9395">patch('/users/:id/accept')</text><polygon fill="#181818" points="1498.125,799.0395,1508.125,803.0395,1498.125,807.0395,1502.125,803.0395" style="stroke:#181818;stroke-width:1.0;"/><line style="stroke:#181818;stroke-width:1.0;" x1="1239.875" x2="1504.125" y1="803.0395" y2="803.0395"/><text fill="#000000" font-family="sans-serif" font-size="20" font-weight="bold" lengthAdjust="spacing" textLength="23.25" x="1246.875" y="795.1795">15</text><text fill="#000000" font-family="sans-serif" font-size="20" lengthAdjust="spacing" textLength="224" x="1274.125" y="795.1795">PATCH /users/:id/accept</text><polygon fill="#181818" points="1250.875,840.2794,1240.875,844.2794,1250.875,848.2794,1246.875,844.2794" style="stroke:#181818;stroke-width:1.0;"/><line style="stroke:#181818;stroke-width:1.0;stroke-dasharray:2.0,2.0;" x1="1244.875" x2="1514.125" y1="844.2794" y2="844.2794"/><text fill="#000000" font-family="sans-serif" font-size="20" font-weight="bold" lengthAdjust="spacing" textLength="23.25" x="1256.875" y="836.4195">16</text><text fill="#000000" font-family="sans-serif" font-size="20" lengthAdjust="spacing" textLength="156" x="1284.125" y="836.4195">204 (No Content)</text><polygon fill="#181818" points="965.625,881.5194,955.625,885.5194,965.625,889.5194,961.625,885.5194" style="stroke:#181818;stroke-width:1.0;"/><line style="stroke:#181818;stroke-width:1.0;stroke-dasharray:2.0,2.0;" x1="959.625" x2="1233.875" y1="885.5194" y2="885.5194"/><text fill="#000000" font-family="sans-serif" font-size="20" font-weight="bold" lengthAdjust="spacing" textLength="23.25" x="971.625" y="877.6594">17</text><text fill="#000000" font-family="sans-serif" font-size="20" lengthAdjust="spacing" textLength="5" x="998.875" y="877.6594"> </text><polygon fill="#181818" points="701.375,922.7594,691.375,926.7594,701.375,930.7594,697.375,926.7594" style="stroke:#181818;stroke-width:1.0;"/><line style="stroke:#181818;stroke-width:1.0;stroke-dasharray:2.0,2.0;" x1="695.375" x2="948.625" y1="926.7594" y2="926.7594"/><text fill="#000000" font-family="sans-serif" font-size="20" font-weight="bold" lengthAdjust="spacing" textLength="23.25" x="707.375" y="918.8994">18</text><text fill="#000000" font-family="sans-serif" font-size="20" lengthAdjust="spacing" textLength="5" x="734.625" y="918.8994"> </text><polygon fill="#181818" points="437.125,963.9994,427.125,967.9994,437.125,971.9994,433.125,967.9994" style="stroke:#181818;stroke-width:1.0;"/><line style="stroke:#181818;stroke-width:1.0;stroke-dasharray:2.0,2.0;" x1="431.125" x2="684.375" y1="967.9994" y2="967.9994"/><text fill="#000000" font-family="sans-serif" font-size="20" font-weight="bold" lengthAdjust="spacing" textLength="23.25" x="443.125" y="960.1394">19</text><text fill="#000000" font-family="sans-serif" font-size="20" lengthAdjust="spacing" textLength="5" x="470.375" y="960.1394"> </text><polygon fill="#181818" points="103.5,1005.2393,93.5,1009.2393,103.5,1013.2393,99.5,1009.2393" style="stroke:#181818;stroke-width:1.0;"/><line style="stroke:#181818;stroke-width:1.0;stroke-dasharray:2.0,2.0;" x1="97.5" x2="420.125" y1="1009.2393" y2="1009.2393"/><text fill="#000000" font-family="sans-serif" font-size="20" font-weight="bold" lengthAdjust="spacing" textLength="23.25" x="109.5" y="1001.3794">20</text><text fill="#000000" font-family="sans-serif" font-size="20" lengthAdjust="spacing" textLength="5" x="136.75" y="1001.3794"> </text><line style="stroke:#000000;stroke-width:1.0;stroke-dasharray:2.0,2.0;" x1="10" x2="1613.125" y1="1018.2393" y2="1018.2393"/><text fill="#000000" font-family="sans-serif" font-size="20" font-weight="bold" lengthAdjust="spacing" textLength="162" x="15" y="1039.6193">[rejects request]</text><polygon fill="#181818" points="404.125,1075.7193,414.125,1079.7193,404.125,1083.7193,408.125,1079.7193" style="stroke:#181818;stroke-width:1.0;"/><line style="stroke:#181818;stroke-width:1.0;" x1="92.5" x2="410.125" y1="1079.7193" y2="1079.7193"/><text fill="#000000" font-family="sans-serif" font-size="20" font-weight="bold" lengthAdjust="spacing" textLength="23.25" x="99.5" y="1071.8593">21</text><text fill="#000000" font-family="sans-serif" font-size="20" lengthAdjust="spacing" textLength="184" x="126.75" y="1071.8593">rejects user request</text><polygon fill="#181818" points="668.375,1116.9593,678.375,1120.9593,668.375,1124.9593,672.375,1120.9593" style="stroke:#181818;stroke-width:1.0;"/><line style="stroke:#181818;stroke-width:1.0;" x1="426.125" x2="674.375" y1="1120.9593" y2="1120.9593"/><text fill="#000000" font-family="sans-serif" font-size="20" font-weight="bold" lengthAdjust="spacing" textLength="23.25" x="433.125" y="1113.0993">22</text><text fill="#000000" font-family="sans-serif" font-size="20" lengthAdjust="spacing" textLength="184" x="460.375" y="1113.0993">rejects user request</text><polygon fill="#181818" points="932.625,1158.1992,942.625,1162.1992,932.625,1166.1992,936.625,1162.1992" style="stroke:#181818;stroke-width:1.0;"/><line style="stroke:#181818;stroke-width:1.0;" x1="690.375" x2="938.625" y1="1162.1992" y2="1162.1992"/><text fill="#000000" font-family="sans-serif" font-size="20" font-weight="bold" lengthAdjust="spacing" textLength="23.25" x="697.375" y="1154.3393">23</text><text fill="#000000" font-family="sans-serif" font-size="20" lengthAdjust="spacing" textLength="184" x="724.625" y="1154.3393">rejects user request</text><polygon fill="#181818" points="1217.875,1199.4392,1227.875,1203.4392,1217.875,1207.4392,1221.875,1203.4392" style="stroke:#181818;stroke-width:1.0;"/><line style="stroke:#181818;stroke-width:1.0;" x1="954.625" x2="1223.875" y1="1203.4392" y2="1203.4392"/><text fill="#000000" font-family="sans-serif" font-size="20" font-weight="bold" lengthAdjust="spacing" textLength="23.25" x="961.625" y="1195.5792">24</text><text fill="#000000" font-family="sans-serif" font-size="20" lengthAdjust="spacing" textLength="220" x="988.875" y="1195.5792">patch('/users/:id/reject')</text><polygon fill="#181818" points="1498.125,1240.6792,1508.125,1244.6792,1498.125,1248.6792,1502.125,1244.6792" style="stroke:#181818;stroke-width:1.0;"/><line style="stroke:#181818;stroke-width:1.0;" x1="1239.875" x2="1504.125" y1="1244.6792" y2="1244.6792"/><text fill="#000000" font-family="sans-serif" font-size="20" font-weight="bold" lengthAdjust="spacing" textLength="23.25" x="1246.875" y="1236.8192">25</text><text fill="#000000" font-family="sans-serif" font-size="20" lengthAdjust="spacing" textLength="215" x="1274.125" y="1236.8192">PATCH /users/:id/reject</text><polygon fill="#181818" points="1250.875,1281.9192,1240.875,1285.9192,1250.875,1289.9192,1246.875,1285.9192" style="stroke:#181818;stroke-width:1.0;"/><line style="stroke:#181818;stroke-width:1.0;stroke-dasharray:2.0,2.0;" x1="1244.875" x2="1514.125" y1="1285.9192" y2="1285.9192"/><text fill="#000000" font-family="sans-serif" font-size="20" font-weight="bold" lengthAdjust="spacing" textLength="23.25" x="1256.875" y="1278.0592">26</text><text fill="#000000" font-family="sans-serif" font-size="20" lengthAdjust="spacing" textLength="156" x="1284.125" y="1278.0592">204 (No Content)</text><polygon fill="#181818" points="965.625,1323.1591,955.625,1327.1591,965.625,1331.1591,961.625,1327.1591" style="stroke:#181818;stroke-width:1.0;"/><line style="stroke:#181818;stroke-width:1.0;stroke-dasharray:2.0,2.0;" x1="959.625" x2="1233.875" y1="1327.1591" y2="1327.1591"/><text fill="#000000" font-family="sans-serif" font-size="20" font-weight="bold" lengthAdjust="spacing" textLength="23.25" x="971.625" y="1319.2992">27</text><text fill="#000000" font-family="sans-serif" font-size="20" lengthAdjust="spacing" textLength="5" x="998.875" y="1319.2992"> </text><polygon fill="#181818" points="701.375,1364.3991,691.375,1368.3991,701.375,1372.3991,697.375,1368.3991" style="stroke:#181818;stroke-width:1.0;"/><line style="stroke:#181818;stroke-width:1.0;stroke-dasharray:2.0,2.0;" x1="695.375" x2="948.625" y1="1368.3991" y2="1368.3991"/><text fill="#000000" font-family="sans-serif" font-size="20" font-weight="bold" lengthAdjust="spacing" textLength="23.25" x="707.375" y="1360.5391">28</text><text fill="#000000" font-family="sans-serif" font-size="20" lengthAdjust="spacing" textLength="5" x="734.625" y="1360.5391"> </text><polygon fill="#181818" points="437.125,1405.6391,427.125,1409.6391,437.125,1413.6391,433.125,1409.6391" style="stroke:#181818;stroke-width:1.0;"/><line style="stroke:#181818;stroke-width:1.0;stroke-dasharray:2.0,2.0;" x1="431.125" x2="684.375" y1="1409.6391" y2="1409.6391"/><text fill="#000000" font-family="sans-serif" font-size="20" font-weight="bold" lengthAdjust="spacing" textLength="23.25" x="443.125" y="1401.7791">29</text><text fill="#000000" font-family="sans-serif" font-size="20" lengthAdjust="spacing" textLength="5" x="470.375" y="1401.7791"> </text><polygon fill="#181818" points="103.5,1446.8791,93.5,1450.8791,103.5,1454.8791,99.5,1450.8791" style="stroke:#181818;stroke-width:1.0;"/><line style="stroke:#181818;stroke-width:1.0;stroke-dasharray:2.0,2.0;" x1="97.5" x2="420.125" y1="1450.8791" y2="1450.8791"/><text fill="#000000" font-family="sans-serif" font-size="20" font-weight="bold" lengthAdjust="spacing" textLength="23.25" x="109.5" y="1443.0191">30</text><text fill="#000000" font-family="sans-serif" font-size="20" lengthAdjust="spacing" textLength="5" x="136.75" y="1443.0191"> </text><!--SRC=[lPJ1Rjf048Rl-nGZUW0E4IZAoKAM4BHDrRg92erKgPUDFILRx5tNEoPfdhwpwzWaCHXNgdf1nlx-ySx_2UnMwLmMCajDlCK44lmXovJU6KqhzOXmFXMo9AFBx1OBOMiQbXMtnWUQfsgZCzGqcyNyYKKOGdKXX8p9531VHY0j3EP9fhIoL4Y-En2tvW46ivdzRGap62qkml2xlb6sbAbwbAIC7kn72W1-CwbOvL8JBA9hF_Bh1rYOB3UQiG4mNdznyyQjM7IrzB7896MAFGAhBpS-iC9Yf-8-YSlrkZgQkpZ8eqw0TnVj0iQkWMW9aTHoWrczqrC5RpwfpHrzmpGrzw_tUcgudJtwSbQZTfBGsH72AJeBVQq1JzfQ80CfkmADzr1QB8OM2lnLeYMxpp8lN8QZhjgWHuGvuLYEk7BxH9WJZkM8RpU03T9eEAd9uNZFEa08Zxb3yLe1l7-xXic1a_3Y3ZZRppsVJc5qzN4i4do1LVEQ8pUpdc7-nVwKJHc7CBUBNxzf-n3bIlAzCZNtEnoYNFj2fWGopmkpmwQxrpxhnwxXXZakyGJVCdY2R-lB9SLtBD3nTXAeP2BZ67DgYNpfyNg-Nbn2AtN2w0MCFXl-b-0VaQPkirq-EoHsc6lfmjGYL_GJOpgcgtxQqrOttfBLZVTnLKtuMrTLwf-v-X-gT2AUttJC7m00]--></g></svg>