<?xml version="1.0" encoding="UTF-8" standalone="no"?><svg xmlns="http://www.w3.org/2000/svg" xmlns:xlink="http://www.w3.org/1999/xlink" contentStyleType="text/css" height="608px" preserveAspectRatio="none" style="width:1960px;height:608px;background:#FFFFFF;" version="1.1" viewBox="0 0 1960 608" width="1960px" zoomAndPan="magnify"><defs/><g><rect fill="#FFFFFF" height="453.6397" style="stroke:#181818;stroke-width:1.0;" width="10" x="296.25" y="90.4799"/><rect fill="#FFFFFF" height="371.1598" style="stroke:#181818;stroke-width:1.0;" width="10" x="510.875" y="131.7199"/><rect fill="#FFFFFF" height="288.6798" style="stroke:#181818;stroke-width:1.0;" width="10" x="932.5" y="172.9599"/><rect fill="#FFFFFF" height="41.24" style="stroke:#181818;stroke-width:1.0;" width="10" x="1219.125" y="214.1999"/><rect fill="#FFFFFF" height="123.7199" style="stroke:#181818;stroke-width:1.0;" width="10" x="1481.625" y="296.6798"/><rect fill="#FFFFFF" height="41.24" style="stroke:#181818;stroke-width:1.0;" width="10" x="1677.25" y="337.9198"/><line style="stroke:#181818;stroke-width:0.5;stroke-dasharray:5.0,5.0;" x1="301.25" x2="301.25" y1="47.24" y2="562.1197"/><line style="stroke:#181818;stroke-width:0.5;stroke-dasharray:5.0,5.0;" x1="515.375" x2="515.375" y1="47.24" y2="562.1197"/><line style="stroke:#181818;stroke-width:0.5;stroke-dasharray:5.0,5.0;" x1="937.5" x2="937.5" y1="47.24" y2="562.1197"/><line style="stroke:#181818;stroke-width:0.5;stroke-dasharray:5.0,5.0;" x1="1224.125" x2="1224.125" y1="47.24" y2="562.1197"/><line style="stroke:#181818;stroke-width:0.5;stroke-dasharray:5.0,5.0;" x1="1362.125" x2="1362.125" y1="47.24" y2="562.1197"/><line style="stroke:#181818;stroke-width:0.5;stroke-dasharray:5.0,5.0;" x1="1486.125" x2="1486.125" y1="47.24" y2="562.1197"/><line style="stroke:#181818;stroke-width:0.5;stroke-dasharray:5.0,5.0;" x1="1681.75" x2="1681.75" y1="47.24" y2="562.1197"/><line style="stroke:#181818;stroke-width:0.5;stroke-dasharray:5.0,5.0;" x1="1849.75" x2="1849.75" y1="47.24" y2="562.1197"/><rect fill="#E2E2F0" height="41.24" rx="2.5" ry="2.5" style="stroke:#181818;stroke-width:0.5;" width="120" x="241.25" y="5"/><text fill="#000000" font-family="sans-serif" font-size="20" lengthAdjust="spacing" textLength="106" x="248.25" y="33.38">:FloorRoute</text><rect fill="#E2E2F0" height="41.24" rx="2.5" ry="2.5" style="stroke:#181818;stroke-width:0.5;" width="120" x="241.25" y="561.1197"/><text fill="#000000" font-family="sans-serif" font-size="20" lengthAdjust="spacing" textLength="106" x="248.25" y="589.4997">:FloorRoute</text><rect fill="#E2E2F0" height="41.24" rx="2.5" ry="2.5" style="stroke:#181818;stroke-width:0.5;" width="159" x="436.375" y="5"/><text fill="#000000" font-family="sans-serif" font-size="20" lengthAdjust="spacing" textLength="145" x="443.375" y="33.38">:FloorController</text><rect fill="#E2E2F0" height="41.24" rx="2.5" ry="2.5" style="stroke:#181818;stroke-width:0.5;" width="159" x="436.375" y="561.1197"/><text fill="#000000" font-family="sans-serif" font-size="20" lengthAdjust="spacing" textLength="145" x="443.375" y="589.4997">:FloorController</text><rect fill="#E2E2F0" height="41.24" rx="2.5" ry="2.5" style="stroke:#181818;stroke-width:0.5;" width="132" x="871.5" y="5"/><text fill="#000000" font-family="sans-serif" font-size="20" lengthAdjust="spacing" textLength="118" x="878.5" y="33.38">:FloorService</text><rect fill="#E2E2F0" height="41.24" rx="2.5" ry="2.5" style="stroke:#181818;stroke-width:0.5;" width="132" x="871.5" y="561.1197"/><text fill="#000000" font-family="sans-serif" font-size="20" lengthAdjust="spacing" textLength="118" x="878.5" y="589.4997">:FloorService</text><rect fill="#E2E2F0" height="41.24" rx="2.5" ry="2.5" style="stroke:#181818;stroke-width:0.5;" width="142" x="1153.125" y="5"/><text fill="#000000" font-family="sans-serif" font-size="20" lengthAdjust="spacing" textLength="128" x="1160.125" y="33.38">:BuildingRepo</text><rect fill="#E2E2F0" height="41.24" rx="2.5" ry="2.5" style="stroke:#181818;stroke-width:0.5;" width="142" x="1153.125" y="561.1197"/><text fill="#000000" font-family="sans-serif" font-size="20" lengthAdjust="spacing" textLength="128" x="1160.125" y="589.4997">:BuildingRepo</text><rect fill="#E2E2F0" height="41.24" rx="2.5" ry="2.5" style="stroke:#181818;stroke-width:0.5;" width="115" x="1305.125" y="5"/><text fill="#000000" font-family="sans-serif" font-size="20" lengthAdjust="spacing" textLength="101" x="1312.125" y="33.38">:floor:Floor</text><rect fill="#E2E2F0" height="41.24" rx="2.5" ry="2.5" style="stroke:#181818;stroke-width:0.5;" width="115" x="1305.125" y="561.1197"/><text fill="#000000" font-family="sans-serif" font-size="20" lengthAdjust="spacing" textLength="101" x="1312.125" y="589.4997">:floor:Floor</text><rect fill="#E2E2F0" height="41.24" rx="2.5" ry="2.5" style="stroke:#181818;stroke-width:0.5;" width="113" x="1430.125" y="5"/><text fill="#000000" font-family="sans-serif" font-size="20" lengthAdjust="spacing" textLength="99" x="1437.125" y="33.38">:FloorRepo</text><rect fill="#E2E2F0" height="41.24" rx="2.5" ry="2.5" style="stroke:#181818;stroke-width:0.5;" width="113" x="1430.125" y="561.1197"/><text fill="#000000" font-family="sans-serif" font-size="20" lengthAdjust="spacing" textLength="99" x="1437.125" y="589.4997">:FloorRepo</text><rect fill="#E2E2F0" height="41.24" rx="2.5" ry="2.5" style="stroke:#181818;stroke-width:0.5;" width="107" x="1628.75" y="5"/><text fill="#000000" font-family="sans-serif" font-size="20" lengthAdjust="spacing" textLength="93" x="1635.75" y="33.38">:FloorMap</text><rect fill="#E2E2F0" height="41.24" rx="2.5" ry="2.5" style="stroke:#181818;stroke-width:0.5;" width="107" x="1628.75" y="561.1197"/><text fill="#000000" font-family="sans-serif" font-size="20" lengthAdjust="spacing" textLength="93" x="1635.75" y="589.4997">:FloorMap</text><rect fill="#E2E2F0" height="41.24" rx="2.5" ry="2.5" style="stroke:#181818;stroke-width:0.5;" width="209" x="1745.75" y="5"/><text fill="#000000" font-family="sans-serif" font-size="20" lengthAdjust="spacing" textLength="195" x="1752.75" y="33.38">:FloorDTO:IFloorDTO</text><rect fill="#E2E2F0" height="41.24" rx="2.5" ry="2.5" style="stroke:#181818;stroke-width:0.5;" width="209" x="1745.75" y="561.1197"/><text fill="#000000" font-family="sans-serif" font-size="20" lengthAdjust="spacing" textLength="195" x="1752.75" y="589.4997">:FloorDTO:IFloorDTO</text><rect fill="#FFFFFF" height="453.6397" style="stroke:#181818;stroke-width:1.0;" width="10" x="296.25" y="90.4799"/><rect fill="#FFFFFF" height="371.1598" style="stroke:#181818;stroke-width:1.0;" width="10" x="510.875" y="131.7199"/><rect fill="#FFFFFF" height="288.6798" style="stroke:#181818;stroke-width:1.0;" width="10" x="932.5" y="172.9599"/><rect fill="#FFFFFF" height="41.24" style="stroke:#181818;stroke-width:1.0;" width="10" x="1219.125" y="214.1999"/><rect fill="#FFFFFF" height="123.7199" style="stroke:#181818;stroke-width:1.0;" width="10" x="1481.625" y="296.6798"/><rect fill="#FFFFFF" height="41.24" style="stroke:#181818;stroke-width:1.0;" width="10" x="1677.25" y="337.9198"/><ellipse cx="68.125" cy="89.7299" fill="none" rx="4" ry="4" style="stroke:#181818;stroke-width:1.5;"/><polygon fill="#181818" points="284.25,86.4799,294.25,90.4799,284.25,94.4799,288.25,90.4799" style="stroke:#181818;stroke-width:1.0;"/><line style="stroke:#181818;stroke-width:1.0;" x1="72.625" x2="290.25" y1="90.4799" y2="90.4799"/><text fill="#000000" font-family="sans-serif" font-size="20" font-weight="bold" lengthAdjust="spacing" textLength="11.625" x="75.625" y="82.62">1</text><text fill="#000000" font-family="sans-serif" font-size="20" lengthAdjust="spacing" textLength="190" x="91.25" y="82.62">GET /:building/floors</text><polygon fill="#181818" points="498.875,127.7199,508.875,131.7199,498.875,135.7199,502.875,131.7199" style="stroke:#181818;stroke-width:1.0;"/><line style="stroke:#181818;stroke-width:1.0;" x1="306.25" x2="504.875" y1="131.7199" y2="131.7199"/><text fill="#000000" font-family="sans-serif" font-size="20" font-weight="bold" lengthAdjust="spacing" textLength="11.625" x="313.25" y="123.8599">2</text><text fill="#000000" font-family="sans-serif" font-size="20" lengthAdjust="spacing" textLength="170" x="328.875" y="123.8599">getFloors(request)</text><polygon fill="#181818" points="920.5,168.9599,930.5,172.9599,920.5,176.9599,924.5,172.9599" style="stroke:#181818;stroke-width:1.0;"/><line style="stroke:#181818;stroke-width:1.0;" x1="520.875" x2="926.5" y1="172.9599" y2="172.9599"/><text fill="#000000" font-family="sans-serif" font-size="20" font-weight="bold" lengthAdjust="spacing" textLength="11.625" x="527.875" y="165.0999">3</text><text fill="#000000" font-family="sans-serif" font-size="20" lengthAdjust="spacing" textLength="377" x="543.5" y="165.0999">getBuildingFloors(buildingCode, filterStr)</text><polygon fill="#181818" points="1207.125,210.1999,1217.125,214.1999,1207.125,218.1999,1211.125,214.1999" style="stroke:#181818;stroke-width:1.0;"/><line style="stroke:#181818;stroke-width:1.0;" x1="942.5" x2="1213.125" y1="214.1999" y2="214.1999"/><text fill="#000000" font-family="sans-serif" font-size="20" font-weight="bold" lengthAdjust="spacing" textLength="11.625" x="949.5" y="206.3399">4</text><text fill="#000000" font-family="sans-serif" font-size="20" lengthAdjust="spacing" textLength="242" x="965.125" y="206.3399">findByCode(buildingCode)</text><polygon fill="#181818" points="953.5,251.4398,943.5,255.4398,953.5,259.4398,949.5,255.4398" style="stroke:#181818;stroke-width:1.0;"/><line style="stroke:#181818;stroke-width:1.0;stroke-dasharray:2.0,2.0;" x1="947.5" x2="1223.125" y1="255.4398" y2="255.4398"/><text fill="#000000" font-family="sans-serif" font-size="20" font-weight="bold" lengthAdjust="spacing" textLength="11.625" x="959.5" y="247.5799">5</text><text fill="#000000" font-family="sans-serif" font-size="20" lengthAdjust="spacing" textLength="75" x="975.125" y="247.5799">building</text><polygon fill="#181818" points="1469.625,292.6798,1479.625,296.6798,1469.625,300.6798,1473.625,296.6798" style="stroke:#181818;stroke-width:1.0;"/><line style="stroke:#181818;stroke-width:1.0;" x1="942.5" x2="1475.625" y1="296.6798" y2="296.6798"/><text fill="#000000" font-family="sans-serif" font-size="20" font-weight="bold" lengthAdjust="spacing" textLength="11.625" x="949.5" y="288.8198">6</text><text fill="#000000" font-family="sans-serif" font-size="20" lengthAdjust="spacing" textLength="318" x="965.125" y="288.8198">findByBuildingCode(buildingCode)</text><polygon fill="#181818" points="1665.25,333.9198,1675.25,337.9198,1665.25,341.9198,1669.25,337.9198" style="stroke:#181818;stroke-width:1.0;"/><line style="stroke:#181818;stroke-width:1.0;" x1="1491.625" x2="1671.25" y1="337.9198" y2="337.9198"/><text fill="#000000" font-family="sans-serif" font-size="20" font-weight="bold" lengthAdjust="spacing" textLength="11.625" x="1498.625" y="330.0598">7</text><text fill="#000000" font-family="sans-serif" font-size="20" lengthAdjust="spacing" textLength="151" x="1514.25" y="330.0598">toDtoList(floors)</text><polygon fill="#181818" points="1838.25,375.1598,1848.25,379.1598,1838.25,383.1598,1842.25,379.1598" style="stroke:#181818;stroke-width:1.0;"/><line style="stroke:#181818;stroke-width:1.0;" x1="1682.25" x2="1844.25" y1="379.1598" y2="379.1598"/><text fill="#000000" font-family="sans-serif" font-size="20" font-weight="bold" lengthAdjust="spacing" textLength="11.625" x="1689.25" y="371.2998">8</text><text fill="#000000" font-family="sans-serif" font-size="20" lengthAdjust="spacing" textLength="102" x="1704.875" y="371.2998">createList()</text><polygon fill="#181818" points="953.5,416.3997,943.5,420.3997,953.5,424.3997,949.5,420.3997" style="stroke:#181818;stroke-width:1.0;"/><line style="stroke:#181818;stroke-width:1.0;stroke-dasharray:2.0,2.0;" x1="947.5" x2="1485.625" y1="420.3997" y2="420.3997"/><text fill="#000000" font-family="sans-serif" font-size="20" font-weight="bold" lengthAdjust="spacing" textLength="11.625" x="959.5" y="412.5398">9</text><text fill="#000000" font-family="sans-serif" font-size="20" lengthAdjust="spacing" textLength="86" x="975.125" y="412.5398">floorsList</text><polygon fill="#181818" points="531.875,457.6397,521.875,461.6397,531.875,465.6397,527.875,461.6397" style="stroke:#181818;stroke-width:1.0;"/><line style="stroke:#181818;stroke-width:1.0;stroke-dasharray:2.0,2.0;" x1="525.875" x2="936.5" y1="461.6397" y2="461.6397"/><text fill="#000000" font-family="sans-serif" font-size="20" font-weight="bold" lengthAdjust="spacing" textLength="23.25" x="537.875" y="453.7797">10</text><text fill="#000000" font-family="sans-serif" font-size="20" lengthAdjust="spacing" textLength="86" x="565.125" y="453.7797">floorsList</text><polygon fill="#181818" points="317.25,498.8797,307.25,502.8797,317.25,506.8797,313.25,502.8797" style="stroke:#181818;stroke-width:1.0;"/><line style="stroke:#181818;stroke-width:1.0;stroke-dasharray:2.0,2.0;" x1="311.25" x2="514.875" y1="502.8797" y2="502.8797"/><text fill="#000000" font-family="sans-serif" font-size="20" font-weight="bold" lengthAdjust="spacing" textLength="23.25" x="323.25" y="495.0197">11</text><text fill="#000000" font-family="sans-serif" font-size="20" lengthAdjust="spacing" textLength="86" x="350.5" y="495.0197">floorsList</text><polygon fill="#181818" points="11,540.1197,1,544.1197,11,548.1197,7,544.1197" style="stroke:#181818;stroke-width:1.0;"/><line style="stroke:#181818;stroke-width:1.0;stroke-dasharray:2.0,2.0;" x1="5" x2="300.25" y1="544.1197" y2="544.1197"/><text fill="#000000" font-family="sans-serif" font-size="20" font-weight="bold" lengthAdjust="spacing" textLength="23.25" x="17" y="536.2597">12</text><text fill="#000000" font-family="sans-serif" font-size="20" lengthAdjust="spacing" textLength="250" x="44.25" y="536.2597">200 OK (List of floors JSON)</text><!--SRC=[VP9TRu8m68Nl-oiQhpIPqNZPB5k6Nt53MG1tN-75D29bfPXiltxz02ngTWVqEUSzFI_LYHKb5VISy-G4AKuXetKkLxoG4Vi5F9iYMajUrES32AH8oH9MqaBYCDZ7IqmhF22hd7CHybh2e8VCuz1tYBao5JpFGVInAFnog0Z4XIKtJk7oC_3s6t-nsQqjwzKiJrbn3A7aVNRb1q5eeKmRMjjxFpVxdSdsxTCvtzAoVxo8NRbw8vlsQO3GAn-_DFqGl5x6U48EJTo9YLGXcaXseH8iXf2bbSnqHl0Hf36iXWA-QwZaw2hH23ASudLv1cyBQMJjm3bFuGbdB9SW8YaS6wL4MgspklKIHHUfzwELFHj7wmfGJptkChLIbC9ZdJEy6-evy_uRRePgjLuKmP8l9FTP9OUsNuTM0DAGOlNM24u4gEy67hdPD6XTkojOCutUNiA6l-xhCQahjejoVeZ7g5dgytZSORFf50SVUAX1pBD6Xj-ZODUBRN-WFm00]--></g></svg>