<?xml version="1.0" encoding="UTF-8" standalone="no"?><svg xmlns="http://www.w3.org/2000/svg" xmlns:xlink="http://www.w3.org/1999/xlink" contentStyleType="text/css" height="601px" preserveAspectRatio="none" style="width:2249px;height:601px;background:#FFFFFF;" version="1.1" viewBox="0 0 2249 601" width="2249px" zoomAndPan="magnify"><defs/><g><rect fill="#FFFFFF" height="458.375" style="stroke:#181818;stroke-width:1.0;" width="10" x="324" y="82.5625"/><rect fill="#FFFFFF" height="383.8125" style="stroke:#181818;stroke-width:1.0;" width="10" x="685" y="119.8438"/><rect fill="#FFFFFF" height="309.25" style="stroke:#181818;stroke-width:1.0;" width="10" x="1104" y="157.125"/><rect fill="#FFFFFF" height="37.2813" style="stroke:#181818;stroke-width:1.0;" width="10" x="1462" y="194.4063"/><rect fill="#FFFFFF" height="111.8438" style="stroke:#181818;stroke-width:1.0;" width="10" x="1744" y="317.25"/><rect fill="#FFFFFF" height="37.2813" style="stroke:#181818;stroke-width:1.0;" width="10" x="1952" y="354.5313"/><line style="stroke:#181818;stroke-width:0.5;stroke-dasharray:5.0,5.0;" x1="329" x2="329" y1="43.2813" y2="558.9375"/><line style="stroke:#181818;stroke-width:0.5;stroke-dasharray:5.0,5.0;" x1="690" x2="690" y1="43.2813" y2="558.9375"/><line style="stroke:#181818;stroke-width:0.5;stroke-dasharray:5.0,5.0;" x1="1109" x2="1109" y1="43.2813" y2="558.9375"/><line style="stroke:#181818;stroke-width:0.5;stroke-dasharray:5.0,5.0;" x1="1467" x2="1467" y1="43.2813" y2="558.9375"/><line style="stroke:#181818;stroke-width:0.5;stroke-dasharray:5.0,5.0;" x1="1616" x2="1616" y1="273.8281" y2="558.9375"/><line style="stroke:#181818;stroke-width:0.5;stroke-dasharray:5.0,5.0;" x1="1749" x2="1749" y1="43.2813" y2="558.9375"/><line style="stroke:#181818;stroke-width:0.5;stroke-dasharray:5.0,5.0;" x1="1956.5" x2="1956.5" y1="43.2813" y2="558.9375"/><line style="stroke:#181818;stroke-width:0.5;stroke-dasharray:5.0,5.0;" x1="2133.5" x2="2133.5" y1="43.2813" y2="558.9375"/><rect fill="#E2E2F0" height="37.2813" rx="2.5" ry="2.5" style="stroke:#181818;stroke-width:0.5;" width="130" x="264" y="5"/><text fill="#000000" font-family="sans-serif" font-size="20" lengthAdjust="spacing" textLength="116" x="271" y="30.5645">:FloorRoute</text><rect fill="#E2E2F0" height="37.2813" rx="2.5" ry="2.5" style="stroke:#181818;stroke-width:0.5;" width="130" x="264" y="557.9375"/><text fill="#000000" font-family="sans-serif" font-size="20" lengthAdjust="spacing" textLength="116" x="271" y="583.502">:FloorRoute</text><rect fill="#E2E2F0" height="37.2813" rx="2.5" ry="2.5" style="stroke:#181818;stroke-width:0.5;" width="170" x="605" y="5"/><text fill="#000000" font-family="sans-serif" font-size="20" lengthAdjust="spacing" textLength="156" x="612" y="30.5645">:FloorController</text><rect fill="#E2E2F0" height="37.2813" rx="2.5" ry="2.5" style="stroke:#181818;stroke-width:0.5;" width="170" x="605" y="557.9375"/><text fill="#000000" font-family="sans-serif" font-size="20" lengthAdjust="spacing" textLength="156" x="612" y="583.502">:FloorController</text><rect fill="#E2E2F0" height="37.2813" rx="2.5" ry="2.5" style="stroke:#181818;stroke-width:0.5;" width="144" x="1037" y="5"/><text fill="#000000" font-family="sans-serif" font-size="20" lengthAdjust="spacing" textLength="130" x="1044" y="30.5645">:FloorService</text><rect fill="#E2E2F0" height="37.2813" rx="2.5" ry="2.5" style="stroke:#181818;stroke-width:0.5;" width="144" x="1037" y="557.9375"/><text fill="#000000" font-family="sans-serif" font-size="20" lengthAdjust="spacing" textLength="130" x="1044" y="583.502">:FloorService</text><rect fill="#E2E2F0" height="37.2813" rx="2.5" ry="2.5" style="stroke:#181818;stroke-width:0.5;" width="156" x="1389" y="5"/><text fill="#000000" font-family="sans-serif" font-size="20" lengthAdjust="spacing" textLength="142" x="1396" y="30.5645">:BuildingRepo</text><rect fill="#E2E2F0" height="37.2813" rx="2.5" ry="2.5" style="stroke:#181818;stroke-width:0.5;" width="156" x="1389" y="557.9375"/><text fill="#000000" font-family="sans-serif" font-size="20" lengthAdjust="spacing" textLength="142" x="1396" y="583.502">:BuildingRepo</text><rect fill="#E2E2F0" height="37.2813" rx="2.5" ry="2.5" style="stroke:#181818;stroke-width:0.5;" width="123" x="1555" y="557.9375"/><text fill="#000000" font-family="sans-serif" font-size="20" lengthAdjust="spacing" textLength="109" x="1562" y="583.502">:floor:Floor</text><rect fill="#E2E2F0" height="37.2813" rx="2.5" ry="2.5" style="stroke:#181818;stroke-width:0.5;" width="122" x="1688" y="5"/><text fill="#000000" font-family="sans-serif" font-size="20" lengthAdjust="spacing" textLength="108" x="1695" y="30.5645">:FloorRepo</text><rect fill="#E2E2F0" height="37.2813" rx="2.5" ry="2.5" style="stroke:#181818;stroke-width:0.5;" width="122" x="1688" y="557.9375"/><text fill="#000000" font-family="sans-serif" font-size="20" lengthAdjust="spacing" textLength="108" x="1695" y="583.502">:FloorRepo</text><rect fill="#E2E2F0" height="37.2813" rx="2.5" ry="2.5" style="stroke:#181818;stroke-width:0.5;" width="113" x="1900.5" y="5"/><text fill="#000000" font-family="sans-serif" font-size="20" lengthAdjust="spacing" textLength="99" x="1907.5" y="30.5645">:FloorMap</text><rect fill="#E2E2F0" height="37.2813" rx="2.5" ry="2.5" style="stroke:#181818;stroke-width:0.5;" width="113" x="1900.5" y="557.9375"/><text fill="#000000" font-family="sans-serif" font-size="20" lengthAdjust="spacing" textLength="99" x="1907.5" y="583.502">:FloorMap</text><rect fill="#E2E2F0" height="37.2813" rx="2.5" ry="2.5" style="stroke:#181818;stroke-width:0.5;" width="220" x="2023.5" y="5"/><text fill="#000000" font-family="sans-serif" font-size="20" lengthAdjust="spacing" textLength="206" x="2030.5" y="30.5645">:FloorDTO:IFloorDTO</text><rect fill="#E2E2F0" height="37.2813" rx="2.5" ry="2.5" style="stroke:#181818;stroke-width:0.5;" width="220" x="2023.5" y="557.9375"/><text fill="#000000" font-family="sans-serif" font-size="20" lengthAdjust="spacing" textLength="206" x="2030.5" y="583.502">:FloorDTO:IFloorDTO</text><rect fill="#FFFFFF" height="458.375" style="stroke:#181818;stroke-width:1.0;" width="10" x="324" y="82.5625"/><rect fill="#FFFFFF" height="383.8125" style="stroke:#181818;stroke-width:1.0;" width="10" x="685" y="119.8438"/><rect fill="#FFFFFF" height="309.25" style="stroke:#181818;stroke-width:1.0;" width="10" x="1104" y="157.125"/><rect fill="#FFFFFF" height="37.2813" style="stroke:#181818;stroke-width:1.0;" width="10" x="1462" y="194.4063"/><rect fill="#FFFFFF" height="111.8438" style="stroke:#181818;stroke-width:1.0;" width="10" x="1744" y="317.25"/><rect fill="#FFFFFF" height="37.2813" style="stroke:#181818;stroke-width:1.0;" width="10" x="1952" y="354.5313"/><ellipse cx="45.5" cy="81.8125" fill="none" rx="4" ry="4" style="stroke:#181818;stroke-width:1.5;"/><polygon fill="#181818" points="312,78.5625,322,82.5625,312,86.5625,316,82.5625" style="stroke:#181818;stroke-width:1.0;"/><line style="stroke:#181818;stroke-width:1.0;" x1="50" x2="318" y1="82.5625" y2="82.5625"/><text fill="#000000" font-family="sans-serif" font-size="20" font-weight="bold" lengthAdjust="spacing" textLength="14" x="53" y="75.8457">1</text><text fill="#000000" font-family="sans-serif" font-size="20" lengthAdjust="spacing" textLength="238" x="71" y="75.8457">GET /floorsWithElevator</text><polygon fill="#181818" points="673,115.8438,683,119.8438,673,123.8438,677,119.8438" style="stroke:#181818;stroke-width:1.0;"/><line style="stroke:#181818;stroke-width:1.0;" x1="334" x2="679" y1="119.8438" y2="119.8438"/><text fill="#000000" font-family="sans-serif" font-size="20" font-weight="bold" lengthAdjust="spacing" textLength="14" x="341" y="113.127">2</text><text fill="#000000" font-family="sans-serif" font-size="20" lengthAdjust="spacing" textLength="314" x="359" y="113.127">getFloorsWithElevator(request)</text><polygon fill="#181818" points="1092,153.125,1102,157.125,1092,161.125,1096,157.125" style="stroke:#181818;stroke-width:1.0;"/><line style="stroke:#181818;stroke-width:1.0;" x1="695" x2="1098" y1="157.125" y2="157.125"/><text fill="#000000" font-family="sans-serif" font-size="20" font-weight="bold" lengthAdjust="spacing" textLength="14" x="702" y="150.4082">3</text><text fill="#000000" font-family="sans-serif" font-size="20" lengthAdjust="spacing" textLength="372" x="720" y="150.4082">getFloorsWithElevator(buildingCode)</text><polygon fill="#181818" points="1450,190.4063,1460,194.4063,1450,198.4063,1454,194.4063" style="stroke:#181818;stroke-width:1.0;"/><line style="stroke:#181818;stroke-width:1.0;" x1="1114" x2="1456" y1="194.4063" y2="194.4063"/><text fill="#000000" font-family="sans-serif" font-size="20" font-weight="bold" lengthAdjust="spacing" textLength="14" x="1121" y="187.6895">4</text><text fill="#000000" font-family="sans-serif" font-size="20" lengthAdjust="spacing" textLength="311" x="1139" y="187.6895">findByDomainId(buildingCode)</text><polygon fill="#181818" points="1125,227.6875,1115,231.6875,1125,235.6875,1121,231.6875" style="stroke:#181818;stroke-width:1.0;"/><line style="stroke:#181818;stroke-width:1.0;stroke-dasharray:2.0,2.0;" x1="1119" x2="1466" y1="231.6875" y2="231.6875"/><text fill="#000000" font-family="sans-serif" font-size="20" font-weight="bold" lengthAdjust="spacing" textLength="14" x="1131" y="224.9707">5</text><text fill="#000000" font-family="sans-serif" font-size="20" lengthAdjust="spacing" textLength="83" x="1149" y="224.9707">building</text><polygon fill="#181818" points="1543,264.9688,1553,268.9688,1543,272.9688,1547,268.9688" style="stroke:#181818;stroke-width:1.0;"/><line style="stroke:#181818;stroke-width:1.0;" x1="1114" x2="1549" y1="268.9688" y2="268.9688"/><text fill="#000000" font-family="sans-serif" font-size="20" font-weight="bold" lengthAdjust="spacing" textLength="14" x="1121" y="262.252">6</text><text fill="#000000" font-family="sans-serif" font-size="20" lengthAdjust="spacing" textLength="79" x="1139" y="262.252">create()</text><rect fill="#E2E2F0" height="37.2813" rx="2.5" ry="2.5" style="stroke:#181818;stroke-width:0.5;" width="123" x="1555" y="239.6875"/><text fill="#000000" font-family="sans-serif" font-size="20" lengthAdjust="spacing" textLength="109" x="1562" y="265.252">:floor:Floor</text><polygon fill="#181818" points="1732,313.25,1742,317.25,1732,321.25,1736,317.25" style="stroke:#181818;stroke-width:1.0;"/><line style="stroke:#181818;stroke-width:1.0;" x1="1114" x2="1738" y1="317.25" y2="317.25"/><text fill="#000000" font-family="sans-serif" font-size="20" font-weight="bold" lengthAdjust="spacing" textLength="14" x="1121" y="310.5332">7</text><text fill="#000000" font-family="sans-serif" font-size="20" lengthAdjust="spacing" textLength="106" x="1139" y="310.5332">save(floor)</text><polygon fill="#181818" points="1940,350.5313,1950,354.5313,1940,358.5313,1944,354.5313" style="stroke:#181818;stroke-width:1.0;"/><line style="stroke:#181818;stroke-width:1.0;" x1="1754" x2="1946" y1="354.5313" y2="354.5313"/><text fill="#000000" font-family="sans-serif" font-size="20" font-weight="bold" lengthAdjust="spacing" textLength="14" x="1761" y="347.8145">8</text><text fill="#000000" font-family="sans-serif" font-size="20" lengthAdjust="spacing" textLength="161" x="1779" y="347.8145">toDtoList(floors)</text><polygon fill="#181818" points="2121.5,387.8125,2131.5,391.8125,2121.5,395.8125,2125.5,391.8125" style="stroke:#181818;stroke-width:1.0;"/><line style="stroke:#181818;stroke-width:1.0;" x1="1957" x2="2127.5" y1="391.8125" y2="391.8125"/><text fill="#000000" font-family="sans-serif" font-size="20" font-weight="bold" lengthAdjust="spacing" textLength="14" x="1964" y="385.0957">9</text><text fill="#000000" font-family="sans-serif" font-size="20" lengthAdjust="spacing" textLength="114" x="1982" y="385.0957">createList()</text><polygon fill="#181818" points="1125,425.0938,1115,429.0938,1125,433.0938,1121,429.0938" style="stroke:#181818;stroke-width:1.0;"/><line style="stroke:#181818;stroke-width:1.0;stroke-dasharray:2.0,2.0;" x1="1119" x2="1748" y1="429.0938" y2="429.0938"/><text fill="#000000" font-family="sans-serif" font-size="20" font-weight="bold" lengthAdjust="spacing" textLength="28" x="1131" y="422.377">10</text><text fill="#000000" font-family="sans-serif" font-size="20" lengthAdjust="spacing" textLength="90" x="1163" y="422.377">floorsList</text><polygon fill="#181818" points="706,462.375,696,466.375,706,470.375,702,466.375" style="stroke:#181818;stroke-width:1.0;"/><line style="stroke:#181818;stroke-width:1.0;stroke-dasharray:2.0,2.0;" x1="700" x2="1108" y1="466.375" y2="466.375"/><text fill="#000000" font-family="sans-serif" font-size="20" font-weight="bold" lengthAdjust="spacing" textLength="28" x="712" y="459.6582">11</text><text fill="#000000" font-family="sans-serif" font-size="20" lengthAdjust="spacing" textLength="90" x="744" y="459.6582">floorsList</text><polygon fill="#181818" points="345,499.6563,335,503.6563,345,507.6563,341,503.6563" style="stroke:#181818;stroke-width:1.0;"/><line style="stroke:#181818;stroke-width:1.0;stroke-dasharray:2.0,2.0;" x1="339" x2="689" y1="503.6563" y2="503.6563"/><text fill="#000000" font-family="sans-serif" font-size="20" font-weight="bold" lengthAdjust="spacing" textLength="28" x="351" y="496.9395">12</text><text fill="#000000" font-family="sans-serif" font-size="20" lengthAdjust="spacing" textLength="90" x="383" y="496.9395">floorsList</text><polygon fill="#181818" points="11,536.9375,1,540.9375,11,544.9375,7,540.9375" style="stroke:#181818;stroke-width:1.0;"/><line style="stroke:#181818;stroke-width:1.0;stroke-dasharray:2.0,2.0;" x1="5" x2="328" y1="540.9375" y2="540.9375"/><text fill="#000000" font-family="sans-serif" font-size="20" font-weight="bold" lengthAdjust="spacing" textLength="28" x="17" y="534.2207">13</text><text fill="#000000" font-family="sans-serif" font-size="20" lengthAdjust="spacing" textLength="273" x="49" y="534.2207">200 OK (List of floors JSON)</text><!--SRC=[TP9TRu8m58Rl-oiQhz34p7X9bYrJmB2X6C3jkiB1DI9bfPXiltujHIr-tF7nF6zVpg7Uqx8Yd1mAbkuXmndaf2c4nqeHqp_0qmaYZM1bSzW2Hv8KDAKLAGMEmatYObBZWUqLZF68DG86FMIUH851p6KePqK1l8_5qQT1nS2FDBrAYjnrEDluWUEl5fgTDRJ8QBcBe69zrWl2CD9GhW9rx6sUsVqcPFcsDjulITL_xIIcBkzi_tGrGEYLZL-w-TXuuIRugIrIVr7nxHPm989nH591vHLe427DIx6Tcert8BmRo-Bmqq0jXXTTuQXrfAj6-KZTTXERimmCNof8QQgoEMKRvxJCPhyEEn1Q-jaZtvHGBs5yBdHIKGRtlQv0kxhHI1ef1mbPGxEQV5oJ8rZjCAyQj2ShK2tEne8vWWMq5Xgk3Le2I46ILLiy7TN2GxEW0dNg-Jjqc4AllqJtl6plFgbchLTb_23tqNQjp-Fn6PjE9ZZym9O2CSix3R_7uQfNM_zE_m00]--></g></svg>