<?xml version="1.0" encoding="UTF-8" standalone="no"?><svg xmlns="http://www.w3.org/2000/svg" xmlns:xlink="http://www.w3.org/1999/xlink" contentStyleType="text/css" height="552px" preserveAspectRatio="none" style="width:2203px;height:552px;background:#FFFFFF;" version="1.1" viewBox="0 0 2203 552" width="2203px" zoomAndPan="magnify"><defs/><g><rect fill="#FFFFFF" height="410.0938" style="stroke:#181818;stroke-width:1.0;" width="10" x="324" y="82.5625"/><rect fill="#FFFFFF" height="335.5313" style="stroke:#181818;stroke-width:1.0;" width="10" x="685" y="119.8438"/><rect fill="#FFFFFF" height="260.9688" style="stroke:#181818;stroke-width:1.0;" width="10" x="1104" y="157.125"/><rect fill="#FFFFFF" height="37.2813" style="stroke:#181818;stroke-width:1.0;" width="10" x="1416" y="194.4063"/><rect fill="#FFFFFF" height="111.8438" style="stroke:#181818;stroke-width:1.0;" width="10" x="1698" y="268.9688"/><rect fill="#FFFFFF" height="37.2813" style="stroke:#181818;stroke-width:1.0;" width="10" x="1906" y="306.25"/><line style="stroke:#181818;stroke-width:0.5;stroke-dasharray:5.0,5.0;" x1="329" x2="329" y1="43.2813" y2="510.6563"/><line style="stroke:#181818;stroke-width:0.5;stroke-dasharray:5.0,5.0;" x1="690" x2="690" y1="43.2813" y2="510.6563"/><line style="stroke:#181818;stroke-width:0.5;stroke-dasharray:5.0,5.0;" x1="1109" x2="1109" y1="43.2813" y2="510.6563"/><line style="stroke:#181818;stroke-width:0.5;stroke-dasharray:5.0,5.0;" x1="1421" x2="1421" y1="43.2813" y2="510.6563"/><line style="stroke:#181818;stroke-width:0.5;stroke-dasharray:5.0,5.0;" x1="1570" x2="1570" y1="43.2813" y2="510.6563"/><line style="stroke:#181818;stroke-width:0.5;stroke-dasharray:5.0,5.0;" x1="1703" x2="1703" y1="43.2813" y2="510.6563"/><line style="stroke:#181818;stroke-width:0.5;stroke-dasharray:5.0,5.0;" x1="1910.5" x2="1910.5" y1="43.2813" y2="510.6563"/><line style="stroke:#181818;stroke-width:0.5;stroke-dasharray:5.0,5.0;" x1="2087.5" x2="2087.5" y1="43.2813" y2="510.6563"/><rect fill="#E2E2F0" height="37.2813" rx="2.5" ry="2.5" style="stroke:#181818;stroke-width:0.5;" width="130" x="264" y="5"/><text fill="#000000" font-family="sans-serif" font-size="20" lengthAdjust="spacing" textLength="116" x="271" y="30.5645">:FloorRoute</text><rect fill="#E2E2F0" height="37.2813" rx="2.5" ry="2.5" style="stroke:#181818;stroke-width:0.5;" width="130" x="264" y="509.6563"/><text fill="#000000" font-family="sans-serif" font-size="20" lengthAdjust="spacing" textLength="116" x="271" y="535.2207">:FloorRoute</text><rect fill="#E2E2F0" height="37.2813" rx="2.5" ry="2.5" style="stroke:#181818;stroke-width:0.5;" width="170" x="605" y="5"/><text fill="#000000" font-family="sans-serif" font-size="20" lengthAdjust="spacing" textLength="156" x="612" y="30.5645">:FloorController</text><rect fill="#E2E2F0" height="37.2813" rx="2.5" ry="2.5" style="stroke:#181818;stroke-width:0.5;" width="170" x="605" y="509.6563"/><text fill="#000000" font-family="sans-serif" font-size="20" lengthAdjust="spacing" textLength="156" x="612" y="535.2207">:FloorController</text><rect fill="#E2E2F0" height="37.2813" rx="2.5" ry="2.5" style="stroke:#181818;stroke-width:0.5;" width="144" x="1037" y="5"/><text fill="#000000" font-family="sans-serif" font-size="20" lengthAdjust="spacing" textLength="130" x="1044" y="30.5645">:FloorService</text><rect fill="#E2E2F0" height="37.2813" rx="2.5" ry="2.5" style="stroke:#181818;stroke-width:0.5;" width="144" x="1037" y="509.6563"/><text fill="#000000" font-family="sans-serif" font-size="20" lengthAdjust="spacing" textLength="130" x="1044" y="535.2207">:FloorService</text><rect fill="#E2E2F0" height="37.2813" rx="2.5" ry="2.5" style="stroke:#181818;stroke-width:0.5;" width="156" x="1343" y="5"/><text fill="#000000" font-family="sans-serif" font-size="20" lengthAdjust="spacing" textLength="142" x="1350" y="30.5645">:BuildingRepo</text><rect fill="#E2E2F0" height="37.2813" rx="2.5" ry="2.5" style="stroke:#181818;stroke-width:0.5;" width="156" x="1343" y="509.6563"/><text fill="#000000" font-family="sans-serif" font-size="20" lengthAdjust="spacing" textLength="142" x="1350" y="535.2207">:BuildingRepo</text><rect fill="#E2E2F0" height="37.2813" rx="2.5" ry="2.5" style="stroke:#181818;stroke-width:0.5;" width="123" x="1509" y="5"/><text fill="#000000" font-family="sans-serif" font-size="20" lengthAdjust="spacing" textLength="109" x="1516" y="30.5645">:floor:Floor</text><rect fill="#E2E2F0" height="37.2813" rx="2.5" ry="2.5" style="stroke:#181818;stroke-width:0.5;" width="123" x="1509" y="509.6563"/><text fill="#000000" font-family="sans-serif" font-size="20" lengthAdjust="spacing" textLength="109" x="1516" y="535.2207">:floor:Floor</text><rect fill="#E2E2F0" height="37.2813" rx="2.5" ry="2.5" style="stroke:#181818;stroke-width:0.5;" width="122" x="1642" y="5"/><text fill="#000000" font-family="sans-serif" font-size="20" lengthAdjust="spacing" textLength="108" x="1649" y="30.5645">:FloorRepo</text><rect fill="#E2E2F0" height="37.2813" rx="2.5" ry="2.5" style="stroke:#181818;stroke-width:0.5;" width="122" x="1642" y="509.6563"/><text fill="#000000" font-family="sans-serif" font-size="20" lengthAdjust="spacing" textLength="108" x="1649" y="535.2207">:FloorRepo</text><rect fill="#E2E2F0" height="37.2813" rx="2.5" ry="2.5" style="stroke:#181818;stroke-width:0.5;" width="113" x="1854.5" y="5"/><text fill="#000000" font-family="sans-serif" font-size="20" lengthAdjust="spacing" textLength="99" x="1861.5" y="30.5645">:FloorMap</text><rect fill="#E2E2F0" height="37.2813" rx="2.5" ry="2.5" style="stroke:#181818;stroke-width:0.5;" width="113" x="1854.5" y="509.6563"/><text fill="#000000" font-family="sans-serif" font-size="20" lengthAdjust="spacing" textLength="99" x="1861.5" y="535.2207">:FloorMap</text><rect fill="#E2E2F0" height="37.2813" rx="2.5" ry="2.5" style="stroke:#181818;stroke-width:0.5;" width="220" x="1977.5" y="5"/><text fill="#000000" font-family="sans-serif" font-size="20" lengthAdjust="spacing" textLength="206" x="1984.5" y="30.5645">:FloorDTO:IFloorDTO</text><rect fill="#E2E2F0" height="37.2813" rx="2.5" ry="2.5" style="stroke:#181818;stroke-width:0.5;" width="220" x="1977.5" y="509.6563"/><text fill="#000000" font-family="sans-serif" font-size="20" lengthAdjust="spacing" textLength="206" x="1984.5" y="535.2207">:FloorDTO:IFloorDTO</text><rect fill="#FFFFFF" height="410.0938" style="stroke:#181818;stroke-width:1.0;" width="10" x="324" y="82.5625"/><rect fill="#FFFFFF" height="335.5313" style="stroke:#181818;stroke-width:1.0;" width="10" x="685" y="119.8438"/><rect fill="#FFFFFF" height="260.9688" style="stroke:#181818;stroke-width:1.0;" width="10" x="1104" y="157.125"/><rect fill="#FFFFFF" height="37.2813" style="stroke:#181818;stroke-width:1.0;" width="10" x="1416" y="194.4063"/><rect fill="#FFFFFF" height="111.8438" style="stroke:#181818;stroke-width:1.0;" width="10" x="1698" y="268.9688"/><rect fill="#FFFFFF" height="37.2813" style="stroke:#181818;stroke-width:1.0;" width="10" x="1906" y="306.25"/><ellipse cx="174.5" cy="81.8125" fill="none" rx="4" ry="4" style="stroke:#181818;stroke-width:1.5;"/><polygon fill="#181818" points="312,78.5625,322,82.5625,312,86.5625,316,82.5625" style="stroke:#181818;stroke-width:1.0;"/><line style="stroke:#181818;stroke-width:1.0;" x1="179" x2="318" y1="82.5625" y2="82.5625"/><text fill="#000000" font-family="sans-serif" font-size="20" font-weight="bold" lengthAdjust="spacing" textLength="14" x="182" y="75.8457">1</text><text fill="#000000" font-family="sans-serif" font-size="20" lengthAdjust="spacing" textLength="109" x="200" y="75.8457">GET /floors</text><polygon fill="#181818" points="673,115.8438,683,119.8438,673,123.8438,677,119.8438" style="stroke:#181818;stroke-width:1.0;"/><line style="stroke:#181818;stroke-width:1.0;" x1="334" x2="679" y1="119.8438" y2="119.8438"/><text fill="#000000" font-family="sans-serif" font-size="20" font-weight="bold" lengthAdjust="spacing" textLength="14" x="341" y="113.127">2</text><text fill="#000000" font-family="sans-serif" font-size="20" lengthAdjust="spacing" textLength="314" x="359" y="113.127">getFloorsWithElevator(request)</text><polygon fill="#181818" points="1092,153.125,1102,157.125,1092,161.125,1096,157.125" style="stroke:#181818;stroke-width:1.0;"/><line style="stroke:#181818;stroke-width:1.0;" x1="695" x2="1098" y1="157.125" y2="157.125"/><text fill="#000000" font-family="sans-serif" font-size="20" font-weight="bold" lengthAdjust="spacing" textLength="14" x="702" y="150.4082">3</text><text fill="#000000" font-family="sans-serif" font-size="20" lengthAdjust="spacing" textLength="372" x="720" y="150.4082">getFloorsWithElevator(buildingCode)</text><polygon fill="#181818" points="1404,190.4063,1414,194.4063,1404,198.4063,1408,194.4063" style="stroke:#181818;stroke-width:1.0;"/><line style="stroke:#181818;stroke-width:1.0;" x1="1114" x2="1410" y1="194.4063" y2="194.4063"/><text fill="#000000" font-family="sans-serif" font-size="20" font-weight="bold" lengthAdjust="spacing" textLength="14" x="1121" y="187.6895">4</text><text fill="#000000" font-family="sans-serif" font-size="20" lengthAdjust="spacing" textLength="265" x="1139" y="187.6895">findByCode(buildingCode)</text><polygon fill="#181818" points="1125,227.6875,1115,231.6875,1125,235.6875,1121,231.6875" style="stroke:#181818;stroke-width:1.0;"/><line style="stroke:#181818;stroke-width:1.0;stroke-dasharray:2.0,2.0;" x1="1119" x2="1420" y1="231.6875" y2="231.6875"/><text fill="#000000" font-family="sans-serif" font-size="20" font-weight="bold" lengthAdjust="spacing" textLength="14" x="1131" y="224.9707">5</text><text fill="#000000" font-family="sans-serif" font-size="20" lengthAdjust="spacing" textLength="83" x="1149" y="224.9707">building</text><polygon fill="#181818" points="1686,264.9688,1696,268.9688,1686,272.9688,1690,268.9688" style="stroke:#181818;stroke-width:1.0;"/><line style="stroke:#181818;stroke-width:1.0;" x1="1114" x2="1692" y1="268.9688" y2="268.9688"/><text fill="#000000" font-family="sans-serif" font-size="20" font-weight="bold" lengthAdjust="spacing" textLength="14" x="1121" y="262.252">6</text><text fill="#000000" font-family="sans-serif" font-size="20" lengthAdjust="spacing" textLength="291" x="1139" y="262.252">findByBuildingId(building.id)</text><polygon fill="#181818" points="1894,302.25,1904,306.25,1894,310.25,1898,306.25" style="stroke:#181818;stroke-width:1.0;"/><line style="stroke:#181818;stroke-width:1.0;" x1="1708" x2="1900" y1="306.25" y2="306.25"/><text fill="#000000" font-family="sans-serif" font-size="20" font-weight="bold" lengthAdjust="spacing" textLength="14" x="1715" y="299.5332">7</text><text fill="#000000" font-family="sans-serif" font-size="20" lengthAdjust="spacing" textLength="161" x="1733" y="299.5332">toDtoList(floors)</text><polygon fill="#181818" points="2075.5,339.5313,2085.5,343.5313,2075.5,347.5313,2079.5,343.5313" style="stroke:#181818;stroke-width:1.0;"/><line style="stroke:#181818;stroke-width:1.0;" x1="1911" x2="2081.5" y1="343.5313" y2="343.5313"/><text fill="#000000" font-family="sans-serif" font-size="20" font-weight="bold" lengthAdjust="spacing" textLength="14" x="1918" y="336.8145">8</text><text fill="#000000" font-family="sans-serif" font-size="20" lengthAdjust="spacing" textLength="114" x="1936" y="336.8145">createList()</text><polygon fill="#181818" points="1125,376.8125,1115,380.8125,1125,384.8125,1121,380.8125" style="stroke:#181818;stroke-width:1.0;"/><line style="stroke:#181818;stroke-width:1.0;stroke-dasharray:2.0,2.0;" x1="1119" x2="1702" y1="380.8125" y2="380.8125"/><text fill="#000000" font-family="sans-serif" font-size="20" font-weight="bold" lengthAdjust="spacing" textLength="14" x="1131" y="374.0957">9</text><text fill="#000000" font-family="sans-serif" font-size="20" lengthAdjust="spacing" textLength="90" x="1149" y="374.0957">floorsList</text><polygon fill="#181818" points="706,414.0938,696,418.0938,706,422.0938,702,418.0938" style="stroke:#181818;stroke-width:1.0;"/><line style="stroke:#181818;stroke-width:1.0;stroke-dasharray:2.0,2.0;" x1="700" x2="1108" y1="418.0938" y2="418.0938"/><text fill="#000000" font-family="sans-serif" font-size="20" font-weight="bold" lengthAdjust="spacing" textLength="28" x="712" y="411.377">10</text><text fill="#000000" font-family="sans-serif" font-size="20" lengthAdjust="spacing" textLength="90" x="744" y="411.377">floorsList</text><polygon fill="#181818" points="345,451.375,335,455.375,345,459.375,341,455.375" style="stroke:#181818;stroke-width:1.0;"/><line style="stroke:#181818;stroke-width:1.0;stroke-dasharray:2.0,2.0;" x1="339" x2="689" y1="455.375" y2="455.375"/><text fill="#000000" font-family="sans-serif" font-size="20" font-weight="bold" lengthAdjust="spacing" textLength="28" x="351" y="448.6582">11</text><text fill="#000000" font-family="sans-serif" font-size="20" lengthAdjust="spacing" textLength="90" x="383" y="448.6582">floorsList</text><polygon fill="#181818" points="11,488.6563,1,492.6563,11,496.6563,7,492.6563" style="stroke:#181818;stroke-width:1.0;"/><line style="stroke:#181818;stroke-width:1.0;stroke-dasharray:2.0,2.0;" x1="5" x2="328" y1="492.6563" y2="492.6563"/><text fill="#000000" font-family="sans-serif" font-size="20" font-weight="bold" lengthAdjust="spacing" textLength="28" x="17" y="485.9395">12</text><text fill="#000000" font-family="sans-serif" font-size="20" lengthAdjust="spacing" textLength="273" x="49" y="485.9395">200 OK (List of floors JSON)</text><!--SRC=[TPBDSe8m58NtUOgCArtGEYwPJZjLqQ55SG3jEfABpOY4Xk1C-_HDY6BmPmVaE-SUpasrPqL913daFDq3nHGoKkTonWiPip_0eo4YjUH5VTY2G8gKB6KbAIIEmdNYOLBXdZlBEHSHhoNqEiWaYGABc2XJmVCSH1UBeur5nI2EBBroYhnLE5xxmTHVpWqxhbbEMR6BeEHTTXQ4OMIWJ1iQsri_E_kDoU9zPPqlIDazdYQsNBsv_lcfXz0RTrvF_RXuxYNukGbI8P9ATYGIp252Xb5mqvIBTo0Rc-gBoMyl1yLoqHVmKqCb1nUvnb6ZKLfTtoFfzjJIX5Emz4g2j4p7j9jrSSOAElxL-2EjBK0TjTE6EKiHXViwQtWxzBnHdxQZdnYzcjnCr5Az81TBFfKyO9NicuOjMW58GuhLst9nAa1zR-217Ko3nhNDRymqUlq79lbbO_T9tQzPZtKHxgFDAbySfyL6mo4EFt5VWvXd9nd-YCDb9xQvGly0]--></g></svg>