<?xml version="1.0" encoding="UTF-8" standalone="no"?><svg xmlns="http://www.w3.org/2000/svg" xmlns:xlink="http://www.w3.org/1999/xlink" contentStyleType="text/css" height="660px" preserveAspectRatio="none" style="width:2086px;height:660px;background:#FFFFFF;" version="1.1" viewBox="0 0 2086 660" width="2086px" zoomAndPan="magnify"><defs/><g><rect fill="#FFFFFF" height="505.8797" style="stroke:#181818;stroke-width:1.0;" width="10" x="296.25" y="90.4799"/><rect fill="#FFFFFF" height="423.3997" style="stroke:#181818;stroke-width:1.0;" width="10" x="628.875" y="131.7199"/><rect fill="#FFFFFF" height="340.9198" style="stroke:#181818;stroke-width:1.0;" width="10" x="1013.5" y="172.9599"/><rect fill="#FFFFFF" height="41.24" style="stroke:#181818;stroke-width:1.0;" width="10" x="1345.125" y="214.1999"/><rect fill="#FFFFFF" height="123.7199" style="stroke:#181818;stroke-width:1.0;" width="10" x="1607.625" y="348.9198"/><rect fill="#FFFFFF" height="41.24" style="stroke:#181818;stroke-width:1.0;" width="10" x="1803.25" y="390.1598"/><line style="stroke:#181818;stroke-width:0.5;stroke-dasharray:5.0,5.0;" x1="301.25" x2="301.25" y1="47.24" y2="614.3596"/><line style="stroke:#181818;stroke-width:0.5;stroke-dasharray:5.0,5.0;" x1="633.375" x2="633.375" y1="47.24" y2="614.3596"/><line style="stroke:#181818;stroke-width:0.5;stroke-dasharray:5.0,5.0;" x1="1018.5" x2="1018.5" y1="47.24" y2="614.3596"/><line style="stroke:#181818;stroke-width:0.5;stroke-dasharray:5.0,5.0;" x1="1350.125" x2="1350.125" y1="47.24" y2="614.3596"/><line style="stroke:#181818;stroke-width:0.5;stroke-dasharray:5.0,5.0;" x1="1488.125" x2="1488.125" y1="299.5598" y2="614.3596"/><line style="stroke:#181818;stroke-width:0.5;stroke-dasharray:5.0,5.0;" x1="1612.125" x2="1612.125" y1="47.24" y2="614.3596"/><line style="stroke:#181818;stroke-width:0.5;stroke-dasharray:5.0,5.0;" x1="1807.75" x2="1807.75" y1="47.24" y2="614.3596"/><line style="stroke:#181818;stroke-width:0.5;stroke-dasharray:5.0,5.0;" x1="1975.75" x2="1975.75" y1="47.24" y2="614.3596"/><rect fill="#E2E2F0" height="41.24" rx="2.5" ry="2.5" style="stroke:#181818;stroke-width:0.5;" width="120" x="241.25" y="5"/><text fill="#000000" font-family="sans-serif" font-size="20" lengthAdjust="spacing" textLength="106" x="248.25" y="33.38">:FloorRoute</text><rect fill="#E2E2F0" height="41.24" rx="2.5" ry="2.5" style="stroke:#181818;stroke-width:0.5;" width="120" x="241.25" y="613.3596"/><text fill="#000000" font-family="sans-serif" font-size="20" lengthAdjust="spacing" textLength="106" x="248.25" y="641.7396">:FloorRoute</text><rect fill="#E2E2F0" height="41.24" rx="2.5" ry="2.5" style="stroke:#181818;stroke-width:0.5;" width="159" x="554.375" y="5"/><text fill="#000000" font-family="sans-serif" font-size="20" lengthAdjust="spacing" textLength="145" x="561.375" y="33.38">:FloorController</text><rect fill="#E2E2F0" height="41.24" rx="2.5" ry="2.5" style="stroke:#181818;stroke-width:0.5;" width="159" x="554.375" y="613.3596"/><text fill="#000000" font-family="sans-serif" font-size="20" lengthAdjust="spacing" textLength="145" x="561.375" y="641.7396">:FloorController</text><rect fill="#E2E2F0" height="41.24" rx="2.5" ry="2.5" style="stroke:#181818;stroke-width:0.5;" width="132" x="952.5" y="5"/><text fill="#000000" font-family="sans-serif" font-size="20" lengthAdjust="spacing" textLength="118" x="959.5" y="33.38">:FloorService</text><rect fill="#E2E2F0" height="41.24" rx="2.5" ry="2.5" style="stroke:#181818;stroke-width:0.5;" width="132" x="952.5" y="613.3596"/><text fill="#000000" font-family="sans-serif" font-size="20" lengthAdjust="spacing" textLength="118" x="959.5" y="641.7396">:FloorService</text><rect fill="#E2E2F0" height="41.24" rx="2.5" ry="2.5" style="stroke:#181818;stroke-width:0.5;" width="142" x="1279.125" y="5"/><text fill="#000000" font-family="sans-serif" font-size="20" lengthAdjust="spacing" textLength="128" x="1286.125" y="33.38">:BuildingRepo</text><rect fill="#E2E2F0" height="41.24" rx="2.5" ry="2.5" style="stroke:#181818;stroke-width:0.5;" width="142" x="1279.125" y="613.3596"/><text fill="#000000" font-family="sans-serif" font-size="20" lengthAdjust="spacing" textLength="128" x="1286.125" y="641.7396">:BuildingRepo</text><rect fill="#E2E2F0" height="41.24" rx="2.5" ry="2.5" style="stroke:#181818;stroke-width:0.5;" width="115" x="1431.125" y="613.3596"/><text fill="#000000" font-family="sans-serif" font-size="20" lengthAdjust="spacing" textLength="101" x="1438.125" y="641.7396">:floor:Floor</text><rect fill="#E2E2F0" height="41.24" rx="2.5" ry="2.5" style="stroke:#181818;stroke-width:0.5;" width="113" x="1556.125" y="5"/><text fill="#000000" font-family="sans-serif" font-size="20" lengthAdjust="spacing" textLength="99" x="1563.125" y="33.38">:FloorRepo</text><rect fill="#E2E2F0" height="41.24" rx="2.5" ry="2.5" style="stroke:#181818;stroke-width:0.5;" width="113" x="1556.125" y="613.3596"/><text fill="#000000" font-family="sans-serif" font-size="20" lengthAdjust="spacing" textLength="99" x="1563.125" y="641.7396">:FloorRepo</text><rect fill="#E2E2F0" height="41.24" rx="2.5" ry="2.5" style="stroke:#181818;stroke-width:0.5;" width="107" x="1754.75" y="5"/><text fill="#000000" font-family="sans-serif" font-size="20" lengthAdjust="spacing" textLength="93" x="1761.75" y="33.38">:FloorMap</text><rect fill="#E2E2F0" height="41.24" rx="2.5" ry="2.5" style="stroke:#181818;stroke-width:0.5;" width="107" x="1754.75" y="613.3596"/><text fill="#000000" font-family="sans-serif" font-size="20" lengthAdjust="spacing" textLength="93" x="1761.75" y="641.7396">:FloorMap</text><rect fill="#E2E2F0" height="41.24" rx="2.5" ry="2.5" style="stroke:#181818;stroke-width:0.5;" width="209" x="1871.75" y="5"/><text fill="#000000" font-family="sans-serif" font-size="20" lengthAdjust="spacing" textLength="195" x="1878.75" y="33.38">:FloorDTO:IFloorDTO</text><rect fill="#E2E2F0" height="41.24" rx="2.5" ry="2.5" style="stroke:#181818;stroke-width:0.5;" width="209" x="1871.75" y="613.3596"/><text fill="#000000" font-family="sans-serif" font-size="20" lengthAdjust="spacing" textLength="195" x="1878.75" y="641.7396">:FloorDTO:IFloorDTO</text><rect fill="#FFFFFF" height="505.8797" style="stroke:#181818;stroke-width:1.0;" width="10" x="296.25" y="90.4799"/><rect fill="#FFFFFF" height="423.3997" style="stroke:#181818;stroke-width:1.0;" width="10" x="628.875" y="131.7199"/><rect fill="#FFFFFF" height="340.9198" style="stroke:#181818;stroke-width:1.0;" width="10" x="1013.5" y="172.9599"/><rect fill="#FFFFFF" height="41.24" style="stroke:#181818;stroke-width:1.0;" width="10" x="1345.125" y="214.1999"/><rect fill="#FFFFFF" height="123.7199" style="stroke:#181818;stroke-width:1.0;" width="10" x="1607.625" y="348.9198"/><rect fill="#FFFFFF" height="41.24" style="stroke:#181818;stroke-width:1.0;" width="10" x="1803.25" y="390.1598"/><ellipse cx="37.125" cy="89.7299" fill="none" rx="4" ry="4" style="stroke:#181818;stroke-width:1.5;"/><polygon fill="#181818" points="284.25,86.4799,294.25,90.4799,284.25,94.4799,288.25,90.4799" style="stroke:#181818;stroke-width:1.0;"/><line style="stroke:#181818;stroke-width:1.0;" x1="41.625" x2="290.25" y1="90.4799" y2="90.4799"/><text fill="#000000" font-family="sans-serif" font-size="20" font-weight="bold" lengthAdjust="spacing" textLength="11.625" x="44.625" y="82.62">1</text><text fill="#000000" font-family="sans-serif" font-size="20" lengthAdjust="spacing" textLength="221" x="60.25" y="82.62">GET /floorsWithElevator</text><polygon fill="#181818" points="616.875,127.7199,626.875,131.7199,616.875,135.7199,620.875,131.7199" style="stroke:#181818;stroke-width:1.0;"/><line style="stroke:#181818;stroke-width:1.0;" x1="306.25" x2="622.875" y1="131.7199" y2="131.7199"/><text fill="#000000" font-family="sans-serif" font-size="20" font-weight="bold" lengthAdjust="spacing" textLength="11.625" x="313.25" y="123.8599">2</text><text fill="#000000" font-family="sans-serif" font-size="20" lengthAdjust="spacing" textLength="288" x="328.875" y="123.8599">getFloorsWithElevator(request)</text><polygon fill="#181818" points="1001.5,168.9599,1011.5,172.9599,1001.5,176.9599,1005.5,172.9599" style="stroke:#181818;stroke-width:1.0;"/><line style="stroke:#181818;stroke-width:1.0;" x1="638.875" x2="1007.5" y1="172.9599" y2="172.9599"/><text fill="#000000" font-family="sans-serif" font-size="20" font-weight="bold" lengthAdjust="spacing" textLength="11.625" x="645.875" y="165.0999">3</text><text fill="#000000" font-family="sans-serif" font-size="20" lengthAdjust="spacing" textLength="340" x="661.5" y="165.0999">getFloorsWithElevator(buildingCode)</text><polygon fill="#181818" points="1333.125,210.1999,1343.125,214.1999,1333.125,218.1999,1337.125,214.1999" style="stroke:#181818;stroke-width:1.0;"/><line style="stroke:#181818;stroke-width:1.0;" x1="1023.5" x2="1339.125" y1="214.1999" y2="214.1999"/><text fill="#000000" font-family="sans-serif" font-size="20" font-weight="bold" lengthAdjust="spacing" textLength="11.625" x="1030.5" y="206.3399">4</text><text fill="#000000" font-family="sans-serif" font-size="20" lengthAdjust="spacing" textLength="287" x="1046.125" y="206.3399">findByDomainId(buildingCode)</text><polygon fill="#181818" points="1034.5,251.4398,1024.5,255.4398,1034.5,259.4398,1030.5,255.4398" style="stroke:#181818;stroke-width:1.0;"/><line style="stroke:#181818;stroke-width:1.0;stroke-dasharray:2.0,2.0;" x1="1028.5" x2="1349.125" y1="255.4398" y2="255.4398"/><text fill="#000000" font-family="sans-serif" font-size="20" font-weight="bold" lengthAdjust="spacing" textLength="11.625" x="1040.5" y="247.5799">5</text><text fill="#000000" font-family="sans-serif" font-size="20" lengthAdjust="spacing" textLength="75" x="1056.125" y="247.5799">building</text><polygon fill="#181818" points="1419.125,292.6798,1429.125,296.6798,1419.125,300.6798,1423.125,296.6798" style="stroke:#181818;stroke-width:1.0;"/><line style="stroke:#181818;stroke-width:1.0;" x1="1023.5" x2="1425.125" y1="296.6798" y2="296.6798"/><text fill="#000000" font-family="sans-serif" font-size="20" font-weight="bold" lengthAdjust="spacing" textLength="11.625" x="1030.5" y="288.8198">6</text><text fill="#000000" font-family="sans-serif" font-size="20" lengthAdjust="spacing" textLength="70" x="1046.125" y="288.8198">create()</text><rect fill="#E2E2F0" height="41.24" rx="2.5" ry="2.5" style="stroke:#181818;stroke-width:0.5;" width="115" x="1431.125" y="263.4398"/><text fill="#000000" font-family="sans-serif" font-size="20" lengthAdjust="spacing" textLength="101" x="1438.125" y="291.8198">:floor:Floor</text><polygon fill="#181818" points="1595.625,344.9198,1605.625,348.9198,1595.625,352.9198,1599.625,348.9198" style="stroke:#181818;stroke-width:1.0;"/><line style="stroke:#181818;stroke-width:1.0;" x1="1023.5" x2="1601.625" y1="348.9198" y2="348.9198"/><text fill="#000000" font-family="sans-serif" font-size="20" font-weight="bold" lengthAdjust="spacing" textLength="11.625" x="1030.5" y="341.0598">7</text><text fill="#000000" font-family="sans-serif" font-size="20" lengthAdjust="spacing" textLength="98" x="1046.125" y="341.0598">save(floor)</text><polygon fill="#181818" points="1791.25,386.1598,1801.25,390.1598,1791.25,394.1598,1795.25,390.1598" style="stroke:#181818;stroke-width:1.0;"/><line style="stroke:#181818;stroke-width:1.0;" x1="1617.625" x2="1797.25" y1="390.1598" y2="390.1598"/><text fill="#000000" font-family="sans-serif" font-size="20" font-weight="bold" lengthAdjust="spacing" textLength="11.625" x="1624.625" y="382.2998">8</text><text fill="#000000" font-family="sans-serif" font-size="20" lengthAdjust="spacing" textLength="151" x="1640.25" y="382.2998">toDtoList(floors)</text><polygon fill="#181818" points="1964.25,427.3997,1974.25,431.3997,1964.25,435.3997,1968.25,431.3997" style="stroke:#181818;stroke-width:1.0;"/><line style="stroke:#181818;stroke-width:1.0;" x1="1808.25" x2="1970.25" y1="431.3997" y2="431.3997"/><text fill="#000000" font-family="sans-serif" font-size="20" font-weight="bold" lengthAdjust="spacing" textLength="11.625" x="1815.25" y="423.5398">9</text><text fill="#000000" font-family="sans-serif" font-size="20" lengthAdjust="spacing" textLength="102" x="1830.875" y="423.5398">createList()</text><polygon fill="#181818" points="1034.5,468.6397,1024.5,472.6397,1034.5,476.6397,1030.5,472.6397" style="stroke:#181818;stroke-width:1.0;"/><line style="stroke:#181818;stroke-width:1.0;stroke-dasharray:2.0,2.0;" x1="1028.5" x2="1611.625" y1="472.6397" y2="472.6397"/><text fill="#000000" font-family="sans-serif" font-size="20" font-weight="bold" lengthAdjust="spacing" textLength="23.25" x="1040.5" y="464.7797">10</text><text fill="#000000" font-family="sans-serif" font-size="20" lengthAdjust="spacing" textLength="86" x="1067.75" y="464.7797">floorsList</text><polygon fill="#181818" points="649.875,509.8797,639.875,513.8797,649.875,517.8797,645.875,513.8797" style="stroke:#181818;stroke-width:1.0;"/><line style="stroke:#181818;stroke-width:1.0;stroke-dasharray:2.0,2.0;" x1="643.875" x2="1017.5" y1="513.8797" y2="513.8797"/><text fill="#000000" font-family="sans-serif" font-size="20" font-weight="bold" lengthAdjust="spacing" textLength="23.25" x="655.875" y="506.0197">11</text><text fill="#000000" font-family="sans-serif" font-size="20" lengthAdjust="spacing" textLength="86" x="683.125" y="506.0197">floorsList</text><polygon fill="#181818" points="317.25,551.1197,307.25,555.1197,317.25,559.1197,313.25,555.1197" style="stroke:#181818;stroke-width:1.0;"/><line style="stroke:#181818;stroke-width:1.0;stroke-dasharray:2.0,2.0;" x1="311.25" x2="632.875" y1="555.1197" y2="555.1197"/><text fill="#000000" font-family="sans-serif" font-size="20" font-weight="bold" lengthAdjust="spacing" textLength="23.25" x="323.25" y="547.2597">12</text><text fill="#000000" font-family="sans-serif" font-size="20" lengthAdjust="spacing" textLength="86" x="350.5" y="547.2597">floorsList</text><polygon fill="#181818" points="11,592.3596,1,596.3596,11,600.3596,7,596.3596" style="stroke:#181818;stroke-width:1.0;"/><line style="stroke:#181818;stroke-width:1.0;stroke-dasharray:2.0,2.0;" x1="5" x2="300.25" y1="596.3596" y2="596.3596"/><text fill="#000000" font-family="sans-serif" font-size="20" font-weight="bold" lengthAdjust="spacing" textLength="23.25" x="17" y="588.4997">13</text><text fill="#000000" font-family="sans-serif" font-size="20" lengthAdjust="spacing" textLength="250" x="44.25" y="588.4997">200 OK (List of floors JSON)</text><!--SRC=[TP9TRu8m58Rl-oiQhz34p7X9bYrJmB2X6C3jkiB1DI9bfPXiltujHIr-tF7nF6zVpg7Uqx8Yd1mAbkuXmndaf2c4nqeHqp_0qmaYZM1bSzW2Hv8KDAKLAGMEmatYObBZWUqLZF68DG86FMIUH851p6KePqK1l8_5qQT1nS2FDBrAYjnrEDluWUEl5fgTDRJ8QBcBe69zrWl2CD9GhW9rx6sUsVqcPFcsDjulITL_xIIcBkzi_tGrGEYLZL-w-TXuuIRugIrIVr7nxHPm989nH591vHLe427DIx6Tcert8BmRo-Bmqq0jXXTTuQXrfAj6-KZTTXERimmCNof8QQgoEMKRvxJCPhyEEn1Q-jaZtvHGBs5yBdHIKGRtlQv0kxhHI1ef1mbPGxEQV5oJ8rZjCAyQj2ShK2tEne8vWWMq5Xgk3Le2I46ILLiy7TN2GxEW0dNg-Jjqc4AllqJtl6plFgbchLTb_23tqNQjp-Fn6PjE9ZZym9O2CSix3R_7uQfNM_zE_m00]--></g></svg>