<?xml version="1.0" encoding="UTF-8" standalone="no"?><svg xmlns="http://www.w3.org/2000/svg" xmlns:xlink="http://www.w3.org/1999/xlink" contentStyleType="text/css" height="494px" preserveAspectRatio="none" style="width:909px;height:494px;background:#FFFFFF;" version="1.1" viewBox="0 0 909 494" width="909px" zoomAndPan="magnify"><defs/><g><rect fill="#FFFFFF" height="290.9198" style="stroke:#181818;stroke-width:1.0;" width="10" x="84" y="102.24"/><rect fill="#FFFFFF" height="41.24" style="stroke:#181818;stroke-width:1.0;" width="10" x="783.625" y="135.4799"/><rect fill="#FFFFFF" height="160.1999" style="stroke:#181818;stroke-width:1.0;" width="10" x="783.625" y="217.9599"/><rect fill="none" height="153.1999" style="stroke:#000000;stroke-width:1.5;" width="892.625" x="10" y="232.9599"/><line style="stroke:#181818;stroke-width:0.5;stroke-dasharray:5.0,5.0;" x1="89" x2="89" y1="92.24" y2="403.1598"/><line style="stroke:#181818;stroke-width:0.5;stroke-dasharray:5.0,5.0;" x1="788.625" x2="788.625" y1="92.24" y2="403.1598"/><text fill="#000000" font-family="sans-serif" font-size="20" lengthAdjust="spacing" textLength="132" x="20" y="86.38">Fleet Manager</text><ellipse cx="89" cy="13.5" fill="#E2E2F0" rx="8" ry="8" style="stroke:#181818;stroke-width:0.5;"/><path d="M89,21.5 L89,48.5 M76,29.5 L102,29.5 M89,48.5 L76,63.5 M89,48.5 L102,63.5 " fill="none" style="stroke:#181818;stroke-width:0.5;"/><text fill="#000000" font-family="sans-serif" font-size="20" lengthAdjust="spacing" textLength="132" x="20" y="423.5398">Fleet Manager</text><ellipse cx="89" cy="437.8997" fill="#E2E2F0" rx="8" ry="8" style="stroke:#181818;stroke-width:0.5;"/><path d="M89,445.8997 L89,472.8997 M76,453.8997 L102,453.8997 M89,472.8997 L76,487.8997 M89,472.8997 L102,487.8997 " fill="none" style="stroke:#181818;stroke-width:0.5;"/><rect fill="#E2E2F0" height="68.4799" rx="2.5" ry="2.5" style="stroke:#181818;stroke-width:0.5;" width="208" x="684.625" y="22.76"/><text fill="#000000" font-family="sans-serif" font-size="20" font-style="italic" lengthAdjust="spacing" textLength="122" x="727.625" y="51.14">«system (C4)»</text><text fill="#000000" font-family="sans-serif" font-size="20" lengthAdjust="spacing" textLength="194" x="691.625" y="78.38">RobDroneGo System</text><rect fill="#E2E2F0" height="68.4799" rx="2.5" ry="2.5" style="stroke:#181818;stroke-width:0.5;" width="208" x="684.625" y="402.1598"/><text fill="#000000" font-family="sans-serif" font-size="20" font-style="italic" lengthAdjust="spacing" textLength="122" x="727.625" y="430.5398">«system (C4)»</text><text fill="#000000" font-family="sans-serif" font-size="20" lengthAdjust="spacing" textLength="194" x="691.625" y="457.7797">RobDroneGo System</text><rect fill="#FFFFFF" height="290.9198" style="stroke:#181818;stroke-width:1.0;" width="10" x="84" y="102.24"/><rect fill="#FFFFFF" height="41.24" style="stroke:#181818;stroke-width:1.0;" width="10" x="783.625" y="135.4799"/><rect fill="#FFFFFF" height="160.1999" style="stroke:#181818;stroke-width:1.0;" width="10" x="783.625" y="217.9599"/><polygon fill="#181818" points="771.625,131.4799,781.625,135.4799,771.625,139.4799,775.625,135.4799" style="stroke:#181818;stroke-width:1.0;"/><line style="stroke:#181818;stroke-width:1.0;" x1="94" x2="777.625" y1="135.4799" y2="135.4799"/><text fill="#000000" font-family="sans-serif" font-size="20" font-weight="bold" lengthAdjust="spacing" textLength="11.625" x="101" y="127.62">1</text><text fill="#000000" font-family="sans-serif" font-size="20" lengthAdjust="spacing" textLength="341" x="116.625" y="127.62">wants to add a new robot to the fleet</text><polygon fill="#181818" points="105,172.7199,95,176.7199,105,180.7199,101,176.7199" style="stroke:#181818;stroke-width:1.0;"/><line style="stroke:#181818;stroke-width:1.0;stroke-dasharray:2.0,2.0;" x1="99" x2="787.625" y1="176.7199" y2="176.7199"/><text fill="#000000" font-family="sans-serif" font-size="20" font-weight="bold" lengthAdjust="spacing" textLength="11.625" x="111" y="168.8599">2</text><text fill="#000000" font-family="sans-serif" font-size="20" lengthAdjust="spacing" textLength="647" x="126.625" y="168.8599">asks for the code, nickname, model code, serial number &amp; description</text><polygon fill="#181818" points="771.625,213.9599,781.625,217.9599,771.625,221.9599,775.625,217.9599" style="stroke:#181818;stroke-width:1.0;"/><line style="stroke:#181818;stroke-width:1.0;" x1="94" x2="777.625" y1="217.9599" y2="217.9599"/><text fill="#000000" font-family="sans-serif" font-size="20" font-weight="bold" lengthAdjust="spacing" textLength="11.625" x="101" y="210.0999">3</text><text fill="#000000" font-family="sans-serif" font-size="20" lengthAdjust="spacing" textLength="144" x="116.625" y="210.0999">inserts the data</text><path d="M10,232.9599 L79.875,232.9599 L79.875,252.1999 L69.875,262.1999 L10,262.1999 L10,232.9599 " fill="#EEEEEE" style="stroke:#000000;stroke-width:1.5;"/><rect fill="none" height="153.1999" style="stroke:#000000;stroke-width:1.5;" width="892.625" x="10" y="232.9599"/><text fill="#000000" font-family="sans-serif" font-size="20" font-weight="bold" lengthAdjust="spacing" textLength="24.875" x="25" y="255.3399">alt</text><text fill="#000000" font-family="sans-serif" font-size="20" font-weight="bold" lengthAdjust="spacing" textLength="232.5" x="94.875" y="256.3399">[a new robot is created]</text><polygon fill="#181818" points="105,303.6798,95,307.6798,105,311.6798,101,307.6798" style="stroke:#181818;stroke-width:1.0;"/><line style="stroke:#181818;stroke-width:1.0;stroke-dasharray:2.0,2.0;" x1="99" x2="782.625" y1="307.6798" y2="307.6798"/><text fill="#000000" font-family="sans-serif" font-size="20" font-weight="bold" lengthAdjust="spacing" textLength="11.625" x="111" y="299.8198">4</text><text fill="#000000" font-family="sans-serif" font-size="20" lengthAdjust="spacing" textLength="203" x="126.625" y="299.8198">returns the new robot</text><line style="stroke:#000000;stroke-width:1.0;stroke-dasharray:2.0,2.0;" x1="10" x2="902.625" y1="316.6798" y2="316.6798"/><text fill="#000000" font-family="sans-serif" font-size="20" font-weight="bold" lengthAdjust="spacing" textLength="669.25" x="15" y="338.0598">[there is a robot with the specified code, nickname or serial number]</text><polygon fill="#181818" points="105,374.1598,95,378.1598,105,382.1598,101,378.1598" style="stroke:#181818;stroke-width:1.0;"/><line style="stroke:#181818;stroke-width:1.0;stroke-dasharray:2.0,2.0;" x1="99" x2="787.625" y1="378.1598" y2="378.1598"/><text fill="#000000" font-family="sans-serif" font-size="20" font-weight="bold" lengthAdjust="spacing" textLength="11.625" x="111" y="370.2998">5</text><text fill="#000000" font-family="sans-serif" font-size="20" lengthAdjust="spacing" textLength="650" x="126.625" y="370.2998">shows error message "A device with the specified data already exists."</text><!--SRC=[RP4nJyD038Nt-nLM1WGIHGWneQeI0fMf2vaOtJk7MadkehFJK7uzJbe1AMmNn-_pUxRK73lCs3R9rnGWK8Lze-iKjUHFWhjRXxscsBTRoiwXrvHXlG4KADODaS868xvJBfnXb3rt61NAjt9gUKtRvvmYlIGe3wBK5h1SolI2owVxgzLgOl8UbGphdA4Ngqd-08EH13G1XW08aGR8QPjqBEcEe1hd_yXDDEcNYyK9W58BL6PuxFOfq3L4zdN4rbwjVJUdgb1cRE2O4Yvi2-8pTyefka1_9dmxv6ZAqQFn0ogUcS56PxvPm6Uoty41p9ncqZx78-Yxtr4ZD9OoZL8yKGRMtTGe7NcksAuspmQMU9ReV9hiqY10ELjZIo9sFoWUBVMUFVt77xC1DkOz780-M5Hk2gEUxOPYSB_tPGVz0W00]--></g></svg>