<?xml version="1.0" encoding="UTF-8" standalone="no"?><svg xmlns="http://www.w3.org/2000/svg" xmlns:xlink="http://www.w3.org/1999/xlink" contentStyleType="text/css" height="867px" preserveAspectRatio="none" style="width:2570px;height:867px;background:#FFFFFF;" version="1.1" viewBox="0 0 2570 867" width="2570px" zoomAndPan="magnify"><defs/><g><rect fill="#FFFFFF" height="655.3596" style="stroke:#181818;stroke-width:1.0;" width="10" x="68.5" y="102.24"/><rect fill="#FFFFFF" height="82.4799" style="stroke:#181818;stroke-width:1.0;" width="10" x="669.125" y="135.4799"/><rect fill="#FFFFFF" height="498.3997" style="stroke:#181818;stroke-width:1.0;" width="10" x="669.125" y="259.1999"/><rect fill="#FFFFFF" height="41.24" style="stroke:#181818;stroke-width:1.0;" width="10" x="979.75" y="176.7199"/><rect fill="#FFFFFF" height="457.1598" style="stroke:#181818;stroke-width:1.0;" width="10" x="979.75" y="259.1999"/><rect fill="#FFFFFF" height="28" style="stroke:#181818;stroke-width:1.0;" width="10" x="984.75" y="640.1197"/><rect fill="#FFFFFF" height="367.6798" style="stroke:#181818;stroke-width:1.0;" width="10" x="1649" y="300.4398"/><rect fill="#FFFFFF" height="41.24" style="stroke:#181818;stroke-width:1.0;" width="10" x="1654" y="382.9198"/><rect fill="#FFFFFF" height="207.9599" style="stroke:#181818;stroke-width:1.0;" width="10" x="2121.625" y="341.6798"/><rect fill="#FFFFFF" height="28" style="stroke:#181818;stroke-width:1.0;" width="10" x="2126.625" y="473.3997"/><line style="stroke:#181818;stroke-width:0.5;stroke-dasharray:5.0,5.0;" x1="73" x2="73" y1="92.24" y2="775.5996"/><line style="stroke:#181818;stroke-width:0.5;stroke-dasharray:5.0,5.0;" x1="674.125" x2="674.125" y1="92.24" y2="775.5996"/><line style="stroke:#181818;stroke-width:0.5;stroke-dasharray:5.0,5.0;" x1="984.25" x2="984.25" y1="92.24" y2="775.5996"/><line style="stroke:#181818;stroke-width:0.5;stroke-dasharray:5.0,5.0;" x1="1654" x2="1654" y1="92.24" y2="775.5996"/><line style="stroke:#181818;stroke-width:0.5;stroke-dasharray:5.0,5.0;" x1="2126.625" x2="2126.625" y1="92.24" y2="775.5996"/><text fill="#000000" font-family="sans-serif" font-size="20" lengthAdjust="spacing" textLength="131" x="5" y="86.38">Task Manager</text><ellipse cx="73.5" cy="13.5" fill="#E2E2F0" rx="8" ry="8" style="stroke:#181818;stroke-width:0.5;"/><path d="M73.5,21.5 L73.5,48.5 M60.5,29.5 L86.5,29.5 M73.5,48.5 L60.5,63.5 M73.5,48.5 L86.5,63.5 " fill="none" style="stroke:#181818;stroke-width:0.5;"/><text fill="#000000" font-family="sans-serif" font-size="20" lengthAdjust="spacing" textLength="131" x="5" y="795.9796">Task Manager</text><ellipse cx="73.5" cy="810.3396" fill="#E2E2F0" rx="8" ry="8" style="stroke:#181818;stroke-width:0.5;"/><path d="M73.5,818.3396 L73.5,845.3396 M60.5,826.3396 L86.5,826.3396 M73.5,845.3396 L60.5,860.3396 M73.5,845.3396 L86.5,860.3396 " fill="none" style="stroke:#181818;stroke-width:0.5;"/><rect fill="#E2E2F0" height="68.4799" rx="2.5" ry="2.5" style="stroke:#181818;stroke-width:0.5;" width="136" x="606.125" y="22.76"/><text fill="#000000" font-family="sans-serif" font-size="20" font-style="italic" lengthAdjust="spacing" textLength="122" x="613.125" y="51.14">«system (C4)»</text><text fill="#000000" font-family="sans-serif" font-size="20" lengthAdjust="spacing" textLength="116" x="616.125" y="78.38">Visualization</text><rect fill="#E2E2F0" height="68.4799" rx="2.5" ry="2.5" style="stroke:#181818;stroke-width:0.5;" width="136" x="606.125" y="774.5996"/><text fill="#000000" font-family="sans-serif" font-size="20" font-style="italic" lengthAdjust="spacing" textLength="122" x="613.125" y="802.9796">«system (C4)»</text><text fill="#000000" font-family="sans-serif" font-size="20" lengthAdjust="spacing" textLength="116" x="616.125" y="830.2196">Visualization</text><rect fill="#E2E2F0" height="68.4799" rx="2.5" ry="2.5" style="stroke:#181818;stroke-width:0.5;" width="257" x="856.25" y="22.76"/><text fill="#000000" font-family="sans-serif" font-size="20" font-style="italic" lengthAdjust="spacing" textLength="122" x="923.75" y="51.14">«system (C4)»</text><text fill="#000000" font-family="sans-serif" font-size="20" lengthAdjust="spacing" textLength="243" x="863.25" y="78.38">Management Master Data</text><rect fill="#E2E2F0" height="68.4799" rx="2.5" ry="2.5" style="stroke:#181818;stroke-width:0.5;" width="257" x="856.25" y="774.5996"/><text fill="#000000" font-family="sans-serif" font-size="20" font-style="italic" lengthAdjust="spacing" textLength="122" x="923.75" y="802.9796">«system (C4)»</text><text fill="#000000" font-family="sans-serif" font-size="20" lengthAdjust="spacing" textLength="243" x="863.25" y="830.2196">Management Master Data</text><rect fill="#E2E2F0" height="68.4799" rx="2.5" ry="2.5" style="stroke:#181818;stroke-width:0.5;" width="186" x="1561" y="22.76"/><text fill="#000000" font-family="sans-serif" font-size="20" font-style="italic" lengthAdjust="spacing" textLength="122" x="1593" y="51.14">«system (C4)»</text><text fill="#000000" font-family="sans-serif" font-size="20" lengthAdjust="spacing" textLength="172" x="1568" y="78.38">Tasks Master Data</text><rect fill="#E2E2F0" height="68.4799" rx="2.5" ry="2.5" style="stroke:#181818;stroke-width:0.5;" width="186" x="1561" y="774.5996"/><text fill="#000000" font-family="sans-serif" font-size="20" font-style="italic" lengthAdjust="spacing" textLength="122" x="1593" y="802.9796">«system (C4)»</text><text fill="#000000" font-family="sans-serif" font-size="20" lengthAdjust="spacing" textLength="172" x="1568" y="830.2196">Tasks Master Data</text><rect fill="#E2E2F0" height="68.4799" rx="2.5" ry="2.5" style="stroke:#181818;stroke-width:0.5;" width="136" x="2058.625" y="22.76"/><text fill="#000000" font-family="sans-serif" font-size="20" font-style="italic" lengthAdjust="spacing" textLength="122" x="2065.625" y="51.14">«system (C4)»</text><text fill="#000000" font-family="sans-serif" font-size="20" lengthAdjust="spacing" textLength="81" x="2086.125" y="78.38">Planning</text><rect fill="#E2E2F0" height="68.4799" rx="2.5" ry="2.5" style="stroke:#181818;stroke-width:0.5;" width="136" x="2058.625" y="774.5996"/><text fill="#000000" font-family="sans-serif" font-size="20" font-style="italic" lengthAdjust="spacing" textLength="122" x="2065.625" y="802.9796">«system (C4)»</text><text fill="#000000" font-family="sans-serif" font-size="20" lengthAdjust="spacing" textLength="81" x="2086.125" y="830.2196">Planning</text><rect fill="#FFFFFF" height="655.3596" style="stroke:#181818;stroke-width:1.0;" width="10" x="68.5" y="102.24"/><rect fill="#FFFFFF" height="82.4799" style="stroke:#181818;stroke-width:1.0;" width="10" x="669.125" y="135.4799"/><rect fill="#FFFFFF" height="498.3997" style="stroke:#181818;stroke-width:1.0;" width="10" x="669.125" y="259.1999"/><rect fill="#FFFFFF" height="41.24" style="stroke:#181818;stroke-width:1.0;" width="10" x="979.75" y="176.7199"/><rect fill="#FFFFFF" height="457.1598" style="stroke:#181818;stroke-width:1.0;" width="10" x="979.75" y="259.1999"/><rect fill="#FFFFFF" height="28" style="stroke:#181818;stroke-width:1.0;" width="10" x="984.75" y="640.1197"/><rect fill="#FFFFFF" height="367.6798" style="stroke:#181818;stroke-width:1.0;" width="10" x="1649" y="300.4398"/><rect fill="#FFFFFF" height="41.24" style="stroke:#181818;stroke-width:1.0;" width="10" x="1654" y="382.9198"/><rect fill="#FFFFFF" height="207.9599" style="stroke:#181818;stroke-width:1.0;" width="10" x="2121.625" y="341.6798"/><rect fill="#FFFFFF" height="28" style="stroke:#181818;stroke-width:1.0;" width="10" x="2126.625" y="473.3997"/><polygon fill="#181818" points="657.125,131.4799,667.125,135.4799,657.125,139.4799,661.125,135.4799" style="stroke:#181818;stroke-width:1.0;"/><line style="stroke:#181818;stroke-width:1.0;" x1="78.5" x2="663.125" y1="135.4799" y2="135.4799"/><text fill="#000000" font-family="sans-serif" font-size="20" font-weight="bold" lengthAdjust="spacing" textLength="11.625" x="85.5" y="127.62">1</text><text fill="#000000" font-family="sans-serif" font-size="20" lengthAdjust="spacing" textLength="556" x="101.125" y="127.62">asks to get the sequence of execution of the approved tasks</text><polygon fill="#181818" points="967.75,172.7199,977.75,176.7199,967.75,180.7199,971.75,176.7199" style="stroke:#181818;stroke-width:1.0;"/><line style="stroke:#181818;stroke-width:1.0;" x1="679.125" x2="973.75" y1="176.7199" y2="176.7199"/><text fill="#000000" font-family="sans-serif" font-size="20" font-weight="bold" lengthAdjust="spacing" textLength="11.625" x="686.125" y="168.8599">2</text><text fill="#000000" font-family="sans-serif" font-size="20" lengthAdjust="spacing" textLength="118" x="701.75" y="168.8599">GET /devices</text><polygon fill="#181818" points="685.125,213.9599,675.125,217.9599,685.125,221.9599,681.125,217.9599" style="stroke:#181818;stroke-width:1.0;"/><line style="stroke:#181818;stroke-width:1.0;stroke-dasharray:2.0,2.0;" x1="679.125" x2="983.75" y1="217.9599" y2="217.9599"/><text fill="#000000" font-family="sans-serif" font-size="20" font-weight="bold" lengthAdjust="spacing" textLength="11.625" x="691.125" y="210.0999">3</text><text fill="#000000" font-family="sans-serif" font-size="20" lengthAdjust="spacing" textLength="175" x="706.75" y="210.0999">200 (list of devices)</text><polygon fill="#181818" points="967.75,255.1999,977.75,259.1999,967.75,263.1999,971.75,259.1999" style="stroke:#181818;stroke-width:1.0;"/><line style="stroke:#181818;stroke-width:1.0;" x1="679.125" x2="973.75" y1="259.1999" y2="259.1999"/><text fill="#000000" font-family="sans-serif" font-size="20" font-weight="bold" lengthAdjust="spacing" textLength="11.625" x="686.125" y="251.3399">4</text><text fill="#000000" font-family="sans-serif" font-size="20" lengthAdjust="spacing" textLength="271" x="701.75" y="251.3399">GET /task-requests/sequence</text><polygon fill="#181818" points="1637,296.4398,1647,300.4398,1637,304.4398,1641,300.4398" style="stroke:#181818;stroke-width:1.0;"/><line style="stroke:#181818;stroke-width:1.0;" x1="989.75" x2="1643" y1="300.4398" y2="300.4398"/><text fill="#000000" font-family="sans-serif" font-size="20" font-weight="bold" lengthAdjust="spacing" textLength="11.625" x="996.75" y="292.5799">5</text><text fill="#000000" font-family="sans-serif" font-size="20" lengthAdjust="spacing" textLength="194" x="1012.375" y="292.5799">GET /tasks/sequence</text><polygon fill="#181818" points="2109.625,337.6798,2119.625,341.6798,2109.625,345.6798,2113.625,341.6798" style="stroke:#181818;stroke-width:1.0;"/><line style="stroke:#181818;stroke-width:1.0;" x1="1659" x2="2115.625" y1="341.6798" y2="341.6798"/><text fill="#000000" font-family="sans-serif" font-size="20" font-weight="bold" lengthAdjust="spacing" textLength="11.625" x="1666" y="333.8198">6</text><text fill="#000000" font-family="sans-serif" font-size="20" lengthAdjust="spacing" textLength="138" x="1681.625" y="333.8198">GET /sequence</text><polygon fill="#181818" points="1675,378.9198,1665,382.9198,1675,386.9198,1671,382.9198" style="stroke:#181818;stroke-width:1.0;"/><line style="stroke:#181818;stroke-width:1.0;" x1="1669" x2="2120.625" y1="382.9198" y2="382.9198"/><text fill="#000000" font-family="sans-serif" font-size="20" font-weight="bold" lengthAdjust="spacing" textLength="11.625" x="1681" y="375.0598">7</text><text fill="#000000" font-family="sans-serif" font-size="20" lengthAdjust="spacing" textLength="418" x="1696.625" y="375.0598">GET /requests/pick-delivery?status=approved</text><polygon fill="#181818" points="2109.625,420.1598,2119.625,424.1598,2109.625,428.1598,2113.625,424.1598" style="stroke:#181818;stroke-width:1.0;"/><line style="stroke:#181818;stroke-width:1.0;stroke-dasharray:2.0,2.0;" x1="1659" x2="2115.625" y1="424.1598" y2="424.1598"/><text fill="#000000" font-family="sans-serif" font-size="20" font-weight="bold" lengthAdjust="spacing" textLength="11.625" x="1666" y="416.2998">8</text><text fill="#000000" font-family="sans-serif" font-size="20" lengthAdjust="spacing" textLength="418" x="1681.625" y="416.2998">GET /requests/pick-delivery?status=approved</text><line style="stroke:#181818;stroke-width:1.0;" x1="2136.625" x2="2178.625" y1="465.3997" y2="465.3997"/><line style="stroke:#181818;stroke-width:1.0;" x1="2178.625" x2="2178.625" y1="465.3997" y2="478.3997"/><line style="stroke:#181818;stroke-width:1.0;" x1="2137.625" x2="2178.625" y1="478.3997" y2="478.3997"/><polygon fill="#181818" points="2147.625,474.3997,2137.625,478.3997,2147.625,482.3997,2143.625,478.3997" style="stroke:#181818;stroke-width:1.0;"/><text fill="#000000" font-family="sans-serif" font-size="20" font-weight="bold" lengthAdjust="spacing" textLength="11.625" x="2143.625" y="457.5398">9</text><text fill="#000000" font-family="sans-serif" font-size="20" lengthAdjust="spacing" textLength="404" x="2159.25" y="457.5398">runs algorithm to get the sequence of tasks</text><polygon fill="#181818" points="1670,545.6397,1660,549.6397,1670,553.6397,1666,549.6397" style="stroke:#181818;stroke-width:1.0;"/><line style="stroke:#181818;stroke-width:1.0;stroke-dasharray:2.0,2.0;" x1="1664" x2="2125.625" y1="549.6397" y2="549.6397"/><text fill="#000000" font-family="sans-serif" font-size="20" font-weight="bold" lengthAdjust="spacing" textLength="23.25" x="1676" y="541.7797">10</text><text fill="#000000" font-family="sans-serif" font-size="20" lengthAdjust="spacing" textLength="217" x="1703.25" y="541.7797">200 (sequence of tasks)</text><polygon fill="#181818" points="1000.75,586.8797,990.75,590.8797,1000.75,594.8797,996.75,590.8797" style="stroke:#181818;stroke-width:1.0;"/><line style="stroke:#181818;stroke-width:1.0;stroke-dasharray:2.0,2.0;" x1="994.75" x2="1648" y1="590.8797" y2="590.8797"/><text fill="#000000" font-family="sans-serif" font-size="20" font-weight="bold" lengthAdjust="spacing" textLength="23.25" x="1006.75" y="583.0197">11</text><text fill="#000000" font-family="sans-serif" font-size="20" lengthAdjust="spacing" textLength="217" x="1034" y="583.0197">200 (sequence of tasks)</text><line style="stroke:#181818;stroke-width:1.0;" x1="994.75" x2="1036.75" y1="632.1197" y2="632.1197"/><line style="stroke:#181818;stroke-width:1.0;" x1="1036.75" x2="1036.75" y1="632.1197" y2="645.1197"/><line style="stroke:#181818;stroke-width:1.0;" x1="995.75" x2="1036.75" y1="645.1197" y2="645.1197"/><polygon fill="#181818" points="1005.75,641.1197,995.75,645.1197,1005.75,649.1197,1001.75,645.1197" style="stroke:#181818;stroke-width:1.0;"/><text fill="#000000" font-family="sans-serif" font-size="20" font-weight="bold" lengthAdjust="spacing" textLength="23.25" x="1001.75" y="624.2597">12</text><text fill="#000000" font-family="sans-serif" font-size="20" lengthAdjust="spacing" textLength="618" x="1029" y="624.2597">enriches the sequence of tasks with the user's &amp; robot information</text><polygon fill="#181818" points="690.125,712.3596,680.125,716.3596,690.125,720.3596,686.125,716.3596" style="stroke:#181818;stroke-width:1.0;"/><line style="stroke:#181818;stroke-width:1.0;stroke-dasharray:2.0,2.0;" x1="684.125" x2="983.75" y1="716.3596" y2="716.3596"/><text fill="#000000" font-family="sans-serif" font-size="20" font-weight="bold" lengthAdjust="spacing" textLength="23.25" x="696.125" y="708.4997">13</text><text fill="#000000" font-family="sans-serif" font-size="20" lengthAdjust="spacing" textLength="217" x="723.375" y="708.4997">200 (sequence of tasks)</text><polygon fill="#181818" points="84.5,753.5996,74.5,757.5996,84.5,761.5996,80.5,757.5996" style="stroke:#181818;stroke-width:1.0;"/><line style="stroke:#181818;stroke-width:1.0;stroke-dasharray:2.0,2.0;" x1="78.5" x2="673.125" y1="757.5996" y2="757.5996"/><text fill="#000000" font-family="sans-serif" font-size="20" font-weight="bold" lengthAdjust="spacing" textLength="23.25" x="90.5" y="749.7396">14</text><text fill="#000000" font-family="sans-serif" font-size="20" lengthAdjust="spacing" textLength="275" x="117.75" y="749.7396">returns the sequence of tasks</text><!--SRC=[ZLF1Rjim3BthAuWSjkPWD2XsAhBii6v33mOCpDsTjPb4Y2rv8fMj_Vf9IjpPYHFqAF6zn_T8YNVQTEYmRMorenfgMgDlvBirybE_4jmj57gnnhVFv1HMOXsKEI33h4JUGOu6D-HcAeY8hdI7Hk3fCG5-QVROw5SKRSqCbaj-OQ4MRhv-cgzM8qQUFoJAGQwbU8K1xE011QzpooCt-k7tquf4AXeqHflDEJQ6rNiK2WsK2fcpLGns3wcDMDYGW6m9c7vxCXM1NGFzfSh7kF4GYzXrpkx3O2NI_ci-FIeLr89cZ7uFFxwLS5lJNbSqG8MQYlMixtstMC1DercY_X4-LpMD68FZP9je9NFHDGlVzlP7tiuThDAS1mfJp01HvG5TzDXpLA6A4xqtCvskTbbDZTwJU_d2WkBvSp_3YJx3HkyK6KmdoXIzMUSD0pORwxHisqiBFbbZCPHBkTw2fLMTKUTZGXyYlqevBk008kDqjIMUjWP_WljKyapk8yC7SFRP2cYpjgvDNr5TUYqdntBozLsF52NYPrbcsO7ZIBmp5zoUFjLHS_KF]--></g></svg>