<?xml version="1.0" encoding="UTF-8" standalone="no"?><svg xmlns="http://www.w3.org/2000/svg" xmlns:xlink="http://www.w3.org/1999/xlink" contentStyleType="text/css" height="1269px" preserveAspectRatio="none" style="width:997px;height:1269px;background:#FFFFFF;" version="1.1" viewBox="0 0 997 1269" width="997px" zoomAndPan="magnify"><defs/><g><!--cluster MDM--><g id="cluster_MDM"><rect fill="none" height="1131" rx="2.5" ry="2.5" style="stroke:#181818;stroke-width:1.0;" width="815" x="7" y="132"/><rect fill="none" height="10" style="stroke:#181818;stroke-width:1.0;" width="15" x="802" y="137"/><rect fill="none" height="2" style="stroke:#181818;stroke-width:1.0;" width="4" x="800" y="139"/><rect fill="none" height="2" style="stroke:#181818;stroke-width:1.0;" width="4" x="800" y="143"/><text fill="#000000" font-family="sans-serif" font-size="20" font-style="italic" lengthAdjust="spacing" textLength="122" x="353.5" y="166.38">«component»</text><text fill="#000000" font-family="sans-serif" font-size="20" font-style="italic" lengthAdjust="spacing" textLength="145" x="342" y="193.62">«container (C4)»</text><text fill="#000000" font-family="sans-serif" font-size="20" font-weight="bold" lengthAdjust="spacing" textLength="169.5" x="329.75" y="220.8599">MD Management</text></g><!--cluster Frameworks & Drivers Layer--><g id="cluster_Frameworks &amp; Drivers Layer"><path d="M206.5,235 L484.875,235 A3.75,3.75 0 0 1 487.375,237.5 L494.375,268.24 L592.5,268.24 A2.5,2.5 0 0 1 595,270.74 L595,378.5 A2.5,2.5 0 0 1 592.5,381 L206.5,381 A2.5,2.5 0 0 1 204,378.5 L204,237.5 A2.5,2.5 0 0 1 206.5,235 " fill="#80FFFF" style="stroke:#000000;stroke-width:1.5;"/><line style="stroke:#000000;stroke-width:1.5;" x1="204" x2="494.375" y1="268.24" y2="268.24"/><text fill="#000000" font-family="sans-serif" font-size="20" font-weight="bold" lengthAdjust="spacing" textLength="277.375" x="208" y="258.38">Frameworks &amp; Drivers Layer</text></g><!--cluster Interface Adapters Layer--><g id="cluster_Interface Adapters Layer"><path d="M206.5,521 L449.25,521 A3.75,3.75 0 0 1 451.75,523.5 L458.75,554.24 L592.5,554.24 A2.5,2.5 0 0 1 595,556.74 L595,664.5 A2.5,2.5 0 0 1 592.5,667 L206.5,667 A2.5,2.5 0 0 1 204,664.5 L204,523.5 A2.5,2.5 0 0 1 206.5,521 " fill="#80FF80" style="stroke:#000000;stroke-width:1.5;"/><line style="stroke:#000000;stroke-width:1.5;" x1="204" x2="458.75" y1="554.24" y2="554.24"/><text fill="#000000" font-family="sans-serif" font-size="20" font-weight="bold" lengthAdjust="spacing" textLength="241.75" x="208" y="544.38">Interface Adapters Layer</text></g><!--cluster Application Business Rules--><g id="cluster_Application Business Rules"><path d="M376.5,807 L639.5,807 A3.75,3.75 0 0 1 642,809.5 L649,840.24 L649.5,840.24 A2.5,2.5 0 0 1 652,842.74 L652,950.5 A2.5,2.5 0 0 1 649.5,953 L376.5,953 A2.5,2.5 0 0 1 374,950.5 L374,809.5 A2.5,2.5 0 0 1 376.5,807 " fill="#FF8080" style="stroke:#000000;stroke-width:1.5;"/><line style="stroke:#000000;stroke-width:1.5;" x1="374" x2="649" y1="840.24" y2="840.24"/><text fill="#000000" font-family="sans-serif" font-size="20" font-weight="bold" lengthAdjust="spacing" textLength="262" x="378" y="830.38">Application Business Rules</text></g><!--cluster Enterprise Business Rules--><g id="cluster_Enterprise Business Rules"><path d="M253.5,1093 L506.875,1093 A3.75,3.75 0 0 1 509.375,1095.5 L516.375,1126.24 L516.5,1126.24 A2.5,2.5 0 0 1 519,1128.74 L519,1236.5 A2.5,2.5 0 0 1 516.5,1239 L253.5,1239 A2.5,2.5 0 0 1 251,1236.5 L251,1095.5 A2.5,2.5 0 0 1 253.5,1093 " fill="#FFC080" style="stroke:#000000;stroke-width:1.5;"/><line style="stroke:#000000;stroke-width:1.5;" x1="251" x2="516.375" y1="1126.24" y2="1126.24"/><text fill="#000000" font-family="sans-serif" font-size="20" font-weight="bold" lengthAdjust="spacing" textLength="252.375" x="255" y="1116.38">Enterprise Business Rules</text></g><text fill="#000000" font-family="sans-serif" font-size="20" lengthAdjust="spacing" textLength="5" x="495.5" y="108.14"> </text><rect fill="#F1F1F1" height="12" style="stroke:#181818;stroke-width:1.5;" width="12" x="492" y="126"/><text fill="#000000" font-family="sans-serif" font-size="20" lengthAdjust="spacing" textLength="144" x="538.5" y="108.14">Persistence API</text><rect fill="#F1F1F1" height="12" style="stroke:#181818;stroke-width:1.5;" width="12" x="604.5" y="126"/><text fill="#000000" font-family="sans-serif" font-size="20" lengthAdjust="spacing" textLength="5" x="819.5" y="441.14"> </text><rect fill="#F1F1F1" height="12" style="stroke:#181818;stroke-width:1.5;" width="12" x="816" y="459"/><!--entity CTRL_API--><g id="elem_CTRL_API"><ellipse cx="498" cy="465" fill="#F1F1F1" rx="8" ry="8" style="stroke:#181818;stroke-width:0.5;"/><text fill="#000000" font-family="sans-serif" font-size="20" lengthAdjust="spacing" textLength="130" x="433" y="503.38">Controller API</text></g><!--entity DATA_API--><g id="elem_DATA_API"><ellipse cx="106" cy="465" fill="#F1F1F1" rx="8" ry="8" style="stroke:#181818;stroke-width:0.5;"/><text fill="#000000" font-family="sans-serif" font-size="20" lengthAdjust="spacing" textLength="144" x="34" y="503.38">Data Model API</text></g><!--entity SRV_API--><g id="elem_SRV_API"><ellipse cx="513" cy="751" fill="#F1F1F1" rx="8" ry="8" style="stroke:#181818;stroke-width:0.5;"/><text fill="#000000" font-family="sans-serif" font-size="20" lengthAdjust="spacing" textLength="155" x="435.5" y="789.38">App Services API</text></g><!--entity DTO_API--><g id="elem_DTO_API"><ellipse cx="680" cy="751" fill="#F1F1F1" rx="8" ry="8" style="stroke:#181818;stroke-width:0.5;"/><text fill="#000000" font-family="sans-serif" font-size="20" lengthAdjust="spacing" textLength="79" x="640.5" y="789.38">DTO API</text></g><!--entity REPO_API--><g id="elem_REPO_API"><ellipse cx="343" cy="751" fill="#F1F1F1" rx="8" ry="8" style="stroke:#181818;stroke-width:0.5;"/><text fill="#000000" font-family="sans-serif" font-size="20" lengthAdjust="spacing" textLength="84" x="301" y="789.38">Repo API</text></g><!--entity MODEL_API--><g id="elem_MODEL_API"><ellipse cx="385" cy="1037" fill="#F1F1F1" rx="8" ry="8" style="stroke:#181818;stroke-width:0.5;"/><text fill="#000000" font-family="sans-serif" font-size="20" lengthAdjust="spacing" textLength="95" x="337.5" y="1075.38">Model API</text></g><!--entity PERSISTENCE_API--><g id="elem_PERSISTENCE_API"><ellipse cx="301" cy="465" fill="#F1F1F1" rx="8" ry="8" style="stroke:#181818;stroke-width:0.5;"/><text fill="#000000" font-family="sans-serif" font-size="20" lengthAdjust="spacing" textLength="144" x="229" y="503.38">Persistence API</text></g><!--entity ROUTE--><g id="elem_ROUTE"><rect fill="#F1F1F1" height="84.4799" rx="2.5" ry="2.5" style="stroke:#181818;stroke-width:0.5;" width="162" x="417" y="281"/><rect fill="#F1F1F1" height="10" style="stroke:#181818;stroke-width:0.5;" width="15" x="559" y="286"/><rect fill="#F1F1F1" height="2" style="stroke:#181818;stroke-width:0.5;" width="4" x="557" y="288"/><rect fill="#F1F1F1" height="2" style="stroke:#181818;stroke-width:0.5;" width="4" x="557" y="292"/><text fill="#000000" font-family="sans-serif" font-size="20" font-style="italic" lengthAdjust="spacing" textLength="122" x="432" y="322.38">«component»</text><text fill="#000000" font-family="sans-serif" font-size="20" lengthAdjust="spacing" textLength="72" x="457" y="349.62">Routing</text></g><!--entity PERSISTENCE--><g id="elem_PERSISTENCE"><rect fill="#F1F1F1" height="84.4799" rx="2.5" ry="2.5" style="stroke:#181818;stroke-width:0.5;" width="162" x="220" y="281"/><rect fill="#F1F1F1" height="10" style="stroke:#181818;stroke-width:0.5;" width="15" x="362" y="286"/><rect fill="#F1F1F1" height="2" style="stroke:#181818;stroke-width:0.5;" width="4" x="360" y="288"/><rect fill="#F1F1F1" height="2" style="stroke:#181818;stroke-width:0.5;" width="4" x="360" y="292"/><text fill="#000000" font-family="sans-serif" font-size="20" font-style="italic" lengthAdjust="spacing" textLength="122" x="235" y="322.38">«component»</text><text fill="#000000" font-family="sans-serif" font-size="20" lengthAdjust="spacing" textLength="107" x="242.5" y="349.62">Persistence</text></g><!--entity DATA--><g id="elem_DATA"><rect fill="#F1F1F1" height="84.4799" rx="2.5" ry="2.5" style="stroke:#181818;stroke-width:0.5;" width="162" x="23" y="281"/><rect fill="#F1F1F1" height="10" style="stroke:#181818;stroke-width:0.5;" width="15" x="165" y="286"/><rect fill="#F1F1F1" height="2" style="stroke:#181818;stroke-width:0.5;" width="4" x="163" y="288"/><rect fill="#F1F1F1" height="2" style="stroke:#181818;stroke-width:0.5;" width="4" x="163" y="292"/><text fill="#000000" font-family="sans-serif" font-size="20" font-style="italic" lengthAdjust="spacing" textLength="122" x="38" y="322.38">«component»</text><text fill="#000000" font-family="sans-serif" font-size="20" lengthAdjust="spacing" textLength="107" x="45.5" y="349.62">Data Model</text></g><!--entity DTO--><g id="elem_DTO"><rect fill="#F1F1F1" height="84.4799" rx="2.5" ry="2.5" style="stroke:#181818;stroke-width:0.5;" width="162" x="614" y="567"/><rect fill="#F1F1F1" height="10" style="stroke:#181818;stroke-width:0.5;" width="15" x="756" y="572"/><rect fill="#F1F1F1" height="2" style="stroke:#181818;stroke-width:0.5;" width="4" x="754" y="574"/><rect fill="#F1F1F1" height="2" style="stroke:#181818;stroke-width:0.5;" width="4" x="754" y="578"/><text fill="#000000" font-family="sans-serif" font-size="20" font-style="italic" lengthAdjust="spacing" textLength="122" x="629" y="608.38">«component»</text><text fill="#000000" font-family="sans-serif" font-size="20" lengthAdjust="spacing" textLength="42" x="669" y="635.62">DTO</text></g><!--entity CTRL--><g id="elem_CTRL"><rect fill="#F1F1F1" height="84.4799" rx="2.5" ry="2.5" style="stroke:#181818;stroke-width:0.5;" width="162" x="417" y="567"/><rect fill="#F1F1F1" height="10" style="stroke:#181818;stroke-width:0.5;" width="15" x="559" y="572"/><rect fill="#F1F1F1" height="2" style="stroke:#181818;stroke-width:0.5;" width="4" x="557" y="574"/><rect fill="#F1F1F1" height="2" style="stroke:#181818;stroke-width:0.5;" width="4" x="557" y="578"/><text fill="#000000" font-family="sans-serif" font-size="20" font-style="italic" lengthAdjust="spacing" textLength="122" x="432" y="608.38">«component»</text><text fill="#000000" font-family="sans-serif" font-size="20" lengthAdjust="spacing" textLength="93" x="446.5" y="635.62">Controller</text></g><!--entity REPO--><g id="elem_REPO"><rect fill="#F1F1F1" height="84.4799" rx="2.5" ry="2.5" style="stroke:#181818;stroke-width:0.5;" width="162" x="220" y="567"/><rect fill="#F1F1F1" height="10" style="stroke:#181818;stroke-width:0.5;" width="15" x="362" y="572"/><rect fill="#F1F1F1" height="2" style="stroke:#181818;stroke-width:0.5;" width="4" x="360" y="574"/><rect fill="#F1F1F1" height="2" style="stroke:#181818;stroke-width:0.5;" width="4" x="360" y="578"/><text fill="#000000" font-family="sans-serif" font-size="20" font-style="italic" lengthAdjust="spacing" textLength="122" x="235" y="608.38">«component»</text><text fill="#000000" font-family="sans-serif" font-size="20" lengthAdjust="spacing" textLength="99" x="246.5" y="635.62">Repository</text></g><!--entity SRV--><g id="elem_SRV"><rect fill="#F1F1F1" height="84.4799" rx="2.5" ry="2.5" style="stroke:#181818;stroke-width:0.5;" width="215" x="405.5" y="853"/><rect fill="#F1F1F1" height="10" style="stroke:#181818;stroke-width:0.5;" width="15" x="600.5" y="858"/><rect fill="#F1F1F1" height="2" style="stroke:#181818;stroke-width:0.5;" width="4" x="598.5" y="860"/><rect fill="#F1F1F1" height="2" style="stroke:#181818;stroke-width:0.5;" width="4" x="598.5" y="864"/><text fill="#000000" font-family="sans-serif" font-size="20" font-style="italic" lengthAdjust="spacing" textLength="122" x="447" y="894.38">«component»</text><text fill="#000000" font-family="sans-serif" font-size="20" lengthAdjust="spacing" textLength="175" x="420.5" y="921.62">Application Service</text></g><!--entity MODEL--><g id="elem_MODEL"><rect fill="#F1F1F1" height="84.4799" rx="2.5" ry="2.5" style="stroke:#181818;stroke-width:0.5;" width="227" x="271.5" y="1139"/><rect fill="#F1F1F1" height="10" style="stroke:#181818;stroke-width:0.5;" width="15" x="478.5" y="1144"/><rect fill="#F1F1F1" height="2" style="stroke:#181818;stroke-width:0.5;" width="4" x="476.5" y="1146"/><rect fill="#F1F1F1" height="2" style="stroke:#181818;stroke-width:0.5;" width="4" x="476.5" y="1150"/><text fill="#000000" font-family="sans-serif" font-size="20" font-style="italic" lengthAdjust="spacing" textLength="122" x="319" y="1180.38">«component»</text><text fill="#000000" font-family="sans-serif" font-size="20" lengthAdjust="spacing" textLength="187" x="286.5" y="1207.62">Domain Model DDD</text></g><!--entity API--><g id="elem_API"><ellipse cx="498" cy="14" fill="#F1F1F1" rx="8" ry="8" style="stroke:#181818;stroke-width:0.5;"/><text fill="#000000" font-family="sans-serif" font-size="20" lengthAdjust="spacing" textLength="70" x="463" y="52.38">MD API</text></g><!--entity FS--><g id="elem_FS"><ellipse cx="923" cy="609" fill="#F1F1F1" rx="8" ry="8" style="stroke:#181818;stroke-width:0.5;"/><text fill="#000000" font-family="sans-serif" font-size="20" lengthAdjust="spacing" textLength="135" x="855.5" y="647.38">Filesystem API</text></g><!--link API to P1--><g id="link_API_P1"><path d="M498,22.97 C498,45.09 498,106.79 498,125.53 " fill="none" id="API-P1" style="stroke:#181818;stroke-width:1.0;"/></g><!--link ROUTE to P1--><g id="link_ROUTE_P1"><path d="M498,280.74 C498,233.22 498,159.03 498,138.45 " fill="none" id="ROUTE-P1" style="stroke:#181818;stroke-width:1.0;"/></g><!--link PERSISTENCE to P2--><g id="link_PERSISTENCE_P2"><path d="M333.62,280.59 C351.5,259.98 375.06,235.92 400,219 C472.67,169.7 577.98,141.23 604.67,134.54 " fill="none" id="PERSISTENCE-P2" style="stroke:#181818;stroke-width:1.0;"/></g><!--link P3 to FS--><g id="link_P3_FS"><path d="M825.84,471.39 C839.82,491.05 888.41,559.37 911.12,591.3 " fill="none" id="P3-to-FS" style="stroke:#181818;stroke-width:1.0;"/><path d="M921.7513,591.6422 A9,9 0 0 0 907.9629 601.4392" fill="none" style="stroke:#181818;stroke-width:1.5;"/></g><!--link ROUTE to CTRL_API--><g id="link_ROUTE_CTRL_API"><path d="M498,365.25 C498,391.45 498,424.15 498,444.56 " fill="none" id="ROUTE-to-CTRL_API" style="stroke:#181818;stroke-width:1.0;"/><path d="M506.4572,451.4118 A9,9 0 0 0 489.5428 451.4118" fill="none" style="stroke:#181818;stroke-width:1.5;"/></g><!--link CTRL_API to CTRL--><g id="link_CTRL_API_CTRL"><path d="M498,473.63 C498,490.86 498,533.79 498,566.53 " fill="none" id="CTRL_API-CTRL" style="stroke:#181818;stroke-width:1.0;"/></g><!--link PERSISTENCE to PERSISTENCE_API--><g id="link_PERSISTENCE_PERSISTENCE_API"><path d="M301,365.25 C301,397.19 301,438.79 301,456.01 " fill="none" id="PERSISTENCE-PERSISTENCE_API" style="stroke:#181818;stroke-width:1.0;"/></g><!--reverse link PERSISTENCE_API to REPO--><g id="link_PERSISTENCE_API_REPO"><path d="M301,484.91 C301,505.64 301,539.54 301,566.53 " fill="none" id="PERSISTENCE_API-backto-REPO" style="stroke:#181818;stroke-width:1.0;"/><path d="M292.5428,478.2282 A9,9 0 0 0 309.4572 478.2282" fill="none" style="stroke:#181818;stroke-width:1.5;"/></g><!--link PERSISTENCE to DATA_API--><g id="link_PERSISTENCE_DATA_API"><path d="M247.83,365.36 C237.35,373.31 226.39,381.49 216,389 C184.28,411.92 146.41,437.32 124.39,451.9 " fill="none" id="PERSISTENCE-to-DATA_API" style="stroke:#181818;stroke-width:1.0;"/><path d="M123.4513,462.6581 A9,9 0 0 0 114.1246 448.5473" fill="none" style="stroke:#181818;stroke-width:1.5;"/></g><!--reverse link DATA_API to REPO--><g id="link_DATA_API_REPO"><path d="M123.93,479.05 C150.95,498.73 203.31,536.86 244.11,566.57 " fill="none" id="DATA_API-backto-REPO" style="stroke:#181818;stroke-width:1.0;"/><path d="M113.6215,482.0091 A9,9 0 0 0 123.5759 468.334" fill="none" style="stroke:#181818;stroke-width:1.5;"/></g><!--link DATA to DATA_API--><g id="link_DATA_DATA_API"><path d="M104.59,365.25 C104.96,391.45 105.43,424.15 105.72,444.56 " fill="none" id="DATA-to-DATA_API" style="stroke:#181818;stroke-width:1.0;"/><path d="M114.2724,451.2913 A9,9 0 0 0 97.3597 451.5329" fill="none" style="stroke:#181818;stroke-width:1.5;"/></g><!--link CTRL to SRV_API--><g id="link_CTRL_SRV_API"><path d="M502.42,651.25 C505.23,677.45 508.73,710.15 510.92,730.56 " fill="none" id="CTRL-to-SRV_API" style="stroke:#181818;stroke-width:1.0;"/><path d="M520.0644,736.5449 A9,9 0 0 0 503.2447 738.3332" fill="none" style="stroke:#181818;stroke-width:1.5;"/></g><!--reverse link SRV_API to SRV--><g id="link_SRV_API_SRV"><path d="M513,770.91 C513,791.64 513,825.54 513,852.53 " fill="none" id="SRV_API-backto-SRV" style="stroke:#181818;stroke-width:1.0;"/><path d="M504.5428,764.2282 A9,9 0 0 0 521.4572 764.2282" fill="none" style="stroke:#181818;stroke-width:1.5;"/></g><!--reverse link DTO_API to SRV--><g id="link_DTO_API_SRV"><path d="M662.41,766.96 C638.71,787.11 595.61,823.75 561.77,852.53 " fill="none" id="DTO_API-backto-SRV" style="stroke:#181818;stroke-width:1.0;"/><path d="M662.0427,756.1678 A9,9 0 0 0 673.0106 769.0442" fill="none" style="stroke:#181818;stroke-width:1.5;"/></g><!--link SRV to P3--><g id="link_SRV_P3"><path d="M620.91,885.6 C685.78,874.44 763.88,848.91 807,791 C826.86,764.33 822.87,511.69 822.11,471.41 " fill="none" id="SRV-P3" style="stroke:#181818;stroke-width:1.0;"/></g><!--link CTRL to DTO_API--><g id="link_CTRL_DTO_API"><path d="M551.62,651.25 C589.2,680.16 637.08,716.99 662.42,736.48 " fill="none" id="CTRL-to-DTO_API" style="stroke:#181818;stroke-width:1.0;"/><path d="M672.7674,733.76 A9,9 0 0 0 662.4533 747.1659" fill="none" style="stroke:#181818;stroke-width:1.5;"/></g><!--link DTO to DTO_API--><g id="link_DTO_DTO_API"><path d="M690.58,651.25 C687.77,677.45 684.27,710.15 682.08,730.56 " fill="none" id="DTO-to-DTO_API" style="stroke:#181818;stroke-width:1.0;"/><path d="M689.7553,738.3332 A9,9 0 0 0 672.9356 736.5449" fill="none" style="stroke:#181818;stroke-width:1.5;"/></g><!--link REPO to REPO_API--><g id="link_REPO_REPO_API"><path d="M313.37,651.25 C322.96,683.19 335.44,724.79 340.6,742.01 " fill="none" id="REPO-REPO_API" style="stroke:#181818;stroke-width:1.0;"/></g><!--reverse link REPO_API to SRV--><g id="link_REPO_API_SRV"><path d="M360.7,765.84 C372.49,775.11 388.27,787.66 402,799 C423.03,816.36 445.97,835.9 465.51,852.71 " fill="none" id="REPO_API-backto-SRV" style="stroke:#181818;stroke-width:1.0;"/><path d="M350.2643,768.4048 A9,9 0 0 0 360.7005 755.0937" fill="none" style="stroke:#181818;stroke-width:1.5;"/></g><!--link SRV to MODEL_API--><g id="link_SRV_MODEL_API"><path d="M475.29,937.25 C450.08,964.82 418.28,999.6 399.93,1019.67 " fill="none" id="SRV-to-MODEL_API" style="stroke:#181818;stroke-width:1.0;"/><path d="M401.6512,1030.3189 A9,9 0 0 0 389.1596 1018.9145" fill="none" style="stroke:#181818;stroke-width:1.5;"/></g><!--link REPO to MODEL_API--><g id="link_REPO_MODEL_API"><path d="M287.22,651.27 C276.82,688.15 265.92,743.52 276,791 C295.28,881.77 350.62,979.72 374.17,1018.64 " fill="none" id="REPO-to-MODEL_API" style="stroke:#181818;stroke-width:1.0;"/><path d="M384.9474,1020.0345 A9,9 0 0 0 370.5446 1028.9033" fill="none" style="stroke:#181818;stroke-width:1.5;"/></g><!--link MODEL_API to MODEL--><g id="link_MODEL_API_MODEL"><path d="M385,1045.63 C385,1062.86 385,1105.79 385,1138.53 " fill="none" id="MODEL_API-MODEL" style="stroke:#181818;stroke-width:1.0;"/></g><!--SRC=[ZLHTRvim57tdLrnbqiGUaB9q3tseAj50f4XbGS3sEhdWL5R0HiRfb4tvxxks0pY4LSrBu7BE_Je-xWwCjqIIfXRbWLPGqJqvrceZkChP7mghfUSfqO8Iy2AK4WrKJD9ICS4zZt55vPwK51P9166wNG3fzB_xPSDgsfqwHPi1iSazhnHDApZbod0JmiahRV3L098eWOU70VBuQDwu8enJ2VxwsnSC_VK0MY4Lux00Gqk_Eg6KoevXMOvDz8NJrGKWZceWtNaOt8uDhx6G57MDbNhUkiYUV-cvhe0HKGGIKT5w04PX4HgWphaNTOL95XjSB_qjvA63pn19zeQTmJCvKRc0J_VB3VxCC03EKZ9iaV5NapNR_IZYoK8iuJobELFRwU8it-P5_7tz_mHdtQoJOvnhc6c6UvwGYfr55xjPyFNgmhQ5dCetLjBEBY_C8Sz-pYmPy_K0VBu5PBGL0oABqnc8en5YabqKpwXvSruGwcpFgZgAEZB3YhHgAkdzybRIyM0DX-fZekeHEwQ4FDdZW4E-BsRV9AwvPYNHReMdOuVkwP1-H4DYcxh9kJPTqaKZKnRb-LZLMA-cbQoZSqNNiqKZqQ2vBswAeiXU0rgfTsfYLLG5Wa0xtxCk2UoRU-vrPEMbT_ZWcxjdWFgZiuqQmR4Dnj0qn-Gm61aqmvz-WWdL7-u5S5bZq5Zi6dTf26EzBVJ-BV4sqZl3H09zfmtq_fCsalj-wIGOFJEcwqFOXiteZwxfHxYEMQdC_fpeFm00]--></g></svg>