<?xml version="1.0" encoding="UTF-8" standalone="no"?><svg xmlns="http://www.w3.org/2000/svg" xmlns:xlink="http://www.w3.org/1999/xlink" contentStyleType="text/css" height="1203px" preserveAspectRatio="none" style="width:1075px;height:1203px;background:#FFFFFF;" version="1.1" viewBox="0 0 1075 1203" width="1075px" zoomAndPan="magnify"><defs/><g><!--cluster MDM--><g id="cluster_MDM"><rect fill="none" height="1069" rx="2.5" ry="2.5" style="stroke:#181818;stroke-width:1.0;" width="887" x="7" y="128"/><rect fill="none" height="10" style="stroke:#181818;stroke-width:1.0;" width="15" x="874" y="133"/><rect fill="none" height="2" style="stroke:#181818;stroke-width:1.0;" width="4" x="872" y="135"/><rect fill="none" height="2" style="stroke:#181818;stroke-width:1.0;" width="4" x="872" y="139"/><text fill="#000000" font-family="sans-serif" font-size="20" font-style="italic" lengthAdjust="spacing" textLength="138" x="381.5" y="159.5645">«component»</text><text fill="#000000" font-family="sans-serif" font-size="20" font-style="italic" lengthAdjust="spacing" textLength="168" x="366.5" y="182.8457">«container (C4)»</text><text fill="#000000" font-family="sans-serif" font-size="20" font-weight="bold" lengthAdjust="spacing" textLength="193" x="354" y="206.127">MD Management</text></g><!--cluster Frameworks & Drivers Layer--><g id="cluster_Frameworks &amp; Drivers Layer"><path d="M222.5,231 L548.5,231 A3.75,3.75 0 0 1 551,233.5 L558,260.2813 L640.5,260.2813 A2.5,2.5 0 0 1 643,262.7813 L643,363.5 A2.5,2.5 0 0 1 640.5,366 L222.5,366 A2.5,2.5 0 0 1 220,363.5 L220,233.5 A2.5,2.5 0 0 1 222.5,231 " fill="#80FFFF" style="stroke:#000000;stroke-width:1.5;"/><line style="stroke:#000000;stroke-width:1.5;" x1="220" x2="558" y1="260.2813" y2="260.2813"/><text fill="#000000" font-family="sans-serif" font-size="20" font-weight="bold" lengthAdjust="spacing" textLength="325" x="224" y="251.5645">Frameworks &amp; Drivers Layer</text></g><!--cluster Interface Adapters Layer--><g id="cluster_Interface Adapters Layer"><path d="M222.5,500 L508.5,500 A3.75,3.75 0 0 1 511,502.5 L518,529.2813 L640.5,529.2813 A2.5,2.5 0 0 1 643,531.7813 L643,632.5 A2.5,2.5 0 0 1 640.5,635 L222.5,635 A2.5,2.5 0 0 1 220,632.5 L220,502.5 A2.5,2.5 0 0 1 222.5,500 " fill="#80FF80" style="stroke:#000000;stroke-width:1.5;"/><line style="stroke:#000000;stroke-width:1.5;" x1="220" x2="518" y1="529.2813" y2="529.2813"/><text fill="#000000" font-family="sans-serif" font-size="20" font-weight="bold" lengthAdjust="spacing" textLength="285" x="224" y="520.5645">Interface Adapters Layer</text></g><!--cluster Application Business Rules--><g id="cluster_Application Business Rules"><path d="M400.5,769 L705.5,769 A3.75,3.75 0 0 1 708,771.5 L715,798.2813 L715.5,798.2813 A2.5,2.5 0 0 1 718,800.7813 L718,901.5 A2.5,2.5 0 0 1 715.5,904 L400.5,904 A2.5,2.5 0 0 1 398,901.5 L398,771.5 A2.5,2.5 0 0 1 400.5,769 " fill="#FF8080" style="stroke:#000000;stroke-width:1.5;"/><line style="stroke:#000000;stroke-width:1.5;" x1="398" x2="715" y1="798.2813" y2="798.2813"/><text fill="#000000" font-family="sans-serif" font-size="20" font-weight="bold" lengthAdjust="spacing" textLength="304" x="402" y="789.5645">Application Business Rules</text></g><!--cluster Enterprise Business Rules--><g id="cluster_Enterprise Business Rules"><path d="M272.5,1038 L568.5,1038 A3.75,3.75 0 0 1 571,1040.5 L578,1067.2813 L578.5,1067.2813 A2.5,2.5 0 0 1 581,1069.7813 L581,1170.5 A2.5,2.5 0 0 1 578.5,1173 L272.5,1173 A2.5,2.5 0 0 1 270,1170.5 L270,1040.5 A2.5,2.5 0 0 1 272.5,1038 " fill="#FFC080" style="stroke:#000000;stroke-width:1.5;"/><line style="stroke:#000000;stroke-width:1.5;" x1="270" x2="578" y1="1067.2813" y2="1067.2813"/><text fill="#000000" font-family="sans-serif" font-size="20" font-weight="bold" lengthAdjust="spacing" textLength="295" x="274" y="1058.5645">Enterprise Business Rules</text></g><text fill="#000000" font-family="sans-serif" font-size="20" lengthAdjust="spacing" textLength="6" x="535" y="105.2832"> </text><rect fill="#F1F1F1" height="12" style="stroke:#181818;stroke-width:1.5;" width="12" x="532" y="122"/><text fill="#000000" font-family="sans-serif" font-size="20" lengthAdjust="spacing" textLength="152" x="579.5" y="105.2832">Persistence API</text><rect fill="#F1F1F1" height="12" style="stroke:#181818;stroke-width:1.5;" width="12" x="649.5" y="122"/><text fill="#000000" font-family="sans-serif" font-size="20" lengthAdjust="spacing" textLength="6" x="891" y="423.2832"> </text><rect fill="#F1F1F1" height="12" style="stroke:#181818;stroke-width:1.5;" width="12" x="888" y="440"/><!--entity CTRL_API--><g id="elem_CTRL_API"><ellipse cx="538" cy="446" fill="#F1F1F1" rx="8" ry="8" style="stroke:#181818;stroke-width:0.5;"/><text fill="#000000" font-family="sans-serif" font-size="20" lengthAdjust="spacing" textLength="137" x="469.5" y="481.5645">Controller API</text></g><!--entity DATA_API--><g id="elem_DATA_API"><ellipse cx="123" cy="446" fill="#F1F1F1" rx="8" ry="8" style="stroke:#181818;stroke-width:0.5;"/><text fill="#000000" font-family="sans-serif" font-size="20" lengthAdjust="spacing" textLength="151" x="47.5" y="481.5645">Data Model API</text></g><!--entity SRV_API--><g id="elem_SRV_API"><ellipse cx="558" cy="715" fill="#F1F1F1" rx="8" ry="8" style="stroke:#181818;stroke-width:0.5;"/><text fill="#000000" font-family="sans-serif" font-size="20" lengthAdjust="spacing" textLength="167" x="474.5" y="750.5645">App Services API</text></g><!--entity DTO_API--><g id="elem_DTO_API"><ellipse cx="732" cy="715" fill="#F1F1F1" rx="8" ry="8" style="stroke:#181818;stroke-width:0.5;"/><text fill="#000000" font-family="sans-serif" font-size="20" lengthAdjust="spacing" textLength="81" x="691.5" y="750.5645">DTO API</text></g><!--entity REPO_API--><g id="elem_REPO_API"><ellipse cx="380" cy="715" fill="#F1F1F1" rx="8" ry="8" style="stroke:#181818;stroke-width:0.5;"/><text fill="#000000" font-family="sans-serif" font-size="20" lengthAdjust="spacing" textLength="89" x="335.5" y="750.5645">Repo API</text></g><!--entity MODEL_API--><g id="elem_MODEL_API"><ellipse cx="425" cy="984" fill="#F1F1F1" rx="8" ry="8" style="stroke:#181818;stroke-width:0.5;"/><text fill="#000000" font-family="sans-serif" font-size="20" lengthAdjust="spacing" textLength="98" x="376" y="1019.5645">Model API</text></g><!--entity PERSISTENCE_API--><g id="elem_PERSISTENCE_API"><ellipse cx="325" cy="446" fill="#F1F1F1" rx="8" ry="8" style="stroke:#181818;stroke-width:0.5;"/><text fill="#000000" font-family="sans-serif" font-size="20" lengthAdjust="spacing" textLength="152" x="249" y="481.5645">Persistence API</text></g><!--entity ROUTE--><g id="elem_ROUTE"><rect fill="#F1F1F1" height="76.5625" rx="2.5" ry="2.5" style="stroke:#181818;stroke-width:0.5;" width="178" x="449" y="273"/><rect fill="#F1F1F1" height="10" style="stroke:#181818;stroke-width:0.5;" width="15" x="607" y="278"/><rect fill="#F1F1F1" height="2" style="stroke:#181818;stroke-width:0.5;" width="4" x="605" y="280"/><rect fill="#F1F1F1" height="2" style="stroke:#181818;stroke-width:0.5;" width="4" x="605" y="284"/><text fill="#000000" font-family="sans-serif" font-size="20" font-style="italic" lengthAdjust="spacing" textLength="138" x="464" y="311.5645">«component»</text><text fill="#000000" font-family="sans-serif" font-size="20" lengthAdjust="spacing" textLength="79" x="493.5" y="334.8457">Routing</text></g><!--entity PERSISTENCE--><g id="elem_PERSISTENCE"><rect fill="#F1F1F1" height="76.5625" rx="2.5" ry="2.5" style="stroke:#181818;stroke-width:0.5;" width="178" x="236" y="273"/><rect fill="#F1F1F1" height="10" style="stroke:#181818;stroke-width:0.5;" width="15" x="394" y="278"/><rect fill="#F1F1F1" height="2" style="stroke:#181818;stroke-width:0.5;" width="4" x="392" y="280"/><rect fill="#F1F1F1" height="2" style="stroke:#181818;stroke-width:0.5;" width="4" x="392" y="284"/><text fill="#000000" font-family="sans-serif" font-size="20" font-style="italic" lengthAdjust="spacing" textLength="138" x="251" y="311.5645">«component»</text><text fill="#000000" font-family="sans-serif" font-size="20" lengthAdjust="spacing" textLength="114" x="263" y="334.8457">Persistence</text></g><!--entity DATA--><g id="elem_DATA"><rect fill="#F1F1F1" height="76.5625" rx="2.5" ry="2.5" style="stroke:#181818;stroke-width:0.5;" width="178" x="23" y="273"/><rect fill="#F1F1F1" height="10" style="stroke:#181818;stroke-width:0.5;" width="15" x="181" y="278"/><rect fill="#F1F1F1" height="2" style="stroke:#181818;stroke-width:0.5;" width="4" x="179" y="280"/><rect fill="#F1F1F1" height="2" style="stroke:#181818;stroke-width:0.5;" width="4" x="179" y="284"/><text fill="#000000" font-family="sans-serif" font-size="20" font-style="italic" lengthAdjust="spacing" textLength="138" x="38" y="311.5645">«component»</text><text fill="#000000" font-family="sans-serif" font-size="20" lengthAdjust="spacing" textLength="113" x="50.5" y="334.8457">Data Model</text></g><!--entity DTO--><g id="elem_DTO"><rect fill="#F1F1F1" height="76.5625" rx="2.5" ry="2.5" style="stroke:#181818;stroke-width:0.5;" width="178" x="662" y="542"/><rect fill="#F1F1F1" height="10" style="stroke:#181818;stroke-width:0.5;" width="15" x="820" y="547"/><rect fill="#F1F1F1" height="2" style="stroke:#181818;stroke-width:0.5;" width="4" x="818" y="549"/><rect fill="#F1F1F1" height="2" style="stroke:#181818;stroke-width:0.5;" width="4" x="818" y="553"/><text fill="#000000" font-family="sans-serif" font-size="20" font-style="italic" lengthAdjust="spacing" textLength="138" x="677" y="580.5645">«component»</text><text fill="#000000" font-family="sans-serif" font-size="20" lengthAdjust="spacing" textLength="43" x="724.5" y="603.8457">DTO</text></g><!--entity CTRL--><g id="elem_CTRL"><rect fill="#F1F1F1" height="76.5625" rx="2.5" ry="2.5" style="stroke:#181818;stroke-width:0.5;" width="178" x="449" y="542"/><rect fill="#F1F1F1" height="10" style="stroke:#181818;stroke-width:0.5;" width="15" x="607" y="547"/><rect fill="#F1F1F1" height="2" style="stroke:#181818;stroke-width:0.5;" width="4" x="605" y="549"/><rect fill="#F1F1F1" height="2" style="stroke:#181818;stroke-width:0.5;" width="4" x="605" y="553"/><text fill="#000000" font-family="sans-serif" font-size="20" font-style="italic" lengthAdjust="spacing" textLength="138" x="464" y="580.5645">«component»</text><text fill="#000000" font-family="sans-serif" font-size="20" lengthAdjust="spacing" textLength="99" x="483.5" y="603.8457">Controller</text></g><!--entity REPO--><g id="elem_REPO"><rect fill="#F1F1F1" height="76.5625" rx="2.5" ry="2.5" style="stroke:#181818;stroke-width:0.5;" width="178" x="236" y="542"/><rect fill="#F1F1F1" height="10" style="stroke:#181818;stroke-width:0.5;" width="15" x="394" y="547"/><rect fill="#F1F1F1" height="2" style="stroke:#181818;stroke-width:0.5;" width="4" x="392" y="549"/><rect fill="#F1F1F1" height="2" style="stroke:#181818;stroke-width:0.5;" width="4" x="392" y="553"/><text fill="#000000" font-family="sans-serif" font-size="20" font-style="italic" lengthAdjust="spacing" textLength="138" x="251" y="580.5645">«component»</text><text fill="#000000" font-family="sans-serif" font-size="20" lengthAdjust="spacing" textLength="106" x="267" y="603.8457">Repository</text></g><!--entity SRV--><g id="elem_SRV"><rect fill="#F1F1F1" height="76.5625" rx="2.5" ry="2.5" style="stroke:#181818;stroke-width:0.5;" width="233" x="441.5" y="811"/><rect fill="#F1F1F1" height="10" style="stroke:#181818;stroke-width:0.5;" width="15" x="654.5" y="816"/><rect fill="#F1F1F1" height="2" style="stroke:#181818;stroke-width:0.5;" width="4" x="652.5" y="818"/><rect fill="#F1F1F1" height="2" style="stroke:#181818;stroke-width:0.5;" width="4" x="652.5" y="822"/><text fill="#000000" font-family="sans-serif" font-size="20" font-style="italic" lengthAdjust="spacing" textLength="138" x="484" y="849.5645">«component»</text><text fill="#000000" font-family="sans-serif" font-size="20" lengthAdjust="spacing" textLength="193" x="456.5" y="872.8457">Application Service</text></g><!--entity MODEL--><g id="elem_MODEL"><rect fill="#F1F1F1" height="76.5625" rx="2.5" ry="2.5" style="stroke:#181818;stroke-width:0.5;" width="235" x="307.5" y="1080"/><rect fill="#F1F1F1" height="10" style="stroke:#181818;stroke-width:0.5;" width="15" x="522.5" y="1085"/><rect fill="#F1F1F1" height="2" style="stroke:#181818;stroke-width:0.5;" width="4" x="520.5" y="1087"/><rect fill="#F1F1F1" height="2" style="stroke:#181818;stroke-width:0.5;" width="4" x="520.5" y="1091"/><text fill="#000000" font-family="sans-serif" font-size="20" font-style="italic" lengthAdjust="spacing" textLength="138" x="351" y="1118.5645">«component»</text><text fill="#000000" font-family="sans-serif" font-size="20" lengthAdjust="spacing" textLength="195" x="322.5" y="1141.8457">Domain Model DDD</text></g><!--entity API--><g id="elem_API"><ellipse cx="538" cy="14" fill="#F1F1F1" rx="8" ry="8" style="stroke:#181818;stroke-width:0.5;"/><text fill="#000000" font-family="sans-serif" font-size="20" lengthAdjust="spacing" textLength="70" x="503" y="49.5645">MD API</text></g><!--entity FS--><g id="elem_FS"><ellipse cx="996" cy="580.5" fill="#F1F1F1" rx="8" ry="8" style="stroke:#181818;stroke-width:0.5;"/><text fill="#000000" font-family="sans-serif" font-size="20" lengthAdjust="spacing" textLength="145" x="923.5" y="616.0645">Filesystem API</text></g><!--link API to P1--><g id="link_API_P1"><path d="M538,23.05 C538,44.72 538,103.83 538,121.77 " fill="none" id="API-P1" style="stroke:#181818;stroke-width:1.0;"/></g><!--link ROUTE to P1--><g id="link_ROUTE_P1"><path d="M538,272.88 C538,227.35 538,154.29 538,134.24 " fill="none" id="ROUTE-P1" style="stroke:#181818;stroke-width:1.0;"/></g><!--link PERSISTENCE to P2--><g id="link_PERSISTENCE_P2"><path d="M360.46,272.87 C380.13,253.61 405.85,230.95 432,215 C510.95,166.85 621.42,137.54 649.37,130.6 " fill="none" id="PERSISTENCE-P2" style="stroke:#181818;stroke-width:1.0;"/></g><!--link P3 to FS--><g id="link_P3_FS"><path d="M897.87,452.03 C911.86,470.2 960.12,532.89 983.33,563.05 " fill="none" id="P3-to-FS" style="stroke:#181818;stroke-width:1.0;"/><path d="M994.4959,563.6733 A9,9 0 0 0 981.09 573.9874" fill="none" style="stroke:#181818;stroke-width:1.5;"/></g><!--link ROUTE to CTRL_API--><g id="link_ROUTE_CTRL_API"><path d="M538,350.11 C538,375.19 538,407.03 538,426.71 " fill="none" id="ROUTE-to-CTRL_API" style="stroke:#181818;stroke-width:1.0;"/><path d="M546.4572,433.6718 A9,9 0 0 0 529.5428 433.6718" fill="none" style="stroke:#181818;stroke-width:1.5;"/></g><!--link CTRL_API to CTRL--><g id="link_CTRL_API_CTRL"><path d="M538,455.29 C538,472.29 538,512.01 538,541.99 " fill="none" id="CTRL_API-CTRL" style="stroke:#181818;stroke-width:1.0;"/></g><!--link PERSISTENCE to PERSISTENCE_API--><g id="link_PERSISTENCE_PERSISTENCE_API"><path d="M325,350.11 C325,380.11 325,419.79 325,436.75 " fill="none" id="PERSISTENCE-PERSISTENCE_API" style="stroke:#181818;stroke-width:1.0;"/></g><!--reverse link PERSISTENCE_API to REPO--><g id="link_PERSISTENCE_API_REPO"><path d="M325,465.35 C325,485.06 325,516.93 325,541.99 " fill="none" id="PERSISTENCE_API-backto-REPO" style="stroke:#181818;stroke-width:1.0;"/><path d="M316.5428,458.3682 A9,9 0 0 0 333.4572 458.3682" fill="none" style="stroke:#181818;stroke-width:1.5;"/></g><!--link PERSISTENCE to DATA_API--><g id="link_PERSISTENCE_DATA_API"><path d="M267.99,350.29 C256.11,358.14 243.65,366.35 232,374 C199.76,395.16 162.04,419.67 140.49,433.66 " fill="none" id="PERSISTENCE-to-DATA_API" style="stroke:#181818;stroke-width:1.0;"/><path d="M139.2464,444.5481 A9,9 0 0 0 130.0376 430.3602" fill="none" style="stroke:#181818;stroke-width:1.5;"/></g><!--reverse link DATA_API to REPO--><g id="link_DATA_API_REPO"><path d="M140.57,458.52 C168.56,476.89 224.51,513.59 267.48,541.77 " fill="none" id="DATA_API-backto-REPO" style="stroke:#181818;stroke-width:1.0;"/><path d="M130.1324,461.7993 A9,9 0 0 0 139.4142 447.659" fill="none" style="stroke:#181818;stroke-width:1.5;"/></g><!--link DATA to DATA_API--><g id="link_DATA_DATA_API"><path d="M115.12,350.11 C117.2,375.19 119.85,407.03 121.48,426.71 " fill="none" id="DATA-to-DATA_API" style="stroke:#181818;stroke-width:1.0;"/><path d="M130.4933,432.9821 A9,9 0 0 0 113.6369 434.3827" fill="none" style="stroke:#181818;stroke-width:1.5;"/></g><!--link CTRL to SRV_API--><g id="link_CTRL_SRV_API"><path d="M543.68,619.11 C547.46,644.19 552.27,676.03 555.24,695.71 " fill="none" id="CTRL-to-SRV_API" style="stroke:#181818;stroke-width:1.0;"/><path d="M564.6558,701.4491 A9,9 0 0 0 547.9292 703.9629" fill="none" style="stroke:#181818;stroke-width:1.5;"/></g><!--reverse link SRV_API to SRV--><g id="link_SRV_API_SRV"><path d="M558,734.35 C558,754.06 558,785.93 558,810.99 " fill="none" id="SRV_API-backto-SRV" style="stroke:#181818;stroke-width:1.0;"/><path d="M549.5428,727.3682 A9,9 0 0 0 566.4572 727.3682" fill="none" style="stroke:#181818;stroke-width:1.5;"/></g><!--reverse link DTO_API to SRV--><g id="link_DTO_API_SRV"><path d="M714.56,729.28 C689.79,748.14 643.47,783.41 607.61,810.72 " fill="none" id="DTO_API-backto-SRV" style="stroke:#181818;stroke-width:1.0;"/><path d="M715.0782,718.2551 A9,9 0 0 0 725.3232 731.7138" fill="none" style="stroke:#181818;stroke-width:1.5;"/></g><!--link SRV to P3--><g id="link_SRV_P3"><path d="M674.71,843.78 C743.49,834.4 826,810.35 873,751 C892.34,726.58 893.87,489.83 893.99,452.07 " fill="none" id="SRV-P3" style="stroke:#181818;stroke-width:1.0;"/></g><!--link CTRL to DTO_API--><g id="link_CTRL_DTO_API"><path d="M593.07,619.11 C633.96,647.04 687.15,683.37 714.32,701.93 " fill="none" id="CTRL-to-DTO_API" style="stroke:#181818;stroke-width:1.0;"/><path d="M725.0203,698.9907 A9,9 0 0 0 715.4768 712.9557" fill="none" style="stroke:#181818;stroke-width:1.5;"/></g><!--link DTO to DTO_API--><g id="link_DTO_DTO_API"><path d="M745.61,619.11 C742.01,644.19 737.44,676.03 734.62,695.71 " fill="none" id="DTO-to-DTO_API" style="stroke:#181818;stroke-width:1.0;"/><path d="M741.9902,703.9112 A9,9 0 0 0 725.2491 701.4955" fill="none" style="stroke:#181818;stroke-width:1.5;"/></g><!--link REPO to REPO_API--><g id="link_REPO_REPO_API"><path d="M340.61,619.11 C353.06,649.11 369.54,688.79 376.58,705.75 " fill="none" id="REPO-REPO_API" style="stroke:#181818;stroke-width:1.0;"/></g><!--reverse link REPO_API to SRV--><g id="link_REPO_API_SRV"><path d="M397.26,728.85 C422.45,747.6 470.3,783.22 507.27,810.73 " fill="none" id="REPO_API-backto-SRV" style="stroke:#181818;stroke-width:1.0;"/><path d="M386.4853,731.3709 A9,9 0 0 0 396.5914 717.8074" fill="none" style="stroke:#181818;stroke-width:1.5;"/></g><!--link SRV to MODEL_API--><g id="link_SRV_MODEL_API"><path d="M520.24,888.11 C493.78,914.47 459.81,948.32 440.41,967.65 " fill="none" id="SRV-to-MODEL_API" style="stroke:#181818;stroke-width:1.0;"/><path d="M441.4291,978.57 A9,9 0 0 0 429.4929 966.5856" fill="none" style="stroke:#181818;stroke-width:1.5;"/></g><!--link REPO to MODEL_API--><g id="link_REPO_MODEL_API"><path d="M315.34,619.02 C307.96,653.69 300.64,706.42 311,751 C331.14,837.67 388.47,929.26 413.3,966.16 " fill="none" id="REPO-to-MODEL_API" style="stroke:#181818;stroke-width:1.0;"/><path d="M424.3757,967.3768 A9,9 0 0 0 410.4107 976.9203" fill="none" style="stroke:#181818;stroke-width:1.5;"/></g><!--link MODEL_API to MODEL--><g id="link_MODEL_API_MODEL"><path d="M425,993.29 C425,1010.29 425,1050.01 425,1079.99 " fill="none" id="MODEL_API-MODEL" style="stroke:#181818;stroke-width:1.0;"/></g><!--SRC=[ZLHTRvim57tdLrnbqiGUaB9q3tseAj50f4XbGS3sEhdWL5R0HiRfb4tvxxks0pY4LSrBu7BE_Je-xWwCjqIIfXRbWLPGqJqvrceZkChP7mghfUSfqO8Iy2AK4WrKJD9ICS4zZt55vPwK51P9166wNG3fzB_xPSDgsfqwHPi1iSazhnHDApZbod0JmiahRV3L098eWOU70VBuQDwu8enJ2VxwsnSC_VK0MY4Lux00Gqk_Eg6KoevXMOvDz8NJrGKWZceWtNaOt8uDhx6G57MDbNhUkiYUV-cvhe0HKGGIKT5w04PX4HgWphaNTOL95XjSB_qjvA63pn19zeQTmJCvKRc0J_VB3VxCC03EKZ9iaV5NapNR_IZYoK8iuJobELFRwU8it-P5_7tz_mHdtQoJOvnhc6c6UvwGYfr55xjPyFNgmhQ5dCetLjBEBY_C8Sz-pYmPy_K0VBu5PBGL0oABqnc8en5YabqKpwXvSruGwcpFgZgAEZB3YhHgAkdzybRIyM0DX-fZekeHEwQ4FDdZW4E-BsRV9AwvPYNHReMdOuVkwP1-H4DYcxh9kJPTqaKZKnRb-LZLMA-cbQoZSqNNiqKZqQ2vBswAeiXU0rgfTsfYLLG5Wa0xtxCk2UoRU-vrPEMbT_ZWcxjdWFgZiuqQmR4Dnj0qn-Gm61aqmvz-WWdL7-u5S5bZq5Zi6dTf26EzBVJ-BV4sqZl3H09zfmtq_fCsalj-wIGOFJEcwqFOXiteZwxfHxYEMQdC_fpeFm00]--></g></svg>