<?xml version="1.0" encoding="UTF-8" standalone="no"?><svg xmlns="http://www.w3.org/2000/svg" xmlns:xlink="http://www.w3.org/1999/xlink" contentStyleType="text/css" height="576px" preserveAspectRatio="none" style="width:1053px;height:576px;background:#FFFFFF;" version="1.1" viewBox="0 0 1053 576" width="1053px" zoomAndPan="magnify"><defs/><g><!--cluster RobDroneGo System--><g id="cluster_RobDroneGo System"><rect fill="none" height="450" rx="2.5" ry="2.5" style="stroke:#181818;stroke-width:1.0;" width="648" x="7" y="120"/><rect fill="none" height="10" style="stroke:#181818;stroke-width:1.0;" width="15" x="635" y="125"/><rect fill="none" height="2" style="stroke:#181818;stroke-width:1.0;" width="4" x="633" y="127"/><rect fill="none" height="2" style="stroke:#181818;stroke-width:1.0;" width="4" x="633" y="131"/><text fill="#000000" font-family="sans-serif" font-size="20" font-style="italic" lengthAdjust="spacing" textLength="122" x="270" y="154.38">«component»</text><text fill="#000000" font-family="sans-serif" font-size="20" font-style="italic" lengthAdjust="spacing" textLength="122" x="270" y="181.62">«system (C4)»</text><text fill="#000000" font-family="sans-serif" font-size="20" font-weight="bold" lengthAdjust="spacing" textLength="204" x="229" y="208.8599">RobDroneGo System</text></g><text fill="#000000" font-family="sans-serif" font-size="20" lengthAdjust="spacing" textLength="5" x="634.5" y="96.14"> </text><rect fill="#F1F1F1" height="12" style="stroke:#181818;stroke-width:1.5;" width="12" x="631" y="114"/><!--entity API--><g id="elem_API"><ellipse cx="359" cy="370" fill="#F1F1F1" rx="8" ry="8" style="stroke:#181818;stroke-width:0.5;"/><text fill="#000000" font-family="sans-serif" font-size="20" lengthAdjust="spacing" textLength="162" x="278" y="408.38">API-Management</text></g><!--entity PAPI--><g id="elem_PAPI"><ellipse cx="168" cy="370" fill="#F1F1F1" rx="8" ry="8" style="stroke:#181818;stroke-width:0.5;"/><text fill="#000000" font-family="sans-serif" font-size="20" lengthAdjust="spacing" textLength="119" x="108.5" y="408.38">API-Planning</text></g><!--entity V--><g id="elem_V"><rect fill="#F1F1F1" height="84.4799" rx="2.5" ry="2.5" style="stroke:#181818;stroke-width:0.5;" width="289" x="347.5" y="186"/><rect fill="#F1F1F1" height="10" style="stroke:#181818;stroke-width:0.5;" width="15" x="616.5" y="191"/><rect fill="#F1F1F1" height="2" style="stroke:#181818;stroke-width:0.5;" width="4" x="614.5" y="193"/><rect fill="#F1F1F1" height="2" style="stroke:#181818;stroke-width:0.5;" width="4" x="614.5" y="197"/><text fill="#000000" font-family="sans-serif" font-size="20" font-style="italic" lengthAdjust="spacing" textLength="249" x="362.5" y="227.38">«component» «system (C4)»</text><text fill="#000000" font-family="sans-serif" font-size="20" lengthAdjust="spacing" textLength="116" x="429" y="254.62">Visualization</text></g><!--entity MDM--><g id="elem_MDM"><rect fill="#F1F1F1" height="84.4799" rx="2.5" ry="2.5" style="stroke:#181818;stroke-width:0.5;" width="289" x="118.5" y="470"/><rect fill="#F1F1F1" height="10" style="stroke:#181818;stroke-width:0.5;" width="15" x="387.5" y="475"/><rect fill="#F1F1F1" height="2" style="stroke:#181818;stroke-width:0.5;" width="4" x="385.5" y="477"/><rect fill="#F1F1F1" height="2" style="stroke:#181818;stroke-width:0.5;" width="4" x="385.5" y="481"/><text fill="#000000" font-family="sans-serif" font-size="20" font-style="italic" lengthAdjust="spacing" textLength="249" x="133.5" y="511.38">«component» «system (C4)»</text><text fill="#000000" font-family="sans-serif" font-size="20" lengthAdjust="spacing" textLength="162" x="177" y="538.62">MD Management</text></g><!--entity P--><g id="elem_P"><rect fill="#F1F1F1" height="84.4799" rx="2.5" ry="2.5" style="stroke:#181818;stroke-width:0.5;" width="289" x="23.5" y="186"/><rect fill="#F1F1F1" height="10" style="stroke:#181818;stroke-width:0.5;" width="15" x="292.5" y="191"/><rect fill="#F1F1F1" height="2" style="stroke:#181818;stroke-width:0.5;" width="4" x="290.5" y="193"/><rect fill="#F1F1F1" height="2" style="stroke:#181818;stroke-width:0.5;" width="4" x="290.5" y="197"/><text fill="#000000" font-family="sans-serif" font-size="20" font-style="italic" lengthAdjust="spacing" textLength="249" x="38.5" y="227.38">«component» «system (C4)»</text><text fill="#000000" font-family="sans-serif" font-size="20" lengthAdjust="spacing" textLength="81" x="122.5" y="254.62">Planning</text></g><!--entity AUI--><g id="elem_AUI"><ellipse cx="220" cy="14" fill="#F1F1F1" rx="8" ry="8" style="stroke:#181818;stroke-width:0.5;"/><text fill="#000000" font-family="sans-serif" font-size="20" lengthAdjust="spacing" textLength="88" x="176" y="52.38">Admin UI</text></g><!--entity CUI--><g id="elem_CUI"><ellipse cx="411" cy="14" fill="#F1F1F1" rx="8" ry="8" style="stroke:#181818;stroke-width:0.5;"/><text fill="#000000" font-family="sans-serif" font-size="20" lengthAdjust="spacing" textLength="192" x="315" y="52.38">Campus Manager UI</text></g><!--entity FUI--><g id="elem_FUI"><ellipse cx="637" cy="14" fill="#F1F1F1" rx="8" ry="8" style="stroke:#181818;stroke-width:0.5;"/><text fill="#000000" font-family="sans-serif" font-size="20" lengthAdjust="spacing" textLength="159" x="557.5" y="52.38">Fleet Manager UI</text></g><!--entity TUI--><g id="elem_TUI"><ellipse cx="846" cy="14" fill="#F1F1F1" rx="8" ry="8" style="stroke:#181818;stroke-width:0.5;"/><text fill="#000000" font-family="sans-serif" font-size="20" lengthAdjust="spacing" textLength="158" x="767" y="52.38">Task Manager UI</text></g><!--entity UUI--><g id="elem_UUI"><ellipse cx="1011" cy="14" fill="#F1F1F1" rx="8" ry="8" style="stroke:#181818;stroke-width:0.5;"/><text fill="#000000" font-family="sans-serif" font-size="20" lengthAdjust="spacing" textLength="71" x="975.5" y="52.38">User UI</text></g><!--link V to P1--><g id="link_V_P1"><path d="M548.42,185.75 C580.29,162.46 616.51,135.98 630.77,125.55 " fill="none" id="V-P1" style="stroke:#181818;stroke-width:1.0;"/></g><!--link API to MDM--><g id="link_API_MDM"><path d="M353.56,378.93 C341.78,396.11 313.2,437.8 291.26,469.78 " fill="none" id="API-MDM" style="stroke:#181818;stroke-width:1.0;"/></g><!--link V to API--><g id="link_V_API"><path d="M452.81,270.25 C426.62,297.82 393.58,332.6 374.52,352.67 " fill="none" id="V-to-API" style="stroke:#181818;stroke-width:1.0;"/><path d="M375.8838,363.4981 A9,9 0 0 0 363.6136 351.8559" fill="none" style="stroke:#181818;stroke-width:1.5;"/></g><!--link P to API--><g id="link_P_API"><path d="M224.53,270.44 C264.15,299.48 314.58,336.44 340.99,355.8 " fill="none" id="P-to-API" style="stroke:#181818;stroke-width:1.0;"/><path d="M351.4557,352.9888 A9,9 0 0 0 341.4584 366.6325" fill="none" style="stroke:#181818;stroke-width:1.5;"/></g><!--link P to PAPI--><g id="link_P_PAPI"><path d="M168,270.25 C168,302.19 168,343.79 168,361.01 " fill="none" id="P-PAPI" style="stroke:#181818;stroke-width:1.0;"/></g><!--reverse link PAPI to MDM--><g id="link_PAPI_MDM"><path d="M179.78,388.37 C193.5,408.58 216.63,442.67 235.03,469.78 " fill="none" id="PAPI-backto-MDM" style="stroke:#181818;stroke-width:1.0;"/><path d="M168.9612,387.4765 A9,9 0 0 0 182.9563 377.9773" fill="none" style="stroke:#181818;stroke-width:1.5;"/></g><!--link AUI to P1--><g id="link_AUI_P1"><path d="M228.62,21.02 C241.41,29.67 266.45,45.49 290,54 C422,101.7 595.51,116.07 630.64,118.58 " fill="none" id="AUI-P1" style="stroke:#181818;stroke-width:1.0;"/></g><!--link CUI to P1--><g id="link_CUI_P1"><path d="M419.86,19.08 C456.91,36.13 598.98,101.51 630.7,116.1 " fill="none" id="CUI-P1" style="stroke:#181818;stroke-width:1.0;"/></g><!--link FUI to P1--><g id="link_FUI_P1"><path d="M637,22.82 C637,43.04 637,96.66 637,113.72 " fill="none" id="FUI-P1" style="stroke:#181818;stroke-width:1.0;"/></g><!--link TUI to P1--><g id="link_TUI_P1"><path d="M837.02,19.47 C801.7,37.04 672.86,101.16 643.14,115.94 " fill="none" id="TUI-P1" style="stroke:#181818;stroke-width:1.0;"/></g><!--link UUI to P1--><g id="link_UUI_P1"><path d="M1002.24,22.22 C991.05,31.06 970.76,45.87 951,54 C833.62,102.29 676.25,116.12 643.23,118.57 " fill="none" id="UUI-P1" style="stroke:#181818;stroke-width:1.0;"/></g><!--SRC=[dP91QuGm48Nl-HM39tiGsjBZih2uM3m8qbNlKyqkGJCH4m_Tql_UQBhMsCjIyF1cvkFbpQ1k1VKueEnKtV866dx6iJE98dCILmxFZum9CdmuOyqXE3HI49Hf0AZXKARhMOoo7pLaI7ZXmmsAVIZfE3TR9l6P0dMxHGeVAVNlgBGZLYlPA-9a87XJxyV1wbS5fmzjk0nWjrlc-xsjzDo7C7vviFKd0-ZLOEnc0SoM-HEplNIrTvv6Bf6q7cxxFFtBv1qI2Reu5uVORvMk4dh4JbpH24KpLjqHxulvBjaHDd6oO_OF7p_lNGRMWbKGHTEHfaUZiO_cOqpDS5QvfzmTRcZeIcP_dX-JU579eef5bOlw1W00]--></g></svg>