<?xml version="1.0" encoding="UTF-8" standalone="no"?><svg xmlns="http://www.w3.org/2000/svg" xmlns:xlink="http://www.w3.org/1999/xlink" contentStyleType="text/css" height="783px" preserveAspectRatio="none" style="width:299px;height:783px;background:#FFFFFF;" version="1.1" viewBox="0 0 299 783" width="299px" zoomAndPan="magnify"><defs/><g><!--cluster S1--><g id="cluster_S1"><polygon fill="none" points="16,16,26,6,282,6,282,268,272,278,16,278,16,16" style="stroke:#181818;stroke-width:1.0;"/><line style="stroke:#181818;stroke-width:1.0;" x1="272" x2="282" y1="16" y2="6"/><line style="stroke:#181818;stroke-width:1.0;" x1="16" x2="272" y1="16" y2="16"/><line style="stroke:#181818;stroke-width:1.0;" x1="272" x2="272" y1="16" y2="278"/><text fill="#000000" font-family="sans-serif" font-size="20" font-weight="bold" lengthAdjust="spacing" textLength="99.625" x="95.1875" y="40.38">Server 1: ?</text></g><!--cluster B--><g id="cluster_B"><rect fill="none" height="173" rx="2.5" ry="2.5" style="stroke:#181818;stroke-width:1.0;" width="194" x="56" y="73"/><rect fill="none" height="10" style="stroke:#181818;stroke-width:1.0;" width="15" x="230" y="78"/><rect fill="none" height="2" style="stroke:#181818;stroke-width:1.0;" width="4" x="228" y="80"/><rect fill="none" height="2" style="stroke:#181818;stroke-width:1.0;" width="4" x="228" y="84"/><text fill="#000000" font-family="sans-serif" font-size="20" font-style="italic" lengthAdjust="spacing" textLength="122" x="92" y="107.38">«component»</text><text fill="#000000" font-family="sans-serif" font-size="20" font-weight="bold" lengthAdjust="spacing" textLength="82.375" x="111.8125" y="134.62">Browser</text></g><!--cluster S2--><g id="cluster_S2"><polygon fill="none" points="16,365,26,355,281,355,281,512,271,522,16,522,16,365" style="stroke:#181818;stroke-width:1.0;"/><line style="stroke:#181818;stroke-width:1.0;" x1="271" x2="281" y1="365" y2="355"/><line style="stroke:#181818;stroke-width:1.0;" x1="16" x2="271" y1="365" y2="365"/><line style="stroke:#181818;stroke-width:1.0;" x1="271" x2="271" y1="365" y2="522"/><text fill="#000000" font-family="sans-serif" font-size="20" font-weight="bold" lengthAdjust="spacing" textLength="99.625" x="94.6875" y="389.38">Server 2: ?</text></g><!--cluster S3--><g id="cluster_S3"><polygon fill="none" points="16,609,26,599,245,599,245,756,235,766,16,766,16,609" style="stroke:#181818;stroke-width:1.0;"/><line style="stroke:#181818;stroke-width:1.0;" x1="235" x2="245" y1="609" y2="599"/><line style="stroke:#181818;stroke-width:1.0;" x1="16" x2="235" y1="609" y2="609"/><line style="stroke:#181818;stroke-width:1.0;" x1="235" x2="235" y1="609" y2="766"/><text fill="#000000" font-family="sans-serif" font-size="20" font-weight="bold" lengthAdjust="spacing" textLength="99.625" x="76.6875" y="633.38">Server 3: ?</text></g><!--entity V--><g id="elem_V"><rect fill="#F1F1F1" height="84.4799" rx="2.5" ry="2.5" style="stroke:#181818;stroke-width:0.5;" width="162" x="72" y="146"/><rect fill="#F1F1F1" height="10" style="stroke:#181818;stroke-width:0.5;" width="15" x="214" y="151"/><rect fill="#F1F1F1" height="2" style="stroke:#181818;stroke-width:0.5;" width="4" x="212" y="153"/><rect fill="#F1F1F1" height="2" style="stroke:#181818;stroke-width:0.5;" width="4" x="212" y="157"/><text fill="#000000" font-family="sans-serif" font-size="20" font-style="italic" lengthAdjust="spacing" textLength="122" x="87" y="187.38">«component»</text><text fill="#000000" font-family="sans-serif" font-size="20" lengthAdjust="spacing" textLength="116" x="90" y="214.62">Visualization</text></g><!--entity MDM--><g id="elem_MDM"><rect fill="#F1F1F1" height="84.4799" rx="2.5" ry="2.5" style="stroke:#181818;stroke-width:0.5;" width="197" x="59.5" y="414"/><rect fill="#F1F1F1" height="10" style="stroke:#181818;stroke-width:0.5;" width="15" x="236.5" y="419"/><rect fill="#F1F1F1" height="2" style="stroke:#181818;stroke-width:0.5;" width="4" x="234.5" y="421"/><rect fill="#F1F1F1" height="2" style="stroke:#181818;stroke-width:0.5;" width="4" x="234.5" y="425"/><text fill="#000000" font-family="sans-serif" font-size="20" font-style="italic" lengthAdjust="spacing" textLength="122" x="92" y="455.38">«component»</text><text fill="#000000" font-family="sans-serif" font-size="20" lengthAdjust="spacing" textLength="157" x="74.5" y="482.62">MDManagement</text></g><!--entity P--><g id="elem_P"><rect fill="#F1F1F1" height="84.4799" rx="2.5" ry="2.5" style="stroke:#181818;stroke-width:0.5;" width="162" x="59" y="658"/><rect fill="#F1F1F1" height="10" style="stroke:#181818;stroke-width:0.5;" width="15" x="201" y="663"/><rect fill="#F1F1F1" height="2" style="stroke:#181818;stroke-width:0.5;" width="4" x="199" y="665"/><rect fill="#F1F1F1" height="2" style="stroke:#181818;stroke-width:0.5;" width="4" x="199" y="669"/><text fill="#000000" font-family="sans-serif" font-size="20" font-style="italic" lengthAdjust="spacing" textLength="122" x="74" y="699.38">«component»</text><text fill="#000000" font-family="sans-serif" font-size="20" lengthAdjust="spacing" textLength="81" x="94.5" y="726.62">Planning</text></g><!--link S1 to S2--><g id="link_S1_S2"><path d="M24,278.2536 C24,278.7396 24,279.2265 24,279.7142 C24,281.6651 24,283.6296 24,285.6057 C24,289.5579 24,293.5565 24,297.5861 C24,305.6453 24,313.8283 24,322.0113 C24,330.1942 24,338.3771 24,346.4361 C24,348.4508 24,350.4578 24,352.4551 C24,352.9544 24,353.4531 24,353.9512 C24,354.2003 24,354.4492 24,354.6979 " fill="none" id="S1-S2" style="stroke:#181818;stroke-width:1.0;"/><text fill="#000000" font-family="sans-serif" font-size="20" lengthAdjust="spacing" textLength="55" x="25" y="324.38">http/s</text></g><!--link S2 to S3--><g id="link_S2_S3"><path d="M24,522.6747 C24,523.0937 24,523.5139 24,523.9352 C24,527.3055 24,530.7462 24,534.2433 C24,548.2316 24,563.1216 24,578.0113 C24,581.7337 24,585.4561 24,589.1644 C24,591.0185 24,592.8692 24,594.7145 C24,595.6372 24,596.5585 24,597.4783 C24,597.9382 24,598.3977 24,598.8568 " fill="none" id="S2-S3" style="stroke:#181818;stroke-width:1.0;"/><text fill="#000000" font-family="sans-serif" font-size="20" lengthAdjust="spacing" textLength="55" x="25" y="568.38">http/s</text></g><!--SRC=[RP312i8m44Jl-OgbzwAsDoaLHBmLX4BlYrrhiDsK92ee_hj9b4g3XuNipEnZYBb87b7ZqAlZXLfewOJNtkuLsre-2BAb4AnQWgGcVICDgpLi4a03zGgU0k2eXb4niOLagzNTa0xk5efYiieoH6VXHfehzlA1LYeE9ytVavVmyufQP5EBB6vHxIfax6XmMuWu8IR35mfpQZvHyvXww95PSXViGyJx03qHX73_agQ-rnhEreuB8zpRA_bFUGC0]--></g></svg>