<?xml version="1.0" encoding="UTF-8" standalone="no"?><svg xmlns="http://www.w3.org/2000/svg" xmlns:xlink="http://www.w3.org/1999/xlink" contentStyleType="text/css" height="603px" preserveAspectRatio="none" style="width:1332px;height:603px;background:#FFFFFF;" version="1.1" viewBox="0 0 1332 603" width="1332px" zoomAndPan="magnify"><defs/><g><rect fill="#DDDDDD" height="591.2188" style="stroke:#181818;stroke-width:0.5;" width="842" x="273" y="6"/><text fill="#000000" font-family="sans-serif" font-size="20" font-weight="bold" lengthAdjust="spacing" textLength="153" x="617.5" y="24.5645">«system (C4»</text><text fill="#000000" font-family="sans-serif" font-size="20" font-weight="bold" lengthAdjust="spacing" textLength="147" x="620.5" y="47.8457">Visualization</text><rect fill="#FFFFE0" height="591.2188" style="stroke:#181818;stroke-width:0.5;" width="209" x="1117" y="6"/><text fill="#000000" font-family="sans-serif" font-size="20" font-weight="bold" lengthAdjust="spacing" textLength="162" x="1140.5" y="24.5645">«system (C4)»</text><text fill="#000000" font-family="sans-serif" font-size="20" font-weight="bold" lengthAdjust="spacing" textLength="193" x="1125" y="47.8457">MD Management</text><rect fill="#FFFFFF" height="364.8125" style="stroke:#181818;stroke-width:1.0;" width="10" x="90.5" y="128.125"/><rect fill="#FFFFFF" height="344.5313" style="stroke:#181818;stroke-width:1.0;" width="10" x="377.5" y="157.4063"/><rect fill="#FFFFFF" height="335.5313" style="stroke:#181818;stroke-width:1.0;" width="10" x="377.5" y="157.4063"/><rect fill="#FFFFFF" height="260.9688" style="stroke:#181818;stroke-width:1.0;" width="10" x="583.5" y="194.6875"/><rect fill="#FFFFFF" height="186.4063" style="stroke:#181818;stroke-width:1.0;" width="10" x="794.5" y="231.9688"/><rect fill="#FFFFFF" height="111.8438" style="stroke:#181818;stroke-width:1.0;" width="10" x="1005.5" y="269.25"/><rect fill="#FFFFFF" height="37.2813" style="stroke:#181818;stroke-width:1.0;" width="10" x="1216.5" y="306.5313"/><line style="stroke:#181818;stroke-width:0.5;stroke-dasharray:5.0,5.0;" x1="95" x2="95" y1="118.125" y2="510.9375"/><line style="stroke:#181818;stroke-width:0.5;stroke-dasharray:5.0,5.0;" x1="377" x2="377" y1="118.125" y2="510.9375"/><line style="stroke:#181818;stroke-width:0.5;stroke-dasharray:5.0,5.0;" x1="588" x2="588" y1="118.125" y2="510.9375"/><line style="stroke:#181818;stroke-width:0.5;stroke-dasharray:5.0,5.0;" x1="799" x2="799" y1="118.125" y2="510.9375"/><line style="stroke:#181818;stroke-width:0.5;stroke-dasharray:5.0,5.0;" x1="1010" x2="1010" y1="118.125" y2="510.9375"/><line style="stroke:#181818;stroke-width:0.5;stroke-dasharray:5.0,5.0;" x1="1221" x2="1221" y1="118.125" y2="510.9375"/><text fill="#000000" font-family="sans-serif" font-size="20" lengthAdjust="spacing" textLength="175" x="5" y="113.4082">Campus Manager</text><ellipse cx="95.5" cy="43.3438" fill="#E2E2F0" rx="8" ry="8" style="stroke:#181818;stroke-width:0.5;"/><path d="M95.5,51.3438 L95.5,78.3438 M82.5,59.3438 L108.5,59.3438 M95.5,78.3438 L82.5,93.3438 M95.5,78.3438 L108.5,93.3438 " fill="none" style="stroke:#181818;stroke-width:0.5;"/><text fill="#000000" font-family="sans-serif" font-size="20" lengthAdjust="spacing" textLength="175" x="5" y="528.502">Campus Manager</text><ellipse cx="95.5" cy="541.7188" fill="#E2E2F0" rx="8" ry="8" style="stroke:#181818;stroke-width:0.5;"/><path d="M95.5,549.7188 L95.5,576.7188 M82.5,557.7188 L108.5,557.7188 M95.5,576.7188 L82.5,591.7188 M95.5,576.7188 L108.5,591.7188 " fill="none" style="stroke:#181818;stroke-width:0.5;"/><rect fill="#E2E2F0" height="60.5625" rx="2.5" ry="2.5" style="stroke:#181818;stroke-width:0.5;" width="201" x="277" y="56.5625"/><text fill="#000000" font-family="sans-serif" font-size="20" font-style="italic" lengthAdjust="spacing" textLength="187" x="284" y="82.127">«component (C4)»</text><text fill="#000000" font-family="sans-serif" font-size="20" lengthAdjust="spacing" textLength="144" x="305.5" y="105.4082">UI Component</text><rect fill="#E2E2F0" height="60.5625" rx="2.5" ry="2.5" style="stroke:#181818;stroke-width:0.5;" width="201" x="277" y="509.9375"/><text fill="#000000" font-family="sans-serif" font-size="20" font-style="italic" lengthAdjust="spacing" textLength="187" x="284" y="535.502">«component (C4)»</text><text fill="#000000" font-family="sans-serif" font-size="20" lengthAdjust="spacing" textLength="144" x="305.5" y="558.7832">UI Component</text><rect fill="#E2E2F0" height="60.5625" rx="2.5" ry="2.5" style="stroke:#181818;stroke-width:0.5;" width="201" x="488" y="56.5625"/><text fill="#000000" font-family="sans-serif" font-size="20" font-style="italic" lengthAdjust="spacing" textLength="187" x="495" y="82.127">«component (C4)»</text><text fill="#000000" font-family="sans-serif" font-size="20" lengthAdjust="spacing" textLength="73" x="552" y="105.4082">Module</text><rect fill="#E2E2F0" height="60.5625" rx="2.5" ry="2.5" style="stroke:#181818;stroke-width:0.5;" width="201" x="488" y="509.9375"/><text fill="#000000" font-family="sans-serif" font-size="20" font-style="italic" lengthAdjust="spacing" textLength="187" x="495" y="535.502">«component (C4)»</text><text fill="#000000" font-family="sans-serif" font-size="20" lengthAdjust="spacing" textLength="73" x="552" y="558.7832">Module</text><rect fill="#E2E2F0" height="60.5625" rx="2.5" ry="2.5" style="stroke:#181818;stroke-width:0.5;" width="201" x="699" y="56.5625"/><text fill="#000000" font-family="sans-serif" font-size="20" font-style="italic" lengthAdjust="spacing" textLength="187" x="706" y="82.127">«component (C4)»</text><text fill="#000000" font-family="sans-serif" font-size="20" lengthAdjust="spacing" textLength="73" x="763" y="105.4082">Service</text><rect fill="#E2E2F0" height="60.5625" rx="2.5" ry="2.5" style="stroke:#181818;stroke-width:0.5;" width="201" x="699" y="509.9375"/><text fill="#000000" font-family="sans-serif" font-size="20" font-style="italic" lengthAdjust="spacing" textLength="187" x="706" y="535.502">«component (C4)»</text><text fill="#000000" font-family="sans-serif" font-size="20" lengthAdjust="spacing" textLength="73" x="763" y="558.7832">Service</text><rect fill="#E2E2F0" height="60.5625" rx="2.5" ry="2.5" style="stroke:#181818;stroke-width:0.5;" width="201" x="910" y="56.5625"/><text fill="#000000" font-family="sans-serif" font-size="20" font-style="italic" lengthAdjust="spacing" textLength="187" x="917" y="82.127">«component (C4)»</text><text fill="#000000" font-family="sans-serif" font-size="20" lengthAdjust="spacing" textLength="51" x="985" y="105.4082">HTTP</text><rect fill="#E2E2F0" height="60.5625" rx="2.5" ry="2.5" style="stroke:#181818;stroke-width:0.5;" width="201" x="910" y="509.9375"/><text fill="#000000" font-family="sans-serif" font-size="20" font-style="italic" lengthAdjust="spacing" textLength="187" x="917" y="535.502">«component (C4)»</text><text fill="#000000" font-family="sans-serif" font-size="20" lengthAdjust="spacing" textLength="51" x="985" y="558.7832">HTTP</text><rect fill="#E2E2F0" height="60.5625" rx="2.5" ry="2.5" style="stroke:#181818;stroke-width:0.5;" width="201" x="1121" y="56.5625"/><text fill="#000000" font-family="sans-serif" font-size="20" font-style="italic" lengthAdjust="spacing" textLength="187" x="1128" y="82.127">«component (C4)»</text><text fill="#000000" font-family="sans-serif" font-size="20" lengthAdjust="spacing" textLength="170" x="1136.5" y="105.4082">MD Management</text><rect fill="#E2E2F0" height="60.5625" rx="2.5" ry="2.5" style="stroke:#181818;stroke-width:0.5;" width="201" x="1121" y="509.9375"/><text fill="#000000" font-family="sans-serif" font-size="20" font-style="italic" lengthAdjust="spacing" textLength="187" x="1128" y="535.502">«component (C4)»</text><text fill="#000000" font-family="sans-serif" font-size="20" lengthAdjust="spacing" textLength="170" x="1136.5" y="558.7832">MD Management</text><rect fill="#FFFFFF" height="364.8125" style="stroke:#181818;stroke-width:1.0;" width="10" x="90.5" y="128.125"/><rect fill="#FFFFFF" height="344.5313" style="stroke:#181818;stroke-width:1.0;" width="10" x="377.5" y="157.4063"/><rect fill="#FFFFFF" height="335.5313" style="stroke:#181818;stroke-width:1.0;" width="10" x="377.5" y="157.4063"/><rect fill="#FFFFFF" height="260.9688" style="stroke:#181818;stroke-width:1.0;" width="10" x="583.5" y="194.6875"/><rect fill="#FFFFFF" height="186.4063" style="stroke:#181818;stroke-width:1.0;" width="10" x="794.5" y="231.9688"/><rect fill="#FFFFFF" height="111.8438" style="stroke:#181818;stroke-width:1.0;" width="10" x="1005.5" y="269.25"/><rect fill="#FFFFFF" height="37.2813" style="stroke:#181818;stroke-width:1.0;" width="10" x="1216.5" y="306.5313"/><polygon fill="#181818" points="365.5,153.4063,375.5,157.4063,365.5,161.4063,369.5,157.4063" style="stroke:#181818;stroke-width:1.0;"/><line style="stroke:#181818;stroke-width:1.0;" x1="100.5" x2="371.5" y1="157.4063" y2="157.4063"/><text fill="#000000" font-family="sans-serif" font-size="20" font-weight="bold" lengthAdjust="spacing" textLength="14" x="107.5" y="150.6895">1</text><text fill="#000000" font-family="sans-serif" font-size="20" lengthAdjust="spacing" textLength="235" x="125.5" y="150.6895">asks to list all buildings</text><polygon fill="#181818" points="571.5,190.6875,581.5,194.6875,571.5,198.6875,575.5,194.6875" style="stroke:#181818;stroke-width:1.0;"/><line style="stroke:#181818;stroke-width:1.0;" x1="387.5" x2="577.5" y1="194.6875" y2="194.6875"/><text fill="#000000" font-family="sans-serif" font-size="20" font-weight="bold" lengthAdjust="spacing" textLength="14" x="394.5" y="187.9707">2</text><text fill="#000000" font-family="sans-serif" font-size="20" lengthAdjust="spacing" textLength="159" x="412.5" y="187.9707">list all buildings</text><polygon fill="#181818" points="782.5,227.9688,792.5,231.9688,782.5,235.9688,786.5,231.9688" style="stroke:#181818;stroke-width:1.0;"/><line style="stroke:#181818;stroke-width:1.0;" x1="593.5" x2="788.5" y1="231.9688" y2="231.9688"/><text fill="#000000" font-family="sans-serif" font-size="20" font-weight="bold" lengthAdjust="spacing" textLength="14" x="600.5" y="225.252">3</text><text fill="#000000" font-family="sans-serif" font-size="20" lengthAdjust="spacing" textLength="162" x="618.5" y="225.252">get all buildings</text><polygon fill="#181818" points="993.5,265.25,1003.5,269.25,993.5,273.25,997.5,269.25" style="stroke:#181818;stroke-width:1.0;"/><line style="stroke:#181818;stroke-width:1.0;" x1="804.5" x2="999.5" y1="269.25" y2="269.25"/><text fill="#000000" font-family="sans-serif" font-size="20" font-weight="bold" lengthAdjust="spacing" textLength="14" x="811.5" y="262.5332">4</text><text fill="#000000" font-family="sans-serif" font-size="20" lengthAdjust="spacing" textLength="161" x="829.5" y="262.5332">get('/buildings')</text><polygon fill="#181818" points="1204.5,302.5313,1214.5,306.5313,1204.5,310.5313,1208.5,306.5313" style="stroke:#181818;stroke-width:1.0;"/><line style="stroke:#181818;stroke-width:1.0;" x1="1015.5" x2="1210.5" y1="306.5313" y2="306.5313"/><text fill="#000000" font-family="sans-serif" font-size="20" font-weight="bold" lengthAdjust="spacing" textLength="14" x="1022.5" y="299.8145">5</text><text fill="#000000" font-family="sans-serif" font-size="20" lengthAdjust="spacing" textLength="147" x="1040.5" y="299.8145">GET /buildings</text><polygon fill="#181818" points="1026.5,339.8125,1016.5,343.8125,1026.5,347.8125,1022.5,343.8125" style="stroke:#181818;stroke-width:1.0;"/><line style="stroke:#181818;stroke-width:1.0;stroke-dasharray:2.0,2.0;" x1="1020.5" x2="1220.5" y1="343.8125" y2="343.8125"/><text fill="#000000" font-family="sans-serif" font-size="20" font-weight="bold" lengthAdjust="spacing" textLength="14" x="1032.5" y="337.0957">6</text><text fill="#000000" font-family="sans-serif" font-size="20" lengthAdjust="spacing" textLength="154" x="1050.5" y="337.0957">200 (buildings)</text><polygon fill="#181818" points="815.5,377.0938,805.5,381.0938,815.5,385.0938,811.5,381.0938" style="stroke:#181818;stroke-width:1.0;"/><line style="stroke:#181818;stroke-width:1.0;stroke-dasharray:2.0,2.0;" x1="809.5" x2="1009.5" y1="381.0938" y2="381.0938"/><text fill="#000000" font-family="sans-serif" font-size="20" font-weight="bold" lengthAdjust="spacing" textLength="14" x="821.5" y="374.377">7</text><text fill="#000000" font-family="sans-serif" font-size="20" lengthAdjust="spacing" textLength="93" x="839.5" y="374.377">buildings</text><polygon fill="#181818" points="604.5,414.375,594.5,418.375,604.5,422.375,600.5,418.375" style="stroke:#181818;stroke-width:1.0;"/><line style="stroke:#181818;stroke-width:1.0;stroke-dasharray:2.0,2.0;" x1="598.5" x2="798.5" y1="418.375" y2="418.375"/><text fill="#000000" font-family="sans-serif" font-size="20" font-weight="bold" lengthAdjust="spacing" textLength="14" x="610.5" y="411.6582">8</text><text fill="#000000" font-family="sans-serif" font-size="20" lengthAdjust="spacing" textLength="93" x="628.5" y="411.6582">buildings</text><polygon fill="#181818" points="398.5,451.6563,388.5,455.6563,398.5,459.6563,394.5,455.6563" style="stroke:#181818;stroke-width:1.0;"/><line style="stroke:#181818;stroke-width:1.0;stroke-dasharray:2.0,2.0;" x1="392.5" x2="587.5" y1="455.6563" y2="455.6563"/><text fill="#000000" font-family="sans-serif" font-size="20" font-weight="bold" lengthAdjust="spacing" textLength="14" x="404.5" y="448.9395">9</text><text fill="#000000" font-family="sans-serif" font-size="20" lengthAdjust="spacing" textLength="93" x="422.5" y="448.9395">buildings</text><polygon fill="#181818" points="106.5,488.9375,96.5,492.9375,106.5,496.9375,102.5,492.9375" style="stroke:#181818;stroke-width:1.0;"/><line style="stroke:#181818;stroke-width:1.0;stroke-dasharray:2.0,2.0;" x1="100.5" x2="371.5" y1="492.9375" y2="492.9375"/><text fill="#000000" font-family="sans-serif" font-size="20" font-weight="bold" lengthAdjust="spacing" textLength="28" x="112.5" y="486.2207">10</text><text fill="#000000" font-family="sans-serif" font-size="20" lengthAdjust="spacing" textLength="201" x="144.5" y="486.2207">returns all buildings</text><!--SRC=[ZP5TQy8m58RlpwyuT1VgXIYogr8Am-uBLZQc4mQxYUrP5qoJqgJx-lLBKgqwtV2c9ELvtvmyqIikArQpKgXiHJdczCeQOQwKD3F-JJWP0skCaasvf1hqXiQavURqQIu4BsH9qaHHPhzKnp6s2m2M6LNZD4McCPYoiceqfaooWke0bkeJWoZINzfGYVtfUHo_o0NN3HFycnckPB2j14Hxik4PhvWqjlB1TpxTubILbP8M2z3Ycuth6np4qll4nrALDu9E2CmU5pume_gTPwSaRkRpTZItECgJpD7U7Gu539o1D5ahAZTtMYiuk-F5ctac8TJ7xtibhUB3x9-7swVXxyoGLGbWNsWOUwcXxLbfD0e5rmQP4BXikCYvBFHkvW7sTovhAvpWyD-e9S1H5dPoGopeJzO2u23BUgqUxlT67TeRx8pX400FkaciaX2lB-SuEZP5ae8ZXjlgoNYC_GuTG4vxzBgu6tjRkWEs8_YHEnb7GNSpRw7JVXHpijpZHCFX6gl9DBNKlupjHFpJxF-07m00]--></g></svg>