<?xml version="1.0" encoding="UTF-8" standalone="no"?><svg xmlns="http://www.w3.org/2000/svg" xmlns:xlink="http://www.w3.org/1999/xlink" contentStyleType="text/css" height="662px" preserveAspectRatio="none" style="width:1205px;height:662px;background:#FFFFFF;" version="1.1" viewBox="0 0 1205 662" width="1205px" zoomAndPan="magnify"><defs/><g><rect fill="#DDDDDD" height="650.5996" style="stroke:#181818;stroke-width:0.5;" width="755.875" x="257.125" y="6"/><text fill="#000000" font-family="sans-serif" font-size="20" font-weight="bold" lengthAdjust="spacing" textLength="128.875" x="570.625" y="27.38">«system (C4»</text><text fill="#000000" font-family="sans-serif" font-size="20" font-weight="bold" lengthAdjust="spacing" textLength="124.125" x="573" y="54.62">Visualization</text><rect fill="#FFFFE0" height="650.5996" style="stroke:#181818;stroke-width:0.5;" width="184" x="1015" y="6"/><text fill="#000000" font-family="sans-serif" font-size="20" font-weight="bold" lengthAdjust="spacing" textLength="135.5" x="1039.25" y="27.38">«system (C4)»</text><text fill="#000000" font-family="sans-serif" font-size="20" font-weight="bold" lengthAdjust="spacing" textLength="169.5" x="1022.25" y="54.62">MD Management</text><rect fill="#FFFFFF" height="404.3997" style="stroke:#181818;stroke-width:1.0;" width="10" x="85.5" y="143.9599"/><rect fill="#FFFFFF" height="380.1598" style="stroke:#181818;stroke-width:1.0;" width="10" x="349.125" y="177.1999"/><rect fill="#FFFFFF" height="371.1598" style="stroke:#181818;stroke-width:1.0;" width="10" x="349.125" y="177.1999"/><rect fill="#FFFFFF" height="288.6798" style="stroke:#181818;stroke-width:1.0;" width="10" x="536.75" y="218.4398"/><rect fill="#FFFFFF" height="206.1999" style="stroke:#181818;stroke-width:1.0;" width="10" x="727.375" y="259.6798"/><rect fill="#FFFFFF" height="123.7199" style="stroke:#181818;stroke-width:1.0;" width="10" x="916" y="300.9198"/><rect fill="#FFFFFF" height="41.24" style="stroke:#181818;stroke-width:1.0;" width="10" x="1102" y="342.1598"/><line style="stroke:#181818;stroke-width:0.5;stroke-dasharray:5.0,5.0;" x1="90" x2="90" y1="133.9599" y2="566.3596"/><line style="stroke:#181818;stroke-width:0.5;stroke-dasharray:5.0,5.0;" x1="349.125" x2="349.125" y1="133.9599" y2="566.3596"/><line style="stroke:#181818;stroke-width:0.5;stroke-dasharray:5.0,5.0;" x1="541.75" x2="541.75" y1="133.9599" y2="566.3596"/><line style="stroke:#181818;stroke-width:0.5;stroke-dasharray:5.0,5.0;" x1="732.375" x2="732.375" y1="133.9599" y2="566.3596"/><line style="stroke:#181818;stroke-width:0.5;stroke-dasharray:5.0,5.0;" x1="921" x2="921" y1="133.9599" y2="566.3596"/><line style="stroke:#181818;stroke-width:0.5;stroke-dasharray:5.0,5.0;" x1="1107" x2="1107" y1="133.9599" y2="566.3596"/><text fill="#000000" font-family="sans-serif" font-size="20" lengthAdjust="spacing" textLength="165" x="5" y="128.0999">Campus Manager</text><ellipse cx="90.5" cy="55.2199" fill="#E2E2F0" rx="8" ry="8" style="stroke:#181818;stroke-width:0.5;"/><path d="M90.5,63.2199 L90.5,90.2199 M77.5,71.2199 L103.5,71.2199 M90.5,90.2199 L77.5,105.2199 M90.5,90.2199 L103.5,105.2199 " fill="none" style="stroke:#181818;stroke-width:0.5;"/><text fill="#000000" font-family="sans-serif" font-size="20" lengthAdjust="spacing" textLength="165" x="5" y="586.7396">Campus Manager</text><ellipse cx="90.5" cy="601.0996" fill="#E2E2F0" rx="8" ry="8" style="stroke:#181818;stroke-width:0.5;"/><path d="M90.5,609.0996 L90.5,636.0996 M77.5,617.0996 L103.5,617.0996 M90.5,636.0996 L77.5,651.0996 M90.5,636.0996 L103.5,651.0996 " fill="none" style="stroke:#181818;stroke-width:0.5;"/><rect fill="#E2E2F0" height="68.4799" rx="2.5" ry="2.5" style="stroke:#181818;stroke-width:0.5;" width="176" x="261.125" y="64.4799"/><text fill="#000000" font-family="sans-serif" font-size="20" font-style="italic" lengthAdjust="spacing" textLength="162" x="268.125" y="92.8599">«component (C4)»</text><text fill="#000000" font-family="sans-serif" font-size="20" lengthAdjust="spacing" textLength="137" x="280.625" y="120.0999">UI Component</text><rect fill="#E2E2F0" height="68.4799" rx="2.5" ry="2.5" style="stroke:#181818;stroke-width:0.5;" width="176" x="261.125" y="565.3596"/><text fill="#000000" font-family="sans-serif" font-size="20" font-style="italic" lengthAdjust="spacing" textLength="162" x="268.125" y="593.7396">«component (C4)»</text><text fill="#000000" font-family="sans-serif" font-size="20" lengthAdjust="spacing" textLength="137" x="280.625" y="620.9796">UI Component</text><rect fill="#E2E2F0" height="68.4799" rx="2.5" ry="2.5" style="stroke:#181818;stroke-width:0.5;" width="176" x="453.75" y="64.4799"/><text fill="#000000" font-family="sans-serif" font-size="20" font-style="italic" lengthAdjust="spacing" textLength="162" x="460.75" y="92.8599">«component (C4)»</text><text fill="#000000" font-family="sans-serif" font-size="20" lengthAdjust="spacing" textLength="70" x="506.75" y="120.0999">Module</text><rect fill="#E2E2F0" height="68.4799" rx="2.5" ry="2.5" style="stroke:#181818;stroke-width:0.5;" width="176" x="453.75" y="565.3596"/><text fill="#000000" font-family="sans-serif" font-size="20" font-style="italic" lengthAdjust="spacing" textLength="162" x="460.75" y="593.7396">«component (C4)»</text><text fill="#000000" font-family="sans-serif" font-size="20" lengthAdjust="spacing" textLength="70" x="506.75" y="620.9796">Module</text><rect fill="#E2E2F0" height="68.4799" rx="2.5" ry="2.5" style="stroke:#181818;stroke-width:0.5;" width="176" x="644.375" y="64.4799"/><text fill="#000000" font-family="sans-serif" font-size="20" font-style="italic" lengthAdjust="spacing" textLength="162" x="651.375" y="92.8599">«component (C4)»</text><text fill="#000000" font-family="sans-serif" font-size="20" lengthAdjust="spacing" textLength="66" x="699.375" y="120.0999">Service</text><rect fill="#E2E2F0" height="68.4799" rx="2.5" ry="2.5" style="stroke:#181818;stroke-width:0.5;" width="176" x="644.375" y="565.3596"/><text fill="#000000" font-family="sans-serif" font-size="20" font-style="italic" lengthAdjust="spacing" textLength="162" x="651.375" y="593.7396">«component (C4)»</text><text fill="#000000" font-family="sans-serif" font-size="20" lengthAdjust="spacing" textLength="66" x="699.375" y="620.9796">Service</text><rect fill="#E2E2F0" height="68.4799" rx="2.5" ry="2.5" style="stroke:#181818;stroke-width:0.5;" width="176" x="833" y="64.4799"/><text fill="#000000" font-family="sans-serif" font-size="20" font-style="italic" lengthAdjust="spacing" textLength="162" x="840" y="92.8599">«component (C4)»</text><text fill="#000000" font-family="sans-serif" font-size="20" lengthAdjust="spacing" textLength="49" x="896.5" y="120.0999">HTTP</text><rect fill="#E2E2F0" height="68.4799" rx="2.5" ry="2.5" style="stroke:#181818;stroke-width:0.5;" width="176" x="833" y="565.3596"/><text fill="#000000" font-family="sans-serif" font-size="20" font-style="italic" lengthAdjust="spacing" textLength="162" x="840" y="593.7396">«component (C4)»</text><text fill="#000000" font-family="sans-serif" font-size="20" lengthAdjust="spacing" textLength="49" x="896.5" y="620.9796">HTTP</text><rect fill="#E2E2F0" height="68.4799" rx="2.5" ry="2.5" style="stroke:#181818;stroke-width:0.5;" width="176" x="1019" y="64.4799"/><text fill="#000000" font-family="sans-serif" font-size="20" font-style="italic" lengthAdjust="spacing" textLength="162" x="1026" y="92.8599">«component (C4)»</text><text fill="#000000" font-family="sans-serif" font-size="20" lengthAdjust="spacing" textLength="162" x="1026" y="120.0999">MD Management</text><rect fill="#E2E2F0" height="68.4799" rx="2.5" ry="2.5" style="stroke:#181818;stroke-width:0.5;" width="176" x="1019" y="565.3596"/><text fill="#000000" font-family="sans-serif" font-size="20" font-style="italic" lengthAdjust="spacing" textLength="162" x="1026" y="593.7396">«component (C4)»</text><text fill="#000000" font-family="sans-serif" font-size="20" lengthAdjust="spacing" textLength="162" x="1026" y="620.9796">MD Management</text><rect fill="#FFFFFF" height="404.3997" style="stroke:#181818;stroke-width:1.0;" width="10" x="85.5" y="143.9599"/><rect fill="#FFFFFF" height="380.1598" style="stroke:#181818;stroke-width:1.0;" width="10" x="349.125" y="177.1999"/><rect fill="#FFFFFF" height="371.1598" style="stroke:#181818;stroke-width:1.0;" width="10" x="349.125" y="177.1999"/><rect fill="#FFFFFF" height="288.6798" style="stroke:#181818;stroke-width:1.0;" width="10" x="536.75" y="218.4398"/><rect fill="#FFFFFF" height="206.1999" style="stroke:#181818;stroke-width:1.0;" width="10" x="727.375" y="259.6798"/><rect fill="#FFFFFF" height="123.7199" style="stroke:#181818;stroke-width:1.0;" width="10" x="916" y="300.9198"/><rect fill="#FFFFFF" height="41.24" style="stroke:#181818;stroke-width:1.0;" width="10" x="1102" y="342.1598"/><polygon fill="#181818" points="337.125,173.1999,347.125,177.1999,337.125,181.1999,341.125,177.1999" style="stroke:#181818;stroke-width:1.0;"/><line style="stroke:#181818;stroke-width:1.0;" x1="95.5" x2="343.125" y1="177.1999" y2="177.1999"/><text fill="#000000" font-family="sans-serif" font-size="20" font-weight="bold" lengthAdjust="spacing" textLength="11.625" x="102.5" y="169.3399">1</text><text fill="#000000" font-family="sans-serif" font-size="20" lengthAdjust="spacing" textLength="214" x="118.125" y="169.3399">asks to list all buildings</text><polygon fill="#181818" points="524.75,214.4398,534.75,218.4398,524.75,222.4398,528.75,218.4398" style="stroke:#181818;stroke-width:1.0;"/><line style="stroke:#181818;stroke-width:1.0;" x1="359.125" x2="530.75" y1="218.4398" y2="218.4398"/><text fill="#000000" font-family="sans-serif" font-size="20" font-weight="bold" lengthAdjust="spacing" textLength="11.625" x="366.125" y="210.5799">2</text><text fill="#000000" font-family="sans-serif" font-size="20" lengthAdjust="spacing" textLength="143" x="381.75" y="210.5799">list all buildings</text><polygon fill="#181818" points="715.375,255.6798,725.375,259.6798,715.375,263.6798,719.375,259.6798" style="stroke:#181818;stroke-width:1.0;"/><line style="stroke:#181818;stroke-width:1.0;" x1="546.75" x2="721.375" y1="259.6798" y2="259.6798"/><text fill="#000000" font-family="sans-serif" font-size="20" font-weight="bold" lengthAdjust="spacing" textLength="11.625" x="553.75" y="251.8198">3</text><text fill="#000000" font-family="sans-serif" font-size="20" lengthAdjust="spacing" textLength="146" x="569.375" y="251.8198">get all buildings</text><polygon fill="#181818" points="904,296.9198,914,300.9198,904,304.9198,908,300.9198" style="stroke:#181818;stroke-width:1.0;"/><line style="stroke:#181818;stroke-width:1.0;" x1="737.375" x2="910" y1="300.9198" y2="300.9198"/><text fill="#000000" font-family="sans-serif" font-size="20" font-weight="bold" lengthAdjust="spacing" textLength="11.625" x="744.375" y="293.0598">4</text><text fill="#000000" font-family="sans-serif" font-size="20" lengthAdjust="spacing" textLength="144" x="760" y="293.0598">get('/buildings')</text><polygon fill="#181818" points="1090,338.1598,1100,342.1598,1090,346.1598,1094,342.1598" style="stroke:#181818;stroke-width:1.0;"/><line style="stroke:#181818;stroke-width:1.0;" x1="926" x2="1096" y1="342.1598" y2="342.1598"/><text fill="#000000" font-family="sans-serif" font-size="20" font-weight="bold" lengthAdjust="spacing" textLength="11.625" x="933" y="334.2998">5</text><text fill="#000000" font-family="sans-serif" font-size="20" lengthAdjust="spacing" textLength="134" x="948.625" y="334.2998">GET /buildings</text><polygon fill="#181818" points="937,379.3997,927,383.3997,937,387.3997,933,383.3997" style="stroke:#181818;stroke-width:1.0;"/><line style="stroke:#181818;stroke-width:1.0;stroke-dasharray:2.0,2.0;" x1="931" x2="1106" y1="383.3997" y2="383.3997"/><text fill="#000000" font-family="sans-serif" font-size="20" font-weight="bold" lengthAdjust="spacing" textLength="11.625" x="943" y="375.5398">6</text><text fill="#000000" font-family="sans-serif" font-size="20" lengthAdjust="spacing" textLength="135" x="958.625" y="375.5398">200 (buildings)</text><polygon fill="#181818" points="748.375,420.6397,738.375,424.6397,748.375,428.6397,744.375,424.6397" style="stroke:#181818;stroke-width:1.0;"/><line style="stroke:#181818;stroke-width:1.0;stroke-dasharray:2.0,2.0;" x1="742.375" x2="920" y1="424.6397" y2="424.6397"/><text fill="#000000" font-family="sans-serif" font-size="20" font-weight="bold" lengthAdjust="spacing" textLength="11.625" x="754.375" y="416.7797">7</text><text fill="#000000" font-family="sans-serif" font-size="20" lengthAdjust="spacing" textLength="85" x="770" y="416.7797">buildings</text><polygon fill="#181818" points="557.75,461.8797,547.75,465.8797,557.75,469.8797,553.75,465.8797" style="stroke:#181818;stroke-width:1.0;"/><line style="stroke:#181818;stroke-width:1.0;stroke-dasharray:2.0,2.0;" x1="551.75" x2="731.375" y1="465.8797" y2="465.8797"/><text fill="#000000" font-family="sans-serif" font-size="20" font-weight="bold" lengthAdjust="spacing" textLength="11.625" x="563.75" y="458.0197">8</text><text fill="#000000" font-family="sans-serif" font-size="20" lengthAdjust="spacing" textLength="85" x="579.375" y="458.0197">buildings</text><polygon fill="#181818" points="370.125,503.1197,360.125,507.1197,370.125,511.1197,366.125,507.1197" style="stroke:#181818;stroke-width:1.0;"/><line style="stroke:#181818;stroke-width:1.0;stroke-dasharray:2.0,2.0;" x1="364.125" x2="540.75" y1="507.1197" y2="507.1197"/><text fill="#000000" font-family="sans-serif" font-size="20" font-weight="bold" lengthAdjust="spacing" textLength="11.625" x="376.125" y="499.2597">9</text><text fill="#000000" font-family="sans-serif" font-size="20" lengthAdjust="spacing" textLength="85" x="391.75" y="499.2597">buildings</text><polygon fill="#181818" points="101.5,544.3596,91.5,548.3596,101.5,552.3596,97.5,548.3596" style="stroke:#181818;stroke-width:1.0;"/><line style="stroke:#181818;stroke-width:1.0;stroke-dasharray:2.0,2.0;" x1="95.5" x2="343.125" y1="548.3596" y2="548.3596"/><text fill="#000000" font-family="sans-serif" font-size="20" font-weight="bold" lengthAdjust="spacing" textLength="23.25" x="107.5" y="540.4997">10</text><text fill="#000000" font-family="sans-serif" font-size="20" lengthAdjust="spacing" textLength="184" x="134.75" y="540.4997">returns all buildings</text><!--SRC=[ZP5TQy8m58RlpwyuT1VgXIYogr8Am-uBLZQc4mQxYUrP5qoJqgJx-lLBKgqwtV2c9ELvtvmyqIikArQpKgXiHJdczCeQOQwKD3F-JJWP0skCaasvf1hqXiQavURqQIu4BsH9qaHHPhzKnp6s2m2M6LNZD4McCPYoiceqfaooWke0bkeJWoZINzfGYVtfUHo_o0NN3HFycnckPB2j14Hxik4PhvWqjlB1TpxTubILbP8M2z3Ycuth6np4qll4nrALDu9E2CmU5pume_gTPwSaRkRpTZItECgJpD7U7Gu539o1D5ahAZTtMYiuk-F5ctac8TJ7xtibhUB3x9-7swVXxyoGLGbWNsWOUwcXxLbfD0e5rmQP4BXikCYvBFHkvW7sTovhAvpWyD-e9S1H5dPoGopeJzO2u23BUgqUxlT67TeRx8pX400FkaciaX2lB-SuEZP5ae8ZXjlgoNYC_GuTG4vxzBgu6tjRkWEs8_YHEnb7GNSpRw7JVXHpijpZHCFX6gl9DBNKlupjHFpJxF-07m00]--></g></svg>